<?xml version="1.0" standalone="no"?>
<!DOCTYPE svg PUBLIC "-//W3C//DTD SVG 1.1//EN"
 "http://www.w3.org/Graphics/SVG/1.1/DTD/svg11.dtd">
<!-- generate by Handict dictionary app com.asnsami.handict -->

<svg xmlns="http://www.w3.org/2000/svg" xmlns:sodipodi="http://sodipodi.sourceforge.net/DTD/sodipodi-0.dtd" version="1.1" width="640" height="128" viewBox="0 0 5120 1024">
	<g id="id0:id0" transform="translate(0.0,0)">
		<g id="id0:id0:id0" transform="matrix(1.0,0,0,1.0,0,0.0)">			<g stroke="lightgray" stroke-width="4" transform="scale(4, 4)"> <rect x="0" y="0" width="256" height="256" fill="white" stroke-width="4"/></g>
			<g transform="scale(0.92, -0.92) translate(60, -920)">					<path d="M 531 651 Q 736 675 868 663 Q 893 662 899 670 Q 906 683 894 696 Q 863 724 817 744 Q 801 750 775 740 Q 712 725 483 694 Q 185 660 168 657 Q 162 658 156 657 Q 141 657 141 645 Q 140 632 160 618 Q 178 605 211 594 Q 221 590 240 599 Q 348 629 470 644 L 531 651 Z" fill="red"></path>
				<path d="M 435 100 Q 407 107 373 116 Q 360 120 361 112 Q 361 103 373 94 Q 445 39 491 -5 Q 503 -15 518 2 Q 560 60 553 141 Q 541 447 548 561 Q 548 579 550 596 Q 556 624 549 635 Q 545 642 531 651 C 509 671 457 671 470 644 Q 485 629 485 573 Q 488 443 488 148 Q 487 112 477 99 Q 464 92 435 100 Z" fill="lightgray"></path>
</g>
		<text x="40" y="140" font-size="128" fill="#999999">1</text></g>
		<g id="id0:id1:id1" transform="matrix(1.0,0,0,1.0,1024,0.0)">			<g stroke="lightgray" stroke-width="4" transform="scale(4, 4)"> <rect x="0" y="0" width="256" height="256" fill="white" stroke-width="4"/></g>
			<g transform="scale(0.92, -0.92) translate(60, -920)">					<path d="M 531 651 Q 736 675 868 663 Q 893 662 899 670 Q 906 683 894 696 Q 863 724 817 744 Q 801 750 775 740 Q 712 725 483 694 Q 185 660 168 657 Q 162 658 156 657 Q 141 657 141 645 Q 140 632 160 618 Q 178 605 211 594 Q 221 590 240 599 Q 348 629 470 644 L 531 651 Z" fill="black"></path>
				<path d="M 435 100 Q 407 107 373 116 Q 360 120 361 112 Q 361 103 373 94 Q 445 39 491 -5 Q 503 -15 518 2 Q 560 60 553 141 Q 541 447 548 561 Q 548 579 550 596 Q 556 624 549 635 Q 545 642 531 651 C 509 671 457 671 470 644 Q 485 629 485 573 Q 488 443 488 148 Q 487 112 477 99 Q 464 92 435 100 Z" fill="red"></path>
</g>
		<text x="40" y="140" font-size="128" fill="#999999">2</text></g>
		<g id="id0:id2:id2" transform="matrix(1.0,0,0,1.0,2048,0.0)">			<g stroke="white" stroke-width="4" transform="scale(4, 4)"> <rect x="1" y="1" width="255" height="255" fill="white" stroke-width="0"/></g>
</g>
		<g id="id0:id3:id3" transform="matrix(1.0,0,0,1.0,3072,0.0)">			<g stroke="white" stroke-width="4" transform="scale(4, 4)"> <rect x="1" y="1" width="255" height="255" fill="white" stroke-width="0"/></g>
</g>
		<g id="id0:id4:id4" transform="matrix(1.0,0,0,1.0,4096,0.0)">			<g stroke="white" stroke-width="4" transform="scale(4, 4)"> <rect x="1" y="1" width="255" height="255" fill="white" stroke-width="0"/></g>
</g>
</g>
</svg>
