<?xml version="1.0" standalone="no"?>
<!DOCTYPE svg PUBLIC "-//W3C//DTD SVG 1.1//EN"
 "http://www.w3.org/Graphics/SVG/1.1/DTD/svg11.dtd">
<!-- generate by Handict dictionary app com.asnsami.handict -->

<svg xmlns="http://www.w3.org/2000/svg" xmlns:sodipodi="http://sodipodi.sourceforge.net/DTD/sodipodi-0.dtd" version="1.1" width="640" height="128" viewBox="0 0 5120 1024">
	<g id="id0:id0" transform="translate(0.0,0)">
		<g id="id0:id0:id0" transform="matrix(1.0,0,0,1.0,0,0.0)">			<g stroke="lightgray" stroke-width="4" transform="scale(4, 4)"> <rect x="0" y="0" width="256" height="256" fill="white" stroke-width="4"/></g>
			<g transform="scale(0.92, -0.92) translate(60, -920)">					<path d="M 326 667 Q 283 663 312 640 Q 369 610 428 623 Q 543 641 665 661 Q 720 671 729 678 Q 739 688 735 698 Q 728 711 693 722 Q 660 731 561 701 Q 420 673 326 667 Z" fill="red"></path>
				<path d="M 329 421 Q 304 417 332 392 Q 348 379 385 383 Q 557 405 685 416 Q 721 420 709 440 Q 694 462 657 472 Q 621 479 558 466 Q 435 441 329 421 Z" fill="lightgray"></path>
				<path d="M 130 165 Q 102 162 122 139 Q 140 120 163 113 Q 191 104 212 110 Q 515 179 929 157 Q 930 158 933 157 Q 960 156 967 167 Q 974 183 953 201 Q 884 255 835 246 Q 643 210 130 165 Z" fill="lightgray"></path>
</g>
		<text x="40" y="140" font-size="128" fill="#999999">1</text></g>
		<g id="id0:id1:id1" transform="matrix(1.0,0,0,1.0,1024,0.0)">			<g stroke="lightgray" stroke-width="4" transform="scale(4, 4)"> <rect x="0" y="0" width="256" height="256" fill="white" stroke-width="4"/></g>
			<g transform="scale(0.92, -0.92) translate(60, -920)">					<path d="M 326 667 Q 283 663 312 640 Q 369 610 428 623 Q 543 641 665 661 Q 720 671 729 678 Q 739 688 735 698 Q 728 711 693 722 Q 660 731 561 701 Q 420 673 326 667 Z" fill="black"></path>
				<path d="M 329 421 Q 304 417 332 392 Q 348 379 385 383 Q 557 405 685 416 Q 721 420 709 440 Q 694 462 657 472 Q 621 479 558 466 Q 435 441 329 421 Z" fill="red"></path>
				<path d="M 130 165 Q 102 162 122 139 Q 140 120 163 113 Q 191 104 212 110 Q 515 179 929 157 Q 930 158 933 157 Q 960 156 967 167 Q 974 183 953 201 Q 884 255 835 246 Q 643 210 130 165 Z" fill="lightgray"></path>
</g>
		<text x="40" y="140" font-size="128" fill="#999999">2</text></g>
		<g id="id0:id2:id2" transform="matrix(1.0,0,0,1.0,2048,0.0)">			<g stroke="lightgray" stroke-width="4" transform="scale(4, 4)"> <rect x="0" y="0" width="256" height="256" fill="white" stroke-width="4"/></g>
			<g transform="scale(0.92, -0.92) translate(60, -920)">					<path d="M 326 667 Q 283 663 312 640 Q 369 610 428 623 Q 543 641 665 661 Q 720 671 729 678 Q 739 688 735 698 Q 728 711 693 722 Q 660 731 561 701 Q 420 673 326 667 Z" fill="black"></path>
				<path d="M 329 421 Q 304 417 332 392 Q 348 379 385 383 Q 557 405 685 416 Q 721 420 709 440 Q 694 462 657 472 Q 621 479 558 466 Q 435 441 329 421 Z" fill="black"></path>
				<path d="M 130 165 Q 102 162 122 139 Q 140 120 163 113 Q 191 104 212 110 Q 515 179 929 157 Q 930 158 933 157 Q 960 156 967 167 Q 974 183 953 201 Q 884 255 835 246 Q 643 210 130 165 Z" fill="red"></path>
</g>
		<text x="40" y="140" font-size="128" fill="#999999">3</text></g>
		<g id="id0:id3:id3" transform="matrix(1.0,0,0,1.0,3072,0.0)">			<g stroke="white" stroke-width="4" transform="scale(4, 4)"> <rect x="1" y="1" width="255" height="255" fill="white" stroke-width="0"/></g>
</g>
		<g id="id0:id4:id4" transform="matrix(1.0,0,0,1.0,4096,0.0)">			<g stroke="white" stroke-width="4" transform="scale(4, 4)"> <rect x="1" y="1" width="255" height="255" fill="white" stroke-width="0"/></g>
</g>
</g>
</svg>
