<?xml version="1.0" standalone="no"?>
<!DOCTYPE svg PUBLIC "-//W3C//DTD SVG 1.1//EN"
 "http://www.w3.org/Graphics/SVG/1.1/DTD/svg11.dtd">
<!-- generate by Handict dictionary app com.asnsami.handict -->

<svg xmlns="http://www.w3.org/2000/svg" xmlns:sodipodi="http://sodipodi.sourceforge.net/DTD/sodipodi-0.dtd" version="1.1" width="640" height="128" viewBox="0 0 5120 1024">
	<g id="id0:id0" transform="translate(0.0,0)">
		<g id="id0:id0:id0" transform="matrix(1.0,0,0,1.0,0,0.0)">			<g stroke="lightgray" stroke-width="4" transform="scale(4, 4)"> <rect x="0" y="0" width="256" height="256" fill="white" stroke-width="4"/></g>
			<g transform="scale(0.92, -0.92) translate(60, -920)">					<path d="M 606 682 Q 630 694 746 694 Q 878 694 880 695 Q 880 696 882 697 Q 889 710 877 722 Q 804 782 746 759 Q 467 702 200 680 Q 193 681 188 680 Q 175 679 174 668 Q 173 655 192 642 Q 210 630 241 619 Q 251 615 270 624 Q 337 646 474 667 Q 504 673 560 677 L 606 682 Z" fill="red"></path>
				<path d="M 560 677 Q 559 677 560 676 Q 561 649 550 612 Q 528 567 504 528 L 470 480 Q 463 473 457 464 Q 399 388 333 332 Q 269 274 111 165 Q 101 161 112 156 Q 157 156 322 262 Q 409 329 484 417 L 539 483 Q 635 609 644 615 Q 654 621 652 632 Q 651 644 639 658 Q 624 674 606 682 C 580 697 561 707 560 677 Z" fill="lightgray"></path>
				<path d="M 504 528 Q 489 550 466 559 Q 454 560 450 553 Q 444 544 470 480 L 484 417 Q 490 222 461 87 Q 448 38 485 -17 Q 486 -20 490 -23 Q 511 -41 523 -11 Q 539 35 539 86 Q 529 386 536 454 Q 540 472 539 483 C 539 486 523 505 504 528 Z" fill="lightgray"></path>
				<path d="M 632 397 Q 731 321 850 208 Q 868 189 884 184 Q 894 184 901 195 Q 913 210 897 255 Q 873 327 631 429 Q 621 435 620 421 Q 620 406 632 397 Z" fill="lightgray"></path>
</g>
		<text x="40" y="140" font-size="128" fill="#999999">1</text></g>
		<g id="id0:id1:id1" transform="matrix(1.0,0,0,1.0,1024,0.0)">			<g stroke="lightgray" stroke-width="4" transform="scale(4, 4)"> <rect x="0" y="0" width="256" height="256" fill="white" stroke-width="4"/></g>
			<g transform="scale(0.92, -0.92) translate(60, -920)">					<path d="M 606 682 Q 630 694 746 694 Q 878 694 880 695 Q 880 696 882 697 Q 889 710 877 722 Q 804 782 746 759 Q 467 702 200 680 Q 193 681 188 680 Q 175 679 174 668 Q 173 655 192 642 Q 210 630 241 619 Q 251 615 270 624 Q 337 646 474 667 Q 504 673 560 677 L 606 682 Z" fill="black"></path>
				<path d="M 560 677 Q 559 677 560 676 Q 561 649 550 612 Q 528 567 504 528 L 470 480 Q 463 473 457 464 Q 399 388 333 332 Q 269 274 111 165 Q 101 161 112 156 Q 157 156 322 262 Q 409 329 484 417 L 539 483 Q 635 609 644 615 Q 654 621 652 632 Q 651 644 639 658 Q 624 674 606 682 C 580 697 561 707 560 677 Z" fill="red"></path>
				<path d="M 504 528 Q 489 550 466 559 Q 454 560 450 553 Q 444 544 470 480 L 484 417 Q 490 222 461 87 Q 448 38 485 -17 Q 486 -20 490 -23 Q 511 -41 523 -11 Q 539 35 539 86 Q 529 386 536 454 Q 540 472 539 483 C 539 486 523 505 504 528 Z" fill="lightgray"></path>
				<path d="M 632 397 Q 731 321 850 208 Q 868 189 884 184 Q 894 184 901 195 Q 913 210 897 255 Q 873 327 631 429 Q 621 435 620 421 Q 620 406 632 397 Z" fill="lightgray"></path>
</g>
		<text x="40" y="140" font-size="128" fill="#999999">2</text></g>
		<g id="id0:id2:id2" transform="matrix(1.0,0,0,1.0,2048,0.0)">			<g stroke="lightgray" stroke-width="4" transform="scale(4, 4)"> <rect x="0" y="0" width="256" height="256" fill="white" stroke-width="4"/></g>
			<g transform="scale(0.92, -0.92) translate(60, -920)">					<path d="M 606 682 Q 630 694 746 694 Q 878 694 880 695 Q 880 696 882 697 Q 889 710 877 722 Q 804 782 746 759 Q 467 702 200 680 Q 193 681 188 680 Q 175 679 174 668 Q 173 655 192 642 Q 210 630 241 619 Q 251 615 270 624 Q 337 646 474 667 Q 504 673 560 677 L 606 682 Z" fill="black"></path>
				<path d="M 560 677 Q 559 677 560 676 Q 561 649 550 612 Q 528 567 504 528 L 470 480 Q 463 473 457 464 Q 399 388 333 332 Q 269 274 111 165 Q 101 161 112 156 Q 157 156 322 262 Q 409 329 484 417 L 539 483 Q 635 609 644 615 Q 654 621 652 632 Q 651 644 639 658 Q 624 674 606 682 C 580 697 561 707 560 677 Z" fill="black"></path>
				<path d="M 504 528 Q 489 550 466 559 Q 454 560 450 553 Q 444 544 470 480 L 484 417 Q 490 222 461 87 Q 448 38 485 -17 Q 486 -20 490 -23 Q 511 -41 523 -11 Q 539 35 539 86 Q 529 386 536 454 Q 540 472 539 483 C 539 486 523 505 504 528 Z" fill="red"></path>
				<path d="M 632 397 Q 731 321 850 208 Q 868 189 884 184 Q 894 184 901 195 Q 913 210 897 255 Q 873 327 631 429 Q 621 435 620 421 Q 620 406 632 397 Z" fill="lightgray"></path>
</g>
		<text x="40" y="140" font-size="128" fill="#999999">3</text></g>
		<g id="id0:id3:id3" transform="matrix(1.0,0,0,1.0,3072,0.0)">			<g stroke="lightgray" stroke-width="4" transform="scale(4, 4)"> <rect x="0" y="0" width="256" height="256" fill="white" stroke-width="4"/></g>
			<g transform="scale(0.92, -0.92) translate(60, -920)">					<path d="M 606 682 Q 630 694 746 694 Q 878 694 880 695 Q 880 696 882 697 Q 889 710 877 722 Q 804 782 746 759 Q 467 702 200 680 Q 193 681 188 680 Q 175 679 174 668 Q 173 655 192 642 Q 210 630 241 619 Q 251 615 270 624 Q 337 646 474 667 Q 504 673 560 677 L 606 682 Z" fill="black"></path>
				<path d="M 560 677 Q 559 677 560 676 Q 561 649 550 612 Q 528 567 504 528 L 470 480 Q 463 473 457 464 Q 399 388 333 332 Q 269 274 111 165 Q 101 161 112 156 Q 157 156 322 262 Q 409 329 484 417 L 539 483 Q 635 609 644 615 Q 654 621 652 632 Q 651 644 639 658 Q 624 674 606 682 C 580 697 561 707 560 677 Z" fill="black"></path>
				<path d="M 504 528 Q 489 550 466 559 Q 454 560 450 553 Q 444 544 470 480 L 484 417 Q 490 222 461 87 Q 448 38 485 -17 Q 486 -20 490 -23 Q 511 -41 523 -11 Q 539 35 539 86 Q 529 386 536 454 Q 540 472 539 483 C 539 486 523 505 504 528 Z" fill="black"></path>
				<path d="M 632 397 Q 731 321 850 208 Q 868 189 884 184 Q 894 184 901 195 Q 913 210 897 255 Q 873 327 631 429 Q 621 435 620 421 Q 620 406 632 397 Z" fill="red"></path>
</g>
		<text x="40" y="140" font-size="128" fill="#999999">4</text></g>
		<g id="id0:id4:id4" transform="matrix(1.0,0,0,1.0,4096,0.0)">			<g stroke="white" stroke-width="4" transform="scale(4, 4)"> <rect x="1" y="1" width="255" height="255" fill="white" stroke-width="0"/></g>
</g>
</g>
</svg>
