<?xml version="1.0" standalone="no"?>
<!DOCTYPE svg PUBLIC "-//W3C//DTD SVG 1.1//EN"
 "http://www.w3.org/Graphics/SVG/1.1/DTD/svg11.dtd">
<!-- generate by Japanese dictionary app com.asnsami.kanjidictionary -->

<svg xmlns="http://www.w3.org/2000/svg" xmlns:sodipodi="http://sodipodi.sourceforge.net/DTD/sodipodi-0.dtd" version="1.1" width="640" height="128" viewBox="0 0 5120 1024">
	<g id="id0:id0" transform="translate(0.0,0)">
		<g id="id0:id0:id0" transform="matrix(1.0,0,0,1.0,0,0.0)">			<g stroke="lightgray" stroke-width="4" transform="scale(4, 4)"> <rect x="0" y="0" width="256" height="256" fill="white" stroke-width="4"/></g>
			<g transform="scale(0.92, -0.92) translate(60, -920)">					<path d="M 254 596 Q 244 603 202 608 Q 189 611 185 605 Q 178 598 189 580 Q 228 507 254 384 Q 260 347 282 324 Q 303 300 307 318 Q 310 328 310 343 L 306 381 Q 305 390 303 399 Q 276 513 267 556 C 261 585 259 594 254 596 Z" fill="red"></path>
				<path d="M 752 425 Q 765 462 777 498 Q 793 546 828 578 Q 853 603 821 624 Q 793 648 762 666 Q 743 679 717 668 Q 677 655 615 646 Q 575 642 535 636 L 476 628 Q 427 622 380 613 Q 307 603 254 596 C 224 592 237 551 267 556 Q 274 556 286 559 Q 400 587 476 593 L 534 600 Q 604 609 698 615 Q 717 616 724 607 Q 739 583 693 435 C 684 406 742 397 752 425 Z" fill="lightgray"></path>
				<path d="M 530 370 Q 630 380 764 386 Q 776 387 778 397 Q 779 406 752 425 C 730 441 723 440 693 435 Q 606 420 530 407 L 475 399 Q 385 389 306 381 C 276 378 280 341 310 343 Q 314 343 321 343 Q 382 356 475 365 L 530 370 Z" fill="lightgray"></path>
				<path d="M 475 365 Q 472 17 485 -11 Q 486 -12 488 -16 Q 503 -32 512 -10 Q 530 32 530 370 L 530 407 Q 531 519 534 600 L 535 636 Q 538 742 559 778 Q 566 794 545 811 Q 520 830 475 843 Q 454 847 441 833 Q 431 826 444 812 Q 472 787 475 753 Q 475 704 476 628 L 476 593 Q 476 517 476 419 Q 475 409 475 399 L 475 365 Z" fill="lightgray"></path>
</g>
		<text x="40" y="140" font-size="128" fill="#999999">1</text></g>
		<g id="id0:id1:id1" transform="matrix(1.0,0,0,1.0,1024,0.0)">			<g stroke="lightgray" stroke-width="4" transform="scale(4, 4)"> <rect x="0" y="0" width="256" height="256" fill="white" stroke-width="4"/></g>
			<g transform="scale(0.92, -0.92) translate(60, -920)">					<path d="M 254 596 Q 244 603 202 608 Q 189 611 185 605 Q 178 598 189 580 Q 228 507 254 384 Q 260 347 282 324 Q 303 300 307 318 Q 310 328 310 343 L 306 381 Q 305 390 303 399 Q 276 513 267 556 C 261 585 259 594 254 596 Z" fill="black"></path>
				<path d="M 752 425 Q 765 462 777 498 Q 793 546 828 578 Q 853 603 821 624 Q 793 648 762 666 Q 743 679 717 668 Q 677 655 615 646 Q 575 642 535 636 L 476 628 Q 427 622 380 613 Q 307 603 254 596 C 224 592 237 551 267 556 Q 274 556 286 559 Q 400 587 476 593 L 534 600 Q 604 609 698 615 Q 717 616 724 607 Q 739 583 693 435 C 684 406 742 397 752 425 Z" fill="red"></path>
				<path d="M 530 370 Q 630 380 764 386 Q 776 387 778 397 Q 779 406 752 425 C 730 441 723 440 693 435 Q 606 420 530 407 L 475 399 Q 385 389 306 381 C 276 378 280 341 310 343 Q 314 343 321 343 Q 382 356 475 365 L 530 370 Z" fill="lightgray"></path>
				<path d="M 475 365 Q 472 17 485 -11 Q 486 -12 488 -16 Q 503 -32 512 -10 Q 530 32 530 370 L 530 407 Q 531 519 534 600 L 535 636 Q 538 742 559 778 Q 566 794 545 811 Q 520 830 475 843 Q 454 847 441 833 Q 431 826 444 812 Q 472 787 475 753 Q 475 704 476 628 L 476 593 Q 476 517 476 419 Q 475 409 475 399 L 475 365 Z" fill="lightgray"></path>
</g>
		<text x="40" y="140" font-size="128" fill="#999999">2</text></g>
		<g id="id0:id2:id2" transform="matrix(1.0,0,0,1.0,2048,0.0)">			<g stroke="lightgray" stroke-width="4" transform="scale(4, 4)"> <rect x="0" y="0" width="256" height="256" fill="white" stroke-width="4"/></g>
			<g transform="scale(0.92, -0.92) translate(60, -920)">					<path d="M 254 596 Q 244 603 202 608 Q 189 611 185 605 Q 178 598 189 580 Q 228 507 254 384 Q 260 347 282 324 Q 303 300 307 318 Q 310 328 310 343 L 306 381 Q 305 390 303 399 Q 276 513 267 556 C 261 585 259 594 254 596 Z" fill="black"></path>
				<path d="M 752 425 Q 765 462 777 498 Q 793 546 828 578 Q 853 603 821 624 Q 793 648 762 666 Q 743 679 717 668 Q 677 655 615 646 Q 575 642 535 636 L 476 628 Q 427 622 380 613 Q 307 603 254 596 C 224 592 237 551 267 556 Q 274 556 286 559 Q 400 587 476 593 L 534 600 Q 604 609 698 615 Q 717 616 724 607 Q 739 583 693 435 C 684 406 742 397 752 425 Z" fill="black"></path>
				<path d="M 530 370 Q 630 380 764 386 Q 776 387 778 397 Q 779 406 752 425 C 730 441 723 440 693 435 Q 606 420 530 407 L 475 399 Q 385 389 306 381 C 276 378 280 341 310 343 Q 314 343 321 343 Q 382 356 475 365 L 530 370 Z" fill="red"></path>
				<path d="M 475 365 Q 472 17 485 -11 Q 486 -12 488 -16 Q 503 -32 512 -10 Q 530 32 530 370 L 530 407 Q 531 519 534 600 L 535 636 Q 538 742 559 778 Q 566 794 545 811 Q 520 830 475 843 Q 454 847 441 833 Q 431 826 444 812 Q 472 787 475 753 Q 475 704 476 628 L 476 593 Q 476 517 476 419 Q 475 409 475 399 L 475 365 Z" fill="lightgray"></path>
</g>
		<text x="40" y="140" font-size="128" fill="#999999">3</text></g>
		<g id="id0:id3:id3" transform="matrix(1.0,0,0,1.0,3072,0.0)">			<g stroke="lightgray" stroke-width="4" transform="scale(4, 4)"> <rect x="0" y="0" width="256" height="256" fill="white" stroke-width="4"/></g>
			<g transform="scale(0.92, -0.92) translate(60, -920)">					<path d="M 254 596 Q 244 603 202 608 Q 189 611 185 605 Q 178 598 189 580 Q 228 507 254 384 Q 260 347 282 324 Q 303 300 307 318 Q 310 328 310 343 L 306 381 Q 305 390 303 399 Q 276 513 267 556 C 261 585 259 594 254 596 Z" fill="black"></path>
				<path d="M 752 425 Q 765 462 777 498 Q 793 546 828 578 Q 853 603 821 624 Q 793 648 762 666 Q 743 679 717 668 Q 677 655 615 646 Q 575 642 535 636 L 476 628 Q 427 622 380 613 Q 307 603 254 596 C 224 592 237 551 267 556 Q 274 556 286 559 Q 400 587 476 593 L 534 600 Q 604 609 698 615 Q 717 616 724 607 Q 739 583 693 435 C 684 406 742 397 752 425 Z" fill="black"></path>
				<path d="M 530 370 Q 630 380 764 386 Q 776 387 778 397 Q 779 406 752 425 C 730 441 723 440 693 435 Q 606 420 530 407 L 475 399 Q 385 389 306 381 C 276 378 280 341 310 343 Q 314 343 321 343 Q 382 356 475 365 L 530 370 Z" fill="black"></path>
				<path d="M 475 365 Q 472 17 485 -11 Q 486 -12 488 -16 Q 503 -32 512 -10 Q 530 32 530 370 L 530 407 Q 531 519 534 600 L 535 636 Q 538 742 559 778 Q 566 794 545 811 Q 520 830 475 843 Q 454 847 441 833 Q 431 826 444 812 Q 472 787 475 753 Q 475 704 476 628 L 476 593 Q 476 517 476 419 Q 475 409 475 399 L 475 365 Z" fill="red"></path>
</g>
		<text x="40" y="140" font-size="128" fill="#999999">4</text></g>
		<g id="id0:id4:id4" transform="matrix(1.0,0,0,1.0,4096,0.0)">			<g stroke="white" stroke-width="4" transform="scale(4, 4)"> <rect x="1" y="1" width="255" height="255" fill="white" stroke-width="0"/></g>
</g>
</g>
</svg>
