<?xml version="1.0" standalone="no"?>
<!DOCTYPE svg PUBLIC "-//W3C//DTD SVG 1.1//EN"
 "http://www.w3.org/Graphics/SVG/1.1/DTD/svg11.dtd">
<!-- generate by Handict dictionary app com.asnsami.handict -->

<svg xmlns="http://www.w3.org/2000/svg" xmlns:sodipodi="http://sodipodi.sourceforge.net/DTD/sodipodi-0.dtd" version="1.1" width="640" height="128" viewBox="0 0 5120 1024">
	<g id="id0:id0" transform="translate(0.0,0)">
		<g id="id0:id0:id0" transform="matrix(1.0,0,0,1.0,0,0.0)">			<g stroke="lightgray" stroke-width="4" transform="scale(4, 4)"> <rect x="0" y="0" width="256" height="256" fill="white" stroke-width="4"/></g>
			<g transform="scale(0.92, -0.92) translate(60, -920)">					<path d="M 407 333 Q 417 358 430 381 Q 464 460 477 550 L 482 584 Q 500 716 521 761 Q 531 783 512 792 Q 458 831 426 820 Q 410 814 419 797 Q 450 740 428 571 L 421 534 Q 394 420 360 355 L 339 317 Q 324 295 309 271 Q 266 208 186 147 Q 167 131 141 114 Q 125 101 107 87 Q 92 75 106 73 Q 122 73 162 90 Q 243 130 302 190 Q 350 235 380 282 L 407 333 Z" fill="red"></path>
				<path d="M 477 550 Q 544 572 594 579 Q 616 583 622 578 Q 626 571 621 554 Q 497 139 642 65 Q 678 44 746 35 Q 884 22 968 74 Q 987 84 980 107 Q 964 165 961 251 Q 960 270 954 269 Q 948 270 942 251 Q 908 149 879 125 Q 861 109 804 103 Q 740 96 687 113 Q 642 128 628 160 Q 606 200 615 289 Q 628 386 674 503 Q 693 554 726 581 Q 742 594 741 607 Q 740 619 670 651 Q 655 661 637 646 Q 588 612 505 591 Q 493 588 482 584 L 428 571 Q 367 558 308 541 Q 262 531 188 530 Q 173 531 176 516 Q 179 503 206 487 Q 237 469 275 485 Q 354 513 421 534 L 477 550 Z" fill="lightgray"></path>
				<path d="M 380 282 Q 455 216 463 214 Q 470 213 477 222 Q 487 235 473 272 Q 463 306 407 333 L 360 355 Q 312 379 284 389 Q 277 393 275 382 Q 275 370 285 361 Q 310 342 339 317 L 380 282 Z" fill="lightgray"></path>
</g>
		<text x="40" y="140" font-size="128" fill="#999999">1</text></g>
		<g id="id0:id1:id1" transform="matrix(1.0,0,0,1.0,1024,0.0)">			<g stroke="lightgray" stroke-width="4" transform="scale(4, 4)"> <rect x="0" y="0" width="256" height="256" fill="white" stroke-width="4"/></g>
			<g transform="scale(0.92, -0.92) translate(60, -920)">					<path d="M 407 333 Q 417 358 430 381 Q 464 460 477 550 L 482 584 Q 500 716 521 761 Q 531 783 512 792 Q 458 831 426 820 Q 410 814 419 797 Q 450 740 428 571 L 421 534 Q 394 420 360 355 L 339 317 Q 324 295 309 271 Q 266 208 186 147 Q 167 131 141 114 Q 125 101 107 87 Q 92 75 106 73 Q 122 73 162 90 Q 243 130 302 190 Q 350 235 380 282 L 407 333 Z" fill="black"></path>
				<path d="M 477 550 Q 544 572 594 579 Q 616 583 622 578 Q 626 571 621 554 Q 497 139 642 65 Q 678 44 746 35 Q 884 22 968 74 Q 987 84 980 107 Q 964 165 961 251 Q 960 270 954 269 Q 948 270 942 251 Q 908 149 879 125 Q 861 109 804 103 Q 740 96 687 113 Q 642 128 628 160 Q 606 200 615 289 Q 628 386 674 503 Q 693 554 726 581 Q 742 594 741 607 Q 740 619 670 651 Q 655 661 637 646 Q 588 612 505 591 Q 493 588 482 584 L 428 571 Q 367 558 308 541 Q 262 531 188 530 Q 173 531 176 516 Q 179 503 206 487 Q 237 469 275 485 Q 354 513 421 534 L 477 550 Z" fill="red"></path>
				<path d="M 380 282 Q 455 216 463 214 Q 470 213 477 222 Q 487 235 473 272 Q 463 306 407 333 L 360 355 Q 312 379 284 389 Q 277 393 275 382 Q 275 370 285 361 Q 310 342 339 317 L 380 282 Z" fill="lightgray"></path>
</g>
		<text x="40" y="140" font-size="128" fill="#999999">2</text></g>
		<g id="id0:id2:id2" transform="matrix(1.0,0,0,1.0,2048,0.0)">			<g stroke="lightgray" stroke-width="4" transform="scale(4, 4)"> <rect x="0" y="0" width="256" height="256" fill="white" stroke-width="4"/></g>
			<g transform="scale(0.92, -0.92) translate(60, -920)">					<path d="M 407 333 Q 417 358 430 381 Q 464 460 477 550 L 482 584 Q 500 716 521 761 Q 531 783 512 792 Q 458 831 426 820 Q 410 814 419 797 Q 450 740 428 571 L 421 534 Q 394 420 360 355 L 339 317 Q 324 295 309 271 Q 266 208 186 147 Q 167 131 141 114 Q 125 101 107 87 Q 92 75 106 73 Q 122 73 162 90 Q 243 130 302 190 Q 350 235 380 282 L 407 333 Z" fill="black"></path>
				<path d="M 477 550 Q 544 572 594 579 Q 616 583 622 578 Q 626 571 621 554 Q 497 139 642 65 Q 678 44 746 35 Q 884 22 968 74 Q 987 84 980 107 Q 964 165 961 251 Q 960 270 954 269 Q 948 270 942 251 Q 908 149 879 125 Q 861 109 804 103 Q 740 96 687 113 Q 642 128 628 160 Q 606 200 615 289 Q 628 386 674 503 Q 693 554 726 581 Q 742 594 741 607 Q 740 619 670 651 Q 655 661 637 646 Q 588 612 505 591 Q 493 588 482 584 L 428 571 Q 367 558 308 541 Q 262 531 188 530 Q 173 531 176 516 Q 179 503 206 487 Q 237 469 275 485 Q 354 513 421 534 L 477 550 Z" fill="black"></path>
				<path d="M 380 282 Q 455 216 463 214 Q 470 213 477 222 Q 487 235 473 272 Q 463 306 407 333 L 360 355 Q 312 379 284 389 Q 277 393 275 382 Q 275 370 285 361 Q 310 342 339 317 L 380 282 Z" fill="red"></path>
</g>
		<text x="40" y="140" font-size="128" fill="#999999">3</text></g>
		<g id="id0:id3:id3" transform="matrix(1.0,0,0,1.0,3072,0.0)">			<g stroke="white" stroke-width="4" transform="scale(4, 4)"> <rect x="1" y="1" width="255" height="255" fill="white" stroke-width="0"/></g>
</g>
		<g id="id0:id4:id4" transform="matrix(1.0,0,0,1.0,4096,0.0)">			<g stroke="white" stroke-width="4" transform="scale(4, 4)"> <rect x="1" y="1" width="255" height="255" fill="white" stroke-width="0"/></g>
</g>
</g>
</svg>
