<?xml version="1.0" standalone="no"?>
<!DOCTYPE svg PUBLIC "-//W3C//DTD SVG 1.1//EN"
 "http://www.w3.org/Graphics/SVG/1.1/DTD/svg11.dtd">
<!-- generate by Japanese dictionary app com.asnsami.kanjidictionary -->

<svg xmlns="http://www.w3.org/2000/svg" xmlns:sodipodi="http://sodipodi.sourceforge.net/DTD/sodipodi-0.dtd" version="1.1" width="640" height="128" viewBox="0 0 5120 1024">
	<g id="id0:id0" transform="translate(0.0,0)">
		<g id="id0:id0:id0" transform="matrix(1.0,0,0,1.0,0,0.0)">			<g stroke="lightgray" stroke-width="4" transform="scale(4, 4)"> <rect x="0" y="0" width="256" height="256" fill="white" stroke-width="4"/></g>
			<g transform="scale(0.92, -0.92) translate(60, -920)">					<path d="M 476 759 Q 504 734 536 702 Q 554 686 575 686 Q 590 687 596 705 Q 602 724 590 764 Q 578 798 469 823 Q 448 827 440 824 Q 433 818 436 801 Q 440 786 476 759 Z" fill="red"></path>
				<path d="M 536 539 Q 605 552 679 565 Q 748 578 758 588 Q 768 597 763 606 Q 756 619 723 629 Q 693 635 591 606 Q 432 564 289 553 Q 247 549 276 528 Q 318 504 404 515 Q 437 521 474 528 L 536 539 Z" fill="lightgray"></path>
				<path d="M 549 308 Q 696 338 702 343 Q 712 350 707 360 Q 700 372 670 380 Q 643 386 552 358 L 488 342 Q 482 342 476 340 Q 400 324 311 317 Q 274 313 300 294 Q 337 267 399 281 Q 442 288 488 296 L 549 308 Z" fill="lightgray"></path>
				<path d="M 541 114 Q 545 219 549 308 L 552 358 Q 553 440 559 485 Q 569 515 536 539 C 513 558 465 556 474 528 Q 489 497 488 342 L 488 296 Q 487 220 486 108 C 486 78 540 84 541 114 Z" fill="lightgray"></path>
				<path d="M 486 108 Q 365 99 302 91 Q 229 81 121 82 Q 105 82 104 69 Q 103 56 123 39 Q 142 24 177 11 Q 189 7 209 15 Q 255 30 410 51 Q 465 58 528 63 Q 585 66 638 70 Q 773 83 931 66 Q 958 62 965 72 Q 974 87 960 100 Q 927 131 879 154 Q 863 161 833 153 Q 760 138 686 129 Q 598 122 541 114 L 486 108 Z" fill="lightgray"></path>
</g>
		<text x="40" y="140" font-size="128" fill="#999999">1</text></g>
		<g id="id0:id1:id1" transform="matrix(1.0,0,0,1.0,1024,0.0)">			<g stroke="lightgray" stroke-width="4" transform="scale(4, 4)"> <rect x="0" y="0" width="256" height="256" fill="white" stroke-width="4"/></g>
			<g transform="scale(0.92, -0.92) translate(60, -920)">					<path d="M 476 759 Q 504 734 536 702 Q 554 686 575 686 Q 590 687 596 705 Q 602 724 590 764 Q 578 798 469 823 Q 448 827 440 824 Q 433 818 436 801 Q 440 786 476 759 Z" fill="black"></path>
				<path d="M 536 539 Q 605 552 679 565 Q 748 578 758 588 Q 768 597 763 606 Q 756 619 723 629 Q 693 635 591 606 Q 432 564 289 553 Q 247 549 276 528 Q 318 504 404 515 Q 437 521 474 528 L 536 539 Z" fill="red"></path>
				<path d="M 549 308 Q 696 338 702 343 Q 712 350 707 360 Q 700 372 670 380 Q 643 386 552 358 L 488 342 Q 482 342 476 340 Q 400 324 311 317 Q 274 313 300 294 Q 337 267 399 281 Q 442 288 488 296 L 549 308 Z" fill="lightgray"></path>
				<path d="M 541 114 Q 545 219 549 308 L 552 358 Q 553 440 559 485 Q 569 515 536 539 C 513 558 465 556 474 528 Q 489 497 488 342 L 488 296 Q 487 220 486 108 C 486 78 540 84 541 114 Z" fill="lightgray"></path>
				<path d="M 486 108 Q 365 99 302 91 Q 229 81 121 82 Q 105 82 104 69 Q 103 56 123 39 Q 142 24 177 11 Q 189 7 209 15 Q 255 30 410 51 Q 465 58 528 63 Q 585 66 638 70 Q 773 83 931 66 Q 958 62 965 72 Q 974 87 960 100 Q 927 131 879 154 Q 863 161 833 153 Q 760 138 686 129 Q 598 122 541 114 L 486 108 Z" fill="lightgray"></path>
</g>
		<text x="40" y="140" font-size="128" fill="#999999">2</text></g>
		<g id="id0:id2:id2" transform="matrix(1.0,0,0,1.0,2048,0.0)">			<g stroke="lightgray" stroke-width="4" transform="scale(4, 4)"> <rect x="0" y="0" width="256" height="256" fill="white" stroke-width="4"/></g>
			<g transform="scale(0.92, -0.92) translate(60, -920)">					<path d="M 476 759 Q 504 734 536 702 Q 554 686 575 686 Q 590 687 596 705 Q 602 724 590 764 Q 578 798 469 823 Q 448 827 440 824 Q 433 818 436 801 Q 440 786 476 759 Z" fill="black"></path>
				<path d="M 536 539 Q 605 552 679 565 Q 748 578 758 588 Q 768 597 763 606 Q 756 619 723 629 Q 693 635 591 606 Q 432 564 289 553 Q 247 549 276 528 Q 318 504 404 515 Q 437 521 474 528 L 536 539 Z" fill="black"></path>
				<path d="M 549 308 Q 696 338 702 343 Q 712 350 707 360 Q 700 372 670 380 Q 643 386 552 358 L 488 342 Q 482 342 476 340 Q 400 324 311 317 Q 274 313 300 294 Q 337 267 399 281 Q 442 288 488 296 L 549 308 Z" fill="red"></path>
				<path d="M 541 114 Q 545 219 549 308 L 552 358 Q 553 440 559 485 Q 569 515 536 539 C 513 558 465 556 474 528 Q 489 497 488 342 L 488 296 Q 487 220 486 108 C 486 78 540 84 541 114 Z" fill="lightgray"></path>
				<path d="M 486 108 Q 365 99 302 91 Q 229 81 121 82 Q 105 82 104 69 Q 103 56 123 39 Q 142 24 177 11 Q 189 7 209 15 Q 255 30 410 51 Q 465 58 528 63 Q 585 66 638 70 Q 773 83 931 66 Q 958 62 965 72 Q 974 87 960 100 Q 927 131 879 154 Q 863 161 833 153 Q 760 138 686 129 Q 598 122 541 114 L 486 108 Z" fill="lightgray"></path>
</g>
		<text x="40" y="140" font-size="128" fill="#999999">3</text></g>
		<g id="id0:id3:id3" transform="matrix(1.0,0,0,1.0,3072,0.0)">			<g stroke="lightgray" stroke-width="4" transform="scale(4, 4)"> <rect x="0" y="0" width="256" height="256" fill="white" stroke-width="4"/></g>
			<g transform="scale(0.92, -0.92) translate(60, -920)">					<path d="M 476 759 Q 504 734 536 702 Q 554 686 575 686 Q 590 687 596 705 Q 602 724 590 764 Q 578 798 469 823 Q 448 827 440 824 Q 433 818 436 801 Q 440 786 476 759 Z" fill="black"></path>
				<path d="M 536 539 Q 605 552 679 565 Q 748 578 758 588 Q 768 597 763 606 Q 756 619 723 629 Q 693 635 591 606 Q 432 564 289 553 Q 247 549 276 528 Q 318 504 404 515 Q 437 521 474 528 L 536 539 Z" fill="black"></path>
				<path d="M 549 308 Q 696 338 702 343 Q 712 350 707 360 Q 700 372 670 380 Q 643 386 552 358 L 488 342 Q 482 342 476 340 Q 400 324 311 317 Q 274 313 300 294 Q 337 267 399 281 Q 442 288 488 296 L 549 308 Z" fill="black"></path>
				<path d="M 541 114 Q 545 219 549 308 L 552 358 Q 553 440 559 485 Q 569 515 536 539 C 513 558 465 556 474 528 Q 489 497 488 342 L 488 296 Q 487 220 486 108 C 486 78 540 84 541 114 Z" fill="red"></path>
				<path d="M 486 108 Q 365 99 302 91 Q 229 81 121 82 Q 105 82 104 69 Q 103 56 123 39 Q 142 24 177 11 Q 189 7 209 15 Q 255 30 410 51 Q 465 58 528 63 Q 585 66 638 70 Q 773 83 931 66 Q 958 62 965 72 Q 974 87 960 100 Q 927 131 879 154 Q 863 161 833 153 Q 760 138 686 129 Q 598 122 541 114 L 486 108 Z" fill="lightgray"></path>
</g>
		<text x="40" y="140" font-size="128" fill="#999999">4</text></g>
		<g id="id0:id4:id4" transform="matrix(1.0,0,0,1.0,4096,0.0)">			<g stroke="lightgray" stroke-width="4" transform="scale(4, 4)"> <rect x="0" y="0" width="256" height="256" fill="white" stroke-width="4"/></g>
			<g transform="scale(0.92, -0.92) translate(60, -920)">					<path d="M 476 759 Q 504 734 536 702 Q 554 686 575 686 Q 590 687 596 705 Q 602 724 590 764 Q 578 798 469 823 Q 448 827 440 824 Q 433 818 436 801 Q 440 786 476 759 Z" fill="black"></path>
				<path d="M 536 539 Q 605 552 679 565 Q 748 578 758 588 Q 768 597 763 606 Q 756 619 723 629 Q 693 635 591 606 Q 432 564 289 553 Q 247 549 276 528 Q 318 504 404 515 Q 437 521 474 528 L 536 539 Z" fill="black"></path>
				<path d="M 549 308 Q 696 338 702 343 Q 712 350 707 360 Q 700 372 670 380 Q 643 386 552 358 L 488 342 Q 482 342 476 340 Q 400 324 311 317 Q 274 313 300 294 Q 337 267 399 281 Q 442 288 488 296 L 549 308 Z" fill="black"></path>
				<path d="M 541 114 Q 545 219 549 308 L 552 358 Q 553 440 559 485 Q 569 515 536 539 C 513 558 465 556 474 528 Q 489 497 488 342 L 488 296 Q 487 220 486 108 C 486 78 540 84 541 114 Z" fill="black"></path>
				<path d="M 486 108 Q 365 99 302 91 Q 229 81 121 82 Q 105 82 104 69 Q 103 56 123 39 Q 142 24 177 11 Q 189 7 209 15 Q 255 30 410 51 Q 465 58 528 63 Q 585 66 638 70 Q 773 83 931 66 Q 958 62 965 72 Q 974 87 960 100 Q 927 131 879 154 Q 863 161 833 153 Q 760 138 686 129 Q 598 122 541 114 L 486 108 Z" fill="red"></path>
</g>
		<text x="40" y="140" font-size="128" fill="#999999">5</text></g>
</g>
</svg>
