<?xml version="1.0" standalone="no"?>
<!DOCTYPE svg PUBLIC "-//W3C//DTD SVG 1.1//EN"
 "http://www.w3.org/Graphics/SVG/1.1/DTD/svg11.dtd">
<!-- generate by Japanese dictionary app com.asnsami.kanjidictionary -->

<svg xmlns="http://www.w3.org/2000/svg" xmlns:sodipodi="http://sodipodi.sourceforge.net/DTD/sodipodi-0.dtd" version="1.1" width="640" height="128" viewBox="0 0 5120 1024">
	<g id="id0:id0" transform="translate(0.0,0)">
		<g id="id0:id0:id0" transform="matrix(1.0,0,0,1.0,0,0.0)">			<g stroke="lightgray" stroke-width="4" transform="scale(4, 4)"> <rect x="0" y="0" width="256" height="256" fill="white" stroke-width="4"/></g>
			<g transform="scale(0.92, -0.92) translate(60, -920)">					<path d="M 515 348 Q 567 421 600 512 Q 660 666 685 699 Q 701 718 683 734 Q 632 788 601 782 Q 583 779 587 760 Q 609 685 540 512 Q 519 466 477 393 L 446 349 Q 329 202 162 140 L 120 120 Q 102 111 116 106 Q 134 102 178 110 Q 266 132 340 179 Q 422 225 468 287 Q 474 297 481 305 L 515 348 Z" fill="red"></path>
				<path d="M 481 305 Q 653 95 727 78 Q 757 75 921 77 Q 942 77 961 83 Q 971 93 954 106 Q 932 118 755 171 Q 656 198 550 312 Q 532 330 515 348 L 477 393 Q 413 471 346 569 Q 316 614 260 629 Q 241 633 225 624 Q 215 614 229 600 Q 241 590 253 583 Q 283 568 445 351 L 446 349 L 481 305 Z" fill="lightgray"></path>
</g>
		<text x="40" y="140" font-size="128" fill="#999999">1</text></g>
		<g id="id0:id1:id1" transform="matrix(1.0,0,0,1.0,1024,0.0)">			<g stroke="lightgray" stroke-width="4" transform="scale(4, 4)"> <rect x="0" y="0" width="256" height="256" fill="white" stroke-width="4"/></g>
			<g transform="scale(0.92, -0.92) translate(60, -920)">					<path d="M 515 348 Q 567 421 600 512 Q 660 666 685 699 Q 701 718 683 734 Q 632 788 601 782 Q 583 779 587 760 Q 609 685 540 512 Q 519 466 477 393 L 446 349 Q 329 202 162 140 L 120 120 Q 102 111 116 106 Q 134 102 178 110 Q 266 132 340 179 Q 422 225 468 287 Q 474 297 481 305 L 515 348 Z" fill="black"></path>
				<path d="M 481 305 Q 653 95 727 78 Q 757 75 921 77 Q 942 77 961 83 Q 971 93 954 106 Q 932 118 755 171 Q 656 198 550 312 Q 532 330 515 348 L 477 393 Q 413 471 346 569 Q 316 614 260 629 Q 241 633 225 624 Q 215 614 229 600 Q 241 590 253 583 Q 283 568 445 351 L 446 349 L 481 305 Z" fill="red"></path>
</g>
		<text x="40" y="140" font-size="128" fill="#999999">2</text></g>
		<g id="id0:id2:id2" transform="matrix(1.0,0,0,1.0,2048,0.0)">			<g stroke="white" stroke-width="4" transform="scale(4, 4)"> <rect x="1" y="1" width="255" height="255" fill="white" stroke-width="0"/></g>
</g>
		<g id="id0:id3:id3" transform="matrix(1.0,0,0,1.0,3072,0.0)">			<g stroke="white" stroke-width="4" transform="scale(4, 4)"> <rect x="1" y="1" width="255" height="255" fill="white" stroke-width="0"/></g>
</g>
		<g id="id0:id4:id4" transform="matrix(1.0,0,0,1.0,4096,0.0)">			<g stroke="white" stroke-width="4" transform="scale(4, 4)"> <rect x="1" y="1" width="255" height="255" fill="white" stroke-width="0"/></g>
</g>
</g>
</svg>
