<?xml version="1.0" standalone="no"?>
<!DOCTYPE svg PUBLIC "-//W3C//DTD SVG 1.1//EN"
 "http://www.w3.org/Graphics/SVG/1.1/DTD/svg11.dtd">
<!-- generate by Handict dictionary app com.asnsami.handict -->

<svg xmlns="http://www.w3.org/2000/svg" xmlns:sodipodi="http://sodipodi.sourceforge.net/DTD/sodipodi-0.dtd" version="1.1" width="640" height="128" viewBox="0 0 5120 1024">
	<g id="id0:id0" transform="translate(0.0,0)">
		<g id="id0:id0:id0" transform="matrix(1.0,0,0,1.0,0,0.0)">			<g stroke="lightgray" stroke-width="4" transform="scale(4, 4)"> <rect x="0" y="0" width="256" height="256" fill="white" stroke-width="4"/></g>
			<g transform="scale(0.92, -0.92) translate(60, -920)">					<path d="M 397 665 Q 440 696 464 718 Q 530 776 552 788 Q 574 801 560 818 Q 545 834 516 847 Q 491 860 477 855 Q 464 854 469 839 Q 478 809 426 740 Q 404 712 381 679 C 364 654 373 647 397 665 Z" fill="red"></path>
				<path d="M 393 622 Q 402 621 413 628 Q 468 647 609 673 Q 622 674 630 668 Q 639 664 639 649 Q 638 612 622 546 Q 616 515 587 521 Q 553 527 524 532 Q 506 535 511 525 Q 512 513 543 490 Q 580 456 601 419 Q 608 409 618 412 Q 625 413 643 436 Q 668 467 677 507 Q 701 642 718 656 Q 730 669 723 681 Q 713 694 669 717 Q 654 726 603 710 Q 561 710 398 662 C 369 654 364 614 393 622 Z" fill="lightgray"></path>
				<path d="M 398 662 Q 397 663 397 665 C 398 671 398 671 381 679 Q 366 689 348 696 Q 329 703 319 693 Q 312 687 321 675 Q 345 630 332 406 Q 328 372 321 338 Q 315 316 332 300 Q 354 282 374 296 Q 440 338 633 354 Q 747 366 767 346 Q 780 333 763 288 Q 754 222 741 154 Q 732 102 708 67 Q 698 54 670 55 Q 627 68 587 78 Q 571 82 571 75 Q 571 68 581 60 Q 651 2 678 -40 Q 688 -62 707 -51 Q 774 -14 788 56 Q 810 152 825 257 Q 835 297 855 332 Q 868 348 857 363 Q 838 385 798 409 Q 776 422 744 409 Q 687 387 635 384 Q 562 377 411 353 Q 383 349 383 372 Q 383 583 393 622 C 397 652 398 662 398 662 Z" fill="lightgray"></path>
				<path d="M 404 182 Q 440 185 475 190 Q 578 202 664 195 Q 686 194 691 202 Q 697 214 685 224 Q 657 248 616 265 Q 490 244 365 223 Q 164 195 125 192 Q 112 191 112 181 Q 112 169 129 157 Q 145 147 174 137 Q 184 133 200 142 Q 212 146 261 156 Q 325 172 404 182 Z" fill="lightgray"></path>
</g>
		<text x="40" y="140" font-size="128" fill="#999999">1</text></g>
		<g id="id0:id1:id1" transform="matrix(1.0,0,0,1.0,1024,0.0)">			<g stroke="lightgray" stroke-width="4" transform="scale(4, 4)"> <rect x="0" y="0" width="256" height="256" fill="white" stroke-width="4"/></g>
			<g transform="scale(0.92, -0.92) translate(60, -920)">					<path d="M 397 665 Q 440 696 464 718 Q 530 776 552 788 Q 574 801 560 818 Q 545 834 516 847 Q 491 860 477 855 Q 464 854 469 839 Q 478 809 426 740 Q 404 712 381 679 C 364 654 373 647 397 665 Z" fill="black"></path>
				<path d="M 393 622 Q 402 621 413 628 Q 468 647 609 673 Q 622 674 630 668 Q 639 664 639 649 Q 638 612 622 546 Q 616 515 587 521 Q 553 527 524 532 Q 506 535 511 525 Q 512 513 543 490 Q 580 456 601 419 Q 608 409 618 412 Q 625 413 643 436 Q 668 467 677 507 Q 701 642 718 656 Q 730 669 723 681 Q 713 694 669 717 Q 654 726 603 710 Q 561 710 398 662 C 369 654 364 614 393 622 Z" fill="red"></path>
				<path d="M 398 662 Q 397 663 397 665 C 398 671 398 671 381 679 Q 366 689 348 696 Q 329 703 319 693 Q 312 687 321 675 Q 345 630 332 406 Q 328 372 321 338 Q 315 316 332 300 Q 354 282 374 296 Q 440 338 633 354 Q 747 366 767 346 Q 780 333 763 288 Q 754 222 741 154 Q 732 102 708 67 Q 698 54 670 55 Q 627 68 587 78 Q 571 82 571 75 Q 571 68 581 60 Q 651 2 678 -40 Q 688 -62 707 -51 Q 774 -14 788 56 Q 810 152 825 257 Q 835 297 855 332 Q 868 348 857 363 Q 838 385 798 409 Q 776 422 744 409 Q 687 387 635 384 Q 562 377 411 353 Q 383 349 383 372 Q 383 583 393 622 C 397 652 398 662 398 662 Z" fill="lightgray"></path>
				<path d="M 404 182 Q 440 185 475 190 Q 578 202 664 195 Q 686 194 691 202 Q 697 214 685 224 Q 657 248 616 265 Q 490 244 365 223 Q 164 195 125 192 Q 112 191 112 181 Q 112 169 129 157 Q 145 147 174 137 Q 184 133 200 142 Q 212 146 261 156 Q 325 172 404 182 Z" fill="lightgray"></path>
</g>
		<text x="40" y="140" font-size="128" fill="#999999">2</text></g>
		<g id="id0:id2:id2" transform="matrix(1.0,0,0,1.0,2048,0.0)">			<g stroke="lightgray" stroke-width="4" transform="scale(4, 4)"> <rect x="0" y="0" width="256" height="256" fill="white" stroke-width="4"/></g>
			<g transform="scale(0.92, -0.92) translate(60, -920)">					<path d="M 397 665 Q 440 696 464 718 Q 530 776 552 788 Q 574 801 560 818 Q 545 834 516 847 Q 491 860 477 855 Q 464 854 469 839 Q 478 809 426 740 Q 404 712 381 679 C 364 654 373 647 397 665 Z" fill="black"></path>
				<path d="M 393 622 Q 402 621 413 628 Q 468 647 609 673 Q 622 674 630 668 Q 639 664 639 649 Q 638 612 622 546 Q 616 515 587 521 Q 553 527 524 532 Q 506 535 511 525 Q 512 513 543 490 Q 580 456 601 419 Q 608 409 618 412 Q 625 413 643 436 Q 668 467 677 507 Q 701 642 718 656 Q 730 669 723 681 Q 713 694 669 717 Q 654 726 603 710 Q 561 710 398 662 C 369 654 364 614 393 622 Z" fill="black"></path>
				<path d="M 398 662 Q 397 663 397 665 C 398 671 398 671 381 679 Q 366 689 348 696 Q 329 703 319 693 Q 312 687 321 675 Q 345 630 332 406 Q 328 372 321 338 Q 315 316 332 300 Q 354 282 374 296 Q 440 338 633 354 Q 747 366 767 346 Q 780 333 763 288 Q 754 222 741 154 Q 732 102 708 67 Q 698 54 670 55 Q 627 68 587 78 Q 571 82 571 75 Q 571 68 581 60 Q 651 2 678 -40 Q 688 -62 707 -51 Q 774 -14 788 56 Q 810 152 825 257 Q 835 297 855 332 Q 868 348 857 363 Q 838 385 798 409 Q 776 422 744 409 Q 687 387 635 384 Q 562 377 411 353 Q 383 349 383 372 Q 383 583 393 622 C 397 652 398 662 398 662 Z" fill="red"></path>
				<path d="M 404 182 Q 440 185 475 190 Q 578 202 664 195 Q 686 194 691 202 Q 697 214 685 224 Q 657 248 616 265 Q 490 244 365 223 Q 164 195 125 192 Q 112 191 112 181 Q 112 169 129 157 Q 145 147 174 137 Q 184 133 200 142 Q 212 146 261 156 Q 325 172 404 182 Z" fill="lightgray"></path>
</g>
		<text x="40" y="140" font-size="128" fill="#999999">3</text></g>
		<g id="id0:id3:id3" transform="matrix(1.0,0,0,1.0,3072,0.0)">			<g stroke="lightgray" stroke-width="4" transform="scale(4, 4)"> <rect x="0" y="0" width="256" height="256" fill="white" stroke-width="4"/></g>
			<g transform="scale(0.92, -0.92) translate(60, -920)">					<path d="M 397 665 Q 440 696 464 718 Q 530 776 552 788 Q 574 801 560 818 Q 545 834 516 847 Q 491 860 477 855 Q 464 854 469 839 Q 478 809 426 740 Q 404 712 381 679 C 364 654 373 647 397 665 Z" fill="black"></path>
				<path d="M 393 622 Q 402 621 413 628 Q 468 647 609 673 Q 622 674 630 668 Q 639 664 639 649 Q 638 612 622 546 Q 616 515 587 521 Q 553 527 524 532 Q 506 535 511 525 Q 512 513 543 490 Q 580 456 601 419 Q 608 409 618 412 Q 625 413 643 436 Q 668 467 677 507 Q 701 642 718 656 Q 730 669 723 681 Q 713 694 669 717 Q 654 726 603 710 Q 561 710 398 662 C 369 654 364 614 393 622 Z" fill="black"></path>
				<path d="M 398 662 Q 397 663 397 665 C 398 671 398 671 381 679 Q 366 689 348 696 Q 329 703 319 693 Q 312 687 321 675 Q 345 630 332 406 Q 328 372 321 338 Q 315 316 332 300 Q 354 282 374 296 Q 440 338 633 354 Q 747 366 767 346 Q 780 333 763 288 Q 754 222 741 154 Q 732 102 708 67 Q 698 54 670 55 Q 627 68 587 78 Q 571 82 571 75 Q 571 68 581 60 Q 651 2 678 -40 Q 688 -62 707 -51 Q 774 -14 788 56 Q 810 152 825 257 Q 835 297 855 332 Q 868 348 857 363 Q 838 385 798 409 Q 776 422 744 409 Q 687 387 635 384 Q 562 377 411 353 Q 383 349 383 372 Q 383 583 393 622 C 397 652 398 662 398 662 Z" fill="black"></path>
				<path d="M 404 182 Q 440 185 475 190 Q 578 202 664 195 Q 686 194 691 202 Q 697 214 685 224 Q 657 248 616 265 Q 490 244 365 223 Q 164 195 125 192 Q 112 191 112 181 Q 112 169 129 157 Q 145 147 174 137 Q 184 133 200 142 Q 212 146 261 156 Q 325 172 404 182 Z" fill="red"></path>
</g>
		<text x="40" y="140" font-size="128" fill="#999999">4</text></g>
		<g id="id0:id4:id4" transform="matrix(1.0,0,0,1.0,4096,0.0)">			<g stroke="white" stroke-width="4" transform="scale(4, 4)"> <rect x="1" y="1" width="255" height="255" fill="white" stroke-width="0"/></g>
</g>
</g>
</svg>
