<?xml version="1.0" standalone="no"?>
<!DOCTYPE svg PUBLIC "-//W3C//DTD SVG 1.1//EN"
 "http://www.w3.org/Graphics/SVG/1.1/DTD/svg11.dtd">
<!-- generate by Handict dictionary app com.asnsami.handict -->

<svg xmlns="http://www.w3.org/2000/svg" xmlns:sodipodi="http://sodipodi.sourceforge.net/DTD/sodipodi-0.dtd" version="1.1" width="640" height="128" viewBox="0 0 5120 1024">
	<g id="id0:id0" transform="translate(0.0,0)">
		<g id="id0:id0:id0" transform="matrix(1.0,0,0,1.0,0,0.0)">			<g stroke="lightgray" stroke-width="4" transform="scale(4, 4)"> <rect x="0" y="0" width="256" height="256" fill="white" stroke-width="4"/></g>
			<g transform="scale(0.92, -0.92) translate(60, -920)">					<path d="M 446 766 Q 480 739 515 706 Q 530 693 547 693 Q 559 694 564 708 Q 570 724 559 757 Q 547 796 440 819 Q 424 823 416 819 Q 410 815 412 801 Q 416 788 446 766 Z" fill="red"></path>
				<path d="M 311 281 Q 464 372 633 513 Q 666 541 738 570 Q 763 579 749 597 Q 737 619 682 648 Q 667 655 651 644 Q 581 596 300 559 Q 251 555 229 556 Q 213 557 209 542 Q 208 529 240 504 Q 268 482 297 497 Q 346 524 576 567 Q 592 570 596 564 Q 600 560 588 548 Q 407 388 258 283 C 234 266 285 265 311 281 Z" fill="lightgray"></path>
				<path d="M 258 283 Q 219 282 175 262 Q 139 255 93 259 Q 72 262 72 248 Q 73 233 102 214 Q 123 198 154 208 Q 257 266 364 225 Q 436 206 632 74 Q 647 65 654 58 Q 711 19 750 18 Q 756 19 762 19 Q 942 61 953 88 Q 954 97 930 97 Q 780 103 694 130 Q 516 202 477 221 Q 353 281 311 281 L 258 283 Z" fill="lightgray"></path>
</g>
		<text x="40" y="140" font-size="128" fill="#999999">1</text></g>
		<g id="id0:id1:id1" transform="matrix(1.0,0,0,1.0,1024,0.0)">			<g stroke="lightgray" stroke-width="4" transform="scale(4, 4)"> <rect x="0" y="0" width="256" height="256" fill="white" stroke-width="4"/></g>
			<g transform="scale(0.92, -0.92) translate(60, -920)">					<path d="M 446 766 Q 480 739 515 706 Q 530 693 547 693 Q 559 694 564 708 Q 570 724 559 757 Q 547 796 440 819 Q 424 823 416 819 Q 410 815 412 801 Q 416 788 446 766 Z" fill="black"></path>
				<path d="M 311 281 Q 464 372 633 513 Q 666 541 738 570 Q 763 579 749 597 Q 737 619 682 648 Q 667 655 651 644 Q 581 596 300 559 Q 251 555 229 556 Q 213 557 209 542 Q 208 529 240 504 Q 268 482 297 497 Q 346 524 576 567 Q 592 570 596 564 Q 600 560 588 548 Q 407 388 258 283 C 234 266 285 265 311 281 Z" fill="red"></path>
				<path d="M 258 283 Q 219 282 175 262 Q 139 255 93 259 Q 72 262 72 248 Q 73 233 102 214 Q 123 198 154 208 Q 257 266 364 225 Q 436 206 632 74 Q 647 65 654 58 Q 711 19 750 18 Q 756 19 762 19 Q 942 61 953 88 Q 954 97 930 97 Q 780 103 694 130 Q 516 202 477 221 Q 353 281 311 281 L 258 283 Z" fill="lightgray"></path>
</g>
		<text x="40" y="140" font-size="128" fill="#999999">2</text></g>
		<g id="id0:id2:id2" transform="matrix(1.0,0,0,1.0,2048,0.0)">			<g stroke="lightgray" stroke-width="4" transform="scale(4, 4)"> <rect x="0" y="0" width="256" height="256" fill="white" stroke-width="4"/></g>
			<g transform="scale(0.92, -0.92) translate(60, -920)">					<path d="M 446 766 Q 480 739 515 706 Q 530 693 547 693 Q 559 694 564 708 Q 570 724 559 757 Q 547 796 440 819 Q 424 823 416 819 Q 410 815 412 801 Q 416 788 446 766 Z" fill="black"></path>
				<path d="M 311 281 Q 464 372 633 513 Q 666 541 738 570 Q 763 579 749 597 Q 737 619 682 648 Q 667 655 651 644 Q 581 596 300 559 Q 251 555 229 556 Q 213 557 209 542 Q 208 529 240 504 Q 268 482 297 497 Q 346 524 576 567 Q 592 570 596 564 Q 600 560 588 548 Q 407 388 258 283 C 234 266 285 265 311 281 Z" fill="black"></path>
				<path d="M 258 283 Q 219 282 175 262 Q 139 255 93 259 Q 72 262 72 248 Q 73 233 102 214 Q 123 198 154 208 Q 257 266 364 225 Q 436 206 632 74 Q 647 65 654 58 Q 711 19 750 18 Q 756 19 762 19 Q 942 61 953 88 Q 954 97 930 97 Q 780 103 694 130 Q 516 202 477 221 Q 353 281 311 281 L 258 283 Z" fill="red"></path>
</g>
		<text x="40" y="140" font-size="128" fill="#999999">3</text></g>
		<g id="id0:id3:id3" transform="matrix(1.0,0,0,1.0,3072,0.0)">			<g stroke="white" stroke-width="4" transform="scale(4, 4)"> <rect x="1" y="1" width="255" height="255" fill="white" stroke-width="0"/></g>
</g>
		<g id="id0:id4:id4" transform="matrix(1.0,0,0,1.0,4096,0.0)">			<g stroke="white" stroke-width="4" transform="scale(4, 4)"> <rect x="1" y="1" width="255" height="255" fill="white" stroke-width="0"/></g>
</g>
</g>
</svg>
