<?xml version="1.0" standalone="no"?>
<!DOCTYPE svg PUBLIC "-//W3C//DTD SVG 1.1//EN"
 "http://www.w3.org/Graphics/SVG/1.1/DTD/svg11.dtd">
<!-- generate by Japanese dictionary app com.asnsami.kanjidictionary -->

<svg xmlns="http://www.w3.org/2000/svg" xmlns:sodipodi="http://sodipodi.sourceforge.net/DTD/sodipodi-0.dtd" version="1.1" width="640" height="128" viewBox="0 0 5120 1024">
	<g id="id0:id0" transform="translate(0.0,0)">
		<g id="id0:id0:id0" transform="matrix(1.0,0,0,1.0,0,0.0)">			<g stroke="lightgray" stroke-width="4" transform="scale(4, 4)"> <rect x="0" y="0" width="256" height="256" fill="white" stroke-width="4"/></g>
			<g transform="scale(0.92, -0.92) translate(60, -920)">					<path d="M 378 638 Q 477 771 485 780 Q 497 793 483 810 Q 437 852 412 850 Q 399 849 401 833 Q 402 713 250 565 Q 208 534 158 489 Q 148 473 165 477 Q 190 478 226 502 Q 304 554 359 616 L 378 638 Z" fill="red"></path>
				<path d="M 359 616 Q 389 586 469 599 L 689 645 Q 740 657 747 664 Q 757 673 752 682 Q 743 695 710 704 Q 676 711 642 697 Q 585 678 524 662 Q 457 647 378 638 C 348 634 337 633 359 616 Z" fill="lightgray"></path>
				<path d="M 912 25 Q 945 41 934 81 Q 910 145 896 241 Q 895 260 886 270 Q 879 279 874 253 Q 864 165 848 106 Q 836 84 812 70 Q 692 13 453 49 Q 414 56 393 70 Q 359 89 354 119 Q 339 174 427 275 Q 466 318 560 392 Q 584 411 612 424 Q 628 430 631 439 Q 638 454 619 469 Q 585 493 545 507 Q 533 511 517 503 Q 438 469 394 459 Q 330 446 232 441 Q 219 442 214 434 Q 211 425 225 414 Q 243 398 258 394 Q 289 387 334 403 Q 484 452 491 441 Q 495 437 487 430 Q 318 228 307 149 Q 300 113 310 90 Q 314 62 341 40 Q 432 -51 722 -25 Q 726 -24 733 -24 Q 815 -17 912 25 Z" fill="lightgray"></path>
</g>
		<text x="40" y="140" font-size="128" fill="#999999">1</text></g>
		<g id="id0:id1:id1" transform="matrix(1.0,0,0,1.0,1024,0.0)">			<g stroke="lightgray" stroke-width="4" transform="scale(4, 4)"> <rect x="0" y="0" width="256" height="256" fill="white" stroke-width="4"/></g>
			<g transform="scale(0.92, -0.92) translate(60, -920)">					<path d="M 378 638 Q 477 771 485 780 Q 497 793 483 810 Q 437 852 412 850 Q 399 849 401 833 Q 402 713 250 565 Q 208 534 158 489 Q 148 473 165 477 Q 190 478 226 502 Q 304 554 359 616 L 378 638 Z" fill="black"></path>
				<path d="M 359 616 Q 389 586 469 599 L 689 645 Q 740 657 747 664 Q 757 673 752 682 Q 743 695 710 704 Q 676 711 642 697 Q 585 678 524 662 Q 457 647 378 638 C 348 634 337 633 359 616 Z" fill="red"></path>
				<path d="M 912 25 Q 945 41 934 81 Q 910 145 896 241 Q 895 260 886 270 Q 879 279 874 253 Q 864 165 848 106 Q 836 84 812 70 Q 692 13 453 49 Q 414 56 393 70 Q 359 89 354 119 Q 339 174 427 275 Q 466 318 560 392 Q 584 411 612 424 Q 628 430 631 439 Q 638 454 619 469 Q 585 493 545 507 Q 533 511 517 503 Q 438 469 394 459 Q 330 446 232 441 Q 219 442 214 434 Q 211 425 225 414 Q 243 398 258 394 Q 289 387 334 403 Q 484 452 491 441 Q 495 437 487 430 Q 318 228 307 149 Q 300 113 310 90 Q 314 62 341 40 Q 432 -51 722 -25 Q 726 -24 733 -24 Q 815 -17 912 25 Z" fill="lightgray"></path>
</g>
		<text x="40" y="140" font-size="128" fill="#999999">2</text></g>
		<g id="id0:id2:id2" transform="matrix(1.0,0,0,1.0,2048,0.0)">			<g stroke="lightgray" stroke-width="4" transform="scale(4, 4)"> <rect x="0" y="0" width="256" height="256" fill="white" stroke-width="4"/></g>
			<g transform="scale(0.92, -0.92) translate(60, -920)">					<path d="M 378 638 Q 477 771 485 780 Q 497 793 483 810 Q 437 852 412 850 Q 399 849 401 833 Q 402 713 250 565 Q 208 534 158 489 Q 148 473 165 477 Q 190 478 226 502 Q 304 554 359 616 L 378 638 Z" fill="black"></path>
				<path d="M 359 616 Q 389 586 469 599 L 689 645 Q 740 657 747 664 Q 757 673 752 682 Q 743 695 710 704 Q 676 711 642 697 Q 585 678 524 662 Q 457 647 378 638 C 348 634 337 633 359 616 Z" fill="black"></path>
				<path d="M 912 25 Q 945 41 934 81 Q 910 145 896 241 Q 895 260 886 270 Q 879 279 874 253 Q 864 165 848 106 Q 836 84 812 70 Q 692 13 453 49 Q 414 56 393 70 Q 359 89 354 119 Q 339 174 427 275 Q 466 318 560 392 Q 584 411 612 424 Q 628 430 631 439 Q 638 454 619 469 Q 585 493 545 507 Q 533 511 517 503 Q 438 469 394 459 Q 330 446 232 441 Q 219 442 214 434 Q 211 425 225 414 Q 243 398 258 394 Q 289 387 334 403 Q 484 452 491 441 Q 495 437 487 430 Q 318 228 307 149 Q 300 113 310 90 Q 314 62 341 40 Q 432 -51 722 -25 Q 726 -24 733 -24 Q 815 -17 912 25 Z" fill="red"></path>
</g>
		<text x="40" y="140" font-size="128" fill="#999999">3</text></g>
		<g id="id0:id3:id3" transform="matrix(1.0,0,0,1.0,3072,0.0)">			<g stroke="white" stroke-width="4" transform="scale(4, 4)"> <rect x="1" y="1" width="255" height="255" fill="white" stroke-width="0"/></g>
</g>
		<g id="id0:id4:id4" transform="matrix(1.0,0,0,1.0,4096,0.0)">			<g stroke="white" stroke-width="4" transform="scale(4, 4)"> <rect x="1" y="1" width="255" height="255" fill="white" stroke-width="0"/></g>
</g>
</g>
</svg>
