<?xml version="1.0" standalone="no"?>
<!DOCTYPE svg PUBLIC "-//W3C//DTD SVG 1.1//EN"
 "http://www.w3.org/Graphics/SVG/1.1/DTD/svg11.dtd">
<!-- generate by Handict dictionary app com.asnsami.handict -->

<svg xmlns="http://www.w3.org/2000/svg" xmlns:sodipodi="http://sodipodi.sourceforge.net/DTD/sodipodi-0.dtd" version="1.1" width="640" height="128" viewBox="0 0 5120 1024">
	<g id="id0:id0" transform="translate(0.0,0)">
		<g id="id0:id0:id0" transform="matrix(1.0,0,0,1.0,0,0.0)">			<g stroke="lightgray" stroke-width="4" transform="scale(4, 4)"> <rect x="0" y="0" width="256" height="256" fill="white" stroke-width="4"/></g>
			<g transform="scale(0.92, -0.92) translate(60, -920)">					<path d="M 526 549 Q 569 571 661 633 Q 704 664 732 669 Q 778 679 784 698 Q 787 708 749 753 Q 716 793 703 793 Q 336 721 301 716 Q 265 715 244 719 Q 225 723 216 711 Q 212 702 222 690 Q 232 675 260 657 Q 284 638 295 639 Q 305 638 328 653 Q 391 698 626 741 Q 671 750 677 746 Q 681 745 680 739 Q 679 729 522 577 Q 512 570 506 563 C 484 543 500 535 526 549 Z" fill="red"></path>
				<path d="M 506 563 Q 475 585 461 588 Q 448 591 448 567 Q 449 549 471 533 Q 513 497 525 417 Q 544 180 506 126 Q 505 126 505 124 Q 493 114 469 123 Q 430 130 383 141 Q 364 148 363 140 Q 363 137 456 50 Q 480 28 496 -3 Q 506 -13 518 -8 Q 534 -1 563 42 Q 614 127 585 436 Q 581 464 577 485 Q 568 528 526 549 L 506 563 Z" fill="lightgray"></path>
</g>
		<text x="40" y="140" font-size="128" fill="#999999">1</text></g>
		<g id="id0:id1:id1" transform="matrix(1.0,0,0,1.0,1024,0.0)">			<g stroke="lightgray" stroke-width="4" transform="scale(4, 4)"> <rect x="0" y="0" width="256" height="256" fill="white" stroke-width="4"/></g>
			<g transform="scale(0.92, -0.92) translate(60, -920)">					<path d="M 526 549 Q 569 571 661 633 Q 704 664 732 669 Q 778 679 784 698 Q 787 708 749 753 Q 716 793 703 793 Q 336 721 301 716 Q 265 715 244 719 Q 225 723 216 711 Q 212 702 222 690 Q 232 675 260 657 Q 284 638 295 639 Q 305 638 328 653 Q 391 698 626 741 Q 671 750 677 746 Q 681 745 680 739 Q 679 729 522 577 Q 512 570 506 563 C 484 543 500 535 526 549 Z" fill="black"></path>
				<path d="M 506 563 Q 475 585 461 588 Q 448 591 448 567 Q 449 549 471 533 Q 513 497 525 417 Q 544 180 506 126 Q 505 126 505 124 Q 493 114 469 123 Q 430 130 383 141 Q 364 148 363 140 Q 363 137 456 50 Q 480 28 496 -3 Q 506 -13 518 -8 Q 534 -1 563 42 Q 614 127 585 436 Q 581 464 577 485 Q 568 528 526 549 L 506 563 Z" fill="red"></path>
</g>
		<text x="40" y="140" font-size="128" fill="#999999">2</text></g>
		<g id="id0:id2:id2" transform="matrix(1.0,0,0,1.0,2048,0.0)">			<g stroke="white" stroke-width="4" transform="scale(4, 4)"> <rect x="1" y="1" width="255" height="255" fill="white" stroke-width="0"/></g>
</g>
		<g id="id0:id3:id3" transform="matrix(1.0,0,0,1.0,3072,0.0)">			<g stroke="white" stroke-width="4" transform="scale(4, 4)"> <rect x="1" y="1" width="255" height="255" fill="white" stroke-width="0"/></g>
</g>
		<g id="id0:id4:id4" transform="matrix(1.0,0,0,1.0,4096,0.0)">			<g stroke="white" stroke-width="4" transform="scale(4, 4)"> <rect x="1" y="1" width="255" height="255" fill="white" stroke-width="0"/></g>
</g>
</g>
</svg>
