<?xml version="1.0" standalone="no"?>
<!DOCTYPE svg PUBLIC "-//W3C//DTD SVG 1.1//EN"
 "http://www.w3.org/Graphics/SVG/1.1/DTD/svg11.dtd">
<!-- generate by Japanese dictionary app com.asnsami.kanjidictionary -->

<svg xmlns="http://www.w3.org/2000/svg" xmlns:sodipodi="http://sodipodi.sourceforge.net/DTD/sodipodi-0.dtd" version="1.1" width="640" height="128" viewBox="0 0 5120 1024">
	<g id="id0:id0" transform="translate(0.0,0)">
		<g id="id0:id0:id0" transform="matrix(1.0,0,0,1.0,0,0.0)">			<g stroke="lightgray" stroke-width="4" transform="scale(4, 4)"> <rect x="0" y="0" width="256" height="256" fill="white" stroke-width="4"/></g>
			<g transform="scale(0.92, -0.92) translate(60, -920)">					<path d="M 499 673 Q 590 688 686 701 Q 750 711 761 720 Q 771 729 767 738 Q 760 753 727 762 Q 693 772 598 744 Q 453 713 314 705 Q 272 701 301 680 Q 340 653 430 664 Q 440 665 452 667 L 499 673 Z" fill="red"></path>
				<path d="M 482 468 Q 494 520 507 568 Q 525 635 524 641 Q 512 660 499 673 C 479 695 448 697 452 667 Q 461 625 443 526 Q 436 499 428 460 L 419 421 Q 395 322 357 159 C 350 130 401 136 408 165 Q 442 307 472 429 L 482 468 Z" fill="lightgray"></path>
				<path d="M 641 177 Q 678 360 738 416 Q 759 438 741 459 Q 722 475 661 505 Q 640 514 614 505 Q 545 481 482 468 L 428 460 Q 355 450 280 446 Q 261 446 262 434 Q 265 424 286 416 Q 314 401 357 413 Q 388 417 419 421 L 472 429 Q 527 439 584 446 Q 614 452 625 440 Q 643 421 637 384 Q 615 266 585 174 C 576 145 635 148 641 177 Z" fill="lightgray"></path>
				<path d="M 357 159 Q 329 158 301 152 Q 159 130 72 134 Q 62 135 53 128 Q 46 121 52 110 Q 64 94 119 62 Q 134 55 156 64 Q 339 130 526 140 Q 670 152 937 99 Q 943 99 949 97 Q 970 93 977 103 Q 984 115 964 132 Q 883 199 844 191 Q 840 191 837 189 Q 807 183 641 177 L 585 174 Q 521 178 408 165 L 357 159 Z" fill="lightgray"></path>
</g>
		<text x="40" y="140" font-size="128" fill="#999999">1</text></g>
		<g id="id0:id1:id1" transform="matrix(1.0,0,0,1.0,1024,0.0)">			<g stroke="lightgray" stroke-width="4" transform="scale(4, 4)"> <rect x="0" y="0" width="256" height="256" fill="white" stroke-width="4"/></g>
			<g transform="scale(0.92, -0.92) translate(60, -920)">					<path d="M 499 673 Q 590 688 686 701 Q 750 711 761 720 Q 771 729 767 738 Q 760 753 727 762 Q 693 772 598 744 Q 453 713 314 705 Q 272 701 301 680 Q 340 653 430 664 Q 440 665 452 667 L 499 673 Z" fill="black"></path>
				<path d="M 482 468 Q 494 520 507 568 Q 525 635 524 641 Q 512 660 499 673 C 479 695 448 697 452 667 Q 461 625 443 526 Q 436 499 428 460 L 419 421 Q 395 322 357 159 C 350 130 401 136 408 165 Q 442 307 472 429 L 482 468 Z" fill="red"></path>
				<path d="M 641 177 Q 678 360 738 416 Q 759 438 741 459 Q 722 475 661 505 Q 640 514 614 505 Q 545 481 482 468 L 428 460 Q 355 450 280 446 Q 261 446 262 434 Q 265 424 286 416 Q 314 401 357 413 Q 388 417 419 421 L 472 429 Q 527 439 584 446 Q 614 452 625 440 Q 643 421 637 384 Q 615 266 585 174 C 576 145 635 148 641 177 Z" fill="lightgray"></path>
				<path d="M 357 159 Q 329 158 301 152 Q 159 130 72 134 Q 62 135 53 128 Q 46 121 52 110 Q 64 94 119 62 Q 134 55 156 64 Q 339 130 526 140 Q 670 152 937 99 Q 943 99 949 97 Q 970 93 977 103 Q 984 115 964 132 Q 883 199 844 191 Q 840 191 837 189 Q 807 183 641 177 L 585 174 Q 521 178 408 165 L 357 159 Z" fill="lightgray"></path>
</g>
		<text x="40" y="140" font-size="128" fill="#999999">2</text></g>
		<g id="id0:id2:id2" transform="matrix(1.0,0,0,1.0,2048,0.0)">			<g stroke="lightgray" stroke-width="4" transform="scale(4, 4)"> <rect x="0" y="0" width="256" height="256" fill="white" stroke-width="4"/></g>
			<g transform="scale(0.92, -0.92) translate(60, -920)">					<path d="M 499 673 Q 590 688 686 701 Q 750 711 761 720 Q 771 729 767 738 Q 760 753 727 762 Q 693 772 598 744 Q 453 713 314 705 Q 272 701 301 680 Q 340 653 430 664 Q 440 665 452 667 L 499 673 Z" fill="black"></path>
				<path d="M 482 468 Q 494 520 507 568 Q 525 635 524 641 Q 512 660 499 673 C 479 695 448 697 452 667 Q 461 625 443 526 Q 436 499 428 460 L 419 421 Q 395 322 357 159 C 350 130 401 136 408 165 Q 442 307 472 429 L 482 468 Z" fill="black"></path>
				<path d="M 641 177 Q 678 360 738 416 Q 759 438 741 459 Q 722 475 661 505 Q 640 514 614 505 Q 545 481 482 468 L 428 460 Q 355 450 280 446 Q 261 446 262 434 Q 265 424 286 416 Q 314 401 357 413 Q 388 417 419 421 L 472 429 Q 527 439 584 446 Q 614 452 625 440 Q 643 421 637 384 Q 615 266 585 174 C 576 145 635 148 641 177 Z" fill="red"></path>
				<path d="M 357 159 Q 329 158 301 152 Q 159 130 72 134 Q 62 135 53 128 Q 46 121 52 110 Q 64 94 119 62 Q 134 55 156 64 Q 339 130 526 140 Q 670 152 937 99 Q 943 99 949 97 Q 970 93 977 103 Q 984 115 964 132 Q 883 199 844 191 Q 840 191 837 189 Q 807 183 641 177 L 585 174 Q 521 178 408 165 L 357 159 Z" fill="lightgray"></path>
</g>
		<text x="40" y="140" font-size="128" fill="#999999">3</text></g>
		<g id="id0:id3:id3" transform="matrix(1.0,0,0,1.0,3072,0.0)">			<g stroke="lightgray" stroke-width="4" transform="scale(4, 4)"> <rect x="0" y="0" width="256" height="256" fill="white" stroke-width="4"/></g>
			<g transform="scale(0.92, -0.92) translate(60, -920)">					<path d="M 499 673 Q 590 688 686 701 Q 750 711 761 720 Q 771 729 767 738 Q 760 753 727 762 Q 693 772 598 744 Q 453 713 314 705 Q 272 701 301 680 Q 340 653 430 664 Q 440 665 452 667 L 499 673 Z" fill="black"></path>
				<path d="M 482 468 Q 494 520 507 568 Q 525 635 524 641 Q 512 660 499 673 C 479 695 448 697 452 667 Q 461 625 443 526 Q 436 499 428 460 L 419 421 Q 395 322 357 159 C 350 130 401 136 408 165 Q 442 307 472 429 L 482 468 Z" fill="black"></path>
				<path d="M 641 177 Q 678 360 738 416 Q 759 438 741 459 Q 722 475 661 505 Q 640 514 614 505 Q 545 481 482 468 L 428 460 Q 355 450 280 446 Q 261 446 262 434 Q 265 424 286 416 Q 314 401 357 413 Q 388 417 419 421 L 472 429 Q 527 439 584 446 Q 614 452 625 440 Q 643 421 637 384 Q 615 266 585 174 C 576 145 635 148 641 177 Z" fill="black"></path>
				<path d="M 357 159 Q 329 158 301 152 Q 159 130 72 134 Q 62 135 53 128 Q 46 121 52 110 Q 64 94 119 62 Q 134 55 156 64 Q 339 130 526 140 Q 670 152 937 99 Q 943 99 949 97 Q 970 93 977 103 Q 984 115 964 132 Q 883 199 844 191 Q 840 191 837 189 Q 807 183 641 177 L 585 174 Q 521 178 408 165 L 357 159 Z" fill="red"></path>
</g>
		<text x="40" y="140" font-size="128" fill="#999999">4</text></g>
		<g id="id0:id4:id4" transform="matrix(1.0,0,0,1.0,4096,0.0)">			<g stroke="white" stroke-width="4" transform="scale(4, 4)"> <rect x="1" y="1" width="255" height="255" fill="white" stroke-width="0"/></g>
</g>
</g>
</svg>
