<?xml version="1.0" standalone="no"?>
<!DOCTYPE svg PUBLIC "-//W3C//DTD SVG 1.1//EN"
 "http://www.w3.org/Graphics/SVG/1.1/DTD/svg11.dtd">
<!-- generate by Handict dictionary app com.asnsami.handict -->

<svg xmlns="http://www.w3.org/2000/svg" xmlns:sodipodi="http://sodipodi.sourceforge.net/DTD/sodipodi-0.dtd" version="1.1" width="640" height="128" viewBox="0 0 5120 1024">
	<g id="id0:id0" transform="translate(0.0,0)">
		<g id="id0:id0:id0" transform="matrix(1.0,0,0,1.0,0,0.0)">			<g stroke="lightgray" stroke-width="4" transform="scale(4, 4)"> <rect x="0" y="0" width="256" height="256" fill="white" stroke-width="4"/></g>
			<g transform="scale(0.92, -0.92) translate(60, -920)">					<path d="M 500 709 Q 591 724 710 735 Q 722 734 732 747 Q 733 760 709 772 Q 673 794 598 775 Q 562 769 528 760 Q 449 745 302 731 Q 271 728 294 709 Q 330 678 360 686 Q 403 695 456 702 L 500 709 Z" fill="red"></path>
				<path d="M 556 484 Q 634 490 898 491 Q 922 491 927 501 Q 934 514 914 531 Q 842 588 796 565 Q 699 549 552 525 L 502 518 Q 499 519 497 518 Q 322 497 115 474 Q 90 471 108 451 Q 124 435 146 428 Q 171 421 190 427 Q 328 463 506 480 L 556 484 Z" fill="lightgray"></path>
				<path d="M 506 480 Q 527 186 476 99 Q 473 90 464 87 Q 446 81 349 100 Q 340 101 338 97 Q 337 93 346 84 Q 416 30 455 -12 Q 468 -25 475 -23 Q 491 -22 517 6 Q 574 63 575 174 Q 576 234 556 484 L 552 525 Q 531 687 528 692 Q 519 701 500 709 C 474 724 442 729 456 702 Q 487 656 502 518 L 506 480 Z" fill="lightgray"></path>
</g>
		<text x="40" y="140" font-size="128" fill="#999999">1</text></g>
		<g id="id0:id1:id1" transform="matrix(1.0,0,0,1.0,1024,0.0)">			<g stroke="lightgray" stroke-width="4" transform="scale(4, 4)"> <rect x="0" y="0" width="256" height="256" fill="white" stroke-width="4"/></g>
			<g transform="scale(0.92, -0.92) translate(60, -920)">					<path d="M 500 709 Q 591 724 710 735 Q 722 734 732 747 Q 733 760 709 772 Q 673 794 598 775 Q 562 769 528 760 Q 449 745 302 731 Q 271 728 294 709 Q 330 678 360 686 Q 403 695 456 702 L 500 709 Z" fill="black"></path>
				<path d="M 556 484 Q 634 490 898 491 Q 922 491 927 501 Q 934 514 914 531 Q 842 588 796 565 Q 699 549 552 525 L 502 518 Q 499 519 497 518 Q 322 497 115 474 Q 90 471 108 451 Q 124 435 146 428 Q 171 421 190 427 Q 328 463 506 480 L 556 484 Z" fill="red"></path>
				<path d="M 506 480 Q 527 186 476 99 Q 473 90 464 87 Q 446 81 349 100 Q 340 101 338 97 Q 337 93 346 84 Q 416 30 455 -12 Q 468 -25 475 -23 Q 491 -22 517 6 Q 574 63 575 174 Q 576 234 556 484 L 552 525 Q 531 687 528 692 Q 519 701 500 709 C 474 724 442 729 456 702 Q 487 656 502 518 L 506 480 Z" fill="lightgray"></path>
</g>
		<text x="40" y="140" font-size="128" fill="#999999">2</text></g>
		<g id="id0:id2:id2" transform="matrix(1.0,0,0,1.0,2048,0.0)">			<g stroke="lightgray" stroke-width="4" transform="scale(4, 4)"> <rect x="0" y="0" width="256" height="256" fill="white" stroke-width="4"/></g>
			<g transform="scale(0.92, -0.92) translate(60, -920)">					<path d="M 500 709 Q 591 724 710 735 Q 722 734 732 747 Q 733 760 709 772 Q 673 794 598 775 Q 562 769 528 760 Q 449 745 302 731 Q 271 728 294 709 Q 330 678 360 686 Q 403 695 456 702 L 500 709 Z" fill="black"></path>
				<path d="M 556 484 Q 634 490 898 491 Q 922 491 927 501 Q 934 514 914 531 Q 842 588 796 565 Q 699 549 552 525 L 502 518 Q 499 519 497 518 Q 322 497 115 474 Q 90 471 108 451 Q 124 435 146 428 Q 171 421 190 427 Q 328 463 506 480 L 556 484 Z" fill="black"></path>
				<path d="M 506 480 Q 527 186 476 99 Q 473 90 464 87 Q 446 81 349 100 Q 340 101 338 97 Q 337 93 346 84 Q 416 30 455 -12 Q 468 -25 475 -23 Q 491 -22 517 6 Q 574 63 575 174 Q 576 234 556 484 L 552 525 Q 531 687 528 692 Q 519 701 500 709 C 474 724 442 729 456 702 Q 487 656 502 518 L 506 480 Z" fill="red"></path>
</g>
		<text x="40" y="140" font-size="128" fill="#999999">3</text></g>
		<g id="id0:id3:id3" transform="matrix(1.0,0,0,1.0,3072,0.0)">			<g stroke="white" stroke-width="4" transform="scale(4, 4)"> <rect x="1" y="1" width="255" height="255" fill="white" stroke-width="0"/></g>
</g>
		<g id="id0:id4:id4" transform="matrix(1.0,0,0,1.0,4096,0.0)">			<g stroke="white" stroke-width="4" transform="scale(4, 4)"> <rect x="1" y="1" width="255" height="255" fill="white" stroke-width="0"/></g>
</g>
</g>
</svg>
