<?xml version="1.0" standalone="no"?>
<!DOCTYPE svg PUBLIC "-//W3C//DTD SVG 1.1//EN"
 "http://www.w3.org/Graphics/SVG/1.1/DTD/svg11.dtd">
<!-- generate by Japanese dictionary app com.asnsami.kanjidictionary -->

<svg xmlns="http://www.w3.org/2000/svg" xmlns:sodipodi="http://sodipodi.sourceforge.net/DTD/sodipodi-0.dtd" version="1.1" width="640" height="128" viewBox="0 0 5120 1024">
	<g id="id0:id0" transform="translate(0.0,0)">
		<g id="id0:id0:id0" transform="matrix(1.0,0,0,1.0,0,0.0)">			<g stroke="lightgray" stroke-width="4" transform="scale(4, 4)"> <rect x="0" y="0" width="256" height="256" fill="white" stroke-width="4"/></g>
			<g transform="scale(0.92, -0.92) translate(60, -920)">					<path d="M 337 699 Q 294 693 324 672 Q 379 642 440 656 Q 674 698 682 702 Q 692 712 687 722 Q 680 735 645 746 Q 614 752 497 721 Q 410 705 337 699 Z" fill="red"></path>
				<path d="M 428 466 Q 458 476 702 498 Q 774 504 889 495 Q 914 494 919 502 Q 926 517 914 528 Q 883 556 837 575 Q 821 581 795 572 Q 524 521 220 484 Q 174 480 120 477 Q 105 477 105 465 Q 104 452 124 438 Q 142 425 175 414 Q 185 410 204 419 Q 255 437 368 455 L 428 466 Z" fill="lightgray"></path>
				<path d="M 357 262 Q 420 302 545 322 Q 585 332 609 324 Q 633 317 635 276 Q 622 185 575 118 Q 556 87 538 81 Q 516 74 487 84 Q 454 91 430 98 Q 411 107 410 98 Q 410 91 424 78 Q 472 32 502 -8 Q 514 -21 525 -21 Q 543 -21 563 -7 Q 638 53 680 195 Q 701 288 712 302 Q 725 315 715 330 Q 696 349 653 369 Q 631 379 604 371 Q 568 361 541 355 Q 492 348 430 339 Q 402 335 415 363 Q 439 411 448 421 Q 461 437 449 454 Q 440 461 428 466 C 404 484 361 484 368 455 Q 380 443 373 404 Q 358 356 323 327 Q 304 308 308 292 Q 311 276 329 261 Q 342 249 357 262 Z" fill="lightgray"></path>
</g>
		<text x="40" y="140" font-size="128" fill="#999999">1</text></g>
		<g id="id0:id1:id1" transform="matrix(1.0,0,0,1.0,1024,0.0)">			<g stroke="lightgray" stroke-width="4" transform="scale(4, 4)"> <rect x="0" y="0" width="256" height="256" fill="white" stroke-width="4"/></g>
			<g transform="scale(0.92, -0.92) translate(60, -920)">					<path d="M 337 699 Q 294 693 324 672 Q 379 642 440 656 Q 674 698 682 702 Q 692 712 687 722 Q 680 735 645 746 Q 614 752 497 721 Q 410 705 337 699 Z" fill="black"></path>
				<path d="M 428 466 Q 458 476 702 498 Q 774 504 889 495 Q 914 494 919 502 Q 926 517 914 528 Q 883 556 837 575 Q 821 581 795 572 Q 524 521 220 484 Q 174 480 120 477 Q 105 477 105 465 Q 104 452 124 438 Q 142 425 175 414 Q 185 410 204 419 Q 255 437 368 455 L 428 466 Z" fill="red"></path>
				<path d="M 357 262 Q 420 302 545 322 Q 585 332 609 324 Q 633 317 635 276 Q 622 185 575 118 Q 556 87 538 81 Q 516 74 487 84 Q 454 91 430 98 Q 411 107 410 98 Q 410 91 424 78 Q 472 32 502 -8 Q 514 -21 525 -21 Q 543 -21 563 -7 Q 638 53 680 195 Q 701 288 712 302 Q 725 315 715 330 Q 696 349 653 369 Q 631 379 604 371 Q 568 361 541 355 Q 492 348 430 339 Q 402 335 415 363 Q 439 411 448 421 Q 461 437 449 454 Q 440 461 428 466 C 404 484 361 484 368 455 Q 380 443 373 404 Q 358 356 323 327 Q 304 308 308 292 Q 311 276 329 261 Q 342 249 357 262 Z" fill="lightgray"></path>
</g>
		<text x="40" y="140" font-size="128" fill="#999999">2</text></g>
		<g id="id0:id2:id2" transform="matrix(1.0,0,0,1.0,2048,0.0)">			<g stroke="lightgray" stroke-width="4" transform="scale(4, 4)"> <rect x="0" y="0" width="256" height="256" fill="white" stroke-width="4"/></g>
			<g transform="scale(0.92, -0.92) translate(60, -920)">					<path d="M 337 699 Q 294 693 324 672 Q 379 642 440 656 Q 674 698 682 702 Q 692 712 687 722 Q 680 735 645 746 Q 614 752 497 721 Q 410 705 337 699 Z" fill="black"></path>
				<path d="M 428 466 Q 458 476 702 498 Q 774 504 889 495 Q 914 494 919 502 Q 926 517 914 528 Q 883 556 837 575 Q 821 581 795 572 Q 524 521 220 484 Q 174 480 120 477 Q 105 477 105 465 Q 104 452 124 438 Q 142 425 175 414 Q 185 410 204 419 Q 255 437 368 455 L 428 466 Z" fill="black"></path>
				<path d="M 357 262 Q 420 302 545 322 Q 585 332 609 324 Q 633 317 635 276 Q 622 185 575 118 Q 556 87 538 81 Q 516 74 487 84 Q 454 91 430 98 Q 411 107 410 98 Q 410 91 424 78 Q 472 32 502 -8 Q 514 -21 525 -21 Q 543 -21 563 -7 Q 638 53 680 195 Q 701 288 712 302 Q 725 315 715 330 Q 696 349 653 369 Q 631 379 604 371 Q 568 361 541 355 Q 492 348 430 339 Q 402 335 415 363 Q 439 411 448 421 Q 461 437 449 454 Q 440 461 428 466 C 404 484 361 484 368 455 Q 380 443 373 404 Q 358 356 323 327 Q 304 308 308 292 Q 311 276 329 261 Q 342 249 357 262 Z" fill="red"></path>
</g>
		<text x="40" y="140" font-size="128" fill="#999999">3</text></g>
		<g id="id0:id3:id3" transform="matrix(1.0,0,0,1.0,3072,0.0)">			<g stroke="white" stroke-width="4" transform="scale(4, 4)"> <rect x="1" y="1" width="255" height="255" fill="white" stroke-width="0"/></g>
</g>
		<g id="id0:id4:id4" transform="matrix(1.0,0,0,1.0,4096,0.0)">			<g stroke="white" stroke-width="4" transform="scale(4, 4)"> <rect x="1" y="1" width="255" height="255" fill="white" stroke-width="0"/></g>
</g>
</g>
</svg>
