<?xml version="1.0" standalone="no"?>
<!DOCTYPE svg PUBLIC "-//W3C//DTD SVG 1.1//EN"
 "http://www.w3.org/Graphics/SVG/1.1/DTD/svg11.dtd">
<!-- generate by Japanese dictionary app com.asnsami.kanjidictionary -->

<svg xmlns="http://www.w3.org/2000/svg" xmlns:sodipodi="http://sodipodi.sourceforge.net/DTD/sodipodi-0.dtd" version="1.1" width="640" height="256" viewBox="0 0 5120 2048">
	<g id="id0:id0" transform="translate(0.0,0)">
		<g id="id0:id0:id0" transform="matrix(1.0,0,0,1.0,0,0.0)">			<g stroke="lightgray" stroke-width="4" transform="scale(4, 4)"> <rect x="0" y="0" width="256" height="256" fill="white" stroke-width="4"/></g>
			<g transform="scale(0.92, -0.92) translate(60, -920)">					<path d="M 607 679 Q 608 682 747 692 Q 760 691 771 705 Q 772 718 746 732 Q 704 757 631 738 Q 462 705 275 690 Q 241 687 266 665 Q 305 632 341 641 Q 348 644 363 644 L 411 651 Q 474 663 549 672 L 607 679 Z" fill="red"></path>
				<path d="M 363 644 Q 385 595 389 562 Q 389 282 387 105 C 387 75 431 79 431 109 Q 435 568 439 602 Q 448 627 411 651 C 387 669 351 672 363 644 Z" fill="lightgray"></path>
				<path d="M 609 121 Q 610 221 614 311 L 615 343 Q 619 592 624 636 Q 631 657 621 667 Q 614 674 607 679 C 584 698 538 700 549 672 Q 568 627 569 586 Q 569 433 561 118 C 560 88 609 91 609 121 Z" fill="lightgray"></path>
				<path d="M 212 376 Q 245 340 278 298 Q 290 283 306 281 Q 318 280 325 293 Q 332 308 327 340 Q 324 365 290 389 Q 214 435 192 431 Q 186 428 186 414 Q 187 402 212 376 Z" fill="lightgray"></path>
				<path d="M 614 311 Q 614 312 617 313 Q 762 415 832 452 Q 854 456 850 471 Q 843 490 822 514 Q 800 538 773 541 Q 755 542 755 518 Q 756 502 745 483 Q 700 428 615 343 C 594 322 589 294 614 311 Z" fill="lightgray"></path>
				<path d="M 513 68 Q 565 69 616 73 Q 742 83 889 62 Q 914 58 920 67 Q 929 80 916 94 Q 840 167 791 143 Q 725 133 662 126 Q 634 125 609 121 L 561 118 Q 515 117 485 113 Q 457 112 431 109 L 387 105 Q 336 104 303 99 Q 236 92 135 94 Q 120 95 119 83 Q 118 70 136 55 Q 181 22 213 29 Q 255 44 403 60 Q 455 66 513 68 Z" fill="lightgray"></path>
</g>
		<text x="40" y="140" font-size="128" fill="#999999">1</text></g>
		<g id="id0:id1:id1" transform="matrix(1.0,0,0,1.0,1024,0.0)">			<g stroke="lightgray" stroke-width="4" transform="scale(4, 4)"> <rect x="0" y="0" width="256" height="256" fill="white" stroke-width="4"/></g>
			<g transform="scale(0.92, -0.92) translate(60, -920)">					<path d="M 607 679 Q 608 682 747 692 Q 760 691 771 705 Q 772 718 746 732 Q 704 757 631 738 Q 462 705 275 690 Q 241 687 266 665 Q 305 632 341 641 Q 348 644 363 644 L 411 651 Q 474 663 549 672 L 607 679 Z" fill="black"></path>
				<path d="M 363 644 Q 385 595 389 562 Q 389 282 387 105 C 387 75 431 79 431 109 Q 435 568 439 602 Q 448 627 411 651 C 387 669 351 672 363 644 Z" fill="red"></path>
				<path d="M 609 121 Q 610 221 614 311 L 615 343 Q 619 592 624 636 Q 631 657 621 667 Q 614 674 607 679 C 584 698 538 700 549 672 Q 568 627 569 586 Q 569 433 561 118 C 560 88 609 91 609 121 Z" fill="lightgray"></path>
				<path d="M 212 376 Q 245 340 278 298 Q 290 283 306 281 Q 318 280 325 293 Q 332 308 327 340 Q 324 365 290 389 Q 214 435 192 431 Q 186 428 186 414 Q 187 402 212 376 Z" fill="lightgray"></path>
				<path d="M 614 311 Q 614 312 617 313 Q 762 415 832 452 Q 854 456 850 471 Q 843 490 822 514 Q 800 538 773 541 Q 755 542 755 518 Q 756 502 745 483 Q 700 428 615 343 C 594 322 589 294 614 311 Z" fill="lightgray"></path>
				<path d="M 513 68 Q 565 69 616 73 Q 742 83 889 62 Q 914 58 920 67 Q 929 80 916 94 Q 840 167 791 143 Q 725 133 662 126 Q 634 125 609 121 L 561 118 Q 515 117 485 113 Q 457 112 431 109 L 387 105 Q 336 104 303 99 Q 236 92 135 94 Q 120 95 119 83 Q 118 70 136 55 Q 181 22 213 29 Q 255 44 403 60 Q 455 66 513 68 Z" fill="lightgray"></path>
</g>
		<text x="40" y="140" font-size="128" fill="#999999">2</text></g>
		<g id="id0:id2:id2" transform="matrix(1.0,0,0,1.0,2048,0.0)">			<g stroke="lightgray" stroke-width="4" transform="scale(4, 4)"> <rect x="0" y="0" width="256" height="256" fill="white" stroke-width="4"/></g>
			<g transform="scale(0.92, -0.92) translate(60, -920)">					<path d="M 607 679 Q 608 682 747 692 Q 760 691 771 705 Q 772 718 746 732 Q 704 757 631 738 Q 462 705 275 690 Q 241 687 266 665 Q 305 632 341 641 Q 348 644 363 644 L 411 651 Q 474 663 549 672 L 607 679 Z" fill="black"></path>
				<path d="M 363 644 Q 385 595 389 562 Q 389 282 387 105 C 387 75 431 79 431 109 Q 435 568 439 602 Q 448 627 411 651 C 387 669 351 672 363 644 Z" fill="black"></path>
				<path d="M 609 121 Q 610 221 614 311 L 615 343 Q 619 592 624 636 Q 631 657 621 667 Q 614 674 607 679 C 584 698 538 700 549 672 Q 568 627 569 586 Q 569 433 561 118 C 560 88 609 91 609 121 Z" fill="red"></path>
				<path d="M 212 376 Q 245 340 278 298 Q 290 283 306 281 Q 318 280 325 293 Q 332 308 327 340 Q 324 365 290 389 Q 214 435 192 431 Q 186 428 186 414 Q 187 402 212 376 Z" fill="lightgray"></path>
				<path d="M 614 311 Q 614 312 617 313 Q 762 415 832 452 Q 854 456 850 471 Q 843 490 822 514 Q 800 538 773 541 Q 755 542 755 518 Q 756 502 745 483 Q 700 428 615 343 C 594 322 589 294 614 311 Z" fill="lightgray"></path>
				<path d="M 513 68 Q 565 69 616 73 Q 742 83 889 62 Q 914 58 920 67 Q 929 80 916 94 Q 840 167 791 143 Q 725 133 662 126 Q 634 125 609 121 L 561 118 Q 515 117 485 113 Q 457 112 431 109 L 387 105 Q 336 104 303 99 Q 236 92 135 94 Q 120 95 119 83 Q 118 70 136 55 Q 181 22 213 29 Q 255 44 403 60 Q 455 66 513 68 Z" fill="lightgray"></path>
</g>
		<text x="40" y="140" font-size="128" fill="#999999">3</text></g>
		<g id="id0:id3:id3" transform="matrix(1.0,0,0,1.0,3072,0.0)">			<g stroke="lightgray" stroke-width="4" transform="scale(4, 4)"> <rect x="0" y="0" width="256" height="256" fill="white" stroke-width="4"/></g>
			<g transform="scale(0.92, -0.92) translate(60, -920)">					<path d="M 607 679 Q 608 682 747 692 Q 760 691 771 705 Q 772 718 746 732 Q 704 757 631 738 Q 462 705 275 690 Q 241 687 266 665 Q 305 632 341 641 Q 348 644 363 644 L 411 651 Q 474 663 549 672 L 607 679 Z" fill="black"></path>
				<path d="M 363 644 Q 385 595 389 562 Q 389 282 387 105 C 387 75 431 79 431 109 Q 435 568 439 602 Q 448 627 411 651 C 387 669 351 672 363 644 Z" fill="black"></path>
				<path d="M 609 121 Q 610 221 614 311 L 615 343 Q 619 592 624 636 Q 631 657 621 667 Q 614 674 607 679 C 584 698 538 700 549 672 Q 568 627 569 586 Q 569 433 561 118 C 560 88 609 91 609 121 Z" fill="black"></path>
				<path d="M 212 376 Q 245 340 278 298 Q 290 283 306 281 Q 318 280 325 293 Q 332 308 327 340 Q 324 365 290 389 Q 214 435 192 431 Q 186 428 186 414 Q 187 402 212 376 Z" fill="red"></path>
				<path d="M 614 311 Q 614 312 617 313 Q 762 415 832 452 Q 854 456 850 471 Q 843 490 822 514 Q 800 538 773 541 Q 755 542 755 518 Q 756 502 745 483 Q 700 428 615 343 C 594 322 589 294 614 311 Z" fill="lightgray"></path>
				<path d="M 513 68 Q 565 69 616 73 Q 742 83 889 62 Q 914 58 920 67 Q 929 80 916 94 Q 840 167 791 143 Q 725 133 662 126 Q 634 125 609 121 L 561 118 Q 515 117 485 113 Q 457 112 431 109 L 387 105 Q 336 104 303 99 Q 236 92 135 94 Q 120 95 119 83 Q 118 70 136 55 Q 181 22 213 29 Q 255 44 403 60 Q 455 66 513 68 Z" fill="lightgray"></path>
</g>
		<text x="40" y="140" font-size="128" fill="#999999">4</text></g>
		<g id="id0:id4:id4" transform="matrix(1.0,0,0,1.0,4096,0.0)">			<g stroke="lightgray" stroke-width="4" transform="scale(4, 4)"> <rect x="0" y="0" width="256" height="256" fill="white" stroke-width="4"/></g>
			<g transform="scale(0.92, -0.92) translate(60, -920)">					<path d="M 607 679 Q 608 682 747 692 Q 760 691 771 705 Q 772 718 746 732 Q 704 757 631 738 Q 462 705 275 690 Q 241 687 266 665 Q 305 632 341 641 Q 348 644 363 644 L 411 651 Q 474 663 549 672 L 607 679 Z" fill="black"></path>
				<path d="M 363 644 Q 385 595 389 562 Q 389 282 387 105 C 387 75 431 79 431 109 Q 435 568 439 602 Q 448 627 411 651 C 387 669 351 672 363 644 Z" fill="black"></path>
				<path d="M 609 121 Q 610 221 614 311 L 615 343 Q 619 592 624 636 Q 631 657 621 667 Q 614 674 607 679 C 584 698 538 700 549 672 Q 568 627 569 586 Q 569 433 561 118 C 560 88 609 91 609 121 Z" fill="black"></path>
				<path d="M 212 376 Q 245 340 278 298 Q 290 283 306 281 Q 318 280 325 293 Q 332 308 327 340 Q 324 365 290 389 Q 214 435 192 431 Q 186 428 186 414 Q 187 402 212 376 Z" fill="black"></path>
				<path d="M 614 311 Q 614 312 617 313 Q 762 415 832 452 Q 854 456 850 471 Q 843 490 822 514 Q 800 538 773 541 Q 755 542 755 518 Q 756 502 745 483 Q 700 428 615 343 C 594 322 589 294 614 311 Z" fill="red"></path>
				<path d="M 513 68 Q 565 69 616 73 Q 742 83 889 62 Q 914 58 920 67 Q 929 80 916 94 Q 840 167 791 143 Q 725 133 662 126 Q 634 125 609 121 L 561 118 Q 515 117 485 113 Q 457 112 431 109 L 387 105 Q 336 104 303 99 Q 236 92 135 94 Q 120 95 119 83 Q 118 70 136 55 Q 181 22 213 29 Q 255 44 403 60 Q 455 66 513 68 Z" fill="lightgray"></path>
</g>
		<text x="40" y="140" font-size="128" fill="#999999">5</text></g>
</g>
	<g id="id1:id1" transform="translate(0.0,1024)">
		<g id="id1:id0:id0" transform="matrix(1.0,0,0,1.0,0,0.0)">			<g stroke="lightgray" stroke-width="4" transform="scale(4, 4)"> <rect x="0" y="0" width="256" height="256" fill="white" stroke-width="4"/></g>
			<g transform="scale(0.92, -0.92) translate(60, -920)">					<path d="M 607 679 Q 608 682 747 692 Q 760 691 771 705 Q 772 718 746 732 Q 704 757 631 738 Q 462 705 275 690 Q 241 687 266 665 Q 305 632 341 641 Q 348 644 363 644 L 411 651 Q 474 663 549 672 L 607 679 Z" fill="black"></path>
				<path d="M 363 644 Q 385 595 389 562 Q 389 282 387 105 C 387 75 431 79 431 109 Q 435 568 439 602 Q 448 627 411 651 C 387 669 351 672 363 644 Z" fill="black"></path>
				<path d="M 609 121 Q 610 221 614 311 L 615 343 Q 619 592 624 636 Q 631 657 621 667 Q 614 674 607 679 C 584 698 538 700 549 672 Q 568 627 569 586 Q 569 433 561 118 C 560 88 609 91 609 121 Z" fill="black"></path>
				<path d="M 212 376 Q 245 340 278 298 Q 290 283 306 281 Q 318 280 325 293 Q 332 308 327 340 Q 324 365 290 389 Q 214 435 192 431 Q 186 428 186 414 Q 187 402 212 376 Z" fill="black"></path>
				<path d="M 614 311 Q 614 312 617 313 Q 762 415 832 452 Q 854 456 850 471 Q 843 490 822 514 Q 800 538 773 541 Q 755 542 755 518 Q 756 502 745 483 Q 700 428 615 343 C 594 322 589 294 614 311 Z" fill="black"></path>
				<path d="M 513 68 Q 565 69 616 73 Q 742 83 889 62 Q 914 58 920 67 Q 929 80 916 94 Q 840 167 791 143 Q 725 133 662 126 Q 634 125 609 121 L 561 118 Q 515 117 485 113 Q 457 112 431 109 L 387 105 Q 336 104 303 99 Q 236 92 135 94 Q 120 95 119 83 Q 118 70 136 55 Q 181 22 213 29 Q 255 44 403 60 Q 455 66 513 68 Z" fill="red"></path>
</g>
		<text x="40" y="140" font-size="128" fill="#999999">6</text></g>
		<g id="id1:id1:id1" transform="matrix(1.0,0,0,1.0,1024,0.0)">			<g stroke="white" stroke-width="4" transform="scale(4, 4)"> <rect x="1" y="1" width="255" height="255" fill="white" stroke-width="0"/></g>
</g>
		<g id="id1:id2:id2" transform="matrix(1.0,0,0,1.0,2048,0.0)">			<g stroke="white" stroke-width="4" transform="scale(4, 4)"> <rect x="1" y="1" width="255" height="255" fill="white" stroke-width="0"/></g>
</g>
		<g id="id1:id3:id3" transform="matrix(1.0,0,0,1.0,3072,0.0)">			<g stroke="white" stroke-width="4" transform="scale(4, 4)"> <rect x="1" y="1" width="255" height="255" fill="white" stroke-width="0"/></g>
</g>
		<g id="id1:id4:id4" transform="matrix(1.0,0,0,1.0,4096,0.0)">			<g stroke="white" stroke-width="4" transform="scale(4, 4)"> <rect x="1" y="1" width="255" height="255" fill="white" stroke-width="0"/></g>
</g>
</g>
</svg>
