<?xml version="1.0" standalone="no"?>
<!DOCTYPE svg PUBLIC "-//W3C//DTD SVG 1.1//EN"
 "http://www.w3.org/Graphics/SVG/1.1/DTD/svg11.dtd">
<!-- generate by Japanese dictionary app com.asnsami.kanjidictionary -->

<svg xmlns="http://www.w3.org/2000/svg" xmlns:sodipodi="http://sodipodi.sourceforge.net/DTD/sodipodi-0.dtd" version="1.1" width="640" height="128" viewBox="0 0 5120 1024">
	<g id="id0:id0" transform="translate(0.0,0)">
		<g id="id0:id0:id0" transform="matrix(1.0,0,0,1.0,0,0.0)">			<g stroke="lightgray" stroke-width="4" transform="scale(4, 4)"> <rect x="0" y="0" width="256" height="256" fill="white" stroke-width="4"/></g>
			<g transform="scale(0.92, -0.92) translate(60, -920)">					<path d="M 528 706 Q 544 736 565 753 Q 574 759 572 772 Q 571 784 556 798 Q 540 814 518 822 Q 493 832 480 829 Q 470 828 472 812 Q 488 707 305 502 Q 293 490 283 479 Q 226 421 86 310 Q 76 304 88 300 Q 172 310 315 441 Q 405 526 512 683 L 528 706 Z" fill="red"></path>
				<path d="M 512 683 Q 714 416 772 395 Q 848 377 966 390 Q 988 391 990 397 Q 993 404 976 413 Q 774 503 745 522 Q 612 622 531 703 L 528 706 C 507 727 494 707 512 683 Z" fill="lightgray"></path>
				<path d="M 384 225 Q 385 226 388 226 Q 575 308 663 337 Q 684 336 682 349 Q 681 368 666 394 Q 651 419 628 429 Q 612 433 607 412 Q 606 396 590 382 Q 517 327 386 248 C 360 232 356 215 384 225 Z" fill="lightgray"></path>
				<path d="M 386 248 Q 390 299 402 354 Q 408 375 394 386 Q 378 402 352 412 Q 337 416 327 411 Q 320 407 325 386 Q 340 340 336 297 Q 326 126 339 79 Q 345 51 372 26 Q 463 -44 663 -16 Q 682 -12 703 -7 Q 752 8 802 41 Q 821 56 809 83 Q 796 114 780 208 Q 780 224 773 230 Q 767 234 762 215 Q 731 115 712 84 Q 694 65 646 52 Q 535 24 441 61 Q 404 79 395 101 Q 379 137 384 225 L 386 248 Z" fill="lightgray"></path>
</g>
		<text x="40" y="140" font-size="128" fill="#999999">1</text></g>
		<g id="id0:id1:id1" transform="matrix(1.0,0,0,1.0,1024,0.0)">			<g stroke="lightgray" stroke-width="4" transform="scale(4, 4)"> <rect x="0" y="0" width="256" height="256" fill="white" stroke-width="4"/></g>
			<g transform="scale(0.92, -0.92) translate(60, -920)">					<path d="M 528 706 Q 544 736 565 753 Q 574 759 572 772 Q 571 784 556 798 Q 540 814 518 822 Q 493 832 480 829 Q 470 828 472 812 Q 488 707 305 502 Q 293 490 283 479 Q 226 421 86 310 Q 76 304 88 300 Q 172 310 315 441 Q 405 526 512 683 L 528 706 Z" fill="black"></path>
				<path d="M 512 683 Q 714 416 772 395 Q 848 377 966 390 Q 988 391 990 397 Q 993 404 976 413 Q 774 503 745 522 Q 612 622 531 703 L 528 706 C 507 727 494 707 512 683 Z" fill="red"></path>
				<path d="M 384 225 Q 385 226 388 226 Q 575 308 663 337 Q 684 336 682 349 Q 681 368 666 394 Q 651 419 628 429 Q 612 433 607 412 Q 606 396 590 382 Q 517 327 386 248 C 360 232 356 215 384 225 Z" fill="lightgray"></path>
				<path d="M 386 248 Q 390 299 402 354 Q 408 375 394 386 Q 378 402 352 412 Q 337 416 327 411 Q 320 407 325 386 Q 340 340 336 297 Q 326 126 339 79 Q 345 51 372 26 Q 463 -44 663 -16 Q 682 -12 703 -7 Q 752 8 802 41 Q 821 56 809 83 Q 796 114 780 208 Q 780 224 773 230 Q 767 234 762 215 Q 731 115 712 84 Q 694 65 646 52 Q 535 24 441 61 Q 404 79 395 101 Q 379 137 384 225 L 386 248 Z" fill="lightgray"></path>
</g>
		<text x="40" y="140" font-size="128" fill="#999999">2</text></g>
		<g id="id0:id2:id2" transform="matrix(1.0,0,0,1.0,2048,0.0)">			<g stroke="lightgray" stroke-width="4" transform="scale(4, 4)"> <rect x="0" y="0" width="256" height="256" fill="white" stroke-width="4"/></g>
			<g transform="scale(0.92, -0.92) translate(60, -920)">					<path d="M 528 706 Q 544 736 565 753 Q 574 759 572 772 Q 571 784 556 798 Q 540 814 518 822 Q 493 832 480 829 Q 470 828 472 812 Q 488 707 305 502 Q 293 490 283 479 Q 226 421 86 310 Q 76 304 88 300 Q 172 310 315 441 Q 405 526 512 683 L 528 706 Z" fill="black"></path>
				<path d="M 512 683 Q 714 416 772 395 Q 848 377 966 390 Q 988 391 990 397 Q 993 404 976 413 Q 774 503 745 522 Q 612 622 531 703 L 528 706 C 507 727 494 707 512 683 Z" fill="black"></path>
				<path d="M 384 225 Q 385 226 388 226 Q 575 308 663 337 Q 684 336 682 349 Q 681 368 666 394 Q 651 419 628 429 Q 612 433 607 412 Q 606 396 590 382 Q 517 327 386 248 C 360 232 356 215 384 225 Z" fill="red"></path>
				<path d="M 386 248 Q 390 299 402 354 Q 408 375 394 386 Q 378 402 352 412 Q 337 416 327 411 Q 320 407 325 386 Q 340 340 336 297 Q 326 126 339 79 Q 345 51 372 26 Q 463 -44 663 -16 Q 682 -12 703 -7 Q 752 8 802 41 Q 821 56 809 83 Q 796 114 780 208 Q 780 224 773 230 Q 767 234 762 215 Q 731 115 712 84 Q 694 65 646 52 Q 535 24 441 61 Q 404 79 395 101 Q 379 137 384 225 L 386 248 Z" fill="lightgray"></path>
</g>
		<text x="40" y="140" font-size="128" fill="#999999">3</text></g>
		<g id="id0:id3:id3" transform="matrix(1.0,0,0,1.0,3072,0.0)">			<g stroke="lightgray" stroke-width="4" transform="scale(4, 4)"> <rect x="0" y="0" width="256" height="256" fill="white" stroke-width="4"/></g>
			<g transform="scale(0.92, -0.92) translate(60, -920)">					<path d="M 528 706 Q 544 736 565 753 Q 574 759 572 772 Q 571 784 556 798 Q 540 814 518 822 Q 493 832 480 829 Q 470 828 472 812 Q 488 707 305 502 Q 293 490 283 479 Q 226 421 86 310 Q 76 304 88 300 Q 172 310 315 441 Q 405 526 512 683 L 528 706 Z" fill="black"></path>
				<path d="M 512 683 Q 714 416 772 395 Q 848 377 966 390 Q 988 391 990 397 Q 993 404 976 413 Q 774 503 745 522 Q 612 622 531 703 L 528 706 C 507 727 494 707 512 683 Z" fill="black"></path>
				<path d="M 384 225 Q 385 226 388 226 Q 575 308 663 337 Q 684 336 682 349 Q 681 368 666 394 Q 651 419 628 429 Q 612 433 607 412 Q 606 396 590 382 Q 517 327 386 248 C 360 232 356 215 384 225 Z" fill="black"></path>
				<path d="M 386 248 Q 390 299 402 354 Q 408 375 394 386 Q 378 402 352 412 Q 337 416 327 411 Q 320 407 325 386 Q 340 340 336 297 Q 326 126 339 79 Q 345 51 372 26 Q 463 -44 663 -16 Q 682 -12 703 -7 Q 752 8 802 41 Q 821 56 809 83 Q 796 114 780 208 Q 780 224 773 230 Q 767 234 762 215 Q 731 115 712 84 Q 694 65 646 52 Q 535 24 441 61 Q 404 79 395 101 Q 379 137 384 225 L 386 248 Z" fill="red"></path>
</g>
		<text x="40" y="140" font-size="128" fill="#999999">4</text></g>
		<g id="id0:id4:id4" transform="matrix(1.0,0,0,1.0,4096,0.0)">			<g stroke="white" stroke-width="4" transform="scale(4, 4)"> <rect x="1" y="1" width="255" height="255" fill="white" stroke-width="0"/></g>
</g>
</g>
</svg>
