<?xml version="1.0" standalone="no"?>
<!DOCTYPE svg PUBLIC "-//W3C//DTD SVG 1.1//EN"
 "http://www.w3.org/Graphics/SVG/1.1/DTD/svg11.dtd">
<!-- generate by Japanese dictionary app com.asnsami.kanjidictionary -->

<svg xmlns="http://www.w3.org/2000/svg" xmlns:sodipodi="http://sodipodi.sourceforge.net/DTD/sodipodi-0.dtd" version="1.1" width="640" height="128" viewBox="0 0 5120 1024">
	<g id="id0:id0" transform="translate(0.0,0)">
		<g id="id0:id0:id0" transform="matrix(1.0,0,0,1.0,0,0.0)">			<g stroke="lightgray" stroke-width="4" transform="scale(4, 4)"> <rect x="0" y="0" width="256" height="256" fill="white" stroke-width="4"/></g>
			<g transform="scale(0.92, -0.92) translate(60, -920)">					<path d="M 251 510 Q 303 577 364 668 Q 395 723 422 749 Q 432 761 428 776 Q 424 789 393 816 Q 365 837 343 837 Q 322 836 331 811 Q 346 774 331 744 Q 256 573 68 358 Q 58 346 54 340 Q 50 327 66 330 Q 105 333 224 478 Q 224 479 225 480 L 251 510 Z" fill="red"></path>
				<path d="M 225 480 Q 249 431 250 353 Q 249 343 249 329 Q 249 226 222 119 Q 212 74 246 23 Q 247 23 249 20 Q 267 4 279 31 Q 294 71 293 118 Q 293 368 301 424 Q 308 451 299 462 Q 259 505 251 510 C 228 530 213 507 225 480 Z" fill="lightgray"></path>
				<path d="M 609 560 Q 681 579 751 589 Q 767 590 772 582 Q 781 563 778 513 Q 768 329 735 230 Q 717 169 698 149 Q 686 136 659 143 Q 622 153 589 165 Q 564 172 581 149 Q 632 97 660 56 Q 670 32 693 40 Q 715 44 741 75 Q 817 159 835 466 Q 839 536 864 577 Q 882 601 871 612 Q 853 631 814 647 Q 786 660 757 646 Q 603 582 442 576 Q 421 577 421 566 Q 420 556 444 540 Q 474 521 501 531 Q 529 541 559 548 L 609 560 Z" fill="lightgray"></path>
				<path d="M 559 548 Q 604 350 341 77 Q 335 70 342 67 Q 349 66 360 71 Q 426 111 478 169 Q 571 263 619 459 Q 628 490 640 522 Q 647 532 640 542 Q 633 549 609 560 C 582 573 553 577 559 548 Z" fill="lightgray"></path>
				<path d="M 445 445 Q 420 399 389 357 Q 368 329 382 296 Q 388 280 408 290 Q 459 321 464 391 Q 471 421 466 444 Q 462 451 457 453 Q 450 452 445 445 Z" fill="lightgray"></path>
</g>
		<text x="40" y="140" font-size="128" fill="#999999">1</text></g>
		<g id="id0:id1:id1" transform="matrix(1.0,0,0,1.0,1024,0.0)">			<g stroke="lightgray" stroke-width="4" transform="scale(4, 4)"> <rect x="0" y="0" width="256" height="256" fill="white" stroke-width="4"/></g>
			<g transform="scale(0.92, -0.92) translate(60, -920)">					<path d="M 251 510 Q 303 577 364 668 Q 395 723 422 749 Q 432 761 428 776 Q 424 789 393 816 Q 365 837 343 837 Q 322 836 331 811 Q 346 774 331 744 Q 256 573 68 358 Q 58 346 54 340 Q 50 327 66 330 Q 105 333 224 478 Q 224 479 225 480 L 251 510 Z" fill="black"></path>
				<path d="M 225 480 Q 249 431 250 353 Q 249 343 249 329 Q 249 226 222 119 Q 212 74 246 23 Q 247 23 249 20 Q 267 4 279 31 Q 294 71 293 118 Q 293 368 301 424 Q 308 451 299 462 Q 259 505 251 510 C 228 530 213 507 225 480 Z" fill="red"></path>
				<path d="M 609 560 Q 681 579 751 589 Q 767 590 772 582 Q 781 563 778 513 Q 768 329 735 230 Q 717 169 698 149 Q 686 136 659 143 Q 622 153 589 165 Q 564 172 581 149 Q 632 97 660 56 Q 670 32 693 40 Q 715 44 741 75 Q 817 159 835 466 Q 839 536 864 577 Q 882 601 871 612 Q 853 631 814 647 Q 786 660 757 646 Q 603 582 442 576 Q 421 577 421 566 Q 420 556 444 540 Q 474 521 501 531 Q 529 541 559 548 L 609 560 Z" fill="lightgray"></path>
				<path d="M 559 548 Q 604 350 341 77 Q 335 70 342 67 Q 349 66 360 71 Q 426 111 478 169 Q 571 263 619 459 Q 628 490 640 522 Q 647 532 640 542 Q 633 549 609 560 C 582 573 553 577 559 548 Z" fill="lightgray"></path>
				<path d="M 445 445 Q 420 399 389 357 Q 368 329 382 296 Q 388 280 408 290 Q 459 321 464 391 Q 471 421 466 444 Q 462 451 457 453 Q 450 452 445 445 Z" fill="lightgray"></path>
</g>
		<text x="40" y="140" font-size="128" fill="#999999">2</text></g>
		<g id="id0:id2:id2" transform="matrix(1.0,0,0,1.0,2048,0.0)">			<g stroke="lightgray" stroke-width="4" transform="scale(4, 4)"> <rect x="0" y="0" width="256" height="256" fill="white" stroke-width="4"/></g>
			<g transform="scale(0.92, -0.92) translate(60, -920)">					<path d="M 251 510 Q 303 577 364 668 Q 395 723 422 749 Q 432 761 428 776 Q 424 789 393 816 Q 365 837 343 837 Q 322 836 331 811 Q 346 774 331 744 Q 256 573 68 358 Q 58 346 54 340 Q 50 327 66 330 Q 105 333 224 478 Q 224 479 225 480 L 251 510 Z" fill="black"></path>
				<path d="M 225 480 Q 249 431 250 353 Q 249 343 249 329 Q 249 226 222 119 Q 212 74 246 23 Q 247 23 249 20 Q 267 4 279 31 Q 294 71 293 118 Q 293 368 301 424 Q 308 451 299 462 Q 259 505 251 510 C 228 530 213 507 225 480 Z" fill="black"></path>
				<path d="M 609 560 Q 681 579 751 589 Q 767 590 772 582 Q 781 563 778 513 Q 768 329 735 230 Q 717 169 698 149 Q 686 136 659 143 Q 622 153 589 165 Q 564 172 581 149 Q 632 97 660 56 Q 670 32 693 40 Q 715 44 741 75 Q 817 159 835 466 Q 839 536 864 577 Q 882 601 871 612 Q 853 631 814 647 Q 786 660 757 646 Q 603 582 442 576 Q 421 577 421 566 Q 420 556 444 540 Q 474 521 501 531 Q 529 541 559 548 L 609 560 Z" fill="red"></path>
				<path d="M 559 548 Q 604 350 341 77 Q 335 70 342 67 Q 349 66 360 71 Q 426 111 478 169 Q 571 263 619 459 Q 628 490 640 522 Q 647 532 640 542 Q 633 549 609 560 C 582 573 553 577 559 548 Z" fill="lightgray"></path>
				<path d="M 445 445 Q 420 399 389 357 Q 368 329 382 296 Q 388 280 408 290 Q 459 321 464 391 Q 471 421 466 444 Q 462 451 457 453 Q 450 452 445 445 Z" fill="lightgray"></path>
</g>
		<text x="40" y="140" font-size="128" fill="#999999">3</text></g>
		<g id="id0:id3:id3" transform="matrix(1.0,0,0,1.0,3072,0.0)">			<g stroke="lightgray" stroke-width="4" transform="scale(4, 4)"> <rect x="0" y="0" width="256" height="256" fill="white" stroke-width="4"/></g>
			<g transform="scale(0.92, -0.92) translate(60, -920)">					<path d="M 251 510 Q 303 577 364 668 Q 395 723 422 749 Q 432 761 428 776 Q 424 789 393 816 Q 365 837 343 837 Q 322 836 331 811 Q 346 774 331 744 Q 256 573 68 358 Q 58 346 54 340 Q 50 327 66 330 Q 105 333 224 478 Q 224 479 225 480 L 251 510 Z" fill="black"></path>
				<path d="M 225 480 Q 249 431 250 353 Q 249 343 249 329 Q 249 226 222 119 Q 212 74 246 23 Q 247 23 249 20 Q 267 4 279 31 Q 294 71 293 118 Q 293 368 301 424 Q 308 451 299 462 Q 259 505 251 510 C 228 530 213 507 225 480 Z" fill="black"></path>
				<path d="M 609 560 Q 681 579 751 589 Q 767 590 772 582 Q 781 563 778 513 Q 768 329 735 230 Q 717 169 698 149 Q 686 136 659 143 Q 622 153 589 165 Q 564 172 581 149 Q 632 97 660 56 Q 670 32 693 40 Q 715 44 741 75 Q 817 159 835 466 Q 839 536 864 577 Q 882 601 871 612 Q 853 631 814 647 Q 786 660 757 646 Q 603 582 442 576 Q 421 577 421 566 Q 420 556 444 540 Q 474 521 501 531 Q 529 541 559 548 L 609 560 Z" fill="black"></path>
				<path d="M 559 548 Q 604 350 341 77 Q 335 70 342 67 Q 349 66 360 71 Q 426 111 478 169 Q 571 263 619 459 Q 628 490 640 522 Q 647 532 640 542 Q 633 549 609 560 C 582 573 553 577 559 548 Z" fill="red"></path>
				<path d="M 445 445 Q 420 399 389 357 Q 368 329 382 296 Q 388 280 408 290 Q 459 321 464 391 Q 471 421 466 444 Q 462 451 457 453 Q 450 452 445 445 Z" fill="lightgray"></path>
</g>
		<text x="40" y="140" font-size="128" fill="#999999">4</text></g>
		<g id="id0:id4:id4" transform="matrix(1.0,0,0,1.0,4096,0.0)">			<g stroke="lightgray" stroke-width="4" transform="scale(4, 4)"> <rect x="0" y="0" width="256" height="256" fill="white" stroke-width="4"/></g>
			<g transform="scale(0.92, -0.92) translate(60, -920)">					<path d="M 251 510 Q 303 577 364 668 Q 395 723 422 749 Q 432 761 428 776 Q 424 789 393 816 Q 365 837 343 837 Q 322 836 331 811 Q 346 774 331 744 Q 256 573 68 358 Q 58 346 54 340 Q 50 327 66 330 Q 105 333 224 478 Q 224 479 225 480 L 251 510 Z" fill="black"></path>
				<path d="M 225 480 Q 249 431 250 353 Q 249 343 249 329 Q 249 226 222 119 Q 212 74 246 23 Q 247 23 249 20 Q 267 4 279 31 Q 294 71 293 118 Q 293 368 301 424 Q 308 451 299 462 Q 259 505 251 510 C 228 530 213 507 225 480 Z" fill="black"></path>
				<path d="M 609 560 Q 681 579 751 589 Q 767 590 772 582 Q 781 563 778 513 Q 768 329 735 230 Q 717 169 698 149 Q 686 136 659 143 Q 622 153 589 165 Q 564 172 581 149 Q 632 97 660 56 Q 670 32 693 40 Q 715 44 741 75 Q 817 159 835 466 Q 839 536 864 577 Q 882 601 871 612 Q 853 631 814 647 Q 786 660 757 646 Q 603 582 442 576 Q 421 577 421 566 Q 420 556 444 540 Q 474 521 501 531 Q 529 541 559 548 L 609 560 Z" fill="black"></path>
				<path d="M 559 548 Q 604 350 341 77 Q 335 70 342 67 Q 349 66 360 71 Q 426 111 478 169 Q 571 263 619 459 Q 628 490 640 522 Q 647 532 640 542 Q 633 549 609 560 C 582 573 553 577 559 548 Z" fill="black"></path>
				<path d="M 445 445 Q 420 399 389 357 Q 368 329 382 296 Q 388 280 408 290 Q 459 321 464 391 Q 471 421 466 444 Q 462 451 457 453 Q 450 452 445 445 Z" fill="red"></path>
</g>
		<text x="40" y="140" font-size="128" fill="#999999">5</text></g>
</g>
</svg>
