<?xml version="1.0" standalone="no"?>
<!DOCTYPE svg PUBLIC "-//W3C//DTD SVG 1.1//EN"
 "http://www.w3.org/Graphics/SVG/1.1/DTD/svg11.dtd">
<!-- generate by Handict dictionary app com.asnsami.handict -->

<svg xmlns="http://www.w3.org/2000/svg" xmlns:sodipodi="http://sodipodi.sourceforge.net/DTD/sodipodi-0.dtd" version="1.1" width="640" height="128" viewBox="0 0 5120 1024">
	<g id="id0:id0" transform="translate(0.0,0)">
		<g id="id0:id0:id0" transform="matrix(1.0,0,0,1.0,0,0.0)">			<g stroke="lightgray" stroke-width="4" transform="scale(4, 4)"> <rect x="0" y="0" width="256" height="256" fill="white" stroke-width="4"/></g>
			<g transform="scale(0.92, -0.92) translate(60, -920)">					<path d="M 507 728 Q 519 752 540 773 Q 549 779 547 790 Q 546 802 532 815 Q 493 851 459 843 Q 449 842 452 827 Q 470 718 287 513 Q 275 503 265 490 Q 210 430 70 317 Q 60 311 72 308 Q 156 320 315 472 Q 408 580 493 706 L 507 728 Z" fill="red"></path>
				<path d="M 493 706 Q 602 559 744 406 Q 766 381 804 383 Q 931 389 971 396 Q 983 399 984 405 Q 984 412 967 419 Q 799 473 735 520 Q 629 605 507 728 C 486 749 475 730 493 706 Z" fill="lightgray"></path>
				<path d="M 418 462 Q 470 405 504 390 Q 517 387 527 401 Q 533 413 530 429 Q 518 474 432 498 Q 431 499 430 499 Q 414 503 405 500 Q 399 499 402 487 Q 403 475 418 462 Z" fill="lightgray"></path>
				<path d="M 509 101 Q 656 258 691 275 Q 713 282 705 302 Q 701 320 625 359 Q 603 369 577 360 Q 496 333 375 304 Q 344 294 267 300 Q 240 301 250 278 Q 257 263 279 250 Q 313 229 353 251 Q 384 261 547 308 Q 566 312 580 302 Q 596 290 586 273 Q 543 200 493 112 C 478 86 488 79 509 101 Z" fill="lightgray"></path>
				<path d="M 493 112 Q 411 161 399 167 Q 390 174 387 160 Q 384 147 395 134 Q 446 76 505 -7 Q 520 -31 535 -37 Q 544 -38 553 -29 Q 568 -17 560 30 Q 556 72 509 101 L 493 112 Z" fill="lightgray"></path>
</g>
		<text x="40" y="140" font-size="128" fill="#999999">1</text></g>
		<g id="id0:id1:id1" transform="matrix(1.0,0,0,1.0,1024,0.0)">			<g stroke="lightgray" stroke-width="4" transform="scale(4, 4)"> <rect x="0" y="0" width="256" height="256" fill="white" stroke-width="4"/></g>
			<g transform="scale(0.92, -0.92) translate(60, -920)">					<path d="M 507 728 Q 519 752 540 773 Q 549 779 547 790 Q 546 802 532 815 Q 493 851 459 843 Q 449 842 452 827 Q 470 718 287 513 Q 275 503 265 490 Q 210 430 70 317 Q 60 311 72 308 Q 156 320 315 472 Q 408 580 493 706 L 507 728 Z" fill="black"></path>
				<path d="M 493 706 Q 602 559 744 406 Q 766 381 804 383 Q 931 389 971 396 Q 983 399 984 405 Q 984 412 967 419 Q 799 473 735 520 Q 629 605 507 728 C 486 749 475 730 493 706 Z" fill="red"></path>
				<path d="M 418 462 Q 470 405 504 390 Q 517 387 527 401 Q 533 413 530 429 Q 518 474 432 498 Q 431 499 430 499 Q 414 503 405 500 Q 399 499 402 487 Q 403 475 418 462 Z" fill="lightgray"></path>
				<path d="M 509 101 Q 656 258 691 275 Q 713 282 705 302 Q 701 320 625 359 Q 603 369 577 360 Q 496 333 375 304 Q 344 294 267 300 Q 240 301 250 278 Q 257 263 279 250 Q 313 229 353 251 Q 384 261 547 308 Q 566 312 580 302 Q 596 290 586 273 Q 543 200 493 112 C 478 86 488 79 509 101 Z" fill="lightgray"></path>
				<path d="M 493 112 Q 411 161 399 167 Q 390 174 387 160 Q 384 147 395 134 Q 446 76 505 -7 Q 520 -31 535 -37 Q 544 -38 553 -29 Q 568 -17 560 30 Q 556 72 509 101 L 493 112 Z" fill="lightgray"></path>
</g>
		<text x="40" y="140" font-size="128" fill="#999999">2</text></g>
		<g id="id0:id2:id2" transform="matrix(1.0,0,0,1.0,2048,0.0)">			<g stroke="lightgray" stroke-width="4" transform="scale(4, 4)"> <rect x="0" y="0" width="256" height="256" fill="white" stroke-width="4"/></g>
			<g transform="scale(0.92, -0.92) translate(60, -920)">					<path d="M 507 728 Q 519 752 540 773 Q 549 779 547 790 Q 546 802 532 815 Q 493 851 459 843 Q 449 842 452 827 Q 470 718 287 513 Q 275 503 265 490 Q 210 430 70 317 Q 60 311 72 308 Q 156 320 315 472 Q 408 580 493 706 L 507 728 Z" fill="black"></path>
				<path d="M 493 706 Q 602 559 744 406 Q 766 381 804 383 Q 931 389 971 396 Q 983 399 984 405 Q 984 412 967 419 Q 799 473 735 520 Q 629 605 507 728 C 486 749 475 730 493 706 Z" fill="black"></path>
				<path d="M 418 462 Q 470 405 504 390 Q 517 387 527 401 Q 533 413 530 429 Q 518 474 432 498 Q 431 499 430 499 Q 414 503 405 500 Q 399 499 402 487 Q 403 475 418 462 Z" fill="red"></path>
				<path d="M 509 101 Q 656 258 691 275 Q 713 282 705 302 Q 701 320 625 359 Q 603 369 577 360 Q 496 333 375 304 Q 344 294 267 300 Q 240 301 250 278 Q 257 263 279 250 Q 313 229 353 251 Q 384 261 547 308 Q 566 312 580 302 Q 596 290 586 273 Q 543 200 493 112 C 478 86 488 79 509 101 Z" fill="lightgray"></path>
				<path d="M 493 112 Q 411 161 399 167 Q 390 174 387 160 Q 384 147 395 134 Q 446 76 505 -7 Q 520 -31 535 -37 Q 544 -38 553 -29 Q 568 -17 560 30 Q 556 72 509 101 L 493 112 Z" fill="lightgray"></path>
</g>
		<text x="40" y="140" font-size="128" fill="#999999">3</text></g>
		<g id="id0:id3:id3" transform="matrix(1.0,0,0,1.0,3072,0.0)">			<g stroke="lightgray" stroke-width="4" transform="scale(4, 4)"> <rect x="0" y="0" width="256" height="256" fill="white" stroke-width="4"/></g>
			<g transform="scale(0.92, -0.92) translate(60, -920)">					<path d="M 507 728 Q 519 752 540 773 Q 549 779 547 790 Q 546 802 532 815 Q 493 851 459 843 Q 449 842 452 827 Q 470 718 287 513 Q 275 503 265 490 Q 210 430 70 317 Q 60 311 72 308 Q 156 320 315 472 Q 408 580 493 706 L 507 728 Z" fill="black"></path>
				<path d="M 493 706 Q 602 559 744 406 Q 766 381 804 383 Q 931 389 971 396 Q 983 399 984 405 Q 984 412 967 419 Q 799 473 735 520 Q 629 605 507 728 C 486 749 475 730 493 706 Z" fill="black"></path>
				<path d="M 418 462 Q 470 405 504 390 Q 517 387 527 401 Q 533 413 530 429 Q 518 474 432 498 Q 431 499 430 499 Q 414 503 405 500 Q 399 499 402 487 Q 403 475 418 462 Z" fill="black"></path>
				<path d="M 509 101 Q 656 258 691 275 Q 713 282 705 302 Q 701 320 625 359 Q 603 369 577 360 Q 496 333 375 304 Q 344 294 267 300 Q 240 301 250 278 Q 257 263 279 250 Q 313 229 353 251 Q 384 261 547 308 Q 566 312 580 302 Q 596 290 586 273 Q 543 200 493 112 C 478 86 488 79 509 101 Z" fill="red"></path>
				<path d="M 493 112 Q 411 161 399 167 Q 390 174 387 160 Q 384 147 395 134 Q 446 76 505 -7 Q 520 -31 535 -37 Q 544 -38 553 -29 Q 568 -17 560 30 Q 556 72 509 101 L 493 112 Z" fill="lightgray"></path>
</g>
		<text x="40" y="140" font-size="128" fill="#999999">4</text></g>
		<g id="id0:id4:id4" transform="matrix(1.0,0,0,1.0,4096,0.0)">			<g stroke="lightgray" stroke-width="4" transform="scale(4, 4)"> <rect x="0" y="0" width="256" height="256" fill="white" stroke-width="4"/></g>
			<g transform="scale(0.92, -0.92) translate(60, -920)">					<path d="M 507 728 Q 519 752 540 773 Q 549 779 547 790 Q 546 802 532 815 Q 493 851 459 843 Q 449 842 452 827 Q 470 718 287 513 Q 275 503 265 490 Q 210 430 70 317 Q 60 311 72 308 Q 156 320 315 472 Q 408 580 493 706 L 507 728 Z" fill="black"></path>
				<path d="M 493 706 Q 602 559 744 406 Q 766 381 804 383 Q 931 389 971 396 Q 983 399 984 405 Q 984 412 967 419 Q 799 473 735 520 Q 629 605 507 728 C 486 749 475 730 493 706 Z" fill="black"></path>
				<path d="M 418 462 Q 470 405 504 390 Q 517 387 527 401 Q 533 413 530 429 Q 518 474 432 498 Q 431 499 430 499 Q 414 503 405 500 Q 399 499 402 487 Q 403 475 418 462 Z" fill="black"></path>
				<path d="M 509 101 Q 656 258 691 275 Q 713 282 705 302 Q 701 320 625 359 Q 603 369 577 360 Q 496 333 375 304 Q 344 294 267 300 Q 240 301 250 278 Q 257 263 279 250 Q 313 229 353 251 Q 384 261 547 308 Q 566 312 580 302 Q 596 290 586 273 Q 543 200 493 112 C 478 86 488 79 509 101 Z" fill="black"></path>
				<path d="M 493 112 Q 411 161 399 167 Q 390 174 387 160 Q 384 147 395 134 Q 446 76 505 -7 Q 520 -31 535 -37 Q 544 -38 553 -29 Q 568 -17 560 30 Q 556 72 509 101 L 493 112 Z" fill="red"></path>
</g>
		<text x="40" y="140" font-size="128" fill="#999999">5</text></g>
</g>
</svg>
