<?xml version="1.0" standalone="no"?>
<!DOCTYPE svg PUBLIC "-//W3C//DTD SVG 1.1//EN"
 "http://www.w3.org/Graphics/SVG/1.1/DTD/svg11.dtd">
<!-- generate by Handict dictionary app com.asnsami.handict -->

<svg xmlns="http://www.w3.org/2000/svg" xmlns:sodipodi="http://sodipodi.sourceforge.net/DTD/sodipodi-0.dtd" version="1.1" width="640" height="256" viewBox="0 0 5120 2048">
	<g id="id0:id0" transform="translate(0.0,0)">
		<g id="id0:id0:id0" transform="matrix(1.0,0,0,1.0,0,0.0)">			<g stroke="lightgray" stroke-width="4" transform="scale(4, 4)"> <rect x="0" y="0" width="256" height="256" fill="white" stroke-width="4"/></g>
			<g transform="scale(0.92, -0.92) translate(60, -920)">					<path d="M 287 544 Q 321 593 358 652 Q 386 704 412 730 Q 422 742 417 756 Q 413 771 381 795 Q 351 816 331 815 Q 310 814 319 789 Q 335 755 321 726 Q 282 629 222 537 Q 164 450 83 354 Q 73 342 70 336 Q 66 323 82 326 Q 128 338 257 504 L 287 544 Z" fill="red"></path>
				<path d="M 257 504 Q 256 504 257 503 Q 287 433 264 239 Q 257 182 241 123 Q 226 74 263 26 Q 264 23 268 20 Q 287 4 299 32 Q 314 74 314 122 Q 315 402 326 465 Q 333 495 307 523 Q 301 529 287 544 C 266 566 247 532 257 504 Z" fill="lightgray"></path>
				<path d="M 572 526 Q 599 562 674 674 Q 689 699 710 718 Q 729 737 711 752 Q 690 765 658 771 Q 627 777 615 769 Q 602 762 611 750 Q 626 723 563 568 Q 553 546 543 522 C 531 494 554 502 572 526 Z" fill="lightgray"></path>
				<path d="M 502 517 Q 480 533 455 542 Q 448 545 442 540 Q 432 534 442 521 Q 493 410 478 166 Q 475 94 514 64 L 516 63 Q 534 56 538 89 Q 538 90 538 93 L 539 130 Q 536 166 528 297 Q 527 298 527 299 L 526 332 Q 525 411 527 476 Q 527 480 527 483 C 527 500 527 500 502 517 Z" fill="lightgray"></path>
				<path d="M 722 110 Q 735 82 769 29 Q 779 10 791 13 Q 809 17 816 47 Q 853 138 847 258 Q 848 333 848 419 Q 852 468 875 500 Q 891 522 879 535 Q 855 557 807 577 Q 786 589 707 557 Q 655 542 572 526 L 543 522 Q 524 521 502 517 C 472 513 498 475 527 483 Q 537 489 734 525 Q 755 529 765 519 Q 778 500 781 479 Q 791 322 773 165 Q 772 137 761 134 Q 758 133 747 135 C 719 124 715 123 722 110 Z" fill="lightgray"></path>
				<path d="M 527 299 Q 561 293 702 316 Q 727 320 730 325 Q 739 332 735 340 Q 728 352 700 359 Q 672 366 641 354 Q 614 347 585 340 Q 557 336 526 332 C 496 328 497 303 527 299 Z" fill="lightgray"></path>
				<path d="M 538 93 Q 545 93 554 94 Q 609 104 722 110 C 752 112 769 115 747 135 Q 740 142 724 153 Q 706 163 674 155 Q 598 139 539 130 C 509 125 508 92 538 93 Z" fill="lightgray"></path>
</g>
		<text x="40" y="140" font-size="128" fill="#999999">1</text></g>
		<g id="id0:id1:id1" transform="matrix(1.0,0,0,1.0,1024,0.0)">			<g stroke="lightgray" stroke-width="4" transform="scale(4, 4)"> <rect x="0" y="0" width="256" height="256" fill="white" stroke-width="4"/></g>
			<g transform="scale(0.92, -0.92) translate(60, -920)">					<path d="M 287 544 Q 321 593 358 652 Q 386 704 412 730 Q 422 742 417 756 Q 413 771 381 795 Q 351 816 331 815 Q 310 814 319 789 Q 335 755 321 726 Q 282 629 222 537 Q 164 450 83 354 Q 73 342 70 336 Q 66 323 82 326 Q 128 338 257 504 L 287 544 Z" fill="black"></path>
				<path d="M 257 504 Q 256 504 257 503 Q 287 433 264 239 Q 257 182 241 123 Q 226 74 263 26 Q 264 23 268 20 Q 287 4 299 32 Q 314 74 314 122 Q 315 402 326 465 Q 333 495 307 523 Q 301 529 287 544 C 266 566 247 532 257 504 Z" fill="red"></path>
				<path d="M 572 526 Q 599 562 674 674 Q 689 699 710 718 Q 729 737 711 752 Q 690 765 658 771 Q 627 777 615 769 Q 602 762 611 750 Q 626 723 563 568 Q 553 546 543 522 C 531 494 554 502 572 526 Z" fill="lightgray"></path>
				<path d="M 502 517 Q 480 533 455 542 Q 448 545 442 540 Q 432 534 442 521 Q 493 410 478 166 Q 475 94 514 64 L 516 63 Q 534 56 538 89 Q 538 90 538 93 L 539 130 Q 536 166 528 297 Q 527 298 527 299 L 526 332 Q 525 411 527 476 Q 527 480 527 483 C 527 500 527 500 502 517 Z" fill="lightgray"></path>
				<path d="M 722 110 Q 735 82 769 29 Q 779 10 791 13 Q 809 17 816 47 Q 853 138 847 258 Q 848 333 848 419 Q 852 468 875 500 Q 891 522 879 535 Q 855 557 807 577 Q 786 589 707 557 Q 655 542 572 526 L 543 522 Q 524 521 502 517 C 472 513 498 475 527 483 Q 537 489 734 525 Q 755 529 765 519 Q 778 500 781 479 Q 791 322 773 165 Q 772 137 761 134 Q 758 133 747 135 C 719 124 715 123 722 110 Z" fill="lightgray"></path>
				<path d="M 527 299 Q 561 293 702 316 Q 727 320 730 325 Q 739 332 735 340 Q 728 352 700 359 Q 672 366 641 354 Q 614 347 585 340 Q 557 336 526 332 C 496 328 497 303 527 299 Z" fill="lightgray"></path>
				<path d="M 538 93 Q 545 93 554 94 Q 609 104 722 110 C 752 112 769 115 747 135 Q 740 142 724 153 Q 706 163 674 155 Q 598 139 539 130 C 509 125 508 92 538 93 Z" fill="lightgray"></path>
</g>
		<text x="40" y="140" font-size="128" fill="#999999">2</text></g>
		<g id="id0:id2:id2" transform="matrix(1.0,0,0,1.0,2048,0.0)">			<g stroke="lightgray" stroke-width="4" transform="scale(4, 4)"> <rect x="0" y="0" width="256" height="256" fill="white" stroke-width="4"/></g>
			<g transform="scale(0.92, -0.92) translate(60, -920)">					<path d="M 287 544 Q 321 593 358 652 Q 386 704 412 730 Q 422 742 417 756 Q 413 771 381 795 Q 351 816 331 815 Q 310 814 319 789 Q 335 755 321 726 Q 282 629 222 537 Q 164 450 83 354 Q 73 342 70 336 Q 66 323 82 326 Q 128 338 257 504 L 287 544 Z" fill="black"></path>
				<path d="M 257 504 Q 256 504 257 503 Q 287 433 264 239 Q 257 182 241 123 Q 226 74 263 26 Q 264 23 268 20 Q 287 4 299 32 Q 314 74 314 122 Q 315 402 326 465 Q 333 495 307 523 Q 301 529 287 544 C 266 566 247 532 257 504 Z" fill="black"></path>
				<path d="M 572 526 Q 599 562 674 674 Q 689 699 710 718 Q 729 737 711 752 Q 690 765 658 771 Q 627 777 615 769 Q 602 762 611 750 Q 626 723 563 568 Q 553 546 543 522 C 531 494 554 502 572 526 Z" fill="red"></path>
				<path d="M 502 517 Q 480 533 455 542 Q 448 545 442 540 Q 432 534 442 521 Q 493 410 478 166 Q 475 94 514 64 L 516 63 Q 534 56 538 89 Q 538 90 538 93 L 539 130 Q 536 166 528 297 Q 527 298 527 299 L 526 332 Q 525 411 527 476 Q 527 480 527 483 C 527 500 527 500 502 517 Z" fill="lightgray"></path>
				<path d="M 722 110 Q 735 82 769 29 Q 779 10 791 13 Q 809 17 816 47 Q 853 138 847 258 Q 848 333 848 419 Q 852 468 875 500 Q 891 522 879 535 Q 855 557 807 577 Q 786 589 707 557 Q 655 542 572 526 L 543 522 Q 524 521 502 517 C 472 513 498 475 527 483 Q 537 489 734 525 Q 755 529 765 519 Q 778 500 781 479 Q 791 322 773 165 Q 772 137 761 134 Q 758 133 747 135 C 719 124 715 123 722 110 Z" fill="lightgray"></path>
				<path d="M 527 299 Q 561 293 702 316 Q 727 320 730 325 Q 739 332 735 340 Q 728 352 700 359 Q 672 366 641 354 Q 614 347 585 340 Q 557 336 526 332 C 496 328 497 303 527 299 Z" fill="lightgray"></path>
				<path d="M 538 93 Q 545 93 554 94 Q 609 104 722 110 C 752 112 769 115 747 135 Q 740 142 724 153 Q 706 163 674 155 Q 598 139 539 130 C 509 125 508 92 538 93 Z" fill="lightgray"></path>
</g>
		<text x="40" y="140" font-size="128" fill="#999999">3</text></g>
		<g id="id0:id3:id3" transform="matrix(1.0,0,0,1.0,3072,0.0)">			<g stroke="lightgray" stroke-width="4" transform="scale(4, 4)"> <rect x="0" y="0" width="256" height="256" fill="white" stroke-width="4"/></g>
			<g transform="scale(0.92, -0.92) translate(60, -920)">					<path d="M 287 544 Q 321 593 358 652 Q 386 704 412 730 Q 422 742 417 756 Q 413 771 381 795 Q 351 816 331 815 Q 310 814 319 789 Q 335 755 321 726 Q 282 629 222 537 Q 164 450 83 354 Q 73 342 70 336 Q 66 323 82 326 Q 128 338 257 504 L 287 544 Z" fill="black"></path>
				<path d="M 257 504 Q 256 504 257 503 Q 287 433 264 239 Q 257 182 241 123 Q 226 74 263 26 Q 264 23 268 20 Q 287 4 299 32 Q 314 74 314 122 Q 315 402 326 465 Q 333 495 307 523 Q 301 529 287 544 C 266 566 247 532 257 504 Z" fill="black"></path>
				<path d="M 572 526 Q 599 562 674 674 Q 689 699 710 718 Q 729 737 711 752 Q 690 765 658 771 Q 627 777 615 769 Q 602 762 611 750 Q 626 723 563 568 Q 553 546 543 522 C 531 494 554 502 572 526 Z" fill="black"></path>
				<path d="M 502 517 Q 480 533 455 542 Q 448 545 442 540 Q 432 534 442 521 Q 493 410 478 166 Q 475 94 514 64 L 516 63 Q 534 56 538 89 Q 538 90 538 93 L 539 130 Q 536 166 528 297 Q 527 298 527 299 L 526 332 Q 525 411 527 476 Q 527 480 527 483 C 527 500 527 500 502 517 Z" fill="red"></path>
				<path d="M 722 110 Q 735 82 769 29 Q 779 10 791 13 Q 809 17 816 47 Q 853 138 847 258 Q 848 333 848 419 Q 852 468 875 500 Q 891 522 879 535 Q 855 557 807 577 Q 786 589 707 557 Q 655 542 572 526 L 543 522 Q 524 521 502 517 C 472 513 498 475 527 483 Q 537 489 734 525 Q 755 529 765 519 Q 778 500 781 479 Q 791 322 773 165 Q 772 137 761 134 Q 758 133 747 135 C 719 124 715 123 722 110 Z" fill="lightgray"></path>
				<path d="M 527 299 Q 561 293 702 316 Q 727 320 730 325 Q 739 332 735 340 Q 728 352 700 359 Q 672 366 641 354 Q 614 347 585 340 Q 557 336 526 332 C 496 328 497 303 527 299 Z" fill="lightgray"></path>
				<path d="M 538 93 Q 545 93 554 94 Q 609 104 722 110 C 752 112 769 115 747 135 Q 740 142 724 153 Q 706 163 674 155 Q 598 139 539 130 C 509 125 508 92 538 93 Z" fill="lightgray"></path>
</g>
		<text x="40" y="140" font-size="128" fill="#999999">4</text></g>
		<g id="id0:id4:id4" transform="matrix(1.0,0,0,1.0,4096,0.0)">			<g stroke="lightgray" stroke-width="4" transform="scale(4, 4)"> <rect x="0" y="0" width="256" height="256" fill="white" stroke-width="4"/></g>
			<g transform="scale(0.92, -0.92) translate(60, -920)">					<path d="M 287 544 Q 321 593 358 652 Q 386 704 412 730 Q 422 742 417 756 Q 413 771 381 795 Q 351 816 331 815 Q 310 814 319 789 Q 335 755 321 726 Q 282 629 222 537 Q 164 450 83 354 Q 73 342 70 336 Q 66 323 82 326 Q 128 338 257 504 L 287 544 Z" fill="black"></path>
				<path d="M 257 504 Q 256 504 257 503 Q 287 433 264 239 Q 257 182 241 123 Q 226 74 263 26 Q 264 23 268 20 Q 287 4 299 32 Q 314 74 314 122 Q 315 402 326 465 Q 333 495 307 523 Q 301 529 287 544 C 266 566 247 532 257 504 Z" fill="black"></path>
				<path d="M 572 526 Q 599 562 674 674 Q 689 699 710 718 Q 729 737 711 752 Q 690 765 658 771 Q 627 777 615 769 Q 602 762 611 750 Q 626 723 563 568 Q 553 546 543 522 C 531 494 554 502 572 526 Z" fill="black"></path>
				<path d="M 502 517 Q 480 533 455 542 Q 448 545 442 540 Q 432 534 442 521 Q 493 410 478 166 Q 475 94 514 64 L 516 63 Q 534 56 538 89 Q 538 90 538 93 L 539 130 Q 536 166 528 297 Q 527 298 527 299 L 526 332 Q 525 411 527 476 Q 527 480 527 483 C 527 500 527 500 502 517 Z" fill="black"></path>
				<path d="M 722 110 Q 735 82 769 29 Q 779 10 791 13 Q 809 17 816 47 Q 853 138 847 258 Q 848 333 848 419 Q 852 468 875 500 Q 891 522 879 535 Q 855 557 807 577 Q 786 589 707 557 Q 655 542 572 526 L 543 522 Q 524 521 502 517 C 472 513 498 475 527 483 Q 537 489 734 525 Q 755 529 765 519 Q 778 500 781 479 Q 791 322 773 165 Q 772 137 761 134 Q 758 133 747 135 C 719 124 715 123 722 110 Z" fill="red"></path>
				<path d="M 527 299 Q 561 293 702 316 Q 727 320 730 325 Q 739 332 735 340 Q 728 352 700 359 Q 672 366 641 354 Q 614 347 585 340 Q 557 336 526 332 C 496 328 497 303 527 299 Z" fill="lightgray"></path>
				<path d="M 538 93 Q 545 93 554 94 Q 609 104 722 110 C 752 112 769 115 747 135 Q 740 142 724 153 Q 706 163 674 155 Q 598 139 539 130 C 509 125 508 92 538 93 Z" fill="lightgray"></path>
</g>
		<text x="40" y="140" font-size="128" fill="#999999">5</text></g>
</g>
	<g id="id1:id1" transform="translate(0.0,1024)">
		<g id="id1:id0:id0" transform="matrix(1.0,0,0,1.0,0,0.0)">			<g stroke="lightgray" stroke-width="4" transform="scale(4, 4)"> <rect x="0" y="0" width="256" height="256" fill="white" stroke-width="4"/></g>
			<g transform="scale(0.92, -0.92) translate(60, -920)">					<path d="M 287 544 Q 321 593 358 652 Q 386 704 412 730 Q 422 742 417 756 Q 413 771 381 795 Q 351 816 331 815 Q 310 814 319 789 Q 335 755 321 726 Q 282 629 222 537 Q 164 450 83 354 Q 73 342 70 336 Q 66 323 82 326 Q 128 338 257 504 L 287 544 Z" fill="black"></path>
				<path d="M 257 504 Q 256 504 257 503 Q 287 433 264 239 Q 257 182 241 123 Q 226 74 263 26 Q 264 23 268 20 Q 287 4 299 32 Q 314 74 314 122 Q 315 402 326 465 Q 333 495 307 523 Q 301 529 287 544 C 266 566 247 532 257 504 Z" fill="black"></path>
				<path d="M 572 526 Q 599 562 674 674 Q 689 699 710 718 Q 729 737 711 752 Q 690 765 658 771 Q 627 777 615 769 Q 602 762 611 750 Q 626 723 563 568 Q 553 546 543 522 C 531 494 554 502 572 526 Z" fill="black"></path>
				<path d="M 502 517 Q 480 533 455 542 Q 448 545 442 540 Q 432 534 442 521 Q 493 410 478 166 Q 475 94 514 64 L 516 63 Q 534 56 538 89 Q 538 90 538 93 L 539 130 Q 536 166 528 297 Q 527 298 527 299 L 526 332 Q 525 411 527 476 Q 527 480 527 483 C 527 500 527 500 502 517 Z" fill="black"></path>
				<path d="M 722 110 Q 735 82 769 29 Q 779 10 791 13 Q 809 17 816 47 Q 853 138 847 258 Q 848 333 848 419 Q 852 468 875 500 Q 891 522 879 535 Q 855 557 807 577 Q 786 589 707 557 Q 655 542 572 526 L 543 522 Q 524 521 502 517 C 472 513 498 475 527 483 Q 537 489 734 525 Q 755 529 765 519 Q 778 500 781 479 Q 791 322 773 165 Q 772 137 761 134 Q 758 133 747 135 C 719 124 715 123 722 110 Z" fill="black"></path>
				<path d="M 527 299 Q 561 293 702 316 Q 727 320 730 325 Q 739 332 735 340 Q 728 352 700 359 Q 672 366 641 354 Q 614 347 585 340 Q 557 336 526 332 C 496 328 497 303 527 299 Z" fill="red"></path>
				<path d="M 538 93 Q 545 93 554 94 Q 609 104 722 110 C 752 112 769 115 747 135 Q 740 142 724 153 Q 706 163 674 155 Q 598 139 539 130 C 509 125 508 92 538 93 Z" fill="lightgray"></path>
</g>
		<text x="40" y="140" font-size="128" fill="#999999">6</text></g>
		<g id="id1:id1:id1" transform="matrix(1.0,0,0,1.0,1024,0.0)">			<g stroke="lightgray" stroke-width="4" transform="scale(4, 4)"> <rect x="0" y="0" width="256" height="256" fill="white" stroke-width="4"/></g>
			<g transform="scale(0.92, -0.92) translate(60, -920)">					<path d="M 287 544 Q 321 593 358 652 Q 386 704 412 730 Q 422 742 417 756 Q 413 771 381 795 Q 351 816 331 815 Q 310 814 319 789 Q 335 755 321 726 Q 282 629 222 537 Q 164 450 83 354 Q 73 342 70 336 Q 66 323 82 326 Q 128 338 257 504 L 287 544 Z" fill="black"></path>
				<path d="M 257 504 Q 256 504 257 503 Q 287 433 264 239 Q 257 182 241 123 Q 226 74 263 26 Q 264 23 268 20 Q 287 4 299 32 Q 314 74 314 122 Q 315 402 326 465 Q 333 495 307 523 Q 301 529 287 544 C 266 566 247 532 257 504 Z" fill="black"></path>
				<path d="M 572 526 Q 599 562 674 674 Q 689 699 710 718 Q 729 737 711 752 Q 690 765 658 771 Q 627 777 615 769 Q 602 762 611 750 Q 626 723 563 568 Q 553 546 543 522 C 531 494 554 502 572 526 Z" fill="black"></path>
				<path d="M 502 517 Q 480 533 455 542 Q 448 545 442 540 Q 432 534 442 521 Q 493 410 478 166 Q 475 94 514 64 L 516 63 Q 534 56 538 89 Q 538 90 538 93 L 539 130 Q 536 166 528 297 Q 527 298 527 299 L 526 332 Q 525 411 527 476 Q 527 480 527 483 C 527 500 527 500 502 517 Z" fill="black"></path>
				<path d="M 722 110 Q 735 82 769 29 Q 779 10 791 13 Q 809 17 816 47 Q 853 138 847 258 Q 848 333 848 419 Q 852 468 875 500 Q 891 522 879 535 Q 855 557 807 577 Q 786 589 707 557 Q 655 542 572 526 L 543 522 Q 524 521 502 517 C 472 513 498 475 527 483 Q 537 489 734 525 Q 755 529 765 519 Q 778 500 781 479 Q 791 322 773 165 Q 772 137 761 134 Q 758 133 747 135 C 719 124 715 123 722 110 Z" fill="black"></path>
				<path d="M 527 299 Q 561 293 702 316 Q 727 320 730 325 Q 739 332 735 340 Q 728 352 700 359 Q 672 366 641 354 Q 614 347 585 340 Q 557 336 526 332 C 496 328 497 303 527 299 Z" fill="black"></path>
				<path d="M 538 93 Q 545 93 554 94 Q 609 104 722 110 C 752 112 769 115 747 135 Q 740 142 724 153 Q 706 163 674 155 Q 598 139 539 130 C 509 125 508 92 538 93 Z" fill="red"></path>
</g>
		<text x="40" y="140" font-size="128" fill="#999999">7</text></g>
		<g id="id1:id2:id2" transform="matrix(1.0,0,0,1.0,2048,0.0)">			<g stroke="white" stroke-width="4" transform="scale(4, 4)"> <rect x="1" y="1" width="255" height="255" fill="white" stroke-width="0"/></g>
</g>
		<g id="id1:id3:id3" transform="matrix(1.0,0,0,1.0,3072,0.0)">			<g stroke="white" stroke-width="4" transform="scale(4, 4)"> <rect x="1" y="1" width="255" height="255" fill="white" stroke-width="0"/></g>
</g>
		<g id="id1:id4:id4" transform="matrix(1.0,0,0,1.0,4096,0.0)">			<g stroke="white" stroke-width="4" transform="scale(4, 4)"> <rect x="1" y="1" width="255" height="255" fill="white" stroke-width="0"/></g>
</g>
</g>
</svg>
