<?xml version="1.0" standalone="no"?>
<!DOCTYPE svg PUBLIC "-//W3C//DTD SVG 1.1//EN"
 "http://www.w3.org/Graphics/SVG/1.1/DTD/svg11.dtd">
<!-- generate by Japanese dictionary app com.asnsami.kanjidictionary -->

<svg xmlns="http://www.w3.org/2000/svg" xmlns:sodipodi="http://sodipodi.sourceforge.net/DTD/sodipodi-0.dtd" version="1.1" width="640" height="256" viewBox="0 0 5120 2048">
	<g id="id0:id0" transform="translate(0.0,0)">
		<g id="id0:id0:id0" transform="matrix(1.0,0,0,1.0,0,0.0)">			<g stroke="lightgray" stroke-width="4" transform="scale(4, 4)"> <rect x="0" y="0" width="256" height="256" fill="white" stroke-width="4"/></g>
			<g transform="scale(0.92, -0.92) translate(60, -920)">					<path d="M 246 516 Q 285 571 327 643 Q 352 695 377 720 Q 387 732 381 746 Q 377 759 345 783 Q 317 802 296 801 Q 275 798 285 775 Q 330 685 66 345 Q 56 335 54 327 Q 50 315 65 318 Q 105 327 204 460 Q 213 472 222 483 L 246 516 Z" fill="red"></path>
				<path d="M 222 483 Q 246 423 246 366 Q 246 234 222 135 Q 212 90 246 39 Q 247 39 249 36 Q 267 20 279 47 Q 294 87 293 134 Q 290 374 297 428 Q 304 455 295 466 Q 253 511 246 516 C 224 536 211 511 222 483 Z" fill="lightgray"></path>
				<path d="M 564 749 Q 595 724 629 693 Q 645 678 663 680 Q 675 681 680 696 Q 684 714 674 747 Q 667 769 631 784 Q 549 812 532 803 Q 526 799 529 784 Q 533 771 564 749 Z" fill="lightgray"></path>
				<path d="M 435 546 Q 395 539 424 520 Q 469 493 534 508 Q 651 533 771 559 Q 826 572 835 580 Q 845 589 840 599 Q 831 612 798 620 Q 774 626 653 588 Q 541 558 435 546 Z" fill="lightgray"></path>
				<path d="M 449 374 Q 480 292 510 262 Q 522 255 536 262 Q 546 272 549 288 Q 552 337 479 400 Q 476 403 475 404 Q 462 414 452 415 Q 446 416 444 404 Q 441 392 449 374 Z" fill="lightgray"></path>
				<path d="M 656 178 Q 740 370 771 414 Q 778 423 764 443 Q 739 471 717 483 Q 704 492 694 486 Q 684 482 687 466 Q 696 435 690 418 Q 659 303 608 171 C 597 143 644 151 656 178 Z" fill="lightgray"></path>
				<path d="M 608 171 Q 484 158 338 140 Q 316 137 332 119 Q 347 104 366 98 Q 388 92 406 97 Q 580 140 892 141 Q 910 141 928 140 Q 950 140 955 149 Q 961 162 943 177 Q 889 219 847 210 Q 774 197 656 178 L 608 171 Z" fill="lightgray"></path>
</g>
		<text x="40" y="140" font-size="128" fill="#999999">1</text></g>
		<g id="id0:id1:id1" transform="matrix(1.0,0,0,1.0,1024,0.0)">			<g stroke="lightgray" stroke-width="4" transform="scale(4, 4)"> <rect x="0" y="0" width="256" height="256" fill="white" stroke-width="4"/></g>
			<g transform="scale(0.92, -0.92) translate(60, -920)">					<path d="M 246 516 Q 285 571 327 643 Q 352 695 377 720 Q 387 732 381 746 Q 377 759 345 783 Q 317 802 296 801 Q 275 798 285 775 Q 330 685 66 345 Q 56 335 54 327 Q 50 315 65 318 Q 105 327 204 460 Q 213 472 222 483 L 246 516 Z" fill="black"></path>
				<path d="M 222 483 Q 246 423 246 366 Q 246 234 222 135 Q 212 90 246 39 Q 247 39 249 36 Q 267 20 279 47 Q 294 87 293 134 Q 290 374 297 428 Q 304 455 295 466 Q 253 511 246 516 C 224 536 211 511 222 483 Z" fill="red"></path>
				<path d="M 564 749 Q 595 724 629 693 Q 645 678 663 680 Q 675 681 680 696 Q 684 714 674 747 Q 667 769 631 784 Q 549 812 532 803 Q 526 799 529 784 Q 533 771 564 749 Z" fill="lightgray"></path>
				<path d="M 435 546 Q 395 539 424 520 Q 469 493 534 508 Q 651 533 771 559 Q 826 572 835 580 Q 845 589 840 599 Q 831 612 798 620 Q 774 626 653 588 Q 541 558 435 546 Z" fill="lightgray"></path>
				<path d="M 449 374 Q 480 292 510 262 Q 522 255 536 262 Q 546 272 549 288 Q 552 337 479 400 Q 476 403 475 404 Q 462 414 452 415 Q 446 416 444 404 Q 441 392 449 374 Z" fill="lightgray"></path>
				<path d="M 656 178 Q 740 370 771 414 Q 778 423 764 443 Q 739 471 717 483 Q 704 492 694 486 Q 684 482 687 466 Q 696 435 690 418 Q 659 303 608 171 C 597 143 644 151 656 178 Z" fill="lightgray"></path>
				<path d="M 608 171 Q 484 158 338 140 Q 316 137 332 119 Q 347 104 366 98 Q 388 92 406 97 Q 580 140 892 141 Q 910 141 928 140 Q 950 140 955 149 Q 961 162 943 177 Q 889 219 847 210 Q 774 197 656 178 L 608 171 Z" fill="lightgray"></path>
</g>
		<text x="40" y="140" font-size="128" fill="#999999">2</text></g>
		<g id="id0:id2:id2" transform="matrix(1.0,0,0,1.0,2048,0.0)">			<g stroke="lightgray" stroke-width="4" transform="scale(4, 4)"> <rect x="0" y="0" width="256" height="256" fill="white" stroke-width="4"/></g>
			<g transform="scale(0.92, -0.92) translate(60, -920)">					<path d="M 246 516 Q 285 571 327 643 Q 352 695 377 720 Q 387 732 381 746 Q 377 759 345 783 Q 317 802 296 801 Q 275 798 285 775 Q 330 685 66 345 Q 56 335 54 327 Q 50 315 65 318 Q 105 327 204 460 Q 213 472 222 483 L 246 516 Z" fill="black"></path>
				<path d="M 222 483 Q 246 423 246 366 Q 246 234 222 135 Q 212 90 246 39 Q 247 39 249 36 Q 267 20 279 47 Q 294 87 293 134 Q 290 374 297 428 Q 304 455 295 466 Q 253 511 246 516 C 224 536 211 511 222 483 Z" fill="black"></path>
				<path d="M 564 749 Q 595 724 629 693 Q 645 678 663 680 Q 675 681 680 696 Q 684 714 674 747 Q 667 769 631 784 Q 549 812 532 803 Q 526 799 529 784 Q 533 771 564 749 Z" fill="red"></path>
				<path d="M 435 546 Q 395 539 424 520 Q 469 493 534 508 Q 651 533 771 559 Q 826 572 835 580 Q 845 589 840 599 Q 831 612 798 620 Q 774 626 653 588 Q 541 558 435 546 Z" fill="lightgray"></path>
				<path d="M 449 374 Q 480 292 510 262 Q 522 255 536 262 Q 546 272 549 288 Q 552 337 479 400 Q 476 403 475 404 Q 462 414 452 415 Q 446 416 444 404 Q 441 392 449 374 Z" fill="lightgray"></path>
				<path d="M 656 178 Q 740 370 771 414 Q 778 423 764 443 Q 739 471 717 483 Q 704 492 694 486 Q 684 482 687 466 Q 696 435 690 418 Q 659 303 608 171 C 597 143 644 151 656 178 Z" fill="lightgray"></path>
				<path d="M 608 171 Q 484 158 338 140 Q 316 137 332 119 Q 347 104 366 98 Q 388 92 406 97 Q 580 140 892 141 Q 910 141 928 140 Q 950 140 955 149 Q 961 162 943 177 Q 889 219 847 210 Q 774 197 656 178 L 608 171 Z" fill="lightgray"></path>
</g>
		<text x="40" y="140" font-size="128" fill="#999999">3</text></g>
		<g id="id0:id3:id3" transform="matrix(1.0,0,0,1.0,3072,0.0)">			<g stroke="lightgray" stroke-width="4" transform="scale(4, 4)"> <rect x="0" y="0" width="256" height="256" fill="white" stroke-width="4"/></g>
			<g transform="scale(0.92, -0.92) translate(60, -920)">					<path d="M 246 516 Q 285 571 327 643 Q 352 695 377 720 Q 387 732 381 746 Q 377 759 345 783 Q 317 802 296 801 Q 275 798 285 775 Q 330 685 66 345 Q 56 335 54 327 Q 50 315 65 318 Q 105 327 204 460 Q 213 472 222 483 L 246 516 Z" fill="black"></path>
				<path d="M 222 483 Q 246 423 246 366 Q 246 234 222 135 Q 212 90 246 39 Q 247 39 249 36 Q 267 20 279 47 Q 294 87 293 134 Q 290 374 297 428 Q 304 455 295 466 Q 253 511 246 516 C 224 536 211 511 222 483 Z" fill="black"></path>
				<path d="M 564 749 Q 595 724 629 693 Q 645 678 663 680 Q 675 681 680 696 Q 684 714 674 747 Q 667 769 631 784 Q 549 812 532 803 Q 526 799 529 784 Q 533 771 564 749 Z" fill="black"></path>
				<path d="M 435 546 Q 395 539 424 520 Q 469 493 534 508 Q 651 533 771 559 Q 826 572 835 580 Q 845 589 840 599 Q 831 612 798 620 Q 774 626 653 588 Q 541 558 435 546 Z" fill="red"></path>
				<path d="M 449 374 Q 480 292 510 262 Q 522 255 536 262 Q 546 272 549 288 Q 552 337 479 400 Q 476 403 475 404 Q 462 414 452 415 Q 446 416 444 404 Q 441 392 449 374 Z" fill="lightgray"></path>
				<path d="M 656 178 Q 740 370 771 414 Q 778 423 764 443 Q 739 471 717 483 Q 704 492 694 486 Q 684 482 687 466 Q 696 435 690 418 Q 659 303 608 171 C 597 143 644 151 656 178 Z" fill="lightgray"></path>
				<path d="M 608 171 Q 484 158 338 140 Q 316 137 332 119 Q 347 104 366 98 Q 388 92 406 97 Q 580 140 892 141 Q 910 141 928 140 Q 950 140 955 149 Q 961 162 943 177 Q 889 219 847 210 Q 774 197 656 178 L 608 171 Z" fill="lightgray"></path>
</g>
		<text x="40" y="140" font-size="128" fill="#999999">4</text></g>
		<g id="id0:id4:id4" transform="matrix(1.0,0,0,1.0,4096,0.0)">			<g stroke="lightgray" stroke-width="4" transform="scale(4, 4)"> <rect x="0" y="0" width="256" height="256" fill="white" stroke-width="4"/></g>
			<g transform="scale(0.92, -0.92) translate(60, -920)">					<path d="M 246 516 Q 285 571 327 643 Q 352 695 377 720 Q 387 732 381 746 Q 377 759 345 783 Q 317 802 296 801 Q 275 798 285 775 Q 330 685 66 345 Q 56 335 54 327 Q 50 315 65 318 Q 105 327 204 460 Q 213 472 222 483 L 246 516 Z" fill="black"></path>
				<path d="M 222 483 Q 246 423 246 366 Q 246 234 222 135 Q 212 90 246 39 Q 247 39 249 36 Q 267 20 279 47 Q 294 87 293 134 Q 290 374 297 428 Q 304 455 295 466 Q 253 511 246 516 C 224 536 211 511 222 483 Z" fill="black"></path>
				<path d="M 564 749 Q 595 724 629 693 Q 645 678 663 680 Q 675 681 680 696 Q 684 714 674 747 Q 667 769 631 784 Q 549 812 532 803 Q 526 799 529 784 Q 533 771 564 749 Z" fill="black"></path>
				<path d="M 435 546 Q 395 539 424 520 Q 469 493 534 508 Q 651 533 771 559 Q 826 572 835 580 Q 845 589 840 599 Q 831 612 798 620 Q 774 626 653 588 Q 541 558 435 546 Z" fill="black"></path>
				<path d="M 449 374 Q 480 292 510 262 Q 522 255 536 262 Q 546 272 549 288 Q 552 337 479 400 Q 476 403 475 404 Q 462 414 452 415 Q 446 416 444 404 Q 441 392 449 374 Z" fill="red"></path>
				<path d="M 656 178 Q 740 370 771 414 Q 778 423 764 443 Q 739 471 717 483 Q 704 492 694 486 Q 684 482 687 466 Q 696 435 690 418 Q 659 303 608 171 C 597 143 644 151 656 178 Z" fill="lightgray"></path>
				<path d="M 608 171 Q 484 158 338 140 Q 316 137 332 119 Q 347 104 366 98 Q 388 92 406 97 Q 580 140 892 141 Q 910 141 928 140 Q 950 140 955 149 Q 961 162 943 177 Q 889 219 847 210 Q 774 197 656 178 L 608 171 Z" fill="lightgray"></path>
</g>
		<text x="40" y="140" font-size="128" fill="#999999">5</text></g>
</g>
	<g id="id1:id1" transform="translate(0.0,1024)">
		<g id="id1:id0:id0" transform="matrix(1.0,0,0,1.0,0,0.0)">			<g stroke="lightgray" stroke-width="4" transform="scale(4, 4)"> <rect x="0" y="0" width="256" height="256" fill="white" stroke-width="4"/></g>
			<g transform="scale(0.92, -0.92) translate(60, -920)">					<path d="M 246 516 Q 285 571 327 643 Q 352 695 377 720 Q 387 732 381 746 Q 377 759 345 783 Q 317 802 296 801 Q 275 798 285 775 Q 330 685 66 345 Q 56 335 54 327 Q 50 315 65 318 Q 105 327 204 460 Q 213 472 222 483 L 246 516 Z" fill="black"></path>
				<path d="M 222 483 Q 246 423 246 366 Q 246 234 222 135 Q 212 90 246 39 Q 247 39 249 36 Q 267 20 279 47 Q 294 87 293 134 Q 290 374 297 428 Q 304 455 295 466 Q 253 511 246 516 C 224 536 211 511 222 483 Z" fill="black"></path>
				<path d="M 564 749 Q 595 724 629 693 Q 645 678 663 680 Q 675 681 680 696 Q 684 714 674 747 Q 667 769 631 784 Q 549 812 532 803 Q 526 799 529 784 Q 533 771 564 749 Z" fill="black"></path>
				<path d="M 435 546 Q 395 539 424 520 Q 469 493 534 508 Q 651 533 771 559 Q 826 572 835 580 Q 845 589 840 599 Q 831 612 798 620 Q 774 626 653 588 Q 541 558 435 546 Z" fill="black"></path>
				<path d="M 449 374 Q 480 292 510 262 Q 522 255 536 262 Q 546 272 549 288 Q 552 337 479 400 Q 476 403 475 404 Q 462 414 452 415 Q 446 416 444 404 Q 441 392 449 374 Z" fill="black"></path>
				<path d="M 656 178 Q 740 370 771 414 Q 778 423 764 443 Q 739 471 717 483 Q 704 492 694 486 Q 684 482 687 466 Q 696 435 690 418 Q 659 303 608 171 C 597 143 644 151 656 178 Z" fill="red"></path>
				<path d="M 608 171 Q 484 158 338 140 Q 316 137 332 119 Q 347 104 366 98 Q 388 92 406 97 Q 580 140 892 141 Q 910 141 928 140 Q 950 140 955 149 Q 961 162 943 177 Q 889 219 847 210 Q 774 197 656 178 L 608 171 Z" fill="lightgray"></path>
</g>
		<text x="40" y="140" font-size="128" fill="#999999">6</text></g>
		<g id="id1:id1:id1" transform="matrix(1.0,0,0,1.0,1024,0.0)">			<g stroke="lightgray" stroke-width="4" transform="scale(4, 4)"> <rect x="0" y="0" width="256" height="256" fill="white" stroke-width="4"/></g>
			<g transform="scale(0.92, -0.92) translate(60, -920)">					<path d="M 246 516 Q 285 571 327 643 Q 352 695 377 720 Q 387 732 381 746 Q 377 759 345 783 Q 317 802 296 801 Q 275 798 285 775 Q 330 685 66 345 Q 56 335 54 327 Q 50 315 65 318 Q 105 327 204 460 Q 213 472 222 483 L 246 516 Z" fill="black"></path>
				<path d="M 222 483 Q 246 423 246 366 Q 246 234 222 135 Q 212 90 246 39 Q 247 39 249 36 Q 267 20 279 47 Q 294 87 293 134 Q 290 374 297 428 Q 304 455 295 466 Q 253 511 246 516 C 224 536 211 511 222 483 Z" fill="black"></path>
				<path d="M 564 749 Q 595 724 629 693 Q 645 678 663 680 Q 675 681 680 696 Q 684 714 674 747 Q 667 769 631 784 Q 549 812 532 803 Q 526 799 529 784 Q 533 771 564 749 Z" fill="black"></path>
				<path d="M 435 546 Q 395 539 424 520 Q 469 493 534 508 Q 651 533 771 559 Q 826 572 835 580 Q 845 589 840 599 Q 831 612 798 620 Q 774 626 653 588 Q 541 558 435 546 Z" fill="black"></path>
				<path d="M 449 374 Q 480 292 510 262 Q 522 255 536 262 Q 546 272 549 288 Q 552 337 479 400 Q 476 403 475 404 Q 462 414 452 415 Q 446 416 444 404 Q 441 392 449 374 Z" fill="black"></path>
				<path d="M 656 178 Q 740 370 771 414 Q 778 423 764 443 Q 739 471 717 483 Q 704 492 694 486 Q 684 482 687 466 Q 696 435 690 418 Q 659 303 608 171 C 597 143 644 151 656 178 Z" fill="black"></path>
				<path d="M 608 171 Q 484 158 338 140 Q 316 137 332 119 Q 347 104 366 98 Q 388 92 406 97 Q 580 140 892 141 Q 910 141 928 140 Q 950 140 955 149 Q 961 162 943 177 Q 889 219 847 210 Q 774 197 656 178 L 608 171 Z" fill="red"></path>
</g>
		<text x="40" y="140" font-size="128" fill="#999999">7</text></g>
		<g id="id1:id2:id2" transform="matrix(1.0,0,0,1.0,2048,0.0)">			<g stroke="white" stroke-width="4" transform="scale(4, 4)"> <rect x="1" y="1" width="255" height="255" fill="white" stroke-width="0"/></g>
</g>
		<g id="id1:id3:id3" transform="matrix(1.0,0,0,1.0,3072,0.0)">			<g stroke="white" stroke-width="4" transform="scale(4, 4)"> <rect x="1" y="1" width="255" height="255" fill="white" stroke-width="0"/></g>
</g>
		<g id="id1:id4:id4" transform="matrix(1.0,0,0,1.0,4096,0.0)">			<g stroke="white" stroke-width="4" transform="scale(4, 4)"> <rect x="1" y="1" width="255" height="255" fill="white" stroke-width="0"/></g>
</g>
</g>
</svg>
