<?xml version="1.0" standalone="no"?>
<!DOCTYPE svg PUBLIC "-//W3C//DTD SVG 1.1//EN"
 "http://www.w3.org/Graphics/SVG/1.1/DTD/svg11.dtd">
<!-- generate by Japanese dictionary app com.asnsami.kanjidictionary -->

<svg xmlns="http://www.w3.org/2000/svg" xmlns:sodipodi="http://sodipodi.sourceforge.net/DTD/sodipodi-0.dtd" version="1.1" width="640" height="256" viewBox="0 0 5120 2048">
	<g id="id0:id0" transform="translate(0.0,0)">
		<g id="id0:id0:id0" transform="matrix(1.0,0,0,1.0,0,0.0)">			<g stroke="lightgray" stroke-width="4" transform="scale(4, 4)"> <rect x="0" y="0" width="256" height="256" fill="white" stroke-width="4"/></g>
			<g transform="scale(0.92, -0.92) translate(60, -920)">					<path d="M 521 752 Q 524 764 548 787 Q 557 793 556 805 Q 555 815 540 830 Q 504 866 466 861 Q 456 858 458 844 Q 476 742 291 536 Q 282 530 276 522 Q 221 465 86 357 Q 76 351 88 348 Q 158 357 299 476 Q 389 563 507 731 L 521 752 Z" fill="red"></path>
				<path d="M 507 731 Q 735 460 787 443 Q 848 427 965 445 Q 984 446 987 451 Q 990 458 974 465 Q 773 552 765 557 Q 675 609 527 747 Q 523 750 521 752 C 499 772 488 754 507 731 Z" fill="lightgray"></path>
				<path d="M 497 454 Q 647 487 651 489 Q 658 496 655 505 Q 648 515 620 523 Q 596 529 511 504 Q 436 486 369 480 Q 335 474 359 458 Q 399 434 453 446 Q 456 447 460 446 L 497 454 Z" fill="lightgray"></path>
				<path d="M 535 308 Q 587 312 767 313 Q 786 313 791 322 Q 795 332 780 346 Q 723 391 677 372 Q 620 362 536 347 L 477 337 Q 356 324 216 305 Q 197 304 211 287 Q 224 274 242 268 Q 261 264 278 267 Q 351 288 478 303 L 535 308 Z" fill="lightgray"></path>
				<path d="M 430 54 Q 408 63 377 71 Q 365 75 365 68 Q 365 61 375 50 Q 436 -5 477 -49 Q 487 -59 502 -43 Q 539 11 540 107 Q 533 218 535 308 L 536 347 Q 536 368 539 387 Q 546 414 540 424 Q 530 437 497 454 C 471 468 453 475 460 446 Q 475 380 477 370 Q 477 355 477 337 L 478 303 Q 479 225 479 95 Q 478 64 467 52 Q 457 45 430 54 Z" fill="lightgray"></path>
				<path d="M 297 213 Q 261 164 218 123 Q 208 113 203 97 Q 196 72 199 56 Q 203 35 227 43 Q 287 70 310 148 Q 323 181 321 207 Q 318 217 312 219 Q 303 220 297 213 Z" fill="lightgray"></path>
				<path d="M 633 199 Q 691 145 759 68 Q 775 46 792 42 Q 801 41 809 51 Q 822 64 810 111 Q 803 153 719 194 Q 665 221 635 232 Q 625 238 623 225 Q 622 210 633 199 Z" fill="lightgray"></path>
</g>
		<text x="40" y="140" font-size="128" fill="#999999">1</text></g>
		<g id="id0:id1:id1" transform="matrix(1.0,0,0,1.0,1024,0.0)">			<g stroke="lightgray" stroke-width="4" transform="scale(4, 4)"> <rect x="0" y="0" width="256" height="256" fill="white" stroke-width="4"/></g>
			<g transform="scale(0.92, -0.92) translate(60, -920)">					<path d="M 521 752 Q 524 764 548 787 Q 557 793 556 805 Q 555 815 540 830 Q 504 866 466 861 Q 456 858 458 844 Q 476 742 291 536 Q 282 530 276 522 Q 221 465 86 357 Q 76 351 88 348 Q 158 357 299 476 Q 389 563 507 731 L 521 752 Z" fill="black"></path>
				<path d="M 507 731 Q 735 460 787 443 Q 848 427 965 445 Q 984 446 987 451 Q 990 458 974 465 Q 773 552 765 557 Q 675 609 527 747 Q 523 750 521 752 C 499 772 488 754 507 731 Z" fill="red"></path>
				<path d="M 497 454 Q 647 487 651 489 Q 658 496 655 505 Q 648 515 620 523 Q 596 529 511 504 Q 436 486 369 480 Q 335 474 359 458 Q 399 434 453 446 Q 456 447 460 446 L 497 454 Z" fill="lightgray"></path>
				<path d="M 535 308 Q 587 312 767 313 Q 786 313 791 322 Q 795 332 780 346 Q 723 391 677 372 Q 620 362 536 347 L 477 337 Q 356 324 216 305 Q 197 304 211 287 Q 224 274 242 268 Q 261 264 278 267 Q 351 288 478 303 L 535 308 Z" fill="lightgray"></path>
				<path d="M 430 54 Q 408 63 377 71 Q 365 75 365 68 Q 365 61 375 50 Q 436 -5 477 -49 Q 487 -59 502 -43 Q 539 11 540 107 Q 533 218 535 308 L 536 347 Q 536 368 539 387 Q 546 414 540 424 Q 530 437 497 454 C 471 468 453 475 460 446 Q 475 380 477 370 Q 477 355 477 337 L 478 303 Q 479 225 479 95 Q 478 64 467 52 Q 457 45 430 54 Z" fill="lightgray"></path>
				<path d="M 297 213 Q 261 164 218 123 Q 208 113 203 97 Q 196 72 199 56 Q 203 35 227 43 Q 287 70 310 148 Q 323 181 321 207 Q 318 217 312 219 Q 303 220 297 213 Z" fill="lightgray"></path>
				<path d="M 633 199 Q 691 145 759 68 Q 775 46 792 42 Q 801 41 809 51 Q 822 64 810 111 Q 803 153 719 194 Q 665 221 635 232 Q 625 238 623 225 Q 622 210 633 199 Z" fill="lightgray"></path>
</g>
		<text x="40" y="140" font-size="128" fill="#999999">2</text></g>
		<g id="id0:id2:id2" transform="matrix(1.0,0,0,1.0,2048,0.0)">			<g stroke="lightgray" stroke-width="4" transform="scale(4, 4)"> <rect x="0" y="0" width="256" height="256" fill="white" stroke-width="4"/></g>
			<g transform="scale(0.92, -0.92) translate(60, -920)">					<path d="M 521 752 Q 524 764 548 787 Q 557 793 556 805 Q 555 815 540 830 Q 504 866 466 861 Q 456 858 458 844 Q 476 742 291 536 Q 282 530 276 522 Q 221 465 86 357 Q 76 351 88 348 Q 158 357 299 476 Q 389 563 507 731 L 521 752 Z" fill="black"></path>
				<path d="M 507 731 Q 735 460 787 443 Q 848 427 965 445 Q 984 446 987 451 Q 990 458 974 465 Q 773 552 765 557 Q 675 609 527 747 Q 523 750 521 752 C 499 772 488 754 507 731 Z" fill="black"></path>
				<path d="M 497 454 Q 647 487 651 489 Q 658 496 655 505 Q 648 515 620 523 Q 596 529 511 504 Q 436 486 369 480 Q 335 474 359 458 Q 399 434 453 446 Q 456 447 460 446 L 497 454 Z" fill="red"></path>
				<path d="M 535 308 Q 587 312 767 313 Q 786 313 791 322 Q 795 332 780 346 Q 723 391 677 372 Q 620 362 536 347 L 477 337 Q 356 324 216 305 Q 197 304 211 287 Q 224 274 242 268 Q 261 264 278 267 Q 351 288 478 303 L 535 308 Z" fill="lightgray"></path>
				<path d="M 430 54 Q 408 63 377 71 Q 365 75 365 68 Q 365 61 375 50 Q 436 -5 477 -49 Q 487 -59 502 -43 Q 539 11 540 107 Q 533 218 535 308 L 536 347 Q 536 368 539 387 Q 546 414 540 424 Q 530 437 497 454 C 471 468 453 475 460 446 Q 475 380 477 370 Q 477 355 477 337 L 478 303 Q 479 225 479 95 Q 478 64 467 52 Q 457 45 430 54 Z" fill="lightgray"></path>
				<path d="M 297 213 Q 261 164 218 123 Q 208 113 203 97 Q 196 72 199 56 Q 203 35 227 43 Q 287 70 310 148 Q 323 181 321 207 Q 318 217 312 219 Q 303 220 297 213 Z" fill="lightgray"></path>
				<path d="M 633 199 Q 691 145 759 68 Q 775 46 792 42 Q 801 41 809 51 Q 822 64 810 111 Q 803 153 719 194 Q 665 221 635 232 Q 625 238 623 225 Q 622 210 633 199 Z" fill="lightgray"></path>
</g>
		<text x="40" y="140" font-size="128" fill="#999999">3</text></g>
		<g id="id0:id3:id3" transform="matrix(1.0,0,0,1.0,3072,0.0)">			<g stroke="lightgray" stroke-width="4" transform="scale(4, 4)"> <rect x="0" y="0" width="256" height="256" fill="white" stroke-width="4"/></g>
			<g transform="scale(0.92, -0.92) translate(60, -920)">					<path d="M 521 752 Q 524 764 548 787 Q 557 793 556 805 Q 555 815 540 830 Q 504 866 466 861 Q 456 858 458 844 Q 476 742 291 536 Q 282 530 276 522 Q 221 465 86 357 Q 76 351 88 348 Q 158 357 299 476 Q 389 563 507 731 L 521 752 Z" fill="black"></path>
				<path d="M 507 731 Q 735 460 787 443 Q 848 427 965 445 Q 984 446 987 451 Q 990 458 974 465 Q 773 552 765 557 Q 675 609 527 747 Q 523 750 521 752 C 499 772 488 754 507 731 Z" fill="black"></path>
				<path d="M 497 454 Q 647 487 651 489 Q 658 496 655 505 Q 648 515 620 523 Q 596 529 511 504 Q 436 486 369 480 Q 335 474 359 458 Q 399 434 453 446 Q 456 447 460 446 L 497 454 Z" fill="black"></path>
				<path d="M 535 308 Q 587 312 767 313 Q 786 313 791 322 Q 795 332 780 346 Q 723 391 677 372 Q 620 362 536 347 L 477 337 Q 356 324 216 305 Q 197 304 211 287 Q 224 274 242 268 Q 261 264 278 267 Q 351 288 478 303 L 535 308 Z" fill="red"></path>
				<path d="M 430 54 Q 408 63 377 71 Q 365 75 365 68 Q 365 61 375 50 Q 436 -5 477 -49 Q 487 -59 502 -43 Q 539 11 540 107 Q 533 218 535 308 L 536 347 Q 536 368 539 387 Q 546 414 540 424 Q 530 437 497 454 C 471 468 453 475 460 446 Q 475 380 477 370 Q 477 355 477 337 L 478 303 Q 479 225 479 95 Q 478 64 467 52 Q 457 45 430 54 Z" fill="lightgray"></path>
				<path d="M 297 213 Q 261 164 218 123 Q 208 113 203 97 Q 196 72 199 56 Q 203 35 227 43 Q 287 70 310 148 Q 323 181 321 207 Q 318 217 312 219 Q 303 220 297 213 Z" fill="lightgray"></path>
				<path d="M 633 199 Q 691 145 759 68 Q 775 46 792 42 Q 801 41 809 51 Q 822 64 810 111 Q 803 153 719 194 Q 665 221 635 232 Q 625 238 623 225 Q 622 210 633 199 Z" fill="lightgray"></path>
</g>
		<text x="40" y="140" font-size="128" fill="#999999">4</text></g>
		<g id="id0:id4:id4" transform="matrix(1.0,0,0,1.0,4096,0.0)">			<g stroke="lightgray" stroke-width="4" transform="scale(4, 4)"> <rect x="0" y="0" width="256" height="256" fill="white" stroke-width="4"/></g>
			<g transform="scale(0.92, -0.92) translate(60, -920)">					<path d="M 521 752 Q 524 764 548 787 Q 557 793 556 805 Q 555 815 540 830 Q 504 866 466 861 Q 456 858 458 844 Q 476 742 291 536 Q 282 530 276 522 Q 221 465 86 357 Q 76 351 88 348 Q 158 357 299 476 Q 389 563 507 731 L 521 752 Z" fill="black"></path>
				<path d="M 507 731 Q 735 460 787 443 Q 848 427 965 445 Q 984 446 987 451 Q 990 458 974 465 Q 773 552 765 557 Q 675 609 527 747 Q 523 750 521 752 C 499 772 488 754 507 731 Z" fill="black"></path>
				<path d="M 497 454 Q 647 487 651 489 Q 658 496 655 505 Q 648 515 620 523 Q 596 529 511 504 Q 436 486 369 480 Q 335 474 359 458 Q 399 434 453 446 Q 456 447 460 446 L 497 454 Z" fill="black"></path>
				<path d="M 535 308 Q 587 312 767 313 Q 786 313 791 322 Q 795 332 780 346 Q 723 391 677 372 Q 620 362 536 347 L 477 337 Q 356 324 216 305 Q 197 304 211 287 Q 224 274 242 268 Q 261 264 278 267 Q 351 288 478 303 L 535 308 Z" fill="black"></path>
				<path d="M 430 54 Q 408 63 377 71 Q 365 75 365 68 Q 365 61 375 50 Q 436 -5 477 -49 Q 487 -59 502 -43 Q 539 11 540 107 Q 533 218 535 308 L 536 347 Q 536 368 539 387 Q 546 414 540 424 Q 530 437 497 454 C 471 468 453 475 460 446 Q 475 380 477 370 Q 477 355 477 337 L 478 303 Q 479 225 479 95 Q 478 64 467 52 Q 457 45 430 54 Z" fill="red"></path>
				<path d="M 297 213 Q 261 164 218 123 Q 208 113 203 97 Q 196 72 199 56 Q 203 35 227 43 Q 287 70 310 148 Q 323 181 321 207 Q 318 217 312 219 Q 303 220 297 213 Z" fill="lightgray"></path>
				<path d="M 633 199 Q 691 145 759 68 Q 775 46 792 42 Q 801 41 809 51 Q 822 64 810 111 Q 803 153 719 194 Q 665 221 635 232 Q 625 238 623 225 Q 622 210 633 199 Z" fill="lightgray"></path>
</g>
		<text x="40" y="140" font-size="128" fill="#999999">5</text></g>
</g>
	<g id="id1:id1" transform="translate(0.0,1024)">
		<g id="id1:id0:id0" transform="matrix(1.0,0,0,1.0,0,0.0)">			<g stroke="lightgray" stroke-width="4" transform="scale(4, 4)"> <rect x="0" y="0" width="256" height="256" fill="white" stroke-width="4"/></g>
			<g transform="scale(0.92, -0.92) translate(60, -920)">					<path d="M 521 752 Q 524 764 548 787 Q 557 793 556 805 Q 555 815 540 830 Q 504 866 466 861 Q 456 858 458 844 Q 476 742 291 536 Q 282 530 276 522 Q 221 465 86 357 Q 76 351 88 348 Q 158 357 299 476 Q 389 563 507 731 L 521 752 Z" fill="black"></path>
				<path d="M 507 731 Q 735 460 787 443 Q 848 427 965 445 Q 984 446 987 451 Q 990 458 974 465 Q 773 552 765 557 Q 675 609 527 747 Q 523 750 521 752 C 499 772 488 754 507 731 Z" fill="black"></path>
				<path d="M 497 454 Q 647 487 651 489 Q 658 496 655 505 Q 648 515 620 523 Q 596 529 511 504 Q 436 486 369 480 Q 335 474 359 458 Q 399 434 453 446 Q 456 447 460 446 L 497 454 Z" fill="black"></path>
				<path d="M 535 308 Q 587 312 767 313 Q 786 313 791 322 Q 795 332 780 346 Q 723 391 677 372 Q 620 362 536 347 L 477 337 Q 356 324 216 305 Q 197 304 211 287 Q 224 274 242 268 Q 261 264 278 267 Q 351 288 478 303 L 535 308 Z" fill="black"></path>
				<path d="M 430 54 Q 408 63 377 71 Q 365 75 365 68 Q 365 61 375 50 Q 436 -5 477 -49 Q 487 -59 502 -43 Q 539 11 540 107 Q 533 218 535 308 L 536 347 Q 536 368 539 387 Q 546 414 540 424 Q 530 437 497 454 C 471 468 453 475 460 446 Q 475 380 477 370 Q 477 355 477 337 L 478 303 Q 479 225 479 95 Q 478 64 467 52 Q 457 45 430 54 Z" fill="black"></path>
				<path d="M 297 213 Q 261 164 218 123 Q 208 113 203 97 Q 196 72 199 56 Q 203 35 227 43 Q 287 70 310 148 Q 323 181 321 207 Q 318 217 312 219 Q 303 220 297 213 Z" fill="red"></path>
				<path d="M 633 199 Q 691 145 759 68 Q 775 46 792 42 Q 801 41 809 51 Q 822 64 810 111 Q 803 153 719 194 Q 665 221 635 232 Q 625 238 623 225 Q 622 210 633 199 Z" fill="lightgray"></path>
</g>
		<text x="40" y="140" font-size="128" fill="#999999">6</text></g>
		<g id="id1:id1:id1" transform="matrix(1.0,0,0,1.0,1024,0.0)">			<g stroke="lightgray" stroke-width="4" transform="scale(4, 4)"> <rect x="0" y="0" width="256" height="256" fill="white" stroke-width="4"/></g>
			<g transform="scale(0.92, -0.92) translate(60, -920)">					<path d="M 521 752 Q 524 764 548 787 Q 557 793 556 805 Q 555 815 540 830 Q 504 866 466 861 Q 456 858 458 844 Q 476 742 291 536 Q 282 530 276 522 Q 221 465 86 357 Q 76 351 88 348 Q 158 357 299 476 Q 389 563 507 731 L 521 752 Z" fill="black"></path>
				<path d="M 507 731 Q 735 460 787 443 Q 848 427 965 445 Q 984 446 987 451 Q 990 458 974 465 Q 773 552 765 557 Q 675 609 527 747 Q 523 750 521 752 C 499 772 488 754 507 731 Z" fill="black"></path>
				<path d="M 497 454 Q 647 487 651 489 Q 658 496 655 505 Q 648 515 620 523 Q 596 529 511 504 Q 436 486 369 480 Q 335 474 359 458 Q 399 434 453 446 Q 456 447 460 446 L 497 454 Z" fill="black"></path>
				<path d="M 535 308 Q 587 312 767 313 Q 786 313 791 322 Q 795 332 780 346 Q 723 391 677 372 Q 620 362 536 347 L 477 337 Q 356 324 216 305 Q 197 304 211 287 Q 224 274 242 268 Q 261 264 278 267 Q 351 288 478 303 L 535 308 Z" fill="black"></path>
				<path d="M 430 54 Q 408 63 377 71 Q 365 75 365 68 Q 365 61 375 50 Q 436 -5 477 -49 Q 487 -59 502 -43 Q 539 11 540 107 Q 533 218 535 308 L 536 347 Q 536 368 539 387 Q 546 414 540 424 Q 530 437 497 454 C 471 468 453 475 460 446 Q 475 380 477 370 Q 477 355 477 337 L 478 303 Q 479 225 479 95 Q 478 64 467 52 Q 457 45 430 54 Z" fill="black"></path>
				<path d="M 297 213 Q 261 164 218 123 Q 208 113 203 97 Q 196 72 199 56 Q 203 35 227 43 Q 287 70 310 148 Q 323 181 321 207 Q 318 217 312 219 Q 303 220 297 213 Z" fill="black"></path>
				<path d="M 633 199 Q 691 145 759 68 Q 775 46 792 42 Q 801 41 809 51 Q 822 64 810 111 Q 803 153 719 194 Q 665 221 635 232 Q 625 238 623 225 Q 622 210 633 199 Z" fill="red"></path>
</g>
		<text x="40" y="140" font-size="128" fill="#999999">7</text></g>
		<g id="id1:id2:id2" transform="matrix(1.0,0,0,1.0,2048,0.0)">			<g stroke="white" stroke-width="4" transform="scale(4, 4)"> <rect x="1" y="1" width="255" height="255" fill="white" stroke-width="0"/></g>
</g>
		<g id="id1:id3:id3" transform="matrix(1.0,0,0,1.0,3072,0.0)">			<g stroke="white" stroke-width="4" transform="scale(4, 4)"> <rect x="1" y="1" width="255" height="255" fill="white" stroke-width="0"/></g>
</g>
		<g id="id1:id4:id4" transform="matrix(1.0,0,0,1.0,4096,0.0)">			<g stroke="white" stroke-width="4" transform="scale(4, 4)"> <rect x="1" y="1" width="255" height="255" fill="white" stroke-width="0"/></g>
</g>
</g>
</svg>
