<?xml version="1.0" standalone="no"?>
<!DOCTYPE svg PUBLIC "-//W3C//DTD SVG 1.1//EN"
 "http://www.w3.org/Graphics/SVG/1.1/DTD/svg11.dtd">
<!-- generate by Japanese dictionary app com.asnsami.kanjidictionary -->

<svg xmlns="http://www.w3.org/2000/svg" xmlns:sodipodi="http://sodipodi.sourceforge.net/DTD/sodipodi-0.dtd" version="1.1" width="640" height="256" viewBox="0 0 5120 2048">
	<g id="id0:id0" transform="translate(0.0,0)">
		<g id="id0:id0:id0" transform="matrix(1.0,0,0,1.0,0,0.0)">			<g stroke="lightgray" stroke-width="4" transform="scale(4, 4)"> <rect x="0" y="0" width="256" height="256" fill="white" stroke-width="4"/></g>
			<g transform="scale(0.92, -0.92) translate(60, -920)">					<path d="M 525 716 Q 538 735 546 742 Q 555 746 553 759 Q 552 769 539 783 Q 505 817 469 813 Q 459 812 462 797 Q 475 692 294 502 Q 287 496 280 488 Q 226 434 94 333 Q 84 327 96 324 Q 177 336 319 461 Q 398 536 509 694 L 525 716 Z" fill="red"></path>
				<path d="M 509 694 Q 743 439 794 427 Q 857 418 961 435 Q 980 438 981 443 Q 984 450 968 455 Q 758 542 749 546 Q 628 615 528 714 Q 525 715 525 716 C 503 736 489 716 509 694 Z" fill="lightgray"></path>
				<path d="M 381 452 Q 347 446 371 430 Q 410 406 465 419 Q 532 432 602 445 Q 633 452 639 457 Q 648 464 643 473 Q 636 483 608 491 Q 580 497 550 486 Q 514 474 475 465 Q 432 456 381 452 Z" fill="lightgray"></path>
				<path d="M 300 250 Q 330 216 360 175 Q 370 162 385 159 Q 395 158 401 169 Q 408 182 405 210 Q 404 234 372 257 Q 299 302 284 299 Q 280 296 278 284 Q 279 274 300 250 Z" fill="lightgray"></path>
				<path d="M 429 319 Q 480 217 500 210 Q 513 206 524 221 Q 530 234 526 256 Q 520 280 496 300 Q 459 334 441 344 Q 432 348 428 337 Q 424 330 429 319 Z" fill="lightgray"></path>
				<path d="M 561 100 Q 588 128 664 244 Q 683 275 716 312 Q 735 324 726 336 Q 719 355 687 381 Q 672 394 653 390 Q 641 386 646 373 Q 655 309 538 128 Q 528 110 525 97 C 516 68 541 78 561 100 Z" fill="lightgray"></path>
				<path d="M 523 49 Q 566 50 608 54 Q 701 63 834 49 Q 858 46 864 55 Q 871 68 859 80 Q 831 108 787 128 Q 777 132 641 109 Q 623 109 561 100 L 525 97 Q 444 93 337 79 Q 282 72 198 72 Q 185 72 183 61 Q 182 49 201 34 Q 217 21 248 9 Q 258 5 277 13 Q 290 17 350 26 Q 428 42 523 49 Z" fill="lightgray"></path>
</g>
		<text x="40" y="140" font-size="128" fill="#999999">1</text></g>
		<g id="id0:id1:id1" transform="matrix(1.0,0,0,1.0,1024,0.0)">			<g stroke="lightgray" stroke-width="4" transform="scale(4, 4)"> <rect x="0" y="0" width="256" height="256" fill="white" stroke-width="4"/></g>
			<g transform="scale(0.92, -0.92) translate(60, -920)">					<path d="M 525 716 Q 538 735 546 742 Q 555 746 553 759 Q 552 769 539 783 Q 505 817 469 813 Q 459 812 462 797 Q 475 692 294 502 Q 287 496 280 488 Q 226 434 94 333 Q 84 327 96 324 Q 177 336 319 461 Q 398 536 509 694 L 525 716 Z" fill="black"></path>
				<path d="M 509 694 Q 743 439 794 427 Q 857 418 961 435 Q 980 438 981 443 Q 984 450 968 455 Q 758 542 749 546 Q 628 615 528 714 Q 525 715 525 716 C 503 736 489 716 509 694 Z" fill="red"></path>
				<path d="M 381 452 Q 347 446 371 430 Q 410 406 465 419 Q 532 432 602 445 Q 633 452 639 457 Q 648 464 643 473 Q 636 483 608 491 Q 580 497 550 486 Q 514 474 475 465 Q 432 456 381 452 Z" fill="lightgray"></path>
				<path d="M 300 250 Q 330 216 360 175 Q 370 162 385 159 Q 395 158 401 169 Q 408 182 405 210 Q 404 234 372 257 Q 299 302 284 299 Q 280 296 278 284 Q 279 274 300 250 Z" fill="lightgray"></path>
				<path d="M 429 319 Q 480 217 500 210 Q 513 206 524 221 Q 530 234 526 256 Q 520 280 496 300 Q 459 334 441 344 Q 432 348 428 337 Q 424 330 429 319 Z" fill="lightgray"></path>
				<path d="M 561 100 Q 588 128 664 244 Q 683 275 716 312 Q 735 324 726 336 Q 719 355 687 381 Q 672 394 653 390 Q 641 386 646 373 Q 655 309 538 128 Q 528 110 525 97 C 516 68 541 78 561 100 Z" fill="lightgray"></path>
				<path d="M 523 49 Q 566 50 608 54 Q 701 63 834 49 Q 858 46 864 55 Q 871 68 859 80 Q 831 108 787 128 Q 777 132 641 109 Q 623 109 561 100 L 525 97 Q 444 93 337 79 Q 282 72 198 72 Q 185 72 183 61 Q 182 49 201 34 Q 217 21 248 9 Q 258 5 277 13 Q 290 17 350 26 Q 428 42 523 49 Z" fill="lightgray"></path>
</g>
		<text x="40" y="140" font-size="128" fill="#999999">2</text></g>
		<g id="id0:id2:id2" transform="matrix(1.0,0,0,1.0,2048,0.0)">			<g stroke="lightgray" stroke-width="4" transform="scale(4, 4)"> <rect x="0" y="0" width="256" height="256" fill="white" stroke-width="4"/></g>
			<g transform="scale(0.92, -0.92) translate(60, -920)">					<path d="M 525 716 Q 538 735 546 742 Q 555 746 553 759 Q 552 769 539 783 Q 505 817 469 813 Q 459 812 462 797 Q 475 692 294 502 Q 287 496 280 488 Q 226 434 94 333 Q 84 327 96 324 Q 177 336 319 461 Q 398 536 509 694 L 525 716 Z" fill="black"></path>
				<path d="M 509 694 Q 743 439 794 427 Q 857 418 961 435 Q 980 438 981 443 Q 984 450 968 455 Q 758 542 749 546 Q 628 615 528 714 Q 525 715 525 716 C 503 736 489 716 509 694 Z" fill="black"></path>
				<path d="M 381 452 Q 347 446 371 430 Q 410 406 465 419 Q 532 432 602 445 Q 633 452 639 457 Q 648 464 643 473 Q 636 483 608 491 Q 580 497 550 486 Q 514 474 475 465 Q 432 456 381 452 Z" fill="red"></path>
				<path d="M 300 250 Q 330 216 360 175 Q 370 162 385 159 Q 395 158 401 169 Q 408 182 405 210 Q 404 234 372 257 Q 299 302 284 299 Q 280 296 278 284 Q 279 274 300 250 Z" fill="lightgray"></path>
				<path d="M 429 319 Q 480 217 500 210 Q 513 206 524 221 Q 530 234 526 256 Q 520 280 496 300 Q 459 334 441 344 Q 432 348 428 337 Q 424 330 429 319 Z" fill="lightgray"></path>
				<path d="M 561 100 Q 588 128 664 244 Q 683 275 716 312 Q 735 324 726 336 Q 719 355 687 381 Q 672 394 653 390 Q 641 386 646 373 Q 655 309 538 128 Q 528 110 525 97 C 516 68 541 78 561 100 Z" fill="lightgray"></path>
				<path d="M 523 49 Q 566 50 608 54 Q 701 63 834 49 Q 858 46 864 55 Q 871 68 859 80 Q 831 108 787 128 Q 777 132 641 109 Q 623 109 561 100 L 525 97 Q 444 93 337 79 Q 282 72 198 72 Q 185 72 183 61 Q 182 49 201 34 Q 217 21 248 9 Q 258 5 277 13 Q 290 17 350 26 Q 428 42 523 49 Z" fill="lightgray"></path>
</g>
		<text x="40" y="140" font-size="128" fill="#999999">3</text></g>
		<g id="id0:id3:id3" transform="matrix(1.0,0,0,1.0,3072,0.0)">			<g stroke="lightgray" stroke-width="4" transform="scale(4, 4)"> <rect x="0" y="0" width="256" height="256" fill="white" stroke-width="4"/></g>
			<g transform="scale(0.92, -0.92) translate(60, -920)">					<path d="M 525 716 Q 538 735 546 742 Q 555 746 553 759 Q 552 769 539 783 Q 505 817 469 813 Q 459 812 462 797 Q 475 692 294 502 Q 287 496 280 488 Q 226 434 94 333 Q 84 327 96 324 Q 177 336 319 461 Q 398 536 509 694 L 525 716 Z" fill="black"></path>
				<path d="M 509 694 Q 743 439 794 427 Q 857 418 961 435 Q 980 438 981 443 Q 984 450 968 455 Q 758 542 749 546 Q 628 615 528 714 Q 525 715 525 716 C 503 736 489 716 509 694 Z" fill="black"></path>
				<path d="M 381 452 Q 347 446 371 430 Q 410 406 465 419 Q 532 432 602 445 Q 633 452 639 457 Q 648 464 643 473 Q 636 483 608 491 Q 580 497 550 486 Q 514 474 475 465 Q 432 456 381 452 Z" fill="black"></path>
				<path d="M 300 250 Q 330 216 360 175 Q 370 162 385 159 Q 395 158 401 169 Q 408 182 405 210 Q 404 234 372 257 Q 299 302 284 299 Q 280 296 278 284 Q 279 274 300 250 Z" fill="red"></path>
				<path d="M 429 319 Q 480 217 500 210 Q 513 206 524 221 Q 530 234 526 256 Q 520 280 496 300 Q 459 334 441 344 Q 432 348 428 337 Q 424 330 429 319 Z" fill="lightgray"></path>
				<path d="M 561 100 Q 588 128 664 244 Q 683 275 716 312 Q 735 324 726 336 Q 719 355 687 381 Q 672 394 653 390 Q 641 386 646 373 Q 655 309 538 128 Q 528 110 525 97 C 516 68 541 78 561 100 Z" fill="lightgray"></path>
				<path d="M 523 49 Q 566 50 608 54 Q 701 63 834 49 Q 858 46 864 55 Q 871 68 859 80 Q 831 108 787 128 Q 777 132 641 109 Q 623 109 561 100 L 525 97 Q 444 93 337 79 Q 282 72 198 72 Q 185 72 183 61 Q 182 49 201 34 Q 217 21 248 9 Q 258 5 277 13 Q 290 17 350 26 Q 428 42 523 49 Z" fill="lightgray"></path>
</g>
		<text x="40" y="140" font-size="128" fill="#999999">4</text></g>
		<g id="id0:id4:id4" transform="matrix(1.0,0,0,1.0,4096,0.0)">			<g stroke="lightgray" stroke-width="4" transform="scale(4, 4)"> <rect x="0" y="0" width="256" height="256" fill="white" stroke-width="4"/></g>
			<g transform="scale(0.92, -0.92) translate(60, -920)">					<path d="M 525 716 Q 538 735 546 742 Q 555 746 553 759 Q 552 769 539 783 Q 505 817 469 813 Q 459 812 462 797 Q 475 692 294 502 Q 287 496 280 488 Q 226 434 94 333 Q 84 327 96 324 Q 177 336 319 461 Q 398 536 509 694 L 525 716 Z" fill="black"></path>
				<path d="M 509 694 Q 743 439 794 427 Q 857 418 961 435 Q 980 438 981 443 Q 984 450 968 455 Q 758 542 749 546 Q 628 615 528 714 Q 525 715 525 716 C 503 736 489 716 509 694 Z" fill="black"></path>
				<path d="M 381 452 Q 347 446 371 430 Q 410 406 465 419 Q 532 432 602 445 Q 633 452 639 457 Q 648 464 643 473 Q 636 483 608 491 Q 580 497 550 486 Q 514 474 475 465 Q 432 456 381 452 Z" fill="black"></path>
				<path d="M 300 250 Q 330 216 360 175 Q 370 162 385 159 Q 395 158 401 169 Q 408 182 405 210 Q 404 234 372 257 Q 299 302 284 299 Q 280 296 278 284 Q 279 274 300 250 Z" fill="black"></path>
				<path d="M 429 319 Q 480 217 500 210 Q 513 206 524 221 Q 530 234 526 256 Q 520 280 496 300 Q 459 334 441 344 Q 432 348 428 337 Q 424 330 429 319 Z" fill="red"></path>
				<path d="M 561 100 Q 588 128 664 244 Q 683 275 716 312 Q 735 324 726 336 Q 719 355 687 381 Q 672 394 653 390 Q 641 386 646 373 Q 655 309 538 128 Q 528 110 525 97 C 516 68 541 78 561 100 Z" fill="lightgray"></path>
				<path d="M 523 49 Q 566 50 608 54 Q 701 63 834 49 Q 858 46 864 55 Q 871 68 859 80 Q 831 108 787 128 Q 777 132 641 109 Q 623 109 561 100 L 525 97 Q 444 93 337 79 Q 282 72 198 72 Q 185 72 183 61 Q 182 49 201 34 Q 217 21 248 9 Q 258 5 277 13 Q 290 17 350 26 Q 428 42 523 49 Z" fill="lightgray"></path>
</g>
		<text x="40" y="140" font-size="128" fill="#999999">5</text></g>
</g>
	<g id="id1:id1" transform="translate(0.0,1024)">
		<g id="id1:id0:id0" transform="matrix(1.0,0,0,1.0,0,0.0)">			<g stroke="lightgray" stroke-width="4" transform="scale(4, 4)"> <rect x="0" y="0" width="256" height="256" fill="white" stroke-width="4"/></g>
			<g transform="scale(0.92, -0.92) translate(60, -920)">					<path d="M 525 716 Q 538 735 546 742 Q 555 746 553 759 Q 552 769 539 783 Q 505 817 469 813 Q 459 812 462 797 Q 475 692 294 502 Q 287 496 280 488 Q 226 434 94 333 Q 84 327 96 324 Q 177 336 319 461 Q 398 536 509 694 L 525 716 Z" fill="black"></path>
				<path d="M 509 694 Q 743 439 794 427 Q 857 418 961 435 Q 980 438 981 443 Q 984 450 968 455 Q 758 542 749 546 Q 628 615 528 714 Q 525 715 525 716 C 503 736 489 716 509 694 Z" fill="black"></path>
				<path d="M 381 452 Q 347 446 371 430 Q 410 406 465 419 Q 532 432 602 445 Q 633 452 639 457 Q 648 464 643 473 Q 636 483 608 491 Q 580 497 550 486 Q 514 474 475 465 Q 432 456 381 452 Z" fill="black"></path>
				<path d="M 300 250 Q 330 216 360 175 Q 370 162 385 159 Q 395 158 401 169 Q 408 182 405 210 Q 404 234 372 257 Q 299 302 284 299 Q 280 296 278 284 Q 279 274 300 250 Z" fill="black"></path>
				<path d="M 429 319 Q 480 217 500 210 Q 513 206 524 221 Q 530 234 526 256 Q 520 280 496 300 Q 459 334 441 344 Q 432 348 428 337 Q 424 330 429 319 Z" fill="black"></path>
				<path d="M 561 100 Q 588 128 664 244 Q 683 275 716 312 Q 735 324 726 336 Q 719 355 687 381 Q 672 394 653 390 Q 641 386 646 373 Q 655 309 538 128 Q 528 110 525 97 C 516 68 541 78 561 100 Z" fill="red"></path>
				<path d="M 523 49 Q 566 50 608 54 Q 701 63 834 49 Q 858 46 864 55 Q 871 68 859 80 Q 831 108 787 128 Q 777 132 641 109 Q 623 109 561 100 L 525 97 Q 444 93 337 79 Q 282 72 198 72 Q 185 72 183 61 Q 182 49 201 34 Q 217 21 248 9 Q 258 5 277 13 Q 290 17 350 26 Q 428 42 523 49 Z" fill="lightgray"></path>
</g>
		<text x="40" y="140" font-size="128" fill="#999999">6</text></g>
		<g id="id1:id1:id1" transform="matrix(1.0,0,0,1.0,1024,0.0)">			<g stroke="lightgray" stroke-width="4" transform="scale(4, 4)"> <rect x="0" y="0" width="256" height="256" fill="white" stroke-width="4"/></g>
			<g transform="scale(0.92, -0.92) translate(60, -920)">					<path d="M 525 716 Q 538 735 546 742 Q 555 746 553 759 Q 552 769 539 783 Q 505 817 469 813 Q 459 812 462 797 Q 475 692 294 502 Q 287 496 280 488 Q 226 434 94 333 Q 84 327 96 324 Q 177 336 319 461 Q 398 536 509 694 L 525 716 Z" fill="black"></path>
				<path d="M 509 694 Q 743 439 794 427 Q 857 418 961 435 Q 980 438 981 443 Q 984 450 968 455 Q 758 542 749 546 Q 628 615 528 714 Q 525 715 525 716 C 503 736 489 716 509 694 Z" fill="black"></path>
				<path d="M 381 452 Q 347 446 371 430 Q 410 406 465 419 Q 532 432 602 445 Q 633 452 639 457 Q 648 464 643 473 Q 636 483 608 491 Q 580 497 550 486 Q 514 474 475 465 Q 432 456 381 452 Z" fill="black"></path>
				<path d="M 300 250 Q 330 216 360 175 Q 370 162 385 159 Q 395 158 401 169 Q 408 182 405 210 Q 404 234 372 257 Q 299 302 284 299 Q 280 296 278 284 Q 279 274 300 250 Z" fill="black"></path>
				<path d="M 429 319 Q 480 217 500 210 Q 513 206 524 221 Q 530 234 526 256 Q 520 280 496 300 Q 459 334 441 344 Q 432 348 428 337 Q 424 330 429 319 Z" fill="black"></path>
				<path d="M 561 100 Q 588 128 664 244 Q 683 275 716 312 Q 735 324 726 336 Q 719 355 687 381 Q 672 394 653 390 Q 641 386 646 373 Q 655 309 538 128 Q 528 110 525 97 C 516 68 541 78 561 100 Z" fill="black"></path>
				<path d="M 523 49 Q 566 50 608 54 Q 701 63 834 49 Q 858 46 864 55 Q 871 68 859 80 Q 831 108 787 128 Q 777 132 641 109 Q 623 109 561 100 L 525 97 Q 444 93 337 79 Q 282 72 198 72 Q 185 72 183 61 Q 182 49 201 34 Q 217 21 248 9 Q 258 5 277 13 Q 290 17 350 26 Q 428 42 523 49 Z" fill="red"></path>
</g>
		<text x="40" y="140" font-size="128" fill="#999999">7</text></g>
		<g id="id1:id2:id2" transform="matrix(1.0,0,0,1.0,2048,0.0)">			<g stroke="white" stroke-width="4" transform="scale(4, 4)"> <rect x="1" y="1" width="255" height="255" fill="white" stroke-width="0"/></g>
</g>
		<g id="id1:id3:id3" transform="matrix(1.0,0,0,1.0,3072,0.0)">			<g stroke="white" stroke-width="4" transform="scale(4, 4)"> <rect x="1" y="1" width="255" height="255" fill="white" stroke-width="0"/></g>
</g>
		<g id="id1:id4:id4" transform="matrix(1.0,0,0,1.0,4096,0.0)">			<g stroke="white" stroke-width="4" transform="scale(4, 4)"> <rect x="1" y="1" width="255" height="255" fill="white" stroke-width="0"/></g>
</g>
</g>
</svg>
