<?xml version="1.0" standalone="no"?>
<!DOCTYPE svg PUBLIC "-//W3C//DTD SVG 1.1//EN"
 "http://www.w3.org/Graphics/SVG/1.1/DTD/svg11.dtd">
<!-- generate by Handict dictionary app com.asnsami.handict -->

<svg xmlns="http://www.w3.org/2000/svg" xmlns:sodipodi="http://sodipodi.sourceforge.net/DTD/sodipodi-0.dtd" version="1.1" width="640" height="256" viewBox="0 0 5120 2048">
	<g id="id0:id0" transform="translate(0.0,0)">
		<g id="id0:id0:id0" transform="matrix(1.0,0,0,1.0,0,0.0)">			<g stroke="lightgray" stroke-width="4" transform="scale(4, 4)"> <rect x="0" y="0" width="256" height="256" fill="white" stroke-width="4"/></g>
			<g transform="scale(0.92, -0.92) translate(60, -920)">					<path d="M 247 505 Q 296 568 349 650 Q 380 704 407 729 Q 417 741 412 756 Q 408 769 377 796 Q 347 817 327 817 Q 306 816 315 790 Q 330 754 316 725 Q 273 625 208 532 Q 145 444 60 346 Q 48 334 46 328 Q 42 315 58 318 Q 97 321 213 464 Q 217 470 224 477 L 247 505 Z" fill="red"></path>
				<path d="M 224 477 Q 245 413 250 366 Q 249 345 249 322 Q 249 220 222 115 Q 212 70 246 19 Q 247 19 249 16 Q 267 0 279 27 Q 294 67 293 114 Q 293 361 301 416 Q 308 443 299 454 Q 254 502 247 505 C 224 524 215 506 224 477 Z" fill="lightgray"></path>
				<path d="M 723 636 Q 632 624 536 602 Q 526 599 523 602 Q 522 606 526 615 Q 623 747 644 769 Q 656 779 650 791 Q 643 803 596 826 Q 580 833 570 829 Q 558 823 564 803 Q 582 748 493 638 Q 471 614 436 589 Q 423 577 426 567 Q 432 551 456 530 Q 466 520 480 530 Q 525 563 728 611 Q 731 612 739 613 C 768 619 753 640 723 636 Z" fill="lightgray"></path>
				<path d="M 739 613 Q 775 559 789 557 Q 798 556 805 565 Q 812 577 811 603 Q 811 628 780 656 Q 708 710 692 707 Q 688 704 686 693 L 723 636 L 739 613 Z" fill="lightgray"></path>
				<path d="M 513 420 Q 519 432 549 473 Q 556 485 544 496 Q 511 523 486 520 Q 476 519 478 505 Q 490 445 417 350 Q 411 344 409 338 Q 402 325 415 330 Q 445 334 499 400 L 513 420 Z" fill="lightgray"></path>
				<path d="M 604 392 Q 769 435 772 437 Q 779 444 775 453 Q 768 463 740 470 Q 718 473 616 441 Q 550 426 513 420 C 483 415 473 413 499 400 Q 500 400 503 398 Q 524 386 565 385 L 604 392 Z" fill="lightgray"></path>
				<path d="M 623 254 Q 731 272 869 272 Q 888 273 893 282 Q 897 294 881 306 Q 826 345 758 322 Q 704 310 632 294 L 576 283 Q 476 267 359 246 Q 340 243 355 227 Q 368 214 386 210 Q 407 206 422 211 Q 491 233 569 245 L 623 254 Z" fill="lightgray"></path>
				<path d="M 632 294 Q 642 348 646 355 Q 653 361 647 371 Q 641 380 604 392 C 576 402 556 409 565 385 Q 583 343 576 283 L 569 245 Q 550 146 440 75 Q 409 59 364 36 Q 342 26 368 24 Q 435 21 526 82 Q 541 95 556 113 Q 596 161 615 226 L 632 294 Z" fill="lightgray"></path>
				<path d="M 615 226 Q 684 126 773 17 Q 792 -2 820 1 Q 919 7 950 14 Q 959 15 960 21 Q 961 25 948 33 Q 813 87 739 149 Q 685 195 623 254 L 622 254 C 599 273 598 251 615 226 Z" fill="lightgray"></path>
</g>
		<text x="40" y="140" font-size="128" fill="#999999">1</text></g>
		<g id="id0:id1:id1" transform="matrix(1.0,0,0,1.0,1024,0.0)">			<g stroke="lightgray" stroke-width="4" transform="scale(4, 4)"> <rect x="0" y="0" width="256" height="256" fill="white" stroke-width="4"/></g>
			<g transform="scale(0.92, -0.92) translate(60, -920)">					<path d="M 247 505 Q 296 568 349 650 Q 380 704 407 729 Q 417 741 412 756 Q 408 769 377 796 Q 347 817 327 817 Q 306 816 315 790 Q 330 754 316 725 Q 273 625 208 532 Q 145 444 60 346 Q 48 334 46 328 Q 42 315 58 318 Q 97 321 213 464 Q 217 470 224 477 L 247 505 Z" fill="black"></path>
				<path d="M 224 477 Q 245 413 250 366 Q 249 345 249 322 Q 249 220 222 115 Q 212 70 246 19 Q 247 19 249 16 Q 267 0 279 27 Q 294 67 293 114 Q 293 361 301 416 Q 308 443 299 454 Q 254 502 247 505 C 224 524 215 506 224 477 Z" fill="red"></path>
				<path d="M 723 636 Q 632 624 536 602 Q 526 599 523 602 Q 522 606 526 615 Q 623 747 644 769 Q 656 779 650 791 Q 643 803 596 826 Q 580 833 570 829 Q 558 823 564 803 Q 582 748 493 638 Q 471 614 436 589 Q 423 577 426 567 Q 432 551 456 530 Q 466 520 480 530 Q 525 563 728 611 Q 731 612 739 613 C 768 619 753 640 723 636 Z" fill="lightgray"></path>
				<path d="M 739 613 Q 775 559 789 557 Q 798 556 805 565 Q 812 577 811 603 Q 811 628 780 656 Q 708 710 692 707 Q 688 704 686 693 L 723 636 L 739 613 Z" fill="lightgray"></path>
				<path d="M 513 420 Q 519 432 549 473 Q 556 485 544 496 Q 511 523 486 520 Q 476 519 478 505 Q 490 445 417 350 Q 411 344 409 338 Q 402 325 415 330 Q 445 334 499 400 L 513 420 Z" fill="lightgray"></path>
				<path d="M 604 392 Q 769 435 772 437 Q 779 444 775 453 Q 768 463 740 470 Q 718 473 616 441 Q 550 426 513 420 C 483 415 473 413 499 400 Q 500 400 503 398 Q 524 386 565 385 L 604 392 Z" fill="lightgray"></path>
				<path d="M 623 254 Q 731 272 869 272 Q 888 273 893 282 Q 897 294 881 306 Q 826 345 758 322 Q 704 310 632 294 L 576 283 Q 476 267 359 246 Q 340 243 355 227 Q 368 214 386 210 Q 407 206 422 211 Q 491 233 569 245 L 623 254 Z" fill="lightgray"></path>
				<path d="M 632 294 Q 642 348 646 355 Q 653 361 647 371 Q 641 380 604 392 C 576 402 556 409 565 385 Q 583 343 576 283 L 569 245 Q 550 146 440 75 Q 409 59 364 36 Q 342 26 368 24 Q 435 21 526 82 Q 541 95 556 113 Q 596 161 615 226 L 632 294 Z" fill="lightgray"></path>
				<path d="M 615 226 Q 684 126 773 17 Q 792 -2 820 1 Q 919 7 950 14 Q 959 15 960 21 Q 961 25 948 33 Q 813 87 739 149 Q 685 195 623 254 L 622 254 C 599 273 598 251 615 226 Z" fill="lightgray"></path>
</g>
		<text x="40" y="140" font-size="128" fill="#999999">2</text></g>
		<g id="id0:id2:id2" transform="matrix(1.0,0,0,1.0,2048,0.0)">			<g stroke="lightgray" stroke-width="4" transform="scale(4, 4)"> <rect x="0" y="0" width="256" height="256" fill="white" stroke-width="4"/></g>
			<g transform="scale(0.92, -0.92) translate(60, -920)">					<path d="M 247 505 Q 296 568 349 650 Q 380 704 407 729 Q 417 741 412 756 Q 408 769 377 796 Q 347 817 327 817 Q 306 816 315 790 Q 330 754 316 725 Q 273 625 208 532 Q 145 444 60 346 Q 48 334 46 328 Q 42 315 58 318 Q 97 321 213 464 Q 217 470 224 477 L 247 505 Z" fill="black"></path>
				<path d="M 224 477 Q 245 413 250 366 Q 249 345 249 322 Q 249 220 222 115 Q 212 70 246 19 Q 247 19 249 16 Q 267 0 279 27 Q 294 67 293 114 Q 293 361 301 416 Q 308 443 299 454 Q 254 502 247 505 C 224 524 215 506 224 477 Z" fill="black"></path>
				<path d="M 723 636 Q 632 624 536 602 Q 526 599 523 602 Q 522 606 526 615 Q 623 747 644 769 Q 656 779 650 791 Q 643 803 596 826 Q 580 833 570 829 Q 558 823 564 803 Q 582 748 493 638 Q 471 614 436 589 Q 423 577 426 567 Q 432 551 456 530 Q 466 520 480 530 Q 525 563 728 611 Q 731 612 739 613 C 768 619 753 640 723 636 Z" fill="red"></path>
				<path d="M 739 613 Q 775 559 789 557 Q 798 556 805 565 Q 812 577 811 603 Q 811 628 780 656 Q 708 710 692 707 Q 688 704 686 693 L 723 636 L 739 613 Z" fill="lightgray"></path>
				<path d="M 513 420 Q 519 432 549 473 Q 556 485 544 496 Q 511 523 486 520 Q 476 519 478 505 Q 490 445 417 350 Q 411 344 409 338 Q 402 325 415 330 Q 445 334 499 400 L 513 420 Z" fill="lightgray"></path>
				<path d="M 604 392 Q 769 435 772 437 Q 779 444 775 453 Q 768 463 740 470 Q 718 473 616 441 Q 550 426 513 420 C 483 415 473 413 499 400 Q 500 400 503 398 Q 524 386 565 385 L 604 392 Z" fill="lightgray"></path>
				<path d="M 623 254 Q 731 272 869 272 Q 888 273 893 282 Q 897 294 881 306 Q 826 345 758 322 Q 704 310 632 294 L 576 283 Q 476 267 359 246 Q 340 243 355 227 Q 368 214 386 210 Q 407 206 422 211 Q 491 233 569 245 L 623 254 Z" fill="lightgray"></path>
				<path d="M 632 294 Q 642 348 646 355 Q 653 361 647 371 Q 641 380 604 392 C 576 402 556 409 565 385 Q 583 343 576 283 L 569 245 Q 550 146 440 75 Q 409 59 364 36 Q 342 26 368 24 Q 435 21 526 82 Q 541 95 556 113 Q 596 161 615 226 L 632 294 Z" fill="lightgray"></path>
				<path d="M 615 226 Q 684 126 773 17 Q 792 -2 820 1 Q 919 7 950 14 Q 959 15 960 21 Q 961 25 948 33 Q 813 87 739 149 Q 685 195 623 254 L 622 254 C 599 273 598 251 615 226 Z" fill="lightgray"></path>
</g>
		<text x="40" y="140" font-size="128" fill="#999999">3</text></g>
		<g id="id0:id3:id3" transform="matrix(1.0,0,0,1.0,3072,0.0)">			<g stroke="lightgray" stroke-width="4" transform="scale(4, 4)"> <rect x="0" y="0" width="256" height="256" fill="white" stroke-width="4"/></g>
			<g transform="scale(0.92, -0.92) translate(60, -920)">					<path d="M 247 505 Q 296 568 349 650 Q 380 704 407 729 Q 417 741 412 756 Q 408 769 377 796 Q 347 817 327 817 Q 306 816 315 790 Q 330 754 316 725 Q 273 625 208 532 Q 145 444 60 346 Q 48 334 46 328 Q 42 315 58 318 Q 97 321 213 464 Q 217 470 224 477 L 247 505 Z" fill="black"></path>
				<path d="M 224 477 Q 245 413 250 366 Q 249 345 249 322 Q 249 220 222 115 Q 212 70 246 19 Q 247 19 249 16 Q 267 0 279 27 Q 294 67 293 114 Q 293 361 301 416 Q 308 443 299 454 Q 254 502 247 505 C 224 524 215 506 224 477 Z" fill="black"></path>
				<path d="M 723 636 Q 632 624 536 602 Q 526 599 523 602 Q 522 606 526 615 Q 623 747 644 769 Q 656 779 650 791 Q 643 803 596 826 Q 580 833 570 829 Q 558 823 564 803 Q 582 748 493 638 Q 471 614 436 589 Q 423 577 426 567 Q 432 551 456 530 Q 466 520 480 530 Q 525 563 728 611 Q 731 612 739 613 C 768 619 753 640 723 636 Z" fill="black"></path>
				<path d="M 739 613 Q 775 559 789 557 Q 798 556 805 565 Q 812 577 811 603 Q 811 628 780 656 Q 708 710 692 707 Q 688 704 686 693 L 723 636 L 739 613 Z" fill="red"></path>
				<path d="M 513 420 Q 519 432 549 473 Q 556 485 544 496 Q 511 523 486 520 Q 476 519 478 505 Q 490 445 417 350 Q 411 344 409 338 Q 402 325 415 330 Q 445 334 499 400 L 513 420 Z" fill="lightgray"></path>
				<path d="M 604 392 Q 769 435 772 437 Q 779 444 775 453 Q 768 463 740 470 Q 718 473 616 441 Q 550 426 513 420 C 483 415 473 413 499 400 Q 500 400 503 398 Q 524 386 565 385 L 604 392 Z" fill="lightgray"></path>
				<path d="M 623 254 Q 731 272 869 272 Q 888 273 893 282 Q 897 294 881 306 Q 826 345 758 322 Q 704 310 632 294 L 576 283 Q 476 267 359 246 Q 340 243 355 227 Q 368 214 386 210 Q 407 206 422 211 Q 491 233 569 245 L 623 254 Z" fill="lightgray"></path>
				<path d="M 632 294 Q 642 348 646 355 Q 653 361 647 371 Q 641 380 604 392 C 576 402 556 409 565 385 Q 583 343 576 283 L 569 245 Q 550 146 440 75 Q 409 59 364 36 Q 342 26 368 24 Q 435 21 526 82 Q 541 95 556 113 Q 596 161 615 226 L 632 294 Z" fill="lightgray"></path>
				<path d="M 615 226 Q 684 126 773 17 Q 792 -2 820 1 Q 919 7 950 14 Q 959 15 960 21 Q 961 25 948 33 Q 813 87 739 149 Q 685 195 623 254 L 622 254 C 599 273 598 251 615 226 Z" fill="lightgray"></path>
</g>
		<text x="40" y="140" font-size="128" fill="#999999">4</text></g>
		<g id="id0:id4:id4" transform="matrix(1.0,0,0,1.0,4096,0.0)">			<g stroke="lightgray" stroke-width="4" transform="scale(4, 4)"> <rect x="0" y="0" width="256" height="256" fill="white" stroke-width="4"/></g>
			<g transform="scale(0.92, -0.92) translate(60, -920)">					<path d="M 247 505 Q 296 568 349 650 Q 380 704 407 729 Q 417 741 412 756 Q 408 769 377 796 Q 347 817 327 817 Q 306 816 315 790 Q 330 754 316 725 Q 273 625 208 532 Q 145 444 60 346 Q 48 334 46 328 Q 42 315 58 318 Q 97 321 213 464 Q 217 470 224 477 L 247 505 Z" fill="black"></path>
				<path d="M 224 477 Q 245 413 250 366 Q 249 345 249 322 Q 249 220 222 115 Q 212 70 246 19 Q 247 19 249 16 Q 267 0 279 27 Q 294 67 293 114 Q 293 361 301 416 Q 308 443 299 454 Q 254 502 247 505 C 224 524 215 506 224 477 Z" fill="black"></path>
				<path d="M 723 636 Q 632 624 536 602 Q 526 599 523 602 Q 522 606 526 615 Q 623 747 644 769 Q 656 779 650 791 Q 643 803 596 826 Q 580 833 570 829 Q 558 823 564 803 Q 582 748 493 638 Q 471 614 436 589 Q 423 577 426 567 Q 432 551 456 530 Q 466 520 480 530 Q 525 563 728 611 Q 731 612 739 613 C 768 619 753 640 723 636 Z" fill="black"></path>
				<path d="M 739 613 Q 775 559 789 557 Q 798 556 805 565 Q 812 577 811 603 Q 811 628 780 656 Q 708 710 692 707 Q 688 704 686 693 L 723 636 L 739 613 Z" fill="black"></path>
				<path d="M 513 420 Q 519 432 549 473 Q 556 485 544 496 Q 511 523 486 520 Q 476 519 478 505 Q 490 445 417 350 Q 411 344 409 338 Q 402 325 415 330 Q 445 334 499 400 L 513 420 Z" fill="red"></path>
				<path d="M 604 392 Q 769 435 772 437 Q 779 444 775 453 Q 768 463 740 470 Q 718 473 616 441 Q 550 426 513 420 C 483 415 473 413 499 400 Q 500 400 503 398 Q 524 386 565 385 L 604 392 Z" fill="lightgray"></path>
				<path d="M 623 254 Q 731 272 869 272 Q 888 273 893 282 Q 897 294 881 306 Q 826 345 758 322 Q 704 310 632 294 L 576 283 Q 476 267 359 246 Q 340 243 355 227 Q 368 214 386 210 Q 407 206 422 211 Q 491 233 569 245 L 623 254 Z" fill="lightgray"></path>
				<path d="M 632 294 Q 642 348 646 355 Q 653 361 647 371 Q 641 380 604 392 C 576 402 556 409 565 385 Q 583 343 576 283 L 569 245 Q 550 146 440 75 Q 409 59 364 36 Q 342 26 368 24 Q 435 21 526 82 Q 541 95 556 113 Q 596 161 615 226 L 632 294 Z" fill="lightgray"></path>
				<path d="M 615 226 Q 684 126 773 17 Q 792 -2 820 1 Q 919 7 950 14 Q 959 15 960 21 Q 961 25 948 33 Q 813 87 739 149 Q 685 195 623 254 L 622 254 C 599 273 598 251 615 226 Z" fill="lightgray"></path>
</g>
		<text x="40" y="140" font-size="128" fill="#999999">5</text></g>
</g>
	<g id="id1:id1" transform="translate(0.0,1024)">
		<g id="id1:id0:id0" transform="matrix(1.0,0,0,1.0,0,0.0)">			<g stroke="lightgray" stroke-width="4" transform="scale(4, 4)"> <rect x="0" y="0" width="256" height="256" fill="white" stroke-width="4"/></g>
			<g transform="scale(0.92, -0.92) translate(60, -920)">					<path d="M 247 505 Q 296 568 349 650 Q 380 704 407 729 Q 417 741 412 756 Q 408 769 377 796 Q 347 817 327 817 Q 306 816 315 790 Q 330 754 316 725 Q 273 625 208 532 Q 145 444 60 346 Q 48 334 46 328 Q 42 315 58 318 Q 97 321 213 464 Q 217 470 224 477 L 247 505 Z" fill="black"></path>
				<path d="M 224 477 Q 245 413 250 366 Q 249 345 249 322 Q 249 220 222 115 Q 212 70 246 19 Q 247 19 249 16 Q 267 0 279 27 Q 294 67 293 114 Q 293 361 301 416 Q 308 443 299 454 Q 254 502 247 505 C 224 524 215 506 224 477 Z" fill="black"></path>
				<path d="M 723 636 Q 632 624 536 602 Q 526 599 523 602 Q 522 606 526 615 Q 623 747 644 769 Q 656 779 650 791 Q 643 803 596 826 Q 580 833 570 829 Q 558 823 564 803 Q 582 748 493 638 Q 471 614 436 589 Q 423 577 426 567 Q 432 551 456 530 Q 466 520 480 530 Q 525 563 728 611 Q 731 612 739 613 C 768 619 753 640 723 636 Z" fill="black"></path>
				<path d="M 739 613 Q 775 559 789 557 Q 798 556 805 565 Q 812 577 811 603 Q 811 628 780 656 Q 708 710 692 707 Q 688 704 686 693 L 723 636 L 739 613 Z" fill="black"></path>
				<path d="M 513 420 Q 519 432 549 473 Q 556 485 544 496 Q 511 523 486 520 Q 476 519 478 505 Q 490 445 417 350 Q 411 344 409 338 Q 402 325 415 330 Q 445 334 499 400 L 513 420 Z" fill="black"></path>
				<path d="M 604 392 Q 769 435 772 437 Q 779 444 775 453 Q 768 463 740 470 Q 718 473 616 441 Q 550 426 513 420 C 483 415 473 413 499 400 Q 500 400 503 398 Q 524 386 565 385 L 604 392 Z" fill="red"></path>
				<path d="M 623 254 Q 731 272 869 272 Q 888 273 893 282 Q 897 294 881 306 Q 826 345 758 322 Q 704 310 632 294 L 576 283 Q 476 267 359 246 Q 340 243 355 227 Q 368 214 386 210 Q 407 206 422 211 Q 491 233 569 245 L 623 254 Z" fill="lightgray"></path>
				<path d="M 632 294 Q 642 348 646 355 Q 653 361 647 371 Q 641 380 604 392 C 576 402 556 409 565 385 Q 583 343 576 283 L 569 245 Q 550 146 440 75 Q 409 59 364 36 Q 342 26 368 24 Q 435 21 526 82 Q 541 95 556 113 Q 596 161 615 226 L 632 294 Z" fill="lightgray"></path>
				<path d="M 615 226 Q 684 126 773 17 Q 792 -2 820 1 Q 919 7 950 14 Q 959 15 960 21 Q 961 25 948 33 Q 813 87 739 149 Q 685 195 623 254 L 622 254 C 599 273 598 251 615 226 Z" fill="lightgray"></path>
</g>
		<text x="40" y="140" font-size="128" fill="#999999">6</text></g>
		<g id="id1:id1:id1" transform="matrix(1.0,0,0,1.0,1024,0.0)">			<g stroke="lightgray" stroke-width="4" transform="scale(4, 4)"> <rect x="0" y="0" width="256" height="256" fill="white" stroke-width="4"/></g>
			<g transform="scale(0.92, -0.92) translate(60, -920)">					<path d="M 247 505 Q 296 568 349 650 Q 380 704 407 729 Q 417 741 412 756 Q 408 769 377 796 Q 347 817 327 817 Q 306 816 315 790 Q 330 754 316 725 Q 273 625 208 532 Q 145 444 60 346 Q 48 334 46 328 Q 42 315 58 318 Q 97 321 213 464 Q 217 470 224 477 L 247 505 Z" fill="black"></path>
				<path d="M 224 477 Q 245 413 250 366 Q 249 345 249 322 Q 249 220 222 115 Q 212 70 246 19 Q 247 19 249 16 Q 267 0 279 27 Q 294 67 293 114 Q 293 361 301 416 Q 308 443 299 454 Q 254 502 247 505 C 224 524 215 506 224 477 Z" fill="black"></path>
				<path d="M 723 636 Q 632 624 536 602 Q 526 599 523 602 Q 522 606 526 615 Q 623 747 644 769 Q 656 779 650 791 Q 643 803 596 826 Q 580 833 570 829 Q 558 823 564 803 Q 582 748 493 638 Q 471 614 436 589 Q 423 577 426 567 Q 432 551 456 530 Q 466 520 480 530 Q 525 563 728 611 Q 731 612 739 613 C 768 619 753 640 723 636 Z" fill="black"></path>
				<path d="M 739 613 Q 775 559 789 557 Q 798 556 805 565 Q 812 577 811 603 Q 811 628 780 656 Q 708 710 692 707 Q 688 704 686 693 L 723 636 L 739 613 Z" fill="black"></path>
				<path d="M 513 420 Q 519 432 549 473 Q 556 485 544 496 Q 511 523 486 520 Q 476 519 478 505 Q 490 445 417 350 Q 411 344 409 338 Q 402 325 415 330 Q 445 334 499 400 L 513 420 Z" fill="black"></path>
				<path d="M 604 392 Q 769 435 772 437 Q 779 444 775 453 Q 768 463 740 470 Q 718 473 616 441 Q 550 426 513 420 C 483 415 473 413 499 400 Q 500 400 503 398 Q 524 386 565 385 L 604 392 Z" fill="black"></path>
				<path d="M 623 254 Q 731 272 869 272 Q 888 273 893 282 Q 897 294 881 306 Q 826 345 758 322 Q 704 310 632 294 L 576 283 Q 476 267 359 246 Q 340 243 355 227 Q 368 214 386 210 Q 407 206 422 211 Q 491 233 569 245 L 623 254 Z" fill="red"></path>
				<path d="M 632 294 Q 642 348 646 355 Q 653 361 647 371 Q 641 380 604 392 C 576 402 556 409 565 385 Q 583 343 576 283 L 569 245 Q 550 146 440 75 Q 409 59 364 36 Q 342 26 368 24 Q 435 21 526 82 Q 541 95 556 113 Q 596 161 615 226 L 632 294 Z" fill="lightgray"></path>
				<path d="M 615 226 Q 684 126 773 17 Q 792 -2 820 1 Q 919 7 950 14 Q 959 15 960 21 Q 961 25 948 33 Q 813 87 739 149 Q 685 195 623 254 L 622 254 C 599 273 598 251 615 226 Z" fill="lightgray"></path>
</g>
		<text x="40" y="140" font-size="128" fill="#999999">7</text></g>
		<g id="id1:id2:id2" transform="matrix(1.0,0,0,1.0,2048,0.0)">			<g stroke="lightgray" stroke-width="4" transform="scale(4, 4)"> <rect x="0" y="0" width="256" height="256" fill="white" stroke-width="4"/></g>
			<g transform="scale(0.92, -0.92) translate(60, -920)">					<path d="M 247 505 Q 296 568 349 650 Q 380 704 407 729 Q 417 741 412 756 Q 408 769 377 796 Q 347 817 327 817 Q 306 816 315 790 Q 330 754 316 725 Q 273 625 208 532 Q 145 444 60 346 Q 48 334 46 328 Q 42 315 58 318 Q 97 321 213 464 Q 217 470 224 477 L 247 505 Z" fill="black"></path>
				<path d="M 224 477 Q 245 413 250 366 Q 249 345 249 322 Q 249 220 222 115 Q 212 70 246 19 Q 247 19 249 16 Q 267 0 279 27 Q 294 67 293 114 Q 293 361 301 416 Q 308 443 299 454 Q 254 502 247 505 C 224 524 215 506 224 477 Z" fill="black"></path>
				<path d="M 723 636 Q 632 624 536 602 Q 526 599 523 602 Q 522 606 526 615 Q 623 747 644 769 Q 656 779 650 791 Q 643 803 596 826 Q 580 833 570 829 Q 558 823 564 803 Q 582 748 493 638 Q 471 614 436 589 Q 423 577 426 567 Q 432 551 456 530 Q 466 520 480 530 Q 525 563 728 611 Q 731 612 739 613 C 768 619 753 640 723 636 Z" fill="black"></path>
				<path d="M 739 613 Q 775 559 789 557 Q 798 556 805 565 Q 812 577 811 603 Q 811 628 780 656 Q 708 710 692 707 Q 688 704 686 693 L 723 636 L 739 613 Z" fill="black"></path>
				<path d="M 513 420 Q 519 432 549 473 Q 556 485 544 496 Q 511 523 486 520 Q 476 519 478 505 Q 490 445 417 350 Q 411 344 409 338 Q 402 325 415 330 Q 445 334 499 400 L 513 420 Z" fill="black"></path>
				<path d="M 604 392 Q 769 435 772 437 Q 779 444 775 453 Q 768 463 740 470 Q 718 473 616 441 Q 550 426 513 420 C 483 415 473 413 499 400 Q 500 400 503 398 Q 524 386 565 385 L 604 392 Z" fill="black"></path>
				<path d="M 623 254 Q 731 272 869 272 Q 888 273 893 282 Q 897 294 881 306 Q 826 345 758 322 Q 704 310 632 294 L 576 283 Q 476 267 359 246 Q 340 243 355 227 Q 368 214 386 210 Q 407 206 422 211 Q 491 233 569 245 L 623 254 Z" fill="black"></path>
				<path d="M 632 294 Q 642 348 646 355 Q 653 361 647 371 Q 641 380 604 392 C 576 402 556 409 565 385 Q 583 343 576 283 L 569 245 Q 550 146 440 75 Q 409 59 364 36 Q 342 26 368 24 Q 435 21 526 82 Q 541 95 556 113 Q 596 161 615 226 L 632 294 Z" fill="red"></path>
				<path d="M 615 226 Q 684 126 773 17 Q 792 -2 820 1 Q 919 7 950 14 Q 959 15 960 21 Q 961 25 948 33 Q 813 87 739 149 Q 685 195 623 254 L 622 254 C 599 273 598 251 615 226 Z" fill="lightgray"></path>
</g>
		<text x="40" y="140" font-size="128" fill="#999999">8</text></g>
		<g id="id1:id3:id3" transform="matrix(1.0,0,0,1.0,3072,0.0)">			<g stroke="lightgray" stroke-width="4" transform="scale(4, 4)"> <rect x="0" y="0" width="256" height="256" fill="white" stroke-width="4"/></g>
			<g transform="scale(0.92, -0.92) translate(60, -920)">					<path d="M 247 505 Q 296 568 349 650 Q 380 704 407 729 Q 417 741 412 756 Q 408 769 377 796 Q 347 817 327 817 Q 306 816 315 790 Q 330 754 316 725 Q 273 625 208 532 Q 145 444 60 346 Q 48 334 46 328 Q 42 315 58 318 Q 97 321 213 464 Q 217 470 224 477 L 247 505 Z" fill="black"></path>
				<path d="M 224 477 Q 245 413 250 366 Q 249 345 249 322 Q 249 220 222 115 Q 212 70 246 19 Q 247 19 249 16 Q 267 0 279 27 Q 294 67 293 114 Q 293 361 301 416 Q 308 443 299 454 Q 254 502 247 505 C 224 524 215 506 224 477 Z" fill="black"></path>
				<path d="M 723 636 Q 632 624 536 602 Q 526 599 523 602 Q 522 606 526 615 Q 623 747 644 769 Q 656 779 650 791 Q 643 803 596 826 Q 580 833 570 829 Q 558 823 564 803 Q 582 748 493 638 Q 471 614 436 589 Q 423 577 426 567 Q 432 551 456 530 Q 466 520 480 530 Q 525 563 728 611 Q 731 612 739 613 C 768 619 753 640 723 636 Z" fill="black"></path>
				<path d="M 739 613 Q 775 559 789 557 Q 798 556 805 565 Q 812 577 811 603 Q 811 628 780 656 Q 708 710 692 707 Q 688 704 686 693 L 723 636 L 739 613 Z" fill="black"></path>
				<path d="M 513 420 Q 519 432 549 473 Q 556 485 544 496 Q 511 523 486 520 Q 476 519 478 505 Q 490 445 417 350 Q 411 344 409 338 Q 402 325 415 330 Q 445 334 499 400 L 513 420 Z" fill="black"></path>
				<path d="M 604 392 Q 769 435 772 437 Q 779 444 775 453 Q 768 463 740 470 Q 718 473 616 441 Q 550 426 513 420 C 483 415 473 413 499 400 Q 500 400 503 398 Q 524 386 565 385 L 604 392 Z" fill="black"></path>
				<path d="M 623 254 Q 731 272 869 272 Q 888 273 893 282 Q 897 294 881 306 Q 826 345 758 322 Q 704 310 632 294 L 576 283 Q 476 267 359 246 Q 340 243 355 227 Q 368 214 386 210 Q 407 206 422 211 Q 491 233 569 245 L 623 254 Z" fill="black"></path>
				<path d="M 632 294 Q 642 348 646 355 Q 653 361 647 371 Q 641 380 604 392 C 576 402 556 409 565 385 Q 583 343 576 283 L 569 245 Q 550 146 440 75 Q 409 59 364 36 Q 342 26 368 24 Q 435 21 526 82 Q 541 95 556 113 Q 596 161 615 226 L 632 294 Z" fill="black"></path>
				<path d="M 615 226 Q 684 126 773 17 Q 792 -2 820 1 Q 919 7 950 14 Q 959 15 960 21 Q 961 25 948 33 Q 813 87 739 149 Q 685 195 623 254 L 622 254 C 599 273 598 251 615 226 Z" fill="red"></path>
</g>
		<text x="40" y="140" font-size="128" fill="#999999">9</text></g>
		<g id="id1:id4:id4" transform="matrix(1.0,0,0,1.0,4096,0.0)">			<g stroke="white" stroke-width="4" transform="scale(4, 4)"> <rect x="1" y="1" width="255" height="255" fill="white" stroke-width="0"/></g>
</g>
</g>
</svg>
