<?xml version="1.0" standalone="no"?>
<!DOCTYPE svg PUBLIC "-//W3C//DTD SVG 1.1//EN"
 "http://www.w3.org/Graphics/SVG/1.1/DTD/svg11.dtd">
<!-- generate by Handict dictionary app com.asnsami.handict -->

<svg xmlns="http://www.w3.org/2000/svg" xmlns:sodipodi="http://sodipodi.sourceforge.net/DTD/sodipodi-0.dtd" version="1.1" width="640" height="256" viewBox="0 0 5120 2048">
	<g id="id0:id0" transform="translate(0.0,0)">
		<g id="id0:id0:id0" transform="matrix(1.0,0,0,1.0,0,0.0)">			<g stroke="lightgray" stroke-width="4" transform="scale(4, 4)"> <rect x="0" y="0" width="256" height="256" fill="white" stroke-width="4"/></g>
			<g transform="scale(0.92, -0.92) translate(60, -920)">					<path d="M 213 477 Q 265 547 324 645 Q 352 697 377 724 Q 387 734 381 750 Q 377 763 345 787 Q 317 806 296 806 Q 275 803 285 780 Q 301 746 288 716 Q 225 551 55 337 Q 45 327 42 319 Q 38 307 53 310 Q 93 319 190 447 L 213 477 Z" fill="red"></path>
				<path d="M 190 447 Q 212 399 214 332 Q 213 319 213 304 Q 213 207 188 107 Q 176 56 210 17 Q 211 14 214 12 Q 230 -4 242 22 Q 257 62 256 107 Q 256 339 264 391 Q 271 418 262 428 Q 220 473 213 477 C 190 497 178 475 190 447 Z" fill="lightgray"></path>
				<path d="M 669 720 Q 789 747 794 749 Q 803 756 799 764 Q 792 776 764 784 Q 743 790 617 756 Q 547 740 454 731 Q 418 727 443 710 Q 471 691 517 693 L 554 699 Q 593 706 633 713 L 669 720 Z" fill="lightgray"></path>
				<path d="M 517 693 Q 526 674 529 651 Q 530 632 534 461 C 535 431 570 436 571 466 Q 574 563 576 639 Q 579 681 565 691 Q 559 695 554 699 C 530 717 505 721 517 693 Z" fill="lightgray"></path>
				<path d="M 676 484 Q 691 700 690 701 Q 680 711 669 720 C 646 739 619 739 633 713 Q 636 709 638 703 Q 641 691 639 477 C 639 447 674 454 676 484 Z" fill="lightgray"></path>
				<path d="M 420 582 Q 442 561 464 537 Q 474 527 488 526 Q 497 526 501 537 Q 505 549 499 573 Q 495 589 471 603 Q 413 627 400 623 Q 396 619 396 609 Q 399 599 420 582 Z" fill="lightgray"></path>
				<path d="M 763 657 Q 745 623 707 571 Q 703 564 707 559 Q 714 558 720 563 Q 792 621 827 644 Q 842 648 837 658 Q 831 671 814 685 Q 796 700 778 700 Q 765 699 767 683 Q 770 671 763 657 Z" fill="lightgray"></path>
				<path d="M 534 461 Q 513 465 430 452 C 400 447 410 423 439 414 Q 452 407 475 411 Q 688 450 848 463 Q 858 462 868 474 Q 869 486 847 496 Q 816 520 720 494 Q 698 490 676 484 L 639 477 Q 602 471 571 466 L 534 461 Z" fill="lightgray"></path>
				<path d="M 430 452 Q 388 485 367 476 Q 357 469 363 457 Q 375 436 377 380 Q 377 257 346 153 Q 322 77 266 -15 Q 262 -22 259 -27 Q 258 -37 267 -35 Q 303 -29 368 93 Q 369 97 372 101 Q 420 212 430 343 Q 431 392 439 414 C 446 440 446 440 430 452 Z" fill="lightgray"></path>
</g>
		<text x="40" y="140" font-size="128" fill="#999999">1</text></g>
		<g id="id0:id1:id1" transform="matrix(1.0,0,0,1.0,1024,0.0)">			<g stroke="lightgray" stroke-width="4" transform="scale(4, 4)"> <rect x="0" y="0" width="256" height="256" fill="white" stroke-width="4"/></g>
			<g transform="scale(0.92, -0.92) translate(60, -920)">					<path d="M 213 477 Q 265 547 324 645 Q 352 697 377 724 Q 387 734 381 750 Q 377 763 345 787 Q 317 806 296 806 Q 275 803 285 780 Q 301 746 288 716 Q 225 551 55 337 Q 45 327 42 319 Q 38 307 53 310 Q 93 319 190 447 L 213 477 Z" fill="black"></path>
				<path d="M 190 447 Q 212 399 214 332 Q 213 319 213 304 Q 213 207 188 107 Q 176 56 210 17 Q 211 14 214 12 Q 230 -4 242 22 Q 257 62 256 107 Q 256 339 264 391 Q 271 418 262 428 Q 220 473 213 477 C 190 497 178 475 190 447 Z" fill="red"></path>
				<path d="M 669 720 Q 789 747 794 749 Q 803 756 799 764 Q 792 776 764 784 Q 743 790 617 756 Q 547 740 454 731 Q 418 727 443 710 Q 471 691 517 693 L 554 699 Q 593 706 633 713 L 669 720 Z" fill="lightgray"></path>
				<path d="M 517 693 Q 526 674 529 651 Q 530 632 534 461 C 535 431 570 436 571 466 Q 574 563 576 639 Q 579 681 565 691 Q 559 695 554 699 C 530 717 505 721 517 693 Z" fill="lightgray"></path>
				<path d="M 676 484 Q 691 700 690 701 Q 680 711 669 720 C 646 739 619 739 633 713 Q 636 709 638 703 Q 641 691 639 477 C 639 447 674 454 676 484 Z" fill="lightgray"></path>
				<path d="M 420 582 Q 442 561 464 537 Q 474 527 488 526 Q 497 526 501 537 Q 505 549 499 573 Q 495 589 471 603 Q 413 627 400 623 Q 396 619 396 609 Q 399 599 420 582 Z" fill="lightgray"></path>
				<path d="M 763 657 Q 745 623 707 571 Q 703 564 707 559 Q 714 558 720 563 Q 792 621 827 644 Q 842 648 837 658 Q 831 671 814 685 Q 796 700 778 700 Q 765 699 767 683 Q 770 671 763 657 Z" fill="lightgray"></path>
				<path d="M 534 461 Q 513 465 430 452 C 400 447 410 423 439 414 Q 452 407 475 411 Q 688 450 848 463 Q 858 462 868 474 Q 869 486 847 496 Q 816 520 720 494 Q 698 490 676 484 L 639 477 Q 602 471 571 466 L 534 461 Z" fill="lightgray"></path>
				<path d="M 430 452 Q 388 485 367 476 Q 357 469 363 457 Q 375 436 377 380 Q 377 257 346 153 Q 322 77 266 -15 Q 262 -22 259 -27 Q 258 -37 267 -35 Q 303 -29 368 93 Q 369 97 372 101 Q 420 212 430 343 Q 431 392 439 414 C 446 440 446 440 430 452 Z" fill="lightgray"></path>
</g>
		<text x="40" y="140" font-size="128" fill="#999999">2</text></g>
		<g id="id0:id2:id2" transform="matrix(1.0,0,0,1.0,2048,0.0)">			<g stroke="lightgray" stroke-width="4" transform="scale(4, 4)"> <rect x="0" y="0" width="256" height="256" fill="white" stroke-width="4"/></g>
			<g transform="scale(0.92, -0.92) translate(60, -920)">					<path d="M 213 477 Q 265 547 324 645 Q 352 697 377 724 Q 387 734 381 750 Q 377 763 345 787 Q 317 806 296 806 Q 275 803 285 780 Q 301 746 288 716 Q 225 551 55 337 Q 45 327 42 319 Q 38 307 53 310 Q 93 319 190 447 L 213 477 Z" fill="black"></path>
				<path d="M 190 447 Q 212 399 214 332 Q 213 319 213 304 Q 213 207 188 107 Q 176 56 210 17 Q 211 14 214 12 Q 230 -4 242 22 Q 257 62 256 107 Q 256 339 264 391 Q 271 418 262 428 Q 220 473 213 477 C 190 497 178 475 190 447 Z" fill="black"></path>
				<path d="M 669 720 Q 789 747 794 749 Q 803 756 799 764 Q 792 776 764 784 Q 743 790 617 756 Q 547 740 454 731 Q 418 727 443 710 Q 471 691 517 693 L 554 699 Q 593 706 633 713 L 669 720 Z" fill="red"></path>
				<path d="M 517 693 Q 526 674 529 651 Q 530 632 534 461 C 535 431 570 436 571 466 Q 574 563 576 639 Q 579 681 565 691 Q 559 695 554 699 C 530 717 505 721 517 693 Z" fill="lightgray"></path>
				<path d="M 676 484 Q 691 700 690 701 Q 680 711 669 720 C 646 739 619 739 633 713 Q 636 709 638 703 Q 641 691 639 477 C 639 447 674 454 676 484 Z" fill="lightgray"></path>
				<path d="M 420 582 Q 442 561 464 537 Q 474 527 488 526 Q 497 526 501 537 Q 505 549 499 573 Q 495 589 471 603 Q 413 627 400 623 Q 396 619 396 609 Q 399 599 420 582 Z" fill="lightgray"></path>
				<path d="M 763 657 Q 745 623 707 571 Q 703 564 707 559 Q 714 558 720 563 Q 792 621 827 644 Q 842 648 837 658 Q 831 671 814 685 Q 796 700 778 700 Q 765 699 767 683 Q 770 671 763 657 Z" fill="lightgray"></path>
				<path d="M 534 461 Q 513 465 430 452 C 400 447 410 423 439 414 Q 452 407 475 411 Q 688 450 848 463 Q 858 462 868 474 Q 869 486 847 496 Q 816 520 720 494 Q 698 490 676 484 L 639 477 Q 602 471 571 466 L 534 461 Z" fill="lightgray"></path>
				<path d="M 430 452 Q 388 485 367 476 Q 357 469 363 457 Q 375 436 377 380 Q 377 257 346 153 Q 322 77 266 -15 Q 262 -22 259 -27 Q 258 -37 267 -35 Q 303 -29 368 93 Q 369 97 372 101 Q 420 212 430 343 Q 431 392 439 414 C 446 440 446 440 430 452 Z" fill="lightgray"></path>
</g>
		<text x="40" y="140" font-size="128" fill="#999999">3</text></g>
		<g id="id0:id3:id3" transform="matrix(1.0,0,0,1.0,3072,0.0)">			<g stroke="lightgray" stroke-width="4" transform="scale(4, 4)"> <rect x="0" y="0" width="256" height="256" fill="white" stroke-width="4"/></g>
			<g transform="scale(0.92, -0.92) translate(60, -920)">					<path d="M 213 477 Q 265 547 324 645 Q 352 697 377 724 Q 387 734 381 750 Q 377 763 345 787 Q 317 806 296 806 Q 275 803 285 780 Q 301 746 288 716 Q 225 551 55 337 Q 45 327 42 319 Q 38 307 53 310 Q 93 319 190 447 L 213 477 Z" fill="black"></path>
				<path d="M 190 447 Q 212 399 214 332 Q 213 319 213 304 Q 213 207 188 107 Q 176 56 210 17 Q 211 14 214 12 Q 230 -4 242 22 Q 257 62 256 107 Q 256 339 264 391 Q 271 418 262 428 Q 220 473 213 477 C 190 497 178 475 190 447 Z" fill="black"></path>
				<path d="M 669 720 Q 789 747 794 749 Q 803 756 799 764 Q 792 776 764 784 Q 743 790 617 756 Q 547 740 454 731 Q 418 727 443 710 Q 471 691 517 693 L 554 699 Q 593 706 633 713 L 669 720 Z" fill="black"></path>
				<path d="M 517 693 Q 526 674 529 651 Q 530 632 534 461 C 535 431 570 436 571 466 Q 574 563 576 639 Q 579 681 565 691 Q 559 695 554 699 C 530 717 505 721 517 693 Z" fill="red"></path>
				<path d="M 676 484 Q 691 700 690 701 Q 680 711 669 720 C 646 739 619 739 633 713 Q 636 709 638 703 Q 641 691 639 477 C 639 447 674 454 676 484 Z" fill="lightgray"></path>
				<path d="M 420 582 Q 442 561 464 537 Q 474 527 488 526 Q 497 526 501 537 Q 505 549 499 573 Q 495 589 471 603 Q 413 627 400 623 Q 396 619 396 609 Q 399 599 420 582 Z" fill="lightgray"></path>
				<path d="M 763 657 Q 745 623 707 571 Q 703 564 707 559 Q 714 558 720 563 Q 792 621 827 644 Q 842 648 837 658 Q 831 671 814 685 Q 796 700 778 700 Q 765 699 767 683 Q 770 671 763 657 Z" fill="lightgray"></path>
				<path d="M 534 461 Q 513 465 430 452 C 400 447 410 423 439 414 Q 452 407 475 411 Q 688 450 848 463 Q 858 462 868 474 Q 869 486 847 496 Q 816 520 720 494 Q 698 490 676 484 L 639 477 Q 602 471 571 466 L 534 461 Z" fill="lightgray"></path>
				<path d="M 430 452 Q 388 485 367 476 Q 357 469 363 457 Q 375 436 377 380 Q 377 257 346 153 Q 322 77 266 -15 Q 262 -22 259 -27 Q 258 -37 267 -35 Q 303 -29 368 93 Q 369 97 372 101 Q 420 212 430 343 Q 431 392 439 414 C 446 440 446 440 430 452 Z" fill="lightgray"></path>
</g>
		<text x="40" y="140" font-size="128" fill="#999999">4</text></g>
		<g id="id0:id4:id4" transform="matrix(1.0,0,0,1.0,4096,0.0)">			<g stroke="lightgray" stroke-width="4" transform="scale(4, 4)"> <rect x="0" y="0" width="256" height="256" fill="white" stroke-width="4"/></g>
			<g transform="scale(0.92, -0.92) translate(60, -920)">					<path d="M 213 477 Q 265 547 324 645 Q 352 697 377 724 Q 387 734 381 750 Q 377 763 345 787 Q 317 806 296 806 Q 275 803 285 780 Q 301 746 288 716 Q 225 551 55 337 Q 45 327 42 319 Q 38 307 53 310 Q 93 319 190 447 L 213 477 Z" fill="black"></path>
				<path d="M 190 447 Q 212 399 214 332 Q 213 319 213 304 Q 213 207 188 107 Q 176 56 210 17 Q 211 14 214 12 Q 230 -4 242 22 Q 257 62 256 107 Q 256 339 264 391 Q 271 418 262 428 Q 220 473 213 477 C 190 497 178 475 190 447 Z" fill="black"></path>
				<path d="M 669 720 Q 789 747 794 749 Q 803 756 799 764 Q 792 776 764 784 Q 743 790 617 756 Q 547 740 454 731 Q 418 727 443 710 Q 471 691 517 693 L 554 699 Q 593 706 633 713 L 669 720 Z" fill="black"></path>
				<path d="M 517 693 Q 526 674 529 651 Q 530 632 534 461 C 535 431 570 436 571 466 Q 574 563 576 639 Q 579 681 565 691 Q 559 695 554 699 C 530 717 505 721 517 693 Z" fill="black"></path>
				<path d="M 676 484 Q 691 700 690 701 Q 680 711 669 720 C 646 739 619 739 633 713 Q 636 709 638 703 Q 641 691 639 477 C 639 447 674 454 676 484 Z" fill="red"></path>
				<path d="M 420 582 Q 442 561 464 537 Q 474 527 488 526 Q 497 526 501 537 Q 505 549 499 573 Q 495 589 471 603 Q 413 627 400 623 Q 396 619 396 609 Q 399 599 420 582 Z" fill="lightgray"></path>
				<path d="M 763 657 Q 745 623 707 571 Q 703 564 707 559 Q 714 558 720 563 Q 792 621 827 644 Q 842 648 837 658 Q 831 671 814 685 Q 796 700 778 700 Q 765 699 767 683 Q 770 671 763 657 Z" fill="lightgray"></path>
				<path d="M 534 461 Q 513 465 430 452 C 400 447 410 423 439 414 Q 452 407 475 411 Q 688 450 848 463 Q 858 462 868 474 Q 869 486 847 496 Q 816 520 720 494 Q 698 490 676 484 L 639 477 Q 602 471 571 466 L 534 461 Z" fill="lightgray"></path>
				<path d="M 430 452 Q 388 485 367 476 Q 357 469 363 457 Q 375 436 377 380 Q 377 257 346 153 Q 322 77 266 -15 Q 262 -22 259 -27 Q 258 -37 267 -35 Q 303 -29 368 93 Q 369 97 372 101 Q 420 212 430 343 Q 431 392 439 414 C 446 440 446 440 430 452 Z" fill="lightgray"></path>
</g>
		<text x="40" y="140" font-size="128" fill="#999999">5</text></g>
</g>
	<g id="id1:id1" transform="translate(0.0,1024)">
		<g id="id1:id0:id0" transform="matrix(1.0,0,0,1.0,0,0.0)">			<g stroke="lightgray" stroke-width="4" transform="scale(4, 4)"> <rect x="0" y="0" width="256" height="256" fill="white" stroke-width="4"/></g>
			<g transform="scale(0.92, -0.92) translate(60, -920)">					<path d="M 213 477 Q 265 547 324 645 Q 352 697 377 724 Q 387 734 381 750 Q 377 763 345 787 Q 317 806 296 806 Q 275 803 285 780 Q 301 746 288 716 Q 225 551 55 337 Q 45 327 42 319 Q 38 307 53 310 Q 93 319 190 447 L 213 477 Z" fill="black"></path>
				<path d="M 190 447 Q 212 399 214 332 Q 213 319 213 304 Q 213 207 188 107 Q 176 56 210 17 Q 211 14 214 12 Q 230 -4 242 22 Q 257 62 256 107 Q 256 339 264 391 Q 271 418 262 428 Q 220 473 213 477 C 190 497 178 475 190 447 Z" fill="black"></path>
				<path d="M 669 720 Q 789 747 794 749 Q 803 756 799 764 Q 792 776 764 784 Q 743 790 617 756 Q 547 740 454 731 Q 418 727 443 710 Q 471 691 517 693 L 554 699 Q 593 706 633 713 L 669 720 Z" fill="black"></path>
				<path d="M 517 693 Q 526 674 529 651 Q 530 632 534 461 C 535 431 570 436 571 466 Q 574 563 576 639 Q 579 681 565 691 Q 559 695 554 699 C 530 717 505 721 517 693 Z" fill="black"></path>
				<path d="M 676 484 Q 691 700 690 701 Q 680 711 669 720 C 646 739 619 739 633 713 Q 636 709 638 703 Q 641 691 639 477 C 639 447 674 454 676 484 Z" fill="black"></path>
				<path d="M 420 582 Q 442 561 464 537 Q 474 527 488 526 Q 497 526 501 537 Q 505 549 499 573 Q 495 589 471 603 Q 413 627 400 623 Q 396 619 396 609 Q 399 599 420 582 Z" fill="red"></path>
				<path d="M 763 657 Q 745 623 707 571 Q 703 564 707 559 Q 714 558 720 563 Q 792 621 827 644 Q 842 648 837 658 Q 831 671 814 685 Q 796 700 778 700 Q 765 699 767 683 Q 770 671 763 657 Z" fill="lightgray"></path>
				<path d="M 534 461 Q 513 465 430 452 C 400 447 410 423 439 414 Q 452 407 475 411 Q 688 450 848 463 Q 858 462 868 474 Q 869 486 847 496 Q 816 520 720 494 Q 698 490 676 484 L 639 477 Q 602 471 571 466 L 534 461 Z" fill="lightgray"></path>
				<path d="M 430 452 Q 388 485 367 476 Q 357 469 363 457 Q 375 436 377 380 Q 377 257 346 153 Q 322 77 266 -15 Q 262 -22 259 -27 Q 258 -37 267 -35 Q 303 -29 368 93 Q 369 97 372 101 Q 420 212 430 343 Q 431 392 439 414 C 446 440 446 440 430 452 Z" fill="lightgray"></path>
</g>
		<text x="40" y="140" font-size="128" fill="#999999">6</text></g>
		<g id="id1:id1:id1" transform="matrix(1.0,0,0,1.0,1024,0.0)">			<g stroke="lightgray" stroke-width="4" transform="scale(4, 4)"> <rect x="0" y="0" width="256" height="256" fill="white" stroke-width="4"/></g>
			<g transform="scale(0.92, -0.92) translate(60, -920)">					<path d="M 213 477 Q 265 547 324 645 Q 352 697 377 724 Q 387 734 381 750 Q 377 763 345 787 Q 317 806 296 806 Q 275 803 285 780 Q 301 746 288 716 Q 225 551 55 337 Q 45 327 42 319 Q 38 307 53 310 Q 93 319 190 447 L 213 477 Z" fill="black"></path>
				<path d="M 190 447 Q 212 399 214 332 Q 213 319 213 304 Q 213 207 188 107 Q 176 56 210 17 Q 211 14 214 12 Q 230 -4 242 22 Q 257 62 256 107 Q 256 339 264 391 Q 271 418 262 428 Q 220 473 213 477 C 190 497 178 475 190 447 Z" fill="black"></path>
				<path d="M 669 720 Q 789 747 794 749 Q 803 756 799 764 Q 792 776 764 784 Q 743 790 617 756 Q 547 740 454 731 Q 418 727 443 710 Q 471 691 517 693 L 554 699 Q 593 706 633 713 L 669 720 Z" fill="black"></path>
				<path d="M 517 693 Q 526 674 529 651 Q 530 632 534 461 C 535 431 570 436 571 466 Q 574 563 576 639 Q 579 681 565 691 Q 559 695 554 699 C 530 717 505 721 517 693 Z" fill="black"></path>
				<path d="M 676 484 Q 691 700 690 701 Q 680 711 669 720 C 646 739 619 739 633 713 Q 636 709 638 703 Q 641 691 639 477 C 639 447 674 454 676 484 Z" fill="black"></path>
				<path d="M 420 582 Q 442 561 464 537 Q 474 527 488 526 Q 497 526 501 537 Q 505 549 499 573 Q 495 589 471 603 Q 413 627 400 623 Q 396 619 396 609 Q 399 599 420 582 Z" fill="black"></path>
				<path d="M 763 657 Q 745 623 707 571 Q 703 564 707 559 Q 714 558 720 563 Q 792 621 827 644 Q 842 648 837 658 Q 831 671 814 685 Q 796 700 778 700 Q 765 699 767 683 Q 770 671 763 657 Z" fill="red"></path>
				<path d="M 534 461 Q 513 465 430 452 C 400 447 410 423 439 414 Q 452 407 475 411 Q 688 450 848 463 Q 858 462 868 474 Q 869 486 847 496 Q 816 520 720 494 Q 698 490 676 484 L 639 477 Q 602 471 571 466 L 534 461 Z" fill="lightgray"></path>
				<path d="M 430 452 Q 388 485 367 476 Q 357 469 363 457 Q 375 436 377 380 Q 377 257 346 153 Q 322 77 266 -15 Q 262 -22 259 -27 Q 258 -37 267 -35 Q 303 -29 368 93 Q 369 97 372 101 Q 420 212 430 343 Q 431 392 439 414 C 446 440 446 440 430 452 Z" fill="lightgray"></path>
</g>
		<text x="40" y="140" font-size="128" fill="#999999">7</text></g>
		<g id="id1:id2:id2" transform="matrix(1.0,0,0,1.0,2048,0.0)">			<g stroke="lightgray" stroke-width="4" transform="scale(4, 4)"> <rect x="0" y="0" width="256" height="256" fill="white" stroke-width="4"/></g>
			<g transform="scale(0.92, -0.92) translate(60, -920)">					<path d="M 213 477 Q 265 547 324 645 Q 352 697 377 724 Q 387 734 381 750 Q 377 763 345 787 Q 317 806 296 806 Q 275 803 285 780 Q 301 746 288 716 Q 225 551 55 337 Q 45 327 42 319 Q 38 307 53 310 Q 93 319 190 447 L 213 477 Z" fill="black"></path>
				<path d="M 190 447 Q 212 399 214 332 Q 213 319 213 304 Q 213 207 188 107 Q 176 56 210 17 Q 211 14 214 12 Q 230 -4 242 22 Q 257 62 256 107 Q 256 339 264 391 Q 271 418 262 428 Q 220 473 213 477 C 190 497 178 475 190 447 Z" fill="black"></path>
				<path d="M 669 720 Q 789 747 794 749 Q 803 756 799 764 Q 792 776 764 784 Q 743 790 617 756 Q 547 740 454 731 Q 418 727 443 710 Q 471 691 517 693 L 554 699 Q 593 706 633 713 L 669 720 Z" fill="black"></path>
				<path d="M 517 693 Q 526 674 529 651 Q 530 632 534 461 C 535 431 570 436 571 466 Q 574 563 576 639 Q 579 681 565 691 Q 559 695 554 699 C 530 717 505 721 517 693 Z" fill="black"></path>
				<path d="M 676 484 Q 691 700 690 701 Q 680 711 669 720 C 646 739 619 739 633 713 Q 636 709 638 703 Q 641 691 639 477 C 639 447 674 454 676 484 Z" fill="black"></path>
				<path d="M 420 582 Q 442 561 464 537 Q 474 527 488 526 Q 497 526 501 537 Q 505 549 499 573 Q 495 589 471 603 Q 413 627 400 623 Q 396 619 396 609 Q 399 599 420 582 Z" fill="black"></path>
				<path d="M 763 657 Q 745 623 707 571 Q 703 564 707 559 Q 714 558 720 563 Q 792 621 827 644 Q 842 648 837 658 Q 831 671 814 685 Q 796 700 778 700 Q 765 699 767 683 Q 770 671 763 657 Z" fill="black"></path>
				<path d="M 534 461 Q 513 465 430 452 C 400 447 410 423 439 414 Q 452 407 475 411 Q 688 450 848 463 Q 858 462 868 474 Q 869 486 847 496 Q 816 520 720 494 Q 698 490 676 484 L 639 477 Q 602 471 571 466 L 534 461 Z" fill="red"></path>
				<path d="M 430 452 Q 388 485 367 476 Q 357 469 363 457 Q 375 436 377 380 Q 377 257 346 153 Q 322 77 266 -15 Q 262 -22 259 -27 Q 258 -37 267 -35 Q 303 -29 368 93 Q 369 97 372 101 Q 420 212 430 343 Q 431 392 439 414 C 446 440 446 440 430 452 Z" fill="lightgray"></path>
</g>
		<text x="40" y="140" font-size="128" fill="#999999">8</text></g>
		<g id="id1:id3:id3" transform="matrix(1.0,0,0,1.0,3072,0.0)">			<g stroke="lightgray" stroke-width="4" transform="scale(4, 4)"> <rect x="0" y="0" width="256" height="256" fill="white" stroke-width="4"/></g>
			<g transform="scale(0.92, -0.92) translate(60, -920)">					<path d="M 213 477 Q 265 547 324 645 Q 352 697 377 724 Q 387 734 381 750 Q 377 763 345 787 Q 317 806 296 806 Q 275 803 285 780 Q 301 746 288 716 Q 225 551 55 337 Q 45 327 42 319 Q 38 307 53 310 Q 93 319 190 447 L 213 477 Z" fill="black"></path>
				<path d="M 190 447 Q 212 399 214 332 Q 213 319 213 304 Q 213 207 188 107 Q 176 56 210 17 Q 211 14 214 12 Q 230 -4 242 22 Q 257 62 256 107 Q 256 339 264 391 Q 271 418 262 428 Q 220 473 213 477 C 190 497 178 475 190 447 Z" fill="black"></path>
				<path d="M 669 720 Q 789 747 794 749 Q 803 756 799 764 Q 792 776 764 784 Q 743 790 617 756 Q 547 740 454 731 Q 418 727 443 710 Q 471 691 517 693 L 554 699 Q 593 706 633 713 L 669 720 Z" fill="black"></path>
				<path d="M 517 693 Q 526 674 529 651 Q 530 632 534 461 C 535 431 570 436 571 466 Q 574 563 576 639 Q 579 681 565 691 Q 559 695 554 699 C 530 717 505 721 517 693 Z" fill="black"></path>
				<path d="M 676 484 Q 691 700 690 701 Q 680 711 669 720 C 646 739 619 739 633 713 Q 636 709 638 703 Q 641 691 639 477 C 639 447 674 454 676 484 Z" fill="black"></path>
				<path d="M 420 582 Q 442 561 464 537 Q 474 527 488 526 Q 497 526 501 537 Q 505 549 499 573 Q 495 589 471 603 Q 413 627 400 623 Q 396 619 396 609 Q 399 599 420 582 Z" fill="black"></path>
				<path d="M 763 657 Q 745 623 707 571 Q 703 564 707 559 Q 714 558 720 563 Q 792 621 827 644 Q 842 648 837 658 Q 831 671 814 685 Q 796 700 778 700 Q 765 699 767 683 Q 770 671 763 657 Z" fill="black"></path>
				<path d="M 534 461 Q 513 465 430 452 C 400 447 410 423 439 414 Q 452 407 475 411 Q 688 450 848 463 Q 858 462 868 474 Q 869 486 847 496 Q 816 520 720 494 Q 698 490 676 484 L 639 477 Q 602 471 571 466 L 534 461 Z" fill="black"></path>
				<path d="M 430 452 Q 388 485 367 476 Q 357 469 363 457 Q 375 436 377 380 Q 377 257 346 153 Q 322 77 266 -15 Q 262 -22 259 -27 Q 258 -37 267 -35 Q 303 -29 368 93 Q 369 97 372 101 Q 420 212 430 343 Q 431 392 439 414 C 446 440 446 440 430 452 Z" fill="red"></path>
</g>
		<text x="40" y="140" font-size="128" fill="#999999">9</text></g>
		<g id="id1:id4:id4" transform="matrix(1.0,0,0,1.0,4096,0.0)">			<g stroke="white" stroke-width="4" transform="scale(4, 4)"> <rect x="1" y="1" width="255" height="255" fill="white" stroke-width="0"/></g>
</g>
</g>
</svg>
