<?xml version="1.0" standalone="no"?>
<!DOCTYPE svg PUBLIC "-//W3C//DTD SVG 1.1//EN"
 "http://www.w3.org/Graphics/SVG/1.1/DTD/svg11.dtd">
<!-- generate by Japanese dictionary app com.asnsami.kanjidictionary -->

<svg xmlns="http://www.w3.org/2000/svg" xmlns:sodipodi="http://sodipodi.sourceforge.net/DTD/sodipodi-0.dtd" version="1.1" width="640" height="256" viewBox="0 0 5120 2048">
	<g id="id0:id0" transform="translate(0.0,0)">
		<g id="id0:id0:id0" transform="matrix(1.0,0,0,1.0,0,0.0)">			<g stroke="lightgray" stroke-width="4" transform="scale(4, 4)"> <rect x="0" y="0" width="256" height="256" fill="white" stroke-width="4"/></g>
			<g transform="scale(0.92, -0.92) translate(60, -920)">					<path d="M 517 448 Q 541 721 558 764 Q 562 777 540 793 Q 501 815 475 820 Q 457 824 448 815 Q 439 806 448 790 Q 470 759 470 737 Q 477 601 470 441 C 469 411 514 418 517 448 Z" fill="red"></path>
				<path d="M 298 572 Q 337 517 375 495 Q 391 491 402 505 Q 411 518 409 538 Q 397 589 316 613 L 315 614 Q 297 621 286 617 Q 279 616 281 602 Q 282 589 298 572 Z" fill="lightgray"></path>
				<path d="M 672 660 Q 656 636 576 548 Q 563 529 583 532 Q 634 556 717 605 Q 739 621 769 632 Q 794 642 783 664 Q 770 685 740 703 Q 713 721 698 718 Q 683 718 687 702 Q 690 680 672 660 Z" fill="lightgray"></path>
				<path d="M 550 412 Q 646 422 777 423 Q 850 423 856 433 Q 862 446 844 461 Q 789 500 747 492 Q 659 473 517 448 L 470 441 Q 331 422 169 400 Q 147 397 164 379 Q 179 364 198 359 Q 220 353 238 359 Q 388 401 506 408 L 550 412 Z" fill="lightgray"></path>
				<path d="M 368 357 Q 369 188 110 15 Q 100 8 107 4 Q 116 0 128 4 Q 189 22 244 57 Q 340 114 418 260 Q 431 284 449 306 Q 459 316 453 328 Q 447 340 416 362 Q 394 378 383 376 Q 368 373 368 357 Z" fill="lightgray"></path>
				<path d="M 962 51 Q 940 109 929 210 Q 926 229 918 234 Q 908 240 905 217 Q 889 93 870 69 Q 840 35 713 30 Q 644 30 614 41 Q 587 54 582 71 Q 570 104 573 190 Q 580 286 600 329 Q 615 363 593 383 Q 568 402 550 412 C 525 428 497 437 506 408 Q 528 339 526 299 Q 517 283 521 142 Q 521 43 564 10 Q 619 -32 817 -25 Q 907 -21 942 -2 Q 976 16 962 51 Z" fill="lightgray"></path>
</g>
		<text x="40" y="140" font-size="128" fill="#999999">1</text></g>
		<g id="id0:id1:id1" transform="matrix(1.0,0,0,1.0,1024,0.0)">			<g stroke="lightgray" stroke-width="4" transform="scale(4, 4)"> <rect x="0" y="0" width="256" height="256" fill="white" stroke-width="4"/></g>
			<g transform="scale(0.92, -0.92) translate(60, -920)">					<path d="M 517 448 Q 541 721 558 764 Q 562 777 540 793 Q 501 815 475 820 Q 457 824 448 815 Q 439 806 448 790 Q 470 759 470 737 Q 477 601 470 441 C 469 411 514 418 517 448 Z" fill="black"></path>
				<path d="M 298 572 Q 337 517 375 495 Q 391 491 402 505 Q 411 518 409 538 Q 397 589 316 613 L 315 614 Q 297 621 286 617 Q 279 616 281 602 Q 282 589 298 572 Z" fill="red"></path>
				<path d="M 672 660 Q 656 636 576 548 Q 563 529 583 532 Q 634 556 717 605 Q 739 621 769 632 Q 794 642 783 664 Q 770 685 740 703 Q 713 721 698 718 Q 683 718 687 702 Q 690 680 672 660 Z" fill="lightgray"></path>
				<path d="M 550 412 Q 646 422 777 423 Q 850 423 856 433 Q 862 446 844 461 Q 789 500 747 492 Q 659 473 517 448 L 470 441 Q 331 422 169 400 Q 147 397 164 379 Q 179 364 198 359 Q 220 353 238 359 Q 388 401 506 408 L 550 412 Z" fill="lightgray"></path>
				<path d="M 368 357 Q 369 188 110 15 Q 100 8 107 4 Q 116 0 128 4 Q 189 22 244 57 Q 340 114 418 260 Q 431 284 449 306 Q 459 316 453 328 Q 447 340 416 362 Q 394 378 383 376 Q 368 373 368 357 Z" fill="lightgray"></path>
				<path d="M 962 51 Q 940 109 929 210 Q 926 229 918 234 Q 908 240 905 217 Q 889 93 870 69 Q 840 35 713 30 Q 644 30 614 41 Q 587 54 582 71 Q 570 104 573 190 Q 580 286 600 329 Q 615 363 593 383 Q 568 402 550 412 C 525 428 497 437 506 408 Q 528 339 526 299 Q 517 283 521 142 Q 521 43 564 10 Q 619 -32 817 -25 Q 907 -21 942 -2 Q 976 16 962 51 Z" fill="lightgray"></path>
</g>
		<text x="40" y="140" font-size="128" fill="#999999">2</text></g>
		<g id="id0:id2:id2" transform="matrix(1.0,0,0,1.0,2048,0.0)">			<g stroke="lightgray" stroke-width="4" transform="scale(4, 4)"> <rect x="0" y="0" width="256" height="256" fill="white" stroke-width="4"/></g>
			<g transform="scale(0.92, -0.92) translate(60, -920)">					<path d="M 517 448 Q 541 721 558 764 Q 562 777 540 793 Q 501 815 475 820 Q 457 824 448 815 Q 439 806 448 790 Q 470 759 470 737 Q 477 601 470 441 C 469 411 514 418 517 448 Z" fill="black"></path>
				<path d="M 298 572 Q 337 517 375 495 Q 391 491 402 505 Q 411 518 409 538 Q 397 589 316 613 L 315 614 Q 297 621 286 617 Q 279 616 281 602 Q 282 589 298 572 Z" fill="black"></path>
				<path d="M 672 660 Q 656 636 576 548 Q 563 529 583 532 Q 634 556 717 605 Q 739 621 769 632 Q 794 642 783 664 Q 770 685 740 703 Q 713 721 698 718 Q 683 718 687 702 Q 690 680 672 660 Z" fill="red"></path>
				<path d="M 550 412 Q 646 422 777 423 Q 850 423 856 433 Q 862 446 844 461 Q 789 500 747 492 Q 659 473 517 448 L 470 441 Q 331 422 169 400 Q 147 397 164 379 Q 179 364 198 359 Q 220 353 238 359 Q 388 401 506 408 L 550 412 Z" fill="lightgray"></path>
				<path d="M 368 357 Q 369 188 110 15 Q 100 8 107 4 Q 116 0 128 4 Q 189 22 244 57 Q 340 114 418 260 Q 431 284 449 306 Q 459 316 453 328 Q 447 340 416 362 Q 394 378 383 376 Q 368 373 368 357 Z" fill="lightgray"></path>
				<path d="M 962 51 Q 940 109 929 210 Q 926 229 918 234 Q 908 240 905 217 Q 889 93 870 69 Q 840 35 713 30 Q 644 30 614 41 Q 587 54 582 71 Q 570 104 573 190 Q 580 286 600 329 Q 615 363 593 383 Q 568 402 550 412 C 525 428 497 437 506 408 Q 528 339 526 299 Q 517 283 521 142 Q 521 43 564 10 Q 619 -32 817 -25 Q 907 -21 942 -2 Q 976 16 962 51 Z" fill="lightgray"></path>
</g>
		<text x="40" y="140" font-size="128" fill="#999999">3</text></g>
		<g id="id0:id3:id3" transform="matrix(1.0,0,0,1.0,3072,0.0)">			<g stroke="lightgray" stroke-width="4" transform="scale(4, 4)"> <rect x="0" y="0" width="256" height="256" fill="white" stroke-width="4"/></g>
			<g transform="scale(0.92, -0.92) translate(60, -920)">					<path d="M 517 448 Q 541 721 558 764 Q 562 777 540 793 Q 501 815 475 820 Q 457 824 448 815 Q 439 806 448 790 Q 470 759 470 737 Q 477 601 470 441 C 469 411 514 418 517 448 Z" fill="black"></path>
				<path d="M 298 572 Q 337 517 375 495 Q 391 491 402 505 Q 411 518 409 538 Q 397 589 316 613 L 315 614 Q 297 621 286 617 Q 279 616 281 602 Q 282 589 298 572 Z" fill="black"></path>
				<path d="M 672 660 Q 656 636 576 548 Q 563 529 583 532 Q 634 556 717 605 Q 739 621 769 632 Q 794 642 783 664 Q 770 685 740 703 Q 713 721 698 718 Q 683 718 687 702 Q 690 680 672 660 Z" fill="black"></path>
				<path d="M 550 412 Q 646 422 777 423 Q 850 423 856 433 Q 862 446 844 461 Q 789 500 747 492 Q 659 473 517 448 L 470 441 Q 331 422 169 400 Q 147 397 164 379 Q 179 364 198 359 Q 220 353 238 359 Q 388 401 506 408 L 550 412 Z" fill="red"></path>
				<path d="M 368 357 Q 369 188 110 15 Q 100 8 107 4 Q 116 0 128 4 Q 189 22 244 57 Q 340 114 418 260 Q 431 284 449 306 Q 459 316 453 328 Q 447 340 416 362 Q 394 378 383 376 Q 368 373 368 357 Z" fill="lightgray"></path>
				<path d="M 962 51 Q 940 109 929 210 Q 926 229 918 234 Q 908 240 905 217 Q 889 93 870 69 Q 840 35 713 30 Q 644 30 614 41 Q 587 54 582 71 Q 570 104 573 190 Q 580 286 600 329 Q 615 363 593 383 Q 568 402 550 412 C 525 428 497 437 506 408 Q 528 339 526 299 Q 517 283 521 142 Q 521 43 564 10 Q 619 -32 817 -25 Q 907 -21 942 -2 Q 976 16 962 51 Z" fill="lightgray"></path>
</g>
		<text x="40" y="140" font-size="128" fill="#999999">4</text></g>
		<g id="id0:id4:id4" transform="matrix(1.0,0,0,1.0,4096,0.0)">			<g stroke="lightgray" stroke-width="4" transform="scale(4, 4)"> <rect x="0" y="0" width="256" height="256" fill="white" stroke-width="4"/></g>
			<g transform="scale(0.92, -0.92) translate(60, -920)">					<path d="M 517 448 Q 541 721 558 764 Q 562 777 540 793 Q 501 815 475 820 Q 457 824 448 815 Q 439 806 448 790 Q 470 759 470 737 Q 477 601 470 441 C 469 411 514 418 517 448 Z" fill="black"></path>
				<path d="M 298 572 Q 337 517 375 495 Q 391 491 402 505 Q 411 518 409 538 Q 397 589 316 613 L 315 614 Q 297 621 286 617 Q 279 616 281 602 Q 282 589 298 572 Z" fill="black"></path>
				<path d="M 672 660 Q 656 636 576 548 Q 563 529 583 532 Q 634 556 717 605 Q 739 621 769 632 Q 794 642 783 664 Q 770 685 740 703 Q 713 721 698 718 Q 683 718 687 702 Q 690 680 672 660 Z" fill="black"></path>
				<path d="M 550 412 Q 646 422 777 423 Q 850 423 856 433 Q 862 446 844 461 Q 789 500 747 492 Q 659 473 517 448 L 470 441 Q 331 422 169 400 Q 147 397 164 379 Q 179 364 198 359 Q 220 353 238 359 Q 388 401 506 408 L 550 412 Z" fill="black"></path>
				<path d="M 368 357 Q 369 188 110 15 Q 100 8 107 4 Q 116 0 128 4 Q 189 22 244 57 Q 340 114 418 260 Q 431 284 449 306 Q 459 316 453 328 Q 447 340 416 362 Q 394 378 383 376 Q 368 373 368 357 Z" fill="red"></path>
				<path d="M 962 51 Q 940 109 929 210 Q 926 229 918 234 Q 908 240 905 217 Q 889 93 870 69 Q 840 35 713 30 Q 644 30 614 41 Q 587 54 582 71 Q 570 104 573 190 Q 580 286 600 329 Q 615 363 593 383 Q 568 402 550 412 C 525 428 497 437 506 408 Q 528 339 526 299 Q 517 283 521 142 Q 521 43 564 10 Q 619 -32 817 -25 Q 907 -21 942 -2 Q 976 16 962 51 Z" fill="lightgray"></path>
</g>
		<text x="40" y="140" font-size="128" fill="#999999">5</text></g>
</g>
	<g id="id1:id1" transform="translate(0.0,1024)">
		<g id="id1:id0:id0" transform="matrix(1.0,0,0,1.0,0,0.0)">			<g stroke="lightgray" stroke-width="4" transform="scale(4, 4)"> <rect x="0" y="0" width="256" height="256" fill="white" stroke-width="4"/></g>
			<g transform="scale(0.92, -0.92) translate(60, -920)">					<path d="M 517 448 Q 541 721 558 764 Q 562 777 540 793 Q 501 815 475 820 Q 457 824 448 815 Q 439 806 448 790 Q 470 759 470 737 Q 477 601 470 441 C 469 411 514 418 517 448 Z" fill="black"></path>
				<path d="M 298 572 Q 337 517 375 495 Q 391 491 402 505 Q 411 518 409 538 Q 397 589 316 613 L 315 614 Q 297 621 286 617 Q 279 616 281 602 Q 282 589 298 572 Z" fill="black"></path>
				<path d="M 672 660 Q 656 636 576 548 Q 563 529 583 532 Q 634 556 717 605 Q 739 621 769 632 Q 794 642 783 664 Q 770 685 740 703 Q 713 721 698 718 Q 683 718 687 702 Q 690 680 672 660 Z" fill="black"></path>
				<path d="M 550 412 Q 646 422 777 423 Q 850 423 856 433 Q 862 446 844 461 Q 789 500 747 492 Q 659 473 517 448 L 470 441 Q 331 422 169 400 Q 147 397 164 379 Q 179 364 198 359 Q 220 353 238 359 Q 388 401 506 408 L 550 412 Z" fill="black"></path>
				<path d="M 368 357 Q 369 188 110 15 Q 100 8 107 4 Q 116 0 128 4 Q 189 22 244 57 Q 340 114 418 260 Q 431 284 449 306 Q 459 316 453 328 Q 447 340 416 362 Q 394 378 383 376 Q 368 373 368 357 Z" fill="black"></path>
				<path d="M 962 51 Q 940 109 929 210 Q 926 229 918 234 Q 908 240 905 217 Q 889 93 870 69 Q 840 35 713 30 Q 644 30 614 41 Q 587 54 582 71 Q 570 104 573 190 Q 580 286 600 329 Q 615 363 593 383 Q 568 402 550 412 C 525 428 497 437 506 408 Q 528 339 526 299 Q 517 283 521 142 Q 521 43 564 10 Q 619 -32 817 -25 Q 907 -21 942 -2 Q 976 16 962 51 Z" fill="red"></path>
</g>
		<text x="40" y="140" font-size="128" fill="#999999">6</text></g>
		<g id="id1:id1:id1" transform="matrix(1.0,0,0,1.0,1024,0.0)">			<g stroke="white" stroke-width="4" transform="scale(4, 4)"> <rect x="1" y="1" width="255" height="255" fill="white" stroke-width="0"/></g>
</g>
		<g id="id1:id2:id2" transform="matrix(1.0,0,0,1.0,2048,0.0)">			<g stroke="white" stroke-width="4" transform="scale(4, 4)"> <rect x="1" y="1" width="255" height="255" fill="white" stroke-width="0"/></g>
</g>
		<g id="id1:id3:id3" transform="matrix(1.0,0,0,1.0,3072,0.0)">			<g stroke="white" stroke-width="4" transform="scale(4, 4)"> <rect x="1" y="1" width="255" height="255" fill="white" stroke-width="0"/></g>
</g>
		<g id="id1:id4:id4" transform="matrix(1.0,0,0,1.0,4096,0.0)">			<g stroke="white" stroke-width="4" transform="scale(4, 4)"> <rect x="1" y="1" width="255" height="255" fill="white" stroke-width="0"/></g>
</g>
</g>
</svg>
