<?xml version="1.0" standalone="no"?>
<!DOCTYPE svg PUBLIC "-//W3C//DTD SVG 1.1//EN"
 "http://www.w3.org/Graphics/SVG/1.1/DTD/svg11.dtd">
<!-- generate by Handict dictionary app com.asnsami.handict -->

<svg xmlns="http://www.w3.org/2000/svg" xmlns:sodipodi="http://sodipodi.sourceforge.net/DTD/sodipodi-0.dtd" version="1.1" width="640" height="128" viewBox="0 0 5120 1024">
	<g id="id0:id0" transform="translate(0.0,0)">
		<g id="id0:id0:id0" transform="matrix(1.0,0,0,1.0,0,0.0)">			<g stroke="lightgray" stroke-width="4" transform="scale(4, 4)"> <rect x="0" y="0" width="256" height="256" fill="white" stroke-width="4"/></g>
			<g transform="scale(0.92, -0.92) translate(60, -920)">					<path d="M 345 707 Q 305 697 335 680 Q 378 659 457 677 Q 530 695 609 716 Q 646 726 652 732 Q 662 742 656 751 Q 647 764 614 770 Q 581 774 475 735 Q 418 717 345 707 Z" fill="red"></path>
				<path d="M 526 493 Q 553 502 740 536 Q 753 535 762 550 Q 763 563 736 574 Q 696 596 614 565 Q 452 519 256 478 Q 220 472 183 465 Q 152 459 177 441 Q 214 411 248 423 Q 285 433 329 444 L 363 453 Q 418 469 485 484 L 526 493 Z" fill="lightgray"></path>
				<path d="M 329 444 Q 329 375 325 358 Q 279 217 148 101 Q 129 85 107 66 Q 100 59 107 55 Q 141 49 234 126 Q 324 195 383 352 Q 393 377 407 402 Q 414 412 409 422 Q 397 441 363 453 C 335 464 329 467 329 444 Z" fill="lightgray"></path>
				<path d="M 961 112 Q 939 164 924 253 Q 921 269 914 274 Q 905 278 902 258 Q 892 146 877 126 Q 847 90 702 86 Q 624 89 592 102 Q 564 117 557 136 Q 527 220 554 362 Q 560 396 569 419 Q 587 462 526 493 C 501 509 474 512 485 484 Q 506 442 501 383 Q 492 140 520 100 Q 529 84 545 72 Q 605 26 812 36 Q 906 40 943 60 Q 976 78 961 112 Z" fill="lightgray"></path>
</g>
		<text x="40" y="140" font-size="128" fill="#999999">1</text></g>
		<g id="id0:id1:id1" transform="matrix(1.0,0,0,1.0,1024,0.0)">			<g stroke="lightgray" stroke-width="4" transform="scale(4, 4)"> <rect x="0" y="0" width="256" height="256" fill="white" stroke-width="4"/></g>
			<g transform="scale(0.92, -0.92) translate(60, -920)">					<path d="M 345 707 Q 305 697 335 680 Q 378 659 457 677 Q 530 695 609 716 Q 646 726 652 732 Q 662 742 656 751 Q 647 764 614 770 Q 581 774 475 735 Q 418 717 345 707 Z" fill="black"></path>
				<path d="M 526 493 Q 553 502 740 536 Q 753 535 762 550 Q 763 563 736 574 Q 696 596 614 565 Q 452 519 256 478 Q 220 472 183 465 Q 152 459 177 441 Q 214 411 248 423 Q 285 433 329 444 L 363 453 Q 418 469 485 484 L 526 493 Z" fill="red"></path>
				<path d="M 329 444 Q 329 375 325 358 Q 279 217 148 101 Q 129 85 107 66 Q 100 59 107 55 Q 141 49 234 126 Q 324 195 383 352 Q 393 377 407 402 Q 414 412 409 422 Q 397 441 363 453 C 335 464 329 467 329 444 Z" fill="lightgray"></path>
				<path d="M 961 112 Q 939 164 924 253 Q 921 269 914 274 Q 905 278 902 258 Q 892 146 877 126 Q 847 90 702 86 Q 624 89 592 102 Q 564 117 557 136 Q 527 220 554 362 Q 560 396 569 419 Q 587 462 526 493 C 501 509 474 512 485 484 Q 506 442 501 383 Q 492 140 520 100 Q 529 84 545 72 Q 605 26 812 36 Q 906 40 943 60 Q 976 78 961 112 Z" fill="lightgray"></path>
</g>
		<text x="40" y="140" font-size="128" fill="#999999">2</text></g>
		<g id="id0:id2:id2" transform="matrix(1.0,0,0,1.0,2048,0.0)">			<g stroke="lightgray" stroke-width="4" transform="scale(4, 4)"> <rect x="0" y="0" width="256" height="256" fill="white" stroke-width="4"/></g>
			<g transform="scale(0.92, -0.92) translate(60, -920)">					<path d="M 345 707 Q 305 697 335 680 Q 378 659 457 677 Q 530 695 609 716 Q 646 726 652 732 Q 662 742 656 751 Q 647 764 614 770 Q 581 774 475 735 Q 418 717 345 707 Z" fill="black"></path>
				<path d="M 526 493 Q 553 502 740 536 Q 753 535 762 550 Q 763 563 736 574 Q 696 596 614 565 Q 452 519 256 478 Q 220 472 183 465 Q 152 459 177 441 Q 214 411 248 423 Q 285 433 329 444 L 363 453 Q 418 469 485 484 L 526 493 Z" fill="black"></path>
				<path d="M 329 444 Q 329 375 325 358 Q 279 217 148 101 Q 129 85 107 66 Q 100 59 107 55 Q 141 49 234 126 Q 324 195 383 352 Q 393 377 407 402 Q 414 412 409 422 Q 397 441 363 453 C 335 464 329 467 329 444 Z" fill="red"></path>
				<path d="M 961 112 Q 939 164 924 253 Q 921 269 914 274 Q 905 278 902 258 Q 892 146 877 126 Q 847 90 702 86 Q 624 89 592 102 Q 564 117 557 136 Q 527 220 554 362 Q 560 396 569 419 Q 587 462 526 493 C 501 509 474 512 485 484 Q 506 442 501 383 Q 492 140 520 100 Q 529 84 545 72 Q 605 26 812 36 Q 906 40 943 60 Q 976 78 961 112 Z" fill="lightgray"></path>
</g>
		<text x="40" y="140" font-size="128" fill="#999999">3</text></g>
		<g id="id0:id3:id3" transform="matrix(1.0,0,0,1.0,3072,0.0)">			<g stroke="lightgray" stroke-width="4" transform="scale(4, 4)"> <rect x="0" y="0" width="256" height="256" fill="white" stroke-width="4"/></g>
			<g transform="scale(0.92, -0.92) translate(60, -920)">					<path d="M 345 707 Q 305 697 335 680 Q 378 659 457 677 Q 530 695 609 716 Q 646 726 652 732 Q 662 742 656 751 Q 647 764 614 770 Q 581 774 475 735 Q 418 717 345 707 Z" fill="black"></path>
				<path d="M 526 493 Q 553 502 740 536 Q 753 535 762 550 Q 763 563 736 574 Q 696 596 614 565 Q 452 519 256 478 Q 220 472 183 465 Q 152 459 177 441 Q 214 411 248 423 Q 285 433 329 444 L 363 453 Q 418 469 485 484 L 526 493 Z" fill="black"></path>
				<path d="M 329 444 Q 329 375 325 358 Q 279 217 148 101 Q 129 85 107 66 Q 100 59 107 55 Q 141 49 234 126 Q 324 195 383 352 Q 393 377 407 402 Q 414 412 409 422 Q 397 441 363 453 C 335 464 329 467 329 444 Z" fill="black"></path>
				<path d="M 961 112 Q 939 164 924 253 Q 921 269 914 274 Q 905 278 902 258 Q 892 146 877 126 Q 847 90 702 86 Q 624 89 592 102 Q 564 117 557 136 Q 527 220 554 362 Q 560 396 569 419 Q 587 462 526 493 C 501 509 474 512 485 484 Q 506 442 501 383 Q 492 140 520 100 Q 529 84 545 72 Q 605 26 812 36 Q 906 40 943 60 Q 976 78 961 112 Z" fill="red"></path>
</g>
		<text x="40" y="140" font-size="128" fill="#999999">4</text></g>
		<g id="id0:id4:id4" transform="matrix(1.0,0,0,1.0,4096,0.0)">			<g stroke="white" stroke-width="4" transform="scale(4, 4)"> <rect x="1" y="1" width="255" height="255" fill="white" stroke-width="0"/></g>
</g>
</g>
</svg>
