<?xml version="1.0" standalone="no"?>
<!DOCTYPE svg PUBLIC "-//W3C//DTD SVG 1.1//EN"
 "http://www.w3.org/Graphics/SVG/1.1/DTD/svg11.dtd">
<!-- generate by Japanese dictionary app com.asnsami.kanjidictionary -->

<svg xmlns="http://www.w3.org/2000/svg" xmlns:sodipodi="http://sodipodi.sourceforge.net/DTD/sodipodi-0.dtd" version="1.1" width="640" height="256" viewBox="0 0 5120 2048">
	<g id="id0:id0" transform="translate(0.0,0)">
		<g id="id0:id0:id0" transform="matrix(1.0,0,0,1.0,0,0.0)">			<g stroke="lightgray" stroke-width="4" transform="scale(4, 4)"> <rect x="0" y="0" width="256" height="256" fill="white" stroke-width="4"/></g>
			<g transform="scale(0.92, -0.92) translate(60, -920)">					<path d="M 365 586 Q 368 598 406 663 Q 415 676 399 688 Q 354 718 332 710 Q 322 707 325 693 Q 343 618 271 511 Q 268 511 240 468 Q 233 452 247 458 Q 290 471 351 562 L 365 586 Z" fill="red"></path>
				<path d="M 538 574 Q 700 613 707 619 Q 717 628 711 636 Q 704 648 674 655 Q 643 659 613 647 Q 579 635 542 623 L 489 608 Q 429 595 365 586 C 335 582 323 574 351 562 Q 387 543 463 557 Q 473 560 488 562 L 538 574 Z" fill="lightgray"></path>
				<path d="M 526 433 Q 532 506 538 574 L 542 623 Q 546 695 567 784 Q 571 794 550 811 Q 514 830 489 836 Q 473 840 464 831 Q 457 824 464 807 Q 486 774 486 752 Q 489 683 489 608 L 488 562 Q 487 498 482 425 C 480 395 524 403 526 433 Z" fill="lightgray"></path>
				<path d="M 570 401 Q 592 404 812 419 Q 833 420 837 428 Q 841 441 825 453 Q 771 489 733 480 Q 654 459 526 433 L 482 425 Q 346 401 191 375 Q 170 372 187 355 Q 217 328 257 338 Q 368 375 520 395 L 570 401 Z" fill="lightgray"></path>
				<path d="M 388 341 Q 388 227 260 111 Q 257 110 255 107 Q 219 73 134 18 Q 125 11 131 7 Q 162 -5 263 57 Q 357 111 432 250 Q 445 272 462 293 Q 472 302 467 313 Q 463 325 433 345 Q 412 361 402 359 Q 389 358 388 341 Z" fill="lightgray"></path>
				<path d="M 974 49 Q 956 101 947 192 Q 946 208 938 214 Q 929 220 925 198 Q 906 87 890 67 Q 857 31 729 31 Q 659 32 628 45 Q 603 58 596 76 Q 572 143 590 261 Q 594 306 607 332 Q 622 371 570 401 C 546 419 508 422 520 395 Q 544 353 539 295 Q 533 79 563 34 Q 606 -32 831 -22 Q 919 -18 955 0 Q 986 16 974 49 Z" fill="lightgray"></path>
</g>
		<text x="40" y="140" font-size="128" fill="#999999">1</text></g>
		<g id="id0:id1:id1" transform="matrix(1.0,0,0,1.0,1024,0.0)">			<g stroke="lightgray" stroke-width="4" transform="scale(4, 4)"> <rect x="0" y="0" width="256" height="256" fill="white" stroke-width="4"/></g>
			<g transform="scale(0.92, -0.92) translate(60, -920)">					<path d="M 365 586 Q 368 598 406 663 Q 415 676 399 688 Q 354 718 332 710 Q 322 707 325 693 Q 343 618 271 511 Q 268 511 240 468 Q 233 452 247 458 Q 290 471 351 562 L 365 586 Z" fill="black"></path>
				<path d="M 538 574 Q 700 613 707 619 Q 717 628 711 636 Q 704 648 674 655 Q 643 659 613 647 Q 579 635 542 623 L 489 608 Q 429 595 365 586 C 335 582 323 574 351 562 Q 387 543 463 557 Q 473 560 488 562 L 538 574 Z" fill="red"></path>
				<path d="M 526 433 Q 532 506 538 574 L 542 623 Q 546 695 567 784 Q 571 794 550 811 Q 514 830 489 836 Q 473 840 464 831 Q 457 824 464 807 Q 486 774 486 752 Q 489 683 489 608 L 488 562 Q 487 498 482 425 C 480 395 524 403 526 433 Z" fill="lightgray"></path>
				<path d="M 570 401 Q 592 404 812 419 Q 833 420 837 428 Q 841 441 825 453 Q 771 489 733 480 Q 654 459 526 433 L 482 425 Q 346 401 191 375 Q 170 372 187 355 Q 217 328 257 338 Q 368 375 520 395 L 570 401 Z" fill="lightgray"></path>
				<path d="M 388 341 Q 388 227 260 111 Q 257 110 255 107 Q 219 73 134 18 Q 125 11 131 7 Q 162 -5 263 57 Q 357 111 432 250 Q 445 272 462 293 Q 472 302 467 313 Q 463 325 433 345 Q 412 361 402 359 Q 389 358 388 341 Z" fill="lightgray"></path>
				<path d="M 974 49 Q 956 101 947 192 Q 946 208 938 214 Q 929 220 925 198 Q 906 87 890 67 Q 857 31 729 31 Q 659 32 628 45 Q 603 58 596 76 Q 572 143 590 261 Q 594 306 607 332 Q 622 371 570 401 C 546 419 508 422 520 395 Q 544 353 539 295 Q 533 79 563 34 Q 606 -32 831 -22 Q 919 -18 955 0 Q 986 16 974 49 Z" fill="lightgray"></path>
</g>
		<text x="40" y="140" font-size="128" fill="#999999">2</text></g>
		<g id="id0:id2:id2" transform="matrix(1.0,0,0,1.0,2048,0.0)">			<g stroke="lightgray" stroke-width="4" transform="scale(4, 4)"> <rect x="0" y="0" width="256" height="256" fill="white" stroke-width="4"/></g>
			<g transform="scale(0.92, -0.92) translate(60, -920)">					<path d="M 365 586 Q 368 598 406 663 Q 415 676 399 688 Q 354 718 332 710 Q 322 707 325 693 Q 343 618 271 511 Q 268 511 240 468 Q 233 452 247 458 Q 290 471 351 562 L 365 586 Z" fill="black"></path>
				<path d="M 538 574 Q 700 613 707 619 Q 717 628 711 636 Q 704 648 674 655 Q 643 659 613 647 Q 579 635 542 623 L 489 608 Q 429 595 365 586 C 335 582 323 574 351 562 Q 387 543 463 557 Q 473 560 488 562 L 538 574 Z" fill="black"></path>
				<path d="M 526 433 Q 532 506 538 574 L 542 623 Q 546 695 567 784 Q 571 794 550 811 Q 514 830 489 836 Q 473 840 464 831 Q 457 824 464 807 Q 486 774 486 752 Q 489 683 489 608 L 488 562 Q 487 498 482 425 C 480 395 524 403 526 433 Z" fill="red"></path>
				<path d="M 570 401 Q 592 404 812 419 Q 833 420 837 428 Q 841 441 825 453 Q 771 489 733 480 Q 654 459 526 433 L 482 425 Q 346 401 191 375 Q 170 372 187 355 Q 217 328 257 338 Q 368 375 520 395 L 570 401 Z" fill="lightgray"></path>
				<path d="M 388 341 Q 388 227 260 111 Q 257 110 255 107 Q 219 73 134 18 Q 125 11 131 7 Q 162 -5 263 57 Q 357 111 432 250 Q 445 272 462 293 Q 472 302 467 313 Q 463 325 433 345 Q 412 361 402 359 Q 389 358 388 341 Z" fill="lightgray"></path>
				<path d="M 974 49 Q 956 101 947 192 Q 946 208 938 214 Q 929 220 925 198 Q 906 87 890 67 Q 857 31 729 31 Q 659 32 628 45 Q 603 58 596 76 Q 572 143 590 261 Q 594 306 607 332 Q 622 371 570 401 C 546 419 508 422 520 395 Q 544 353 539 295 Q 533 79 563 34 Q 606 -32 831 -22 Q 919 -18 955 0 Q 986 16 974 49 Z" fill="lightgray"></path>
</g>
		<text x="40" y="140" font-size="128" fill="#999999">3</text></g>
		<g id="id0:id3:id3" transform="matrix(1.0,0,0,1.0,3072,0.0)">			<g stroke="lightgray" stroke-width="4" transform="scale(4, 4)"> <rect x="0" y="0" width="256" height="256" fill="white" stroke-width="4"/></g>
			<g transform="scale(0.92, -0.92) translate(60, -920)">					<path d="M 365 586 Q 368 598 406 663 Q 415 676 399 688 Q 354 718 332 710 Q 322 707 325 693 Q 343 618 271 511 Q 268 511 240 468 Q 233 452 247 458 Q 290 471 351 562 L 365 586 Z" fill="black"></path>
				<path d="M 538 574 Q 700 613 707 619 Q 717 628 711 636 Q 704 648 674 655 Q 643 659 613 647 Q 579 635 542 623 L 489 608 Q 429 595 365 586 C 335 582 323 574 351 562 Q 387 543 463 557 Q 473 560 488 562 L 538 574 Z" fill="black"></path>
				<path d="M 526 433 Q 532 506 538 574 L 542 623 Q 546 695 567 784 Q 571 794 550 811 Q 514 830 489 836 Q 473 840 464 831 Q 457 824 464 807 Q 486 774 486 752 Q 489 683 489 608 L 488 562 Q 487 498 482 425 C 480 395 524 403 526 433 Z" fill="black"></path>
				<path d="M 570 401 Q 592 404 812 419 Q 833 420 837 428 Q 841 441 825 453 Q 771 489 733 480 Q 654 459 526 433 L 482 425 Q 346 401 191 375 Q 170 372 187 355 Q 217 328 257 338 Q 368 375 520 395 L 570 401 Z" fill="red"></path>
				<path d="M 388 341 Q 388 227 260 111 Q 257 110 255 107 Q 219 73 134 18 Q 125 11 131 7 Q 162 -5 263 57 Q 357 111 432 250 Q 445 272 462 293 Q 472 302 467 313 Q 463 325 433 345 Q 412 361 402 359 Q 389 358 388 341 Z" fill="lightgray"></path>
				<path d="M 974 49 Q 956 101 947 192 Q 946 208 938 214 Q 929 220 925 198 Q 906 87 890 67 Q 857 31 729 31 Q 659 32 628 45 Q 603 58 596 76 Q 572 143 590 261 Q 594 306 607 332 Q 622 371 570 401 C 546 419 508 422 520 395 Q 544 353 539 295 Q 533 79 563 34 Q 606 -32 831 -22 Q 919 -18 955 0 Q 986 16 974 49 Z" fill="lightgray"></path>
</g>
		<text x="40" y="140" font-size="128" fill="#999999">4</text></g>
		<g id="id0:id4:id4" transform="matrix(1.0,0,0,1.0,4096,0.0)">			<g stroke="lightgray" stroke-width="4" transform="scale(4, 4)"> <rect x="0" y="0" width="256" height="256" fill="white" stroke-width="4"/></g>
			<g transform="scale(0.92, -0.92) translate(60, -920)">					<path d="M 365 586 Q 368 598 406 663 Q 415 676 399 688 Q 354 718 332 710 Q 322 707 325 693 Q 343 618 271 511 Q 268 511 240 468 Q 233 452 247 458 Q 290 471 351 562 L 365 586 Z" fill="black"></path>
				<path d="M 538 574 Q 700 613 707 619 Q 717 628 711 636 Q 704 648 674 655 Q 643 659 613 647 Q 579 635 542 623 L 489 608 Q 429 595 365 586 C 335 582 323 574 351 562 Q 387 543 463 557 Q 473 560 488 562 L 538 574 Z" fill="black"></path>
				<path d="M 526 433 Q 532 506 538 574 L 542 623 Q 546 695 567 784 Q 571 794 550 811 Q 514 830 489 836 Q 473 840 464 831 Q 457 824 464 807 Q 486 774 486 752 Q 489 683 489 608 L 488 562 Q 487 498 482 425 C 480 395 524 403 526 433 Z" fill="black"></path>
				<path d="M 570 401 Q 592 404 812 419 Q 833 420 837 428 Q 841 441 825 453 Q 771 489 733 480 Q 654 459 526 433 L 482 425 Q 346 401 191 375 Q 170 372 187 355 Q 217 328 257 338 Q 368 375 520 395 L 570 401 Z" fill="black"></path>
				<path d="M 388 341 Q 388 227 260 111 Q 257 110 255 107 Q 219 73 134 18 Q 125 11 131 7 Q 162 -5 263 57 Q 357 111 432 250 Q 445 272 462 293 Q 472 302 467 313 Q 463 325 433 345 Q 412 361 402 359 Q 389 358 388 341 Z" fill="red"></path>
				<path d="M 974 49 Q 956 101 947 192 Q 946 208 938 214 Q 929 220 925 198 Q 906 87 890 67 Q 857 31 729 31 Q 659 32 628 45 Q 603 58 596 76 Q 572 143 590 261 Q 594 306 607 332 Q 622 371 570 401 C 546 419 508 422 520 395 Q 544 353 539 295 Q 533 79 563 34 Q 606 -32 831 -22 Q 919 -18 955 0 Q 986 16 974 49 Z" fill="lightgray"></path>
</g>
		<text x="40" y="140" font-size="128" fill="#999999">5</text></g>
</g>
	<g id="id1:id1" transform="translate(0.0,1024)">
		<g id="id1:id0:id0" transform="matrix(1.0,0,0,1.0,0,0.0)">			<g stroke="lightgray" stroke-width="4" transform="scale(4, 4)"> <rect x="0" y="0" width="256" height="256" fill="white" stroke-width="4"/></g>
			<g transform="scale(0.92, -0.92) translate(60, -920)">					<path d="M 365 586 Q 368 598 406 663 Q 415 676 399 688 Q 354 718 332 710 Q 322 707 325 693 Q 343 618 271 511 Q 268 511 240 468 Q 233 452 247 458 Q 290 471 351 562 L 365 586 Z" fill="black"></path>
				<path d="M 538 574 Q 700 613 707 619 Q 717 628 711 636 Q 704 648 674 655 Q 643 659 613 647 Q 579 635 542 623 L 489 608 Q 429 595 365 586 C 335 582 323 574 351 562 Q 387 543 463 557 Q 473 560 488 562 L 538 574 Z" fill="black"></path>
				<path d="M 526 433 Q 532 506 538 574 L 542 623 Q 546 695 567 784 Q 571 794 550 811 Q 514 830 489 836 Q 473 840 464 831 Q 457 824 464 807 Q 486 774 486 752 Q 489 683 489 608 L 488 562 Q 487 498 482 425 C 480 395 524 403 526 433 Z" fill="black"></path>
				<path d="M 570 401 Q 592 404 812 419 Q 833 420 837 428 Q 841 441 825 453 Q 771 489 733 480 Q 654 459 526 433 L 482 425 Q 346 401 191 375 Q 170 372 187 355 Q 217 328 257 338 Q 368 375 520 395 L 570 401 Z" fill="black"></path>
				<path d="M 388 341 Q 388 227 260 111 Q 257 110 255 107 Q 219 73 134 18 Q 125 11 131 7 Q 162 -5 263 57 Q 357 111 432 250 Q 445 272 462 293 Q 472 302 467 313 Q 463 325 433 345 Q 412 361 402 359 Q 389 358 388 341 Z" fill="black"></path>
				<path d="M 974 49 Q 956 101 947 192 Q 946 208 938 214 Q 929 220 925 198 Q 906 87 890 67 Q 857 31 729 31 Q 659 32 628 45 Q 603 58 596 76 Q 572 143 590 261 Q 594 306 607 332 Q 622 371 570 401 C 546 419 508 422 520 395 Q 544 353 539 295 Q 533 79 563 34 Q 606 -32 831 -22 Q 919 -18 955 0 Q 986 16 974 49 Z" fill="red"></path>
</g>
		<text x="40" y="140" font-size="128" fill="#999999">6</text></g>
		<g id="id1:id1:id1" transform="matrix(1.0,0,0,1.0,1024,0.0)">			<g stroke="white" stroke-width="4" transform="scale(4, 4)"> <rect x="1" y="1" width="255" height="255" fill="white" stroke-width="0"/></g>
</g>
		<g id="id1:id2:id2" transform="matrix(1.0,0,0,1.0,2048,0.0)">			<g stroke="white" stroke-width="4" transform="scale(4, 4)"> <rect x="1" y="1" width="255" height="255" fill="white" stroke-width="0"/></g>
</g>
		<g id="id1:id3:id3" transform="matrix(1.0,0,0,1.0,3072,0.0)">			<g stroke="white" stroke-width="4" transform="scale(4, 4)"> <rect x="1" y="1" width="255" height="255" fill="white" stroke-width="0"/></g>
</g>
		<g id="id1:id4:id4" transform="matrix(1.0,0,0,1.0,4096,0.0)">			<g stroke="white" stroke-width="4" transform="scale(4, 4)"> <rect x="1" y="1" width="255" height="255" fill="white" stroke-width="0"/></g>
</g>
</g>
</svg>
