<?xml version="1.0" standalone="no"?>
<!DOCTYPE svg PUBLIC "-//W3C//DTD SVG 1.1//EN"
 "http://www.w3.org/Graphics/SVG/1.1/DTD/svg11.dtd">
<!-- generate by Handict dictionary app com.asnsami.handict -->

<svg xmlns="http://www.w3.org/2000/svg" xmlns:sodipodi="http://sodipodi.sourceforge.net/DTD/sodipodi-0.dtd" version="1.1" width="640" height="256" viewBox="0 0 5120 2048">
	<g id="id0:id0" transform="translate(0.0,0)">
		<g id="id0:id0:id0" transform="matrix(1.0,0,0,1.0,0,0.0)">			<g stroke="lightgray" stroke-width="4" transform="scale(4, 4)"> <rect x="0" y="0" width="256" height="256" fill="white" stroke-width="4"/></g>
			<g transform="scale(0.92, -0.92) translate(60, -920)">					<path d="M 468 792 Q 496 770 525 741 Q 541 728 559 728 Q 571 729 576 744 Q 582 762 570 795 Q 558 826 461 847 Q 443 851 436 847 Q 430 843 432 828 Q 436 815 468 792 Z" fill="red"></path>
				<path d="M 480 616 Q 772 662 789 675 Q 799 682 794 692 Q 787 705 759 713 Q 728 722 697 711 Q 463 644 240 633 Q 203 629 228 610 Q 267 586 347 596 Q 387 602 430 609 L 480 616 Z" fill="lightgray"></path>
				<path d="M 543 415 Q 562 419 584 424 Q 611 428 632 433 C 661 439 647 455 617 452 Q 503 439 385 424 Q 375 423 373 425 Q 372 428 379 435 Q 476 541 511 568 Q 529 581 520 593 Q 510 606 480 616 C 452 627 432 635 430 609 Q 430 540 348 463 Q 324 441 280 422 Q 252 412 251 401 Q 250 383 259 362 Q 269 341 282 335 Q 289 331 301 337 Q 335 356 375 369 L 406 378 Q 413 387 503 405 L 543 415 Z" fill="lightgray"></path>
				<path d="M 632 433 Q 674 382 684 380 Q 694 379 701 389 Q 708 402 706 430 Q 705 457 671 484 Q 637 508 596 530 Q 583 536 576 535 Q 572 532 570 520 Q 570 514 617 452 L 632 433 Z" fill="lightgray"></path>
				<path d="M 375 369 L 376 367 Q 377 247 246 113 Q 243 112 241 109 Q 204 72 113 9 Q 106 2 111 -1 Q 118 -4 129 0 Q 192 21 246 60 Q 339 118 417 277 Q 430 302 447 326 Q 454 335 450 344 Q 441 366 406 378 C 378 389 374 391 375 369 Z" fill="lightgray"></path>
				<path d="M 970 76 Q 954 128 947 216 Q 946 232 938 238 Q 929 244 925 223 Q 903 114 886 96 Q 855 59 726 55 Q 656 55 624 66 Q 597 79 591 96 Q 564 157 578 264 Q 581 313 593 341 Q 608 384 543 415 C 517 430 492 433 503 405 Q 527 354 526 302 Q 526 92 562 49 Q 587 16 668 6 Q 731 -1 829 4 Q 917 10 952 29 Q 982 44 970 76 Z" fill="lightgray"></path>
</g>
		<text x="40" y="140" font-size="128" fill="#999999">1</text></g>
		<g id="id0:id1:id1" transform="matrix(1.0,0,0,1.0,1024,0.0)">			<g stroke="lightgray" stroke-width="4" transform="scale(4, 4)"> <rect x="0" y="0" width="256" height="256" fill="white" stroke-width="4"/></g>
			<g transform="scale(0.92, -0.92) translate(60, -920)">					<path d="M 468 792 Q 496 770 525 741 Q 541 728 559 728 Q 571 729 576 744 Q 582 762 570 795 Q 558 826 461 847 Q 443 851 436 847 Q 430 843 432 828 Q 436 815 468 792 Z" fill="black"></path>
				<path d="M 480 616 Q 772 662 789 675 Q 799 682 794 692 Q 787 705 759 713 Q 728 722 697 711 Q 463 644 240 633 Q 203 629 228 610 Q 267 586 347 596 Q 387 602 430 609 L 480 616 Z" fill="red"></path>
				<path d="M 543 415 Q 562 419 584 424 Q 611 428 632 433 C 661 439 647 455 617 452 Q 503 439 385 424 Q 375 423 373 425 Q 372 428 379 435 Q 476 541 511 568 Q 529 581 520 593 Q 510 606 480 616 C 452 627 432 635 430 609 Q 430 540 348 463 Q 324 441 280 422 Q 252 412 251 401 Q 250 383 259 362 Q 269 341 282 335 Q 289 331 301 337 Q 335 356 375 369 L 406 378 Q 413 387 503 405 L 543 415 Z" fill="lightgray"></path>
				<path d="M 632 433 Q 674 382 684 380 Q 694 379 701 389 Q 708 402 706 430 Q 705 457 671 484 Q 637 508 596 530 Q 583 536 576 535 Q 572 532 570 520 Q 570 514 617 452 L 632 433 Z" fill="lightgray"></path>
				<path d="M 375 369 L 376 367 Q 377 247 246 113 Q 243 112 241 109 Q 204 72 113 9 Q 106 2 111 -1 Q 118 -4 129 0 Q 192 21 246 60 Q 339 118 417 277 Q 430 302 447 326 Q 454 335 450 344 Q 441 366 406 378 C 378 389 374 391 375 369 Z" fill="lightgray"></path>
				<path d="M 970 76 Q 954 128 947 216 Q 946 232 938 238 Q 929 244 925 223 Q 903 114 886 96 Q 855 59 726 55 Q 656 55 624 66 Q 597 79 591 96 Q 564 157 578 264 Q 581 313 593 341 Q 608 384 543 415 C 517 430 492 433 503 405 Q 527 354 526 302 Q 526 92 562 49 Q 587 16 668 6 Q 731 -1 829 4 Q 917 10 952 29 Q 982 44 970 76 Z" fill="lightgray"></path>
</g>
		<text x="40" y="140" font-size="128" fill="#999999">2</text></g>
		<g id="id0:id2:id2" transform="matrix(1.0,0,0,1.0,2048,0.0)">			<g stroke="lightgray" stroke-width="4" transform="scale(4, 4)"> <rect x="0" y="0" width="256" height="256" fill="white" stroke-width="4"/></g>
			<g transform="scale(0.92, -0.92) translate(60, -920)">					<path d="M 468 792 Q 496 770 525 741 Q 541 728 559 728 Q 571 729 576 744 Q 582 762 570 795 Q 558 826 461 847 Q 443 851 436 847 Q 430 843 432 828 Q 436 815 468 792 Z" fill="black"></path>
				<path d="M 480 616 Q 772 662 789 675 Q 799 682 794 692 Q 787 705 759 713 Q 728 722 697 711 Q 463 644 240 633 Q 203 629 228 610 Q 267 586 347 596 Q 387 602 430 609 L 480 616 Z" fill="black"></path>
				<path d="M 543 415 Q 562 419 584 424 Q 611 428 632 433 C 661 439 647 455 617 452 Q 503 439 385 424 Q 375 423 373 425 Q 372 428 379 435 Q 476 541 511 568 Q 529 581 520 593 Q 510 606 480 616 C 452 627 432 635 430 609 Q 430 540 348 463 Q 324 441 280 422 Q 252 412 251 401 Q 250 383 259 362 Q 269 341 282 335 Q 289 331 301 337 Q 335 356 375 369 L 406 378 Q 413 387 503 405 L 543 415 Z" fill="red"></path>
				<path d="M 632 433 Q 674 382 684 380 Q 694 379 701 389 Q 708 402 706 430 Q 705 457 671 484 Q 637 508 596 530 Q 583 536 576 535 Q 572 532 570 520 Q 570 514 617 452 L 632 433 Z" fill="lightgray"></path>
				<path d="M 375 369 L 376 367 Q 377 247 246 113 Q 243 112 241 109 Q 204 72 113 9 Q 106 2 111 -1 Q 118 -4 129 0 Q 192 21 246 60 Q 339 118 417 277 Q 430 302 447 326 Q 454 335 450 344 Q 441 366 406 378 C 378 389 374 391 375 369 Z" fill="lightgray"></path>
				<path d="M 970 76 Q 954 128 947 216 Q 946 232 938 238 Q 929 244 925 223 Q 903 114 886 96 Q 855 59 726 55 Q 656 55 624 66 Q 597 79 591 96 Q 564 157 578 264 Q 581 313 593 341 Q 608 384 543 415 C 517 430 492 433 503 405 Q 527 354 526 302 Q 526 92 562 49 Q 587 16 668 6 Q 731 -1 829 4 Q 917 10 952 29 Q 982 44 970 76 Z" fill="lightgray"></path>
</g>
		<text x="40" y="140" font-size="128" fill="#999999">3</text></g>
		<g id="id0:id3:id3" transform="matrix(1.0,0,0,1.0,3072,0.0)">			<g stroke="lightgray" stroke-width="4" transform="scale(4, 4)"> <rect x="0" y="0" width="256" height="256" fill="white" stroke-width="4"/></g>
			<g transform="scale(0.92, -0.92) translate(60, -920)">					<path d="M 468 792 Q 496 770 525 741 Q 541 728 559 728 Q 571 729 576 744 Q 582 762 570 795 Q 558 826 461 847 Q 443 851 436 847 Q 430 843 432 828 Q 436 815 468 792 Z" fill="black"></path>
				<path d="M 480 616 Q 772 662 789 675 Q 799 682 794 692 Q 787 705 759 713 Q 728 722 697 711 Q 463 644 240 633 Q 203 629 228 610 Q 267 586 347 596 Q 387 602 430 609 L 480 616 Z" fill="black"></path>
				<path d="M 543 415 Q 562 419 584 424 Q 611 428 632 433 C 661 439 647 455 617 452 Q 503 439 385 424 Q 375 423 373 425 Q 372 428 379 435 Q 476 541 511 568 Q 529 581 520 593 Q 510 606 480 616 C 452 627 432 635 430 609 Q 430 540 348 463 Q 324 441 280 422 Q 252 412 251 401 Q 250 383 259 362 Q 269 341 282 335 Q 289 331 301 337 Q 335 356 375 369 L 406 378 Q 413 387 503 405 L 543 415 Z" fill="black"></path>
				<path d="M 632 433 Q 674 382 684 380 Q 694 379 701 389 Q 708 402 706 430 Q 705 457 671 484 Q 637 508 596 530 Q 583 536 576 535 Q 572 532 570 520 Q 570 514 617 452 L 632 433 Z" fill="red"></path>
				<path d="M 375 369 L 376 367 Q 377 247 246 113 Q 243 112 241 109 Q 204 72 113 9 Q 106 2 111 -1 Q 118 -4 129 0 Q 192 21 246 60 Q 339 118 417 277 Q 430 302 447 326 Q 454 335 450 344 Q 441 366 406 378 C 378 389 374 391 375 369 Z" fill="lightgray"></path>
				<path d="M 970 76 Q 954 128 947 216 Q 946 232 938 238 Q 929 244 925 223 Q 903 114 886 96 Q 855 59 726 55 Q 656 55 624 66 Q 597 79 591 96 Q 564 157 578 264 Q 581 313 593 341 Q 608 384 543 415 C 517 430 492 433 503 405 Q 527 354 526 302 Q 526 92 562 49 Q 587 16 668 6 Q 731 -1 829 4 Q 917 10 952 29 Q 982 44 970 76 Z" fill="lightgray"></path>
</g>
		<text x="40" y="140" font-size="128" fill="#999999">4</text></g>
		<g id="id0:id4:id4" transform="matrix(1.0,0,0,1.0,4096,0.0)">			<g stroke="lightgray" stroke-width="4" transform="scale(4, 4)"> <rect x="0" y="0" width="256" height="256" fill="white" stroke-width="4"/></g>
			<g transform="scale(0.92, -0.92) translate(60, -920)">					<path d="M 468 792 Q 496 770 525 741 Q 541 728 559 728 Q 571 729 576 744 Q 582 762 570 795 Q 558 826 461 847 Q 443 851 436 847 Q 430 843 432 828 Q 436 815 468 792 Z" fill="black"></path>
				<path d="M 480 616 Q 772 662 789 675 Q 799 682 794 692 Q 787 705 759 713 Q 728 722 697 711 Q 463 644 240 633 Q 203 629 228 610 Q 267 586 347 596 Q 387 602 430 609 L 480 616 Z" fill="black"></path>
				<path d="M 543 415 Q 562 419 584 424 Q 611 428 632 433 C 661 439 647 455 617 452 Q 503 439 385 424 Q 375 423 373 425 Q 372 428 379 435 Q 476 541 511 568 Q 529 581 520 593 Q 510 606 480 616 C 452 627 432 635 430 609 Q 430 540 348 463 Q 324 441 280 422 Q 252 412 251 401 Q 250 383 259 362 Q 269 341 282 335 Q 289 331 301 337 Q 335 356 375 369 L 406 378 Q 413 387 503 405 L 543 415 Z" fill="black"></path>
				<path d="M 632 433 Q 674 382 684 380 Q 694 379 701 389 Q 708 402 706 430 Q 705 457 671 484 Q 637 508 596 530 Q 583 536 576 535 Q 572 532 570 520 Q 570 514 617 452 L 632 433 Z" fill="black"></path>
				<path d="M 375 369 L 376 367 Q 377 247 246 113 Q 243 112 241 109 Q 204 72 113 9 Q 106 2 111 -1 Q 118 -4 129 0 Q 192 21 246 60 Q 339 118 417 277 Q 430 302 447 326 Q 454 335 450 344 Q 441 366 406 378 C 378 389 374 391 375 369 Z" fill="red"></path>
				<path d="M 970 76 Q 954 128 947 216 Q 946 232 938 238 Q 929 244 925 223 Q 903 114 886 96 Q 855 59 726 55 Q 656 55 624 66 Q 597 79 591 96 Q 564 157 578 264 Q 581 313 593 341 Q 608 384 543 415 C 517 430 492 433 503 405 Q 527 354 526 302 Q 526 92 562 49 Q 587 16 668 6 Q 731 -1 829 4 Q 917 10 952 29 Q 982 44 970 76 Z" fill="lightgray"></path>
</g>
		<text x="40" y="140" font-size="128" fill="#999999">5</text></g>
</g>
	<g id="id1:id1" transform="translate(0.0,1024)">
		<g id="id1:id0:id0" transform="matrix(1.0,0,0,1.0,0,0.0)">			<g stroke="lightgray" stroke-width="4" transform="scale(4, 4)"> <rect x="0" y="0" width="256" height="256" fill="white" stroke-width="4"/></g>
			<g transform="scale(0.92, -0.92) translate(60, -920)">					<path d="M 468 792 Q 496 770 525 741 Q 541 728 559 728 Q 571 729 576 744 Q 582 762 570 795 Q 558 826 461 847 Q 443 851 436 847 Q 430 843 432 828 Q 436 815 468 792 Z" fill="black"></path>
				<path d="M 480 616 Q 772 662 789 675 Q 799 682 794 692 Q 787 705 759 713 Q 728 722 697 711 Q 463 644 240 633 Q 203 629 228 610 Q 267 586 347 596 Q 387 602 430 609 L 480 616 Z" fill="black"></path>
				<path d="M 543 415 Q 562 419 584 424 Q 611 428 632 433 C 661 439 647 455 617 452 Q 503 439 385 424 Q 375 423 373 425 Q 372 428 379 435 Q 476 541 511 568 Q 529 581 520 593 Q 510 606 480 616 C 452 627 432 635 430 609 Q 430 540 348 463 Q 324 441 280 422 Q 252 412 251 401 Q 250 383 259 362 Q 269 341 282 335 Q 289 331 301 337 Q 335 356 375 369 L 406 378 Q 413 387 503 405 L 543 415 Z" fill="black"></path>
				<path d="M 632 433 Q 674 382 684 380 Q 694 379 701 389 Q 708 402 706 430 Q 705 457 671 484 Q 637 508 596 530 Q 583 536 576 535 Q 572 532 570 520 Q 570 514 617 452 L 632 433 Z" fill="black"></path>
				<path d="M 375 369 L 376 367 Q 377 247 246 113 Q 243 112 241 109 Q 204 72 113 9 Q 106 2 111 -1 Q 118 -4 129 0 Q 192 21 246 60 Q 339 118 417 277 Q 430 302 447 326 Q 454 335 450 344 Q 441 366 406 378 C 378 389 374 391 375 369 Z" fill="black"></path>
				<path d="M 970 76 Q 954 128 947 216 Q 946 232 938 238 Q 929 244 925 223 Q 903 114 886 96 Q 855 59 726 55 Q 656 55 624 66 Q 597 79 591 96 Q 564 157 578 264 Q 581 313 593 341 Q 608 384 543 415 C 517 430 492 433 503 405 Q 527 354 526 302 Q 526 92 562 49 Q 587 16 668 6 Q 731 -1 829 4 Q 917 10 952 29 Q 982 44 970 76 Z" fill="red"></path>
</g>
		<text x="40" y="140" font-size="128" fill="#999999">6</text></g>
		<g id="id1:id1:id1" transform="matrix(1.0,0,0,1.0,1024,0.0)">			<g stroke="white" stroke-width="4" transform="scale(4, 4)"> <rect x="1" y="1" width="255" height="255" fill="white" stroke-width="0"/></g>
</g>
		<g id="id1:id2:id2" transform="matrix(1.0,0,0,1.0,2048,0.0)">			<g stroke="white" stroke-width="4" transform="scale(4, 4)"> <rect x="1" y="1" width="255" height="255" fill="white" stroke-width="0"/></g>
</g>
		<g id="id1:id3:id3" transform="matrix(1.0,0,0,1.0,3072,0.0)">			<g stroke="white" stroke-width="4" transform="scale(4, 4)"> <rect x="1" y="1" width="255" height="255" fill="white" stroke-width="0"/></g>
</g>
		<g id="id1:id4:id4" transform="matrix(1.0,0,0,1.0,4096,0.0)">			<g stroke="white" stroke-width="4" transform="scale(4, 4)"> <rect x="1" y="1" width="255" height="255" fill="white" stroke-width="0"/></g>
</g>
</g>
</svg>
