<?xml version="1.0" standalone="no"?>
<!DOCTYPE svg PUBLIC "-//W3C//DTD SVG 1.1//EN"
 "http://www.w3.org/Graphics/SVG/1.1/DTD/svg11.dtd">
<!-- generate by Handict dictionary app com.asnsami.handict -->

<svg xmlns="http://www.w3.org/2000/svg" xmlns:sodipodi="http://sodipodi.sourceforge.net/DTD/sodipodi-0.dtd" version="1.1" width="640" height="256" viewBox="0 0 5120 2048">
	<g id="id0:id0" transform="translate(0.0,0)">
		<g id="id0:id0:id0" transform="matrix(1.0,0,0,1.0,0,0.0)">			<g stroke="lightgray" stroke-width="4" transform="scale(4, 4)"> <rect x="0" y="0" width="256" height="256" fill="white" stroke-width="4"/></g>
			<g transform="scale(0.92, -0.92) translate(60, -920)">					<path d="M 290 573 Q 266 586 241 590 Q 225 593 218 585 Q 211 578 220 563 Q 247 527 262 487 Q 275 447 314 281 C 321 252 362 256 356 285 Q 320 459 314 531 C 311 561 311 562 290 573 Z" fill="red"></path>
				<path d="M 722 325 Q 762 491 802 553 Q 814 565 809 577 Q 802 595 740 625 Q 722 634 708 629 Q 662 622 614 612 L 565 604 Q 510 598 454 589 L 409 585 Q 351 579 290 573 C 260 570 284 527 314 531 Q 327 530 339 535 Q 373 542 412 548 L 455 555 Q 507 565 563 572 L 611 578 Q 675 596 704 578 Q 714 571 712 547 Q 699 453 665 318 C 658 289 715 296 722 325 Z" fill="lightgray"></path>
				<path d="M 596 431 Q 623 435 650 438 Q 672 439 665 453 Q 655 466 632 472 Q 619 475 600 472 L 556 465 Q 505 455 460 445 L 419 438 Q 388 434 360 428 Q 344 425 362 410 Q 375 400 405 404 Q 412 405 421 406 L 462 412 Q 508 419 552 425 L 596 431 Z" fill="lightgray"></path>
				<path d="M 454 589 Q 454 671 457 695 Q 461 720 445 733 Q 420 752 391 761 Q 375 767 366 760 Q 357 753 365 737 Q 401 662 409 585 L 412 548 Q 415 505 419 438 L 421 406 Q 424 355 427 292 C 428 262 472 266 470 296 Q 466 359 462 412 L 460 445 Q 456 506 455 555 L 454 589 Z" fill="lightgray"></path>
				<path d="M 614 612 Q 617 661 644 760 Q 648 770 629 787 Q 595 808 570 813 Q 554 817 546 809 Q 537 802 545 787 Q 570 744 569 716 Q 568 662 565 604 L 563 572 Q 559 520 556 465 L 552 425 Q 545 367 539 303 C 536 273 579 278 582 308 Q 589 372 596 431 L 600 472 Q 604 527 611 578 L 614 612 Z" fill="lightgray"></path>
				<path d="M 314 281 Q 223 275 128 266 Q 103 265 120 243 Q 156 207 201 217 Q 501 286 912 264 Q 913 265 916 264 Q 940 263 946 273 Q 953 286 934 304 Q 870 353 803 339 Q 766 335 722 325 L 665 318 Q 625 314 582 308 L 539 303 Q 526 303 514 301 Q 492 300 470 296 L 427 292 Q 391 291 356 285 L 314 281 Z" fill="lightgray"></path>
				<path d="M 359 195 Q 349 131 186 -2 Q 161 -18 192 -16 Q 267 -10 387 105 Q 388 108 439 154 Q 452 167 449 178 Q 446 193 417 202 Q 386 215 372 211 Q 363 210 359 195 Z" fill="lightgray"></path>
				<path d="M 610 173 Q 680 109 764 14 Q 782 -10 799 -15 Q 809 -16 817 -5 Q 832 10 818 59 Q 808 126 612 208 Q 602 215 600 200 Q 599 185 610 173 Z" fill="lightgray"></path>
</g>
		<text x="40" y="140" font-size="128" fill="#999999">1</text></g>
		<g id="id0:id1:id1" transform="matrix(1.0,0,0,1.0,1024,0.0)">			<g stroke="lightgray" stroke-width="4" transform="scale(4, 4)"> <rect x="0" y="0" width="256" height="256" fill="white" stroke-width="4"/></g>
			<g transform="scale(0.92, -0.92) translate(60, -920)">					<path d="M 290 573 Q 266 586 241 590 Q 225 593 218 585 Q 211 578 220 563 Q 247 527 262 487 Q 275 447 314 281 C 321 252 362 256 356 285 Q 320 459 314 531 C 311 561 311 562 290 573 Z" fill="black"></path>
				<path d="M 722 325 Q 762 491 802 553 Q 814 565 809 577 Q 802 595 740 625 Q 722 634 708 629 Q 662 622 614 612 L 565 604 Q 510 598 454 589 L 409 585 Q 351 579 290 573 C 260 570 284 527 314 531 Q 327 530 339 535 Q 373 542 412 548 L 455 555 Q 507 565 563 572 L 611 578 Q 675 596 704 578 Q 714 571 712 547 Q 699 453 665 318 C 658 289 715 296 722 325 Z" fill="red"></path>
				<path d="M 596 431 Q 623 435 650 438 Q 672 439 665 453 Q 655 466 632 472 Q 619 475 600 472 L 556 465 Q 505 455 460 445 L 419 438 Q 388 434 360 428 Q 344 425 362 410 Q 375 400 405 404 Q 412 405 421 406 L 462 412 Q 508 419 552 425 L 596 431 Z" fill="lightgray"></path>
				<path d="M 454 589 Q 454 671 457 695 Q 461 720 445 733 Q 420 752 391 761 Q 375 767 366 760 Q 357 753 365 737 Q 401 662 409 585 L 412 548 Q 415 505 419 438 L 421 406 Q 424 355 427 292 C 428 262 472 266 470 296 Q 466 359 462 412 L 460 445 Q 456 506 455 555 L 454 589 Z" fill="lightgray"></path>
				<path d="M 614 612 Q 617 661 644 760 Q 648 770 629 787 Q 595 808 570 813 Q 554 817 546 809 Q 537 802 545 787 Q 570 744 569 716 Q 568 662 565 604 L 563 572 Q 559 520 556 465 L 552 425 Q 545 367 539 303 C 536 273 579 278 582 308 Q 589 372 596 431 L 600 472 Q 604 527 611 578 L 614 612 Z" fill="lightgray"></path>
				<path d="M 314 281 Q 223 275 128 266 Q 103 265 120 243 Q 156 207 201 217 Q 501 286 912 264 Q 913 265 916 264 Q 940 263 946 273 Q 953 286 934 304 Q 870 353 803 339 Q 766 335 722 325 L 665 318 Q 625 314 582 308 L 539 303 Q 526 303 514 301 Q 492 300 470 296 L 427 292 Q 391 291 356 285 L 314 281 Z" fill="lightgray"></path>
				<path d="M 359 195 Q 349 131 186 -2 Q 161 -18 192 -16 Q 267 -10 387 105 Q 388 108 439 154 Q 452 167 449 178 Q 446 193 417 202 Q 386 215 372 211 Q 363 210 359 195 Z" fill="lightgray"></path>
				<path d="M 610 173 Q 680 109 764 14 Q 782 -10 799 -15 Q 809 -16 817 -5 Q 832 10 818 59 Q 808 126 612 208 Q 602 215 600 200 Q 599 185 610 173 Z" fill="lightgray"></path>
</g>
		<text x="40" y="140" font-size="128" fill="#999999">2</text></g>
		<g id="id0:id2:id2" transform="matrix(1.0,0,0,1.0,2048,0.0)">			<g stroke="lightgray" stroke-width="4" transform="scale(4, 4)"> <rect x="0" y="0" width="256" height="256" fill="white" stroke-width="4"/></g>
			<g transform="scale(0.92, -0.92) translate(60, -920)">					<path d="M 290 573 Q 266 586 241 590 Q 225 593 218 585 Q 211 578 220 563 Q 247 527 262 487 Q 275 447 314 281 C 321 252 362 256 356 285 Q 320 459 314 531 C 311 561 311 562 290 573 Z" fill="black"></path>
				<path d="M 722 325 Q 762 491 802 553 Q 814 565 809 577 Q 802 595 740 625 Q 722 634 708 629 Q 662 622 614 612 L 565 604 Q 510 598 454 589 L 409 585 Q 351 579 290 573 C 260 570 284 527 314 531 Q 327 530 339 535 Q 373 542 412 548 L 455 555 Q 507 565 563 572 L 611 578 Q 675 596 704 578 Q 714 571 712 547 Q 699 453 665 318 C 658 289 715 296 722 325 Z" fill="black"></path>
				<path d="M 596 431 Q 623 435 650 438 Q 672 439 665 453 Q 655 466 632 472 Q 619 475 600 472 L 556 465 Q 505 455 460 445 L 419 438 Q 388 434 360 428 Q 344 425 362 410 Q 375 400 405 404 Q 412 405 421 406 L 462 412 Q 508 419 552 425 L 596 431 Z" fill="red"></path>
				<path d="M 454 589 Q 454 671 457 695 Q 461 720 445 733 Q 420 752 391 761 Q 375 767 366 760 Q 357 753 365 737 Q 401 662 409 585 L 412 548 Q 415 505 419 438 L 421 406 Q 424 355 427 292 C 428 262 472 266 470 296 Q 466 359 462 412 L 460 445 Q 456 506 455 555 L 454 589 Z" fill="lightgray"></path>
				<path d="M 614 612 Q 617 661 644 760 Q 648 770 629 787 Q 595 808 570 813 Q 554 817 546 809 Q 537 802 545 787 Q 570 744 569 716 Q 568 662 565 604 L 563 572 Q 559 520 556 465 L 552 425 Q 545 367 539 303 C 536 273 579 278 582 308 Q 589 372 596 431 L 600 472 Q 604 527 611 578 L 614 612 Z" fill="lightgray"></path>
				<path d="M 314 281 Q 223 275 128 266 Q 103 265 120 243 Q 156 207 201 217 Q 501 286 912 264 Q 913 265 916 264 Q 940 263 946 273 Q 953 286 934 304 Q 870 353 803 339 Q 766 335 722 325 L 665 318 Q 625 314 582 308 L 539 303 Q 526 303 514 301 Q 492 300 470 296 L 427 292 Q 391 291 356 285 L 314 281 Z" fill="lightgray"></path>
				<path d="M 359 195 Q 349 131 186 -2 Q 161 -18 192 -16 Q 267 -10 387 105 Q 388 108 439 154 Q 452 167 449 178 Q 446 193 417 202 Q 386 215 372 211 Q 363 210 359 195 Z" fill="lightgray"></path>
				<path d="M 610 173 Q 680 109 764 14 Q 782 -10 799 -15 Q 809 -16 817 -5 Q 832 10 818 59 Q 808 126 612 208 Q 602 215 600 200 Q 599 185 610 173 Z" fill="lightgray"></path>
</g>
		<text x="40" y="140" font-size="128" fill="#999999">3</text></g>
		<g id="id0:id3:id3" transform="matrix(1.0,0,0,1.0,3072,0.0)">			<g stroke="lightgray" stroke-width="4" transform="scale(4, 4)"> <rect x="0" y="0" width="256" height="256" fill="white" stroke-width="4"/></g>
			<g transform="scale(0.92, -0.92) translate(60, -920)">					<path d="M 290 573 Q 266 586 241 590 Q 225 593 218 585 Q 211 578 220 563 Q 247 527 262 487 Q 275 447 314 281 C 321 252 362 256 356 285 Q 320 459 314 531 C 311 561 311 562 290 573 Z" fill="black"></path>
				<path d="M 722 325 Q 762 491 802 553 Q 814 565 809 577 Q 802 595 740 625 Q 722 634 708 629 Q 662 622 614 612 L 565 604 Q 510 598 454 589 L 409 585 Q 351 579 290 573 C 260 570 284 527 314 531 Q 327 530 339 535 Q 373 542 412 548 L 455 555 Q 507 565 563 572 L 611 578 Q 675 596 704 578 Q 714 571 712 547 Q 699 453 665 318 C 658 289 715 296 722 325 Z" fill="black"></path>
				<path d="M 596 431 Q 623 435 650 438 Q 672 439 665 453 Q 655 466 632 472 Q 619 475 600 472 L 556 465 Q 505 455 460 445 L 419 438 Q 388 434 360 428 Q 344 425 362 410 Q 375 400 405 404 Q 412 405 421 406 L 462 412 Q 508 419 552 425 L 596 431 Z" fill="black"></path>
				<path d="M 454 589 Q 454 671 457 695 Q 461 720 445 733 Q 420 752 391 761 Q 375 767 366 760 Q 357 753 365 737 Q 401 662 409 585 L 412 548 Q 415 505 419 438 L 421 406 Q 424 355 427 292 C 428 262 472 266 470 296 Q 466 359 462 412 L 460 445 Q 456 506 455 555 L 454 589 Z" fill="red"></path>
				<path d="M 614 612 Q 617 661 644 760 Q 648 770 629 787 Q 595 808 570 813 Q 554 817 546 809 Q 537 802 545 787 Q 570 744 569 716 Q 568 662 565 604 L 563 572 Q 559 520 556 465 L 552 425 Q 545 367 539 303 C 536 273 579 278 582 308 Q 589 372 596 431 L 600 472 Q 604 527 611 578 L 614 612 Z" fill="lightgray"></path>
				<path d="M 314 281 Q 223 275 128 266 Q 103 265 120 243 Q 156 207 201 217 Q 501 286 912 264 Q 913 265 916 264 Q 940 263 946 273 Q 953 286 934 304 Q 870 353 803 339 Q 766 335 722 325 L 665 318 Q 625 314 582 308 L 539 303 Q 526 303 514 301 Q 492 300 470 296 L 427 292 Q 391 291 356 285 L 314 281 Z" fill="lightgray"></path>
				<path d="M 359 195 Q 349 131 186 -2 Q 161 -18 192 -16 Q 267 -10 387 105 Q 388 108 439 154 Q 452 167 449 178 Q 446 193 417 202 Q 386 215 372 211 Q 363 210 359 195 Z" fill="lightgray"></path>
				<path d="M 610 173 Q 680 109 764 14 Q 782 -10 799 -15 Q 809 -16 817 -5 Q 832 10 818 59 Q 808 126 612 208 Q 602 215 600 200 Q 599 185 610 173 Z" fill="lightgray"></path>
</g>
		<text x="40" y="140" font-size="128" fill="#999999">4</text></g>
		<g id="id0:id4:id4" transform="matrix(1.0,0,0,1.0,4096,0.0)">			<g stroke="lightgray" stroke-width="4" transform="scale(4, 4)"> <rect x="0" y="0" width="256" height="256" fill="white" stroke-width="4"/></g>
			<g transform="scale(0.92, -0.92) translate(60, -920)">					<path d="M 290 573 Q 266 586 241 590 Q 225 593 218 585 Q 211 578 220 563 Q 247 527 262 487 Q 275 447 314 281 C 321 252 362 256 356 285 Q 320 459 314 531 C 311 561 311 562 290 573 Z" fill="black"></path>
				<path d="M 722 325 Q 762 491 802 553 Q 814 565 809 577 Q 802 595 740 625 Q 722 634 708 629 Q 662 622 614 612 L 565 604 Q 510 598 454 589 L 409 585 Q 351 579 290 573 C 260 570 284 527 314 531 Q 327 530 339 535 Q 373 542 412 548 L 455 555 Q 507 565 563 572 L 611 578 Q 675 596 704 578 Q 714 571 712 547 Q 699 453 665 318 C 658 289 715 296 722 325 Z" fill="black"></path>
				<path d="M 596 431 Q 623 435 650 438 Q 672 439 665 453 Q 655 466 632 472 Q 619 475 600 472 L 556 465 Q 505 455 460 445 L 419 438 Q 388 434 360 428 Q 344 425 362 410 Q 375 400 405 404 Q 412 405 421 406 L 462 412 Q 508 419 552 425 L 596 431 Z" fill="black"></path>
				<path d="M 454 589 Q 454 671 457 695 Q 461 720 445 733 Q 420 752 391 761 Q 375 767 366 760 Q 357 753 365 737 Q 401 662 409 585 L 412 548 Q 415 505 419 438 L 421 406 Q 424 355 427 292 C 428 262 472 266 470 296 Q 466 359 462 412 L 460 445 Q 456 506 455 555 L 454 589 Z" fill="black"></path>
				<path d="M 614 612 Q 617 661 644 760 Q 648 770 629 787 Q 595 808 570 813 Q 554 817 546 809 Q 537 802 545 787 Q 570 744 569 716 Q 568 662 565 604 L 563 572 Q 559 520 556 465 L 552 425 Q 545 367 539 303 C 536 273 579 278 582 308 Q 589 372 596 431 L 600 472 Q 604 527 611 578 L 614 612 Z" fill="red"></path>
				<path d="M 314 281 Q 223 275 128 266 Q 103 265 120 243 Q 156 207 201 217 Q 501 286 912 264 Q 913 265 916 264 Q 940 263 946 273 Q 953 286 934 304 Q 870 353 803 339 Q 766 335 722 325 L 665 318 Q 625 314 582 308 L 539 303 Q 526 303 514 301 Q 492 300 470 296 L 427 292 Q 391 291 356 285 L 314 281 Z" fill="lightgray"></path>
				<path d="M 359 195 Q 349 131 186 -2 Q 161 -18 192 -16 Q 267 -10 387 105 Q 388 108 439 154 Q 452 167 449 178 Q 446 193 417 202 Q 386 215 372 211 Q 363 210 359 195 Z" fill="lightgray"></path>
				<path d="M 610 173 Q 680 109 764 14 Q 782 -10 799 -15 Q 809 -16 817 -5 Q 832 10 818 59 Q 808 126 612 208 Q 602 215 600 200 Q 599 185 610 173 Z" fill="lightgray"></path>
</g>
		<text x="40" y="140" font-size="128" fill="#999999">5</text></g>
</g>
	<g id="id1:id1" transform="translate(0.0,1024)">
		<g id="id1:id0:id0" transform="matrix(1.0,0,0,1.0,0,0.0)">			<g stroke="lightgray" stroke-width="4" transform="scale(4, 4)"> <rect x="0" y="0" width="256" height="256" fill="white" stroke-width="4"/></g>
			<g transform="scale(0.92, -0.92) translate(60, -920)">					<path d="M 290 573 Q 266 586 241 590 Q 225 593 218 585 Q 211 578 220 563 Q 247 527 262 487 Q 275 447 314 281 C 321 252 362 256 356 285 Q 320 459 314 531 C 311 561 311 562 290 573 Z" fill="black"></path>
				<path d="M 722 325 Q 762 491 802 553 Q 814 565 809 577 Q 802 595 740 625 Q 722 634 708 629 Q 662 622 614 612 L 565 604 Q 510 598 454 589 L 409 585 Q 351 579 290 573 C 260 570 284 527 314 531 Q 327 530 339 535 Q 373 542 412 548 L 455 555 Q 507 565 563 572 L 611 578 Q 675 596 704 578 Q 714 571 712 547 Q 699 453 665 318 C 658 289 715 296 722 325 Z" fill="black"></path>
				<path d="M 596 431 Q 623 435 650 438 Q 672 439 665 453 Q 655 466 632 472 Q 619 475 600 472 L 556 465 Q 505 455 460 445 L 419 438 Q 388 434 360 428 Q 344 425 362 410 Q 375 400 405 404 Q 412 405 421 406 L 462 412 Q 508 419 552 425 L 596 431 Z" fill="black"></path>
				<path d="M 454 589 Q 454 671 457 695 Q 461 720 445 733 Q 420 752 391 761 Q 375 767 366 760 Q 357 753 365 737 Q 401 662 409 585 L 412 548 Q 415 505 419 438 L 421 406 Q 424 355 427 292 C 428 262 472 266 470 296 Q 466 359 462 412 L 460 445 Q 456 506 455 555 L 454 589 Z" fill="black"></path>
				<path d="M 614 612 Q 617 661 644 760 Q 648 770 629 787 Q 595 808 570 813 Q 554 817 546 809 Q 537 802 545 787 Q 570 744 569 716 Q 568 662 565 604 L 563 572 Q 559 520 556 465 L 552 425 Q 545 367 539 303 C 536 273 579 278 582 308 Q 589 372 596 431 L 600 472 Q 604 527 611 578 L 614 612 Z" fill="black"></path>
				<path d="M 314 281 Q 223 275 128 266 Q 103 265 120 243 Q 156 207 201 217 Q 501 286 912 264 Q 913 265 916 264 Q 940 263 946 273 Q 953 286 934 304 Q 870 353 803 339 Q 766 335 722 325 L 665 318 Q 625 314 582 308 L 539 303 Q 526 303 514 301 Q 492 300 470 296 L 427 292 Q 391 291 356 285 L 314 281 Z" fill="red"></path>
				<path d="M 359 195 Q 349 131 186 -2 Q 161 -18 192 -16 Q 267 -10 387 105 Q 388 108 439 154 Q 452 167 449 178 Q 446 193 417 202 Q 386 215 372 211 Q 363 210 359 195 Z" fill="lightgray"></path>
				<path d="M 610 173 Q 680 109 764 14 Q 782 -10 799 -15 Q 809 -16 817 -5 Q 832 10 818 59 Q 808 126 612 208 Q 602 215 600 200 Q 599 185 610 173 Z" fill="lightgray"></path>
</g>
		<text x="40" y="140" font-size="128" fill="#999999">6</text></g>
		<g id="id1:id1:id1" transform="matrix(1.0,0,0,1.0,1024,0.0)">			<g stroke="lightgray" stroke-width="4" transform="scale(4, 4)"> <rect x="0" y="0" width="256" height="256" fill="white" stroke-width="4"/></g>
			<g transform="scale(0.92, -0.92) translate(60, -920)">					<path d="M 290 573 Q 266 586 241 590 Q 225 593 218 585 Q 211 578 220 563 Q 247 527 262 487 Q 275 447 314 281 C 321 252 362 256 356 285 Q 320 459 314 531 C 311 561 311 562 290 573 Z" fill="black"></path>
				<path d="M 722 325 Q 762 491 802 553 Q 814 565 809 577 Q 802 595 740 625 Q 722 634 708 629 Q 662 622 614 612 L 565 604 Q 510 598 454 589 L 409 585 Q 351 579 290 573 C 260 570 284 527 314 531 Q 327 530 339 535 Q 373 542 412 548 L 455 555 Q 507 565 563 572 L 611 578 Q 675 596 704 578 Q 714 571 712 547 Q 699 453 665 318 C 658 289 715 296 722 325 Z" fill="black"></path>
				<path d="M 596 431 Q 623 435 650 438 Q 672 439 665 453 Q 655 466 632 472 Q 619 475 600 472 L 556 465 Q 505 455 460 445 L 419 438 Q 388 434 360 428 Q 344 425 362 410 Q 375 400 405 404 Q 412 405 421 406 L 462 412 Q 508 419 552 425 L 596 431 Z" fill="black"></path>
				<path d="M 454 589 Q 454 671 457 695 Q 461 720 445 733 Q 420 752 391 761 Q 375 767 366 760 Q 357 753 365 737 Q 401 662 409 585 L 412 548 Q 415 505 419 438 L 421 406 Q 424 355 427 292 C 428 262 472 266 470 296 Q 466 359 462 412 L 460 445 Q 456 506 455 555 L 454 589 Z" fill="black"></path>
				<path d="M 614 612 Q 617 661 644 760 Q 648 770 629 787 Q 595 808 570 813 Q 554 817 546 809 Q 537 802 545 787 Q 570 744 569 716 Q 568 662 565 604 L 563 572 Q 559 520 556 465 L 552 425 Q 545 367 539 303 C 536 273 579 278 582 308 Q 589 372 596 431 L 600 472 Q 604 527 611 578 L 614 612 Z" fill="black"></path>
				<path d="M 314 281 Q 223 275 128 266 Q 103 265 120 243 Q 156 207 201 217 Q 501 286 912 264 Q 913 265 916 264 Q 940 263 946 273 Q 953 286 934 304 Q 870 353 803 339 Q 766 335 722 325 L 665 318 Q 625 314 582 308 L 539 303 Q 526 303 514 301 Q 492 300 470 296 L 427 292 Q 391 291 356 285 L 314 281 Z" fill="black"></path>
				<path d="M 359 195 Q 349 131 186 -2 Q 161 -18 192 -16 Q 267 -10 387 105 Q 388 108 439 154 Q 452 167 449 178 Q 446 193 417 202 Q 386 215 372 211 Q 363 210 359 195 Z" fill="red"></path>
				<path d="M 610 173 Q 680 109 764 14 Q 782 -10 799 -15 Q 809 -16 817 -5 Q 832 10 818 59 Q 808 126 612 208 Q 602 215 600 200 Q 599 185 610 173 Z" fill="lightgray"></path>
</g>
		<text x="40" y="140" font-size="128" fill="#999999">7</text></g>
		<g id="id1:id2:id2" transform="matrix(1.0,0,0,1.0,2048,0.0)">			<g stroke="lightgray" stroke-width="4" transform="scale(4, 4)"> <rect x="0" y="0" width="256" height="256" fill="white" stroke-width="4"/></g>
			<g transform="scale(0.92, -0.92) translate(60, -920)">					<path d="M 290 573 Q 266 586 241 590 Q 225 593 218 585 Q 211 578 220 563 Q 247 527 262 487 Q 275 447 314 281 C 321 252 362 256 356 285 Q 320 459 314 531 C 311 561 311 562 290 573 Z" fill="black"></path>
				<path d="M 722 325 Q 762 491 802 553 Q 814 565 809 577 Q 802 595 740 625 Q 722 634 708 629 Q 662 622 614 612 L 565 604 Q 510 598 454 589 L 409 585 Q 351 579 290 573 C 260 570 284 527 314 531 Q 327 530 339 535 Q 373 542 412 548 L 455 555 Q 507 565 563 572 L 611 578 Q 675 596 704 578 Q 714 571 712 547 Q 699 453 665 318 C 658 289 715 296 722 325 Z" fill="black"></path>
				<path d="M 596 431 Q 623 435 650 438 Q 672 439 665 453 Q 655 466 632 472 Q 619 475 600 472 L 556 465 Q 505 455 460 445 L 419 438 Q 388 434 360 428 Q 344 425 362 410 Q 375 400 405 404 Q 412 405 421 406 L 462 412 Q 508 419 552 425 L 596 431 Z" fill="black"></path>
				<path d="M 454 589 Q 454 671 457 695 Q 461 720 445 733 Q 420 752 391 761 Q 375 767 366 760 Q 357 753 365 737 Q 401 662 409 585 L 412 548 Q 415 505 419 438 L 421 406 Q 424 355 427 292 C 428 262 472 266 470 296 Q 466 359 462 412 L 460 445 Q 456 506 455 555 L 454 589 Z" fill="black"></path>
				<path d="M 614 612 Q 617 661 644 760 Q 648 770 629 787 Q 595 808 570 813 Q 554 817 546 809 Q 537 802 545 787 Q 570 744 569 716 Q 568 662 565 604 L 563 572 Q 559 520 556 465 L 552 425 Q 545 367 539 303 C 536 273 579 278 582 308 Q 589 372 596 431 L 600 472 Q 604 527 611 578 L 614 612 Z" fill="black"></path>
				<path d="M 314 281 Q 223 275 128 266 Q 103 265 120 243 Q 156 207 201 217 Q 501 286 912 264 Q 913 265 916 264 Q 940 263 946 273 Q 953 286 934 304 Q 870 353 803 339 Q 766 335 722 325 L 665 318 Q 625 314 582 308 L 539 303 Q 526 303 514 301 Q 492 300 470 296 L 427 292 Q 391 291 356 285 L 314 281 Z" fill="black"></path>
				<path d="M 359 195 Q 349 131 186 -2 Q 161 -18 192 -16 Q 267 -10 387 105 Q 388 108 439 154 Q 452 167 449 178 Q 446 193 417 202 Q 386 215 372 211 Q 363 210 359 195 Z" fill="black"></path>
				<path d="M 610 173 Q 680 109 764 14 Q 782 -10 799 -15 Q 809 -16 817 -5 Q 832 10 818 59 Q 808 126 612 208 Q 602 215 600 200 Q 599 185 610 173 Z" fill="red"></path>
</g>
		<text x="40" y="140" font-size="128" fill="#999999">8</text></g>
		<g id="id1:id3:id3" transform="matrix(1.0,0,0,1.0,3072,0.0)">			<g stroke="white" stroke-width="4" transform="scale(4, 4)"> <rect x="1" y="1" width="255" height="255" fill="white" stroke-width="0"/></g>
</g>
		<g id="id1:id4:id4" transform="matrix(1.0,0,0,1.0,4096,0.0)">			<g stroke="white" stroke-width="4" transform="scale(4, 4)"> <rect x="1" y="1" width="255" height="255" fill="white" stroke-width="0"/></g>
</g>
</g>
</svg>
