<?xml version="1.0" standalone="no"?>
<!DOCTYPE svg PUBLIC "-//W3C//DTD SVG 1.1//EN"
 "http://www.w3.org/Graphics/SVG/1.1/DTD/svg11.dtd">
<!-- generate by Japanese dictionary app com.asnsami.kanjidictionary -->

<svg xmlns="http://www.w3.org/2000/svg" xmlns:sodipodi="http://sodipodi.sourceforge.net/DTD/sodipodi-0.dtd" version="1.1" width="640" height="256" viewBox="0 0 5120 2048">
	<g id="id0:id0" transform="translate(0.0,0)">
		<g id="id0:id0:id0" transform="matrix(1.0,0,0,1.0,0,0.0)">			<g stroke="lightgray" stroke-width="4" transform="scale(4, 4)"> <rect x="0" y="0" width="256" height="256" fill="white" stroke-width="4"/></g>
			<g transform="scale(0.92, -0.92) translate(60, -920)">					<path d="M 383 657 Q 524 690 592 719 Q 644 737 689 743 Q 708 743 713 752 Q 717 764 705 778 Q 683 797 633 819 Q 617 829 601 828 Q 592 824 591 812 Q 587 772 368 677 C 341 665 354 650 383 657 Z" fill="red"></path>
				<path d="M 385 545 Q 384 614 386 633 Q 387 646 383 657 C 381 668 381 668 368 677 Q 340 699 306 707 Q 288 713 278 705 Q 268 698 277 678 Q 305 632 318 581 Q 328 529 352 318 C 355 288 405 293 402 323 Q 392 432 387 507 L 385 545 Z" fill="lightgray"></path>
				<path d="M 618 531 Q 756 558 762 564 Q 772 573 767 582 Q 760 595 727 605 Q 700 611 591 581 Q 486 556 385 545 C 355 542 357 510 387 507 Q 426 501 524 515 Q 546 519 572 523 L 618 531 Z" fill="lightgray"></path>
				<path d="M 619 351 Q 646 457 661 487 Q 665 496 649 512 Q 633 524 618 531 C 591 544 560 550 572 523 Q 572 522 574 518 Q 589 494 576 345 C 573 315 612 322 619 351 Z" fill="lightgray"></path>
				<path d="M 352 318 Q 234 308 106 292 Q 84 291 100 271 Q 116 255 135 249 Q 159 243 176 248 Q 425 311 849 312 Q 874 312 899 311 Q 921 310 927 320 Q 933 333 915 348 Q 857 393 816 384 Q 737 369 619 351 L 576 345 Q 539 341 497 335 Q 451 331 402 323 L 352 318 Z" fill="lightgray"></path>
				<path d="M 351 201 Q 275 125 153 42 Q 138 29 155 22 Q 203 22 344 109 Q 404 154 427 159 Q 449 166 444 187 Q 437 205 401 239 Q 389 251 376 249 Q 358 245 362 229 Q 366 213 351 201 Z" fill="lightgray"></path>
				<path d="M 598 200 Q 668 133 750 35 Q 768 11 786 5 Q 796 4 805 15 Q 821 30 808 82 Q 795 148 601 236 Q 591 243 588 228 Q 587 212 598 200 Z" fill="lightgray"></path>
</g>
		<text x="40" y="140" font-size="128" fill="#999999">1</text></g>
		<g id="id0:id1:id1" transform="matrix(1.0,0,0,1.0,1024,0.0)">			<g stroke="lightgray" stroke-width="4" transform="scale(4, 4)"> <rect x="0" y="0" width="256" height="256" fill="white" stroke-width="4"/></g>
			<g transform="scale(0.92, -0.92) translate(60, -920)">					<path d="M 383 657 Q 524 690 592 719 Q 644 737 689 743 Q 708 743 713 752 Q 717 764 705 778 Q 683 797 633 819 Q 617 829 601 828 Q 592 824 591 812 Q 587 772 368 677 C 341 665 354 650 383 657 Z" fill="black"></path>
				<path d="M 385 545 Q 384 614 386 633 Q 387 646 383 657 C 381 668 381 668 368 677 Q 340 699 306 707 Q 288 713 278 705 Q 268 698 277 678 Q 305 632 318 581 Q 328 529 352 318 C 355 288 405 293 402 323 Q 392 432 387 507 L 385 545 Z" fill="red"></path>
				<path d="M 618 531 Q 756 558 762 564 Q 772 573 767 582 Q 760 595 727 605 Q 700 611 591 581 Q 486 556 385 545 C 355 542 357 510 387 507 Q 426 501 524 515 Q 546 519 572 523 L 618 531 Z" fill="lightgray"></path>
				<path d="M 619 351 Q 646 457 661 487 Q 665 496 649 512 Q 633 524 618 531 C 591 544 560 550 572 523 Q 572 522 574 518 Q 589 494 576 345 C 573 315 612 322 619 351 Z" fill="lightgray"></path>
				<path d="M 352 318 Q 234 308 106 292 Q 84 291 100 271 Q 116 255 135 249 Q 159 243 176 248 Q 425 311 849 312 Q 874 312 899 311 Q 921 310 927 320 Q 933 333 915 348 Q 857 393 816 384 Q 737 369 619 351 L 576 345 Q 539 341 497 335 Q 451 331 402 323 L 352 318 Z" fill="lightgray"></path>
				<path d="M 351 201 Q 275 125 153 42 Q 138 29 155 22 Q 203 22 344 109 Q 404 154 427 159 Q 449 166 444 187 Q 437 205 401 239 Q 389 251 376 249 Q 358 245 362 229 Q 366 213 351 201 Z" fill="lightgray"></path>
				<path d="M 598 200 Q 668 133 750 35 Q 768 11 786 5 Q 796 4 805 15 Q 821 30 808 82 Q 795 148 601 236 Q 591 243 588 228 Q 587 212 598 200 Z" fill="lightgray"></path>
</g>
		<text x="40" y="140" font-size="128" fill="#999999">2</text></g>
		<g id="id0:id2:id2" transform="matrix(1.0,0,0,1.0,2048,0.0)">			<g stroke="lightgray" stroke-width="4" transform="scale(4, 4)"> <rect x="0" y="0" width="256" height="256" fill="white" stroke-width="4"/></g>
			<g transform="scale(0.92, -0.92) translate(60, -920)">					<path d="M 383 657 Q 524 690 592 719 Q 644 737 689 743 Q 708 743 713 752 Q 717 764 705 778 Q 683 797 633 819 Q 617 829 601 828 Q 592 824 591 812 Q 587 772 368 677 C 341 665 354 650 383 657 Z" fill="black"></path>
				<path d="M 385 545 Q 384 614 386 633 Q 387 646 383 657 C 381 668 381 668 368 677 Q 340 699 306 707 Q 288 713 278 705 Q 268 698 277 678 Q 305 632 318 581 Q 328 529 352 318 C 355 288 405 293 402 323 Q 392 432 387 507 L 385 545 Z" fill="black"></path>
				<path d="M 618 531 Q 756 558 762 564 Q 772 573 767 582 Q 760 595 727 605 Q 700 611 591 581 Q 486 556 385 545 C 355 542 357 510 387 507 Q 426 501 524 515 Q 546 519 572 523 L 618 531 Z" fill="red"></path>
				<path d="M 619 351 Q 646 457 661 487 Q 665 496 649 512 Q 633 524 618 531 C 591 544 560 550 572 523 Q 572 522 574 518 Q 589 494 576 345 C 573 315 612 322 619 351 Z" fill="lightgray"></path>
				<path d="M 352 318 Q 234 308 106 292 Q 84 291 100 271 Q 116 255 135 249 Q 159 243 176 248 Q 425 311 849 312 Q 874 312 899 311 Q 921 310 927 320 Q 933 333 915 348 Q 857 393 816 384 Q 737 369 619 351 L 576 345 Q 539 341 497 335 Q 451 331 402 323 L 352 318 Z" fill="lightgray"></path>
				<path d="M 351 201 Q 275 125 153 42 Q 138 29 155 22 Q 203 22 344 109 Q 404 154 427 159 Q 449 166 444 187 Q 437 205 401 239 Q 389 251 376 249 Q 358 245 362 229 Q 366 213 351 201 Z" fill="lightgray"></path>
				<path d="M 598 200 Q 668 133 750 35 Q 768 11 786 5 Q 796 4 805 15 Q 821 30 808 82 Q 795 148 601 236 Q 591 243 588 228 Q 587 212 598 200 Z" fill="lightgray"></path>
</g>
		<text x="40" y="140" font-size="128" fill="#999999">3</text></g>
		<g id="id0:id3:id3" transform="matrix(1.0,0,0,1.0,3072,0.0)">			<g stroke="lightgray" stroke-width="4" transform="scale(4, 4)"> <rect x="0" y="0" width="256" height="256" fill="white" stroke-width="4"/></g>
			<g transform="scale(0.92, -0.92) translate(60, -920)">					<path d="M 383 657 Q 524 690 592 719 Q 644 737 689 743 Q 708 743 713 752 Q 717 764 705 778 Q 683 797 633 819 Q 617 829 601 828 Q 592 824 591 812 Q 587 772 368 677 C 341 665 354 650 383 657 Z" fill="black"></path>
				<path d="M 385 545 Q 384 614 386 633 Q 387 646 383 657 C 381 668 381 668 368 677 Q 340 699 306 707 Q 288 713 278 705 Q 268 698 277 678 Q 305 632 318 581 Q 328 529 352 318 C 355 288 405 293 402 323 Q 392 432 387 507 L 385 545 Z" fill="black"></path>
				<path d="M 618 531 Q 756 558 762 564 Q 772 573 767 582 Q 760 595 727 605 Q 700 611 591 581 Q 486 556 385 545 C 355 542 357 510 387 507 Q 426 501 524 515 Q 546 519 572 523 L 618 531 Z" fill="black"></path>
				<path d="M 619 351 Q 646 457 661 487 Q 665 496 649 512 Q 633 524 618 531 C 591 544 560 550 572 523 Q 572 522 574 518 Q 589 494 576 345 C 573 315 612 322 619 351 Z" fill="red"></path>
				<path d="M 352 318 Q 234 308 106 292 Q 84 291 100 271 Q 116 255 135 249 Q 159 243 176 248 Q 425 311 849 312 Q 874 312 899 311 Q 921 310 927 320 Q 933 333 915 348 Q 857 393 816 384 Q 737 369 619 351 L 576 345 Q 539 341 497 335 Q 451 331 402 323 L 352 318 Z" fill="lightgray"></path>
				<path d="M 351 201 Q 275 125 153 42 Q 138 29 155 22 Q 203 22 344 109 Q 404 154 427 159 Q 449 166 444 187 Q 437 205 401 239 Q 389 251 376 249 Q 358 245 362 229 Q 366 213 351 201 Z" fill="lightgray"></path>
				<path d="M 598 200 Q 668 133 750 35 Q 768 11 786 5 Q 796 4 805 15 Q 821 30 808 82 Q 795 148 601 236 Q 591 243 588 228 Q 587 212 598 200 Z" fill="lightgray"></path>
</g>
		<text x="40" y="140" font-size="128" fill="#999999">4</text></g>
		<g id="id0:id4:id4" transform="matrix(1.0,0,0,1.0,4096,0.0)">			<g stroke="lightgray" stroke-width="4" transform="scale(4, 4)"> <rect x="0" y="0" width="256" height="256" fill="white" stroke-width="4"/></g>
			<g transform="scale(0.92, -0.92) translate(60, -920)">					<path d="M 383 657 Q 524 690 592 719 Q 644 737 689 743 Q 708 743 713 752 Q 717 764 705 778 Q 683 797 633 819 Q 617 829 601 828 Q 592 824 591 812 Q 587 772 368 677 C 341 665 354 650 383 657 Z" fill="black"></path>
				<path d="M 385 545 Q 384 614 386 633 Q 387 646 383 657 C 381 668 381 668 368 677 Q 340 699 306 707 Q 288 713 278 705 Q 268 698 277 678 Q 305 632 318 581 Q 328 529 352 318 C 355 288 405 293 402 323 Q 392 432 387 507 L 385 545 Z" fill="black"></path>
				<path d="M 618 531 Q 756 558 762 564 Q 772 573 767 582 Q 760 595 727 605 Q 700 611 591 581 Q 486 556 385 545 C 355 542 357 510 387 507 Q 426 501 524 515 Q 546 519 572 523 L 618 531 Z" fill="black"></path>
				<path d="M 619 351 Q 646 457 661 487 Q 665 496 649 512 Q 633 524 618 531 C 591 544 560 550 572 523 Q 572 522 574 518 Q 589 494 576 345 C 573 315 612 322 619 351 Z" fill="black"></path>
				<path d="M 352 318 Q 234 308 106 292 Q 84 291 100 271 Q 116 255 135 249 Q 159 243 176 248 Q 425 311 849 312 Q 874 312 899 311 Q 921 310 927 320 Q 933 333 915 348 Q 857 393 816 384 Q 737 369 619 351 L 576 345 Q 539 341 497 335 Q 451 331 402 323 L 352 318 Z" fill="red"></path>
				<path d="M 351 201 Q 275 125 153 42 Q 138 29 155 22 Q 203 22 344 109 Q 404 154 427 159 Q 449 166 444 187 Q 437 205 401 239 Q 389 251 376 249 Q 358 245 362 229 Q 366 213 351 201 Z" fill="lightgray"></path>
				<path d="M 598 200 Q 668 133 750 35 Q 768 11 786 5 Q 796 4 805 15 Q 821 30 808 82 Q 795 148 601 236 Q 591 243 588 228 Q 587 212 598 200 Z" fill="lightgray"></path>
</g>
		<text x="40" y="140" font-size="128" fill="#999999">5</text></g>
</g>
	<g id="id1:id1" transform="translate(0.0,1024)">
		<g id="id1:id0:id0" transform="matrix(1.0,0,0,1.0,0,0.0)">			<g stroke="lightgray" stroke-width="4" transform="scale(4, 4)"> <rect x="0" y="0" width="256" height="256" fill="white" stroke-width="4"/></g>
			<g transform="scale(0.92, -0.92) translate(60, -920)">					<path d="M 383 657 Q 524 690 592 719 Q 644 737 689 743 Q 708 743 713 752 Q 717 764 705 778 Q 683 797 633 819 Q 617 829 601 828 Q 592 824 591 812 Q 587 772 368 677 C 341 665 354 650 383 657 Z" fill="black"></path>
				<path d="M 385 545 Q 384 614 386 633 Q 387 646 383 657 C 381 668 381 668 368 677 Q 340 699 306 707 Q 288 713 278 705 Q 268 698 277 678 Q 305 632 318 581 Q 328 529 352 318 C 355 288 405 293 402 323 Q 392 432 387 507 L 385 545 Z" fill="black"></path>
				<path d="M 618 531 Q 756 558 762 564 Q 772 573 767 582 Q 760 595 727 605 Q 700 611 591 581 Q 486 556 385 545 C 355 542 357 510 387 507 Q 426 501 524 515 Q 546 519 572 523 L 618 531 Z" fill="black"></path>
				<path d="M 619 351 Q 646 457 661 487 Q 665 496 649 512 Q 633 524 618 531 C 591 544 560 550 572 523 Q 572 522 574 518 Q 589 494 576 345 C 573 315 612 322 619 351 Z" fill="black"></path>
				<path d="M 352 318 Q 234 308 106 292 Q 84 291 100 271 Q 116 255 135 249 Q 159 243 176 248 Q 425 311 849 312 Q 874 312 899 311 Q 921 310 927 320 Q 933 333 915 348 Q 857 393 816 384 Q 737 369 619 351 L 576 345 Q 539 341 497 335 Q 451 331 402 323 L 352 318 Z" fill="black"></path>
				<path d="M 351 201 Q 275 125 153 42 Q 138 29 155 22 Q 203 22 344 109 Q 404 154 427 159 Q 449 166 444 187 Q 437 205 401 239 Q 389 251 376 249 Q 358 245 362 229 Q 366 213 351 201 Z" fill="red"></path>
				<path d="M 598 200 Q 668 133 750 35 Q 768 11 786 5 Q 796 4 805 15 Q 821 30 808 82 Q 795 148 601 236 Q 591 243 588 228 Q 587 212 598 200 Z" fill="lightgray"></path>
</g>
		<text x="40" y="140" font-size="128" fill="#999999">6</text></g>
		<g id="id1:id1:id1" transform="matrix(1.0,0,0,1.0,1024,0.0)">			<g stroke="lightgray" stroke-width="4" transform="scale(4, 4)"> <rect x="0" y="0" width="256" height="256" fill="white" stroke-width="4"/></g>
			<g transform="scale(0.92, -0.92) translate(60, -920)">					<path d="M 383 657 Q 524 690 592 719 Q 644 737 689 743 Q 708 743 713 752 Q 717 764 705 778 Q 683 797 633 819 Q 617 829 601 828 Q 592 824 591 812 Q 587 772 368 677 C 341 665 354 650 383 657 Z" fill="black"></path>
				<path d="M 385 545 Q 384 614 386 633 Q 387 646 383 657 C 381 668 381 668 368 677 Q 340 699 306 707 Q 288 713 278 705 Q 268 698 277 678 Q 305 632 318 581 Q 328 529 352 318 C 355 288 405 293 402 323 Q 392 432 387 507 L 385 545 Z" fill="black"></path>
				<path d="M 618 531 Q 756 558 762 564 Q 772 573 767 582 Q 760 595 727 605 Q 700 611 591 581 Q 486 556 385 545 C 355 542 357 510 387 507 Q 426 501 524 515 Q 546 519 572 523 L 618 531 Z" fill="black"></path>
				<path d="M 619 351 Q 646 457 661 487 Q 665 496 649 512 Q 633 524 618 531 C 591 544 560 550 572 523 Q 572 522 574 518 Q 589 494 576 345 C 573 315 612 322 619 351 Z" fill="black"></path>
				<path d="M 352 318 Q 234 308 106 292 Q 84 291 100 271 Q 116 255 135 249 Q 159 243 176 248 Q 425 311 849 312 Q 874 312 899 311 Q 921 310 927 320 Q 933 333 915 348 Q 857 393 816 384 Q 737 369 619 351 L 576 345 Q 539 341 497 335 Q 451 331 402 323 L 352 318 Z" fill="black"></path>
				<path d="M 351 201 Q 275 125 153 42 Q 138 29 155 22 Q 203 22 344 109 Q 404 154 427 159 Q 449 166 444 187 Q 437 205 401 239 Q 389 251 376 249 Q 358 245 362 229 Q 366 213 351 201 Z" fill="black"></path>
				<path d="M 598 200 Q 668 133 750 35 Q 768 11 786 5 Q 796 4 805 15 Q 821 30 808 82 Q 795 148 601 236 Q 591 243 588 228 Q 587 212 598 200 Z" fill="red"></path>
</g>
		<text x="40" y="140" font-size="128" fill="#999999">7</text></g>
		<g id="id1:id2:id2" transform="matrix(1.0,0,0,1.0,2048,0.0)">			<g stroke="white" stroke-width="4" transform="scale(4, 4)"> <rect x="1" y="1" width="255" height="255" fill="white" stroke-width="0"/></g>
</g>
		<g id="id1:id3:id3" transform="matrix(1.0,0,0,1.0,3072,0.0)">			<g stroke="white" stroke-width="4" transform="scale(4, 4)"> <rect x="1" y="1" width="255" height="255" fill="white" stroke-width="0"/></g>
</g>
		<g id="id1:id4:id4" transform="matrix(1.0,0,0,1.0,4096,0.0)">			<g stroke="white" stroke-width="4" transform="scale(4, 4)"> <rect x="1" y="1" width="255" height="255" fill="white" stroke-width="0"/></g>
</g>
</g>
</svg>
