<?xml version="1.0" standalone="no"?>
<!DOCTYPE svg PUBLIC "-//W3C//DTD SVG 1.1//EN"
 "http://www.w3.org/Graphics/SVG/1.1/DTD/svg11.dtd">
<!-- generate by Handict dictionary app com.asnsami.handict -->

<svg xmlns="http://www.w3.org/2000/svg" xmlns:sodipodi="http://sodipodi.sourceforge.net/DTD/sodipodi-0.dtd" version="1.1" width="640" height="128" viewBox="0 0 5120 1024">
	<g id="id0:id0" transform="translate(0.0,0)">
		<g id="id0:id0:id0" transform="matrix(1.0,0,0,1.0,0,0.0)">			<g stroke="lightgray" stroke-width="4" transform="scale(4, 4)"> <rect x="0" y="0" width="256" height="256" fill="white" stroke-width="4"/></g>
			<g transform="scale(0.92, -0.92) translate(60, -920)">					<path d="M 306 718 Q 306 719 306 720 Q 293 745 279 755 Q 257 771 256 742 Q 260 712 238 672 Q 187 603 188 593 Q 182 571 207 527 Q 225 499 246 530 Q 265 560 278 603 Q 293 657 307 691 L 306 718 Z" fill="red"></path>
				<path d="M 307 691 Q 328 675 377 683 Q 465 711 671 730 Q 699 733 711 730 Q 729 723 728 715 Q 728 709 683 638 Q 676 625 681 620 Q 688 616 705 626 Q 766 660 813 670 Q 853 680 853 689 Q 852 699 783 759 Q 761 780 687 768 Q 659 765 402 730 Q 356 723 308 720 Q 307 720 306 718 C 276 713 280 703 307 691 Z" fill="lightgray"></path>
				<path d="M 426 496 Q 475 484 516 496 Q 672 535 676 537 Q 686 547 680 555 Q 671 568 640 574 Q 607 580 575 565 Q 544 553 507 544 Q 473 537 434 529 C 405 523 397 503 426 496 Z" fill="lightgray"></path>
				<path d="M 387 308 Q 471 353 680 366 Q 705 367 714 359 Q 733 340 727 301 Q 702 102 661 70 Q 649 64 566 94 Q 550 103 547 94 Q 546 84 565 67 Q 608 18 625 -21 Q 644 -52 668 -33 Q 720 1 732 28 Q 750 68 788 276 Q 795 319 815 339 Q 831 355 824 367 Q 793 398 749 413 Q 731 419 655 405 Q 568 399 427 367 Q 400 363 406 380 Q 416 447 426 496 L 434 529 Q 441 565 452 588 Q 459 604 449 616 Q 433 632 416 639 Q 392 649 383 644 Q 374 638 380 625 Q 401 588 365 413 Q 362 397 328 361 Q 316 346 325 333 Q 335 321 357 305 Q 369 295 387 308 Z" fill="lightgray"></path>
				<path d="M 407 180 Q 435 183 463 188 Q 541 200 610 196 Q 632 195 637 204 Q 643 217 631 226 Q 601 248 560 263 Q 547 267 523 258 Q 480 246 357 222 Q 293 212 261 204 Q 225 195 171 191 Q 158 190 158 180 Q 159 168 177 157 Q 216 133 252 145 Q 294 163 407 180 Z" fill="lightgray"></path>
</g>
		<text x="40" y="140" font-size="128" fill="#999999">1</text></g>
		<g id="id0:id1:id1" transform="matrix(1.0,0,0,1.0,1024,0.0)">			<g stroke="lightgray" stroke-width="4" transform="scale(4, 4)"> <rect x="0" y="0" width="256" height="256" fill="white" stroke-width="4"/></g>
			<g transform="scale(0.92, -0.92) translate(60, -920)">					<path d="M 306 718 Q 306 719 306 720 Q 293 745 279 755 Q 257 771 256 742 Q 260 712 238 672 Q 187 603 188 593 Q 182 571 207 527 Q 225 499 246 530 Q 265 560 278 603 Q 293 657 307 691 L 306 718 Z" fill="black"></path>
				<path d="M 307 691 Q 328 675 377 683 Q 465 711 671 730 Q 699 733 711 730 Q 729 723 728 715 Q 728 709 683 638 Q 676 625 681 620 Q 688 616 705 626 Q 766 660 813 670 Q 853 680 853 689 Q 852 699 783 759 Q 761 780 687 768 Q 659 765 402 730 Q 356 723 308 720 Q 307 720 306 718 C 276 713 280 703 307 691 Z" fill="red"></path>
				<path d="M 426 496 Q 475 484 516 496 Q 672 535 676 537 Q 686 547 680 555 Q 671 568 640 574 Q 607 580 575 565 Q 544 553 507 544 Q 473 537 434 529 C 405 523 397 503 426 496 Z" fill="lightgray"></path>
				<path d="M 387 308 Q 471 353 680 366 Q 705 367 714 359 Q 733 340 727 301 Q 702 102 661 70 Q 649 64 566 94 Q 550 103 547 94 Q 546 84 565 67 Q 608 18 625 -21 Q 644 -52 668 -33 Q 720 1 732 28 Q 750 68 788 276 Q 795 319 815 339 Q 831 355 824 367 Q 793 398 749 413 Q 731 419 655 405 Q 568 399 427 367 Q 400 363 406 380 Q 416 447 426 496 L 434 529 Q 441 565 452 588 Q 459 604 449 616 Q 433 632 416 639 Q 392 649 383 644 Q 374 638 380 625 Q 401 588 365 413 Q 362 397 328 361 Q 316 346 325 333 Q 335 321 357 305 Q 369 295 387 308 Z" fill="lightgray"></path>
				<path d="M 407 180 Q 435 183 463 188 Q 541 200 610 196 Q 632 195 637 204 Q 643 217 631 226 Q 601 248 560 263 Q 547 267 523 258 Q 480 246 357 222 Q 293 212 261 204 Q 225 195 171 191 Q 158 190 158 180 Q 159 168 177 157 Q 216 133 252 145 Q 294 163 407 180 Z" fill="lightgray"></path>
</g>
		<text x="40" y="140" font-size="128" fill="#999999">2</text></g>
		<g id="id0:id2:id2" transform="matrix(1.0,0,0,1.0,2048,0.0)">			<g stroke="lightgray" stroke-width="4" transform="scale(4, 4)"> <rect x="0" y="0" width="256" height="256" fill="white" stroke-width="4"/></g>
			<g transform="scale(0.92, -0.92) translate(60, -920)">					<path d="M 306 718 Q 306 719 306 720 Q 293 745 279 755 Q 257 771 256 742 Q 260 712 238 672 Q 187 603 188 593 Q 182 571 207 527 Q 225 499 246 530 Q 265 560 278 603 Q 293 657 307 691 L 306 718 Z" fill="black"></path>
				<path d="M 307 691 Q 328 675 377 683 Q 465 711 671 730 Q 699 733 711 730 Q 729 723 728 715 Q 728 709 683 638 Q 676 625 681 620 Q 688 616 705 626 Q 766 660 813 670 Q 853 680 853 689 Q 852 699 783 759 Q 761 780 687 768 Q 659 765 402 730 Q 356 723 308 720 Q 307 720 306 718 C 276 713 280 703 307 691 Z" fill="black"></path>
				<path d="M 426 496 Q 475 484 516 496 Q 672 535 676 537 Q 686 547 680 555 Q 671 568 640 574 Q 607 580 575 565 Q 544 553 507 544 Q 473 537 434 529 C 405 523 397 503 426 496 Z" fill="red"></path>
				<path d="M 387 308 Q 471 353 680 366 Q 705 367 714 359 Q 733 340 727 301 Q 702 102 661 70 Q 649 64 566 94 Q 550 103 547 94 Q 546 84 565 67 Q 608 18 625 -21 Q 644 -52 668 -33 Q 720 1 732 28 Q 750 68 788 276 Q 795 319 815 339 Q 831 355 824 367 Q 793 398 749 413 Q 731 419 655 405 Q 568 399 427 367 Q 400 363 406 380 Q 416 447 426 496 L 434 529 Q 441 565 452 588 Q 459 604 449 616 Q 433 632 416 639 Q 392 649 383 644 Q 374 638 380 625 Q 401 588 365 413 Q 362 397 328 361 Q 316 346 325 333 Q 335 321 357 305 Q 369 295 387 308 Z" fill="lightgray"></path>
				<path d="M 407 180 Q 435 183 463 188 Q 541 200 610 196 Q 632 195 637 204 Q 643 217 631 226 Q 601 248 560 263 Q 547 267 523 258 Q 480 246 357 222 Q 293 212 261 204 Q 225 195 171 191 Q 158 190 158 180 Q 159 168 177 157 Q 216 133 252 145 Q 294 163 407 180 Z" fill="lightgray"></path>
</g>
		<text x="40" y="140" font-size="128" fill="#999999">3</text></g>
		<g id="id0:id3:id3" transform="matrix(1.0,0,0,1.0,3072,0.0)">			<g stroke="lightgray" stroke-width="4" transform="scale(4, 4)"> <rect x="0" y="0" width="256" height="256" fill="white" stroke-width="4"/></g>
			<g transform="scale(0.92, -0.92) translate(60, -920)">					<path d="M 306 718 Q 306 719 306 720 Q 293 745 279 755 Q 257 771 256 742 Q 260 712 238 672 Q 187 603 188 593 Q 182 571 207 527 Q 225 499 246 530 Q 265 560 278 603 Q 293 657 307 691 L 306 718 Z" fill="black"></path>
				<path d="M 307 691 Q 328 675 377 683 Q 465 711 671 730 Q 699 733 711 730 Q 729 723 728 715 Q 728 709 683 638 Q 676 625 681 620 Q 688 616 705 626 Q 766 660 813 670 Q 853 680 853 689 Q 852 699 783 759 Q 761 780 687 768 Q 659 765 402 730 Q 356 723 308 720 Q 307 720 306 718 C 276 713 280 703 307 691 Z" fill="black"></path>
				<path d="M 426 496 Q 475 484 516 496 Q 672 535 676 537 Q 686 547 680 555 Q 671 568 640 574 Q 607 580 575 565 Q 544 553 507 544 Q 473 537 434 529 C 405 523 397 503 426 496 Z" fill="black"></path>
				<path d="M 387 308 Q 471 353 680 366 Q 705 367 714 359 Q 733 340 727 301 Q 702 102 661 70 Q 649 64 566 94 Q 550 103 547 94 Q 546 84 565 67 Q 608 18 625 -21 Q 644 -52 668 -33 Q 720 1 732 28 Q 750 68 788 276 Q 795 319 815 339 Q 831 355 824 367 Q 793 398 749 413 Q 731 419 655 405 Q 568 399 427 367 Q 400 363 406 380 Q 416 447 426 496 L 434 529 Q 441 565 452 588 Q 459 604 449 616 Q 433 632 416 639 Q 392 649 383 644 Q 374 638 380 625 Q 401 588 365 413 Q 362 397 328 361 Q 316 346 325 333 Q 335 321 357 305 Q 369 295 387 308 Z" fill="red"></path>
				<path d="M 407 180 Q 435 183 463 188 Q 541 200 610 196 Q 632 195 637 204 Q 643 217 631 226 Q 601 248 560 263 Q 547 267 523 258 Q 480 246 357 222 Q 293 212 261 204 Q 225 195 171 191 Q 158 190 158 180 Q 159 168 177 157 Q 216 133 252 145 Q 294 163 407 180 Z" fill="lightgray"></path>
</g>
		<text x="40" y="140" font-size="128" fill="#999999">4</text></g>
		<g id="id0:id4:id4" transform="matrix(1.0,0,0,1.0,4096,0.0)">			<g stroke="lightgray" stroke-width="4" transform="scale(4, 4)"> <rect x="0" y="0" width="256" height="256" fill="white" stroke-width="4"/></g>
			<g transform="scale(0.92, -0.92) translate(60, -920)">					<path d="M 306 718 Q 306 719 306 720 Q 293 745 279 755 Q 257 771 256 742 Q 260 712 238 672 Q 187 603 188 593 Q 182 571 207 527 Q 225 499 246 530 Q 265 560 278 603 Q 293 657 307 691 L 306 718 Z" fill="black"></path>
				<path d="M 307 691 Q 328 675 377 683 Q 465 711 671 730 Q 699 733 711 730 Q 729 723 728 715 Q 728 709 683 638 Q 676 625 681 620 Q 688 616 705 626 Q 766 660 813 670 Q 853 680 853 689 Q 852 699 783 759 Q 761 780 687 768 Q 659 765 402 730 Q 356 723 308 720 Q 307 720 306 718 C 276 713 280 703 307 691 Z" fill="black"></path>
				<path d="M 426 496 Q 475 484 516 496 Q 672 535 676 537 Q 686 547 680 555 Q 671 568 640 574 Q 607 580 575 565 Q 544 553 507 544 Q 473 537 434 529 C 405 523 397 503 426 496 Z" fill="black"></path>
				<path d="M 387 308 Q 471 353 680 366 Q 705 367 714 359 Q 733 340 727 301 Q 702 102 661 70 Q 649 64 566 94 Q 550 103 547 94 Q 546 84 565 67 Q 608 18 625 -21 Q 644 -52 668 -33 Q 720 1 732 28 Q 750 68 788 276 Q 795 319 815 339 Q 831 355 824 367 Q 793 398 749 413 Q 731 419 655 405 Q 568 399 427 367 Q 400 363 406 380 Q 416 447 426 496 L 434 529 Q 441 565 452 588 Q 459 604 449 616 Q 433 632 416 639 Q 392 649 383 644 Q 374 638 380 625 Q 401 588 365 413 Q 362 397 328 361 Q 316 346 325 333 Q 335 321 357 305 Q 369 295 387 308 Z" fill="black"></path>
				<path d="M 407 180 Q 435 183 463 188 Q 541 200 610 196 Q 632 195 637 204 Q 643 217 631 226 Q 601 248 560 263 Q 547 267 523 258 Q 480 246 357 222 Q 293 212 261 204 Q 225 195 171 191 Q 158 190 158 180 Q 159 168 177 157 Q 216 133 252 145 Q 294 163 407 180 Z" fill="red"></path>
</g>
		<text x="40" y="140" font-size="128" fill="#999999">5</text></g>
</g>
</svg>
