<?xml version="1.0" standalone="no"?>
<!DOCTYPE svg PUBLIC "-//W3C//DTD SVG 1.1//EN"
 "http://www.w3.org/Graphics/SVG/1.1/DTD/svg11.dtd">
<!-- generate by Japanese dictionary app com.asnsami.kanjidictionary -->

<svg xmlns="http://www.w3.org/2000/svg" xmlns:sodipodi="http://sodipodi.sourceforge.net/DTD/sodipodi-0.dtd" version="1.1" width="640" height="256" viewBox="0 0 5120 2048">
	<g id="id0:id0" transform="translate(0.0,0)">
		<g id="id0:id0:id0" transform="matrix(1.0,0,0,1.0,0,0.0)">			<g stroke="lightgray" stroke-width="4" transform="scale(4, 4)"> <rect x="0" y="0" width="256" height="256" fill="white" stroke-width="4"/></g>
			<g transform="scale(0.92, -0.92) translate(60, -920)">					<path d="M 291 747 Q 281 772 269 780 Q 250 796 247 769 Q 253 732 200 674 Q 163 640 191 575 Q 206 547 227 575 Q 246 600 260 640 Q 276 686 289 714 C 297 732 297 732 291 747 Z" fill="red"></path>
				<path d="M 289 714 Q 310 704 369 717 Q 519 753 689 766 Q 711 767 721 765 Q 737 756 735 749 Q 735 745 695 671 Q 686 658 693 653 Q 700 649 718 659 Q 776 696 825 707 Q 865 717 864 727 Q 863 737 792 794 Q 767 815 672 797 Q 594 791 385 759 Q 337 752 291 747 C 261 744 260 720 289 714 Z" fill="lightgray"></path>
				<path d="M 453 514 Q 708 557 722 567 Q 731 574 727 584 Q 720 597 690 605 Q 660 612 629 601 Q 559 579 482 563 Q 479 563 476 562 L 419 552 Q 361 546 299 541 Q 262 537 288 518 Q 327 491 390 504 Q 393 505 401 505 L 453 514 Z" fill="lightgray"></path>
				<path d="M 547 343 Q 616 352 661 354 Q 701 355 704 367 Q 705 380 676 399 Q 657 411 549 389 L 501 379 Q 453 372 398 364 Q 383 363 382 366 Q 381 369 387 381 Q 412 429 453 514 L 476 562 Q 495 611 518 628 Q 537 641 527 653 Q 479 704 453 703 Q 443 703 448 682 Q 454 649 419 552 L 401 505 Q 362 409 318 375 Q 297 360 310 314 Q 314 298 331 304 Q 394 325 501 337 L 547 343 Z" fill="lightgray"></path>
				<path d="M 499 241 Q 358 228 195 210 Q 170 209 188 187 Q 204 171 226 164 Q 251 157 270 162 Q 369 186 480 195 Q 487 196 497 196 L 546 201 Q 699 213 845 203 Q 869 203 875 213 Q 882 226 862 243 Q 801 291 757 282 Q 675 266 546 248 L 499 241 Z" fill="lightgray"></path>
				<path d="M 549 389 Q 550 414 554 429 Q 557 441 550 447 Q 528 466 509 476 Q 497 480 488 473 Q 482 469 489 460 Q 499 442 501 379 L 501 337 Q 501 289 499 241 L 497 196 Q 488 79 481 59 Q 472 23 505 -28 Q 515 -46 524 -50 Q 534 -51 540 -39 Q 552 -8 549 22 Q 546 116 546 201 L 546 248 Q 546 296 547 343 L 549 389 Z" fill="lightgray"></path>
</g>
		<text x="40" y="140" font-size="128" fill="#999999">1</text></g>
		<g id="id0:id1:id1" transform="matrix(1.0,0,0,1.0,1024,0.0)">			<g stroke="lightgray" stroke-width="4" transform="scale(4, 4)"> <rect x="0" y="0" width="256" height="256" fill="white" stroke-width="4"/></g>
			<g transform="scale(0.92, -0.92) translate(60, -920)">					<path d="M 291 747 Q 281 772 269 780 Q 250 796 247 769 Q 253 732 200 674 Q 163 640 191 575 Q 206 547 227 575 Q 246 600 260 640 Q 276 686 289 714 C 297 732 297 732 291 747 Z" fill="black"></path>
				<path d="M 289 714 Q 310 704 369 717 Q 519 753 689 766 Q 711 767 721 765 Q 737 756 735 749 Q 735 745 695 671 Q 686 658 693 653 Q 700 649 718 659 Q 776 696 825 707 Q 865 717 864 727 Q 863 737 792 794 Q 767 815 672 797 Q 594 791 385 759 Q 337 752 291 747 C 261 744 260 720 289 714 Z" fill="red"></path>
				<path d="M 453 514 Q 708 557 722 567 Q 731 574 727 584 Q 720 597 690 605 Q 660 612 629 601 Q 559 579 482 563 Q 479 563 476 562 L 419 552 Q 361 546 299 541 Q 262 537 288 518 Q 327 491 390 504 Q 393 505 401 505 L 453 514 Z" fill="lightgray"></path>
				<path d="M 547 343 Q 616 352 661 354 Q 701 355 704 367 Q 705 380 676 399 Q 657 411 549 389 L 501 379 Q 453 372 398 364 Q 383 363 382 366 Q 381 369 387 381 Q 412 429 453 514 L 476 562 Q 495 611 518 628 Q 537 641 527 653 Q 479 704 453 703 Q 443 703 448 682 Q 454 649 419 552 L 401 505 Q 362 409 318 375 Q 297 360 310 314 Q 314 298 331 304 Q 394 325 501 337 L 547 343 Z" fill="lightgray"></path>
				<path d="M 499 241 Q 358 228 195 210 Q 170 209 188 187 Q 204 171 226 164 Q 251 157 270 162 Q 369 186 480 195 Q 487 196 497 196 L 546 201 Q 699 213 845 203 Q 869 203 875 213 Q 882 226 862 243 Q 801 291 757 282 Q 675 266 546 248 L 499 241 Z" fill="lightgray"></path>
				<path d="M 549 389 Q 550 414 554 429 Q 557 441 550 447 Q 528 466 509 476 Q 497 480 488 473 Q 482 469 489 460 Q 499 442 501 379 L 501 337 Q 501 289 499 241 L 497 196 Q 488 79 481 59 Q 472 23 505 -28 Q 515 -46 524 -50 Q 534 -51 540 -39 Q 552 -8 549 22 Q 546 116 546 201 L 546 248 Q 546 296 547 343 L 549 389 Z" fill="lightgray"></path>
</g>
		<text x="40" y="140" font-size="128" fill="#999999">2</text></g>
		<g id="id0:id2:id2" transform="matrix(1.0,0,0,1.0,2048,0.0)">			<g stroke="lightgray" stroke-width="4" transform="scale(4, 4)"> <rect x="0" y="0" width="256" height="256" fill="white" stroke-width="4"/></g>
			<g transform="scale(0.92, -0.92) translate(60, -920)">					<path d="M 291 747 Q 281 772 269 780 Q 250 796 247 769 Q 253 732 200 674 Q 163 640 191 575 Q 206 547 227 575 Q 246 600 260 640 Q 276 686 289 714 C 297 732 297 732 291 747 Z" fill="black"></path>
				<path d="M 289 714 Q 310 704 369 717 Q 519 753 689 766 Q 711 767 721 765 Q 737 756 735 749 Q 735 745 695 671 Q 686 658 693 653 Q 700 649 718 659 Q 776 696 825 707 Q 865 717 864 727 Q 863 737 792 794 Q 767 815 672 797 Q 594 791 385 759 Q 337 752 291 747 C 261 744 260 720 289 714 Z" fill="black"></path>
				<path d="M 453 514 Q 708 557 722 567 Q 731 574 727 584 Q 720 597 690 605 Q 660 612 629 601 Q 559 579 482 563 Q 479 563 476 562 L 419 552 Q 361 546 299 541 Q 262 537 288 518 Q 327 491 390 504 Q 393 505 401 505 L 453 514 Z" fill="red"></path>
				<path d="M 547 343 Q 616 352 661 354 Q 701 355 704 367 Q 705 380 676 399 Q 657 411 549 389 L 501 379 Q 453 372 398 364 Q 383 363 382 366 Q 381 369 387 381 Q 412 429 453 514 L 476 562 Q 495 611 518 628 Q 537 641 527 653 Q 479 704 453 703 Q 443 703 448 682 Q 454 649 419 552 L 401 505 Q 362 409 318 375 Q 297 360 310 314 Q 314 298 331 304 Q 394 325 501 337 L 547 343 Z" fill="lightgray"></path>
				<path d="M 499 241 Q 358 228 195 210 Q 170 209 188 187 Q 204 171 226 164 Q 251 157 270 162 Q 369 186 480 195 Q 487 196 497 196 L 546 201 Q 699 213 845 203 Q 869 203 875 213 Q 882 226 862 243 Q 801 291 757 282 Q 675 266 546 248 L 499 241 Z" fill="lightgray"></path>
				<path d="M 549 389 Q 550 414 554 429 Q 557 441 550 447 Q 528 466 509 476 Q 497 480 488 473 Q 482 469 489 460 Q 499 442 501 379 L 501 337 Q 501 289 499 241 L 497 196 Q 488 79 481 59 Q 472 23 505 -28 Q 515 -46 524 -50 Q 534 -51 540 -39 Q 552 -8 549 22 Q 546 116 546 201 L 546 248 Q 546 296 547 343 L 549 389 Z" fill="lightgray"></path>
</g>
		<text x="40" y="140" font-size="128" fill="#999999">3</text></g>
		<g id="id0:id3:id3" transform="matrix(1.0,0,0,1.0,3072,0.0)">			<g stroke="lightgray" stroke-width="4" transform="scale(4, 4)"> <rect x="0" y="0" width="256" height="256" fill="white" stroke-width="4"/></g>
			<g transform="scale(0.92, -0.92) translate(60, -920)">					<path d="M 291 747 Q 281 772 269 780 Q 250 796 247 769 Q 253 732 200 674 Q 163 640 191 575 Q 206 547 227 575 Q 246 600 260 640 Q 276 686 289 714 C 297 732 297 732 291 747 Z" fill="black"></path>
				<path d="M 289 714 Q 310 704 369 717 Q 519 753 689 766 Q 711 767 721 765 Q 737 756 735 749 Q 735 745 695 671 Q 686 658 693 653 Q 700 649 718 659 Q 776 696 825 707 Q 865 717 864 727 Q 863 737 792 794 Q 767 815 672 797 Q 594 791 385 759 Q 337 752 291 747 C 261 744 260 720 289 714 Z" fill="black"></path>
				<path d="M 453 514 Q 708 557 722 567 Q 731 574 727 584 Q 720 597 690 605 Q 660 612 629 601 Q 559 579 482 563 Q 479 563 476 562 L 419 552 Q 361 546 299 541 Q 262 537 288 518 Q 327 491 390 504 Q 393 505 401 505 L 453 514 Z" fill="black"></path>
				<path d="M 547 343 Q 616 352 661 354 Q 701 355 704 367 Q 705 380 676 399 Q 657 411 549 389 L 501 379 Q 453 372 398 364 Q 383 363 382 366 Q 381 369 387 381 Q 412 429 453 514 L 476 562 Q 495 611 518 628 Q 537 641 527 653 Q 479 704 453 703 Q 443 703 448 682 Q 454 649 419 552 L 401 505 Q 362 409 318 375 Q 297 360 310 314 Q 314 298 331 304 Q 394 325 501 337 L 547 343 Z" fill="red"></path>
				<path d="M 499 241 Q 358 228 195 210 Q 170 209 188 187 Q 204 171 226 164 Q 251 157 270 162 Q 369 186 480 195 Q 487 196 497 196 L 546 201 Q 699 213 845 203 Q 869 203 875 213 Q 882 226 862 243 Q 801 291 757 282 Q 675 266 546 248 L 499 241 Z" fill="lightgray"></path>
				<path d="M 549 389 Q 550 414 554 429 Q 557 441 550 447 Q 528 466 509 476 Q 497 480 488 473 Q 482 469 489 460 Q 499 442 501 379 L 501 337 Q 501 289 499 241 L 497 196 Q 488 79 481 59 Q 472 23 505 -28 Q 515 -46 524 -50 Q 534 -51 540 -39 Q 552 -8 549 22 Q 546 116 546 201 L 546 248 Q 546 296 547 343 L 549 389 Z" fill="lightgray"></path>
</g>
		<text x="40" y="140" font-size="128" fill="#999999">4</text></g>
		<g id="id0:id4:id4" transform="matrix(1.0,0,0,1.0,4096,0.0)">			<g stroke="lightgray" stroke-width="4" transform="scale(4, 4)"> <rect x="0" y="0" width="256" height="256" fill="white" stroke-width="4"/></g>
			<g transform="scale(0.92, -0.92) translate(60, -920)">					<path d="M 291 747 Q 281 772 269 780 Q 250 796 247 769 Q 253 732 200 674 Q 163 640 191 575 Q 206 547 227 575 Q 246 600 260 640 Q 276 686 289 714 C 297 732 297 732 291 747 Z" fill="black"></path>
				<path d="M 289 714 Q 310 704 369 717 Q 519 753 689 766 Q 711 767 721 765 Q 737 756 735 749 Q 735 745 695 671 Q 686 658 693 653 Q 700 649 718 659 Q 776 696 825 707 Q 865 717 864 727 Q 863 737 792 794 Q 767 815 672 797 Q 594 791 385 759 Q 337 752 291 747 C 261 744 260 720 289 714 Z" fill="black"></path>
				<path d="M 453 514 Q 708 557 722 567 Q 731 574 727 584 Q 720 597 690 605 Q 660 612 629 601 Q 559 579 482 563 Q 479 563 476 562 L 419 552 Q 361 546 299 541 Q 262 537 288 518 Q 327 491 390 504 Q 393 505 401 505 L 453 514 Z" fill="black"></path>
				<path d="M 547 343 Q 616 352 661 354 Q 701 355 704 367 Q 705 380 676 399 Q 657 411 549 389 L 501 379 Q 453 372 398 364 Q 383 363 382 366 Q 381 369 387 381 Q 412 429 453 514 L 476 562 Q 495 611 518 628 Q 537 641 527 653 Q 479 704 453 703 Q 443 703 448 682 Q 454 649 419 552 L 401 505 Q 362 409 318 375 Q 297 360 310 314 Q 314 298 331 304 Q 394 325 501 337 L 547 343 Z" fill="black"></path>
				<path d="M 499 241 Q 358 228 195 210 Q 170 209 188 187 Q 204 171 226 164 Q 251 157 270 162 Q 369 186 480 195 Q 487 196 497 196 L 546 201 Q 699 213 845 203 Q 869 203 875 213 Q 882 226 862 243 Q 801 291 757 282 Q 675 266 546 248 L 499 241 Z" fill="red"></path>
				<path d="M 549 389 Q 550 414 554 429 Q 557 441 550 447 Q 528 466 509 476 Q 497 480 488 473 Q 482 469 489 460 Q 499 442 501 379 L 501 337 Q 501 289 499 241 L 497 196 Q 488 79 481 59 Q 472 23 505 -28 Q 515 -46 524 -50 Q 534 -51 540 -39 Q 552 -8 549 22 Q 546 116 546 201 L 546 248 Q 546 296 547 343 L 549 389 Z" fill="lightgray"></path>
</g>
		<text x="40" y="140" font-size="128" fill="#999999">5</text></g>
</g>
	<g id="id1:id1" transform="translate(0.0,1024)">
		<g id="id1:id0:id0" transform="matrix(1.0,0,0,1.0,0,0.0)">			<g stroke="lightgray" stroke-width="4" transform="scale(4, 4)"> <rect x="0" y="0" width="256" height="256" fill="white" stroke-width="4"/></g>
			<g transform="scale(0.92, -0.92) translate(60, -920)">					<path d="M 291 747 Q 281 772 269 780 Q 250 796 247 769 Q 253 732 200 674 Q 163 640 191 575 Q 206 547 227 575 Q 246 600 260 640 Q 276 686 289 714 C 297 732 297 732 291 747 Z" fill="black"></path>
				<path d="M 289 714 Q 310 704 369 717 Q 519 753 689 766 Q 711 767 721 765 Q 737 756 735 749 Q 735 745 695 671 Q 686 658 693 653 Q 700 649 718 659 Q 776 696 825 707 Q 865 717 864 727 Q 863 737 792 794 Q 767 815 672 797 Q 594 791 385 759 Q 337 752 291 747 C 261 744 260 720 289 714 Z" fill="black"></path>
				<path d="M 453 514 Q 708 557 722 567 Q 731 574 727 584 Q 720 597 690 605 Q 660 612 629 601 Q 559 579 482 563 Q 479 563 476 562 L 419 552 Q 361 546 299 541 Q 262 537 288 518 Q 327 491 390 504 Q 393 505 401 505 L 453 514 Z" fill="black"></path>
				<path d="M 547 343 Q 616 352 661 354 Q 701 355 704 367 Q 705 380 676 399 Q 657 411 549 389 L 501 379 Q 453 372 398 364 Q 383 363 382 366 Q 381 369 387 381 Q 412 429 453 514 L 476 562 Q 495 611 518 628 Q 537 641 527 653 Q 479 704 453 703 Q 443 703 448 682 Q 454 649 419 552 L 401 505 Q 362 409 318 375 Q 297 360 310 314 Q 314 298 331 304 Q 394 325 501 337 L 547 343 Z" fill="black"></path>
				<path d="M 499 241 Q 358 228 195 210 Q 170 209 188 187 Q 204 171 226 164 Q 251 157 270 162 Q 369 186 480 195 Q 487 196 497 196 L 546 201 Q 699 213 845 203 Q 869 203 875 213 Q 882 226 862 243 Q 801 291 757 282 Q 675 266 546 248 L 499 241 Z" fill="black"></path>
				<path d="M 549 389 Q 550 414 554 429 Q 557 441 550 447 Q 528 466 509 476 Q 497 480 488 473 Q 482 469 489 460 Q 499 442 501 379 L 501 337 Q 501 289 499 241 L 497 196 Q 488 79 481 59 Q 472 23 505 -28 Q 515 -46 524 -50 Q 534 -51 540 -39 Q 552 -8 549 22 Q 546 116 546 201 L 546 248 Q 546 296 547 343 L 549 389 Z" fill="red"></path>
</g>
		<text x="40" y="140" font-size="128" fill="#999999">6</text></g>
		<g id="id1:id1:id1" transform="matrix(1.0,0,0,1.0,1024,0.0)">			<g stroke="white" stroke-width="4" transform="scale(4, 4)"> <rect x="1" y="1" width="255" height="255" fill="white" stroke-width="0"/></g>
</g>
		<g id="id1:id2:id2" transform="matrix(1.0,0,0,1.0,2048,0.0)">			<g stroke="white" stroke-width="4" transform="scale(4, 4)"> <rect x="1" y="1" width="255" height="255" fill="white" stroke-width="0"/></g>
</g>
		<g id="id1:id3:id3" transform="matrix(1.0,0,0,1.0,3072,0.0)">			<g stroke="white" stroke-width="4" transform="scale(4, 4)"> <rect x="1" y="1" width="255" height="255" fill="white" stroke-width="0"/></g>
</g>
		<g id="id1:id4:id4" transform="matrix(1.0,0,0,1.0,4096,0.0)">			<g stroke="white" stroke-width="4" transform="scale(4, 4)"> <rect x="1" y="1" width="255" height="255" fill="white" stroke-width="0"/></g>
</g>
</g>
</svg>
