<?xml version="1.0" standalone="no"?>
<!DOCTYPE svg PUBLIC "-//W3C//DTD SVG 1.1//EN"
 "http://www.w3.org/Graphics/SVG/1.1/DTD/svg11.dtd">
<!-- generate by Japanese dictionary app com.asnsami.kanjidictionary -->

<svg xmlns="http://www.w3.org/2000/svg" xmlns:sodipodi="http://sodipodi.sourceforge.net/DTD/sodipodi-0.dtd" version="1.1" width="640" height="256" viewBox="0 0 5120 2048">
	<g id="id0:id0" transform="translate(0.0,0)">
		<g id="id0:id0:id0" transform="matrix(1.0,0,0,1.0,0,0.0)">			<g stroke="lightgray" stroke-width="4" transform="scale(4, 4)"> <rect x="0" y="0" width="256" height="256" fill="white" stroke-width="4"/></g>
			<g transform="scale(0.92, -0.92) translate(60, -920)">					<path d="M 222 631 Q 253 603 289 568 Q 304 552 322 553 Q 335 554 340 569 Q 346 585 336 620 Q 330 642 294 661 Q 204 694 192 687 Q 186 683 188 668 Q 192 655 222 631 Z" fill="red"></path>
				<path d="M 131 134 Q 118 131 119 113 Q 132 32 164 14 Q 170 7 181 8 Q 190 9 192 35 Q 201 84 323 347 Q 332 363 331 370 Q 330 380 321 374 Q 303 365 176 177 Q 161 155 131 134 Z" fill="lightgray"></path>
				<path d="M 749 390 Q 779 483 817 510 Q 835 529 819 549 Q 737 612 680 580 Q 637 565 597 552 L 547 540 Q 484 527 419 519 Q 400 518 403 507 Q 406 498 426 492 Q 454 480 491 493 Q 516 499 545 504 L 594 515 Q 636 525 681 534 Q 706 540 715 530 Q 725 520 722 499 Q 709 433 692 381 C 683 352 739 362 749 390 Z" fill="lightgray"></path>
				<path d="M 591 328 Q 600 338 784 343 Q 823 344 870 344 Q 930 341 939 352 Q 945 364 928 378 Q 870 421 799 400 Q 775 397 749 390 L 692 381 Q 608 372 582 364 L 531 357 Q 444 347 348 334 Q 327 333 343 315 Q 356 302 375 296 Q 397 290 412 295 Q 464 310 525 319 L 591 328 Z" fill="lightgray"></path>
				<path d="M 597 552 Q 604 684 631 747 Q 638 762 628 774 Q 604 795 562 807 Q 535 814 526 808 Q 516 801 524 787 Q 548 747 549 697 Q 550 618 547 540 L 545 504 Q 538 390 531 357 L 525 319 Q 494 187 454 141 Q 409 86 314 32 Q 301 25 300 19 Q 301 15 314 15 Q 330 11 371 25 Q 509 71 556 224 Q 566 263 574 307 L 582 364 Q 583 380 585 395 Q 589 456 594 515 L 597 552 Z" fill="lightgray"></path>
				<path d="M 574 307 Q 655 151 761 26 Q 783 -2 806 -2 Q 870 4 927 9 Q 952 10 952 17 Q 953 24 926 39 Q 784 112 736 160 Q 661 229 591 328 C 574 352 560 334 574 307 Z" fill="lightgray"></path>
</g>
		<text x="40" y="140" font-size="128" fill="#999999">1</text></g>
		<g id="id0:id1:id1" transform="matrix(1.0,0,0,1.0,1024,0.0)">			<g stroke="lightgray" stroke-width="4" transform="scale(4, 4)"> <rect x="0" y="0" width="256" height="256" fill="white" stroke-width="4"/></g>
			<g transform="scale(0.92, -0.92) translate(60, -920)">					<path d="M 222 631 Q 253 603 289 568 Q 304 552 322 553 Q 335 554 340 569 Q 346 585 336 620 Q 330 642 294 661 Q 204 694 192 687 Q 186 683 188 668 Q 192 655 222 631 Z" fill="black"></path>
				<path d="M 131 134 Q 118 131 119 113 Q 132 32 164 14 Q 170 7 181 8 Q 190 9 192 35 Q 201 84 323 347 Q 332 363 331 370 Q 330 380 321 374 Q 303 365 176 177 Q 161 155 131 134 Z" fill="red"></path>
				<path d="M 749 390 Q 779 483 817 510 Q 835 529 819 549 Q 737 612 680 580 Q 637 565 597 552 L 547 540 Q 484 527 419 519 Q 400 518 403 507 Q 406 498 426 492 Q 454 480 491 493 Q 516 499 545 504 L 594 515 Q 636 525 681 534 Q 706 540 715 530 Q 725 520 722 499 Q 709 433 692 381 C 683 352 739 362 749 390 Z" fill="lightgray"></path>
				<path d="M 591 328 Q 600 338 784 343 Q 823 344 870 344 Q 930 341 939 352 Q 945 364 928 378 Q 870 421 799 400 Q 775 397 749 390 L 692 381 Q 608 372 582 364 L 531 357 Q 444 347 348 334 Q 327 333 343 315 Q 356 302 375 296 Q 397 290 412 295 Q 464 310 525 319 L 591 328 Z" fill="lightgray"></path>
				<path d="M 597 552 Q 604 684 631 747 Q 638 762 628 774 Q 604 795 562 807 Q 535 814 526 808 Q 516 801 524 787 Q 548 747 549 697 Q 550 618 547 540 L 545 504 Q 538 390 531 357 L 525 319 Q 494 187 454 141 Q 409 86 314 32 Q 301 25 300 19 Q 301 15 314 15 Q 330 11 371 25 Q 509 71 556 224 Q 566 263 574 307 L 582 364 Q 583 380 585 395 Q 589 456 594 515 L 597 552 Z" fill="lightgray"></path>
				<path d="M 574 307 Q 655 151 761 26 Q 783 -2 806 -2 Q 870 4 927 9 Q 952 10 952 17 Q 953 24 926 39 Q 784 112 736 160 Q 661 229 591 328 C 574 352 560 334 574 307 Z" fill="lightgray"></path>
</g>
		<text x="40" y="140" font-size="128" fill="#999999">2</text></g>
		<g id="id0:id2:id2" transform="matrix(1.0,0,0,1.0,2048,0.0)">			<g stroke="lightgray" stroke-width="4" transform="scale(4, 4)"> <rect x="0" y="0" width="256" height="256" fill="white" stroke-width="4"/></g>
			<g transform="scale(0.92, -0.92) translate(60, -920)">					<path d="M 222 631 Q 253 603 289 568 Q 304 552 322 553 Q 335 554 340 569 Q 346 585 336 620 Q 330 642 294 661 Q 204 694 192 687 Q 186 683 188 668 Q 192 655 222 631 Z" fill="black"></path>
				<path d="M 131 134 Q 118 131 119 113 Q 132 32 164 14 Q 170 7 181 8 Q 190 9 192 35 Q 201 84 323 347 Q 332 363 331 370 Q 330 380 321 374 Q 303 365 176 177 Q 161 155 131 134 Z" fill="black"></path>
				<path d="M 749 390 Q 779 483 817 510 Q 835 529 819 549 Q 737 612 680 580 Q 637 565 597 552 L 547 540 Q 484 527 419 519 Q 400 518 403 507 Q 406 498 426 492 Q 454 480 491 493 Q 516 499 545 504 L 594 515 Q 636 525 681 534 Q 706 540 715 530 Q 725 520 722 499 Q 709 433 692 381 C 683 352 739 362 749 390 Z" fill="red"></path>
				<path d="M 591 328 Q 600 338 784 343 Q 823 344 870 344 Q 930 341 939 352 Q 945 364 928 378 Q 870 421 799 400 Q 775 397 749 390 L 692 381 Q 608 372 582 364 L 531 357 Q 444 347 348 334 Q 327 333 343 315 Q 356 302 375 296 Q 397 290 412 295 Q 464 310 525 319 L 591 328 Z" fill="lightgray"></path>
				<path d="M 597 552 Q 604 684 631 747 Q 638 762 628 774 Q 604 795 562 807 Q 535 814 526 808 Q 516 801 524 787 Q 548 747 549 697 Q 550 618 547 540 L 545 504 Q 538 390 531 357 L 525 319 Q 494 187 454 141 Q 409 86 314 32 Q 301 25 300 19 Q 301 15 314 15 Q 330 11 371 25 Q 509 71 556 224 Q 566 263 574 307 L 582 364 Q 583 380 585 395 Q 589 456 594 515 L 597 552 Z" fill="lightgray"></path>
				<path d="M 574 307 Q 655 151 761 26 Q 783 -2 806 -2 Q 870 4 927 9 Q 952 10 952 17 Q 953 24 926 39 Q 784 112 736 160 Q 661 229 591 328 C 574 352 560 334 574 307 Z" fill="lightgray"></path>
</g>
		<text x="40" y="140" font-size="128" fill="#999999">3</text></g>
		<g id="id0:id3:id3" transform="matrix(1.0,0,0,1.0,3072,0.0)">			<g stroke="lightgray" stroke-width="4" transform="scale(4, 4)"> <rect x="0" y="0" width="256" height="256" fill="white" stroke-width="4"/></g>
			<g transform="scale(0.92, -0.92) translate(60, -920)">					<path d="M 222 631 Q 253 603 289 568 Q 304 552 322 553 Q 335 554 340 569 Q 346 585 336 620 Q 330 642 294 661 Q 204 694 192 687 Q 186 683 188 668 Q 192 655 222 631 Z" fill="black"></path>
				<path d="M 131 134 Q 118 131 119 113 Q 132 32 164 14 Q 170 7 181 8 Q 190 9 192 35 Q 201 84 323 347 Q 332 363 331 370 Q 330 380 321 374 Q 303 365 176 177 Q 161 155 131 134 Z" fill="black"></path>
				<path d="M 749 390 Q 779 483 817 510 Q 835 529 819 549 Q 737 612 680 580 Q 637 565 597 552 L 547 540 Q 484 527 419 519 Q 400 518 403 507 Q 406 498 426 492 Q 454 480 491 493 Q 516 499 545 504 L 594 515 Q 636 525 681 534 Q 706 540 715 530 Q 725 520 722 499 Q 709 433 692 381 C 683 352 739 362 749 390 Z" fill="black"></path>
				<path d="M 591 328 Q 600 338 784 343 Q 823 344 870 344 Q 930 341 939 352 Q 945 364 928 378 Q 870 421 799 400 Q 775 397 749 390 L 692 381 Q 608 372 582 364 L 531 357 Q 444 347 348 334 Q 327 333 343 315 Q 356 302 375 296 Q 397 290 412 295 Q 464 310 525 319 L 591 328 Z" fill="red"></path>
				<path d="M 597 552 Q 604 684 631 747 Q 638 762 628 774 Q 604 795 562 807 Q 535 814 526 808 Q 516 801 524 787 Q 548 747 549 697 Q 550 618 547 540 L 545 504 Q 538 390 531 357 L 525 319 Q 494 187 454 141 Q 409 86 314 32 Q 301 25 300 19 Q 301 15 314 15 Q 330 11 371 25 Q 509 71 556 224 Q 566 263 574 307 L 582 364 Q 583 380 585 395 Q 589 456 594 515 L 597 552 Z" fill="lightgray"></path>
				<path d="M 574 307 Q 655 151 761 26 Q 783 -2 806 -2 Q 870 4 927 9 Q 952 10 952 17 Q 953 24 926 39 Q 784 112 736 160 Q 661 229 591 328 C 574 352 560 334 574 307 Z" fill="lightgray"></path>
</g>
		<text x="40" y="140" font-size="128" fill="#999999">4</text></g>
		<g id="id0:id4:id4" transform="matrix(1.0,0,0,1.0,4096,0.0)">			<g stroke="lightgray" stroke-width="4" transform="scale(4, 4)"> <rect x="0" y="0" width="256" height="256" fill="white" stroke-width="4"/></g>
			<g transform="scale(0.92, -0.92) translate(60, -920)">					<path d="M 222 631 Q 253 603 289 568 Q 304 552 322 553 Q 335 554 340 569 Q 346 585 336 620 Q 330 642 294 661 Q 204 694 192 687 Q 186 683 188 668 Q 192 655 222 631 Z" fill="black"></path>
				<path d="M 131 134 Q 118 131 119 113 Q 132 32 164 14 Q 170 7 181 8 Q 190 9 192 35 Q 201 84 323 347 Q 332 363 331 370 Q 330 380 321 374 Q 303 365 176 177 Q 161 155 131 134 Z" fill="black"></path>
				<path d="M 749 390 Q 779 483 817 510 Q 835 529 819 549 Q 737 612 680 580 Q 637 565 597 552 L 547 540 Q 484 527 419 519 Q 400 518 403 507 Q 406 498 426 492 Q 454 480 491 493 Q 516 499 545 504 L 594 515 Q 636 525 681 534 Q 706 540 715 530 Q 725 520 722 499 Q 709 433 692 381 C 683 352 739 362 749 390 Z" fill="black"></path>
				<path d="M 591 328 Q 600 338 784 343 Q 823 344 870 344 Q 930 341 939 352 Q 945 364 928 378 Q 870 421 799 400 Q 775 397 749 390 L 692 381 Q 608 372 582 364 L 531 357 Q 444 347 348 334 Q 327 333 343 315 Q 356 302 375 296 Q 397 290 412 295 Q 464 310 525 319 L 591 328 Z" fill="black"></path>
				<path d="M 597 552 Q 604 684 631 747 Q 638 762 628 774 Q 604 795 562 807 Q 535 814 526 808 Q 516 801 524 787 Q 548 747 549 697 Q 550 618 547 540 L 545 504 Q 538 390 531 357 L 525 319 Q 494 187 454 141 Q 409 86 314 32 Q 301 25 300 19 Q 301 15 314 15 Q 330 11 371 25 Q 509 71 556 224 Q 566 263 574 307 L 582 364 Q 583 380 585 395 Q 589 456 594 515 L 597 552 Z" fill="red"></path>
				<path d="M 574 307 Q 655 151 761 26 Q 783 -2 806 -2 Q 870 4 927 9 Q 952 10 952 17 Q 953 24 926 39 Q 784 112 736 160 Q 661 229 591 328 C 574 352 560 334 574 307 Z" fill="lightgray"></path>
</g>
		<text x="40" y="140" font-size="128" fill="#999999">5</text></g>
</g>
	<g id="id1:id1" transform="translate(0.0,1024)">
		<g id="id1:id0:id0" transform="matrix(1.0,0,0,1.0,0,0.0)">			<g stroke="lightgray" stroke-width="4" transform="scale(4, 4)"> <rect x="0" y="0" width="256" height="256" fill="white" stroke-width="4"/></g>
			<g transform="scale(0.92, -0.92) translate(60, -920)">					<path d="M 222 631 Q 253 603 289 568 Q 304 552 322 553 Q 335 554 340 569 Q 346 585 336 620 Q 330 642 294 661 Q 204 694 192 687 Q 186 683 188 668 Q 192 655 222 631 Z" fill="black"></path>
				<path d="M 131 134 Q 118 131 119 113 Q 132 32 164 14 Q 170 7 181 8 Q 190 9 192 35 Q 201 84 323 347 Q 332 363 331 370 Q 330 380 321 374 Q 303 365 176 177 Q 161 155 131 134 Z" fill="black"></path>
				<path d="M 749 390 Q 779 483 817 510 Q 835 529 819 549 Q 737 612 680 580 Q 637 565 597 552 L 547 540 Q 484 527 419 519 Q 400 518 403 507 Q 406 498 426 492 Q 454 480 491 493 Q 516 499 545 504 L 594 515 Q 636 525 681 534 Q 706 540 715 530 Q 725 520 722 499 Q 709 433 692 381 C 683 352 739 362 749 390 Z" fill="black"></path>
				<path d="M 591 328 Q 600 338 784 343 Q 823 344 870 344 Q 930 341 939 352 Q 945 364 928 378 Q 870 421 799 400 Q 775 397 749 390 L 692 381 Q 608 372 582 364 L 531 357 Q 444 347 348 334 Q 327 333 343 315 Q 356 302 375 296 Q 397 290 412 295 Q 464 310 525 319 L 591 328 Z" fill="black"></path>
				<path d="M 597 552 Q 604 684 631 747 Q 638 762 628 774 Q 604 795 562 807 Q 535 814 526 808 Q 516 801 524 787 Q 548 747 549 697 Q 550 618 547 540 L 545 504 Q 538 390 531 357 L 525 319 Q 494 187 454 141 Q 409 86 314 32 Q 301 25 300 19 Q 301 15 314 15 Q 330 11 371 25 Q 509 71 556 224 Q 566 263 574 307 L 582 364 Q 583 380 585 395 Q 589 456 594 515 L 597 552 Z" fill="black"></path>
				<path d="M 574 307 Q 655 151 761 26 Q 783 -2 806 -2 Q 870 4 927 9 Q 952 10 952 17 Q 953 24 926 39 Q 784 112 736 160 Q 661 229 591 328 C 574 352 560 334 574 307 Z" fill="red"></path>
</g>
		<text x="40" y="140" font-size="128" fill="#999999">6</text></g>
		<g id="id1:id1:id1" transform="matrix(1.0,0,0,1.0,1024,0.0)">			<g stroke="white" stroke-width="4" transform="scale(4, 4)"> <rect x="1" y="1" width="255" height="255" fill="white" stroke-width="0"/></g>
</g>
		<g id="id1:id2:id2" transform="matrix(1.0,0,0,1.0,2048,0.0)">			<g stroke="white" stroke-width="4" transform="scale(4, 4)"> <rect x="1" y="1" width="255" height="255" fill="white" stroke-width="0"/></g>
</g>
		<g id="id1:id3:id3" transform="matrix(1.0,0,0,1.0,3072,0.0)">			<g stroke="white" stroke-width="4" transform="scale(4, 4)"> <rect x="1" y="1" width="255" height="255" fill="white" stroke-width="0"/></g>
</g>
		<g id="id1:id4:id4" transform="matrix(1.0,0,0,1.0,4096,0.0)">			<g stroke="white" stroke-width="4" transform="scale(4, 4)"> <rect x="1" y="1" width="255" height="255" fill="white" stroke-width="0"/></g>
</g>
</g>
</svg>
