<?xml version="1.0" standalone="no"?>
<!DOCTYPE svg PUBLIC "-//W3C//DTD SVG 1.1//EN"
 "http://www.w3.org/Graphics/SVG/1.1/DTD/svg11.dtd">
<!-- generate by Handict dictionary app com.asnsami.handict -->

<svg xmlns="http://www.w3.org/2000/svg" xmlns:sodipodi="http://sodipodi.sourceforge.net/DTD/sodipodi-0.dtd" version="1.1" width="640" height="128" viewBox="0 0 5120 1024">
	<g id="id0:id0" transform="translate(0.0,0)">
		<g id="id0:id0:id0" transform="matrix(1.0,0,0,1.0,0,0.0)">			<g stroke="lightgray" stroke-width="4" transform="scale(4, 4)"> <rect x="0" y="0" width="256" height="256" fill="white" stroke-width="4"/></g>
			<g transform="scale(0.92, -0.92) translate(60, -920)">					<path d="M 395 691 Q 394 692 392 693 Q 340 720 324 717 Q 302 714 319 690 Q 352 632 330 422 Q 323 335 277 234 Q 244 158 141 62 Q 125 49 121 41 Q 120 34 132 34 Q 150 34 172 49 Q 226 85 259 119 Q 352 221 377 378 Q 395 478 401 627 Q 404 643 406 654 C 411 683 411 683 395 691 Z" fill="red"></path>
				<path d="M 970 80 Q 992 89 984 112 Q 969 164 964 237 Q 961 277 953 284 Q 944 288 941 276 Q 905 152 866 122 Q 844 107 791 102 Q 721 96 682 108 Q 642 118 626 139 Q 610 158 603 191 Q 594 231 608 375 Q 621 522 647 617 Q 657 662 696 694 Q 712 713 694 728 Q 670 747 617 766 Q 595 772 576 760 Q 501 708 395 691 C 366 685 377 647 406 654 Q 427 657 555 696 Q 568 702 576 698 Q 580 694 581 679 Q 547 261 549 216 Q 549 27 798 35 Q 819 38 842 40 Q 906 49 970 80 Z" fill="lightgray"></path>
</g>
		<text x="40" y="140" font-size="128" fill="#999999">1</text></g>
		<g id="id0:id1:id1" transform="matrix(1.0,0,0,1.0,1024,0.0)">			<g stroke="lightgray" stroke-width="4" transform="scale(4, 4)"> <rect x="0" y="0" width="256" height="256" fill="white" stroke-width="4"/></g>
			<g transform="scale(0.92, -0.92) translate(60, -920)">					<path d="M 395 691 Q 394 692 392 693 Q 340 720 324 717 Q 302 714 319 690 Q 352 632 330 422 Q 323 335 277 234 Q 244 158 141 62 Q 125 49 121 41 Q 120 34 132 34 Q 150 34 172 49 Q 226 85 259 119 Q 352 221 377 378 Q 395 478 401 627 Q 404 643 406 654 C 411 683 411 683 395 691 Z" fill="black"></path>
				<path d="M 970 80 Q 992 89 984 112 Q 969 164 964 237 Q 961 277 953 284 Q 944 288 941 276 Q 905 152 866 122 Q 844 107 791 102 Q 721 96 682 108 Q 642 118 626 139 Q 610 158 603 191 Q 594 231 608 375 Q 621 522 647 617 Q 657 662 696 694 Q 712 713 694 728 Q 670 747 617 766 Q 595 772 576 760 Q 501 708 395 691 C 366 685 377 647 406 654 Q 427 657 555 696 Q 568 702 576 698 Q 580 694 581 679 Q 547 261 549 216 Q 549 27 798 35 Q 819 38 842 40 Q 906 49 970 80 Z" fill="red"></path>
</g>
		<text x="40" y="140" font-size="128" fill="#999999">2</text></g>
		<g id="id0:id2:id2" transform="matrix(1.0,0,0,1.0,2048,0.0)">			<g stroke="white" stroke-width="4" transform="scale(4, 4)"> <rect x="1" y="1" width="255" height="255" fill="white" stroke-width="0"/></g>
</g>
		<g id="id0:id3:id3" transform="matrix(1.0,0,0,1.0,3072,0.0)">			<g stroke="white" stroke-width="4" transform="scale(4, 4)"> <rect x="1" y="1" width="255" height="255" fill="white" stroke-width="0"/></g>
</g>
		<g id="id0:id4:id4" transform="matrix(1.0,0,0,1.0,4096,0.0)">			<g stroke="white" stroke-width="4" transform="scale(4, 4)"> <rect x="1" y="1" width="255" height="255" fill="white" stroke-width="0"/></g>
</g>
</g>
</svg>
