<?xml version="1.0" standalone="no"?>
<!DOCTYPE svg PUBLIC "-//W3C//DTD SVG 1.1//EN"
 "http://www.w3.org/Graphics/SVG/1.1/DTD/svg11.dtd">
<!-- generate by Japanese dictionary app com.asnsami.kanjidictionary -->

<svg xmlns="http://www.w3.org/2000/svg" xmlns:sodipodi="http://sodipodi.sourceforge.net/DTD/sodipodi-0.dtd" version="1.1" width="640" height="128" viewBox="0 0 5120 1024">
	<g id="id0:id0" transform="translate(0.0,0)">
		<g id="id0:id0:id0" transform="matrix(1.0,0,0,1.0,0,0.0)">			<g stroke="lightgray" stroke-width="4" transform="scale(4, 4)"> <rect x="0" y="0" width="256" height="256" fill="white" stroke-width="4"/></g>
			<g transform="scale(0.92, -0.92) translate(60, -920)">					<path d="M 324 682 Q 328 610 221 489 Q 170 440 94 376 Q 85 372 96 368 Q 144 368 253 455 Q 331 533 390 611 Q 399 623 405 627 Q 414 633 412 643 Q 411 653 399 667 Q 365 701 331 697 Q 322 696 324 682 Z" fill="red"></path>
				<path d="M 448 795 Q 506 765 551 690 Q 710 426 782 412 Q 839 412 959 425 Q 984 428 984 434 Q 984 441 960 448 Q 792 500 734 551 Q 662 611 551 774 Q 524 813 479 815 Q 448 816 445 808 Q 441 798 448 795 Z" fill="lightgray"></path>
				<path d="M 434 376 Q 510 395 575 405 Q 600 408 604 400 Q 617 378 606 323 Q 584 169 544 104 Q 526 71 498 76 Q 461 88 427 101 Q 402 108 420 85 Q 478 37 507 0 Q 532 -27 555 -3 Q 592 25 617 74 Q 647 132 663 308 Q 669 369 690 401 Q 703 416 697 427 Q 687 440 630 465 Q 608 475 586 460 Q 559 444 456 421 Q 353 396 266 390 Q 245 389 242 379 Q 241 369 268 356 Q 296 337 320 346 Q 354 356 388 364 L 434 376 Z" fill="lightgray"></path>
				<path d="M 388 364 Q 388 205 153 38 Q 144 31 151 27 Q 158 24 170 28 Q 228 47 279 83 Q 366 138 437 282 Q 450 304 465 327 Q 474 336 468 347 Q 462 357 434 376 C 410 393 389 394 388 364 Z" fill="lightgray"></path>
</g>
		<text x="40" y="140" font-size="128" fill="#999999">1</text></g>
		<g id="id0:id1:id1" transform="matrix(1.0,0,0,1.0,1024,0.0)">			<g stroke="lightgray" stroke-width="4" transform="scale(4, 4)"> <rect x="0" y="0" width="256" height="256" fill="white" stroke-width="4"/></g>
			<g transform="scale(0.92, -0.92) translate(60, -920)">					<path d="M 324 682 Q 328 610 221 489 Q 170 440 94 376 Q 85 372 96 368 Q 144 368 253 455 Q 331 533 390 611 Q 399 623 405 627 Q 414 633 412 643 Q 411 653 399 667 Q 365 701 331 697 Q 322 696 324 682 Z" fill="black"></path>
				<path d="M 448 795 Q 506 765 551 690 Q 710 426 782 412 Q 839 412 959 425 Q 984 428 984 434 Q 984 441 960 448 Q 792 500 734 551 Q 662 611 551 774 Q 524 813 479 815 Q 448 816 445 808 Q 441 798 448 795 Z" fill="red"></path>
				<path d="M 434 376 Q 510 395 575 405 Q 600 408 604 400 Q 617 378 606 323 Q 584 169 544 104 Q 526 71 498 76 Q 461 88 427 101 Q 402 108 420 85 Q 478 37 507 0 Q 532 -27 555 -3 Q 592 25 617 74 Q 647 132 663 308 Q 669 369 690 401 Q 703 416 697 427 Q 687 440 630 465 Q 608 475 586 460 Q 559 444 456 421 Q 353 396 266 390 Q 245 389 242 379 Q 241 369 268 356 Q 296 337 320 346 Q 354 356 388 364 L 434 376 Z" fill="lightgray"></path>
				<path d="M 388 364 Q 388 205 153 38 Q 144 31 151 27 Q 158 24 170 28 Q 228 47 279 83 Q 366 138 437 282 Q 450 304 465 327 Q 474 336 468 347 Q 462 357 434 376 C 410 393 389 394 388 364 Z" fill="lightgray"></path>
</g>
		<text x="40" y="140" font-size="128" fill="#999999">2</text></g>
		<g id="id0:id2:id2" transform="matrix(1.0,0,0,1.0,2048,0.0)">			<g stroke="lightgray" stroke-width="4" transform="scale(4, 4)"> <rect x="0" y="0" width="256" height="256" fill="white" stroke-width="4"/></g>
			<g transform="scale(0.92, -0.92) translate(60, -920)">					<path d="M 324 682 Q 328 610 221 489 Q 170 440 94 376 Q 85 372 96 368 Q 144 368 253 455 Q 331 533 390 611 Q 399 623 405 627 Q 414 633 412 643 Q 411 653 399 667 Q 365 701 331 697 Q 322 696 324 682 Z" fill="black"></path>
				<path d="M 448 795 Q 506 765 551 690 Q 710 426 782 412 Q 839 412 959 425 Q 984 428 984 434 Q 984 441 960 448 Q 792 500 734 551 Q 662 611 551 774 Q 524 813 479 815 Q 448 816 445 808 Q 441 798 448 795 Z" fill="black"></path>
				<path d="M 434 376 Q 510 395 575 405 Q 600 408 604 400 Q 617 378 606 323 Q 584 169 544 104 Q 526 71 498 76 Q 461 88 427 101 Q 402 108 420 85 Q 478 37 507 0 Q 532 -27 555 -3 Q 592 25 617 74 Q 647 132 663 308 Q 669 369 690 401 Q 703 416 697 427 Q 687 440 630 465 Q 608 475 586 460 Q 559 444 456 421 Q 353 396 266 390 Q 245 389 242 379 Q 241 369 268 356 Q 296 337 320 346 Q 354 356 388 364 L 434 376 Z" fill="red"></path>
				<path d="M 388 364 Q 388 205 153 38 Q 144 31 151 27 Q 158 24 170 28 Q 228 47 279 83 Q 366 138 437 282 Q 450 304 465 327 Q 474 336 468 347 Q 462 357 434 376 C 410 393 389 394 388 364 Z" fill="lightgray"></path>
</g>
		<text x="40" y="140" font-size="128" fill="#999999">3</text></g>
		<g id="id0:id3:id3" transform="matrix(1.0,0,0,1.0,3072,0.0)">			<g stroke="lightgray" stroke-width="4" transform="scale(4, 4)"> <rect x="0" y="0" width="256" height="256" fill="white" stroke-width="4"/></g>
			<g transform="scale(0.92, -0.92) translate(60, -920)">					<path d="M 324 682 Q 328 610 221 489 Q 170 440 94 376 Q 85 372 96 368 Q 144 368 253 455 Q 331 533 390 611 Q 399 623 405 627 Q 414 633 412 643 Q 411 653 399 667 Q 365 701 331 697 Q 322 696 324 682 Z" fill="black"></path>
				<path d="M 448 795 Q 506 765 551 690 Q 710 426 782 412 Q 839 412 959 425 Q 984 428 984 434 Q 984 441 960 448 Q 792 500 734 551 Q 662 611 551 774 Q 524 813 479 815 Q 448 816 445 808 Q 441 798 448 795 Z" fill="black"></path>
				<path d="M 434 376 Q 510 395 575 405 Q 600 408 604 400 Q 617 378 606 323 Q 584 169 544 104 Q 526 71 498 76 Q 461 88 427 101 Q 402 108 420 85 Q 478 37 507 0 Q 532 -27 555 -3 Q 592 25 617 74 Q 647 132 663 308 Q 669 369 690 401 Q 703 416 697 427 Q 687 440 630 465 Q 608 475 586 460 Q 559 444 456 421 Q 353 396 266 390 Q 245 389 242 379 Q 241 369 268 356 Q 296 337 320 346 Q 354 356 388 364 L 434 376 Z" fill="black"></path>
				<path d="M 388 364 Q 388 205 153 38 Q 144 31 151 27 Q 158 24 170 28 Q 228 47 279 83 Q 366 138 437 282 Q 450 304 465 327 Q 474 336 468 347 Q 462 357 434 376 C 410 393 389 394 388 364 Z" fill="red"></path>
</g>
		<text x="40" y="140" font-size="128" fill="#999999">4</text></g>
		<g id="id0:id4:id4" transform="matrix(1.0,0,0,1.0,4096,0.0)">			<g stroke="white" stroke-width="4" transform="scale(4, 4)"> <rect x="1" y="1" width="255" height="255" fill="white" stroke-width="0"/></g>
</g>
</g>
</svg>
