<?xml version="1.0" standalone="no"?>
<!DOCTYPE svg PUBLIC "-//W3C//DTD SVG 1.1//EN"
 "http://www.w3.org/Graphics/SVG/1.1/DTD/svg11.dtd">
<!-- generate by Handict dictionary app com.asnsami.handict -->

<svg xmlns="http://www.w3.org/2000/svg" xmlns:sodipodi="http://sodipodi.sourceforge.net/DTD/sodipodi-0.dtd" version="1.1" width="640" height="256" viewBox="0 0 5120 2048">
	<g id="id0:id0" transform="translate(0.0,0)">
		<g id="id0:id0:id0" transform="matrix(1.0,0,0,1.0,0,0.0)">			<g stroke="lightgray" stroke-width="4" transform="scale(4, 4)"> <rect x="0" y="0" width="256" height="256" fill="white" stroke-width="4"/></g>
			<g transform="scale(0.92, -0.92) translate(60, -920)">					<path d="M 240 396 Q 240 400 241 402 Q 248 462 252 520 L 253 560 Q 254 572 254 582 Q 254 679 260 691 C 263 710 263 710 245 720 Q 230 730 208 738 Q 189 747 176 740 Q 166 733 172 720 Q 190 693 197 647 Q 197 425 182 345 Q 178 329 174 311 Q 144 205 80 79 Q 76 72 74 66 Q 73 54 83 58 Q 96 61 131 112 Q 198 199 233 359 L 240 396 Z" fill="red"></path>
				<path d="M 260 691 Q 260 692 262 692 Q 311 702 360 714 Q 379 720 385 709 Q 407 648 387 235 Q 378 157 374 150 Q 370 144 351 149 Q 326 156 299 165 Q 280 174 280 164 Q 332 110 361 72 Q 374 53 389 47 Q 398 43 407 52 Q 449 100 450 154 Q 443 329 448 613 Q 447 671 461 696 Q 474 715 462 726 Q 440 745 404 760 Q 386 767 370 760 Q 333 741 310 733 Q 286 726 245 720 C 215 715 231 684 260 691 Z" fill="lightgray"></path>
				<path d="M 252 520 Q 298 529 335 533 Q 360 539 350 552 Q 337 567 311 570 Q 287 571 253 560 C 224 551 223 514 252 520 Z" fill="lightgray"></path>
				<path d="M 233 359 Q 293 366 338 370 Q 363 374 353 388 Q 343 404 315 408 Q 258 414 240 396 C 217 376 203 356 233 359 Z" fill="lightgray"></path>
				<path d="M 537 626 Q 571 539 547 343 Q 540 306 570 265 Q 580 253 591 266 Q 615 299 612 352 Q 612 562 617 594 Q 624 619 602 631 Q 584 641 565 651 Q 552 655 541 650 Q 532 643 537 626 Z" fill="lightgray"></path>
				<path d="M 730 720 Q 734 686 736 145 Q 735 123 723 113 Q 719 112 663 129 Q 629 148 630 136 Q 631 127 650 108 Q 708 44 720 12 Q 733 -27 750 -31 Q 766 -32 785 6 Q 815 78 807 172 Q 773 614 809 751 Q 827 785 764 810 Q 727 829 705 821 Q 686 814 703 788 Q 728 758 730 720 Z" fill="lightgray"></path>
</g>
		<text x="40" y="140" font-size="128" fill="#999999">1</text></g>
		<g id="id0:id1:id1" transform="matrix(1.0,0,0,1.0,1024,0.0)">			<g stroke="lightgray" stroke-width="4" transform="scale(4, 4)"> <rect x="0" y="0" width="256" height="256" fill="white" stroke-width="4"/></g>
			<g transform="scale(0.92, -0.92) translate(60, -920)">					<path d="M 240 396 Q 240 400 241 402 Q 248 462 252 520 L 253 560 Q 254 572 254 582 Q 254 679 260 691 C 263 710 263 710 245 720 Q 230 730 208 738 Q 189 747 176 740 Q 166 733 172 720 Q 190 693 197 647 Q 197 425 182 345 Q 178 329 174 311 Q 144 205 80 79 Q 76 72 74 66 Q 73 54 83 58 Q 96 61 131 112 Q 198 199 233 359 L 240 396 Z" fill="black"></path>
				<path d="M 260 691 Q 260 692 262 692 Q 311 702 360 714 Q 379 720 385 709 Q 407 648 387 235 Q 378 157 374 150 Q 370 144 351 149 Q 326 156 299 165 Q 280 174 280 164 Q 332 110 361 72 Q 374 53 389 47 Q 398 43 407 52 Q 449 100 450 154 Q 443 329 448 613 Q 447 671 461 696 Q 474 715 462 726 Q 440 745 404 760 Q 386 767 370 760 Q 333 741 310 733 Q 286 726 245 720 C 215 715 231 684 260 691 Z" fill="red"></path>
				<path d="M 252 520 Q 298 529 335 533 Q 360 539 350 552 Q 337 567 311 570 Q 287 571 253 560 C 224 551 223 514 252 520 Z" fill="lightgray"></path>
				<path d="M 233 359 Q 293 366 338 370 Q 363 374 353 388 Q 343 404 315 408 Q 258 414 240 396 C 217 376 203 356 233 359 Z" fill="lightgray"></path>
				<path d="M 537 626 Q 571 539 547 343 Q 540 306 570 265 Q 580 253 591 266 Q 615 299 612 352 Q 612 562 617 594 Q 624 619 602 631 Q 584 641 565 651 Q 552 655 541 650 Q 532 643 537 626 Z" fill="lightgray"></path>
				<path d="M 730 720 Q 734 686 736 145 Q 735 123 723 113 Q 719 112 663 129 Q 629 148 630 136 Q 631 127 650 108 Q 708 44 720 12 Q 733 -27 750 -31 Q 766 -32 785 6 Q 815 78 807 172 Q 773 614 809 751 Q 827 785 764 810 Q 727 829 705 821 Q 686 814 703 788 Q 728 758 730 720 Z" fill="lightgray"></path>
</g>
		<text x="40" y="140" font-size="128" fill="#999999">2</text></g>
		<g id="id0:id2:id2" transform="matrix(1.0,0,0,1.0,2048,0.0)">			<g stroke="lightgray" stroke-width="4" transform="scale(4, 4)"> <rect x="0" y="0" width="256" height="256" fill="white" stroke-width="4"/></g>
			<g transform="scale(0.92, -0.92) translate(60, -920)">					<path d="M 240 396 Q 240 400 241 402 Q 248 462 252 520 L 253 560 Q 254 572 254 582 Q 254 679 260 691 C 263 710 263 710 245 720 Q 230 730 208 738 Q 189 747 176 740 Q 166 733 172 720 Q 190 693 197 647 Q 197 425 182 345 Q 178 329 174 311 Q 144 205 80 79 Q 76 72 74 66 Q 73 54 83 58 Q 96 61 131 112 Q 198 199 233 359 L 240 396 Z" fill="black"></path>
				<path d="M 260 691 Q 260 692 262 692 Q 311 702 360 714 Q 379 720 385 709 Q 407 648 387 235 Q 378 157 374 150 Q 370 144 351 149 Q 326 156 299 165 Q 280 174 280 164 Q 332 110 361 72 Q 374 53 389 47 Q 398 43 407 52 Q 449 100 450 154 Q 443 329 448 613 Q 447 671 461 696 Q 474 715 462 726 Q 440 745 404 760 Q 386 767 370 760 Q 333 741 310 733 Q 286 726 245 720 C 215 715 231 684 260 691 Z" fill="black"></path>
				<path d="M 252 520 Q 298 529 335 533 Q 360 539 350 552 Q 337 567 311 570 Q 287 571 253 560 C 224 551 223 514 252 520 Z" fill="red"></path>
				<path d="M 233 359 Q 293 366 338 370 Q 363 374 353 388 Q 343 404 315 408 Q 258 414 240 396 C 217 376 203 356 233 359 Z" fill="lightgray"></path>
				<path d="M 537 626 Q 571 539 547 343 Q 540 306 570 265 Q 580 253 591 266 Q 615 299 612 352 Q 612 562 617 594 Q 624 619 602 631 Q 584 641 565 651 Q 552 655 541 650 Q 532 643 537 626 Z" fill="lightgray"></path>
				<path d="M 730 720 Q 734 686 736 145 Q 735 123 723 113 Q 719 112 663 129 Q 629 148 630 136 Q 631 127 650 108 Q 708 44 720 12 Q 733 -27 750 -31 Q 766 -32 785 6 Q 815 78 807 172 Q 773 614 809 751 Q 827 785 764 810 Q 727 829 705 821 Q 686 814 703 788 Q 728 758 730 720 Z" fill="lightgray"></path>
</g>
		<text x="40" y="140" font-size="128" fill="#999999">3</text></g>
		<g id="id0:id3:id3" transform="matrix(1.0,0,0,1.0,3072,0.0)">			<g stroke="lightgray" stroke-width="4" transform="scale(4, 4)"> <rect x="0" y="0" width="256" height="256" fill="white" stroke-width="4"/></g>
			<g transform="scale(0.92, -0.92) translate(60, -920)">					<path d="M 240 396 Q 240 400 241 402 Q 248 462 252 520 L 253 560 Q 254 572 254 582 Q 254 679 260 691 C 263 710 263 710 245 720 Q 230 730 208 738 Q 189 747 176 740 Q 166 733 172 720 Q 190 693 197 647 Q 197 425 182 345 Q 178 329 174 311 Q 144 205 80 79 Q 76 72 74 66 Q 73 54 83 58 Q 96 61 131 112 Q 198 199 233 359 L 240 396 Z" fill="black"></path>
				<path d="M 260 691 Q 260 692 262 692 Q 311 702 360 714 Q 379 720 385 709 Q 407 648 387 235 Q 378 157 374 150 Q 370 144 351 149 Q 326 156 299 165 Q 280 174 280 164 Q 332 110 361 72 Q 374 53 389 47 Q 398 43 407 52 Q 449 100 450 154 Q 443 329 448 613 Q 447 671 461 696 Q 474 715 462 726 Q 440 745 404 760 Q 386 767 370 760 Q 333 741 310 733 Q 286 726 245 720 C 215 715 231 684 260 691 Z" fill="black"></path>
				<path d="M 252 520 Q 298 529 335 533 Q 360 539 350 552 Q 337 567 311 570 Q 287 571 253 560 C 224 551 223 514 252 520 Z" fill="black"></path>
				<path d="M 233 359 Q 293 366 338 370 Q 363 374 353 388 Q 343 404 315 408 Q 258 414 240 396 C 217 376 203 356 233 359 Z" fill="red"></path>
				<path d="M 537 626 Q 571 539 547 343 Q 540 306 570 265 Q 580 253 591 266 Q 615 299 612 352 Q 612 562 617 594 Q 624 619 602 631 Q 584 641 565 651 Q 552 655 541 650 Q 532 643 537 626 Z" fill="lightgray"></path>
				<path d="M 730 720 Q 734 686 736 145 Q 735 123 723 113 Q 719 112 663 129 Q 629 148 630 136 Q 631 127 650 108 Q 708 44 720 12 Q 733 -27 750 -31 Q 766 -32 785 6 Q 815 78 807 172 Q 773 614 809 751 Q 827 785 764 810 Q 727 829 705 821 Q 686 814 703 788 Q 728 758 730 720 Z" fill="lightgray"></path>
</g>
		<text x="40" y="140" font-size="128" fill="#999999">4</text></g>
		<g id="id0:id4:id4" transform="matrix(1.0,0,0,1.0,4096,0.0)">			<g stroke="lightgray" stroke-width="4" transform="scale(4, 4)"> <rect x="0" y="0" width="256" height="256" fill="white" stroke-width="4"/></g>
			<g transform="scale(0.92, -0.92) translate(60, -920)">					<path d="M 240 396 Q 240 400 241 402 Q 248 462 252 520 L 253 560 Q 254 572 254 582 Q 254 679 260 691 C 263 710 263 710 245 720 Q 230 730 208 738 Q 189 747 176 740 Q 166 733 172 720 Q 190 693 197 647 Q 197 425 182 345 Q 178 329 174 311 Q 144 205 80 79 Q 76 72 74 66 Q 73 54 83 58 Q 96 61 131 112 Q 198 199 233 359 L 240 396 Z" fill="black"></path>
				<path d="M 260 691 Q 260 692 262 692 Q 311 702 360 714 Q 379 720 385 709 Q 407 648 387 235 Q 378 157 374 150 Q 370 144 351 149 Q 326 156 299 165 Q 280 174 280 164 Q 332 110 361 72 Q 374 53 389 47 Q 398 43 407 52 Q 449 100 450 154 Q 443 329 448 613 Q 447 671 461 696 Q 474 715 462 726 Q 440 745 404 760 Q 386 767 370 760 Q 333 741 310 733 Q 286 726 245 720 C 215 715 231 684 260 691 Z" fill="black"></path>
				<path d="M 252 520 Q 298 529 335 533 Q 360 539 350 552 Q 337 567 311 570 Q 287 571 253 560 C 224 551 223 514 252 520 Z" fill="black"></path>
				<path d="M 233 359 Q 293 366 338 370 Q 363 374 353 388 Q 343 404 315 408 Q 258 414 240 396 C 217 376 203 356 233 359 Z" fill="black"></path>
				<path d="M 537 626 Q 571 539 547 343 Q 540 306 570 265 Q 580 253 591 266 Q 615 299 612 352 Q 612 562 617 594 Q 624 619 602 631 Q 584 641 565 651 Q 552 655 541 650 Q 532 643 537 626 Z" fill="red"></path>
				<path d="M 730 720 Q 734 686 736 145 Q 735 123 723 113 Q 719 112 663 129 Q 629 148 630 136 Q 631 127 650 108 Q 708 44 720 12 Q 733 -27 750 -31 Q 766 -32 785 6 Q 815 78 807 172 Q 773 614 809 751 Q 827 785 764 810 Q 727 829 705 821 Q 686 814 703 788 Q 728 758 730 720 Z" fill="lightgray"></path>
</g>
		<text x="40" y="140" font-size="128" fill="#999999">5</text></g>
</g>
	<g id="id1:id1" transform="translate(0.0,1024)">
		<g id="id1:id0:id0" transform="matrix(1.0,0,0,1.0,0,0.0)">			<g stroke="lightgray" stroke-width="4" transform="scale(4, 4)"> <rect x="0" y="0" width="256" height="256" fill="white" stroke-width="4"/></g>
			<g transform="scale(0.92, -0.92) translate(60, -920)">					<path d="M 240 396 Q 240 400 241 402 Q 248 462 252 520 L 253 560 Q 254 572 254 582 Q 254 679 260 691 C 263 710 263 710 245 720 Q 230 730 208 738 Q 189 747 176 740 Q 166 733 172 720 Q 190 693 197 647 Q 197 425 182 345 Q 178 329 174 311 Q 144 205 80 79 Q 76 72 74 66 Q 73 54 83 58 Q 96 61 131 112 Q 198 199 233 359 L 240 396 Z" fill="black"></path>
				<path d="M 260 691 Q 260 692 262 692 Q 311 702 360 714 Q 379 720 385 709 Q 407 648 387 235 Q 378 157 374 150 Q 370 144 351 149 Q 326 156 299 165 Q 280 174 280 164 Q 332 110 361 72 Q 374 53 389 47 Q 398 43 407 52 Q 449 100 450 154 Q 443 329 448 613 Q 447 671 461 696 Q 474 715 462 726 Q 440 745 404 760 Q 386 767 370 760 Q 333 741 310 733 Q 286 726 245 720 C 215 715 231 684 260 691 Z" fill="black"></path>
				<path d="M 252 520 Q 298 529 335 533 Q 360 539 350 552 Q 337 567 311 570 Q 287 571 253 560 C 224 551 223 514 252 520 Z" fill="black"></path>
				<path d="M 233 359 Q 293 366 338 370 Q 363 374 353 388 Q 343 404 315 408 Q 258 414 240 396 C 217 376 203 356 233 359 Z" fill="black"></path>
				<path d="M 537 626 Q 571 539 547 343 Q 540 306 570 265 Q 580 253 591 266 Q 615 299 612 352 Q 612 562 617 594 Q 624 619 602 631 Q 584 641 565 651 Q 552 655 541 650 Q 532 643 537 626 Z" fill="black"></path>
				<path d="M 730 720 Q 734 686 736 145 Q 735 123 723 113 Q 719 112 663 129 Q 629 148 630 136 Q 631 127 650 108 Q 708 44 720 12 Q 733 -27 750 -31 Q 766 -32 785 6 Q 815 78 807 172 Q 773 614 809 751 Q 827 785 764 810 Q 727 829 705 821 Q 686 814 703 788 Q 728 758 730 720 Z" fill="red"></path>
</g>
		<text x="40" y="140" font-size="128" fill="#999999">6</text></g>
		<g id="id1:id1:id1" transform="matrix(1.0,0,0,1.0,1024,0.0)">			<g stroke="white" stroke-width="4" transform="scale(4, 4)"> <rect x="1" y="1" width="255" height="255" fill="white" stroke-width="0"/></g>
</g>
		<g id="id1:id2:id2" transform="matrix(1.0,0,0,1.0,2048,0.0)">			<g stroke="white" stroke-width="4" transform="scale(4, 4)"> <rect x="1" y="1" width="255" height="255" fill="white" stroke-width="0"/></g>
</g>
		<g id="id1:id3:id3" transform="matrix(1.0,0,0,1.0,3072,0.0)">			<g stroke="white" stroke-width="4" transform="scale(4, 4)"> <rect x="1" y="1" width="255" height="255" fill="white" stroke-width="0"/></g>
</g>
		<g id="id1:id4:id4" transform="matrix(1.0,0,0,1.0,4096,0.0)">			<g stroke="white" stroke-width="4" transform="scale(4, 4)"> <rect x="1" y="1" width="255" height="255" fill="white" stroke-width="0"/></g>
</g>
</g>
</svg>
