<?xml version="1.0" standalone="no"?>
<!DOCTYPE svg PUBLIC "-//W3C//DTD SVG 1.1//EN"
 "http://www.w3.org/Graphics/SVG/1.1/DTD/svg11.dtd">
<!-- generate by Japanese dictionary app com.asnsami.kanjidictionary -->

<svg xmlns="http://www.w3.org/2000/svg" xmlns:sodipodi="http://sodipodi.sourceforge.net/DTD/sodipodi-0.dtd" version="1.1" width="640" height="256" viewBox="0 0 5120 2048">
	<g id="id0:id0" transform="translate(0.0,0)">
		<g id="id0:id0:id0" transform="matrix(1.0,0,0,1.0,0,0.0)">			<g stroke="lightgray" stroke-width="4" transform="scale(4, 4)"> <rect x="0" y="0" width="256" height="256" fill="white" stroke-width="4"/></g>
			<g transform="scale(0.92, -0.92) translate(60, -920)">					<path d="M 284 678 Q 315 669 372 681 Q 451 699 534 717 Q 574 727 579 733 Q 588 740 583 749 Q 576 759 548 766 Q 523 772 408 733 Q 272 708 271 706 C 242 698 255 685 284 678 Z" fill="red"></path>
				<path d="M 271 706 Q 258 718 236 727 Q 217 737 204 733 Q 192 726 199 713 Q 214 692 214 639 Q 213 626 212 607 Q 206 457 166 346 Q 139 268 63 146 Q 59 140 56 134 Q 53 124 64 125 Q 95 131 167 243 Q 179 264 191 286 Q 249 418 270 611 Q 273 645 284 678 C 289 693 289 693 271 706 Z" fill="lightgray"></path>
				<path d="M 395 499 Q 423 509 554 540 Q 564 540 572 554 Q 572 564 548 573 Q 509 588 443 560 Q 431 557 420 553 Q 414 553 285 517 Q 257 510 281 496 Q 317 477 341 483 Q 347 484 355 487 L 395 499 Z" fill="lightgray"></path>
				<path d="M 399 390 Q 415 380 454 375 Q 478 372 487 359 Q 500 332 453 208 Q 428 153 404 142 Q 391 142 352 163 Q 319 182 314 178 Q 308 171 323 157 Q 360 120 369 76 Q 373 60 383 53 Q 395 47 428 65 Q 462 89 495 161 Q 543 318 560 335 Q 570 341 572 349 Q 573 358 551 381 Q 523 408 471 407 Q 429 413 408 417 C 378 422 372 402 399 390 Z" fill="lightgray"></path>
				<path d="M 408 417 Q 415 439 427 459 Q 434 469 428 477 Q 421 486 395 499 C 369 513 352 517 355 487 Q 377 331 163 128 Q 156 121 162 119 Q 169 118 179 122 Q 234 149 278 191 Q 353 254 399 390 L 408 417 Z" fill="lightgray"></path>
				<path d="M 753 461 Q 793 473 836 480 Q 851 481 854 475 Q 861 459 858 416 Q 845 257 813 173 Q 797 121 779 104 Q 769 95 748 102 Q 718 115 691 127 Q 669 136 683 114 Q 723 62 743 22 Q 750 0 771 5 Q 790 6 814 34 Q 881 103 909 372 Q 916 433 938 468 Q 954 489 945 499 Q 929 517 895 531 Q 870 543 844 531 Q 807 515 761 499 L 701 483 Q 623 465 578 463 Q 559 464 559 454 Q 558 444 580 432 Q 607 416 630 425 Q 661 435 694 445 L 753 461 Z" fill="lightgray"></path>
				<path d="M 694 445 Q 649 235 508 33 Q 502 26 500 19 Q 497 7 509 10 Q 543 16 635 149 Q 654 182 673 217 Q 722 326 753 461 L 761 499 Q 791 715 795 723 Q 805 739 797 753 Q 779 772 746 787 Q 725 800 711 794 Q 698 787 705 772 Q 729 733 721 654 Q 720 645 719 633 Q 713 554 701 483 L 694 445 Z" fill="lightgray"></path>
</g>
		<text x="40" y="140" font-size="128" fill="#999999">1</text></g>
		<g id="id0:id1:id1" transform="matrix(1.0,0,0,1.0,1024,0.0)">			<g stroke="lightgray" stroke-width="4" transform="scale(4, 4)"> <rect x="0" y="0" width="256" height="256" fill="white" stroke-width="4"/></g>
			<g transform="scale(0.92, -0.92) translate(60, -920)">					<path d="M 284 678 Q 315 669 372 681 Q 451 699 534 717 Q 574 727 579 733 Q 588 740 583 749 Q 576 759 548 766 Q 523 772 408 733 Q 272 708 271 706 C 242 698 255 685 284 678 Z" fill="black"></path>
				<path d="M 271 706 Q 258 718 236 727 Q 217 737 204 733 Q 192 726 199 713 Q 214 692 214 639 Q 213 626 212 607 Q 206 457 166 346 Q 139 268 63 146 Q 59 140 56 134 Q 53 124 64 125 Q 95 131 167 243 Q 179 264 191 286 Q 249 418 270 611 Q 273 645 284 678 C 289 693 289 693 271 706 Z" fill="red"></path>
				<path d="M 395 499 Q 423 509 554 540 Q 564 540 572 554 Q 572 564 548 573 Q 509 588 443 560 Q 431 557 420 553 Q 414 553 285 517 Q 257 510 281 496 Q 317 477 341 483 Q 347 484 355 487 L 395 499 Z" fill="lightgray"></path>
				<path d="M 399 390 Q 415 380 454 375 Q 478 372 487 359 Q 500 332 453 208 Q 428 153 404 142 Q 391 142 352 163 Q 319 182 314 178 Q 308 171 323 157 Q 360 120 369 76 Q 373 60 383 53 Q 395 47 428 65 Q 462 89 495 161 Q 543 318 560 335 Q 570 341 572 349 Q 573 358 551 381 Q 523 408 471 407 Q 429 413 408 417 C 378 422 372 402 399 390 Z" fill="lightgray"></path>
				<path d="M 408 417 Q 415 439 427 459 Q 434 469 428 477 Q 421 486 395 499 C 369 513 352 517 355 487 Q 377 331 163 128 Q 156 121 162 119 Q 169 118 179 122 Q 234 149 278 191 Q 353 254 399 390 L 408 417 Z" fill="lightgray"></path>
				<path d="M 753 461 Q 793 473 836 480 Q 851 481 854 475 Q 861 459 858 416 Q 845 257 813 173 Q 797 121 779 104 Q 769 95 748 102 Q 718 115 691 127 Q 669 136 683 114 Q 723 62 743 22 Q 750 0 771 5 Q 790 6 814 34 Q 881 103 909 372 Q 916 433 938 468 Q 954 489 945 499 Q 929 517 895 531 Q 870 543 844 531 Q 807 515 761 499 L 701 483 Q 623 465 578 463 Q 559 464 559 454 Q 558 444 580 432 Q 607 416 630 425 Q 661 435 694 445 L 753 461 Z" fill="lightgray"></path>
				<path d="M 694 445 Q 649 235 508 33 Q 502 26 500 19 Q 497 7 509 10 Q 543 16 635 149 Q 654 182 673 217 Q 722 326 753 461 L 761 499 Q 791 715 795 723 Q 805 739 797 753 Q 779 772 746 787 Q 725 800 711 794 Q 698 787 705 772 Q 729 733 721 654 Q 720 645 719 633 Q 713 554 701 483 L 694 445 Z" fill="lightgray"></path>
</g>
		<text x="40" y="140" font-size="128" fill="#999999">2</text></g>
		<g id="id0:id2:id2" transform="matrix(1.0,0,0,1.0,2048,0.0)">			<g stroke="lightgray" stroke-width="4" transform="scale(4, 4)"> <rect x="0" y="0" width="256" height="256" fill="white" stroke-width="4"/></g>
			<g transform="scale(0.92, -0.92) translate(60, -920)">					<path d="M 284 678 Q 315 669 372 681 Q 451 699 534 717 Q 574 727 579 733 Q 588 740 583 749 Q 576 759 548 766 Q 523 772 408 733 Q 272 708 271 706 C 242 698 255 685 284 678 Z" fill="black"></path>
				<path d="M 271 706 Q 258 718 236 727 Q 217 737 204 733 Q 192 726 199 713 Q 214 692 214 639 Q 213 626 212 607 Q 206 457 166 346 Q 139 268 63 146 Q 59 140 56 134 Q 53 124 64 125 Q 95 131 167 243 Q 179 264 191 286 Q 249 418 270 611 Q 273 645 284 678 C 289 693 289 693 271 706 Z" fill="black"></path>
				<path d="M 395 499 Q 423 509 554 540 Q 564 540 572 554 Q 572 564 548 573 Q 509 588 443 560 Q 431 557 420 553 Q 414 553 285 517 Q 257 510 281 496 Q 317 477 341 483 Q 347 484 355 487 L 395 499 Z" fill="red"></path>
				<path d="M 399 390 Q 415 380 454 375 Q 478 372 487 359 Q 500 332 453 208 Q 428 153 404 142 Q 391 142 352 163 Q 319 182 314 178 Q 308 171 323 157 Q 360 120 369 76 Q 373 60 383 53 Q 395 47 428 65 Q 462 89 495 161 Q 543 318 560 335 Q 570 341 572 349 Q 573 358 551 381 Q 523 408 471 407 Q 429 413 408 417 C 378 422 372 402 399 390 Z" fill="lightgray"></path>
				<path d="M 408 417 Q 415 439 427 459 Q 434 469 428 477 Q 421 486 395 499 C 369 513 352 517 355 487 Q 377 331 163 128 Q 156 121 162 119 Q 169 118 179 122 Q 234 149 278 191 Q 353 254 399 390 L 408 417 Z" fill="lightgray"></path>
				<path d="M 753 461 Q 793 473 836 480 Q 851 481 854 475 Q 861 459 858 416 Q 845 257 813 173 Q 797 121 779 104 Q 769 95 748 102 Q 718 115 691 127 Q 669 136 683 114 Q 723 62 743 22 Q 750 0 771 5 Q 790 6 814 34 Q 881 103 909 372 Q 916 433 938 468 Q 954 489 945 499 Q 929 517 895 531 Q 870 543 844 531 Q 807 515 761 499 L 701 483 Q 623 465 578 463 Q 559 464 559 454 Q 558 444 580 432 Q 607 416 630 425 Q 661 435 694 445 L 753 461 Z" fill="lightgray"></path>
				<path d="M 694 445 Q 649 235 508 33 Q 502 26 500 19 Q 497 7 509 10 Q 543 16 635 149 Q 654 182 673 217 Q 722 326 753 461 L 761 499 Q 791 715 795 723 Q 805 739 797 753 Q 779 772 746 787 Q 725 800 711 794 Q 698 787 705 772 Q 729 733 721 654 Q 720 645 719 633 Q 713 554 701 483 L 694 445 Z" fill="lightgray"></path>
</g>
		<text x="40" y="140" font-size="128" fill="#999999">3</text></g>
		<g id="id0:id3:id3" transform="matrix(1.0,0,0,1.0,3072,0.0)">			<g stroke="lightgray" stroke-width="4" transform="scale(4, 4)"> <rect x="0" y="0" width="256" height="256" fill="white" stroke-width="4"/></g>
			<g transform="scale(0.92, -0.92) translate(60, -920)">					<path d="M 284 678 Q 315 669 372 681 Q 451 699 534 717 Q 574 727 579 733 Q 588 740 583 749 Q 576 759 548 766 Q 523 772 408 733 Q 272 708 271 706 C 242 698 255 685 284 678 Z" fill="black"></path>
				<path d="M 271 706 Q 258 718 236 727 Q 217 737 204 733 Q 192 726 199 713 Q 214 692 214 639 Q 213 626 212 607 Q 206 457 166 346 Q 139 268 63 146 Q 59 140 56 134 Q 53 124 64 125 Q 95 131 167 243 Q 179 264 191 286 Q 249 418 270 611 Q 273 645 284 678 C 289 693 289 693 271 706 Z" fill="black"></path>
				<path d="M 395 499 Q 423 509 554 540 Q 564 540 572 554 Q 572 564 548 573 Q 509 588 443 560 Q 431 557 420 553 Q 414 553 285 517 Q 257 510 281 496 Q 317 477 341 483 Q 347 484 355 487 L 395 499 Z" fill="black"></path>
				<path d="M 399 390 Q 415 380 454 375 Q 478 372 487 359 Q 500 332 453 208 Q 428 153 404 142 Q 391 142 352 163 Q 319 182 314 178 Q 308 171 323 157 Q 360 120 369 76 Q 373 60 383 53 Q 395 47 428 65 Q 462 89 495 161 Q 543 318 560 335 Q 570 341 572 349 Q 573 358 551 381 Q 523 408 471 407 Q 429 413 408 417 C 378 422 372 402 399 390 Z" fill="red"></path>
				<path d="M 408 417 Q 415 439 427 459 Q 434 469 428 477 Q 421 486 395 499 C 369 513 352 517 355 487 Q 377 331 163 128 Q 156 121 162 119 Q 169 118 179 122 Q 234 149 278 191 Q 353 254 399 390 L 408 417 Z" fill="lightgray"></path>
				<path d="M 753 461 Q 793 473 836 480 Q 851 481 854 475 Q 861 459 858 416 Q 845 257 813 173 Q 797 121 779 104 Q 769 95 748 102 Q 718 115 691 127 Q 669 136 683 114 Q 723 62 743 22 Q 750 0 771 5 Q 790 6 814 34 Q 881 103 909 372 Q 916 433 938 468 Q 954 489 945 499 Q 929 517 895 531 Q 870 543 844 531 Q 807 515 761 499 L 701 483 Q 623 465 578 463 Q 559 464 559 454 Q 558 444 580 432 Q 607 416 630 425 Q 661 435 694 445 L 753 461 Z" fill="lightgray"></path>
				<path d="M 694 445 Q 649 235 508 33 Q 502 26 500 19 Q 497 7 509 10 Q 543 16 635 149 Q 654 182 673 217 Q 722 326 753 461 L 761 499 Q 791 715 795 723 Q 805 739 797 753 Q 779 772 746 787 Q 725 800 711 794 Q 698 787 705 772 Q 729 733 721 654 Q 720 645 719 633 Q 713 554 701 483 L 694 445 Z" fill="lightgray"></path>
</g>
		<text x="40" y="140" font-size="128" fill="#999999">4</text></g>
		<g id="id0:id4:id4" transform="matrix(1.0,0,0,1.0,4096,0.0)">			<g stroke="lightgray" stroke-width="4" transform="scale(4, 4)"> <rect x="0" y="0" width="256" height="256" fill="white" stroke-width="4"/></g>
			<g transform="scale(0.92, -0.92) translate(60, -920)">					<path d="M 284 678 Q 315 669 372 681 Q 451 699 534 717 Q 574 727 579 733 Q 588 740 583 749 Q 576 759 548 766 Q 523 772 408 733 Q 272 708 271 706 C 242 698 255 685 284 678 Z" fill="black"></path>
				<path d="M 271 706 Q 258 718 236 727 Q 217 737 204 733 Q 192 726 199 713 Q 214 692 214 639 Q 213 626 212 607 Q 206 457 166 346 Q 139 268 63 146 Q 59 140 56 134 Q 53 124 64 125 Q 95 131 167 243 Q 179 264 191 286 Q 249 418 270 611 Q 273 645 284 678 C 289 693 289 693 271 706 Z" fill="black"></path>
				<path d="M 395 499 Q 423 509 554 540 Q 564 540 572 554 Q 572 564 548 573 Q 509 588 443 560 Q 431 557 420 553 Q 414 553 285 517 Q 257 510 281 496 Q 317 477 341 483 Q 347 484 355 487 L 395 499 Z" fill="black"></path>
				<path d="M 399 390 Q 415 380 454 375 Q 478 372 487 359 Q 500 332 453 208 Q 428 153 404 142 Q 391 142 352 163 Q 319 182 314 178 Q 308 171 323 157 Q 360 120 369 76 Q 373 60 383 53 Q 395 47 428 65 Q 462 89 495 161 Q 543 318 560 335 Q 570 341 572 349 Q 573 358 551 381 Q 523 408 471 407 Q 429 413 408 417 C 378 422 372 402 399 390 Z" fill="black"></path>
				<path d="M 408 417 Q 415 439 427 459 Q 434 469 428 477 Q 421 486 395 499 C 369 513 352 517 355 487 Q 377 331 163 128 Q 156 121 162 119 Q 169 118 179 122 Q 234 149 278 191 Q 353 254 399 390 L 408 417 Z" fill="red"></path>
				<path d="M 753 461 Q 793 473 836 480 Q 851 481 854 475 Q 861 459 858 416 Q 845 257 813 173 Q 797 121 779 104 Q 769 95 748 102 Q 718 115 691 127 Q 669 136 683 114 Q 723 62 743 22 Q 750 0 771 5 Q 790 6 814 34 Q 881 103 909 372 Q 916 433 938 468 Q 954 489 945 499 Q 929 517 895 531 Q 870 543 844 531 Q 807 515 761 499 L 701 483 Q 623 465 578 463 Q 559 464 559 454 Q 558 444 580 432 Q 607 416 630 425 Q 661 435 694 445 L 753 461 Z" fill="lightgray"></path>
				<path d="M 694 445 Q 649 235 508 33 Q 502 26 500 19 Q 497 7 509 10 Q 543 16 635 149 Q 654 182 673 217 Q 722 326 753 461 L 761 499 Q 791 715 795 723 Q 805 739 797 753 Q 779 772 746 787 Q 725 800 711 794 Q 698 787 705 772 Q 729 733 721 654 Q 720 645 719 633 Q 713 554 701 483 L 694 445 Z" fill="lightgray"></path>
</g>
		<text x="40" y="140" font-size="128" fill="#999999">5</text></g>
</g>
	<g id="id1:id1" transform="translate(0.0,1024)">
		<g id="id1:id0:id0" transform="matrix(1.0,0,0,1.0,0,0.0)">			<g stroke="lightgray" stroke-width="4" transform="scale(4, 4)"> <rect x="0" y="0" width="256" height="256" fill="white" stroke-width="4"/></g>
			<g transform="scale(0.92, -0.92) translate(60, -920)">					<path d="M 284 678 Q 315 669 372 681 Q 451 699 534 717 Q 574 727 579 733 Q 588 740 583 749 Q 576 759 548 766 Q 523 772 408 733 Q 272 708 271 706 C 242 698 255 685 284 678 Z" fill="black"></path>
				<path d="M 271 706 Q 258 718 236 727 Q 217 737 204 733 Q 192 726 199 713 Q 214 692 214 639 Q 213 626 212 607 Q 206 457 166 346 Q 139 268 63 146 Q 59 140 56 134 Q 53 124 64 125 Q 95 131 167 243 Q 179 264 191 286 Q 249 418 270 611 Q 273 645 284 678 C 289 693 289 693 271 706 Z" fill="black"></path>
				<path d="M 395 499 Q 423 509 554 540 Q 564 540 572 554 Q 572 564 548 573 Q 509 588 443 560 Q 431 557 420 553 Q 414 553 285 517 Q 257 510 281 496 Q 317 477 341 483 Q 347 484 355 487 L 395 499 Z" fill="black"></path>
				<path d="M 399 390 Q 415 380 454 375 Q 478 372 487 359 Q 500 332 453 208 Q 428 153 404 142 Q 391 142 352 163 Q 319 182 314 178 Q 308 171 323 157 Q 360 120 369 76 Q 373 60 383 53 Q 395 47 428 65 Q 462 89 495 161 Q 543 318 560 335 Q 570 341 572 349 Q 573 358 551 381 Q 523 408 471 407 Q 429 413 408 417 C 378 422 372 402 399 390 Z" fill="black"></path>
				<path d="M 408 417 Q 415 439 427 459 Q 434 469 428 477 Q 421 486 395 499 C 369 513 352 517 355 487 Q 377 331 163 128 Q 156 121 162 119 Q 169 118 179 122 Q 234 149 278 191 Q 353 254 399 390 L 408 417 Z" fill="black"></path>
				<path d="M 753 461 Q 793 473 836 480 Q 851 481 854 475 Q 861 459 858 416 Q 845 257 813 173 Q 797 121 779 104 Q 769 95 748 102 Q 718 115 691 127 Q 669 136 683 114 Q 723 62 743 22 Q 750 0 771 5 Q 790 6 814 34 Q 881 103 909 372 Q 916 433 938 468 Q 954 489 945 499 Q 929 517 895 531 Q 870 543 844 531 Q 807 515 761 499 L 701 483 Q 623 465 578 463 Q 559 464 559 454 Q 558 444 580 432 Q 607 416 630 425 Q 661 435 694 445 L 753 461 Z" fill="red"></path>
				<path d="M 694 445 Q 649 235 508 33 Q 502 26 500 19 Q 497 7 509 10 Q 543 16 635 149 Q 654 182 673 217 Q 722 326 753 461 L 761 499 Q 791 715 795 723 Q 805 739 797 753 Q 779 772 746 787 Q 725 800 711 794 Q 698 787 705 772 Q 729 733 721 654 Q 720 645 719 633 Q 713 554 701 483 L 694 445 Z" fill="lightgray"></path>
</g>
		<text x="40" y="140" font-size="128" fill="#999999">6</text></g>
		<g id="id1:id1:id1" transform="matrix(1.0,0,0,1.0,1024,0.0)">			<g stroke="lightgray" stroke-width="4" transform="scale(4, 4)"> <rect x="0" y="0" width="256" height="256" fill="white" stroke-width="4"/></g>
			<g transform="scale(0.92, -0.92) translate(60, -920)">					<path d="M 284 678 Q 315 669 372 681 Q 451 699 534 717 Q 574 727 579 733 Q 588 740 583 749 Q 576 759 548 766 Q 523 772 408 733 Q 272 708 271 706 C 242 698 255 685 284 678 Z" fill="black"></path>
				<path d="M 271 706 Q 258 718 236 727 Q 217 737 204 733 Q 192 726 199 713 Q 214 692 214 639 Q 213 626 212 607 Q 206 457 166 346 Q 139 268 63 146 Q 59 140 56 134 Q 53 124 64 125 Q 95 131 167 243 Q 179 264 191 286 Q 249 418 270 611 Q 273 645 284 678 C 289 693 289 693 271 706 Z" fill="black"></path>
				<path d="M 395 499 Q 423 509 554 540 Q 564 540 572 554 Q 572 564 548 573 Q 509 588 443 560 Q 431 557 420 553 Q 414 553 285 517 Q 257 510 281 496 Q 317 477 341 483 Q 347 484 355 487 L 395 499 Z" fill="black"></path>
				<path d="M 399 390 Q 415 380 454 375 Q 478 372 487 359 Q 500 332 453 208 Q 428 153 404 142 Q 391 142 352 163 Q 319 182 314 178 Q 308 171 323 157 Q 360 120 369 76 Q 373 60 383 53 Q 395 47 428 65 Q 462 89 495 161 Q 543 318 560 335 Q 570 341 572 349 Q 573 358 551 381 Q 523 408 471 407 Q 429 413 408 417 C 378 422 372 402 399 390 Z" fill="black"></path>
				<path d="M 408 417 Q 415 439 427 459 Q 434 469 428 477 Q 421 486 395 499 C 369 513 352 517 355 487 Q 377 331 163 128 Q 156 121 162 119 Q 169 118 179 122 Q 234 149 278 191 Q 353 254 399 390 L 408 417 Z" fill="black"></path>
				<path d="M 753 461 Q 793 473 836 480 Q 851 481 854 475 Q 861 459 858 416 Q 845 257 813 173 Q 797 121 779 104 Q 769 95 748 102 Q 718 115 691 127 Q 669 136 683 114 Q 723 62 743 22 Q 750 0 771 5 Q 790 6 814 34 Q 881 103 909 372 Q 916 433 938 468 Q 954 489 945 499 Q 929 517 895 531 Q 870 543 844 531 Q 807 515 761 499 L 701 483 Q 623 465 578 463 Q 559 464 559 454 Q 558 444 580 432 Q 607 416 630 425 Q 661 435 694 445 L 753 461 Z" fill="black"></path>
				<path d="M 694 445 Q 649 235 508 33 Q 502 26 500 19 Q 497 7 509 10 Q 543 16 635 149 Q 654 182 673 217 Q 722 326 753 461 L 761 499 Q 791 715 795 723 Q 805 739 797 753 Q 779 772 746 787 Q 725 800 711 794 Q 698 787 705 772 Q 729 733 721 654 Q 720 645 719 633 Q 713 554 701 483 L 694 445 Z" fill="red"></path>
</g>
		<text x="40" y="140" font-size="128" fill="#999999">7</text></g>
		<g id="id1:id2:id2" transform="matrix(1.0,0,0,1.0,2048,0.0)">			<g stroke="white" stroke-width="4" transform="scale(4, 4)"> <rect x="1" y="1" width="255" height="255" fill="white" stroke-width="0"/></g>
</g>
		<g id="id1:id3:id3" transform="matrix(1.0,0,0,1.0,3072,0.0)">			<g stroke="white" stroke-width="4" transform="scale(4, 4)"> <rect x="1" y="1" width="255" height="255" fill="white" stroke-width="0"/></g>
</g>
		<g id="id1:id4:id4" transform="matrix(1.0,0,0,1.0,4096,0.0)">			<g stroke="white" stroke-width="4" transform="scale(4, 4)"> <rect x="1" y="1" width="255" height="255" fill="white" stroke-width="0"/></g>
</g>
</g>
</svg>
