<?xml version="1.0" standalone="no"?>
<!DOCTYPE svg PUBLIC "-//W3C//DTD SVG 1.1//EN"
 "http://www.w3.org/Graphics/SVG/1.1/DTD/svg11.dtd">
<!-- generate by Japanese dictionary app com.asnsami.kanjidictionary -->

<svg xmlns="http://www.w3.org/2000/svg" xmlns:sodipodi="http://sodipodi.sourceforge.net/DTD/sodipodi-0.dtd" version="1.1" width="640" height="128" viewBox="0 0 5120 1024">
	<g id="id0:id0" transform="translate(0.0,0)">
		<g id="id0:id0:id0" transform="matrix(1.0,0,0,1.0,0,0.0)">			<g stroke="lightgray" stroke-width="4" transform="scale(4, 4)"> <rect x="0" y="0" width="256" height="256" fill="white" stroke-width="4"/></g>
			<g transform="scale(0.92, -0.92) translate(60, -920)">					<path d="M 377 577 Q 407 619 429 662 Q 462 726 493 777 Q 505 793 487 808 Q 436 845 406 840 Q 393 836 397 819 Q 418 698 284 531 Q 241 489 213 450 Q 204 432 221 438 Q 269 450 356 550 L 377 577 Z" fill="red"></path>
				<path d="M 356 550 Q 395 535 425 544 Q 467 560 660 600 Q 693 606 706 592 Q 725 568 722 516 Q 718 351 698 245 Q 662 80 628 63 Q 619 60 516 89 Q 501 96 498 89 Q 494 82 512 67 Q 564 21 591 -22 Q 610 -53 629 -49 Q 645 -46 669 -18 Q 702 19 728 92 Q 756 179 786 468 Q 793 543 814 567 Q 833 589 809 608 Q 734 659 694 647 Q 538 601 377 577 C 347 572 327 557 356 550 Z" fill="lightgray"></path>
				<path d="M 349 364 Q 374 330 400 291 Q 410 273 428 270 Q 440 269 449 281 Q 458 296 455 330 Q 452 369 356 417 Q 340 424 333 423 Q 326 420 325 406 Q 326 393 349 364 Z" fill="lightgray"></path>
</g>
		<text x="40" y="140" font-size="128" fill="#999999">1</text></g>
		<g id="id0:id1:id1" transform="matrix(1.0,0,0,1.0,1024,0.0)">			<g stroke="lightgray" stroke-width="4" transform="scale(4, 4)"> <rect x="0" y="0" width="256" height="256" fill="white" stroke-width="4"/></g>
			<g transform="scale(0.92, -0.92) translate(60, -920)">					<path d="M 377 577 Q 407 619 429 662 Q 462 726 493 777 Q 505 793 487 808 Q 436 845 406 840 Q 393 836 397 819 Q 418 698 284 531 Q 241 489 213 450 Q 204 432 221 438 Q 269 450 356 550 L 377 577 Z" fill="black"></path>
				<path d="M 356 550 Q 395 535 425 544 Q 467 560 660 600 Q 693 606 706 592 Q 725 568 722 516 Q 718 351 698 245 Q 662 80 628 63 Q 619 60 516 89 Q 501 96 498 89 Q 494 82 512 67 Q 564 21 591 -22 Q 610 -53 629 -49 Q 645 -46 669 -18 Q 702 19 728 92 Q 756 179 786 468 Q 793 543 814 567 Q 833 589 809 608 Q 734 659 694 647 Q 538 601 377 577 C 347 572 327 557 356 550 Z" fill="red"></path>
				<path d="M 349 364 Q 374 330 400 291 Q 410 273 428 270 Q 440 269 449 281 Q 458 296 455 330 Q 452 369 356 417 Q 340 424 333 423 Q 326 420 325 406 Q 326 393 349 364 Z" fill="lightgray"></path>
</g>
		<text x="40" y="140" font-size="128" fill="#999999">2</text></g>
		<g id="id0:id2:id2" transform="matrix(1.0,0,0,1.0,2048,0.0)">			<g stroke="lightgray" stroke-width="4" transform="scale(4, 4)"> <rect x="0" y="0" width="256" height="256" fill="white" stroke-width="4"/></g>
			<g transform="scale(0.92, -0.92) translate(60, -920)">					<path d="M 377 577 Q 407 619 429 662 Q 462 726 493 777 Q 505 793 487 808 Q 436 845 406 840 Q 393 836 397 819 Q 418 698 284 531 Q 241 489 213 450 Q 204 432 221 438 Q 269 450 356 550 L 377 577 Z" fill="black"></path>
				<path d="M 356 550 Q 395 535 425 544 Q 467 560 660 600 Q 693 606 706 592 Q 725 568 722 516 Q 718 351 698 245 Q 662 80 628 63 Q 619 60 516 89 Q 501 96 498 89 Q 494 82 512 67 Q 564 21 591 -22 Q 610 -53 629 -49 Q 645 -46 669 -18 Q 702 19 728 92 Q 756 179 786 468 Q 793 543 814 567 Q 833 589 809 608 Q 734 659 694 647 Q 538 601 377 577 C 347 572 327 557 356 550 Z" fill="black"></path>
				<path d="M 349 364 Q 374 330 400 291 Q 410 273 428 270 Q 440 269 449 281 Q 458 296 455 330 Q 452 369 356 417 Q 340 424 333 423 Q 326 420 325 406 Q 326 393 349 364 Z" fill="red"></path>
</g>
		<text x="40" y="140" font-size="128" fill="#999999">3</text></g>
		<g id="id0:id3:id3" transform="matrix(1.0,0,0,1.0,3072,0.0)">			<g stroke="white" stroke-width="4" transform="scale(4, 4)"> <rect x="1" y="1" width="255" height="255" fill="white" stroke-width="0"/></g>
</g>
		<g id="id0:id4:id4" transform="matrix(1.0,0,0,1.0,4096,0.0)">			<g stroke="white" stroke-width="4" transform="scale(4, 4)"> <rect x="1" y="1" width="255" height="255" fill="white" stroke-width="0"/></g>
</g>
</g>
</svg>
