<?xml version="1.0" standalone="no"?>
<!DOCTYPE svg PUBLIC "-//W3C//DTD SVG 1.1//EN"
 "http://www.w3.org/Graphics/SVG/1.1/DTD/svg11.dtd">
<!-- generate by Handict dictionary app com.asnsami.handict -->

<svg xmlns="http://www.w3.org/2000/svg" xmlns:sodipodi="http://sodipodi.sourceforge.net/DTD/sodipodi-0.dtd" version="1.1" width="640" height="128" viewBox="0 0 5120 1024">
	<g id="id0:id0" transform="translate(0.0,0)">
		<g id="id0:id0:id0" transform="matrix(1.0,0,0,1.0,0,0.0)">			<g stroke="lightgray" stroke-width="4" transform="scale(4, 4)"> <rect x="0" y="0" width="256" height="256" fill="white" stroke-width="4"/></g>
			<g transform="scale(0.92, -0.92) translate(60, -920)">					<path d="M 304 711 Q 343 690 391 697 Q 551 713 716 732 Q 792 742 804 751 Q 814 758 810 768 Q 804 781 775 791 Q 745 800 713 791 Q 524 743 306 740 Q 296 740 294 738 C 264 734 277 724 304 711 Z" fill="red"></path>
				<path d="M 402 519 Q 380 537 368 539 Q 364 542 359 536 Q 355 532 358 520 Q 385 460 363 314 Q 359 295 366 277 Q 375 259 389 249 Q 399 240 402 250 Q 409 253 411 271 Q 415 287 414 344 Q 414 479 420 485 C 424 502 424 502 402 519 Z" fill="lightgray"></path>
				<path d="M 575 513 Q 618 522 661 525 Q 692 529 695 509 Q 707 356 689 336 Q 680 330 631 334 Q 607 341 605 333 Q 602 327 614 319 Q 669 285 703 257 Q 718 245 729 259 Q 751 293 753 363 Q 747 471 755 517 Q 758 536 748 546 Q 721 568 702 579 Q 690 585 681 575 Q 674 566 576 545 L 525 536 Q 479 530 402 519 C 372 515 390 480 420 485 Q 424 485 431 486 Q 477 498 525 505 L 575 513 Z" fill="lightgray"></path>
				<path d="M 528 170 Q 532 148 539 139 Q 543 132 551 134 Q 563 143 570 196 Q 570 212 575 513 L 576 545 Q 576 590 586 635 Q 589 651 576 660 Q 546 679 532 682 Q 520 686 506 678 Q 499 671 504 661 Q 523 628 524 564 Q 524 551 525 536 L 525 505 Q 525 196 528 170 Z" fill="lightgray"></path>
				<path d="M 294 738 Q 251 763 232 763 Q 219 766 210 758 Q 200 751 215 733 Q 243 697 232 322 Q 217 97 185 69 Q 163 51 176 33 Q 182 15 197 3 Q 212 -9 235 6 Q 314 67 727 57 Q 811 56 852 48 Q 877 44 890 50 Q 902 57 902 64 Q 901 79 867 102 Q 833 123 812 122 Q 767 121 418 87 Q 283 68 274 82 Q 265 91 274 227 Q 274 371 295 633 Q 298 690 303 707 Q 304 710 304 711 C 307 731 307 731 294 738 Z" fill="lightgray"></path>
</g>
		<text x="40" y="140" font-size="128" fill="#999999">1</text></g>
		<g id="id0:id1:id1" transform="matrix(1.0,0,0,1.0,1024,0.0)">			<g stroke="lightgray" stroke-width="4" transform="scale(4, 4)"> <rect x="0" y="0" width="256" height="256" fill="white" stroke-width="4"/></g>
			<g transform="scale(0.92, -0.92) translate(60, -920)">					<path d="M 304 711 Q 343 690 391 697 Q 551 713 716 732 Q 792 742 804 751 Q 814 758 810 768 Q 804 781 775 791 Q 745 800 713 791 Q 524 743 306 740 Q 296 740 294 738 C 264 734 277 724 304 711 Z" fill="black"></path>
				<path d="M 402 519 Q 380 537 368 539 Q 364 542 359 536 Q 355 532 358 520 Q 385 460 363 314 Q 359 295 366 277 Q 375 259 389 249 Q 399 240 402 250 Q 409 253 411 271 Q 415 287 414 344 Q 414 479 420 485 C 424 502 424 502 402 519 Z" fill="red"></path>
				<path d="M 575 513 Q 618 522 661 525 Q 692 529 695 509 Q 707 356 689 336 Q 680 330 631 334 Q 607 341 605 333 Q 602 327 614 319 Q 669 285 703 257 Q 718 245 729 259 Q 751 293 753 363 Q 747 471 755 517 Q 758 536 748 546 Q 721 568 702 579 Q 690 585 681 575 Q 674 566 576 545 L 525 536 Q 479 530 402 519 C 372 515 390 480 420 485 Q 424 485 431 486 Q 477 498 525 505 L 575 513 Z" fill="lightgray"></path>
				<path d="M 528 170 Q 532 148 539 139 Q 543 132 551 134 Q 563 143 570 196 Q 570 212 575 513 L 576 545 Q 576 590 586 635 Q 589 651 576 660 Q 546 679 532 682 Q 520 686 506 678 Q 499 671 504 661 Q 523 628 524 564 Q 524 551 525 536 L 525 505 Q 525 196 528 170 Z" fill="lightgray"></path>
				<path d="M 294 738 Q 251 763 232 763 Q 219 766 210 758 Q 200 751 215 733 Q 243 697 232 322 Q 217 97 185 69 Q 163 51 176 33 Q 182 15 197 3 Q 212 -9 235 6 Q 314 67 727 57 Q 811 56 852 48 Q 877 44 890 50 Q 902 57 902 64 Q 901 79 867 102 Q 833 123 812 122 Q 767 121 418 87 Q 283 68 274 82 Q 265 91 274 227 Q 274 371 295 633 Q 298 690 303 707 Q 304 710 304 711 C 307 731 307 731 294 738 Z" fill="lightgray"></path>
</g>
		<text x="40" y="140" font-size="128" fill="#999999">2</text></g>
		<g id="id0:id2:id2" transform="matrix(1.0,0,0,1.0,2048,0.0)">			<g stroke="lightgray" stroke-width="4" transform="scale(4, 4)"> <rect x="0" y="0" width="256" height="256" fill="white" stroke-width="4"/></g>
			<g transform="scale(0.92, -0.92) translate(60, -920)">					<path d="M 304 711 Q 343 690 391 697 Q 551 713 716 732 Q 792 742 804 751 Q 814 758 810 768 Q 804 781 775 791 Q 745 800 713 791 Q 524 743 306 740 Q 296 740 294 738 C 264 734 277 724 304 711 Z" fill="black"></path>
				<path d="M 402 519 Q 380 537 368 539 Q 364 542 359 536 Q 355 532 358 520 Q 385 460 363 314 Q 359 295 366 277 Q 375 259 389 249 Q 399 240 402 250 Q 409 253 411 271 Q 415 287 414 344 Q 414 479 420 485 C 424 502 424 502 402 519 Z" fill="black"></path>
				<path d="M 575 513 Q 618 522 661 525 Q 692 529 695 509 Q 707 356 689 336 Q 680 330 631 334 Q 607 341 605 333 Q 602 327 614 319 Q 669 285 703 257 Q 718 245 729 259 Q 751 293 753 363 Q 747 471 755 517 Q 758 536 748 546 Q 721 568 702 579 Q 690 585 681 575 Q 674 566 576 545 L 525 536 Q 479 530 402 519 C 372 515 390 480 420 485 Q 424 485 431 486 Q 477 498 525 505 L 575 513 Z" fill="red"></path>
				<path d="M 528 170 Q 532 148 539 139 Q 543 132 551 134 Q 563 143 570 196 Q 570 212 575 513 L 576 545 Q 576 590 586 635 Q 589 651 576 660 Q 546 679 532 682 Q 520 686 506 678 Q 499 671 504 661 Q 523 628 524 564 Q 524 551 525 536 L 525 505 Q 525 196 528 170 Z" fill="lightgray"></path>
				<path d="M 294 738 Q 251 763 232 763 Q 219 766 210 758 Q 200 751 215 733 Q 243 697 232 322 Q 217 97 185 69 Q 163 51 176 33 Q 182 15 197 3 Q 212 -9 235 6 Q 314 67 727 57 Q 811 56 852 48 Q 877 44 890 50 Q 902 57 902 64 Q 901 79 867 102 Q 833 123 812 122 Q 767 121 418 87 Q 283 68 274 82 Q 265 91 274 227 Q 274 371 295 633 Q 298 690 303 707 Q 304 710 304 711 C 307 731 307 731 294 738 Z" fill="lightgray"></path>
</g>
		<text x="40" y="140" font-size="128" fill="#999999">3</text></g>
		<g id="id0:id3:id3" transform="matrix(1.0,0,0,1.0,3072,0.0)">			<g stroke="lightgray" stroke-width="4" transform="scale(4, 4)"> <rect x="0" y="0" width="256" height="256" fill="white" stroke-width="4"/></g>
			<g transform="scale(0.92, -0.92) translate(60, -920)">					<path d="M 304 711 Q 343 690 391 697 Q 551 713 716 732 Q 792 742 804 751 Q 814 758 810 768 Q 804 781 775 791 Q 745 800 713 791 Q 524 743 306 740 Q 296 740 294 738 C 264 734 277 724 304 711 Z" fill="black"></path>
				<path d="M 402 519 Q 380 537 368 539 Q 364 542 359 536 Q 355 532 358 520 Q 385 460 363 314 Q 359 295 366 277 Q 375 259 389 249 Q 399 240 402 250 Q 409 253 411 271 Q 415 287 414 344 Q 414 479 420 485 C 424 502 424 502 402 519 Z" fill="black"></path>
				<path d="M 575 513 Q 618 522 661 525 Q 692 529 695 509 Q 707 356 689 336 Q 680 330 631 334 Q 607 341 605 333 Q 602 327 614 319 Q 669 285 703 257 Q 718 245 729 259 Q 751 293 753 363 Q 747 471 755 517 Q 758 536 748 546 Q 721 568 702 579 Q 690 585 681 575 Q 674 566 576 545 L 525 536 Q 479 530 402 519 C 372 515 390 480 420 485 Q 424 485 431 486 Q 477 498 525 505 L 575 513 Z" fill="black"></path>
				<path d="M 528 170 Q 532 148 539 139 Q 543 132 551 134 Q 563 143 570 196 Q 570 212 575 513 L 576 545 Q 576 590 586 635 Q 589 651 576 660 Q 546 679 532 682 Q 520 686 506 678 Q 499 671 504 661 Q 523 628 524 564 Q 524 551 525 536 L 525 505 Q 525 196 528 170 Z" fill="red"></path>
				<path d="M 294 738 Q 251 763 232 763 Q 219 766 210 758 Q 200 751 215 733 Q 243 697 232 322 Q 217 97 185 69 Q 163 51 176 33 Q 182 15 197 3 Q 212 -9 235 6 Q 314 67 727 57 Q 811 56 852 48 Q 877 44 890 50 Q 902 57 902 64 Q 901 79 867 102 Q 833 123 812 122 Q 767 121 418 87 Q 283 68 274 82 Q 265 91 274 227 Q 274 371 295 633 Q 298 690 303 707 Q 304 710 304 711 C 307 731 307 731 294 738 Z" fill="lightgray"></path>
</g>
		<text x="40" y="140" font-size="128" fill="#999999">4</text></g>
		<g id="id0:id4:id4" transform="matrix(1.0,0,0,1.0,4096,0.0)">			<g stroke="lightgray" stroke-width="4" transform="scale(4, 4)"> <rect x="0" y="0" width="256" height="256" fill="white" stroke-width="4"/></g>
			<g transform="scale(0.92, -0.92) translate(60, -920)">					<path d="M 304 711 Q 343 690 391 697 Q 551 713 716 732 Q 792 742 804 751 Q 814 758 810 768 Q 804 781 775 791 Q 745 800 713 791 Q 524 743 306 740 Q 296 740 294 738 C 264 734 277 724 304 711 Z" fill="black"></path>
				<path d="M 402 519 Q 380 537 368 539 Q 364 542 359 536 Q 355 532 358 520 Q 385 460 363 314 Q 359 295 366 277 Q 375 259 389 249 Q 399 240 402 250 Q 409 253 411 271 Q 415 287 414 344 Q 414 479 420 485 C 424 502 424 502 402 519 Z" fill="black"></path>
				<path d="M 575 513 Q 618 522 661 525 Q 692 529 695 509 Q 707 356 689 336 Q 680 330 631 334 Q 607 341 605 333 Q 602 327 614 319 Q 669 285 703 257 Q 718 245 729 259 Q 751 293 753 363 Q 747 471 755 517 Q 758 536 748 546 Q 721 568 702 579 Q 690 585 681 575 Q 674 566 576 545 L 525 536 Q 479 530 402 519 C 372 515 390 480 420 485 Q 424 485 431 486 Q 477 498 525 505 L 575 513 Z" fill="black"></path>
				<path d="M 528 170 Q 532 148 539 139 Q 543 132 551 134 Q 563 143 570 196 Q 570 212 575 513 L 576 545 Q 576 590 586 635 Q 589 651 576 660 Q 546 679 532 682 Q 520 686 506 678 Q 499 671 504 661 Q 523 628 524 564 Q 524 551 525 536 L 525 505 Q 525 196 528 170 Z" fill="black"></path>
				<path d="M 294 738 Q 251 763 232 763 Q 219 766 210 758 Q 200 751 215 733 Q 243 697 232 322 Q 217 97 185 69 Q 163 51 176 33 Q 182 15 197 3 Q 212 -9 235 6 Q 314 67 727 57 Q 811 56 852 48 Q 877 44 890 50 Q 902 57 902 64 Q 901 79 867 102 Q 833 123 812 122 Q 767 121 418 87 Q 283 68 274 82 Q 265 91 274 227 Q 274 371 295 633 Q 298 690 303 707 Q 304 710 304 711 C 307 731 307 731 294 738 Z" fill="red"></path>
</g>
		<text x="40" y="140" font-size="128" fill="#999999">5</text></g>
</g>
</svg>
