<?xml version="1.0" standalone="no"?>
<!DOCTYPE svg PUBLIC "-//W3C//DTD SVG 1.1//EN"
 "http://www.w3.org/Graphics/SVG/1.1/DTD/svg11.dtd">
<!-- generate by Handict dictionary app com.asnsami.handict -->

<svg xmlns="http://www.w3.org/2000/svg" xmlns:sodipodi="http://sodipodi.sourceforge.net/DTD/sodipodi-0.dtd" version="1.1" width="640" height="128" viewBox="0 0 5120 1024">
	<g id="id0:id0" transform="translate(0.0,0)">
		<g id="id0:id0:id0" transform="matrix(1.0,0,0,1.0,0,0.0)">			<g stroke="lightgray" stroke-width="4" transform="scale(4, 4)"> <rect x="0" y="0" width="256" height="256" fill="white" stroke-width="4"/></g>
			<g transform="scale(0.92, -0.92) translate(60, -920)">					<path d="M 510 708 Q 627 756 678 763 Q 697 763 701 771 Q 705 783 693 795 Q 671 813 625 833 Q 609 843 595 841 Q 586 838 586 826 Q 585 810 570 800 Q 542 778 480 747 Q 401 705 282 661 Q 275 651 282 648 Q 298 644 433 685 Q 445 689 460 692 L 510 708 Z" fill="red"></path>
				<path d="M 545 441 Q 734 459 839 451 Q 912 448 918 453 Q 925 466 913 479 Q 882 507 837 528 Q 825 534 722 512 Q 719 512 545 489 L 489 482 Q 485 483 301 461 Q 234 451 133 450 Q 118 450 117 438 Q 117 425 136 410 Q 175 380 225 392 Q 270 405 392 424 Q 437 431 489 436 L 545 441 Z" fill="lightgray"></path>
				<path d="M 488 9 Q 494 -19 501 -29 Q 507 -36 515 -34 Q 531 -25 538 40 Q 548 125 546 211 Q 542 266 545 441 L 545 489 Q 545 597 559 658 Q 563 677 547 687 Q 526 702 510 708 C 483 721 444 718 460 692 Q 461 691 463 689 Q 467 679 475 668 Q 488 643 489 606 Q 490 551 489 482 L 489 436 Q 483 49 488 9 Z" fill="lightgray"></path>
</g>
		<text x="40" y="140" font-size="128" fill="#999999">1</text></g>
		<g id="id0:id1:id1" transform="matrix(1.0,0,0,1.0,1024,0.0)">			<g stroke="lightgray" stroke-width="4" transform="scale(4, 4)"> <rect x="0" y="0" width="256" height="256" fill="white" stroke-width="4"/></g>
			<g transform="scale(0.92, -0.92) translate(60, -920)">					<path d="M 510 708 Q 627 756 678 763 Q 697 763 701 771 Q 705 783 693 795 Q 671 813 625 833 Q 609 843 595 841 Q 586 838 586 826 Q 585 810 570 800 Q 542 778 480 747 Q 401 705 282 661 Q 275 651 282 648 Q 298 644 433 685 Q 445 689 460 692 L 510 708 Z" fill="black"></path>
				<path d="M 545 441 Q 734 459 839 451 Q 912 448 918 453 Q 925 466 913 479 Q 882 507 837 528 Q 825 534 722 512 Q 719 512 545 489 L 489 482 Q 485 483 301 461 Q 234 451 133 450 Q 118 450 117 438 Q 117 425 136 410 Q 175 380 225 392 Q 270 405 392 424 Q 437 431 489 436 L 545 441 Z" fill="red"></path>
				<path d="M 488 9 Q 494 -19 501 -29 Q 507 -36 515 -34 Q 531 -25 538 40 Q 548 125 546 211 Q 542 266 545 441 L 545 489 Q 545 597 559 658 Q 563 677 547 687 Q 526 702 510 708 C 483 721 444 718 460 692 Q 461 691 463 689 Q 467 679 475 668 Q 488 643 489 606 Q 490 551 489 482 L 489 436 Q 483 49 488 9 Z" fill="lightgray"></path>
</g>
		<text x="40" y="140" font-size="128" fill="#999999">2</text></g>
		<g id="id0:id2:id2" transform="matrix(1.0,0,0,1.0,2048,0.0)">			<g stroke="lightgray" stroke-width="4" transform="scale(4, 4)"> <rect x="0" y="0" width="256" height="256" fill="white" stroke-width="4"/></g>
			<g transform="scale(0.92, -0.92) translate(60, -920)">					<path d="M 510 708 Q 627 756 678 763 Q 697 763 701 771 Q 705 783 693 795 Q 671 813 625 833 Q 609 843 595 841 Q 586 838 586 826 Q 585 810 570 800 Q 542 778 480 747 Q 401 705 282 661 Q 275 651 282 648 Q 298 644 433 685 Q 445 689 460 692 L 510 708 Z" fill="black"></path>
				<path d="M 545 441 Q 734 459 839 451 Q 912 448 918 453 Q 925 466 913 479 Q 882 507 837 528 Q 825 534 722 512 Q 719 512 545 489 L 489 482 Q 485 483 301 461 Q 234 451 133 450 Q 118 450 117 438 Q 117 425 136 410 Q 175 380 225 392 Q 270 405 392 424 Q 437 431 489 436 L 545 441 Z" fill="black"></path>
				<path d="M 488 9 Q 494 -19 501 -29 Q 507 -36 515 -34 Q 531 -25 538 40 Q 548 125 546 211 Q 542 266 545 441 L 545 489 Q 545 597 559 658 Q 563 677 547 687 Q 526 702 510 708 C 483 721 444 718 460 692 Q 461 691 463 689 Q 467 679 475 668 Q 488 643 489 606 Q 490 551 489 482 L 489 436 Q 483 49 488 9 Z" fill="red"></path>
</g>
		<text x="40" y="140" font-size="128" fill="#999999">3</text></g>
		<g id="id0:id3:id3" transform="matrix(1.0,0,0,1.0,3072,0.0)">			<g stroke="white" stroke-width="4" transform="scale(4, 4)"> <rect x="1" y="1" width="255" height="255" fill="white" stroke-width="0"/></g>
</g>
		<g id="id0:id4:id4" transform="matrix(1.0,0,0,1.0,4096,0.0)">			<g stroke="white" stroke-width="4" transform="scale(4, 4)"> <rect x="1" y="1" width="255" height="255" fill="white" stroke-width="0"/></g>
</g>
</g>
</svg>
