<?xml version="1.0" standalone="no"?>
<!DOCTYPE svg PUBLIC "-//W3C//DTD SVG 1.1//EN"
 "http://www.w3.org/Graphics/SVG/1.1/DTD/svg11.dtd">
<!-- generate by Japanese dictionary app com.asnsami.kanjidictionary -->

<svg xmlns="http://www.w3.org/2000/svg" xmlns:sodipodi="http://sodipodi.sourceforge.net/DTD/sodipodi-0.dtd" version="1.1" width="640" height="128" viewBox="0 0 5120 1024">
	<g id="id0:id0" transform="translate(0.0,0)">
		<g id="id0:id0:id0" transform="matrix(1.0,0,0,1.0,0,0.0)">			<g stroke="lightgray" stroke-width="4" transform="scale(4, 4)"> <rect x="0" y="0" width="256" height="256" fill="white" stroke-width="4"/></g>
			<g transform="scale(0.92, -0.92) translate(60, -920)">					<path d="M 529 543 Q 535 601 540 655 L 543 686 Q 543 726 561 775 Q 565 785 545 801 Q 511 820 488 824 Q 472 827 464 819 Q 457 812 464 797 Q 480 775 481 759 Q 490 656 488 535 C 488 505 526 513 529 543 Z" fill="red"></path>
				<path d="M 540 655 Q 571 646 663 665 Q 685 671 709 675 Q 728 679 732 683 Q 741 692 736 700 Q 729 712 698 718 Q 667 722 636 709 Q 597 697 543 686 C 514 680 511 662 540 655 Z" fill="lightgray"></path>
				<path d="M 700 401 Q 727 476 759 497 Q 778 516 762 536 Q 693 593 649 580 Q 586 558 529 543 L 488 535 Q 424 525 359 517 C 329 513 343 476 372 482 Q 633 536 651 526 Q 654 525 657 521 Q 664 514 663 496 Q 656 448 645 409 C 637 380 689 373 700 401 Z" fill="lightgray"></path>
				<path d="M 350 333 Q 372 327 385 328 Q 488 349 713 362 Q 725 363 727 373 Q 727 382 700 401 L 645 409 Q 644 410 641 409 Q 482 376 355 365 C 325 362 321 340 350 333 Z" fill="lightgray"></path>
				<path d="M 359 517 Q 308 545 292 544 Q 270 541 286 516 Q 310 470 282 261 Q 270 209 240 149 Q 209 82 126 13 Q 110 0 106 -6 Q 103 -13 116 -14 Q 155 -17 229 52 Q 316 137 350 333 L 355 365 Q 359 405 365 449 Q 369 471 372 482 C 378 507 378 507 359 517 Z" fill="lightgray"></path>
</g>
		<text x="40" y="140" font-size="128" fill="#999999">1</text></g>
		<g id="id0:id1:id1" transform="matrix(1.0,0,0,1.0,1024,0.0)">			<g stroke="lightgray" stroke-width="4" transform="scale(4, 4)"> <rect x="0" y="0" width="256" height="256" fill="white" stroke-width="4"/></g>
			<g transform="scale(0.92, -0.92) translate(60, -920)">					<path d="M 529 543 Q 535 601 540 655 L 543 686 Q 543 726 561 775 Q 565 785 545 801 Q 511 820 488 824 Q 472 827 464 819 Q 457 812 464 797 Q 480 775 481 759 Q 490 656 488 535 C 488 505 526 513 529 543 Z" fill="black"></path>
				<path d="M 540 655 Q 571 646 663 665 Q 685 671 709 675 Q 728 679 732 683 Q 741 692 736 700 Q 729 712 698 718 Q 667 722 636 709 Q 597 697 543 686 C 514 680 511 662 540 655 Z" fill="red"></path>
				<path d="M 700 401 Q 727 476 759 497 Q 778 516 762 536 Q 693 593 649 580 Q 586 558 529 543 L 488 535 Q 424 525 359 517 C 329 513 343 476 372 482 Q 633 536 651 526 Q 654 525 657 521 Q 664 514 663 496 Q 656 448 645 409 C 637 380 689 373 700 401 Z" fill="lightgray"></path>
				<path d="M 350 333 Q 372 327 385 328 Q 488 349 713 362 Q 725 363 727 373 Q 727 382 700 401 L 645 409 Q 644 410 641 409 Q 482 376 355 365 C 325 362 321 340 350 333 Z" fill="lightgray"></path>
				<path d="M 359 517 Q 308 545 292 544 Q 270 541 286 516 Q 310 470 282 261 Q 270 209 240 149 Q 209 82 126 13 Q 110 0 106 -6 Q 103 -13 116 -14 Q 155 -17 229 52 Q 316 137 350 333 L 355 365 Q 359 405 365 449 Q 369 471 372 482 C 378 507 378 507 359 517 Z" fill="lightgray"></path>
</g>
		<text x="40" y="140" font-size="128" fill="#999999">2</text></g>
		<g id="id0:id2:id2" transform="matrix(1.0,0,0,1.0,2048,0.0)">			<g stroke="lightgray" stroke-width="4" transform="scale(4, 4)"> <rect x="0" y="0" width="256" height="256" fill="white" stroke-width="4"/></g>
			<g transform="scale(0.92, -0.92) translate(60, -920)">					<path d="M 529 543 Q 535 601 540 655 L 543 686 Q 543 726 561 775 Q 565 785 545 801 Q 511 820 488 824 Q 472 827 464 819 Q 457 812 464 797 Q 480 775 481 759 Q 490 656 488 535 C 488 505 526 513 529 543 Z" fill="black"></path>
				<path d="M 540 655 Q 571 646 663 665 Q 685 671 709 675 Q 728 679 732 683 Q 741 692 736 700 Q 729 712 698 718 Q 667 722 636 709 Q 597 697 543 686 C 514 680 511 662 540 655 Z" fill="black"></path>
				<path d="M 700 401 Q 727 476 759 497 Q 778 516 762 536 Q 693 593 649 580 Q 586 558 529 543 L 488 535 Q 424 525 359 517 C 329 513 343 476 372 482 Q 633 536 651 526 Q 654 525 657 521 Q 664 514 663 496 Q 656 448 645 409 C 637 380 689 373 700 401 Z" fill="red"></path>
				<path d="M 350 333 Q 372 327 385 328 Q 488 349 713 362 Q 725 363 727 373 Q 727 382 700 401 L 645 409 Q 644 410 641 409 Q 482 376 355 365 C 325 362 321 340 350 333 Z" fill="lightgray"></path>
				<path d="M 359 517 Q 308 545 292 544 Q 270 541 286 516 Q 310 470 282 261 Q 270 209 240 149 Q 209 82 126 13 Q 110 0 106 -6 Q 103 -13 116 -14 Q 155 -17 229 52 Q 316 137 350 333 L 355 365 Q 359 405 365 449 Q 369 471 372 482 C 378 507 378 507 359 517 Z" fill="lightgray"></path>
</g>
		<text x="40" y="140" font-size="128" fill="#999999">3</text></g>
		<g id="id0:id3:id3" transform="matrix(1.0,0,0,1.0,3072,0.0)">			<g stroke="lightgray" stroke-width="4" transform="scale(4, 4)"> <rect x="0" y="0" width="256" height="256" fill="white" stroke-width="4"/></g>
			<g transform="scale(0.92, -0.92) translate(60, -920)">					<path d="M 529 543 Q 535 601 540 655 L 543 686 Q 543 726 561 775 Q 565 785 545 801 Q 511 820 488 824 Q 472 827 464 819 Q 457 812 464 797 Q 480 775 481 759 Q 490 656 488 535 C 488 505 526 513 529 543 Z" fill="black"></path>
				<path d="M 540 655 Q 571 646 663 665 Q 685 671 709 675 Q 728 679 732 683 Q 741 692 736 700 Q 729 712 698 718 Q 667 722 636 709 Q 597 697 543 686 C 514 680 511 662 540 655 Z" fill="black"></path>
				<path d="M 700 401 Q 727 476 759 497 Q 778 516 762 536 Q 693 593 649 580 Q 586 558 529 543 L 488 535 Q 424 525 359 517 C 329 513 343 476 372 482 Q 633 536 651 526 Q 654 525 657 521 Q 664 514 663 496 Q 656 448 645 409 C 637 380 689 373 700 401 Z" fill="black"></path>
				<path d="M 350 333 Q 372 327 385 328 Q 488 349 713 362 Q 725 363 727 373 Q 727 382 700 401 L 645 409 Q 644 410 641 409 Q 482 376 355 365 C 325 362 321 340 350 333 Z" fill="red"></path>
				<path d="M 359 517 Q 308 545 292 544 Q 270 541 286 516 Q 310 470 282 261 Q 270 209 240 149 Q 209 82 126 13 Q 110 0 106 -6 Q 103 -13 116 -14 Q 155 -17 229 52 Q 316 137 350 333 L 355 365 Q 359 405 365 449 Q 369 471 372 482 C 378 507 378 507 359 517 Z" fill="lightgray"></path>
</g>
		<text x="40" y="140" font-size="128" fill="#999999">4</text></g>
		<g id="id0:id4:id4" transform="matrix(1.0,0,0,1.0,4096,0.0)">			<g stroke="lightgray" stroke-width="4" transform="scale(4, 4)"> <rect x="0" y="0" width="256" height="256" fill="white" stroke-width="4"/></g>
			<g transform="scale(0.92, -0.92) translate(60, -920)">					<path d="M 529 543 Q 535 601 540 655 L 543 686 Q 543 726 561 775 Q 565 785 545 801 Q 511 820 488 824 Q 472 827 464 819 Q 457 812 464 797 Q 480 775 481 759 Q 490 656 488 535 C 488 505 526 513 529 543 Z" fill="black"></path>
				<path d="M 540 655 Q 571 646 663 665 Q 685 671 709 675 Q 728 679 732 683 Q 741 692 736 700 Q 729 712 698 718 Q 667 722 636 709 Q 597 697 543 686 C 514 680 511 662 540 655 Z" fill="black"></path>
				<path d="M 700 401 Q 727 476 759 497 Q 778 516 762 536 Q 693 593 649 580 Q 586 558 529 543 L 488 535 Q 424 525 359 517 C 329 513 343 476 372 482 Q 633 536 651 526 Q 654 525 657 521 Q 664 514 663 496 Q 656 448 645 409 C 637 380 689 373 700 401 Z" fill="black"></path>
				<path d="M 350 333 Q 372 327 385 328 Q 488 349 713 362 Q 725 363 727 373 Q 727 382 700 401 L 645 409 Q 644 410 641 409 Q 482 376 355 365 C 325 362 321 340 350 333 Z" fill="black"></path>
				<path d="M 359 517 Q 308 545 292 544 Q 270 541 286 516 Q 310 470 282 261 Q 270 209 240 149 Q 209 82 126 13 Q 110 0 106 -6 Q 103 -13 116 -14 Q 155 -17 229 52 Q 316 137 350 333 L 355 365 Q 359 405 365 449 Q 369 471 372 482 C 378 507 378 507 359 517 Z" fill="red"></path>
</g>
		<text x="40" y="140" font-size="128" fill="#999999">5</text></g>
</g>
</svg>
