<?xml version="1.0" standalone="no"?>
<!DOCTYPE svg PUBLIC "-//W3C//DTD SVG 1.1//EN"
 "http://www.w3.org/Graphics/SVG/1.1/DTD/svg11.dtd">
<!-- generate by Handict dictionary app com.asnsami.handict -->

<svg xmlns="http://www.w3.org/2000/svg" xmlns:sodipodi="http://sodipodi.sourceforge.net/DTD/sodipodi-0.dtd" version="1.1" width="640" height="256" viewBox="0 0 5120 2048">
	<g id="id0:id0" transform="translate(0.0,0)">
		<g id="id0:id0:id0" transform="matrix(1.0,0,0,1.0,0,0.0)">			<g stroke="lightgray" stroke-width="4" transform="scale(4, 4)"> <rect x="0" y="0" width="256" height="256" fill="white" stroke-width="4"/></g>
			<g transform="scale(0.92, -0.92) translate(60, -920)">					<path d="M 250 626 Q 265 635 431 743 Q 453 759 479 768 Q 504 777 493 797 Q 480 816 453 835 Q 428 851 414 850 Q 401 849 404 834 Q 404 798 288 691 Q 263 669 238 644 C 217 623 225 610 250 626 Z" fill="red"></path>
				<path d="M 402 410 Q 398 410 273 340 Q 257 330 247 335 Q 235 336 237 363 Q 243 457 246 513 L 246 535 Q 246 536 247 536 Q 246 579 250 614 Q 251 621 250 626 C 250 636 250 636 238 644 Q 216 660 194 669 Q 175 676 165 670 Q 155 663 169 642 Q 217 570 185 337 Q 178 310 159 280 Q 146 258 156 246 Q 166 233 194 221 Q 212 214 225 233 Q 247 279 368 360 Q 387 373 400 386 C 422 406 429 423 402 410 Z" fill="lightgray"></path>
				<path d="M 246 513 Q 319 447 331 446 L 333 446 Q 342 446 345 457 Q 349 467 342 491 Q 336 513 261 534 Q 248 537 246 535 C 226 531 226 531 246 513 Z" fill="lightgray"></path>
				<path d="M 400 386 Q 400 254 310 122 Q 283 91 240 47 Q 224 32 221 25 Q 220 18 232 18 Q 250 19 272 35 Q 320 68 349 99 Q 430 189 450 333 Q 466 423 468 557 Q 472 579 474 592 Q 480 614 457 625 Q 403 652 386 648 Q 364 644 382 620 Q 409 575 402 410 L 400 386 Z" fill="lightgray"></path>
				<path d="M 633 605 Q 642 604 652 608 Q 728 633 800 645 Q 810 646 812 642 Q 819 629 820 593 Q 823 463 805 390 Q 796 345 783 331 Q 773 319 749 325 Q 724 331 700 337 Q 676 344 693 322 Q 733 276 756 241 Q 765 222 784 226 Q 800 230 820 254 Q 875 326 881 556 Q 882 610 901 642 Q 916 664 906 673 Q 890 691 853 703 Q 831 712 757 680 Q 663 653 619 643 C 590 636 604 599 633 605 Z" fill="lightgray"></path>
				<path d="M 572 -25 Q 578 -50 585 -61 Q 591 -68 599 -66 Q 614 -57 621 6 Q 622 40 624 296 Q 620 530 633 605 C 637 632 637 632 619 643 Q 588 664 572 666 Q 559 670 542 661 Q 533 652 541 641 Q 545 631 553 621 Q 566 596 568 560 Q 571 409 567 172 Q 566 25 572 -25 Z" fill="lightgray"></path>
				<path d="M 676 497 Q 698 479 722 457 Q 735 445 750 447 Q 760 448 765 460 Q 769 475 759 503 Q 747 530 669 543 Q 654 546 648 543 Q 644 539 645 527 Q 649 517 676 497 Z" fill="lightgray"></path>
</g>
		<text x="40" y="140" font-size="128" fill="#999999">1</text></g>
		<g id="id0:id1:id1" transform="matrix(1.0,0,0,1.0,1024,0.0)">			<g stroke="lightgray" stroke-width="4" transform="scale(4, 4)"> <rect x="0" y="0" width="256" height="256" fill="white" stroke-width="4"/></g>
			<g transform="scale(0.92, -0.92) translate(60, -920)">					<path d="M 250 626 Q 265 635 431 743 Q 453 759 479 768 Q 504 777 493 797 Q 480 816 453 835 Q 428 851 414 850 Q 401 849 404 834 Q 404 798 288 691 Q 263 669 238 644 C 217 623 225 610 250 626 Z" fill="black"></path>
				<path d="M 402 410 Q 398 410 273 340 Q 257 330 247 335 Q 235 336 237 363 Q 243 457 246 513 L 246 535 Q 246 536 247 536 Q 246 579 250 614 Q 251 621 250 626 C 250 636 250 636 238 644 Q 216 660 194 669 Q 175 676 165 670 Q 155 663 169 642 Q 217 570 185 337 Q 178 310 159 280 Q 146 258 156 246 Q 166 233 194 221 Q 212 214 225 233 Q 247 279 368 360 Q 387 373 400 386 C 422 406 429 423 402 410 Z" fill="red"></path>
				<path d="M 246 513 Q 319 447 331 446 L 333 446 Q 342 446 345 457 Q 349 467 342 491 Q 336 513 261 534 Q 248 537 246 535 C 226 531 226 531 246 513 Z" fill="lightgray"></path>
				<path d="M 400 386 Q 400 254 310 122 Q 283 91 240 47 Q 224 32 221 25 Q 220 18 232 18 Q 250 19 272 35 Q 320 68 349 99 Q 430 189 450 333 Q 466 423 468 557 Q 472 579 474 592 Q 480 614 457 625 Q 403 652 386 648 Q 364 644 382 620 Q 409 575 402 410 L 400 386 Z" fill="lightgray"></path>
				<path d="M 633 605 Q 642 604 652 608 Q 728 633 800 645 Q 810 646 812 642 Q 819 629 820 593 Q 823 463 805 390 Q 796 345 783 331 Q 773 319 749 325 Q 724 331 700 337 Q 676 344 693 322 Q 733 276 756 241 Q 765 222 784 226 Q 800 230 820 254 Q 875 326 881 556 Q 882 610 901 642 Q 916 664 906 673 Q 890 691 853 703 Q 831 712 757 680 Q 663 653 619 643 C 590 636 604 599 633 605 Z" fill="lightgray"></path>
				<path d="M 572 -25 Q 578 -50 585 -61 Q 591 -68 599 -66 Q 614 -57 621 6 Q 622 40 624 296 Q 620 530 633 605 C 637 632 637 632 619 643 Q 588 664 572 666 Q 559 670 542 661 Q 533 652 541 641 Q 545 631 553 621 Q 566 596 568 560 Q 571 409 567 172 Q 566 25 572 -25 Z" fill="lightgray"></path>
				<path d="M 676 497 Q 698 479 722 457 Q 735 445 750 447 Q 760 448 765 460 Q 769 475 759 503 Q 747 530 669 543 Q 654 546 648 543 Q 644 539 645 527 Q 649 517 676 497 Z" fill="lightgray"></path>
</g>
		<text x="40" y="140" font-size="128" fill="#999999">2</text></g>
		<g id="id0:id2:id2" transform="matrix(1.0,0,0,1.0,2048,0.0)">			<g stroke="lightgray" stroke-width="4" transform="scale(4, 4)"> <rect x="0" y="0" width="256" height="256" fill="white" stroke-width="4"/></g>
			<g transform="scale(0.92, -0.92) translate(60, -920)">					<path d="M 250 626 Q 265 635 431 743 Q 453 759 479 768 Q 504 777 493 797 Q 480 816 453 835 Q 428 851 414 850 Q 401 849 404 834 Q 404 798 288 691 Q 263 669 238 644 C 217 623 225 610 250 626 Z" fill="black"></path>
				<path d="M 402 410 Q 398 410 273 340 Q 257 330 247 335 Q 235 336 237 363 Q 243 457 246 513 L 246 535 Q 246 536 247 536 Q 246 579 250 614 Q 251 621 250 626 C 250 636 250 636 238 644 Q 216 660 194 669 Q 175 676 165 670 Q 155 663 169 642 Q 217 570 185 337 Q 178 310 159 280 Q 146 258 156 246 Q 166 233 194 221 Q 212 214 225 233 Q 247 279 368 360 Q 387 373 400 386 C 422 406 429 423 402 410 Z" fill="black"></path>
				<path d="M 246 513 Q 319 447 331 446 L 333 446 Q 342 446 345 457 Q 349 467 342 491 Q 336 513 261 534 Q 248 537 246 535 C 226 531 226 531 246 513 Z" fill="red"></path>
				<path d="M 400 386 Q 400 254 310 122 Q 283 91 240 47 Q 224 32 221 25 Q 220 18 232 18 Q 250 19 272 35 Q 320 68 349 99 Q 430 189 450 333 Q 466 423 468 557 Q 472 579 474 592 Q 480 614 457 625 Q 403 652 386 648 Q 364 644 382 620 Q 409 575 402 410 L 400 386 Z" fill="lightgray"></path>
				<path d="M 633 605 Q 642 604 652 608 Q 728 633 800 645 Q 810 646 812 642 Q 819 629 820 593 Q 823 463 805 390 Q 796 345 783 331 Q 773 319 749 325 Q 724 331 700 337 Q 676 344 693 322 Q 733 276 756 241 Q 765 222 784 226 Q 800 230 820 254 Q 875 326 881 556 Q 882 610 901 642 Q 916 664 906 673 Q 890 691 853 703 Q 831 712 757 680 Q 663 653 619 643 C 590 636 604 599 633 605 Z" fill="lightgray"></path>
				<path d="M 572 -25 Q 578 -50 585 -61 Q 591 -68 599 -66 Q 614 -57 621 6 Q 622 40 624 296 Q 620 530 633 605 C 637 632 637 632 619 643 Q 588 664 572 666 Q 559 670 542 661 Q 533 652 541 641 Q 545 631 553 621 Q 566 596 568 560 Q 571 409 567 172 Q 566 25 572 -25 Z" fill="lightgray"></path>
				<path d="M 676 497 Q 698 479 722 457 Q 735 445 750 447 Q 760 448 765 460 Q 769 475 759 503 Q 747 530 669 543 Q 654 546 648 543 Q 644 539 645 527 Q 649 517 676 497 Z" fill="lightgray"></path>
</g>
		<text x="40" y="140" font-size="128" fill="#999999">3</text></g>
		<g id="id0:id3:id3" transform="matrix(1.0,0,0,1.0,3072,0.0)">			<g stroke="lightgray" stroke-width="4" transform="scale(4, 4)"> <rect x="0" y="0" width="256" height="256" fill="white" stroke-width="4"/></g>
			<g transform="scale(0.92, -0.92) translate(60, -920)">					<path d="M 250 626 Q 265 635 431 743 Q 453 759 479 768 Q 504 777 493 797 Q 480 816 453 835 Q 428 851 414 850 Q 401 849 404 834 Q 404 798 288 691 Q 263 669 238 644 C 217 623 225 610 250 626 Z" fill="black"></path>
				<path d="M 402 410 Q 398 410 273 340 Q 257 330 247 335 Q 235 336 237 363 Q 243 457 246 513 L 246 535 Q 246 536 247 536 Q 246 579 250 614 Q 251 621 250 626 C 250 636 250 636 238 644 Q 216 660 194 669 Q 175 676 165 670 Q 155 663 169 642 Q 217 570 185 337 Q 178 310 159 280 Q 146 258 156 246 Q 166 233 194 221 Q 212 214 225 233 Q 247 279 368 360 Q 387 373 400 386 C 422 406 429 423 402 410 Z" fill="black"></path>
				<path d="M 246 513 Q 319 447 331 446 L 333 446 Q 342 446 345 457 Q 349 467 342 491 Q 336 513 261 534 Q 248 537 246 535 C 226 531 226 531 246 513 Z" fill="black"></path>
				<path d="M 400 386 Q 400 254 310 122 Q 283 91 240 47 Q 224 32 221 25 Q 220 18 232 18 Q 250 19 272 35 Q 320 68 349 99 Q 430 189 450 333 Q 466 423 468 557 Q 472 579 474 592 Q 480 614 457 625 Q 403 652 386 648 Q 364 644 382 620 Q 409 575 402 410 L 400 386 Z" fill="red"></path>
				<path d="M 633 605 Q 642 604 652 608 Q 728 633 800 645 Q 810 646 812 642 Q 819 629 820 593 Q 823 463 805 390 Q 796 345 783 331 Q 773 319 749 325 Q 724 331 700 337 Q 676 344 693 322 Q 733 276 756 241 Q 765 222 784 226 Q 800 230 820 254 Q 875 326 881 556 Q 882 610 901 642 Q 916 664 906 673 Q 890 691 853 703 Q 831 712 757 680 Q 663 653 619 643 C 590 636 604 599 633 605 Z" fill="lightgray"></path>
				<path d="M 572 -25 Q 578 -50 585 -61 Q 591 -68 599 -66 Q 614 -57 621 6 Q 622 40 624 296 Q 620 530 633 605 C 637 632 637 632 619 643 Q 588 664 572 666 Q 559 670 542 661 Q 533 652 541 641 Q 545 631 553 621 Q 566 596 568 560 Q 571 409 567 172 Q 566 25 572 -25 Z" fill="lightgray"></path>
				<path d="M 676 497 Q 698 479 722 457 Q 735 445 750 447 Q 760 448 765 460 Q 769 475 759 503 Q 747 530 669 543 Q 654 546 648 543 Q 644 539 645 527 Q 649 517 676 497 Z" fill="lightgray"></path>
</g>
		<text x="40" y="140" font-size="128" fill="#999999">4</text></g>
		<g id="id0:id4:id4" transform="matrix(1.0,0,0,1.0,4096,0.0)">			<g stroke="lightgray" stroke-width="4" transform="scale(4, 4)"> <rect x="0" y="0" width="256" height="256" fill="white" stroke-width="4"/></g>
			<g transform="scale(0.92, -0.92) translate(60, -920)">					<path d="M 250 626 Q 265 635 431 743 Q 453 759 479 768 Q 504 777 493 797 Q 480 816 453 835 Q 428 851 414 850 Q 401 849 404 834 Q 404 798 288 691 Q 263 669 238 644 C 217 623 225 610 250 626 Z" fill="black"></path>
				<path d="M 402 410 Q 398 410 273 340 Q 257 330 247 335 Q 235 336 237 363 Q 243 457 246 513 L 246 535 Q 246 536 247 536 Q 246 579 250 614 Q 251 621 250 626 C 250 636 250 636 238 644 Q 216 660 194 669 Q 175 676 165 670 Q 155 663 169 642 Q 217 570 185 337 Q 178 310 159 280 Q 146 258 156 246 Q 166 233 194 221 Q 212 214 225 233 Q 247 279 368 360 Q 387 373 400 386 C 422 406 429 423 402 410 Z" fill="black"></path>
				<path d="M 246 513 Q 319 447 331 446 L 333 446 Q 342 446 345 457 Q 349 467 342 491 Q 336 513 261 534 Q 248 537 246 535 C 226 531 226 531 246 513 Z" fill="black"></path>
				<path d="M 400 386 Q 400 254 310 122 Q 283 91 240 47 Q 224 32 221 25 Q 220 18 232 18 Q 250 19 272 35 Q 320 68 349 99 Q 430 189 450 333 Q 466 423 468 557 Q 472 579 474 592 Q 480 614 457 625 Q 403 652 386 648 Q 364 644 382 620 Q 409 575 402 410 L 400 386 Z" fill="black"></path>
				<path d="M 633 605 Q 642 604 652 608 Q 728 633 800 645 Q 810 646 812 642 Q 819 629 820 593 Q 823 463 805 390 Q 796 345 783 331 Q 773 319 749 325 Q 724 331 700 337 Q 676 344 693 322 Q 733 276 756 241 Q 765 222 784 226 Q 800 230 820 254 Q 875 326 881 556 Q 882 610 901 642 Q 916 664 906 673 Q 890 691 853 703 Q 831 712 757 680 Q 663 653 619 643 C 590 636 604 599 633 605 Z" fill="red"></path>
				<path d="M 572 -25 Q 578 -50 585 -61 Q 591 -68 599 -66 Q 614 -57 621 6 Q 622 40 624 296 Q 620 530 633 605 C 637 632 637 632 619 643 Q 588 664 572 666 Q 559 670 542 661 Q 533 652 541 641 Q 545 631 553 621 Q 566 596 568 560 Q 571 409 567 172 Q 566 25 572 -25 Z" fill="lightgray"></path>
				<path d="M 676 497 Q 698 479 722 457 Q 735 445 750 447 Q 760 448 765 460 Q 769 475 759 503 Q 747 530 669 543 Q 654 546 648 543 Q 644 539 645 527 Q 649 517 676 497 Z" fill="lightgray"></path>
</g>
		<text x="40" y="140" font-size="128" fill="#999999">5</text></g>
</g>
	<g id="id1:id1" transform="translate(0.0,1024)">
		<g id="id1:id0:id0" transform="matrix(1.0,0,0,1.0,0,0.0)">			<g stroke="lightgray" stroke-width="4" transform="scale(4, 4)"> <rect x="0" y="0" width="256" height="256" fill="white" stroke-width="4"/></g>
			<g transform="scale(0.92, -0.92) translate(60, -920)">					<path d="M 250 626 Q 265 635 431 743 Q 453 759 479 768 Q 504 777 493 797 Q 480 816 453 835 Q 428 851 414 850 Q 401 849 404 834 Q 404 798 288 691 Q 263 669 238 644 C 217 623 225 610 250 626 Z" fill="black"></path>
				<path d="M 402 410 Q 398 410 273 340 Q 257 330 247 335 Q 235 336 237 363 Q 243 457 246 513 L 246 535 Q 246 536 247 536 Q 246 579 250 614 Q 251 621 250 626 C 250 636 250 636 238 644 Q 216 660 194 669 Q 175 676 165 670 Q 155 663 169 642 Q 217 570 185 337 Q 178 310 159 280 Q 146 258 156 246 Q 166 233 194 221 Q 212 214 225 233 Q 247 279 368 360 Q 387 373 400 386 C 422 406 429 423 402 410 Z" fill="black"></path>
				<path d="M 246 513 Q 319 447 331 446 L 333 446 Q 342 446 345 457 Q 349 467 342 491 Q 336 513 261 534 Q 248 537 246 535 C 226 531 226 531 246 513 Z" fill="black"></path>
				<path d="M 400 386 Q 400 254 310 122 Q 283 91 240 47 Q 224 32 221 25 Q 220 18 232 18 Q 250 19 272 35 Q 320 68 349 99 Q 430 189 450 333 Q 466 423 468 557 Q 472 579 474 592 Q 480 614 457 625 Q 403 652 386 648 Q 364 644 382 620 Q 409 575 402 410 L 400 386 Z" fill="black"></path>
				<path d="M 633 605 Q 642 604 652 608 Q 728 633 800 645 Q 810 646 812 642 Q 819 629 820 593 Q 823 463 805 390 Q 796 345 783 331 Q 773 319 749 325 Q 724 331 700 337 Q 676 344 693 322 Q 733 276 756 241 Q 765 222 784 226 Q 800 230 820 254 Q 875 326 881 556 Q 882 610 901 642 Q 916 664 906 673 Q 890 691 853 703 Q 831 712 757 680 Q 663 653 619 643 C 590 636 604 599 633 605 Z" fill="black"></path>
				<path d="M 572 -25 Q 578 -50 585 -61 Q 591 -68 599 -66 Q 614 -57 621 6 Q 622 40 624 296 Q 620 530 633 605 C 637 632 637 632 619 643 Q 588 664 572 666 Q 559 670 542 661 Q 533 652 541 641 Q 545 631 553 621 Q 566 596 568 560 Q 571 409 567 172 Q 566 25 572 -25 Z" fill="red"></path>
				<path d="M 676 497 Q 698 479 722 457 Q 735 445 750 447 Q 760 448 765 460 Q 769 475 759 503 Q 747 530 669 543 Q 654 546 648 543 Q 644 539 645 527 Q 649 517 676 497 Z" fill="lightgray"></path>
</g>
		<text x="40" y="140" font-size="128" fill="#999999">6</text></g>
		<g id="id1:id1:id1" transform="matrix(1.0,0,0,1.0,1024,0.0)">			<g stroke="lightgray" stroke-width="4" transform="scale(4, 4)"> <rect x="0" y="0" width="256" height="256" fill="white" stroke-width="4"/></g>
			<g transform="scale(0.92, -0.92) translate(60, -920)">					<path d="M 250 626 Q 265 635 431 743 Q 453 759 479 768 Q 504 777 493 797 Q 480 816 453 835 Q 428 851 414 850 Q 401 849 404 834 Q 404 798 288 691 Q 263 669 238 644 C 217 623 225 610 250 626 Z" fill="black"></path>
				<path d="M 402 410 Q 398 410 273 340 Q 257 330 247 335 Q 235 336 237 363 Q 243 457 246 513 L 246 535 Q 246 536 247 536 Q 246 579 250 614 Q 251 621 250 626 C 250 636 250 636 238 644 Q 216 660 194 669 Q 175 676 165 670 Q 155 663 169 642 Q 217 570 185 337 Q 178 310 159 280 Q 146 258 156 246 Q 166 233 194 221 Q 212 214 225 233 Q 247 279 368 360 Q 387 373 400 386 C 422 406 429 423 402 410 Z" fill="black"></path>
				<path d="M 246 513 Q 319 447 331 446 L 333 446 Q 342 446 345 457 Q 349 467 342 491 Q 336 513 261 534 Q 248 537 246 535 C 226 531 226 531 246 513 Z" fill="black"></path>
				<path d="M 400 386 Q 400 254 310 122 Q 283 91 240 47 Q 224 32 221 25 Q 220 18 232 18 Q 250 19 272 35 Q 320 68 349 99 Q 430 189 450 333 Q 466 423 468 557 Q 472 579 474 592 Q 480 614 457 625 Q 403 652 386 648 Q 364 644 382 620 Q 409 575 402 410 L 400 386 Z" fill="black"></path>
				<path d="M 633 605 Q 642 604 652 608 Q 728 633 800 645 Q 810 646 812 642 Q 819 629 820 593 Q 823 463 805 390 Q 796 345 783 331 Q 773 319 749 325 Q 724 331 700 337 Q 676 344 693 322 Q 733 276 756 241 Q 765 222 784 226 Q 800 230 820 254 Q 875 326 881 556 Q 882 610 901 642 Q 916 664 906 673 Q 890 691 853 703 Q 831 712 757 680 Q 663 653 619 643 C 590 636 604 599 633 605 Z" fill="black"></path>
				<path d="M 572 -25 Q 578 -50 585 -61 Q 591 -68 599 -66 Q 614 -57 621 6 Q 622 40 624 296 Q 620 530 633 605 C 637 632 637 632 619 643 Q 588 664 572 666 Q 559 670 542 661 Q 533 652 541 641 Q 545 631 553 621 Q 566 596 568 560 Q 571 409 567 172 Q 566 25 572 -25 Z" fill="black"></path>
				<path d="M 676 497 Q 698 479 722 457 Q 735 445 750 447 Q 760 448 765 460 Q 769 475 759 503 Q 747 530 669 543 Q 654 546 648 543 Q 644 539 645 527 Q 649 517 676 497 Z" fill="red"></path>
</g>
		<text x="40" y="140" font-size="128" fill="#999999">7</text></g>
		<g id="id1:id2:id2" transform="matrix(1.0,0,0,1.0,2048,0.0)">			<g stroke="white" stroke-width="4" transform="scale(4, 4)"> <rect x="1" y="1" width="255" height="255" fill="white" stroke-width="0"/></g>
</g>
		<g id="id1:id3:id3" transform="matrix(1.0,0,0,1.0,3072,0.0)">			<g stroke="white" stroke-width="4" transform="scale(4, 4)"> <rect x="1" y="1" width="255" height="255" fill="white" stroke-width="0"/></g>
</g>
		<g id="id1:id4:id4" transform="matrix(1.0,0,0,1.0,4096,0.0)">			<g stroke="white" stroke-width="4" transform="scale(4, 4)"> <rect x="1" y="1" width="255" height="255" fill="white" stroke-width="0"/></g>
</g>
</g>
</svg>
