<?xml version="1.0" standalone="no"?>
<!DOCTYPE svg PUBLIC "-//W3C//DTD SVG 1.1//EN"
 "http://www.w3.org/Graphics/SVG/1.1/DTD/svg11.dtd">
<!-- generate by Handict dictionary app com.asnsami.handict -->

<svg xmlns="http://www.w3.org/2000/svg" xmlns:sodipodi="http://sodipodi.sourceforge.net/DTD/sodipodi-0.dtd" version="1.1" width="640" height="128" viewBox="0 0 5120 1024">
	<g id="id0:id0" transform="translate(0.0,0)">
		<g id="id0:id0:id0" transform="matrix(1.0,0,0,1.0,0,0.0)">			<g stroke="lightgray" stroke-width="4" transform="scale(4, 4)"> <rect x="0" y="0" width="256" height="256" fill="white" stroke-width="4"/></g>
			<g transform="scale(0.92, -0.92) translate(60, -920)">					<path d="M 485 583 Q 585 604 691 625 Q 767 643 778 653 Q 788 662 783 671 Q 776 684 744 692 Q 713 699 679 686 Q 592 656 500 632 L 433 618 Q 357 605 271 596 Q 231 589 260 571 Q 302 546 388 564 Q 401 567 417 569 L 485 583 Z" fill="red"></path>
				<path d="M 419 422 Q 458 500 485 583 L 500 632 Q 521 707 553 759 Q 563 769 554 781 Q 538 805 502 830 Q 481 846 461 844 Q 436 841 450 817 Q 474 777 466 743 Q 450 676 433 618 L 417 569 Q 318 290 132 130 Q 113 115 92 98 Q 77 91 74 87 Q 70 80 87 78 Q 97 77 144 103 Q 178 119 236 169 Q 317 239 404 392 L 419 422 Z" fill="lightgray"></path>
				<path d="M 594 174 Q 642 252 684 373 Q 697 404 718 425 Q 739 443 724 458 Q 709 471 675 482 Q 651 488 570 456 Q 452 428 419 422 C 390 416 374 396 404 392 Q 441 382 488 397 Q 582 428 600 428 Q 625 425 620 397 Q 602 313 552 212 L 529 178 Q 447 76 288 25 Q 273 19 286 11 Q 293 4 344 8 Q 464 23 565 134 L 594 174 Z" fill="lightgray"></path>
				<path d="M 565 134 Q 694 -14 741 -16 Q 832 -19 906 -10 Q 943 -6 941 5 Q 941 8 757 69 Q 693 96 594 174 L 552 212 Q 516 248 480 288 Q 443 328 409 328 Q 391 329 387 324 Q 386 318 401 307 Q 446 279 529 178 L 565 134 Z" fill="lightgray"></path>
</g>
		<text x="40" y="140" font-size="128" fill="#999999">1</text></g>
		<g id="id0:id1:id1" transform="matrix(1.0,0,0,1.0,1024,0.0)">			<g stroke="lightgray" stroke-width="4" transform="scale(4, 4)"> <rect x="0" y="0" width="256" height="256" fill="white" stroke-width="4"/></g>
			<g transform="scale(0.92, -0.92) translate(60, -920)">					<path d="M 485 583 Q 585 604 691 625 Q 767 643 778 653 Q 788 662 783 671 Q 776 684 744 692 Q 713 699 679 686 Q 592 656 500 632 L 433 618 Q 357 605 271 596 Q 231 589 260 571 Q 302 546 388 564 Q 401 567 417 569 L 485 583 Z" fill="black"></path>
				<path d="M 419 422 Q 458 500 485 583 L 500 632 Q 521 707 553 759 Q 563 769 554 781 Q 538 805 502 830 Q 481 846 461 844 Q 436 841 450 817 Q 474 777 466 743 Q 450 676 433 618 L 417 569 Q 318 290 132 130 Q 113 115 92 98 Q 77 91 74 87 Q 70 80 87 78 Q 97 77 144 103 Q 178 119 236 169 Q 317 239 404 392 L 419 422 Z" fill="red"></path>
				<path d="M 594 174 Q 642 252 684 373 Q 697 404 718 425 Q 739 443 724 458 Q 709 471 675 482 Q 651 488 570 456 Q 452 428 419 422 C 390 416 374 396 404 392 Q 441 382 488 397 Q 582 428 600 428 Q 625 425 620 397 Q 602 313 552 212 L 529 178 Q 447 76 288 25 Q 273 19 286 11 Q 293 4 344 8 Q 464 23 565 134 L 594 174 Z" fill="lightgray"></path>
				<path d="M 565 134 Q 694 -14 741 -16 Q 832 -19 906 -10 Q 943 -6 941 5 Q 941 8 757 69 Q 693 96 594 174 L 552 212 Q 516 248 480 288 Q 443 328 409 328 Q 391 329 387 324 Q 386 318 401 307 Q 446 279 529 178 L 565 134 Z" fill="lightgray"></path>
</g>
		<text x="40" y="140" font-size="128" fill="#999999">2</text></g>
		<g id="id0:id2:id2" transform="matrix(1.0,0,0,1.0,2048,0.0)">			<g stroke="lightgray" stroke-width="4" transform="scale(4, 4)"> <rect x="0" y="0" width="256" height="256" fill="white" stroke-width="4"/></g>
			<g transform="scale(0.92, -0.92) translate(60, -920)">					<path d="M 485 583 Q 585 604 691 625 Q 767 643 778 653 Q 788 662 783 671 Q 776 684 744 692 Q 713 699 679 686 Q 592 656 500 632 L 433 618 Q 357 605 271 596 Q 231 589 260 571 Q 302 546 388 564 Q 401 567 417 569 L 485 583 Z" fill="black"></path>
				<path d="M 419 422 Q 458 500 485 583 L 500 632 Q 521 707 553 759 Q 563 769 554 781 Q 538 805 502 830 Q 481 846 461 844 Q 436 841 450 817 Q 474 777 466 743 Q 450 676 433 618 L 417 569 Q 318 290 132 130 Q 113 115 92 98 Q 77 91 74 87 Q 70 80 87 78 Q 97 77 144 103 Q 178 119 236 169 Q 317 239 404 392 L 419 422 Z" fill="black"></path>
				<path d="M 594 174 Q 642 252 684 373 Q 697 404 718 425 Q 739 443 724 458 Q 709 471 675 482 Q 651 488 570 456 Q 452 428 419 422 C 390 416 374 396 404 392 Q 441 382 488 397 Q 582 428 600 428 Q 625 425 620 397 Q 602 313 552 212 L 529 178 Q 447 76 288 25 Q 273 19 286 11 Q 293 4 344 8 Q 464 23 565 134 L 594 174 Z" fill="red"></path>
				<path d="M 565 134 Q 694 -14 741 -16 Q 832 -19 906 -10 Q 943 -6 941 5 Q 941 8 757 69 Q 693 96 594 174 L 552 212 Q 516 248 480 288 Q 443 328 409 328 Q 391 329 387 324 Q 386 318 401 307 Q 446 279 529 178 L 565 134 Z" fill="lightgray"></path>
</g>
		<text x="40" y="140" font-size="128" fill="#999999">3</text></g>
		<g id="id0:id3:id3" transform="matrix(1.0,0,0,1.0,3072,0.0)">			<g stroke="lightgray" stroke-width="4" transform="scale(4, 4)"> <rect x="0" y="0" width="256" height="256" fill="white" stroke-width="4"/></g>
			<g transform="scale(0.92, -0.92) translate(60, -920)">					<path d="M 485 583 Q 585 604 691 625 Q 767 643 778 653 Q 788 662 783 671 Q 776 684 744 692 Q 713 699 679 686 Q 592 656 500 632 L 433 618 Q 357 605 271 596 Q 231 589 260 571 Q 302 546 388 564 Q 401 567 417 569 L 485 583 Z" fill="black"></path>
				<path d="M 419 422 Q 458 500 485 583 L 500 632 Q 521 707 553 759 Q 563 769 554 781 Q 538 805 502 830 Q 481 846 461 844 Q 436 841 450 817 Q 474 777 466 743 Q 450 676 433 618 L 417 569 Q 318 290 132 130 Q 113 115 92 98 Q 77 91 74 87 Q 70 80 87 78 Q 97 77 144 103 Q 178 119 236 169 Q 317 239 404 392 L 419 422 Z" fill="black"></path>
				<path d="M 594 174 Q 642 252 684 373 Q 697 404 718 425 Q 739 443 724 458 Q 709 471 675 482 Q 651 488 570 456 Q 452 428 419 422 C 390 416 374 396 404 392 Q 441 382 488 397 Q 582 428 600 428 Q 625 425 620 397 Q 602 313 552 212 L 529 178 Q 447 76 288 25 Q 273 19 286 11 Q 293 4 344 8 Q 464 23 565 134 L 594 174 Z" fill="black"></path>
				<path d="M 565 134 Q 694 -14 741 -16 Q 832 -19 906 -10 Q 943 -6 941 5 Q 941 8 757 69 Q 693 96 594 174 L 552 212 Q 516 248 480 288 Q 443 328 409 328 Q 391 329 387 324 Q 386 318 401 307 Q 446 279 529 178 L 565 134 Z" fill="red"></path>
</g>
		<text x="40" y="140" font-size="128" fill="#999999">4</text></g>
		<g id="id0:id4:id4" transform="matrix(1.0,0,0,1.0,4096,0.0)">			<g stroke="white" stroke-width="4" transform="scale(4, 4)"> <rect x="1" y="1" width="255" height="255" fill="white" stroke-width="0"/></g>
</g>
</g>
</svg>
