<?xml version="1.0" standalone="no"?>
<!DOCTYPE svg PUBLIC "-//W3C//DTD SVG 1.1//EN"
 "http://www.w3.org/Graphics/SVG/1.1/DTD/svg11.dtd">
<!-- generate by Japanese dictionary app com.asnsami.kanjidictionary -->

<svg xmlns="http://www.w3.org/2000/svg" xmlns:sodipodi="http://sodipodi.sourceforge.net/DTD/sodipodi-0.dtd" version="1.1" width="640" height="256" viewBox="0 0 5120 2048">
	<g id="id0:id0" transform="translate(0.0,0)">
		<g id="id0:id0:id0" transform="matrix(1.0,0,0,1.0,0,0.0)">			<g stroke="lightgray" stroke-width="4" transform="scale(4, 4)"> <rect x="0" y="0" width="256" height="256" fill="white" stroke-width="4"/></g>
			<g transform="scale(0.92, -0.92) translate(60, -920)">					<path d="M 298 632 Q 382 683 399 690 Q 417 697 409 712 Q 399 727 377 740 Q 358 752 347 750 Q 337 750 339 738 Q 342 719 278 645 C 258 622 272 616 298 632 Z" fill="red"></path>
				<path d="M 333 453 Q 330 472 316 533 L 310 562 Q 301 607 301 620 Q 300 627 298 632 C 295 641 295 641 278 645 Q 263 649 238 652 Q 225 655 221 649 Q 214 642 225 624 Q 258 564 282 465 Q 286 435 306 416 Q 327 392 331 410 Q 332 414 333 421 L 333 453 Z" fill="lightgray"></path>
				<path d="M 316 533 Q 371 543 412 548 Q 434 552 425 565 Q 415 578 391 581 Q 354 584 310 562 C 283 549 286 528 316 533 Z" fill="lightgray"></path>
				<path d="M 656 463 Q 657 462 659 457 Q 678 415 708 442 Q 730 461 736 484 Q 772 622 802 654 Q 820 673 807 692 Q 788 714 757 739 Q 739 749 720 744 Q 665 726 601 721 Q 577 720 582 708 Q 586 696 604 688 Q 620 685 682 695 Q 706 699 714 693 Q 721 687 715 659 Q 709 637 704 615 L 697 583 Q 675 499 667 492 C 654 467 654 467 656 463 Z" fill="lightgray"></path>
				<path d="M 704 615 Q 700 619 691 620 Q 667 623 579 596 Q 563 593 582 578 Q 588 574 601 575 Q 653 581 697 583 C 727 584 729 598 704 615 Z" fill="lightgray"></path>
				<path d="M 526 446 Q 595 456 656 463 C 686 466 692 475 667 492 Q 642 517 531 488 Q 530 488 528 487 L 482 478 Q 403 466 333 453 C 303 448 303 418 333 421 Q 340 421 481 439 L 526 446 Z" fill="lightgray"></path>
				<path d="M 522 367 Q 523 407 526 446 L 528 487 Q 532 596 535 699 Q 539 739 544 767 Q 551 789 554 807 Q 558 819 536 835 Q 499 854 472 859 Q 454 862 446 853 Q 439 844 447 828 Q 475 788 476 760 Q 483 627 482 478 L 481 439 Q 480 400 478 358 C 477 328 521 337 522 367 Z" fill="lightgray"></path>
				<path d="M 545 131 Q 594 188 640 275 Q 658 305 682 322 Q 704 337 693 354 Q 680 369 647 386 Q 622 396 590 386 Q 559 376 522 367 L 478 358 Q 426 351 353 347 Q 337 347 332 340 Q 328 333 347 323 Q 386 305 440 318 Q 548 343 567 341 Q 589 334 578 312 Q 548 212 502 165 L 476 138 Q 389 59 202 17 Q 186 13 198 3 Q 205 -1 263 0 Q 335 4 417 42 Q 469 64 514 100 L 545 131 Z" fill="lightgray"></path>
				<path d="M 514 100 Q 518 97 522 92 Q 676 -59 732 -63 Q 801 -63 909 -40 Q 949 -33 945 -21 Q 944 -17 902 -7 Q 703 29 626 75 Q 599 91 545 131 L 502 165 Q 453 205 402 253 Q 363 290 328 288 Q 310 288 308 282 Q 307 275 322 266 Q 377 236 476 138 L 514 100 Z" fill="lightgray"></path>
</g>
		<text x="40" y="140" font-size="128" fill="#999999">1</text></g>
		<g id="id0:id1:id1" transform="matrix(1.0,0,0,1.0,1024,0.0)">			<g stroke="lightgray" stroke-width="4" transform="scale(4, 4)"> <rect x="0" y="0" width="256" height="256" fill="white" stroke-width="4"/></g>
			<g transform="scale(0.92, -0.92) translate(60, -920)">					<path d="M 298 632 Q 382 683 399 690 Q 417 697 409 712 Q 399 727 377 740 Q 358 752 347 750 Q 337 750 339 738 Q 342 719 278 645 C 258 622 272 616 298 632 Z" fill="black"></path>
				<path d="M 333 453 Q 330 472 316 533 L 310 562 Q 301 607 301 620 Q 300 627 298 632 C 295 641 295 641 278 645 Q 263 649 238 652 Q 225 655 221 649 Q 214 642 225 624 Q 258 564 282 465 Q 286 435 306 416 Q 327 392 331 410 Q 332 414 333 421 L 333 453 Z" fill="red"></path>
				<path d="M 316 533 Q 371 543 412 548 Q 434 552 425 565 Q 415 578 391 581 Q 354 584 310 562 C 283 549 286 528 316 533 Z" fill="lightgray"></path>
				<path d="M 656 463 Q 657 462 659 457 Q 678 415 708 442 Q 730 461 736 484 Q 772 622 802 654 Q 820 673 807 692 Q 788 714 757 739 Q 739 749 720 744 Q 665 726 601 721 Q 577 720 582 708 Q 586 696 604 688 Q 620 685 682 695 Q 706 699 714 693 Q 721 687 715 659 Q 709 637 704 615 L 697 583 Q 675 499 667 492 C 654 467 654 467 656 463 Z" fill="lightgray"></path>
				<path d="M 704 615 Q 700 619 691 620 Q 667 623 579 596 Q 563 593 582 578 Q 588 574 601 575 Q 653 581 697 583 C 727 584 729 598 704 615 Z" fill="lightgray"></path>
				<path d="M 526 446 Q 595 456 656 463 C 686 466 692 475 667 492 Q 642 517 531 488 Q 530 488 528 487 L 482 478 Q 403 466 333 453 C 303 448 303 418 333 421 Q 340 421 481 439 L 526 446 Z" fill="lightgray"></path>
				<path d="M 522 367 Q 523 407 526 446 L 528 487 Q 532 596 535 699 Q 539 739 544 767 Q 551 789 554 807 Q 558 819 536 835 Q 499 854 472 859 Q 454 862 446 853 Q 439 844 447 828 Q 475 788 476 760 Q 483 627 482 478 L 481 439 Q 480 400 478 358 C 477 328 521 337 522 367 Z" fill="lightgray"></path>
				<path d="M 545 131 Q 594 188 640 275 Q 658 305 682 322 Q 704 337 693 354 Q 680 369 647 386 Q 622 396 590 386 Q 559 376 522 367 L 478 358 Q 426 351 353 347 Q 337 347 332 340 Q 328 333 347 323 Q 386 305 440 318 Q 548 343 567 341 Q 589 334 578 312 Q 548 212 502 165 L 476 138 Q 389 59 202 17 Q 186 13 198 3 Q 205 -1 263 0 Q 335 4 417 42 Q 469 64 514 100 L 545 131 Z" fill="lightgray"></path>
				<path d="M 514 100 Q 518 97 522 92 Q 676 -59 732 -63 Q 801 -63 909 -40 Q 949 -33 945 -21 Q 944 -17 902 -7 Q 703 29 626 75 Q 599 91 545 131 L 502 165 Q 453 205 402 253 Q 363 290 328 288 Q 310 288 308 282 Q 307 275 322 266 Q 377 236 476 138 L 514 100 Z" fill="lightgray"></path>
</g>
		<text x="40" y="140" font-size="128" fill="#999999">2</text></g>
		<g id="id0:id2:id2" transform="matrix(1.0,0,0,1.0,2048,0.0)">			<g stroke="lightgray" stroke-width="4" transform="scale(4, 4)"> <rect x="0" y="0" width="256" height="256" fill="white" stroke-width="4"/></g>
			<g transform="scale(0.92, -0.92) translate(60, -920)">					<path d="M 298 632 Q 382 683 399 690 Q 417 697 409 712 Q 399 727 377 740 Q 358 752 347 750 Q 337 750 339 738 Q 342 719 278 645 C 258 622 272 616 298 632 Z" fill="black"></path>
				<path d="M 333 453 Q 330 472 316 533 L 310 562 Q 301 607 301 620 Q 300 627 298 632 C 295 641 295 641 278 645 Q 263 649 238 652 Q 225 655 221 649 Q 214 642 225 624 Q 258 564 282 465 Q 286 435 306 416 Q 327 392 331 410 Q 332 414 333 421 L 333 453 Z" fill="black"></path>
				<path d="M 316 533 Q 371 543 412 548 Q 434 552 425 565 Q 415 578 391 581 Q 354 584 310 562 C 283 549 286 528 316 533 Z" fill="red"></path>
				<path d="M 656 463 Q 657 462 659 457 Q 678 415 708 442 Q 730 461 736 484 Q 772 622 802 654 Q 820 673 807 692 Q 788 714 757 739 Q 739 749 720 744 Q 665 726 601 721 Q 577 720 582 708 Q 586 696 604 688 Q 620 685 682 695 Q 706 699 714 693 Q 721 687 715 659 Q 709 637 704 615 L 697 583 Q 675 499 667 492 C 654 467 654 467 656 463 Z" fill="lightgray"></path>
				<path d="M 704 615 Q 700 619 691 620 Q 667 623 579 596 Q 563 593 582 578 Q 588 574 601 575 Q 653 581 697 583 C 727 584 729 598 704 615 Z" fill="lightgray"></path>
				<path d="M 526 446 Q 595 456 656 463 C 686 466 692 475 667 492 Q 642 517 531 488 Q 530 488 528 487 L 482 478 Q 403 466 333 453 C 303 448 303 418 333 421 Q 340 421 481 439 L 526 446 Z" fill="lightgray"></path>
				<path d="M 522 367 Q 523 407 526 446 L 528 487 Q 532 596 535 699 Q 539 739 544 767 Q 551 789 554 807 Q 558 819 536 835 Q 499 854 472 859 Q 454 862 446 853 Q 439 844 447 828 Q 475 788 476 760 Q 483 627 482 478 L 481 439 Q 480 400 478 358 C 477 328 521 337 522 367 Z" fill="lightgray"></path>
				<path d="M 545 131 Q 594 188 640 275 Q 658 305 682 322 Q 704 337 693 354 Q 680 369 647 386 Q 622 396 590 386 Q 559 376 522 367 L 478 358 Q 426 351 353 347 Q 337 347 332 340 Q 328 333 347 323 Q 386 305 440 318 Q 548 343 567 341 Q 589 334 578 312 Q 548 212 502 165 L 476 138 Q 389 59 202 17 Q 186 13 198 3 Q 205 -1 263 0 Q 335 4 417 42 Q 469 64 514 100 L 545 131 Z" fill="lightgray"></path>
				<path d="M 514 100 Q 518 97 522 92 Q 676 -59 732 -63 Q 801 -63 909 -40 Q 949 -33 945 -21 Q 944 -17 902 -7 Q 703 29 626 75 Q 599 91 545 131 L 502 165 Q 453 205 402 253 Q 363 290 328 288 Q 310 288 308 282 Q 307 275 322 266 Q 377 236 476 138 L 514 100 Z" fill="lightgray"></path>
</g>
		<text x="40" y="140" font-size="128" fill="#999999">3</text></g>
		<g id="id0:id3:id3" transform="matrix(1.0,0,0,1.0,3072,0.0)">			<g stroke="lightgray" stroke-width="4" transform="scale(4, 4)"> <rect x="0" y="0" width="256" height="256" fill="white" stroke-width="4"/></g>
			<g transform="scale(0.92, -0.92) translate(60, -920)">					<path d="M 298 632 Q 382 683 399 690 Q 417 697 409 712 Q 399 727 377 740 Q 358 752 347 750 Q 337 750 339 738 Q 342 719 278 645 C 258 622 272 616 298 632 Z" fill="black"></path>
				<path d="M 333 453 Q 330 472 316 533 L 310 562 Q 301 607 301 620 Q 300 627 298 632 C 295 641 295 641 278 645 Q 263 649 238 652 Q 225 655 221 649 Q 214 642 225 624 Q 258 564 282 465 Q 286 435 306 416 Q 327 392 331 410 Q 332 414 333 421 L 333 453 Z" fill="black"></path>
				<path d="M 316 533 Q 371 543 412 548 Q 434 552 425 565 Q 415 578 391 581 Q 354 584 310 562 C 283 549 286 528 316 533 Z" fill="black"></path>
				<path d="M 656 463 Q 657 462 659 457 Q 678 415 708 442 Q 730 461 736 484 Q 772 622 802 654 Q 820 673 807 692 Q 788 714 757 739 Q 739 749 720 744 Q 665 726 601 721 Q 577 720 582 708 Q 586 696 604 688 Q 620 685 682 695 Q 706 699 714 693 Q 721 687 715 659 Q 709 637 704 615 L 697 583 Q 675 499 667 492 C 654 467 654 467 656 463 Z" fill="red"></path>
				<path d="M 704 615 Q 700 619 691 620 Q 667 623 579 596 Q 563 593 582 578 Q 588 574 601 575 Q 653 581 697 583 C 727 584 729 598 704 615 Z" fill="lightgray"></path>
				<path d="M 526 446 Q 595 456 656 463 C 686 466 692 475 667 492 Q 642 517 531 488 Q 530 488 528 487 L 482 478 Q 403 466 333 453 C 303 448 303 418 333 421 Q 340 421 481 439 L 526 446 Z" fill="lightgray"></path>
				<path d="M 522 367 Q 523 407 526 446 L 528 487 Q 532 596 535 699 Q 539 739 544 767 Q 551 789 554 807 Q 558 819 536 835 Q 499 854 472 859 Q 454 862 446 853 Q 439 844 447 828 Q 475 788 476 760 Q 483 627 482 478 L 481 439 Q 480 400 478 358 C 477 328 521 337 522 367 Z" fill="lightgray"></path>
				<path d="M 545 131 Q 594 188 640 275 Q 658 305 682 322 Q 704 337 693 354 Q 680 369 647 386 Q 622 396 590 386 Q 559 376 522 367 L 478 358 Q 426 351 353 347 Q 337 347 332 340 Q 328 333 347 323 Q 386 305 440 318 Q 548 343 567 341 Q 589 334 578 312 Q 548 212 502 165 L 476 138 Q 389 59 202 17 Q 186 13 198 3 Q 205 -1 263 0 Q 335 4 417 42 Q 469 64 514 100 L 545 131 Z" fill="lightgray"></path>
				<path d="M 514 100 Q 518 97 522 92 Q 676 -59 732 -63 Q 801 -63 909 -40 Q 949 -33 945 -21 Q 944 -17 902 -7 Q 703 29 626 75 Q 599 91 545 131 L 502 165 Q 453 205 402 253 Q 363 290 328 288 Q 310 288 308 282 Q 307 275 322 266 Q 377 236 476 138 L 514 100 Z" fill="lightgray"></path>
</g>
		<text x="40" y="140" font-size="128" fill="#999999">4</text></g>
		<g id="id0:id4:id4" transform="matrix(1.0,0,0,1.0,4096,0.0)">			<g stroke="lightgray" stroke-width="4" transform="scale(4, 4)"> <rect x="0" y="0" width="256" height="256" fill="white" stroke-width="4"/></g>
			<g transform="scale(0.92, -0.92) translate(60, -920)">					<path d="M 298 632 Q 382 683 399 690 Q 417 697 409 712 Q 399 727 377 740 Q 358 752 347 750 Q 337 750 339 738 Q 342 719 278 645 C 258 622 272 616 298 632 Z" fill="black"></path>
				<path d="M 333 453 Q 330 472 316 533 L 310 562 Q 301 607 301 620 Q 300 627 298 632 C 295 641 295 641 278 645 Q 263 649 238 652 Q 225 655 221 649 Q 214 642 225 624 Q 258 564 282 465 Q 286 435 306 416 Q 327 392 331 410 Q 332 414 333 421 L 333 453 Z" fill="black"></path>
				<path d="M 316 533 Q 371 543 412 548 Q 434 552 425 565 Q 415 578 391 581 Q 354 584 310 562 C 283 549 286 528 316 533 Z" fill="black"></path>
				<path d="M 656 463 Q 657 462 659 457 Q 678 415 708 442 Q 730 461 736 484 Q 772 622 802 654 Q 820 673 807 692 Q 788 714 757 739 Q 739 749 720 744 Q 665 726 601 721 Q 577 720 582 708 Q 586 696 604 688 Q 620 685 682 695 Q 706 699 714 693 Q 721 687 715 659 Q 709 637 704 615 L 697 583 Q 675 499 667 492 C 654 467 654 467 656 463 Z" fill="black"></path>
				<path d="M 704 615 Q 700 619 691 620 Q 667 623 579 596 Q 563 593 582 578 Q 588 574 601 575 Q 653 581 697 583 C 727 584 729 598 704 615 Z" fill="red"></path>
				<path d="M 526 446 Q 595 456 656 463 C 686 466 692 475 667 492 Q 642 517 531 488 Q 530 488 528 487 L 482 478 Q 403 466 333 453 C 303 448 303 418 333 421 Q 340 421 481 439 L 526 446 Z" fill="lightgray"></path>
				<path d="M 522 367 Q 523 407 526 446 L 528 487 Q 532 596 535 699 Q 539 739 544 767 Q 551 789 554 807 Q 558 819 536 835 Q 499 854 472 859 Q 454 862 446 853 Q 439 844 447 828 Q 475 788 476 760 Q 483 627 482 478 L 481 439 Q 480 400 478 358 C 477 328 521 337 522 367 Z" fill="lightgray"></path>
				<path d="M 545 131 Q 594 188 640 275 Q 658 305 682 322 Q 704 337 693 354 Q 680 369 647 386 Q 622 396 590 386 Q 559 376 522 367 L 478 358 Q 426 351 353 347 Q 337 347 332 340 Q 328 333 347 323 Q 386 305 440 318 Q 548 343 567 341 Q 589 334 578 312 Q 548 212 502 165 L 476 138 Q 389 59 202 17 Q 186 13 198 3 Q 205 -1 263 0 Q 335 4 417 42 Q 469 64 514 100 L 545 131 Z" fill="lightgray"></path>
				<path d="M 514 100 Q 518 97 522 92 Q 676 -59 732 -63 Q 801 -63 909 -40 Q 949 -33 945 -21 Q 944 -17 902 -7 Q 703 29 626 75 Q 599 91 545 131 L 502 165 Q 453 205 402 253 Q 363 290 328 288 Q 310 288 308 282 Q 307 275 322 266 Q 377 236 476 138 L 514 100 Z" fill="lightgray"></path>
</g>
		<text x="40" y="140" font-size="128" fill="#999999">5</text></g>
</g>
	<g id="id1:id1" transform="translate(0.0,1024)">
		<g id="id1:id0:id0" transform="matrix(1.0,0,0,1.0,0,0.0)">			<g stroke="lightgray" stroke-width="4" transform="scale(4, 4)"> <rect x="0" y="0" width="256" height="256" fill="white" stroke-width="4"/></g>
			<g transform="scale(0.92, -0.92) translate(60, -920)">					<path d="M 298 632 Q 382 683 399 690 Q 417 697 409 712 Q 399 727 377 740 Q 358 752 347 750 Q 337 750 339 738 Q 342 719 278 645 C 258 622 272 616 298 632 Z" fill="black"></path>
				<path d="M 333 453 Q 330 472 316 533 L 310 562 Q 301 607 301 620 Q 300 627 298 632 C 295 641 295 641 278 645 Q 263 649 238 652 Q 225 655 221 649 Q 214 642 225 624 Q 258 564 282 465 Q 286 435 306 416 Q 327 392 331 410 Q 332 414 333 421 L 333 453 Z" fill="black"></path>
				<path d="M 316 533 Q 371 543 412 548 Q 434 552 425 565 Q 415 578 391 581 Q 354 584 310 562 C 283 549 286 528 316 533 Z" fill="black"></path>
				<path d="M 656 463 Q 657 462 659 457 Q 678 415 708 442 Q 730 461 736 484 Q 772 622 802 654 Q 820 673 807 692 Q 788 714 757 739 Q 739 749 720 744 Q 665 726 601 721 Q 577 720 582 708 Q 586 696 604 688 Q 620 685 682 695 Q 706 699 714 693 Q 721 687 715 659 Q 709 637 704 615 L 697 583 Q 675 499 667 492 C 654 467 654 467 656 463 Z" fill="black"></path>
				<path d="M 704 615 Q 700 619 691 620 Q 667 623 579 596 Q 563 593 582 578 Q 588 574 601 575 Q 653 581 697 583 C 727 584 729 598 704 615 Z" fill="black"></path>
				<path d="M 526 446 Q 595 456 656 463 C 686 466 692 475 667 492 Q 642 517 531 488 Q 530 488 528 487 L 482 478 Q 403 466 333 453 C 303 448 303 418 333 421 Q 340 421 481 439 L 526 446 Z" fill="red"></path>
				<path d="M 522 367 Q 523 407 526 446 L 528 487 Q 532 596 535 699 Q 539 739 544 767 Q 551 789 554 807 Q 558 819 536 835 Q 499 854 472 859 Q 454 862 446 853 Q 439 844 447 828 Q 475 788 476 760 Q 483 627 482 478 L 481 439 Q 480 400 478 358 C 477 328 521 337 522 367 Z" fill="lightgray"></path>
				<path d="M 545 131 Q 594 188 640 275 Q 658 305 682 322 Q 704 337 693 354 Q 680 369 647 386 Q 622 396 590 386 Q 559 376 522 367 L 478 358 Q 426 351 353 347 Q 337 347 332 340 Q 328 333 347 323 Q 386 305 440 318 Q 548 343 567 341 Q 589 334 578 312 Q 548 212 502 165 L 476 138 Q 389 59 202 17 Q 186 13 198 3 Q 205 -1 263 0 Q 335 4 417 42 Q 469 64 514 100 L 545 131 Z" fill="lightgray"></path>
				<path d="M 514 100 Q 518 97 522 92 Q 676 -59 732 -63 Q 801 -63 909 -40 Q 949 -33 945 -21 Q 944 -17 902 -7 Q 703 29 626 75 Q 599 91 545 131 L 502 165 Q 453 205 402 253 Q 363 290 328 288 Q 310 288 308 282 Q 307 275 322 266 Q 377 236 476 138 L 514 100 Z" fill="lightgray"></path>
</g>
		<text x="40" y="140" font-size="128" fill="#999999">6</text></g>
		<g id="id1:id1:id1" transform="matrix(1.0,0,0,1.0,1024,0.0)">			<g stroke="lightgray" stroke-width="4" transform="scale(4, 4)"> <rect x="0" y="0" width="256" height="256" fill="white" stroke-width="4"/></g>
			<g transform="scale(0.92, -0.92) translate(60, -920)">					<path d="M 298 632 Q 382 683 399 690 Q 417 697 409 712 Q 399 727 377 740 Q 358 752 347 750 Q 337 750 339 738 Q 342 719 278 645 C 258 622 272 616 298 632 Z" fill="black"></path>
				<path d="M 333 453 Q 330 472 316 533 L 310 562 Q 301 607 301 620 Q 300 627 298 632 C 295 641 295 641 278 645 Q 263 649 238 652 Q 225 655 221 649 Q 214 642 225 624 Q 258 564 282 465 Q 286 435 306 416 Q 327 392 331 410 Q 332 414 333 421 L 333 453 Z" fill="black"></path>
				<path d="M 316 533 Q 371 543 412 548 Q 434 552 425 565 Q 415 578 391 581 Q 354 584 310 562 C 283 549 286 528 316 533 Z" fill="black"></path>
				<path d="M 656 463 Q 657 462 659 457 Q 678 415 708 442 Q 730 461 736 484 Q 772 622 802 654 Q 820 673 807 692 Q 788 714 757 739 Q 739 749 720 744 Q 665 726 601 721 Q 577 720 582 708 Q 586 696 604 688 Q 620 685 682 695 Q 706 699 714 693 Q 721 687 715 659 Q 709 637 704 615 L 697 583 Q 675 499 667 492 C 654 467 654 467 656 463 Z" fill="black"></path>
				<path d="M 704 615 Q 700 619 691 620 Q 667 623 579 596 Q 563 593 582 578 Q 588 574 601 575 Q 653 581 697 583 C 727 584 729 598 704 615 Z" fill="black"></path>
				<path d="M 526 446 Q 595 456 656 463 C 686 466 692 475 667 492 Q 642 517 531 488 Q 530 488 528 487 L 482 478 Q 403 466 333 453 C 303 448 303 418 333 421 Q 340 421 481 439 L 526 446 Z" fill="black"></path>
				<path d="M 522 367 Q 523 407 526 446 L 528 487 Q 532 596 535 699 Q 539 739 544 767 Q 551 789 554 807 Q 558 819 536 835 Q 499 854 472 859 Q 454 862 446 853 Q 439 844 447 828 Q 475 788 476 760 Q 483 627 482 478 L 481 439 Q 480 400 478 358 C 477 328 521 337 522 367 Z" fill="red"></path>
				<path d="M 545 131 Q 594 188 640 275 Q 658 305 682 322 Q 704 337 693 354 Q 680 369 647 386 Q 622 396 590 386 Q 559 376 522 367 L 478 358 Q 426 351 353 347 Q 337 347 332 340 Q 328 333 347 323 Q 386 305 440 318 Q 548 343 567 341 Q 589 334 578 312 Q 548 212 502 165 L 476 138 Q 389 59 202 17 Q 186 13 198 3 Q 205 -1 263 0 Q 335 4 417 42 Q 469 64 514 100 L 545 131 Z" fill="lightgray"></path>
				<path d="M 514 100 Q 518 97 522 92 Q 676 -59 732 -63 Q 801 -63 909 -40 Q 949 -33 945 -21 Q 944 -17 902 -7 Q 703 29 626 75 Q 599 91 545 131 L 502 165 Q 453 205 402 253 Q 363 290 328 288 Q 310 288 308 282 Q 307 275 322 266 Q 377 236 476 138 L 514 100 Z" fill="lightgray"></path>
</g>
		<text x="40" y="140" font-size="128" fill="#999999">7</text></g>
		<g id="id1:id2:id2" transform="matrix(1.0,0,0,1.0,2048,0.0)">			<g stroke="lightgray" stroke-width="4" transform="scale(4, 4)"> <rect x="0" y="0" width="256" height="256" fill="white" stroke-width="4"/></g>
			<g transform="scale(0.92, -0.92) translate(60, -920)">					<path d="M 298 632 Q 382 683 399 690 Q 417 697 409 712 Q 399 727 377 740 Q 358 752 347 750 Q 337 750 339 738 Q 342 719 278 645 C 258 622 272 616 298 632 Z" fill="black"></path>
				<path d="M 333 453 Q 330 472 316 533 L 310 562 Q 301 607 301 620 Q 300 627 298 632 C 295 641 295 641 278 645 Q 263 649 238 652 Q 225 655 221 649 Q 214 642 225 624 Q 258 564 282 465 Q 286 435 306 416 Q 327 392 331 410 Q 332 414 333 421 L 333 453 Z" fill="black"></path>
				<path d="M 316 533 Q 371 543 412 548 Q 434 552 425 565 Q 415 578 391 581 Q 354 584 310 562 C 283 549 286 528 316 533 Z" fill="black"></path>
				<path d="M 656 463 Q 657 462 659 457 Q 678 415 708 442 Q 730 461 736 484 Q 772 622 802 654 Q 820 673 807 692 Q 788 714 757 739 Q 739 749 720 744 Q 665 726 601 721 Q 577 720 582 708 Q 586 696 604 688 Q 620 685 682 695 Q 706 699 714 693 Q 721 687 715 659 Q 709 637 704 615 L 697 583 Q 675 499 667 492 C 654 467 654 467 656 463 Z" fill="black"></path>
				<path d="M 704 615 Q 700 619 691 620 Q 667 623 579 596 Q 563 593 582 578 Q 588 574 601 575 Q 653 581 697 583 C 727 584 729 598 704 615 Z" fill="black"></path>
				<path d="M 526 446 Q 595 456 656 463 C 686 466 692 475 667 492 Q 642 517 531 488 Q 530 488 528 487 L 482 478 Q 403 466 333 453 C 303 448 303 418 333 421 Q 340 421 481 439 L 526 446 Z" fill="black"></path>
				<path d="M 522 367 Q 523 407 526 446 L 528 487 Q 532 596 535 699 Q 539 739 544 767 Q 551 789 554 807 Q 558 819 536 835 Q 499 854 472 859 Q 454 862 446 853 Q 439 844 447 828 Q 475 788 476 760 Q 483 627 482 478 L 481 439 Q 480 400 478 358 C 477 328 521 337 522 367 Z" fill="black"></path>
				<path d="M 545 131 Q 594 188 640 275 Q 658 305 682 322 Q 704 337 693 354 Q 680 369 647 386 Q 622 396 590 386 Q 559 376 522 367 L 478 358 Q 426 351 353 347 Q 337 347 332 340 Q 328 333 347 323 Q 386 305 440 318 Q 548 343 567 341 Q 589 334 578 312 Q 548 212 502 165 L 476 138 Q 389 59 202 17 Q 186 13 198 3 Q 205 -1 263 0 Q 335 4 417 42 Q 469 64 514 100 L 545 131 Z" fill="red"></path>
				<path d="M 514 100 Q 518 97 522 92 Q 676 -59 732 -63 Q 801 -63 909 -40 Q 949 -33 945 -21 Q 944 -17 902 -7 Q 703 29 626 75 Q 599 91 545 131 L 502 165 Q 453 205 402 253 Q 363 290 328 288 Q 310 288 308 282 Q 307 275 322 266 Q 377 236 476 138 L 514 100 Z" fill="lightgray"></path>
</g>
		<text x="40" y="140" font-size="128" fill="#999999">8</text></g>
		<g id="id1:id3:id3" transform="matrix(1.0,0,0,1.0,3072,0.0)">			<g stroke="lightgray" stroke-width="4" transform="scale(4, 4)"> <rect x="0" y="0" width="256" height="256" fill="white" stroke-width="4"/></g>
			<g transform="scale(0.92, -0.92) translate(60, -920)">					<path d="M 298 632 Q 382 683 399 690 Q 417 697 409 712 Q 399 727 377 740 Q 358 752 347 750 Q 337 750 339 738 Q 342 719 278 645 C 258 622 272 616 298 632 Z" fill="black"></path>
				<path d="M 333 453 Q 330 472 316 533 L 310 562 Q 301 607 301 620 Q 300 627 298 632 C 295 641 295 641 278 645 Q 263 649 238 652 Q 225 655 221 649 Q 214 642 225 624 Q 258 564 282 465 Q 286 435 306 416 Q 327 392 331 410 Q 332 414 333 421 L 333 453 Z" fill="black"></path>
				<path d="M 316 533 Q 371 543 412 548 Q 434 552 425 565 Q 415 578 391 581 Q 354 584 310 562 C 283 549 286 528 316 533 Z" fill="black"></path>
				<path d="M 656 463 Q 657 462 659 457 Q 678 415 708 442 Q 730 461 736 484 Q 772 622 802 654 Q 820 673 807 692 Q 788 714 757 739 Q 739 749 720 744 Q 665 726 601 721 Q 577 720 582 708 Q 586 696 604 688 Q 620 685 682 695 Q 706 699 714 693 Q 721 687 715 659 Q 709 637 704 615 L 697 583 Q 675 499 667 492 C 654 467 654 467 656 463 Z" fill="black"></path>
				<path d="M 704 615 Q 700 619 691 620 Q 667 623 579 596 Q 563 593 582 578 Q 588 574 601 575 Q 653 581 697 583 C 727 584 729 598 704 615 Z" fill="black"></path>
				<path d="M 526 446 Q 595 456 656 463 C 686 466 692 475 667 492 Q 642 517 531 488 Q 530 488 528 487 L 482 478 Q 403 466 333 453 C 303 448 303 418 333 421 Q 340 421 481 439 L 526 446 Z" fill="black"></path>
				<path d="M 522 367 Q 523 407 526 446 L 528 487 Q 532 596 535 699 Q 539 739 544 767 Q 551 789 554 807 Q 558 819 536 835 Q 499 854 472 859 Q 454 862 446 853 Q 439 844 447 828 Q 475 788 476 760 Q 483 627 482 478 L 481 439 Q 480 400 478 358 C 477 328 521 337 522 367 Z" fill="black"></path>
				<path d="M 545 131 Q 594 188 640 275 Q 658 305 682 322 Q 704 337 693 354 Q 680 369 647 386 Q 622 396 590 386 Q 559 376 522 367 L 478 358 Q 426 351 353 347 Q 337 347 332 340 Q 328 333 347 323 Q 386 305 440 318 Q 548 343 567 341 Q 589 334 578 312 Q 548 212 502 165 L 476 138 Q 389 59 202 17 Q 186 13 198 3 Q 205 -1 263 0 Q 335 4 417 42 Q 469 64 514 100 L 545 131 Z" fill="black"></path>
				<path d="M 514 100 Q 518 97 522 92 Q 676 -59 732 -63 Q 801 -63 909 -40 Q 949 -33 945 -21 Q 944 -17 902 -7 Q 703 29 626 75 Q 599 91 545 131 L 502 165 Q 453 205 402 253 Q 363 290 328 288 Q 310 288 308 282 Q 307 275 322 266 Q 377 236 476 138 L 514 100 Z" fill="red"></path>
</g>
		<text x="40" y="140" font-size="128" fill="#999999">9</text></g>
		<g id="id1:id4:id4" transform="matrix(1.0,0,0,1.0,4096,0.0)">			<g stroke="white" stroke-width="4" transform="scale(4, 4)"> <rect x="1" y="1" width="255" height="255" fill="white" stroke-width="0"/></g>
</g>
</g>
</svg>
