<?xml version="1.0" standalone="no"?>
<!DOCTYPE svg PUBLIC "-//W3C//DTD SVG 1.1//EN"
 "http://www.w3.org/Graphics/SVG/1.1/DTD/svg11.dtd">
<!-- generate by Japanese dictionary app com.asnsami.kanjidictionary -->

<svg xmlns="http://www.w3.org/2000/svg" xmlns:sodipodi="http://sodipodi.sourceforge.net/DTD/sodipodi-0.dtd" version="1.1" width="640" height="256" viewBox="0 0 5120 2048">
	<g id="id0:id0" transform="translate(0.0,0)">
		<g id="id0:id0:id0" transform="matrix(1.0,0,0,1.0,0,0.0)">			<g stroke="lightgray" stroke-width="4" transform="scale(4, 4)"> <rect x="0" y="0" width="256" height="256" fill="white" stroke-width="4"/></g>
			<g transform="scale(0.92, -0.92) translate(60, -920)">					<path d="M 93 580 Q 83 584 62 589 Q 50 593 47 588 Q 40 582 48 567 Q 78 492 89 373 Q 90 336 109 312 Q 125 290 131 305 Q 138 327 134 370 L 129 405 Q 113 528 112 555 C 111 574 111 574 93 580 Z" fill="red"></path>
				<path d="M 280 439 Q 293 538 318 568 Q 340 596 314 610 Q 293 620 264 636 Q 245 646 225 633 Q 189 605 93 580 C 64 572 83 549 112 555 Q 172 567 233 580 Q 234 580 236 577 Q 245 570 227 441 C 223 411 276 409 280 439 Z" fill="lightgray"></path>
				<path d="M 134 370 Q 144 370 155 374 Q 198 387 295 406 Q 305 409 306 418 Q 306 425 280 439 L 227 441 Q 223 441 221 439 Q 169 418 129 405 C 100 396 104 368 134 370 Z" fill="lightgray"></path>
				<path d="M 566 693 Q 593 759 601 767 Q 608 774 605 785 Q 593 813 547 821 Q 523 825 511 821 Q 502 817 507 804 Q 540 699 397 467 Q 391 460 385 450 Q 342 384 227 253 Q 220 246 231 245 Q 292 260 422 421 Q 494 529 554 664 L 566 693 Z" fill="lightgray"></path>
				<path d="M 554 664 Q 567 636 644 528 Q 717 425 772 368 Q 797 340 821 340 Q 894 344 957 349 Q 984 350 984 357 Q 985 364 955 377 Q 802 435 758 477 Q 638 591 566 693 C 548 717 540 690 554 664 Z" fill="lightgray"></path>
				<path d="M 492 425 Q 540 374 575 361 Q 590 358 599 372 Q 605 385 601 403 Q 589 442 526 459 Q 489 469 477 464 Q 470 463 474 450 Q 475 438 492 425 Z" fill="lightgray"></path>
				<path d="M 380 250 Q 347 250 350 243 Q 343 227 370 214 Q 398 193 415 196 Q 433 196 458 211 Q 626 286 645 259 Q 652 246 639 226 Q 630 211 610 161 Q 576 86 560 73 Q 530 43 543 -3 Q 547 -24 556 -28 Q 565 -32 578 -21 Q 606 0 676 179 Q 694 228 727 252 Q 736 259 737 269 Q 738 282 704 302 Q 670 323 653 324 Q 646 323 638 317 Q 538 272 380 250 Z" fill="lightgray"></path>
</g>
		<text x="40" y="140" font-size="128" fill="#999999">1</text></g>
		<g id="id0:id1:id1" transform="matrix(1.0,0,0,1.0,1024,0.0)">			<g stroke="lightgray" stroke-width="4" transform="scale(4, 4)"> <rect x="0" y="0" width="256" height="256" fill="white" stroke-width="4"/></g>
			<g transform="scale(0.92, -0.92) translate(60, -920)">					<path d="M 93 580 Q 83 584 62 589 Q 50 593 47 588 Q 40 582 48 567 Q 78 492 89 373 Q 90 336 109 312 Q 125 290 131 305 Q 138 327 134 370 L 129 405 Q 113 528 112 555 C 111 574 111 574 93 580 Z" fill="black"></path>
				<path d="M 280 439 Q 293 538 318 568 Q 340 596 314 610 Q 293 620 264 636 Q 245 646 225 633 Q 189 605 93 580 C 64 572 83 549 112 555 Q 172 567 233 580 Q 234 580 236 577 Q 245 570 227 441 C 223 411 276 409 280 439 Z" fill="red"></path>
				<path d="M 134 370 Q 144 370 155 374 Q 198 387 295 406 Q 305 409 306 418 Q 306 425 280 439 L 227 441 Q 223 441 221 439 Q 169 418 129 405 C 100 396 104 368 134 370 Z" fill="lightgray"></path>
				<path d="M 566 693 Q 593 759 601 767 Q 608 774 605 785 Q 593 813 547 821 Q 523 825 511 821 Q 502 817 507 804 Q 540 699 397 467 Q 391 460 385 450 Q 342 384 227 253 Q 220 246 231 245 Q 292 260 422 421 Q 494 529 554 664 L 566 693 Z" fill="lightgray"></path>
				<path d="M 554 664 Q 567 636 644 528 Q 717 425 772 368 Q 797 340 821 340 Q 894 344 957 349 Q 984 350 984 357 Q 985 364 955 377 Q 802 435 758 477 Q 638 591 566 693 C 548 717 540 690 554 664 Z" fill="lightgray"></path>
				<path d="M 492 425 Q 540 374 575 361 Q 590 358 599 372 Q 605 385 601 403 Q 589 442 526 459 Q 489 469 477 464 Q 470 463 474 450 Q 475 438 492 425 Z" fill="lightgray"></path>
				<path d="M 380 250 Q 347 250 350 243 Q 343 227 370 214 Q 398 193 415 196 Q 433 196 458 211 Q 626 286 645 259 Q 652 246 639 226 Q 630 211 610 161 Q 576 86 560 73 Q 530 43 543 -3 Q 547 -24 556 -28 Q 565 -32 578 -21 Q 606 0 676 179 Q 694 228 727 252 Q 736 259 737 269 Q 738 282 704 302 Q 670 323 653 324 Q 646 323 638 317 Q 538 272 380 250 Z" fill="lightgray"></path>
</g>
		<text x="40" y="140" font-size="128" fill="#999999">2</text></g>
		<g id="id0:id2:id2" transform="matrix(1.0,0,0,1.0,2048,0.0)">			<g stroke="lightgray" stroke-width="4" transform="scale(4, 4)"> <rect x="0" y="0" width="256" height="256" fill="white" stroke-width="4"/></g>
			<g transform="scale(0.92, -0.92) translate(60, -920)">					<path d="M 93 580 Q 83 584 62 589 Q 50 593 47 588 Q 40 582 48 567 Q 78 492 89 373 Q 90 336 109 312 Q 125 290 131 305 Q 138 327 134 370 L 129 405 Q 113 528 112 555 C 111 574 111 574 93 580 Z" fill="black"></path>
				<path d="M 280 439 Q 293 538 318 568 Q 340 596 314 610 Q 293 620 264 636 Q 245 646 225 633 Q 189 605 93 580 C 64 572 83 549 112 555 Q 172 567 233 580 Q 234 580 236 577 Q 245 570 227 441 C 223 411 276 409 280 439 Z" fill="black"></path>
				<path d="M 134 370 Q 144 370 155 374 Q 198 387 295 406 Q 305 409 306 418 Q 306 425 280 439 L 227 441 Q 223 441 221 439 Q 169 418 129 405 C 100 396 104 368 134 370 Z" fill="red"></path>
				<path d="M 566 693 Q 593 759 601 767 Q 608 774 605 785 Q 593 813 547 821 Q 523 825 511 821 Q 502 817 507 804 Q 540 699 397 467 Q 391 460 385 450 Q 342 384 227 253 Q 220 246 231 245 Q 292 260 422 421 Q 494 529 554 664 L 566 693 Z" fill="lightgray"></path>
				<path d="M 554 664 Q 567 636 644 528 Q 717 425 772 368 Q 797 340 821 340 Q 894 344 957 349 Q 984 350 984 357 Q 985 364 955 377 Q 802 435 758 477 Q 638 591 566 693 C 548 717 540 690 554 664 Z" fill="lightgray"></path>
				<path d="M 492 425 Q 540 374 575 361 Q 590 358 599 372 Q 605 385 601 403 Q 589 442 526 459 Q 489 469 477 464 Q 470 463 474 450 Q 475 438 492 425 Z" fill="lightgray"></path>
				<path d="M 380 250 Q 347 250 350 243 Q 343 227 370 214 Q 398 193 415 196 Q 433 196 458 211 Q 626 286 645 259 Q 652 246 639 226 Q 630 211 610 161 Q 576 86 560 73 Q 530 43 543 -3 Q 547 -24 556 -28 Q 565 -32 578 -21 Q 606 0 676 179 Q 694 228 727 252 Q 736 259 737 269 Q 738 282 704 302 Q 670 323 653 324 Q 646 323 638 317 Q 538 272 380 250 Z" fill="lightgray"></path>
</g>
		<text x="40" y="140" font-size="128" fill="#999999">3</text></g>
		<g id="id0:id3:id3" transform="matrix(1.0,0,0,1.0,3072,0.0)">			<g stroke="lightgray" stroke-width="4" transform="scale(4, 4)"> <rect x="0" y="0" width="256" height="256" fill="white" stroke-width="4"/></g>
			<g transform="scale(0.92, -0.92) translate(60, -920)">					<path d="M 93 580 Q 83 584 62 589 Q 50 593 47 588 Q 40 582 48 567 Q 78 492 89 373 Q 90 336 109 312 Q 125 290 131 305 Q 138 327 134 370 L 129 405 Q 113 528 112 555 C 111 574 111 574 93 580 Z" fill="black"></path>
				<path d="M 280 439 Q 293 538 318 568 Q 340 596 314 610 Q 293 620 264 636 Q 245 646 225 633 Q 189 605 93 580 C 64 572 83 549 112 555 Q 172 567 233 580 Q 234 580 236 577 Q 245 570 227 441 C 223 411 276 409 280 439 Z" fill="black"></path>
				<path d="M 134 370 Q 144 370 155 374 Q 198 387 295 406 Q 305 409 306 418 Q 306 425 280 439 L 227 441 Q 223 441 221 439 Q 169 418 129 405 C 100 396 104 368 134 370 Z" fill="black"></path>
				<path d="M 566 693 Q 593 759 601 767 Q 608 774 605 785 Q 593 813 547 821 Q 523 825 511 821 Q 502 817 507 804 Q 540 699 397 467 Q 391 460 385 450 Q 342 384 227 253 Q 220 246 231 245 Q 292 260 422 421 Q 494 529 554 664 L 566 693 Z" fill="red"></path>
				<path d="M 554 664 Q 567 636 644 528 Q 717 425 772 368 Q 797 340 821 340 Q 894 344 957 349 Q 984 350 984 357 Q 985 364 955 377 Q 802 435 758 477 Q 638 591 566 693 C 548 717 540 690 554 664 Z" fill="lightgray"></path>
				<path d="M 492 425 Q 540 374 575 361 Q 590 358 599 372 Q 605 385 601 403 Q 589 442 526 459 Q 489 469 477 464 Q 470 463 474 450 Q 475 438 492 425 Z" fill="lightgray"></path>
				<path d="M 380 250 Q 347 250 350 243 Q 343 227 370 214 Q 398 193 415 196 Q 433 196 458 211 Q 626 286 645 259 Q 652 246 639 226 Q 630 211 610 161 Q 576 86 560 73 Q 530 43 543 -3 Q 547 -24 556 -28 Q 565 -32 578 -21 Q 606 0 676 179 Q 694 228 727 252 Q 736 259 737 269 Q 738 282 704 302 Q 670 323 653 324 Q 646 323 638 317 Q 538 272 380 250 Z" fill="lightgray"></path>
</g>
		<text x="40" y="140" font-size="128" fill="#999999">4</text></g>
		<g id="id0:id4:id4" transform="matrix(1.0,0,0,1.0,4096,0.0)">			<g stroke="lightgray" stroke-width="4" transform="scale(4, 4)"> <rect x="0" y="0" width="256" height="256" fill="white" stroke-width="4"/></g>
			<g transform="scale(0.92, -0.92) translate(60, -920)">					<path d="M 93 580 Q 83 584 62 589 Q 50 593 47 588 Q 40 582 48 567 Q 78 492 89 373 Q 90 336 109 312 Q 125 290 131 305 Q 138 327 134 370 L 129 405 Q 113 528 112 555 C 111 574 111 574 93 580 Z" fill="black"></path>
				<path d="M 280 439 Q 293 538 318 568 Q 340 596 314 610 Q 293 620 264 636 Q 245 646 225 633 Q 189 605 93 580 C 64 572 83 549 112 555 Q 172 567 233 580 Q 234 580 236 577 Q 245 570 227 441 C 223 411 276 409 280 439 Z" fill="black"></path>
				<path d="M 134 370 Q 144 370 155 374 Q 198 387 295 406 Q 305 409 306 418 Q 306 425 280 439 L 227 441 Q 223 441 221 439 Q 169 418 129 405 C 100 396 104 368 134 370 Z" fill="black"></path>
				<path d="M 566 693 Q 593 759 601 767 Q 608 774 605 785 Q 593 813 547 821 Q 523 825 511 821 Q 502 817 507 804 Q 540 699 397 467 Q 391 460 385 450 Q 342 384 227 253 Q 220 246 231 245 Q 292 260 422 421 Q 494 529 554 664 L 566 693 Z" fill="black"></path>
				<path d="M 554 664 Q 567 636 644 528 Q 717 425 772 368 Q 797 340 821 340 Q 894 344 957 349 Q 984 350 984 357 Q 985 364 955 377 Q 802 435 758 477 Q 638 591 566 693 C 548 717 540 690 554 664 Z" fill="red"></path>
				<path d="M 492 425 Q 540 374 575 361 Q 590 358 599 372 Q 605 385 601 403 Q 589 442 526 459 Q 489 469 477 464 Q 470 463 474 450 Q 475 438 492 425 Z" fill="lightgray"></path>
				<path d="M 380 250 Q 347 250 350 243 Q 343 227 370 214 Q 398 193 415 196 Q 433 196 458 211 Q 626 286 645 259 Q 652 246 639 226 Q 630 211 610 161 Q 576 86 560 73 Q 530 43 543 -3 Q 547 -24 556 -28 Q 565 -32 578 -21 Q 606 0 676 179 Q 694 228 727 252 Q 736 259 737 269 Q 738 282 704 302 Q 670 323 653 324 Q 646 323 638 317 Q 538 272 380 250 Z" fill="lightgray"></path>
</g>
		<text x="40" y="140" font-size="128" fill="#999999">5</text></g>
</g>
	<g id="id1:id1" transform="translate(0.0,1024)">
		<g id="id1:id0:id0" transform="matrix(1.0,0,0,1.0,0,0.0)">			<g stroke="lightgray" stroke-width="4" transform="scale(4, 4)"> <rect x="0" y="0" width="256" height="256" fill="white" stroke-width="4"/></g>
			<g transform="scale(0.92, -0.92) translate(60, -920)">					<path d="M 93 580 Q 83 584 62 589 Q 50 593 47 588 Q 40 582 48 567 Q 78 492 89 373 Q 90 336 109 312 Q 125 290 131 305 Q 138 327 134 370 L 129 405 Q 113 528 112 555 C 111 574 111 574 93 580 Z" fill="black"></path>
				<path d="M 280 439 Q 293 538 318 568 Q 340 596 314 610 Q 293 620 264 636 Q 245 646 225 633 Q 189 605 93 580 C 64 572 83 549 112 555 Q 172 567 233 580 Q 234 580 236 577 Q 245 570 227 441 C 223 411 276 409 280 439 Z" fill="black"></path>
				<path d="M 134 370 Q 144 370 155 374 Q 198 387 295 406 Q 305 409 306 418 Q 306 425 280 439 L 227 441 Q 223 441 221 439 Q 169 418 129 405 C 100 396 104 368 134 370 Z" fill="black"></path>
				<path d="M 566 693 Q 593 759 601 767 Q 608 774 605 785 Q 593 813 547 821 Q 523 825 511 821 Q 502 817 507 804 Q 540 699 397 467 Q 391 460 385 450 Q 342 384 227 253 Q 220 246 231 245 Q 292 260 422 421 Q 494 529 554 664 L 566 693 Z" fill="black"></path>
				<path d="M 554 664 Q 567 636 644 528 Q 717 425 772 368 Q 797 340 821 340 Q 894 344 957 349 Q 984 350 984 357 Q 985 364 955 377 Q 802 435 758 477 Q 638 591 566 693 C 548 717 540 690 554 664 Z" fill="black"></path>
				<path d="M 492 425 Q 540 374 575 361 Q 590 358 599 372 Q 605 385 601 403 Q 589 442 526 459 Q 489 469 477 464 Q 470 463 474 450 Q 475 438 492 425 Z" fill="red"></path>
				<path d="M 380 250 Q 347 250 350 243 Q 343 227 370 214 Q 398 193 415 196 Q 433 196 458 211 Q 626 286 645 259 Q 652 246 639 226 Q 630 211 610 161 Q 576 86 560 73 Q 530 43 543 -3 Q 547 -24 556 -28 Q 565 -32 578 -21 Q 606 0 676 179 Q 694 228 727 252 Q 736 259 737 269 Q 738 282 704 302 Q 670 323 653 324 Q 646 323 638 317 Q 538 272 380 250 Z" fill="lightgray"></path>
</g>
		<text x="40" y="140" font-size="128" fill="#999999">6</text></g>
		<g id="id1:id1:id1" transform="matrix(1.0,0,0,1.0,1024,0.0)">			<g stroke="lightgray" stroke-width="4" transform="scale(4, 4)"> <rect x="0" y="0" width="256" height="256" fill="white" stroke-width="4"/></g>
			<g transform="scale(0.92, -0.92) translate(60, -920)">					<path d="M 93 580 Q 83 584 62 589 Q 50 593 47 588 Q 40 582 48 567 Q 78 492 89 373 Q 90 336 109 312 Q 125 290 131 305 Q 138 327 134 370 L 129 405 Q 113 528 112 555 C 111 574 111 574 93 580 Z" fill="black"></path>
				<path d="M 280 439 Q 293 538 318 568 Q 340 596 314 610 Q 293 620 264 636 Q 245 646 225 633 Q 189 605 93 580 C 64 572 83 549 112 555 Q 172 567 233 580 Q 234 580 236 577 Q 245 570 227 441 C 223 411 276 409 280 439 Z" fill="black"></path>
				<path d="M 134 370 Q 144 370 155 374 Q 198 387 295 406 Q 305 409 306 418 Q 306 425 280 439 L 227 441 Q 223 441 221 439 Q 169 418 129 405 C 100 396 104 368 134 370 Z" fill="black"></path>
				<path d="M 566 693 Q 593 759 601 767 Q 608 774 605 785 Q 593 813 547 821 Q 523 825 511 821 Q 502 817 507 804 Q 540 699 397 467 Q 391 460 385 450 Q 342 384 227 253 Q 220 246 231 245 Q 292 260 422 421 Q 494 529 554 664 L 566 693 Z" fill="black"></path>
				<path d="M 554 664 Q 567 636 644 528 Q 717 425 772 368 Q 797 340 821 340 Q 894 344 957 349 Q 984 350 984 357 Q 985 364 955 377 Q 802 435 758 477 Q 638 591 566 693 C 548 717 540 690 554 664 Z" fill="black"></path>
				<path d="M 492 425 Q 540 374 575 361 Q 590 358 599 372 Q 605 385 601 403 Q 589 442 526 459 Q 489 469 477 464 Q 470 463 474 450 Q 475 438 492 425 Z" fill="black"></path>
				<path d="M 380 250 Q 347 250 350 243 Q 343 227 370 214 Q 398 193 415 196 Q 433 196 458 211 Q 626 286 645 259 Q 652 246 639 226 Q 630 211 610 161 Q 576 86 560 73 Q 530 43 543 -3 Q 547 -24 556 -28 Q 565 -32 578 -21 Q 606 0 676 179 Q 694 228 727 252 Q 736 259 737 269 Q 738 282 704 302 Q 670 323 653 324 Q 646 323 638 317 Q 538 272 380 250 Z" fill="red"></path>
</g>
		<text x="40" y="140" font-size="128" fill="#999999">7</text></g>
		<g id="id1:id2:id2" transform="matrix(1.0,0,0,1.0,2048,0.0)">			<g stroke="white" stroke-width="4" transform="scale(4, 4)"> <rect x="1" y="1" width="255" height="255" fill="white" stroke-width="0"/></g>
</g>
		<g id="id1:id3:id3" transform="matrix(1.0,0,0,1.0,3072,0.0)">			<g stroke="white" stroke-width="4" transform="scale(4, 4)"> <rect x="1" y="1" width="255" height="255" fill="white" stroke-width="0"/></g>
</g>
		<g id="id1:id4:id4" transform="matrix(1.0,0,0,1.0,4096,0.0)">			<g stroke="white" stroke-width="4" transform="scale(4, 4)"> <rect x="1" y="1" width="255" height="255" fill="white" stroke-width="0"/></g>
</g>
</g>
</svg>
