<?xml version="1.0" standalone="no"?>
<!DOCTYPE svg PUBLIC "-//W3C//DTD SVG 1.1//EN"
 "http://www.w3.org/Graphics/SVG/1.1/DTD/svg11.dtd">
<!-- generate by Handict dictionary app com.asnsami.handict -->

<svg xmlns="http://www.w3.org/2000/svg" xmlns:sodipodi="http://sodipodi.sourceforge.net/DTD/sodipodi-0.dtd" version="1.1" width="640" height="256" viewBox="0 0 5120 2048">
	<g id="id0:id0" transform="translate(0.0,0)">
		<g id="id0:id0:id0" transform="matrix(1.0,0,0,1.0,0,0.0)">			<g stroke="lightgray" stroke-width="4" transform="scale(4, 4)"> <rect x="0" y="0" width="256" height="256" fill="white" stroke-width="4"/></g>
			<g transform="scale(0.92, -0.92) translate(60, -920)">					<path d="M 524 740 Q 536 759 537 762 Q 536 774 523 787 Q 489 821 453 817 Q 444 816 446 801 Q 458 696 273 504 Q 269 501 266 497 Q 212 445 82 345 Q 72 339 84 336 Q 169 348 322 486 Q 337 504 356 522 Q 414 588 506 717 L 524 740 Z" fill="red"></path>
				<path d="M 506 717 Q 615 587 754 451 Q 778 429 814 432 Q 937 442 975 452 Q 987 455 988 461 Q 988 468 971 474 Q 791 522 726 571 Q 630 641 524 740 C 502 760 487 740 506 717 Z" fill="lightgray"></path>
				<path d="M 455 548 Q 497 505 529 490 Q 544 489 551 500 Q 557 513 553 528 Q 546 550 529 561 Q 514 570 465 584 Q 449 588 441 584 Q 435 583 438 571 Q 439 561 455 548 Z" fill="lightgray"></path>
				<path d="M 376 372 Q 500 415 557 423 Q 573 426 578 420 Q 582 416 572 399 Q 538 338 519 319 Q 500 301 502 261 Q 503 230 535 250 Q 557 268 614 358 Q 642 404 669 419 Q 690 426 679 442 Q 669 457 630 473 Q 609 482 584 469 Q 553 453 400 418 Q 348 408 311 409 Q 298 409 298 400 Q 297 387 319 376 Q 350 363 376 372 Z" fill="lightgray"></path>
				<path d="M 352 190 Q 339 197 306 201 Q 293 204 289 198 Q 282 191 292 174 Q 322 116 341 20 Q 345 -8 362 -28 Q 381 -52 388 -34 Q 391 -24 391 -10 L 387 30 Q 371 121 368 153 C 365 183 365 185 352 190 Z" fill="lightgray"></path>
				<path d="M 681 58 Q 712 133 748 158 Q 767 177 753 198 Q 716 232 668 248 Q 653 251 636 245 Q 519 205 352 190 C 322 187 339 147 368 153 Q 422 165 606 192 Q 634 198 646 185 Q 658 170 625 64 C 616 35 669 30 681 58 Z" fill="lightgray"></path>
				<path d="M 391 -10 Q 397 -11 408 -10 Q 501 6 699 12 Q 712 13 714 23 Q 715 33 681 58 C 664 71 655 69 625 64 L 624 64 Q 492 39 387 30 C 357 27 361 -9 391 -10 Z" fill="lightgray"></path>
</g>
		<text x="40" y="140" font-size="128" fill="#999999">1</text></g>
		<g id="id0:id1:id1" transform="matrix(1.0,0,0,1.0,1024,0.0)">			<g stroke="lightgray" stroke-width="4" transform="scale(4, 4)"> <rect x="0" y="0" width="256" height="256" fill="white" stroke-width="4"/></g>
			<g transform="scale(0.92, -0.92) translate(60, -920)">					<path d="M 524 740 Q 536 759 537 762 Q 536 774 523 787 Q 489 821 453 817 Q 444 816 446 801 Q 458 696 273 504 Q 269 501 266 497 Q 212 445 82 345 Q 72 339 84 336 Q 169 348 322 486 Q 337 504 356 522 Q 414 588 506 717 L 524 740 Z" fill="black"></path>
				<path d="M 506 717 Q 615 587 754 451 Q 778 429 814 432 Q 937 442 975 452 Q 987 455 988 461 Q 988 468 971 474 Q 791 522 726 571 Q 630 641 524 740 C 502 760 487 740 506 717 Z" fill="red"></path>
				<path d="M 455 548 Q 497 505 529 490 Q 544 489 551 500 Q 557 513 553 528 Q 546 550 529 561 Q 514 570 465 584 Q 449 588 441 584 Q 435 583 438 571 Q 439 561 455 548 Z" fill="lightgray"></path>
				<path d="M 376 372 Q 500 415 557 423 Q 573 426 578 420 Q 582 416 572 399 Q 538 338 519 319 Q 500 301 502 261 Q 503 230 535 250 Q 557 268 614 358 Q 642 404 669 419 Q 690 426 679 442 Q 669 457 630 473 Q 609 482 584 469 Q 553 453 400 418 Q 348 408 311 409 Q 298 409 298 400 Q 297 387 319 376 Q 350 363 376 372 Z" fill="lightgray"></path>
				<path d="M 352 190 Q 339 197 306 201 Q 293 204 289 198 Q 282 191 292 174 Q 322 116 341 20 Q 345 -8 362 -28 Q 381 -52 388 -34 Q 391 -24 391 -10 L 387 30 Q 371 121 368 153 C 365 183 365 185 352 190 Z" fill="lightgray"></path>
				<path d="M 681 58 Q 712 133 748 158 Q 767 177 753 198 Q 716 232 668 248 Q 653 251 636 245 Q 519 205 352 190 C 322 187 339 147 368 153 Q 422 165 606 192 Q 634 198 646 185 Q 658 170 625 64 C 616 35 669 30 681 58 Z" fill="lightgray"></path>
				<path d="M 391 -10 Q 397 -11 408 -10 Q 501 6 699 12 Q 712 13 714 23 Q 715 33 681 58 C 664 71 655 69 625 64 L 624 64 Q 492 39 387 30 C 357 27 361 -9 391 -10 Z" fill="lightgray"></path>
</g>
		<text x="40" y="140" font-size="128" fill="#999999">2</text></g>
		<g id="id0:id2:id2" transform="matrix(1.0,0,0,1.0,2048,0.0)">			<g stroke="lightgray" stroke-width="4" transform="scale(4, 4)"> <rect x="0" y="0" width="256" height="256" fill="white" stroke-width="4"/></g>
			<g transform="scale(0.92, -0.92) translate(60, -920)">					<path d="M 524 740 Q 536 759 537 762 Q 536 774 523 787 Q 489 821 453 817 Q 444 816 446 801 Q 458 696 273 504 Q 269 501 266 497 Q 212 445 82 345 Q 72 339 84 336 Q 169 348 322 486 Q 337 504 356 522 Q 414 588 506 717 L 524 740 Z" fill="black"></path>
				<path d="M 506 717 Q 615 587 754 451 Q 778 429 814 432 Q 937 442 975 452 Q 987 455 988 461 Q 988 468 971 474 Q 791 522 726 571 Q 630 641 524 740 C 502 760 487 740 506 717 Z" fill="black"></path>
				<path d="M 455 548 Q 497 505 529 490 Q 544 489 551 500 Q 557 513 553 528 Q 546 550 529 561 Q 514 570 465 584 Q 449 588 441 584 Q 435 583 438 571 Q 439 561 455 548 Z" fill="red"></path>
				<path d="M 376 372 Q 500 415 557 423 Q 573 426 578 420 Q 582 416 572 399 Q 538 338 519 319 Q 500 301 502 261 Q 503 230 535 250 Q 557 268 614 358 Q 642 404 669 419 Q 690 426 679 442 Q 669 457 630 473 Q 609 482 584 469 Q 553 453 400 418 Q 348 408 311 409 Q 298 409 298 400 Q 297 387 319 376 Q 350 363 376 372 Z" fill="lightgray"></path>
				<path d="M 352 190 Q 339 197 306 201 Q 293 204 289 198 Q 282 191 292 174 Q 322 116 341 20 Q 345 -8 362 -28 Q 381 -52 388 -34 Q 391 -24 391 -10 L 387 30 Q 371 121 368 153 C 365 183 365 185 352 190 Z" fill="lightgray"></path>
				<path d="M 681 58 Q 712 133 748 158 Q 767 177 753 198 Q 716 232 668 248 Q 653 251 636 245 Q 519 205 352 190 C 322 187 339 147 368 153 Q 422 165 606 192 Q 634 198 646 185 Q 658 170 625 64 C 616 35 669 30 681 58 Z" fill="lightgray"></path>
				<path d="M 391 -10 Q 397 -11 408 -10 Q 501 6 699 12 Q 712 13 714 23 Q 715 33 681 58 C 664 71 655 69 625 64 L 624 64 Q 492 39 387 30 C 357 27 361 -9 391 -10 Z" fill="lightgray"></path>
</g>
		<text x="40" y="140" font-size="128" fill="#999999">3</text></g>
		<g id="id0:id3:id3" transform="matrix(1.0,0,0,1.0,3072,0.0)">			<g stroke="lightgray" stroke-width="4" transform="scale(4, 4)"> <rect x="0" y="0" width="256" height="256" fill="white" stroke-width="4"/></g>
			<g transform="scale(0.92, -0.92) translate(60, -920)">					<path d="M 524 740 Q 536 759 537 762 Q 536 774 523 787 Q 489 821 453 817 Q 444 816 446 801 Q 458 696 273 504 Q 269 501 266 497 Q 212 445 82 345 Q 72 339 84 336 Q 169 348 322 486 Q 337 504 356 522 Q 414 588 506 717 L 524 740 Z" fill="black"></path>
				<path d="M 506 717 Q 615 587 754 451 Q 778 429 814 432 Q 937 442 975 452 Q 987 455 988 461 Q 988 468 971 474 Q 791 522 726 571 Q 630 641 524 740 C 502 760 487 740 506 717 Z" fill="black"></path>
				<path d="M 455 548 Q 497 505 529 490 Q 544 489 551 500 Q 557 513 553 528 Q 546 550 529 561 Q 514 570 465 584 Q 449 588 441 584 Q 435 583 438 571 Q 439 561 455 548 Z" fill="black"></path>
				<path d="M 376 372 Q 500 415 557 423 Q 573 426 578 420 Q 582 416 572 399 Q 538 338 519 319 Q 500 301 502 261 Q 503 230 535 250 Q 557 268 614 358 Q 642 404 669 419 Q 690 426 679 442 Q 669 457 630 473 Q 609 482 584 469 Q 553 453 400 418 Q 348 408 311 409 Q 298 409 298 400 Q 297 387 319 376 Q 350 363 376 372 Z" fill="red"></path>
				<path d="M 352 190 Q 339 197 306 201 Q 293 204 289 198 Q 282 191 292 174 Q 322 116 341 20 Q 345 -8 362 -28 Q 381 -52 388 -34 Q 391 -24 391 -10 L 387 30 Q 371 121 368 153 C 365 183 365 185 352 190 Z" fill="lightgray"></path>
				<path d="M 681 58 Q 712 133 748 158 Q 767 177 753 198 Q 716 232 668 248 Q 653 251 636 245 Q 519 205 352 190 C 322 187 339 147 368 153 Q 422 165 606 192 Q 634 198 646 185 Q 658 170 625 64 C 616 35 669 30 681 58 Z" fill="lightgray"></path>
				<path d="M 391 -10 Q 397 -11 408 -10 Q 501 6 699 12 Q 712 13 714 23 Q 715 33 681 58 C 664 71 655 69 625 64 L 624 64 Q 492 39 387 30 C 357 27 361 -9 391 -10 Z" fill="lightgray"></path>
</g>
		<text x="40" y="140" font-size="128" fill="#999999">4</text></g>
		<g id="id0:id4:id4" transform="matrix(1.0,0,0,1.0,4096,0.0)">			<g stroke="lightgray" stroke-width="4" transform="scale(4, 4)"> <rect x="0" y="0" width="256" height="256" fill="white" stroke-width="4"/></g>
			<g transform="scale(0.92, -0.92) translate(60, -920)">					<path d="M 524 740 Q 536 759 537 762 Q 536 774 523 787 Q 489 821 453 817 Q 444 816 446 801 Q 458 696 273 504 Q 269 501 266 497 Q 212 445 82 345 Q 72 339 84 336 Q 169 348 322 486 Q 337 504 356 522 Q 414 588 506 717 L 524 740 Z" fill="black"></path>
				<path d="M 506 717 Q 615 587 754 451 Q 778 429 814 432 Q 937 442 975 452 Q 987 455 988 461 Q 988 468 971 474 Q 791 522 726 571 Q 630 641 524 740 C 502 760 487 740 506 717 Z" fill="black"></path>
				<path d="M 455 548 Q 497 505 529 490 Q 544 489 551 500 Q 557 513 553 528 Q 546 550 529 561 Q 514 570 465 584 Q 449 588 441 584 Q 435 583 438 571 Q 439 561 455 548 Z" fill="black"></path>
				<path d="M 376 372 Q 500 415 557 423 Q 573 426 578 420 Q 582 416 572 399 Q 538 338 519 319 Q 500 301 502 261 Q 503 230 535 250 Q 557 268 614 358 Q 642 404 669 419 Q 690 426 679 442 Q 669 457 630 473 Q 609 482 584 469 Q 553 453 400 418 Q 348 408 311 409 Q 298 409 298 400 Q 297 387 319 376 Q 350 363 376 372 Z" fill="black"></path>
				<path d="M 352 190 Q 339 197 306 201 Q 293 204 289 198 Q 282 191 292 174 Q 322 116 341 20 Q 345 -8 362 -28 Q 381 -52 388 -34 Q 391 -24 391 -10 L 387 30 Q 371 121 368 153 C 365 183 365 185 352 190 Z" fill="red"></path>
				<path d="M 681 58 Q 712 133 748 158 Q 767 177 753 198 Q 716 232 668 248 Q 653 251 636 245 Q 519 205 352 190 C 322 187 339 147 368 153 Q 422 165 606 192 Q 634 198 646 185 Q 658 170 625 64 C 616 35 669 30 681 58 Z" fill="lightgray"></path>
				<path d="M 391 -10 Q 397 -11 408 -10 Q 501 6 699 12 Q 712 13 714 23 Q 715 33 681 58 C 664 71 655 69 625 64 L 624 64 Q 492 39 387 30 C 357 27 361 -9 391 -10 Z" fill="lightgray"></path>
</g>
		<text x="40" y="140" font-size="128" fill="#999999">5</text></g>
</g>
	<g id="id1:id1" transform="translate(0.0,1024)">
		<g id="id1:id0:id0" transform="matrix(1.0,0,0,1.0,0,0.0)">			<g stroke="lightgray" stroke-width="4" transform="scale(4, 4)"> <rect x="0" y="0" width="256" height="256" fill="white" stroke-width="4"/></g>
			<g transform="scale(0.92, -0.92) translate(60, -920)">					<path d="M 524 740 Q 536 759 537 762 Q 536 774 523 787 Q 489 821 453 817 Q 444 816 446 801 Q 458 696 273 504 Q 269 501 266 497 Q 212 445 82 345 Q 72 339 84 336 Q 169 348 322 486 Q 337 504 356 522 Q 414 588 506 717 L 524 740 Z" fill="black"></path>
				<path d="M 506 717 Q 615 587 754 451 Q 778 429 814 432 Q 937 442 975 452 Q 987 455 988 461 Q 988 468 971 474 Q 791 522 726 571 Q 630 641 524 740 C 502 760 487 740 506 717 Z" fill="black"></path>
				<path d="M 455 548 Q 497 505 529 490 Q 544 489 551 500 Q 557 513 553 528 Q 546 550 529 561 Q 514 570 465 584 Q 449 588 441 584 Q 435 583 438 571 Q 439 561 455 548 Z" fill="black"></path>
				<path d="M 376 372 Q 500 415 557 423 Q 573 426 578 420 Q 582 416 572 399 Q 538 338 519 319 Q 500 301 502 261 Q 503 230 535 250 Q 557 268 614 358 Q 642 404 669 419 Q 690 426 679 442 Q 669 457 630 473 Q 609 482 584 469 Q 553 453 400 418 Q 348 408 311 409 Q 298 409 298 400 Q 297 387 319 376 Q 350 363 376 372 Z" fill="black"></path>
				<path d="M 352 190 Q 339 197 306 201 Q 293 204 289 198 Q 282 191 292 174 Q 322 116 341 20 Q 345 -8 362 -28 Q 381 -52 388 -34 Q 391 -24 391 -10 L 387 30 Q 371 121 368 153 C 365 183 365 185 352 190 Z" fill="black"></path>
				<path d="M 681 58 Q 712 133 748 158 Q 767 177 753 198 Q 716 232 668 248 Q 653 251 636 245 Q 519 205 352 190 C 322 187 339 147 368 153 Q 422 165 606 192 Q 634 198 646 185 Q 658 170 625 64 C 616 35 669 30 681 58 Z" fill="red"></path>
				<path d="M 391 -10 Q 397 -11 408 -10 Q 501 6 699 12 Q 712 13 714 23 Q 715 33 681 58 C 664 71 655 69 625 64 L 624 64 Q 492 39 387 30 C 357 27 361 -9 391 -10 Z" fill="lightgray"></path>
</g>
		<text x="40" y="140" font-size="128" fill="#999999">6</text></g>
		<g id="id1:id1:id1" transform="matrix(1.0,0,0,1.0,1024,0.0)">			<g stroke="lightgray" stroke-width="4" transform="scale(4, 4)"> <rect x="0" y="0" width="256" height="256" fill="white" stroke-width="4"/></g>
			<g transform="scale(0.92, -0.92) translate(60, -920)">					<path d="M 524 740 Q 536 759 537 762 Q 536 774 523 787 Q 489 821 453 817 Q 444 816 446 801 Q 458 696 273 504 Q 269 501 266 497 Q 212 445 82 345 Q 72 339 84 336 Q 169 348 322 486 Q 337 504 356 522 Q 414 588 506 717 L 524 740 Z" fill="black"></path>
				<path d="M 506 717 Q 615 587 754 451 Q 778 429 814 432 Q 937 442 975 452 Q 987 455 988 461 Q 988 468 971 474 Q 791 522 726 571 Q 630 641 524 740 C 502 760 487 740 506 717 Z" fill="black"></path>
				<path d="M 455 548 Q 497 505 529 490 Q 544 489 551 500 Q 557 513 553 528 Q 546 550 529 561 Q 514 570 465 584 Q 449 588 441 584 Q 435 583 438 571 Q 439 561 455 548 Z" fill="black"></path>
				<path d="M 376 372 Q 500 415 557 423 Q 573 426 578 420 Q 582 416 572 399 Q 538 338 519 319 Q 500 301 502 261 Q 503 230 535 250 Q 557 268 614 358 Q 642 404 669 419 Q 690 426 679 442 Q 669 457 630 473 Q 609 482 584 469 Q 553 453 400 418 Q 348 408 311 409 Q 298 409 298 400 Q 297 387 319 376 Q 350 363 376 372 Z" fill="black"></path>
				<path d="M 352 190 Q 339 197 306 201 Q 293 204 289 198 Q 282 191 292 174 Q 322 116 341 20 Q 345 -8 362 -28 Q 381 -52 388 -34 Q 391 -24 391 -10 L 387 30 Q 371 121 368 153 C 365 183 365 185 352 190 Z" fill="black"></path>
				<path d="M 681 58 Q 712 133 748 158 Q 767 177 753 198 Q 716 232 668 248 Q 653 251 636 245 Q 519 205 352 190 C 322 187 339 147 368 153 Q 422 165 606 192 Q 634 198 646 185 Q 658 170 625 64 C 616 35 669 30 681 58 Z" fill="black"></path>
				<path d="M 391 -10 Q 397 -11 408 -10 Q 501 6 699 12 Q 712 13 714 23 Q 715 33 681 58 C 664 71 655 69 625 64 L 624 64 Q 492 39 387 30 C 357 27 361 -9 391 -10 Z" fill="red"></path>
</g>
		<text x="40" y="140" font-size="128" fill="#999999">7</text></g>
		<g id="id1:id2:id2" transform="matrix(1.0,0,0,1.0,2048,0.0)">			<g stroke="white" stroke-width="4" transform="scale(4, 4)"> <rect x="1" y="1" width="255" height="255" fill="white" stroke-width="0"/></g>
</g>
		<g id="id1:id3:id3" transform="matrix(1.0,0,0,1.0,3072,0.0)">			<g stroke="white" stroke-width="4" transform="scale(4, 4)"> <rect x="1" y="1" width="255" height="255" fill="white" stroke-width="0"/></g>
</g>
		<g id="id1:id4:id4" transform="matrix(1.0,0,0,1.0,4096,0.0)">			<g stroke="white" stroke-width="4" transform="scale(4, 4)"> <rect x="1" y="1" width="255" height="255" fill="white" stroke-width="0"/></g>
</g>
</g>
</svg>
