<?xml version="1.0" standalone="no"?>
<!DOCTYPE svg PUBLIC "-//W3C//DTD SVG 1.1//EN"
 "http://www.w3.org/Graphics/SVG/1.1/DTD/svg11.dtd">
<!-- generate by Handict dictionary app com.asnsami.handict -->

<svg xmlns="http://www.w3.org/2000/svg" xmlns:sodipodi="http://sodipodi.sourceforge.net/DTD/sodipodi-0.dtd" version="1.1" width="640" height="256" viewBox="0 0 5120 2048">
	<g id="id0:id0" transform="translate(0.0,0)">
		<g id="id0:id0:id0" transform="matrix(1.0,0,0,1.0,0,0.0)">			<g stroke="lightgray" stroke-width="4" transform="scale(4, 4)"> <rect x="0" y="0" width="256" height="256" fill="white" stroke-width="4"/></g>
			<g transform="scale(0.92, -0.92) translate(60, -920)">					<path d="M 108 535 Q 98 541 74 545 Q 62 549 59 544 Q 52 540 60 523 Q 85 459 96 353 Q 97 322 113 300 Q 129 278 135 293 Q 142 309 141 338 L 137 372 Q 124 481 124 508 C 123 528 123 528 108 535 Z" fill="red"></path>
				<path d="M 255 389 Q 268 486 295 518 Q 316 545 292 557 Q 273 567 244 582 Q 226 591 178 561 Q 129 542 108 535 C 80 525 96 498 124 508 Q 142 515 196 528 Q 214 532 218 526 Q 225 520 206 395 C 202 365 251 359 255 389 Z" fill="lightgray"></path>
				<path d="M 141 338 Q 159 347 263 363 Q 273 364 273 373 Q 273 380 255 389 L 206 395 Q 202 395 200 393 Q 164 381 137 372 C 109 363 113 326 141 338 Z" fill="lightgray"></path>
				<path d="M 441 468 Q 466 550 489 636 Q 499 682 519 708 Q 532 729 525 742 Q 512 761 465 789 Q 446 802 428 793 Q 415 786 425 770 Q 458 722 395 458 L 382 406 Q 369 360 347 324 Q 337 302 358 284 Q 398 262 432 232 L 467 201 Q 497 176 535 134 Q 551 119 560 118 Q 569 118 575 128 Q 582 138 578 170 Q 571 207 496 246 L 455 268 Q 434 280 410 292 Q 389 302 392 323 Q 410 372 427 424 L 441 468 Z" fill="lightgray"></path>
				<path d="M 432 232 Q 362 153 308 123 Q 292 113 277 103 Q 264 96 275 92 Q 356 85 464 197 Q 464 200 467 201 L 496 246 Q 529 295 544 358 Q 566 445 582 471 Q 592 487 578 498 Q 533 534 509 529 Q 496 525 500 511 Q 506 498 508 481 L 507 452 Q 495 341 455 268 L 432 232 Z" fill="lightgray"></path>
				<path d="M 508 481 Q 475 475 441 468 L 395 458 Q 365 455 335 448 Q 319 444 293 447 Q 281 447 279 439 Q 276 427 284 420 Q 303 404 329 385 Q 338 382 349 388 Q 365 398 382 406 L 427 424 Q 464 439 507 452 C 536 461 538 486 508 481 Z" fill="lightgray"></path>
				<path d="M 762 291 Q 792 342 827 470 Q 834 498 851 519 Q 867 535 854 547 Q 839 557 809 564 Q 785 568 761 552 Q 739 542 710 532 Q 680 522 630 512 Q 617 511 613 504 Q 610 497 627 491 Q 661 479 707 495 Q 738 511 745 513 Q 773 512 769 482 Q 753 383 727 330 L 705 288 Q 663 228 586 192 Q 574 185 586 180 Q 590 174 621 177 Q 675 186 732 248 L 762 291 Z" fill="lightgray"></path>
				<path d="M 732 248 Q 772 187 811 137 Q 824 118 848 117 Q 974 120 986 130 Q 990 136 981 140 Q 834 213 773 279 Q 767 285 762 291 L 727 330 Q 693 370 656 420 Q 647 435 632 438 Q 607 441 599 432 Q 595 428 603 421 Q 634 402 651 370 Q 678 327 705 288 L 732 248 Z" fill="lightgray"></path>
</g>
		<text x="40" y="140" font-size="128" fill="#999999">1</text></g>
		<g id="id0:id1:id1" transform="matrix(1.0,0,0,1.0,1024,0.0)">			<g stroke="lightgray" stroke-width="4" transform="scale(4, 4)"> <rect x="0" y="0" width="256" height="256" fill="white" stroke-width="4"/></g>
			<g transform="scale(0.92, -0.92) translate(60, -920)">					<path d="M 108 535 Q 98 541 74 545 Q 62 549 59 544 Q 52 540 60 523 Q 85 459 96 353 Q 97 322 113 300 Q 129 278 135 293 Q 142 309 141 338 L 137 372 Q 124 481 124 508 C 123 528 123 528 108 535 Z" fill="black"></path>
				<path d="M 255 389 Q 268 486 295 518 Q 316 545 292 557 Q 273 567 244 582 Q 226 591 178 561 Q 129 542 108 535 C 80 525 96 498 124 508 Q 142 515 196 528 Q 214 532 218 526 Q 225 520 206 395 C 202 365 251 359 255 389 Z" fill="red"></path>
				<path d="M 141 338 Q 159 347 263 363 Q 273 364 273 373 Q 273 380 255 389 L 206 395 Q 202 395 200 393 Q 164 381 137 372 C 109 363 113 326 141 338 Z" fill="lightgray"></path>
				<path d="M 441 468 Q 466 550 489 636 Q 499 682 519 708 Q 532 729 525 742 Q 512 761 465 789 Q 446 802 428 793 Q 415 786 425 770 Q 458 722 395 458 L 382 406 Q 369 360 347 324 Q 337 302 358 284 Q 398 262 432 232 L 467 201 Q 497 176 535 134 Q 551 119 560 118 Q 569 118 575 128 Q 582 138 578 170 Q 571 207 496 246 L 455 268 Q 434 280 410 292 Q 389 302 392 323 Q 410 372 427 424 L 441 468 Z" fill="lightgray"></path>
				<path d="M 432 232 Q 362 153 308 123 Q 292 113 277 103 Q 264 96 275 92 Q 356 85 464 197 Q 464 200 467 201 L 496 246 Q 529 295 544 358 Q 566 445 582 471 Q 592 487 578 498 Q 533 534 509 529 Q 496 525 500 511 Q 506 498 508 481 L 507 452 Q 495 341 455 268 L 432 232 Z" fill="lightgray"></path>
				<path d="M 508 481 Q 475 475 441 468 L 395 458 Q 365 455 335 448 Q 319 444 293 447 Q 281 447 279 439 Q 276 427 284 420 Q 303 404 329 385 Q 338 382 349 388 Q 365 398 382 406 L 427 424 Q 464 439 507 452 C 536 461 538 486 508 481 Z" fill="lightgray"></path>
				<path d="M 762 291 Q 792 342 827 470 Q 834 498 851 519 Q 867 535 854 547 Q 839 557 809 564 Q 785 568 761 552 Q 739 542 710 532 Q 680 522 630 512 Q 617 511 613 504 Q 610 497 627 491 Q 661 479 707 495 Q 738 511 745 513 Q 773 512 769 482 Q 753 383 727 330 L 705 288 Q 663 228 586 192 Q 574 185 586 180 Q 590 174 621 177 Q 675 186 732 248 L 762 291 Z" fill="lightgray"></path>
				<path d="M 732 248 Q 772 187 811 137 Q 824 118 848 117 Q 974 120 986 130 Q 990 136 981 140 Q 834 213 773 279 Q 767 285 762 291 L 727 330 Q 693 370 656 420 Q 647 435 632 438 Q 607 441 599 432 Q 595 428 603 421 Q 634 402 651 370 Q 678 327 705 288 L 732 248 Z" fill="lightgray"></path>
</g>
		<text x="40" y="140" font-size="128" fill="#999999">2</text></g>
		<g id="id0:id2:id2" transform="matrix(1.0,0,0,1.0,2048,0.0)">			<g stroke="lightgray" stroke-width="4" transform="scale(4, 4)"> <rect x="0" y="0" width="256" height="256" fill="white" stroke-width="4"/></g>
			<g transform="scale(0.92, -0.92) translate(60, -920)">					<path d="M 108 535 Q 98 541 74 545 Q 62 549 59 544 Q 52 540 60 523 Q 85 459 96 353 Q 97 322 113 300 Q 129 278 135 293 Q 142 309 141 338 L 137 372 Q 124 481 124 508 C 123 528 123 528 108 535 Z" fill="black"></path>
				<path d="M 255 389 Q 268 486 295 518 Q 316 545 292 557 Q 273 567 244 582 Q 226 591 178 561 Q 129 542 108 535 C 80 525 96 498 124 508 Q 142 515 196 528 Q 214 532 218 526 Q 225 520 206 395 C 202 365 251 359 255 389 Z" fill="black"></path>
				<path d="M 141 338 Q 159 347 263 363 Q 273 364 273 373 Q 273 380 255 389 L 206 395 Q 202 395 200 393 Q 164 381 137 372 C 109 363 113 326 141 338 Z" fill="red"></path>
				<path d="M 441 468 Q 466 550 489 636 Q 499 682 519 708 Q 532 729 525 742 Q 512 761 465 789 Q 446 802 428 793 Q 415 786 425 770 Q 458 722 395 458 L 382 406 Q 369 360 347 324 Q 337 302 358 284 Q 398 262 432 232 L 467 201 Q 497 176 535 134 Q 551 119 560 118 Q 569 118 575 128 Q 582 138 578 170 Q 571 207 496 246 L 455 268 Q 434 280 410 292 Q 389 302 392 323 Q 410 372 427 424 L 441 468 Z" fill="lightgray"></path>
				<path d="M 432 232 Q 362 153 308 123 Q 292 113 277 103 Q 264 96 275 92 Q 356 85 464 197 Q 464 200 467 201 L 496 246 Q 529 295 544 358 Q 566 445 582 471 Q 592 487 578 498 Q 533 534 509 529 Q 496 525 500 511 Q 506 498 508 481 L 507 452 Q 495 341 455 268 L 432 232 Z" fill="lightgray"></path>
				<path d="M 508 481 Q 475 475 441 468 L 395 458 Q 365 455 335 448 Q 319 444 293 447 Q 281 447 279 439 Q 276 427 284 420 Q 303 404 329 385 Q 338 382 349 388 Q 365 398 382 406 L 427 424 Q 464 439 507 452 C 536 461 538 486 508 481 Z" fill="lightgray"></path>
				<path d="M 762 291 Q 792 342 827 470 Q 834 498 851 519 Q 867 535 854 547 Q 839 557 809 564 Q 785 568 761 552 Q 739 542 710 532 Q 680 522 630 512 Q 617 511 613 504 Q 610 497 627 491 Q 661 479 707 495 Q 738 511 745 513 Q 773 512 769 482 Q 753 383 727 330 L 705 288 Q 663 228 586 192 Q 574 185 586 180 Q 590 174 621 177 Q 675 186 732 248 L 762 291 Z" fill="lightgray"></path>
				<path d="M 732 248 Q 772 187 811 137 Q 824 118 848 117 Q 974 120 986 130 Q 990 136 981 140 Q 834 213 773 279 Q 767 285 762 291 L 727 330 Q 693 370 656 420 Q 647 435 632 438 Q 607 441 599 432 Q 595 428 603 421 Q 634 402 651 370 Q 678 327 705 288 L 732 248 Z" fill="lightgray"></path>
</g>
		<text x="40" y="140" font-size="128" fill="#999999">3</text></g>
		<g id="id0:id3:id3" transform="matrix(1.0,0,0,1.0,3072,0.0)">			<g stroke="lightgray" stroke-width="4" transform="scale(4, 4)"> <rect x="0" y="0" width="256" height="256" fill="white" stroke-width="4"/></g>
			<g transform="scale(0.92, -0.92) translate(60, -920)">					<path d="M 108 535 Q 98 541 74 545 Q 62 549 59 544 Q 52 540 60 523 Q 85 459 96 353 Q 97 322 113 300 Q 129 278 135 293 Q 142 309 141 338 L 137 372 Q 124 481 124 508 C 123 528 123 528 108 535 Z" fill="black"></path>
				<path d="M 255 389 Q 268 486 295 518 Q 316 545 292 557 Q 273 567 244 582 Q 226 591 178 561 Q 129 542 108 535 C 80 525 96 498 124 508 Q 142 515 196 528 Q 214 532 218 526 Q 225 520 206 395 C 202 365 251 359 255 389 Z" fill="black"></path>
				<path d="M 141 338 Q 159 347 263 363 Q 273 364 273 373 Q 273 380 255 389 L 206 395 Q 202 395 200 393 Q 164 381 137 372 C 109 363 113 326 141 338 Z" fill="black"></path>
				<path d="M 441 468 Q 466 550 489 636 Q 499 682 519 708 Q 532 729 525 742 Q 512 761 465 789 Q 446 802 428 793 Q 415 786 425 770 Q 458 722 395 458 L 382 406 Q 369 360 347 324 Q 337 302 358 284 Q 398 262 432 232 L 467 201 Q 497 176 535 134 Q 551 119 560 118 Q 569 118 575 128 Q 582 138 578 170 Q 571 207 496 246 L 455 268 Q 434 280 410 292 Q 389 302 392 323 Q 410 372 427 424 L 441 468 Z" fill="red"></path>
				<path d="M 432 232 Q 362 153 308 123 Q 292 113 277 103 Q 264 96 275 92 Q 356 85 464 197 Q 464 200 467 201 L 496 246 Q 529 295 544 358 Q 566 445 582 471 Q 592 487 578 498 Q 533 534 509 529 Q 496 525 500 511 Q 506 498 508 481 L 507 452 Q 495 341 455 268 L 432 232 Z" fill="lightgray"></path>
				<path d="M 508 481 Q 475 475 441 468 L 395 458 Q 365 455 335 448 Q 319 444 293 447 Q 281 447 279 439 Q 276 427 284 420 Q 303 404 329 385 Q 338 382 349 388 Q 365 398 382 406 L 427 424 Q 464 439 507 452 C 536 461 538 486 508 481 Z" fill="lightgray"></path>
				<path d="M 762 291 Q 792 342 827 470 Q 834 498 851 519 Q 867 535 854 547 Q 839 557 809 564 Q 785 568 761 552 Q 739 542 710 532 Q 680 522 630 512 Q 617 511 613 504 Q 610 497 627 491 Q 661 479 707 495 Q 738 511 745 513 Q 773 512 769 482 Q 753 383 727 330 L 705 288 Q 663 228 586 192 Q 574 185 586 180 Q 590 174 621 177 Q 675 186 732 248 L 762 291 Z" fill="lightgray"></path>
				<path d="M 732 248 Q 772 187 811 137 Q 824 118 848 117 Q 974 120 986 130 Q 990 136 981 140 Q 834 213 773 279 Q 767 285 762 291 L 727 330 Q 693 370 656 420 Q 647 435 632 438 Q 607 441 599 432 Q 595 428 603 421 Q 634 402 651 370 Q 678 327 705 288 L 732 248 Z" fill="lightgray"></path>
</g>
		<text x="40" y="140" font-size="128" fill="#999999">4</text></g>
		<g id="id0:id4:id4" transform="matrix(1.0,0,0,1.0,4096,0.0)">			<g stroke="lightgray" stroke-width="4" transform="scale(4, 4)"> <rect x="0" y="0" width="256" height="256" fill="white" stroke-width="4"/></g>
			<g transform="scale(0.92, -0.92) translate(60, -920)">					<path d="M 108 535 Q 98 541 74 545 Q 62 549 59 544 Q 52 540 60 523 Q 85 459 96 353 Q 97 322 113 300 Q 129 278 135 293 Q 142 309 141 338 L 137 372 Q 124 481 124 508 C 123 528 123 528 108 535 Z" fill="black"></path>
				<path d="M 255 389 Q 268 486 295 518 Q 316 545 292 557 Q 273 567 244 582 Q 226 591 178 561 Q 129 542 108 535 C 80 525 96 498 124 508 Q 142 515 196 528 Q 214 532 218 526 Q 225 520 206 395 C 202 365 251 359 255 389 Z" fill="black"></path>
				<path d="M 141 338 Q 159 347 263 363 Q 273 364 273 373 Q 273 380 255 389 L 206 395 Q 202 395 200 393 Q 164 381 137 372 C 109 363 113 326 141 338 Z" fill="black"></path>
				<path d="M 441 468 Q 466 550 489 636 Q 499 682 519 708 Q 532 729 525 742 Q 512 761 465 789 Q 446 802 428 793 Q 415 786 425 770 Q 458 722 395 458 L 382 406 Q 369 360 347 324 Q 337 302 358 284 Q 398 262 432 232 L 467 201 Q 497 176 535 134 Q 551 119 560 118 Q 569 118 575 128 Q 582 138 578 170 Q 571 207 496 246 L 455 268 Q 434 280 410 292 Q 389 302 392 323 Q 410 372 427 424 L 441 468 Z" fill="black"></path>
				<path d="M 432 232 Q 362 153 308 123 Q 292 113 277 103 Q 264 96 275 92 Q 356 85 464 197 Q 464 200 467 201 L 496 246 Q 529 295 544 358 Q 566 445 582 471 Q 592 487 578 498 Q 533 534 509 529 Q 496 525 500 511 Q 506 498 508 481 L 507 452 Q 495 341 455 268 L 432 232 Z" fill="red"></path>
				<path d="M 508 481 Q 475 475 441 468 L 395 458 Q 365 455 335 448 Q 319 444 293 447 Q 281 447 279 439 Q 276 427 284 420 Q 303 404 329 385 Q 338 382 349 388 Q 365 398 382 406 L 427 424 Q 464 439 507 452 C 536 461 538 486 508 481 Z" fill="lightgray"></path>
				<path d="M 762 291 Q 792 342 827 470 Q 834 498 851 519 Q 867 535 854 547 Q 839 557 809 564 Q 785 568 761 552 Q 739 542 710 532 Q 680 522 630 512 Q 617 511 613 504 Q 610 497 627 491 Q 661 479 707 495 Q 738 511 745 513 Q 773 512 769 482 Q 753 383 727 330 L 705 288 Q 663 228 586 192 Q 574 185 586 180 Q 590 174 621 177 Q 675 186 732 248 L 762 291 Z" fill="lightgray"></path>
				<path d="M 732 248 Q 772 187 811 137 Q 824 118 848 117 Q 974 120 986 130 Q 990 136 981 140 Q 834 213 773 279 Q 767 285 762 291 L 727 330 Q 693 370 656 420 Q 647 435 632 438 Q 607 441 599 432 Q 595 428 603 421 Q 634 402 651 370 Q 678 327 705 288 L 732 248 Z" fill="lightgray"></path>
</g>
		<text x="40" y="140" font-size="128" fill="#999999">5</text></g>
</g>
	<g id="id1:id1" transform="translate(0.0,1024)">
		<g id="id1:id0:id0" transform="matrix(1.0,0,0,1.0,0,0.0)">			<g stroke="lightgray" stroke-width="4" transform="scale(4, 4)"> <rect x="0" y="0" width="256" height="256" fill="white" stroke-width="4"/></g>
			<g transform="scale(0.92, -0.92) translate(60, -920)">					<path d="M 108 535 Q 98 541 74 545 Q 62 549 59 544 Q 52 540 60 523 Q 85 459 96 353 Q 97 322 113 300 Q 129 278 135 293 Q 142 309 141 338 L 137 372 Q 124 481 124 508 C 123 528 123 528 108 535 Z" fill="black"></path>
				<path d="M 255 389 Q 268 486 295 518 Q 316 545 292 557 Q 273 567 244 582 Q 226 591 178 561 Q 129 542 108 535 C 80 525 96 498 124 508 Q 142 515 196 528 Q 214 532 218 526 Q 225 520 206 395 C 202 365 251 359 255 389 Z" fill="black"></path>
				<path d="M 141 338 Q 159 347 263 363 Q 273 364 273 373 Q 273 380 255 389 L 206 395 Q 202 395 200 393 Q 164 381 137 372 C 109 363 113 326 141 338 Z" fill="black"></path>
				<path d="M 441 468 Q 466 550 489 636 Q 499 682 519 708 Q 532 729 525 742 Q 512 761 465 789 Q 446 802 428 793 Q 415 786 425 770 Q 458 722 395 458 L 382 406 Q 369 360 347 324 Q 337 302 358 284 Q 398 262 432 232 L 467 201 Q 497 176 535 134 Q 551 119 560 118 Q 569 118 575 128 Q 582 138 578 170 Q 571 207 496 246 L 455 268 Q 434 280 410 292 Q 389 302 392 323 Q 410 372 427 424 L 441 468 Z" fill="black"></path>
				<path d="M 432 232 Q 362 153 308 123 Q 292 113 277 103 Q 264 96 275 92 Q 356 85 464 197 Q 464 200 467 201 L 496 246 Q 529 295 544 358 Q 566 445 582 471 Q 592 487 578 498 Q 533 534 509 529 Q 496 525 500 511 Q 506 498 508 481 L 507 452 Q 495 341 455 268 L 432 232 Z" fill="black"></path>
				<path d="M 508 481 Q 475 475 441 468 L 395 458 Q 365 455 335 448 Q 319 444 293 447 Q 281 447 279 439 Q 276 427 284 420 Q 303 404 329 385 Q 338 382 349 388 Q 365 398 382 406 L 427 424 Q 464 439 507 452 C 536 461 538 486 508 481 Z" fill="red"></path>
				<path d="M 762 291 Q 792 342 827 470 Q 834 498 851 519 Q 867 535 854 547 Q 839 557 809 564 Q 785 568 761 552 Q 739 542 710 532 Q 680 522 630 512 Q 617 511 613 504 Q 610 497 627 491 Q 661 479 707 495 Q 738 511 745 513 Q 773 512 769 482 Q 753 383 727 330 L 705 288 Q 663 228 586 192 Q 574 185 586 180 Q 590 174 621 177 Q 675 186 732 248 L 762 291 Z" fill="lightgray"></path>
				<path d="M 732 248 Q 772 187 811 137 Q 824 118 848 117 Q 974 120 986 130 Q 990 136 981 140 Q 834 213 773 279 Q 767 285 762 291 L 727 330 Q 693 370 656 420 Q 647 435 632 438 Q 607 441 599 432 Q 595 428 603 421 Q 634 402 651 370 Q 678 327 705 288 L 732 248 Z" fill="lightgray"></path>
</g>
		<text x="40" y="140" font-size="128" fill="#999999">6</text></g>
		<g id="id1:id1:id1" transform="matrix(1.0,0,0,1.0,1024,0.0)">			<g stroke="lightgray" stroke-width="4" transform="scale(4, 4)"> <rect x="0" y="0" width="256" height="256" fill="white" stroke-width="4"/></g>
			<g transform="scale(0.92, -0.92) translate(60, -920)">					<path d="M 108 535 Q 98 541 74 545 Q 62 549 59 544 Q 52 540 60 523 Q 85 459 96 353 Q 97 322 113 300 Q 129 278 135 293 Q 142 309 141 338 L 137 372 Q 124 481 124 508 C 123 528 123 528 108 535 Z" fill="black"></path>
				<path d="M 255 389 Q 268 486 295 518 Q 316 545 292 557 Q 273 567 244 582 Q 226 591 178 561 Q 129 542 108 535 C 80 525 96 498 124 508 Q 142 515 196 528 Q 214 532 218 526 Q 225 520 206 395 C 202 365 251 359 255 389 Z" fill="black"></path>
				<path d="M 141 338 Q 159 347 263 363 Q 273 364 273 373 Q 273 380 255 389 L 206 395 Q 202 395 200 393 Q 164 381 137 372 C 109 363 113 326 141 338 Z" fill="black"></path>
				<path d="M 441 468 Q 466 550 489 636 Q 499 682 519 708 Q 532 729 525 742 Q 512 761 465 789 Q 446 802 428 793 Q 415 786 425 770 Q 458 722 395 458 L 382 406 Q 369 360 347 324 Q 337 302 358 284 Q 398 262 432 232 L 467 201 Q 497 176 535 134 Q 551 119 560 118 Q 569 118 575 128 Q 582 138 578 170 Q 571 207 496 246 L 455 268 Q 434 280 410 292 Q 389 302 392 323 Q 410 372 427 424 L 441 468 Z" fill="black"></path>
				<path d="M 432 232 Q 362 153 308 123 Q 292 113 277 103 Q 264 96 275 92 Q 356 85 464 197 Q 464 200 467 201 L 496 246 Q 529 295 544 358 Q 566 445 582 471 Q 592 487 578 498 Q 533 534 509 529 Q 496 525 500 511 Q 506 498 508 481 L 507 452 Q 495 341 455 268 L 432 232 Z" fill="black"></path>
				<path d="M 508 481 Q 475 475 441 468 L 395 458 Q 365 455 335 448 Q 319 444 293 447 Q 281 447 279 439 Q 276 427 284 420 Q 303 404 329 385 Q 338 382 349 388 Q 365 398 382 406 L 427 424 Q 464 439 507 452 C 536 461 538 486 508 481 Z" fill="black"></path>
				<path d="M 762 291 Q 792 342 827 470 Q 834 498 851 519 Q 867 535 854 547 Q 839 557 809 564 Q 785 568 761 552 Q 739 542 710 532 Q 680 522 630 512 Q 617 511 613 504 Q 610 497 627 491 Q 661 479 707 495 Q 738 511 745 513 Q 773 512 769 482 Q 753 383 727 330 L 705 288 Q 663 228 586 192 Q 574 185 586 180 Q 590 174 621 177 Q 675 186 732 248 L 762 291 Z" fill="red"></path>
				<path d="M 732 248 Q 772 187 811 137 Q 824 118 848 117 Q 974 120 986 130 Q 990 136 981 140 Q 834 213 773 279 Q 767 285 762 291 L 727 330 Q 693 370 656 420 Q 647 435 632 438 Q 607 441 599 432 Q 595 428 603 421 Q 634 402 651 370 Q 678 327 705 288 L 732 248 Z" fill="lightgray"></path>
</g>
		<text x="40" y="140" font-size="128" fill="#999999">7</text></g>
		<g id="id1:id2:id2" transform="matrix(1.0,0,0,1.0,2048,0.0)">			<g stroke="lightgray" stroke-width="4" transform="scale(4, 4)"> <rect x="0" y="0" width="256" height="256" fill="white" stroke-width="4"/></g>
			<g transform="scale(0.92, -0.92) translate(60, -920)">					<path d="M 108 535 Q 98 541 74 545 Q 62 549 59 544 Q 52 540 60 523 Q 85 459 96 353 Q 97 322 113 300 Q 129 278 135 293 Q 142 309 141 338 L 137 372 Q 124 481 124 508 C 123 528 123 528 108 535 Z" fill="black"></path>
				<path d="M 255 389 Q 268 486 295 518 Q 316 545 292 557 Q 273 567 244 582 Q 226 591 178 561 Q 129 542 108 535 C 80 525 96 498 124 508 Q 142 515 196 528 Q 214 532 218 526 Q 225 520 206 395 C 202 365 251 359 255 389 Z" fill="black"></path>
				<path d="M 141 338 Q 159 347 263 363 Q 273 364 273 373 Q 273 380 255 389 L 206 395 Q 202 395 200 393 Q 164 381 137 372 C 109 363 113 326 141 338 Z" fill="black"></path>
				<path d="M 441 468 Q 466 550 489 636 Q 499 682 519 708 Q 532 729 525 742 Q 512 761 465 789 Q 446 802 428 793 Q 415 786 425 770 Q 458 722 395 458 L 382 406 Q 369 360 347 324 Q 337 302 358 284 Q 398 262 432 232 L 467 201 Q 497 176 535 134 Q 551 119 560 118 Q 569 118 575 128 Q 582 138 578 170 Q 571 207 496 246 L 455 268 Q 434 280 410 292 Q 389 302 392 323 Q 410 372 427 424 L 441 468 Z" fill="black"></path>
				<path d="M 432 232 Q 362 153 308 123 Q 292 113 277 103 Q 264 96 275 92 Q 356 85 464 197 Q 464 200 467 201 L 496 246 Q 529 295 544 358 Q 566 445 582 471 Q 592 487 578 498 Q 533 534 509 529 Q 496 525 500 511 Q 506 498 508 481 L 507 452 Q 495 341 455 268 L 432 232 Z" fill="black"></path>
				<path d="M 508 481 Q 475 475 441 468 L 395 458 Q 365 455 335 448 Q 319 444 293 447 Q 281 447 279 439 Q 276 427 284 420 Q 303 404 329 385 Q 338 382 349 388 Q 365 398 382 406 L 427 424 Q 464 439 507 452 C 536 461 538 486 508 481 Z" fill="black"></path>
				<path d="M 762 291 Q 792 342 827 470 Q 834 498 851 519 Q 867 535 854 547 Q 839 557 809 564 Q 785 568 761 552 Q 739 542 710 532 Q 680 522 630 512 Q 617 511 613 504 Q 610 497 627 491 Q 661 479 707 495 Q 738 511 745 513 Q 773 512 769 482 Q 753 383 727 330 L 705 288 Q 663 228 586 192 Q 574 185 586 180 Q 590 174 621 177 Q 675 186 732 248 L 762 291 Z" fill="black"></path>
				<path d="M 732 248 Q 772 187 811 137 Q 824 118 848 117 Q 974 120 986 130 Q 990 136 981 140 Q 834 213 773 279 Q 767 285 762 291 L 727 330 Q 693 370 656 420 Q 647 435 632 438 Q 607 441 599 432 Q 595 428 603 421 Q 634 402 651 370 Q 678 327 705 288 L 732 248 Z" fill="red"></path>
</g>
		<text x="40" y="140" font-size="128" fill="#999999">8</text></g>
		<g id="id1:id3:id3" transform="matrix(1.0,0,0,1.0,3072,0.0)">			<g stroke="white" stroke-width="4" transform="scale(4, 4)"> <rect x="1" y="1" width="255" height="255" fill="white" stroke-width="0"/></g>
</g>
		<g id="id1:id4:id4" transform="matrix(1.0,0,0,1.0,4096,0.0)">			<g stroke="white" stroke-width="4" transform="scale(4, 4)"> <rect x="1" y="1" width="255" height="255" fill="white" stroke-width="0"/></g>
</g>
</g>
</svg>
