<?xml version="1.0" standalone="no"?>
<!DOCTYPE svg PUBLIC "-//W3C//DTD SVG 1.1//EN"
 "http://www.w3.org/Graphics/SVG/1.1/DTD/svg11.dtd">
<!-- generate by Japanese dictionary app com.asnsami.kanjidictionary -->

<svg xmlns="http://www.w3.org/2000/svg" xmlns:sodipodi="http://sodipodi.sourceforge.net/DTD/sodipodi-0.dtd" version="1.1" width="640" height="384" viewBox="0 0 5120 3072">
	<g id="id0:id0" transform="translate(0.0,0)">
		<g id="id0:id0:id0" transform="matrix(1.0,0,0,1.0,0,0.0)">			<g stroke="lightgray" stroke-width="4" transform="scale(4, 4)"> <rect x="0" y="0" width="256" height="256" fill="white" stroke-width="4"/></g>
			<g transform="scale(0.92, -0.92) translate(60, -920)">					<path d="M 316 605 Q 427 738 428 745 Q 427 748 427 749 Q 424 762 398 789 Q 373 810 353 812 Q 334 812 340 789 Q 349 764 331 726 Q 256 594 106 446 Q 96 437 92 431 Q 88 421 102 421 Q 150 428 291 577 L 316 605 Z" fill="red"></path>
				<path d="M 350 312 Q 351 319 351 327 Q 352 493 358 530 Q 365 555 356 564 Q 340 583 328 595 Q 322 602 316 605 C 292 623 280 605 291 577 Q 306 544 307 479 Q 307 404 288 328 Q 278 286 307 244 Q 308 241 311 239 Q 327 224 338 249 Q 345 271 348 293 L 350 312 Z" fill="lightgray"></path>
				<path d="M 547 789 Q 571 771 596 750 Q 611 738 626 741 Q 636 742 641 756 Q 644 772 632 800 Q 620 827 538 836 Q 522 839 516 835 Q 512 831 514 818 Q 518 808 547 789 Z" fill="lightgray"></path>
				<path d="M 590 663 Q 755 699 758 701 Q 767 708 763 716 Q 756 728 728 736 Q 709 742 605 713 Q 524 692 422 683 Q 386 679 411 662 Q 444 641 520 652 Q 533 655 550 656 L 590 663 Z" fill="lightgray"></path>
				<path d="M 615 550 Q 666 560 711 568 Q 733 572 725 584 Q 715 599 689 603 Q 650 607 617 592 L 565 577 Q 507 564 455 549 Q 439 545 459 531 Q 472 522 497 527 Q 531 534 565 540 L 615 550 Z" fill="lightgray"></path>
				<path d="M 609 442 Q 672 452 726 460 Q 748 463 741 476 Q 731 491 705 496 Q 672 502 611 482 L 564 471 Q 500 458 444 445 Q 428 441 447 426 Q 460 416 489 421 Q 526 428 564 434 L 609 442 Z" fill="lightgray"></path>
				<path d="M 605 350 Q 606 399 609 442 L 611 482 Q 612 518 615 550 L 617 592 Q 618 605 619 615 Q 626 631 617 641 Q 604 654 590 663 C 565 680 538 683 550 656 Q 565 626 565 577 L 565 540 Q 565 512 564 471 L 564 434 Q 564 395 564 343 C 564 313 604 320 605 350 Z" fill="lightgray"></path>
				<path d="M 564 343 Q 561 344 559 343 Q 465 328 351 313 Q 350 313 350 312 C 327 307 327 307 348 293 Q 379 269 411 277 Q 552 316 800 315 Q 819 315 823 323 Q 827 333 813 347 Q 759 387 701 368 Q 659 361 605 350 L 564 343 Z" fill="lightgray"></path>
				<path d="M 311 186 Q 304 180 313 163 Q 344 102 362 2 Q 365 -28 383 -48 Q 402 -70 407 -54 Q 411 -41 411 -17 L 406 21 Q 390 115 386 146 C 382 176 322 214 311 186 Z" fill="lightgray"></path>
				<path d="M 714 51 Q 741 133 774 159 Q 792 178 777 198 Q 759 213 704 239 Q 685 248 662 239 Q 499 182 361 181 Q 348 185 327 189 Q 314 192 311 186 C 281 181 356 142 386 146 Q 402 146 633 188 Q 661 194 672 182 Q 682 173 680 154 Q 673 99 661 55 C 654 26 704 23 714 51 Z" fill="lightgray"></path>
				<path d="M 411 -17 Q 421 -18 433 -17 Q 527 -1 732 6 Q 744 7 746 17 Q 747 26 714 51 C 700 62 691 60 661 55 Q 519 30 406 21 C 376 19 381 -16 411 -17 Z" fill="lightgray"></path>
</g>
		<text x="40" y="140" font-size="128" fill="#999999">1</text></g>
		<g id="id0:id1:id1" transform="matrix(1.0,0,0,1.0,1024,0.0)">			<g stroke="lightgray" stroke-width="4" transform="scale(4, 4)"> <rect x="0" y="0" width="256" height="256" fill="white" stroke-width="4"/></g>
			<g transform="scale(0.92, -0.92) translate(60, -920)">					<path d="M 316 605 Q 427 738 428 745 Q 427 748 427 749 Q 424 762 398 789 Q 373 810 353 812 Q 334 812 340 789 Q 349 764 331 726 Q 256 594 106 446 Q 96 437 92 431 Q 88 421 102 421 Q 150 428 291 577 L 316 605 Z" fill="black"></path>
				<path d="M 350 312 Q 351 319 351 327 Q 352 493 358 530 Q 365 555 356 564 Q 340 583 328 595 Q 322 602 316 605 C 292 623 280 605 291 577 Q 306 544 307 479 Q 307 404 288 328 Q 278 286 307 244 Q 308 241 311 239 Q 327 224 338 249 Q 345 271 348 293 L 350 312 Z" fill="red"></path>
				<path d="M 547 789 Q 571 771 596 750 Q 611 738 626 741 Q 636 742 641 756 Q 644 772 632 800 Q 620 827 538 836 Q 522 839 516 835 Q 512 831 514 818 Q 518 808 547 789 Z" fill="lightgray"></path>
				<path d="M 590 663 Q 755 699 758 701 Q 767 708 763 716 Q 756 728 728 736 Q 709 742 605 713 Q 524 692 422 683 Q 386 679 411 662 Q 444 641 520 652 Q 533 655 550 656 L 590 663 Z" fill="lightgray"></path>
				<path d="M 615 550 Q 666 560 711 568 Q 733 572 725 584 Q 715 599 689 603 Q 650 607 617 592 L 565 577 Q 507 564 455 549 Q 439 545 459 531 Q 472 522 497 527 Q 531 534 565 540 L 615 550 Z" fill="lightgray"></path>
				<path d="M 609 442 Q 672 452 726 460 Q 748 463 741 476 Q 731 491 705 496 Q 672 502 611 482 L 564 471 Q 500 458 444 445 Q 428 441 447 426 Q 460 416 489 421 Q 526 428 564 434 L 609 442 Z" fill="lightgray"></path>
				<path d="M 605 350 Q 606 399 609 442 L 611 482 Q 612 518 615 550 L 617 592 Q 618 605 619 615 Q 626 631 617 641 Q 604 654 590 663 C 565 680 538 683 550 656 Q 565 626 565 577 L 565 540 Q 565 512 564 471 L 564 434 Q 564 395 564 343 C 564 313 604 320 605 350 Z" fill="lightgray"></path>
				<path d="M 564 343 Q 561 344 559 343 Q 465 328 351 313 Q 350 313 350 312 C 327 307 327 307 348 293 Q 379 269 411 277 Q 552 316 800 315 Q 819 315 823 323 Q 827 333 813 347 Q 759 387 701 368 Q 659 361 605 350 L 564 343 Z" fill="lightgray"></path>
				<path d="M 311 186 Q 304 180 313 163 Q 344 102 362 2 Q 365 -28 383 -48 Q 402 -70 407 -54 Q 411 -41 411 -17 L 406 21 Q 390 115 386 146 C 382 176 322 214 311 186 Z" fill="lightgray"></path>
				<path d="M 714 51 Q 741 133 774 159 Q 792 178 777 198 Q 759 213 704 239 Q 685 248 662 239 Q 499 182 361 181 Q 348 185 327 189 Q 314 192 311 186 C 281 181 356 142 386 146 Q 402 146 633 188 Q 661 194 672 182 Q 682 173 680 154 Q 673 99 661 55 C 654 26 704 23 714 51 Z" fill="lightgray"></path>
				<path d="M 411 -17 Q 421 -18 433 -17 Q 527 -1 732 6 Q 744 7 746 17 Q 747 26 714 51 C 700 62 691 60 661 55 Q 519 30 406 21 C 376 19 381 -16 411 -17 Z" fill="lightgray"></path>
</g>
		<text x="40" y="140" font-size="128" fill="#999999">2</text></g>
		<g id="id0:id2:id2" transform="matrix(1.0,0,0,1.0,2048,0.0)">			<g stroke="lightgray" stroke-width="4" transform="scale(4, 4)"> <rect x="0" y="0" width="256" height="256" fill="white" stroke-width="4"/></g>
			<g transform="scale(0.92, -0.92) translate(60, -920)">					<path d="M 316 605 Q 427 738 428 745 Q 427 748 427 749 Q 424 762 398 789 Q 373 810 353 812 Q 334 812 340 789 Q 349 764 331 726 Q 256 594 106 446 Q 96 437 92 431 Q 88 421 102 421 Q 150 428 291 577 L 316 605 Z" fill="black"></path>
				<path d="M 350 312 Q 351 319 351 327 Q 352 493 358 530 Q 365 555 356 564 Q 340 583 328 595 Q 322 602 316 605 C 292 623 280 605 291 577 Q 306 544 307 479 Q 307 404 288 328 Q 278 286 307 244 Q 308 241 311 239 Q 327 224 338 249 Q 345 271 348 293 L 350 312 Z" fill="black"></path>
				<path d="M 547 789 Q 571 771 596 750 Q 611 738 626 741 Q 636 742 641 756 Q 644 772 632 800 Q 620 827 538 836 Q 522 839 516 835 Q 512 831 514 818 Q 518 808 547 789 Z" fill="red"></path>
				<path d="M 590 663 Q 755 699 758 701 Q 767 708 763 716 Q 756 728 728 736 Q 709 742 605 713 Q 524 692 422 683 Q 386 679 411 662 Q 444 641 520 652 Q 533 655 550 656 L 590 663 Z" fill="lightgray"></path>
				<path d="M 615 550 Q 666 560 711 568 Q 733 572 725 584 Q 715 599 689 603 Q 650 607 617 592 L 565 577 Q 507 564 455 549 Q 439 545 459 531 Q 472 522 497 527 Q 531 534 565 540 L 615 550 Z" fill="lightgray"></path>
				<path d="M 609 442 Q 672 452 726 460 Q 748 463 741 476 Q 731 491 705 496 Q 672 502 611 482 L 564 471 Q 500 458 444 445 Q 428 441 447 426 Q 460 416 489 421 Q 526 428 564 434 L 609 442 Z" fill="lightgray"></path>
				<path d="M 605 350 Q 606 399 609 442 L 611 482 Q 612 518 615 550 L 617 592 Q 618 605 619 615 Q 626 631 617 641 Q 604 654 590 663 C 565 680 538 683 550 656 Q 565 626 565 577 L 565 540 Q 565 512 564 471 L 564 434 Q 564 395 564 343 C 564 313 604 320 605 350 Z" fill="lightgray"></path>
				<path d="M 564 343 Q 561 344 559 343 Q 465 328 351 313 Q 350 313 350 312 C 327 307 327 307 348 293 Q 379 269 411 277 Q 552 316 800 315 Q 819 315 823 323 Q 827 333 813 347 Q 759 387 701 368 Q 659 361 605 350 L 564 343 Z" fill="lightgray"></path>
				<path d="M 311 186 Q 304 180 313 163 Q 344 102 362 2 Q 365 -28 383 -48 Q 402 -70 407 -54 Q 411 -41 411 -17 L 406 21 Q 390 115 386 146 C 382 176 322 214 311 186 Z" fill="lightgray"></path>
				<path d="M 714 51 Q 741 133 774 159 Q 792 178 777 198 Q 759 213 704 239 Q 685 248 662 239 Q 499 182 361 181 Q 348 185 327 189 Q 314 192 311 186 C 281 181 356 142 386 146 Q 402 146 633 188 Q 661 194 672 182 Q 682 173 680 154 Q 673 99 661 55 C 654 26 704 23 714 51 Z" fill="lightgray"></path>
				<path d="M 411 -17 Q 421 -18 433 -17 Q 527 -1 732 6 Q 744 7 746 17 Q 747 26 714 51 C 700 62 691 60 661 55 Q 519 30 406 21 C 376 19 381 -16 411 -17 Z" fill="lightgray"></path>
</g>
		<text x="40" y="140" font-size="128" fill="#999999">3</text></g>
		<g id="id0:id3:id3" transform="matrix(1.0,0,0,1.0,3072,0.0)">			<g stroke="lightgray" stroke-width="4" transform="scale(4, 4)"> <rect x="0" y="0" width="256" height="256" fill="white" stroke-width="4"/></g>
			<g transform="scale(0.92, -0.92) translate(60, -920)">					<path d="M 316 605 Q 427 738 428 745 Q 427 748 427 749 Q 424 762 398 789 Q 373 810 353 812 Q 334 812 340 789 Q 349 764 331 726 Q 256 594 106 446 Q 96 437 92 431 Q 88 421 102 421 Q 150 428 291 577 L 316 605 Z" fill="black"></path>
				<path d="M 350 312 Q 351 319 351 327 Q 352 493 358 530 Q 365 555 356 564 Q 340 583 328 595 Q 322 602 316 605 C 292 623 280 605 291 577 Q 306 544 307 479 Q 307 404 288 328 Q 278 286 307 244 Q 308 241 311 239 Q 327 224 338 249 Q 345 271 348 293 L 350 312 Z" fill="black"></path>
				<path d="M 547 789 Q 571 771 596 750 Q 611 738 626 741 Q 636 742 641 756 Q 644 772 632 800 Q 620 827 538 836 Q 522 839 516 835 Q 512 831 514 818 Q 518 808 547 789 Z" fill="black"></path>
				<path d="M 590 663 Q 755 699 758 701 Q 767 708 763 716 Q 756 728 728 736 Q 709 742 605 713 Q 524 692 422 683 Q 386 679 411 662 Q 444 641 520 652 Q 533 655 550 656 L 590 663 Z" fill="red"></path>
				<path d="M 615 550 Q 666 560 711 568 Q 733 572 725 584 Q 715 599 689 603 Q 650 607 617 592 L 565 577 Q 507 564 455 549 Q 439 545 459 531 Q 472 522 497 527 Q 531 534 565 540 L 615 550 Z" fill="lightgray"></path>
				<path d="M 609 442 Q 672 452 726 460 Q 748 463 741 476 Q 731 491 705 496 Q 672 502 611 482 L 564 471 Q 500 458 444 445 Q 428 441 447 426 Q 460 416 489 421 Q 526 428 564 434 L 609 442 Z" fill="lightgray"></path>
				<path d="M 605 350 Q 606 399 609 442 L 611 482 Q 612 518 615 550 L 617 592 Q 618 605 619 615 Q 626 631 617 641 Q 604 654 590 663 C 565 680 538 683 550 656 Q 565 626 565 577 L 565 540 Q 565 512 564 471 L 564 434 Q 564 395 564 343 C 564 313 604 320 605 350 Z" fill="lightgray"></path>
				<path d="M 564 343 Q 561 344 559 343 Q 465 328 351 313 Q 350 313 350 312 C 327 307 327 307 348 293 Q 379 269 411 277 Q 552 316 800 315 Q 819 315 823 323 Q 827 333 813 347 Q 759 387 701 368 Q 659 361 605 350 L 564 343 Z" fill="lightgray"></path>
				<path d="M 311 186 Q 304 180 313 163 Q 344 102 362 2 Q 365 -28 383 -48 Q 402 -70 407 -54 Q 411 -41 411 -17 L 406 21 Q 390 115 386 146 C 382 176 322 214 311 186 Z" fill="lightgray"></path>
				<path d="M 714 51 Q 741 133 774 159 Q 792 178 777 198 Q 759 213 704 239 Q 685 248 662 239 Q 499 182 361 181 Q 348 185 327 189 Q 314 192 311 186 C 281 181 356 142 386 146 Q 402 146 633 188 Q 661 194 672 182 Q 682 173 680 154 Q 673 99 661 55 C 654 26 704 23 714 51 Z" fill="lightgray"></path>
				<path d="M 411 -17 Q 421 -18 433 -17 Q 527 -1 732 6 Q 744 7 746 17 Q 747 26 714 51 C 700 62 691 60 661 55 Q 519 30 406 21 C 376 19 381 -16 411 -17 Z" fill="lightgray"></path>
</g>
		<text x="40" y="140" font-size="128" fill="#999999">4</text></g>
		<g id="id0:id4:id4" transform="matrix(1.0,0,0,1.0,4096,0.0)">			<g stroke="lightgray" stroke-width="4" transform="scale(4, 4)"> <rect x="0" y="0" width="256" height="256" fill="white" stroke-width="4"/></g>
			<g transform="scale(0.92, -0.92) translate(60, -920)">					<path d="M 316 605 Q 427 738 428 745 Q 427 748 427 749 Q 424 762 398 789 Q 373 810 353 812 Q 334 812 340 789 Q 349 764 331 726 Q 256 594 106 446 Q 96 437 92 431 Q 88 421 102 421 Q 150 428 291 577 L 316 605 Z" fill="black"></path>
				<path d="M 350 312 Q 351 319 351 327 Q 352 493 358 530 Q 365 555 356 564 Q 340 583 328 595 Q 322 602 316 605 C 292 623 280 605 291 577 Q 306 544 307 479 Q 307 404 288 328 Q 278 286 307 244 Q 308 241 311 239 Q 327 224 338 249 Q 345 271 348 293 L 350 312 Z" fill="black"></path>
				<path d="M 547 789 Q 571 771 596 750 Q 611 738 626 741 Q 636 742 641 756 Q 644 772 632 800 Q 620 827 538 836 Q 522 839 516 835 Q 512 831 514 818 Q 518 808 547 789 Z" fill="black"></path>
				<path d="M 590 663 Q 755 699 758 701 Q 767 708 763 716 Q 756 728 728 736 Q 709 742 605 713 Q 524 692 422 683 Q 386 679 411 662 Q 444 641 520 652 Q 533 655 550 656 L 590 663 Z" fill="black"></path>
				<path d="M 615 550 Q 666 560 711 568 Q 733 572 725 584 Q 715 599 689 603 Q 650 607 617 592 L 565 577 Q 507 564 455 549 Q 439 545 459 531 Q 472 522 497 527 Q 531 534 565 540 L 615 550 Z" fill="red"></path>
				<path d="M 609 442 Q 672 452 726 460 Q 748 463 741 476 Q 731 491 705 496 Q 672 502 611 482 L 564 471 Q 500 458 444 445 Q 428 441 447 426 Q 460 416 489 421 Q 526 428 564 434 L 609 442 Z" fill="lightgray"></path>
				<path d="M 605 350 Q 606 399 609 442 L 611 482 Q 612 518 615 550 L 617 592 Q 618 605 619 615 Q 626 631 617 641 Q 604 654 590 663 C 565 680 538 683 550 656 Q 565 626 565 577 L 565 540 Q 565 512 564 471 L 564 434 Q 564 395 564 343 C 564 313 604 320 605 350 Z" fill="lightgray"></path>
				<path d="M 564 343 Q 561 344 559 343 Q 465 328 351 313 Q 350 313 350 312 C 327 307 327 307 348 293 Q 379 269 411 277 Q 552 316 800 315 Q 819 315 823 323 Q 827 333 813 347 Q 759 387 701 368 Q 659 361 605 350 L 564 343 Z" fill="lightgray"></path>
				<path d="M 311 186 Q 304 180 313 163 Q 344 102 362 2 Q 365 -28 383 -48 Q 402 -70 407 -54 Q 411 -41 411 -17 L 406 21 Q 390 115 386 146 C 382 176 322 214 311 186 Z" fill="lightgray"></path>
				<path d="M 714 51 Q 741 133 774 159 Q 792 178 777 198 Q 759 213 704 239 Q 685 248 662 239 Q 499 182 361 181 Q 348 185 327 189 Q 314 192 311 186 C 281 181 356 142 386 146 Q 402 146 633 188 Q 661 194 672 182 Q 682 173 680 154 Q 673 99 661 55 C 654 26 704 23 714 51 Z" fill="lightgray"></path>
				<path d="M 411 -17 Q 421 -18 433 -17 Q 527 -1 732 6 Q 744 7 746 17 Q 747 26 714 51 C 700 62 691 60 661 55 Q 519 30 406 21 C 376 19 381 -16 411 -17 Z" fill="lightgray"></path>
</g>
		<text x="40" y="140" font-size="128" fill="#999999">5</text></g>
</g>
	<g id="id1:id1" transform="translate(0.0,1024)">
		<g id="id1:id0:id0" transform="matrix(1.0,0,0,1.0,0,0.0)">			<g stroke="lightgray" stroke-width="4" transform="scale(4, 4)"> <rect x="0" y="0" width="256" height="256" fill="white" stroke-width="4"/></g>
			<g transform="scale(0.92, -0.92) translate(60, -920)">					<path d="M 316 605 Q 427 738 428 745 Q 427 748 427 749 Q 424 762 398 789 Q 373 810 353 812 Q 334 812 340 789 Q 349 764 331 726 Q 256 594 106 446 Q 96 437 92 431 Q 88 421 102 421 Q 150 428 291 577 L 316 605 Z" fill="black"></path>
				<path d="M 350 312 Q 351 319 351 327 Q 352 493 358 530 Q 365 555 356 564 Q 340 583 328 595 Q 322 602 316 605 C 292 623 280 605 291 577 Q 306 544 307 479 Q 307 404 288 328 Q 278 286 307 244 Q 308 241 311 239 Q 327 224 338 249 Q 345 271 348 293 L 350 312 Z" fill="black"></path>
				<path d="M 547 789 Q 571 771 596 750 Q 611 738 626 741 Q 636 742 641 756 Q 644 772 632 800 Q 620 827 538 836 Q 522 839 516 835 Q 512 831 514 818 Q 518 808 547 789 Z" fill="black"></path>
				<path d="M 590 663 Q 755 699 758 701 Q 767 708 763 716 Q 756 728 728 736 Q 709 742 605 713 Q 524 692 422 683 Q 386 679 411 662 Q 444 641 520 652 Q 533 655 550 656 L 590 663 Z" fill="black"></path>
				<path d="M 615 550 Q 666 560 711 568 Q 733 572 725 584 Q 715 599 689 603 Q 650 607 617 592 L 565 577 Q 507 564 455 549 Q 439 545 459 531 Q 472 522 497 527 Q 531 534 565 540 L 615 550 Z" fill="black"></path>
				<path d="M 609 442 Q 672 452 726 460 Q 748 463 741 476 Q 731 491 705 496 Q 672 502 611 482 L 564 471 Q 500 458 444 445 Q 428 441 447 426 Q 460 416 489 421 Q 526 428 564 434 L 609 442 Z" fill="red"></path>
				<path d="M 605 350 Q 606 399 609 442 L 611 482 Q 612 518 615 550 L 617 592 Q 618 605 619 615 Q 626 631 617 641 Q 604 654 590 663 C 565 680 538 683 550 656 Q 565 626 565 577 L 565 540 Q 565 512 564 471 L 564 434 Q 564 395 564 343 C 564 313 604 320 605 350 Z" fill="lightgray"></path>
				<path d="M 564 343 Q 561 344 559 343 Q 465 328 351 313 Q 350 313 350 312 C 327 307 327 307 348 293 Q 379 269 411 277 Q 552 316 800 315 Q 819 315 823 323 Q 827 333 813 347 Q 759 387 701 368 Q 659 361 605 350 L 564 343 Z" fill="lightgray"></path>
				<path d="M 311 186 Q 304 180 313 163 Q 344 102 362 2 Q 365 -28 383 -48 Q 402 -70 407 -54 Q 411 -41 411 -17 L 406 21 Q 390 115 386 146 C 382 176 322 214 311 186 Z" fill="lightgray"></path>
				<path d="M 714 51 Q 741 133 774 159 Q 792 178 777 198 Q 759 213 704 239 Q 685 248 662 239 Q 499 182 361 181 Q 348 185 327 189 Q 314 192 311 186 C 281 181 356 142 386 146 Q 402 146 633 188 Q 661 194 672 182 Q 682 173 680 154 Q 673 99 661 55 C 654 26 704 23 714 51 Z" fill="lightgray"></path>
				<path d="M 411 -17 Q 421 -18 433 -17 Q 527 -1 732 6 Q 744 7 746 17 Q 747 26 714 51 C 700 62 691 60 661 55 Q 519 30 406 21 C 376 19 381 -16 411 -17 Z" fill="lightgray"></path>
</g>
		<text x="40" y="140" font-size="128" fill="#999999">6</text></g>
		<g id="id1:id1:id1" transform="matrix(1.0,0,0,1.0,1024,0.0)">			<g stroke="lightgray" stroke-width="4" transform="scale(4, 4)"> <rect x="0" y="0" width="256" height="256" fill="white" stroke-width="4"/></g>
			<g transform="scale(0.92, -0.92) translate(60, -920)">					<path d="M 316 605 Q 427 738 428 745 Q 427 748 427 749 Q 424 762 398 789 Q 373 810 353 812 Q 334 812 340 789 Q 349 764 331 726 Q 256 594 106 446 Q 96 437 92 431 Q 88 421 102 421 Q 150 428 291 577 L 316 605 Z" fill="black"></path>
				<path d="M 350 312 Q 351 319 351 327 Q 352 493 358 530 Q 365 555 356 564 Q 340 583 328 595 Q 322 602 316 605 C 292 623 280 605 291 577 Q 306 544 307 479 Q 307 404 288 328 Q 278 286 307 244 Q 308 241 311 239 Q 327 224 338 249 Q 345 271 348 293 L 350 312 Z" fill="black"></path>
				<path d="M 547 789 Q 571 771 596 750 Q 611 738 626 741 Q 636 742 641 756 Q 644 772 632 800 Q 620 827 538 836 Q 522 839 516 835 Q 512 831 514 818 Q 518 808 547 789 Z" fill="black"></path>
				<path d="M 590 663 Q 755 699 758 701 Q 767 708 763 716 Q 756 728 728 736 Q 709 742 605 713 Q 524 692 422 683 Q 386 679 411 662 Q 444 641 520 652 Q 533 655 550 656 L 590 663 Z" fill="black"></path>
				<path d="M 615 550 Q 666 560 711 568 Q 733 572 725 584 Q 715 599 689 603 Q 650 607 617 592 L 565 577 Q 507 564 455 549 Q 439 545 459 531 Q 472 522 497 527 Q 531 534 565 540 L 615 550 Z" fill="black"></path>
				<path d="M 609 442 Q 672 452 726 460 Q 748 463 741 476 Q 731 491 705 496 Q 672 502 611 482 L 564 471 Q 500 458 444 445 Q 428 441 447 426 Q 460 416 489 421 Q 526 428 564 434 L 609 442 Z" fill="black"></path>
				<path d="M 605 350 Q 606 399 609 442 L 611 482 Q 612 518 615 550 L 617 592 Q 618 605 619 615 Q 626 631 617 641 Q 604 654 590 663 C 565 680 538 683 550 656 Q 565 626 565 577 L 565 540 Q 565 512 564 471 L 564 434 Q 564 395 564 343 C 564 313 604 320 605 350 Z" fill="red"></path>
				<path d="M 564 343 Q 561 344 559 343 Q 465 328 351 313 Q 350 313 350 312 C 327 307 327 307 348 293 Q 379 269 411 277 Q 552 316 800 315 Q 819 315 823 323 Q 827 333 813 347 Q 759 387 701 368 Q 659 361 605 350 L 564 343 Z" fill="lightgray"></path>
				<path d="M 311 186 Q 304 180 313 163 Q 344 102 362 2 Q 365 -28 383 -48 Q 402 -70 407 -54 Q 411 -41 411 -17 L 406 21 Q 390 115 386 146 C 382 176 322 214 311 186 Z" fill="lightgray"></path>
				<path d="M 714 51 Q 741 133 774 159 Q 792 178 777 198 Q 759 213 704 239 Q 685 248 662 239 Q 499 182 361 181 Q 348 185 327 189 Q 314 192 311 186 C 281 181 356 142 386 146 Q 402 146 633 188 Q 661 194 672 182 Q 682 173 680 154 Q 673 99 661 55 C 654 26 704 23 714 51 Z" fill="lightgray"></path>
				<path d="M 411 -17 Q 421 -18 433 -17 Q 527 -1 732 6 Q 744 7 746 17 Q 747 26 714 51 C 700 62 691 60 661 55 Q 519 30 406 21 C 376 19 381 -16 411 -17 Z" fill="lightgray"></path>
</g>
		<text x="40" y="140" font-size="128" fill="#999999">7</text></g>
		<g id="id1:id2:id2" transform="matrix(1.0,0,0,1.0,2048,0.0)">			<g stroke="lightgray" stroke-width="4" transform="scale(4, 4)"> <rect x="0" y="0" width="256" height="256" fill="white" stroke-width="4"/></g>
			<g transform="scale(0.92, -0.92) translate(60, -920)">					<path d="M 316 605 Q 427 738 428 745 Q 427 748 427 749 Q 424 762 398 789 Q 373 810 353 812 Q 334 812 340 789 Q 349 764 331 726 Q 256 594 106 446 Q 96 437 92 431 Q 88 421 102 421 Q 150 428 291 577 L 316 605 Z" fill="black"></path>
				<path d="M 350 312 Q 351 319 351 327 Q 352 493 358 530 Q 365 555 356 564 Q 340 583 328 595 Q 322 602 316 605 C 292 623 280 605 291 577 Q 306 544 307 479 Q 307 404 288 328 Q 278 286 307 244 Q 308 241 311 239 Q 327 224 338 249 Q 345 271 348 293 L 350 312 Z" fill="black"></path>
				<path d="M 547 789 Q 571 771 596 750 Q 611 738 626 741 Q 636 742 641 756 Q 644 772 632 800 Q 620 827 538 836 Q 522 839 516 835 Q 512 831 514 818 Q 518 808 547 789 Z" fill="black"></path>
				<path d="M 590 663 Q 755 699 758 701 Q 767 708 763 716 Q 756 728 728 736 Q 709 742 605 713 Q 524 692 422 683 Q 386 679 411 662 Q 444 641 520 652 Q 533 655 550 656 L 590 663 Z" fill="black"></path>
				<path d="M 615 550 Q 666 560 711 568 Q 733 572 725 584 Q 715 599 689 603 Q 650 607 617 592 L 565 577 Q 507 564 455 549 Q 439 545 459 531 Q 472 522 497 527 Q 531 534 565 540 L 615 550 Z" fill="black"></path>
				<path d="M 609 442 Q 672 452 726 460 Q 748 463 741 476 Q 731 491 705 496 Q 672 502 611 482 L 564 471 Q 500 458 444 445 Q 428 441 447 426 Q 460 416 489 421 Q 526 428 564 434 L 609 442 Z" fill="black"></path>
				<path d="M 605 350 Q 606 399 609 442 L 611 482 Q 612 518 615 550 L 617 592 Q 618 605 619 615 Q 626 631 617 641 Q 604 654 590 663 C 565 680 538 683 550 656 Q 565 626 565 577 L 565 540 Q 565 512 564 471 L 564 434 Q 564 395 564 343 C 564 313 604 320 605 350 Z" fill="black"></path>
				<path d="M 564 343 Q 561 344 559 343 Q 465 328 351 313 Q 350 313 350 312 C 327 307 327 307 348 293 Q 379 269 411 277 Q 552 316 800 315 Q 819 315 823 323 Q 827 333 813 347 Q 759 387 701 368 Q 659 361 605 350 L 564 343 Z" fill="red"></path>
				<path d="M 311 186 Q 304 180 313 163 Q 344 102 362 2 Q 365 -28 383 -48 Q 402 -70 407 -54 Q 411 -41 411 -17 L 406 21 Q 390 115 386 146 C 382 176 322 214 311 186 Z" fill="lightgray"></path>
				<path d="M 714 51 Q 741 133 774 159 Q 792 178 777 198 Q 759 213 704 239 Q 685 248 662 239 Q 499 182 361 181 Q 348 185 327 189 Q 314 192 311 186 C 281 181 356 142 386 146 Q 402 146 633 188 Q 661 194 672 182 Q 682 173 680 154 Q 673 99 661 55 C 654 26 704 23 714 51 Z" fill="lightgray"></path>
				<path d="M 411 -17 Q 421 -18 433 -17 Q 527 -1 732 6 Q 744 7 746 17 Q 747 26 714 51 C 700 62 691 60 661 55 Q 519 30 406 21 C 376 19 381 -16 411 -17 Z" fill="lightgray"></path>
</g>
		<text x="40" y="140" font-size="128" fill="#999999">8</text></g>
		<g id="id1:id3:id3" transform="matrix(1.0,0,0,1.0,3072,0.0)">			<g stroke="lightgray" stroke-width="4" transform="scale(4, 4)"> <rect x="0" y="0" width="256" height="256" fill="white" stroke-width="4"/></g>
			<g transform="scale(0.92, -0.92) translate(60, -920)">					<path d="M 316 605 Q 427 738 428 745 Q 427 748 427 749 Q 424 762 398 789 Q 373 810 353 812 Q 334 812 340 789 Q 349 764 331 726 Q 256 594 106 446 Q 96 437 92 431 Q 88 421 102 421 Q 150 428 291 577 L 316 605 Z" fill="black"></path>
				<path d="M 350 312 Q 351 319 351 327 Q 352 493 358 530 Q 365 555 356 564 Q 340 583 328 595 Q 322 602 316 605 C 292 623 280 605 291 577 Q 306 544 307 479 Q 307 404 288 328 Q 278 286 307 244 Q 308 241 311 239 Q 327 224 338 249 Q 345 271 348 293 L 350 312 Z" fill="black"></path>
				<path d="M 547 789 Q 571 771 596 750 Q 611 738 626 741 Q 636 742 641 756 Q 644 772 632 800 Q 620 827 538 836 Q 522 839 516 835 Q 512 831 514 818 Q 518 808 547 789 Z" fill="black"></path>
				<path d="M 590 663 Q 755 699 758 701 Q 767 708 763 716 Q 756 728 728 736 Q 709 742 605 713 Q 524 692 422 683 Q 386 679 411 662 Q 444 641 520 652 Q 533 655 550 656 L 590 663 Z" fill="black"></path>
				<path d="M 615 550 Q 666 560 711 568 Q 733 572 725 584 Q 715 599 689 603 Q 650 607 617 592 L 565 577 Q 507 564 455 549 Q 439 545 459 531 Q 472 522 497 527 Q 531 534 565 540 L 615 550 Z" fill="black"></path>
				<path d="M 609 442 Q 672 452 726 460 Q 748 463 741 476 Q 731 491 705 496 Q 672 502 611 482 L 564 471 Q 500 458 444 445 Q 428 441 447 426 Q 460 416 489 421 Q 526 428 564 434 L 609 442 Z" fill="black"></path>
				<path d="M 605 350 Q 606 399 609 442 L 611 482 Q 612 518 615 550 L 617 592 Q 618 605 619 615 Q 626 631 617 641 Q 604 654 590 663 C 565 680 538 683 550 656 Q 565 626 565 577 L 565 540 Q 565 512 564 471 L 564 434 Q 564 395 564 343 C 564 313 604 320 605 350 Z" fill="black"></path>
				<path d="M 564 343 Q 561 344 559 343 Q 465 328 351 313 Q 350 313 350 312 C 327 307 327 307 348 293 Q 379 269 411 277 Q 552 316 800 315 Q 819 315 823 323 Q 827 333 813 347 Q 759 387 701 368 Q 659 361 605 350 L 564 343 Z" fill="black"></path>
				<path d="M 311 186 Q 304 180 313 163 Q 344 102 362 2 Q 365 -28 383 -48 Q 402 -70 407 -54 Q 411 -41 411 -17 L 406 21 Q 390 115 386 146 C 382 176 322 214 311 186 Z" fill="red"></path>
				<path d="M 714 51 Q 741 133 774 159 Q 792 178 777 198 Q 759 213 704 239 Q 685 248 662 239 Q 499 182 361 181 Q 348 185 327 189 Q 314 192 311 186 C 281 181 356 142 386 146 Q 402 146 633 188 Q 661 194 672 182 Q 682 173 680 154 Q 673 99 661 55 C 654 26 704 23 714 51 Z" fill="lightgray"></path>
				<path d="M 411 -17 Q 421 -18 433 -17 Q 527 -1 732 6 Q 744 7 746 17 Q 747 26 714 51 C 700 62 691 60 661 55 Q 519 30 406 21 C 376 19 381 -16 411 -17 Z" fill="lightgray"></path>
</g>
		<text x="40" y="140" font-size="128" fill="#999999">9</text></g>
		<g id="id1:id4:id4" transform="matrix(1.0,0,0,1.0,4096,0.0)">			<g stroke="lightgray" stroke-width="4" transform="scale(4, 4)"> <rect x="0" y="0" width="256" height="256" fill="white" stroke-width="4"/></g>
			<g transform="scale(0.92, -0.92) translate(60, -920)">					<path d="M 316 605 Q 427 738 428 745 Q 427 748 427 749 Q 424 762 398 789 Q 373 810 353 812 Q 334 812 340 789 Q 349 764 331 726 Q 256 594 106 446 Q 96 437 92 431 Q 88 421 102 421 Q 150 428 291 577 L 316 605 Z" fill="black"></path>
				<path d="M 350 312 Q 351 319 351 327 Q 352 493 358 530 Q 365 555 356 564 Q 340 583 328 595 Q 322 602 316 605 C 292 623 280 605 291 577 Q 306 544 307 479 Q 307 404 288 328 Q 278 286 307 244 Q 308 241 311 239 Q 327 224 338 249 Q 345 271 348 293 L 350 312 Z" fill="black"></path>
				<path d="M 547 789 Q 571 771 596 750 Q 611 738 626 741 Q 636 742 641 756 Q 644 772 632 800 Q 620 827 538 836 Q 522 839 516 835 Q 512 831 514 818 Q 518 808 547 789 Z" fill="black"></path>
				<path d="M 590 663 Q 755 699 758 701 Q 767 708 763 716 Q 756 728 728 736 Q 709 742 605 713 Q 524 692 422 683 Q 386 679 411 662 Q 444 641 520 652 Q 533 655 550 656 L 590 663 Z" fill="black"></path>
				<path d="M 615 550 Q 666 560 711 568 Q 733 572 725 584 Q 715 599 689 603 Q 650 607 617 592 L 565 577 Q 507 564 455 549 Q 439 545 459 531 Q 472 522 497 527 Q 531 534 565 540 L 615 550 Z" fill="black"></path>
				<path d="M 609 442 Q 672 452 726 460 Q 748 463 741 476 Q 731 491 705 496 Q 672 502 611 482 L 564 471 Q 500 458 444 445 Q 428 441 447 426 Q 460 416 489 421 Q 526 428 564 434 L 609 442 Z" fill="black"></path>
				<path d="M 605 350 Q 606 399 609 442 L 611 482 Q 612 518 615 550 L 617 592 Q 618 605 619 615 Q 626 631 617 641 Q 604 654 590 663 C 565 680 538 683 550 656 Q 565 626 565 577 L 565 540 Q 565 512 564 471 L 564 434 Q 564 395 564 343 C 564 313 604 320 605 350 Z" fill="black"></path>
				<path d="M 564 343 Q 561 344 559 343 Q 465 328 351 313 Q 350 313 350 312 C 327 307 327 307 348 293 Q 379 269 411 277 Q 552 316 800 315 Q 819 315 823 323 Q 827 333 813 347 Q 759 387 701 368 Q 659 361 605 350 L 564 343 Z" fill="black"></path>
				<path d="M 311 186 Q 304 180 313 163 Q 344 102 362 2 Q 365 -28 383 -48 Q 402 -70 407 -54 Q 411 -41 411 -17 L 406 21 Q 390 115 386 146 C 382 176 322 214 311 186 Z" fill="black"></path>
				<path d="M 714 51 Q 741 133 774 159 Q 792 178 777 198 Q 759 213 704 239 Q 685 248 662 239 Q 499 182 361 181 Q 348 185 327 189 Q 314 192 311 186 C 281 181 356 142 386 146 Q 402 146 633 188 Q 661 194 672 182 Q 682 173 680 154 Q 673 99 661 55 C 654 26 704 23 714 51 Z" fill="red"></path>
				<path d="M 411 -17 Q 421 -18 433 -17 Q 527 -1 732 6 Q 744 7 746 17 Q 747 26 714 51 C 700 62 691 60 661 55 Q 519 30 406 21 C 376 19 381 -16 411 -17 Z" fill="lightgray"></path>
</g>
		<text x="40" y="140" font-size="128" fill="#999999">10</text></g>
</g>
	<g id="id2:id2" transform="translate(0.0,2048)">
		<g id="id2:id0:id0" transform="matrix(1.0,0,0,1.0,0,0.0)">			<g stroke="lightgray" stroke-width="4" transform="scale(4, 4)"> <rect x="0" y="0" width="256" height="256" fill="white" stroke-width="4"/></g>
			<g transform="scale(0.92, -0.92) translate(60, -920)">					<path d="M 316 605 Q 427 738 428 745 Q 427 748 427 749 Q 424 762 398 789 Q 373 810 353 812 Q 334 812 340 789 Q 349 764 331 726 Q 256 594 106 446 Q 96 437 92 431 Q 88 421 102 421 Q 150 428 291 577 L 316 605 Z" fill="black"></path>
				<path d="M 350 312 Q 351 319 351 327 Q 352 493 358 530 Q 365 555 356 564 Q 340 583 328 595 Q 322 602 316 605 C 292 623 280 605 291 577 Q 306 544 307 479 Q 307 404 288 328 Q 278 286 307 244 Q 308 241 311 239 Q 327 224 338 249 Q 345 271 348 293 L 350 312 Z" fill="black"></path>
				<path d="M 547 789 Q 571 771 596 750 Q 611 738 626 741 Q 636 742 641 756 Q 644 772 632 800 Q 620 827 538 836 Q 522 839 516 835 Q 512 831 514 818 Q 518 808 547 789 Z" fill="black"></path>
				<path d="M 590 663 Q 755 699 758 701 Q 767 708 763 716 Q 756 728 728 736 Q 709 742 605 713 Q 524 692 422 683 Q 386 679 411 662 Q 444 641 520 652 Q 533 655 550 656 L 590 663 Z" fill="black"></path>
				<path d="M 615 550 Q 666 560 711 568 Q 733 572 725 584 Q 715 599 689 603 Q 650 607 617 592 L 565 577 Q 507 564 455 549 Q 439 545 459 531 Q 472 522 497 527 Q 531 534 565 540 L 615 550 Z" fill="black"></path>
				<path d="M 609 442 Q 672 452 726 460 Q 748 463 741 476 Q 731 491 705 496 Q 672 502 611 482 L 564 471 Q 500 458 444 445 Q 428 441 447 426 Q 460 416 489 421 Q 526 428 564 434 L 609 442 Z" fill="black"></path>
				<path d="M 605 350 Q 606 399 609 442 L 611 482 Q 612 518 615 550 L 617 592 Q 618 605 619 615 Q 626 631 617 641 Q 604 654 590 663 C 565 680 538 683 550 656 Q 565 626 565 577 L 565 540 Q 565 512 564 471 L 564 434 Q 564 395 564 343 C 564 313 604 320 605 350 Z" fill="black"></path>
				<path d="M 564 343 Q 561 344 559 343 Q 465 328 351 313 Q 350 313 350 312 C 327 307 327 307 348 293 Q 379 269 411 277 Q 552 316 800 315 Q 819 315 823 323 Q 827 333 813 347 Q 759 387 701 368 Q 659 361 605 350 L 564 343 Z" fill="black"></path>
				<path d="M 311 186 Q 304 180 313 163 Q 344 102 362 2 Q 365 -28 383 -48 Q 402 -70 407 -54 Q 411 -41 411 -17 L 406 21 Q 390 115 386 146 C 382 176 322 214 311 186 Z" fill="black"></path>
				<path d="M 714 51 Q 741 133 774 159 Q 792 178 777 198 Q 759 213 704 239 Q 685 248 662 239 Q 499 182 361 181 Q 348 185 327 189 Q 314 192 311 186 C 281 181 356 142 386 146 Q 402 146 633 188 Q 661 194 672 182 Q 682 173 680 154 Q 673 99 661 55 C 654 26 704 23 714 51 Z" fill="black"></path>
				<path d="M 411 -17 Q 421 -18 433 -17 Q 527 -1 732 6 Q 744 7 746 17 Q 747 26 714 51 C 700 62 691 60 661 55 Q 519 30 406 21 C 376 19 381 -16 411 -17 Z" fill="red"></path>
</g>
		<text x="40" y="140" font-size="128" fill="#999999">11</text></g>
		<g id="id2:id1:id1" transform="matrix(1.0,0,0,1.0,1024,0.0)">			<g stroke="white" stroke-width="4" transform="scale(4, 4)"> <rect x="1" y="1" width="255" height="255" fill="white" stroke-width="0"/></g>
</g>
		<g id="id2:id2:id2" transform="matrix(1.0,0,0,1.0,2048,0.0)">			<g stroke="white" stroke-width="4" transform="scale(4, 4)"> <rect x="1" y="1" width="255" height="255" fill="white" stroke-width="0"/></g>
</g>
		<g id="id2:id3:id3" transform="matrix(1.0,0,0,1.0,3072,0.0)">			<g stroke="white" stroke-width="4" transform="scale(4, 4)"> <rect x="1" y="1" width="255" height="255" fill="white" stroke-width="0"/></g>
</g>
		<g id="id2:id4:id4" transform="matrix(1.0,0,0,1.0,4096,0.0)">			<g stroke="white" stroke-width="4" transform="scale(4, 4)"> <rect x="1" y="1" width="255" height="255" fill="white" stroke-width="0"/></g>
</g>
</g>
</svg>
