<?xml version="1.0" standalone="no"?>
<!DOCTYPE svg PUBLIC "-//W3C//DTD SVG 1.1//EN"
 "http://www.w3.org/Graphics/SVG/1.1/DTD/svg11.dtd">
<!-- generate by Handict dictionary app com.asnsami.handict -->

<svg xmlns="http://www.w3.org/2000/svg" xmlns:sodipodi="http://sodipodi.sourceforge.net/DTD/sodipodi-0.dtd" version="1.1" width="640" height="256" viewBox="0 0 5120 2048">
	<g id="id0:id0" transform="translate(0.0,0)">
		<g id="id0:id0:id0" transform="matrix(1.0,0,0,1.0,0,0.0)">			<g stroke="lightgray" stroke-width="4" transform="scale(4, 4)"> <rect x="0" y="0" width="256" height="256" fill="white" stroke-width="4"/></g>
			<g transform="scale(0.92, -0.92) translate(60, -920)">					<path d="M 314 466 Q 401 491 405 495 Q 414 504 408 512 Q 401 524 370 529 Q 342 533 316 522 L 266 503 Q 199 484 147 475 Q 110 466 138 451 Q 174 433 248 450 Q 255 453 266 453 L 314 466 Z" fill="red"></path>
				<path d="M 307 295 Q 310 383 314 466 L 316 522 Q 319 640 337 705 Q 340 717 319 732 Q 282 751 257 755 Q 241 758 232 749 Q 225 742 233 726 Q 261 686 261 659 Q 265 584 266 503 L 266 453 Q 265 369 262 278 C 261 248 306 265 307 295 Z" fill="lightgray"></path>
				<path d="M 262 278 Q 201 259 135 235 Q 116 228 83 227 Q 70 226 68 214 Q 67 199 77 191 Q 102 175 139 157 Q 151 154 163 164 Q 191 189 374 286 Q 399 299 417 314 Q 430 323 430 333 Q 424 339 411 335 Q 362 316 307 295 L 262 278 Z" fill="lightgray"></path>
				<path d="M 620 777 Q 660 753 702 724 Q 717 714 732 717 Q 742 718 745 732 Q 746 747 734 774 Q 718 808 608 821 Q 593 822 587 819 Q 583 815 587 803 Q 591 793 620 777 Z" fill="lightgray"></path>
				<path d="M 543 591 Q 580 576 632 588 Q 734 609 840 631 Q 888 643 895 649 Q 905 658 899 667 Q 892 680 860 688 Q 833 694 713 655 Q 548 625 538 624 Q 537 624 537 623 C 508 616 515 601 543 591 Z" fill="lightgray"></path>
				<path d="M 537 623 Q 521 636 496 647 Q 477 657 464 651 Q 452 644 459 631 Q 477 609 478 548 Q 478 368 438 237 Q 405 137 334 18 Q 330 12 327 6 Q 326 -4 336 -2 Q 372 5 449 145 Q 455 160 463 175 Q 524 322 537 556 Q 537 574 543 591 C 549 615 549 615 537 623 Z" fill="lightgray"></path>
</g>
		<text x="40" y="140" font-size="128" fill="#999999">1</text></g>
		<g id="id0:id1:id1" transform="matrix(1.0,0,0,1.0,1024,0.0)">			<g stroke="lightgray" stroke-width="4" transform="scale(4, 4)"> <rect x="0" y="0" width="256" height="256" fill="white" stroke-width="4"/></g>
			<g transform="scale(0.92, -0.92) translate(60, -920)">					<path d="M 314 466 Q 401 491 405 495 Q 414 504 408 512 Q 401 524 370 529 Q 342 533 316 522 L 266 503 Q 199 484 147 475 Q 110 466 138 451 Q 174 433 248 450 Q 255 453 266 453 L 314 466 Z" fill="black"></path>
				<path d="M 307 295 Q 310 383 314 466 L 316 522 Q 319 640 337 705 Q 340 717 319 732 Q 282 751 257 755 Q 241 758 232 749 Q 225 742 233 726 Q 261 686 261 659 Q 265 584 266 503 L 266 453 Q 265 369 262 278 C 261 248 306 265 307 295 Z" fill="red"></path>
				<path d="M 262 278 Q 201 259 135 235 Q 116 228 83 227 Q 70 226 68 214 Q 67 199 77 191 Q 102 175 139 157 Q 151 154 163 164 Q 191 189 374 286 Q 399 299 417 314 Q 430 323 430 333 Q 424 339 411 335 Q 362 316 307 295 L 262 278 Z" fill="lightgray"></path>
				<path d="M 620 777 Q 660 753 702 724 Q 717 714 732 717 Q 742 718 745 732 Q 746 747 734 774 Q 718 808 608 821 Q 593 822 587 819 Q 583 815 587 803 Q 591 793 620 777 Z" fill="lightgray"></path>
				<path d="M 543 591 Q 580 576 632 588 Q 734 609 840 631 Q 888 643 895 649 Q 905 658 899 667 Q 892 680 860 688 Q 833 694 713 655 Q 548 625 538 624 Q 537 624 537 623 C 508 616 515 601 543 591 Z" fill="lightgray"></path>
				<path d="M 537 623 Q 521 636 496 647 Q 477 657 464 651 Q 452 644 459 631 Q 477 609 478 548 Q 478 368 438 237 Q 405 137 334 18 Q 330 12 327 6 Q 326 -4 336 -2 Q 372 5 449 145 Q 455 160 463 175 Q 524 322 537 556 Q 537 574 543 591 C 549 615 549 615 537 623 Z" fill="lightgray"></path>
</g>
		<text x="40" y="140" font-size="128" fill="#999999">2</text></g>
		<g id="id0:id2:id2" transform="matrix(1.0,0,0,1.0,2048,0.0)">			<g stroke="lightgray" stroke-width="4" transform="scale(4, 4)"> <rect x="0" y="0" width="256" height="256" fill="white" stroke-width="4"/></g>
			<g transform="scale(0.92, -0.92) translate(60, -920)">					<path d="M 314 466 Q 401 491 405 495 Q 414 504 408 512 Q 401 524 370 529 Q 342 533 316 522 L 266 503 Q 199 484 147 475 Q 110 466 138 451 Q 174 433 248 450 Q 255 453 266 453 L 314 466 Z" fill="black"></path>
				<path d="M 307 295 Q 310 383 314 466 L 316 522 Q 319 640 337 705 Q 340 717 319 732 Q 282 751 257 755 Q 241 758 232 749 Q 225 742 233 726 Q 261 686 261 659 Q 265 584 266 503 L 266 453 Q 265 369 262 278 C 261 248 306 265 307 295 Z" fill="black"></path>
				<path d="M 262 278 Q 201 259 135 235 Q 116 228 83 227 Q 70 226 68 214 Q 67 199 77 191 Q 102 175 139 157 Q 151 154 163 164 Q 191 189 374 286 Q 399 299 417 314 Q 430 323 430 333 Q 424 339 411 335 Q 362 316 307 295 L 262 278 Z" fill="red"></path>
				<path d="M 620 777 Q 660 753 702 724 Q 717 714 732 717 Q 742 718 745 732 Q 746 747 734 774 Q 718 808 608 821 Q 593 822 587 819 Q 583 815 587 803 Q 591 793 620 777 Z" fill="lightgray"></path>
				<path d="M 543 591 Q 580 576 632 588 Q 734 609 840 631 Q 888 643 895 649 Q 905 658 899 667 Q 892 680 860 688 Q 833 694 713 655 Q 548 625 538 624 Q 537 624 537 623 C 508 616 515 601 543 591 Z" fill="lightgray"></path>
				<path d="M 537 623 Q 521 636 496 647 Q 477 657 464 651 Q 452 644 459 631 Q 477 609 478 548 Q 478 368 438 237 Q 405 137 334 18 Q 330 12 327 6 Q 326 -4 336 -2 Q 372 5 449 145 Q 455 160 463 175 Q 524 322 537 556 Q 537 574 543 591 C 549 615 549 615 537 623 Z" fill="lightgray"></path>
</g>
		<text x="40" y="140" font-size="128" fill="#999999">3</text></g>
		<g id="id0:id3:id3" transform="matrix(1.0,0,0,1.0,3072,0.0)">			<g stroke="lightgray" stroke-width="4" transform="scale(4, 4)"> <rect x="0" y="0" width="256" height="256" fill="white" stroke-width="4"/></g>
			<g transform="scale(0.92, -0.92) translate(60, -920)">					<path d="M 314 466 Q 401 491 405 495 Q 414 504 408 512 Q 401 524 370 529 Q 342 533 316 522 L 266 503 Q 199 484 147 475 Q 110 466 138 451 Q 174 433 248 450 Q 255 453 266 453 L 314 466 Z" fill="black"></path>
				<path d="M 307 295 Q 310 383 314 466 L 316 522 Q 319 640 337 705 Q 340 717 319 732 Q 282 751 257 755 Q 241 758 232 749 Q 225 742 233 726 Q 261 686 261 659 Q 265 584 266 503 L 266 453 Q 265 369 262 278 C 261 248 306 265 307 295 Z" fill="black"></path>
				<path d="M 262 278 Q 201 259 135 235 Q 116 228 83 227 Q 70 226 68 214 Q 67 199 77 191 Q 102 175 139 157 Q 151 154 163 164 Q 191 189 374 286 Q 399 299 417 314 Q 430 323 430 333 Q 424 339 411 335 Q 362 316 307 295 L 262 278 Z" fill="black"></path>
				<path d="M 620 777 Q 660 753 702 724 Q 717 714 732 717 Q 742 718 745 732 Q 746 747 734 774 Q 718 808 608 821 Q 593 822 587 819 Q 583 815 587 803 Q 591 793 620 777 Z" fill="red"></path>
				<path d="M 543 591 Q 580 576 632 588 Q 734 609 840 631 Q 888 643 895 649 Q 905 658 899 667 Q 892 680 860 688 Q 833 694 713 655 Q 548 625 538 624 Q 537 624 537 623 C 508 616 515 601 543 591 Z" fill="lightgray"></path>
				<path d="M 537 623 Q 521 636 496 647 Q 477 657 464 651 Q 452 644 459 631 Q 477 609 478 548 Q 478 368 438 237 Q 405 137 334 18 Q 330 12 327 6 Q 326 -4 336 -2 Q 372 5 449 145 Q 455 160 463 175 Q 524 322 537 556 Q 537 574 543 591 C 549 615 549 615 537 623 Z" fill="lightgray"></path>
</g>
		<text x="40" y="140" font-size="128" fill="#999999">4</text></g>
		<g id="id0:id4:id4" transform="matrix(1.0,0,0,1.0,4096,0.0)">			<g stroke="lightgray" stroke-width="4" transform="scale(4, 4)"> <rect x="0" y="0" width="256" height="256" fill="white" stroke-width="4"/></g>
			<g transform="scale(0.92, -0.92) translate(60, -920)">					<path d="M 314 466 Q 401 491 405 495 Q 414 504 408 512 Q 401 524 370 529 Q 342 533 316 522 L 266 503 Q 199 484 147 475 Q 110 466 138 451 Q 174 433 248 450 Q 255 453 266 453 L 314 466 Z" fill="black"></path>
				<path d="M 307 295 Q 310 383 314 466 L 316 522 Q 319 640 337 705 Q 340 717 319 732 Q 282 751 257 755 Q 241 758 232 749 Q 225 742 233 726 Q 261 686 261 659 Q 265 584 266 503 L 266 453 Q 265 369 262 278 C 261 248 306 265 307 295 Z" fill="black"></path>
				<path d="M 262 278 Q 201 259 135 235 Q 116 228 83 227 Q 70 226 68 214 Q 67 199 77 191 Q 102 175 139 157 Q 151 154 163 164 Q 191 189 374 286 Q 399 299 417 314 Q 430 323 430 333 Q 424 339 411 335 Q 362 316 307 295 L 262 278 Z" fill="black"></path>
				<path d="M 620 777 Q 660 753 702 724 Q 717 714 732 717 Q 742 718 745 732 Q 746 747 734 774 Q 718 808 608 821 Q 593 822 587 819 Q 583 815 587 803 Q 591 793 620 777 Z" fill="black"></path>
				<path d="M 543 591 Q 580 576 632 588 Q 734 609 840 631 Q 888 643 895 649 Q 905 658 899 667 Q 892 680 860 688 Q 833 694 713 655 Q 548 625 538 624 Q 537 624 537 623 C 508 616 515 601 543 591 Z" fill="red"></path>
				<path d="M 537 623 Q 521 636 496 647 Q 477 657 464 651 Q 452 644 459 631 Q 477 609 478 548 Q 478 368 438 237 Q 405 137 334 18 Q 330 12 327 6 Q 326 -4 336 -2 Q 372 5 449 145 Q 455 160 463 175 Q 524 322 537 556 Q 537 574 543 591 C 549 615 549 615 537 623 Z" fill="lightgray"></path>
</g>
		<text x="40" y="140" font-size="128" fill="#999999">5</text></g>
</g>
	<g id="id1:id1" transform="translate(0.0,1024)">
		<g id="id1:id0:id0" transform="matrix(1.0,0,0,1.0,0,0.0)">			<g stroke="lightgray" stroke-width="4" transform="scale(4, 4)"> <rect x="0" y="0" width="256" height="256" fill="white" stroke-width="4"/></g>
			<g transform="scale(0.92, -0.92) translate(60, -920)">					<path d="M 314 466 Q 401 491 405 495 Q 414 504 408 512 Q 401 524 370 529 Q 342 533 316 522 L 266 503 Q 199 484 147 475 Q 110 466 138 451 Q 174 433 248 450 Q 255 453 266 453 L 314 466 Z" fill="black"></path>
				<path d="M 307 295 Q 310 383 314 466 L 316 522 Q 319 640 337 705 Q 340 717 319 732 Q 282 751 257 755 Q 241 758 232 749 Q 225 742 233 726 Q 261 686 261 659 Q 265 584 266 503 L 266 453 Q 265 369 262 278 C 261 248 306 265 307 295 Z" fill="black"></path>
				<path d="M 262 278 Q 201 259 135 235 Q 116 228 83 227 Q 70 226 68 214 Q 67 199 77 191 Q 102 175 139 157 Q 151 154 163 164 Q 191 189 374 286 Q 399 299 417 314 Q 430 323 430 333 Q 424 339 411 335 Q 362 316 307 295 L 262 278 Z" fill="black"></path>
				<path d="M 620 777 Q 660 753 702 724 Q 717 714 732 717 Q 742 718 745 732 Q 746 747 734 774 Q 718 808 608 821 Q 593 822 587 819 Q 583 815 587 803 Q 591 793 620 777 Z" fill="black"></path>
				<path d="M 543 591 Q 580 576 632 588 Q 734 609 840 631 Q 888 643 895 649 Q 905 658 899 667 Q 892 680 860 688 Q 833 694 713 655 Q 548 625 538 624 Q 537 624 537 623 C 508 616 515 601 543 591 Z" fill="black"></path>
				<path d="M 537 623 Q 521 636 496 647 Q 477 657 464 651 Q 452 644 459 631 Q 477 609 478 548 Q 478 368 438 237 Q 405 137 334 18 Q 330 12 327 6 Q 326 -4 336 -2 Q 372 5 449 145 Q 455 160 463 175 Q 524 322 537 556 Q 537 574 543 591 C 549 615 549 615 537 623 Z" fill="red"></path>
</g>
		<text x="40" y="140" font-size="128" fill="#999999">6</text></g>
		<g id="id1:id1:id1" transform="matrix(1.0,0,0,1.0,1024,0.0)">			<g stroke="white" stroke-width="4" transform="scale(4, 4)"> <rect x="1" y="1" width="255" height="255" fill="white" stroke-width="0"/></g>
</g>
		<g id="id1:id2:id2" transform="matrix(1.0,0,0,1.0,2048,0.0)">			<g stroke="white" stroke-width="4" transform="scale(4, 4)"> <rect x="1" y="1" width="255" height="255" fill="white" stroke-width="0"/></g>
</g>
		<g id="id1:id3:id3" transform="matrix(1.0,0,0,1.0,3072,0.0)">			<g stroke="white" stroke-width="4" transform="scale(4, 4)"> <rect x="1" y="1" width="255" height="255" fill="white" stroke-width="0"/></g>
</g>
		<g id="id1:id4:id4" transform="matrix(1.0,0,0,1.0,4096,0.0)">			<g stroke="white" stroke-width="4" transform="scale(4, 4)"> <rect x="1" y="1" width="255" height="255" fill="white" stroke-width="0"/></g>
</g>
</g>
</svg>
