<?xml version="1.0" standalone="no"?>
<!DOCTYPE svg PUBLIC "-//W3C//DTD SVG 1.1//EN"
 "http://www.w3.org/Graphics/SVG/1.1/DTD/svg11.dtd">
<!-- generate by Handict dictionary app com.asnsami.handict -->

<svg xmlns="http://www.w3.org/2000/svg" xmlns:sodipodi="http://sodipodi.sourceforge.net/DTD/sodipodi-0.dtd" version="1.1" width="640" height="256" viewBox="0 0 5120 2048">
	<g id="id0:id0" transform="translate(0.0,0)">
		<g id="id0:id0:id0" transform="matrix(1.0,0,0,1.0,0,0.0)">			<g stroke="lightgray" stroke-width="4" transform="scale(4, 4)"> <rect x="0" y="0" width="256" height="256" fill="white" stroke-width="4"/></g>
			<g transform="scale(0.92, -0.92) translate(60, -920)">					<path d="M 299 508 Q 320 517 343 523 Q 374 533 378 539 Q 387 549 381 556 Q 372 568 341 571 Q 322 572 302 566 L 249 542 Q 134 508 117 503 Q 80 493 109 479 Q 152 463 227 486 Q 236 489 248 492 L 299 508 Z" fill="red"></path>
				<path d="M 288 316 Q 294 415 299 508 L 302 566 Q 303 668 327 753 Q 331 765 308 782 Q 269 803 243 807 Q 225 811 216 801 Q 207 794 217 777 Q 245 734 245 706 Q 248 627 249 542 L 248 492 Q 247 399 242 298 C 241 268 286 286 288 316 Z" fill="lightgray"></path>
				<path d="M 242 298 Q 190 280 137 260 Q 118 253 86 251 Q 73 248 71 237 Q 70 224 81 215 Q 106 199 144 182 Q 154 181 167 190 Q 201 221 368 314 Q 393 327 409 342 Q 422 351 422 361 Q 415 367 403 363 Q 348 341 288 316 L 242 298 Z" fill="lightgray"></path>
				<path d="M 589 738 Q 617 714 649 687 Q 667 672 686 674 Q 699 675 704 692 Q 708 711 695 747 Q 688 768 652 781 Q 570 806 552 796 Q 546 790 549 775 Q 553 762 589 738 Z" fill="lightgray"></path>
				<path d="M 617 538 Q 651 547 902 568 Q 921 569 925 578 Q 929 590 913 602 Q 862 638 825 626 Q 708 593 415 538 Q 394 535 411 519 Q 424 507 443 503 Q 462 499 478 504 Q 518 517 564 528 L 617 538 Z" fill="lightgray"></path>
				<path d="M 609 409 Q 619 393 703 382 Q 745 376 743 338 Q 734 271 699 183 Q 669 114 640 103 Q 625 97 583 117 Q 543 136 538 130 Q 531 120 550 107 Q 595 62 602 25 Q 606 6 620 -1 Q 633 -8 671 15 Q 720 52 758 159 Q 807 321 826 334 Q 838 340 840 349 Q 841 359 815 387 Q 776 426 735 418 Q 692 415 621 438 C 592 447 584 425 609 409 Z" fill="lightgray"></path>
				<path d="M 621 438 Q 634 463 649 488 Q 658 498 652 510 Q 645 522 617 538 C 592 554 564 558 564 528 Q 571 372 418 210 Q 414 207 412 204 Q 369 155 260 71 Q 251 64 259 60 Q 266 57 279 62 Q 462 137 565 318 Q 586 358 609 409 L 621 438 Z" fill="lightgray"></path>
</g>
		<text x="40" y="140" font-size="128" fill="#999999">1</text></g>
		<g id="id0:id1:id1" transform="matrix(1.0,0,0,1.0,1024,0.0)">			<g stroke="lightgray" stroke-width="4" transform="scale(4, 4)"> <rect x="0" y="0" width="256" height="256" fill="white" stroke-width="4"/></g>
			<g transform="scale(0.92, -0.92) translate(60, -920)">					<path d="M 299 508 Q 320 517 343 523 Q 374 533 378 539 Q 387 549 381 556 Q 372 568 341 571 Q 322 572 302 566 L 249 542 Q 134 508 117 503 Q 80 493 109 479 Q 152 463 227 486 Q 236 489 248 492 L 299 508 Z" fill="black"></path>
				<path d="M 288 316 Q 294 415 299 508 L 302 566 Q 303 668 327 753 Q 331 765 308 782 Q 269 803 243 807 Q 225 811 216 801 Q 207 794 217 777 Q 245 734 245 706 Q 248 627 249 542 L 248 492 Q 247 399 242 298 C 241 268 286 286 288 316 Z" fill="red"></path>
				<path d="M 242 298 Q 190 280 137 260 Q 118 253 86 251 Q 73 248 71 237 Q 70 224 81 215 Q 106 199 144 182 Q 154 181 167 190 Q 201 221 368 314 Q 393 327 409 342 Q 422 351 422 361 Q 415 367 403 363 Q 348 341 288 316 L 242 298 Z" fill="lightgray"></path>
				<path d="M 589 738 Q 617 714 649 687 Q 667 672 686 674 Q 699 675 704 692 Q 708 711 695 747 Q 688 768 652 781 Q 570 806 552 796 Q 546 790 549 775 Q 553 762 589 738 Z" fill="lightgray"></path>
				<path d="M 617 538 Q 651 547 902 568 Q 921 569 925 578 Q 929 590 913 602 Q 862 638 825 626 Q 708 593 415 538 Q 394 535 411 519 Q 424 507 443 503 Q 462 499 478 504 Q 518 517 564 528 L 617 538 Z" fill="lightgray"></path>
				<path d="M 609 409 Q 619 393 703 382 Q 745 376 743 338 Q 734 271 699 183 Q 669 114 640 103 Q 625 97 583 117 Q 543 136 538 130 Q 531 120 550 107 Q 595 62 602 25 Q 606 6 620 -1 Q 633 -8 671 15 Q 720 52 758 159 Q 807 321 826 334 Q 838 340 840 349 Q 841 359 815 387 Q 776 426 735 418 Q 692 415 621 438 C 592 447 584 425 609 409 Z" fill="lightgray"></path>
				<path d="M 621 438 Q 634 463 649 488 Q 658 498 652 510 Q 645 522 617 538 C 592 554 564 558 564 528 Q 571 372 418 210 Q 414 207 412 204 Q 369 155 260 71 Q 251 64 259 60 Q 266 57 279 62 Q 462 137 565 318 Q 586 358 609 409 L 621 438 Z" fill="lightgray"></path>
</g>
		<text x="40" y="140" font-size="128" fill="#999999">2</text></g>
		<g id="id0:id2:id2" transform="matrix(1.0,0,0,1.0,2048,0.0)">			<g stroke="lightgray" stroke-width="4" transform="scale(4, 4)"> <rect x="0" y="0" width="256" height="256" fill="white" stroke-width="4"/></g>
			<g transform="scale(0.92, -0.92) translate(60, -920)">					<path d="M 299 508 Q 320 517 343 523 Q 374 533 378 539 Q 387 549 381 556 Q 372 568 341 571 Q 322 572 302 566 L 249 542 Q 134 508 117 503 Q 80 493 109 479 Q 152 463 227 486 Q 236 489 248 492 L 299 508 Z" fill="black"></path>
				<path d="M 288 316 Q 294 415 299 508 L 302 566 Q 303 668 327 753 Q 331 765 308 782 Q 269 803 243 807 Q 225 811 216 801 Q 207 794 217 777 Q 245 734 245 706 Q 248 627 249 542 L 248 492 Q 247 399 242 298 C 241 268 286 286 288 316 Z" fill="black"></path>
				<path d="M 242 298 Q 190 280 137 260 Q 118 253 86 251 Q 73 248 71 237 Q 70 224 81 215 Q 106 199 144 182 Q 154 181 167 190 Q 201 221 368 314 Q 393 327 409 342 Q 422 351 422 361 Q 415 367 403 363 Q 348 341 288 316 L 242 298 Z" fill="red"></path>
				<path d="M 589 738 Q 617 714 649 687 Q 667 672 686 674 Q 699 675 704 692 Q 708 711 695 747 Q 688 768 652 781 Q 570 806 552 796 Q 546 790 549 775 Q 553 762 589 738 Z" fill="lightgray"></path>
				<path d="M 617 538 Q 651 547 902 568 Q 921 569 925 578 Q 929 590 913 602 Q 862 638 825 626 Q 708 593 415 538 Q 394 535 411 519 Q 424 507 443 503 Q 462 499 478 504 Q 518 517 564 528 L 617 538 Z" fill="lightgray"></path>
				<path d="M 609 409 Q 619 393 703 382 Q 745 376 743 338 Q 734 271 699 183 Q 669 114 640 103 Q 625 97 583 117 Q 543 136 538 130 Q 531 120 550 107 Q 595 62 602 25 Q 606 6 620 -1 Q 633 -8 671 15 Q 720 52 758 159 Q 807 321 826 334 Q 838 340 840 349 Q 841 359 815 387 Q 776 426 735 418 Q 692 415 621 438 C 592 447 584 425 609 409 Z" fill="lightgray"></path>
				<path d="M 621 438 Q 634 463 649 488 Q 658 498 652 510 Q 645 522 617 538 C 592 554 564 558 564 528 Q 571 372 418 210 Q 414 207 412 204 Q 369 155 260 71 Q 251 64 259 60 Q 266 57 279 62 Q 462 137 565 318 Q 586 358 609 409 L 621 438 Z" fill="lightgray"></path>
</g>
		<text x="40" y="140" font-size="128" fill="#999999">3</text></g>
		<g id="id0:id3:id3" transform="matrix(1.0,0,0,1.0,3072,0.0)">			<g stroke="lightgray" stroke-width="4" transform="scale(4, 4)"> <rect x="0" y="0" width="256" height="256" fill="white" stroke-width="4"/></g>
			<g transform="scale(0.92, -0.92) translate(60, -920)">					<path d="M 299 508 Q 320 517 343 523 Q 374 533 378 539 Q 387 549 381 556 Q 372 568 341 571 Q 322 572 302 566 L 249 542 Q 134 508 117 503 Q 80 493 109 479 Q 152 463 227 486 Q 236 489 248 492 L 299 508 Z" fill="black"></path>
				<path d="M 288 316 Q 294 415 299 508 L 302 566 Q 303 668 327 753 Q 331 765 308 782 Q 269 803 243 807 Q 225 811 216 801 Q 207 794 217 777 Q 245 734 245 706 Q 248 627 249 542 L 248 492 Q 247 399 242 298 C 241 268 286 286 288 316 Z" fill="black"></path>
				<path d="M 242 298 Q 190 280 137 260 Q 118 253 86 251 Q 73 248 71 237 Q 70 224 81 215 Q 106 199 144 182 Q 154 181 167 190 Q 201 221 368 314 Q 393 327 409 342 Q 422 351 422 361 Q 415 367 403 363 Q 348 341 288 316 L 242 298 Z" fill="black"></path>
				<path d="M 589 738 Q 617 714 649 687 Q 667 672 686 674 Q 699 675 704 692 Q 708 711 695 747 Q 688 768 652 781 Q 570 806 552 796 Q 546 790 549 775 Q 553 762 589 738 Z" fill="red"></path>
				<path d="M 617 538 Q 651 547 902 568 Q 921 569 925 578 Q 929 590 913 602 Q 862 638 825 626 Q 708 593 415 538 Q 394 535 411 519 Q 424 507 443 503 Q 462 499 478 504 Q 518 517 564 528 L 617 538 Z" fill="lightgray"></path>
				<path d="M 609 409 Q 619 393 703 382 Q 745 376 743 338 Q 734 271 699 183 Q 669 114 640 103 Q 625 97 583 117 Q 543 136 538 130 Q 531 120 550 107 Q 595 62 602 25 Q 606 6 620 -1 Q 633 -8 671 15 Q 720 52 758 159 Q 807 321 826 334 Q 838 340 840 349 Q 841 359 815 387 Q 776 426 735 418 Q 692 415 621 438 C 592 447 584 425 609 409 Z" fill="lightgray"></path>
				<path d="M 621 438 Q 634 463 649 488 Q 658 498 652 510 Q 645 522 617 538 C 592 554 564 558 564 528 Q 571 372 418 210 Q 414 207 412 204 Q 369 155 260 71 Q 251 64 259 60 Q 266 57 279 62 Q 462 137 565 318 Q 586 358 609 409 L 621 438 Z" fill="lightgray"></path>
</g>
		<text x="40" y="140" font-size="128" fill="#999999">4</text></g>
		<g id="id0:id4:id4" transform="matrix(1.0,0,0,1.0,4096,0.0)">			<g stroke="lightgray" stroke-width="4" transform="scale(4, 4)"> <rect x="0" y="0" width="256" height="256" fill="white" stroke-width="4"/></g>
			<g transform="scale(0.92, -0.92) translate(60, -920)">					<path d="M 299 508 Q 320 517 343 523 Q 374 533 378 539 Q 387 549 381 556 Q 372 568 341 571 Q 322 572 302 566 L 249 542 Q 134 508 117 503 Q 80 493 109 479 Q 152 463 227 486 Q 236 489 248 492 L 299 508 Z" fill="black"></path>
				<path d="M 288 316 Q 294 415 299 508 L 302 566 Q 303 668 327 753 Q 331 765 308 782 Q 269 803 243 807 Q 225 811 216 801 Q 207 794 217 777 Q 245 734 245 706 Q 248 627 249 542 L 248 492 Q 247 399 242 298 C 241 268 286 286 288 316 Z" fill="black"></path>
				<path d="M 242 298 Q 190 280 137 260 Q 118 253 86 251 Q 73 248 71 237 Q 70 224 81 215 Q 106 199 144 182 Q 154 181 167 190 Q 201 221 368 314 Q 393 327 409 342 Q 422 351 422 361 Q 415 367 403 363 Q 348 341 288 316 L 242 298 Z" fill="black"></path>
				<path d="M 589 738 Q 617 714 649 687 Q 667 672 686 674 Q 699 675 704 692 Q 708 711 695 747 Q 688 768 652 781 Q 570 806 552 796 Q 546 790 549 775 Q 553 762 589 738 Z" fill="black"></path>
				<path d="M 617 538 Q 651 547 902 568 Q 921 569 925 578 Q 929 590 913 602 Q 862 638 825 626 Q 708 593 415 538 Q 394 535 411 519 Q 424 507 443 503 Q 462 499 478 504 Q 518 517 564 528 L 617 538 Z" fill="red"></path>
				<path d="M 609 409 Q 619 393 703 382 Q 745 376 743 338 Q 734 271 699 183 Q 669 114 640 103 Q 625 97 583 117 Q 543 136 538 130 Q 531 120 550 107 Q 595 62 602 25 Q 606 6 620 -1 Q 633 -8 671 15 Q 720 52 758 159 Q 807 321 826 334 Q 838 340 840 349 Q 841 359 815 387 Q 776 426 735 418 Q 692 415 621 438 C 592 447 584 425 609 409 Z" fill="lightgray"></path>
				<path d="M 621 438 Q 634 463 649 488 Q 658 498 652 510 Q 645 522 617 538 C 592 554 564 558 564 528 Q 571 372 418 210 Q 414 207 412 204 Q 369 155 260 71 Q 251 64 259 60 Q 266 57 279 62 Q 462 137 565 318 Q 586 358 609 409 L 621 438 Z" fill="lightgray"></path>
</g>
		<text x="40" y="140" font-size="128" fill="#999999">5</text></g>
</g>
	<g id="id1:id1" transform="translate(0.0,1024)">
		<g id="id1:id0:id0" transform="matrix(1.0,0,0,1.0,0,0.0)">			<g stroke="lightgray" stroke-width="4" transform="scale(4, 4)"> <rect x="0" y="0" width="256" height="256" fill="white" stroke-width="4"/></g>
			<g transform="scale(0.92, -0.92) translate(60, -920)">					<path d="M 299 508 Q 320 517 343 523 Q 374 533 378 539 Q 387 549 381 556 Q 372 568 341 571 Q 322 572 302 566 L 249 542 Q 134 508 117 503 Q 80 493 109 479 Q 152 463 227 486 Q 236 489 248 492 L 299 508 Z" fill="black"></path>
				<path d="M 288 316 Q 294 415 299 508 L 302 566 Q 303 668 327 753 Q 331 765 308 782 Q 269 803 243 807 Q 225 811 216 801 Q 207 794 217 777 Q 245 734 245 706 Q 248 627 249 542 L 248 492 Q 247 399 242 298 C 241 268 286 286 288 316 Z" fill="black"></path>
				<path d="M 242 298 Q 190 280 137 260 Q 118 253 86 251 Q 73 248 71 237 Q 70 224 81 215 Q 106 199 144 182 Q 154 181 167 190 Q 201 221 368 314 Q 393 327 409 342 Q 422 351 422 361 Q 415 367 403 363 Q 348 341 288 316 L 242 298 Z" fill="black"></path>
				<path d="M 589 738 Q 617 714 649 687 Q 667 672 686 674 Q 699 675 704 692 Q 708 711 695 747 Q 688 768 652 781 Q 570 806 552 796 Q 546 790 549 775 Q 553 762 589 738 Z" fill="black"></path>
				<path d="M 617 538 Q 651 547 902 568 Q 921 569 925 578 Q 929 590 913 602 Q 862 638 825 626 Q 708 593 415 538 Q 394 535 411 519 Q 424 507 443 503 Q 462 499 478 504 Q 518 517 564 528 L 617 538 Z" fill="black"></path>
				<path d="M 609 409 Q 619 393 703 382 Q 745 376 743 338 Q 734 271 699 183 Q 669 114 640 103 Q 625 97 583 117 Q 543 136 538 130 Q 531 120 550 107 Q 595 62 602 25 Q 606 6 620 -1 Q 633 -8 671 15 Q 720 52 758 159 Q 807 321 826 334 Q 838 340 840 349 Q 841 359 815 387 Q 776 426 735 418 Q 692 415 621 438 C 592 447 584 425 609 409 Z" fill="red"></path>
				<path d="M 621 438 Q 634 463 649 488 Q 658 498 652 510 Q 645 522 617 538 C 592 554 564 558 564 528 Q 571 372 418 210 Q 414 207 412 204 Q 369 155 260 71 Q 251 64 259 60 Q 266 57 279 62 Q 462 137 565 318 Q 586 358 609 409 L 621 438 Z" fill="lightgray"></path>
</g>
		<text x="40" y="140" font-size="128" fill="#999999">6</text></g>
		<g id="id1:id1:id1" transform="matrix(1.0,0,0,1.0,1024,0.0)">			<g stroke="lightgray" stroke-width="4" transform="scale(4, 4)"> <rect x="0" y="0" width="256" height="256" fill="white" stroke-width="4"/></g>
			<g transform="scale(0.92, -0.92) translate(60, -920)">					<path d="M 299 508 Q 320 517 343 523 Q 374 533 378 539 Q 387 549 381 556 Q 372 568 341 571 Q 322 572 302 566 L 249 542 Q 134 508 117 503 Q 80 493 109 479 Q 152 463 227 486 Q 236 489 248 492 L 299 508 Z" fill="black"></path>
				<path d="M 288 316 Q 294 415 299 508 L 302 566 Q 303 668 327 753 Q 331 765 308 782 Q 269 803 243 807 Q 225 811 216 801 Q 207 794 217 777 Q 245 734 245 706 Q 248 627 249 542 L 248 492 Q 247 399 242 298 C 241 268 286 286 288 316 Z" fill="black"></path>
				<path d="M 242 298 Q 190 280 137 260 Q 118 253 86 251 Q 73 248 71 237 Q 70 224 81 215 Q 106 199 144 182 Q 154 181 167 190 Q 201 221 368 314 Q 393 327 409 342 Q 422 351 422 361 Q 415 367 403 363 Q 348 341 288 316 L 242 298 Z" fill="black"></path>
				<path d="M 589 738 Q 617 714 649 687 Q 667 672 686 674 Q 699 675 704 692 Q 708 711 695 747 Q 688 768 652 781 Q 570 806 552 796 Q 546 790 549 775 Q 553 762 589 738 Z" fill="black"></path>
				<path d="M 617 538 Q 651 547 902 568 Q 921 569 925 578 Q 929 590 913 602 Q 862 638 825 626 Q 708 593 415 538 Q 394 535 411 519 Q 424 507 443 503 Q 462 499 478 504 Q 518 517 564 528 L 617 538 Z" fill="black"></path>
				<path d="M 609 409 Q 619 393 703 382 Q 745 376 743 338 Q 734 271 699 183 Q 669 114 640 103 Q 625 97 583 117 Q 543 136 538 130 Q 531 120 550 107 Q 595 62 602 25 Q 606 6 620 -1 Q 633 -8 671 15 Q 720 52 758 159 Q 807 321 826 334 Q 838 340 840 349 Q 841 359 815 387 Q 776 426 735 418 Q 692 415 621 438 C 592 447 584 425 609 409 Z" fill="black"></path>
				<path d="M 621 438 Q 634 463 649 488 Q 658 498 652 510 Q 645 522 617 538 C 592 554 564 558 564 528 Q 571 372 418 210 Q 414 207 412 204 Q 369 155 260 71 Q 251 64 259 60 Q 266 57 279 62 Q 462 137 565 318 Q 586 358 609 409 L 621 438 Z" fill="red"></path>
</g>
		<text x="40" y="140" font-size="128" fill="#999999">7</text></g>
		<g id="id1:id2:id2" transform="matrix(1.0,0,0,1.0,2048,0.0)">			<g stroke="white" stroke-width="4" transform="scale(4, 4)"> <rect x="1" y="1" width="255" height="255" fill="white" stroke-width="0"/></g>
</g>
		<g id="id1:id3:id3" transform="matrix(1.0,0,0,1.0,3072,0.0)">			<g stroke="white" stroke-width="4" transform="scale(4, 4)"> <rect x="1" y="1" width="255" height="255" fill="white" stroke-width="0"/></g>
</g>
		<g id="id1:id4:id4" transform="matrix(1.0,0,0,1.0,4096,0.0)">			<g stroke="white" stroke-width="4" transform="scale(4, 4)"> <rect x="1" y="1" width="255" height="255" fill="white" stroke-width="0"/></g>
</g>
</g>
</svg>
