<?xml version="1.0" standalone="no"?>
<!DOCTYPE svg PUBLIC "-//W3C//DTD SVG 1.1//EN"
 "http://www.w3.org/Graphics/SVG/1.1/DTD/svg11.dtd">
<!-- generate by Japanese dictionary app com.asnsami.kanjidictionary -->

<svg xmlns="http://www.w3.org/2000/svg" xmlns:sodipodi="http://sodipodi.sourceforge.net/DTD/sodipodi-0.dtd" version="1.1" width="640" height="128" viewBox="0 0 5120 1024">
	<g id="id0:id0" transform="translate(0.0,0)">
		<g id="id0:id0:id0" transform="matrix(1.0,0,0,1.0,0,0.0)">			<g stroke="lightgray" stroke-width="4" transform="scale(4, 4)"> <rect x="0" y="0" width="256" height="256" fill="white" stroke-width="4"/></g>
			<g transform="scale(0.92, -0.92) translate(60, -920)">					<path d="M 340 575 Q 382 644 392 660 Q 402 673 387 687 Q 344 720 319 714 Q 309 711 311 697 Q 324 613 238 504 Q 229 501 201 460 Q 194 444 208 450 Q 259 459 326 554 L 340 575 Z" fill="red"></path>
				<path d="M 540 564 Q 703 604 711 609 Q 721 618 716 627 Q 707 640 676 647 Q 643 653 611 640 Q 577 628 543 617 L 492 602 Q 423 586 342 576 Q 341 576 340 575 C 311 569 303 568 326 554 Q 335 545 372 537 Q 396 534 490 553 L 540 564 Z" fill="lightgray"></path>
				<path d="M 524 370 Q 618 383 763 386 Q 830 386 837 397 Q 841 410 824 425 Q 764 464 727 454 Q 651 436 529 412 L 478 403 Q 351 384 205 360 Q 183 357 199 339 Q 238 308 274 320 Q 364 347 471 362 L 524 370 Z" fill="lightgray"></path>
				<path d="M 521 357 Q 522 364 524 370 L 529 412 Q 538 553 540 564 L 543 617 Q 546 725 571 769 Q 578 787 568 799 Q 544 818 502 831 Q 475 838 466 831 Q 456 824 464 810 Q 489 770 491 720 Q 492 662 492 602 L 490 553 Q 487 496 478 403 L 471 362 Q 441 224 370 160 Q 301 94 152 35 Q 139 28 137 24 Q 138 20 150 17 Q 174 13 232 29 Q 331 53 402 117 Q 480 186 513 319 L 521 357 Z" fill="lightgray"></path>
				<path d="M 513 319 Q 604 183 724 38 Q 745 13 780 13 Q 901 12 939 17 Q 949 20 952 25 Q 953 31 937 39 Q 775 102 723 147 Q 629 234 521 357 C 501 379 496 344 513 319 Z" fill="lightgray"></path>
</g>
		<text x="40" y="140" font-size="128" fill="#999999">1</text></g>
		<g id="id0:id1:id1" transform="matrix(1.0,0,0,1.0,1024,0.0)">			<g stroke="lightgray" stroke-width="4" transform="scale(4, 4)"> <rect x="0" y="0" width="256" height="256" fill="white" stroke-width="4"/></g>
			<g transform="scale(0.92, -0.92) translate(60, -920)">					<path d="M 340 575 Q 382 644 392 660 Q 402 673 387 687 Q 344 720 319 714 Q 309 711 311 697 Q 324 613 238 504 Q 229 501 201 460 Q 194 444 208 450 Q 259 459 326 554 L 340 575 Z" fill="black"></path>
				<path d="M 540 564 Q 703 604 711 609 Q 721 618 716 627 Q 707 640 676 647 Q 643 653 611 640 Q 577 628 543 617 L 492 602 Q 423 586 342 576 Q 341 576 340 575 C 311 569 303 568 326 554 Q 335 545 372 537 Q 396 534 490 553 L 540 564 Z" fill="red"></path>
				<path d="M 524 370 Q 618 383 763 386 Q 830 386 837 397 Q 841 410 824 425 Q 764 464 727 454 Q 651 436 529 412 L 478 403 Q 351 384 205 360 Q 183 357 199 339 Q 238 308 274 320 Q 364 347 471 362 L 524 370 Z" fill="lightgray"></path>
				<path d="M 521 357 Q 522 364 524 370 L 529 412 Q 538 553 540 564 L 543 617 Q 546 725 571 769 Q 578 787 568 799 Q 544 818 502 831 Q 475 838 466 831 Q 456 824 464 810 Q 489 770 491 720 Q 492 662 492 602 L 490 553 Q 487 496 478 403 L 471 362 Q 441 224 370 160 Q 301 94 152 35 Q 139 28 137 24 Q 138 20 150 17 Q 174 13 232 29 Q 331 53 402 117 Q 480 186 513 319 L 521 357 Z" fill="lightgray"></path>
				<path d="M 513 319 Q 604 183 724 38 Q 745 13 780 13 Q 901 12 939 17 Q 949 20 952 25 Q 953 31 937 39 Q 775 102 723 147 Q 629 234 521 357 C 501 379 496 344 513 319 Z" fill="lightgray"></path>
</g>
		<text x="40" y="140" font-size="128" fill="#999999">2</text></g>
		<g id="id0:id2:id2" transform="matrix(1.0,0,0,1.0,2048,0.0)">			<g stroke="lightgray" stroke-width="4" transform="scale(4, 4)"> <rect x="0" y="0" width="256" height="256" fill="white" stroke-width="4"/></g>
			<g transform="scale(0.92, -0.92) translate(60, -920)">					<path d="M 340 575 Q 382 644 392 660 Q 402 673 387 687 Q 344 720 319 714 Q 309 711 311 697 Q 324 613 238 504 Q 229 501 201 460 Q 194 444 208 450 Q 259 459 326 554 L 340 575 Z" fill="black"></path>
				<path d="M 540 564 Q 703 604 711 609 Q 721 618 716 627 Q 707 640 676 647 Q 643 653 611 640 Q 577 628 543 617 L 492 602 Q 423 586 342 576 Q 341 576 340 575 C 311 569 303 568 326 554 Q 335 545 372 537 Q 396 534 490 553 L 540 564 Z" fill="black"></path>
				<path d="M 524 370 Q 618 383 763 386 Q 830 386 837 397 Q 841 410 824 425 Q 764 464 727 454 Q 651 436 529 412 L 478 403 Q 351 384 205 360 Q 183 357 199 339 Q 238 308 274 320 Q 364 347 471 362 L 524 370 Z" fill="red"></path>
				<path d="M 521 357 Q 522 364 524 370 L 529 412 Q 538 553 540 564 L 543 617 Q 546 725 571 769 Q 578 787 568 799 Q 544 818 502 831 Q 475 838 466 831 Q 456 824 464 810 Q 489 770 491 720 Q 492 662 492 602 L 490 553 Q 487 496 478 403 L 471 362 Q 441 224 370 160 Q 301 94 152 35 Q 139 28 137 24 Q 138 20 150 17 Q 174 13 232 29 Q 331 53 402 117 Q 480 186 513 319 L 521 357 Z" fill="lightgray"></path>
				<path d="M 513 319 Q 604 183 724 38 Q 745 13 780 13 Q 901 12 939 17 Q 949 20 952 25 Q 953 31 937 39 Q 775 102 723 147 Q 629 234 521 357 C 501 379 496 344 513 319 Z" fill="lightgray"></path>
</g>
		<text x="40" y="140" font-size="128" fill="#999999">3</text></g>
		<g id="id0:id3:id3" transform="matrix(1.0,0,0,1.0,3072,0.0)">			<g stroke="lightgray" stroke-width="4" transform="scale(4, 4)"> <rect x="0" y="0" width="256" height="256" fill="white" stroke-width="4"/></g>
			<g transform="scale(0.92, -0.92) translate(60, -920)">					<path d="M 340 575 Q 382 644 392 660 Q 402 673 387 687 Q 344 720 319 714 Q 309 711 311 697 Q 324 613 238 504 Q 229 501 201 460 Q 194 444 208 450 Q 259 459 326 554 L 340 575 Z" fill="black"></path>
				<path d="M 540 564 Q 703 604 711 609 Q 721 618 716 627 Q 707 640 676 647 Q 643 653 611 640 Q 577 628 543 617 L 492 602 Q 423 586 342 576 Q 341 576 340 575 C 311 569 303 568 326 554 Q 335 545 372 537 Q 396 534 490 553 L 540 564 Z" fill="black"></path>
				<path d="M 524 370 Q 618 383 763 386 Q 830 386 837 397 Q 841 410 824 425 Q 764 464 727 454 Q 651 436 529 412 L 478 403 Q 351 384 205 360 Q 183 357 199 339 Q 238 308 274 320 Q 364 347 471 362 L 524 370 Z" fill="black"></path>
				<path d="M 521 357 Q 522 364 524 370 L 529 412 Q 538 553 540 564 L 543 617 Q 546 725 571 769 Q 578 787 568 799 Q 544 818 502 831 Q 475 838 466 831 Q 456 824 464 810 Q 489 770 491 720 Q 492 662 492 602 L 490 553 Q 487 496 478 403 L 471 362 Q 441 224 370 160 Q 301 94 152 35 Q 139 28 137 24 Q 138 20 150 17 Q 174 13 232 29 Q 331 53 402 117 Q 480 186 513 319 L 521 357 Z" fill="red"></path>
				<path d="M 513 319 Q 604 183 724 38 Q 745 13 780 13 Q 901 12 939 17 Q 949 20 952 25 Q 953 31 937 39 Q 775 102 723 147 Q 629 234 521 357 C 501 379 496 344 513 319 Z" fill="lightgray"></path>
</g>
		<text x="40" y="140" font-size="128" fill="#999999">4</text></g>
		<g id="id0:id4:id4" transform="matrix(1.0,0,0,1.0,4096,0.0)">			<g stroke="lightgray" stroke-width="4" transform="scale(4, 4)"> <rect x="0" y="0" width="256" height="256" fill="white" stroke-width="4"/></g>
			<g transform="scale(0.92, -0.92) translate(60, -920)">					<path d="M 340 575 Q 382 644 392 660 Q 402 673 387 687 Q 344 720 319 714 Q 309 711 311 697 Q 324 613 238 504 Q 229 501 201 460 Q 194 444 208 450 Q 259 459 326 554 L 340 575 Z" fill="black"></path>
				<path d="M 540 564 Q 703 604 711 609 Q 721 618 716 627 Q 707 640 676 647 Q 643 653 611 640 Q 577 628 543 617 L 492 602 Q 423 586 342 576 Q 341 576 340 575 C 311 569 303 568 326 554 Q 335 545 372 537 Q 396 534 490 553 L 540 564 Z" fill="black"></path>
				<path d="M 524 370 Q 618 383 763 386 Q 830 386 837 397 Q 841 410 824 425 Q 764 464 727 454 Q 651 436 529 412 L 478 403 Q 351 384 205 360 Q 183 357 199 339 Q 238 308 274 320 Q 364 347 471 362 L 524 370 Z" fill="black"></path>
				<path d="M 521 357 Q 522 364 524 370 L 529 412 Q 538 553 540 564 L 543 617 Q 546 725 571 769 Q 578 787 568 799 Q 544 818 502 831 Q 475 838 466 831 Q 456 824 464 810 Q 489 770 491 720 Q 492 662 492 602 L 490 553 Q 487 496 478 403 L 471 362 Q 441 224 370 160 Q 301 94 152 35 Q 139 28 137 24 Q 138 20 150 17 Q 174 13 232 29 Q 331 53 402 117 Q 480 186 513 319 L 521 357 Z" fill="black"></path>
				<path d="M 513 319 Q 604 183 724 38 Q 745 13 780 13 Q 901 12 939 17 Q 949 20 952 25 Q 953 31 937 39 Q 775 102 723 147 Q 629 234 521 357 C 501 379 496 344 513 319 Z" fill="red"></path>
</g>
		<text x="40" y="140" font-size="128" fill="#999999">5</text></g>
</g>
</svg>
