<?xml version="1.0" standalone="no"?>
<!DOCTYPE svg PUBLIC "-//W3C//DTD SVG 1.1//EN"
 "http://www.w3.org/Graphics/SVG/1.1/DTD/svg11.dtd">
<!-- generate by Japanese dictionary app com.asnsami.kanjidictionary -->

<svg xmlns="http://www.w3.org/2000/svg" xmlns:sodipodi="http://sodipodi.sourceforge.net/DTD/sodipodi-0.dtd" version="1.1" width="640" height="384" viewBox="0 0 5120 3072">
	<g id="id0:id0" transform="translate(0.0,0)">
		<g id="id0:id0:id0" transform="matrix(1.0,0,0,1.0,0,0.0)">			<g stroke="lightgray" stroke-width="4" transform="scale(4, 4)"> <rect x="0" y="0" width="256" height="256" fill="white" stroke-width="4"/></g>
			<g transform="scale(0.92, -0.92) translate(60, -920)">					<path d="M 592 678 Q 592 679 739 693 Q 749 692 760 705 Q 761 717 738 728 Q 702 750 629 731 Q 581 722 533 712 Q 506 708 481 702 L 424 694 Q 396 691 369 688 Q 314 684 254 678 Q 223 675 246 656 Q 270 635 314 635 Q 351 642 397 649 L 456 658 Q 505 668 561 674 L 592 678 Z" fill="red"></path>
				<path d="M 481 702 Q 517 772 542 807 Q 551 816 546 827 Q 542 837 513 857 Q 494 870 483 870 Q 470 869 470 853 Q 470 787 424 694 L 397 649 Q 298 525 172 434 Q 138 412 97 385 Q 90 379 95 375 Q 102 372 114 375 Q 199 403 272 454 Q 374 520 456 658 L 481 702 Z" fill="lightgray"></path>
				<path d="M 561 674 Q 753 467 805 453 Q 901 453 956 465 Q 972 466 974 472 Q 975 478 962 483 Q 782 549 771 554 Q 681 599 592 678 C 569 698 541 696 561 674 Z" fill="lightgray"></path>
				<path d="M 518 481 Q 608 500 611 504 Q 618 511 615 518 Q 608 528 583 535 Q 559 539 523 527 L 474 513 Q 381 498 364 496 Q 333 492 355 476 Q 389 458 450 469 Q 462 472 475 473 L 518 481 Z" fill="lightgray"></path>
				<path d="M 507 394 Q 513 439 518 481 L 523 527 Q 523 528 524 529 Q 528 547 531 559 Q 534 569 536 576 Q 540 585 524 597 Q 497 613 479 617 Q 466 620 460 613 Q 453 607 460 596 Q 473 577 474 513 L 475 473 Q 475 433 473 389 C 472 359 503 364 507 394 Z" fill="lightgray"></path>
				<path d="M 574 366 Q 644 372 800 373 Q 819 373 823 382 Q 829 392 812 406 Q 755 448 699 429 Q 662 423 616 413 L 557 402 Q 532 399 507 394 L 473 389 Q 340 370 188 350 Q 167 347 183 331 Q 196 318 214 313 Q 235 309 250 312 Q 383 351 521 361 L 574 366 Z" fill="lightgray"></path>
				<path d="M 480 274 Q 531 323 574 366 L 616 413 Q 656 459 680 480 Q 689 487 685 503 Q 669 554 640 561 Q 625 564 626 545 Q 626 503 582 437 Q 569 419 557 402 L 521 361 Q 458 298 423 267 L 385 236 Q 268 143 126 61 Q 119 58 118 52 Q 117 48 122 47 Q 129 46 139 49 Q 236 89 288 123 Q 340 156 390 195 L 480 274 Z" fill="lightgray"></path>
				<path d="M 423 267 Q 408 282 380 280 Q 368 276 374 267 Q 381 254 385 236 L 390 195 Q 393 101 371 57 Q 359 32 381 -7 Q 382 -8 386 -13 Q 392 -23 401 -19 Q 411 -12 419 14 L 426 46 Q 429 79 429 126 L 430 153 Q 431 213 434 233 C 437 256 437 256 423 267 Z" fill="lightgray"></path>
				<path d="M 587 26 Q 614 -8 633 -40 Q 642 -58 653 -57 Q 668 -56 683 -24 Q 699 13 696 57 Q 690 106 682 198 Q 681 226 697 248 Q 706 260 697 269 Q 679 288 630 310 Q 614 319 598 310 Q 556 291 480 274 C 451 267 404 230 434 233 L 434 233 Q 452 234 586 262 Q 607 266 617 258 Q 627 249 629 68 Q 628 64 628 59 Q 624 49 617 47 C 598 24 581 34 587 26 Z" fill="lightgray"></path>
				<path d="M 429 126 Q 433 126 438 126 Q 517 136 574 141 Q 596 145 589 157 Q 579 170 555 176 Q 537 179 430 153 C 401 146 399 126 429 126 Z" fill="lightgray"></path>
				<path d="M 419 14 Q 426 13 436 14 Q 485 23 587 26 C 617 27 638 28 617 47 Q 610 54 596 64 Q 581 73 553 67 Q 483 54 426 46 C 396 42 389 16 419 14 Z" fill="lightgray"></path>
</g>
		<text x="40" y="140" font-size="128" fill="#999999">1</text></g>
		<g id="id0:id1:id1" transform="matrix(1.0,0,0,1.0,1024,0.0)">			<g stroke="lightgray" stroke-width="4" transform="scale(4, 4)"> <rect x="0" y="0" width="256" height="256" fill="white" stroke-width="4"/></g>
			<g transform="scale(0.92, -0.92) translate(60, -920)">					<path d="M 592 678 Q 592 679 739 693 Q 749 692 760 705 Q 761 717 738 728 Q 702 750 629 731 Q 581 722 533 712 Q 506 708 481 702 L 424 694 Q 396 691 369 688 Q 314 684 254 678 Q 223 675 246 656 Q 270 635 314 635 Q 351 642 397 649 L 456 658 Q 505 668 561 674 L 592 678 Z" fill="black"></path>
				<path d="M 481 702 Q 517 772 542 807 Q 551 816 546 827 Q 542 837 513 857 Q 494 870 483 870 Q 470 869 470 853 Q 470 787 424 694 L 397 649 Q 298 525 172 434 Q 138 412 97 385 Q 90 379 95 375 Q 102 372 114 375 Q 199 403 272 454 Q 374 520 456 658 L 481 702 Z" fill="red"></path>
				<path d="M 561 674 Q 753 467 805 453 Q 901 453 956 465 Q 972 466 974 472 Q 975 478 962 483 Q 782 549 771 554 Q 681 599 592 678 C 569 698 541 696 561 674 Z" fill="lightgray"></path>
				<path d="M 518 481 Q 608 500 611 504 Q 618 511 615 518 Q 608 528 583 535 Q 559 539 523 527 L 474 513 Q 381 498 364 496 Q 333 492 355 476 Q 389 458 450 469 Q 462 472 475 473 L 518 481 Z" fill="lightgray"></path>
				<path d="M 507 394 Q 513 439 518 481 L 523 527 Q 523 528 524 529 Q 528 547 531 559 Q 534 569 536 576 Q 540 585 524 597 Q 497 613 479 617 Q 466 620 460 613 Q 453 607 460 596 Q 473 577 474 513 L 475 473 Q 475 433 473 389 C 472 359 503 364 507 394 Z" fill="lightgray"></path>
				<path d="M 574 366 Q 644 372 800 373 Q 819 373 823 382 Q 829 392 812 406 Q 755 448 699 429 Q 662 423 616 413 L 557 402 Q 532 399 507 394 L 473 389 Q 340 370 188 350 Q 167 347 183 331 Q 196 318 214 313 Q 235 309 250 312 Q 383 351 521 361 L 574 366 Z" fill="lightgray"></path>
				<path d="M 480 274 Q 531 323 574 366 L 616 413 Q 656 459 680 480 Q 689 487 685 503 Q 669 554 640 561 Q 625 564 626 545 Q 626 503 582 437 Q 569 419 557 402 L 521 361 Q 458 298 423 267 L 385 236 Q 268 143 126 61 Q 119 58 118 52 Q 117 48 122 47 Q 129 46 139 49 Q 236 89 288 123 Q 340 156 390 195 L 480 274 Z" fill="lightgray"></path>
				<path d="M 423 267 Q 408 282 380 280 Q 368 276 374 267 Q 381 254 385 236 L 390 195 Q 393 101 371 57 Q 359 32 381 -7 Q 382 -8 386 -13 Q 392 -23 401 -19 Q 411 -12 419 14 L 426 46 Q 429 79 429 126 L 430 153 Q 431 213 434 233 C 437 256 437 256 423 267 Z" fill="lightgray"></path>
				<path d="M 587 26 Q 614 -8 633 -40 Q 642 -58 653 -57 Q 668 -56 683 -24 Q 699 13 696 57 Q 690 106 682 198 Q 681 226 697 248 Q 706 260 697 269 Q 679 288 630 310 Q 614 319 598 310 Q 556 291 480 274 C 451 267 404 230 434 233 L 434 233 Q 452 234 586 262 Q 607 266 617 258 Q 627 249 629 68 Q 628 64 628 59 Q 624 49 617 47 C 598 24 581 34 587 26 Z" fill="lightgray"></path>
				<path d="M 429 126 Q 433 126 438 126 Q 517 136 574 141 Q 596 145 589 157 Q 579 170 555 176 Q 537 179 430 153 C 401 146 399 126 429 126 Z" fill="lightgray"></path>
				<path d="M 419 14 Q 426 13 436 14 Q 485 23 587 26 C 617 27 638 28 617 47 Q 610 54 596 64 Q 581 73 553 67 Q 483 54 426 46 C 396 42 389 16 419 14 Z" fill="lightgray"></path>
</g>
		<text x="40" y="140" font-size="128" fill="#999999">2</text></g>
		<g id="id0:id2:id2" transform="matrix(1.0,0,0,1.0,2048,0.0)">			<g stroke="lightgray" stroke-width="4" transform="scale(4, 4)"> <rect x="0" y="0" width="256" height="256" fill="white" stroke-width="4"/></g>
			<g transform="scale(0.92, -0.92) translate(60, -920)">					<path d="M 592 678 Q 592 679 739 693 Q 749 692 760 705 Q 761 717 738 728 Q 702 750 629 731 Q 581 722 533 712 Q 506 708 481 702 L 424 694 Q 396 691 369 688 Q 314 684 254 678 Q 223 675 246 656 Q 270 635 314 635 Q 351 642 397 649 L 456 658 Q 505 668 561 674 L 592 678 Z" fill="black"></path>
				<path d="M 481 702 Q 517 772 542 807 Q 551 816 546 827 Q 542 837 513 857 Q 494 870 483 870 Q 470 869 470 853 Q 470 787 424 694 L 397 649 Q 298 525 172 434 Q 138 412 97 385 Q 90 379 95 375 Q 102 372 114 375 Q 199 403 272 454 Q 374 520 456 658 L 481 702 Z" fill="black"></path>
				<path d="M 561 674 Q 753 467 805 453 Q 901 453 956 465 Q 972 466 974 472 Q 975 478 962 483 Q 782 549 771 554 Q 681 599 592 678 C 569 698 541 696 561 674 Z" fill="red"></path>
				<path d="M 518 481 Q 608 500 611 504 Q 618 511 615 518 Q 608 528 583 535 Q 559 539 523 527 L 474 513 Q 381 498 364 496 Q 333 492 355 476 Q 389 458 450 469 Q 462 472 475 473 L 518 481 Z" fill="lightgray"></path>
				<path d="M 507 394 Q 513 439 518 481 L 523 527 Q 523 528 524 529 Q 528 547 531 559 Q 534 569 536 576 Q 540 585 524 597 Q 497 613 479 617 Q 466 620 460 613 Q 453 607 460 596 Q 473 577 474 513 L 475 473 Q 475 433 473 389 C 472 359 503 364 507 394 Z" fill="lightgray"></path>
				<path d="M 574 366 Q 644 372 800 373 Q 819 373 823 382 Q 829 392 812 406 Q 755 448 699 429 Q 662 423 616 413 L 557 402 Q 532 399 507 394 L 473 389 Q 340 370 188 350 Q 167 347 183 331 Q 196 318 214 313 Q 235 309 250 312 Q 383 351 521 361 L 574 366 Z" fill="lightgray"></path>
				<path d="M 480 274 Q 531 323 574 366 L 616 413 Q 656 459 680 480 Q 689 487 685 503 Q 669 554 640 561 Q 625 564 626 545 Q 626 503 582 437 Q 569 419 557 402 L 521 361 Q 458 298 423 267 L 385 236 Q 268 143 126 61 Q 119 58 118 52 Q 117 48 122 47 Q 129 46 139 49 Q 236 89 288 123 Q 340 156 390 195 L 480 274 Z" fill="lightgray"></path>
				<path d="M 423 267 Q 408 282 380 280 Q 368 276 374 267 Q 381 254 385 236 L 390 195 Q 393 101 371 57 Q 359 32 381 -7 Q 382 -8 386 -13 Q 392 -23 401 -19 Q 411 -12 419 14 L 426 46 Q 429 79 429 126 L 430 153 Q 431 213 434 233 C 437 256 437 256 423 267 Z" fill="lightgray"></path>
				<path d="M 587 26 Q 614 -8 633 -40 Q 642 -58 653 -57 Q 668 -56 683 -24 Q 699 13 696 57 Q 690 106 682 198 Q 681 226 697 248 Q 706 260 697 269 Q 679 288 630 310 Q 614 319 598 310 Q 556 291 480 274 C 451 267 404 230 434 233 L 434 233 Q 452 234 586 262 Q 607 266 617 258 Q 627 249 629 68 Q 628 64 628 59 Q 624 49 617 47 C 598 24 581 34 587 26 Z" fill="lightgray"></path>
				<path d="M 429 126 Q 433 126 438 126 Q 517 136 574 141 Q 596 145 589 157 Q 579 170 555 176 Q 537 179 430 153 C 401 146 399 126 429 126 Z" fill="lightgray"></path>
				<path d="M 419 14 Q 426 13 436 14 Q 485 23 587 26 C 617 27 638 28 617 47 Q 610 54 596 64 Q 581 73 553 67 Q 483 54 426 46 C 396 42 389 16 419 14 Z" fill="lightgray"></path>
</g>
		<text x="40" y="140" font-size="128" fill="#999999">3</text></g>
		<g id="id0:id3:id3" transform="matrix(1.0,0,0,1.0,3072,0.0)">			<g stroke="lightgray" stroke-width="4" transform="scale(4, 4)"> <rect x="0" y="0" width="256" height="256" fill="white" stroke-width="4"/></g>
			<g transform="scale(0.92, -0.92) translate(60, -920)">					<path d="M 592 678 Q 592 679 739 693 Q 749 692 760 705 Q 761 717 738 728 Q 702 750 629 731 Q 581 722 533 712 Q 506 708 481 702 L 424 694 Q 396 691 369 688 Q 314 684 254 678 Q 223 675 246 656 Q 270 635 314 635 Q 351 642 397 649 L 456 658 Q 505 668 561 674 L 592 678 Z" fill="black"></path>
				<path d="M 481 702 Q 517 772 542 807 Q 551 816 546 827 Q 542 837 513 857 Q 494 870 483 870 Q 470 869 470 853 Q 470 787 424 694 L 397 649 Q 298 525 172 434 Q 138 412 97 385 Q 90 379 95 375 Q 102 372 114 375 Q 199 403 272 454 Q 374 520 456 658 L 481 702 Z" fill="black"></path>
				<path d="M 561 674 Q 753 467 805 453 Q 901 453 956 465 Q 972 466 974 472 Q 975 478 962 483 Q 782 549 771 554 Q 681 599 592 678 C 569 698 541 696 561 674 Z" fill="black"></path>
				<path d="M 518 481 Q 608 500 611 504 Q 618 511 615 518 Q 608 528 583 535 Q 559 539 523 527 L 474 513 Q 381 498 364 496 Q 333 492 355 476 Q 389 458 450 469 Q 462 472 475 473 L 518 481 Z" fill="red"></path>
				<path d="M 507 394 Q 513 439 518 481 L 523 527 Q 523 528 524 529 Q 528 547 531 559 Q 534 569 536 576 Q 540 585 524 597 Q 497 613 479 617 Q 466 620 460 613 Q 453 607 460 596 Q 473 577 474 513 L 475 473 Q 475 433 473 389 C 472 359 503 364 507 394 Z" fill="lightgray"></path>
				<path d="M 574 366 Q 644 372 800 373 Q 819 373 823 382 Q 829 392 812 406 Q 755 448 699 429 Q 662 423 616 413 L 557 402 Q 532 399 507 394 L 473 389 Q 340 370 188 350 Q 167 347 183 331 Q 196 318 214 313 Q 235 309 250 312 Q 383 351 521 361 L 574 366 Z" fill="lightgray"></path>
				<path d="M 480 274 Q 531 323 574 366 L 616 413 Q 656 459 680 480 Q 689 487 685 503 Q 669 554 640 561 Q 625 564 626 545 Q 626 503 582 437 Q 569 419 557 402 L 521 361 Q 458 298 423 267 L 385 236 Q 268 143 126 61 Q 119 58 118 52 Q 117 48 122 47 Q 129 46 139 49 Q 236 89 288 123 Q 340 156 390 195 L 480 274 Z" fill="lightgray"></path>
				<path d="M 423 267 Q 408 282 380 280 Q 368 276 374 267 Q 381 254 385 236 L 390 195 Q 393 101 371 57 Q 359 32 381 -7 Q 382 -8 386 -13 Q 392 -23 401 -19 Q 411 -12 419 14 L 426 46 Q 429 79 429 126 L 430 153 Q 431 213 434 233 C 437 256 437 256 423 267 Z" fill="lightgray"></path>
				<path d="M 587 26 Q 614 -8 633 -40 Q 642 -58 653 -57 Q 668 -56 683 -24 Q 699 13 696 57 Q 690 106 682 198 Q 681 226 697 248 Q 706 260 697 269 Q 679 288 630 310 Q 614 319 598 310 Q 556 291 480 274 C 451 267 404 230 434 233 L 434 233 Q 452 234 586 262 Q 607 266 617 258 Q 627 249 629 68 Q 628 64 628 59 Q 624 49 617 47 C 598 24 581 34 587 26 Z" fill="lightgray"></path>
				<path d="M 429 126 Q 433 126 438 126 Q 517 136 574 141 Q 596 145 589 157 Q 579 170 555 176 Q 537 179 430 153 C 401 146 399 126 429 126 Z" fill="lightgray"></path>
				<path d="M 419 14 Q 426 13 436 14 Q 485 23 587 26 C 617 27 638 28 617 47 Q 610 54 596 64 Q 581 73 553 67 Q 483 54 426 46 C 396 42 389 16 419 14 Z" fill="lightgray"></path>
</g>
		<text x="40" y="140" font-size="128" fill="#999999">4</text></g>
		<g id="id0:id4:id4" transform="matrix(1.0,0,0,1.0,4096,0.0)">			<g stroke="lightgray" stroke-width="4" transform="scale(4, 4)"> <rect x="0" y="0" width="256" height="256" fill="white" stroke-width="4"/></g>
			<g transform="scale(0.92, -0.92) translate(60, -920)">					<path d="M 592 678 Q 592 679 739 693 Q 749 692 760 705 Q 761 717 738 728 Q 702 750 629 731 Q 581 722 533 712 Q 506 708 481 702 L 424 694 Q 396 691 369 688 Q 314 684 254 678 Q 223 675 246 656 Q 270 635 314 635 Q 351 642 397 649 L 456 658 Q 505 668 561 674 L 592 678 Z" fill="black"></path>
				<path d="M 481 702 Q 517 772 542 807 Q 551 816 546 827 Q 542 837 513 857 Q 494 870 483 870 Q 470 869 470 853 Q 470 787 424 694 L 397 649 Q 298 525 172 434 Q 138 412 97 385 Q 90 379 95 375 Q 102 372 114 375 Q 199 403 272 454 Q 374 520 456 658 L 481 702 Z" fill="black"></path>
				<path d="M 561 674 Q 753 467 805 453 Q 901 453 956 465 Q 972 466 974 472 Q 975 478 962 483 Q 782 549 771 554 Q 681 599 592 678 C 569 698 541 696 561 674 Z" fill="black"></path>
				<path d="M 518 481 Q 608 500 611 504 Q 618 511 615 518 Q 608 528 583 535 Q 559 539 523 527 L 474 513 Q 381 498 364 496 Q 333 492 355 476 Q 389 458 450 469 Q 462 472 475 473 L 518 481 Z" fill="black"></path>
				<path d="M 507 394 Q 513 439 518 481 L 523 527 Q 523 528 524 529 Q 528 547 531 559 Q 534 569 536 576 Q 540 585 524 597 Q 497 613 479 617 Q 466 620 460 613 Q 453 607 460 596 Q 473 577 474 513 L 475 473 Q 475 433 473 389 C 472 359 503 364 507 394 Z" fill="red"></path>
				<path d="M 574 366 Q 644 372 800 373 Q 819 373 823 382 Q 829 392 812 406 Q 755 448 699 429 Q 662 423 616 413 L 557 402 Q 532 399 507 394 L 473 389 Q 340 370 188 350 Q 167 347 183 331 Q 196 318 214 313 Q 235 309 250 312 Q 383 351 521 361 L 574 366 Z" fill="lightgray"></path>
				<path d="M 480 274 Q 531 323 574 366 L 616 413 Q 656 459 680 480 Q 689 487 685 503 Q 669 554 640 561 Q 625 564 626 545 Q 626 503 582 437 Q 569 419 557 402 L 521 361 Q 458 298 423 267 L 385 236 Q 268 143 126 61 Q 119 58 118 52 Q 117 48 122 47 Q 129 46 139 49 Q 236 89 288 123 Q 340 156 390 195 L 480 274 Z" fill="lightgray"></path>
				<path d="M 423 267 Q 408 282 380 280 Q 368 276 374 267 Q 381 254 385 236 L 390 195 Q 393 101 371 57 Q 359 32 381 -7 Q 382 -8 386 -13 Q 392 -23 401 -19 Q 411 -12 419 14 L 426 46 Q 429 79 429 126 L 430 153 Q 431 213 434 233 C 437 256 437 256 423 267 Z" fill="lightgray"></path>
				<path d="M 587 26 Q 614 -8 633 -40 Q 642 -58 653 -57 Q 668 -56 683 -24 Q 699 13 696 57 Q 690 106 682 198 Q 681 226 697 248 Q 706 260 697 269 Q 679 288 630 310 Q 614 319 598 310 Q 556 291 480 274 C 451 267 404 230 434 233 L 434 233 Q 452 234 586 262 Q 607 266 617 258 Q 627 249 629 68 Q 628 64 628 59 Q 624 49 617 47 C 598 24 581 34 587 26 Z" fill="lightgray"></path>
				<path d="M 429 126 Q 433 126 438 126 Q 517 136 574 141 Q 596 145 589 157 Q 579 170 555 176 Q 537 179 430 153 C 401 146 399 126 429 126 Z" fill="lightgray"></path>
				<path d="M 419 14 Q 426 13 436 14 Q 485 23 587 26 C 617 27 638 28 617 47 Q 610 54 596 64 Q 581 73 553 67 Q 483 54 426 46 C 396 42 389 16 419 14 Z" fill="lightgray"></path>
</g>
		<text x="40" y="140" font-size="128" fill="#999999">5</text></g>
</g>
	<g id="id1:id1" transform="translate(0.0,1024)">
		<g id="id1:id0:id0" transform="matrix(1.0,0,0,1.0,0,0.0)">			<g stroke="lightgray" stroke-width="4" transform="scale(4, 4)"> <rect x="0" y="0" width="256" height="256" fill="white" stroke-width="4"/></g>
			<g transform="scale(0.92, -0.92) translate(60, -920)">					<path d="M 592 678 Q 592 679 739 693 Q 749 692 760 705 Q 761 717 738 728 Q 702 750 629 731 Q 581 722 533 712 Q 506 708 481 702 L 424 694 Q 396 691 369 688 Q 314 684 254 678 Q 223 675 246 656 Q 270 635 314 635 Q 351 642 397 649 L 456 658 Q 505 668 561 674 L 592 678 Z" fill="black"></path>
				<path d="M 481 702 Q 517 772 542 807 Q 551 816 546 827 Q 542 837 513 857 Q 494 870 483 870 Q 470 869 470 853 Q 470 787 424 694 L 397 649 Q 298 525 172 434 Q 138 412 97 385 Q 90 379 95 375 Q 102 372 114 375 Q 199 403 272 454 Q 374 520 456 658 L 481 702 Z" fill="black"></path>
				<path d="M 561 674 Q 753 467 805 453 Q 901 453 956 465 Q 972 466 974 472 Q 975 478 962 483 Q 782 549 771 554 Q 681 599 592 678 C 569 698 541 696 561 674 Z" fill="black"></path>
				<path d="M 518 481 Q 608 500 611 504 Q 618 511 615 518 Q 608 528 583 535 Q 559 539 523 527 L 474 513 Q 381 498 364 496 Q 333 492 355 476 Q 389 458 450 469 Q 462 472 475 473 L 518 481 Z" fill="black"></path>
				<path d="M 507 394 Q 513 439 518 481 L 523 527 Q 523 528 524 529 Q 528 547 531 559 Q 534 569 536 576 Q 540 585 524 597 Q 497 613 479 617 Q 466 620 460 613 Q 453 607 460 596 Q 473 577 474 513 L 475 473 Q 475 433 473 389 C 472 359 503 364 507 394 Z" fill="black"></path>
				<path d="M 574 366 Q 644 372 800 373 Q 819 373 823 382 Q 829 392 812 406 Q 755 448 699 429 Q 662 423 616 413 L 557 402 Q 532 399 507 394 L 473 389 Q 340 370 188 350 Q 167 347 183 331 Q 196 318 214 313 Q 235 309 250 312 Q 383 351 521 361 L 574 366 Z" fill="red"></path>
				<path d="M 480 274 Q 531 323 574 366 L 616 413 Q 656 459 680 480 Q 689 487 685 503 Q 669 554 640 561 Q 625 564 626 545 Q 626 503 582 437 Q 569 419 557 402 L 521 361 Q 458 298 423 267 L 385 236 Q 268 143 126 61 Q 119 58 118 52 Q 117 48 122 47 Q 129 46 139 49 Q 236 89 288 123 Q 340 156 390 195 L 480 274 Z" fill="lightgray"></path>
				<path d="M 423 267 Q 408 282 380 280 Q 368 276 374 267 Q 381 254 385 236 L 390 195 Q 393 101 371 57 Q 359 32 381 -7 Q 382 -8 386 -13 Q 392 -23 401 -19 Q 411 -12 419 14 L 426 46 Q 429 79 429 126 L 430 153 Q 431 213 434 233 C 437 256 437 256 423 267 Z" fill="lightgray"></path>
				<path d="M 587 26 Q 614 -8 633 -40 Q 642 -58 653 -57 Q 668 -56 683 -24 Q 699 13 696 57 Q 690 106 682 198 Q 681 226 697 248 Q 706 260 697 269 Q 679 288 630 310 Q 614 319 598 310 Q 556 291 480 274 C 451 267 404 230 434 233 L 434 233 Q 452 234 586 262 Q 607 266 617 258 Q 627 249 629 68 Q 628 64 628 59 Q 624 49 617 47 C 598 24 581 34 587 26 Z" fill="lightgray"></path>
				<path d="M 429 126 Q 433 126 438 126 Q 517 136 574 141 Q 596 145 589 157 Q 579 170 555 176 Q 537 179 430 153 C 401 146 399 126 429 126 Z" fill="lightgray"></path>
				<path d="M 419 14 Q 426 13 436 14 Q 485 23 587 26 C 617 27 638 28 617 47 Q 610 54 596 64 Q 581 73 553 67 Q 483 54 426 46 C 396 42 389 16 419 14 Z" fill="lightgray"></path>
</g>
		<text x="40" y="140" font-size="128" fill="#999999">6</text></g>
		<g id="id1:id1:id1" transform="matrix(1.0,0,0,1.0,1024,0.0)">			<g stroke="lightgray" stroke-width="4" transform="scale(4, 4)"> <rect x="0" y="0" width="256" height="256" fill="white" stroke-width="4"/></g>
			<g transform="scale(0.92, -0.92) translate(60, -920)">					<path d="M 592 678 Q 592 679 739 693 Q 749 692 760 705 Q 761 717 738 728 Q 702 750 629 731 Q 581 722 533 712 Q 506 708 481 702 L 424 694 Q 396 691 369 688 Q 314 684 254 678 Q 223 675 246 656 Q 270 635 314 635 Q 351 642 397 649 L 456 658 Q 505 668 561 674 L 592 678 Z" fill="black"></path>
				<path d="M 481 702 Q 517 772 542 807 Q 551 816 546 827 Q 542 837 513 857 Q 494 870 483 870 Q 470 869 470 853 Q 470 787 424 694 L 397 649 Q 298 525 172 434 Q 138 412 97 385 Q 90 379 95 375 Q 102 372 114 375 Q 199 403 272 454 Q 374 520 456 658 L 481 702 Z" fill="black"></path>
				<path d="M 561 674 Q 753 467 805 453 Q 901 453 956 465 Q 972 466 974 472 Q 975 478 962 483 Q 782 549 771 554 Q 681 599 592 678 C 569 698 541 696 561 674 Z" fill="black"></path>
				<path d="M 518 481 Q 608 500 611 504 Q 618 511 615 518 Q 608 528 583 535 Q 559 539 523 527 L 474 513 Q 381 498 364 496 Q 333 492 355 476 Q 389 458 450 469 Q 462 472 475 473 L 518 481 Z" fill="black"></path>
				<path d="M 507 394 Q 513 439 518 481 L 523 527 Q 523 528 524 529 Q 528 547 531 559 Q 534 569 536 576 Q 540 585 524 597 Q 497 613 479 617 Q 466 620 460 613 Q 453 607 460 596 Q 473 577 474 513 L 475 473 Q 475 433 473 389 C 472 359 503 364 507 394 Z" fill="black"></path>
				<path d="M 574 366 Q 644 372 800 373 Q 819 373 823 382 Q 829 392 812 406 Q 755 448 699 429 Q 662 423 616 413 L 557 402 Q 532 399 507 394 L 473 389 Q 340 370 188 350 Q 167 347 183 331 Q 196 318 214 313 Q 235 309 250 312 Q 383 351 521 361 L 574 366 Z" fill="black"></path>
				<path d="M 480 274 Q 531 323 574 366 L 616 413 Q 656 459 680 480 Q 689 487 685 503 Q 669 554 640 561 Q 625 564 626 545 Q 626 503 582 437 Q 569 419 557 402 L 521 361 Q 458 298 423 267 L 385 236 Q 268 143 126 61 Q 119 58 118 52 Q 117 48 122 47 Q 129 46 139 49 Q 236 89 288 123 Q 340 156 390 195 L 480 274 Z" fill="red"></path>
				<path d="M 423 267 Q 408 282 380 280 Q 368 276 374 267 Q 381 254 385 236 L 390 195 Q 393 101 371 57 Q 359 32 381 -7 Q 382 -8 386 -13 Q 392 -23 401 -19 Q 411 -12 419 14 L 426 46 Q 429 79 429 126 L 430 153 Q 431 213 434 233 C 437 256 437 256 423 267 Z" fill="lightgray"></path>
				<path d="M 587 26 Q 614 -8 633 -40 Q 642 -58 653 -57 Q 668 -56 683 -24 Q 699 13 696 57 Q 690 106 682 198 Q 681 226 697 248 Q 706 260 697 269 Q 679 288 630 310 Q 614 319 598 310 Q 556 291 480 274 C 451 267 404 230 434 233 L 434 233 Q 452 234 586 262 Q 607 266 617 258 Q 627 249 629 68 Q 628 64 628 59 Q 624 49 617 47 C 598 24 581 34 587 26 Z" fill="lightgray"></path>
				<path d="M 429 126 Q 433 126 438 126 Q 517 136 574 141 Q 596 145 589 157 Q 579 170 555 176 Q 537 179 430 153 C 401 146 399 126 429 126 Z" fill="lightgray"></path>
				<path d="M 419 14 Q 426 13 436 14 Q 485 23 587 26 C 617 27 638 28 617 47 Q 610 54 596 64 Q 581 73 553 67 Q 483 54 426 46 C 396 42 389 16 419 14 Z" fill="lightgray"></path>
</g>
		<text x="40" y="140" font-size="128" fill="#999999">7</text></g>
		<g id="id1:id2:id2" transform="matrix(1.0,0,0,1.0,2048,0.0)">			<g stroke="lightgray" stroke-width="4" transform="scale(4, 4)"> <rect x="0" y="0" width="256" height="256" fill="white" stroke-width="4"/></g>
			<g transform="scale(0.92, -0.92) translate(60, -920)">					<path d="M 592 678 Q 592 679 739 693 Q 749 692 760 705 Q 761 717 738 728 Q 702 750 629 731 Q 581 722 533 712 Q 506 708 481 702 L 424 694 Q 396 691 369 688 Q 314 684 254 678 Q 223 675 246 656 Q 270 635 314 635 Q 351 642 397 649 L 456 658 Q 505 668 561 674 L 592 678 Z" fill="black"></path>
				<path d="M 481 702 Q 517 772 542 807 Q 551 816 546 827 Q 542 837 513 857 Q 494 870 483 870 Q 470 869 470 853 Q 470 787 424 694 L 397 649 Q 298 525 172 434 Q 138 412 97 385 Q 90 379 95 375 Q 102 372 114 375 Q 199 403 272 454 Q 374 520 456 658 L 481 702 Z" fill="black"></path>
				<path d="M 561 674 Q 753 467 805 453 Q 901 453 956 465 Q 972 466 974 472 Q 975 478 962 483 Q 782 549 771 554 Q 681 599 592 678 C 569 698 541 696 561 674 Z" fill="black"></path>
				<path d="M 518 481 Q 608 500 611 504 Q 618 511 615 518 Q 608 528 583 535 Q 559 539 523 527 L 474 513 Q 381 498 364 496 Q 333 492 355 476 Q 389 458 450 469 Q 462 472 475 473 L 518 481 Z" fill="black"></path>
				<path d="M 507 394 Q 513 439 518 481 L 523 527 Q 523 528 524 529 Q 528 547 531 559 Q 534 569 536 576 Q 540 585 524 597 Q 497 613 479 617 Q 466 620 460 613 Q 453 607 460 596 Q 473 577 474 513 L 475 473 Q 475 433 473 389 C 472 359 503 364 507 394 Z" fill="black"></path>
				<path d="M 574 366 Q 644 372 800 373 Q 819 373 823 382 Q 829 392 812 406 Q 755 448 699 429 Q 662 423 616 413 L 557 402 Q 532 399 507 394 L 473 389 Q 340 370 188 350 Q 167 347 183 331 Q 196 318 214 313 Q 235 309 250 312 Q 383 351 521 361 L 574 366 Z" fill="black"></path>
				<path d="M 480 274 Q 531 323 574 366 L 616 413 Q 656 459 680 480 Q 689 487 685 503 Q 669 554 640 561 Q 625 564 626 545 Q 626 503 582 437 Q 569 419 557 402 L 521 361 Q 458 298 423 267 L 385 236 Q 268 143 126 61 Q 119 58 118 52 Q 117 48 122 47 Q 129 46 139 49 Q 236 89 288 123 Q 340 156 390 195 L 480 274 Z" fill="black"></path>
				<path d="M 423 267 Q 408 282 380 280 Q 368 276 374 267 Q 381 254 385 236 L 390 195 Q 393 101 371 57 Q 359 32 381 -7 Q 382 -8 386 -13 Q 392 -23 401 -19 Q 411 -12 419 14 L 426 46 Q 429 79 429 126 L 430 153 Q 431 213 434 233 C 437 256 437 256 423 267 Z" fill="red"></path>
				<path d="M 587 26 Q 614 -8 633 -40 Q 642 -58 653 -57 Q 668 -56 683 -24 Q 699 13 696 57 Q 690 106 682 198 Q 681 226 697 248 Q 706 260 697 269 Q 679 288 630 310 Q 614 319 598 310 Q 556 291 480 274 C 451 267 404 230 434 233 L 434 233 Q 452 234 586 262 Q 607 266 617 258 Q 627 249 629 68 Q 628 64 628 59 Q 624 49 617 47 C 598 24 581 34 587 26 Z" fill="lightgray"></path>
				<path d="M 429 126 Q 433 126 438 126 Q 517 136 574 141 Q 596 145 589 157 Q 579 170 555 176 Q 537 179 430 153 C 401 146 399 126 429 126 Z" fill="lightgray"></path>
				<path d="M 419 14 Q 426 13 436 14 Q 485 23 587 26 C 617 27 638 28 617 47 Q 610 54 596 64 Q 581 73 553 67 Q 483 54 426 46 C 396 42 389 16 419 14 Z" fill="lightgray"></path>
</g>
		<text x="40" y="140" font-size="128" fill="#999999">8</text></g>
		<g id="id1:id3:id3" transform="matrix(1.0,0,0,1.0,3072,0.0)">			<g stroke="lightgray" stroke-width="4" transform="scale(4, 4)"> <rect x="0" y="0" width="256" height="256" fill="white" stroke-width="4"/></g>
			<g transform="scale(0.92, -0.92) translate(60, -920)">					<path d="M 592 678 Q 592 679 739 693 Q 749 692 760 705 Q 761 717 738 728 Q 702 750 629 731 Q 581 722 533 712 Q 506 708 481 702 L 424 694 Q 396 691 369 688 Q 314 684 254 678 Q 223 675 246 656 Q 270 635 314 635 Q 351 642 397 649 L 456 658 Q 505 668 561 674 L 592 678 Z" fill="black"></path>
				<path d="M 481 702 Q 517 772 542 807 Q 551 816 546 827 Q 542 837 513 857 Q 494 870 483 870 Q 470 869 470 853 Q 470 787 424 694 L 397 649 Q 298 525 172 434 Q 138 412 97 385 Q 90 379 95 375 Q 102 372 114 375 Q 199 403 272 454 Q 374 520 456 658 L 481 702 Z" fill="black"></path>
				<path d="M 561 674 Q 753 467 805 453 Q 901 453 956 465 Q 972 466 974 472 Q 975 478 962 483 Q 782 549 771 554 Q 681 599 592 678 C 569 698 541 696 561 674 Z" fill="black"></path>
				<path d="M 518 481 Q 608 500 611 504 Q 618 511 615 518 Q 608 528 583 535 Q 559 539 523 527 L 474 513 Q 381 498 364 496 Q 333 492 355 476 Q 389 458 450 469 Q 462 472 475 473 L 518 481 Z" fill="black"></path>
				<path d="M 507 394 Q 513 439 518 481 L 523 527 Q 523 528 524 529 Q 528 547 531 559 Q 534 569 536 576 Q 540 585 524 597 Q 497 613 479 617 Q 466 620 460 613 Q 453 607 460 596 Q 473 577 474 513 L 475 473 Q 475 433 473 389 C 472 359 503 364 507 394 Z" fill="black"></path>
				<path d="M 574 366 Q 644 372 800 373 Q 819 373 823 382 Q 829 392 812 406 Q 755 448 699 429 Q 662 423 616 413 L 557 402 Q 532 399 507 394 L 473 389 Q 340 370 188 350 Q 167 347 183 331 Q 196 318 214 313 Q 235 309 250 312 Q 383 351 521 361 L 574 366 Z" fill="black"></path>
				<path d="M 480 274 Q 531 323 574 366 L 616 413 Q 656 459 680 480 Q 689 487 685 503 Q 669 554 640 561 Q 625 564 626 545 Q 626 503 582 437 Q 569 419 557 402 L 521 361 Q 458 298 423 267 L 385 236 Q 268 143 126 61 Q 119 58 118 52 Q 117 48 122 47 Q 129 46 139 49 Q 236 89 288 123 Q 340 156 390 195 L 480 274 Z" fill="black"></path>
				<path d="M 423 267 Q 408 282 380 280 Q 368 276 374 267 Q 381 254 385 236 L 390 195 Q 393 101 371 57 Q 359 32 381 -7 Q 382 -8 386 -13 Q 392 -23 401 -19 Q 411 -12 419 14 L 426 46 Q 429 79 429 126 L 430 153 Q 431 213 434 233 C 437 256 437 256 423 267 Z" fill="black"></path>
				<path d="M 587 26 Q 614 -8 633 -40 Q 642 -58 653 -57 Q 668 -56 683 -24 Q 699 13 696 57 Q 690 106 682 198 Q 681 226 697 248 Q 706 260 697 269 Q 679 288 630 310 Q 614 319 598 310 Q 556 291 480 274 C 451 267 404 230 434 233 L 434 233 Q 452 234 586 262 Q 607 266 617 258 Q 627 249 629 68 Q 628 64 628 59 Q 624 49 617 47 C 598 24 581 34 587 26 Z" fill="red"></path>
				<path d="M 429 126 Q 433 126 438 126 Q 517 136 574 141 Q 596 145 589 157 Q 579 170 555 176 Q 537 179 430 153 C 401 146 399 126 429 126 Z" fill="lightgray"></path>
				<path d="M 419 14 Q 426 13 436 14 Q 485 23 587 26 C 617 27 638 28 617 47 Q 610 54 596 64 Q 581 73 553 67 Q 483 54 426 46 C 396 42 389 16 419 14 Z" fill="lightgray"></path>
</g>
		<text x="40" y="140" font-size="128" fill="#999999">9</text></g>
		<g id="id1:id4:id4" transform="matrix(1.0,0,0,1.0,4096,0.0)">			<g stroke="lightgray" stroke-width="4" transform="scale(4, 4)"> <rect x="0" y="0" width="256" height="256" fill="white" stroke-width="4"/></g>
			<g transform="scale(0.92, -0.92) translate(60, -920)">					<path d="M 592 678 Q 592 679 739 693 Q 749 692 760 705 Q 761 717 738 728 Q 702 750 629 731 Q 581 722 533 712 Q 506 708 481 702 L 424 694 Q 396 691 369 688 Q 314 684 254 678 Q 223 675 246 656 Q 270 635 314 635 Q 351 642 397 649 L 456 658 Q 505 668 561 674 L 592 678 Z" fill="black"></path>
				<path d="M 481 702 Q 517 772 542 807 Q 551 816 546 827 Q 542 837 513 857 Q 494 870 483 870 Q 470 869 470 853 Q 470 787 424 694 L 397 649 Q 298 525 172 434 Q 138 412 97 385 Q 90 379 95 375 Q 102 372 114 375 Q 199 403 272 454 Q 374 520 456 658 L 481 702 Z" fill="black"></path>
				<path d="M 561 674 Q 753 467 805 453 Q 901 453 956 465 Q 972 466 974 472 Q 975 478 962 483 Q 782 549 771 554 Q 681 599 592 678 C 569 698 541 696 561 674 Z" fill="black"></path>
				<path d="M 518 481 Q 608 500 611 504 Q 618 511 615 518 Q 608 528 583 535 Q 559 539 523 527 L 474 513 Q 381 498 364 496 Q 333 492 355 476 Q 389 458 450 469 Q 462 472 475 473 L 518 481 Z" fill="black"></path>
				<path d="M 507 394 Q 513 439 518 481 L 523 527 Q 523 528 524 529 Q 528 547 531 559 Q 534 569 536 576 Q 540 585 524 597 Q 497 613 479 617 Q 466 620 460 613 Q 453 607 460 596 Q 473 577 474 513 L 475 473 Q 475 433 473 389 C 472 359 503 364 507 394 Z" fill="black"></path>
				<path d="M 574 366 Q 644 372 800 373 Q 819 373 823 382 Q 829 392 812 406 Q 755 448 699 429 Q 662 423 616 413 L 557 402 Q 532 399 507 394 L 473 389 Q 340 370 188 350 Q 167 347 183 331 Q 196 318 214 313 Q 235 309 250 312 Q 383 351 521 361 L 574 366 Z" fill="black"></path>
				<path d="M 480 274 Q 531 323 574 366 L 616 413 Q 656 459 680 480 Q 689 487 685 503 Q 669 554 640 561 Q 625 564 626 545 Q 626 503 582 437 Q 569 419 557 402 L 521 361 Q 458 298 423 267 L 385 236 Q 268 143 126 61 Q 119 58 118 52 Q 117 48 122 47 Q 129 46 139 49 Q 236 89 288 123 Q 340 156 390 195 L 480 274 Z" fill="black"></path>
				<path d="M 423 267 Q 408 282 380 280 Q 368 276 374 267 Q 381 254 385 236 L 390 195 Q 393 101 371 57 Q 359 32 381 -7 Q 382 -8 386 -13 Q 392 -23 401 -19 Q 411 -12 419 14 L 426 46 Q 429 79 429 126 L 430 153 Q 431 213 434 233 C 437 256 437 256 423 267 Z" fill="black"></path>
				<path d="M 587 26 Q 614 -8 633 -40 Q 642 -58 653 -57 Q 668 -56 683 -24 Q 699 13 696 57 Q 690 106 682 198 Q 681 226 697 248 Q 706 260 697 269 Q 679 288 630 310 Q 614 319 598 310 Q 556 291 480 274 C 451 267 404 230 434 233 L 434 233 Q 452 234 586 262 Q 607 266 617 258 Q 627 249 629 68 Q 628 64 628 59 Q 624 49 617 47 C 598 24 581 34 587 26 Z" fill="black"></path>
				<path d="M 429 126 Q 433 126 438 126 Q 517 136 574 141 Q 596 145 589 157 Q 579 170 555 176 Q 537 179 430 153 C 401 146 399 126 429 126 Z" fill="red"></path>
				<path d="M 419 14 Q 426 13 436 14 Q 485 23 587 26 C 617 27 638 28 617 47 Q 610 54 596 64 Q 581 73 553 67 Q 483 54 426 46 C 396 42 389 16 419 14 Z" fill="lightgray"></path>
</g>
		<text x="40" y="140" font-size="128" fill="#999999">10</text></g>
</g>
	<g id="id2:id2" transform="translate(0.0,2048)">
		<g id="id2:id0:id0" transform="matrix(1.0,0,0,1.0,0,0.0)">			<g stroke="lightgray" stroke-width="4" transform="scale(4, 4)"> <rect x="0" y="0" width="256" height="256" fill="white" stroke-width="4"/></g>
			<g transform="scale(0.92, -0.92) translate(60, -920)">					<path d="M 592 678 Q 592 679 739 693 Q 749 692 760 705 Q 761 717 738 728 Q 702 750 629 731 Q 581 722 533 712 Q 506 708 481 702 L 424 694 Q 396 691 369 688 Q 314 684 254 678 Q 223 675 246 656 Q 270 635 314 635 Q 351 642 397 649 L 456 658 Q 505 668 561 674 L 592 678 Z" fill="black"></path>
				<path d="M 481 702 Q 517 772 542 807 Q 551 816 546 827 Q 542 837 513 857 Q 494 870 483 870 Q 470 869 470 853 Q 470 787 424 694 L 397 649 Q 298 525 172 434 Q 138 412 97 385 Q 90 379 95 375 Q 102 372 114 375 Q 199 403 272 454 Q 374 520 456 658 L 481 702 Z" fill="black"></path>
				<path d="M 561 674 Q 753 467 805 453 Q 901 453 956 465 Q 972 466 974 472 Q 975 478 962 483 Q 782 549 771 554 Q 681 599 592 678 C 569 698 541 696 561 674 Z" fill="black"></path>
				<path d="M 518 481 Q 608 500 611 504 Q 618 511 615 518 Q 608 528 583 535 Q 559 539 523 527 L 474 513 Q 381 498 364 496 Q 333 492 355 476 Q 389 458 450 469 Q 462 472 475 473 L 518 481 Z" fill="black"></path>
				<path d="M 507 394 Q 513 439 518 481 L 523 527 Q 523 528 524 529 Q 528 547 531 559 Q 534 569 536 576 Q 540 585 524 597 Q 497 613 479 617 Q 466 620 460 613 Q 453 607 460 596 Q 473 577 474 513 L 475 473 Q 475 433 473 389 C 472 359 503 364 507 394 Z" fill="black"></path>
				<path d="M 574 366 Q 644 372 800 373 Q 819 373 823 382 Q 829 392 812 406 Q 755 448 699 429 Q 662 423 616 413 L 557 402 Q 532 399 507 394 L 473 389 Q 340 370 188 350 Q 167 347 183 331 Q 196 318 214 313 Q 235 309 250 312 Q 383 351 521 361 L 574 366 Z" fill="black"></path>
				<path d="M 480 274 Q 531 323 574 366 L 616 413 Q 656 459 680 480 Q 689 487 685 503 Q 669 554 640 561 Q 625 564 626 545 Q 626 503 582 437 Q 569 419 557 402 L 521 361 Q 458 298 423 267 L 385 236 Q 268 143 126 61 Q 119 58 118 52 Q 117 48 122 47 Q 129 46 139 49 Q 236 89 288 123 Q 340 156 390 195 L 480 274 Z" fill="black"></path>
				<path d="M 423 267 Q 408 282 380 280 Q 368 276 374 267 Q 381 254 385 236 L 390 195 Q 393 101 371 57 Q 359 32 381 -7 Q 382 -8 386 -13 Q 392 -23 401 -19 Q 411 -12 419 14 L 426 46 Q 429 79 429 126 L 430 153 Q 431 213 434 233 C 437 256 437 256 423 267 Z" fill="black"></path>
				<path d="M 587 26 Q 614 -8 633 -40 Q 642 -58 653 -57 Q 668 -56 683 -24 Q 699 13 696 57 Q 690 106 682 198 Q 681 226 697 248 Q 706 260 697 269 Q 679 288 630 310 Q 614 319 598 310 Q 556 291 480 274 C 451 267 404 230 434 233 L 434 233 Q 452 234 586 262 Q 607 266 617 258 Q 627 249 629 68 Q 628 64 628 59 Q 624 49 617 47 C 598 24 581 34 587 26 Z" fill="black"></path>
				<path d="M 429 126 Q 433 126 438 126 Q 517 136 574 141 Q 596 145 589 157 Q 579 170 555 176 Q 537 179 430 153 C 401 146 399 126 429 126 Z" fill="black"></path>
				<path d="M 419 14 Q 426 13 436 14 Q 485 23 587 26 C 617 27 638 28 617 47 Q 610 54 596 64 Q 581 73 553 67 Q 483 54 426 46 C 396 42 389 16 419 14 Z" fill="red"></path>
</g>
		<text x="40" y="140" font-size="128" fill="#999999">11</text></g>
		<g id="id2:id1:id1" transform="matrix(1.0,0,0,1.0,1024,0.0)">			<g stroke="white" stroke-width="4" transform="scale(4, 4)"> <rect x="1" y="1" width="255" height="255" fill="white" stroke-width="0"/></g>
</g>
		<g id="id2:id2:id2" transform="matrix(1.0,0,0,1.0,2048,0.0)">			<g stroke="white" stroke-width="4" transform="scale(4, 4)"> <rect x="1" y="1" width="255" height="255" fill="white" stroke-width="0"/></g>
</g>
		<g id="id2:id3:id3" transform="matrix(1.0,0,0,1.0,3072,0.0)">			<g stroke="white" stroke-width="4" transform="scale(4, 4)"> <rect x="1" y="1" width="255" height="255" fill="white" stroke-width="0"/></g>
</g>
		<g id="id2:id4:id4" transform="matrix(1.0,0,0,1.0,4096,0.0)">			<g stroke="white" stroke-width="4" transform="scale(4, 4)"> <rect x="1" y="1" width="255" height="255" fill="white" stroke-width="0"/></g>
</g>
</g>
</svg>
