<?xml version="1.0" standalone="no"?>
<!DOCTYPE svg PUBLIC "-//W3C//DTD SVG 1.1//EN"
 "http://www.w3.org/Graphics/SVG/1.1/DTD/svg11.dtd">
<!-- generate by Japanese dictionary app com.asnsami.kanjidictionary -->

<svg xmlns="http://www.w3.org/2000/svg" xmlns:sodipodi="http://sodipodi.sourceforge.net/DTD/sodipodi-0.dtd" version="1.1" width="640" height="256" viewBox="0 0 5120 2048">
	<g id="id0:id0" transform="translate(0.0,0)">
		<g id="id0:id0:id0" transform="matrix(1.0,0,0,1.0,0,0.0)">			<g stroke="lightgray" stroke-width="4" transform="scale(4, 4)"> <rect x="0" y="0" width="256" height="256" fill="white" stroke-width="4"/></g>
			<g transform="scale(0.92, -0.92) translate(60, -920)">					<path d="M 467 764 Q 489 743 513 718 Q 529 705 546 705 Q 559 705 564 721 Q 570 737 559 771 Q 553 790 523 802 Q 451 829 436 819 Q 430 815 432 800 Q 436 787 467 764 Z" fill="red"></path>
				<path d="M 301 635 Q 289 659 278 668 Q 259 681 257 656 Q 261 625 217 569 Q 180 533 207 471 Q 222 444 242 472 Q 258 497 272 534 Q 287 580 299 606 C 307 624 307 624 301 635 Z" fill="lightgray"></path>
				<path d="M 299 606 Q 326 590 353 597 Q 500 643 682 659 Q 713 663 725 660 Q 741 653 740 646 Q 740 643 695 566 Q 688 553 693 548 Q 700 544 717 554 Q 777 591 826 602 Q 866 612 865 622 Q 864 632 795 689 Q 768 710 696 694 Q 555 675 398 648 Q 349 641 301 635 C 271 631 272 618 299 606 Z" fill="lightgray"></path>
				<path d="M 538 385 Q 559 391 728 413 Q 738 412 749 424 Q 750 437 726 448 Q 692 469 598 443 Q 568 436 540 428 L 487 417 Q 435 408 388 402 Q 339 398 285 390 Q 254 386 278 368 Q 311 340 342 348 Q 394 360 455 370 L 538 385 Z" fill="lightgray"></path>
				<path d="M 540 428 Q 541 474 552 507 Q 559 522 557 534 Q 551 543 500 573 Q 479 589 460 574 Q 456 570 461 556 Q 483 523 485 489 Q 486 455 487 417 L 488 326 Q 488 149 474 87 Q 456 57 486 -12 Q 493 -28 500 -31 Q 506 -37 512 -30 Q 519 -26 528 -6 Q 537 16 536 45 Q 535 76 537 348 L 538 385 L 540 428 Z" fill="lightgray"></path>
				<path d="M 455 370 Q 407 243 178 88 Q 162 75 177 74 Q 187 73 226 88 Q 281 109 331 148 Q 374 182 425 239 Q 465 285 488 326 C 523 386 473 413 455 370 Z" fill="lightgray"></path>
				<path d="M 537 348 Q 619 230 726 102 Q 745 81 777 83 Q 886 87 921 93 Q 931 96 932 101 Q 933 107 918 114 Q 782 166 727 207 Q 643 277 544 379 Q 541 383 538 385 C 517 406 520 373 537 348 Z" fill="lightgray"></path>
</g>
		<text x="40" y="140" font-size="128" fill="#999999">1</text></g>
		<g id="id0:id1:id1" transform="matrix(1.0,0,0,1.0,1024,0.0)">			<g stroke="lightgray" stroke-width="4" transform="scale(4, 4)"> <rect x="0" y="0" width="256" height="256" fill="white" stroke-width="4"/></g>
			<g transform="scale(0.92, -0.92) translate(60, -920)">					<path d="M 467 764 Q 489 743 513 718 Q 529 705 546 705 Q 559 705 564 721 Q 570 737 559 771 Q 553 790 523 802 Q 451 829 436 819 Q 430 815 432 800 Q 436 787 467 764 Z" fill="black"></path>
				<path d="M 301 635 Q 289 659 278 668 Q 259 681 257 656 Q 261 625 217 569 Q 180 533 207 471 Q 222 444 242 472 Q 258 497 272 534 Q 287 580 299 606 C 307 624 307 624 301 635 Z" fill="red"></path>
				<path d="M 299 606 Q 326 590 353 597 Q 500 643 682 659 Q 713 663 725 660 Q 741 653 740 646 Q 740 643 695 566 Q 688 553 693 548 Q 700 544 717 554 Q 777 591 826 602 Q 866 612 865 622 Q 864 632 795 689 Q 768 710 696 694 Q 555 675 398 648 Q 349 641 301 635 C 271 631 272 618 299 606 Z" fill="lightgray"></path>
				<path d="M 538 385 Q 559 391 728 413 Q 738 412 749 424 Q 750 437 726 448 Q 692 469 598 443 Q 568 436 540 428 L 487 417 Q 435 408 388 402 Q 339 398 285 390 Q 254 386 278 368 Q 311 340 342 348 Q 394 360 455 370 L 538 385 Z" fill="lightgray"></path>
				<path d="M 540 428 Q 541 474 552 507 Q 559 522 557 534 Q 551 543 500 573 Q 479 589 460 574 Q 456 570 461 556 Q 483 523 485 489 Q 486 455 487 417 L 488 326 Q 488 149 474 87 Q 456 57 486 -12 Q 493 -28 500 -31 Q 506 -37 512 -30 Q 519 -26 528 -6 Q 537 16 536 45 Q 535 76 537 348 L 538 385 L 540 428 Z" fill="lightgray"></path>
				<path d="M 455 370 Q 407 243 178 88 Q 162 75 177 74 Q 187 73 226 88 Q 281 109 331 148 Q 374 182 425 239 Q 465 285 488 326 C 523 386 473 413 455 370 Z" fill="lightgray"></path>
				<path d="M 537 348 Q 619 230 726 102 Q 745 81 777 83 Q 886 87 921 93 Q 931 96 932 101 Q 933 107 918 114 Q 782 166 727 207 Q 643 277 544 379 Q 541 383 538 385 C 517 406 520 373 537 348 Z" fill="lightgray"></path>
</g>
		<text x="40" y="140" font-size="128" fill="#999999">2</text></g>
		<g id="id0:id2:id2" transform="matrix(1.0,0,0,1.0,2048,0.0)">			<g stroke="lightgray" stroke-width="4" transform="scale(4, 4)"> <rect x="0" y="0" width="256" height="256" fill="white" stroke-width="4"/></g>
			<g transform="scale(0.92, -0.92) translate(60, -920)">					<path d="M 467 764 Q 489 743 513 718 Q 529 705 546 705 Q 559 705 564 721 Q 570 737 559 771 Q 553 790 523 802 Q 451 829 436 819 Q 430 815 432 800 Q 436 787 467 764 Z" fill="black"></path>
				<path d="M 301 635 Q 289 659 278 668 Q 259 681 257 656 Q 261 625 217 569 Q 180 533 207 471 Q 222 444 242 472 Q 258 497 272 534 Q 287 580 299 606 C 307 624 307 624 301 635 Z" fill="black"></path>
				<path d="M 299 606 Q 326 590 353 597 Q 500 643 682 659 Q 713 663 725 660 Q 741 653 740 646 Q 740 643 695 566 Q 688 553 693 548 Q 700 544 717 554 Q 777 591 826 602 Q 866 612 865 622 Q 864 632 795 689 Q 768 710 696 694 Q 555 675 398 648 Q 349 641 301 635 C 271 631 272 618 299 606 Z" fill="red"></path>
				<path d="M 538 385 Q 559 391 728 413 Q 738 412 749 424 Q 750 437 726 448 Q 692 469 598 443 Q 568 436 540 428 L 487 417 Q 435 408 388 402 Q 339 398 285 390 Q 254 386 278 368 Q 311 340 342 348 Q 394 360 455 370 L 538 385 Z" fill="lightgray"></path>
				<path d="M 540 428 Q 541 474 552 507 Q 559 522 557 534 Q 551 543 500 573 Q 479 589 460 574 Q 456 570 461 556 Q 483 523 485 489 Q 486 455 487 417 L 488 326 Q 488 149 474 87 Q 456 57 486 -12 Q 493 -28 500 -31 Q 506 -37 512 -30 Q 519 -26 528 -6 Q 537 16 536 45 Q 535 76 537 348 L 538 385 L 540 428 Z" fill="lightgray"></path>
				<path d="M 455 370 Q 407 243 178 88 Q 162 75 177 74 Q 187 73 226 88 Q 281 109 331 148 Q 374 182 425 239 Q 465 285 488 326 C 523 386 473 413 455 370 Z" fill="lightgray"></path>
				<path d="M 537 348 Q 619 230 726 102 Q 745 81 777 83 Q 886 87 921 93 Q 931 96 932 101 Q 933 107 918 114 Q 782 166 727 207 Q 643 277 544 379 Q 541 383 538 385 C 517 406 520 373 537 348 Z" fill="lightgray"></path>
</g>
		<text x="40" y="140" font-size="128" fill="#999999">3</text></g>
		<g id="id0:id3:id3" transform="matrix(1.0,0,0,1.0,3072,0.0)">			<g stroke="lightgray" stroke-width="4" transform="scale(4, 4)"> <rect x="0" y="0" width="256" height="256" fill="white" stroke-width="4"/></g>
			<g transform="scale(0.92, -0.92) translate(60, -920)">					<path d="M 467 764 Q 489 743 513 718 Q 529 705 546 705 Q 559 705 564 721 Q 570 737 559 771 Q 553 790 523 802 Q 451 829 436 819 Q 430 815 432 800 Q 436 787 467 764 Z" fill="black"></path>
				<path d="M 301 635 Q 289 659 278 668 Q 259 681 257 656 Q 261 625 217 569 Q 180 533 207 471 Q 222 444 242 472 Q 258 497 272 534 Q 287 580 299 606 C 307 624 307 624 301 635 Z" fill="black"></path>
				<path d="M 299 606 Q 326 590 353 597 Q 500 643 682 659 Q 713 663 725 660 Q 741 653 740 646 Q 740 643 695 566 Q 688 553 693 548 Q 700 544 717 554 Q 777 591 826 602 Q 866 612 865 622 Q 864 632 795 689 Q 768 710 696 694 Q 555 675 398 648 Q 349 641 301 635 C 271 631 272 618 299 606 Z" fill="black"></path>
				<path d="M 538 385 Q 559 391 728 413 Q 738 412 749 424 Q 750 437 726 448 Q 692 469 598 443 Q 568 436 540 428 L 487 417 Q 435 408 388 402 Q 339 398 285 390 Q 254 386 278 368 Q 311 340 342 348 Q 394 360 455 370 L 538 385 Z" fill="red"></path>
				<path d="M 540 428 Q 541 474 552 507 Q 559 522 557 534 Q 551 543 500 573 Q 479 589 460 574 Q 456 570 461 556 Q 483 523 485 489 Q 486 455 487 417 L 488 326 Q 488 149 474 87 Q 456 57 486 -12 Q 493 -28 500 -31 Q 506 -37 512 -30 Q 519 -26 528 -6 Q 537 16 536 45 Q 535 76 537 348 L 538 385 L 540 428 Z" fill="lightgray"></path>
				<path d="M 455 370 Q 407 243 178 88 Q 162 75 177 74 Q 187 73 226 88 Q 281 109 331 148 Q 374 182 425 239 Q 465 285 488 326 C 523 386 473 413 455 370 Z" fill="lightgray"></path>
				<path d="M 537 348 Q 619 230 726 102 Q 745 81 777 83 Q 886 87 921 93 Q 931 96 932 101 Q 933 107 918 114 Q 782 166 727 207 Q 643 277 544 379 Q 541 383 538 385 C 517 406 520 373 537 348 Z" fill="lightgray"></path>
</g>
		<text x="40" y="140" font-size="128" fill="#999999">4</text></g>
		<g id="id0:id4:id4" transform="matrix(1.0,0,0,1.0,4096,0.0)">			<g stroke="lightgray" stroke-width="4" transform="scale(4, 4)"> <rect x="0" y="0" width="256" height="256" fill="white" stroke-width="4"/></g>
			<g transform="scale(0.92, -0.92) translate(60, -920)">					<path d="M 467 764 Q 489 743 513 718 Q 529 705 546 705 Q 559 705 564 721 Q 570 737 559 771 Q 553 790 523 802 Q 451 829 436 819 Q 430 815 432 800 Q 436 787 467 764 Z" fill="black"></path>
				<path d="M 301 635 Q 289 659 278 668 Q 259 681 257 656 Q 261 625 217 569 Q 180 533 207 471 Q 222 444 242 472 Q 258 497 272 534 Q 287 580 299 606 C 307 624 307 624 301 635 Z" fill="black"></path>
				<path d="M 299 606 Q 326 590 353 597 Q 500 643 682 659 Q 713 663 725 660 Q 741 653 740 646 Q 740 643 695 566 Q 688 553 693 548 Q 700 544 717 554 Q 777 591 826 602 Q 866 612 865 622 Q 864 632 795 689 Q 768 710 696 694 Q 555 675 398 648 Q 349 641 301 635 C 271 631 272 618 299 606 Z" fill="black"></path>
				<path d="M 538 385 Q 559 391 728 413 Q 738 412 749 424 Q 750 437 726 448 Q 692 469 598 443 Q 568 436 540 428 L 487 417 Q 435 408 388 402 Q 339 398 285 390 Q 254 386 278 368 Q 311 340 342 348 Q 394 360 455 370 L 538 385 Z" fill="black"></path>
				<path d="M 540 428 Q 541 474 552 507 Q 559 522 557 534 Q 551 543 500 573 Q 479 589 460 574 Q 456 570 461 556 Q 483 523 485 489 Q 486 455 487 417 L 488 326 Q 488 149 474 87 Q 456 57 486 -12 Q 493 -28 500 -31 Q 506 -37 512 -30 Q 519 -26 528 -6 Q 537 16 536 45 Q 535 76 537 348 L 538 385 L 540 428 Z" fill="red"></path>
				<path d="M 455 370 Q 407 243 178 88 Q 162 75 177 74 Q 187 73 226 88 Q 281 109 331 148 Q 374 182 425 239 Q 465 285 488 326 C 523 386 473 413 455 370 Z" fill="lightgray"></path>
				<path d="M 537 348 Q 619 230 726 102 Q 745 81 777 83 Q 886 87 921 93 Q 931 96 932 101 Q 933 107 918 114 Q 782 166 727 207 Q 643 277 544 379 Q 541 383 538 385 C 517 406 520 373 537 348 Z" fill="lightgray"></path>
</g>
		<text x="40" y="140" font-size="128" fill="#999999">5</text></g>
</g>
	<g id="id1:id1" transform="translate(0.0,1024)">
		<g id="id1:id0:id0" transform="matrix(1.0,0,0,1.0,0,0.0)">			<g stroke="lightgray" stroke-width="4" transform="scale(4, 4)"> <rect x="0" y="0" width="256" height="256" fill="white" stroke-width="4"/></g>
			<g transform="scale(0.92, -0.92) translate(60, -920)">					<path d="M 467 764 Q 489 743 513 718 Q 529 705 546 705 Q 559 705 564 721 Q 570 737 559 771 Q 553 790 523 802 Q 451 829 436 819 Q 430 815 432 800 Q 436 787 467 764 Z" fill="black"></path>
				<path d="M 301 635 Q 289 659 278 668 Q 259 681 257 656 Q 261 625 217 569 Q 180 533 207 471 Q 222 444 242 472 Q 258 497 272 534 Q 287 580 299 606 C 307 624 307 624 301 635 Z" fill="black"></path>
				<path d="M 299 606 Q 326 590 353 597 Q 500 643 682 659 Q 713 663 725 660 Q 741 653 740 646 Q 740 643 695 566 Q 688 553 693 548 Q 700 544 717 554 Q 777 591 826 602 Q 866 612 865 622 Q 864 632 795 689 Q 768 710 696 694 Q 555 675 398 648 Q 349 641 301 635 C 271 631 272 618 299 606 Z" fill="black"></path>
				<path d="M 538 385 Q 559 391 728 413 Q 738 412 749 424 Q 750 437 726 448 Q 692 469 598 443 Q 568 436 540 428 L 487 417 Q 435 408 388 402 Q 339 398 285 390 Q 254 386 278 368 Q 311 340 342 348 Q 394 360 455 370 L 538 385 Z" fill="black"></path>
				<path d="M 540 428 Q 541 474 552 507 Q 559 522 557 534 Q 551 543 500 573 Q 479 589 460 574 Q 456 570 461 556 Q 483 523 485 489 Q 486 455 487 417 L 488 326 Q 488 149 474 87 Q 456 57 486 -12 Q 493 -28 500 -31 Q 506 -37 512 -30 Q 519 -26 528 -6 Q 537 16 536 45 Q 535 76 537 348 L 538 385 L 540 428 Z" fill="black"></path>
				<path d="M 455 370 Q 407 243 178 88 Q 162 75 177 74 Q 187 73 226 88 Q 281 109 331 148 Q 374 182 425 239 Q 465 285 488 326 C 523 386 473 413 455 370 Z" fill="red"></path>
				<path d="M 537 348 Q 619 230 726 102 Q 745 81 777 83 Q 886 87 921 93 Q 931 96 932 101 Q 933 107 918 114 Q 782 166 727 207 Q 643 277 544 379 Q 541 383 538 385 C 517 406 520 373 537 348 Z" fill="lightgray"></path>
</g>
		<text x="40" y="140" font-size="128" fill="#999999">6</text></g>
		<g id="id1:id1:id1" transform="matrix(1.0,0,0,1.0,1024,0.0)">			<g stroke="lightgray" stroke-width="4" transform="scale(4, 4)"> <rect x="0" y="0" width="256" height="256" fill="white" stroke-width="4"/></g>
			<g transform="scale(0.92, -0.92) translate(60, -920)">					<path d="M 467 764 Q 489 743 513 718 Q 529 705 546 705 Q 559 705 564 721 Q 570 737 559 771 Q 553 790 523 802 Q 451 829 436 819 Q 430 815 432 800 Q 436 787 467 764 Z" fill="black"></path>
				<path d="M 301 635 Q 289 659 278 668 Q 259 681 257 656 Q 261 625 217 569 Q 180 533 207 471 Q 222 444 242 472 Q 258 497 272 534 Q 287 580 299 606 C 307 624 307 624 301 635 Z" fill="black"></path>
				<path d="M 299 606 Q 326 590 353 597 Q 500 643 682 659 Q 713 663 725 660 Q 741 653 740 646 Q 740 643 695 566 Q 688 553 693 548 Q 700 544 717 554 Q 777 591 826 602 Q 866 612 865 622 Q 864 632 795 689 Q 768 710 696 694 Q 555 675 398 648 Q 349 641 301 635 C 271 631 272 618 299 606 Z" fill="black"></path>
				<path d="M 538 385 Q 559 391 728 413 Q 738 412 749 424 Q 750 437 726 448 Q 692 469 598 443 Q 568 436 540 428 L 487 417 Q 435 408 388 402 Q 339 398 285 390 Q 254 386 278 368 Q 311 340 342 348 Q 394 360 455 370 L 538 385 Z" fill="black"></path>
				<path d="M 540 428 Q 541 474 552 507 Q 559 522 557 534 Q 551 543 500 573 Q 479 589 460 574 Q 456 570 461 556 Q 483 523 485 489 Q 486 455 487 417 L 488 326 Q 488 149 474 87 Q 456 57 486 -12 Q 493 -28 500 -31 Q 506 -37 512 -30 Q 519 -26 528 -6 Q 537 16 536 45 Q 535 76 537 348 L 538 385 L 540 428 Z" fill="black"></path>
				<path d="M 455 370 Q 407 243 178 88 Q 162 75 177 74 Q 187 73 226 88 Q 281 109 331 148 Q 374 182 425 239 Q 465 285 488 326 C 523 386 473 413 455 370 Z" fill="black"></path>
				<path d="M 537 348 Q 619 230 726 102 Q 745 81 777 83 Q 886 87 921 93 Q 931 96 932 101 Q 933 107 918 114 Q 782 166 727 207 Q 643 277 544 379 Q 541 383 538 385 C 517 406 520 373 537 348 Z" fill="red"></path>
</g>
		<text x="40" y="140" font-size="128" fill="#999999">7</text></g>
		<g id="id1:id2:id2" transform="matrix(1.0,0,0,1.0,2048,0.0)">			<g stroke="white" stroke-width="4" transform="scale(4, 4)"> <rect x="1" y="1" width="255" height="255" fill="white" stroke-width="0"/></g>
</g>
		<g id="id1:id3:id3" transform="matrix(1.0,0,0,1.0,3072,0.0)">			<g stroke="white" stroke-width="4" transform="scale(4, 4)"> <rect x="1" y="1" width="255" height="255" fill="white" stroke-width="0"/></g>
</g>
		<g id="id1:id4:id4" transform="matrix(1.0,0,0,1.0,4096,0.0)">			<g stroke="white" stroke-width="4" transform="scale(4, 4)"> <rect x="1" y="1" width="255" height="255" fill="white" stroke-width="0"/></g>
</g>
</g>
</svg>
