<?xml version="1.0" standalone="no"?>
<!DOCTYPE svg PUBLIC "-//W3C//DTD SVG 1.1//EN"
 "http://www.w3.org/Graphics/SVG/1.1/DTD/svg11.dtd">
<!-- generate by Japanese dictionary app com.asnsami.kanjidictionary -->

<svg xmlns="http://www.w3.org/2000/svg" xmlns:sodipodi="http://sodipodi.sourceforge.net/DTD/sodipodi-0.dtd" version="1.1" width="640" height="256" viewBox="0 0 5120 2048">
	<g id="id0:id0" transform="translate(0.0,0)">
		<g id="id0:id0:id0" transform="matrix(1.0,0,0,1.0,0,0.0)">			<g stroke="lightgray" stroke-width="4" transform="scale(4, 4)"> <rect x="0" y="0" width="256" height="256" fill="white" stroke-width="4"/></g>
			<g transform="scale(0.92, -0.92) translate(60, -920)">					<path d="M 468 799 Q 502 777 537 749 Q 555 736 572 739 Q 585 740 588 756 Q 592 774 578 806 Q 562 840 457 853 Q 438 854 432 851 Q 426 847 430 832 Q 436 819 468 799 Z" fill="red"></path>
				<path d="M 292 651 Q 276 684 264 691 Q 243 706 242 678 Q 249 636 198 583 Q 168 553 203 491 Q 219 463 240 494 Q 256 519 267 555 Q 279 598 289 624 C 296 643 296 643 292 651 Z" fill="lightgray"></path>
				<path d="M 289 624 Q 316 605 354 616 Q 462 653 673 680 Q 718 686 733 683 Q 749 674 747 667 Q 732 624 715 578 L 717 577 Q 724 573 741 584 Q 796 620 841 631 Q 878 641 878 650 Q 877 660 803 715 Q 778 736 682 713 Q 487 683 292 651 C 262 646 262 637 289 624 Z" fill="lightgray"></path>
				<path d="M 371 509 Q 332 499 362 483 Q 413 462 468 481 Q 610 521 617 525 Q 626 535 620 544 Q 611 556 580 561 Q 547 565 516 549 Q 485 537 452 526 Q 415 516 371 509 Z" fill="lightgray"></path>
				<path d="M 545 365 Q 569 372 704 390 Q 716 389 725 403 Q 726 416 701 427 Q 664 448 577 421 Q 447 390 288 364 Q 273 363 260 359 Q 229 355 253 336 Q 287 311 332 320 Q 353 326 379 330 L 419 338 Q 461 348 509 357 L 545 365 Z" fill="lightgray"></path>
				<path d="M 379 330 Q 367 180 122 41 Q 115 35 120 31 Q 127 27 137 30 Q 266 60 333 138 Q 373 177 416 248 Q 429 269 447 288 Q 456 295 452 306 Q 448 316 422 337 Q 421 338 419 338 C 394 355 382 360 379 330 Z" fill="lightgray"></path>
				<path d="M 948 69 Q 929 124 919 217 Q 918 233 909 238 Q 902 242 898 223 Q 885 106 867 85 Q 836 51 708 50 Q 638 51 608 63 Q 583 76 576 95 Q 557 162 581 257 Q 585 278 592 290 Q 611 335 545 365 C 519 379 498 385 509 357 Q 530 312 526 256 Q 519 94 545 53 Q 573 19 651 6 Q 712 -4 809 0 Q 896 4 930 22 Q 960 38 948 69 Z" fill="lightgray"></path>
</g>
		<text x="40" y="140" font-size="128" fill="#999999">1</text></g>
		<g id="id0:id1:id1" transform="matrix(1.0,0,0,1.0,1024,0.0)">			<g stroke="lightgray" stroke-width="4" transform="scale(4, 4)"> <rect x="0" y="0" width="256" height="256" fill="white" stroke-width="4"/></g>
			<g transform="scale(0.92, -0.92) translate(60, -920)">					<path d="M 468 799 Q 502 777 537 749 Q 555 736 572 739 Q 585 740 588 756 Q 592 774 578 806 Q 562 840 457 853 Q 438 854 432 851 Q 426 847 430 832 Q 436 819 468 799 Z" fill="black"></path>
				<path d="M 292 651 Q 276 684 264 691 Q 243 706 242 678 Q 249 636 198 583 Q 168 553 203 491 Q 219 463 240 494 Q 256 519 267 555 Q 279 598 289 624 C 296 643 296 643 292 651 Z" fill="red"></path>
				<path d="M 289 624 Q 316 605 354 616 Q 462 653 673 680 Q 718 686 733 683 Q 749 674 747 667 Q 732 624 715 578 L 717 577 Q 724 573 741 584 Q 796 620 841 631 Q 878 641 878 650 Q 877 660 803 715 Q 778 736 682 713 Q 487 683 292 651 C 262 646 262 637 289 624 Z" fill="lightgray"></path>
				<path d="M 371 509 Q 332 499 362 483 Q 413 462 468 481 Q 610 521 617 525 Q 626 535 620 544 Q 611 556 580 561 Q 547 565 516 549 Q 485 537 452 526 Q 415 516 371 509 Z" fill="lightgray"></path>
				<path d="M 545 365 Q 569 372 704 390 Q 716 389 725 403 Q 726 416 701 427 Q 664 448 577 421 Q 447 390 288 364 Q 273 363 260 359 Q 229 355 253 336 Q 287 311 332 320 Q 353 326 379 330 L 419 338 Q 461 348 509 357 L 545 365 Z" fill="lightgray"></path>
				<path d="M 379 330 Q 367 180 122 41 Q 115 35 120 31 Q 127 27 137 30 Q 266 60 333 138 Q 373 177 416 248 Q 429 269 447 288 Q 456 295 452 306 Q 448 316 422 337 Q 421 338 419 338 C 394 355 382 360 379 330 Z" fill="lightgray"></path>
				<path d="M 948 69 Q 929 124 919 217 Q 918 233 909 238 Q 902 242 898 223 Q 885 106 867 85 Q 836 51 708 50 Q 638 51 608 63 Q 583 76 576 95 Q 557 162 581 257 Q 585 278 592 290 Q 611 335 545 365 C 519 379 498 385 509 357 Q 530 312 526 256 Q 519 94 545 53 Q 573 19 651 6 Q 712 -4 809 0 Q 896 4 930 22 Q 960 38 948 69 Z" fill="lightgray"></path>
</g>
		<text x="40" y="140" font-size="128" fill="#999999">2</text></g>
		<g id="id0:id2:id2" transform="matrix(1.0,0,0,1.0,2048,0.0)">			<g stroke="lightgray" stroke-width="4" transform="scale(4, 4)"> <rect x="0" y="0" width="256" height="256" fill="white" stroke-width="4"/></g>
			<g transform="scale(0.92, -0.92) translate(60, -920)">					<path d="M 468 799 Q 502 777 537 749 Q 555 736 572 739 Q 585 740 588 756 Q 592 774 578 806 Q 562 840 457 853 Q 438 854 432 851 Q 426 847 430 832 Q 436 819 468 799 Z" fill="black"></path>
				<path d="M 292 651 Q 276 684 264 691 Q 243 706 242 678 Q 249 636 198 583 Q 168 553 203 491 Q 219 463 240 494 Q 256 519 267 555 Q 279 598 289 624 C 296 643 296 643 292 651 Z" fill="black"></path>
				<path d="M 289 624 Q 316 605 354 616 Q 462 653 673 680 Q 718 686 733 683 Q 749 674 747 667 Q 732 624 715 578 L 717 577 Q 724 573 741 584 Q 796 620 841 631 Q 878 641 878 650 Q 877 660 803 715 Q 778 736 682 713 Q 487 683 292 651 C 262 646 262 637 289 624 Z" fill="red"></path>
				<path d="M 371 509 Q 332 499 362 483 Q 413 462 468 481 Q 610 521 617 525 Q 626 535 620 544 Q 611 556 580 561 Q 547 565 516 549 Q 485 537 452 526 Q 415 516 371 509 Z" fill="lightgray"></path>
				<path d="M 545 365 Q 569 372 704 390 Q 716 389 725 403 Q 726 416 701 427 Q 664 448 577 421 Q 447 390 288 364 Q 273 363 260 359 Q 229 355 253 336 Q 287 311 332 320 Q 353 326 379 330 L 419 338 Q 461 348 509 357 L 545 365 Z" fill="lightgray"></path>
				<path d="M 379 330 Q 367 180 122 41 Q 115 35 120 31 Q 127 27 137 30 Q 266 60 333 138 Q 373 177 416 248 Q 429 269 447 288 Q 456 295 452 306 Q 448 316 422 337 Q 421 338 419 338 C 394 355 382 360 379 330 Z" fill="lightgray"></path>
				<path d="M 948 69 Q 929 124 919 217 Q 918 233 909 238 Q 902 242 898 223 Q 885 106 867 85 Q 836 51 708 50 Q 638 51 608 63 Q 583 76 576 95 Q 557 162 581 257 Q 585 278 592 290 Q 611 335 545 365 C 519 379 498 385 509 357 Q 530 312 526 256 Q 519 94 545 53 Q 573 19 651 6 Q 712 -4 809 0 Q 896 4 930 22 Q 960 38 948 69 Z" fill="lightgray"></path>
</g>
		<text x="40" y="140" font-size="128" fill="#999999">3</text></g>
		<g id="id0:id3:id3" transform="matrix(1.0,0,0,1.0,3072,0.0)">			<g stroke="lightgray" stroke-width="4" transform="scale(4, 4)"> <rect x="0" y="0" width="256" height="256" fill="white" stroke-width="4"/></g>
			<g transform="scale(0.92, -0.92) translate(60, -920)">					<path d="M 468 799 Q 502 777 537 749 Q 555 736 572 739 Q 585 740 588 756 Q 592 774 578 806 Q 562 840 457 853 Q 438 854 432 851 Q 426 847 430 832 Q 436 819 468 799 Z" fill="black"></path>
				<path d="M 292 651 Q 276 684 264 691 Q 243 706 242 678 Q 249 636 198 583 Q 168 553 203 491 Q 219 463 240 494 Q 256 519 267 555 Q 279 598 289 624 C 296 643 296 643 292 651 Z" fill="black"></path>
				<path d="M 289 624 Q 316 605 354 616 Q 462 653 673 680 Q 718 686 733 683 Q 749 674 747 667 Q 732 624 715 578 L 717 577 Q 724 573 741 584 Q 796 620 841 631 Q 878 641 878 650 Q 877 660 803 715 Q 778 736 682 713 Q 487 683 292 651 C 262 646 262 637 289 624 Z" fill="black"></path>
				<path d="M 371 509 Q 332 499 362 483 Q 413 462 468 481 Q 610 521 617 525 Q 626 535 620 544 Q 611 556 580 561 Q 547 565 516 549 Q 485 537 452 526 Q 415 516 371 509 Z" fill="red"></path>
				<path d="M 545 365 Q 569 372 704 390 Q 716 389 725 403 Q 726 416 701 427 Q 664 448 577 421 Q 447 390 288 364 Q 273 363 260 359 Q 229 355 253 336 Q 287 311 332 320 Q 353 326 379 330 L 419 338 Q 461 348 509 357 L 545 365 Z" fill="lightgray"></path>
				<path d="M 379 330 Q 367 180 122 41 Q 115 35 120 31 Q 127 27 137 30 Q 266 60 333 138 Q 373 177 416 248 Q 429 269 447 288 Q 456 295 452 306 Q 448 316 422 337 Q 421 338 419 338 C 394 355 382 360 379 330 Z" fill="lightgray"></path>
				<path d="M 948 69 Q 929 124 919 217 Q 918 233 909 238 Q 902 242 898 223 Q 885 106 867 85 Q 836 51 708 50 Q 638 51 608 63 Q 583 76 576 95 Q 557 162 581 257 Q 585 278 592 290 Q 611 335 545 365 C 519 379 498 385 509 357 Q 530 312 526 256 Q 519 94 545 53 Q 573 19 651 6 Q 712 -4 809 0 Q 896 4 930 22 Q 960 38 948 69 Z" fill="lightgray"></path>
</g>
		<text x="40" y="140" font-size="128" fill="#999999">4</text></g>
		<g id="id0:id4:id4" transform="matrix(1.0,0,0,1.0,4096,0.0)">			<g stroke="lightgray" stroke-width="4" transform="scale(4, 4)"> <rect x="0" y="0" width="256" height="256" fill="white" stroke-width="4"/></g>
			<g transform="scale(0.92, -0.92) translate(60, -920)">					<path d="M 468 799 Q 502 777 537 749 Q 555 736 572 739 Q 585 740 588 756 Q 592 774 578 806 Q 562 840 457 853 Q 438 854 432 851 Q 426 847 430 832 Q 436 819 468 799 Z" fill="black"></path>
				<path d="M 292 651 Q 276 684 264 691 Q 243 706 242 678 Q 249 636 198 583 Q 168 553 203 491 Q 219 463 240 494 Q 256 519 267 555 Q 279 598 289 624 C 296 643 296 643 292 651 Z" fill="black"></path>
				<path d="M 289 624 Q 316 605 354 616 Q 462 653 673 680 Q 718 686 733 683 Q 749 674 747 667 Q 732 624 715 578 L 717 577 Q 724 573 741 584 Q 796 620 841 631 Q 878 641 878 650 Q 877 660 803 715 Q 778 736 682 713 Q 487 683 292 651 C 262 646 262 637 289 624 Z" fill="black"></path>
				<path d="M 371 509 Q 332 499 362 483 Q 413 462 468 481 Q 610 521 617 525 Q 626 535 620 544 Q 611 556 580 561 Q 547 565 516 549 Q 485 537 452 526 Q 415 516 371 509 Z" fill="black"></path>
				<path d="M 545 365 Q 569 372 704 390 Q 716 389 725 403 Q 726 416 701 427 Q 664 448 577 421 Q 447 390 288 364 Q 273 363 260 359 Q 229 355 253 336 Q 287 311 332 320 Q 353 326 379 330 L 419 338 Q 461 348 509 357 L 545 365 Z" fill="red"></path>
				<path d="M 379 330 Q 367 180 122 41 Q 115 35 120 31 Q 127 27 137 30 Q 266 60 333 138 Q 373 177 416 248 Q 429 269 447 288 Q 456 295 452 306 Q 448 316 422 337 Q 421 338 419 338 C 394 355 382 360 379 330 Z" fill="lightgray"></path>
				<path d="M 948 69 Q 929 124 919 217 Q 918 233 909 238 Q 902 242 898 223 Q 885 106 867 85 Q 836 51 708 50 Q 638 51 608 63 Q 583 76 576 95 Q 557 162 581 257 Q 585 278 592 290 Q 611 335 545 365 C 519 379 498 385 509 357 Q 530 312 526 256 Q 519 94 545 53 Q 573 19 651 6 Q 712 -4 809 0 Q 896 4 930 22 Q 960 38 948 69 Z" fill="lightgray"></path>
</g>
		<text x="40" y="140" font-size="128" fill="#999999">5</text></g>
</g>
	<g id="id1:id1" transform="translate(0.0,1024)">
		<g id="id1:id0:id0" transform="matrix(1.0,0,0,1.0,0,0.0)">			<g stroke="lightgray" stroke-width="4" transform="scale(4, 4)"> <rect x="0" y="0" width="256" height="256" fill="white" stroke-width="4"/></g>
			<g transform="scale(0.92, -0.92) translate(60, -920)">					<path d="M 468 799 Q 502 777 537 749 Q 555 736 572 739 Q 585 740 588 756 Q 592 774 578 806 Q 562 840 457 853 Q 438 854 432 851 Q 426 847 430 832 Q 436 819 468 799 Z" fill="black"></path>
				<path d="M 292 651 Q 276 684 264 691 Q 243 706 242 678 Q 249 636 198 583 Q 168 553 203 491 Q 219 463 240 494 Q 256 519 267 555 Q 279 598 289 624 C 296 643 296 643 292 651 Z" fill="black"></path>
				<path d="M 289 624 Q 316 605 354 616 Q 462 653 673 680 Q 718 686 733 683 Q 749 674 747 667 Q 732 624 715 578 L 717 577 Q 724 573 741 584 Q 796 620 841 631 Q 878 641 878 650 Q 877 660 803 715 Q 778 736 682 713 Q 487 683 292 651 C 262 646 262 637 289 624 Z" fill="black"></path>
				<path d="M 371 509 Q 332 499 362 483 Q 413 462 468 481 Q 610 521 617 525 Q 626 535 620 544 Q 611 556 580 561 Q 547 565 516 549 Q 485 537 452 526 Q 415 516 371 509 Z" fill="black"></path>
				<path d="M 545 365 Q 569 372 704 390 Q 716 389 725 403 Q 726 416 701 427 Q 664 448 577 421 Q 447 390 288 364 Q 273 363 260 359 Q 229 355 253 336 Q 287 311 332 320 Q 353 326 379 330 L 419 338 Q 461 348 509 357 L 545 365 Z" fill="black"></path>
				<path d="M 379 330 Q 367 180 122 41 Q 115 35 120 31 Q 127 27 137 30 Q 266 60 333 138 Q 373 177 416 248 Q 429 269 447 288 Q 456 295 452 306 Q 448 316 422 337 Q 421 338 419 338 C 394 355 382 360 379 330 Z" fill="red"></path>
				<path d="M 948 69 Q 929 124 919 217 Q 918 233 909 238 Q 902 242 898 223 Q 885 106 867 85 Q 836 51 708 50 Q 638 51 608 63 Q 583 76 576 95 Q 557 162 581 257 Q 585 278 592 290 Q 611 335 545 365 C 519 379 498 385 509 357 Q 530 312 526 256 Q 519 94 545 53 Q 573 19 651 6 Q 712 -4 809 0 Q 896 4 930 22 Q 960 38 948 69 Z" fill="lightgray"></path>
</g>
		<text x="40" y="140" font-size="128" fill="#999999">6</text></g>
		<g id="id1:id1:id1" transform="matrix(1.0,0,0,1.0,1024,0.0)">			<g stroke="lightgray" stroke-width="4" transform="scale(4, 4)"> <rect x="0" y="0" width="256" height="256" fill="white" stroke-width="4"/></g>
			<g transform="scale(0.92, -0.92) translate(60, -920)">					<path d="M 468 799 Q 502 777 537 749 Q 555 736 572 739 Q 585 740 588 756 Q 592 774 578 806 Q 562 840 457 853 Q 438 854 432 851 Q 426 847 430 832 Q 436 819 468 799 Z" fill="black"></path>
				<path d="M 292 651 Q 276 684 264 691 Q 243 706 242 678 Q 249 636 198 583 Q 168 553 203 491 Q 219 463 240 494 Q 256 519 267 555 Q 279 598 289 624 C 296 643 296 643 292 651 Z" fill="black"></path>
				<path d="M 289 624 Q 316 605 354 616 Q 462 653 673 680 Q 718 686 733 683 Q 749 674 747 667 Q 732 624 715 578 L 717 577 Q 724 573 741 584 Q 796 620 841 631 Q 878 641 878 650 Q 877 660 803 715 Q 778 736 682 713 Q 487 683 292 651 C 262 646 262 637 289 624 Z" fill="black"></path>
				<path d="M 371 509 Q 332 499 362 483 Q 413 462 468 481 Q 610 521 617 525 Q 626 535 620 544 Q 611 556 580 561 Q 547 565 516 549 Q 485 537 452 526 Q 415 516 371 509 Z" fill="black"></path>
				<path d="M 545 365 Q 569 372 704 390 Q 716 389 725 403 Q 726 416 701 427 Q 664 448 577 421 Q 447 390 288 364 Q 273 363 260 359 Q 229 355 253 336 Q 287 311 332 320 Q 353 326 379 330 L 419 338 Q 461 348 509 357 L 545 365 Z" fill="black"></path>
				<path d="M 379 330 Q 367 180 122 41 Q 115 35 120 31 Q 127 27 137 30 Q 266 60 333 138 Q 373 177 416 248 Q 429 269 447 288 Q 456 295 452 306 Q 448 316 422 337 Q 421 338 419 338 C 394 355 382 360 379 330 Z" fill="black"></path>
				<path d="M 948 69 Q 929 124 919 217 Q 918 233 909 238 Q 902 242 898 223 Q 885 106 867 85 Q 836 51 708 50 Q 638 51 608 63 Q 583 76 576 95 Q 557 162 581 257 Q 585 278 592 290 Q 611 335 545 365 C 519 379 498 385 509 357 Q 530 312 526 256 Q 519 94 545 53 Q 573 19 651 6 Q 712 -4 809 0 Q 896 4 930 22 Q 960 38 948 69 Z" fill="red"></path>
</g>
		<text x="40" y="140" font-size="128" fill="#999999">7</text></g>
		<g id="id1:id2:id2" transform="matrix(1.0,0,0,1.0,2048,0.0)">			<g stroke="white" stroke-width="4" transform="scale(4, 4)"> <rect x="1" y="1" width="255" height="255" fill="white" stroke-width="0"/></g>
</g>
		<g id="id1:id3:id3" transform="matrix(1.0,0,0,1.0,3072,0.0)">			<g stroke="white" stroke-width="4" transform="scale(4, 4)"> <rect x="1" y="1" width="255" height="255" fill="white" stroke-width="0"/></g>
</g>
		<g id="id1:id4:id4" transform="matrix(1.0,0,0,1.0,4096,0.0)">			<g stroke="white" stroke-width="4" transform="scale(4, 4)"> <rect x="1" y="1" width="255" height="255" fill="white" stroke-width="0"/></g>
</g>
</g>
</svg>
