<?xml version="1.0" standalone="no"?>
<!DOCTYPE svg PUBLIC "-//W3C//DTD SVG 1.1//EN"
 "http://www.w3.org/Graphics/SVG/1.1/DTD/svg11.dtd">
<!-- generate by Handict dictionary app com.asnsami.handict -->

<svg xmlns="http://www.w3.org/2000/svg" xmlns:sodipodi="http://sodipodi.sourceforge.net/DTD/sodipodi-0.dtd" version="1.1" width="640" height="256" viewBox="0 0 5120 2048">
	<g id="id0:id0" transform="translate(0.0,0)">
		<g id="id0:id0:id0" transform="matrix(1.0,0,0,1.0,0,0.0)">			<g stroke="lightgray" stroke-width="4" transform="scale(4, 4)"> <rect x="0" y="0" width="256" height="256" fill="white" stroke-width="4"/></g>
			<g transform="scale(0.92, -0.92) translate(60, -920)">					<path d="M 548 649 Q 701 682 702 683 Q 711 690 707 700 Q 700 712 670 721 Q 639 728 609 717 Q 581 708 551 700 L 495 686 Q 431 674 355 669 Q 318 665 344 646 Q 378 622 460 635 Q 476 638 496 641 L 548 649 Z" fill="red"></path>
				<path d="M 538 530 Q 542 591 548 649 L 551 700 Q 554 754 571 814 Q 574 824 554 840 Q 518 859 494 863 Q 478 867 470 858 Q 463 851 471 836 Q 490 808 490 790 Q 493 741 495 686 L 496 641 Q 496 586 495 523 C 495 493 536 500 538 530 Z" fill="lightgray"></path>
				<path d="M 495 523 Q 332 502 139 478 Q 114 475 132 455 Q 148 439 170 433 Q 195 426 214 432 Q 466 502 902 503 Q 903 503 906 503 Q 930 503 936 513 Q 943 526 923 543 Q 856 594 787 573 Q 690 554 538 530 L 495 523 Z" fill="lightgray"></path>
				<path d="M 625 329 Q 685 333 757 332 Q 818 329 827 340 Q 833 352 816 366 Q 758 409 684 388 Q 657 384 629 377 L 570 368 Q 297 332 224 322 Q 203 321 219 303 Q 232 290 251 284 Q 272 278 288 283 Q 442 322 572 326 L 625 329 Z" fill="lightgray"></path>
				<path d="M 536 48 Q 494 58 455 67 Q 442 70 443 62 Q 444 55 455 47 Q 539 -19 569 -60 Q 585 -78 601 -63 Q 634 -30 634 61 Q 625 172 625 329 L 629 377 Q 630 395 637 409 Q 646 428 628 442 Q 601 464 570 475 Q 551 481 542 473 Q 536 466 547 450 Q 569 411 570 368 L 572 326 Q 584 71 559 51 Q 550 44 536 48 Z" fill="lightgray"></path>
				<path d="M 350 226 Q 378 172 409 155 Q 424 149 435 161 Q 442 174 443 191 Q 440 216 425 231 Q 374 273 342 268 Q 336 267 337 255 Q 336 242 350 226 Z" fill="lightgray"></path>
</g>
		<text x="40" y="140" font-size="128" fill="#999999">1</text></g>
		<g id="id0:id1:id1" transform="matrix(1.0,0,0,1.0,1024,0.0)">			<g stroke="lightgray" stroke-width="4" transform="scale(4, 4)"> <rect x="0" y="0" width="256" height="256" fill="white" stroke-width="4"/></g>
			<g transform="scale(0.92, -0.92) translate(60, -920)">					<path d="M 548 649 Q 701 682 702 683 Q 711 690 707 700 Q 700 712 670 721 Q 639 728 609 717 Q 581 708 551 700 L 495 686 Q 431 674 355 669 Q 318 665 344 646 Q 378 622 460 635 Q 476 638 496 641 L 548 649 Z" fill="black"></path>
				<path d="M 538 530 Q 542 591 548 649 L 551 700 Q 554 754 571 814 Q 574 824 554 840 Q 518 859 494 863 Q 478 867 470 858 Q 463 851 471 836 Q 490 808 490 790 Q 493 741 495 686 L 496 641 Q 496 586 495 523 C 495 493 536 500 538 530 Z" fill="red"></path>
				<path d="M 495 523 Q 332 502 139 478 Q 114 475 132 455 Q 148 439 170 433 Q 195 426 214 432 Q 466 502 902 503 Q 903 503 906 503 Q 930 503 936 513 Q 943 526 923 543 Q 856 594 787 573 Q 690 554 538 530 L 495 523 Z" fill="lightgray"></path>
				<path d="M 625 329 Q 685 333 757 332 Q 818 329 827 340 Q 833 352 816 366 Q 758 409 684 388 Q 657 384 629 377 L 570 368 Q 297 332 224 322 Q 203 321 219 303 Q 232 290 251 284 Q 272 278 288 283 Q 442 322 572 326 L 625 329 Z" fill="lightgray"></path>
				<path d="M 536 48 Q 494 58 455 67 Q 442 70 443 62 Q 444 55 455 47 Q 539 -19 569 -60 Q 585 -78 601 -63 Q 634 -30 634 61 Q 625 172 625 329 L 629 377 Q 630 395 637 409 Q 646 428 628 442 Q 601 464 570 475 Q 551 481 542 473 Q 536 466 547 450 Q 569 411 570 368 L 572 326 Q 584 71 559 51 Q 550 44 536 48 Z" fill="lightgray"></path>
				<path d="M 350 226 Q 378 172 409 155 Q 424 149 435 161 Q 442 174 443 191 Q 440 216 425 231 Q 374 273 342 268 Q 336 267 337 255 Q 336 242 350 226 Z" fill="lightgray"></path>
</g>
		<text x="40" y="140" font-size="128" fill="#999999">2</text></g>
		<g id="id0:id2:id2" transform="matrix(1.0,0,0,1.0,2048,0.0)">			<g stroke="lightgray" stroke-width="4" transform="scale(4, 4)"> <rect x="0" y="0" width="256" height="256" fill="white" stroke-width="4"/></g>
			<g transform="scale(0.92, -0.92) translate(60, -920)">					<path d="M 548 649 Q 701 682 702 683 Q 711 690 707 700 Q 700 712 670 721 Q 639 728 609 717 Q 581 708 551 700 L 495 686 Q 431 674 355 669 Q 318 665 344 646 Q 378 622 460 635 Q 476 638 496 641 L 548 649 Z" fill="black"></path>
				<path d="M 538 530 Q 542 591 548 649 L 551 700 Q 554 754 571 814 Q 574 824 554 840 Q 518 859 494 863 Q 478 867 470 858 Q 463 851 471 836 Q 490 808 490 790 Q 493 741 495 686 L 496 641 Q 496 586 495 523 C 495 493 536 500 538 530 Z" fill="black"></path>
				<path d="M 495 523 Q 332 502 139 478 Q 114 475 132 455 Q 148 439 170 433 Q 195 426 214 432 Q 466 502 902 503 Q 903 503 906 503 Q 930 503 936 513 Q 943 526 923 543 Q 856 594 787 573 Q 690 554 538 530 L 495 523 Z" fill="red"></path>
				<path d="M 625 329 Q 685 333 757 332 Q 818 329 827 340 Q 833 352 816 366 Q 758 409 684 388 Q 657 384 629 377 L 570 368 Q 297 332 224 322 Q 203 321 219 303 Q 232 290 251 284 Q 272 278 288 283 Q 442 322 572 326 L 625 329 Z" fill="lightgray"></path>
				<path d="M 536 48 Q 494 58 455 67 Q 442 70 443 62 Q 444 55 455 47 Q 539 -19 569 -60 Q 585 -78 601 -63 Q 634 -30 634 61 Q 625 172 625 329 L 629 377 Q 630 395 637 409 Q 646 428 628 442 Q 601 464 570 475 Q 551 481 542 473 Q 536 466 547 450 Q 569 411 570 368 L 572 326 Q 584 71 559 51 Q 550 44 536 48 Z" fill="lightgray"></path>
				<path d="M 350 226 Q 378 172 409 155 Q 424 149 435 161 Q 442 174 443 191 Q 440 216 425 231 Q 374 273 342 268 Q 336 267 337 255 Q 336 242 350 226 Z" fill="lightgray"></path>
</g>
		<text x="40" y="140" font-size="128" fill="#999999">3</text></g>
		<g id="id0:id3:id3" transform="matrix(1.0,0,0,1.0,3072,0.0)">			<g stroke="lightgray" stroke-width="4" transform="scale(4, 4)"> <rect x="0" y="0" width="256" height="256" fill="white" stroke-width="4"/></g>
			<g transform="scale(0.92, -0.92) translate(60, -920)">					<path d="M 548 649 Q 701 682 702 683 Q 711 690 707 700 Q 700 712 670 721 Q 639 728 609 717 Q 581 708 551 700 L 495 686 Q 431 674 355 669 Q 318 665 344 646 Q 378 622 460 635 Q 476 638 496 641 L 548 649 Z" fill="black"></path>
				<path d="M 538 530 Q 542 591 548 649 L 551 700 Q 554 754 571 814 Q 574 824 554 840 Q 518 859 494 863 Q 478 867 470 858 Q 463 851 471 836 Q 490 808 490 790 Q 493 741 495 686 L 496 641 Q 496 586 495 523 C 495 493 536 500 538 530 Z" fill="black"></path>
				<path d="M 495 523 Q 332 502 139 478 Q 114 475 132 455 Q 148 439 170 433 Q 195 426 214 432 Q 466 502 902 503 Q 903 503 906 503 Q 930 503 936 513 Q 943 526 923 543 Q 856 594 787 573 Q 690 554 538 530 L 495 523 Z" fill="black"></path>
				<path d="M 625 329 Q 685 333 757 332 Q 818 329 827 340 Q 833 352 816 366 Q 758 409 684 388 Q 657 384 629 377 L 570 368 Q 297 332 224 322 Q 203 321 219 303 Q 232 290 251 284 Q 272 278 288 283 Q 442 322 572 326 L 625 329 Z" fill="red"></path>
				<path d="M 536 48 Q 494 58 455 67 Q 442 70 443 62 Q 444 55 455 47 Q 539 -19 569 -60 Q 585 -78 601 -63 Q 634 -30 634 61 Q 625 172 625 329 L 629 377 Q 630 395 637 409 Q 646 428 628 442 Q 601 464 570 475 Q 551 481 542 473 Q 536 466 547 450 Q 569 411 570 368 L 572 326 Q 584 71 559 51 Q 550 44 536 48 Z" fill="lightgray"></path>
				<path d="M 350 226 Q 378 172 409 155 Q 424 149 435 161 Q 442 174 443 191 Q 440 216 425 231 Q 374 273 342 268 Q 336 267 337 255 Q 336 242 350 226 Z" fill="lightgray"></path>
</g>
		<text x="40" y="140" font-size="128" fill="#999999">4</text></g>
		<g id="id0:id4:id4" transform="matrix(1.0,0,0,1.0,4096,0.0)">			<g stroke="lightgray" stroke-width="4" transform="scale(4, 4)"> <rect x="0" y="0" width="256" height="256" fill="white" stroke-width="4"/></g>
			<g transform="scale(0.92, -0.92) translate(60, -920)">					<path d="M 548 649 Q 701 682 702 683 Q 711 690 707 700 Q 700 712 670 721 Q 639 728 609 717 Q 581 708 551 700 L 495 686 Q 431 674 355 669 Q 318 665 344 646 Q 378 622 460 635 Q 476 638 496 641 L 548 649 Z" fill="black"></path>
				<path d="M 538 530 Q 542 591 548 649 L 551 700 Q 554 754 571 814 Q 574 824 554 840 Q 518 859 494 863 Q 478 867 470 858 Q 463 851 471 836 Q 490 808 490 790 Q 493 741 495 686 L 496 641 Q 496 586 495 523 C 495 493 536 500 538 530 Z" fill="black"></path>
				<path d="M 495 523 Q 332 502 139 478 Q 114 475 132 455 Q 148 439 170 433 Q 195 426 214 432 Q 466 502 902 503 Q 903 503 906 503 Q 930 503 936 513 Q 943 526 923 543 Q 856 594 787 573 Q 690 554 538 530 L 495 523 Z" fill="black"></path>
				<path d="M 625 329 Q 685 333 757 332 Q 818 329 827 340 Q 833 352 816 366 Q 758 409 684 388 Q 657 384 629 377 L 570 368 Q 297 332 224 322 Q 203 321 219 303 Q 232 290 251 284 Q 272 278 288 283 Q 442 322 572 326 L 625 329 Z" fill="black"></path>
				<path d="M 536 48 Q 494 58 455 67 Q 442 70 443 62 Q 444 55 455 47 Q 539 -19 569 -60 Q 585 -78 601 -63 Q 634 -30 634 61 Q 625 172 625 329 L 629 377 Q 630 395 637 409 Q 646 428 628 442 Q 601 464 570 475 Q 551 481 542 473 Q 536 466 547 450 Q 569 411 570 368 L 572 326 Q 584 71 559 51 Q 550 44 536 48 Z" fill="red"></path>
				<path d="M 350 226 Q 378 172 409 155 Q 424 149 435 161 Q 442 174 443 191 Q 440 216 425 231 Q 374 273 342 268 Q 336 267 337 255 Q 336 242 350 226 Z" fill="lightgray"></path>
</g>
		<text x="40" y="140" font-size="128" fill="#999999">5</text></g>
</g>
	<g id="id1:id1" transform="translate(0.0,1024)">
		<g id="id1:id0:id0" transform="matrix(1.0,0,0,1.0,0,0.0)">			<g stroke="lightgray" stroke-width="4" transform="scale(4, 4)"> <rect x="0" y="0" width="256" height="256" fill="white" stroke-width="4"/></g>
			<g transform="scale(0.92, -0.92) translate(60, -920)">					<path d="M 548 649 Q 701 682 702 683 Q 711 690 707 700 Q 700 712 670 721 Q 639 728 609 717 Q 581 708 551 700 L 495 686 Q 431 674 355 669 Q 318 665 344 646 Q 378 622 460 635 Q 476 638 496 641 L 548 649 Z" fill="black"></path>
				<path d="M 538 530 Q 542 591 548 649 L 551 700 Q 554 754 571 814 Q 574 824 554 840 Q 518 859 494 863 Q 478 867 470 858 Q 463 851 471 836 Q 490 808 490 790 Q 493 741 495 686 L 496 641 Q 496 586 495 523 C 495 493 536 500 538 530 Z" fill="black"></path>
				<path d="M 495 523 Q 332 502 139 478 Q 114 475 132 455 Q 148 439 170 433 Q 195 426 214 432 Q 466 502 902 503 Q 903 503 906 503 Q 930 503 936 513 Q 943 526 923 543 Q 856 594 787 573 Q 690 554 538 530 L 495 523 Z" fill="black"></path>
				<path d="M 625 329 Q 685 333 757 332 Q 818 329 827 340 Q 833 352 816 366 Q 758 409 684 388 Q 657 384 629 377 L 570 368 Q 297 332 224 322 Q 203 321 219 303 Q 232 290 251 284 Q 272 278 288 283 Q 442 322 572 326 L 625 329 Z" fill="black"></path>
				<path d="M 536 48 Q 494 58 455 67 Q 442 70 443 62 Q 444 55 455 47 Q 539 -19 569 -60 Q 585 -78 601 -63 Q 634 -30 634 61 Q 625 172 625 329 L 629 377 Q 630 395 637 409 Q 646 428 628 442 Q 601 464 570 475 Q 551 481 542 473 Q 536 466 547 450 Q 569 411 570 368 L 572 326 Q 584 71 559 51 Q 550 44 536 48 Z" fill="black"></path>
				<path d="M 350 226 Q 378 172 409 155 Q 424 149 435 161 Q 442 174 443 191 Q 440 216 425 231 Q 374 273 342 268 Q 336 267 337 255 Q 336 242 350 226 Z" fill="red"></path>
</g>
		<text x="40" y="140" font-size="128" fill="#999999">6</text></g>
		<g id="id1:id1:id1" transform="matrix(1.0,0,0,1.0,1024,0.0)">			<g stroke="white" stroke-width="4" transform="scale(4, 4)"> <rect x="1" y="1" width="255" height="255" fill="white" stroke-width="0"/></g>
</g>
		<g id="id1:id2:id2" transform="matrix(1.0,0,0,1.0,2048,0.0)">			<g stroke="white" stroke-width="4" transform="scale(4, 4)"> <rect x="1" y="1" width="255" height="255" fill="white" stroke-width="0"/></g>
</g>
		<g id="id1:id3:id3" transform="matrix(1.0,0,0,1.0,3072,0.0)">			<g stroke="white" stroke-width="4" transform="scale(4, 4)"> <rect x="1" y="1" width="255" height="255" fill="white" stroke-width="0"/></g>
</g>
		<g id="id1:id4:id4" transform="matrix(1.0,0,0,1.0,4096,0.0)">			<g stroke="white" stroke-width="4" transform="scale(4, 4)"> <rect x="1" y="1" width="255" height="255" fill="white" stroke-width="0"/></g>
</g>
</g>
</svg>
