<?xml version="1.0" standalone="no"?>
<!DOCTYPE svg PUBLIC "-//W3C//DTD SVG 1.1//EN"
 "http://www.w3.org/Graphics/SVG/1.1/DTD/svg11.dtd">
<!-- generate by Handict dictionary app com.asnsami.handict -->

<svg xmlns="http://www.w3.org/2000/svg" xmlns:sodipodi="http://sodipodi.sourceforge.net/DTD/sodipodi-0.dtd" version="1.1" width="640" height="128" viewBox="0 0 5120 1024">
	<g id="id0:id0" transform="translate(0.0,0)">
		<g id="id0:id0:id0" transform="matrix(1.0,0,0,1.0,0,0.0)">			<g stroke="lightgray" stroke-width="4" transform="scale(4, 4)"> <rect x="0" y="0" width="256" height="256" fill="white" stroke-width="4"/></g>
			<g transform="scale(0.92, -0.92) translate(60, -920)">					<path d="M 499 695 Q 503 661 501 132 Q 500 110 488 101 Q 478 92 448 100 Q 414 107 383 113 Q 347 123 351 112 Q 352 105 375 91 Q 456 42 479 10 Q 504 -26 523 -25 Q 538 -26 552 11 Q 568 57 564 133 Q 531 583 572 723 Q 590 754 532 778 Q 498 797 477 789 Q 459 782 475 759 Q 497 731 499 695 Z" fill="red"></path>
				<path d="M 266 475 Q 223 408 170 349 Q 160 339 155 320 Q 148 292 154 273 Q 158 251 185 261 Q 213 274 237 308 Q 273 357 284 404 Q 297 441 293 470 Q 289 480 283 484 Q 273 484 266 475 Z" fill="lightgray"></path>
				<path d="M 706 472 Q 769 411 842 323 Q 860 299 878 293 Q 888 292 897 303 Q 913 318 900 370 Q 887 431 709 508 Q 699 515 696 500 Q 695 484 706 472 Z" fill="lightgray"></path>
</g>
		<text x="40" y="140" font-size="128" fill="#999999">1</text></g>
		<g id="id0:id1:id1" transform="matrix(1.0,0,0,1.0,1024,0.0)">			<g stroke="lightgray" stroke-width="4" transform="scale(4, 4)"> <rect x="0" y="0" width="256" height="256" fill="white" stroke-width="4"/></g>
			<g transform="scale(0.92, -0.92) translate(60, -920)">					<path d="M 499 695 Q 503 661 501 132 Q 500 110 488 101 Q 478 92 448 100 Q 414 107 383 113 Q 347 123 351 112 Q 352 105 375 91 Q 456 42 479 10 Q 504 -26 523 -25 Q 538 -26 552 11 Q 568 57 564 133 Q 531 583 572 723 Q 590 754 532 778 Q 498 797 477 789 Q 459 782 475 759 Q 497 731 499 695 Z" fill="black"></path>
				<path d="M 266 475 Q 223 408 170 349 Q 160 339 155 320 Q 148 292 154 273 Q 158 251 185 261 Q 213 274 237 308 Q 273 357 284 404 Q 297 441 293 470 Q 289 480 283 484 Q 273 484 266 475 Z" fill="red"></path>
				<path d="M 706 472 Q 769 411 842 323 Q 860 299 878 293 Q 888 292 897 303 Q 913 318 900 370 Q 887 431 709 508 Q 699 515 696 500 Q 695 484 706 472 Z" fill="lightgray"></path>
</g>
		<text x="40" y="140" font-size="128" fill="#999999">2</text></g>
		<g id="id0:id2:id2" transform="matrix(1.0,0,0,1.0,2048,0.0)">			<g stroke="lightgray" stroke-width="4" transform="scale(4, 4)"> <rect x="0" y="0" width="256" height="256" fill="white" stroke-width="4"/></g>
			<g transform="scale(0.92, -0.92) translate(60, -920)">					<path d="M 499 695 Q 503 661 501 132 Q 500 110 488 101 Q 478 92 448 100 Q 414 107 383 113 Q 347 123 351 112 Q 352 105 375 91 Q 456 42 479 10 Q 504 -26 523 -25 Q 538 -26 552 11 Q 568 57 564 133 Q 531 583 572 723 Q 590 754 532 778 Q 498 797 477 789 Q 459 782 475 759 Q 497 731 499 695 Z" fill="black"></path>
				<path d="M 266 475 Q 223 408 170 349 Q 160 339 155 320 Q 148 292 154 273 Q 158 251 185 261 Q 213 274 237 308 Q 273 357 284 404 Q 297 441 293 470 Q 289 480 283 484 Q 273 484 266 475 Z" fill="black"></path>
				<path d="M 706 472 Q 769 411 842 323 Q 860 299 878 293 Q 888 292 897 303 Q 913 318 900 370 Q 887 431 709 508 Q 699 515 696 500 Q 695 484 706 472 Z" fill="red"></path>
</g>
		<text x="40" y="140" font-size="128" fill="#999999">3</text></g>
		<g id="id0:id3:id3" transform="matrix(1.0,0,0,1.0,3072,0.0)">			<g stroke="white" stroke-width="4" transform="scale(4, 4)"> <rect x="1" y="1" width="255" height="255" fill="white" stroke-width="0"/></g>
</g>
		<g id="id0:id4:id4" transform="matrix(1.0,0,0,1.0,4096,0.0)">			<g stroke="white" stroke-width="4" transform="scale(4, 4)"> <rect x="1" y="1" width="255" height="255" fill="white" stroke-width="0"/></g>
</g>
</g>
</svg>
