<?xml version="1.0" standalone="no"?>
<!DOCTYPE svg PUBLIC "-//W3C//DTD SVG 1.1//EN"
 "http://www.w3.org/Graphics/SVG/1.1/DTD/svg11.dtd">
<!-- generate by Handict dictionary app com.asnsami.handict -->

<svg xmlns="http://www.w3.org/2000/svg" xmlns:sodipodi="http://sodipodi.sourceforge.net/DTD/sodipodi-0.dtd" version="1.1" width="640" height="128" viewBox="0 0 5120 1024">
	<g id="id0:id0" transform="translate(0.0,0)">
		<g id="id0:id0:id0" transform="matrix(1.0,0,0,1.0,0,0.0)">			<g stroke="lightgray" stroke-width="4" transform="scale(4, 4)"> <rect x="0" y="0" width="256" height="256" fill="white" stroke-width="4"/></g>
			<g transform="scale(0.92, -0.92) translate(60, -920)">					<path d="M 335 556 Q 375 613 419 693 Q 438 735 458 756 Q 467 768 462 781 Q 456 794 426 815 Q 398 831 378 830 Q 359 827 369 805 Q 384 780 375 755 Q 350 674 307 599 Q 267 526 209 444 Q 199 432 197 426 Q 194 414 209 418 Q 240 427 319 534 L 335 556 Z" fill="red"></path>
				<path d="M 319 534 Q 353 509 388 519 Q 485 558 677 589 Q 710 593 710 581 Q 710 578 644 486 Q 635 473 641 468 Q 648 464 666 473 Q 736 515 792 527 Q 838 539 838 549 Q 837 559 765 620 Q 738 644 656 621 Q 601 614 415 572 Q 375 563 335 556 C 305 551 295 549 319 534 Z" fill="lightgray"></path>
				<path d="M 447 97 Q 404 107 363 119 Q 350 122 351 114 Q 352 107 363 98 Q 448 25 478 -18 Q 494 -37 511 -22 Q 551 20 550 93 Q 544 150 544 334 Q 545 374 557 402 Q 567 423 549 437 Q 521 461 489 472 Q 468 479 460 471 Q 453 464 465 447 Q 489 405 487 358 Q 491 207 485 129 Q 484 107 471 99 Q 461 92 447 97 Z" fill="lightgray"></path>
				<path d="M 292 351 Q 253 287 204 230 Q 177 199 190 160 Q 194 139 220 149 Q 245 162 267 194 Q 300 240 310 285 Q 320 319 318 347 Q 314 357 308 359 Q 298 359 292 351 Z" fill="lightgray"></path>
				<path d="M 672 335 Q 727 272 792 183 Q 808 158 825 151 Q 835 148 845 159 Q 861 172 852 225 Q 845 288 677 371 Q 667 378 663 364 Q 662 348 672 335 Z" fill="lightgray"></path>
</g>
		<text x="40" y="140" font-size="128" fill="#999999">1</text></g>
		<g id="id0:id1:id1" transform="matrix(1.0,0,0,1.0,1024,0.0)">			<g stroke="lightgray" stroke-width="4" transform="scale(4, 4)"> <rect x="0" y="0" width="256" height="256" fill="white" stroke-width="4"/></g>
			<g transform="scale(0.92, -0.92) translate(60, -920)">					<path d="M 335 556 Q 375 613 419 693 Q 438 735 458 756 Q 467 768 462 781 Q 456 794 426 815 Q 398 831 378 830 Q 359 827 369 805 Q 384 780 375 755 Q 350 674 307 599 Q 267 526 209 444 Q 199 432 197 426 Q 194 414 209 418 Q 240 427 319 534 L 335 556 Z" fill="black"></path>
				<path d="M 319 534 Q 353 509 388 519 Q 485 558 677 589 Q 710 593 710 581 Q 710 578 644 486 Q 635 473 641 468 Q 648 464 666 473 Q 736 515 792 527 Q 838 539 838 549 Q 837 559 765 620 Q 738 644 656 621 Q 601 614 415 572 Q 375 563 335 556 C 305 551 295 549 319 534 Z" fill="red"></path>
				<path d="M 447 97 Q 404 107 363 119 Q 350 122 351 114 Q 352 107 363 98 Q 448 25 478 -18 Q 494 -37 511 -22 Q 551 20 550 93 Q 544 150 544 334 Q 545 374 557 402 Q 567 423 549 437 Q 521 461 489 472 Q 468 479 460 471 Q 453 464 465 447 Q 489 405 487 358 Q 491 207 485 129 Q 484 107 471 99 Q 461 92 447 97 Z" fill="lightgray"></path>
				<path d="M 292 351 Q 253 287 204 230 Q 177 199 190 160 Q 194 139 220 149 Q 245 162 267 194 Q 300 240 310 285 Q 320 319 318 347 Q 314 357 308 359 Q 298 359 292 351 Z" fill="lightgray"></path>
				<path d="M 672 335 Q 727 272 792 183 Q 808 158 825 151 Q 835 148 845 159 Q 861 172 852 225 Q 845 288 677 371 Q 667 378 663 364 Q 662 348 672 335 Z" fill="lightgray"></path>
</g>
		<text x="40" y="140" font-size="128" fill="#999999">2</text></g>
		<g id="id0:id2:id2" transform="matrix(1.0,0,0,1.0,2048,0.0)">			<g stroke="lightgray" stroke-width="4" transform="scale(4, 4)"> <rect x="0" y="0" width="256" height="256" fill="white" stroke-width="4"/></g>
			<g transform="scale(0.92, -0.92) translate(60, -920)">					<path d="M 335 556 Q 375 613 419 693 Q 438 735 458 756 Q 467 768 462 781 Q 456 794 426 815 Q 398 831 378 830 Q 359 827 369 805 Q 384 780 375 755 Q 350 674 307 599 Q 267 526 209 444 Q 199 432 197 426 Q 194 414 209 418 Q 240 427 319 534 L 335 556 Z" fill="black"></path>
				<path d="M 319 534 Q 353 509 388 519 Q 485 558 677 589 Q 710 593 710 581 Q 710 578 644 486 Q 635 473 641 468 Q 648 464 666 473 Q 736 515 792 527 Q 838 539 838 549 Q 837 559 765 620 Q 738 644 656 621 Q 601 614 415 572 Q 375 563 335 556 C 305 551 295 549 319 534 Z" fill="black"></path>
				<path d="M 447 97 Q 404 107 363 119 Q 350 122 351 114 Q 352 107 363 98 Q 448 25 478 -18 Q 494 -37 511 -22 Q 551 20 550 93 Q 544 150 544 334 Q 545 374 557 402 Q 567 423 549 437 Q 521 461 489 472 Q 468 479 460 471 Q 453 464 465 447 Q 489 405 487 358 Q 491 207 485 129 Q 484 107 471 99 Q 461 92 447 97 Z" fill="red"></path>
				<path d="M 292 351 Q 253 287 204 230 Q 177 199 190 160 Q 194 139 220 149 Q 245 162 267 194 Q 300 240 310 285 Q 320 319 318 347 Q 314 357 308 359 Q 298 359 292 351 Z" fill="lightgray"></path>
				<path d="M 672 335 Q 727 272 792 183 Q 808 158 825 151 Q 835 148 845 159 Q 861 172 852 225 Q 845 288 677 371 Q 667 378 663 364 Q 662 348 672 335 Z" fill="lightgray"></path>
</g>
		<text x="40" y="140" font-size="128" fill="#999999">3</text></g>
		<g id="id0:id3:id3" transform="matrix(1.0,0,0,1.0,3072,0.0)">			<g stroke="lightgray" stroke-width="4" transform="scale(4, 4)"> <rect x="0" y="0" width="256" height="256" fill="white" stroke-width="4"/></g>
			<g transform="scale(0.92, -0.92) translate(60, -920)">					<path d="M 335 556 Q 375 613 419 693 Q 438 735 458 756 Q 467 768 462 781 Q 456 794 426 815 Q 398 831 378 830 Q 359 827 369 805 Q 384 780 375 755 Q 350 674 307 599 Q 267 526 209 444 Q 199 432 197 426 Q 194 414 209 418 Q 240 427 319 534 L 335 556 Z" fill="black"></path>
				<path d="M 319 534 Q 353 509 388 519 Q 485 558 677 589 Q 710 593 710 581 Q 710 578 644 486 Q 635 473 641 468 Q 648 464 666 473 Q 736 515 792 527 Q 838 539 838 549 Q 837 559 765 620 Q 738 644 656 621 Q 601 614 415 572 Q 375 563 335 556 C 305 551 295 549 319 534 Z" fill="black"></path>
				<path d="M 447 97 Q 404 107 363 119 Q 350 122 351 114 Q 352 107 363 98 Q 448 25 478 -18 Q 494 -37 511 -22 Q 551 20 550 93 Q 544 150 544 334 Q 545 374 557 402 Q 567 423 549 437 Q 521 461 489 472 Q 468 479 460 471 Q 453 464 465 447 Q 489 405 487 358 Q 491 207 485 129 Q 484 107 471 99 Q 461 92 447 97 Z" fill="black"></path>
				<path d="M 292 351 Q 253 287 204 230 Q 177 199 190 160 Q 194 139 220 149 Q 245 162 267 194 Q 300 240 310 285 Q 320 319 318 347 Q 314 357 308 359 Q 298 359 292 351 Z" fill="red"></path>
				<path d="M 672 335 Q 727 272 792 183 Q 808 158 825 151 Q 835 148 845 159 Q 861 172 852 225 Q 845 288 677 371 Q 667 378 663 364 Q 662 348 672 335 Z" fill="lightgray"></path>
</g>
		<text x="40" y="140" font-size="128" fill="#999999">4</text></g>
		<g id="id0:id4:id4" transform="matrix(1.0,0,0,1.0,4096,0.0)">			<g stroke="lightgray" stroke-width="4" transform="scale(4, 4)"> <rect x="0" y="0" width="256" height="256" fill="white" stroke-width="4"/></g>
			<g transform="scale(0.92, -0.92) translate(60, -920)">					<path d="M 335 556 Q 375 613 419 693 Q 438 735 458 756 Q 467 768 462 781 Q 456 794 426 815 Q 398 831 378 830 Q 359 827 369 805 Q 384 780 375 755 Q 350 674 307 599 Q 267 526 209 444 Q 199 432 197 426 Q 194 414 209 418 Q 240 427 319 534 L 335 556 Z" fill="black"></path>
				<path d="M 319 534 Q 353 509 388 519 Q 485 558 677 589 Q 710 593 710 581 Q 710 578 644 486 Q 635 473 641 468 Q 648 464 666 473 Q 736 515 792 527 Q 838 539 838 549 Q 837 559 765 620 Q 738 644 656 621 Q 601 614 415 572 Q 375 563 335 556 C 305 551 295 549 319 534 Z" fill="black"></path>
				<path d="M 447 97 Q 404 107 363 119 Q 350 122 351 114 Q 352 107 363 98 Q 448 25 478 -18 Q 494 -37 511 -22 Q 551 20 550 93 Q 544 150 544 334 Q 545 374 557 402 Q 567 423 549 437 Q 521 461 489 472 Q 468 479 460 471 Q 453 464 465 447 Q 489 405 487 358 Q 491 207 485 129 Q 484 107 471 99 Q 461 92 447 97 Z" fill="black"></path>
				<path d="M 292 351 Q 253 287 204 230 Q 177 199 190 160 Q 194 139 220 149 Q 245 162 267 194 Q 300 240 310 285 Q 320 319 318 347 Q 314 357 308 359 Q 298 359 292 351 Z" fill="black"></path>
				<path d="M 672 335 Q 727 272 792 183 Q 808 158 825 151 Q 835 148 845 159 Q 861 172 852 225 Q 845 288 677 371 Q 667 378 663 364 Q 662 348 672 335 Z" fill="red"></path>
</g>
		<text x="40" y="140" font-size="128" fill="#999999">5</text></g>
</g>
</svg>
