<?xml version="1.0" standalone="no"?>
<!DOCTYPE svg PUBLIC "-//W3C//DTD SVG 1.1//EN"
 "http://www.w3.org/Graphics/SVG/1.1/DTD/svg11.dtd">
<!-- generate by Handict dictionary app com.asnsami.handict -->

<svg xmlns="http://www.w3.org/2000/svg" xmlns:sodipodi="http://sodipodi.sourceforge.net/DTD/sodipodi-0.dtd" version="1.1" width="640" height="256" viewBox="0 0 5120 2048">
	<g id="id0:id0" transform="translate(0.0,0)">
		<g id="id0:id0:id0" transform="matrix(1.0,0,0,1.0,0,0.0)">			<g stroke="lightgray" stroke-width="4" transform="scale(4, 4)"> <rect x="0" y="0" width="256" height="256" fill="white" stroke-width="4"/></g>
			<g transform="scale(0.92, -0.92) translate(60, -920)">					<path d="M 495 666 Q 675 727 682 735 Q 689 744 684 752 Q 677 764 645 768 Q 614 771 585 756 Q 530 729 473 706 L 433 691 Q 354 666 266 647 Q 229 637 258 623 Q 304 602 358 622 Q 404 638 454 653 L 495 666 Z" fill="red"></path>
				<path d="M 569 510 Q 716 371 835 364 Q 836 364 839 364 Q 861 371 851 400 Q 838 431 825 580 Q 824 592 818 593 Q 814 593 811 580 Q 802 541 794 505 Q 784 456 767 454 Q 748 451 703 474 Q 657 496 610 536 L 576 568 Q 528 616 495 666 L 473 706 Q 446 751 449 801 Q 449 820 408 833 Q 368 843 357 837 Q 347 830 356 815 Q 383 796 402 754 Q 417 721 433 691 L 454 653 Q 502 580 539 542 L 569 510 Z" fill="lightgray"></path>
				<path d="M 610 536 Q 662 576 700 589 Q 710 593 712 607 Q 713 619 700 647 Q 685 672 670 678 Q 654 684 653 663 Q 652 635 634 618 Q 606 593 576 568 L 539 542 Q 421 470 344 434 Q 332 430 329 425 Q 322 418 334 415 Q 373 405 569 510 L 610 536 Z" fill="lightgray"></path>
				<path d="M 552 346 Q 619 353 674 359 Q 686 358 696 371 Q 697 384 673 396 Q 634 418 565 399 Q 388 366 225 347 Q 194 344 218 325 Q 254 294 284 302 Q 320 309 362 316 L 396 322 Q 447 332 507 339 L 552 346 Z" fill="lightgray"></path>
				<path d="M 362 316 Q 361 315 362 310 Q 368 171 169 16 Q 165 13 160 9 Q 153 2 159 -1 Q 186 -11 273 50 Q 352 101 412 229 Q 424 248 437 269 Q 444 278 440 288 Q 427 312 396 322 C 368 333 362 336 362 316 Z" fill="lightgray"></path>
				<path d="M 507 339 Q 528 300 524 243 Q 518 87 545 49 Q 552 40 563 31 Q 620 -11 809 -4 Q 896 0 930 18 Q 961 34 947 67 Q 926 119 912 210 Q 909 226 901 230 Q 894 234 890 214 Q 883 102 867 80 Q 836 46 708 45 Q 638 48 608 59 Q 581 72 576 91 Q 555 145 578 240 Q 581 264 589 278 Q 602 317 552 346 C 528 363 495 367 507 339 Z" fill="lightgray"></path>
</g>
		<text x="40" y="140" font-size="128" fill="#999999">1</text></g>
		<g id="id0:id1:id1" transform="matrix(1.0,0,0,1.0,1024,0.0)">			<g stroke="lightgray" stroke-width="4" transform="scale(4, 4)"> <rect x="0" y="0" width="256" height="256" fill="white" stroke-width="4"/></g>
			<g transform="scale(0.92, -0.92) translate(60, -920)">					<path d="M 495 666 Q 675 727 682 735 Q 689 744 684 752 Q 677 764 645 768 Q 614 771 585 756 Q 530 729 473 706 L 433 691 Q 354 666 266 647 Q 229 637 258 623 Q 304 602 358 622 Q 404 638 454 653 L 495 666 Z" fill="black"></path>
				<path d="M 569 510 Q 716 371 835 364 Q 836 364 839 364 Q 861 371 851 400 Q 838 431 825 580 Q 824 592 818 593 Q 814 593 811 580 Q 802 541 794 505 Q 784 456 767 454 Q 748 451 703 474 Q 657 496 610 536 L 576 568 Q 528 616 495 666 L 473 706 Q 446 751 449 801 Q 449 820 408 833 Q 368 843 357 837 Q 347 830 356 815 Q 383 796 402 754 Q 417 721 433 691 L 454 653 Q 502 580 539 542 L 569 510 Z" fill="red"></path>
				<path d="M 610 536 Q 662 576 700 589 Q 710 593 712 607 Q 713 619 700 647 Q 685 672 670 678 Q 654 684 653 663 Q 652 635 634 618 Q 606 593 576 568 L 539 542 Q 421 470 344 434 Q 332 430 329 425 Q 322 418 334 415 Q 373 405 569 510 L 610 536 Z" fill="lightgray"></path>
				<path d="M 552 346 Q 619 353 674 359 Q 686 358 696 371 Q 697 384 673 396 Q 634 418 565 399 Q 388 366 225 347 Q 194 344 218 325 Q 254 294 284 302 Q 320 309 362 316 L 396 322 Q 447 332 507 339 L 552 346 Z" fill="lightgray"></path>
				<path d="M 362 316 Q 361 315 362 310 Q 368 171 169 16 Q 165 13 160 9 Q 153 2 159 -1 Q 186 -11 273 50 Q 352 101 412 229 Q 424 248 437 269 Q 444 278 440 288 Q 427 312 396 322 C 368 333 362 336 362 316 Z" fill="lightgray"></path>
				<path d="M 507 339 Q 528 300 524 243 Q 518 87 545 49 Q 552 40 563 31 Q 620 -11 809 -4 Q 896 0 930 18 Q 961 34 947 67 Q 926 119 912 210 Q 909 226 901 230 Q 894 234 890 214 Q 883 102 867 80 Q 836 46 708 45 Q 638 48 608 59 Q 581 72 576 91 Q 555 145 578 240 Q 581 264 589 278 Q 602 317 552 346 C 528 363 495 367 507 339 Z" fill="lightgray"></path>
</g>
		<text x="40" y="140" font-size="128" fill="#999999">2</text></g>
		<g id="id0:id2:id2" transform="matrix(1.0,0,0,1.0,2048,0.0)">			<g stroke="lightgray" stroke-width="4" transform="scale(4, 4)"> <rect x="0" y="0" width="256" height="256" fill="white" stroke-width="4"/></g>
			<g transform="scale(0.92, -0.92) translate(60, -920)">					<path d="M 495 666 Q 675 727 682 735 Q 689 744 684 752 Q 677 764 645 768 Q 614 771 585 756 Q 530 729 473 706 L 433 691 Q 354 666 266 647 Q 229 637 258 623 Q 304 602 358 622 Q 404 638 454 653 L 495 666 Z" fill="black"></path>
				<path d="M 569 510 Q 716 371 835 364 Q 836 364 839 364 Q 861 371 851 400 Q 838 431 825 580 Q 824 592 818 593 Q 814 593 811 580 Q 802 541 794 505 Q 784 456 767 454 Q 748 451 703 474 Q 657 496 610 536 L 576 568 Q 528 616 495 666 L 473 706 Q 446 751 449 801 Q 449 820 408 833 Q 368 843 357 837 Q 347 830 356 815 Q 383 796 402 754 Q 417 721 433 691 L 454 653 Q 502 580 539 542 L 569 510 Z" fill="black"></path>
				<path d="M 610 536 Q 662 576 700 589 Q 710 593 712 607 Q 713 619 700 647 Q 685 672 670 678 Q 654 684 653 663 Q 652 635 634 618 Q 606 593 576 568 L 539 542 Q 421 470 344 434 Q 332 430 329 425 Q 322 418 334 415 Q 373 405 569 510 L 610 536 Z" fill="red"></path>
				<path d="M 552 346 Q 619 353 674 359 Q 686 358 696 371 Q 697 384 673 396 Q 634 418 565 399 Q 388 366 225 347 Q 194 344 218 325 Q 254 294 284 302 Q 320 309 362 316 L 396 322 Q 447 332 507 339 L 552 346 Z" fill="lightgray"></path>
				<path d="M 362 316 Q 361 315 362 310 Q 368 171 169 16 Q 165 13 160 9 Q 153 2 159 -1 Q 186 -11 273 50 Q 352 101 412 229 Q 424 248 437 269 Q 444 278 440 288 Q 427 312 396 322 C 368 333 362 336 362 316 Z" fill="lightgray"></path>
				<path d="M 507 339 Q 528 300 524 243 Q 518 87 545 49 Q 552 40 563 31 Q 620 -11 809 -4 Q 896 0 930 18 Q 961 34 947 67 Q 926 119 912 210 Q 909 226 901 230 Q 894 234 890 214 Q 883 102 867 80 Q 836 46 708 45 Q 638 48 608 59 Q 581 72 576 91 Q 555 145 578 240 Q 581 264 589 278 Q 602 317 552 346 C 528 363 495 367 507 339 Z" fill="lightgray"></path>
</g>
		<text x="40" y="140" font-size="128" fill="#999999">3</text></g>
		<g id="id0:id3:id3" transform="matrix(1.0,0,0,1.0,3072,0.0)">			<g stroke="lightgray" stroke-width="4" transform="scale(4, 4)"> <rect x="0" y="0" width="256" height="256" fill="white" stroke-width="4"/></g>
			<g transform="scale(0.92, -0.92) translate(60, -920)">					<path d="M 495 666 Q 675 727 682 735 Q 689 744 684 752 Q 677 764 645 768 Q 614 771 585 756 Q 530 729 473 706 L 433 691 Q 354 666 266 647 Q 229 637 258 623 Q 304 602 358 622 Q 404 638 454 653 L 495 666 Z" fill="black"></path>
				<path d="M 569 510 Q 716 371 835 364 Q 836 364 839 364 Q 861 371 851 400 Q 838 431 825 580 Q 824 592 818 593 Q 814 593 811 580 Q 802 541 794 505 Q 784 456 767 454 Q 748 451 703 474 Q 657 496 610 536 L 576 568 Q 528 616 495 666 L 473 706 Q 446 751 449 801 Q 449 820 408 833 Q 368 843 357 837 Q 347 830 356 815 Q 383 796 402 754 Q 417 721 433 691 L 454 653 Q 502 580 539 542 L 569 510 Z" fill="black"></path>
				<path d="M 610 536 Q 662 576 700 589 Q 710 593 712 607 Q 713 619 700 647 Q 685 672 670 678 Q 654 684 653 663 Q 652 635 634 618 Q 606 593 576 568 L 539 542 Q 421 470 344 434 Q 332 430 329 425 Q 322 418 334 415 Q 373 405 569 510 L 610 536 Z" fill="black"></path>
				<path d="M 552 346 Q 619 353 674 359 Q 686 358 696 371 Q 697 384 673 396 Q 634 418 565 399 Q 388 366 225 347 Q 194 344 218 325 Q 254 294 284 302 Q 320 309 362 316 L 396 322 Q 447 332 507 339 L 552 346 Z" fill="red"></path>
				<path d="M 362 316 Q 361 315 362 310 Q 368 171 169 16 Q 165 13 160 9 Q 153 2 159 -1 Q 186 -11 273 50 Q 352 101 412 229 Q 424 248 437 269 Q 444 278 440 288 Q 427 312 396 322 C 368 333 362 336 362 316 Z" fill="lightgray"></path>
				<path d="M 507 339 Q 528 300 524 243 Q 518 87 545 49 Q 552 40 563 31 Q 620 -11 809 -4 Q 896 0 930 18 Q 961 34 947 67 Q 926 119 912 210 Q 909 226 901 230 Q 894 234 890 214 Q 883 102 867 80 Q 836 46 708 45 Q 638 48 608 59 Q 581 72 576 91 Q 555 145 578 240 Q 581 264 589 278 Q 602 317 552 346 C 528 363 495 367 507 339 Z" fill="lightgray"></path>
</g>
		<text x="40" y="140" font-size="128" fill="#999999">4</text></g>
		<g id="id0:id4:id4" transform="matrix(1.0,0,0,1.0,4096,0.0)">			<g stroke="lightgray" stroke-width="4" transform="scale(4, 4)"> <rect x="0" y="0" width="256" height="256" fill="white" stroke-width="4"/></g>
			<g transform="scale(0.92, -0.92) translate(60, -920)">					<path d="M 495 666 Q 675 727 682 735 Q 689 744 684 752 Q 677 764 645 768 Q 614 771 585 756 Q 530 729 473 706 L 433 691 Q 354 666 266 647 Q 229 637 258 623 Q 304 602 358 622 Q 404 638 454 653 L 495 666 Z" fill="black"></path>
				<path d="M 569 510 Q 716 371 835 364 Q 836 364 839 364 Q 861 371 851 400 Q 838 431 825 580 Q 824 592 818 593 Q 814 593 811 580 Q 802 541 794 505 Q 784 456 767 454 Q 748 451 703 474 Q 657 496 610 536 L 576 568 Q 528 616 495 666 L 473 706 Q 446 751 449 801 Q 449 820 408 833 Q 368 843 357 837 Q 347 830 356 815 Q 383 796 402 754 Q 417 721 433 691 L 454 653 Q 502 580 539 542 L 569 510 Z" fill="black"></path>
				<path d="M 610 536 Q 662 576 700 589 Q 710 593 712 607 Q 713 619 700 647 Q 685 672 670 678 Q 654 684 653 663 Q 652 635 634 618 Q 606 593 576 568 L 539 542 Q 421 470 344 434 Q 332 430 329 425 Q 322 418 334 415 Q 373 405 569 510 L 610 536 Z" fill="black"></path>
				<path d="M 552 346 Q 619 353 674 359 Q 686 358 696 371 Q 697 384 673 396 Q 634 418 565 399 Q 388 366 225 347 Q 194 344 218 325 Q 254 294 284 302 Q 320 309 362 316 L 396 322 Q 447 332 507 339 L 552 346 Z" fill="black"></path>
				<path d="M 362 316 Q 361 315 362 310 Q 368 171 169 16 Q 165 13 160 9 Q 153 2 159 -1 Q 186 -11 273 50 Q 352 101 412 229 Q 424 248 437 269 Q 444 278 440 288 Q 427 312 396 322 C 368 333 362 336 362 316 Z" fill="red"></path>
				<path d="M 507 339 Q 528 300 524 243 Q 518 87 545 49 Q 552 40 563 31 Q 620 -11 809 -4 Q 896 0 930 18 Q 961 34 947 67 Q 926 119 912 210 Q 909 226 901 230 Q 894 234 890 214 Q 883 102 867 80 Q 836 46 708 45 Q 638 48 608 59 Q 581 72 576 91 Q 555 145 578 240 Q 581 264 589 278 Q 602 317 552 346 C 528 363 495 367 507 339 Z" fill="lightgray"></path>
</g>
		<text x="40" y="140" font-size="128" fill="#999999">5</text></g>
</g>
	<g id="id1:id1" transform="translate(0.0,1024)">
		<g id="id1:id0:id0" transform="matrix(1.0,0,0,1.0,0,0.0)">			<g stroke="lightgray" stroke-width="4" transform="scale(4, 4)"> <rect x="0" y="0" width="256" height="256" fill="white" stroke-width="4"/></g>
			<g transform="scale(0.92, -0.92) translate(60, -920)">					<path d="M 495 666 Q 675 727 682 735 Q 689 744 684 752 Q 677 764 645 768 Q 614 771 585 756 Q 530 729 473 706 L 433 691 Q 354 666 266 647 Q 229 637 258 623 Q 304 602 358 622 Q 404 638 454 653 L 495 666 Z" fill="black"></path>
				<path d="M 569 510 Q 716 371 835 364 Q 836 364 839 364 Q 861 371 851 400 Q 838 431 825 580 Q 824 592 818 593 Q 814 593 811 580 Q 802 541 794 505 Q 784 456 767 454 Q 748 451 703 474 Q 657 496 610 536 L 576 568 Q 528 616 495 666 L 473 706 Q 446 751 449 801 Q 449 820 408 833 Q 368 843 357 837 Q 347 830 356 815 Q 383 796 402 754 Q 417 721 433 691 L 454 653 Q 502 580 539 542 L 569 510 Z" fill="black"></path>
				<path d="M 610 536 Q 662 576 700 589 Q 710 593 712 607 Q 713 619 700 647 Q 685 672 670 678 Q 654 684 653 663 Q 652 635 634 618 Q 606 593 576 568 L 539 542 Q 421 470 344 434 Q 332 430 329 425 Q 322 418 334 415 Q 373 405 569 510 L 610 536 Z" fill="black"></path>
				<path d="M 552 346 Q 619 353 674 359 Q 686 358 696 371 Q 697 384 673 396 Q 634 418 565 399 Q 388 366 225 347 Q 194 344 218 325 Q 254 294 284 302 Q 320 309 362 316 L 396 322 Q 447 332 507 339 L 552 346 Z" fill="black"></path>
				<path d="M 362 316 Q 361 315 362 310 Q 368 171 169 16 Q 165 13 160 9 Q 153 2 159 -1 Q 186 -11 273 50 Q 352 101 412 229 Q 424 248 437 269 Q 444 278 440 288 Q 427 312 396 322 C 368 333 362 336 362 316 Z" fill="black"></path>
				<path d="M 507 339 Q 528 300 524 243 Q 518 87 545 49 Q 552 40 563 31 Q 620 -11 809 -4 Q 896 0 930 18 Q 961 34 947 67 Q 926 119 912 210 Q 909 226 901 230 Q 894 234 890 214 Q 883 102 867 80 Q 836 46 708 45 Q 638 48 608 59 Q 581 72 576 91 Q 555 145 578 240 Q 581 264 589 278 Q 602 317 552 346 C 528 363 495 367 507 339 Z" fill="red"></path>
</g>
		<text x="40" y="140" font-size="128" fill="#999999">6</text></g>
		<g id="id1:id1:id1" transform="matrix(1.0,0,0,1.0,1024,0.0)">			<g stroke="white" stroke-width="4" transform="scale(4, 4)"> <rect x="1" y="1" width="255" height="255" fill="white" stroke-width="0"/></g>
</g>
		<g id="id1:id2:id2" transform="matrix(1.0,0,0,1.0,2048,0.0)">			<g stroke="white" stroke-width="4" transform="scale(4, 4)"> <rect x="1" y="1" width="255" height="255" fill="white" stroke-width="0"/></g>
</g>
		<g id="id1:id3:id3" transform="matrix(1.0,0,0,1.0,3072,0.0)">			<g stroke="white" stroke-width="4" transform="scale(4, 4)"> <rect x="1" y="1" width="255" height="255" fill="white" stroke-width="0"/></g>
</g>
		<g id="id1:id4:id4" transform="matrix(1.0,0,0,1.0,4096,0.0)">			<g stroke="white" stroke-width="4" transform="scale(4, 4)"> <rect x="1" y="1" width="255" height="255" fill="white" stroke-width="0"/></g>
</g>
</g>
</svg>
