<?xml version="1.0" standalone="no"?>
<!DOCTYPE svg PUBLIC "-//W3C//DTD SVG 1.1//EN"
 "http://www.w3.org/Graphics/SVG/1.1/DTD/svg11.dtd">
<!-- generate by Handict dictionary app com.asnsami.handict -->

<svg xmlns="http://www.w3.org/2000/svg" xmlns:sodipodi="http://sodipodi.sourceforge.net/DTD/sodipodi-0.dtd" version="1.1" width="640" height="256" viewBox="0 0 5120 2048">
	<g id="id0:id0" transform="translate(0.0,0)">
		<g id="id0:id0:id0" transform="matrix(1.0,0,0,1.0,0,0.0)">			<g stroke="lightgray" stroke-width="4" transform="scale(4, 4)"> <rect x="0" y="0" width="256" height="256" fill="white" stroke-width="4"/></g>
			<g transform="scale(0.92, -0.92) translate(60, -920)">					<path d="M 709 651 Q 737 717 767 733 Q 786 752 771 771 Q 753 786 700 814 Q 681 823 658 814 Q 538 769 354 748 C 324 744 332 710 362 714 Q 395 718 626 763 Q 657 770 669 757 Q 676 750 674 734 Q 665 694 655 658 C 647 629 697 624 709 651 Z" fill="red"></path>
				<path d="M 335 589 Q 359 565 382 570 Q 490 595 722 616 Q 734 617 735 626 Q 735 635 709 651 C 687 665 684 665 655 658 Q 486 619 348 604 Q 341 604 337 601 C 325 598 325 598 335 589 Z" fill="lightgray"></path>
				<path d="M 295 415 Q 320 502 335 589 L 337 601 Q 343 638 349 670 Q 356 709 362 714 C 370 735 370 735 354 748 Q 338 763 314 776 Q 295 789 280 785 Q 267 778 272 762 Q 291 735 286 678 Q 258 480 233 393 Q 218 348 202 309 Q 150 191 57 68 Q 51 61 49 55 Q 45 43 57 45 Q 94 51 184 173 Q 203 203 223 236 Q 260 306 287 390 L 295 415 Z" fill="lightgray"></path>
				<path d="M 345 393 Q 321 408 295 415 C 270 423 273 417 287 390 Q 332 308 333 124 Q 334 57 371 30 Q 372 29 376 27 Q 394 21 396 54 Q 396 58 396 61 L 393 94 Q 392 110 387 128 Q 372 266 370 350 C 369 379 369 379 345 393 Z" fill="lightgray"></path>
				<path d="M 520 405 Q 447 398 345 393 C 315 391 340 346 370 350 Q 374 350 380 351 Q 440 361 521 372 L 572 379 Q 624 388 685 395 Q 719 399 732 384 Q 757 333 714 131 Q 713 112 704 110 C 692 83 655 113 666 85 Q 676 58 699 10 Q 708 -9 719 -8 Q 735 -5 747 22 Q 780 83 787 168 Q 794 220 802 281 Q 808 333 834 366 Q 853 387 840 402 Q 816 426 766 449 Q 747 461 710 449 Q 646 430 574 414 L 520 405 Z" fill="lightgray"></path>
				<path d="M 567 231 Q 580 234 672 244 Q 681 243 689 254 Q 690 264 671 273 Q 638 289 575 272 Q 572 272 569 270 L 522 260 Q 497 257 474 254 Q 449 253 420 248 Q 395 245 414 231 Q 444 210 469 215 Q 493 219 522 223 L 567 231 Z" fill="lightgray"></path>
				<path d="M 574 414 Q 574 463 593 533 Q 596 545 575 560 Q 538 579 513 583 Q 497 586 488 577 Q 481 570 489 554 Q 516 514 517 488 Q 518 448 520 405 L 521 372 Q 522 318 522 260 L 522 223 Q 521 168 518 109 C 517 79 560 86 562 116 Q 565 174 567 231 L 569 270 Q 570 325 572 379 L 574 414 Z" fill="lightgray"></path>
				<path d="M 396 61 Q 403 60 411 61 Q 493 77 666 85 C 696 86 732 98 704 110 Q 701 110 674 125 Q 653 137 562 116 L 518 109 Q 451 100 393 94 C 363 91 366 62 396 61 Z" fill="lightgray"></path>
</g>
		<text x="40" y="140" font-size="128" fill="#999999">1</text></g>
		<g id="id0:id1:id1" transform="matrix(1.0,0,0,1.0,1024,0.0)">			<g stroke="lightgray" stroke-width="4" transform="scale(4, 4)"> <rect x="0" y="0" width="256" height="256" fill="white" stroke-width="4"/></g>
			<g transform="scale(0.92, -0.92) translate(60, -920)">					<path d="M 709 651 Q 737 717 767 733 Q 786 752 771 771 Q 753 786 700 814 Q 681 823 658 814 Q 538 769 354 748 C 324 744 332 710 362 714 Q 395 718 626 763 Q 657 770 669 757 Q 676 750 674 734 Q 665 694 655 658 C 647 629 697 624 709 651 Z" fill="black"></path>
				<path d="M 335 589 Q 359 565 382 570 Q 490 595 722 616 Q 734 617 735 626 Q 735 635 709 651 C 687 665 684 665 655 658 Q 486 619 348 604 Q 341 604 337 601 C 325 598 325 598 335 589 Z" fill="red"></path>
				<path d="M 295 415 Q 320 502 335 589 L 337 601 Q 343 638 349 670 Q 356 709 362 714 C 370 735 370 735 354 748 Q 338 763 314 776 Q 295 789 280 785 Q 267 778 272 762 Q 291 735 286 678 Q 258 480 233 393 Q 218 348 202 309 Q 150 191 57 68 Q 51 61 49 55 Q 45 43 57 45 Q 94 51 184 173 Q 203 203 223 236 Q 260 306 287 390 L 295 415 Z" fill="lightgray"></path>
				<path d="M 345 393 Q 321 408 295 415 C 270 423 273 417 287 390 Q 332 308 333 124 Q 334 57 371 30 Q 372 29 376 27 Q 394 21 396 54 Q 396 58 396 61 L 393 94 Q 392 110 387 128 Q 372 266 370 350 C 369 379 369 379 345 393 Z" fill="lightgray"></path>
				<path d="M 520 405 Q 447 398 345 393 C 315 391 340 346 370 350 Q 374 350 380 351 Q 440 361 521 372 L 572 379 Q 624 388 685 395 Q 719 399 732 384 Q 757 333 714 131 Q 713 112 704 110 C 692 83 655 113 666 85 Q 676 58 699 10 Q 708 -9 719 -8 Q 735 -5 747 22 Q 780 83 787 168 Q 794 220 802 281 Q 808 333 834 366 Q 853 387 840 402 Q 816 426 766 449 Q 747 461 710 449 Q 646 430 574 414 L 520 405 Z" fill="lightgray"></path>
				<path d="M 567 231 Q 580 234 672 244 Q 681 243 689 254 Q 690 264 671 273 Q 638 289 575 272 Q 572 272 569 270 L 522 260 Q 497 257 474 254 Q 449 253 420 248 Q 395 245 414 231 Q 444 210 469 215 Q 493 219 522 223 L 567 231 Z" fill="lightgray"></path>
				<path d="M 574 414 Q 574 463 593 533 Q 596 545 575 560 Q 538 579 513 583 Q 497 586 488 577 Q 481 570 489 554 Q 516 514 517 488 Q 518 448 520 405 L 521 372 Q 522 318 522 260 L 522 223 Q 521 168 518 109 C 517 79 560 86 562 116 Q 565 174 567 231 L 569 270 Q 570 325 572 379 L 574 414 Z" fill="lightgray"></path>
				<path d="M 396 61 Q 403 60 411 61 Q 493 77 666 85 C 696 86 732 98 704 110 Q 701 110 674 125 Q 653 137 562 116 L 518 109 Q 451 100 393 94 C 363 91 366 62 396 61 Z" fill="lightgray"></path>
</g>
		<text x="40" y="140" font-size="128" fill="#999999">2</text></g>
		<g id="id0:id2:id2" transform="matrix(1.0,0,0,1.0,2048,0.0)">			<g stroke="lightgray" stroke-width="4" transform="scale(4, 4)"> <rect x="0" y="0" width="256" height="256" fill="white" stroke-width="4"/></g>
			<g transform="scale(0.92, -0.92) translate(60, -920)">					<path d="M 709 651 Q 737 717 767 733 Q 786 752 771 771 Q 753 786 700 814 Q 681 823 658 814 Q 538 769 354 748 C 324 744 332 710 362 714 Q 395 718 626 763 Q 657 770 669 757 Q 676 750 674 734 Q 665 694 655 658 C 647 629 697 624 709 651 Z" fill="black"></path>
				<path d="M 335 589 Q 359 565 382 570 Q 490 595 722 616 Q 734 617 735 626 Q 735 635 709 651 C 687 665 684 665 655 658 Q 486 619 348 604 Q 341 604 337 601 C 325 598 325 598 335 589 Z" fill="black"></path>
				<path d="M 295 415 Q 320 502 335 589 L 337 601 Q 343 638 349 670 Q 356 709 362 714 C 370 735 370 735 354 748 Q 338 763 314 776 Q 295 789 280 785 Q 267 778 272 762 Q 291 735 286 678 Q 258 480 233 393 Q 218 348 202 309 Q 150 191 57 68 Q 51 61 49 55 Q 45 43 57 45 Q 94 51 184 173 Q 203 203 223 236 Q 260 306 287 390 L 295 415 Z" fill="red"></path>
				<path d="M 345 393 Q 321 408 295 415 C 270 423 273 417 287 390 Q 332 308 333 124 Q 334 57 371 30 Q 372 29 376 27 Q 394 21 396 54 Q 396 58 396 61 L 393 94 Q 392 110 387 128 Q 372 266 370 350 C 369 379 369 379 345 393 Z" fill="lightgray"></path>
				<path d="M 520 405 Q 447 398 345 393 C 315 391 340 346 370 350 Q 374 350 380 351 Q 440 361 521 372 L 572 379 Q 624 388 685 395 Q 719 399 732 384 Q 757 333 714 131 Q 713 112 704 110 C 692 83 655 113 666 85 Q 676 58 699 10 Q 708 -9 719 -8 Q 735 -5 747 22 Q 780 83 787 168 Q 794 220 802 281 Q 808 333 834 366 Q 853 387 840 402 Q 816 426 766 449 Q 747 461 710 449 Q 646 430 574 414 L 520 405 Z" fill="lightgray"></path>
				<path d="M 567 231 Q 580 234 672 244 Q 681 243 689 254 Q 690 264 671 273 Q 638 289 575 272 Q 572 272 569 270 L 522 260 Q 497 257 474 254 Q 449 253 420 248 Q 395 245 414 231 Q 444 210 469 215 Q 493 219 522 223 L 567 231 Z" fill="lightgray"></path>
				<path d="M 574 414 Q 574 463 593 533 Q 596 545 575 560 Q 538 579 513 583 Q 497 586 488 577 Q 481 570 489 554 Q 516 514 517 488 Q 518 448 520 405 L 521 372 Q 522 318 522 260 L 522 223 Q 521 168 518 109 C 517 79 560 86 562 116 Q 565 174 567 231 L 569 270 Q 570 325 572 379 L 574 414 Z" fill="lightgray"></path>
				<path d="M 396 61 Q 403 60 411 61 Q 493 77 666 85 C 696 86 732 98 704 110 Q 701 110 674 125 Q 653 137 562 116 L 518 109 Q 451 100 393 94 C 363 91 366 62 396 61 Z" fill="lightgray"></path>
</g>
		<text x="40" y="140" font-size="128" fill="#999999">3</text></g>
		<g id="id0:id3:id3" transform="matrix(1.0,0,0,1.0,3072,0.0)">			<g stroke="lightgray" stroke-width="4" transform="scale(4, 4)"> <rect x="0" y="0" width="256" height="256" fill="white" stroke-width="4"/></g>
			<g transform="scale(0.92, -0.92) translate(60, -920)">					<path d="M 709 651 Q 737 717 767 733 Q 786 752 771 771 Q 753 786 700 814 Q 681 823 658 814 Q 538 769 354 748 C 324 744 332 710 362 714 Q 395 718 626 763 Q 657 770 669 757 Q 676 750 674 734 Q 665 694 655 658 C 647 629 697 624 709 651 Z" fill="black"></path>
				<path d="M 335 589 Q 359 565 382 570 Q 490 595 722 616 Q 734 617 735 626 Q 735 635 709 651 C 687 665 684 665 655 658 Q 486 619 348 604 Q 341 604 337 601 C 325 598 325 598 335 589 Z" fill="black"></path>
				<path d="M 295 415 Q 320 502 335 589 L 337 601 Q 343 638 349 670 Q 356 709 362 714 C 370 735 370 735 354 748 Q 338 763 314 776 Q 295 789 280 785 Q 267 778 272 762 Q 291 735 286 678 Q 258 480 233 393 Q 218 348 202 309 Q 150 191 57 68 Q 51 61 49 55 Q 45 43 57 45 Q 94 51 184 173 Q 203 203 223 236 Q 260 306 287 390 L 295 415 Z" fill="black"></path>
				<path d="M 345 393 Q 321 408 295 415 C 270 423 273 417 287 390 Q 332 308 333 124 Q 334 57 371 30 Q 372 29 376 27 Q 394 21 396 54 Q 396 58 396 61 L 393 94 Q 392 110 387 128 Q 372 266 370 350 C 369 379 369 379 345 393 Z" fill="red"></path>
				<path d="M 520 405 Q 447 398 345 393 C 315 391 340 346 370 350 Q 374 350 380 351 Q 440 361 521 372 L 572 379 Q 624 388 685 395 Q 719 399 732 384 Q 757 333 714 131 Q 713 112 704 110 C 692 83 655 113 666 85 Q 676 58 699 10 Q 708 -9 719 -8 Q 735 -5 747 22 Q 780 83 787 168 Q 794 220 802 281 Q 808 333 834 366 Q 853 387 840 402 Q 816 426 766 449 Q 747 461 710 449 Q 646 430 574 414 L 520 405 Z" fill="lightgray"></path>
				<path d="M 567 231 Q 580 234 672 244 Q 681 243 689 254 Q 690 264 671 273 Q 638 289 575 272 Q 572 272 569 270 L 522 260 Q 497 257 474 254 Q 449 253 420 248 Q 395 245 414 231 Q 444 210 469 215 Q 493 219 522 223 L 567 231 Z" fill="lightgray"></path>
				<path d="M 574 414 Q 574 463 593 533 Q 596 545 575 560 Q 538 579 513 583 Q 497 586 488 577 Q 481 570 489 554 Q 516 514 517 488 Q 518 448 520 405 L 521 372 Q 522 318 522 260 L 522 223 Q 521 168 518 109 C 517 79 560 86 562 116 Q 565 174 567 231 L 569 270 Q 570 325 572 379 L 574 414 Z" fill="lightgray"></path>
				<path d="M 396 61 Q 403 60 411 61 Q 493 77 666 85 C 696 86 732 98 704 110 Q 701 110 674 125 Q 653 137 562 116 L 518 109 Q 451 100 393 94 C 363 91 366 62 396 61 Z" fill="lightgray"></path>
</g>
		<text x="40" y="140" font-size="128" fill="#999999">4</text></g>
		<g id="id0:id4:id4" transform="matrix(1.0,0,0,1.0,4096,0.0)">			<g stroke="lightgray" stroke-width="4" transform="scale(4, 4)"> <rect x="0" y="0" width="256" height="256" fill="white" stroke-width="4"/></g>
			<g transform="scale(0.92, -0.92) translate(60, -920)">					<path d="M 709 651 Q 737 717 767 733 Q 786 752 771 771 Q 753 786 700 814 Q 681 823 658 814 Q 538 769 354 748 C 324 744 332 710 362 714 Q 395 718 626 763 Q 657 770 669 757 Q 676 750 674 734 Q 665 694 655 658 C 647 629 697 624 709 651 Z" fill="black"></path>
				<path d="M 335 589 Q 359 565 382 570 Q 490 595 722 616 Q 734 617 735 626 Q 735 635 709 651 C 687 665 684 665 655 658 Q 486 619 348 604 Q 341 604 337 601 C 325 598 325 598 335 589 Z" fill="black"></path>
				<path d="M 295 415 Q 320 502 335 589 L 337 601 Q 343 638 349 670 Q 356 709 362 714 C 370 735 370 735 354 748 Q 338 763 314 776 Q 295 789 280 785 Q 267 778 272 762 Q 291 735 286 678 Q 258 480 233 393 Q 218 348 202 309 Q 150 191 57 68 Q 51 61 49 55 Q 45 43 57 45 Q 94 51 184 173 Q 203 203 223 236 Q 260 306 287 390 L 295 415 Z" fill="black"></path>
				<path d="M 345 393 Q 321 408 295 415 C 270 423 273 417 287 390 Q 332 308 333 124 Q 334 57 371 30 Q 372 29 376 27 Q 394 21 396 54 Q 396 58 396 61 L 393 94 Q 392 110 387 128 Q 372 266 370 350 C 369 379 369 379 345 393 Z" fill="black"></path>
				<path d="M 520 405 Q 447 398 345 393 C 315 391 340 346 370 350 Q 374 350 380 351 Q 440 361 521 372 L 572 379 Q 624 388 685 395 Q 719 399 732 384 Q 757 333 714 131 Q 713 112 704 110 C 692 83 655 113 666 85 Q 676 58 699 10 Q 708 -9 719 -8 Q 735 -5 747 22 Q 780 83 787 168 Q 794 220 802 281 Q 808 333 834 366 Q 853 387 840 402 Q 816 426 766 449 Q 747 461 710 449 Q 646 430 574 414 L 520 405 Z" fill="red"></path>
				<path d="M 567 231 Q 580 234 672 244 Q 681 243 689 254 Q 690 264 671 273 Q 638 289 575 272 Q 572 272 569 270 L 522 260 Q 497 257 474 254 Q 449 253 420 248 Q 395 245 414 231 Q 444 210 469 215 Q 493 219 522 223 L 567 231 Z" fill="lightgray"></path>
				<path d="M 574 414 Q 574 463 593 533 Q 596 545 575 560 Q 538 579 513 583 Q 497 586 488 577 Q 481 570 489 554 Q 516 514 517 488 Q 518 448 520 405 L 521 372 Q 522 318 522 260 L 522 223 Q 521 168 518 109 C 517 79 560 86 562 116 Q 565 174 567 231 L 569 270 Q 570 325 572 379 L 574 414 Z" fill="lightgray"></path>
				<path d="M 396 61 Q 403 60 411 61 Q 493 77 666 85 C 696 86 732 98 704 110 Q 701 110 674 125 Q 653 137 562 116 L 518 109 Q 451 100 393 94 C 363 91 366 62 396 61 Z" fill="lightgray"></path>
</g>
		<text x="40" y="140" font-size="128" fill="#999999">5</text></g>
</g>
	<g id="id1:id1" transform="translate(0.0,1024)">
		<g id="id1:id0:id0" transform="matrix(1.0,0,0,1.0,0,0.0)">			<g stroke="lightgray" stroke-width="4" transform="scale(4, 4)"> <rect x="0" y="0" width="256" height="256" fill="white" stroke-width="4"/></g>
			<g transform="scale(0.92, -0.92) translate(60, -920)">					<path d="M 709 651 Q 737 717 767 733 Q 786 752 771 771 Q 753 786 700 814 Q 681 823 658 814 Q 538 769 354 748 C 324 744 332 710 362 714 Q 395 718 626 763 Q 657 770 669 757 Q 676 750 674 734 Q 665 694 655 658 C 647 629 697 624 709 651 Z" fill="black"></path>
				<path d="M 335 589 Q 359 565 382 570 Q 490 595 722 616 Q 734 617 735 626 Q 735 635 709 651 C 687 665 684 665 655 658 Q 486 619 348 604 Q 341 604 337 601 C 325 598 325 598 335 589 Z" fill="black"></path>
				<path d="M 295 415 Q 320 502 335 589 L 337 601 Q 343 638 349 670 Q 356 709 362 714 C 370 735 370 735 354 748 Q 338 763 314 776 Q 295 789 280 785 Q 267 778 272 762 Q 291 735 286 678 Q 258 480 233 393 Q 218 348 202 309 Q 150 191 57 68 Q 51 61 49 55 Q 45 43 57 45 Q 94 51 184 173 Q 203 203 223 236 Q 260 306 287 390 L 295 415 Z" fill="black"></path>
				<path d="M 345 393 Q 321 408 295 415 C 270 423 273 417 287 390 Q 332 308 333 124 Q 334 57 371 30 Q 372 29 376 27 Q 394 21 396 54 Q 396 58 396 61 L 393 94 Q 392 110 387 128 Q 372 266 370 350 C 369 379 369 379 345 393 Z" fill="black"></path>
				<path d="M 520 405 Q 447 398 345 393 C 315 391 340 346 370 350 Q 374 350 380 351 Q 440 361 521 372 L 572 379 Q 624 388 685 395 Q 719 399 732 384 Q 757 333 714 131 Q 713 112 704 110 C 692 83 655 113 666 85 Q 676 58 699 10 Q 708 -9 719 -8 Q 735 -5 747 22 Q 780 83 787 168 Q 794 220 802 281 Q 808 333 834 366 Q 853 387 840 402 Q 816 426 766 449 Q 747 461 710 449 Q 646 430 574 414 L 520 405 Z" fill="black"></path>
				<path d="M 567 231 Q 580 234 672 244 Q 681 243 689 254 Q 690 264 671 273 Q 638 289 575 272 Q 572 272 569 270 L 522 260 Q 497 257 474 254 Q 449 253 420 248 Q 395 245 414 231 Q 444 210 469 215 Q 493 219 522 223 L 567 231 Z" fill="red"></path>
				<path d="M 574 414 Q 574 463 593 533 Q 596 545 575 560 Q 538 579 513 583 Q 497 586 488 577 Q 481 570 489 554 Q 516 514 517 488 Q 518 448 520 405 L 521 372 Q 522 318 522 260 L 522 223 Q 521 168 518 109 C 517 79 560 86 562 116 Q 565 174 567 231 L 569 270 Q 570 325 572 379 L 574 414 Z" fill="lightgray"></path>
				<path d="M 396 61 Q 403 60 411 61 Q 493 77 666 85 C 696 86 732 98 704 110 Q 701 110 674 125 Q 653 137 562 116 L 518 109 Q 451 100 393 94 C 363 91 366 62 396 61 Z" fill="lightgray"></path>
</g>
		<text x="40" y="140" font-size="128" fill="#999999">6</text></g>
		<g id="id1:id1:id1" transform="matrix(1.0,0,0,1.0,1024,0.0)">			<g stroke="lightgray" stroke-width="4" transform="scale(4, 4)"> <rect x="0" y="0" width="256" height="256" fill="white" stroke-width="4"/></g>
			<g transform="scale(0.92, -0.92) translate(60, -920)">					<path d="M 709 651 Q 737 717 767 733 Q 786 752 771 771 Q 753 786 700 814 Q 681 823 658 814 Q 538 769 354 748 C 324 744 332 710 362 714 Q 395 718 626 763 Q 657 770 669 757 Q 676 750 674 734 Q 665 694 655 658 C 647 629 697 624 709 651 Z" fill="black"></path>
				<path d="M 335 589 Q 359 565 382 570 Q 490 595 722 616 Q 734 617 735 626 Q 735 635 709 651 C 687 665 684 665 655 658 Q 486 619 348 604 Q 341 604 337 601 C 325 598 325 598 335 589 Z" fill="black"></path>
				<path d="M 295 415 Q 320 502 335 589 L 337 601 Q 343 638 349 670 Q 356 709 362 714 C 370 735 370 735 354 748 Q 338 763 314 776 Q 295 789 280 785 Q 267 778 272 762 Q 291 735 286 678 Q 258 480 233 393 Q 218 348 202 309 Q 150 191 57 68 Q 51 61 49 55 Q 45 43 57 45 Q 94 51 184 173 Q 203 203 223 236 Q 260 306 287 390 L 295 415 Z" fill="black"></path>
				<path d="M 345 393 Q 321 408 295 415 C 270 423 273 417 287 390 Q 332 308 333 124 Q 334 57 371 30 Q 372 29 376 27 Q 394 21 396 54 Q 396 58 396 61 L 393 94 Q 392 110 387 128 Q 372 266 370 350 C 369 379 369 379 345 393 Z" fill="black"></path>
				<path d="M 520 405 Q 447 398 345 393 C 315 391 340 346 370 350 Q 374 350 380 351 Q 440 361 521 372 L 572 379 Q 624 388 685 395 Q 719 399 732 384 Q 757 333 714 131 Q 713 112 704 110 C 692 83 655 113 666 85 Q 676 58 699 10 Q 708 -9 719 -8 Q 735 -5 747 22 Q 780 83 787 168 Q 794 220 802 281 Q 808 333 834 366 Q 853 387 840 402 Q 816 426 766 449 Q 747 461 710 449 Q 646 430 574 414 L 520 405 Z" fill="black"></path>
				<path d="M 567 231 Q 580 234 672 244 Q 681 243 689 254 Q 690 264 671 273 Q 638 289 575 272 Q 572 272 569 270 L 522 260 Q 497 257 474 254 Q 449 253 420 248 Q 395 245 414 231 Q 444 210 469 215 Q 493 219 522 223 L 567 231 Z" fill="black"></path>
				<path d="M 574 414 Q 574 463 593 533 Q 596 545 575 560 Q 538 579 513 583 Q 497 586 488 577 Q 481 570 489 554 Q 516 514 517 488 Q 518 448 520 405 L 521 372 Q 522 318 522 260 L 522 223 Q 521 168 518 109 C 517 79 560 86 562 116 Q 565 174 567 231 L 569 270 Q 570 325 572 379 L 574 414 Z" fill="red"></path>
				<path d="M 396 61 Q 403 60 411 61 Q 493 77 666 85 C 696 86 732 98 704 110 Q 701 110 674 125 Q 653 137 562 116 L 518 109 Q 451 100 393 94 C 363 91 366 62 396 61 Z" fill="lightgray"></path>
</g>
		<text x="40" y="140" font-size="128" fill="#999999">7</text></g>
		<g id="id1:id2:id2" transform="matrix(1.0,0,0,1.0,2048,0.0)">			<g stroke="lightgray" stroke-width="4" transform="scale(4, 4)"> <rect x="0" y="0" width="256" height="256" fill="white" stroke-width="4"/></g>
			<g transform="scale(0.92, -0.92) translate(60, -920)">					<path d="M 709 651 Q 737 717 767 733 Q 786 752 771 771 Q 753 786 700 814 Q 681 823 658 814 Q 538 769 354 748 C 324 744 332 710 362 714 Q 395 718 626 763 Q 657 770 669 757 Q 676 750 674 734 Q 665 694 655 658 C 647 629 697 624 709 651 Z" fill="black"></path>
				<path d="M 335 589 Q 359 565 382 570 Q 490 595 722 616 Q 734 617 735 626 Q 735 635 709 651 C 687 665 684 665 655 658 Q 486 619 348 604 Q 341 604 337 601 C 325 598 325 598 335 589 Z" fill="black"></path>
				<path d="M 295 415 Q 320 502 335 589 L 337 601 Q 343 638 349 670 Q 356 709 362 714 C 370 735 370 735 354 748 Q 338 763 314 776 Q 295 789 280 785 Q 267 778 272 762 Q 291 735 286 678 Q 258 480 233 393 Q 218 348 202 309 Q 150 191 57 68 Q 51 61 49 55 Q 45 43 57 45 Q 94 51 184 173 Q 203 203 223 236 Q 260 306 287 390 L 295 415 Z" fill="black"></path>
				<path d="M 345 393 Q 321 408 295 415 C 270 423 273 417 287 390 Q 332 308 333 124 Q 334 57 371 30 Q 372 29 376 27 Q 394 21 396 54 Q 396 58 396 61 L 393 94 Q 392 110 387 128 Q 372 266 370 350 C 369 379 369 379 345 393 Z" fill="black"></path>
				<path d="M 520 405 Q 447 398 345 393 C 315 391 340 346 370 350 Q 374 350 380 351 Q 440 361 521 372 L 572 379 Q 624 388 685 395 Q 719 399 732 384 Q 757 333 714 131 Q 713 112 704 110 C 692 83 655 113 666 85 Q 676 58 699 10 Q 708 -9 719 -8 Q 735 -5 747 22 Q 780 83 787 168 Q 794 220 802 281 Q 808 333 834 366 Q 853 387 840 402 Q 816 426 766 449 Q 747 461 710 449 Q 646 430 574 414 L 520 405 Z" fill="black"></path>
				<path d="M 567 231 Q 580 234 672 244 Q 681 243 689 254 Q 690 264 671 273 Q 638 289 575 272 Q 572 272 569 270 L 522 260 Q 497 257 474 254 Q 449 253 420 248 Q 395 245 414 231 Q 444 210 469 215 Q 493 219 522 223 L 567 231 Z" fill="black"></path>
				<path d="M 574 414 Q 574 463 593 533 Q 596 545 575 560 Q 538 579 513 583 Q 497 586 488 577 Q 481 570 489 554 Q 516 514 517 488 Q 518 448 520 405 L 521 372 Q 522 318 522 260 L 522 223 Q 521 168 518 109 C 517 79 560 86 562 116 Q 565 174 567 231 L 569 270 Q 570 325 572 379 L 574 414 Z" fill="black"></path>
				<path d="M 396 61 Q 403 60 411 61 Q 493 77 666 85 C 696 86 732 98 704 110 Q 701 110 674 125 Q 653 137 562 116 L 518 109 Q 451 100 393 94 C 363 91 366 62 396 61 Z" fill="red"></path>
</g>
		<text x="40" y="140" font-size="128" fill="#999999">8</text></g>
		<g id="id1:id3:id3" transform="matrix(1.0,0,0,1.0,3072,0.0)">			<g stroke="white" stroke-width="4" transform="scale(4, 4)"> <rect x="1" y="1" width="255" height="255" fill="white" stroke-width="0"/></g>
</g>
		<g id="id1:id4:id4" transform="matrix(1.0,0,0,1.0,4096,0.0)">			<g stroke="white" stroke-width="4" transform="scale(4, 4)"> <rect x="1" y="1" width="255" height="255" fill="white" stroke-width="0"/></g>
</g>
</g>
</svg>
