<?xml version="1.0" standalone="no"?>
<!DOCTYPE svg PUBLIC "-//W3C//DTD SVG 1.1//EN"
 "http://www.w3.org/Graphics/SVG/1.1/DTD/svg11.dtd">
<!-- generate by Japanese dictionary app com.asnsami.kanjidictionary -->

<svg xmlns="http://www.w3.org/2000/svg" xmlns:sodipodi="http://sodipodi.sourceforge.net/DTD/sodipodi-0.dtd" version="1.1" width="640" height="384" viewBox="0 0 5120 3072">
	<g id="id0:id0" transform="translate(0.0,0)">
		<g id="id0:id0:id0" transform="matrix(1.0,0,0,1.0,0,0.0)">			<g stroke="lightgray" stroke-width="4" transform="scale(4, 4)"> <rect x="0" y="0" width="256" height="256" fill="white" stroke-width="4"/></g>
			<g transform="scale(0.92, -0.92) translate(60, -920)">					<path d="M 286 360 Q 301 684 318 736 Q 321 746 301 761 Q 267 779 244 783 Q 228 787 220 778 Q 213 771 221 756 Q 246 720 246 695 Q 253 533 245 346 C 244 316 285 330 286 360 Z" fill="red"></path>
				<path d="M 351 379 Q 317 372 286 360 L 245 346 Q 202 333 167 315 Q 151 309 154 329 Q 157 381 160 436 Q 163 461 152 475 Q 136 491 111 504 Q 98 508 89 506 Q 79 502 87 482 Q 115 427 109 368 Q 105 313 84 287 Q 68 268 77 254 Q 90 241 108 231 Q 123 225 132 234 Q 163 285 326 333 Q 341 337 352 338 C 382 343 380 386 351 379 Z" fill="lightgray"></path>
				<path d="M 418 460 Q 422 493 434 512 Q 441 525 432 538 Q 416 551 387 570 Q 377 577 365 572 Q 358 568 360 556 Q 375 532 366 437 Q 362 403 352 381 Q 351 381 351 379 L 352 338 Q 355 323 361 312 Q 368 297 380 307 Q 402 328 408 403 Q 412 425 415 446 L 418 460 Z" fill="lightgray"></path>
				<path d="M 646 681 Q 701 694 764 706 Q 809 716 815 722 Q 822 729 819 737 Q 812 747 786 755 Q 758 759 731 749 Q 697 739 661 727 L 607 714 Q 555 704 496 698 Q 463 692 487 677 Q 520 659 592 670 L 646 681 Z" fill="lightgray"></path>
				<path d="M 592 670 Q 564 601 496 516 Q 492 509 497 506 Q 504 505 514 512 Q 617 585 646 681 L 661 727 Q 671 790 684 819 Q 690 829 682 837 Q 675 846 645 855 Q 623 862 615 858 Q 603 852 608 839 Q 626 788 607 714 L 592 670 Z" fill="lightgray"></path>
				<path d="M 667 628 Q 707 597 755 551 Q 768 538 781 534 Q 787 534 792 542 Q 801 552 789 586 Q 780 616 723 635 Q 686 647 666 652 Q 659 656 658 646 Q 659 636 667 628 Z" fill="lightgray"></path>
				<path d="M 774 472 Q 837 478 918 478 Q 976 478 983 487 Q 989 497 973 511 Q 925 547 889 538 Q 765 510 423 461 Q 420 461 418 460 C 401 457 401 457 415 446 Q 430 431 448 426 Q 467 422 483 425 Q 600 459 729 469 L 774 472 Z" fill="lightgray"></path>
				<path d="M 482 352 Q 472 356 451 360 Q 439 364 437 359 Q 431 353 438 339 Q 460 291 474 214 Q 475 190 490 175 Q 505 154 510 169 Q 514 179 514 197 L 510 230 Q 500 306 499 327 C 498 347 498 347 482 352 Z" fill="lightgray"></path>
				<path d="M 641 249 Q 659 310 678 329 Q 699 353 678 366 Q 617 399 616 399 Q 607 399 599 393 Q 563 369 482 352 C 453 346 470 318 499 327 Q 502 328 509 330 Q 546 339 579 346 Q 601 350 606 342 Q 613 338 606 308 Q 600 283 593 252 C 586 223 632 220 641 249 Z" fill="lightgray"></path>
				<path d="M 514 197 Q 554 207 654 219 Q 664 220 665 229 Q 665 236 641 249 L 593 252 L 592 252 Q 549 239 510 230 C 481 223 485 190 514 197 Z" fill="lightgray"></path>
				<path d="M 692 28 Q 670 32 641 37 Q 628 40 629 32 Q 630 23 641 14 Q 710 -35 753 -74 Q 766 -84 780 -67 Q 822 -9 815 72 Q 803 279 813 404 Q 820 432 813 443 Q 804 455 774 472 C 748 488 718 497 729 469 Q 729 462 737 449 Q 747 424 748 57 Q 745 38 737 27 Q 724 20 692 28 Z" fill="lightgray"></path>
</g>
		<text x="40" y="140" font-size="128" fill="#999999">1</text></g>
		<g id="id0:id1:id1" transform="matrix(1.0,0,0,1.0,1024,0.0)">			<g stroke="lightgray" stroke-width="4" transform="scale(4, 4)"> <rect x="0" y="0" width="256" height="256" fill="white" stroke-width="4"/></g>
			<g transform="scale(0.92, -0.92) translate(60, -920)">					<path d="M 286 360 Q 301 684 318 736 Q 321 746 301 761 Q 267 779 244 783 Q 228 787 220 778 Q 213 771 221 756 Q 246 720 246 695 Q 253 533 245 346 C 244 316 285 330 286 360 Z" fill="black"></path>
				<path d="M 351 379 Q 317 372 286 360 L 245 346 Q 202 333 167 315 Q 151 309 154 329 Q 157 381 160 436 Q 163 461 152 475 Q 136 491 111 504 Q 98 508 89 506 Q 79 502 87 482 Q 115 427 109 368 Q 105 313 84 287 Q 68 268 77 254 Q 90 241 108 231 Q 123 225 132 234 Q 163 285 326 333 Q 341 337 352 338 C 382 343 380 386 351 379 Z" fill="red"></path>
				<path d="M 418 460 Q 422 493 434 512 Q 441 525 432 538 Q 416 551 387 570 Q 377 577 365 572 Q 358 568 360 556 Q 375 532 366 437 Q 362 403 352 381 Q 351 381 351 379 L 352 338 Q 355 323 361 312 Q 368 297 380 307 Q 402 328 408 403 Q 412 425 415 446 L 418 460 Z" fill="lightgray"></path>
				<path d="M 646 681 Q 701 694 764 706 Q 809 716 815 722 Q 822 729 819 737 Q 812 747 786 755 Q 758 759 731 749 Q 697 739 661 727 L 607 714 Q 555 704 496 698 Q 463 692 487 677 Q 520 659 592 670 L 646 681 Z" fill="lightgray"></path>
				<path d="M 592 670 Q 564 601 496 516 Q 492 509 497 506 Q 504 505 514 512 Q 617 585 646 681 L 661 727 Q 671 790 684 819 Q 690 829 682 837 Q 675 846 645 855 Q 623 862 615 858 Q 603 852 608 839 Q 626 788 607 714 L 592 670 Z" fill="lightgray"></path>
				<path d="M 667 628 Q 707 597 755 551 Q 768 538 781 534 Q 787 534 792 542 Q 801 552 789 586 Q 780 616 723 635 Q 686 647 666 652 Q 659 656 658 646 Q 659 636 667 628 Z" fill="lightgray"></path>
				<path d="M 774 472 Q 837 478 918 478 Q 976 478 983 487 Q 989 497 973 511 Q 925 547 889 538 Q 765 510 423 461 Q 420 461 418 460 C 401 457 401 457 415 446 Q 430 431 448 426 Q 467 422 483 425 Q 600 459 729 469 L 774 472 Z" fill="lightgray"></path>
				<path d="M 482 352 Q 472 356 451 360 Q 439 364 437 359 Q 431 353 438 339 Q 460 291 474 214 Q 475 190 490 175 Q 505 154 510 169 Q 514 179 514 197 L 510 230 Q 500 306 499 327 C 498 347 498 347 482 352 Z" fill="lightgray"></path>
				<path d="M 641 249 Q 659 310 678 329 Q 699 353 678 366 Q 617 399 616 399 Q 607 399 599 393 Q 563 369 482 352 C 453 346 470 318 499 327 Q 502 328 509 330 Q 546 339 579 346 Q 601 350 606 342 Q 613 338 606 308 Q 600 283 593 252 C 586 223 632 220 641 249 Z" fill="lightgray"></path>
				<path d="M 514 197 Q 554 207 654 219 Q 664 220 665 229 Q 665 236 641 249 L 593 252 L 592 252 Q 549 239 510 230 C 481 223 485 190 514 197 Z" fill="lightgray"></path>
				<path d="M 692 28 Q 670 32 641 37 Q 628 40 629 32 Q 630 23 641 14 Q 710 -35 753 -74 Q 766 -84 780 -67 Q 822 -9 815 72 Q 803 279 813 404 Q 820 432 813 443 Q 804 455 774 472 C 748 488 718 497 729 469 Q 729 462 737 449 Q 747 424 748 57 Q 745 38 737 27 Q 724 20 692 28 Z" fill="lightgray"></path>
</g>
		<text x="40" y="140" font-size="128" fill="#999999">2</text></g>
		<g id="id0:id2:id2" transform="matrix(1.0,0,0,1.0,2048,0.0)">			<g stroke="lightgray" stroke-width="4" transform="scale(4, 4)"> <rect x="0" y="0" width="256" height="256" fill="white" stroke-width="4"/></g>
			<g transform="scale(0.92, -0.92) translate(60, -920)">					<path d="M 286 360 Q 301 684 318 736 Q 321 746 301 761 Q 267 779 244 783 Q 228 787 220 778 Q 213 771 221 756 Q 246 720 246 695 Q 253 533 245 346 C 244 316 285 330 286 360 Z" fill="black"></path>
				<path d="M 351 379 Q 317 372 286 360 L 245 346 Q 202 333 167 315 Q 151 309 154 329 Q 157 381 160 436 Q 163 461 152 475 Q 136 491 111 504 Q 98 508 89 506 Q 79 502 87 482 Q 115 427 109 368 Q 105 313 84 287 Q 68 268 77 254 Q 90 241 108 231 Q 123 225 132 234 Q 163 285 326 333 Q 341 337 352 338 C 382 343 380 386 351 379 Z" fill="black"></path>
				<path d="M 418 460 Q 422 493 434 512 Q 441 525 432 538 Q 416 551 387 570 Q 377 577 365 572 Q 358 568 360 556 Q 375 532 366 437 Q 362 403 352 381 Q 351 381 351 379 L 352 338 Q 355 323 361 312 Q 368 297 380 307 Q 402 328 408 403 Q 412 425 415 446 L 418 460 Z" fill="red"></path>
				<path d="M 646 681 Q 701 694 764 706 Q 809 716 815 722 Q 822 729 819 737 Q 812 747 786 755 Q 758 759 731 749 Q 697 739 661 727 L 607 714 Q 555 704 496 698 Q 463 692 487 677 Q 520 659 592 670 L 646 681 Z" fill="lightgray"></path>
				<path d="M 592 670 Q 564 601 496 516 Q 492 509 497 506 Q 504 505 514 512 Q 617 585 646 681 L 661 727 Q 671 790 684 819 Q 690 829 682 837 Q 675 846 645 855 Q 623 862 615 858 Q 603 852 608 839 Q 626 788 607 714 L 592 670 Z" fill="lightgray"></path>
				<path d="M 667 628 Q 707 597 755 551 Q 768 538 781 534 Q 787 534 792 542 Q 801 552 789 586 Q 780 616 723 635 Q 686 647 666 652 Q 659 656 658 646 Q 659 636 667 628 Z" fill="lightgray"></path>
				<path d="M 774 472 Q 837 478 918 478 Q 976 478 983 487 Q 989 497 973 511 Q 925 547 889 538 Q 765 510 423 461 Q 420 461 418 460 C 401 457 401 457 415 446 Q 430 431 448 426 Q 467 422 483 425 Q 600 459 729 469 L 774 472 Z" fill="lightgray"></path>
				<path d="M 482 352 Q 472 356 451 360 Q 439 364 437 359 Q 431 353 438 339 Q 460 291 474 214 Q 475 190 490 175 Q 505 154 510 169 Q 514 179 514 197 L 510 230 Q 500 306 499 327 C 498 347 498 347 482 352 Z" fill="lightgray"></path>
				<path d="M 641 249 Q 659 310 678 329 Q 699 353 678 366 Q 617 399 616 399 Q 607 399 599 393 Q 563 369 482 352 C 453 346 470 318 499 327 Q 502 328 509 330 Q 546 339 579 346 Q 601 350 606 342 Q 613 338 606 308 Q 600 283 593 252 C 586 223 632 220 641 249 Z" fill="lightgray"></path>
				<path d="M 514 197 Q 554 207 654 219 Q 664 220 665 229 Q 665 236 641 249 L 593 252 L 592 252 Q 549 239 510 230 C 481 223 485 190 514 197 Z" fill="lightgray"></path>
				<path d="M 692 28 Q 670 32 641 37 Q 628 40 629 32 Q 630 23 641 14 Q 710 -35 753 -74 Q 766 -84 780 -67 Q 822 -9 815 72 Q 803 279 813 404 Q 820 432 813 443 Q 804 455 774 472 C 748 488 718 497 729 469 Q 729 462 737 449 Q 747 424 748 57 Q 745 38 737 27 Q 724 20 692 28 Z" fill="lightgray"></path>
</g>
		<text x="40" y="140" font-size="128" fill="#999999">3</text></g>
		<g id="id0:id3:id3" transform="matrix(1.0,0,0,1.0,3072,0.0)">			<g stroke="lightgray" stroke-width="4" transform="scale(4, 4)"> <rect x="0" y="0" width="256" height="256" fill="white" stroke-width="4"/></g>
			<g transform="scale(0.92, -0.92) translate(60, -920)">					<path d="M 286 360 Q 301 684 318 736 Q 321 746 301 761 Q 267 779 244 783 Q 228 787 220 778 Q 213 771 221 756 Q 246 720 246 695 Q 253 533 245 346 C 244 316 285 330 286 360 Z" fill="black"></path>
				<path d="M 351 379 Q 317 372 286 360 L 245 346 Q 202 333 167 315 Q 151 309 154 329 Q 157 381 160 436 Q 163 461 152 475 Q 136 491 111 504 Q 98 508 89 506 Q 79 502 87 482 Q 115 427 109 368 Q 105 313 84 287 Q 68 268 77 254 Q 90 241 108 231 Q 123 225 132 234 Q 163 285 326 333 Q 341 337 352 338 C 382 343 380 386 351 379 Z" fill="black"></path>
				<path d="M 418 460 Q 422 493 434 512 Q 441 525 432 538 Q 416 551 387 570 Q 377 577 365 572 Q 358 568 360 556 Q 375 532 366 437 Q 362 403 352 381 Q 351 381 351 379 L 352 338 Q 355 323 361 312 Q 368 297 380 307 Q 402 328 408 403 Q 412 425 415 446 L 418 460 Z" fill="black"></path>
				<path d="M 646 681 Q 701 694 764 706 Q 809 716 815 722 Q 822 729 819 737 Q 812 747 786 755 Q 758 759 731 749 Q 697 739 661 727 L 607 714 Q 555 704 496 698 Q 463 692 487 677 Q 520 659 592 670 L 646 681 Z" fill="red"></path>
				<path d="M 592 670 Q 564 601 496 516 Q 492 509 497 506 Q 504 505 514 512 Q 617 585 646 681 L 661 727 Q 671 790 684 819 Q 690 829 682 837 Q 675 846 645 855 Q 623 862 615 858 Q 603 852 608 839 Q 626 788 607 714 L 592 670 Z" fill="lightgray"></path>
				<path d="M 667 628 Q 707 597 755 551 Q 768 538 781 534 Q 787 534 792 542 Q 801 552 789 586 Q 780 616 723 635 Q 686 647 666 652 Q 659 656 658 646 Q 659 636 667 628 Z" fill="lightgray"></path>
				<path d="M 774 472 Q 837 478 918 478 Q 976 478 983 487 Q 989 497 973 511 Q 925 547 889 538 Q 765 510 423 461 Q 420 461 418 460 C 401 457 401 457 415 446 Q 430 431 448 426 Q 467 422 483 425 Q 600 459 729 469 L 774 472 Z" fill="lightgray"></path>
				<path d="M 482 352 Q 472 356 451 360 Q 439 364 437 359 Q 431 353 438 339 Q 460 291 474 214 Q 475 190 490 175 Q 505 154 510 169 Q 514 179 514 197 L 510 230 Q 500 306 499 327 C 498 347 498 347 482 352 Z" fill="lightgray"></path>
				<path d="M 641 249 Q 659 310 678 329 Q 699 353 678 366 Q 617 399 616 399 Q 607 399 599 393 Q 563 369 482 352 C 453 346 470 318 499 327 Q 502 328 509 330 Q 546 339 579 346 Q 601 350 606 342 Q 613 338 606 308 Q 600 283 593 252 C 586 223 632 220 641 249 Z" fill="lightgray"></path>
				<path d="M 514 197 Q 554 207 654 219 Q 664 220 665 229 Q 665 236 641 249 L 593 252 L 592 252 Q 549 239 510 230 C 481 223 485 190 514 197 Z" fill="lightgray"></path>
				<path d="M 692 28 Q 670 32 641 37 Q 628 40 629 32 Q 630 23 641 14 Q 710 -35 753 -74 Q 766 -84 780 -67 Q 822 -9 815 72 Q 803 279 813 404 Q 820 432 813 443 Q 804 455 774 472 C 748 488 718 497 729 469 Q 729 462 737 449 Q 747 424 748 57 Q 745 38 737 27 Q 724 20 692 28 Z" fill="lightgray"></path>
</g>
		<text x="40" y="140" font-size="128" fill="#999999">4</text></g>
		<g id="id0:id4:id4" transform="matrix(1.0,0,0,1.0,4096,0.0)">			<g stroke="lightgray" stroke-width="4" transform="scale(4, 4)"> <rect x="0" y="0" width="256" height="256" fill="white" stroke-width="4"/></g>
			<g transform="scale(0.92, -0.92) translate(60, -920)">					<path d="M 286 360 Q 301 684 318 736 Q 321 746 301 761 Q 267 779 244 783 Q 228 787 220 778 Q 213 771 221 756 Q 246 720 246 695 Q 253 533 245 346 C 244 316 285 330 286 360 Z" fill="black"></path>
				<path d="M 351 379 Q 317 372 286 360 L 245 346 Q 202 333 167 315 Q 151 309 154 329 Q 157 381 160 436 Q 163 461 152 475 Q 136 491 111 504 Q 98 508 89 506 Q 79 502 87 482 Q 115 427 109 368 Q 105 313 84 287 Q 68 268 77 254 Q 90 241 108 231 Q 123 225 132 234 Q 163 285 326 333 Q 341 337 352 338 C 382 343 380 386 351 379 Z" fill="black"></path>
				<path d="M 418 460 Q 422 493 434 512 Q 441 525 432 538 Q 416 551 387 570 Q 377 577 365 572 Q 358 568 360 556 Q 375 532 366 437 Q 362 403 352 381 Q 351 381 351 379 L 352 338 Q 355 323 361 312 Q 368 297 380 307 Q 402 328 408 403 Q 412 425 415 446 L 418 460 Z" fill="black"></path>
				<path d="M 646 681 Q 701 694 764 706 Q 809 716 815 722 Q 822 729 819 737 Q 812 747 786 755 Q 758 759 731 749 Q 697 739 661 727 L 607 714 Q 555 704 496 698 Q 463 692 487 677 Q 520 659 592 670 L 646 681 Z" fill="black"></path>
				<path d="M 592 670 Q 564 601 496 516 Q 492 509 497 506 Q 504 505 514 512 Q 617 585 646 681 L 661 727 Q 671 790 684 819 Q 690 829 682 837 Q 675 846 645 855 Q 623 862 615 858 Q 603 852 608 839 Q 626 788 607 714 L 592 670 Z" fill="red"></path>
				<path d="M 667 628 Q 707 597 755 551 Q 768 538 781 534 Q 787 534 792 542 Q 801 552 789 586 Q 780 616 723 635 Q 686 647 666 652 Q 659 656 658 646 Q 659 636 667 628 Z" fill="lightgray"></path>
				<path d="M 774 472 Q 837 478 918 478 Q 976 478 983 487 Q 989 497 973 511 Q 925 547 889 538 Q 765 510 423 461 Q 420 461 418 460 C 401 457 401 457 415 446 Q 430 431 448 426 Q 467 422 483 425 Q 600 459 729 469 L 774 472 Z" fill="lightgray"></path>
				<path d="M 482 352 Q 472 356 451 360 Q 439 364 437 359 Q 431 353 438 339 Q 460 291 474 214 Q 475 190 490 175 Q 505 154 510 169 Q 514 179 514 197 L 510 230 Q 500 306 499 327 C 498 347 498 347 482 352 Z" fill="lightgray"></path>
				<path d="M 641 249 Q 659 310 678 329 Q 699 353 678 366 Q 617 399 616 399 Q 607 399 599 393 Q 563 369 482 352 C 453 346 470 318 499 327 Q 502 328 509 330 Q 546 339 579 346 Q 601 350 606 342 Q 613 338 606 308 Q 600 283 593 252 C 586 223 632 220 641 249 Z" fill="lightgray"></path>
				<path d="M 514 197 Q 554 207 654 219 Q 664 220 665 229 Q 665 236 641 249 L 593 252 L 592 252 Q 549 239 510 230 C 481 223 485 190 514 197 Z" fill="lightgray"></path>
				<path d="M 692 28 Q 670 32 641 37 Q 628 40 629 32 Q 630 23 641 14 Q 710 -35 753 -74 Q 766 -84 780 -67 Q 822 -9 815 72 Q 803 279 813 404 Q 820 432 813 443 Q 804 455 774 472 C 748 488 718 497 729 469 Q 729 462 737 449 Q 747 424 748 57 Q 745 38 737 27 Q 724 20 692 28 Z" fill="lightgray"></path>
</g>
		<text x="40" y="140" font-size="128" fill="#999999">5</text></g>
</g>
	<g id="id1:id1" transform="translate(0.0,1024)">
		<g id="id1:id0:id0" transform="matrix(1.0,0,0,1.0,0,0.0)">			<g stroke="lightgray" stroke-width="4" transform="scale(4, 4)"> <rect x="0" y="0" width="256" height="256" fill="white" stroke-width="4"/></g>
			<g transform="scale(0.92, -0.92) translate(60, -920)">					<path d="M 286 360 Q 301 684 318 736 Q 321 746 301 761 Q 267 779 244 783 Q 228 787 220 778 Q 213 771 221 756 Q 246 720 246 695 Q 253 533 245 346 C 244 316 285 330 286 360 Z" fill="black"></path>
				<path d="M 351 379 Q 317 372 286 360 L 245 346 Q 202 333 167 315 Q 151 309 154 329 Q 157 381 160 436 Q 163 461 152 475 Q 136 491 111 504 Q 98 508 89 506 Q 79 502 87 482 Q 115 427 109 368 Q 105 313 84 287 Q 68 268 77 254 Q 90 241 108 231 Q 123 225 132 234 Q 163 285 326 333 Q 341 337 352 338 C 382 343 380 386 351 379 Z" fill="black"></path>
				<path d="M 418 460 Q 422 493 434 512 Q 441 525 432 538 Q 416 551 387 570 Q 377 577 365 572 Q 358 568 360 556 Q 375 532 366 437 Q 362 403 352 381 Q 351 381 351 379 L 352 338 Q 355 323 361 312 Q 368 297 380 307 Q 402 328 408 403 Q 412 425 415 446 L 418 460 Z" fill="black"></path>
				<path d="M 646 681 Q 701 694 764 706 Q 809 716 815 722 Q 822 729 819 737 Q 812 747 786 755 Q 758 759 731 749 Q 697 739 661 727 L 607 714 Q 555 704 496 698 Q 463 692 487 677 Q 520 659 592 670 L 646 681 Z" fill="black"></path>
				<path d="M 592 670 Q 564 601 496 516 Q 492 509 497 506 Q 504 505 514 512 Q 617 585 646 681 L 661 727 Q 671 790 684 819 Q 690 829 682 837 Q 675 846 645 855 Q 623 862 615 858 Q 603 852 608 839 Q 626 788 607 714 L 592 670 Z" fill="black"></path>
				<path d="M 667 628 Q 707 597 755 551 Q 768 538 781 534 Q 787 534 792 542 Q 801 552 789 586 Q 780 616 723 635 Q 686 647 666 652 Q 659 656 658 646 Q 659 636 667 628 Z" fill="red"></path>
				<path d="M 774 472 Q 837 478 918 478 Q 976 478 983 487 Q 989 497 973 511 Q 925 547 889 538 Q 765 510 423 461 Q 420 461 418 460 C 401 457 401 457 415 446 Q 430 431 448 426 Q 467 422 483 425 Q 600 459 729 469 L 774 472 Z" fill="lightgray"></path>
				<path d="M 482 352 Q 472 356 451 360 Q 439 364 437 359 Q 431 353 438 339 Q 460 291 474 214 Q 475 190 490 175 Q 505 154 510 169 Q 514 179 514 197 L 510 230 Q 500 306 499 327 C 498 347 498 347 482 352 Z" fill="lightgray"></path>
				<path d="M 641 249 Q 659 310 678 329 Q 699 353 678 366 Q 617 399 616 399 Q 607 399 599 393 Q 563 369 482 352 C 453 346 470 318 499 327 Q 502 328 509 330 Q 546 339 579 346 Q 601 350 606 342 Q 613 338 606 308 Q 600 283 593 252 C 586 223 632 220 641 249 Z" fill="lightgray"></path>
				<path d="M 514 197 Q 554 207 654 219 Q 664 220 665 229 Q 665 236 641 249 L 593 252 L 592 252 Q 549 239 510 230 C 481 223 485 190 514 197 Z" fill="lightgray"></path>
				<path d="M 692 28 Q 670 32 641 37 Q 628 40 629 32 Q 630 23 641 14 Q 710 -35 753 -74 Q 766 -84 780 -67 Q 822 -9 815 72 Q 803 279 813 404 Q 820 432 813 443 Q 804 455 774 472 C 748 488 718 497 729 469 Q 729 462 737 449 Q 747 424 748 57 Q 745 38 737 27 Q 724 20 692 28 Z" fill="lightgray"></path>
</g>
		<text x="40" y="140" font-size="128" fill="#999999">6</text></g>
		<g id="id1:id1:id1" transform="matrix(1.0,0,0,1.0,1024,0.0)">			<g stroke="lightgray" stroke-width="4" transform="scale(4, 4)"> <rect x="0" y="0" width="256" height="256" fill="white" stroke-width="4"/></g>
			<g transform="scale(0.92, -0.92) translate(60, -920)">					<path d="M 286 360 Q 301 684 318 736 Q 321 746 301 761 Q 267 779 244 783 Q 228 787 220 778 Q 213 771 221 756 Q 246 720 246 695 Q 253 533 245 346 C 244 316 285 330 286 360 Z" fill="black"></path>
				<path d="M 351 379 Q 317 372 286 360 L 245 346 Q 202 333 167 315 Q 151 309 154 329 Q 157 381 160 436 Q 163 461 152 475 Q 136 491 111 504 Q 98 508 89 506 Q 79 502 87 482 Q 115 427 109 368 Q 105 313 84 287 Q 68 268 77 254 Q 90 241 108 231 Q 123 225 132 234 Q 163 285 326 333 Q 341 337 352 338 C 382 343 380 386 351 379 Z" fill="black"></path>
				<path d="M 418 460 Q 422 493 434 512 Q 441 525 432 538 Q 416 551 387 570 Q 377 577 365 572 Q 358 568 360 556 Q 375 532 366 437 Q 362 403 352 381 Q 351 381 351 379 L 352 338 Q 355 323 361 312 Q 368 297 380 307 Q 402 328 408 403 Q 412 425 415 446 L 418 460 Z" fill="black"></path>
				<path d="M 646 681 Q 701 694 764 706 Q 809 716 815 722 Q 822 729 819 737 Q 812 747 786 755 Q 758 759 731 749 Q 697 739 661 727 L 607 714 Q 555 704 496 698 Q 463 692 487 677 Q 520 659 592 670 L 646 681 Z" fill="black"></path>
				<path d="M 592 670 Q 564 601 496 516 Q 492 509 497 506 Q 504 505 514 512 Q 617 585 646 681 L 661 727 Q 671 790 684 819 Q 690 829 682 837 Q 675 846 645 855 Q 623 862 615 858 Q 603 852 608 839 Q 626 788 607 714 L 592 670 Z" fill="black"></path>
				<path d="M 667 628 Q 707 597 755 551 Q 768 538 781 534 Q 787 534 792 542 Q 801 552 789 586 Q 780 616 723 635 Q 686 647 666 652 Q 659 656 658 646 Q 659 636 667 628 Z" fill="black"></path>
				<path d="M 774 472 Q 837 478 918 478 Q 976 478 983 487 Q 989 497 973 511 Q 925 547 889 538 Q 765 510 423 461 Q 420 461 418 460 C 401 457 401 457 415 446 Q 430 431 448 426 Q 467 422 483 425 Q 600 459 729 469 L 774 472 Z" fill="red"></path>
				<path d="M 482 352 Q 472 356 451 360 Q 439 364 437 359 Q 431 353 438 339 Q 460 291 474 214 Q 475 190 490 175 Q 505 154 510 169 Q 514 179 514 197 L 510 230 Q 500 306 499 327 C 498 347 498 347 482 352 Z" fill="lightgray"></path>
				<path d="M 641 249 Q 659 310 678 329 Q 699 353 678 366 Q 617 399 616 399 Q 607 399 599 393 Q 563 369 482 352 C 453 346 470 318 499 327 Q 502 328 509 330 Q 546 339 579 346 Q 601 350 606 342 Q 613 338 606 308 Q 600 283 593 252 C 586 223 632 220 641 249 Z" fill="lightgray"></path>
				<path d="M 514 197 Q 554 207 654 219 Q 664 220 665 229 Q 665 236 641 249 L 593 252 L 592 252 Q 549 239 510 230 C 481 223 485 190 514 197 Z" fill="lightgray"></path>
				<path d="M 692 28 Q 670 32 641 37 Q 628 40 629 32 Q 630 23 641 14 Q 710 -35 753 -74 Q 766 -84 780 -67 Q 822 -9 815 72 Q 803 279 813 404 Q 820 432 813 443 Q 804 455 774 472 C 748 488 718 497 729 469 Q 729 462 737 449 Q 747 424 748 57 Q 745 38 737 27 Q 724 20 692 28 Z" fill="lightgray"></path>
</g>
		<text x="40" y="140" font-size="128" fill="#999999">7</text></g>
		<g id="id1:id2:id2" transform="matrix(1.0,0,0,1.0,2048,0.0)">			<g stroke="lightgray" stroke-width="4" transform="scale(4, 4)"> <rect x="0" y="0" width="256" height="256" fill="white" stroke-width="4"/></g>
			<g transform="scale(0.92, -0.92) translate(60, -920)">					<path d="M 286 360 Q 301 684 318 736 Q 321 746 301 761 Q 267 779 244 783 Q 228 787 220 778 Q 213 771 221 756 Q 246 720 246 695 Q 253 533 245 346 C 244 316 285 330 286 360 Z" fill="black"></path>
				<path d="M 351 379 Q 317 372 286 360 L 245 346 Q 202 333 167 315 Q 151 309 154 329 Q 157 381 160 436 Q 163 461 152 475 Q 136 491 111 504 Q 98 508 89 506 Q 79 502 87 482 Q 115 427 109 368 Q 105 313 84 287 Q 68 268 77 254 Q 90 241 108 231 Q 123 225 132 234 Q 163 285 326 333 Q 341 337 352 338 C 382 343 380 386 351 379 Z" fill="black"></path>
				<path d="M 418 460 Q 422 493 434 512 Q 441 525 432 538 Q 416 551 387 570 Q 377 577 365 572 Q 358 568 360 556 Q 375 532 366 437 Q 362 403 352 381 Q 351 381 351 379 L 352 338 Q 355 323 361 312 Q 368 297 380 307 Q 402 328 408 403 Q 412 425 415 446 L 418 460 Z" fill="black"></path>
				<path d="M 646 681 Q 701 694 764 706 Q 809 716 815 722 Q 822 729 819 737 Q 812 747 786 755 Q 758 759 731 749 Q 697 739 661 727 L 607 714 Q 555 704 496 698 Q 463 692 487 677 Q 520 659 592 670 L 646 681 Z" fill="black"></path>
				<path d="M 592 670 Q 564 601 496 516 Q 492 509 497 506 Q 504 505 514 512 Q 617 585 646 681 L 661 727 Q 671 790 684 819 Q 690 829 682 837 Q 675 846 645 855 Q 623 862 615 858 Q 603 852 608 839 Q 626 788 607 714 L 592 670 Z" fill="black"></path>
				<path d="M 667 628 Q 707 597 755 551 Q 768 538 781 534 Q 787 534 792 542 Q 801 552 789 586 Q 780 616 723 635 Q 686 647 666 652 Q 659 656 658 646 Q 659 636 667 628 Z" fill="black"></path>
				<path d="M 774 472 Q 837 478 918 478 Q 976 478 983 487 Q 989 497 973 511 Q 925 547 889 538 Q 765 510 423 461 Q 420 461 418 460 C 401 457 401 457 415 446 Q 430 431 448 426 Q 467 422 483 425 Q 600 459 729 469 L 774 472 Z" fill="black"></path>
				<path d="M 482 352 Q 472 356 451 360 Q 439 364 437 359 Q 431 353 438 339 Q 460 291 474 214 Q 475 190 490 175 Q 505 154 510 169 Q 514 179 514 197 L 510 230 Q 500 306 499 327 C 498 347 498 347 482 352 Z" fill="red"></path>
				<path d="M 641 249 Q 659 310 678 329 Q 699 353 678 366 Q 617 399 616 399 Q 607 399 599 393 Q 563 369 482 352 C 453 346 470 318 499 327 Q 502 328 509 330 Q 546 339 579 346 Q 601 350 606 342 Q 613 338 606 308 Q 600 283 593 252 C 586 223 632 220 641 249 Z" fill="lightgray"></path>
				<path d="M 514 197 Q 554 207 654 219 Q 664 220 665 229 Q 665 236 641 249 L 593 252 L 592 252 Q 549 239 510 230 C 481 223 485 190 514 197 Z" fill="lightgray"></path>
				<path d="M 692 28 Q 670 32 641 37 Q 628 40 629 32 Q 630 23 641 14 Q 710 -35 753 -74 Q 766 -84 780 -67 Q 822 -9 815 72 Q 803 279 813 404 Q 820 432 813 443 Q 804 455 774 472 C 748 488 718 497 729 469 Q 729 462 737 449 Q 747 424 748 57 Q 745 38 737 27 Q 724 20 692 28 Z" fill="lightgray"></path>
</g>
		<text x="40" y="140" font-size="128" fill="#999999">8</text></g>
		<g id="id1:id3:id3" transform="matrix(1.0,0,0,1.0,3072,0.0)">			<g stroke="lightgray" stroke-width="4" transform="scale(4, 4)"> <rect x="0" y="0" width="256" height="256" fill="white" stroke-width="4"/></g>
			<g transform="scale(0.92, -0.92) translate(60, -920)">					<path d="M 286 360 Q 301 684 318 736 Q 321 746 301 761 Q 267 779 244 783 Q 228 787 220 778 Q 213 771 221 756 Q 246 720 246 695 Q 253 533 245 346 C 244 316 285 330 286 360 Z" fill="black"></path>
				<path d="M 351 379 Q 317 372 286 360 L 245 346 Q 202 333 167 315 Q 151 309 154 329 Q 157 381 160 436 Q 163 461 152 475 Q 136 491 111 504 Q 98 508 89 506 Q 79 502 87 482 Q 115 427 109 368 Q 105 313 84 287 Q 68 268 77 254 Q 90 241 108 231 Q 123 225 132 234 Q 163 285 326 333 Q 341 337 352 338 C 382 343 380 386 351 379 Z" fill="black"></path>
				<path d="M 418 460 Q 422 493 434 512 Q 441 525 432 538 Q 416 551 387 570 Q 377 577 365 572 Q 358 568 360 556 Q 375 532 366 437 Q 362 403 352 381 Q 351 381 351 379 L 352 338 Q 355 323 361 312 Q 368 297 380 307 Q 402 328 408 403 Q 412 425 415 446 L 418 460 Z" fill="black"></path>
				<path d="M 646 681 Q 701 694 764 706 Q 809 716 815 722 Q 822 729 819 737 Q 812 747 786 755 Q 758 759 731 749 Q 697 739 661 727 L 607 714 Q 555 704 496 698 Q 463 692 487 677 Q 520 659 592 670 L 646 681 Z" fill="black"></path>
				<path d="M 592 670 Q 564 601 496 516 Q 492 509 497 506 Q 504 505 514 512 Q 617 585 646 681 L 661 727 Q 671 790 684 819 Q 690 829 682 837 Q 675 846 645 855 Q 623 862 615 858 Q 603 852 608 839 Q 626 788 607 714 L 592 670 Z" fill="black"></path>
				<path d="M 667 628 Q 707 597 755 551 Q 768 538 781 534 Q 787 534 792 542 Q 801 552 789 586 Q 780 616 723 635 Q 686 647 666 652 Q 659 656 658 646 Q 659 636 667 628 Z" fill="black"></path>
				<path d="M 774 472 Q 837 478 918 478 Q 976 478 983 487 Q 989 497 973 511 Q 925 547 889 538 Q 765 510 423 461 Q 420 461 418 460 C 401 457 401 457 415 446 Q 430 431 448 426 Q 467 422 483 425 Q 600 459 729 469 L 774 472 Z" fill="black"></path>
				<path d="M 482 352 Q 472 356 451 360 Q 439 364 437 359 Q 431 353 438 339 Q 460 291 474 214 Q 475 190 490 175 Q 505 154 510 169 Q 514 179 514 197 L 510 230 Q 500 306 499 327 C 498 347 498 347 482 352 Z" fill="black"></path>
				<path d="M 641 249 Q 659 310 678 329 Q 699 353 678 366 Q 617 399 616 399 Q 607 399 599 393 Q 563 369 482 352 C 453 346 470 318 499 327 Q 502 328 509 330 Q 546 339 579 346 Q 601 350 606 342 Q 613 338 606 308 Q 600 283 593 252 C 586 223 632 220 641 249 Z" fill="red"></path>
				<path d="M 514 197 Q 554 207 654 219 Q 664 220 665 229 Q 665 236 641 249 L 593 252 L 592 252 Q 549 239 510 230 C 481 223 485 190 514 197 Z" fill="lightgray"></path>
				<path d="M 692 28 Q 670 32 641 37 Q 628 40 629 32 Q 630 23 641 14 Q 710 -35 753 -74 Q 766 -84 780 -67 Q 822 -9 815 72 Q 803 279 813 404 Q 820 432 813 443 Q 804 455 774 472 C 748 488 718 497 729 469 Q 729 462 737 449 Q 747 424 748 57 Q 745 38 737 27 Q 724 20 692 28 Z" fill="lightgray"></path>
</g>
		<text x="40" y="140" font-size="128" fill="#999999">9</text></g>
		<g id="id1:id4:id4" transform="matrix(1.0,0,0,1.0,4096,0.0)">			<g stroke="lightgray" stroke-width="4" transform="scale(4, 4)"> <rect x="0" y="0" width="256" height="256" fill="white" stroke-width="4"/></g>
			<g transform="scale(0.92, -0.92) translate(60, -920)">					<path d="M 286 360 Q 301 684 318 736 Q 321 746 301 761 Q 267 779 244 783 Q 228 787 220 778 Q 213 771 221 756 Q 246 720 246 695 Q 253 533 245 346 C 244 316 285 330 286 360 Z" fill="black"></path>
				<path d="M 351 379 Q 317 372 286 360 L 245 346 Q 202 333 167 315 Q 151 309 154 329 Q 157 381 160 436 Q 163 461 152 475 Q 136 491 111 504 Q 98 508 89 506 Q 79 502 87 482 Q 115 427 109 368 Q 105 313 84 287 Q 68 268 77 254 Q 90 241 108 231 Q 123 225 132 234 Q 163 285 326 333 Q 341 337 352 338 C 382 343 380 386 351 379 Z" fill="black"></path>
				<path d="M 418 460 Q 422 493 434 512 Q 441 525 432 538 Q 416 551 387 570 Q 377 577 365 572 Q 358 568 360 556 Q 375 532 366 437 Q 362 403 352 381 Q 351 381 351 379 L 352 338 Q 355 323 361 312 Q 368 297 380 307 Q 402 328 408 403 Q 412 425 415 446 L 418 460 Z" fill="black"></path>
				<path d="M 646 681 Q 701 694 764 706 Q 809 716 815 722 Q 822 729 819 737 Q 812 747 786 755 Q 758 759 731 749 Q 697 739 661 727 L 607 714 Q 555 704 496 698 Q 463 692 487 677 Q 520 659 592 670 L 646 681 Z" fill="black"></path>
				<path d="M 592 670 Q 564 601 496 516 Q 492 509 497 506 Q 504 505 514 512 Q 617 585 646 681 L 661 727 Q 671 790 684 819 Q 690 829 682 837 Q 675 846 645 855 Q 623 862 615 858 Q 603 852 608 839 Q 626 788 607 714 L 592 670 Z" fill="black"></path>
				<path d="M 667 628 Q 707 597 755 551 Q 768 538 781 534 Q 787 534 792 542 Q 801 552 789 586 Q 780 616 723 635 Q 686 647 666 652 Q 659 656 658 646 Q 659 636 667 628 Z" fill="black"></path>
				<path d="M 774 472 Q 837 478 918 478 Q 976 478 983 487 Q 989 497 973 511 Q 925 547 889 538 Q 765 510 423 461 Q 420 461 418 460 C 401 457 401 457 415 446 Q 430 431 448 426 Q 467 422 483 425 Q 600 459 729 469 L 774 472 Z" fill="black"></path>
				<path d="M 482 352 Q 472 356 451 360 Q 439 364 437 359 Q 431 353 438 339 Q 460 291 474 214 Q 475 190 490 175 Q 505 154 510 169 Q 514 179 514 197 L 510 230 Q 500 306 499 327 C 498 347 498 347 482 352 Z" fill="black"></path>
				<path d="M 641 249 Q 659 310 678 329 Q 699 353 678 366 Q 617 399 616 399 Q 607 399 599 393 Q 563 369 482 352 C 453 346 470 318 499 327 Q 502 328 509 330 Q 546 339 579 346 Q 601 350 606 342 Q 613 338 606 308 Q 600 283 593 252 C 586 223 632 220 641 249 Z" fill="black"></path>
				<path d="M 514 197 Q 554 207 654 219 Q 664 220 665 229 Q 665 236 641 249 L 593 252 L 592 252 Q 549 239 510 230 C 481 223 485 190 514 197 Z" fill="red"></path>
				<path d="M 692 28 Q 670 32 641 37 Q 628 40 629 32 Q 630 23 641 14 Q 710 -35 753 -74 Q 766 -84 780 -67 Q 822 -9 815 72 Q 803 279 813 404 Q 820 432 813 443 Q 804 455 774 472 C 748 488 718 497 729 469 Q 729 462 737 449 Q 747 424 748 57 Q 745 38 737 27 Q 724 20 692 28 Z" fill="lightgray"></path>
</g>
		<text x="40" y="140" font-size="128" fill="#999999">10</text></g>
</g>
	<g id="id2:id2" transform="translate(0.0,2048)">
		<g id="id2:id0:id0" transform="matrix(1.0,0,0,1.0,0,0.0)">			<g stroke="lightgray" stroke-width="4" transform="scale(4, 4)"> <rect x="0" y="0" width="256" height="256" fill="white" stroke-width="4"/></g>
			<g transform="scale(0.92, -0.92) translate(60, -920)">					<path d="M 286 360 Q 301 684 318 736 Q 321 746 301 761 Q 267 779 244 783 Q 228 787 220 778 Q 213 771 221 756 Q 246 720 246 695 Q 253 533 245 346 C 244 316 285 330 286 360 Z" fill="black"></path>
				<path d="M 351 379 Q 317 372 286 360 L 245 346 Q 202 333 167 315 Q 151 309 154 329 Q 157 381 160 436 Q 163 461 152 475 Q 136 491 111 504 Q 98 508 89 506 Q 79 502 87 482 Q 115 427 109 368 Q 105 313 84 287 Q 68 268 77 254 Q 90 241 108 231 Q 123 225 132 234 Q 163 285 326 333 Q 341 337 352 338 C 382 343 380 386 351 379 Z" fill="black"></path>
				<path d="M 418 460 Q 422 493 434 512 Q 441 525 432 538 Q 416 551 387 570 Q 377 577 365 572 Q 358 568 360 556 Q 375 532 366 437 Q 362 403 352 381 Q 351 381 351 379 L 352 338 Q 355 323 361 312 Q 368 297 380 307 Q 402 328 408 403 Q 412 425 415 446 L 418 460 Z" fill="black"></path>
				<path d="M 646 681 Q 701 694 764 706 Q 809 716 815 722 Q 822 729 819 737 Q 812 747 786 755 Q 758 759 731 749 Q 697 739 661 727 L 607 714 Q 555 704 496 698 Q 463 692 487 677 Q 520 659 592 670 L 646 681 Z" fill="black"></path>
				<path d="M 592 670 Q 564 601 496 516 Q 492 509 497 506 Q 504 505 514 512 Q 617 585 646 681 L 661 727 Q 671 790 684 819 Q 690 829 682 837 Q 675 846 645 855 Q 623 862 615 858 Q 603 852 608 839 Q 626 788 607 714 L 592 670 Z" fill="black"></path>
				<path d="M 667 628 Q 707 597 755 551 Q 768 538 781 534 Q 787 534 792 542 Q 801 552 789 586 Q 780 616 723 635 Q 686 647 666 652 Q 659 656 658 646 Q 659 636 667 628 Z" fill="black"></path>
				<path d="M 774 472 Q 837 478 918 478 Q 976 478 983 487 Q 989 497 973 511 Q 925 547 889 538 Q 765 510 423 461 Q 420 461 418 460 C 401 457 401 457 415 446 Q 430 431 448 426 Q 467 422 483 425 Q 600 459 729 469 L 774 472 Z" fill="black"></path>
				<path d="M 482 352 Q 472 356 451 360 Q 439 364 437 359 Q 431 353 438 339 Q 460 291 474 214 Q 475 190 490 175 Q 505 154 510 169 Q 514 179 514 197 L 510 230 Q 500 306 499 327 C 498 347 498 347 482 352 Z" fill="black"></path>
				<path d="M 641 249 Q 659 310 678 329 Q 699 353 678 366 Q 617 399 616 399 Q 607 399 599 393 Q 563 369 482 352 C 453 346 470 318 499 327 Q 502 328 509 330 Q 546 339 579 346 Q 601 350 606 342 Q 613 338 606 308 Q 600 283 593 252 C 586 223 632 220 641 249 Z" fill="black"></path>
				<path d="M 514 197 Q 554 207 654 219 Q 664 220 665 229 Q 665 236 641 249 L 593 252 L 592 252 Q 549 239 510 230 C 481 223 485 190 514 197 Z" fill="black"></path>
				<path d="M 692 28 Q 670 32 641 37 Q 628 40 629 32 Q 630 23 641 14 Q 710 -35 753 -74 Q 766 -84 780 -67 Q 822 -9 815 72 Q 803 279 813 404 Q 820 432 813 443 Q 804 455 774 472 C 748 488 718 497 729 469 Q 729 462 737 449 Q 747 424 748 57 Q 745 38 737 27 Q 724 20 692 28 Z" fill="red"></path>
</g>
		<text x="40" y="140" font-size="128" fill="#999999">11</text></g>
		<g id="id2:id1:id1" transform="matrix(1.0,0,0,1.0,1024,0.0)">			<g stroke="white" stroke-width="4" transform="scale(4, 4)"> <rect x="1" y="1" width="255" height="255" fill="white" stroke-width="0"/></g>
</g>
		<g id="id2:id2:id2" transform="matrix(1.0,0,0,1.0,2048,0.0)">			<g stroke="white" stroke-width="4" transform="scale(4, 4)"> <rect x="1" y="1" width="255" height="255" fill="white" stroke-width="0"/></g>
</g>
		<g id="id2:id3:id3" transform="matrix(1.0,0,0,1.0,3072,0.0)">			<g stroke="white" stroke-width="4" transform="scale(4, 4)"> <rect x="1" y="1" width="255" height="255" fill="white" stroke-width="0"/></g>
</g>
		<g id="id2:id4:id4" transform="matrix(1.0,0,0,1.0,4096,0.0)">			<g stroke="white" stroke-width="4" transform="scale(4, 4)"> <rect x="1" y="1" width="255" height="255" fill="white" stroke-width="0"/></g>
</g>
</g>
</svg>
