<?xml version="1.0" standalone="no"?>
<!DOCTYPE svg PUBLIC "-//W3C//DTD SVG 1.1//EN"
 "http://www.w3.org/Graphics/SVG/1.1/DTD/svg11.dtd">
<!-- generate by Handict dictionary app com.asnsami.handict -->

<svg xmlns="http://www.w3.org/2000/svg" xmlns:sodipodi="http://sodipodi.sourceforge.net/DTD/sodipodi-0.dtd" version="1.1" width="640" height="128" viewBox="0 0 5120 1024">
	<g id="id0:id0" transform="translate(0.0,0)">
		<g id="id0:id0:id0" transform="matrix(1.0,0,0,1.0,0,0.0)">			<g stroke="lightgray" stroke-width="4" transform="scale(4, 4)"> <rect x="0" y="0" width="256" height="256" fill="white" stroke-width="4"/></g>
			<g transform="scale(0.92, -0.92) translate(60, -920)">					<path d="M 613 523 Q 644 646 685 678 Q 703 699 686 718 Q 599 778 542 745 Q 449 711 346 689 C 317 683 315 645 344 651 Q 357 652 375 659 Q 463 678 549 699 Q 571 706 580 697 Q 592 685 589 661 Q 577 588 560 529 C 552 500 605 494 613 523 Z" fill="red"></path>
				<path d="M 312 443 Q 363 422 414 437 Q 499 453 588 473 Q 628 482 635 488 Q 645 497 640 507 Q 633 517 613 523 L 560 529 Q 544 528 530 521 Q 427 485 315 474 Q 314 474 314 473 C 285 467 284 454 312 443 Z" fill="lightgray"></path>
				<path d="M 326 134 Q 411 68 662 78 Q 813 84 895 113 Q 923 119 931 134 Q 937 144 926 165 Q 904 210 888 308 Q 884 324 876 329 Q 870 332 867 317 Q 854 263 843 218 Q 833 178 809 164 Q 787 151 672 140 Q 554 130 461 141 Q 391 151 364 169 Q 328 193 318 237 Q 305 301 312 439 Q 312 442 312 443 L 314 473 Q 321 591 344 651 C 353 680 354 684 346 689 L 346 690 Q 333 703 295 720 Q 262 732 252 722 Q 243 715 257 693 Q 278 662 276 615 Q 270 482 264 330 Q 255 198 326 134 Z" fill="lightgray"></path>
</g>
		<text x="40" y="140" font-size="128" fill="#999999">1</text></g>
		<g id="id0:id1:id1" transform="matrix(1.0,0,0,1.0,1024,0.0)">			<g stroke="lightgray" stroke-width="4" transform="scale(4, 4)"> <rect x="0" y="0" width="256" height="256" fill="white" stroke-width="4"/></g>
			<g transform="scale(0.92, -0.92) translate(60, -920)">					<path d="M 613 523 Q 644 646 685 678 Q 703 699 686 718 Q 599 778 542 745 Q 449 711 346 689 C 317 683 315 645 344 651 Q 357 652 375 659 Q 463 678 549 699 Q 571 706 580 697 Q 592 685 589 661 Q 577 588 560 529 C 552 500 605 494 613 523 Z" fill="black"></path>
				<path d="M 312 443 Q 363 422 414 437 Q 499 453 588 473 Q 628 482 635 488 Q 645 497 640 507 Q 633 517 613 523 L 560 529 Q 544 528 530 521 Q 427 485 315 474 Q 314 474 314 473 C 285 467 284 454 312 443 Z" fill="red"></path>
				<path d="M 326 134 Q 411 68 662 78 Q 813 84 895 113 Q 923 119 931 134 Q 937 144 926 165 Q 904 210 888 308 Q 884 324 876 329 Q 870 332 867 317 Q 854 263 843 218 Q 833 178 809 164 Q 787 151 672 140 Q 554 130 461 141 Q 391 151 364 169 Q 328 193 318 237 Q 305 301 312 439 Q 312 442 312 443 L 314 473 Q 321 591 344 651 C 353 680 354 684 346 689 L 346 690 Q 333 703 295 720 Q 262 732 252 722 Q 243 715 257 693 Q 278 662 276 615 Q 270 482 264 330 Q 255 198 326 134 Z" fill="lightgray"></path>
</g>
		<text x="40" y="140" font-size="128" fill="#999999">2</text></g>
		<g id="id0:id2:id2" transform="matrix(1.0,0,0,1.0,2048,0.0)">			<g stroke="lightgray" stroke-width="4" transform="scale(4, 4)"> <rect x="0" y="0" width="256" height="256" fill="white" stroke-width="4"/></g>
			<g transform="scale(0.92, -0.92) translate(60, -920)">					<path d="M 613 523 Q 644 646 685 678 Q 703 699 686 718 Q 599 778 542 745 Q 449 711 346 689 C 317 683 315 645 344 651 Q 357 652 375 659 Q 463 678 549 699 Q 571 706 580 697 Q 592 685 589 661 Q 577 588 560 529 C 552 500 605 494 613 523 Z" fill="black"></path>
				<path d="M 312 443 Q 363 422 414 437 Q 499 453 588 473 Q 628 482 635 488 Q 645 497 640 507 Q 633 517 613 523 L 560 529 Q 544 528 530 521 Q 427 485 315 474 Q 314 474 314 473 C 285 467 284 454 312 443 Z" fill="black"></path>
				<path d="M 326 134 Q 411 68 662 78 Q 813 84 895 113 Q 923 119 931 134 Q 937 144 926 165 Q 904 210 888 308 Q 884 324 876 329 Q 870 332 867 317 Q 854 263 843 218 Q 833 178 809 164 Q 787 151 672 140 Q 554 130 461 141 Q 391 151 364 169 Q 328 193 318 237 Q 305 301 312 439 Q 312 442 312 443 L 314 473 Q 321 591 344 651 C 353 680 354 684 346 689 L 346 690 Q 333 703 295 720 Q 262 732 252 722 Q 243 715 257 693 Q 278 662 276 615 Q 270 482 264 330 Q 255 198 326 134 Z" fill="red"></path>
</g>
		<text x="40" y="140" font-size="128" fill="#999999">3</text></g>
		<g id="id0:id3:id3" transform="matrix(1.0,0,0,1.0,3072,0.0)">			<g stroke="white" stroke-width="4" transform="scale(4, 4)"> <rect x="1" y="1" width="255" height="255" fill="white" stroke-width="0"/></g>
</g>
		<g id="id0:id4:id4" transform="matrix(1.0,0,0,1.0,4096,0.0)">			<g stroke="white" stroke-width="4" transform="scale(4, 4)"> <rect x="1" y="1" width="255" height="255" fill="white" stroke-width="0"/></g>
</g>
</g>
</svg>
