<?xml version="1.0" standalone="no"?>
<!DOCTYPE svg PUBLIC "-//W3C//DTD SVG 1.1//EN"
 "http://www.w3.org/Graphics/SVG/1.1/DTD/svg11.dtd">
<!-- generate by Japanese dictionary app com.asnsami.kanjidictionary -->

<svg xmlns="http://www.w3.org/2000/svg" xmlns:sodipodi="http://sodipodi.sourceforge.net/DTD/sodipodi-0.dtd" version="1.1" width="640" height="128" viewBox="0 0 5120 1024">
	<g id="id0:id0" transform="translate(0.0,0)">
		<g id="id0:id0:id0" transform="matrix(1.0,0,0,1.0,0,0.0)">			<g stroke="lightgray" stroke-width="4" transform="scale(4, 4)"> <rect x="0" y="0" width="256" height="256" fill="white" stroke-width="4"/></g>
			<g transform="scale(0.92, -0.92) translate(60, -920)">					<path d="M 657 508 Q 696 634 739 664 Q 758 686 741 708 Q 720 724 658 753 Q 636 762 610 752 Q 489 695 295 659 C 266 653 277 611 306 620 Q 396 647 425 652 L 471 664 Q 523 679 581 693 Q 612 703 626 691 Q 639 678 634 651 Q 616 572 594 509 C 584 481 648 479 657 508 Z" fill="red"></path>
				<path d="M 425 652 Q 426 640 422 465 C 421 435 468 447 472 477 Q 485 585 492 613 Q 504 640 472 663 L 471 664 C 448 683 424 682 425 652 Z" fill="lightgray"></path>
				<path d="M 273 411 Q 291 398 314 404 Q 428 435 675 469 Q 687 470 688 481 Q 688 490 657 508 L 594 509 Q 530 493 472 477 L 422 465 Q 343 450 276 439 Q 273 439 274 438 C 245 432 247 425 273 411 Z" fill="lightgray"></path>
				<path d="M 929 157 Q 905 224 890 337 Q 887 356 878 362 Q 868 369 864 343 Q 851 201 831 176 Q 774 113 538 115 Q 409 121 355 144 Q 307 169 297 202 Q 276 253 272 387 Q 272 400 273 411 L 274 438 Q 280 549 301 605 Q 304 612 306 620 C 314 645 314 645 295 659 Q 294 660 292 662 Q 229 708 211 703 Q 192 696 202 675 Q 227 629 222 560 Q 218 232 249 167 Q 286 80 446 59 Q 548 46 707 56 Q 851 66 907 97 Q 946 118 929 157 Z" fill="lightgray"></path>
</g>
		<text x="40" y="140" font-size="128" fill="#999999">1</text></g>
		<g id="id0:id1:id1" transform="matrix(1.0,0,0,1.0,1024,0.0)">			<g stroke="lightgray" stroke-width="4" transform="scale(4, 4)"> <rect x="0" y="0" width="256" height="256" fill="white" stroke-width="4"/></g>
			<g transform="scale(0.92, -0.92) translate(60, -920)">					<path d="M 657 508 Q 696 634 739 664 Q 758 686 741 708 Q 720 724 658 753 Q 636 762 610 752 Q 489 695 295 659 C 266 653 277 611 306 620 Q 396 647 425 652 L 471 664 Q 523 679 581 693 Q 612 703 626 691 Q 639 678 634 651 Q 616 572 594 509 C 584 481 648 479 657 508 Z" fill="black"></path>
				<path d="M 425 652 Q 426 640 422 465 C 421 435 468 447 472 477 Q 485 585 492 613 Q 504 640 472 663 L 471 664 C 448 683 424 682 425 652 Z" fill="red"></path>
				<path d="M 273 411 Q 291 398 314 404 Q 428 435 675 469 Q 687 470 688 481 Q 688 490 657 508 L 594 509 Q 530 493 472 477 L 422 465 Q 343 450 276 439 Q 273 439 274 438 C 245 432 247 425 273 411 Z" fill="lightgray"></path>
				<path d="M 929 157 Q 905 224 890 337 Q 887 356 878 362 Q 868 369 864 343 Q 851 201 831 176 Q 774 113 538 115 Q 409 121 355 144 Q 307 169 297 202 Q 276 253 272 387 Q 272 400 273 411 L 274 438 Q 280 549 301 605 Q 304 612 306 620 C 314 645 314 645 295 659 Q 294 660 292 662 Q 229 708 211 703 Q 192 696 202 675 Q 227 629 222 560 Q 218 232 249 167 Q 286 80 446 59 Q 548 46 707 56 Q 851 66 907 97 Q 946 118 929 157 Z" fill="lightgray"></path>
</g>
		<text x="40" y="140" font-size="128" fill="#999999">2</text></g>
		<g id="id0:id2:id2" transform="matrix(1.0,0,0,1.0,2048,0.0)">			<g stroke="lightgray" stroke-width="4" transform="scale(4, 4)"> <rect x="0" y="0" width="256" height="256" fill="white" stroke-width="4"/></g>
			<g transform="scale(0.92, -0.92) translate(60, -920)">					<path d="M 657 508 Q 696 634 739 664 Q 758 686 741 708 Q 720 724 658 753 Q 636 762 610 752 Q 489 695 295 659 C 266 653 277 611 306 620 Q 396 647 425 652 L 471 664 Q 523 679 581 693 Q 612 703 626 691 Q 639 678 634 651 Q 616 572 594 509 C 584 481 648 479 657 508 Z" fill="black"></path>
				<path d="M 425 652 Q 426 640 422 465 C 421 435 468 447 472 477 Q 485 585 492 613 Q 504 640 472 663 L 471 664 C 448 683 424 682 425 652 Z" fill="black"></path>
				<path d="M 273 411 Q 291 398 314 404 Q 428 435 675 469 Q 687 470 688 481 Q 688 490 657 508 L 594 509 Q 530 493 472 477 L 422 465 Q 343 450 276 439 Q 273 439 274 438 C 245 432 247 425 273 411 Z" fill="red"></path>
				<path d="M 929 157 Q 905 224 890 337 Q 887 356 878 362 Q 868 369 864 343 Q 851 201 831 176 Q 774 113 538 115 Q 409 121 355 144 Q 307 169 297 202 Q 276 253 272 387 Q 272 400 273 411 L 274 438 Q 280 549 301 605 Q 304 612 306 620 C 314 645 314 645 295 659 Q 294 660 292 662 Q 229 708 211 703 Q 192 696 202 675 Q 227 629 222 560 Q 218 232 249 167 Q 286 80 446 59 Q 548 46 707 56 Q 851 66 907 97 Q 946 118 929 157 Z" fill="lightgray"></path>
</g>
		<text x="40" y="140" font-size="128" fill="#999999">3</text></g>
		<g id="id0:id3:id3" transform="matrix(1.0,0,0,1.0,3072,0.0)">			<g stroke="lightgray" stroke-width="4" transform="scale(4, 4)"> <rect x="0" y="0" width="256" height="256" fill="white" stroke-width="4"/></g>
			<g transform="scale(0.92, -0.92) translate(60, -920)">					<path d="M 657 508 Q 696 634 739 664 Q 758 686 741 708 Q 720 724 658 753 Q 636 762 610 752 Q 489 695 295 659 C 266 653 277 611 306 620 Q 396 647 425 652 L 471 664 Q 523 679 581 693 Q 612 703 626 691 Q 639 678 634 651 Q 616 572 594 509 C 584 481 648 479 657 508 Z" fill="black"></path>
				<path d="M 425 652 Q 426 640 422 465 C 421 435 468 447 472 477 Q 485 585 492 613 Q 504 640 472 663 L 471 664 C 448 683 424 682 425 652 Z" fill="black"></path>
				<path d="M 273 411 Q 291 398 314 404 Q 428 435 675 469 Q 687 470 688 481 Q 688 490 657 508 L 594 509 Q 530 493 472 477 L 422 465 Q 343 450 276 439 Q 273 439 274 438 C 245 432 247 425 273 411 Z" fill="black"></path>
				<path d="M 929 157 Q 905 224 890 337 Q 887 356 878 362 Q 868 369 864 343 Q 851 201 831 176 Q 774 113 538 115 Q 409 121 355 144 Q 307 169 297 202 Q 276 253 272 387 Q 272 400 273 411 L 274 438 Q 280 549 301 605 Q 304 612 306 620 C 314 645 314 645 295 659 Q 294 660 292 662 Q 229 708 211 703 Q 192 696 202 675 Q 227 629 222 560 Q 218 232 249 167 Q 286 80 446 59 Q 548 46 707 56 Q 851 66 907 97 Q 946 118 929 157 Z" fill="red"></path>
</g>
		<text x="40" y="140" font-size="128" fill="#999999">4</text></g>
		<g id="id0:id4:id4" transform="matrix(1.0,0,0,1.0,4096,0.0)">			<g stroke="white" stroke-width="4" transform="scale(4, 4)"> <rect x="1" y="1" width="255" height="255" fill="white" stroke-width="0"/></g>
</g>
</g>
</svg>
