<?xml version="1.0" standalone="no"?>
<!DOCTYPE svg PUBLIC "-//W3C//DTD SVG 1.1//EN"
 "http://www.w3.org/Graphics/SVG/1.1/DTD/svg11.dtd">
<!-- generate by Japanese dictionary app com.asnsami.kanjidictionary -->

<svg xmlns="http://www.w3.org/2000/svg" xmlns:sodipodi="http://sodipodi.sourceforge.net/DTD/sodipodi-0.dtd" version="1.1" width="640" height="128" viewBox="0 0 5120 1024">
	<g id="id0:id0" transform="translate(0.0,0)">
		<g id="id0:id0:id0" transform="matrix(1.0,0,0,1.0,0,0.0)">			<g stroke="lightgray" stroke-width="4" transform="scale(4, 4)"> <rect x="0" y="0" width="256" height="256" fill="white" stroke-width="4"/></g>
			<g transform="scale(0.92, -0.92) translate(60, -920)">					<path d="M 503 689 Q 647 731 679 733 Q 719 739 721 741 Q 727 751 715 766 Q 654 823 618 823 Q 609 819 607 808 Q 603 772 396 700 Q 342 682 279 665 Q 272 655 278 652 Q 299 646 437 676 Q 444 677 454 679 L 503 689 Z" fill="red"></path>
				<path d="M 312 511 Q 293 530 256 528 Q 243 524 249 511 Q 285 441 255 315 Q 233 281 260 230 Q 263 224 269 217 Q 276 204 288 210 Q 318 234 320 348 Q 321 441 325 470 C 328 498 328 498 312 511 Z" fill="lightgray"></path>
				<path d="M 541 504 Q 611 514 679 518 Q 715 522 717 498 Q 726 324 704 299 Q 695 295 638 302 Q 620 306 617 301 Q 613 295 626 284 Q 681 241 715 207 Q 731 192 746 208 Q 779 247 779 328 Q 773 440 787 505 Q 791 527 780 539 Q 750 567 729 579 Q 714 586 704 576 Q 698 567 542 536 L 484 528 Q 420 522 312 511 C 282 508 295 467 325 470 Q 332 470 342 471 Q 414 487 484 496 L 541 504 Z" fill="lightgray"></path>
				<path d="M 480 1 Q 486 -27 493 -37 Q 499 -44 507 -42 Q 522 -33 531 32 Q 541 117 539 200 Q 536 266 541 504 L 542 536 Q 542 581 555 637 Q 559 656 543 667 Q 519 683 503 689 C 476 702 444 707 454 679 Q 467 643 483 606 Q 483 567 484 528 L 484 496 Q 478 21 480 1 Z" fill="lightgray"></path>
</g>
		<text x="40" y="140" font-size="128" fill="#999999">1</text></g>
		<g id="id0:id1:id1" transform="matrix(1.0,0,0,1.0,1024,0.0)">			<g stroke="lightgray" stroke-width="4" transform="scale(4, 4)"> <rect x="0" y="0" width="256" height="256" fill="white" stroke-width="4"/></g>
			<g transform="scale(0.92, -0.92) translate(60, -920)">					<path d="M 503 689 Q 647 731 679 733 Q 719 739 721 741 Q 727 751 715 766 Q 654 823 618 823 Q 609 819 607 808 Q 603 772 396 700 Q 342 682 279 665 Q 272 655 278 652 Q 299 646 437 676 Q 444 677 454 679 L 503 689 Z" fill="black"></path>
				<path d="M 312 511 Q 293 530 256 528 Q 243 524 249 511 Q 285 441 255 315 Q 233 281 260 230 Q 263 224 269 217 Q 276 204 288 210 Q 318 234 320 348 Q 321 441 325 470 C 328 498 328 498 312 511 Z" fill="red"></path>
				<path d="M 541 504 Q 611 514 679 518 Q 715 522 717 498 Q 726 324 704 299 Q 695 295 638 302 Q 620 306 617 301 Q 613 295 626 284 Q 681 241 715 207 Q 731 192 746 208 Q 779 247 779 328 Q 773 440 787 505 Q 791 527 780 539 Q 750 567 729 579 Q 714 586 704 576 Q 698 567 542 536 L 484 528 Q 420 522 312 511 C 282 508 295 467 325 470 Q 332 470 342 471 Q 414 487 484 496 L 541 504 Z" fill="lightgray"></path>
				<path d="M 480 1 Q 486 -27 493 -37 Q 499 -44 507 -42 Q 522 -33 531 32 Q 541 117 539 200 Q 536 266 541 504 L 542 536 Q 542 581 555 637 Q 559 656 543 667 Q 519 683 503 689 C 476 702 444 707 454 679 Q 467 643 483 606 Q 483 567 484 528 L 484 496 Q 478 21 480 1 Z" fill="lightgray"></path>
</g>
		<text x="40" y="140" font-size="128" fill="#999999">2</text></g>
		<g id="id0:id2:id2" transform="matrix(1.0,0,0,1.0,2048,0.0)">			<g stroke="lightgray" stroke-width="4" transform="scale(4, 4)"> <rect x="0" y="0" width="256" height="256" fill="white" stroke-width="4"/></g>
			<g transform="scale(0.92, -0.92) translate(60, -920)">					<path d="M 503 689 Q 647 731 679 733 Q 719 739 721 741 Q 727 751 715 766 Q 654 823 618 823 Q 609 819 607 808 Q 603 772 396 700 Q 342 682 279 665 Q 272 655 278 652 Q 299 646 437 676 Q 444 677 454 679 L 503 689 Z" fill="black"></path>
				<path d="M 312 511 Q 293 530 256 528 Q 243 524 249 511 Q 285 441 255 315 Q 233 281 260 230 Q 263 224 269 217 Q 276 204 288 210 Q 318 234 320 348 Q 321 441 325 470 C 328 498 328 498 312 511 Z" fill="black"></path>
				<path d="M 541 504 Q 611 514 679 518 Q 715 522 717 498 Q 726 324 704 299 Q 695 295 638 302 Q 620 306 617 301 Q 613 295 626 284 Q 681 241 715 207 Q 731 192 746 208 Q 779 247 779 328 Q 773 440 787 505 Q 791 527 780 539 Q 750 567 729 579 Q 714 586 704 576 Q 698 567 542 536 L 484 528 Q 420 522 312 511 C 282 508 295 467 325 470 Q 332 470 342 471 Q 414 487 484 496 L 541 504 Z" fill="red"></path>
				<path d="M 480 1 Q 486 -27 493 -37 Q 499 -44 507 -42 Q 522 -33 531 32 Q 541 117 539 200 Q 536 266 541 504 L 542 536 Q 542 581 555 637 Q 559 656 543 667 Q 519 683 503 689 C 476 702 444 707 454 679 Q 467 643 483 606 Q 483 567 484 528 L 484 496 Q 478 21 480 1 Z" fill="lightgray"></path>
</g>
		<text x="40" y="140" font-size="128" fill="#999999">3</text></g>
		<g id="id0:id3:id3" transform="matrix(1.0,0,0,1.0,3072,0.0)">			<g stroke="lightgray" stroke-width="4" transform="scale(4, 4)"> <rect x="0" y="0" width="256" height="256" fill="white" stroke-width="4"/></g>
			<g transform="scale(0.92, -0.92) translate(60, -920)">					<path d="M 503 689 Q 647 731 679 733 Q 719 739 721 741 Q 727 751 715 766 Q 654 823 618 823 Q 609 819 607 808 Q 603 772 396 700 Q 342 682 279 665 Q 272 655 278 652 Q 299 646 437 676 Q 444 677 454 679 L 503 689 Z" fill="black"></path>
				<path d="M 312 511 Q 293 530 256 528 Q 243 524 249 511 Q 285 441 255 315 Q 233 281 260 230 Q 263 224 269 217 Q 276 204 288 210 Q 318 234 320 348 Q 321 441 325 470 C 328 498 328 498 312 511 Z" fill="black"></path>
				<path d="M 541 504 Q 611 514 679 518 Q 715 522 717 498 Q 726 324 704 299 Q 695 295 638 302 Q 620 306 617 301 Q 613 295 626 284 Q 681 241 715 207 Q 731 192 746 208 Q 779 247 779 328 Q 773 440 787 505 Q 791 527 780 539 Q 750 567 729 579 Q 714 586 704 576 Q 698 567 542 536 L 484 528 Q 420 522 312 511 C 282 508 295 467 325 470 Q 332 470 342 471 Q 414 487 484 496 L 541 504 Z" fill="black"></path>
				<path d="M 480 1 Q 486 -27 493 -37 Q 499 -44 507 -42 Q 522 -33 531 32 Q 541 117 539 200 Q 536 266 541 504 L 542 536 Q 542 581 555 637 Q 559 656 543 667 Q 519 683 503 689 C 476 702 444 707 454 679 Q 467 643 483 606 Q 483 567 484 528 L 484 496 Q 478 21 480 1 Z" fill="red"></path>
</g>
		<text x="40" y="140" font-size="128" fill="#999999">4</text></g>
		<g id="id0:id4:id4" transform="matrix(1.0,0,0,1.0,4096,0.0)">			<g stroke="white" stroke-width="4" transform="scale(4, 4)"> <rect x="1" y="1" width="255" height="255" fill="white" stroke-width="0"/></g>
</g>
</g>
</svg>
