<?xml version="1.0" standalone="no"?>
<!DOCTYPE svg PUBLIC "-//W3C//DTD SVG 1.1//EN"
 "http://www.w3.org/Graphics/SVG/1.1/DTD/svg11.dtd">
<!-- generate by Handict dictionary app com.asnsami.handict -->

<svg xmlns="http://www.w3.org/2000/svg" xmlns:sodipodi="http://sodipodi.sourceforge.net/DTD/sodipodi-0.dtd" version="1.1" width="640" height="128" viewBox="0 0 5120 1024">
	<g id="id0:id0" transform="translate(0.0,0)">
		<g id="id0:id0:id0" transform="matrix(1.0,0,0,1.0,0,0.0)">			<g stroke="lightgray" stroke-width="4" transform="scale(4, 4)"> <rect x="0" y="0" width="256" height="256" fill="white" stroke-width="4"/></g>
			<g transform="scale(0.92, -0.92) translate(60, -920)">					<path d="M 510 748 Q 694 790 699 793 Q 708 802 703 811 Q 696 824 664 832 Q 637 838 533 805 Q 437 781 347 772 Q 307 765 335 747 Q 378 720 441 735 Q 445 736 452 736 L 510 748 Z" fill="red"></path>
				<path d="M 284 593 Q 309 560 336 521 Q 346 505 362 503 Q 372 502 381 513 Q 388 526 386 558 Q 385 580 355 604 Q 283 650 268 647 Q 262 644 261 631 Q 262 619 284 593 Z" fill="lightgray"></path>
				<path d="M 672 657 Q 657 627 590 535 Q 580 517 598 522 Q 632 544 720 613 Q 738 631 763 643 Q 785 656 772 673 Q 757 691 728 704 Q 703 717 689 713 Q 676 710 681 696 Q 685 677 672 657 Z" fill="lightgray"></path>
				<path d="M 536 402 Q 638 414 915 413 Q 937 413 943 422 Q 950 435 931 452 Q 862 501 797 482 Q 694 464 536 440 L 482 434 Q 316 415 127 393 Q 102 392 120 371 Q 153 338 199 347 Q 376 395 464 395 Q 471 396 481 396 L 536 402 Z" fill="lightgray"></path>
				<path d="M 480 -7 Q 486 -35 493 -45 Q 499 -52 507 -50 Q 523 -41 530 24 Q 540 118 538 212 Q 535 263 536 402 L 536 440 Q 539 642 551 702 Q 555 721 539 731 Q 523 741 510 748 C 484 763 438 762 452 736 Q 453 735 455 733 Q 482 678 483 643 Q 484 552 482 434 L 481 396 Q 475 42 480 -7 Z" fill="lightgray"></path>
</g>
		<text x="40" y="140" font-size="128" fill="#999999">1</text></g>
		<g id="id0:id1:id1" transform="matrix(1.0,0,0,1.0,1024,0.0)">			<g stroke="lightgray" stroke-width="4" transform="scale(4, 4)"> <rect x="0" y="0" width="256" height="256" fill="white" stroke-width="4"/></g>
			<g transform="scale(0.92, -0.92) translate(60, -920)">					<path d="M 510 748 Q 694 790 699 793 Q 708 802 703 811 Q 696 824 664 832 Q 637 838 533 805 Q 437 781 347 772 Q 307 765 335 747 Q 378 720 441 735 Q 445 736 452 736 L 510 748 Z" fill="black"></path>
				<path d="M 284 593 Q 309 560 336 521 Q 346 505 362 503 Q 372 502 381 513 Q 388 526 386 558 Q 385 580 355 604 Q 283 650 268 647 Q 262 644 261 631 Q 262 619 284 593 Z" fill="red"></path>
				<path d="M 672 657 Q 657 627 590 535 Q 580 517 598 522 Q 632 544 720 613 Q 738 631 763 643 Q 785 656 772 673 Q 757 691 728 704 Q 703 717 689 713 Q 676 710 681 696 Q 685 677 672 657 Z" fill="lightgray"></path>
				<path d="M 536 402 Q 638 414 915 413 Q 937 413 943 422 Q 950 435 931 452 Q 862 501 797 482 Q 694 464 536 440 L 482 434 Q 316 415 127 393 Q 102 392 120 371 Q 153 338 199 347 Q 376 395 464 395 Q 471 396 481 396 L 536 402 Z" fill="lightgray"></path>
				<path d="M 480 -7 Q 486 -35 493 -45 Q 499 -52 507 -50 Q 523 -41 530 24 Q 540 118 538 212 Q 535 263 536 402 L 536 440 Q 539 642 551 702 Q 555 721 539 731 Q 523 741 510 748 C 484 763 438 762 452 736 Q 453 735 455 733 Q 482 678 483 643 Q 484 552 482 434 L 481 396 Q 475 42 480 -7 Z" fill="lightgray"></path>
</g>
		<text x="40" y="140" font-size="128" fill="#999999">2</text></g>
		<g id="id0:id2:id2" transform="matrix(1.0,0,0,1.0,2048,0.0)">			<g stroke="lightgray" stroke-width="4" transform="scale(4, 4)"> <rect x="0" y="0" width="256" height="256" fill="white" stroke-width="4"/></g>
			<g transform="scale(0.92, -0.92) translate(60, -920)">					<path d="M 510 748 Q 694 790 699 793 Q 708 802 703 811 Q 696 824 664 832 Q 637 838 533 805 Q 437 781 347 772 Q 307 765 335 747 Q 378 720 441 735 Q 445 736 452 736 L 510 748 Z" fill="black"></path>
				<path d="M 284 593 Q 309 560 336 521 Q 346 505 362 503 Q 372 502 381 513 Q 388 526 386 558 Q 385 580 355 604 Q 283 650 268 647 Q 262 644 261 631 Q 262 619 284 593 Z" fill="black"></path>
				<path d="M 672 657 Q 657 627 590 535 Q 580 517 598 522 Q 632 544 720 613 Q 738 631 763 643 Q 785 656 772 673 Q 757 691 728 704 Q 703 717 689 713 Q 676 710 681 696 Q 685 677 672 657 Z" fill="red"></path>
				<path d="M 536 402 Q 638 414 915 413 Q 937 413 943 422 Q 950 435 931 452 Q 862 501 797 482 Q 694 464 536 440 L 482 434 Q 316 415 127 393 Q 102 392 120 371 Q 153 338 199 347 Q 376 395 464 395 Q 471 396 481 396 L 536 402 Z" fill="lightgray"></path>
				<path d="M 480 -7 Q 486 -35 493 -45 Q 499 -52 507 -50 Q 523 -41 530 24 Q 540 118 538 212 Q 535 263 536 402 L 536 440 Q 539 642 551 702 Q 555 721 539 731 Q 523 741 510 748 C 484 763 438 762 452 736 Q 453 735 455 733 Q 482 678 483 643 Q 484 552 482 434 L 481 396 Q 475 42 480 -7 Z" fill="lightgray"></path>
</g>
		<text x="40" y="140" font-size="128" fill="#999999">3</text></g>
		<g id="id0:id3:id3" transform="matrix(1.0,0,0,1.0,3072,0.0)">			<g stroke="lightgray" stroke-width="4" transform="scale(4, 4)"> <rect x="0" y="0" width="256" height="256" fill="white" stroke-width="4"/></g>
			<g transform="scale(0.92, -0.92) translate(60, -920)">					<path d="M 510 748 Q 694 790 699 793 Q 708 802 703 811 Q 696 824 664 832 Q 637 838 533 805 Q 437 781 347 772 Q 307 765 335 747 Q 378 720 441 735 Q 445 736 452 736 L 510 748 Z" fill="black"></path>
				<path d="M 284 593 Q 309 560 336 521 Q 346 505 362 503 Q 372 502 381 513 Q 388 526 386 558 Q 385 580 355 604 Q 283 650 268 647 Q 262 644 261 631 Q 262 619 284 593 Z" fill="black"></path>
				<path d="M 672 657 Q 657 627 590 535 Q 580 517 598 522 Q 632 544 720 613 Q 738 631 763 643 Q 785 656 772 673 Q 757 691 728 704 Q 703 717 689 713 Q 676 710 681 696 Q 685 677 672 657 Z" fill="black"></path>
				<path d="M 536 402 Q 638 414 915 413 Q 937 413 943 422 Q 950 435 931 452 Q 862 501 797 482 Q 694 464 536 440 L 482 434 Q 316 415 127 393 Q 102 392 120 371 Q 153 338 199 347 Q 376 395 464 395 Q 471 396 481 396 L 536 402 Z" fill="red"></path>
				<path d="M 480 -7 Q 486 -35 493 -45 Q 499 -52 507 -50 Q 523 -41 530 24 Q 540 118 538 212 Q 535 263 536 402 L 536 440 Q 539 642 551 702 Q 555 721 539 731 Q 523 741 510 748 C 484 763 438 762 452 736 Q 453 735 455 733 Q 482 678 483 643 Q 484 552 482 434 L 481 396 Q 475 42 480 -7 Z" fill="lightgray"></path>
</g>
		<text x="40" y="140" font-size="128" fill="#999999">4</text></g>
		<g id="id0:id4:id4" transform="matrix(1.0,0,0,1.0,4096,0.0)">			<g stroke="lightgray" stroke-width="4" transform="scale(4, 4)"> <rect x="0" y="0" width="256" height="256" fill="white" stroke-width="4"/></g>
			<g transform="scale(0.92, -0.92) translate(60, -920)">					<path d="M 510 748 Q 694 790 699 793 Q 708 802 703 811 Q 696 824 664 832 Q 637 838 533 805 Q 437 781 347 772 Q 307 765 335 747 Q 378 720 441 735 Q 445 736 452 736 L 510 748 Z" fill="black"></path>
				<path d="M 284 593 Q 309 560 336 521 Q 346 505 362 503 Q 372 502 381 513 Q 388 526 386 558 Q 385 580 355 604 Q 283 650 268 647 Q 262 644 261 631 Q 262 619 284 593 Z" fill="black"></path>
				<path d="M 672 657 Q 657 627 590 535 Q 580 517 598 522 Q 632 544 720 613 Q 738 631 763 643 Q 785 656 772 673 Q 757 691 728 704 Q 703 717 689 713 Q 676 710 681 696 Q 685 677 672 657 Z" fill="black"></path>
				<path d="M 536 402 Q 638 414 915 413 Q 937 413 943 422 Q 950 435 931 452 Q 862 501 797 482 Q 694 464 536 440 L 482 434 Q 316 415 127 393 Q 102 392 120 371 Q 153 338 199 347 Q 376 395 464 395 Q 471 396 481 396 L 536 402 Z" fill="black"></path>
				<path d="M 480 -7 Q 486 -35 493 -45 Q 499 -52 507 -50 Q 523 -41 530 24 Q 540 118 538 212 Q 535 263 536 402 L 536 440 Q 539 642 551 702 Q 555 721 539 731 Q 523 741 510 748 C 484 763 438 762 452 736 Q 453 735 455 733 Q 482 678 483 643 Q 484 552 482 434 L 481 396 Q 475 42 480 -7 Z" fill="red"></path>
</g>
		<text x="40" y="140" font-size="128" fill="#999999">5</text></g>
</g>
</svg>
