<?xml version="1.0" standalone="no"?>
<!DOCTYPE svg PUBLIC "-//W3C//DTD SVG 1.1//EN"
 "http://www.w3.org/Graphics/SVG/1.1/DTD/svg11.dtd">
<!-- generate by Japanese dictionary app com.asnsami.kanjidictionary -->

<svg xmlns="http://www.w3.org/2000/svg" xmlns:sodipodi="http://sodipodi.sourceforge.net/DTD/sodipodi-0.dtd" version="1.1" width="640" height="128" viewBox="0 0 5120 1024">
	<g id="id0:id0" transform="translate(0.0,0)">
		<g id="id0:id0:id0" transform="matrix(1.0,0,0,1.0,0,0.0)">			<g stroke="lightgray" stroke-width="4" transform="scale(4, 4)"> <rect x="0" y="0" width="256" height="256" fill="white" stroke-width="4"/></g>
			<g transform="scale(0.92, -0.92) translate(60, -920)">					<path d="M 524 729 Q 597 742 677 756 Q 737 768 746 776 Q 756 785 751 794 Q 744 807 711 817 Q 677 826 587 796 Q 446 762 325 753 Q 283 749 312 728 Q 355 703 438 715 Q 445 716 457 718 L 524 729 Z" fill="red"></path>
				<path d="M 545 455 Q 755 479 902 467 Q 938 467 943 473 Q 950 489 937 501 Q 903 532 854 553 Q 838 560 809 550 Q 782 544 546 508 L 486 501 Q 465 501 286 476 Q 214 463 107 461 Q 91 461 90 448 Q 90 435 111 419 Q 130 406 166 392 Q 178 388 198 397 Q 214 403 291 417 Q 378 438 485 450 L 545 455 Z" fill="lightgray"></path>
				<path d="M 482 0 Q 489 -30 496 -41 Q 503 -48 511 -46 Q 527 -37 537 33 Q 547 123 545 213 Q 542 271 545 455 L 546 508 Q 546 607 562 682 Q 565 703 549 713 Q 536 723 524 729 C 498 745 445 746 457 718 Q 481 661 484 653 Q 485 640 486 501 L 485 450 Q 479 35 482 0 Z" fill="lightgray"></path>
</g>
		<text x="40" y="140" font-size="128" fill="#999999">1</text></g>
		<g id="id0:id1:id1" transform="matrix(1.0,0,0,1.0,1024,0.0)">			<g stroke="lightgray" stroke-width="4" transform="scale(4, 4)"> <rect x="0" y="0" width="256" height="256" fill="white" stroke-width="4"/></g>
			<g transform="scale(0.92, -0.92) translate(60, -920)">					<path d="M 524 729 Q 597 742 677 756 Q 737 768 746 776 Q 756 785 751 794 Q 744 807 711 817 Q 677 826 587 796 Q 446 762 325 753 Q 283 749 312 728 Q 355 703 438 715 Q 445 716 457 718 L 524 729 Z" fill="black"></path>
				<path d="M 545 455 Q 755 479 902 467 Q 938 467 943 473 Q 950 489 937 501 Q 903 532 854 553 Q 838 560 809 550 Q 782 544 546 508 L 486 501 Q 465 501 286 476 Q 214 463 107 461 Q 91 461 90 448 Q 90 435 111 419 Q 130 406 166 392 Q 178 388 198 397 Q 214 403 291 417 Q 378 438 485 450 L 545 455 Z" fill="red"></path>
				<path d="M 482 0 Q 489 -30 496 -41 Q 503 -48 511 -46 Q 527 -37 537 33 Q 547 123 545 213 Q 542 271 545 455 L 546 508 Q 546 607 562 682 Q 565 703 549 713 Q 536 723 524 729 C 498 745 445 746 457 718 Q 481 661 484 653 Q 485 640 486 501 L 485 450 Q 479 35 482 0 Z" fill="lightgray"></path>
</g>
		<text x="40" y="140" font-size="128" fill="#999999">2</text></g>
		<g id="id0:id2:id2" transform="matrix(1.0,0,0,1.0,2048,0.0)">			<g stroke="lightgray" stroke-width="4" transform="scale(4, 4)"> <rect x="0" y="0" width="256" height="256" fill="white" stroke-width="4"/></g>
			<g transform="scale(0.92, -0.92) translate(60, -920)">					<path d="M 524 729 Q 597 742 677 756 Q 737 768 746 776 Q 756 785 751 794 Q 744 807 711 817 Q 677 826 587 796 Q 446 762 325 753 Q 283 749 312 728 Q 355 703 438 715 Q 445 716 457 718 L 524 729 Z" fill="black"></path>
				<path d="M 545 455 Q 755 479 902 467 Q 938 467 943 473 Q 950 489 937 501 Q 903 532 854 553 Q 838 560 809 550 Q 782 544 546 508 L 486 501 Q 465 501 286 476 Q 214 463 107 461 Q 91 461 90 448 Q 90 435 111 419 Q 130 406 166 392 Q 178 388 198 397 Q 214 403 291 417 Q 378 438 485 450 L 545 455 Z" fill="black"></path>
				<path d="M 482 0 Q 489 -30 496 -41 Q 503 -48 511 -46 Q 527 -37 537 33 Q 547 123 545 213 Q 542 271 545 455 L 546 508 Q 546 607 562 682 Q 565 703 549 713 Q 536 723 524 729 C 498 745 445 746 457 718 Q 481 661 484 653 Q 485 640 486 501 L 485 450 Q 479 35 482 0 Z" fill="red"></path>
</g>
		<text x="40" y="140" font-size="128" fill="#999999">3</text></g>
		<g id="id0:id3:id3" transform="matrix(1.0,0,0,1.0,3072,0.0)">			<g stroke="white" stroke-width="4" transform="scale(4, 4)"> <rect x="1" y="1" width="255" height="255" fill="white" stroke-width="0"/></g>
</g>
		<g id="id0:id4:id4" transform="matrix(1.0,0,0,1.0,4096,0.0)">			<g stroke="white" stroke-width="4" transform="scale(4, 4)"> <rect x="1" y="1" width="255" height="255" fill="white" stroke-width="0"/></g>
</g>
</g>
</svg>
