<?xml version="1.0" standalone="no"?>
<!DOCTYPE svg PUBLIC "-//W3C//DTD SVG 1.1//EN"
 "http://www.w3.org/Graphics/SVG/1.1/DTD/svg11.dtd">
<!-- generate by Handict dictionary app com.asnsami.handict -->

<svg xmlns="http://www.w3.org/2000/svg" xmlns:sodipodi="http://sodipodi.sourceforge.net/DTD/sodipodi-0.dtd" version="1.1" width="640" height="128" viewBox="0 0 5120 1024">
	<g id="id0:id0" transform="translate(0.0,0)">
		<g id="id0:id0:id0" transform="matrix(1.0,0,0,1.0,0,0.0)">			<g stroke="lightgray" stroke-width="4" transform="scale(4, 4)"> <rect x="0" y="0" width="256" height="256" fill="white" stroke-width="4"/></g>
			<g transform="scale(0.92, -0.92) translate(60, -920)">					<path d="M 476 765 Q 516 741 562 711 Q 578 701 595 703 Q 605 704 609 720 Q 610 736 597 766 Q 581 802 462 814 Q 446 815 439 811 Q 435 807 439 793 Q 445 783 476 765 Z" fill="red"></path>
				<path d="M 336 539 Q 352 557 789 606 Q 801 603 811 618 Q 812 631 788 644 Q 749 668 661 645 Q 466 608 401 600 Q 356 597 310 590 C 280 586 308 527 336 539 Z" fill="lightgray"></path>
				<path d="M 310 590 Q 271 617 251 609 Q 238 602 245 587 Q 261 568 262 511 Q 261 496 260 479 Q 254 320 216 211 Q 183 118 111 5 Q 107 -2 104 -9 Q 101 -21 112 -18 Q 151 -11 225 112 Q 234 130 244 148 Q 304 283 325 479 Q 328 513 336 539 C 344 568 336 574 310 590 Z" fill="lightgray"></path>
</g>
		<text x="40" y="140" font-size="128" fill="#999999">1</text></g>
		<g id="id0:id1:id1" transform="matrix(1.0,0,0,1.0,1024,0.0)">			<g stroke="lightgray" stroke-width="4" transform="scale(4, 4)"> <rect x="0" y="0" width="256" height="256" fill="white" stroke-width="4"/></g>
			<g transform="scale(0.92, -0.92) translate(60, -920)">					<path d="M 476 765 Q 516 741 562 711 Q 578 701 595 703 Q 605 704 609 720 Q 610 736 597 766 Q 581 802 462 814 Q 446 815 439 811 Q 435 807 439 793 Q 445 783 476 765 Z" fill="black"></path>
				<path d="M 336 539 Q 352 557 789 606 Q 801 603 811 618 Q 812 631 788 644 Q 749 668 661 645 Q 466 608 401 600 Q 356 597 310 590 C 280 586 308 527 336 539 Z" fill="red"></path>
				<path d="M 310 590 Q 271 617 251 609 Q 238 602 245 587 Q 261 568 262 511 Q 261 496 260 479 Q 254 320 216 211 Q 183 118 111 5 Q 107 -2 104 -9 Q 101 -21 112 -18 Q 151 -11 225 112 Q 234 130 244 148 Q 304 283 325 479 Q 328 513 336 539 C 344 568 336 574 310 590 Z" fill="lightgray"></path>
</g>
		<text x="40" y="140" font-size="128" fill="#999999">2</text></g>
		<g id="id0:id2:id2" transform="matrix(1.0,0,0,1.0,2048,0.0)">			<g stroke="lightgray" stroke-width="4" transform="scale(4, 4)"> <rect x="0" y="0" width="256" height="256" fill="white" stroke-width="4"/></g>
			<g transform="scale(0.92, -0.92) translate(60, -920)">					<path d="M 476 765 Q 516 741 562 711 Q 578 701 595 703 Q 605 704 609 720 Q 610 736 597 766 Q 581 802 462 814 Q 446 815 439 811 Q 435 807 439 793 Q 445 783 476 765 Z" fill="black"></path>
				<path d="M 336 539 Q 352 557 789 606 Q 801 603 811 618 Q 812 631 788 644 Q 749 668 661 645 Q 466 608 401 600 Q 356 597 310 590 C 280 586 308 527 336 539 Z" fill="black"></path>
				<path d="M 310 590 Q 271 617 251 609 Q 238 602 245 587 Q 261 568 262 511 Q 261 496 260 479 Q 254 320 216 211 Q 183 118 111 5 Q 107 -2 104 -9 Q 101 -21 112 -18 Q 151 -11 225 112 Q 234 130 244 148 Q 304 283 325 479 Q 328 513 336 539 C 344 568 336 574 310 590 Z" fill="red"></path>
</g>
		<text x="40" y="140" font-size="128" fill="#999999">3</text></g>
		<g id="id0:id3:id3" transform="matrix(1.0,0,0,1.0,3072,0.0)">			<g stroke="white" stroke-width="4" transform="scale(4, 4)"> <rect x="1" y="1" width="255" height="255" fill="white" stroke-width="0"/></g>
</g>
		<g id="id0:id4:id4" transform="matrix(1.0,0,0,1.0,4096,0.0)">			<g stroke="white" stroke-width="4" transform="scale(4, 4)"> <rect x="1" y="1" width="255" height="255" fill="white" stroke-width="0"/></g>
</g>
</g>
</svg>
