<?xml version="1.0" standalone="no"?>
<!DOCTYPE svg PUBLIC "-//W3C//DTD SVG 1.1//EN"
 "http://www.w3.org/Graphics/SVG/1.1/DTD/svg11.dtd">
<!-- generate by Handict dictionary app com.asnsami.handict -->

<svg xmlns="http://www.w3.org/2000/svg" xmlns:sodipodi="http://sodipodi.sourceforge.net/DTD/sodipodi-0.dtd" version="1.1" width="640" height="256" viewBox="0 0 5120 2048">
	<g id="id0:id0" transform="translate(0.0,0)">
		<g id="id0:id0:id0" transform="matrix(1.0,0,0,1.0,0,0.0)">			<g stroke="lightgray" stroke-width="4" transform="scale(4, 4)"> <rect x="0" y="0" width="256" height="256" fill="white" stroke-width="4"/></g>
			<g transform="scale(0.92, -0.92) translate(60, -920)">					<path d="M 486 807 Q 526 782 570 749 Q 586 737 602 740 Q 612 741 617 756 Q 620 772 607 802 Q 589 841 475 857 Q 459 858 452 855 Q 448 851 450 837 Q 454 827 486 807 Z" fill="red"></path>
				<path d="M 331 612 Q 386 603 411 608 Q 756 671 774 683 Q 784 690 779 700 Q 772 712 742 720 Q 709 729 629 700 Q 473 657 324 645 C 294 642 301 617 331 612 Z" fill="lightgray"></path>
				<path d="M 324 645 Q 321 648 318 649 Q 269 677 253 675 Q 232 672 248 648 Q 285 575 243 357 Q 228 297 196 228 Q 166 167 65 72 Q 50 59 46 53 Q 45 46 56 46 Q 72 45 95 59 Q 146 90 178 121 Q 280 226 312 459 Q 319 516 325 584 Q 329 600 331 612 C 336 638 336 638 324 645 Z" fill="lightgray"></path>
				<path d="M 368 361 Q 352 371 334 376 Q 327 379 322 374 Q 313 368 323 356 Q 363 284 364 113 Q 364 49 402 20 L 403 19 Q 421 13 423 44 L 423 45 L 423 74 Q 422 93 416 116 Q 404 266 404 320 C 404 341 394 346 368 361 Z" fill="lightgray"></path>
				<path d="M 697 72 Q 707 47 732 -7 Q 741 -25 751 -24 Q 767 -21 777 5 Q 811 71 816 159 Q 823 214 830 279 Q 834 330 857 362 Q 875 383 862 397 Q 838 419 789 440 Q 770 450 735 437 Q 668 412 595 393 L 547 383 Q 472 371 368 361 C 338 358 375 313 404 320 Q 456 333 548 350 L 594 359 Q 649 372 716 383 Q 747 390 762 375 Q 771 360 771 344 Q 770 226 746 110 Q 743 91 735 88 Q 731 85 714 95 C 685 101 685 100 697 72 Z" fill="lightgray"></path>
				<path d="M 589 214 Q 635 223 678 228 Q 702 232 693 244 Q 683 259 657 264 Q 633 267 592 256 Q 591 256 591 255 C 589 254 576 251 547 244 Q 498 232 455 221 Q 439 217 459 202 Q 468 196 546 207 L 589 214 Z" fill="lightgray"></path>
				<path d="M 595 393 Q 599 486 616 542 Q 619 554 598 568 Q 564 587 538 591 Q 522 594 514 585 Q 507 578 515 562 Q 543 522 543 494 Q 546 440 547 383 L 548 350 Q 548 299 547 244 L 546 207 Q 545 153 543 94 C 542 64 584 71 585 101 Q 586 159 589 214 L 591 255 Q 592 307 594 359 L 595 393 Z" fill="lightgray"></path>
				<path d="M 423 45 Q 433 45 448 46 Q 590 64 697 72 C 727 74 735 75 714 95 Q 704 107 686 110 Q 652 119 585 101 L 543 94 Q 479 85 423 74 C 394 68 393 44 423 45 Z" fill="lightgray"></path>
</g>
		<text x="40" y="140" font-size="128" fill="#999999">1</text></g>
		<g id="id0:id1:id1" transform="matrix(1.0,0,0,1.0,1024,0.0)">			<g stroke="lightgray" stroke-width="4" transform="scale(4, 4)"> <rect x="0" y="0" width="256" height="256" fill="white" stroke-width="4"/></g>
			<g transform="scale(0.92, -0.92) translate(60, -920)">					<path d="M 486 807 Q 526 782 570 749 Q 586 737 602 740 Q 612 741 617 756 Q 620 772 607 802 Q 589 841 475 857 Q 459 858 452 855 Q 448 851 450 837 Q 454 827 486 807 Z" fill="black"></path>
				<path d="M 331 612 Q 386 603 411 608 Q 756 671 774 683 Q 784 690 779 700 Q 772 712 742 720 Q 709 729 629 700 Q 473 657 324 645 C 294 642 301 617 331 612 Z" fill="red"></path>
				<path d="M 324 645 Q 321 648 318 649 Q 269 677 253 675 Q 232 672 248 648 Q 285 575 243 357 Q 228 297 196 228 Q 166 167 65 72 Q 50 59 46 53 Q 45 46 56 46 Q 72 45 95 59 Q 146 90 178 121 Q 280 226 312 459 Q 319 516 325 584 Q 329 600 331 612 C 336 638 336 638 324 645 Z" fill="lightgray"></path>
				<path d="M 368 361 Q 352 371 334 376 Q 327 379 322 374 Q 313 368 323 356 Q 363 284 364 113 Q 364 49 402 20 L 403 19 Q 421 13 423 44 L 423 45 L 423 74 Q 422 93 416 116 Q 404 266 404 320 C 404 341 394 346 368 361 Z" fill="lightgray"></path>
				<path d="M 697 72 Q 707 47 732 -7 Q 741 -25 751 -24 Q 767 -21 777 5 Q 811 71 816 159 Q 823 214 830 279 Q 834 330 857 362 Q 875 383 862 397 Q 838 419 789 440 Q 770 450 735 437 Q 668 412 595 393 L 547 383 Q 472 371 368 361 C 338 358 375 313 404 320 Q 456 333 548 350 L 594 359 Q 649 372 716 383 Q 747 390 762 375 Q 771 360 771 344 Q 770 226 746 110 Q 743 91 735 88 Q 731 85 714 95 C 685 101 685 100 697 72 Z" fill="lightgray"></path>
				<path d="M 589 214 Q 635 223 678 228 Q 702 232 693 244 Q 683 259 657 264 Q 633 267 592 256 Q 591 256 591 255 C 589 254 576 251 547 244 Q 498 232 455 221 Q 439 217 459 202 Q 468 196 546 207 L 589 214 Z" fill="lightgray"></path>
				<path d="M 595 393 Q 599 486 616 542 Q 619 554 598 568 Q 564 587 538 591 Q 522 594 514 585 Q 507 578 515 562 Q 543 522 543 494 Q 546 440 547 383 L 548 350 Q 548 299 547 244 L 546 207 Q 545 153 543 94 C 542 64 584 71 585 101 Q 586 159 589 214 L 591 255 Q 592 307 594 359 L 595 393 Z" fill="lightgray"></path>
				<path d="M 423 45 Q 433 45 448 46 Q 590 64 697 72 C 727 74 735 75 714 95 Q 704 107 686 110 Q 652 119 585 101 L 543 94 Q 479 85 423 74 C 394 68 393 44 423 45 Z" fill="lightgray"></path>
</g>
		<text x="40" y="140" font-size="128" fill="#999999">2</text></g>
		<g id="id0:id2:id2" transform="matrix(1.0,0,0,1.0,2048,0.0)">			<g stroke="lightgray" stroke-width="4" transform="scale(4, 4)"> <rect x="0" y="0" width="256" height="256" fill="white" stroke-width="4"/></g>
			<g transform="scale(0.92, -0.92) translate(60, -920)">					<path d="M 486 807 Q 526 782 570 749 Q 586 737 602 740 Q 612 741 617 756 Q 620 772 607 802 Q 589 841 475 857 Q 459 858 452 855 Q 448 851 450 837 Q 454 827 486 807 Z" fill="black"></path>
				<path d="M 331 612 Q 386 603 411 608 Q 756 671 774 683 Q 784 690 779 700 Q 772 712 742 720 Q 709 729 629 700 Q 473 657 324 645 C 294 642 301 617 331 612 Z" fill="black"></path>
				<path d="M 324 645 Q 321 648 318 649 Q 269 677 253 675 Q 232 672 248 648 Q 285 575 243 357 Q 228 297 196 228 Q 166 167 65 72 Q 50 59 46 53 Q 45 46 56 46 Q 72 45 95 59 Q 146 90 178 121 Q 280 226 312 459 Q 319 516 325 584 Q 329 600 331 612 C 336 638 336 638 324 645 Z" fill="red"></path>
				<path d="M 368 361 Q 352 371 334 376 Q 327 379 322 374 Q 313 368 323 356 Q 363 284 364 113 Q 364 49 402 20 L 403 19 Q 421 13 423 44 L 423 45 L 423 74 Q 422 93 416 116 Q 404 266 404 320 C 404 341 394 346 368 361 Z" fill="lightgray"></path>
				<path d="M 697 72 Q 707 47 732 -7 Q 741 -25 751 -24 Q 767 -21 777 5 Q 811 71 816 159 Q 823 214 830 279 Q 834 330 857 362 Q 875 383 862 397 Q 838 419 789 440 Q 770 450 735 437 Q 668 412 595 393 L 547 383 Q 472 371 368 361 C 338 358 375 313 404 320 Q 456 333 548 350 L 594 359 Q 649 372 716 383 Q 747 390 762 375 Q 771 360 771 344 Q 770 226 746 110 Q 743 91 735 88 Q 731 85 714 95 C 685 101 685 100 697 72 Z" fill="lightgray"></path>
				<path d="M 589 214 Q 635 223 678 228 Q 702 232 693 244 Q 683 259 657 264 Q 633 267 592 256 Q 591 256 591 255 C 589 254 576 251 547 244 Q 498 232 455 221 Q 439 217 459 202 Q 468 196 546 207 L 589 214 Z" fill="lightgray"></path>
				<path d="M 595 393 Q 599 486 616 542 Q 619 554 598 568 Q 564 587 538 591 Q 522 594 514 585 Q 507 578 515 562 Q 543 522 543 494 Q 546 440 547 383 L 548 350 Q 548 299 547 244 L 546 207 Q 545 153 543 94 C 542 64 584 71 585 101 Q 586 159 589 214 L 591 255 Q 592 307 594 359 L 595 393 Z" fill="lightgray"></path>
				<path d="M 423 45 Q 433 45 448 46 Q 590 64 697 72 C 727 74 735 75 714 95 Q 704 107 686 110 Q 652 119 585 101 L 543 94 Q 479 85 423 74 C 394 68 393 44 423 45 Z" fill="lightgray"></path>
</g>
		<text x="40" y="140" font-size="128" fill="#999999">3</text></g>
		<g id="id0:id3:id3" transform="matrix(1.0,0,0,1.0,3072,0.0)">			<g stroke="lightgray" stroke-width="4" transform="scale(4, 4)"> <rect x="0" y="0" width="256" height="256" fill="white" stroke-width="4"/></g>
			<g transform="scale(0.92, -0.92) translate(60, -920)">					<path d="M 486 807 Q 526 782 570 749 Q 586 737 602 740 Q 612 741 617 756 Q 620 772 607 802 Q 589 841 475 857 Q 459 858 452 855 Q 448 851 450 837 Q 454 827 486 807 Z" fill="black"></path>
				<path d="M 331 612 Q 386 603 411 608 Q 756 671 774 683 Q 784 690 779 700 Q 772 712 742 720 Q 709 729 629 700 Q 473 657 324 645 C 294 642 301 617 331 612 Z" fill="black"></path>
				<path d="M 324 645 Q 321 648 318 649 Q 269 677 253 675 Q 232 672 248 648 Q 285 575 243 357 Q 228 297 196 228 Q 166 167 65 72 Q 50 59 46 53 Q 45 46 56 46 Q 72 45 95 59 Q 146 90 178 121 Q 280 226 312 459 Q 319 516 325 584 Q 329 600 331 612 C 336 638 336 638 324 645 Z" fill="black"></path>
				<path d="M 368 361 Q 352 371 334 376 Q 327 379 322 374 Q 313 368 323 356 Q 363 284 364 113 Q 364 49 402 20 L 403 19 Q 421 13 423 44 L 423 45 L 423 74 Q 422 93 416 116 Q 404 266 404 320 C 404 341 394 346 368 361 Z" fill="red"></path>
				<path d="M 697 72 Q 707 47 732 -7 Q 741 -25 751 -24 Q 767 -21 777 5 Q 811 71 816 159 Q 823 214 830 279 Q 834 330 857 362 Q 875 383 862 397 Q 838 419 789 440 Q 770 450 735 437 Q 668 412 595 393 L 547 383 Q 472 371 368 361 C 338 358 375 313 404 320 Q 456 333 548 350 L 594 359 Q 649 372 716 383 Q 747 390 762 375 Q 771 360 771 344 Q 770 226 746 110 Q 743 91 735 88 Q 731 85 714 95 C 685 101 685 100 697 72 Z" fill="lightgray"></path>
				<path d="M 589 214 Q 635 223 678 228 Q 702 232 693 244 Q 683 259 657 264 Q 633 267 592 256 Q 591 256 591 255 C 589 254 576 251 547 244 Q 498 232 455 221 Q 439 217 459 202 Q 468 196 546 207 L 589 214 Z" fill="lightgray"></path>
				<path d="M 595 393 Q 599 486 616 542 Q 619 554 598 568 Q 564 587 538 591 Q 522 594 514 585 Q 507 578 515 562 Q 543 522 543 494 Q 546 440 547 383 L 548 350 Q 548 299 547 244 L 546 207 Q 545 153 543 94 C 542 64 584 71 585 101 Q 586 159 589 214 L 591 255 Q 592 307 594 359 L 595 393 Z" fill="lightgray"></path>
				<path d="M 423 45 Q 433 45 448 46 Q 590 64 697 72 C 727 74 735 75 714 95 Q 704 107 686 110 Q 652 119 585 101 L 543 94 Q 479 85 423 74 C 394 68 393 44 423 45 Z" fill="lightgray"></path>
</g>
		<text x="40" y="140" font-size="128" fill="#999999">4</text></g>
		<g id="id0:id4:id4" transform="matrix(1.0,0,0,1.0,4096,0.0)">			<g stroke="lightgray" stroke-width="4" transform="scale(4, 4)"> <rect x="0" y="0" width="256" height="256" fill="white" stroke-width="4"/></g>
			<g transform="scale(0.92, -0.92) translate(60, -920)">					<path d="M 486 807 Q 526 782 570 749 Q 586 737 602 740 Q 612 741 617 756 Q 620 772 607 802 Q 589 841 475 857 Q 459 858 452 855 Q 448 851 450 837 Q 454 827 486 807 Z" fill="black"></path>
				<path d="M 331 612 Q 386 603 411 608 Q 756 671 774 683 Q 784 690 779 700 Q 772 712 742 720 Q 709 729 629 700 Q 473 657 324 645 C 294 642 301 617 331 612 Z" fill="black"></path>
				<path d="M 324 645 Q 321 648 318 649 Q 269 677 253 675 Q 232 672 248 648 Q 285 575 243 357 Q 228 297 196 228 Q 166 167 65 72 Q 50 59 46 53 Q 45 46 56 46 Q 72 45 95 59 Q 146 90 178 121 Q 280 226 312 459 Q 319 516 325 584 Q 329 600 331 612 C 336 638 336 638 324 645 Z" fill="black"></path>
				<path d="M 368 361 Q 352 371 334 376 Q 327 379 322 374 Q 313 368 323 356 Q 363 284 364 113 Q 364 49 402 20 L 403 19 Q 421 13 423 44 L 423 45 L 423 74 Q 422 93 416 116 Q 404 266 404 320 C 404 341 394 346 368 361 Z" fill="black"></path>
				<path d="M 697 72 Q 707 47 732 -7 Q 741 -25 751 -24 Q 767 -21 777 5 Q 811 71 816 159 Q 823 214 830 279 Q 834 330 857 362 Q 875 383 862 397 Q 838 419 789 440 Q 770 450 735 437 Q 668 412 595 393 L 547 383 Q 472 371 368 361 C 338 358 375 313 404 320 Q 456 333 548 350 L 594 359 Q 649 372 716 383 Q 747 390 762 375 Q 771 360 771 344 Q 770 226 746 110 Q 743 91 735 88 Q 731 85 714 95 C 685 101 685 100 697 72 Z" fill="red"></path>
				<path d="M 589 214 Q 635 223 678 228 Q 702 232 693 244 Q 683 259 657 264 Q 633 267 592 256 Q 591 256 591 255 C 589 254 576 251 547 244 Q 498 232 455 221 Q 439 217 459 202 Q 468 196 546 207 L 589 214 Z" fill="lightgray"></path>
				<path d="M 595 393 Q 599 486 616 542 Q 619 554 598 568 Q 564 587 538 591 Q 522 594 514 585 Q 507 578 515 562 Q 543 522 543 494 Q 546 440 547 383 L 548 350 Q 548 299 547 244 L 546 207 Q 545 153 543 94 C 542 64 584 71 585 101 Q 586 159 589 214 L 591 255 Q 592 307 594 359 L 595 393 Z" fill="lightgray"></path>
				<path d="M 423 45 Q 433 45 448 46 Q 590 64 697 72 C 727 74 735 75 714 95 Q 704 107 686 110 Q 652 119 585 101 L 543 94 Q 479 85 423 74 C 394 68 393 44 423 45 Z" fill="lightgray"></path>
</g>
		<text x="40" y="140" font-size="128" fill="#999999">5</text></g>
</g>
	<g id="id1:id1" transform="translate(0.0,1024)">
		<g id="id1:id0:id0" transform="matrix(1.0,0,0,1.0,0,0.0)">			<g stroke="lightgray" stroke-width="4" transform="scale(4, 4)"> <rect x="0" y="0" width="256" height="256" fill="white" stroke-width="4"/></g>
			<g transform="scale(0.92, -0.92) translate(60, -920)">					<path d="M 486 807 Q 526 782 570 749 Q 586 737 602 740 Q 612 741 617 756 Q 620 772 607 802 Q 589 841 475 857 Q 459 858 452 855 Q 448 851 450 837 Q 454 827 486 807 Z" fill="black"></path>
				<path d="M 331 612 Q 386 603 411 608 Q 756 671 774 683 Q 784 690 779 700 Q 772 712 742 720 Q 709 729 629 700 Q 473 657 324 645 C 294 642 301 617 331 612 Z" fill="black"></path>
				<path d="M 324 645 Q 321 648 318 649 Q 269 677 253 675 Q 232 672 248 648 Q 285 575 243 357 Q 228 297 196 228 Q 166 167 65 72 Q 50 59 46 53 Q 45 46 56 46 Q 72 45 95 59 Q 146 90 178 121 Q 280 226 312 459 Q 319 516 325 584 Q 329 600 331 612 C 336 638 336 638 324 645 Z" fill="black"></path>
				<path d="M 368 361 Q 352 371 334 376 Q 327 379 322 374 Q 313 368 323 356 Q 363 284 364 113 Q 364 49 402 20 L 403 19 Q 421 13 423 44 L 423 45 L 423 74 Q 422 93 416 116 Q 404 266 404 320 C 404 341 394 346 368 361 Z" fill="black"></path>
				<path d="M 697 72 Q 707 47 732 -7 Q 741 -25 751 -24 Q 767 -21 777 5 Q 811 71 816 159 Q 823 214 830 279 Q 834 330 857 362 Q 875 383 862 397 Q 838 419 789 440 Q 770 450 735 437 Q 668 412 595 393 L 547 383 Q 472 371 368 361 C 338 358 375 313 404 320 Q 456 333 548 350 L 594 359 Q 649 372 716 383 Q 747 390 762 375 Q 771 360 771 344 Q 770 226 746 110 Q 743 91 735 88 Q 731 85 714 95 C 685 101 685 100 697 72 Z" fill="black"></path>
				<path d="M 589 214 Q 635 223 678 228 Q 702 232 693 244 Q 683 259 657 264 Q 633 267 592 256 Q 591 256 591 255 C 589 254 576 251 547 244 Q 498 232 455 221 Q 439 217 459 202 Q 468 196 546 207 L 589 214 Z" fill="red"></path>
				<path d="M 595 393 Q 599 486 616 542 Q 619 554 598 568 Q 564 587 538 591 Q 522 594 514 585 Q 507 578 515 562 Q 543 522 543 494 Q 546 440 547 383 L 548 350 Q 548 299 547 244 L 546 207 Q 545 153 543 94 C 542 64 584 71 585 101 Q 586 159 589 214 L 591 255 Q 592 307 594 359 L 595 393 Z" fill="lightgray"></path>
				<path d="M 423 45 Q 433 45 448 46 Q 590 64 697 72 C 727 74 735 75 714 95 Q 704 107 686 110 Q 652 119 585 101 L 543 94 Q 479 85 423 74 C 394 68 393 44 423 45 Z" fill="lightgray"></path>
</g>
		<text x="40" y="140" font-size="128" fill="#999999">6</text></g>
		<g id="id1:id1:id1" transform="matrix(1.0,0,0,1.0,1024,0.0)">			<g stroke="lightgray" stroke-width="4" transform="scale(4, 4)"> <rect x="0" y="0" width="256" height="256" fill="white" stroke-width="4"/></g>
			<g transform="scale(0.92, -0.92) translate(60, -920)">					<path d="M 486 807 Q 526 782 570 749 Q 586 737 602 740 Q 612 741 617 756 Q 620 772 607 802 Q 589 841 475 857 Q 459 858 452 855 Q 448 851 450 837 Q 454 827 486 807 Z" fill="black"></path>
				<path d="M 331 612 Q 386 603 411 608 Q 756 671 774 683 Q 784 690 779 700 Q 772 712 742 720 Q 709 729 629 700 Q 473 657 324 645 C 294 642 301 617 331 612 Z" fill="black"></path>
				<path d="M 324 645 Q 321 648 318 649 Q 269 677 253 675 Q 232 672 248 648 Q 285 575 243 357 Q 228 297 196 228 Q 166 167 65 72 Q 50 59 46 53 Q 45 46 56 46 Q 72 45 95 59 Q 146 90 178 121 Q 280 226 312 459 Q 319 516 325 584 Q 329 600 331 612 C 336 638 336 638 324 645 Z" fill="black"></path>
				<path d="M 368 361 Q 352 371 334 376 Q 327 379 322 374 Q 313 368 323 356 Q 363 284 364 113 Q 364 49 402 20 L 403 19 Q 421 13 423 44 L 423 45 L 423 74 Q 422 93 416 116 Q 404 266 404 320 C 404 341 394 346 368 361 Z" fill="black"></path>
				<path d="M 697 72 Q 707 47 732 -7 Q 741 -25 751 -24 Q 767 -21 777 5 Q 811 71 816 159 Q 823 214 830 279 Q 834 330 857 362 Q 875 383 862 397 Q 838 419 789 440 Q 770 450 735 437 Q 668 412 595 393 L 547 383 Q 472 371 368 361 C 338 358 375 313 404 320 Q 456 333 548 350 L 594 359 Q 649 372 716 383 Q 747 390 762 375 Q 771 360 771 344 Q 770 226 746 110 Q 743 91 735 88 Q 731 85 714 95 C 685 101 685 100 697 72 Z" fill="black"></path>
				<path d="M 589 214 Q 635 223 678 228 Q 702 232 693 244 Q 683 259 657 264 Q 633 267 592 256 Q 591 256 591 255 C 589 254 576 251 547 244 Q 498 232 455 221 Q 439 217 459 202 Q 468 196 546 207 L 589 214 Z" fill="black"></path>
				<path d="M 595 393 Q 599 486 616 542 Q 619 554 598 568 Q 564 587 538 591 Q 522 594 514 585 Q 507 578 515 562 Q 543 522 543 494 Q 546 440 547 383 L 548 350 Q 548 299 547 244 L 546 207 Q 545 153 543 94 C 542 64 584 71 585 101 Q 586 159 589 214 L 591 255 Q 592 307 594 359 L 595 393 Z" fill="red"></path>
				<path d="M 423 45 Q 433 45 448 46 Q 590 64 697 72 C 727 74 735 75 714 95 Q 704 107 686 110 Q 652 119 585 101 L 543 94 Q 479 85 423 74 C 394 68 393 44 423 45 Z" fill="lightgray"></path>
</g>
		<text x="40" y="140" font-size="128" fill="#999999">7</text></g>
		<g id="id1:id2:id2" transform="matrix(1.0,0,0,1.0,2048,0.0)">			<g stroke="lightgray" stroke-width="4" transform="scale(4, 4)"> <rect x="0" y="0" width="256" height="256" fill="white" stroke-width="4"/></g>
			<g transform="scale(0.92, -0.92) translate(60, -920)">					<path d="M 486 807 Q 526 782 570 749 Q 586 737 602 740 Q 612 741 617 756 Q 620 772 607 802 Q 589 841 475 857 Q 459 858 452 855 Q 448 851 450 837 Q 454 827 486 807 Z" fill="black"></path>
				<path d="M 331 612 Q 386 603 411 608 Q 756 671 774 683 Q 784 690 779 700 Q 772 712 742 720 Q 709 729 629 700 Q 473 657 324 645 C 294 642 301 617 331 612 Z" fill="black"></path>
				<path d="M 324 645 Q 321 648 318 649 Q 269 677 253 675 Q 232 672 248 648 Q 285 575 243 357 Q 228 297 196 228 Q 166 167 65 72 Q 50 59 46 53 Q 45 46 56 46 Q 72 45 95 59 Q 146 90 178 121 Q 280 226 312 459 Q 319 516 325 584 Q 329 600 331 612 C 336 638 336 638 324 645 Z" fill="black"></path>
				<path d="M 368 361 Q 352 371 334 376 Q 327 379 322 374 Q 313 368 323 356 Q 363 284 364 113 Q 364 49 402 20 L 403 19 Q 421 13 423 44 L 423 45 L 423 74 Q 422 93 416 116 Q 404 266 404 320 C 404 341 394 346 368 361 Z" fill="black"></path>
				<path d="M 697 72 Q 707 47 732 -7 Q 741 -25 751 -24 Q 767 -21 777 5 Q 811 71 816 159 Q 823 214 830 279 Q 834 330 857 362 Q 875 383 862 397 Q 838 419 789 440 Q 770 450 735 437 Q 668 412 595 393 L 547 383 Q 472 371 368 361 C 338 358 375 313 404 320 Q 456 333 548 350 L 594 359 Q 649 372 716 383 Q 747 390 762 375 Q 771 360 771 344 Q 770 226 746 110 Q 743 91 735 88 Q 731 85 714 95 C 685 101 685 100 697 72 Z" fill="black"></path>
				<path d="M 589 214 Q 635 223 678 228 Q 702 232 693 244 Q 683 259 657 264 Q 633 267 592 256 Q 591 256 591 255 C 589 254 576 251 547 244 Q 498 232 455 221 Q 439 217 459 202 Q 468 196 546 207 L 589 214 Z" fill="black"></path>
				<path d="M 595 393 Q 599 486 616 542 Q 619 554 598 568 Q 564 587 538 591 Q 522 594 514 585 Q 507 578 515 562 Q 543 522 543 494 Q 546 440 547 383 L 548 350 Q 548 299 547 244 L 546 207 Q 545 153 543 94 C 542 64 584 71 585 101 Q 586 159 589 214 L 591 255 Q 592 307 594 359 L 595 393 Z" fill="black"></path>
				<path d="M 423 45 Q 433 45 448 46 Q 590 64 697 72 C 727 74 735 75 714 95 Q 704 107 686 110 Q 652 119 585 101 L 543 94 Q 479 85 423 74 C 394 68 393 44 423 45 Z" fill="red"></path>
</g>
		<text x="40" y="140" font-size="128" fill="#999999">8</text></g>
		<g id="id1:id3:id3" transform="matrix(1.0,0,0,1.0,3072,0.0)">			<g stroke="white" stroke-width="4" transform="scale(4, 4)"> <rect x="1" y="1" width="255" height="255" fill="white" stroke-width="0"/></g>
</g>
		<g id="id1:id4:id4" transform="matrix(1.0,0,0,1.0,4096,0.0)">			<g stroke="white" stroke-width="4" transform="scale(4, 4)"> <rect x="1" y="1" width="255" height="255" fill="white" stroke-width="0"/></g>
</g>
</g>
</svg>
