<?xml version="1.0" standalone="no"?>
<!DOCTYPE svg PUBLIC "-//W3C//DTD SVG 1.1//EN"
 "http://www.w3.org/Graphics/SVG/1.1/DTD/svg11.dtd">
<!-- generate by Handict dictionary app com.asnsami.handict -->

<svg xmlns="http://www.w3.org/2000/svg" xmlns:sodipodi="http://sodipodi.sourceforge.net/DTD/sodipodi-0.dtd" version="1.1" width="640" height="256" viewBox="0 0 5120 2048">
	<g id="id0:id0" transform="translate(0.0,0)">
		<g id="id0:id0:id0" transform="matrix(1.0,0,0,1.0,0,0.0)">			<g stroke="lightgray" stroke-width="4" transform="scale(4, 4)"> <rect x="0" y="0" width="256" height="256" fill="white" stroke-width="4"/></g>
			<g transform="scale(0.92, -0.92) translate(60, -920)">					<path d="M 642 676 Q 756 724 771 726 Q 787 727 791 736 Q 795 746 782 757 Q 719 799 688 792 Q 681 788 680 778 Q 681 736 472 632 Q 468 623 474 620 Q 490 620 582 653 Q 592 657 603 660 L 642 676 Z" fill="red"></path>
				<path d="M 671 468 Q 735 486 847 501 Q 857 500 866 514 Q 867 526 844 535 Q 810 556 725 525 Q 698 519 673 510 L 619 496 Q 541 481 443 465 Q 415 461 437 444 Q 474 420 499 427 Q 554 442 619 456 L 671 468 Z" fill="lightgray"></path>
				<path d="M 665 298 Q 668 389 671 468 L 673 510 Q 676 648 677 648 Q 659 664 642 676 C 618 694 591 688 603 660 Q 621 630 619 496 L 619 456 Q 618 390 618 289 C 618 259 664 268 665 298 Z" fill="lightgray"></path>
				<path d="M 618 289 Q 548 279 467 265 Q 448 262 462 247 Q 475 234 493 230 Q 512 226 527 230 Q 632 260 791 259 Q 804 258 817 259 Q 836 259 840 267 Q 844 279 829 291 Q 775 330 711 309 Q 690 305 665 298 L 618 289 Z" fill="lightgray"></path>
				<path d="M 306 243 Q 334 298 364 380 Q 379 411 399 425 Q 408 432 401 447 Q 394 457 356 477 Q 346 487 322 478 Q 282 469 276 474 Q 272 481 289 525 Q 349 645 385 663 Q 406 676 390 694 Q 360 718 332 723 Q 316 727 296 711 Q 275 695 223 677 Q 166 661 143 665 Q 131 666 127 659 Q 123 652 134 645 Q 171 623 198 632 Q 235 639 284 659 Q 294 665 298 661 Q 305 651 293 622 Q 233 487 217 472 Q 204 462 208 449 Q 211 439 217 433 Q 229 420 247 431 Q 307 459 320 438 Q 324 428 314 398 Q 295 310 271 267 Q 270 266 268 263 L 249 231 Q 192 153 79 77 Q 67 67 76 62 Q 89 61 117 75 Q 211 121 267 183 Q 277 195 287 210 L 306 243 Z" fill="lightgray"></path>
				<path d="M 287 210 Q 302 203 318 192 Q 499 66 689 -11 Q 743 -27 950 43 Q 963 50 966 62 Q 967 72 943 71 Q 861 78 772 79 Q 583 85 306 243 L 268 263 Q 186 323 99 301 Q 87 295 93 285 Q 100 275 115 275 Q 188 272 249 231 L 287 210 Z" fill="lightgray"></path>
</g>
		<text x="40" y="140" font-size="128" fill="#999999">1</text></g>
		<g id="id0:id1:id1" transform="matrix(1.0,0,0,1.0,1024,0.0)">			<g stroke="lightgray" stroke-width="4" transform="scale(4, 4)"> <rect x="0" y="0" width="256" height="256" fill="white" stroke-width="4"/></g>
			<g transform="scale(0.92, -0.92) translate(60, -920)">					<path d="M 642 676 Q 756 724 771 726 Q 787 727 791 736 Q 795 746 782 757 Q 719 799 688 792 Q 681 788 680 778 Q 681 736 472 632 Q 468 623 474 620 Q 490 620 582 653 Q 592 657 603 660 L 642 676 Z" fill="black"></path>
				<path d="M 671 468 Q 735 486 847 501 Q 857 500 866 514 Q 867 526 844 535 Q 810 556 725 525 Q 698 519 673 510 L 619 496 Q 541 481 443 465 Q 415 461 437 444 Q 474 420 499 427 Q 554 442 619 456 L 671 468 Z" fill="red"></path>
				<path d="M 665 298 Q 668 389 671 468 L 673 510 Q 676 648 677 648 Q 659 664 642 676 C 618 694 591 688 603 660 Q 621 630 619 496 L 619 456 Q 618 390 618 289 C 618 259 664 268 665 298 Z" fill="lightgray"></path>
				<path d="M 618 289 Q 548 279 467 265 Q 448 262 462 247 Q 475 234 493 230 Q 512 226 527 230 Q 632 260 791 259 Q 804 258 817 259 Q 836 259 840 267 Q 844 279 829 291 Q 775 330 711 309 Q 690 305 665 298 L 618 289 Z" fill="lightgray"></path>
				<path d="M 306 243 Q 334 298 364 380 Q 379 411 399 425 Q 408 432 401 447 Q 394 457 356 477 Q 346 487 322 478 Q 282 469 276 474 Q 272 481 289 525 Q 349 645 385 663 Q 406 676 390 694 Q 360 718 332 723 Q 316 727 296 711 Q 275 695 223 677 Q 166 661 143 665 Q 131 666 127 659 Q 123 652 134 645 Q 171 623 198 632 Q 235 639 284 659 Q 294 665 298 661 Q 305 651 293 622 Q 233 487 217 472 Q 204 462 208 449 Q 211 439 217 433 Q 229 420 247 431 Q 307 459 320 438 Q 324 428 314 398 Q 295 310 271 267 Q 270 266 268 263 L 249 231 Q 192 153 79 77 Q 67 67 76 62 Q 89 61 117 75 Q 211 121 267 183 Q 277 195 287 210 L 306 243 Z" fill="lightgray"></path>
				<path d="M 287 210 Q 302 203 318 192 Q 499 66 689 -11 Q 743 -27 950 43 Q 963 50 966 62 Q 967 72 943 71 Q 861 78 772 79 Q 583 85 306 243 L 268 263 Q 186 323 99 301 Q 87 295 93 285 Q 100 275 115 275 Q 188 272 249 231 L 287 210 Z" fill="lightgray"></path>
</g>
		<text x="40" y="140" font-size="128" fill="#999999">2</text></g>
		<g id="id0:id2:id2" transform="matrix(1.0,0,0,1.0,2048,0.0)">			<g stroke="lightgray" stroke-width="4" transform="scale(4, 4)"> <rect x="0" y="0" width="256" height="256" fill="white" stroke-width="4"/></g>
			<g transform="scale(0.92, -0.92) translate(60, -920)">					<path d="M 642 676 Q 756 724 771 726 Q 787 727 791 736 Q 795 746 782 757 Q 719 799 688 792 Q 681 788 680 778 Q 681 736 472 632 Q 468 623 474 620 Q 490 620 582 653 Q 592 657 603 660 L 642 676 Z" fill="black"></path>
				<path d="M 671 468 Q 735 486 847 501 Q 857 500 866 514 Q 867 526 844 535 Q 810 556 725 525 Q 698 519 673 510 L 619 496 Q 541 481 443 465 Q 415 461 437 444 Q 474 420 499 427 Q 554 442 619 456 L 671 468 Z" fill="black"></path>
				<path d="M 665 298 Q 668 389 671 468 L 673 510 Q 676 648 677 648 Q 659 664 642 676 C 618 694 591 688 603 660 Q 621 630 619 496 L 619 456 Q 618 390 618 289 C 618 259 664 268 665 298 Z" fill="red"></path>
				<path d="M 618 289 Q 548 279 467 265 Q 448 262 462 247 Q 475 234 493 230 Q 512 226 527 230 Q 632 260 791 259 Q 804 258 817 259 Q 836 259 840 267 Q 844 279 829 291 Q 775 330 711 309 Q 690 305 665 298 L 618 289 Z" fill="lightgray"></path>
				<path d="M 306 243 Q 334 298 364 380 Q 379 411 399 425 Q 408 432 401 447 Q 394 457 356 477 Q 346 487 322 478 Q 282 469 276 474 Q 272 481 289 525 Q 349 645 385 663 Q 406 676 390 694 Q 360 718 332 723 Q 316 727 296 711 Q 275 695 223 677 Q 166 661 143 665 Q 131 666 127 659 Q 123 652 134 645 Q 171 623 198 632 Q 235 639 284 659 Q 294 665 298 661 Q 305 651 293 622 Q 233 487 217 472 Q 204 462 208 449 Q 211 439 217 433 Q 229 420 247 431 Q 307 459 320 438 Q 324 428 314 398 Q 295 310 271 267 Q 270 266 268 263 L 249 231 Q 192 153 79 77 Q 67 67 76 62 Q 89 61 117 75 Q 211 121 267 183 Q 277 195 287 210 L 306 243 Z" fill="lightgray"></path>
				<path d="M 287 210 Q 302 203 318 192 Q 499 66 689 -11 Q 743 -27 950 43 Q 963 50 966 62 Q 967 72 943 71 Q 861 78 772 79 Q 583 85 306 243 L 268 263 Q 186 323 99 301 Q 87 295 93 285 Q 100 275 115 275 Q 188 272 249 231 L 287 210 Z" fill="lightgray"></path>
</g>
		<text x="40" y="140" font-size="128" fill="#999999">3</text></g>
		<g id="id0:id3:id3" transform="matrix(1.0,0,0,1.0,3072,0.0)">			<g stroke="lightgray" stroke-width="4" transform="scale(4, 4)"> <rect x="0" y="0" width="256" height="256" fill="white" stroke-width="4"/></g>
			<g transform="scale(0.92, -0.92) translate(60, -920)">					<path d="M 642 676 Q 756 724 771 726 Q 787 727 791 736 Q 795 746 782 757 Q 719 799 688 792 Q 681 788 680 778 Q 681 736 472 632 Q 468 623 474 620 Q 490 620 582 653 Q 592 657 603 660 L 642 676 Z" fill="black"></path>
				<path d="M 671 468 Q 735 486 847 501 Q 857 500 866 514 Q 867 526 844 535 Q 810 556 725 525 Q 698 519 673 510 L 619 496 Q 541 481 443 465 Q 415 461 437 444 Q 474 420 499 427 Q 554 442 619 456 L 671 468 Z" fill="black"></path>
				<path d="M 665 298 Q 668 389 671 468 L 673 510 Q 676 648 677 648 Q 659 664 642 676 C 618 694 591 688 603 660 Q 621 630 619 496 L 619 456 Q 618 390 618 289 C 618 259 664 268 665 298 Z" fill="black"></path>
				<path d="M 618 289 Q 548 279 467 265 Q 448 262 462 247 Q 475 234 493 230 Q 512 226 527 230 Q 632 260 791 259 Q 804 258 817 259 Q 836 259 840 267 Q 844 279 829 291 Q 775 330 711 309 Q 690 305 665 298 L 618 289 Z" fill="red"></path>
				<path d="M 306 243 Q 334 298 364 380 Q 379 411 399 425 Q 408 432 401 447 Q 394 457 356 477 Q 346 487 322 478 Q 282 469 276 474 Q 272 481 289 525 Q 349 645 385 663 Q 406 676 390 694 Q 360 718 332 723 Q 316 727 296 711 Q 275 695 223 677 Q 166 661 143 665 Q 131 666 127 659 Q 123 652 134 645 Q 171 623 198 632 Q 235 639 284 659 Q 294 665 298 661 Q 305 651 293 622 Q 233 487 217 472 Q 204 462 208 449 Q 211 439 217 433 Q 229 420 247 431 Q 307 459 320 438 Q 324 428 314 398 Q 295 310 271 267 Q 270 266 268 263 L 249 231 Q 192 153 79 77 Q 67 67 76 62 Q 89 61 117 75 Q 211 121 267 183 Q 277 195 287 210 L 306 243 Z" fill="lightgray"></path>
				<path d="M 287 210 Q 302 203 318 192 Q 499 66 689 -11 Q 743 -27 950 43 Q 963 50 966 62 Q 967 72 943 71 Q 861 78 772 79 Q 583 85 306 243 L 268 263 Q 186 323 99 301 Q 87 295 93 285 Q 100 275 115 275 Q 188 272 249 231 L 287 210 Z" fill="lightgray"></path>
</g>
		<text x="40" y="140" font-size="128" fill="#999999">4</text></g>
		<g id="id0:id4:id4" transform="matrix(1.0,0,0,1.0,4096,0.0)">			<g stroke="lightgray" stroke-width="4" transform="scale(4, 4)"> <rect x="0" y="0" width="256" height="256" fill="white" stroke-width="4"/></g>
			<g transform="scale(0.92, -0.92) translate(60, -920)">					<path d="M 642 676 Q 756 724 771 726 Q 787 727 791 736 Q 795 746 782 757 Q 719 799 688 792 Q 681 788 680 778 Q 681 736 472 632 Q 468 623 474 620 Q 490 620 582 653 Q 592 657 603 660 L 642 676 Z" fill="black"></path>
				<path d="M 671 468 Q 735 486 847 501 Q 857 500 866 514 Q 867 526 844 535 Q 810 556 725 525 Q 698 519 673 510 L 619 496 Q 541 481 443 465 Q 415 461 437 444 Q 474 420 499 427 Q 554 442 619 456 L 671 468 Z" fill="black"></path>
				<path d="M 665 298 Q 668 389 671 468 L 673 510 Q 676 648 677 648 Q 659 664 642 676 C 618 694 591 688 603 660 Q 621 630 619 496 L 619 456 Q 618 390 618 289 C 618 259 664 268 665 298 Z" fill="black"></path>
				<path d="M 618 289 Q 548 279 467 265 Q 448 262 462 247 Q 475 234 493 230 Q 512 226 527 230 Q 632 260 791 259 Q 804 258 817 259 Q 836 259 840 267 Q 844 279 829 291 Q 775 330 711 309 Q 690 305 665 298 L 618 289 Z" fill="black"></path>
				<path d="M 306 243 Q 334 298 364 380 Q 379 411 399 425 Q 408 432 401 447 Q 394 457 356 477 Q 346 487 322 478 Q 282 469 276 474 Q 272 481 289 525 Q 349 645 385 663 Q 406 676 390 694 Q 360 718 332 723 Q 316 727 296 711 Q 275 695 223 677 Q 166 661 143 665 Q 131 666 127 659 Q 123 652 134 645 Q 171 623 198 632 Q 235 639 284 659 Q 294 665 298 661 Q 305 651 293 622 Q 233 487 217 472 Q 204 462 208 449 Q 211 439 217 433 Q 229 420 247 431 Q 307 459 320 438 Q 324 428 314 398 Q 295 310 271 267 Q 270 266 268 263 L 249 231 Q 192 153 79 77 Q 67 67 76 62 Q 89 61 117 75 Q 211 121 267 183 Q 277 195 287 210 L 306 243 Z" fill="red"></path>
				<path d="M 287 210 Q 302 203 318 192 Q 499 66 689 -11 Q 743 -27 950 43 Q 963 50 966 62 Q 967 72 943 71 Q 861 78 772 79 Q 583 85 306 243 L 268 263 Q 186 323 99 301 Q 87 295 93 285 Q 100 275 115 275 Q 188 272 249 231 L 287 210 Z" fill="lightgray"></path>
</g>
		<text x="40" y="140" font-size="128" fill="#999999">5</text></g>
</g>
	<g id="id1:id1" transform="translate(0.0,1024)">
		<g id="id1:id0:id0" transform="matrix(1.0,0,0,1.0,0,0.0)">			<g stroke="lightgray" stroke-width="4" transform="scale(4, 4)"> <rect x="0" y="0" width="256" height="256" fill="white" stroke-width="4"/></g>
			<g transform="scale(0.92, -0.92) translate(60, -920)">					<path d="M 642 676 Q 756 724 771 726 Q 787 727 791 736 Q 795 746 782 757 Q 719 799 688 792 Q 681 788 680 778 Q 681 736 472 632 Q 468 623 474 620 Q 490 620 582 653 Q 592 657 603 660 L 642 676 Z" fill="black"></path>
				<path d="M 671 468 Q 735 486 847 501 Q 857 500 866 514 Q 867 526 844 535 Q 810 556 725 525 Q 698 519 673 510 L 619 496 Q 541 481 443 465 Q 415 461 437 444 Q 474 420 499 427 Q 554 442 619 456 L 671 468 Z" fill="black"></path>
				<path d="M 665 298 Q 668 389 671 468 L 673 510 Q 676 648 677 648 Q 659 664 642 676 C 618 694 591 688 603 660 Q 621 630 619 496 L 619 456 Q 618 390 618 289 C 618 259 664 268 665 298 Z" fill="black"></path>
				<path d="M 618 289 Q 548 279 467 265 Q 448 262 462 247 Q 475 234 493 230 Q 512 226 527 230 Q 632 260 791 259 Q 804 258 817 259 Q 836 259 840 267 Q 844 279 829 291 Q 775 330 711 309 Q 690 305 665 298 L 618 289 Z" fill="black"></path>
				<path d="M 306 243 Q 334 298 364 380 Q 379 411 399 425 Q 408 432 401 447 Q 394 457 356 477 Q 346 487 322 478 Q 282 469 276 474 Q 272 481 289 525 Q 349 645 385 663 Q 406 676 390 694 Q 360 718 332 723 Q 316 727 296 711 Q 275 695 223 677 Q 166 661 143 665 Q 131 666 127 659 Q 123 652 134 645 Q 171 623 198 632 Q 235 639 284 659 Q 294 665 298 661 Q 305 651 293 622 Q 233 487 217 472 Q 204 462 208 449 Q 211 439 217 433 Q 229 420 247 431 Q 307 459 320 438 Q 324 428 314 398 Q 295 310 271 267 Q 270 266 268 263 L 249 231 Q 192 153 79 77 Q 67 67 76 62 Q 89 61 117 75 Q 211 121 267 183 Q 277 195 287 210 L 306 243 Z" fill="black"></path>
				<path d="M 287 210 Q 302 203 318 192 Q 499 66 689 -11 Q 743 -27 950 43 Q 963 50 966 62 Q 967 72 943 71 Q 861 78 772 79 Q 583 85 306 243 L 268 263 Q 186 323 99 301 Q 87 295 93 285 Q 100 275 115 275 Q 188 272 249 231 L 287 210 Z" fill="red"></path>
</g>
		<text x="40" y="140" font-size="128" fill="#999999">6</text></g>
		<g id="id1:id1:id1" transform="matrix(1.0,0,0,1.0,1024,0.0)">			<g stroke="white" stroke-width="4" transform="scale(4, 4)"> <rect x="1" y="1" width="255" height="255" fill="white" stroke-width="0"/></g>
</g>
		<g id="id1:id2:id2" transform="matrix(1.0,0,0,1.0,2048,0.0)">			<g stroke="white" stroke-width="4" transform="scale(4, 4)"> <rect x="1" y="1" width="255" height="255" fill="white" stroke-width="0"/></g>
</g>
		<g id="id1:id3:id3" transform="matrix(1.0,0,0,1.0,3072,0.0)">			<g stroke="white" stroke-width="4" transform="scale(4, 4)"> <rect x="1" y="1" width="255" height="255" fill="white" stroke-width="0"/></g>
</g>
		<g id="id1:id4:id4" transform="matrix(1.0,0,0,1.0,4096,0.0)">			<g stroke="white" stroke-width="4" transform="scale(4, 4)"> <rect x="1" y="1" width="255" height="255" fill="white" stroke-width="0"/></g>
</g>
</g>
</svg>
