<?xml version="1.0" standalone="no"?>
<!DOCTYPE svg PUBLIC "-//W3C//DTD SVG 1.1//EN"
 "http://www.w3.org/Graphics/SVG/1.1/DTD/svg11.dtd">
<!-- generate by Japanese dictionary app com.asnsami.kanjidictionary -->

<svg xmlns="http://www.w3.org/2000/svg" xmlns:sodipodi="http://sodipodi.sourceforge.net/DTD/sodipodi-0.dtd" version="1.1" width="640" height="128" viewBox="0 0 5120 1024">
	<g id="id0:id0" transform="translate(0.0,0)">
		<g id="id0:id0:id0" transform="matrix(1.0,0,0,1.0,0,0.0)">			<g stroke="lightgray" stroke-width="4" transform="scale(4, 4)"> <rect x="0" y="0" width="256" height="256" fill="white" stroke-width="4"/></g>
			<g transform="scale(0.92, -0.92) translate(60, -920)">					<path d="M 675 625 Q 706 700 744 726 Q 763 745 747 766 Q 729 782 671 811 Q 652 820 627 811 Q 524 768 371 748 Q 352 747 354 736 Q 357 726 378 720 Q 406 707 446 721 Q 531 737 611 753 Q 633 757 641 749 Q 653 734 620 633 C 611 604 663 597 675 625 Z" fill="red"></path>
				<path d="M 379 534 Q 448 558 687 589 Q 700 590 700 601 Q 700 608 675 625 L 620 633 Q 616 633 612 631 Q 482 594 376 574 C 347 568 350 525 379 534 Z" fill="lightgray"></path>
				<path d="M 320 336 Q 413 388 642 408 Q 669 411 679 401 Q 698 379 688 335 Q 672 244 627 119 Q 617 94 595 80 Q 577 74 479 107 Q 460 116 459 106 Q 458 96 479 78 Q 531 29 553 -13 Q 572 -47 601 -28 Q 661 11 686 62 Q 702 107 746 310 Q 755 359 778 379 Q 794 395 787 407 Q 775 420 723 449 Q 696 464 614 445 Q 437 417 358 396 Q 336 395 341 408 Q 362 495 379 534 C 389 562 390 564 376 574 Q 363 589 348 596 Q 323 606 314 603 Q 304 597 310 583 Q 331 541 297 437 Q 290 421 261 392 Q 249 377 258 364 Q 268 351 289 334 Q 301 324 320 336 Z" fill="lightgray"></path>
</g>
		<text x="40" y="140" font-size="128" fill="#999999">1</text></g>
		<g id="id0:id1:id1" transform="matrix(1.0,0,0,1.0,1024,0.0)">			<g stroke="lightgray" stroke-width="4" transform="scale(4, 4)"> <rect x="0" y="0" width="256" height="256" fill="white" stroke-width="4"/></g>
			<g transform="scale(0.92, -0.92) translate(60, -920)">					<path d="M 675 625 Q 706 700 744 726 Q 763 745 747 766 Q 729 782 671 811 Q 652 820 627 811 Q 524 768 371 748 Q 352 747 354 736 Q 357 726 378 720 Q 406 707 446 721 Q 531 737 611 753 Q 633 757 641 749 Q 653 734 620 633 C 611 604 663 597 675 625 Z" fill="black"></path>
				<path d="M 379 534 Q 448 558 687 589 Q 700 590 700 601 Q 700 608 675 625 L 620 633 Q 616 633 612 631 Q 482 594 376 574 C 347 568 350 525 379 534 Z" fill="red"></path>
				<path d="M 320 336 Q 413 388 642 408 Q 669 411 679 401 Q 698 379 688 335 Q 672 244 627 119 Q 617 94 595 80 Q 577 74 479 107 Q 460 116 459 106 Q 458 96 479 78 Q 531 29 553 -13 Q 572 -47 601 -28 Q 661 11 686 62 Q 702 107 746 310 Q 755 359 778 379 Q 794 395 787 407 Q 775 420 723 449 Q 696 464 614 445 Q 437 417 358 396 Q 336 395 341 408 Q 362 495 379 534 C 389 562 390 564 376 574 Q 363 589 348 596 Q 323 606 314 603 Q 304 597 310 583 Q 331 541 297 437 Q 290 421 261 392 Q 249 377 258 364 Q 268 351 289 334 Q 301 324 320 336 Z" fill="lightgray"></path>
</g>
		<text x="40" y="140" font-size="128" fill="#999999">2</text></g>
		<g id="id0:id2:id2" transform="matrix(1.0,0,0,1.0,2048,0.0)">			<g stroke="lightgray" stroke-width="4" transform="scale(4, 4)"> <rect x="0" y="0" width="256" height="256" fill="white" stroke-width="4"/></g>
			<g transform="scale(0.92, -0.92) translate(60, -920)">					<path d="M 675 625 Q 706 700 744 726 Q 763 745 747 766 Q 729 782 671 811 Q 652 820 627 811 Q 524 768 371 748 Q 352 747 354 736 Q 357 726 378 720 Q 406 707 446 721 Q 531 737 611 753 Q 633 757 641 749 Q 653 734 620 633 C 611 604 663 597 675 625 Z" fill="black"></path>
				<path d="M 379 534 Q 448 558 687 589 Q 700 590 700 601 Q 700 608 675 625 L 620 633 Q 616 633 612 631 Q 482 594 376 574 C 347 568 350 525 379 534 Z" fill="black"></path>
				<path d="M 320 336 Q 413 388 642 408 Q 669 411 679 401 Q 698 379 688 335 Q 672 244 627 119 Q 617 94 595 80 Q 577 74 479 107 Q 460 116 459 106 Q 458 96 479 78 Q 531 29 553 -13 Q 572 -47 601 -28 Q 661 11 686 62 Q 702 107 746 310 Q 755 359 778 379 Q 794 395 787 407 Q 775 420 723 449 Q 696 464 614 445 Q 437 417 358 396 Q 336 395 341 408 Q 362 495 379 534 C 389 562 390 564 376 574 Q 363 589 348 596 Q 323 606 314 603 Q 304 597 310 583 Q 331 541 297 437 Q 290 421 261 392 Q 249 377 258 364 Q 268 351 289 334 Q 301 324 320 336 Z" fill="red"></path>
</g>
		<text x="40" y="140" font-size="128" fill="#999999">3</text></g>
		<g id="id0:id3:id3" transform="matrix(1.0,0,0,1.0,3072,0.0)">			<g stroke="white" stroke-width="4" transform="scale(4, 4)"> <rect x="1" y="1" width="255" height="255" fill="white" stroke-width="0"/></g>
</g>
		<g id="id0:id4:id4" transform="matrix(1.0,0,0,1.0,4096,0.0)">			<g stroke="white" stroke-width="4" transform="scale(4, 4)"> <rect x="1" y="1" width="255" height="255" fill="white" stroke-width="0"/></g>
</g>
</g>
</svg>
