<?xml version="1.0" standalone="no"?>
<!DOCTYPE svg PUBLIC "-//W3C//DTD SVG 1.1//EN"
 "http://www.w3.org/Graphics/SVG/1.1/DTD/svg11.dtd">
<!-- generate by Japanese dictionary app com.asnsami.kanjidictionary -->

<svg xmlns="http://www.w3.org/2000/svg" xmlns:sodipodi="http://sodipodi.sourceforge.net/DTD/sodipodi-0.dtd" version="1.1" width="640" height="256" viewBox="0 0 5120 2048">
	<g id="id0:id0" transform="translate(0.0,0)">
		<g id="id0:id0:id0" transform="matrix(1.0,0,0,1.0,0,0.0)">			<g stroke="lightgray" stroke-width="4" transform="scale(4, 4)"> <rect x="0" y="0" width="256" height="256" fill="white" stroke-width="4"/></g>
			<g transform="scale(0.92, -0.92) translate(60, -920)">					<path d="M 134 528 Q 116 468 87 414 Q 69 375 91 344 Q 101 326 121 342 Q 169 385 167 471 Q 168 505 159 531 Q 153 538 147 540 Q 138 537 134 528 Z" fill="red"></path>
				<path d="M 300 563 Q 387 484 397 480 Q 398 480 402 480 Q 412 481 417 493 Q 421 506 414 533 Q 408 560 316 590 Q 306 593 300 591 C 274 587 278 583 300 563 Z" fill="lightgray"></path>
				<path d="M 300 591 Q 303 664 319 716 Q 328 731 325 745 Q 318 755 262 789 Q 238 805 217 790 Q 213 786 218 770 Q 249 722 251 657 Q 251 234 235 147 Q 231 125 224 101 Q 212 59 239 -2 Q 246 -20 254 -23 Q 260 -30 268 -21 Q 275 -17 286 4 Q 296 29 295 61 Q 295 109 300 563 L 300 591 Z" fill="lightgray"></path>
				<path d="M 684 592 Q 760 605 875 609 Q 933 613 938 622 Q 942 635 924 648 Q 863 688 808 670 Q 676 637 424 589 Q 402 585 419 568 Q 435 553 455 549 Q 477 545 495 550 Q 558 571 631 583 L 684 592 Z" fill="lightgray"></path>
				<path d="M 634 429 Q 707 544 708 551 Q 707 557 704 563 Q 694 581 684 592 C 666 616 634 613 631 583 Q 632 555 594 470 L 571 429 Q 493 302 339 157 Q 332 153 332 145 Q 331 139 338 140 Q 428 156 592 370 L 634 429 Z" fill="lightgray"></path>
				<path d="M 592 370 Q 592 216 589 178 Q 583 126 571 71 Q 558 25 593 -27 Q 594 -31 599 -35 Q 618 -53 631 -23 Q 647 20 646 70 Q 640 320 647 377 Q 656 407 644 418 Q 640 424 634 429 L 594 470 Q 587 476 579 479 Q 569 480 563 473 Q 557 458 571 429 L 592 370 Z" fill="lightgray"></path>
				<path d="M 731 324 Q 789 275 858 202 Q 876 181 892 177 Q 902 176 909 187 Q 922 200 907 247 Q 894 298 731 357 Q 721 361 719 349 Q 719 334 731 324 Z" fill="lightgray"></path>
</g>
		<text x="40" y="140" font-size="128" fill="#999999">1</text></g>
		<g id="id0:id1:id1" transform="matrix(1.0,0,0,1.0,1024,0.0)">			<g stroke="lightgray" stroke-width="4" transform="scale(4, 4)"> <rect x="0" y="0" width="256" height="256" fill="white" stroke-width="4"/></g>
			<g transform="scale(0.92, -0.92) translate(60, -920)">					<path d="M 134 528 Q 116 468 87 414 Q 69 375 91 344 Q 101 326 121 342 Q 169 385 167 471 Q 168 505 159 531 Q 153 538 147 540 Q 138 537 134 528 Z" fill="black"></path>
				<path d="M 300 563 Q 387 484 397 480 Q 398 480 402 480 Q 412 481 417 493 Q 421 506 414 533 Q 408 560 316 590 Q 306 593 300 591 C 274 587 278 583 300 563 Z" fill="red"></path>
				<path d="M 300 591 Q 303 664 319 716 Q 328 731 325 745 Q 318 755 262 789 Q 238 805 217 790 Q 213 786 218 770 Q 249 722 251 657 Q 251 234 235 147 Q 231 125 224 101 Q 212 59 239 -2 Q 246 -20 254 -23 Q 260 -30 268 -21 Q 275 -17 286 4 Q 296 29 295 61 Q 295 109 300 563 L 300 591 Z" fill="lightgray"></path>
				<path d="M 684 592 Q 760 605 875 609 Q 933 613 938 622 Q 942 635 924 648 Q 863 688 808 670 Q 676 637 424 589 Q 402 585 419 568 Q 435 553 455 549 Q 477 545 495 550 Q 558 571 631 583 L 684 592 Z" fill="lightgray"></path>
				<path d="M 634 429 Q 707 544 708 551 Q 707 557 704 563 Q 694 581 684 592 C 666 616 634 613 631 583 Q 632 555 594 470 L 571 429 Q 493 302 339 157 Q 332 153 332 145 Q 331 139 338 140 Q 428 156 592 370 L 634 429 Z" fill="lightgray"></path>
				<path d="M 592 370 Q 592 216 589 178 Q 583 126 571 71 Q 558 25 593 -27 Q 594 -31 599 -35 Q 618 -53 631 -23 Q 647 20 646 70 Q 640 320 647 377 Q 656 407 644 418 Q 640 424 634 429 L 594 470 Q 587 476 579 479 Q 569 480 563 473 Q 557 458 571 429 L 592 370 Z" fill="lightgray"></path>
				<path d="M 731 324 Q 789 275 858 202 Q 876 181 892 177 Q 902 176 909 187 Q 922 200 907 247 Q 894 298 731 357 Q 721 361 719 349 Q 719 334 731 324 Z" fill="lightgray"></path>
</g>
		<text x="40" y="140" font-size="128" fill="#999999">2</text></g>
		<g id="id0:id2:id2" transform="matrix(1.0,0,0,1.0,2048,0.0)">			<g stroke="lightgray" stroke-width="4" transform="scale(4, 4)"> <rect x="0" y="0" width="256" height="256" fill="white" stroke-width="4"/></g>
			<g transform="scale(0.92, -0.92) translate(60, -920)">					<path d="M 134 528 Q 116 468 87 414 Q 69 375 91 344 Q 101 326 121 342 Q 169 385 167 471 Q 168 505 159 531 Q 153 538 147 540 Q 138 537 134 528 Z" fill="black"></path>
				<path d="M 300 563 Q 387 484 397 480 Q 398 480 402 480 Q 412 481 417 493 Q 421 506 414 533 Q 408 560 316 590 Q 306 593 300 591 C 274 587 278 583 300 563 Z" fill="black"></path>
				<path d="M 300 591 Q 303 664 319 716 Q 328 731 325 745 Q 318 755 262 789 Q 238 805 217 790 Q 213 786 218 770 Q 249 722 251 657 Q 251 234 235 147 Q 231 125 224 101 Q 212 59 239 -2 Q 246 -20 254 -23 Q 260 -30 268 -21 Q 275 -17 286 4 Q 296 29 295 61 Q 295 109 300 563 L 300 591 Z" fill="red"></path>
				<path d="M 684 592 Q 760 605 875 609 Q 933 613 938 622 Q 942 635 924 648 Q 863 688 808 670 Q 676 637 424 589 Q 402 585 419 568 Q 435 553 455 549 Q 477 545 495 550 Q 558 571 631 583 L 684 592 Z" fill="lightgray"></path>
				<path d="M 634 429 Q 707 544 708 551 Q 707 557 704 563 Q 694 581 684 592 C 666 616 634 613 631 583 Q 632 555 594 470 L 571 429 Q 493 302 339 157 Q 332 153 332 145 Q 331 139 338 140 Q 428 156 592 370 L 634 429 Z" fill="lightgray"></path>
				<path d="M 592 370 Q 592 216 589 178 Q 583 126 571 71 Q 558 25 593 -27 Q 594 -31 599 -35 Q 618 -53 631 -23 Q 647 20 646 70 Q 640 320 647 377 Q 656 407 644 418 Q 640 424 634 429 L 594 470 Q 587 476 579 479 Q 569 480 563 473 Q 557 458 571 429 L 592 370 Z" fill="lightgray"></path>
				<path d="M 731 324 Q 789 275 858 202 Q 876 181 892 177 Q 902 176 909 187 Q 922 200 907 247 Q 894 298 731 357 Q 721 361 719 349 Q 719 334 731 324 Z" fill="lightgray"></path>
</g>
		<text x="40" y="140" font-size="128" fill="#999999">3</text></g>
		<g id="id0:id3:id3" transform="matrix(1.0,0,0,1.0,3072,0.0)">			<g stroke="lightgray" stroke-width="4" transform="scale(4, 4)"> <rect x="0" y="0" width="256" height="256" fill="white" stroke-width="4"/></g>
			<g transform="scale(0.92, -0.92) translate(60, -920)">					<path d="M 134 528 Q 116 468 87 414 Q 69 375 91 344 Q 101 326 121 342 Q 169 385 167 471 Q 168 505 159 531 Q 153 538 147 540 Q 138 537 134 528 Z" fill="black"></path>
				<path d="M 300 563 Q 387 484 397 480 Q 398 480 402 480 Q 412 481 417 493 Q 421 506 414 533 Q 408 560 316 590 Q 306 593 300 591 C 274 587 278 583 300 563 Z" fill="black"></path>
				<path d="M 300 591 Q 303 664 319 716 Q 328 731 325 745 Q 318 755 262 789 Q 238 805 217 790 Q 213 786 218 770 Q 249 722 251 657 Q 251 234 235 147 Q 231 125 224 101 Q 212 59 239 -2 Q 246 -20 254 -23 Q 260 -30 268 -21 Q 275 -17 286 4 Q 296 29 295 61 Q 295 109 300 563 L 300 591 Z" fill="black"></path>
				<path d="M 684 592 Q 760 605 875 609 Q 933 613 938 622 Q 942 635 924 648 Q 863 688 808 670 Q 676 637 424 589 Q 402 585 419 568 Q 435 553 455 549 Q 477 545 495 550 Q 558 571 631 583 L 684 592 Z" fill="red"></path>
				<path d="M 634 429 Q 707 544 708 551 Q 707 557 704 563 Q 694 581 684 592 C 666 616 634 613 631 583 Q 632 555 594 470 L 571 429 Q 493 302 339 157 Q 332 153 332 145 Q 331 139 338 140 Q 428 156 592 370 L 634 429 Z" fill="lightgray"></path>
				<path d="M 592 370 Q 592 216 589 178 Q 583 126 571 71 Q 558 25 593 -27 Q 594 -31 599 -35 Q 618 -53 631 -23 Q 647 20 646 70 Q 640 320 647 377 Q 656 407 644 418 Q 640 424 634 429 L 594 470 Q 587 476 579 479 Q 569 480 563 473 Q 557 458 571 429 L 592 370 Z" fill="lightgray"></path>
				<path d="M 731 324 Q 789 275 858 202 Q 876 181 892 177 Q 902 176 909 187 Q 922 200 907 247 Q 894 298 731 357 Q 721 361 719 349 Q 719 334 731 324 Z" fill="lightgray"></path>
</g>
		<text x="40" y="140" font-size="128" fill="#999999">4</text></g>
		<g id="id0:id4:id4" transform="matrix(1.0,0,0,1.0,4096,0.0)">			<g stroke="lightgray" stroke-width="4" transform="scale(4, 4)"> <rect x="0" y="0" width="256" height="256" fill="white" stroke-width="4"/></g>
			<g transform="scale(0.92, -0.92) translate(60, -920)">					<path d="M 134 528 Q 116 468 87 414 Q 69 375 91 344 Q 101 326 121 342 Q 169 385 167 471 Q 168 505 159 531 Q 153 538 147 540 Q 138 537 134 528 Z" fill="black"></path>
				<path d="M 300 563 Q 387 484 397 480 Q 398 480 402 480 Q 412 481 417 493 Q 421 506 414 533 Q 408 560 316 590 Q 306 593 300 591 C 274 587 278 583 300 563 Z" fill="black"></path>
				<path d="M 300 591 Q 303 664 319 716 Q 328 731 325 745 Q 318 755 262 789 Q 238 805 217 790 Q 213 786 218 770 Q 249 722 251 657 Q 251 234 235 147 Q 231 125 224 101 Q 212 59 239 -2 Q 246 -20 254 -23 Q 260 -30 268 -21 Q 275 -17 286 4 Q 296 29 295 61 Q 295 109 300 563 L 300 591 Z" fill="black"></path>
				<path d="M 684 592 Q 760 605 875 609 Q 933 613 938 622 Q 942 635 924 648 Q 863 688 808 670 Q 676 637 424 589 Q 402 585 419 568 Q 435 553 455 549 Q 477 545 495 550 Q 558 571 631 583 L 684 592 Z" fill="black"></path>
				<path d="M 634 429 Q 707 544 708 551 Q 707 557 704 563 Q 694 581 684 592 C 666 616 634 613 631 583 Q 632 555 594 470 L 571 429 Q 493 302 339 157 Q 332 153 332 145 Q 331 139 338 140 Q 428 156 592 370 L 634 429 Z" fill="red"></path>
				<path d="M 592 370 Q 592 216 589 178 Q 583 126 571 71 Q 558 25 593 -27 Q 594 -31 599 -35 Q 618 -53 631 -23 Q 647 20 646 70 Q 640 320 647 377 Q 656 407 644 418 Q 640 424 634 429 L 594 470 Q 587 476 579 479 Q 569 480 563 473 Q 557 458 571 429 L 592 370 Z" fill="lightgray"></path>
				<path d="M 731 324 Q 789 275 858 202 Q 876 181 892 177 Q 902 176 909 187 Q 922 200 907 247 Q 894 298 731 357 Q 721 361 719 349 Q 719 334 731 324 Z" fill="lightgray"></path>
</g>
		<text x="40" y="140" font-size="128" fill="#999999">5</text></g>
</g>
	<g id="id1:id1" transform="translate(0.0,1024)">
		<g id="id1:id0:id0" transform="matrix(1.0,0,0,1.0,0,0.0)">			<g stroke="lightgray" stroke-width="4" transform="scale(4, 4)"> <rect x="0" y="0" width="256" height="256" fill="white" stroke-width="4"/></g>
			<g transform="scale(0.92, -0.92) translate(60, -920)">					<path d="M 134 528 Q 116 468 87 414 Q 69 375 91 344 Q 101 326 121 342 Q 169 385 167 471 Q 168 505 159 531 Q 153 538 147 540 Q 138 537 134 528 Z" fill="black"></path>
				<path d="M 300 563 Q 387 484 397 480 Q 398 480 402 480 Q 412 481 417 493 Q 421 506 414 533 Q 408 560 316 590 Q 306 593 300 591 C 274 587 278 583 300 563 Z" fill="black"></path>
				<path d="M 300 591 Q 303 664 319 716 Q 328 731 325 745 Q 318 755 262 789 Q 238 805 217 790 Q 213 786 218 770 Q 249 722 251 657 Q 251 234 235 147 Q 231 125 224 101 Q 212 59 239 -2 Q 246 -20 254 -23 Q 260 -30 268 -21 Q 275 -17 286 4 Q 296 29 295 61 Q 295 109 300 563 L 300 591 Z" fill="black"></path>
				<path d="M 684 592 Q 760 605 875 609 Q 933 613 938 622 Q 942 635 924 648 Q 863 688 808 670 Q 676 637 424 589 Q 402 585 419 568 Q 435 553 455 549 Q 477 545 495 550 Q 558 571 631 583 L 684 592 Z" fill="black"></path>
				<path d="M 634 429 Q 707 544 708 551 Q 707 557 704 563 Q 694 581 684 592 C 666 616 634 613 631 583 Q 632 555 594 470 L 571 429 Q 493 302 339 157 Q 332 153 332 145 Q 331 139 338 140 Q 428 156 592 370 L 634 429 Z" fill="black"></path>
				<path d="M 592 370 Q 592 216 589 178 Q 583 126 571 71 Q 558 25 593 -27 Q 594 -31 599 -35 Q 618 -53 631 -23 Q 647 20 646 70 Q 640 320 647 377 Q 656 407 644 418 Q 640 424 634 429 L 594 470 Q 587 476 579 479 Q 569 480 563 473 Q 557 458 571 429 L 592 370 Z" fill="red"></path>
				<path d="M 731 324 Q 789 275 858 202 Q 876 181 892 177 Q 902 176 909 187 Q 922 200 907 247 Q 894 298 731 357 Q 721 361 719 349 Q 719 334 731 324 Z" fill="lightgray"></path>
</g>
		<text x="40" y="140" font-size="128" fill="#999999">6</text></g>
		<g id="id1:id1:id1" transform="matrix(1.0,0,0,1.0,1024,0.0)">			<g stroke="lightgray" stroke-width="4" transform="scale(4, 4)"> <rect x="0" y="0" width="256" height="256" fill="white" stroke-width="4"/></g>
			<g transform="scale(0.92, -0.92) translate(60, -920)">					<path d="M 134 528 Q 116 468 87 414 Q 69 375 91 344 Q 101 326 121 342 Q 169 385 167 471 Q 168 505 159 531 Q 153 538 147 540 Q 138 537 134 528 Z" fill="black"></path>
				<path d="M 300 563 Q 387 484 397 480 Q 398 480 402 480 Q 412 481 417 493 Q 421 506 414 533 Q 408 560 316 590 Q 306 593 300 591 C 274 587 278 583 300 563 Z" fill="black"></path>
				<path d="M 300 591 Q 303 664 319 716 Q 328 731 325 745 Q 318 755 262 789 Q 238 805 217 790 Q 213 786 218 770 Q 249 722 251 657 Q 251 234 235 147 Q 231 125 224 101 Q 212 59 239 -2 Q 246 -20 254 -23 Q 260 -30 268 -21 Q 275 -17 286 4 Q 296 29 295 61 Q 295 109 300 563 L 300 591 Z" fill="black"></path>
				<path d="M 684 592 Q 760 605 875 609 Q 933 613 938 622 Q 942 635 924 648 Q 863 688 808 670 Q 676 637 424 589 Q 402 585 419 568 Q 435 553 455 549 Q 477 545 495 550 Q 558 571 631 583 L 684 592 Z" fill="black"></path>
				<path d="M 634 429 Q 707 544 708 551 Q 707 557 704 563 Q 694 581 684 592 C 666 616 634 613 631 583 Q 632 555 594 470 L 571 429 Q 493 302 339 157 Q 332 153 332 145 Q 331 139 338 140 Q 428 156 592 370 L 634 429 Z" fill="black"></path>
				<path d="M 592 370 Q 592 216 589 178 Q 583 126 571 71 Q 558 25 593 -27 Q 594 -31 599 -35 Q 618 -53 631 -23 Q 647 20 646 70 Q 640 320 647 377 Q 656 407 644 418 Q 640 424 634 429 L 594 470 Q 587 476 579 479 Q 569 480 563 473 Q 557 458 571 429 L 592 370 Z" fill="black"></path>
				<path d="M 731 324 Q 789 275 858 202 Q 876 181 892 177 Q 902 176 909 187 Q 922 200 907 247 Q 894 298 731 357 Q 721 361 719 349 Q 719 334 731 324 Z" fill="red"></path>
</g>
		<text x="40" y="140" font-size="128" fill="#999999">7</text></g>
		<g id="id1:id2:id2" transform="matrix(1.0,0,0,1.0,2048,0.0)">			<g stroke="white" stroke-width="4" transform="scale(4, 4)"> <rect x="1" y="1" width="255" height="255" fill="white" stroke-width="0"/></g>
</g>
		<g id="id1:id3:id3" transform="matrix(1.0,0,0,1.0,3072,0.0)">			<g stroke="white" stroke-width="4" transform="scale(4, 4)"> <rect x="1" y="1" width="255" height="255" fill="white" stroke-width="0"/></g>
</g>
		<g id="id1:id4:id4" transform="matrix(1.0,0,0,1.0,4096,0.0)">			<g stroke="white" stroke-width="4" transform="scale(4, 4)"> <rect x="1" y="1" width="255" height="255" fill="white" stroke-width="0"/></g>
</g>
</g>
</svg>
