<?xml version="1.0" standalone="no"?>
<!DOCTYPE svg PUBLIC "-//W3C//DTD SVG 1.1//EN"
 "http://www.w3.org/Graphics/SVG/1.1/DTD/svg11.dtd">
<!-- generate by Japanese dictionary app com.asnsami.kanjidictionary -->

<svg xmlns="http://www.w3.org/2000/svg" xmlns:sodipodi="http://sodipodi.sourceforge.net/DTD/sodipodi-0.dtd" version="1.1" width="640" height="384" viewBox="0 0 5120 3072">
	<g id="id0:id0" transform="translate(0.0,0)">
		<g id="id0:id0:id0" transform="matrix(1.0,0,0,1.0,0,0.0)">			<g stroke="lightgray" stroke-width="4" transform="scale(4, 4)"> <rect x="0" y="0" width="256" height="256" fill="white" stroke-width="4"/></g>
			<g transform="scale(0.92, -0.92) translate(60, -920)">					<path d="M 133 548 Q 118 482 92 422 Q 79 388 99 359 Q 109 343 127 358 Q 175 406 166 497 Q 166 528 156 551 Q 149 558 144 559 Q 137 556 133 548 Z" fill="red"></path>
				<path d="M 291 591 Q 309 579 352 539 Q 364 529 376 529 Q 385 530 389 541 Q 393 553 385 577 Q 381 593 354 606 Q 327 615 298 622 Q 294 623 292 622 C 262 620 266 608 291 591 Z" fill="lightgray"></path>
				<path d="M 292 622 Q 295 692 310 742 Q 317 757 315 770 Q 308 780 254 813 Q 232 829 211 815 Q 207 809 213 795 Q 243 747 244 686 Q 244 295 234 220 Q 228 184 218 148 Q 208 112 232 50 Q 239 32 247 29 Q 253 22 260 30 Q 287 54 286 110 Q 285 156 291 591 L 292 622 Z" fill="lightgray"></path>
				<path d="M 631 621 Q 635 661 638 699 L 641 730 Q 641 745 652 800 Q 655 810 637 823 Q 604 839 582 842 Q 567 845 560 837 Q 553 830 561 817 Q 576 801 577 787 Q 587 708 592 614 C 594 584 628 591 631 621 Z" fill="lightgray"></path>
				<path d="M 638 699 Q 641 699 645 699 Q 726 714 786 722 Q 811 726 801 740 Q 789 755 763 759 Q 730 762 641 730 C 613 720 608 699 638 699 Z" fill="lightgray"></path>
				<path d="M 477 593 Q 464 599 431 605 Q 418 608 415 602 Q 408 596 417 579 Q 448 518 466 418 Q 469 388 487 368 Q 506 346 511 362 Q 512 366 514 372 L 515 398 Q 511 443 504 467 L 500 491 Q 493 539 490 559 C 486 589 485 590 477 593 Z" fill="lightgray"></path>
				<path d="M 714 392 Q 718 377 732 377 Q 747 378 756 393 Q 768 406 793 472 Q 812 526 853 554 Q 872 570 857 587 Q 839 606 788 636 Q 773 646 710 633 Q 641 624 631 621 L 592 614 Q 579 614 477 593 C 448 587 461 550 490 559 Q 557 581 713 599 Q 741 600 752 596 Q 761 589 754 560 Q 742 508 713 421 C 707 402 707 402 714 392 Z" fill="lightgray"></path>
				<path d="M 504 467 Q 508 467 514 467 Q 604 480 671 489 Q 693 493 685 505 Q 675 518 651 523 Q 629 527 500 491 C 471 483 474 467 504 467 Z" fill="lightgray"></path>
				<path d="M 623 383 Q 672 390 714 392 C 744 394 742 412 713 421 Q 709 422 704 424 Q 691 427 515 398 C 485 393 484 371 514 372 Q 515 372 520 372 Q 544 376 567 377 L 623 383 Z" fill="lightgray"></path>
				<path d="M 646 263 Q 692 269 937 268 Q 958 268 962 276 Q 968 288 952 302 Q 901 342 862 334 Q 781 319 647 300 L 588 293 Q 470 280 337 266 Q 316 265 331 247 Q 344 232 363 227 Q 384 221 400 225 Q 488 249 589 257 L 646 263 Z" fill="lightgray"></path>
				<path d="M 595 -28 Q 599 -52 606 -61 Q 612 -68 619 -66 Q 632 -57 639 -1 Q 639 8 646 263 L 647 300 Q 650 327 655 345 Q 658 361 644 371 Q 632 378 623 383 C 597 398 554 404 567 377 Q 582 350 588 295 Q 587 295 588 293 L 589 257 Q 590 187 590 90 Q 591 2 595 -28 Z" fill="lightgray"></path>
</g>
		<text x="40" y="140" font-size="128" fill="#999999">1</text></g>
		<g id="id0:id1:id1" transform="matrix(1.0,0,0,1.0,1024,0.0)">			<g stroke="lightgray" stroke-width="4" transform="scale(4, 4)"> <rect x="0" y="0" width="256" height="256" fill="white" stroke-width="4"/></g>
			<g transform="scale(0.92, -0.92) translate(60, -920)">					<path d="M 133 548 Q 118 482 92 422 Q 79 388 99 359 Q 109 343 127 358 Q 175 406 166 497 Q 166 528 156 551 Q 149 558 144 559 Q 137 556 133 548 Z" fill="black"></path>
				<path d="M 291 591 Q 309 579 352 539 Q 364 529 376 529 Q 385 530 389 541 Q 393 553 385 577 Q 381 593 354 606 Q 327 615 298 622 Q 294 623 292 622 C 262 620 266 608 291 591 Z" fill="red"></path>
				<path d="M 292 622 Q 295 692 310 742 Q 317 757 315 770 Q 308 780 254 813 Q 232 829 211 815 Q 207 809 213 795 Q 243 747 244 686 Q 244 295 234 220 Q 228 184 218 148 Q 208 112 232 50 Q 239 32 247 29 Q 253 22 260 30 Q 287 54 286 110 Q 285 156 291 591 L 292 622 Z" fill="lightgray"></path>
				<path d="M 631 621 Q 635 661 638 699 L 641 730 Q 641 745 652 800 Q 655 810 637 823 Q 604 839 582 842 Q 567 845 560 837 Q 553 830 561 817 Q 576 801 577 787 Q 587 708 592 614 C 594 584 628 591 631 621 Z" fill="lightgray"></path>
				<path d="M 638 699 Q 641 699 645 699 Q 726 714 786 722 Q 811 726 801 740 Q 789 755 763 759 Q 730 762 641 730 C 613 720 608 699 638 699 Z" fill="lightgray"></path>
				<path d="M 477 593 Q 464 599 431 605 Q 418 608 415 602 Q 408 596 417 579 Q 448 518 466 418 Q 469 388 487 368 Q 506 346 511 362 Q 512 366 514 372 L 515 398 Q 511 443 504 467 L 500 491 Q 493 539 490 559 C 486 589 485 590 477 593 Z" fill="lightgray"></path>
				<path d="M 714 392 Q 718 377 732 377 Q 747 378 756 393 Q 768 406 793 472 Q 812 526 853 554 Q 872 570 857 587 Q 839 606 788 636 Q 773 646 710 633 Q 641 624 631 621 L 592 614 Q 579 614 477 593 C 448 587 461 550 490 559 Q 557 581 713 599 Q 741 600 752 596 Q 761 589 754 560 Q 742 508 713 421 C 707 402 707 402 714 392 Z" fill="lightgray"></path>
				<path d="M 504 467 Q 508 467 514 467 Q 604 480 671 489 Q 693 493 685 505 Q 675 518 651 523 Q 629 527 500 491 C 471 483 474 467 504 467 Z" fill="lightgray"></path>
				<path d="M 623 383 Q 672 390 714 392 C 744 394 742 412 713 421 Q 709 422 704 424 Q 691 427 515 398 C 485 393 484 371 514 372 Q 515 372 520 372 Q 544 376 567 377 L 623 383 Z" fill="lightgray"></path>
				<path d="M 646 263 Q 692 269 937 268 Q 958 268 962 276 Q 968 288 952 302 Q 901 342 862 334 Q 781 319 647 300 L 588 293 Q 470 280 337 266 Q 316 265 331 247 Q 344 232 363 227 Q 384 221 400 225 Q 488 249 589 257 L 646 263 Z" fill="lightgray"></path>
				<path d="M 595 -28 Q 599 -52 606 -61 Q 612 -68 619 -66 Q 632 -57 639 -1 Q 639 8 646 263 L 647 300 Q 650 327 655 345 Q 658 361 644 371 Q 632 378 623 383 C 597 398 554 404 567 377 Q 582 350 588 295 Q 587 295 588 293 L 589 257 Q 590 187 590 90 Q 591 2 595 -28 Z" fill="lightgray"></path>
</g>
		<text x="40" y="140" font-size="128" fill="#999999">2</text></g>
		<g id="id0:id2:id2" transform="matrix(1.0,0,0,1.0,2048,0.0)">			<g stroke="lightgray" stroke-width="4" transform="scale(4, 4)"> <rect x="0" y="0" width="256" height="256" fill="white" stroke-width="4"/></g>
			<g transform="scale(0.92, -0.92) translate(60, -920)">					<path d="M 133 548 Q 118 482 92 422 Q 79 388 99 359 Q 109 343 127 358 Q 175 406 166 497 Q 166 528 156 551 Q 149 558 144 559 Q 137 556 133 548 Z" fill="black"></path>
				<path d="M 291 591 Q 309 579 352 539 Q 364 529 376 529 Q 385 530 389 541 Q 393 553 385 577 Q 381 593 354 606 Q 327 615 298 622 Q 294 623 292 622 C 262 620 266 608 291 591 Z" fill="black"></path>
				<path d="M 292 622 Q 295 692 310 742 Q 317 757 315 770 Q 308 780 254 813 Q 232 829 211 815 Q 207 809 213 795 Q 243 747 244 686 Q 244 295 234 220 Q 228 184 218 148 Q 208 112 232 50 Q 239 32 247 29 Q 253 22 260 30 Q 287 54 286 110 Q 285 156 291 591 L 292 622 Z" fill="red"></path>
				<path d="M 631 621 Q 635 661 638 699 L 641 730 Q 641 745 652 800 Q 655 810 637 823 Q 604 839 582 842 Q 567 845 560 837 Q 553 830 561 817 Q 576 801 577 787 Q 587 708 592 614 C 594 584 628 591 631 621 Z" fill="lightgray"></path>
				<path d="M 638 699 Q 641 699 645 699 Q 726 714 786 722 Q 811 726 801 740 Q 789 755 763 759 Q 730 762 641 730 C 613 720 608 699 638 699 Z" fill="lightgray"></path>
				<path d="M 477 593 Q 464 599 431 605 Q 418 608 415 602 Q 408 596 417 579 Q 448 518 466 418 Q 469 388 487 368 Q 506 346 511 362 Q 512 366 514 372 L 515 398 Q 511 443 504 467 L 500 491 Q 493 539 490 559 C 486 589 485 590 477 593 Z" fill="lightgray"></path>
				<path d="M 714 392 Q 718 377 732 377 Q 747 378 756 393 Q 768 406 793 472 Q 812 526 853 554 Q 872 570 857 587 Q 839 606 788 636 Q 773 646 710 633 Q 641 624 631 621 L 592 614 Q 579 614 477 593 C 448 587 461 550 490 559 Q 557 581 713 599 Q 741 600 752 596 Q 761 589 754 560 Q 742 508 713 421 C 707 402 707 402 714 392 Z" fill="lightgray"></path>
				<path d="M 504 467 Q 508 467 514 467 Q 604 480 671 489 Q 693 493 685 505 Q 675 518 651 523 Q 629 527 500 491 C 471 483 474 467 504 467 Z" fill="lightgray"></path>
				<path d="M 623 383 Q 672 390 714 392 C 744 394 742 412 713 421 Q 709 422 704 424 Q 691 427 515 398 C 485 393 484 371 514 372 Q 515 372 520 372 Q 544 376 567 377 L 623 383 Z" fill="lightgray"></path>
				<path d="M 646 263 Q 692 269 937 268 Q 958 268 962 276 Q 968 288 952 302 Q 901 342 862 334 Q 781 319 647 300 L 588 293 Q 470 280 337 266 Q 316 265 331 247 Q 344 232 363 227 Q 384 221 400 225 Q 488 249 589 257 L 646 263 Z" fill="lightgray"></path>
				<path d="M 595 -28 Q 599 -52 606 -61 Q 612 -68 619 -66 Q 632 -57 639 -1 Q 639 8 646 263 L 647 300 Q 650 327 655 345 Q 658 361 644 371 Q 632 378 623 383 C 597 398 554 404 567 377 Q 582 350 588 295 Q 587 295 588 293 L 589 257 Q 590 187 590 90 Q 591 2 595 -28 Z" fill="lightgray"></path>
</g>
		<text x="40" y="140" font-size="128" fill="#999999">3</text></g>
		<g id="id0:id3:id3" transform="matrix(1.0,0,0,1.0,3072,0.0)">			<g stroke="lightgray" stroke-width="4" transform="scale(4, 4)"> <rect x="0" y="0" width="256" height="256" fill="white" stroke-width="4"/></g>
			<g transform="scale(0.92, -0.92) translate(60, -920)">					<path d="M 133 548 Q 118 482 92 422 Q 79 388 99 359 Q 109 343 127 358 Q 175 406 166 497 Q 166 528 156 551 Q 149 558 144 559 Q 137 556 133 548 Z" fill="black"></path>
				<path d="M 291 591 Q 309 579 352 539 Q 364 529 376 529 Q 385 530 389 541 Q 393 553 385 577 Q 381 593 354 606 Q 327 615 298 622 Q 294 623 292 622 C 262 620 266 608 291 591 Z" fill="black"></path>
				<path d="M 292 622 Q 295 692 310 742 Q 317 757 315 770 Q 308 780 254 813 Q 232 829 211 815 Q 207 809 213 795 Q 243 747 244 686 Q 244 295 234 220 Q 228 184 218 148 Q 208 112 232 50 Q 239 32 247 29 Q 253 22 260 30 Q 287 54 286 110 Q 285 156 291 591 L 292 622 Z" fill="black"></path>
				<path d="M 631 621 Q 635 661 638 699 L 641 730 Q 641 745 652 800 Q 655 810 637 823 Q 604 839 582 842 Q 567 845 560 837 Q 553 830 561 817 Q 576 801 577 787 Q 587 708 592 614 C 594 584 628 591 631 621 Z" fill="red"></path>
				<path d="M 638 699 Q 641 699 645 699 Q 726 714 786 722 Q 811 726 801 740 Q 789 755 763 759 Q 730 762 641 730 C 613 720 608 699 638 699 Z" fill="lightgray"></path>
				<path d="M 477 593 Q 464 599 431 605 Q 418 608 415 602 Q 408 596 417 579 Q 448 518 466 418 Q 469 388 487 368 Q 506 346 511 362 Q 512 366 514 372 L 515 398 Q 511 443 504 467 L 500 491 Q 493 539 490 559 C 486 589 485 590 477 593 Z" fill="lightgray"></path>
				<path d="M 714 392 Q 718 377 732 377 Q 747 378 756 393 Q 768 406 793 472 Q 812 526 853 554 Q 872 570 857 587 Q 839 606 788 636 Q 773 646 710 633 Q 641 624 631 621 L 592 614 Q 579 614 477 593 C 448 587 461 550 490 559 Q 557 581 713 599 Q 741 600 752 596 Q 761 589 754 560 Q 742 508 713 421 C 707 402 707 402 714 392 Z" fill="lightgray"></path>
				<path d="M 504 467 Q 508 467 514 467 Q 604 480 671 489 Q 693 493 685 505 Q 675 518 651 523 Q 629 527 500 491 C 471 483 474 467 504 467 Z" fill="lightgray"></path>
				<path d="M 623 383 Q 672 390 714 392 C 744 394 742 412 713 421 Q 709 422 704 424 Q 691 427 515 398 C 485 393 484 371 514 372 Q 515 372 520 372 Q 544 376 567 377 L 623 383 Z" fill="lightgray"></path>
				<path d="M 646 263 Q 692 269 937 268 Q 958 268 962 276 Q 968 288 952 302 Q 901 342 862 334 Q 781 319 647 300 L 588 293 Q 470 280 337 266 Q 316 265 331 247 Q 344 232 363 227 Q 384 221 400 225 Q 488 249 589 257 L 646 263 Z" fill="lightgray"></path>
				<path d="M 595 -28 Q 599 -52 606 -61 Q 612 -68 619 -66 Q 632 -57 639 -1 Q 639 8 646 263 L 647 300 Q 650 327 655 345 Q 658 361 644 371 Q 632 378 623 383 C 597 398 554 404 567 377 Q 582 350 588 295 Q 587 295 588 293 L 589 257 Q 590 187 590 90 Q 591 2 595 -28 Z" fill="lightgray"></path>
</g>
		<text x="40" y="140" font-size="128" fill="#999999">4</text></g>
		<g id="id0:id4:id4" transform="matrix(1.0,0,0,1.0,4096,0.0)">			<g stroke="lightgray" stroke-width="4" transform="scale(4, 4)"> <rect x="0" y="0" width="256" height="256" fill="white" stroke-width="4"/></g>
			<g transform="scale(0.92, -0.92) translate(60, -920)">					<path d="M 133 548 Q 118 482 92 422 Q 79 388 99 359 Q 109 343 127 358 Q 175 406 166 497 Q 166 528 156 551 Q 149 558 144 559 Q 137 556 133 548 Z" fill="black"></path>
				<path d="M 291 591 Q 309 579 352 539 Q 364 529 376 529 Q 385 530 389 541 Q 393 553 385 577 Q 381 593 354 606 Q 327 615 298 622 Q 294 623 292 622 C 262 620 266 608 291 591 Z" fill="black"></path>
				<path d="M 292 622 Q 295 692 310 742 Q 317 757 315 770 Q 308 780 254 813 Q 232 829 211 815 Q 207 809 213 795 Q 243 747 244 686 Q 244 295 234 220 Q 228 184 218 148 Q 208 112 232 50 Q 239 32 247 29 Q 253 22 260 30 Q 287 54 286 110 Q 285 156 291 591 L 292 622 Z" fill="black"></path>
				<path d="M 631 621 Q 635 661 638 699 L 641 730 Q 641 745 652 800 Q 655 810 637 823 Q 604 839 582 842 Q 567 845 560 837 Q 553 830 561 817 Q 576 801 577 787 Q 587 708 592 614 C 594 584 628 591 631 621 Z" fill="black"></path>
				<path d="M 638 699 Q 641 699 645 699 Q 726 714 786 722 Q 811 726 801 740 Q 789 755 763 759 Q 730 762 641 730 C 613 720 608 699 638 699 Z" fill="red"></path>
				<path d="M 477 593 Q 464 599 431 605 Q 418 608 415 602 Q 408 596 417 579 Q 448 518 466 418 Q 469 388 487 368 Q 506 346 511 362 Q 512 366 514 372 L 515 398 Q 511 443 504 467 L 500 491 Q 493 539 490 559 C 486 589 485 590 477 593 Z" fill="lightgray"></path>
				<path d="M 714 392 Q 718 377 732 377 Q 747 378 756 393 Q 768 406 793 472 Q 812 526 853 554 Q 872 570 857 587 Q 839 606 788 636 Q 773 646 710 633 Q 641 624 631 621 L 592 614 Q 579 614 477 593 C 448 587 461 550 490 559 Q 557 581 713 599 Q 741 600 752 596 Q 761 589 754 560 Q 742 508 713 421 C 707 402 707 402 714 392 Z" fill="lightgray"></path>
				<path d="M 504 467 Q 508 467 514 467 Q 604 480 671 489 Q 693 493 685 505 Q 675 518 651 523 Q 629 527 500 491 C 471 483 474 467 504 467 Z" fill="lightgray"></path>
				<path d="M 623 383 Q 672 390 714 392 C 744 394 742 412 713 421 Q 709 422 704 424 Q 691 427 515 398 C 485 393 484 371 514 372 Q 515 372 520 372 Q 544 376 567 377 L 623 383 Z" fill="lightgray"></path>
				<path d="M 646 263 Q 692 269 937 268 Q 958 268 962 276 Q 968 288 952 302 Q 901 342 862 334 Q 781 319 647 300 L 588 293 Q 470 280 337 266 Q 316 265 331 247 Q 344 232 363 227 Q 384 221 400 225 Q 488 249 589 257 L 646 263 Z" fill="lightgray"></path>
				<path d="M 595 -28 Q 599 -52 606 -61 Q 612 -68 619 -66 Q 632 -57 639 -1 Q 639 8 646 263 L 647 300 Q 650 327 655 345 Q 658 361 644 371 Q 632 378 623 383 C 597 398 554 404 567 377 Q 582 350 588 295 Q 587 295 588 293 L 589 257 Q 590 187 590 90 Q 591 2 595 -28 Z" fill="lightgray"></path>
</g>
		<text x="40" y="140" font-size="128" fill="#999999">5</text></g>
</g>
	<g id="id1:id1" transform="translate(0.0,1024)">
		<g id="id1:id0:id0" transform="matrix(1.0,0,0,1.0,0,0.0)">			<g stroke="lightgray" stroke-width="4" transform="scale(4, 4)"> <rect x="0" y="0" width="256" height="256" fill="white" stroke-width="4"/></g>
			<g transform="scale(0.92, -0.92) translate(60, -920)">					<path d="M 133 548 Q 118 482 92 422 Q 79 388 99 359 Q 109 343 127 358 Q 175 406 166 497 Q 166 528 156 551 Q 149 558 144 559 Q 137 556 133 548 Z" fill="black"></path>
				<path d="M 291 591 Q 309 579 352 539 Q 364 529 376 529 Q 385 530 389 541 Q 393 553 385 577 Q 381 593 354 606 Q 327 615 298 622 Q 294 623 292 622 C 262 620 266 608 291 591 Z" fill="black"></path>
				<path d="M 292 622 Q 295 692 310 742 Q 317 757 315 770 Q 308 780 254 813 Q 232 829 211 815 Q 207 809 213 795 Q 243 747 244 686 Q 244 295 234 220 Q 228 184 218 148 Q 208 112 232 50 Q 239 32 247 29 Q 253 22 260 30 Q 287 54 286 110 Q 285 156 291 591 L 292 622 Z" fill="black"></path>
				<path d="M 631 621 Q 635 661 638 699 L 641 730 Q 641 745 652 800 Q 655 810 637 823 Q 604 839 582 842 Q 567 845 560 837 Q 553 830 561 817 Q 576 801 577 787 Q 587 708 592 614 C 594 584 628 591 631 621 Z" fill="black"></path>
				<path d="M 638 699 Q 641 699 645 699 Q 726 714 786 722 Q 811 726 801 740 Q 789 755 763 759 Q 730 762 641 730 C 613 720 608 699 638 699 Z" fill="black"></path>
				<path d="M 477 593 Q 464 599 431 605 Q 418 608 415 602 Q 408 596 417 579 Q 448 518 466 418 Q 469 388 487 368 Q 506 346 511 362 Q 512 366 514 372 L 515 398 Q 511 443 504 467 L 500 491 Q 493 539 490 559 C 486 589 485 590 477 593 Z" fill="red"></path>
				<path d="M 714 392 Q 718 377 732 377 Q 747 378 756 393 Q 768 406 793 472 Q 812 526 853 554 Q 872 570 857 587 Q 839 606 788 636 Q 773 646 710 633 Q 641 624 631 621 L 592 614 Q 579 614 477 593 C 448 587 461 550 490 559 Q 557 581 713 599 Q 741 600 752 596 Q 761 589 754 560 Q 742 508 713 421 C 707 402 707 402 714 392 Z" fill="lightgray"></path>
				<path d="M 504 467 Q 508 467 514 467 Q 604 480 671 489 Q 693 493 685 505 Q 675 518 651 523 Q 629 527 500 491 C 471 483 474 467 504 467 Z" fill="lightgray"></path>
				<path d="M 623 383 Q 672 390 714 392 C 744 394 742 412 713 421 Q 709 422 704 424 Q 691 427 515 398 C 485 393 484 371 514 372 Q 515 372 520 372 Q 544 376 567 377 L 623 383 Z" fill="lightgray"></path>
				<path d="M 646 263 Q 692 269 937 268 Q 958 268 962 276 Q 968 288 952 302 Q 901 342 862 334 Q 781 319 647 300 L 588 293 Q 470 280 337 266 Q 316 265 331 247 Q 344 232 363 227 Q 384 221 400 225 Q 488 249 589 257 L 646 263 Z" fill="lightgray"></path>
				<path d="M 595 -28 Q 599 -52 606 -61 Q 612 -68 619 -66 Q 632 -57 639 -1 Q 639 8 646 263 L 647 300 Q 650 327 655 345 Q 658 361 644 371 Q 632 378 623 383 C 597 398 554 404 567 377 Q 582 350 588 295 Q 587 295 588 293 L 589 257 Q 590 187 590 90 Q 591 2 595 -28 Z" fill="lightgray"></path>
</g>
		<text x="40" y="140" font-size="128" fill="#999999">6</text></g>
		<g id="id1:id1:id1" transform="matrix(1.0,0,0,1.0,1024,0.0)">			<g stroke="lightgray" stroke-width="4" transform="scale(4, 4)"> <rect x="0" y="0" width="256" height="256" fill="white" stroke-width="4"/></g>
			<g transform="scale(0.92, -0.92) translate(60, -920)">					<path d="M 133 548 Q 118 482 92 422 Q 79 388 99 359 Q 109 343 127 358 Q 175 406 166 497 Q 166 528 156 551 Q 149 558 144 559 Q 137 556 133 548 Z" fill="black"></path>
				<path d="M 291 591 Q 309 579 352 539 Q 364 529 376 529 Q 385 530 389 541 Q 393 553 385 577 Q 381 593 354 606 Q 327 615 298 622 Q 294 623 292 622 C 262 620 266 608 291 591 Z" fill="black"></path>
				<path d="M 292 622 Q 295 692 310 742 Q 317 757 315 770 Q 308 780 254 813 Q 232 829 211 815 Q 207 809 213 795 Q 243 747 244 686 Q 244 295 234 220 Q 228 184 218 148 Q 208 112 232 50 Q 239 32 247 29 Q 253 22 260 30 Q 287 54 286 110 Q 285 156 291 591 L 292 622 Z" fill="black"></path>
				<path d="M 631 621 Q 635 661 638 699 L 641 730 Q 641 745 652 800 Q 655 810 637 823 Q 604 839 582 842 Q 567 845 560 837 Q 553 830 561 817 Q 576 801 577 787 Q 587 708 592 614 C 594 584 628 591 631 621 Z" fill="black"></path>
				<path d="M 638 699 Q 641 699 645 699 Q 726 714 786 722 Q 811 726 801 740 Q 789 755 763 759 Q 730 762 641 730 C 613 720 608 699 638 699 Z" fill="black"></path>
				<path d="M 477 593 Q 464 599 431 605 Q 418 608 415 602 Q 408 596 417 579 Q 448 518 466 418 Q 469 388 487 368 Q 506 346 511 362 Q 512 366 514 372 L 515 398 Q 511 443 504 467 L 500 491 Q 493 539 490 559 C 486 589 485 590 477 593 Z" fill="black"></path>
				<path d="M 714 392 Q 718 377 732 377 Q 747 378 756 393 Q 768 406 793 472 Q 812 526 853 554 Q 872 570 857 587 Q 839 606 788 636 Q 773 646 710 633 Q 641 624 631 621 L 592 614 Q 579 614 477 593 C 448 587 461 550 490 559 Q 557 581 713 599 Q 741 600 752 596 Q 761 589 754 560 Q 742 508 713 421 C 707 402 707 402 714 392 Z" fill="red"></path>
				<path d="M 504 467 Q 508 467 514 467 Q 604 480 671 489 Q 693 493 685 505 Q 675 518 651 523 Q 629 527 500 491 C 471 483 474 467 504 467 Z" fill="lightgray"></path>
				<path d="M 623 383 Q 672 390 714 392 C 744 394 742 412 713 421 Q 709 422 704 424 Q 691 427 515 398 C 485 393 484 371 514 372 Q 515 372 520 372 Q 544 376 567 377 L 623 383 Z" fill="lightgray"></path>
				<path d="M 646 263 Q 692 269 937 268 Q 958 268 962 276 Q 968 288 952 302 Q 901 342 862 334 Q 781 319 647 300 L 588 293 Q 470 280 337 266 Q 316 265 331 247 Q 344 232 363 227 Q 384 221 400 225 Q 488 249 589 257 L 646 263 Z" fill="lightgray"></path>
				<path d="M 595 -28 Q 599 -52 606 -61 Q 612 -68 619 -66 Q 632 -57 639 -1 Q 639 8 646 263 L 647 300 Q 650 327 655 345 Q 658 361 644 371 Q 632 378 623 383 C 597 398 554 404 567 377 Q 582 350 588 295 Q 587 295 588 293 L 589 257 Q 590 187 590 90 Q 591 2 595 -28 Z" fill="lightgray"></path>
</g>
		<text x="40" y="140" font-size="128" fill="#999999">7</text></g>
		<g id="id1:id2:id2" transform="matrix(1.0,0,0,1.0,2048,0.0)">			<g stroke="lightgray" stroke-width="4" transform="scale(4, 4)"> <rect x="0" y="0" width="256" height="256" fill="white" stroke-width="4"/></g>
			<g transform="scale(0.92, -0.92) translate(60, -920)">					<path d="M 133 548 Q 118 482 92 422 Q 79 388 99 359 Q 109 343 127 358 Q 175 406 166 497 Q 166 528 156 551 Q 149 558 144 559 Q 137 556 133 548 Z" fill="black"></path>
				<path d="M 291 591 Q 309 579 352 539 Q 364 529 376 529 Q 385 530 389 541 Q 393 553 385 577 Q 381 593 354 606 Q 327 615 298 622 Q 294 623 292 622 C 262 620 266 608 291 591 Z" fill="black"></path>
				<path d="M 292 622 Q 295 692 310 742 Q 317 757 315 770 Q 308 780 254 813 Q 232 829 211 815 Q 207 809 213 795 Q 243 747 244 686 Q 244 295 234 220 Q 228 184 218 148 Q 208 112 232 50 Q 239 32 247 29 Q 253 22 260 30 Q 287 54 286 110 Q 285 156 291 591 L 292 622 Z" fill="black"></path>
				<path d="M 631 621 Q 635 661 638 699 L 641 730 Q 641 745 652 800 Q 655 810 637 823 Q 604 839 582 842 Q 567 845 560 837 Q 553 830 561 817 Q 576 801 577 787 Q 587 708 592 614 C 594 584 628 591 631 621 Z" fill="black"></path>
				<path d="M 638 699 Q 641 699 645 699 Q 726 714 786 722 Q 811 726 801 740 Q 789 755 763 759 Q 730 762 641 730 C 613 720 608 699 638 699 Z" fill="black"></path>
				<path d="M 477 593 Q 464 599 431 605 Q 418 608 415 602 Q 408 596 417 579 Q 448 518 466 418 Q 469 388 487 368 Q 506 346 511 362 Q 512 366 514 372 L 515 398 Q 511 443 504 467 L 500 491 Q 493 539 490 559 C 486 589 485 590 477 593 Z" fill="black"></path>
				<path d="M 714 392 Q 718 377 732 377 Q 747 378 756 393 Q 768 406 793 472 Q 812 526 853 554 Q 872 570 857 587 Q 839 606 788 636 Q 773 646 710 633 Q 641 624 631 621 L 592 614 Q 579 614 477 593 C 448 587 461 550 490 559 Q 557 581 713 599 Q 741 600 752 596 Q 761 589 754 560 Q 742 508 713 421 C 707 402 707 402 714 392 Z" fill="black"></path>
				<path d="M 504 467 Q 508 467 514 467 Q 604 480 671 489 Q 693 493 685 505 Q 675 518 651 523 Q 629 527 500 491 C 471 483 474 467 504 467 Z" fill="red"></path>
				<path d="M 623 383 Q 672 390 714 392 C 744 394 742 412 713 421 Q 709 422 704 424 Q 691 427 515 398 C 485 393 484 371 514 372 Q 515 372 520 372 Q 544 376 567 377 L 623 383 Z" fill="lightgray"></path>
				<path d="M 646 263 Q 692 269 937 268 Q 958 268 962 276 Q 968 288 952 302 Q 901 342 862 334 Q 781 319 647 300 L 588 293 Q 470 280 337 266 Q 316 265 331 247 Q 344 232 363 227 Q 384 221 400 225 Q 488 249 589 257 L 646 263 Z" fill="lightgray"></path>
				<path d="M 595 -28 Q 599 -52 606 -61 Q 612 -68 619 -66 Q 632 -57 639 -1 Q 639 8 646 263 L 647 300 Q 650 327 655 345 Q 658 361 644 371 Q 632 378 623 383 C 597 398 554 404 567 377 Q 582 350 588 295 Q 587 295 588 293 L 589 257 Q 590 187 590 90 Q 591 2 595 -28 Z" fill="lightgray"></path>
</g>
		<text x="40" y="140" font-size="128" fill="#999999">8</text></g>
		<g id="id1:id3:id3" transform="matrix(1.0,0,0,1.0,3072,0.0)">			<g stroke="lightgray" stroke-width="4" transform="scale(4, 4)"> <rect x="0" y="0" width="256" height="256" fill="white" stroke-width="4"/></g>
			<g transform="scale(0.92, -0.92) translate(60, -920)">					<path d="M 133 548 Q 118 482 92 422 Q 79 388 99 359 Q 109 343 127 358 Q 175 406 166 497 Q 166 528 156 551 Q 149 558 144 559 Q 137 556 133 548 Z" fill="black"></path>
				<path d="M 291 591 Q 309 579 352 539 Q 364 529 376 529 Q 385 530 389 541 Q 393 553 385 577 Q 381 593 354 606 Q 327 615 298 622 Q 294 623 292 622 C 262 620 266 608 291 591 Z" fill="black"></path>
				<path d="M 292 622 Q 295 692 310 742 Q 317 757 315 770 Q 308 780 254 813 Q 232 829 211 815 Q 207 809 213 795 Q 243 747 244 686 Q 244 295 234 220 Q 228 184 218 148 Q 208 112 232 50 Q 239 32 247 29 Q 253 22 260 30 Q 287 54 286 110 Q 285 156 291 591 L 292 622 Z" fill="black"></path>
				<path d="M 631 621 Q 635 661 638 699 L 641 730 Q 641 745 652 800 Q 655 810 637 823 Q 604 839 582 842 Q 567 845 560 837 Q 553 830 561 817 Q 576 801 577 787 Q 587 708 592 614 C 594 584 628 591 631 621 Z" fill="black"></path>
				<path d="M 638 699 Q 641 699 645 699 Q 726 714 786 722 Q 811 726 801 740 Q 789 755 763 759 Q 730 762 641 730 C 613 720 608 699 638 699 Z" fill="black"></path>
				<path d="M 477 593 Q 464 599 431 605 Q 418 608 415 602 Q 408 596 417 579 Q 448 518 466 418 Q 469 388 487 368 Q 506 346 511 362 Q 512 366 514 372 L 515 398 Q 511 443 504 467 L 500 491 Q 493 539 490 559 C 486 589 485 590 477 593 Z" fill="black"></path>
				<path d="M 714 392 Q 718 377 732 377 Q 747 378 756 393 Q 768 406 793 472 Q 812 526 853 554 Q 872 570 857 587 Q 839 606 788 636 Q 773 646 710 633 Q 641 624 631 621 L 592 614 Q 579 614 477 593 C 448 587 461 550 490 559 Q 557 581 713 599 Q 741 600 752 596 Q 761 589 754 560 Q 742 508 713 421 C 707 402 707 402 714 392 Z" fill="black"></path>
				<path d="M 504 467 Q 508 467 514 467 Q 604 480 671 489 Q 693 493 685 505 Q 675 518 651 523 Q 629 527 500 491 C 471 483 474 467 504 467 Z" fill="black"></path>
				<path d="M 623 383 Q 672 390 714 392 C 744 394 742 412 713 421 Q 709 422 704 424 Q 691 427 515 398 C 485 393 484 371 514 372 Q 515 372 520 372 Q 544 376 567 377 L 623 383 Z" fill="red"></path>
				<path d="M 646 263 Q 692 269 937 268 Q 958 268 962 276 Q 968 288 952 302 Q 901 342 862 334 Q 781 319 647 300 L 588 293 Q 470 280 337 266 Q 316 265 331 247 Q 344 232 363 227 Q 384 221 400 225 Q 488 249 589 257 L 646 263 Z" fill="lightgray"></path>
				<path d="M 595 -28 Q 599 -52 606 -61 Q 612 -68 619 -66 Q 632 -57 639 -1 Q 639 8 646 263 L 647 300 Q 650 327 655 345 Q 658 361 644 371 Q 632 378 623 383 C 597 398 554 404 567 377 Q 582 350 588 295 Q 587 295 588 293 L 589 257 Q 590 187 590 90 Q 591 2 595 -28 Z" fill="lightgray"></path>
</g>
		<text x="40" y="140" font-size="128" fill="#999999">9</text></g>
		<g id="id1:id4:id4" transform="matrix(1.0,0,0,1.0,4096,0.0)">			<g stroke="lightgray" stroke-width="4" transform="scale(4, 4)"> <rect x="0" y="0" width="256" height="256" fill="white" stroke-width="4"/></g>
			<g transform="scale(0.92, -0.92) translate(60, -920)">					<path d="M 133 548 Q 118 482 92 422 Q 79 388 99 359 Q 109 343 127 358 Q 175 406 166 497 Q 166 528 156 551 Q 149 558 144 559 Q 137 556 133 548 Z" fill="black"></path>
				<path d="M 291 591 Q 309 579 352 539 Q 364 529 376 529 Q 385 530 389 541 Q 393 553 385 577 Q 381 593 354 606 Q 327 615 298 622 Q 294 623 292 622 C 262 620 266 608 291 591 Z" fill="black"></path>
				<path d="M 292 622 Q 295 692 310 742 Q 317 757 315 770 Q 308 780 254 813 Q 232 829 211 815 Q 207 809 213 795 Q 243 747 244 686 Q 244 295 234 220 Q 228 184 218 148 Q 208 112 232 50 Q 239 32 247 29 Q 253 22 260 30 Q 287 54 286 110 Q 285 156 291 591 L 292 622 Z" fill="black"></path>
				<path d="M 631 621 Q 635 661 638 699 L 641 730 Q 641 745 652 800 Q 655 810 637 823 Q 604 839 582 842 Q 567 845 560 837 Q 553 830 561 817 Q 576 801 577 787 Q 587 708 592 614 C 594 584 628 591 631 621 Z" fill="black"></path>
				<path d="M 638 699 Q 641 699 645 699 Q 726 714 786 722 Q 811 726 801 740 Q 789 755 763 759 Q 730 762 641 730 C 613 720 608 699 638 699 Z" fill="black"></path>
				<path d="M 477 593 Q 464 599 431 605 Q 418 608 415 602 Q 408 596 417 579 Q 448 518 466 418 Q 469 388 487 368 Q 506 346 511 362 Q 512 366 514 372 L 515 398 Q 511 443 504 467 L 500 491 Q 493 539 490 559 C 486 589 485 590 477 593 Z" fill="black"></path>
				<path d="M 714 392 Q 718 377 732 377 Q 747 378 756 393 Q 768 406 793 472 Q 812 526 853 554 Q 872 570 857 587 Q 839 606 788 636 Q 773 646 710 633 Q 641 624 631 621 L 592 614 Q 579 614 477 593 C 448 587 461 550 490 559 Q 557 581 713 599 Q 741 600 752 596 Q 761 589 754 560 Q 742 508 713 421 C 707 402 707 402 714 392 Z" fill="black"></path>
				<path d="M 504 467 Q 508 467 514 467 Q 604 480 671 489 Q 693 493 685 505 Q 675 518 651 523 Q 629 527 500 491 C 471 483 474 467 504 467 Z" fill="black"></path>
				<path d="M 623 383 Q 672 390 714 392 C 744 394 742 412 713 421 Q 709 422 704 424 Q 691 427 515 398 C 485 393 484 371 514 372 Q 515 372 520 372 Q 544 376 567 377 L 623 383 Z" fill="black"></path>
				<path d="M 646 263 Q 692 269 937 268 Q 958 268 962 276 Q 968 288 952 302 Q 901 342 862 334 Q 781 319 647 300 L 588 293 Q 470 280 337 266 Q 316 265 331 247 Q 344 232 363 227 Q 384 221 400 225 Q 488 249 589 257 L 646 263 Z" fill="red"></path>
				<path d="M 595 -28 Q 599 -52 606 -61 Q 612 -68 619 -66 Q 632 -57 639 -1 Q 639 8 646 263 L 647 300 Q 650 327 655 345 Q 658 361 644 371 Q 632 378 623 383 C 597 398 554 404 567 377 Q 582 350 588 295 Q 587 295 588 293 L 589 257 Q 590 187 590 90 Q 591 2 595 -28 Z" fill="lightgray"></path>
</g>
		<text x="40" y="140" font-size="128" fill="#999999">10</text></g>
</g>
	<g id="id2:id2" transform="translate(0.0,2048)">
		<g id="id2:id0:id0" transform="matrix(1.0,0,0,1.0,0,0.0)">			<g stroke="lightgray" stroke-width="4" transform="scale(4, 4)"> <rect x="0" y="0" width="256" height="256" fill="white" stroke-width="4"/></g>
			<g transform="scale(0.92, -0.92) translate(60, -920)">					<path d="M 133 548 Q 118 482 92 422 Q 79 388 99 359 Q 109 343 127 358 Q 175 406 166 497 Q 166 528 156 551 Q 149 558 144 559 Q 137 556 133 548 Z" fill="black"></path>
				<path d="M 291 591 Q 309 579 352 539 Q 364 529 376 529 Q 385 530 389 541 Q 393 553 385 577 Q 381 593 354 606 Q 327 615 298 622 Q 294 623 292 622 C 262 620 266 608 291 591 Z" fill="black"></path>
				<path d="M 292 622 Q 295 692 310 742 Q 317 757 315 770 Q 308 780 254 813 Q 232 829 211 815 Q 207 809 213 795 Q 243 747 244 686 Q 244 295 234 220 Q 228 184 218 148 Q 208 112 232 50 Q 239 32 247 29 Q 253 22 260 30 Q 287 54 286 110 Q 285 156 291 591 L 292 622 Z" fill="black"></path>
				<path d="M 631 621 Q 635 661 638 699 L 641 730 Q 641 745 652 800 Q 655 810 637 823 Q 604 839 582 842 Q 567 845 560 837 Q 553 830 561 817 Q 576 801 577 787 Q 587 708 592 614 C 594 584 628 591 631 621 Z" fill="black"></path>
				<path d="M 638 699 Q 641 699 645 699 Q 726 714 786 722 Q 811 726 801 740 Q 789 755 763 759 Q 730 762 641 730 C 613 720 608 699 638 699 Z" fill="black"></path>
				<path d="M 477 593 Q 464 599 431 605 Q 418 608 415 602 Q 408 596 417 579 Q 448 518 466 418 Q 469 388 487 368 Q 506 346 511 362 Q 512 366 514 372 L 515 398 Q 511 443 504 467 L 500 491 Q 493 539 490 559 C 486 589 485 590 477 593 Z" fill="black"></path>
				<path d="M 714 392 Q 718 377 732 377 Q 747 378 756 393 Q 768 406 793 472 Q 812 526 853 554 Q 872 570 857 587 Q 839 606 788 636 Q 773 646 710 633 Q 641 624 631 621 L 592 614 Q 579 614 477 593 C 448 587 461 550 490 559 Q 557 581 713 599 Q 741 600 752 596 Q 761 589 754 560 Q 742 508 713 421 C 707 402 707 402 714 392 Z" fill="black"></path>
				<path d="M 504 467 Q 508 467 514 467 Q 604 480 671 489 Q 693 493 685 505 Q 675 518 651 523 Q 629 527 500 491 C 471 483 474 467 504 467 Z" fill="black"></path>
				<path d="M 623 383 Q 672 390 714 392 C 744 394 742 412 713 421 Q 709 422 704 424 Q 691 427 515 398 C 485 393 484 371 514 372 Q 515 372 520 372 Q 544 376 567 377 L 623 383 Z" fill="black"></path>
				<path d="M 646 263 Q 692 269 937 268 Q 958 268 962 276 Q 968 288 952 302 Q 901 342 862 334 Q 781 319 647 300 L 588 293 Q 470 280 337 266 Q 316 265 331 247 Q 344 232 363 227 Q 384 221 400 225 Q 488 249 589 257 L 646 263 Z" fill="black"></path>
				<path d="M 595 -28 Q 599 -52 606 -61 Q 612 -68 619 -66 Q 632 -57 639 -1 Q 639 8 646 263 L 647 300 Q 650 327 655 345 Q 658 361 644 371 Q 632 378 623 383 C 597 398 554 404 567 377 Q 582 350 588 295 Q 587 295 588 293 L 589 257 Q 590 187 590 90 Q 591 2 595 -28 Z" fill="red"></path>
</g>
		<text x="40" y="140" font-size="128" fill="#999999">11</text></g>
		<g id="id2:id1:id1" transform="matrix(1.0,0,0,1.0,1024,0.0)">			<g stroke="white" stroke-width="4" transform="scale(4, 4)"> <rect x="1" y="1" width="255" height="255" fill="white" stroke-width="0"/></g>
</g>
		<g id="id2:id2:id2" transform="matrix(1.0,0,0,1.0,2048,0.0)">			<g stroke="white" stroke-width="4" transform="scale(4, 4)"> <rect x="1" y="1" width="255" height="255" fill="white" stroke-width="0"/></g>
</g>
		<g id="id2:id3:id3" transform="matrix(1.0,0,0,1.0,3072,0.0)">			<g stroke="white" stroke-width="4" transform="scale(4, 4)"> <rect x="1" y="1" width="255" height="255" fill="white" stroke-width="0"/></g>
</g>
		<g id="id2:id4:id4" transform="matrix(1.0,0,0,1.0,4096,0.0)">			<g stroke="white" stroke-width="4" transform="scale(4, 4)"> <rect x="1" y="1" width="255" height="255" fill="white" stroke-width="0"/></g>
</g>
</g>
</svg>
