<?xml version="1.0" standalone="no"?>
<!DOCTYPE svg PUBLIC "-//W3C//DTD SVG 1.1//EN"
 "http://www.w3.org/Graphics/SVG/1.1/DTD/svg11.dtd">
<!-- generate by Japanese dictionary app com.asnsami.kanjidictionary -->

<svg xmlns="http://www.w3.org/2000/svg" xmlns:sodipodi="http://sodipodi.sourceforge.net/DTD/sodipodi-0.dtd" version="1.1" width="640" height="384" viewBox="0 0 5120 3072">
	<g id="id0:id0" transform="translate(0.0,0)">
		<g id="id0:id0:id0" transform="matrix(1.0,0,0,1.0,0,0.0)">			<g stroke="lightgray" stroke-width="4" transform="scale(4, 4)"> <rect x="0" y="0" width="256" height="256" fill="white" stroke-width="4"/></g>
			<g transform="scale(0.92, -0.92) translate(60, -920)">					<path d="M 112 515 Q 97 457 72 401 Q 54 368 79 335 Q 89 319 108 334 Q 153 379 146 462 Q 146 496 135 519 Q 129 526 123 527 Q 116 524 112 515 Z" fill="red"></path>
				<path d="M 301 556 Q 319 544 366 502 Q 378 492 389 493 Q 398 494 401 504 Q 405 516 397 539 Q 388 566 305 586 Q 304 587 302 586 C 272 588 276 573 301 556 Z" fill="lightgray"></path>
				<path d="M 302 586 Q 303 674 321 734 Q 330 749 327 762 Q 320 772 266 805 Q 244 821 223 807 Q 219 803 225 787 Q 256 736 258 660 Q 258 239 240 147 Q 234 119 226 89 Q 216 52 240 -10 Q 247 -28 255 -31 Q 261 -38 268 -29 Q 295 -13 295 50 Q 294 101 301 556 L 302 586 Z" fill="lightgray"></path>
				<path d="M 515 704 Q 493 723 463 735 Q 450 742 440 735 Q 431 729 437 713 Q 464 649 472 584 Q 476 517 473 255 C 473 225 515 231 514 261 Q 513 306 513 344 L 512 370 Q 512 413 513 449 L 513 471 Q 513 540 515 553 L 516 576 Q 519 648 524 670 C 528 694 528 694 515 704 Z" fill="lightgray"></path>
				<path d="M 760 297 Q 764 639 790 678 Q 805 696 792 714 Q 782 726 729 755 Q 714 765 647 739 Q 566 712 515 704 C 485 699 495 661 524 670 Q 527 671 530 672 Q 636 702 681 708 Q 699 712 705 706 Q 714 690 705 289 C 704 259 760 267 760 297 Z" fill="lightgray"></path>
				<path d="M 515 553 Q 519 552 531 553 Q 598 568 649 576 Q 671 582 661 593 Q 651 606 626 609 Q 592 612 516 576 C 489 563 485 556 515 553 Z" fill="lightgray"></path>
				<path d="M 513 449 Q 516 449 644 468 Q 666 472 657 485 Q 647 498 623 501 Q 593 502 513 471 C 485 460 483 445 513 449 Z" fill="lightgray"></path>
				<path d="M 513 344 L 655 363 Q 677 367 669 380 Q 659 395 633 399 Q 594 403 512 370 C 484 359 483 340 513 344 Z" fill="lightgray"></path>
				<path d="M 473 255 Q 401 248 328 237 Q 307 236 323 219 Q 336 206 354 200 Q 373 196 390 200 Q 574 254 923 253 Q 942 253 947 262 Q 953 272 936 286 Q 884 328 816 309 Q 789 305 760 297 L 705 289 Q 663 283 615 275 Q 564 269 514 261 L 473 255 Z" fill="lightgray"></path>
				<path d="M 488 181 Q 472 115 314 -8 Q 292 -21 319 -20 Q 403 -14 560 142 Q 572 154 570 163 Q 567 176 541 186 Q 513 198 499 195 Q 492 194 488 181 Z" fill="lightgray"></path>
				<path d="M 680 139 Q 732 87 792 10 Q 808 -12 823 -18 Q 833 -19 841 -9 Q 854 4 845 51 Q 836 103 687 170 Q 684 171 683 171 Q 674 178 671 164 Q 670 151 680 139 Z" fill="lightgray"></path>
</g>
		<text x="40" y="140" font-size="128" fill="#999999">1</text></g>
		<g id="id0:id1:id1" transform="matrix(1.0,0,0,1.0,1024,0.0)">			<g stroke="lightgray" stroke-width="4" transform="scale(4, 4)"> <rect x="0" y="0" width="256" height="256" fill="white" stroke-width="4"/></g>
			<g transform="scale(0.92, -0.92) translate(60, -920)">					<path d="M 112 515 Q 97 457 72 401 Q 54 368 79 335 Q 89 319 108 334 Q 153 379 146 462 Q 146 496 135 519 Q 129 526 123 527 Q 116 524 112 515 Z" fill="black"></path>
				<path d="M 301 556 Q 319 544 366 502 Q 378 492 389 493 Q 398 494 401 504 Q 405 516 397 539 Q 388 566 305 586 Q 304 587 302 586 C 272 588 276 573 301 556 Z" fill="red"></path>
				<path d="M 302 586 Q 303 674 321 734 Q 330 749 327 762 Q 320 772 266 805 Q 244 821 223 807 Q 219 803 225 787 Q 256 736 258 660 Q 258 239 240 147 Q 234 119 226 89 Q 216 52 240 -10 Q 247 -28 255 -31 Q 261 -38 268 -29 Q 295 -13 295 50 Q 294 101 301 556 L 302 586 Z" fill="lightgray"></path>
				<path d="M 515 704 Q 493 723 463 735 Q 450 742 440 735 Q 431 729 437 713 Q 464 649 472 584 Q 476 517 473 255 C 473 225 515 231 514 261 Q 513 306 513 344 L 512 370 Q 512 413 513 449 L 513 471 Q 513 540 515 553 L 516 576 Q 519 648 524 670 C 528 694 528 694 515 704 Z" fill="lightgray"></path>
				<path d="M 760 297 Q 764 639 790 678 Q 805 696 792 714 Q 782 726 729 755 Q 714 765 647 739 Q 566 712 515 704 C 485 699 495 661 524 670 Q 527 671 530 672 Q 636 702 681 708 Q 699 712 705 706 Q 714 690 705 289 C 704 259 760 267 760 297 Z" fill="lightgray"></path>
				<path d="M 515 553 Q 519 552 531 553 Q 598 568 649 576 Q 671 582 661 593 Q 651 606 626 609 Q 592 612 516 576 C 489 563 485 556 515 553 Z" fill="lightgray"></path>
				<path d="M 513 449 Q 516 449 644 468 Q 666 472 657 485 Q 647 498 623 501 Q 593 502 513 471 C 485 460 483 445 513 449 Z" fill="lightgray"></path>
				<path d="M 513 344 L 655 363 Q 677 367 669 380 Q 659 395 633 399 Q 594 403 512 370 C 484 359 483 340 513 344 Z" fill="lightgray"></path>
				<path d="M 473 255 Q 401 248 328 237 Q 307 236 323 219 Q 336 206 354 200 Q 373 196 390 200 Q 574 254 923 253 Q 942 253 947 262 Q 953 272 936 286 Q 884 328 816 309 Q 789 305 760 297 L 705 289 Q 663 283 615 275 Q 564 269 514 261 L 473 255 Z" fill="lightgray"></path>
				<path d="M 488 181 Q 472 115 314 -8 Q 292 -21 319 -20 Q 403 -14 560 142 Q 572 154 570 163 Q 567 176 541 186 Q 513 198 499 195 Q 492 194 488 181 Z" fill="lightgray"></path>
				<path d="M 680 139 Q 732 87 792 10 Q 808 -12 823 -18 Q 833 -19 841 -9 Q 854 4 845 51 Q 836 103 687 170 Q 684 171 683 171 Q 674 178 671 164 Q 670 151 680 139 Z" fill="lightgray"></path>
</g>
		<text x="40" y="140" font-size="128" fill="#999999">2</text></g>
		<g id="id0:id2:id2" transform="matrix(1.0,0,0,1.0,2048,0.0)">			<g stroke="lightgray" stroke-width="4" transform="scale(4, 4)"> <rect x="0" y="0" width="256" height="256" fill="white" stroke-width="4"/></g>
			<g transform="scale(0.92, -0.92) translate(60, -920)">					<path d="M 112 515 Q 97 457 72 401 Q 54 368 79 335 Q 89 319 108 334 Q 153 379 146 462 Q 146 496 135 519 Q 129 526 123 527 Q 116 524 112 515 Z" fill="black"></path>
				<path d="M 301 556 Q 319 544 366 502 Q 378 492 389 493 Q 398 494 401 504 Q 405 516 397 539 Q 388 566 305 586 Q 304 587 302 586 C 272 588 276 573 301 556 Z" fill="black"></path>
				<path d="M 302 586 Q 303 674 321 734 Q 330 749 327 762 Q 320 772 266 805 Q 244 821 223 807 Q 219 803 225 787 Q 256 736 258 660 Q 258 239 240 147 Q 234 119 226 89 Q 216 52 240 -10 Q 247 -28 255 -31 Q 261 -38 268 -29 Q 295 -13 295 50 Q 294 101 301 556 L 302 586 Z" fill="red"></path>
				<path d="M 515 704 Q 493 723 463 735 Q 450 742 440 735 Q 431 729 437 713 Q 464 649 472 584 Q 476 517 473 255 C 473 225 515 231 514 261 Q 513 306 513 344 L 512 370 Q 512 413 513 449 L 513 471 Q 513 540 515 553 L 516 576 Q 519 648 524 670 C 528 694 528 694 515 704 Z" fill="lightgray"></path>
				<path d="M 760 297 Q 764 639 790 678 Q 805 696 792 714 Q 782 726 729 755 Q 714 765 647 739 Q 566 712 515 704 C 485 699 495 661 524 670 Q 527 671 530 672 Q 636 702 681 708 Q 699 712 705 706 Q 714 690 705 289 C 704 259 760 267 760 297 Z" fill="lightgray"></path>
				<path d="M 515 553 Q 519 552 531 553 Q 598 568 649 576 Q 671 582 661 593 Q 651 606 626 609 Q 592 612 516 576 C 489 563 485 556 515 553 Z" fill="lightgray"></path>
				<path d="M 513 449 Q 516 449 644 468 Q 666 472 657 485 Q 647 498 623 501 Q 593 502 513 471 C 485 460 483 445 513 449 Z" fill="lightgray"></path>
				<path d="M 513 344 L 655 363 Q 677 367 669 380 Q 659 395 633 399 Q 594 403 512 370 C 484 359 483 340 513 344 Z" fill="lightgray"></path>
				<path d="M 473 255 Q 401 248 328 237 Q 307 236 323 219 Q 336 206 354 200 Q 373 196 390 200 Q 574 254 923 253 Q 942 253 947 262 Q 953 272 936 286 Q 884 328 816 309 Q 789 305 760 297 L 705 289 Q 663 283 615 275 Q 564 269 514 261 L 473 255 Z" fill="lightgray"></path>
				<path d="M 488 181 Q 472 115 314 -8 Q 292 -21 319 -20 Q 403 -14 560 142 Q 572 154 570 163 Q 567 176 541 186 Q 513 198 499 195 Q 492 194 488 181 Z" fill="lightgray"></path>
				<path d="M 680 139 Q 732 87 792 10 Q 808 -12 823 -18 Q 833 -19 841 -9 Q 854 4 845 51 Q 836 103 687 170 Q 684 171 683 171 Q 674 178 671 164 Q 670 151 680 139 Z" fill="lightgray"></path>
</g>
		<text x="40" y="140" font-size="128" fill="#999999">3</text></g>
		<g id="id0:id3:id3" transform="matrix(1.0,0,0,1.0,3072,0.0)">			<g stroke="lightgray" stroke-width="4" transform="scale(4, 4)"> <rect x="0" y="0" width="256" height="256" fill="white" stroke-width="4"/></g>
			<g transform="scale(0.92, -0.92) translate(60, -920)">					<path d="M 112 515 Q 97 457 72 401 Q 54 368 79 335 Q 89 319 108 334 Q 153 379 146 462 Q 146 496 135 519 Q 129 526 123 527 Q 116 524 112 515 Z" fill="black"></path>
				<path d="M 301 556 Q 319 544 366 502 Q 378 492 389 493 Q 398 494 401 504 Q 405 516 397 539 Q 388 566 305 586 Q 304 587 302 586 C 272 588 276 573 301 556 Z" fill="black"></path>
				<path d="M 302 586 Q 303 674 321 734 Q 330 749 327 762 Q 320 772 266 805 Q 244 821 223 807 Q 219 803 225 787 Q 256 736 258 660 Q 258 239 240 147 Q 234 119 226 89 Q 216 52 240 -10 Q 247 -28 255 -31 Q 261 -38 268 -29 Q 295 -13 295 50 Q 294 101 301 556 L 302 586 Z" fill="black"></path>
				<path d="M 515 704 Q 493 723 463 735 Q 450 742 440 735 Q 431 729 437 713 Q 464 649 472 584 Q 476 517 473 255 C 473 225 515 231 514 261 Q 513 306 513 344 L 512 370 Q 512 413 513 449 L 513 471 Q 513 540 515 553 L 516 576 Q 519 648 524 670 C 528 694 528 694 515 704 Z" fill="red"></path>
				<path d="M 760 297 Q 764 639 790 678 Q 805 696 792 714 Q 782 726 729 755 Q 714 765 647 739 Q 566 712 515 704 C 485 699 495 661 524 670 Q 527 671 530 672 Q 636 702 681 708 Q 699 712 705 706 Q 714 690 705 289 C 704 259 760 267 760 297 Z" fill="lightgray"></path>
				<path d="M 515 553 Q 519 552 531 553 Q 598 568 649 576 Q 671 582 661 593 Q 651 606 626 609 Q 592 612 516 576 C 489 563 485 556 515 553 Z" fill="lightgray"></path>
				<path d="M 513 449 Q 516 449 644 468 Q 666 472 657 485 Q 647 498 623 501 Q 593 502 513 471 C 485 460 483 445 513 449 Z" fill="lightgray"></path>
				<path d="M 513 344 L 655 363 Q 677 367 669 380 Q 659 395 633 399 Q 594 403 512 370 C 484 359 483 340 513 344 Z" fill="lightgray"></path>
				<path d="M 473 255 Q 401 248 328 237 Q 307 236 323 219 Q 336 206 354 200 Q 373 196 390 200 Q 574 254 923 253 Q 942 253 947 262 Q 953 272 936 286 Q 884 328 816 309 Q 789 305 760 297 L 705 289 Q 663 283 615 275 Q 564 269 514 261 L 473 255 Z" fill="lightgray"></path>
				<path d="M 488 181 Q 472 115 314 -8 Q 292 -21 319 -20 Q 403 -14 560 142 Q 572 154 570 163 Q 567 176 541 186 Q 513 198 499 195 Q 492 194 488 181 Z" fill="lightgray"></path>
				<path d="M 680 139 Q 732 87 792 10 Q 808 -12 823 -18 Q 833 -19 841 -9 Q 854 4 845 51 Q 836 103 687 170 Q 684 171 683 171 Q 674 178 671 164 Q 670 151 680 139 Z" fill="lightgray"></path>
</g>
		<text x="40" y="140" font-size="128" fill="#999999">4</text></g>
		<g id="id0:id4:id4" transform="matrix(1.0,0,0,1.0,4096,0.0)">			<g stroke="lightgray" stroke-width="4" transform="scale(4, 4)"> <rect x="0" y="0" width="256" height="256" fill="white" stroke-width="4"/></g>
			<g transform="scale(0.92, -0.92) translate(60, -920)">					<path d="M 112 515 Q 97 457 72 401 Q 54 368 79 335 Q 89 319 108 334 Q 153 379 146 462 Q 146 496 135 519 Q 129 526 123 527 Q 116 524 112 515 Z" fill="black"></path>
				<path d="M 301 556 Q 319 544 366 502 Q 378 492 389 493 Q 398 494 401 504 Q 405 516 397 539 Q 388 566 305 586 Q 304 587 302 586 C 272 588 276 573 301 556 Z" fill="black"></path>
				<path d="M 302 586 Q 303 674 321 734 Q 330 749 327 762 Q 320 772 266 805 Q 244 821 223 807 Q 219 803 225 787 Q 256 736 258 660 Q 258 239 240 147 Q 234 119 226 89 Q 216 52 240 -10 Q 247 -28 255 -31 Q 261 -38 268 -29 Q 295 -13 295 50 Q 294 101 301 556 L 302 586 Z" fill="black"></path>
				<path d="M 515 704 Q 493 723 463 735 Q 450 742 440 735 Q 431 729 437 713 Q 464 649 472 584 Q 476 517 473 255 C 473 225 515 231 514 261 Q 513 306 513 344 L 512 370 Q 512 413 513 449 L 513 471 Q 513 540 515 553 L 516 576 Q 519 648 524 670 C 528 694 528 694 515 704 Z" fill="black"></path>
				<path d="M 760 297 Q 764 639 790 678 Q 805 696 792 714 Q 782 726 729 755 Q 714 765 647 739 Q 566 712 515 704 C 485 699 495 661 524 670 Q 527 671 530 672 Q 636 702 681 708 Q 699 712 705 706 Q 714 690 705 289 C 704 259 760 267 760 297 Z" fill="red"></path>
				<path d="M 515 553 Q 519 552 531 553 Q 598 568 649 576 Q 671 582 661 593 Q 651 606 626 609 Q 592 612 516 576 C 489 563 485 556 515 553 Z" fill="lightgray"></path>
				<path d="M 513 449 Q 516 449 644 468 Q 666 472 657 485 Q 647 498 623 501 Q 593 502 513 471 C 485 460 483 445 513 449 Z" fill="lightgray"></path>
				<path d="M 513 344 L 655 363 Q 677 367 669 380 Q 659 395 633 399 Q 594 403 512 370 C 484 359 483 340 513 344 Z" fill="lightgray"></path>
				<path d="M 473 255 Q 401 248 328 237 Q 307 236 323 219 Q 336 206 354 200 Q 373 196 390 200 Q 574 254 923 253 Q 942 253 947 262 Q 953 272 936 286 Q 884 328 816 309 Q 789 305 760 297 L 705 289 Q 663 283 615 275 Q 564 269 514 261 L 473 255 Z" fill="lightgray"></path>
				<path d="M 488 181 Q 472 115 314 -8 Q 292 -21 319 -20 Q 403 -14 560 142 Q 572 154 570 163 Q 567 176 541 186 Q 513 198 499 195 Q 492 194 488 181 Z" fill="lightgray"></path>
				<path d="M 680 139 Q 732 87 792 10 Q 808 -12 823 -18 Q 833 -19 841 -9 Q 854 4 845 51 Q 836 103 687 170 Q 684 171 683 171 Q 674 178 671 164 Q 670 151 680 139 Z" fill="lightgray"></path>
</g>
		<text x="40" y="140" font-size="128" fill="#999999">5</text></g>
</g>
	<g id="id1:id1" transform="translate(0.0,1024)">
		<g id="id1:id0:id0" transform="matrix(1.0,0,0,1.0,0,0.0)">			<g stroke="lightgray" stroke-width="4" transform="scale(4, 4)"> <rect x="0" y="0" width="256" height="256" fill="white" stroke-width="4"/></g>
			<g transform="scale(0.92, -0.92) translate(60, -920)">					<path d="M 112 515 Q 97 457 72 401 Q 54 368 79 335 Q 89 319 108 334 Q 153 379 146 462 Q 146 496 135 519 Q 129 526 123 527 Q 116 524 112 515 Z" fill="black"></path>
				<path d="M 301 556 Q 319 544 366 502 Q 378 492 389 493 Q 398 494 401 504 Q 405 516 397 539 Q 388 566 305 586 Q 304 587 302 586 C 272 588 276 573 301 556 Z" fill="black"></path>
				<path d="M 302 586 Q 303 674 321 734 Q 330 749 327 762 Q 320 772 266 805 Q 244 821 223 807 Q 219 803 225 787 Q 256 736 258 660 Q 258 239 240 147 Q 234 119 226 89 Q 216 52 240 -10 Q 247 -28 255 -31 Q 261 -38 268 -29 Q 295 -13 295 50 Q 294 101 301 556 L 302 586 Z" fill="black"></path>
				<path d="M 515 704 Q 493 723 463 735 Q 450 742 440 735 Q 431 729 437 713 Q 464 649 472 584 Q 476 517 473 255 C 473 225 515 231 514 261 Q 513 306 513 344 L 512 370 Q 512 413 513 449 L 513 471 Q 513 540 515 553 L 516 576 Q 519 648 524 670 C 528 694 528 694 515 704 Z" fill="black"></path>
				<path d="M 760 297 Q 764 639 790 678 Q 805 696 792 714 Q 782 726 729 755 Q 714 765 647 739 Q 566 712 515 704 C 485 699 495 661 524 670 Q 527 671 530 672 Q 636 702 681 708 Q 699 712 705 706 Q 714 690 705 289 C 704 259 760 267 760 297 Z" fill="black"></path>
				<path d="M 515 553 Q 519 552 531 553 Q 598 568 649 576 Q 671 582 661 593 Q 651 606 626 609 Q 592 612 516 576 C 489 563 485 556 515 553 Z" fill="red"></path>
				<path d="M 513 449 Q 516 449 644 468 Q 666 472 657 485 Q 647 498 623 501 Q 593 502 513 471 C 485 460 483 445 513 449 Z" fill="lightgray"></path>
				<path d="M 513 344 L 655 363 Q 677 367 669 380 Q 659 395 633 399 Q 594 403 512 370 C 484 359 483 340 513 344 Z" fill="lightgray"></path>
				<path d="M 473 255 Q 401 248 328 237 Q 307 236 323 219 Q 336 206 354 200 Q 373 196 390 200 Q 574 254 923 253 Q 942 253 947 262 Q 953 272 936 286 Q 884 328 816 309 Q 789 305 760 297 L 705 289 Q 663 283 615 275 Q 564 269 514 261 L 473 255 Z" fill="lightgray"></path>
				<path d="M 488 181 Q 472 115 314 -8 Q 292 -21 319 -20 Q 403 -14 560 142 Q 572 154 570 163 Q 567 176 541 186 Q 513 198 499 195 Q 492 194 488 181 Z" fill="lightgray"></path>
				<path d="M 680 139 Q 732 87 792 10 Q 808 -12 823 -18 Q 833 -19 841 -9 Q 854 4 845 51 Q 836 103 687 170 Q 684 171 683 171 Q 674 178 671 164 Q 670 151 680 139 Z" fill="lightgray"></path>
</g>
		<text x="40" y="140" font-size="128" fill="#999999">6</text></g>
		<g id="id1:id1:id1" transform="matrix(1.0,0,0,1.0,1024,0.0)">			<g stroke="lightgray" stroke-width="4" transform="scale(4, 4)"> <rect x="0" y="0" width="256" height="256" fill="white" stroke-width="4"/></g>
			<g transform="scale(0.92, -0.92) translate(60, -920)">					<path d="M 112 515 Q 97 457 72 401 Q 54 368 79 335 Q 89 319 108 334 Q 153 379 146 462 Q 146 496 135 519 Q 129 526 123 527 Q 116 524 112 515 Z" fill="black"></path>
				<path d="M 301 556 Q 319 544 366 502 Q 378 492 389 493 Q 398 494 401 504 Q 405 516 397 539 Q 388 566 305 586 Q 304 587 302 586 C 272 588 276 573 301 556 Z" fill="black"></path>
				<path d="M 302 586 Q 303 674 321 734 Q 330 749 327 762 Q 320 772 266 805 Q 244 821 223 807 Q 219 803 225 787 Q 256 736 258 660 Q 258 239 240 147 Q 234 119 226 89 Q 216 52 240 -10 Q 247 -28 255 -31 Q 261 -38 268 -29 Q 295 -13 295 50 Q 294 101 301 556 L 302 586 Z" fill="black"></path>
				<path d="M 515 704 Q 493 723 463 735 Q 450 742 440 735 Q 431 729 437 713 Q 464 649 472 584 Q 476 517 473 255 C 473 225 515 231 514 261 Q 513 306 513 344 L 512 370 Q 512 413 513 449 L 513 471 Q 513 540 515 553 L 516 576 Q 519 648 524 670 C 528 694 528 694 515 704 Z" fill="black"></path>
				<path d="M 760 297 Q 764 639 790 678 Q 805 696 792 714 Q 782 726 729 755 Q 714 765 647 739 Q 566 712 515 704 C 485 699 495 661 524 670 Q 527 671 530 672 Q 636 702 681 708 Q 699 712 705 706 Q 714 690 705 289 C 704 259 760 267 760 297 Z" fill="black"></path>
				<path d="M 515 553 Q 519 552 531 553 Q 598 568 649 576 Q 671 582 661 593 Q 651 606 626 609 Q 592 612 516 576 C 489 563 485 556 515 553 Z" fill="black"></path>
				<path d="M 513 449 Q 516 449 644 468 Q 666 472 657 485 Q 647 498 623 501 Q 593 502 513 471 C 485 460 483 445 513 449 Z" fill="red"></path>
				<path d="M 513 344 L 655 363 Q 677 367 669 380 Q 659 395 633 399 Q 594 403 512 370 C 484 359 483 340 513 344 Z" fill="lightgray"></path>
				<path d="M 473 255 Q 401 248 328 237 Q 307 236 323 219 Q 336 206 354 200 Q 373 196 390 200 Q 574 254 923 253 Q 942 253 947 262 Q 953 272 936 286 Q 884 328 816 309 Q 789 305 760 297 L 705 289 Q 663 283 615 275 Q 564 269 514 261 L 473 255 Z" fill="lightgray"></path>
				<path d="M 488 181 Q 472 115 314 -8 Q 292 -21 319 -20 Q 403 -14 560 142 Q 572 154 570 163 Q 567 176 541 186 Q 513 198 499 195 Q 492 194 488 181 Z" fill="lightgray"></path>
				<path d="M 680 139 Q 732 87 792 10 Q 808 -12 823 -18 Q 833 -19 841 -9 Q 854 4 845 51 Q 836 103 687 170 Q 684 171 683 171 Q 674 178 671 164 Q 670 151 680 139 Z" fill="lightgray"></path>
</g>
		<text x="40" y="140" font-size="128" fill="#999999">7</text></g>
		<g id="id1:id2:id2" transform="matrix(1.0,0,0,1.0,2048,0.0)">			<g stroke="lightgray" stroke-width="4" transform="scale(4, 4)"> <rect x="0" y="0" width="256" height="256" fill="white" stroke-width="4"/></g>
			<g transform="scale(0.92, -0.92) translate(60, -920)">					<path d="M 112 515 Q 97 457 72 401 Q 54 368 79 335 Q 89 319 108 334 Q 153 379 146 462 Q 146 496 135 519 Q 129 526 123 527 Q 116 524 112 515 Z" fill="black"></path>
				<path d="M 301 556 Q 319 544 366 502 Q 378 492 389 493 Q 398 494 401 504 Q 405 516 397 539 Q 388 566 305 586 Q 304 587 302 586 C 272 588 276 573 301 556 Z" fill="black"></path>
				<path d="M 302 586 Q 303 674 321 734 Q 330 749 327 762 Q 320 772 266 805 Q 244 821 223 807 Q 219 803 225 787 Q 256 736 258 660 Q 258 239 240 147 Q 234 119 226 89 Q 216 52 240 -10 Q 247 -28 255 -31 Q 261 -38 268 -29 Q 295 -13 295 50 Q 294 101 301 556 L 302 586 Z" fill="black"></path>
				<path d="M 515 704 Q 493 723 463 735 Q 450 742 440 735 Q 431 729 437 713 Q 464 649 472 584 Q 476 517 473 255 C 473 225 515 231 514 261 Q 513 306 513 344 L 512 370 Q 512 413 513 449 L 513 471 Q 513 540 515 553 L 516 576 Q 519 648 524 670 C 528 694 528 694 515 704 Z" fill="black"></path>
				<path d="M 760 297 Q 764 639 790 678 Q 805 696 792 714 Q 782 726 729 755 Q 714 765 647 739 Q 566 712 515 704 C 485 699 495 661 524 670 Q 527 671 530 672 Q 636 702 681 708 Q 699 712 705 706 Q 714 690 705 289 C 704 259 760 267 760 297 Z" fill="black"></path>
				<path d="M 515 553 Q 519 552 531 553 Q 598 568 649 576 Q 671 582 661 593 Q 651 606 626 609 Q 592 612 516 576 C 489 563 485 556 515 553 Z" fill="black"></path>
				<path d="M 513 449 Q 516 449 644 468 Q 666 472 657 485 Q 647 498 623 501 Q 593 502 513 471 C 485 460 483 445 513 449 Z" fill="black"></path>
				<path d="M 513 344 L 655 363 Q 677 367 669 380 Q 659 395 633 399 Q 594 403 512 370 C 484 359 483 340 513 344 Z" fill="red"></path>
				<path d="M 473 255 Q 401 248 328 237 Q 307 236 323 219 Q 336 206 354 200 Q 373 196 390 200 Q 574 254 923 253 Q 942 253 947 262 Q 953 272 936 286 Q 884 328 816 309 Q 789 305 760 297 L 705 289 Q 663 283 615 275 Q 564 269 514 261 L 473 255 Z" fill="lightgray"></path>
				<path d="M 488 181 Q 472 115 314 -8 Q 292 -21 319 -20 Q 403 -14 560 142 Q 572 154 570 163 Q 567 176 541 186 Q 513 198 499 195 Q 492 194 488 181 Z" fill="lightgray"></path>
				<path d="M 680 139 Q 732 87 792 10 Q 808 -12 823 -18 Q 833 -19 841 -9 Q 854 4 845 51 Q 836 103 687 170 Q 684 171 683 171 Q 674 178 671 164 Q 670 151 680 139 Z" fill="lightgray"></path>
</g>
		<text x="40" y="140" font-size="128" fill="#999999">8</text></g>
		<g id="id1:id3:id3" transform="matrix(1.0,0,0,1.0,3072,0.0)">			<g stroke="lightgray" stroke-width="4" transform="scale(4, 4)"> <rect x="0" y="0" width="256" height="256" fill="white" stroke-width="4"/></g>
			<g transform="scale(0.92, -0.92) translate(60, -920)">					<path d="M 112 515 Q 97 457 72 401 Q 54 368 79 335 Q 89 319 108 334 Q 153 379 146 462 Q 146 496 135 519 Q 129 526 123 527 Q 116 524 112 515 Z" fill="black"></path>
				<path d="M 301 556 Q 319 544 366 502 Q 378 492 389 493 Q 398 494 401 504 Q 405 516 397 539 Q 388 566 305 586 Q 304 587 302 586 C 272 588 276 573 301 556 Z" fill="black"></path>
				<path d="M 302 586 Q 303 674 321 734 Q 330 749 327 762 Q 320 772 266 805 Q 244 821 223 807 Q 219 803 225 787 Q 256 736 258 660 Q 258 239 240 147 Q 234 119 226 89 Q 216 52 240 -10 Q 247 -28 255 -31 Q 261 -38 268 -29 Q 295 -13 295 50 Q 294 101 301 556 L 302 586 Z" fill="black"></path>
				<path d="M 515 704 Q 493 723 463 735 Q 450 742 440 735 Q 431 729 437 713 Q 464 649 472 584 Q 476 517 473 255 C 473 225 515 231 514 261 Q 513 306 513 344 L 512 370 Q 512 413 513 449 L 513 471 Q 513 540 515 553 L 516 576 Q 519 648 524 670 C 528 694 528 694 515 704 Z" fill="black"></path>
				<path d="M 760 297 Q 764 639 790 678 Q 805 696 792 714 Q 782 726 729 755 Q 714 765 647 739 Q 566 712 515 704 C 485 699 495 661 524 670 Q 527 671 530 672 Q 636 702 681 708 Q 699 712 705 706 Q 714 690 705 289 C 704 259 760 267 760 297 Z" fill="black"></path>
				<path d="M 515 553 Q 519 552 531 553 Q 598 568 649 576 Q 671 582 661 593 Q 651 606 626 609 Q 592 612 516 576 C 489 563 485 556 515 553 Z" fill="black"></path>
				<path d="M 513 449 Q 516 449 644 468 Q 666 472 657 485 Q 647 498 623 501 Q 593 502 513 471 C 485 460 483 445 513 449 Z" fill="black"></path>
				<path d="M 513 344 L 655 363 Q 677 367 669 380 Q 659 395 633 399 Q 594 403 512 370 C 484 359 483 340 513 344 Z" fill="black"></path>
				<path d="M 473 255 Q 401 248 328 237 Q 307 236 323 219 Q 336 206 354 200 Q 373 196 390 200 Q 574 254 923 253 Q 942 253 947 262 Q 953 272 936 286 Q 884 328 816 309 Q 789 305 760 297 L 705 289 Q 663 283 615 275 Q 564 269 514 261 L 473 255 Z" fill="red"></path>
				<path d="M 488 181 Q 472 115 314 -8 Q 292 -21 319 -20 Q 403 -14 560 142 Q 572 154 570 163 Q 567 176 541 186 Q 513 198 499 195 Q 492 194 488 181 Z" fill="lightgray"></path>
				<path d="M 680 139 Q 732 87 792 10 Q 808 -12 823 -18 Q 833 -19 841 -9 Q 854 4 845 51 Q 836 103 687 170 Q 684 171 683 171 Q 674 178 671 164 Q 670 151 680 139 Z" fill="lightgray"></path>
</g>
		<text x="40" y="140" font-size="128" fill="#999999">9</text></g>
		<g id="id1:id4:id4" transform="matrix(1.0,0,0,1.0,4096,0.0)">			<g stroke="lightgray" stroke-width="4" transform="scale(4, 4)"> <rect x="0" y="0" width="256" height="256" fill="white" stroke-width="4"/></g>
			<g transform="scale(0.92, -0.92) translate(60, -920)">					<path d="M 112 515 Q 97 457 72 401 Q 54 368 79 335 Q 89 319 108 334 Q 153 379 146 462 Q 146 496 135 519 Q 129 526 123 527 Q 116 524 112 515 Z" fill="black"></path>
				<path d="M 301 556 Q 319 544 366 502 Q 378 492 389 493 Q 398 494 401 504 Q 405 516 397 539 Q 388 566 305 586 Q 304 587 302 586 C 272 588 276 573 301 556 Z" fill="black"></path>
				<path d="M 302 586 Q 303 674 321 734 Q 330 749 327 762 Q 320 772 266 805 Q 244 821 223 807 Q 219 803 225 787 Q 256 736 258 660 Q 258 239 240 147 Q 234 119 226 89 Q 216 52 240 -10 Q 247 -28 255 -31 Q 261 -38 268 -29 Q 295 -13 295 50 Q 294 101 301 556 L 302 586 Z" fill="black"></path>
				<path d="M 515 704 Q 493 723 463 735 Q 450 742 440 735 Q 431 729 437 713 Q 464 649 472 584 Q 476 517 473 255 C 473 225 515 231 514 261 Q 513 306 513 344 L 512 370 Q 512 413 513 449 L 513 471 Q 513 540 515 553 L 516 576 Q 519 648 524 670 C 528 694 528 694 515 704 Z" fill="black"></path>
				<path d="M 760 297 Q 764 639 790 678 Q 805 696 792 714 Q 782 726 729 755 Q 714 765 647 739 Q 566 712 515 704 C 485 699 495 661 524 670 Q 527 671 530 672 Q 636 702 681 708 Q 699 712 705 706 Q 714 690 705 289 C 704 259 760 267 760 297 Z" fill="black"></path>
				<path d="M 515 553 Q 519 552 531 553 Q 598 568 649 576 Q 671 582 661 593 Q 651 606 626 609 Q 592 612 516 576 C 489 563 485 556 515 553 Z" fill="black"></path>
				<path d="M 513 449 Q 516 449 644 468 Q 666 472 657 485 Q 647 498 623 501 Q 593 502 513 471 C 485 460 483 445 513 449 Z" fill="black"></path>
				<path d="M 513 344 L 655 363 Q 677 367 669 380 Q 659 395 633 399 Q 594 403 512 370 C 484 359 483 340 513 344 Z" fill="black"></path>
				<path d="M 473 255 Q 401 248 328 237 Q 307 236 323 219 Q 336 206 354 200 Q 373 196 390 200 Q 574 254 923 253 Q 942 253 947 262 Q 953 272 936 286 Q 884 328 816 309 Q 789 305 760 297 L 705 289 Q 663 283 615 275 Q 564 269 514 261 L 473 255 Z" fill="black"></path>
				<path d="M 488 181 Q 472 115 314 -8 Q 292 -21 319 -20 Q 403 -14 560 142 Q 572 154 570 163 Q 567 176 541 186 Q 513 198 499 195 Q 492 194 488 181 Z" fill="red"></path>
				<path d="M 680 139 Q 732 87 792 10 Q 808 -12 823 -18 Q 833 -19 841 -9 Q 854 4 845 51 Q 836 103 687 170 Q 684 171 683 171 Q 674 178 671 164 Q 670 151 680 139 Z" fill="lightgray"></path>
</g>
		<text x="40" y="140" font-size="128" fill="#999999">10</text></g>
</g>
	<g id="id2:id2" transform="translate(0.0,2048)">
		<g id="id2:id0:id0" transform="matrix(1.0,0,0,1.0,0,0.0)">			<g stroke="lightgray" stroke-width="4" transform="scale(4, 4)"> <rect x="0" y="0" width="256" height="256" fill="white" stroke-width="4"/></g>
			<g transform="scale(0.92, -0.92) translate(60, -920)">					<path d="M 112 515 Q 97 457 72 401 Q 54 368 79 335 Q 89 319 108 334 Q 153 379 146 462 Q 146 496 135 519 Q 129 526 123 527 Q 116 524 112 515 Z" fill="black"></path>
				<path d="M 301 556 Q 319 544 366 502 Q 378 492 389 493 Q 398 494 401 504 Q 405 516 397 539 Q 388 566 305 586 Q 304 587 302 586 C 272 588 276 573 301 556 Z" fill="black"></path>
				<path d="M 302 586 Q 303 674 321 734 Q 330 749 327 762 Q 320 772 266 805 Q 244 821 223 807 Q 219 803 225 787 Q 256 736 258 660 Q 258 239 240 147 Q 234 119 226 89 Q 216 52 240 -10 Q 247 -28 255 -31 Q 261 -38 268 -29 Q 295 -13 295 50 Q 294 101 301 556 L 302 586 Z" fill="black"></path>
				<path d="M 515 704 Q 493 723 463 735 Q 450 742 440 735 Q 431 729 437 713 Q 464 649 472 584 Q 476 517 473 255 C 473 225 515 231 514 261 Q 513 306 513 344 L 512 370 Q 512 413 513 449 L 513 471 Q 513 540 515 553 L 516 576 Q 519 648 524 670 C 528 694 528 694 515 704 Z" fill="black"></path>
				<path d="M 760 297 Q 764 639 790 678 Q 805 696 792 714 Q 782 726 729 755 Q 714 765 647 739 Q 566 712 515 704 C 485 699 495 661 524 670 Q 527 671 530 672 Q 636 702 681 708 Q 699 712 705 706 Q 714 690 705 289 C 704 259 760 267 760 297 Z" fill="black"></path>
				<path d="M 515 553 Q 519 552 531 553 Q 598 568 649 576 Q 671 582 661 593 Q 651 606 626 609 Q 592 612 516 576 C 489 563 485 556 515 553 Z" fill="black"></path>
				<path d="M 513 449 Q 516 449 644 468 Q 666 472 657 485 Q 647 498 623 501 Q 593 502 513 471 C 485 460 483 445 513 449 Z" fill="black"></path>
				<path d="M 513 344 L 655 363 Q 677 367 669 380 Q 659 395 633 399 Q 594 403 512 370 C 484 359 483 340 513 344 Z" fill="black"></path>
				<path d="M 473 255 Q 401 248 328 237 Q 307 236 323 219 Q 336 206 354 200 Q 373 196 390 200 Q 574 254 923 253 Q 942 253 947 262 Q 953 272 936 286 Q 884 328 816 309 Q 789 305 760 297 L 705 289 Q 663 283 615 275 Q 564 269 514 261 L 473 255 Z" fill="black"></path>
				<path d="M 488 181 Q 472 115 314 -8 Q 292 -21 319 -20 Q 403 -14 560 142 Q 572 154 570 163 Q 567 176 541 186 Q 513 198 499 195 Q 492 194 488 181 Z" fill="black"></path>
				<path d="M 680 139 Q 732 87 792 10 Q 808 -12 823 -18 Q 833 -19 841 -9 Q 854 4 845 51 Q 836 103 687 170 Q 684 171 683 171 Q 674 178 671 164 Q 670 151 680 139 Z" fill="red"></path>
</g>
		<text x="40" y="140" font-size="128" fill="#999999">11</text></g>
		<g id="id2:id1:id1" transform="matrix(1.0,0,0,1.0,1024,0.0)">			<g stroke="white" stroke-width="4" transform="scale(4, 4)"> <rect x="1" y="1" width="255" height="255" fill="white" stroke-width="0"/></g>
</g>
		<g id="id2:id2:id2" transform="matrix(1.0,0,0,1.0,2048,0.0)">			<g stroke="white" stroke-width="4" transform="scale(4, 4)"> <rect x="1" y="1" width="255" height="255" fill="white" stroke-width="0"/></g>
</g>
		<g id="id2:id3:id3" transform="matrix(1.0,0,0,1.0,3072,0.0)">			<g stroke="white" stroke-width="4" transform="scale(4, 4)"> <rect x="1" y="1" width="255" height="255" fill="white" stroke-width="0"/></g>
</g>
		<g id="id2:id4:id4" transform="matrix(1.0,0,0,1.0,4096,0.0)">			<g stroke="white" stroke-width="4" transform="scale(4, 4)"> <rect x="1" y="1" width="255" height="255" fill="white" stroke-width="0"/></g>
</g>
</g>
</svg>
