<?xml version="1.0" standalone="no"?>
<!DOCTYPE svg PUBLIC "-//W3C//DTD SVG 1.1//EN"
 "http://www.w3.org/Graphics/SVG/1.1/DTD/svg11.dtd">
<!-- generate by Handict dictionary app com.asnsami.handict -->

<svg xmlns="http://www.w3.org/2000/svg" xmlns:sodipodi="http://sodipodi.sourceforge.net/DTD/sodipodi-0.dtd" version="1.1" width="640" height="384" viewBox="0 0 5120 3072">
	<g id="id0:id0" transform="translate(0.0,0)">
		<g id="id0:id0:id0" transform="matrix(1.0,0,0,1.0,0,0.0)">			<g stroke="lightgray" stroke-width="4" transform="scale(4, 4)"> <rect x="0" y="0" width="256" height="256" fill="white" stroke-width="4"/></g>
			<g transform="scale(0.92, -0.92) translate(60, -920)">					<path d="M 129 491 Q 116 424 90 362 Q 77 328 99 298 Q 109 283 127 298 Q 172 349 163 441 Q 163 472 152 495 Q 145 502 140 502 Q 133 499 129 491 Z" fill="red"></path>
				<path d="M 285 520 Q 286 519 289 517 Q 314 496 342 471 Q 352 461 365 462 Q 374 462 377 473 Q 381 483 374 507 Q 365 534 285 554 C 256 561 261 538 285 520 Z" fill="lightgray"></path>
				<path d="M 285 554 Q 285 644 305 718 Q 320 743 290 763 Q 275 775 250 789 Q 228 805 207 791 Q 203 787 209 771 Q 239 726 240 650 Q 240 230 220 142 Q 216 124 211 105 Q 199 69 224 6 Q 231 -12 239 -15 Q 245 -21 252 -13 Q 279 3 279 66 Q 278 112 285 520 L 285 554 Z" fill="lightgray"></path>
				<path d="M 505 624 Q 536 657 554 679 Q 614 749 626 758 Q 644 773 630 787 Q 614 800 585 808 Q 560 815 548 810 Q 535 806 543 793 Q 553 769 481 627 Q 478 623 476 616 C 465 588 485 602 505 624 Z" fill="lightgray"></path>
				<path d="M 426 605 Q 402 621 376 626 Q 369 627 366 623 Q 359 617 368 608 Q 404 554 419 420 Q 422 362 459 342 Q 475 339 474 366 Q 474 367 473 369 L 471 392 Q 468 408 463 427 Q 442 560 441 571 C 438 598 438 598 426 605 Z" fill="lightgray"></path>
				<path d="M 685 398 L 686 396 Q 690 380 704 381 Q 717 382 726 397 Q 742 416 768 515 Q 784 567 822 596 Q 841 612 825 628 Q 807 644 757 672 Q 741 681 679 664 Q 628 658 509 625 Q 506 625 505 624 L 476 616 Q 448 610 426 605 C 397 598 413 562 441 571 Q 504 592 532 598 L 563 606 Q 701 642 726 631 Q 736 624 729 588 Q 696 438 686 427 C 678 408 678 408 685 398 Z" fill="lightgray"></path>
				<path d="M 592 494 Q 629 503 664 508 Q 686 512 677 525 Q 667 538 643 541 Q 624 542 597 534 L 547 518 Q 513 508 482 497 Q 466 493 486 479 Q 492 476 546 484 L 592 494 Z" fill="lightgray"></path>
				<path d="M 575 382 Q 633 392 685 398 C 715 402 715 421 686 427 Q 664 434 581 416 L 535 406 Q 501 399 471 392 C 442 385 443 370 473 369 Q 482 368 496 370 Q 512 374 531 375 L 575 382 Z" fill="lightgray"></path>
				<path d="M 531 375 Q 506 273 483 226 Q 438 148 397 109 Q 388 103 381 95 Q 333 59 328 51 Q 327 45 336 45 Q 373 42 447 110 Q 537 191 575 382 L 581 416 Q 585 453 592 494 L 597 534 Q 597 535 598 536 Q 602 552 605 562 Q 612 578 594 589 Q 575 601 563 606 C 536 620 519 625 532 598 Q 533 595 537 590 Q 550 560 548 521 Q 548 520 547 518 L 546 484 Q 542 453 535 406 L 531 375 Z" fill="lightgray"></path>
				<path d="M 962 96 Q 950 120 932 191 Q 931 206 925 210 Q 919 213 916 197 Q 894 119 879 95 Q 866 80 830 71 Q 749 50 679 77 Q 652 90 646 106 Q 625 151 651 299 Q 657 326 611 347 Q 598 351 591 346 Q 584 342 589 325 Q 601 288 598 253 Q 591 124 601 88 Q 605 66 625 48 Q 701 -13 875 21 Q 878 22 881 23 Q 920 33 957 60 Q 973 73 962 96 Z" fill="lightgray"></path>
				<path d="M 818 220 Q 776 216 732 206 Q 728 205 726 205 Q 725 206 727 213 Q 779 298 790 314 Q 797 323 792 331 Q 786 340 749 352 Q 736 356 729 353 Q 720 347 726 332 Q 754 280 665 193 Q 662 192 661 189 Q 651 179 655 171 Q 659 158 681 145 Q 690 138 698 148 Q 713 163 812 198 Q 819 201 826 204 C 854 216 848 223 818 220 Z" fill="lightgray"></path>
				<path d="M 826 204 Q 841 168 853 161 Q 860 160 866 165 Q 873 172 875 192 Q 876 219 821 264 Q 814 270 808 270 Q 804 269 802 261 Q 799 252 818 220 L 826 204 Z" fill="lightgray"></path>
</g>
		<text x="40" y="140" font-size="128" fill="#999999">1</text></g>
		<g id="id0:id1:id1" transform="matrix(1.0,0,0,1.0,1024,0.0)">			<g stroke="lightgray" stroke-width="4" transform="scale(4, 4)"> <rect x="0" y="0" width="256" height="256" fill="white" stroke-width="4"/></g>
			<g transform="scale(0.92, -0.92) translate(60, -920)">					<path d="M 129 491 Q 116 424 90 362 Q 77 328 99 298 Q 109 283 127 298 Q 172 349 163 441 Q 163 472 152 495 Q 145 502 140 502 Q 133 499 129 491 Z" fill="black"></path>
				<path d="M 285 520 Q 286 519 289 517 Q 314 496 342 471 Q 352 461 365 462 Q 374 462 377 473 Q 381 483 374 507 Q 365 534 285 554 C 256 561 261 538 285 520 Z" fill="red"></path>
				<path d="M 285 554 Q 285 644 305 718 Q 320 743 290 763 Q 275 775 250 789 Q 228 805 207 791 Q 203 787 209 771 Q 239 726 240 650 Q 240 230 220 142 Q 216 124 211 105 Q 199 69 224 6 Q 231 -12 239 -15 Q 245 -21 252 -13 Q 279 3 279 66 Q 278 112 285 520 L 285 554 Z" fill="lightgray"></path>
				<path d="M 505 624 Q 536 657 554 679 Q 614 749 626 758 Q 644 773 630 787 Q 614 800 585 808 Q 560 815 548 810 Q 535 806 543 793 Q 553 769 481 627 Q 478 623 476 616 C 465 588 485 602 505 624 Z" fill="lightgray"></path>
				<path d="M 426 605 Q 402 621 376 626 Q 369 627 366 623 Q 359 617 368 608 Q 404 554 419 420 Q 422 362 459 342 Q 475 339 474 366 Q 474 367 473 369 L 471 392 Q 468 408 463 427 Q 442 560 441 571 C 438 598 438 598 426 605 Z" fill="lightgray"></path>
				<path d="M 685 398 L 686 396 Q 690 380 704 381 Q 717 382 726 397 Q 742 416 768 515 Q 784 567 822 596 Q 841 612 825 628 Q 807 644 757 672 Q 741 681 679 664 Q 628 658 509 625 Q 506 625 505 624 L 476 616 Q 448 610 426 605 C 397 598 413 562 441 571 Q 504 592 532 598 L 563 606 Q 701 642 726 631 Q 736 624 729 588 Q 696 438 686 427 C 678 408 678 408 685 398 Z" fill="lightgray"></path>
				<path d="M 592 494 Q 629 503 664 508 Q 686 512 677 525 Q 667 538 643 541 Q 624 542 597 534 L 547 518 Q 513 508 482 497 Q 466 493 486 479 Q 492 476 546 484 L 592 494 Z" fill="lightgray"></path>
				<path d="M 575 382 Q 633 392 685 398 C 715 402 715 421 686 427 Q 664 434 581 416 L 535 406 Q 501 399 471 392 C 442 385 443 370 473 369 Q 482 368 496 370 Q 512 374 531 375 L 575 382 Z" fill="lightgray"></path>
				<path d="M 531 375 Q 506 273 483 226 Q 438 148 397 109 Q 388 103 381 95 Q 333 59 328 51 Q 327 45 336 45 Q 373 42 447 110 Q 537 191 575 382 L 581 416 Q 585 453 592 494 L 597 534 Q 597 535 598 536 Q 602 552 605 562 Q 612 578 594 589 Q 575 601 563 606 C 536 620 519 625 532 598 Q 533 595 537 590 Q 550 560 548 521 Q 548 520 547 518 L 546 484 Q 542 453 535 406 L 531 375 Z" fill="lightgray"></path>
				<path d="M 962 96 Q 950 120 932 191 Q 931 206 925 210 Q 919 213 916 197 Q 894 119 879 95 Q 866 80 830 71 Q 749 50 679 77 Q 652 90 646 106 Q 625 151 651 299 Q 657 326 611 347 Q 598 351 591 346 Q 584 342 589 325 Q 601 288 598 253 Q 591 124 601 88 Q 605 66 625 48 Q 701 -13 875 21 Q 878 22 881 23 Q 920 33 957 60 Q 973 73 962 96 Z" fill="lightgray"></path>
				<path d="M 818 220 Q 776 216 732 206 Q 728 205 726 205 Q 725 206 727 213 Q 779 298 790 314 Q 797 323 792 331 Q 786 340 749 352 Q 736 356 729 353 Q 720 347 726 332 Q 754 280 665 193 Q 662 192 661 189 Q 651 179 655 171 Q 659 158 681 145 Q 690 138 698 148 Q 713 163 812 198 Q 819 201 826 204 C 854 216 848 223 818 220 Z" fill="lightgray"></path>
				<path d="M 826 204 Q 841 168 853 161 Q 860 160 866 165 Q 873 172 875 192 Q 876 219 821 264 Q 814 270 808 270 Q 804 269 802 261 Q 799 252 818 220 L 826 204 Z" fill="lightgray"></path>
</g>
		<text x="40" y="140" font-size="128" fill="#999999">2</text></g>
		<g id="id0:id2:id2" transform="matrix(1.0,0,0,1.0,2048,0.0)">			<g stroke="lightgray" stroke-width="4" transform="scale(4, 4)"> <rect x="0" y="0" width="256" height="256" fill="white" stroke-width="4"/></g>
			<g transform="scale(0.92, -0.92) translate(60, -920)">					<path d="M 129 491 Q 116 424 90 362 Q 77 328 99 298 Q 109 283 127 298 Q 172 349 163 441 Q 163 472 152 495 Q 145 502 140 502 Q 133 499 129 491 Z" fill="black"></path>
				<path d="M 285 520 Q 286 519 289 517 Q 314 496 342 471 Q 352 461 365 462 Q 374 462 377 473 Q 381 483 374 507 Q 365 534 285 554 C 256 561 261 538 285 520 Z" fill="black"></path>
				<path d="M 285 554 Q 285 644 305 718 Q 320 743 290 763 Q 275 775 250 789 Q 228 805 207 791 Q 203 787 209 771 Q 239 726 240 650 Q 240 230 220 142 Q 216 124 211 105 Q 199 69 224 6 Q 231 -12 239 -15 Q 245 -21 252 -13 Q 279 3 279 66 Q 278 112 285 520 L 285 554 Z" fill="red"></path>
				<path d="M 505 624 Q 536 657 554 679 Q 614 749 626 758 Q 644 773 630 787 Q 614 800 585 808 Q 560 815 548 810 Q 535 806 543 793 Q 553 769 481 627 Q 478 623 476 616 C 465 588 485 602 505 624 Z" fill="lightgray"></path>
				<path d="M 426 605 Q 402 621 376 626 Q 369 627 366 623 Q 359 617 368 608 Q 404 554 419 420 Q 422 362 459 342 Q 475 339 474 366 Q 474 367 473 369 L 471 392 Q 468 408 463 427 Q 442 560 441 571 C 438 598 438 598 426 605 Z" fill="lightgray"></path>
				<path d="M 685 398 L 686 396 Q 690 380 704 381 Q 717 382 726 397 Q 742 416 768 515 Q 784 567 822 596 Q 841 612 825 628 Q 807 644 757 672 Q 741 681 679 664 Q 628 658 509 625 Q 506 625 505 624 L 476 616 Q 448 610 426 605 C 397 598 413 562 441 571 Q 504 592 532 598 L 563 606 Q 701 642 726 631 Q 736 624 729 588 Q 696 438 686 427 C 678 408 678 408 685 398 Z" fill="lightgray"></path>
				<path d="M 592 494 Q 629 503 664 508 Q 686 512 677 525 Q 667 538 643 541 Q 624 542 597 534 L 547 518 Q 513 508 482 497 Q 466 493 486 479 Q 492 476 546 484 L 592 494 Z" fill="lightgray"></path>
				<path d="M 575 382 Q 633 392 685 398 C 715 402 715 421 686 427 Q 664 434 581 416 L 535 406 Q 501 399 471 392 C 442 385 443 370 473 369 Q 482 368 496 370 Q 512 374 531 375 L 575 382 Z" fill="lightgray"></path>
				<path d="M 531 375 Q 506 273 483 226 Q 438 148 397 109 Q 388 103 381 95 Q 333 59 328 51 Q 327 45 336 45 Q 373 42 447 110 Q 537 191 575 382 L 581 416 Q 585 453 592 494 L 597 534 Q 597 535 598 536 Q 602 552 605 562 Q 612 578 594 589 Q 575 601 563 606 C 536 620 519 625 532 598 Q 533 595 537 590 Q 550 560 548 521 Q 548 520 547 518 L 546 484 Q 542 453 535 406 L 531 375 Z" fill="lightgray"></path>
				<path d="M 962 96 Q 950 120 932 191 Q 931 206 925 210 Q 919 213 916 197 Q 894 119 879 95 Q 866 80 830 71 Q 749 50 679 77 Q 652 90 646 106 Q 625 151 651 299 Q 657 326 611 347 Q 598 351 591 346 Q 584 342 589 325 Q 601 288 598 253 Q 591 124 601 88 Q 605 66 625 48 Q 701 -13 875 21 Q 878 22 881 23 Q 920 33 957 60 Q 973 73 962 96 Z" fill="lightgray"></path>
				<path d="M 818 220 Q 776 216 732 206 Q 728 205 726 205 Q 725 206 727 213 Q 779 298 790 314 Q 797 323 792 331 Q 786 340 749 352 Q 736 356 729 353 Q 720 347 726 332 Q 754 280 665 193 Q 662 192 661 189 Q 651 179 655 171 Q 659 158 681 145 Q 690 138 698 148 Q 713 163 812 198 Q 819 201 826 204 C 854 216 848 223 818 220 Z" fill="lightgray"></path>
				<path d="M 826 204 Q 841 168 853 161 Q 860 160 866 165 Q 873 172 875 192 Q 876 219 821 264 Q 814 270 808 270 Q 804 269 802 261 Q 799 252 818 220 L 826 204 Z" fill="lightgray"></path>
</g>
		<text x="40" y="140" font-size="128" fill="#999999">3</text></g>
		<g id="id0:id3:id3" transform="matrix(1.0,0,0,1.0,3072,0.0)">			<g stroke="lightgray" stroke-width="4" transform="scale(4, 4)"> <rect x="0" y="0" width="256" height="256" fill="white" stroke-width="4"/></g>
			<g transform="scale(0.92, -0.92) translate(60, -920)">					<path d="M 129 491 Q 116 424 90 362 Q 77 328 99 298 Q 109 283 127 298 Q 172 349 163 441 Q 163 472 152 495 Q 145 502 140 502 Q 133 499 129 491 Z" fill="black"></path>
				<path d="M 285 520 Q 286 519 289 517 Q 314 496 342 471 Q 352 461 365 462 Q 374 462 377 473 Q 381 483 374 507 Q 365 534 285 554 C 256 561 261 538 285 520 Z" fill="black"></path>
				<path d="M 285 554 Q 285 644 305 718 Q 320 743 290 763 Q 275 775 250 789 Q 228 805 207 791 Q 203 787 209 771 Q 239 726 240 650 Q 240 230 220 142 Q 216 124 211 105 Q 199 69 224 6 Q 231 -12 239 -15 Q 245 -21 252 -13 Q 279 3 279 66 Q 278 112 285 520 L 285 554 Z" fill="black"></path>
				<path d="M 505 624 Q 536 657 554 679 Q 614 749 626 758 Q 644 773 630 787 Q 614 800 585 808 Q 560 815 548 810 Q 535 806 543 793 Q 553 769 481 627 Q 478 623 476 616 C 465 588 485 602 505 624 Z" fill="red"></path>
				<path d="M 426 605 Q 402 621 376 626 Q 369 627 366 623 Q 359 617 368 608 Q 404 554 419 420 Q 422 362 459 342 Q 475 339 474 366 Q 474 367 473 369 L 471 392 Q 468 408 463 427 Q 442 560 441 571 C 438 598 438 598 426 605 Z" fill="lightgray"></path>
				<path d="M 685 398 L 686 396 Q 690 380 704 381 Q 717 382 726 397 Q 742 416 768 515 Q 784 567 822 596 Q 841 612 825 628 Q 807 644 757 672 Q 741 681 679 664 Q 628 658 509 625 Q 506 625 505 624 L 476 616 Q 448 610 426 605 C 397 598 413 562 441 571 Q 504 592 532 598 L 563 606 Q 701 642 726 631 Q 736 624 729 588 Q 696 438 686 427 C 678 408 678 408 685 398 Z" fill="lightgray"></path>
				<path d="M 592 494 Q 629 503 664 508 Q 686 512 677 525 Q 667 538 643 541 Q 624 542 597 534 L 547 518 Q 513 508 482 497 Q 466 493 486 479 Q 492 476 546 484 L 592 494 Z" fill="lightgray"></path>
				<path d="M 575 382 Q 633 392 685 398 C 715 402 715 421 686 427 Q 664 434 581 416 L 535 406 Q 501 399 471 392 C 442 385 443 370 473 369 Q 482 368 496 370 Q 512 374 531 375 L 575 382 Z" fill="lightgray"></path>
				<path d="M 531 375 Q 506 273 483 226 Q 438 148 397 109 Q 388 103 381 95 Q 333 59 328 51 Q 327 45 336 45 Q 373 42 447 110 Q 537 191 575 382 L 581 416 Q 585 453 592 494 L 597 534 Q 597 535 598 536 Q 602 552 605 562 Q 612 578 594 589 Q 575 601 563 606 C 536 620 519 625 532 598 Q 533 595 537 590 Q 550 560 548 521 Q 548 520 547 518 L 546 484 Q 542 453 535 406 L 531 375 Z" fill="lightgray"></path>
				<path d="M 962 96 Q 950 120 932 191 Q 931 206 925 210 Q 919 213 916 197 Q 894 119 879 95 Q 866 80 830 71 Q 749 50 679 77 Q 652 90 646 106 Q 625 151 651 299 Q 657 326 611 347 Q 598 351 591 346 Q 584 342 589 325 Q 601 288 598 253 Q 591 124 601 88 Q 605 66 625 48 Q 701 -13 875 21 Q 878 22 881 23 Q 920 33 957 60 Q 973 73 962 96 Z" fill="lightgray"></path>
				<path d="M 818 220 Q 776 216 732 206 Q 728 205 726 205 Q 725 206 727 213 Q 779 298 790 314 Q 797 323 792 331 Q 786 340 749 352 Q 736 356 729 353 Q 720 347 726 332 Q 754 280 665 193 Q 662 192 661 189 Q 651 179 655 171 Q 659 158 681 145 Q 690 138 698 148 Q 713 163 812 198 Q 819 201 826 204 C 854 216 848 223 818 220 Z" fill="lightgray"></path>
				<path d="M 826 204 Q 841 168 853 161 Q 860 160 866 165 Q 873 172 875 192 Q 876 219 821 264 Q 814 270 808 270 Q 804 269 802 261 Q 799 252 818 220 L 826 204 Z" fill="lightgray"></path>
</g>
		<text x="40" y="140" font-size="128" fill="#999999">4</text></g>
		<g id="id0:id4:id4" transform="matrix(1.0,0,0,1.0,4096,0.0)">			<g stroke="lightgray" stroke-width="4" transform="scale(4, 4)"> <rect x="0" y="0" width="256" height="256" fill="white" stroke-width="4"/></g>
			<g transform="scale(0.92, -0.92) translate(60, -920)">					<path d="M 129 491 Q 116 424 90 362 Q 77 328 99 298 Q 109 283 127 298 Q 172 349 163 441 Q 163 472 152 495 Q 145 502 140 502 Q 133 499 129 491 Z" fill="black"></path>
				<path d="M 285 520 Q 286 519 289 517 Q 314 496 342 471 Q 352 461 365 462 Q 374 462 377 473 Q 381 483 374 507 Q 365 534 285 554 C 256 561 261 538 285 520 Z" fill="black"></path>
				<path d="M 285 554 Q 285 644 305 718 Q 320 743 290 763 Q 275 775 250 789 Q 228 805 207 791 Q 203 787 209 771 Q 239 726 240 650 Q 240 230 220 142 Q 216 124 211 105 Q 199 69 224 6 Q 231 -12 239 -15 Q 245 -21 252 -13 Q 279 3 279 66 Q 278 112 285 520 L 285 554 Z" fill="black"></path>
				<path d="M 505 624 Q 536 657 554 679 Q 614 749 626 758 Q 644 773 630 787 Q 614 800 585 808 Q 560 815 548 810 Q 535 806 543 793 Q 553 769 481 627 Q 478 623 476 616 C 465 588 485 602 505 624 Z" fill="black"></path>
				<path d="M 426 605 Q 402 621 376 626 Q 369 627 366 623 Q 359 617 368 608 Q 404 554 419 420 Q 422 362 459 342 Q 475 339 474 366 Q 474 367 473 369 L 471 392 Q 468 408 463 427 Q 442 560 441 571 C 438 598 438 598 426 605 Z" fill="red"></path>
				<path d="M 685 398 L 686 396 Q 690 380 704 381 Q 717 382 726 397 Q 742 416 768 515 Q 784 567 822 596 Q 841 612 825 628 Q 807 644 757 672 Q 741 681 679 664 Q 628 658 509 625 Q 506 625 505 624 L 476 616 Q 448 610 426 605 C 397 598 413 562 441 571 Q 504 592 532 598 L 563 606 Q 701 642 726 631 Q 736 624 729 588 Q 696 438 686 427 C 678 408 678 408 685 398 Z" fill="lightgray"></path>
				<path d="M 592 494 Q 629 503 664 508 Q 686 512 677 525 Q 667 538 643 541 Q 624 542 597 534 L 547 518 Q 513 508 482 497 Q 466 493 486 479 Q 492 476 546 484 L 592 494 Z" fill="lightgray"></path>
				<path d="M 575 382 Q 633 392 685 398 C 715 402 715 421 686 427 Q 664 434 581 416 L 535 406 Q 501 399 471 392 C 442 385 443 370 473 369 Q 482 368 496 370 Q 512 374 531 375 L 575 382 Z" fill="lightgray"></path>
				<path d="M 531 375 Q 506 273 483 226 Q 438 148 397 109 Q 388 103 381 95 Q 333 59 328 51 Q 327 45 336 45 Q 373 42 447 110 Q 537 191 575 382 L 581 416 Q 585 453 592 494 L 597 534 Q 597 535 598 536 Q 602 552 605 562 Q 612 578 594 589 Q 575 601 563 606 C 536 620 519 625 532 598 Q 533 595 537 590 Q 550 560 548 521 Q 548 520 547 518 L 546 484 Q 542 453 535 406 L 531 375 Z" fill="lightgray"></path>
				<path d="M 962 96 Q 950 120 932 191 Q 931 206 925 210 Q 919 213 916 197 Q 894 119 879 95 Q 866 80 830 71 Q 749 50 679 77 Q 652 90 646 106 Q 625 151 651 299 Q 657 326 611 347 Q 598 351 591 346 Q 584 342 589 325 Q 601 288 598 253 Q 591 124 601 88 Q 605 66 625 48 Q 701 -13 875 21 Q 878 22 881 23 Q 920 33 957 60 Q 973 73 962 96 Z" fill="lightgray"></path>
				<path d="M 818 220 Q 776 216 732 206 Q 728 205 726 205 Q 725 206 727 213 Q 779 298 790 314 Q 797 323 792 331 Q 786 340 749 352 Q 736 356 729 353 Q 720 347 726 332 Q 754 280 665 193 Q 662 192 661 189 Q 651 179 655 171 Q 659 158 681 145 Q 690 138 698 148 Q 713 163 812 198 Q 819 201 826 204 C 854 216 848 223 818 220 Z" fill="lightgray"></path>
				<path d="M 826 204 Q 841 168 853 161 Q 860 160 866 165 Q 873 172 875 192 Q 876 219 821 264 Q 814 270 808 270 Q 804 269 802 261 Q 799 252 818 220 L 826 204 Z" fill="lightgray"></path>
</g>
		<text x="40" y="140" font-size="128" fill="#999999">5</text></g>
</g>
	<g id="id1:id1" transform="translate(0.0,1024)">
		<g id="id1:id0:id0" transform="matrix(1.0,0,0,1.0,0,0.0)">			<g stroke="lightgray" stroke-width="4" transform="scale(4, 4)"> <rect x="0" y="0" width="256" height="256" fill="white" stroke-width="4"/></g>
			<g transform="scale(0.92, -0.92) translate(60, -920)">					<path d="M 129 491 Q 116 424 90 362 Q 77 328 99 298 Q 109 283 127 298 Q 172 349 163 441 Q 163 472 152 495 Q 145 502 140 502 Q 133 499 129 491 Z" fill="black"></path>
				<path d="M 285 520 Q 286 519 289 517 Q 314 496 342 471 Q 352 461 365 462 Q 374 462 377 473 Q 381 483 374 507 Q 365 534 285 554 C 256 561 261 538 285 520 Z" fill="black"></path>
				<path d="M 285 554 Q 285 644 305 718 Q 320 743 290 763 Q 275 775 250 789 Q 228 805 207 791 Q 203 787 209 771 Q 239 726 240 650 Q 240 230 220 142 Q 216 124 211 105 Q 199 69 224 6 Q 231 -12 239 -15 Q 245 -21 252 -13 Q 279 3 279 66 Q 278 112 285 520 L 285 554 Z" fill="black"></path>
				<path d="M 505 624 Q 536 657 554 679 Q 614 749 626 758 Q 644 773 630 787 Q 614 800 585 808 Q 560 815 548 810 Q 535 806 543 793 Q 553 769 481 627 Q 478 623 476 616 C 465 588 485 602 505 624 Z" fill="black"></path>
				<path d="M 426 605 Q 402 621 376 626 Q 369 627 366 623 Q 359 617 368 608 Q 404 554 419 420 Q 422 362 459 342 Q 475 339 474 366 Q 474 367 473 369 L 471 392 Q 468 408 463 427 Q 442 560 441 571 C 438 598 438 598 426 605 Z" fill="black"></path>
				<path d="M 685 398 L 686 396 Q 690 380 704 381 Q 717 382 726 397 Q 742 416 768 515 Q 784 567 822 596 Q 841 612 825 628 Q 807 644 757 672 Q 741 681 679 664 Q 628 658 509 625 Q 506 625 505 624 L 476 616 Q 448 610 426 605 C 397 598 413 562 441 571 Q 504 592 532 598 L 563 606 Q 701 642 726 631 Q 736 624 729 588 Q 696 438 686 427 C 678 408 678 408 685 398 Z" fill="red"></path>
				<path d="M 592 494 Q 629 503 664 508 Q 686 512 677 525 Q 667 538 643 541 Q 624 542 597 534 L 547 518 Q 513 508 482 497 Q 466 493 486 479 Q 492 476 546 484 L 592 494 Z" fill="lightgray"></path>
				<path d="M 575 382 Q 633 392 685 398 C 715 402 715 421 686 427 Q 664 434 581 416 L 535 406 Q 501 399 471 392 C 442 385 443 370 473 369 Q 482 368 496 370 Q 512 374 531 375 L 575 382 Z" fill="lightgray"></path>
				<path d="M 531 375 Q 506 273 483 226 Q 438 148 397 109 Q 388 103 381 95 Q 333 59 328 51 Q 327 45 336 45 Q 373 42 447 110 Q 537 191 575 382 L 581 416 Q 585 453 592 494 L 597 534 Q 597 535 598 536 Q 602 552 605 562 Q 612 578 594 589 Q 575 601 563 606 C 536 620 519 625 532 598 Q 533 595 537 590 Q 550 560 548 521 Q 548 520 547 518 L 546 484 Q 542 453 535 406 L 531 375 Z" fill="lightgray"></path>
				<path d="M 962 96 Q 950 120 932 191 Q 931 206 925 210 Q 919 213 916 197 Q 894 119 879 95 Q 866 80 830 71 Q 749 50 679 77 Q 652 90 646 106 Q 625 151 651 299 Q 657 326 611 347 Q 598 351 591 346 Q 584 342 589 325 Q 601 288 598 253 Q 591 124 601 88 Q 605 66 625 48 Q 701 -13 875 21 Q 878 22 881 23 Q 920 33 957 60 Q 973 73 962 96 Z" fill="lightgray"></path>
				<path d="M 818 220 Q 776 216 732 206 Q 728 205 726 205 Q 725 206 727 213 Q 779 298 790 314 Q 797 323 792 331 Q 786 340 749 352 Q 736 356 729 353 Q 720 347 726 332 Q 754 280 665 193 Q 662 192 661 189 Q 651 179 655 171 Q 659 158 681 145 Q 690 138 698 148 Q 713 163 812 198 Q 819 201 826 204 C 854 216 848 223 818 220 Z" fill="lightgray"></path>
				<path d="M 826 204 Q 841 168 853 161 Q 860 160 866 165 Q 873 172 875 192 Q 876 219 821 264 Q 814 270 808 270 Q 804 269 802 261 Q 799 252 818 220 L 826 204 Z" fill="lightgray"></path>
</g>
		<text x="40" y="140" font-size="128" fill="#999999">6</text></g>
		<g id="id1:id1:id1" transform="matrix(1.0,0,0,1.0,1024,0.0)">			<g stroke="lightgray" stroke-width="4" transform="scale(4, 4)"> <rect x="0" y="0" width="256" height="256" fill="white" stroke-width="4"/></g>
			<g transform="scale(0.92, -0.92) translate(60, -920)">					<path d="M 129 491 Q 116 424 90 362 Q 77 328 99 298 Q 109 283 127 298 Q 172 349 163 441 Q 163 472 152 495 Q 145 502 140 502 Q 133 499 129 491 Z" fill="black"></path>
				<path d="M 285 520 Q 286 519 289 517 Q 314 496 342 471 Q 352 461 365 462 Q 374 462 377 473 Q 381 483 374 507 Q 365 534 285 554 C 256 561 261 538 285 520 Z" fill="black"></path>
				<path d="M 285 554 Q 285 644 305 718 Q 320 743 290 763 Q 275 775 250 789 Q 228 805 207 791 Q 203 787 209 771 Q 239 726 240 650 Q 240 230 220 142 Q 216 124 211 105 Q 199 69 224 6 Q 231 -12 239 -15 Q 245 -21 252 -13 Q 279 3 279 66 Q 278 112 285 520 L 285 554 Z" fill="black"></path>
				<path d="M 505 624 Q 536 657 554 679 Q 614 749 626 758 Q 644 773 630 787 Q 614 800 585 808 Q 560 815 548 810 Q 535 806 543 793 Q 553 769 481 627 Q 478 623 476 616 C 465 588 485 602 505 624 Z" fill="black"></path>
				<path d="M 426 605 Q 402 621 376 626 Q 369 627 366 623 Q 359 617 368 608 Q 404 554 419 420 Q 422 362 459 342 Q 475 339 474 366 Q 474 367 473 369 L 471 392 Q 468 408 463 427 Q 442 560 441 571 C 438 598 438 598 426 605 Z" fill="black"></path>
				<path d="M 685 398 L 686 396 Q 690 380 704 381 Q 717 382 726 397 Q 742 416 768 515 Q 784 567 822 596 Q 841 612 825 628 Q 807 644 757 672 Q 741 681 679 664 Q 628 658 509 625 Q 506 625 505 624 L 476 616 Q 448 610 426 605 C 397 598 413 562 441 571 Q 504 592 532 598 L 563 606 Q 701 642 726 631 Q 736 624 729 588 Q 696 438 686 427 C 678 408 678 408 685 398 Z" fill="black"></path>
				<path d="M 592 494 Q 629 503 664 508 Q 686 512 677 525 Q 667 538 643 541 Q 624 542 597 534 L 547 518 Q 513 508 482 497 Q 466 493 486 479 Q 492 476 546 484 L 592 494 Z" fill="red"></path>
				<path d="M 575 382 Q 633 392 685 398 C 715 402 715 421 686 427 Q 664 434 581 416 L 535 406 Q 501 399 471 392 C 442 385 443 370 473 369 Q 482 368 496 370 Q 512 374 531 375 L 575 382 Z" fill="lightgray"></path>
				<path d="M 531 375 Q 506 273 483 226 Q 438 148 397 109 Q 388 103 381 95 Q 333 59 328 51 Q 327 45 336 45 Q 373 42 447 110 Q 537 191 575 382 L 581 416 Q 585 453 592 494 L 597 534 Q 597 535 598 536 Q 602 552 605 562 Q 612 578 594 589 Q 575 601 563 606 C 536 620 519 625 532 598 Q 533 595 537 590 Q 550 560 548 521 Q 548 520 547 518 L 546 484 Q 542 453 535 406 L 531 375 Z" fill="lightgray"></path>
				<path d="M 962 96 Q 950 120 932 191 Q 931 206 925 210 Q 919 213 916 197 Q 894 119 879 95 Q 866 80 830 71 Q 749 50 679 77 Q 652 90 646 106 Q 625 151 651 299 Q 657 326 611 347 Q 598 351 591 346 Q 584 342 589 325 Q 601 288 598 253 Q 591 124 601 88 Q 605 66 625 48 Q 701 -13 875 21 Q 878 22 881 23 Q 920 33 957 60 Q 973 73 962 96 Z" fill="lightgray"></path>
				<path d="M 818 220 Q 776 216 732 206 Q 728 205 726 205 Q 725 206 727 213 Q 779 298 790 314 Q 797 323 792 331 Q 786 340 749 352 Q 736 356 729 353 Q 720 347 726 332 Q 754 280 665 193 Q 662 192 661 189 Q 651 179 655 171 Q 659 158 681 145 Q 690 138 698 148 Q 713 163 812 198 Q 819 201 826 204 C 854 216 848 223 818 220 Z" fill="lightgray"></path>
				<path d="M 826 204 Q 841 168 853 161 Q 860 160 866 165 Q 873 172 875 192 Q 876 219 821 264 Q 814 270 808 270 Q 804 269 802 261 Q 799 252 818 220 L 826 204 Z" fill="lightgray"></path>
</g>
		<text x="40" y="140" font-size="128" fill="#999999">7</text></g>
		<g id="id1:id2:id2" transform="matrix(1.0,0,0,1.0,2048,0.0)">			<g stroke="lightgray" stroke-width="4" transform="scale(4, 4)"> <rect x="0" y="0" width="256" height="256" fill="white" stroke-width="4"/></g>
			<g transform="scale(0.92, -0.92) translate(60, -920)">					<path d="M 129 491 Q 116 424 90 362 Q 77 328 99 298 Q 109 283 127 298 Q 172 349 163 441 Q 163 472 152 495 Q 145 502 140 502 Q 133 499 129 491 Z" fill="black"></path>
				<path d="M 285 520 Q 286 519 289 517 Q 314 496 342 471 Q 352 461 365 462 Q 374 462 377 473 Q 381 483 374 507 Q 365 534 285 554 C 256 561 261 538 285 520 Z" fill="black"></path>
				<path d="M 285 554 Q 285 644 305 718 Q 320 743 290 763 Q 275 775 250 789 Q 228 805 207 791 Q 203 787 209 771 Q 239 726 240 650 Q 240 230 220 142 Q 216 124 211 105 Q 199 69 224 6 Q 231 -12 239 -15 Q 245 -21 252 -13 Q 279 3 279 66 Q 278 112 285 520 L 285 554 Z" fill="black"></path>
				<path d="M 505 624 Q 536 657 554 679 Q 614 749 626 758 Q 644 773 630 787 Q 614 800 585 808 Q 560 815 548 810 Q 535 806 543 793 Q 553 769 481 627 Q 478 623 476 616 C 465 588 485 602 505 624 Z" fill="black"></path>
				<path d="M 426 605 Q 402 621 376 626 Q 369 627 366 623 Q 359 617 368 608 Q 404 554 419 420 Q 422 362 459 342 Q 475 339 474 366 Q 474 367 473 369 L 471 392 Q 468 408 463 427 Q 442 560 441 571 C 438 598 438 598 426 605 Z" fill="black"></path>
				<path d="M 685 398 L 686 396 Q 690 380 704 381 Q 717 382 726 397 Q 742 416 768 515 Q 784 567 822 596 Q 841 612 825 628 Q 807 644 757 672 Q 741 681 679 664 Q 628 658 509 625 Q 506 625 505 624 L 476 616 Q 448 610 426 605 C 397 598 413 562 441 571 Q 504 592 532 598 L 563 606 Q 701 642 726 631 Q 736 624 729 588 Q 696 438 686 427 C 678 408 678 408 685 398 Z" fill="black"></path>
				<path d="M 592 494 Q 629 503 664 508 Q 686 512 677 525 Q 667 538 643 541 Q 624 542 597 534 L 547 518 Q 513 508 482 497 Q 466 493 486 479 Q 492 476 546 484 L 592 494 Z" fill="black"></path>
				<path d="M 575 382 Q 633 392 685 398 C 715 402 715 421 686 427 Q 664 434 581 416 L 535 406 Q 501 399 471 392 C 442 385 443 370 473 369 Q 482 368 496 370 Q 512 374 531 375 L 575 382 Z" fill="red"></path>
				<path d="M 531 375 Q 506 273 483 226 Q 438 148 397 109 Q 388 103 381 95 Q 333 59 328 51 Q 327 45 336 45 Q 373 42 447 110 Q 537 191 575 382 L 581 416 Q 585 453 592 494 L 597 534 Q 597 535 598 536 Q 602 552 605 562 Q 612 578 594 589 Q 575 601 563 606 C 536 620 519 625 532 598 Q 533 595 537 590 Q 550 560 548 521 Q 548 520 547 518 L 546 484 Q 542 453 535 406 L 531 375 Z" fill="lightgray"></path>
				<path d="M 962 96 Q 950 120 932 191 Q 931 206 925 210 Q 919 213 916 197 Q 894 119 879 95 Q 866 80 830 71 Q 749 50 679 77 Q 652 90 646 106 Q 625 151 651 299 Q 657 326 611 347 Q 598 351 591 346 Q 584 342 589 325 Q 601 288 598 253 Q 591 124 601 88 Q 605 66 625 48 Q 701 -13 875 21 Q 878 22 881 23 Q 920 33 957 60 Q 973 73 962 96 Z" fill="lightgray"></path>
				<path d="M 818 220 Q 776 216 732 206 Q 728 205 726 205 Q 725 206 727 213 Q 779 298 790 314 Q 797 323 792 331 Q 786 340 749 352 Q 736 356 729 353 Q 720 347 726 332 Q 754 280 665 193 Q 662 192 661 189 Q 651 179 655 171 Q 659 158 681 145 Q 690 138 698 148 Q 713 163 812 198 Q 819 201 826 204 C 854 216 848 223 818 220 Z" fill="lightgray"></path>
				<path d="M 826 204 Q 841 168 853 161 Q 860 160 866 165 Q 873 172 875 192 Q 876 219 821 264 Q 814 270 808 270 Q 804 269 802 261 Q 799 252 818 220 L 826 204 Z" fill="lightgray"></path>
</g>
		<text x="40" y="140" font-size="128" fill="#999999">8</text></g>
		<g id="id1:id3:id3" transform="matrix(1.0,0,0,1.0,3072,0.0)">			<g stroke="lightgray" stroke-width="4" transform="scale(4, 4)"> <rect x="0" y="0" width="256" height="256" fill="white" stroke-width="4"/></g>
			<g transform="scale(0.92, -0.92) translate(60, -920)">					<path d="M 129 491 Q 116 424 90 362 Q 77 328 99 298 Q 109 283 127 298 Q 172 349 163 441 Q 163 472 152 495 Q 145 502 140 502 Q 133 499 129 491 Z" fill="black"></path>
				<path d="M 285 520 Q 286 519 289 517 Q 314 496 342 471 Q 352 461 365 462 Q 374 462 377 473 Q 381 483 374 507 Q 365 534 285 554 C 256 561 261 538 285 520 Z" fill="black"></path>
				<path d="M 285 554 Q 285 644 305 718 Q 320 743 290 763 Q 275 775 250 789 Q 228 805 207 791 Q 203 787 209 771 Q 239 726 240 650 Q 240 230 220 142 Q 216 124 211 105 Q 199 69 224 6 Q 231 -12 239 -15 Q 245 -21 252 -13 Q 279 3 279 66 Q 278 112 285 520 L 285 554 Z" fill="black"></path>
				<path d="M 505 624 Q 536 657 554 679 Q 614 749 626 758 Q 644 773 630 787 Q 614 800 585 808 Q 560 815 548 810 Q 535 806 543 793 Q 553 769 481 627 Q 478 623 476 616 C 465 588 485 602 505 624 Z" fill="black"></path>
				<path d="M 426 605 Q 402 621 376 626 Q 369 627 366 623 Q 359 617 368 608 Q 404 554 419 420 Q 422 362 459 342 Q 475 339 474 366 Q 474 367 473 369 L 471 392 Q 468 408 463 427 Q 442 560 441 571 C 438 598 438 598 426 605 Z" fill="black"></path>
				<path d="M 685 398 L 686 396 Q 690 380 704 381 Q 717 382 726 397 Q 742 416 768 515 Q 784 567 822 596 Q 841 612 825 628 Q 807 644 757 672 Q 741 681 679 664 Q 628 658 509 625 Q 506 625 505 624 L 476 616 Q 448 610 426 605 C 397 598 413 562 441 571 Q 504 592 532 598 L 563 606 Q 701 642 726 631 Q 736 624 729 588 Q 696 438 686 427 C 678 408 678 408 685 398 Z" fill="black"></path>
				<path d="M 592 494 Q 629 503 664 508 Q 686 512 677 525 Q 667 538 643 541 Q 624 542 597 534 L 547 518 Q 513 508 482 497 Q 466 493 486 479 Q 492 476 546 484 L 592 494 Z" fill="black"></path>
				<path d="M 575 382 Q 633 392 685 398 C 715 402 715 421 686 427 Q 664 434 581 416 L 535 406 Q 501 399 471 392 C 442 385 443 370 473 369 Q 482 368 496 370 Q 512 374 531 375 L 575 382 Z" fill="black"></path>
				<path d="M 531 375 Q 506 273 483 226 Q 438 148 397 109 Q 388 103 381 95 Q 333 59 328 51 Q 327 45 336 45 Q 373 42 447 110 Q 537 191 575 382 L 581 416 Q 585 453 592 494 L 597 534 Q 597 535 598 536 Q 602 552 605 562 Q 612 578 594 589 Q 575 601 563 606 C 536 620 519 625 532 598 Q 533 595 537 590 Q 550 560 548 521 Q 548 520 547 518 L 546 484 Q 542 453 535 406 L 531 375 Z" fill="red"></path>
				<path d="M 962 96 Q 950 120 932 191 Q 931 206 925 210 Q 919 213 916 197 Q 894 119 879 95 Q 866 80 830 71 Q 749 50 679 77 Q 652 90 646 106 Q 625 151 651 299 Q 657 326 611 347 Q 598 351 591 346 Q 584 342 589 325 Q 601 288 598 253 Q 591 124 601 88 Q 605 66 625 48 Q 701 -13 875 21 Q 878 22 881 23 Q 920 33 957 60 Q 973 73 962 96 Z" fill="lightgray"></path>
				<path d="M 818 220 Q 776 216 732 206 Q 728 205 726 205 Q 725 206 727 213 Q 779 298 790 314 Q 797 323 792 331 Q 786 340 749 352 Q 736 356 729 353 Q 720 347 726 332 Q 754 280 665 193 Q 662 192 661 189 Q 651 179 655 171 Q 659 158 681 145 Q 690 138 698 148 Q 713 163 812 198 Q 819 201 826 204 C 854 216 848 223 818 220 Z" fill="lightgray"></path>
				<path d="M 826 204 Q 841 168 853 161 Q 860 160 866 165 Q 873 172 875 192 Q 876 219 821 264 Q 814 270 808 270 Q 804 269 802 261 Q 799 252 818 220 L 826 204 Z" fill="lightgray"></path>
</g>
		<text x="40" y="140" font-size="128" fill="#999999">9</text></g>
		<g id="id1:id4:id4" transform="matrix(1.0,0,0,1.0,4096,0.0)">			<g stroke="lightgray" stroke-width="4" transform="scale(4, 4)"> <rect x="0" y="0" width="256" height="256" fill="white" stroke-width="4"/></g>
			<g transform="scale(0.92, -0.92) translate(60, -920)">					<path d="M 129 491 Q 116 424 90 362 Q 77 328 99 298 Q 109 283 127 298 Q 172 349 163 441 Q 163 472 152 495 Q 145 502 140 502 Q 133 499 129 491 Z" fill="black"></path>
				<path d="M 285 520 Q 286 519 289 517 Q 314 496 342 471 Q 352 461 365 462 Q 374 462 377 473 Q 381 483 374 507 Q 365 534 285 554 C 256 561 261 538 285 520 Z" fill="black"></path>
				<path d="M 285 554 Q 285 644 305 718 Q 320 743 290 763 Q 275 775 250 789 Q 228 805 207 791 Q 203 787 209 771 Q 239 726 240 650 Q 240 230 220 142 Q 216 124 211 105 Q 199 69 224 6 Q 231 -12 239 -15 Q 245 -21 252 -13 Q 279 3 279 66 Q 278 112 285 520 L 285 554 Z" fill="black"></path>
				<path d="M 505 624 Q 536 657 554 679 Q 614 749 626 758 Q 644 773 630 787 Q 614 800 585 808 Q 560 815 548 810 Q 535 806 543 793 Q 553 769 481 627 Q 478 623 476 616 C 465 588 485 602 505 624 Z" fill="black"></path>
				<path d="M 426 605 Q 402 621 376 626 Q 369 627 366 623 Q 359 617 368 608 Q 404 554 419 420 Q 422 362 459 342 Q 475 339 474 366 Q 474 367 473 369 L 471 392 Q 468 408 463 427 Q 442 560 441 571 C 438 598 438 598 426 605 Z" fill="black"></path>
				<path d="M 685 398 L 686 396 Q 690 380 704 381 Q 717 382 726 397 Q 742 416 768 515 Q 784 567 822 596 Q 841 612 825 628 Q 807 644 757 672 Q 741 681 679 664 Q 628 658 509 625 Q 506 625 505 624 L 476 616 Q 448 610 426 605 C 397 598 413 562 441 571 Q 504 592 532 598 L 563 606 Q 701 642 726 631 Q 736 624 729 588 Q 696 438 686 427 C 678 408 678 408 685 398 Z" fill="black"></path>
				<path d="M 592 494 Q 629 503 664 508 Q 686 512 677 525 Q 667 538 643 541 Q 624 542 597 534 L 547 518 Q 513 508 482 497 Q 466 493 486 479 Q 492 476 546 484 L 592 494 Z" fill="black"></path>
				<path d="M 575 382 Q 633 392 685 398 C 715 402 715 421 686 427 Q 664 434 581 416 L 535 406 Q 501 399 471 392 C 442 385 443 370 473 369 Q 482 368 496 370 Q 512 374 531 375 L 575 382 Z" fill="black"></path>
				<path d="M 531 375 Q 506 273 483 226 Q 438 148 397 109 Q 388 103 381 95 Q 333 59 328 51 Q 327 45 336 45 Q 373 42 447 110 Q 537 191 575 382 L 581 416 Q 585 453 592 494 L 597 534 Q 597 535 598 536 Q 602 552 605 562 Q 612 578 594 589 Q 575 601 563 606 C 536 620 519 625 532 598 Q 533 595 537 590 Q 550 560 548 521 Q 548 520 547 518 L 546 484 Q 542 453 535 406 L 531 375 Z" fill="black"></path>
				<path d="M 962 96 Q 950 120 932 191 Q 931 206 925 210 Q 919 213 916 197 Q 894 119 879 95 Q 866 80 830 71 Q 749 50 679 77 Q 652 90 646 106 Q 625 151 651 299 Q 657 326 611 347 Q 598 351 591 346 Q 584 342 589 325 Q 601 288 598 253 Q 591 124 601 88 Q 605 66 625 48 Q 701 -13 875 21 Q 878 22 881 23 Q 920 33 957 60 Q 973 73 962 96 Z" fill="red"></path>
				<path d="M 818 220 Q 776 216 732 206 Q 728 205 726 205 Q 725 206 727 213 Q 779 298 790 314 Q 797 323 792 331 Q 786 340 749 352 Q 736 356 729 353 Q 720 347 726 332 Q 754 280 665 193 Q 662 192 661 189 Q 651 179 655 171 Q 659 158 681 145 Q 690 138 698 148 Q 713 163 812 198 Q 819 201 826 204 C 854 216 848 223 818 220 Z" fill="lightgray"></path>
				<path d="M 826 204 Q 841 168 853 161 Q 860 160 866 165 Q 873 172 875 192 Q 876 219 821 264 Q 814 270 808 270 Q 804 269 802 261 Q 799 252 818 220 L 826 204 Z" fill="lightgray"></path>
</g>
		<text x="40" y="140" font-size="128" fill="#999999">10</text></g>
</g>
	<g id="id2:id2" transform="translate(0.0,2048)">
		<g id="id2:id0:id0" transform="matrix(1.0,0,0,1.0,0,0.0)">			<g stroke="lightgray" stroke-width="4" transform="scale(4, 4)"> <rect x="0" y="0" width="256" height="256" fill="white" stroke-width="4"/></g>
			<g transform="scale(0.92, -0.92) translate(60, -920)">					<path d="M 129 491 Q 116 424 90 362 Q 77 328 99 298 Q 109 283 127 298 Q 172 349 163 441 Q 163 472 152 495 Q 145 502 140 502 Q 133 499 129 491 Z" fill="black"></path>
				<path d="M 285 520 Q 286 519 289 517 Q 314 496 342 471 Q 352 461 365 462 Q 374 462 377 473 Q 381 483 374 507 Q 365 534 285 554 C 256 561 261 538 285 520 Z" fill="black"></path>
				<path d="M 285 554 Q 285 644 305 718 Q 320 743 290 763 Q 275 775 250 789 Q 228 805 207 791 Q 203 787 209 771 Q 239 726 240 650 Q 240 230 220 142 Q 216 124 211 105 Q 199 69 224 6 Q 231 -12 239 -15 Q 245 -21 252 -13 Q 279 3 279 66 Q 278 112 285 520 L 285 554 Z" fill="black"></path>
				<path d="M 505 624 Q 536 657 554 679 Q 614 749 626 758 Q 644 773 630 787 Q 614 800 585 808 Q 560 815 548 810 Q 535 806 543 793 Q 553 769 481 627 Q 478 623 476 616 C 465 588 485 602 505 624 Z" fill="black"></path>
				<path d="M 426 605 Q 402 621 376 626 Q 369 627 366 623 Q 359 617 368 608 Q 404 554 419 420 Q 422 362 459 342 Q 475 339 474 366 Q 474 367 473 369 L 471 392 Q 468 408 463 427 Q 442 560 441 571 C 438 598 438 598 426 605 Z" fill="black"></path>
				<path d="M 685 398 L 686 396 Q 690 380 704 381 Q 717 382 726 397 Q 742 416 768 515 Q 784 567 822 596 Q 841 612 825 628 Q 807 644 757 672 Q 741 681 679 664 Q 628 658 509 625 Q 506 625 505 624 L 476 616 Q 448 610 426 605 C 397 598 413 562 441 571 Q 504 592 532 598 L 563 606 Q 701 642 726 631 Q 736 624 729 588 Q 696 438 686 427 C 678 408 678 408 685 398 Z" fill="black"></path>
				<path d="M 592 494 Q 629 503 664 508 Q 686 512 677 525 Q 667 538 643 541 Q 624 542 597 534 L 547 518 Q 513 508 482 497 Q 466 493 486 479 Q 492 476 546 484 L 592 494 Z" fill="black"></path>
				<path d="M 575 382 Q 633 392 685 398 C 715 402 715 421 686 427 Q 664 434 581 416 L 535 406 Q 501 399 471 392 C 442 385 443 370 473 369 Q 482 368 496 370 Q 512 374 531 375 L 575 382 Z" fill="black"></path>
				<path d="M 531 375 Q 506 273 483 226 Q 438 148 397 109 Q 388 103 381 95 Q 333 59 328 51 Q 327 45 336 45 Q 373 42 447 110 Q 537 191 575 382 L 581 416 Q 585 453 592 494 L 597 534 Q 597 535 598 536 Q 602 552 605 562 Q 612 578 594 589 Q 575 601 563 606 C 536 620 519 625 532 598 Q 533 595 537 590 Q 550 560 548 521 Q 548 520 547 518 L 546 484 Q 542 453 535 406 L 531 375 Z" fill="black"></path>
				<path d="M 962 96 Q 950 120 932 191 Q 931 206 925 210 Q 919 213 916 197 Q 894 119 879 95 Q 866 80 830 71 Q 749 50 679 77 Q 652 90 646 106 Q 625 151 651 299 Q 657 326 611 347 Q 598 351 591 346 Q 584 342 589 325 Q 601 288 598 253 Q 591 124 601 88 Q 605 66 625 48 Q 701 -13 875 21 Q 878 22 881 23 Q 920 33 957 60 Q 973 73 962 96 Z" fill="black"></path>
				<path d="M 818 220 Q 776 216 732 206 Q 728 205 726 205 Q 725 206 727 213 Q 779 298 790 314 Q 797 323 792 331 Q 786 340 749 352 Q 736 356 729 353 Q 720 347 726 332 Q 754 280 665 193 Q 662 192 661 189 Q 651 179 655 171 Q 659 158 681 145 Q 690 138 698 148 Q 713 163 812 198 Q 819 201 826 204 C 854 216 848 223 818 220 Z" fill="red"></path>
				<path d="M 826 204 Q 841 168 853 161 Q 860 160 866 165 Q 873 172 875 192 Q 876 219 821 264 Q 814 270 808 270 Q 804 269 802 261 Q 799 252 818 220 L 826 204 Z" fill="lightgray"></path>
</g>
		<text x="40" y="140" font-size="128" fill="#999999">11</text></g>
		<g id="id2:id1:id1" transform="matrix(1.0,0,0,1.0,1024,0.0)">			<g stroke="lightgray" stroke-width="4" transform="scale(4, 4)"> <rect x="0" y="0" width="256" height="256" fill="white" stroke-width="4"/></g>
			<g transform="scale(0.92, -0.92) translate(60, -920)">					<path d="M 129 491 Q 116 424 90 362 Q 77 328 99 298 Q 109 283 127 298 Q 172 349 163 441 Q 163 472 152 495 Q 145 502 140 502 Q 133 499 129 491 Z" fill="black"></path>
				<path d="M 285 520 Q 286 519 289 517 Q 314 496 342 471 Q 352 461 365 462 Q 374 462 377 473 Q 381 483 374 507 Q 365 534 285 554 C 256 561 261 538 285 520 Z" fill="black"></path>
				<path d="M 285 554 Q 285 644 305 718 Q 320 743 290 763 Q 275 775 250 789 Q 228 805 207 791 Q 203 787 209 771 Q 239 726 240 650 Q 240 230 220 142 Q 216 124 211 105 Q 199 69 224 6 Q 231 -12 239 -15 Q 245 -21 252 -13 Q 279 3 279 66 Q 278 112 285 520 L 285 554 Z" fill="black"></path>
				<path d="M 505 624 Q 536 657 554 679 Q 614 749 626 758 Q 644 773 630 787 Q 614 800 585 808 Q 560 815 548 810 Q 535 806 543 793 Q 553 769 481 627 Q 478 623 476 616 C 465 588 485 602 505 624 Z" fill="black"></path>
				<path d="M 426 605 Q 402 621 376 626 Q 369 627 366 623 Q 359 617 368 608 Q 404 554 419 420 Q 422 362 459 342 Q 475 339 474 366 Q 474 367 473 369 L 471 392 Q 468 408 463 427 Q 442 560 441 571 C 438 598 438 598 426 605 Z" fill="black"></path>
				<path d="M 685 398 L 686 396 Q 690 380 704 381 Q 717 382 726 397 Q 742 416 768 515 Q 784 567 822 596 Q 841 612 825 628 Q 807 644 757 672 Q 741 681 679 664 Q 628 658 509 625 Q 506 625 505 624 L 476 616 Q 448 610 426 605 C 397 598 413 562 441 571 Q 504 592 532 598 L 563 606 Q 701 642 726 631 Q 736 624 729 588 Q 696 438 686 427 C 678 408 678 408 685 398 Z" fill="black"></path>
				<path d="M 592 494 Q 629 503 664 508 Q 686 512 677 525 Q 667 538 643 541 Q 624 542 597 534 L 547 518 Q 513 508 482 497 Q 466 493 486 479 Q 492 476 546 484 L 592 494 Z" fill="black"></path>
				<path d="M 575 382 Q 633 392 685 398 C 715 402 715 421 686 427 Q 664 434 581 416 L 535 406 Q 501 399 471 392 C 442 385 443 370 473 369 Q 482 368 496 370 Q 512 374 531 375 L 575 382 Z" fill="black"></path>
				<path d="M 531 375 Q 506 273 483 226 Q 438 148 397 109 Q 388 103 381 95 Q 333 59 328 51 Q 327 45 336 45 Q 373 42 447 110 Q 537 191 575 382 L 581 416 Q 585 453 592 494 L 597 534 Q 597 535 598 536 Q 602 552 605 562 Q 612 578 594 589 Q 575 601 563 606 C 536 620 519 625 532 598 Q 533 595 537 590 Q 550 560 548 521 Q 548 520 547 518 L 546 484 Q 542 453 535 406 L 531 375 Z" fill="black"></path>
				<path d="M 962 96 Q 950 120 932 191 Q 931 206 925 210 Q 919 213 916 197 Q 894 119 879 95 Q 866 80 830 71 Q 749 50 679 77 Q 652 90 646 106 Q 625 151 651 299 Q 657 326 611 347 Q 598 351 591 346 Q 584 342 589 325 Q 601 288 598 253 Q 591 124 601 88 Q 605 66 625 48 Q 701 -13 875 21 Q 878 22 881 23 Q 920 33 957 60 Q 973 73 962 96 Z" fill="black"></path>
				<path d="M 818 220 Q 776 216 732 206 Q 728 205 726 205 Q 725 206 727 213 Q 779 298 790 314 Q 797 323 792 331 Q 786 340 749 352 Q 736 356 729 353 Q 720 347 726 332 Q 754 280 665 193 Q 662 192 661 189 Q 651 179 655 171 Q 659 158 681 145 Q 690 138 698 148 Q 713 163 812 198 Q 819 201 826 204 C 854 216 848 223 818 220 Z" fill="black"></path>
				<path d="M 826 204 Q 841 168 853 161 Q 860 160 866 165 Q 873 172 875 192 Q 876 219 821 264 Q 814 270 808 270 Q 804 269 802 261 Q 799 252 818 220 L 826 204 Z" fill="red"></path>
</g>
		<text x="40" y="140" font-size="128" fill="#999999">12</text></g>
		<g id="id2:id2:id2" transform="matrix(1.0,0,0,1.0,2048,0.0)">			<g stroke="white" stroke-width="4" transform="scale(4, 4)"> <rect x="1" y="1" width="255" height="255" fill="white" stroke-width="0"/></g>
</g>
		<g id="id2:id3:id3" transform="matrix(1.0,0,0,1.0,3072,0.0)">			<g stroke="white" stroke-width="4" transform="scale(4, 4)"> <rect x="1" y="1" width="255" height="255" fill="white" stroke-width="0"/></g>
</g>
		<g id="id2:id4:id4" transform="matrix(1.0,0,0,1.0,4096,0.0)">			<g stroke="white" stroke-width="4" transform="scale(4, 4)"> <rect x="1" y="1" width="255" height="255" fill="white" stroke-width="0"/></g>
</g>
</g>
</svg>
