<?xml version="1.0" standalone="no"?>
<!DOCTYPE svg PUBLIC "-//W3C//DTD SVG 1.1//EN"
 "http://www.w3.org/Graphics/SVG/1.1/DTD/svg11.dtd">
<!-- generate by Handict dictionary app com.asnsami.handict -->

<svg xmlns="http://www.w3.org/2000/svg" xmlns:sodipodi="http://sodipodi.sourceforge.net/DTD/sodipodi-0.dtd" version="1.1" width="640" height="128" viewBox="0 0 5120 1024">
	<g id="id0:id0" transform="translate(0.0,0)">
		<g id="id0:id0:id0" transform="matrix(1.0,0,0,1.0,0,0.0)">			<g stroke="lightgray" stroke-width="4" transform="scale(4, 4)"> <rect x="0" y="0" width="256" height="256" fill="white" stroke-width="4"/></g>
			<g transform="scale(0.92, -0.92) translate(60, -920)">					<path d="M 379 505 Q 409 515 443 523 Q 486 536 493 543 Q 502 552 496 560 Q 489 572 458 577 Q 419 583 381 560 L 333 541 Q 212 508 163 499 Q 126 490 154 475 Q 193 454 274 477 Q 301 484 332 492 L 379 505 Z" fill="red"></path>
				<path d="M 329 314 Q 328 239 327 146 Q 326 124 314 115 Q 311 112 252 116 Q 221 126 223 117 Q 224 110 244 96 Q 299 53 313 27 Q 329 -3 343 -4 Q 356 -5 370 29 Q 386 72 385 142 Q 379 245 378 347 L 377 379 Q 377 443 379 505 L 381 560 Q 381 671 401 735 Q 417 763 364 785 Q 333 803 313 797 Q 297 790 311 769 Q 332 742 333 710 Q 334 692 333 541 L 332 492 Q 331 432 329 354 L 329 314 Z" fill="lightgray"></path>
				<path d="M 378 347 Q 393 359 410 368 Q 432 381 444 396 Q 451 409 440 409 Q 422 408 377 379 L 329 354 Q 226 305 136 254 Q 99 235 74 228 Q 61 224 58 214 Q 57 205 71 189 Q 90 173 114 162 Q 123 161 150 176 Q 211 234 329 314 L 378 347 Z" fill="lightgray"></path>
				<path d="M 599 92 Q 587 50 615 -10 Q 622 -28 630 -31 Q 637 -38 644 -30 Q 671 -6 670 53 Q 669 102 670 561 Q 670 655 687 720 Q 697 736 693 749 Q 686 759 630 793 Q 606 809 585 794 Q 581 788 587 773 Q 618 725 620 669 Q 636 233 599 92 Z" fill="lightgray"></path>
				<path d="M 719 468 Q 789 429 878 368 Q 897 352 914 350 Q 923 351 928 363 Q 938 379 915 420 Q 890 474 713 499 Q 703 503 704 490 Q 705 477 719 468 Z" fill="lightgray"></path>
</g>
		<text x="40" y="140" font-size="128" fill="#999999">1</text></g>
		<g id="id0:id1:id1" transform="matrix(1.0,0,0,1.0,1024,0.0)">			<g stroke="lightgray" stroke-width="4" transform="scale(4, 4)"> <rect x="0" y="0" width="256" height="256" fill="white" stroke-width="4"/></g>
			<g transform="scale(0.92, -0.92) translate(60, -920)">					<path d="M 379 505 Q 409 515 443 523 Q 486 536 493 543 Q 502 552 496 560 Q 489 572 458 577 Q 419 583 381 560 L 333 541 Q 212 508 163 499 Q 126 490 154 475 Q 193 454 274 477 Q 301 484 332 492 L 379 505 Z" fill="black"></path>
				<path d="M 329 314 Q 328 239 327 146 Q 326 124 314 115 Q 311 112 252 116 Q 221 126 223 117 Q 224 110 244 96 Q 299 53 313 27 Q 329 -3 343 -4 Q 356 -5 370 29 Q 386 72 385 142 Q 379 245 378 347 L 377 379 Q 377 443 379 505 L 381 560 Q 381 671 401 735 Q 417 763 364 785 Q 333 803 313 797 Q 297 790 311 769 Q 332 742 333 710 Q 334 692 333 541 L 332 492 Q 331 432 329 354 L 329 314 Z" fill="red"></path>
				<path d="M 378 347 Q 393 359 410 368 Q 432 381 444 396 Q 451 409 440 409 Q 422 408 377 379 L 329 354 Q 226 305 136 254 Q 99 235 74 228 Q 61 224 58 214 Q 57 205 71 189 Q 90 173 114 162 Q 123 161 150 176 Q 211 234 329 314 L 378 347 Z" fill="lightgray"></path>
				<path d="M 599 92 Q 587 50 615 -10 Q 622 -28 630 -31 Q 637 -38 644 -30 Q 671 -6 670 53 Q 669 102 670 561 Q 670 655 687 720 Q 697 736 693 749 Q 686 759 630 793 Q 606 809 585 794 Q 581 788 587 773 Q 618 725 620 669 Q 636 233 599 92 Z" fill="lightgray"></path>
				<path d="M 719 468 Q 789 429 878 368 Q 897 352 914 350 Q 923 351 928 363 Q 938 379 915 420 Q 890 474 713 499 Q 703 503 704 490 Q 705 477 719 468 Z" fill="lightgray"></path>
</g>
		<text x="40" y="140" font-size="128" fill="#999999">2</text></g>
		<g id="id0:id2:id2" transform="matrix(1.0,0,0,1.0,2048,0.0)">			<g stroke="lightgray" stroke-width="4" transform="scale(4, 4)"> <rect x="0" y="0" width="256" height="256" fill="white" stroke-width="4"/></g>
			<g transform="scale(0.92, -0.92) translate(60, -920)">					<path d="M 379 505 Q 409 515 443 523 Q 486 536 493 543 Q 502 552 496 560 Q 489 572 458 577 Q 419 583 381 560 L 333 541 Q 212 508 163 499 Q 126 490 154 475 Q 193 454 274 477 Q 301 484 332 492 L 379 505 Z" fill="black"></path>
				<path d="M 329 314 Q 328 239 327 146 Q 326 124 314 115 Q 311 112 252 116 Q 221 126 223 117 Q 224 110 244 96 Q 299 53 313 27 Q 329 -3 343 -4 Q 356 -5 370 29 Q 386 72 385 142 Q 379 245 378 347 L 377 379 Q 377 443 379 505 L 381 560 Q 381 671 401 735 Q 417 763 364 785 Q 333 803 313 797 Q 297 790 311 769 Q 332 742 333 710 Q 334 692 333 541 L 332 492 Q 331 432 329 354 L 329 314 Z" fill="black"></path>
				<path d="M 378 347 Q 393 359 410 368 Q 432 381 444 396 Q 451 409 440 409 Q 422 408 377 379 L 329 354 Q 226 305 136 254 Q 99 235 74 228 Q 61 224 58 214 Q 57 205 71 189 Q 90 173 114 162 Q 123 161 150 176 Q 211 234 329 314 L 378 347 Z" fill="red"></path>
				<path d="M 599 92 Q 587 50 615 -10 Q 622 -28 630 -31 Q 637 -38 644 -30 Q 671 -6 670 53 Q 669 102 670 561 Q 670 655 687 720 Q 697 736 693 749 Q 686 759 630 793 Q 606 809 585 794 Q 581 788 587 773 Q 618 725 620 669 Q 636 233 599 92 Z" fill="lightgray"></path>
				<path d="M 719 468 Q 789 429 878 368 Q 897 352 914 350 Q 923 351 928 363 Q 938 379 915 420 Q 890 474 713 499 Q 703 503 704 490 Q 705 477 719 468 Z" fill="lightgray"></path>
</g>
		<text x="40" y="140" font-size="128" fill="#999999">3</text></g>
		<g id="id0:id3:id3" transform="matrix(1.0,0,0,1.0,3072,0.0)">			<g stroke="lightgray" stroke-width="4" transform="scale(4, 4)"> <rect x="0" y="0" width="256" height="256" fill="white" stroke-width="4"/></g>
			<g transform="scale(0.92, -0.92) translate(60, -920)">					<path d="M 379 505 Q 409 515 443 523 Q 486 536 493 543 Q 502 552 496 560 Q 489 572 458 577 Q 419 583 381 560 L 333 541 Q 212 508 163 499 Q 126 490 154 475 Q 193 454 274 477 Q 301 484 332 492 L 379 505 Z" fill="black"></path>
				<path d="M 329 314 Q 328 239 327 146 Q 326 124 314 115 Q 311 112 252 116 Q 221 126 223 117 Q 224 110 244 96 Q 299 53 313 27 Q 329 -3 343 -4 Q 356 -5 370 29 Q 386 72 385 142 Q 379 245 378 347 L 377 379 Q 377 443 379 505 L 381 560 Q 381 671 401 735 Q 417 763 364 785 Q 333 803 313 797 Q 297 790 311 769 Q 332 742 333 710 Q 334 692 333 541 L 332 492 Q 331 432 329 354 L 329 314 Z" fill="black"></path>
				<path d="M 378 347 Q 393 359 410 368 Q 432 381 444 396 Q 451 409 440 409 Q 422 408 377 379 L 329 354 Q 226 305 136 254 Q 99 235 74 228 Q 61 224 58 214 Q 57 205 71 189 Q 90 173 114 162 Q 123 161 150 176 Q 211 234 329 314 L 378 347 Z" fill="black"></path>
				<path d="M 599 92 Q 587 50 615 -10 Q 622 -28 630 -31 Q 637 -38 644 -30 Q 671 -6 670 53 Q 669 102 670 561 Q 670 655 687 720 Q 697 736 693 749 Q 686 759 630 793 Q 606 809 585 794 Q 581 788 587 773 Q 618 725 620 669 Q 636 233 599 92 Z" fill="red"></path>
				<path d="M 719 468 Q 789 429 878 368 Q 897 352 914 350 Q 923 351 928 363 Q 938 379 915 420 Q 890 474 713 499 Q 703 503 704 490 Q 705 477 719 468 Z" fill="lightgray"></path>
</g>
		<text x="40" y="140" font-size="128" fill="#999999">4</text></g>
		<g id="id0:id4:id4" transform="matrix(1.0,0,0,1.0,4096,0.0)">			<g stroke="lightgray" stroke-width="4" transform="scale(4, 4)"> <rect x="0" y="0" width="256" height="256" fill="white" stroke-width="4"/></g>
			<g transform="scale(0.92, -0.92) translate(60, -920)">					<path d="M 379 505 Q 409 515 443 523 Q 486 536 493 543 Q 502 552 496 560 Q 489 572 458 577 Q 419 583 381 560 L 333 541 Q 212 508 163 499 Q 126 490 154 475 Q 193 454 274 477 Q 301 484 332 492 L 379 505 Z" fill="black"></path>
				<path d="M 329 314 Q 328 239 327 146 Q 326 124 314 115 Q 311 112 252 116 Q 221 126 223 117 Q 224 110 244 96 Q 299 53 313 27 Q 329 -3 343 -4 Q 356 -5 370 29 Q 386 72 385 142 Q 379 245 378 347 L 377 379 Q 377 443 379 505 L 381 560 Q 381 671 401 735 Q 417 763 364 785 Q 333 803 313 797 Q 297 790 311 769 Q 332 742 333 710 Q 334 692 333 541 L 332 492 Q 331 432 329 354 L 329 314 Z" fill="black"></path>
				<path d="M 378 347 Q 393 359 410 368 Q 432 381 444 396 Q 451 409 440 409 Q 422 408 377 379 L 329 354 Q 226 305 136 254 Q 99 235 74 228 Q 61 224 58 214 Q 57 205 71 189 Q 90 173 114 162 Q 123 161 150 176 Q 211 234 329 314 L 378 347 Z" fill="black"></path>
				<path d="M 599 92 Q 587 50 615 -10 Q 622 -28 630 -31 Q 637 -38 644 -30 Q 671 -6 670 53 Q 669 102 670 561 Q 670 655 687 720 Q 697 736 693 749 Q 686 759 630 793 Q 606 809 585 794 Q 581 788 587 773 Q 618 725 620 669 Q 636 233 599 92 Z" fill="black"></path>
				<path d="M 719 468 Q 789 429 878 368 Q 897 352 914 350 Q 923 351 928 363 Q 938 379 915 420 Q 890 474 713 499 Q 703 503 704 490 Q 705 477 719 468 Z" fill="red"></path>
</g>
		<text x="40" y="140" font-size="128" fill="#999999">5</text></g>
</g>
</svg>
