<?xml version="1.0" standalone="no"?>
<!DOCTYPE svg PUBLIC "-//W3C//DTD SVG 1.1//EN"
 "http://www.w3.org/Graphics/SVG/1.1/DTD/svg11.dtd">
<!-- generate by Japanese dictionary app com.asnsami.kanjidictionary -->

<svg xmlns="http://www.w3.org/2000/svg" xmlns:sodipodi="http://sodipodi.sourceforge.net/DTD/sodipodi-0.dtd" version="1.1" width="640" height="256" viewBox="0 0 5120 2048">
	<g id="id0:id0" transform="translate(0.0,0)">
		<g id="id0:id0:id0" transform="matrix(1.0,0,0,1.0,0,0.0)">			<g stroke="lightgray" stroke-width="4" transform="scale(4, 4)"> <rect x="0" y="0" width="256" height="256" fill="white" stroke-width="4"/></g>
			<g transform="scale(0.92, -0.92) translate(60, -920)">					<path d="M 343 550 Q 367 557 393 563 Q 430 573 436 579 Q 445 588 440 596 Q 433 608 402 614 Q 374 618 345 607 L 297 589 Q 174 559 140 554 Q 103 547 131 531 Q 170 510 243 527 Q 267 533 296 539 L 343 550 Z" fill="red"></path>
				<path d="M 291 327 Q 290 239 288 127 Q 287 105 274 95 Q 265 88 243 95 Q 216 102 192 107 Q 161 119 163 109 Q 164 102 184 88 Q 248 39 266 10 Q 285 -23 302 -24 Q 315 -25 330 8 Q 346 51 345 122 Q 339 243 339 363 L 339 395 Q 339 473 343 550 L 345 607 Q 345 680 364 742 Q 380 770 328 793 Q 297 812 277 805 Q 261 799 275 777 Q 296 750 297 718 Q 298 702 297 589 L 296 539 Q 295 469 292 368 L 291 327 Z" fill="lightgray"></path>
				<path d="M 292 368 Q 49 233 47 226 Q 46 217 60 204 Q 79 189 100 181 Q 116 177 126 189 Q 202 261 291 327 L 339 363 Q 358 379 380 392 Q 402 405 412 420 Q 419 433 408 432 Q 395 431 339 395 L 292 368 Z" fill="lightgray"></path>
				<path d="M 788 188 Q 819 416 863 504 Q 875 517 869 530 Q 860 548 792 576 Q 773 583 757 578 Q 637 545 488 520 Q 463 516 474 501 Q 489 488 510 484 Q 537 477 556 487 Q 739 538 757 526 Q 770 519 771 485 Q 761 362 728 188 C 722 159 784 158 788 188 Z" fill="lightgray"></path>
				<path d="M 444 333 Q 416 329 438 312 Q 472 287 499 294 Q 577 312 706 330 Q 716 329 725 342 Q 726 354 703 363 Q 675 384 581 356 Q 578 356 576 355 Q 564 354 444 333 Z" fill="lightgray"></path>
				<path d="M 728 188 Q 577 157 459 147 Q 434 146 449 124 Q 456 114 468 109 Q 481 105 496 108 Q 596 127 812 140 Q 825 141 827 151 Q 828 161 792 186 Q 791 187 788 188 L 728 188 Z" fill="lightgray"></path>
</g>
		<text x="40" y="140" font-size="128" fill="#999999">1</text></g>
		<g id="id0:id1:id1" transform="matrix(1.0,0,0,1.0,1024,0.0)">			<g stroke="lightgray" stroke-width="4" transform="scale(4, 4)"> <rect x="0" y="0" width="256" height="256" fill="white" stroke-width="4"/></g>
			<g transform="scale(0.92, -0.92) translate(60, -920)">					<path d="M 343 550 Q 367 557 393 563 Q 430 573 436 579 Q 445 588 440 596 Q 433 608 402 614 Q 374 618 345 607 L 297 589 Q 174 559 140 554 Q 103 547 131 531 Q 170 510 243 527 Q 267 533 296 539 L 343 550 Z" fill="black"></path>
				<path d="M 291 327 Q 290 239 288 127 Q 287 105 274 95 Q 265 88 243 95 Q 216 102 192 107 Q 161 119 163 109 Q 164 102 184 88 Q 248 39 266 10 Q 285 -23 302 -24 Q 315 -25 330 8 Q 346 51 345 122 Q 339 243 339 363 L 339 395 Q 339 473 343 550 L 345 607 Q 345 680 364 742 Q 380 770 328 793 Q 297 812 277 805 Q 261 799 275 777 Q 296 750 297 718 Q 298 702 297 589 L 296 539 Q 295 469 292 368 L 291 327 Z" fill="red"></path>
				<path d="M 292 368 Q 49 233 47 226 Q 46 217 60 204 Q 79 189 100 181 Q 116 177 126 189 Q 202 261 291 327 L 339 363 Q 358 379 380 392 Q 402 405 412 420 Q 419 433 408 432 Q 395 431 339 395 L 292 368 Z" fill="lightgray"></path>
				<path d="M 788 188 Q 819 416 863 504 Q 875 517 869 530 Q 860 548 792 576 Q 773 583 757 578 Q 637 545 488 520 Q 463 516 474 501 Q 489 488 510 484 Q 537 477 556 487 Q 739 538 757 526 Q 770 519 771 485 Q 761 362 728 188 C 722 159 784 158 788 188 Z" fill="lightgray"></path>
				<path d="M 444 333 Q 416 329 438 312 Q 472 287 499 294 Q 577 312 706 330 Q 716 329 725 342 Q 726 354 703 363 Q 675 384 581 356 Q 578 356 576 355 Q 564 354 444 333 Z" fill="lightgray"></path>
				<path d="M 728 188 Q 577 157 459 147 Q 434 146 449 124 Q 456 114 468 109 Q 481 105 496 108 Q 596 127 812 140 Q 825 141 827 151 Q 828 161 792 186 Q 791 187 788 188 L 728 188 Z" fill="lightgray"></path>
</g>
		<text x="40" y="140" font-size="128" fill="#999999">2</text></g>
		<g id="id0:id2:id2" transform="matrix(1.0,0,0,1.0,2048,0.0)">			<g stroke="lightgray" stroke-width="4" transform="scale(4, 4)"> <rect x="0" y="0" width="256" height="256" fill="white" stroke-width="4"/></g>
			<g transform="scale(0.92, -0.92) translate(60, -920)">					<path d="M 343 550 Q 367 557 393 563 Q 430 573 436 579 Q 445 588 440 596 Q 433 608 402 614 Q 374 618 345 607 L 297 589 Q 174 559 140 554 Q 103 547 131 531 Q 170 510 243 527 Q 267 533 296 539 L 343 550 Z" fill="black"></path>
				<path d="M 291 327 Q 290 239 288 127 Q 287 105 274 95 Q 265 88 243 95 Q 216 102 192 107 Q 161 119 163 109 Q 164 102 184 88 Q 248 39 266 10 Q 285 -23 302 -24 Q 315 -25 330 8 Q 346 51 345 122 Q 339 243 339 363 L 339 395 Q 339 473 343 550 L 345 607 Q 345 680 364 742 Q 380 770 328 793 Q 297 812 277 805 Q 261 799 275 777 Q 296 750 297 718 Q 298 702 297 589 L 296 539 Q 295 469 292 368 L 291 327 Z" fill="black"></path>
				<path d="M 292 368 Q 49 233 47 226 Q 46 217 60 204 Q 79 189 100 181 Q 116 177 126 189 Q 202 261 291 327 L 339 363 Q 358 379 380 392 Q 402 405 412 420 Q 419 433 408 432 Q 395 431 339 395 L 292 368 Z" fill="red"></path>
				<path d="M 788 188 Q 819 416 863 504 Q 875 517 869 530 Q 860 548 792 576 Q 773 583 757 578 Q 637 545 488 520 Q 463 516 474 501 Q 489 488 510 484 Q 537 477 556 487 Q 739 538 757 526 Q 770 519 771 485 Q 761 362 728 188 C 722 159 784 158 788 188 Z" fill="lightgray"></path>
				<path d="M 444 333 Q 416 329 438 312 Q 472 287 499 294 Q 577 312 706 330 Q 716 329 725 342 Q 726 354 703 363 Q 675 384 581 356 Q 578 356 576 355 Q 564 354 444 333 Z" fill="lightgray"></path>
				<path d="M 728 188 Q 577 157 459 147 Q 434 146 449 124 Q 456 114 468 109 Q 481 105 496 108 Q 596 127 812 140 Q 825 141 827 151 Q 828 161 792 186 Q 791 187 788 188 L 728 188 Z" fill="lightgray"></path>
</g>
		<text x="40" y="140" font-size="128" fill="#999999">3</text></g>
		<g id="id0:id3:id3" transform="matrix(1.0,0,0,1.0,3072,0.0)">			<g stroke="lightgray" stroke-width="4" transform="scale(4, 4)"> <rect x="0" y="0" width="256" height="256" fill="white" stroke-width="4"/></g>
			<g transform="scale(0.92, -0.92) translate(60, -920)">					<path d="M 343 550 Q 367 557 393 563 Q 430 573 436 579 Q 445 588 440 596 Q 433 608 402 614 Q 374 618 345 607 L 297 589 Q 174 559 140 554 Q 103 547 131 531 Q 170 510 243 527 Q 267 533 296 539 L 343 550 Z" fill="black"></path>
				<path d="M 291 327 Q 290 239 288 127 Q 287 105 274 95 Q 265 88 243 95 Q 216 102 192 107 Q 161 119 163 109 Q 164 102 184 88 Q 248 39 266 10 Q 285 -23 302 -24 Q 315 -25 330 8 Q 346 51 345 122 Q 339 243 339 363 L 339 395 Q 339 473 343 550 L 345 607 Q 345 680 364 742 Q 380 770 328 793 Q 297 812 277 805 Q 261 799 275 777 Q 296 750 297 718 Q 298 702 297 589 L 296 539 Q 295 469 292 368 L 291 327 Z" fill="black"></path>
				<path d="M 292 368 Q 49 233 47 226 Q 46 217 60 204 Q 79 189 100 181 Q 116 177 126 189 Q 202 261 291 327 L 339 363 Q 358 379 380 392 Q 402 405 412 420 Q 419 433 408 432 Q 395 431 339 395 L 292 368 Z" fill="black"></path>
				<path d="M 788 188 Q 819 416 863 504 Q 875 517 869 530 Q 860 548 792 576 Q 773 583 757 578 Q 637 545 488 520 Q 463 516 474 501 Q 489 488 510 484 Q 537 477 556 487 Q 739 538 757 526 Q 770 519 771 485 Q 761 362 728 188 C 722 159 784 158 788 188 Z" fill="red"></path>
				<path d="M 444 333 Q 416 329 438 312 Q 472 287 499 294 Q 577 312 706 330 Q 716 329 725 342 Q 726 354 703 363 Q 675 384 581 356 Q 578 356 576 355 Q 564 354 444 333 Z" fill="lightgray"></path>
				<path d="M 728 188 Q 577 157 459 147 Q 434 146 449 124 Q 456 114 468 109 Q 481 105 496 108 Q 596 127 812 140 Q 825 141 827 151 Q 828 161 792 186 Q 791 187 788 188 L 728 188 Z" fill="lightgray"></path>
</g>
		<text x="40" y="140" font-size="128" fill="#999999">4</text></g>
		<g id="id0:id4:id4" transform="matrix(1.0,0,0,1.0,4096,0.0)">			<g stroke="lightgray" stroke-width="4" transform="scale(4, 4)"> <rect x="0" y="0" width="256" height="256" fill="white" stroke-width="4"/></g>
			<g transform="scale(0.92, -0.92) translate(60, -920)">					<path d="M 343 550 Q 367 557 393 563 Q 430 573 436 579 Q 445 588 440 596 Q 433 608 402 614 Q 374 618 345 607 L 297 589 Q 174 559 140 554 Q 103 547 131 531 Q 170 510 243 527 Q 267 533 296 539 L 343 550 Z" fill="black"></path>
				<path d="M 291 327 Q 290 239 288 127 Q 287 105 274 95 Q 265 88 243 95 Q 216 102 192 107 Q 161 119 163 109 Q 164 102 184 88 Q 248 39 266 10 Q 285 -23 302 -24 Q 315 -25 330 8 Q 346 51 345 122 Q 339 243 339 363 L 339 395 Q 339 473 343 550 L 345 607 Q 345 680 364 742 Q 380 770 328 793 Q 297 812 277 805 Q 261 799 275 777 Q 296 750 297 718 Q 298 702 297 589 L 296 539 Q 295 469 292 368 L 291 327 Z" fill="black"></path>
				<path d="M 292 368 Q 49 233 47 226 Q 46 217 60 204 Q 79 189 100 181 Q 116 177 126 189 Q 202 261 291 327 L 339 363 Q 358 379 380 392 Q 402 405 412 420 Q 419 433 408 432 Q 395 431 339 395 L 292 368 Z" fill="black"></path>
				<path d="M 788 188 Q 819 416 863 504 Q 875 517 869 530 Q 860 548 792 576 Q 773 583 757 578 Q 637 545 488 520 Q 463 516 474 501 Q 489 488 510 484 Q 537 477 556 487 Q 739 538 757 526 Q 770 519 771 485 Q 761 362 728 188 C 722 159 784 158 788 188 Z" fill="black"></path>
				<path d="M 444 333 Q 416 329 438 312 Q 472 287 499 294 Q 577 312 706 330 Q 716 329 725 342 Q 726 354 703 363 Q 675 384 581 356 Q 578 356 576 355 Q 564 354 444 333 Z" fill="red"></path>
				<path d="M 728 188 Q 577 157 459 147 Q 434 146 449 124 Q 456 114 468 109 Q 481 105 496 108 Q 596 127 812 140 Q 825 141 827 151 Q 828 161 792 186 Q 791 187 788 188 L 728 188 Z" fill="lightgray"></path>
</g>
		<text x="40" y="140" font-size="128" fill="#999999">5</text></g>
</g>
	<g id="id1:id1" transform="translate(0.0,1024)">
		<g id="id1:id0:id0" transform="matrix(1.0,0,0,1.0,0,0.0)">			<g stroke="lightgray" stroke-width="4" transform="scale(4, 4)"> <rect x="0" y="0" width="256" height="256" fill="white" stroke-width="4"/></g>
			<g transform="scale(0.92, -0.92) translate(60, -920)">					<path d="M 343 550 Q 367 557 393 563 Q 430 573 436 579 Q 445 588 440 596 Q 433 608 402 614 Q 374 618 345 607 L 297 589 Q 174 559 140 554 Q 103 547 131 531 Q 170 510 243 527 Q 267 533 296 539 L 343 550 Z" fill="black"></path>
				<path d="M 291 327 Q 290 239 288 127 Q 287 105 274 95 Q 265 88 243 95 Q 216 102 192 107 Q 161 119 163 109 Q 164 102 184 88 Q 248 39 266 10 Q 285 -23 302 -24 Q 315 -25 330 8 Q 346 51 345 122 Q 339 243 339 363 L 339 395 Q 339 473 343 550 L 345 607 Q 345 680 364 742 Q 380 770 328 793 Q 297 812 277 805 Q 261 799 275 777 Q 296 750 297 718 Q 298 702 297 589 L 296 539 Q 295 469 292 368 L 291 327 Z" fill="black"></path>
				<path d="M 292 368 Q 49 233 47 226 Q 46 217 60 204 Q 79 189 100 181 Q 116 177 126 189 Q 202 261 291 327 L 339 363 Q 358 379 380 392 Q 402 405 412 420 Q 419 433 408 432 Q 395 431 339 395 L 292 368 Z" fill="black"></path>
				<path d="M 788 188 Q 819 416 863 504 Q 875 517 869 530 Q 860 548 792 576 Q 773 583 757 578 Q 637 545 488 520 Q 463 516 474 501 Q 489 488 510 484 Q 537 477 556 487 Q 739 538 757 526 Q 770 519 771 485 Q 761 362 728 188 C 722 159 784 158 788 188 Z" fill="black"></path>
				<path d="M 444 333 Q 416 329 438 312 Q 472 287 499 294 Q 577 312 706 330 Q 716 329 725 342 Q 726 354 703 363 Q 675 384 581 356 Q 578 356 576 355 Q 564 354 444 333 Z" fill="black"></path>
				<path d="M 728 188 Q 577 157 459 147 Q 434 146 449 124 Q 456 114 468 109 Q 481 105 496 108 Q 596 127 812 140 Q 825 141 827 151 Q 828 161 792 186 Q 791 187 788 188 L 728 188 Z" fill="red"></path>
</g>
		<text x="40" y="140" font-size="128" fill="#999999">6</text></g>
		<g id="id1:id1:id1" transform="matrix(1.0,0,0,1.0,1024,0.0)">			<g stroke="white" stroke-width="4" transform="scale(4, 4)"> <rect x="1" y="1" width="255" height="255" fill="white" stroke-width="0"/></g>
</g>
		<g id="id1:id2:id2" transform="matrix(1.0,0,0,1.0,2048,0.0)">			<g stroke="white" stroke-width="4" transform="scale(4, 4)"> <rect x="1" y="1" width="255" height="255" fill="white" stroke-width="0"/></g>
</g>
		<g id="id1:id3:id3" transform="matrix(1.0,0,0,1.0,3072,0.0)">			<g stroke="white" stroke-width="4" transform="scale(4, 4)"> <rect x="1" y="1" width="255" height="255" fill="white" stroke-width="0"/></g>
</g>
		<g id="id1:id4:id4" transform="matrix(1.0,0,0,1.0,4096,0.0)">			<g stroke="white" stroke-width="4" transform="scale(4, 4)"> <rect x="1" y="1" width="255" height="255" fill="white" stroke-width="0"/></g>
</g>
</g>
</svg>
