<?xml version="1.0" standalone="no"?>
<!DOCTYPE svg PUBLIC "-//W3C//DTD SVG 1.1//EN"
 "http://www.w3.org/Graphics/SVG/1.1/DTD/svg11.dtd">
<!-- generate by Japanese dictionary app com.asnsami.kanjidictionary -->

<svg xmlns="http://www.w3.org/2000/svg" xmlns:sodipodi="http://sodipodi.sourceforge.net/DTD/sodipodi-0.dtd" version="1.1" width="640" height="256" viewBox="0 0 5120 2048">
	<g id="id0:id0" transform="translate(0.0,0)">
		<g id="id0:id0:id0" transform="matrix(1.0,0,0,1.0,0,0.0)">			<g stroke="lightgray" stroke-width="4" transform="scale(4, 4)"> <rect x="0" y="0" width="256" height="256" fill="white" stroke-width="4"/></g>
			<g transform="scale(0.92, -0.92) translate(60, -920)">					<path d="M 357 566 Q 427 587 433 593 Q 440 600 436 609 Q 429 619 399 625 Q 380 628 360 622 L 311 602 Q 230 572 142 557 Q 108 548 134 534 Q 180 513 229 530 Q 268 542 310 553 L 357 566 Z" fill="red"></path>
				<path d="M 305 372 Q 301 275 300 147 Q 299 125 286 115 Q 276 108 248 118 Q 217 127 188 135 Q 157 147 159 137 Q 160 130 180 116 Q 253 64 273 33 Q 297 -4 314 -4 Q 327 -5 342 28 Q 358 71 358 142 Q 351 275 352 407 L 353 437 Q 353 501 357 566 L 360 622 Q 360 697 380 762 Q 396 790 344 813 Q 313 832 293 825 Q 277 819 291 797 Q 312 772 312 738 Q 313 722 311 602 L 310 553 Q 309 493 306 411 L 305 372 Z" fill="lightgray"></path>
				<path d="M 306 411 Q 74 284 67 280 Q 49 280 46 264 Q 45 254 59 240 Q 78 224 102 216 Q 118 212 128 224 Q 197 293 305 372 L 352 407 Q 358 413 366 417 Q 387 430 396 444 Q 403 457 392 457 Q 367 451 353 437 L 306 411 Z" fill="lightgray"></path>
				<path d="M 737 91 Q 721 70 705 73 Q 678 80 640 89 Q 624 93 623 90 Q 623 86 640 70 Q 674 36 692 -4 Q 702 -20 712 -24 Q 719 -27 739 -11 Q 796 35 833 111 Q 872 192 912 415 Q 918 440 931 453 Q 944 463 931 480 Q 916 495 887 513 Q 865 526 791 507 Q 787 507 784 506 Q 675 482 596 472 Q 584 463 578 474 Q 578 490 666 617 Q 711 677 731 684 Q 744 691 744 698 Q 745 705 739 710 Q 717 731 688 741 Q 669 750 638 735 Q 527 696 454 695 Q 439 695 436 690 Q 435 686 440 677 Q 447 667 462 658 Q 474 649 529 663 Q 655 700 659 690 Q 659 666 572 532 Q 568 529 566 524 Q 547 496 520 470 Q 501 458 516 422 Q 519 412 546 422 Q 553 425 563 427 L 597 436 Q 631 448 680 457 L 728 465 Q 791 478 824 478 Q 845 477 847 467 Q 865 374 799 198 Q 765 123 737 91 Z" fill="lightgray"></path>
				<path d="M 563 427 Q 569 355 428 206 Q 418 200 417 191 Q 416 187 421 187 Q 496 203 595 354 Q 608 376 618 387 Q 624 396 618 408 Q 608 427 597 436 C 576 457 563 457 563 427 Z" fill="lightgray"></path>
				<path d="M 680 457 Q 707 325 452 55 Q 445 49 455 48 Q 512 57 624 193 Q 697 310 737 384 Q 744 405 758 421 Q 765 427 762 436 Q 755 457 728 465 C 700 477 676 487 680 457 Z" fill="lightgray"></path>
</g>
		<text x="40" y="140" font-size="128" fill="#999999">1</text></g>
		<g id="id0:id1:id1" transform="matrix(1.0,0,0,1.0,1024,0.0)">			<g stroke="lightgray" stroke-width="4" transform="scale(4, 4)"> <rect x="0" y="0" width="256" height="256" fill="white" stroke-width="4"/></g>
			<g transform="scale(0.92, -0.92) translate(60, -920)">					<path d="M 357 566 Q 427 587 433 593 Q 440 600 436 609 Q 429 619 399 625 Q 380 628 360 622 L 311 602 Q 230 572 142 557 Q 108 548 134 534 Q 180 513 229 530 Q 268 542 310 553 L 357 566 Z" fill="black"></path>
				<path d="M 305 372 Q 301 275 300 147 Q 299 125 286 115 Q 276 108 248 118 Q 217 127 188 135 Q 157 147 159 137 Q 160 130 180 116 Q 253 64 273 33 Q 297 -4 314 -4 Q 327 -5 342 28 Q 358 71 358 142 Q 351 275 352 407 L 353 437 Q 353 501 357 566 L 360 622 Q 360 697 380 762 Q 396 790 344 813 Q 313 832 293 825 Q 277 819 291 797 Q 312 772 312 738 Q 313 722 311 602 L 310 553 Q 309 493 306 411 L 305 372 Z" fill="red"></path>
				<path d="M 306 411 Q 74 284 67 280 Q 49 280 46 264 Q 45 254 59 240 Q 78 224 102 216 Q 118 212 128 224 Q 197 293 305 372 L 352 407 Q 358 413 366 417 Q 387 430 396 444 Q 403 457 392 457 Q 367 451 353 437 L 306 411 Z" fill="lightgray"></path>
				<path d="M 737 91 Q 721 70 705 73 Q 678 80 640 89 Q 624 93 623 90 Q 623 86 640 70 Q 674 36 692 -4 Q 702 -20 712 -24 Q 719 -27 739 -11 Q 796 35 833 111 Q 872 192 912 415 Q 918 440 931 453 Q 944 463 931 480 Q 916 495 887 513 Q 865 526 791 507 Q 787 507 784 506 Q 675 482 596 472 Q 584 463 578 474 Q 578 490 666 617 Q 711 677 731 684 Q 744 691 744 698 Q 745 705 739 710 Q 717 731 688 741 Q 669 750 638 735 Q 527 696 454 695 Q 439 695 436 690 Q 435 686 440 677 Q 447 667 462 658 Q 474 649 529 663 Q 655 700 659 690 Q 659 666 572 532 Q 568 529 566 524 Q 547 496 520 470 Q 501 458 516 422 Q 519 412 546 422 Q 553 425 563 427 L 597 436 Q 631 448 680 457 L 728 465 Q 791 478 824 478 Q 845 477 847 467 Q 865 374 799 198 Q 765 123 737 91 Z" fill="lightgray"></path>
				<path d="M 563 427 Q 569 355 428 206 Q 418 200 417 191 Q 416 187 421 187 Q 496 203 595 354 Q 608 376 618 387 Q 624 396 618 408 Q 608 427 597 436 C 576 457 563 457 563 427 Z" fill="lightgray"></path>
				<path d="M 680 457 Q 707 325 452 55 Q 445 49 455 48 Q 512 57 624 193 Q 697 310 737 384 Q 744 405 758 421 Q 765 427 762 436 Q 755 457 728 465 C 700 477 676 487 680 457 Z" fill="lightgray"></path>
</g>
		<text x="40" y="140" font-size="128" fill="#999999">2</text></g>
		<g id="id0:id2:id2" transform="matrix(1.0,0,0,1.0,2048,0.0)">			<g stroke="lightgray" stroke-width="4" transform="scale(4, 4)"> <rect x="0" y="0" width="256" height="256" fill="white" stroke-width="4"/></g>
			<g transform="scale(0.92, -0.92) translate(60, -920)">					<path d="M 357 566 Q 427 587 433 593 Q 440 600 436 609 Q 429 619 399 625 Q 380 628 360 622 L 311 602 Q 230 572 142 557 Q 108 548 134 534 Q 180 513 229 530 Q 268 542 310 553 L 357 566 Z" fill="black"></path>
				<path d="M 305 372 Q 301 275 300 147 Q 299 125 286 115 Q 276 108 248 118 Q 217 127 188 135 Q 157 147 159 137 Q 160 130 180 116 Q 253 64 273 33 Q 297 -4 314 -4 Q 327 -5 342 28 Q 358 71 358 142 Q 351 275 352 407 L 353 437 Q 353 501 357 566 L 360 622 Q 360 697 380 762 Q 396 790 344 813 Q 313 832 293 825 Q 277 819 291 797 Q 312 772 312 738 Q 313 722 311 602 L 310 553 Q 309 493 306 411 L 305 372 Z" fill="black"></path>
				<path d="M 306 411 Q 74 284 67 280 Q 49 280 46 264 Q 45 254 59 240 Q 78 224 102 216 Q 118 212 128 224 Q 197 293 305 372 L 352 407 Q 358 413 366 417 Q 387 430 396 444 Q 403 457 392 457 Q 367 451 353 437 L 306 411 Z" fill="red"></path>
				<path d="M 737 91 Q 721 70 705 73 Q 678 80 640 89 Q 624 93 623 90 Q 623 86 640 70 Q 674 36 692 -4 Q 702 -20 712 -24 Q 719 -27 739 -11 Q 796 35 833 111 Q 872 192 912 415 Q 918 440 931 453 Q 944 463 931 480 Q 916 495 887 513 Q 865 526 791 507 Q 787 507 784 506 Q 675 482 596 472 Q 584 463 578 474 Q 578 490 666 617 Q 711 677 731 684 Q 744 691 744 698 Q 745 705 739 710 Q 717 731 688 741 Q 669 750 638 735 Q 527 696 454 695 Q 439 695 436 690 Q 435 686 440 677 Q 447 667 462 658 Q 474 649 529 663 Q 655 700 659 690 Q 659 666 572 532 Q 568 529 566 524 Q 547 496 520 470 Q 501 458 516 422 Q 519 412 546 422 Q 553 425 563 427 L 597 436 Q 631 448 680 457 L 728 465 Q 791 478 824 478 Q 845 477 847 467 Q 865 374 799 198 Q 765 123 737 91 Z" fill="lightgray"></path>
				<path d="M 563 427 Q 569 355 428 206 Q 418 200 417 191 Q 416 187 421 187 Q 496 203 595 354 Q 608 376 618 387 Q 624 396 618 408 Q 608 427 597 436 C 576 457 563 457 563 427 Z" fill="lightgray"></path>
				<path d="M 680 457 Q 707 325 452 55 Q 445 49 455 48 Q 512 57 624 193 Q 697 310 737 384 Q 744 405 758 421 Q 765 427 762 436 Q 755 457 728 465 C 700 477 676 487 680 457 Z" fill="lightgray"></path>
</g>
		<text x="40" y="140" font-size="128" fill="#999999">3</text></g>
		<g id="id0:id3:id3" transform="matrix(1.0,0,0,1.0,3072,0.0)">			<g stroke="lightgray" stroke-width="4" transform="scale(4, 4)"> <rect x="0" y="0" width="256" height="256" fill="white" stroke-width="4"/></g>
			<g transform="scale(0.92, -0.92) translate(60, -920)">					<path d="M 357 566 Q 427 587 433 593 Q 440 600 436 609 Q 429 619 399 625 Q 380 628 360 622 L 311 602 Q 230 572 142 557 Q 108 548 134 534 Q 180 513 229 530 Q 268 542 310 553 L 357 566 Z" fill="black"></path>
				<path d="M 305 372 Q 301 275 300 147 Q 299 125 286 115 Q 276 108 248 118 Q 217 127 188 135 Q 157 147 159 137 Q 160 130 180 116 Q 253 64 273 33 Q 297 -4 314 -4 Q 327 -5 342 28 Q 358 71 358 142 Q 351 275 352 407 L 353 437 Q 353 501 357 566 L 360 622 Q 360 697 380 762 Q 396 790 344 813 Q 313 832 293 825 Q 277 819 291 797 Q 312 772 312 738 Q 313 722 311 602 L 310 553 Q 309 493 306 411 L 305 372 Z" fill="black"></path>
				<path d="M 306 411 Q 74 284 67 280 Q 49 280 46 264 Q 45 254 59 240 Q 78 224 102 216 Q 118 212 128 224 Q 197 293 305 372 L 352 407 Q 358 413 366 417 Q 387 430 396 444 Q 403 457 392 457 Q 367 451 353 437 L 306 411 Z" fill="black"></path>
				<path d="M 737 91 Q 721 70 705 73 Q 678 80 640 89 Q 624 93 623 90 Q 623 86 640 70 Q 674 36 692 -4 Q 702 -20 712 -24 Q 719 -27 739 -11 Q 796 35 833 111 Q 872 192 912 415 Q 918 440 931 453 Q 944 463 931 480 Q 916 495 887 513 Q 865 526 791 507 Q 787 507 784 506 Q 675 482 596 472 Q 584 463 578 474 Q 578 490 666 617 Q 711 677 731 684 Q 744 691 744 698 Q 745 705 739 710 Q 717 731 688 741 Q 669 750 638 735 Q 527 696 454 695 Q 439 695 436 690 Q 435 686 440 677 Q 447 667 462 658 Q 474 649 529 663 Q 655 700 659 690 Q 659 666 572 532 Q 568 529 566 524 Q 547 496 520 470 Q 501 458 516 422 Q 519 412 546 422 Q 553 425 563 427 L 597 436 Q 631 448 680 457 L 728 465 Q 791 478 824 478 Q 845 477 847 467 Q 865 374 799 198 Q 765 123 737 91 Z" fill="red"></path>
				<path d="M 563 427 Q 569 355 428 206 Q 418 200 417 191 Q 416 187 421 187 Q 496 203 595 354 Q 608 376 618 387 Q 624 396 618 408 Q 608 427 597 436 C 576 457 563 457 563 427 Z" fill="lightgray"></path>
				<path d="M 680 457 Q 707 325 452 55 Q 445 49 455 48 Q 512 57 624 193 Q 697 310 737 384 Q 744 405 758 421 Q 765 427 762 436 Q 755 457 728 465 C 700 477 676 487 680 457 Z" fill="lightgray"></path>
</g>
		<text x="40" y="140" font-size="128" fill="#999999">4</text></g>
		<g id="id0:id4:id4" transform="matrix(1.0,0,0,1.0,4096,0.0)">			<g stroke="lightgray" stroke-width="4" transform="scale(4, 4)"> <rect x="0" y="0" width="256" height="256" fill="white" stroke-width="4"/></g>
			<g transform="scale(0.92, -0.92) translate(60, -920)">					<path d="M 357 566 Q 427 587 433 593 Q 440 600 436 609 Q 429 619 399 625 Q 380 628 360 622 L 311 602 Q 230 572 142 557 Q 108 548 134 534 Q 180 513 229 530 Q 268 542 310 553 L 357 566 Z" fill="black"></path>
				<path d="M 305 372 Q 301 275 300 147 Q 299 125 286 115 Q 276 108 248 118 Q 217 127 188 135 Q 157 147 159 137 Q 160 130 180 116 Q 253 64 273 33 Q 297 -4 314 -4 Q 327 -5 342 28 Q 358 71 358 142 Q 351 275 352 407 L 353 437 Q 353 501 357 566 L 360 622 Q 360 697 380 762 Q 396 790 344 813 Q 313 832 293 825 Q 277 819 291 797 Q 312 772 312 738 Q 313 722 311 602 L 310 553 Q 309 493 306 411 L 305 372 Z" fill="black"></path>
				<path d="M 306 411 Q 74 284 67 280 Q 49 280 46 264 Q 45 254 59 240 Q 78 224 102 216 Q 118 212 128 224 Q 197 293 305 372 L 352 407 Q 358 413 366 417 Q 387 430 396 444 Q 403 457 392 457 Q 367 451 353 437 L 306 411 Z" fill="black"></path>
				<path d="M 737 91 Q 721 70 705 73 Q 678 80 640 89 Q 624 93 623 90 Q 623 86 640 70 Q 674 36 692 -4 Q 702 -20 712 -24 Q 719 -27 739 -11 Q 796 35 833 111 Q 872 192 912 415 Q 918 440 931 453 Q 944 463 931 480 Q 916 495 887 513 Q 865 526 791 507 Q 787 507 784 506 Q 675 482 596 472 Q 584 463 578 474 Q 578 490 666 617 Q 711 677 731 684 Q 744 691 744 698 Q 745 705 739 710 Q 717 731 688 741 Q 669 750 638 735 Q 527 696 454 695 Q 439 695 436 690 Q 435 686 440 677 Q 447 667 462 658 Q 474 649 529 663 Q 655 700 659 690 Q 659 666 572 532 Q 568 529 566 524 Q 547 496 520 470 Q 501 458 516 422 Q 519 412 546 422 Q 553 425 563 427 L 597 436 Q 631 448 680 457 L 728 465 Q 791 478 824 478 Q 845 477 847 467 Q 865 374 799 198 Q 765 123 737 91 Z" fill="black"></path>
				<path d="M 563 427 Q 569 355 428 206 Q 418 200 417 191 Q 416 187 421 187 Q 496 203 595 354 Q 608 376 618 387 Q 624 396 618 408 Q 608 427 597 436 C 576 457 563 457 563 427 Z" fill="red"></path>
				<path d="M 680 457 Q 707 325 452 55 Q 445 49 455 48 Q 512 57 624 193 Q 697 310 737 384 Q 744 405 758 421 Q 765 427 762 436 Q 755 457 728 465 C 700 477 676 487 680 457 Z" fill="lightgray"></path>
</g>
		<text x="40" y="140" font-size="128" fill="#999999">5</text></g>
</g>
	<g id="id1:id1" transform="translate(0.0,1024)">
		<g id="id1:id0:id0" transform="matrix(1.0,0,0,1.0,0,0.0)">			<g stroke="lightgray" stroke-width="4" transform="scale(4, 4)"> <rect x="0" y="0" width="256" height="256" fill="white" stroke-width="4"/></g>
			<g transform="scale(0.92, -0.92) translate(60, -920)">					<path d="M 357 566 Q 427 587 433 593 Q 440 600 436 609 Q 429 619 399 625 Q 380 628 360 622 L 311 602 Q 230 572 142 557 Q 108 548 134 534 Q 180 513 229 530 Q 268 542 310 553 L 357 566 Z" fill="black"></path>
				<path d="M 305 372 Q 301 275 300 147 Q 299 125 286 115 Q 276 108 248 118 Q 217 127 188 135 Q 157 147 159 137 Q 160 130 180 116 Q 253 64 273 33 Q 297 -4 314 -4 Q 327 -5 342 28 Q 358 71 358 142 Q 351 275 352 407 L 353 437 Q 353 501 357 566 L 360 622 Q 360 697 380 762 Q 396 790 344 813 Q 313 832 293 825 Q 277 819 291 797 Q 312 772 312 738 Q 313 722 311 602 L 310 553 Q 309 493 306 411 L 305 372 Z" fill="black"></path>
				<path d="M 306 411 Q 74 284 67 280 Q 49 280 46 264 Q 45 254 59 240 Q 78 224 102 216 Q 118 212 128 224 Q 197 293 305 372 L 352 407 Q 358 413 366 417 Q 387 430 396 444 Q 403 457 392 457 Q 367 451 353 437 L 306 411 Z" fill="black"></path>
				<path d="M 737 91 Q 721 70 705 73 Q 678 80 640 89 Q 624 93 623 90 Q 623 86 640 70 Q 674 36 692 -4 Q 702 -20 712 -24 Q 719 -27 739 -11 Q 796 35 833 111 Q 872 192 912 415 Q 918 440 931 453 Q 944 463 931 480 Q 916 495 887 513 Q 865 526 791 507 Q 787 507 784 506 Q 675 482 596 472 Q 584 463 578 474 Q 578 490 666 617 Q 711 677 731 684 Q 744 691 744 698 Q 745 705 739 710 Q 717 731 688 741 Q 669 750 638 735 Q 527 696 454 695 Q 439 695 436 690 Q 435 686 440 677 Q 447 667 462 658 Q 474 649 529 663 Q 655 700 659 690 Q 659 666 572 532 Q 568 529 566 524 Q 547 496 520 470 Q 501 458 516 422 Q 519 412 546 422 Q 553 425 563 427 L 597 436 Q 631 448 680 457 L 728 465 Q 791 478 824 478 Q 845 477 847 467 Q 865 374 799 198 Q 765 123 737 91 Z" fill="black"></path>
				<path d="M 563 427 Q 569 355 428 206 Q 418 200 417 191 Q 416 187 421 187 Q 496 203 595 354 Q 608 376 618 387 Q 624 396 618 408 Q 608 427 597 436 C 576 457 563 457 563 427 Z" fill="black"></path>
				<path d="M 680 457 Q 707 325 452 55 Q 445 49 455 48 Q 512 57 624 193 Q 697 310 737 384 Q 744 405 758 421 Q 765 427 762 436 Q 755 457 728 465 C 700 477 676 487 680 457 Z" fill="red"></path>
</g>
		<text x="40" y="140" font-size="128" fill="#999999">6</text></g>
		<g id="id1:id1:id1" transform="matrix(1.0,0,0,1.0,1024,0.0)">			<g stroke="white" stroke-width="4" transform="scale(4, 4)"> <rect x="1" y="1" width="255" height="255" fill="white" stroke-width="0"/></g>
</g>
		<g id="id1:id2:id2" transform="matrix(1.0,0,0,1.0,2048,0.0)">			<g stroke="white" stroke-width="4" transform="scale(4, 4)"> <rect x="1" y="1" width="255" height="255" fill="white" stroke-width="0"/></g>
</g>
		<g id="id1:id3:id3" transform="matrix(1.0,0,0,1.0,3072,0.0)">			<g stroke="white" stroke-width="4" transform="scale(4, 4)"> <rect x="1" y="1" width="255" height="255" fill="white" stroke-width="0"/></g>
</g>
		<g id="id1:id4:id4" transform="matrix(1.0,0,0,1.0,4096,0.0)">			<g stroke="white" stroke-width="4" transform="scale(4, 4)"> <rect x="1" y="1" width="255" height="255" fill="white" stroke-width="0"/></g>
</g>
</g>
</svg>
