<?xml version="1.0" standalone="no"?>
<!DOCTYPE svg PUBLIC "-//W3C//DTD SVG 1.1//EN"
 "http://www.w3.org/Graphics/SVG/1.1/DTD/svg11.dtd">
<!-- generate by Handict dictionary app com.asnsami.handict -->

<svg xmlns="http://www.w3.org/2000/svg" xmlns:sodipodi="http://sodipodi.sourceforge.net/DTD/sodipodi-0.dtd" version="1.1" width="640" height="256" viewBox="0 0 5120 2048">
	<g id="id0:id0" transform="translate(0.0,0)">
		<g id="id0:id0:id0" transform="matrix(1.0,0,0,1.0,0,0.0)">			<g stroke="lightgray" stroke-width="4" transform="scale(4, 4)"> <rect x="0" y="0" width="256" height="256" fill="white" stroke-width="4"/></g>
			<g transform="scale(0.92, -0.92) translate(60, -920)">					<path d="M 330 544 Q 415 574 418 577 Q 425 586 420 593 Q 413 603 383 608 Q 356 611 332 599 L 281 576 Q 197 548 133 533 Q 99 523 126 510 Q 171 491 221 510 Q 249 519 280 528 L 330 544 Z" fill="red"></path>
				<path d="M 274 332 Q 273 244 270 135 Q 269 111 256 102 Q 247 98 189 110 Q 156 123 159 113 Q 160 106 180 90 Q 238 39 252 12 Q 268 -21 283 -23 Q 298 -24 313 11 Q 332 56 331 129 Q 325 253 326 375 L 326 412 Q 326 479 330 544 L 332 599 Q 332 690 354 764 Q 370 794 316 817 Q 283 836 263 830 Q 247 823 261 800 Q 282 773 283 739 Q 284 721 281 576 L 280 528 Q 279 465 276 381 L 274 332 Z" fill="lightgray"></path>
				<path d="M 276 381 Q 188 327 110 274 Q 74 252 50 243 Q 37 236 35 228 Q 34 218 50 204 Q 71 188 96 181 Q 112 177 123 190 Q 198 271 274 332 L 326 375 Q 350 396 373 413 Q 395 426 405 443 Q 411 458 399 456 Q 390 456 326 412 L 276 381 Z" fill="lightgray"></path>
				<path d="M 596 747 Q 627 725 661 697 Q 677 684 696 687 Q 708 688 712 704 Q 716 722 702 754 Q 693 776 658 787 Q 577 808 560 800 Q 554 794 558 780 Q 562 767 596 747 Z" fill="lightgray"></path>
				<path d="M 469 554 Q 432 547 459 530 Q 504 506 559 521 Q 671 546 790 574 Q 844 587 851 595 Q 860 604 855 612 Q 848 624 818 631 Q 787 637 757 624 Q 696 602 629 583 Q 556 564 469 554 Z" fill="lightgray"></path>
				<path d="M 533 412 Q 500 436 476 424 Q 464 418 471 406 Q 501 367 482 247 Q 455 139 387 89 Q 374 77 362 66 Q 352 56 362 55 Q 410 61 465 120 Q 532 189 537 293 Q 546 374 551 382 C 555 398 555 398 533 412 Z" fill="lightgray"></path>
				<path d="M 551 382 Q 572 383 589 394 Q 608 403 630 411 Q 646 418 652 411 Q 658 407 656 387 Q 629 255 639 186 Q 639 120 704 53 Q 749 17 854 21 Q 915 22 966 48 Q 991 64 977 92 Q 946 162 938 242 Q 934 252 928 252 Q 924 252 917 237 Q 898 117 875 102 Q 836 81 752 94 Q 737 98 730 107 Q 700 132 689 190 Q 677 250 700 331 Q 713 379 741 405 Q 774 432 691 462 Q 664 472 648 461 Q 617 439 533 412 C 505 402 522 375 551 382 Z" fill="lightgray"></path>
</g>
		<text x="40" y="140" font-size="128" fill="#999999">1</text></g>
		<g id="id0:id1:id1" transform="matrix(1.0,0,0,1.0,1024,0.0)">			<g stroke="lightgray" stroke-width="4" transform="scale(4, 4)"> <rect x="0" y="0" width="256" height="256" fill="white" stroke-width="4"/></g>
			<g transform="scale(0.92, -0.92) translate(60, -920)">					<path d="M 330 544 Q 415 574 418 577 Q 425 586 420 593 Q 413 603 383 608 Q 356 611 332 599 L 281 576 Q 197 548 133 533 Q 99 523 126 510 Q 171 491 221 510 Q 249 519 280 528 L 330 544 Z" fill="black"></path>
				<path d="M 274 332 Q 273 244 270 135 Q 269 111 256 102 Q 247 98 189 110 Q 156 123 159 113 Q 160 106 180 90 Q 238 39 252 12 Q 268 -21 283 -23 Q 298 -24 313 11 Q 332 56 331 129 Q 325 253 326 375 L 326 412 Q 326 479 330 544 L 332 599 Q 332 690 354 764 Q 370 794 316 817 Q 283 836 263 830 Q 247 823 261 800 Q 282 773 283 739 Q 284 721 281 576 L 280 528 Q 279 465 276 381 L 274 332 Z" fill="red"></path>
				<path d="M 276 381 Q 188 327 110 274 Q 74 252 50 243 Q 37 236 35 228 Q 34 218 50 204 Q 71 188 96 181 Q 112 177 123 190 Q 198 271 274 332 L 326 375 Q 350 396 373 413 Q 395 426 405 443 Q 411 458 399 456 Q 390 456 326 412 L 276 381 Z" fill="lightgray"></path>
				<path d="M 596 747 Q 627 725 661 697 Q 677 684 696 687 Q 708 688 712 704 Q 716 722 702 754 Q 693 776 658 787 Q 577 808 560 800 Q 554 794 558 780 Q 562 767 596 747 Z" fill="lightgray"></path>
				<path d="M 469 554 Q 432 547 459 530 Q 504 506 559 521 Q 671 546 790 574 Q 844 587 851 595 Q 860 604 855 612 Q 848 624 818 631 Q 787 637 757 624 Q 696 602 629 583 Q 556 564 469 554 Z" fill="lightgray"></path>
				<path d="M 533 412 Q 500 436 476 424 Q 464 418 471 406 Q 501 367 482 247 Q 455 139 387 89 Q 374 77 362 66 Q 352 56 362 55 Q 410 61 465 120 Q 532 189 537 293 Q 546 374 551 382 C 555 398 555 398 533 412 Z" fill="lightgray"></path>
				<path d="M 551 382 Q 572 383 589 394 Q 608 403 630 411 Q 646 418 652 411 Q 658 407 656 387 Q 629 255 639 186 Q 639 120 704 53 Q 749 17 854 21 Q 915 22 966 48 Q 991 64 977 92 Q 946 162 938 242 Q 934 252 928 252 Q 924 252 917 237 Q 898 117 875 102 Q 836 81 752 94 Q 737 98 730 107 Q 700 132 689 190 Q 677 250 700 331 Q 713 379 741 405 Q 774 432 691 462 Q 664 472 648 461 Q 617 439 533 412 C 505 402 522 375 551 382 Z" fill="lightgray"></path>
</g>
		<text x="40" y="140" font-size="128" fill="#999999">2</text></g>
		<g id="id0:id2:id2" transform="matrix(1.0,0,0,1.0,2048,0.0)">			<g stroke="lightgray" stroke-width="4" transform="scale(4, 4)"> <rect x="0" y="0" width="256" height="256" fill="white" stroke-width="4"/></g>
			<g transform="scale(0.92, -0.92) translate(60, -920)">					<path d="M 330 544 Q 415 574 418 577 Q 425 586 420 593 Q 413 603 383 608 Q 356 611 332 599 L 281 576 Q 197 548 133 533 Q 99 523 126 510 Q 171 491 221 510 Q 249 519 280 528 L 330 544 Z" fill="black"></path>
				<path d="M 274 332 Q 273 244 270 135 Q 269 111 256 102 Q 247 98 189 110 Q 156 123 159 113 Q 160 106 180 90 Q 238 39 252 12 Q 268 -21 283 -23 Q 298 -24 313 11 Q 332 56 331 129 Q 325 253 326 375 L 326 412 Q 326 479 330 544 L 332 599 Q 332 690 354 764 Q 370 794 316 817 Q 283 836 263 830 Q 247 823 261 800 Q 282 773 283 739 Q 284 721 281 576 L 280 528 Q 279 465 276 381 L 274 332 Z" fill="black"></path>
				<path d="M 276 381 Q 188 327 110 274 Q 74 252 50 243 Q 37 236 35 228 Q 34 218 50 204 Q 71 188 96 181 Q 112 177 123 190 Q 198 271 274 332 L 326 375 Q 350 396 373 413 Q 395 426 405 443 Q 411 458 399 456 Q 390 456 326 412 L 276 381 Z" fill="red"></path>
				<path d="M 596 747 Q 627 725 661 697 Q 677 684 696 687 Q 708 688 712 704 Q 716 722 702 754 Q 693 776 658 787 Q 577 808 560 800 Q 554 794 558 780 Q 562 767 596 747 Z" fill="lightgray"></path>
				<path d="M 469 554 Q 432 547 459 530 Q 504 506 559 521 Q 671 546 790 574 Q 844 587 851 595 Q 860 604 855 612 Q 848 624 818 631 Q 787 637 757 624 Q 696 602 629 583 Q 556 564 469 554 Z" fill="lightgray"></path>
				<path d="M 533 412 Q 500 436 476 424 Q 464 418 471 406 Q 501 367 482 247 Q 455 139 387 89 Q 374 77 362 66 Q 352 56 362 55 Q 410 61 465 120 Q 532 189 537 293 Q 546 374 551 382 C 555 398 555 398 533 412 Z" fill="lightgray"></path>
				<path d="M 551 382 Q 572 383 589 394 Q 608 403 630 411 Q 646 418 652 411 Q 658 407 656 387 Q 629 255 639 186 Q 639 120 704 53 Q 749 17 854 21 Q 915 22 966 48 Q 991 64 977 92 Q 946 162 938 242 Q 934 252 928 252 Q 924 252 917 237 Q 898 117 875 102 Q 836 81 752 94 Q 737 98 730 107 Q 700 132 689 190 Q 677 250 700 331 Q 713 379 741 405 Q 774 432 691 462 Q 664 472 648 461 Q 617 439 533 412 C 505 402 522 375 551 382 Z" fill="lightgray"></path>
</g>
		<text x="40" y="140" font-size="128" fill="#999999">3</text></g>
		<g id="id0:id3:id3" transform="matrix(1.0,0,0,1.0,3072,0.0)">			<g stroke="lightgray" stroke-width="4" transform="scale(4, 4)"> <rect x="0" y="0" width="256" height="256" fill="white" stroke-width="4"/></g>
			<g transform="scale(0.92, -0.92) translate(60, -920)">					<path d="M 330 544 Q 415 574 418 577 Q 425 586 420 593 Q 413 603 383 608 Q 356 611 332 599 L 281 576 Q 197 548 133 533 Q 99 523 126 510 Q 171 491 221 510 Q 249 519 280 528 L 330 544 Z" fill="black"></path>
				<path d="M 274 332 Q 273 244 270 135 Q 269 111 256 102 Q 247 98 189 110 Q 156 123 159 113 Q 160 106 180 90 Q 238 39 252 12 Q 268 -21 283 -23 Q 298 -24 313 11 Q 332 56 331 129 Q 325 253 326 375 L 326 412 Q 326 479 330 544 L 332 599 Q 332 690 354 764 Q 370 794 316 817 Q 283 836 263 830 Q 247 823 261 800 Q 282 773 283 739 Q 284 721 281 576 L 280 528 Q 279 465 276 381 L 274 332 Z" fill="black"></path>
				<path d="M 276 381 Q 188 327 110 274 Q 74 252 50 243 Q 37 236 35 228 Q 34 218 50 204 Q 71 188 96 181 Q 112 177 123 190 Q 198 271 274 332 L 326 375 Q 350 396 373 413 Q 395 426 405 443 Q 411 458 399 456 Q 390 456 326 412 L 276 381 Z" fill="black"></path>
				<path d="M 596 747 Q 627 725 661 697 Q 677 684 696 687 Q 708 688 712 704 Q 716 722 702 754 Q 693 776 658 787 Q 577 808 560 800 Q 554 794 558 780 Q 562 767 596 747 Z" fill="red"></path>
				<path d="M 469 554 Q 432 547 459 530 Q 504 506 559 521 Q 671 546 790 574 Q 844 587 851 595 Q 860 604 855 612 Q 848 624 818 631 Q 787 637 757 624 Q 696 602 629 583 Q 556 564 469 554 Z" fill="lightgray"></path>
				<path d="M 533 412 Q 500 436 476 424 Q 464 418 471 406 Q 501 367 482 247 Q 455 139 387 89 Q 374 77 362 66 Q 352 56 362 55 Q 410 61 465 120 Q 532 189 537 293 Q 546 374 551 382 C 555 398 555 398 533 412 Z" fill="lightgray"></path>
				<path d="M 551 382 Q 572 383 589 394 Q 608 403 630 411 Q 646 418 652 411 Q 658 407 656 387 Q 629 255 639 186 Q 639 120 704 53 Q 749 17 854 21 Q 915 22 966 48 Q 991 64 977 92 Q 946 162 938 242 Q 934 252 928 252 Q 924 252 917 237 Q 898 117 875 102 Q 836 81 752 94 Q 737 98 730 107 Q 700 132 689 190 Q 677 250 700 331 Q 713 379 741 405 Q 774 432 691 462 Q 664 472 648 461 Q 617 439 533 412 C 505 402 522 375 551 382 Z" fill="lightgray"></path>
</g>
		<text x="40" y="140" font-size="128" fill="#999999">4</text></g>
		<g id="id0:id4:id4" transform="matrix(1.0,0,0,1.0,4096,0.0)">			<g stroke="lightgray" stroke-width="4" transform="scale(4, 4)"> <rect x="0" y="0" width="256" height="256" fill="white" stroke-width="4"/></g>
			<g transform="scale(0.92, -0.92) translate(60, -920)">					<path d="M 330 544 Q 415 574 418 577 Q 425 586 420 593 Q 413 603 383 608 Q 356 611 332 599 L 281 576 Q 197 548 133 533 Q 99 523 126 510 Q 171 491 221 510 Q 249 519 280 528 L 330 544 Z" fill="black"></path>
				<path d="M 274 332 Q 273 244 270 135 Q 269 111 256 102 Q 247 98 189 110 Q 156 123 159 113 Q 160 106 180 90 Q 238 39 252 12 Q 268 -21 283 -23 Q 298 -24 313 11 Q 332 56 331 129 Q 325 253 326 375 L 326 412 Q 326 479 330 544 L 332 599 Q 332 690 354 764 Q 370 794 316 817 Q 283 836 263 830 Q 247 823 261 800 Q 282 773 283 739 Q 284 721 281 576 L 280 528 Q 279 465 276 381 L 274 332 Z" fill="black"></path>
				<path d="M 276 381 Q 188 327 110 274 Q 74 252 50 243 Q 37 236 35 228 Q 34 218 50 204 Q 71 188 96 181 Q 112 177 123 190 Q 198 271 274 332 L 326 375 Q 350 396 373 413 Q 395 426 405 443 Q 411 458 399 456 Q 390 456 326 412 L 276 381 Z" fill="black"></path>
				<path d="M 596 747 Q 627 725 661 697 Q 677 684 696 687 Q 708 688 712 704 Q 716 722 702 754 Q 693 776 658 787 Q 577 808 560 800 Q 554 794 558 780 Q 562 767 596 747 Z" fill="black"></path>
				<path d="M 469 554 Q 432 547 459 530 Q 504 506 559 521 Q 671 546 790 574 Q 844 587 851 595 Q 860 604 855 612 Q 848 624 818 631 Q 787 637 757 624 Q 696 602 629 583 Q 556 564 469 554 Z" fill="red"></path>
				<path d="M 533 412 Q 500 436 476 424 Q 464 418 471 406 Q 501 367 482 247 Q 455 139 387 89 Q 374 77 362 66 Q 352 56 362 55 Q 410 61 465 120 Q 532 189 537 293 Q 546 374 551 382 C 555 398 555 398 533 412 Z" fill="lightgray"></path>
				<path d="M 551 382 Q 572 383 589 394 Q 608 403 630 411 Q 646 418 652 411 Q 658 407 656 387 Q 629 255 639 186 Q 639 120 704 53 Q 749 17 854 21 Q 915 22 966 48 Q 991 64 977 92 Q 946 162 938 242 Q 934 252 928 252 Q 924 252 917 237 Q 898 117 875 102 Q 836 81 752 94 Q 737 98 730 107 Q 700 132 689 190 Q 677 250 700 331 Q 713 379 741 405 Q 774 432 691 462 Q 664 472 648 461 Q 617 439 533 412 C 505 402 522 375 551 382 Z" fill="lightgray"></path>
</g>
		<text x="40" y="140" font-size="128" fill="#999999">5</text></g>
</g>
	<g id="id1:id1" transform="translate(0.0,1024)">
		<g id="id1:id0:id0" transform="matrix(1.0,0,0,1.0,0,0.0)">			<g stroke="lightgray" stroke-width="4" transform="scale(4, 4)"> <rect x="0" y="0" width="256" height="256" fill="white" stroke-width="4"/></g>
			<g transform="scale(0.92, -0.92) translate(60, -920)">					<path d="M 330 544 Q 415 574 418 577 Q 425 586 420 593 Q 413 603 383 608 Q 356 611 332 599 L 281 576 Q 197 548 133 533 Q 99 523 126 510 Q 171 491 221 510 Q 249 519 280 528 L 330 544 Z" fill="black"></path>
				<path d="M 274 332 Q 273 244 270 135 Q 269 111 256 102 Q 247 98 189 110 Q 156 123 159 113 Q 160 106 180 90 Q 238 39 252 12 Q 268 -21 283 -23 Q 298 -24 313 11 Q 332 56 331 129 Q 325 253 326 375 L 326 412 Q 326 479 330 544 L 332 599 Q 332 690 354 764 Q 370 794 316 817 Q 283 836 263 830 Q 247 823 261 800 Q 282 773 283 739 Q 284 721 281 576 L 280 528 Q 279 465 276 381 L 274 332 Z" fill="black"></path>
				<path d="M 276 381 Q 188 327 110 274 Q 74 252 50 243 Q 37 236 35 228 Q 34 218 50 204 Q 71 188 96 181 Q 112 177 123 190 Q 198 271 274 332 L 326 375 Q 350 396 373 413 Q 395 426 405 443 Q 411 458 399 456 Q 390 456 326 412 L 276 381 Z" fill="black"></path>
				<path d="M 596 747 Q 627 725 661 697 Q 677 684 696 687 Q 708 688 712 704 Q 716 722 702 754 Q 693 776 658 787 Q 577 808 560 800 Q 554 794 558 780 Q 562 767 596 747 Z" fill="black"></path>
				<path d="M 469 554 Q 432 547 459 530 Q 504 506 559 521 Q 671 546 790 574 Q 844 587 851 595 Q 860 604 855 612 Q 848 624 818 631 Q 787 637 757 624 Q 696 602 629 583 Q 556 564 469 554 Z" fill="black"></path>
				<path d="M 533 412 Q 500 436 476 424 Q 464 418 471 406 Q 501 367 482 247 Q 455 139 387 89 Q 374 77 362 66 Q 352 56 362 55 Q 410 61 465 120 Q 532 189 537 293 Q 546 374 551 382 C 555 398 555 398 533 412 Z" fill="red"></path>
				<path d="M 551 382 Q 572 383 589 394 Q 608 403 630 411 Q 646 418 652 411 Q 658 407 656 387 Q 629 255 639 186 Q 639 120 704 53 Q 749 17 854 21 Q 915 22 966 48 Q 991 64 977 92 Q 946 162 938 242 Q 934 252 928 252 Q 924 252 917 237 Q 898 117 875 102 Q 836 81 752 94 Q 737 98 730 107 Q 700 132 689 190 Q 677 250 700 331 Q 713 379 741 405 Q 774 432 691 462 Q 664 472 648 461 Q 617 439 533 412 C 505 402 522 375 551 382 Z" fill="lightgray"></path>
</g>
		<text x="40" y="140" font-size="128" fill="#999999">6</text></g>
		<g id="id1:id1:id1" transform="matrix(1.0,0,0,1.0,1024,0.0)">			<g stroke="lightgray" stroke-width="4" transform="scale(4, 4)"> <rect x="0" y="0" width="256" height="256" fill="white" stroke-width="4"/></g>
			<g transform="scale(0.92, -0.92) translate(60, -920)">					<path d="M 330 544 Q 415 574 418 577 Q 425 586 420 593 Q 413 603 383 608 Q 356 611 332 599 L 281 576 Q 197 548 133 533 Q 99 523 126 510 Q 171 491 221 510 Q 249 519 280 528 L 330 544 Z" fill="black"></path>
				<path d="M 274 332 Q 273 244 270 135 Q 269 111 256 102 Q 247 98 189 110 Q 156 123 159 113 Q 160 106 180 90 Q 238 39 252 12 Q 268 -21 283 -23 Q 298 -24 313 11 Q 332 56 331 129 Q 325 253 326 375 L 326 412 Q 326 479 330 544 L 332 599 Q 332 690 354 764 Q 370 794 316 817 Q 283 836 263 830 Q 247 823 261 800 Q 282 773 283 739 Q 284 721 281 576 L 280 528 Q 279 465 276 381 L 274 332 Z" fill="black"></path>
				<path d="M 276 381 Q 188 327 110 274 Q 74 252 50 243 Q 37 236 35 228 Q 34 218 50 204 Q 71 188 96 181 Q 112 177 123 190 Q 198 271 274 332 L 326 375 Q 350 396 373 413 Q 395 426 405 443 Q 411 458 399 456 Q 390 456 326 412 L 276 381 Z" fill="black"></path>
				<path d="M 596 747 Q 627 725 661 697 Q 677 684 696 687 Q 708 688 712 704 Q 716 722 702 754 Q 693 776 658 787 Q 577 808 560 800 Q 554 794 558 780 Q 562 767 596 747 Z" fill="black"></path>
				<path d="M 469 554 Q 432 547 459 530 Q 504 506 559 521 Q 671 546 790 574 Q 844 587 851 595 Q 860 604 855 612 Q 848 624 818 631 Q 787 637 757 624 Q 696 602 629 583 Q 556 564 469 554 Z" fill="black"></path>
				<path d="M 533 412 Q 500 436 476 424 Q 464 418 471 406 Q 501 367 482 247 Q 455 139 387 89 Q 374 77 362 66 Q 352 56 362 55 Q 410 61 465 120 Q 532 189 537 293 Q 546 374 551 382 C 555 398 555 398 533 412 Z" fill="black"></path>
				<path d="M 551 382 Q 572 383 589 394 Q 608 403 630 411 Q 646 418 652 411 Q 658 407 656 387 Q 629 255 639 186 Q 639 120 704 53 Q 749 17 854 21 Q 915 22 966 48 Q 991 64 977 92 Q 946 162 938 242 Q 934 252 928 252 Q 924 252 917 237 Q 898 117 875 102 Q 836 81 752 94 Q 737 98 730 107 Q 700 132 689 190 Q 677 250 700 331 Q 713 379 741 405 Q 774 432 691 462 Q 664 472 648 461 Q 617 439 533 412 C 505 402 522 375 551 382 Z" fill="red"></path>
</g>
		<text x="40" y="140" font-size="128" fill="#999999">7</text></g>
		<g id="id1:id2:id2" transform="matrix(1.0,0,0,1.0,2048,0.0)">			<g stroke="white" stroke-width="4" transform="scale(4, 4)"> <rect x="1" y="1" width="255" height="255" fill="white" stroke-width="0"/></g>
</g>
		<g id="id1:id3:id3" transform="matrix(1.0,0,0,1.0,3072,0.0)">			<g stroke="white" stroke-width="4" transform="scale(4, 4)"> <rect x="1" y="1" width="255" height="255" fill="white" stroke-width="0"/></g>
</g>
		<g id="id1:id4:id4" transform="matrix(1.0,0,0,1.0,4096,0.0)">			<g stroke="white" stroke-width="4" transform="scale(4, 4)"> <rect x="1" y="1" width="255" height="255" fill="white" stroke-width="0"/></g>
</g>
</g>
</svg>
