<?xml version="1.0" standalone="no"?>
<!DOCTYPE svg PUBLIC "-//W3C//DTD SVG 1.1//EN"
 "http://www.w3.org/Graphics/SVG/1.1/DTD/svg11.dtd">
<!-- generate by Japanese dictionary app com.asnsami.kanjidictionary -->

<svg xmlns="http://www.w3.org/2000/svg" xmlns:sodipodi="http://sodipodi.sourceforge.net/DTD/sodipodi-0.dtd" version="1.1" width="640" height="256" viewBox="0 0 5120 2048">
	<g id="id0:id0" transform="translate(0.0,0)">
		<g id="id0:id0:id0" transform="matrix(1.0,0,0,1.0,0,0.0)">			<g stroke="lightgray" stroke-width="4" transform="scale(4, 4)"> <rect x="0" y="0" width="256" height="256" fill="white" stroke-width="4"/></g>
			<g transform="scale(0.92, -0.92) translate(60, -920)">					<path d="M 326 498 Q 344 504 363 508 Q 399 518 404 523 Q 413 532 408 540 Q 401 552 370 558 Q 348 562 329 556 L 281 538 Q 172 507 116 498 Q 79 491 106 475 Q 151 451 216 471 Q 246 480 279 486 L 326 498 Z" fill="red"></path>
				<path d="M 274 337 Q 271 244 267 125 Q 266 101 253 93 Q 247 89 183 106 Q 153 119 155 109 Q 156 102 174 87 Q 232 35 246 7 Q 262 -26 278 -28 Q 291 -29 307 4 Q 326 47 326 118 Q 322 248 322 378 L 323 409 Q 323 455 326 498 L 329 556 Q 335 685 352 738 Q 368 766 316 789 Q 285 808 266 801 Q 248 795 263 773 Q 282 748 284 714 Q 285 695 281 538 L 279 486 Q 278 438 275 378 L 274 337 Z" fill="lightgray"></path>
				<path d="M 275 378 Q 46 239 44 230 Q 43 220 59 207 Q 78 192 103 186 Q 113 183 138 206 Q 187 264 274 337 L 322 378 Q 328 384 335 389 Q 353 402 361 416 Q 367 429 356 428 Q 344 427 323 409 L 275 378 Z" fill="lightgray"></path>
				<path d="M 634 672 Q 647 694 661 707 Q 670 719 664 732 Q 660 745 630 767 Q 602 785 583 784 Q 564 781 573 759 Q 588 728 577 701 Q 543 610 491 525 Q 440 443 370 352 Q 360 340 358 334 Q 355 324 369 326 Q 429 341 590 594 Q 611 639 620 649 L 634 672 Z" fill="lightgray"></path>
				<path d="M 620 649 Q 696 537 797 420 Q 815 401 844 401 Q 946 405 977 410 Q 987 411 988 417 Q 988 421 975 429 Q 830 486 766 543 Q 703 598 634 672 C 613 694 603 674 620 649 Z" fill="lightgray"></path>
				<path d="M 614 364 Q 662 377 713 387 Q 743 394 748 399 Q 757 408 752 416 Q 745 428 714 435 Q 690 438 596 409 Q 509 393 493 390 Q 456 383 483 366 Q 517 351 566 353 L 614 364 Z" fill="lightgray"></path>
				<path d="M 628 211 Q 752 236 759 241 Q 768 248 763 256 Q 756 268 728 275 Q 704 281 630 258 L 576 245 Q 533 236 481 232 Q 447 226 471 210 Q 510 186 576 201 L 628 211 Z" fill="lightgray"></path>
				<path d="M 623 80 Q 624 150 628 211 L 630 258 Q 631 279 632 298 Q 636 344 631 350 Q 622 359 614 364 C 590 382 556 381 566 353 Q 567 352 568 350 Q 572 334 576 245 L 576 201 Q 576 152 578 76 C 579 46 623 50 623 80 Z" fill="lightgray"></path>
				<path d="M 578 76 Q 490 67 393 57 Q 372 56 387 39 Q 400 26 417 19 Q 438 13 453 17 Q 636 60 864 42 Q 864 43 866 42 Q 885 41 890 50 Q 896 60 880 75 Q 828 115 767 102 Q 709 93 623 80 L 578 76 Z" fill="lightgray"></path>
</g>
		<text x="40" y="140" font-size="128" fill="#999999">1</text></g>
		<g id="id0:id1:id1" transform="matrix(1.0,0,0,1.0,1024,0.0)">			<g stroke="lightgray" stroke-width="4" transform="scale(4, 4)"> <rect x="0" y="0" width="256" height="256" fill="white" stroke-width="4"/></g>
			<g transform="scale(0.92, -0.92) translate(60, -920)">					<path d="M 326 498 Q 344 504 363 508 Q 399 518 404 523 Q 413 532 408 540 Q 401 552 370 558 Q 348 562 329 556 L 281 538 Q 172 507 116 498 Q 79 491 106 475 Q 151 451 216 471 Q 246 480 279 486 L 326 498 Z" fill="black"></path>
				<path d="M 274 337 Q 271 244 267 125 Q 266 101 253 93 Q 247 89 183 106 Q 153 119 155 109 Q 156 102 174 87 Q 232 35 246 7 Q 262 -26 278 -28 Q 291 -29 307 4 Q 326 47 326 118 Q 322 248 322 378 L 323 409 Q 323 455 326 498 L 329 556 Q 335 685 352 738 Q 368 766 316 789 Q 285 808 266 801 Q 248 795 263 773 Q 282 748 284 714 Q 285 695 281 538 L 279 486 Q 278 438 275 378 L 274 337 Z" fill="red"></path>
				<path d="M 275 378 Q 46 239 44 230 Q 43 220 59 207 Q 78 192 103 186 Q 113 183 138 206 Q 187 264 274 337 L 322 378 Q 328 384 335 389 Q 353 402 361 416 Q 367 429 356 428 Q 344 427 323 409 L 275 378 Z" fill="lightgray"></path>
				<path d="M 634 672 Q 647 694 661 707 Q 670 719 664 732 Q 660 745 630 767 Q 602 785 583 784 Q 564 781 573 759 Q 588 728 577 701 Q 543 610 491 525 Q 440 443 370 352 Q 360 340 358 334 Q 355 324 369 326 Q 429 341 590 594 Q 611 639 620 649 L 634 672 Z" fill="lightgray"></path>
				<path d="M 620 649 Q 696 537 797 420 Q 815 401 844 401 Q 946 405 977 410 Q 987 411 988 417 Q 988 421 975 429 Q 830 486 766 543 Q 703 598 634 672 C 613 694 603 674 620 649 Z" fill="lightgray"></path>
				<path d="M 614 364 Q 662 377 713 387 Q 743 394 748 399 Q 757 408 752 416 Q 745 428 714 435 Q 690 438 596 409 Q 509 393 493 390 Q 456 383 483 366 Q 517 351 566 353 L 614 364 Z" fill="lightgray"></path>
				<path d="M 628 211 Q 752 236 759 241 Q 768 248 763 256 Q 756 268 728 275 Q 704 281 630 258 L 576 245 Q 533 236 481 232 Q 447 226 471 210 Q 510 186 576 201 L 628 211 Z" fill="lightgray"></path>
				<path d="M 623 80 Q 624 150 628 211 L 630 258 Q 631 279 632 298 Q 636 344 631 350 Q 622 359 614 364 C 590 382 556 381 566 353 Q 567 352 568 350 Q 572 334 576 245 L 576 201 Q 576 152 578 76 C 579 46 623 50 623 80 Z" fill="lightgray"></path>
				<path d="M 578 76 Q 490 67 393 57 Q 372 56 387 39 Q 400 26 417 19 Q 438 13 453 17 Q 636 60 864 42 Q 864 43 866 42 Q 885 41 890 50 Q 896 60 880 75 Q 828 115 767 102 Q 709 93 623 80 L 578 76 Z" fill="lightgray"></path>
</g>
		<text x="40" y="140" font-size="128" fill="#999999">2</text></g>
		<g id="id0:id2:id2" transform="matrix(1.0,0,0,1.0,2048,0.0)">			<g stroke="lightgray" stroke-width="4" transform="scale(4, 4)"> <rect x="0" y="0" width="256" height="256" fill="white" stroke-width="4"/></g>
			<g transform="scale(0.92, -0.92) translate(60, -920)">					<path d="M 326 498 Q 344 504 363 508 Q 399 518 404 523 Q 413 532 408 540 Q 401 552 370 558 Q 348 562 329 556 L 281 538 Q 172 507 116 498 Q 79 491 106 475 Q 151 451 216 471 Q 246 480 279 486 L 326 498 Z" fill="black"></path>
				<path d="M 274 337 Q 271 244 267 125 Q 266 101 253 93 Q 247 89 183 106 Q 153 119 155 109 Q 156 102 174 87 Q 232 35 246 7 Q 262 -26 278 -28 Q 291 -29 307 4 Q 326 47 326 118 Q 322 248 322 378 L 323 409 Q 323 455 326 498 L 329 556 Q 335 685 352 738 Q 368 766 316 789 Q 285 808 266 801 Q 248 795 263 773 Q 282 748 284 714 Q 285 695 281 538 L 279 486 Q 278 438 275 378 L 274 337 Z" fill="black"></path>
				<path d="M 275 378 Q 46 239 44 230 Q 43 220 59 207 Q 78 192 103 186 Q 113 183 138 206 Q 187 264 274 337 L 322 378 Q 328 384 335 389 Q 353 402 361 416 Q 367 429 356 428 Q 344 427 323 409 L 275 378 Z" fill="red"></path>
				<path d="M 634 672 Q 647 694 661 707 Q 670 719 664 732 Q 660 745 630 767 Q 602 785 583 784 Q 564 781 573 759 Q 588 728 577 701 Q 543 610 491 525 Q 440 443 370 352 Q 360 340 358 334 Q 355 324 369 326 Q 429 341 590 594 Q 611 639 620 649 L 634 672 Z" fill="lightgray"></path>
				<path d="M 620 649 Q 696 537 797 420 Q 815 401 844 401 Q 946 405 977 410 Q 987 411 988 417 Q 988 421 975 429 Q 830 486 766 543 Q 703 598 634 672 C 613 694 603 674 620 649 Z" fill="lightgray"></path>
				<path d="M 614 364 Q 662 377 713 387 Q 743 394 748 399 Q 757 408 752 416 Q 745 428 714 435 Q 690 438 596 409 Q 509 393 493 390 Q 456 383 483 366 Q 517 351 566 353 L 614 364 Z" fill="lightgray"></path>
				<path d="M 628 211 Q 752 236 759 241 Q 768 248 763 256 Q 756 268 728 275 Q 704 281 630 258 L 576 245 Q 533 236 481 232 Q 447 226 471 210 Q 510 186 576 201 L 628 211 Z" fill="lightgray"></path>
				<path d="M 623 80 Q 624 150 628 211 L 630 258 Q 631 279 632 298 Q 636 344 631 350 Q 622 359 614 364 C 590 382 556 381 566 353 Q 567 352 568 350 Q 572 334 576 245 L 576 201 Q 576 152 578 76 C 579 46 623 50 623 80 Z" fill="lightgray"></path>
				<path d="M 578 76 Q 490 67 393 57 Q 372 56 387 39 Q 400 26 417 19 Q 438 13 453 17 Q 636 60 864 42 Q 864 43 866 42 Q 885 41 890 50 Q 896 60 880 75 Q 828 115 767 102 Q 709 93 623 80 L 578 76 Z" fill="lightgray"></path>
</g>
		<text x="40" y="140" font-size="128" fill="#999999">3</text></g>
		<g id="id0:id3:id3" transform="matrix(1.0,0,0,1.0,3072,0.0)">			<g stroke="lightgray" stroke-width="4" transform="scale(4, 4)"> <rect x="0" y="0" width="256" height="256" fill="white" stroke-width="4"/></g>
			<g transform="scale(0.92, -0.92) translate(60, -920)">					<path d="M 326 498 Q 344 504 363 508 Q 399 518 404 523 Q 413 532 408 540 Q 401 552 370 558 Q 348 562 329 556 L 281 538 Q 172 507 116 498 Q 79 491 106 475 Q 151 451 216 471 Q 246 480 279 486 L 326 498 Z" fill="black"></path>
				<path d="M 274 337 Q 271 244 267 125 Q 266 101 253 93 Q 247 89 183 106 Q 153 119 155 109 Q 156 102 174 87 Q 232 35 246 7 Q 262 -26 278 -28 Q 291 -29 307 4 Q 326 47 326 118 Q 322 248 322 378 L 323 409 Q 323 455 326 498 L 329 556 Q 335 685 352 738 Q 368 766 316 789 Q 285 808 266 801 Q 248 795 263 773 Q 282 748 284 714 Q 285 695 281 538 L 279 486 Q 278 438 275 378 L 274 337 Z" fill="black"></path>
				<path d="M 275 378 Q 46 239 44 230 Q 43 220 59 207 Q 78 192 103 186 Q 113 183 138 206 Q 187 264 274 337 L 322 378 Q 328 384 335 389 Q 353 402 361 416 Q 367 429 356 428 Q 344 427 323 409 L 275 378 Z" fill="black"></path>
				<path d="M 634 672 Q 647 694 661 707 Q 670 719 664 732 Q 660 745 630 767 Q 602 785 583 784 Q 564 781 573 759 Q 588 728 577 701 Q 543 610 491 525 Q 440 443 370 352 Q 360 340 358 334 Q 355 324 369 326 Q 429 341 590 594 Q 611 639 620 649 L 634 672 Z" fill="red"></path>
				<path d="M 620 649 Q 696 537 797 420 Q 815 401 844 401 Q 946 405 977 410 Q 987 411 988 417 Q 988 421 975 429 Q 830 486 766 543 Q 703 598 634 672 C 613 694 603 674 620 649 Z" fill="lightgray"></path>
				<path d="M 614 364 Q 662 377 713 387 Q 743 394 748 399 Q 757 408 752 416 Q 745 428 714 435 Q 690 438 596 409 Q 509 393 493 390 Q 456 383 483 366 Q 517 351 566 353 L 614 364 Z" fill="lightgray"></path>
				<path d="M 628 211 Q 752 236 759 241 Q 768 248 763 256 Q 756 268 728 275 Q 704 281 630 258 L 576 245 Q 533 236 481 232 Q 447 226 471 210 Q 510 186 576 201 L 628 211 Z" fill="lightgray"></path>
				<path d="M 623 80 Q 624 150 628 211 L 630 258 Q 631 279 632 298 Q 636 344 631 350 Q 622 359 614 364 C 590 382 556 381 566 353 Q 567 352 568 350 Q 572 334 576 245 L 576 201 Q 576 152 578 76 C 579 46 623 50 623 80 Z" fill="lightgray"></path>
				<path d="M 578 76 Q 490 67 393 57 Q 372 56 387 39 Q 400 26 417 19 Q 438 13 453 17 Q 636 60 864 42 Q 864 43 866 42 Q 885 41 890 50 Q 896 60 880 75 Q 828 115 767 102 Q 709 93 623 80 L 578 76 Z" fill="lightgray"></path>
</g>
		<text x="40" y="140" font-size="128" fill="#999999">4</text></g>
		<g id="id0:id4:id4" transform="matrix(1.0,0,0,1.0,4096,0.0)">			<g stroke="lightgray" stroke-width="4" transform="scale(4, 4)"> <rect x="0" y="0" width="256" height="256" fill="white" stroke-width="4"/></g>
			<g transform="scale(0.92, -0.92) translate(60, -920)">					<path d="M 326 498 Q 344 504 363 508 Q 399 518 404 523 Q 413 532 408 540 Q 401 552 370 558 Q 348 562 329 556 L 281 538 Q 172 507 116 498 Q 79 491 106 475 Q 151 451 216 471 Q 246 480 279 486 L 326 498 Z" fill="black"></path>
				<path d="M 274 337 Q 271 244 267 125 Q 266 101 253 93 Q 247 89 183 106 Q 153 119 155 109 Q 156 102 174 87 Q 232 35 246 7 Q 262 -26 278 -28 Q 291 -29 307 4 Q 326 47 326 118 Q 322 248 322 378 L 323 409 Q 323 455 326 498 L 329 556 Q 335 685 352 738 Q 368 766 316 789 Q 285 808 266 801 Q 248 795 263 773 Q 282 748 284 714 Q 285 695 281 538 L 279 486 Q 278 438 275 378 L 274 337 Z" fill="black"></path>
				<path d="M 275 378 Q 46 239 44 230 Q 43 220 59 207 Q 78 192 103 186 Q 113 183 138 206 Q 187 264 274 337 L 322 378 Q 328 384 335 389 Q 353 402 361 416 Q 367 429 356 428 Q 344 427 323 409 L 275 378 Z" fill="black"></path>
				<path d="M 634 672 Q 647 694 661 707 Q 670 719 664 732 Q 660 745 630 767 Q 602 785 583 784 Q 564 781 573 759 Q 588 728 577 701 Q 543 610 491 525 Q 440 443 370 352 Q 360 340 358 334 Q 355 324 369 326 Q 429 341 590 594 Q 611 639 620 649 L 634 672 Z" fill="black"></path>
				<path d="M 620 649 Q 696 537 797 420 Q 815 401 844 401 Q 946 405 977 410 Q 987 411 988 417 Q 988 421 975 429 Q 830 486 766 543 Q 703 598 634 672 C 613 694 603 674 620 649 Z" fill="red"></path>
				<path d="M 614 364 Q 662 377 713 387 Q 743 394 748 399 Q 757 408 752 416 Q 745 428 714 435 Q 690 438 596 409 Q 509 393 493 390 Q 456 383 483 366 Q 517 351 566 353 L 614 364 Z" fill="lightgray"></path>
				<path d="M 628 211 Q 752 236 759 241 Q 768 248 763 256 Q 756 268 728 275 Q 704 281 630 258 L 576 245 Q 533 236 481 232 Q 447 226 471 210 Q 510 186 576 201 L 628 211 Z" fill="lightgray"></path>
				<path d="M 623 80 Q 624 150 628 211 L 630 258 Q 631 279 632 298 Q 636 344 631 350 Q 622 359 614 364 C 590 382 556 381 566 353 Q 567 352 568 350 Q 572 334 576 245 L 576 201 Q 576 152 578 76 C 579 46 623 50 623 80 Z" fill="lightgray"></path>
				<path d="M 578 76 Q 490 67 393 57 Q 372 56 387 39 Q 400 26 417 19 Q 438 13 453 17 Q 636 60 864 42 Q 864 43 866 42 Q 885 41 890 50 Q 896 60 880 75 Q 828 115 767 102 Q 709 93 623 80 L 578 76 Z" fill="lightgray"></path>
</g>
		<text x="40" y="140" font-size="128" fill="#999999">5</text></g>
</g>
	<g id="id1:id1" transform="translate(0.0,1024)">
		<g id="id1:id0:id0" transform="matrix(1.0,0,0,1.0,0,0.0)">			<g stroke="lightgray" stroke-width="4" transform="scale(4, 4)"> <rect x="0" y="0" width="256" height="256" fill="white" stroke-width="4"/></g>
			<g transform="scale(0.92, -0.92) translate(60, -920)">					<path d="M 326 498 Q 344 504 363 508 Q 399 518 404 523 Q 413 532 408 540 Q 401 552 370 558 Q 348 562 329 556 L 281 538 Q 172 507 116 498 Q 79 491 106 475 Q 151 451 216 471 Q 246 480 279 486 L 326 498 Z" fill="black"></path>
				<path d="M 274 337 Q 271 244 267 125 Q 266 101 253 93 Q 247 89 183 106 Q 153 119 155 109 Q 156 102 174 87 Q 232 35 246 7 Q 262 -26 278 -28 Q 291 -29 307 4 Q 326 47 326 118 Q 322 248 322 378 L 323 409 Q 323 455 326 498 L 329 556 Q 335 685 352 738 Q 368 766 316 789 Q 285 808 266 801 Q 248 795 263 773 Q 282 748 284 714 Q 285 695 281 538 L 279 486 Q 278 438 275 378 L 274 337 Z" fill="black"></path>
				<path d="M 275 378 Q 46 239 44 230 Q 43 220 59 207 Q 78 192 103 186 Q 113 183 138 206 Q 187 264 274 337 L 322 378 Q 328 384 335 389 Q 353 402 361 416 Q 367 429 356 428 Q 344 427 323 409 L 275 378 Z" fill="black"></path>
				<path d="M 634 672 Q 647 694 661 707 Q 670 719 664 732 Q 660 745 630 767 Q 602 785 583 784 Q 564 781 573 759 Q 588 728 577 701 Q 543 610 491 525 Q 440 443 370 352 Q 360 340 358 334 Q 355 324 369 326 Q 429 341 590 594 Q 611 639 620 649 L 634 672 Z" fill="black"></path>
				<path d="M 620 649 Q 696 537 797 420 Q 815 401 844 401 Q 946 405 977 410 Q 987 411 988 417 Q 988 421 975 429 Q 830 486 766 543 Q 703 598 634 672 C 613 694 603 674 620 649 Z" fill="black"></path>
				<path d="M 614 364 Q 662 377 713 387 Q 743 394 748 399 Q 757 408 752 416 Q 745 428 714 435 Q 690 438 596 409 Q 509 393 493 390 Q 456 383 483 366 Q 517 351 566 353 L 614 364 Z" fill="red"></path>
				<path d="M 628 211 Q 752 236 759 241 Q 768 248 763 256 Q 756 268 728 275 Q 704 281 630 258 L 576 245 Q 533 236 481 232 Q 447 226 471 210 Q 510 186 576 201 L 628 211 Z" fill="lightgray"></path>
				<path d="M 623 80 Q 624 150 628 211 L 630 258 Q 631 279 632 298 Q 636 344 631 350 Q 622 359 614 364 C 590 382 556 381 566 353 Q 567 352 568 350 Q 572 334 576 245 L 576 201 Q 576 152 578 76 C 579 46 623 50 623 80 Z" fill="lightgray"></path>
				<path d="M 578 76 Q 490 67 393 57 Q 372 56 387 39 Q 400 26 417 19 Q 438 13 453 17 Q 636 60 864 42 Q 864 43 866 42 Q 885 41 890 50 Q 896 60 880 75 Q 828 115 767 102 Q 709 93 623 80 L 578 76 Z" fill="lightgray"></path>
</g>
		<text x="40" y="140" font-size="128" fill="#999999">6</text></g>
		<g id="id1:id1:id1" transform="matrix(1.0,0,0,1.0,1024,0.0)">			<g stroke="lightgray" stroke-width="4" transform="scale(4, 4)"> <rect x="0" y="0" width="256" height="256" fill="white" stroke-width="4"/></g>
			<g transform="scale(0.92, -0.92) translate(60, -920)">					<path d="M 326 498 Q 344 504 363 508 Q 399 518 404 523 Q 413 532 408 540 Q 401 552 370 558 Q 348 562 329 556 L 281 538 Q 172 507 116 498 Q 79 491 106 475 Q 151 451 216 471 Q 246 480 279 486 L 326 498 Z" fill="black"></path>
				<path d="M 274 337 Q 271 244 267 125 Q 266 101 253 93 Q 247 89 183 106 Q 153 119 155 109 Q 156 102 174 87 Q 232 35 246 7 Q 262 -26 278 -28 Q 291 -29 307 4 Q 326 47 326 118 Q 322 248 322 378 L 323 409 Q 323 455 326 498 L 329 556 Q 335 685 352 738 Q 368 766 316 789 Q 285 808 266 801 Q 248 795 263 773 Q 282 748 284 714 Q 285 695 281 538 L 279 486 Q 278 438 275 378 L 274 337 Z" fill="black"></path>
				<path d="M 275 378 Q 46 239 44 230 Q 43 220 59 207 Q 78 192 103 186 Q 113 183 138 206 Q 187 264 274 337 L 322 378 Q 328 384 335 389 Q 353 402 361 416 Q 367 429 356 428 Q 344 427 323 409 L 275 378 Z" fill="black"></path>
				<path d="M 634 672 Q 647 694 661 707 Q 670 719 664 732 Q 660 745 630 767 Q 602 785 583 784 Q 564 781 573 759 Q 588 728 577 701 Q 543 610 491 525 Q 440 443 370 352 Q 360 340 358 334 Q 355 324 369 326 Q 429 341 590 594 Q 611 639 620 649 L 634 672 Z" fill="black"></path>
				<path d="M 620 649 Q 696 537 797 420 Q 815 401 844 401 Q 946 405 977 410 Q 987 411 988 417 Q 988 421 975 429 Q 830 486 766 543 Q 703 598 634 672 C 613 694 603 674 620 649 Z" fill="black"></path>
				<path d="M 614 364 Q 662 377 713 387 Q 743 394 748 399 Q 757 408 752 416 Q 745 428 714 435 Q 690 438 596 409 Q 509 393 493 390 Q 456 383 483 366 Q 517 351 566 353 L 614 364 Z" fill="black"></path>
				<path d="M 628 211 Q 752 236 759 241 Q 768 248 763 256 Q 756 268 728 275 Q 704 281 630 258 L 576 245 Q 533 236 481 232 Q 447 226 471 210 Q 510 186 576 201 L 628 211 Z" fill="red"></path>
				<path d="M 623 80 Q 624 150 628 211 L 630 258 Q 631 279 632 298 Q 636 344 631 350 Q 622 359 614 364 C 590 382 556 381 566 353 Q 567 352 568 350 Q 572 334 576 245 L 576 201 Q 576 152 578 76 C 579 46 623 50 623 80 Z" fill="lightgray"></path>
				<path d="M 578 76 Q 490 67 393 57 Q 372 56 387 39 Q 400 26 417 19 Q 438 13 453 17 Q 636 60 864 42 Q 864 43 866 42 Q 885 41 890 50 Q 896 60 880 75 Q 828 115 767 102 Q 709 93 623 80 L 578 76 Z" fill="lightgray"></path>
</g>
		<text x="40" y="140" font-size="128" fill="#999999">7</text></g>
		<g id="id1:id2:id2" transform="matrix(1.0,0,0,1.0,2048,0.0)">			<g stroke="lightgray" stroke-width="4" transform="scale(4, 4)"> <rect x="0" y="0" width="256" height="256" fill="white" stroke-width="4"/></g>
			<g transform="scale(0.92, -0.92) translate(60, -920)">					<path d="M 326 498 Q 344 504 363 508 Q 399 518 404 523 Q 413 532 408 540 Q 401 552 370 558 Q 348 562 329 556 L 281 538 Q 172 507 116 498 Q 79 491 106 475 Q 151 451 216 471 Q 246 480 279 486 L 326 498 Z" fill="black"></path>
				<path d="M 274 337 Q 271 244 267 125 Q 266 101 253 93 Q 247 89 183 106 Q 153 119 155 109 Q 156 102 174 87 Q 232 35 246 7 Q 262 -26 278 -28 Q 291 -29 307 4 Q 326 47 326 118 Q 322 248 322 378 L 323 409 Q 323 455 326 498 L 329 556 Q 335 685 352 738 Q 368 766 316 789 Q 285 808 266 801 Q 248 795 263 773 Q 282 748 284 714 Q 285 695 281 538 L 279 486 Q 278 438 275 378 L 274 337 Z" fill="black"></path>
				<path d="M 275 378 Q 46 239 44 230 Q 43 220 59 207 Q 78 192 103 186 Q 113 183 138 206 Q 187 264 274 337 L 322 378 Q 328 384 335 389 Q 353 402 361 416 Q 367 429 356 428 Q 344 427 323 409 L 275 378 Z" fill="black"></path>
				<path d="M 634 672 Q 647 694 661 707 Q 670 719 664 732 Q 660 745 630 767 Q 602 785 583 784 Q 564 781 573 759 Q 588 728 577 701 Q 543 610 491 525 Q 440 443 370 352 Q 360 340 358 334 Q 355 324 369 326 Q 429 341 590 594 Q 611 639 620 649 L 634 672 Z" fill="black"></path>
				<path d="M 620 649 Q 696 537 797 420 Q 815 401 844 401 Q 946 405 977 410 Q 987 411 988 417 Q 988 421 975 429 Q 830 486 766 543 Q 703 598 634 672 C 613 694 603 674 620 649 Z" fill="black"></path>
				<path d="M 614 364 Q 662 377 713 387 Q 743 394 748 399 Q 757 408 752 416 Q 745 428 714 435 Q 690 438 596 409 Q 509 393 493 390 Q 456 383 483 366 Q 517 351 566 353 L 614 364 Z" fill="black"></path>
				<path d="M 628 211 Q 752 236 759 241 Q 768 248 763 256 Q 756 268 728 275 Q 704 281 630 258 L 576 245 Q 533 236 481 232 Q 447 226 471 210 Q 510 186 576 201 L 628 211 Z" fill="black"></path>
				<path d="M 623 80 Q 624 150 628 211 L 630 258 Q 631 279 632 298 Q 636 344 631 350 Q 622 359 614 364 C 590 382 556 381 566 353 Q 567 352 568 350 Q 572 334 576 245 L 576 201 Q 576 152 578 76 C 579 46 623 50 623 80 Z" fill="red"></path>
				<path d="M 578 76 Q 490 67 393 57 Q 372 56 387 39 Q 400 26 417 19 Q 438 13 453 17 Q 636 60 864 42 Q 864 43 866 42 Q 885 41 890 50 Q 896 60 880 75 Q 828 115 767 102 Q 709 93 623 80 L 578 76 Z" fill="lightgray"></path>
</g>
		<text x="40" y="140" font-size="128" fill="#999999">8</text></g>
		<g id="id1:id3:id3" transform="matrix(1.0,0,0,1.0,3072,0.0)">			<g stroke="lightgray" stroke-width="4" transform="scale(4, 4)"> <rect x="0" y="0" width="256" height="256" fill="white" stroke-width="4"/></g>
			<g transform="scale(0.92, -0.92) translate(60, -920)">					<path d="M 326 498 Q 344 504 363 508 Q 399 518 404 523 Q 413 532 408 540 Q 401 552 370 558 Q 348 562 329 556 L 281 538 Q 172 507 116 498 Q 79 491 106 475 Q 151 451 216 471 Q 246 480 279 486 L 326 498 Z" fill="black"></path>
				<path d="M 274 337 Q 271 244 267 125 Q 266 101 253 93 Q 247 89 183 106 Q 153 119 155 109 Q 156 102 174 87 Q 232 35 246 7 Q 262 -26 278 -28 Q 291 -29 307 4 Q 326 47 326 118 Q 322 248 322 378 L 323 409 Q 323 455 326 498 L 329 556 Q 335 685 352 738 Q 368 766 316 789 Q 285 808 266 801 Q 248 795 263 773 Q 282 748 284 714 Q 285 695 281 538 L 279 486 Q 278 438 275 378 L 274 337 Z" fill="black"></path>
				<path d="M 275 378 Q 46 239 44 230 Q 43 220 59 207 Q 78 192 103 186 Q 113 183 138 206 Q 187 264 274 337 L 322 378 Q 328 384 335 389 Q 353 402 361 416 Q 367 429 356 428 Q 344 427 323 409 L 275 378 Z" fill="black"></path>
				<path d="M 634 672 Q 647 694 661 707 Q 670 719 664 732 Q 660 745 630 767 Q 602 785 583 784 Q 564 781 573 759 Q 588 728 577 701 Q 543 610 491 525 Q 440 443 370 352 Q 360 340 358 334 Q 355 324 369 326 Q 429 341 590 594 Q 611 639 620 649 L 634 672 Z" fill="black"></path>
				<path d="M 620 649 Q 696 537 797 420 Q 815 401 844 401 Q 946 405 977 410 Q 987 411 988 417 Q 988 421 975 429 Q 830 486 766 543 Q 703 598 634 672 C 613 694 603 674 620 649 Z" fill="black"></path>
				<path d="M 614 364 Q 662 377 713 387 Q 743 394 748 399 Q 757 408 752 416 Q 745 428 714 435 Q 690 438 596 409 Q 509 393 493 390 Q 456 383 483 366 Q 517 351 566 353 L 614 364 Z" fill="black"></path>
				<path d="M 628 211 Q 752 236 759 241 Q 768 248 763 256 Q 756 268 728 275 Q 704 281 630 258 L 576 245 Q 533 236 481 232 Q 447 226 471 210 Q 510 186 576 201 L 628 211 Z" fill="black"></path>
				<path d="M 623 80 Q 624 150 628 211 L 630 258 Q 631 279 632 298 Q 636 344 631 350 Q 622 359 614 364 C 590 382 556 381 566 353 Q 567 352 568 350 Q 572 334 576 245 L 576 201 Q 576 152 578 76 C 579 46 623 50 623 80 Z" fill="black"></path>
				<path d="M 578 76 Q 490 67 393 57 Q 372 56 387 39 Q 400 26 417 19 Q 438 13 453 17 Q 636 60 864 42 Q 864 43 866 42 Q 885 41 890 50 Q 896 60 880 75 Q 828 115 767 102 Q 709 93 623 80 L 578 76 Z" fill="red"></path>
</g>
		<text x="40" y="140" font-size="128" fill="#999999">9</text></g>
		<g id="id1:id4:id4" transform="matrix(1.0,0,0,1.0,4096,0.0)">			<g stroke="white" stroke-width="4" transform="scale(4, 4)"> <rect x="1" y="1" width="255" height="255" fill="white" stroke-width="0"/></g>
</g>
</g>
</svg>
