<?xml version="1.0" standalone="no"?>
<!DOCTYPE svg PUBLIC "-//W3C//DTD SVG 1.1//EN"
 "http://www.w3.org/Graphics/SVG/1.1/DTD/svg11.dtd">
<!-- generate by Handict dictionary app com.asnsami.handict -->

<svg xmlns="http://www.w3.org/2000/svg" xmlns:sodipodi="http://sodipodi.sourceforge.net/DTD/sodipodi-0.dtd" version="1.1" width="640" height="256" viewBox="0 0 5120 2048">
	<g id="id0:id0" transform="translate(0.0,0)">
		<g id="id0:id0:id0" transform="matrix(1.0,0,0,1.0,0,0.0)">			<g stroke="lightgray" stroke-width="4" transform="scale(4, 4)"> <rect x="0" y="0" width="256" height="256" fill="white" stroke-width="4"/></g>
			<g transform="scale(0.92, -0.92) translate(60, -920)">					<path d="M 327 533 Q 408 564 410 565 Q 417 572 412 581 Q 405 591 375 596 Q 351 599 329 590 L 281 568 Q 203 537 118 521 Q 84 512 110 498 Q 152 480 214 500 Q 244 509 280 519 L 327 533 Z" fill="red"></path>
				<path d="M 277 338 Q 276 247 274 133 Q 273 109 260 101 Q 254 98 191 114 Q 161 127 163 117 Q 164 110 182 95 Q 240 43 254 15 Q 270 -18 286 -20 Q 299 -21 315 12 Q 333 55 333 126 Q 326 253 325 380 L 325 411 Q 325 472 327 533 L 329 590 Q 344 728 349 743 Q 365 771 312 793 Q 281 811 261 805 Q 245 798 260 776 Q 279 751 281 718 Q 282 702 281 568 L 280 519 Q 279 459 277 379 L 277 338 Z" fill="lightgray"></path>
				<path d="M 277 379 Q 189 321 111 264 Q 80 242 58 234 Q 46 227 45 220 Q 45 211 59 199 Q 78 186 102 179 Q 111 178 140 204 Q 188 259 277 338 L 325 380 Q 338 393 352 403 Q 371 416 381 432 Q 387 445 376 444 Q 369 443 325 411 L 277 379 Z" fill="lightgray"></path>
				<path d="M 647 492 Q 660 675 675 771 Q 679 781 660 795 Q 629 811 606 815 Q 591 818 584 810 Q 577 803 585 790 Q 604 763 604 745 Q 613 624 609 481 C 608 451 645 462 647 492 Z" fill="lightgray"></path>
				<path d="M 469 619 Q 490 594 512 562 Q 522 549 537 547 Q 547 546 553 557 Q 560 570 556 598 Q 555 617 528 635 Q 468 671 452 667 Q 448 664 446 652 Q 447 642 469 619 Z" fill="lightgray"></path>
				<path d="M 778 708 Q 763 681 694 591 Q 684 573 702 577 Q 751 608 780 631 Q 847 685 865 693 Q 886 703 875 722 Q 860 738 833 752 Q 808 765 796 761 Q 783 760 788 746 Q 792 727 778 708 Z" fill="lightgray"></path>
				<path d="M 520 226 Q 523 281 527 320 L 529 344 Q 533 411 538 434 Q 538 437 538 439 C 540 459 540 459 527 470 Q 506 491 472 491 Q 459 487 463 474 Q 514 351 454 140 Q 430 77 431 74 Q 431 41 450 15 Q 457 0 468 6 Q 507 27 516 164 Q 516 185 518 203 L 520 226 Z" fill="lightgray"></path>
				<path d="M 538 439 Q 556 442 692 470 Q 714 474 719 463 Q 731 436 738 249 Q 744 89 729 65 Q 725 59 652 68 Q 630 72 633 63 Q 691 18 724 -15 Q 739 -34 755 -39 Q 765 -43 773 -32 Q 816 22 810 79 Q 779 403 799 448 Q 799 451 801 452 Q 814 473 801 483 Q 779 502 739 518 Q 720 525 704 518 Q 670 502 647 492 L 609 481 Q 576 475 527 470 C 497 467 509 433 538 439 Z" fill="lightgray"></path>
				<path d="M 527 320 Q 530 319 541 320 Q 616 333 672 341 Q 694 345 685 357 Q 675 370 651 374 Q 618 378 529 344 C 501 333 497 323 527 320 Z" fill="lightgray"></path>
				<path d="M 518 203 Q 527 202 539 203 Q 620 215 679 221 Q 701 225 693 237 Q 683 250 659 255 Q 632 261 520 226 C 491 217 488 205 518 203 Z" fill="lightgray"></path>
</g>
		<text x="40" y="140" font-size="128" fill="#999999">1</text></g>
		<g id="id0:id1:id1" transform="matrix(1.0,0,0,1.0,1024,0.0)">			<g stroke="lightgray" stroke-width="4" transform="scale(4, 4)"> <rect x="0" y="0" width="256" height="256" fill="white" stroke-width="4"/></g>
			<g transform="scale(0.92, -0.92) translate(60, -920)">					<path d="M 327 533 Q 408 564 410 565 Q 417 572 412 581 Q 405 591 375 596 Q 351 599 329 590 L 281 568 Q 203 537 118 521 Q 84 512 110 498 Q 152 480 214 500 Q 244 509 280 519 L 327 533 Z" fill="black"></path>
				<path d="M 277 338 Q 276 247 274 133 Q 273 109 260 101 Q 254 98 191 114 Q 161 127 163 117 Q 164 110 182 95 Q 240 43 254 15 Q 270 -18 286 -20 Q 299 -21 315 12 Q 333 55 333 126 Q 326 253 325 380 L 325 411 Q 325 472 327 533 L 329 590 Q 344 728 349 743 Q 365 771 312 793 Q 281 811 261 805 Q 245 798 260 776 Q 279 751 281 718 Q 282 702 281 568 L 280 519 Q 279 459 277 379 L 277 338 Z" fill="red"></path>
				<path d="M 277 379 Q 189 321 111 264 Q 80 242 58 234 Q 46 227 45 220 Q 45 211 59 199 Q 78 186 102 179 Q 111 178 140 204 Q 188 259 277 338 L 325 380 Q 338 393 352 403 Q 371 416 381 432 Q 387 445 376 444 Q 369 443 325 411 L 277 379 Z" fill="lightgray"></path>
				<path d="M 647 492 Q 660 675 675 771 Q 679 781 660 795 Q 629 811 606 815 Q 591 818 584 810 Q 577 803 585 790 Q 604 763 604 745 Q 613 624 609 481 C 608 451 645 462 647 492 Z" fill="lightgray"></path>
				<path d="M 469 619 Q 490 594 512 562 Q 522 549 537 547 Q 547 546 553 557 Q 560 570 556 598 Q 555 617 528 635 Q 468 671 452 667 Q 448 664 446 652 Q 447 642 469 619 Z" fill="lightgray"></path>
				<path d="M 778 708 Q 763 681 694 591 Q 684 573 702 577 Q 751 608 780 631 Q 847 685 865 693 Q 886 703 875 722 Q 860 738 833 752 Q 808 765 796 761 Q 783 760 788 746 Q 792 727 778 708 Z" fill="lightgray"></path>
				<path d="M 520 226 Q 523 281 527 320 L 529 344 Q 533 411 538 434 Q 538 437 538 439 C 540 459 540 459 527 470 Q 506 491 472 491 Q 459 487 463 474 Q 514 351 454 140 Q 430 77 431 74 Q 431 41 450 15 Q 457 0 468 6 Q 507 27 516 164 Q 516 185 518 203 L 520 226 Z" fill="lightgray"></path>
				<path d="M 538 439 Q 556 442 692 470 Q 714 474 719 463 Q 731 436 738 249 Q 744 89 729 65 Q 725 59 652 68 Q 630 72 633 63 Q 691 18 724 -15 Q 739 -34 755 -39 Q 765 -43 773 -32 Q 816 22 810 79 Q 779 403 799 448 Q 799 451 801 452 Q 814 473 801 483 Q 779 502 739 518 Q 720 525 704 518 Q 670 502 647 492 L 609 481 Q 576 475 527 470 C 497 467 509 433 538 439 Z" fill="lightgray"></path>
				<path d="M 527 320 Q 530 319 541 320 Q 616 333 672 341 Q 694 345 685 357 Q 675 370 651 374 Q 618 378 529 344 C 501 333 497 323 527 320 Z" fill="lightgray"></path>
				<path d="M 518 203 Q 527 202 539 203 Q 620 215 679 221 Q 701 225 693 237 Q 683 250 659 255 Q 632 261 520 226 C 491 217 488 205 518 203 Z" fill="lightgray"></path>
</g>
		<text x="40" y="140" font-size="128" fill="#999999">2</text></g>
		<g id="id0:id2:id2" transform="matrix(1.0,0,0,1.0,2048,0.0)">			<g stroke="lightgray" stroke-width="4" transform="scale(4, 4)"> <rect x="0" y="0" width="256" height="256" fill="white" stroke-width="4"/></g>
			<g transform="scale(0.92, -0.92) translate(60, -920)">					<path d="M 327 533 Q 408 564 410 565 Q 417 572 412 581 Q 405 591 375 596 Q 351 599 329 590 L 281 568 Q 203 537 118 521 Q 84 512 110 498 Q 152 480 214 500 Q 244 509 280 519 L 327 533 Z" fill="black"></path>
				<path d="M 277 338 Q 276 247 274 133 Q 273 109 260 101 Q 254 98 191 114 Q 161 127 163 117 Q 164 110 182 95 Q 240 43 254 15 Q 270 -18 286 -20 Q 299 -21 315 12 Q 333 55 333 126 Q 326 253 325 380 L 325 411 Q 325 472 327 533 L 329 590 Q 344 728 349 743 Q 365 771 312 793 Q 281 811 261 805 Q 245 798 260 776 Q 279 751 281 718 Q 282 702 281 568 L 280 519 Q 279 459 277 379 L 277 338 Z" fill="black"></path>
				<path d="M 277 379 Q 189 321 111 264 Q 80 242 58 234 Q 46 227 45 220 Q 45 211 59 199 Q 78 186 102 179 Q 111 178 140 204 Q 188 259 277 338 L 325 380 Q 338 393 352 403 Q 371 416 381 432 Q 387 445 376 444 Q 369 443 325 411 L 277 379 Z" fill="red"></path>
				<path d="M 647 492 Q 660 675 675 771 Q 679 781 660 795 Q 629 811 606 815 Q 591 818 584 810 Q 577 803 585 790 Q 604 763 604 745 Q 613 624 609 481 C 608 451 645 462 647 492 Z" fill="lightgray"></path>
				<path d="M 469 619 Q 490 594 512 562 Q 522 549 537 547 Q 547 546 553 557 Q 560 570 556 598 Q 555 617 528 635 Q 468 671 452 667 Q 448 664 446 652 Q 447 642 469 619 Z" fill="lightgray"></path>
				<path d="M 778 708 Q 763 681 694 591 Q 684 573 702 577 Q 751 608 780 631 Q 847 685 865 693 Q 886 703 875 722 Q 860 738 833 752 Q 808 765 796 761 Q 783 760 788 746 Q 792 727 778 708 Z" fill="lightgray"></path>
				<path d="M 520 226 Q 523 281 527 320 L 529 344 Q 533 411 538 434 Q 538 437 538 439 C 540 459 540 459 527 470 Q 506 491 472 491 Q 459 487 463 474 Q 514 351 454 140 Q 430 77 431 74 Q 431 41 450 15 Q 457 0 468 6 Q 507 27 516 164 Q 516 185 518 203 L 520 226 Z" fill="lightgray"></path>
				<path d="M 538 439 Q 556 442 692 470 Q 714 474 719 463 Q 731 436 738 249 Q 744 89 729 65 Q 725 59 652 68 Q 630 72 633 63 Q 691 18 724 -15 Q 739 -34 755 -39 Q 765 -43 773 -32 Q 816 22 810 79 Q 779 403 799 448 Q 799 451 801 452 Q 814 473 801 483 Q 779 502 739 518 Q 720 525 704 518 Q 670 502 647 492 L 609 481 Q 576 475 527 470 C 497 467 509 433 538 439 Z" fill="lightgray"></path>
				<path d="M 527 320 Q 530 319 541 320 Q 616 333 672 341 Q 694 345 685 357 Q 675 370 651 374 Q 618 378 529 344 C 501 333 497 323 527 320 Z" fill="lightgray"></path>
				<path d="M 518 203 Q 527 202 539 203 Q 620 215 679 221 Q 701 225 693 237 Q 683 250 659 255 Q 632 261 520 226 C 491 217 488 205 518 203 Z" fill="lightgray"></path>
</g>
		<text x="40" y="140" font-size="128" fill="#999999">3</text></g>
		<g id="id0:id3:id3" transform="matrix(1.0,0,0,1.0,3072,0.0)">			<g stroke="lightgray" stroke-width="4" transform="scale(4, 4)"> <rect x="0" y="0" width="256" height="256" fill="white" stroke-width="4"/></g>
			<g transform="scale(0.92, -0.92) translate(60, -920)">					<path d="M 327 533 Q 408 564 410 565 Q 417 572 412 581 Q 405 591 375 596 Q 351 599 329 590 L 281 568 Q 203 537 118 521 Q 84 512 110 498 Q 152 480 214 500 Q 244 509 280 519 L 327 533 Z" fill="black"></path>
				<path d="M 277 338 Q 276 247 274 133 Q 273 109 260 101 Q 254 98 191 114 Q 161 127 163 117 Q 164 110 182 95 Q 240 43 254 15 Q 270 -18 286 -20 Q 299 -21 315 12 Q 333 55 333 126 Q 326 253 325 380 L 325 411 Q 325 472 327 533 L 329 590 Q 344 728 349 743 Q 365 771 312 793 Q 281 811 261 805 Q 245 798 260 776 Q 279 751 281 718 Q 282 702 281 568 L 280 519 Q 279 459 277 379 L 277 338 Z" fill="black"></path>
				<path d="M 277 379 Q 189 321 111 264 Q 80 242 58 234 Q 46 227 45 220 Q 45 211 59 199 Q 78 186 102 179 Q 111 178 140 204 Q 188 259 277 338 L 325 380 Q 338 393 352 403 Q 371 416 381 432 Q 387 445 376 444 Q 369 443 325 411 L 277 379 Z" fill="black"></path>
				<path d="M 647 492 Q 660 675 675 771 Q 679 781 660 795 Q 629 811 606 815 Q 591 818 584 810 Q 577 803 585 790 Q 604 763 604 745 Q 613 624 609 481 C 608 451 645 462 647 492 Z" fill="red"></path>
				<path d="M 469 619 Q 490 594 512 562 Q 522 549 537 547 Q 547 546 553 557 Q 560 570 556 598 Q 555 617 528 635 Q 468 671 452 667 Q 448 664 446 652 Q 447 642 469 619 Z" fill="lightgray"></path>
				<path d="M 778 708 Q 763 681 694 591 Q 684 573 702 577 Q 751 608 780 631 Q 847 685 865 693 Q 886 703 875 722 Q 860 738 833 752 Q 808 765 796 761 Q 783 760 788 746 Q 792 727 778 708 Z" fill="lightgray"></path>
				<path d="M 520 226 Q 523 281 527 320 L 529 344 Q 533 411 538 434 Q 538 437 538 439 C 540 459 540 459 527 470 Q 506 491 472 491 Q 459 487 463 474 Q 514 351 454 140 Q 430 77 431 74 Q 431 41 450 15 Q 457 0 468 6 Q 507 27 516 164 Q 516 185 518 203 L 520 226 Z" fill="lightgray"></path>
				<path d="M 538 439 Q 556 442 692 470 Q 714 474 719 463 Q 731 436 738 249 Q 744 89 729 65 Q 725 59 652 68 Q 630 72 633 63 Q 691 18 724 -15 Q 739 -34 755 -39 Q 765 -43 773 -32 Q 816 22 810 79 Q 779 403 799 448 Q 799 451 801 452 Q 814 473 801 483 Q 779 502 739 518 Q 720 525 704 518 Q 670 502 647 492 L 609 481 Q 576 475 527 470 C 497 467 509 433 538 439 Z" fill="lightgray"></path>
				<path d="M 527 320 Q 530 319 541 320 Q 616 333 672 341 Q 694 345 685 357 Q 675 370 651 374 Q 618 378 529 344 C 501 333 497 323 527 320 Z" fill="lightgray"></path>
				<path d="M 518 203 Q 527 202 539 203 Q 620 215 679 221 Q 701 225 693 237 Q 683 250 659 255 Q 632 261 520 226 C 491 217 488 205 518 203 Z" fill="lightgray"></path>
</g>
		<text x="40" y="140" font-size="128" fill="#999999">4</text></g>
		<g id="id0:id4:id4" transform="matrix(1.0,0,0,1.0,4096,0.0)">			<g stroke="lightgray" stroke-width="4" transform="scale(4, 4)"> <rect x="0" y="0" width="256" height="256" fill="white" stroke-width="4"/></g>
			<g transform="scale(0.92, -0.92) translate(60, -920)">					<path d="M 327 533 Q 408 564 410 565 Q 417 572 412 581 Q 405 591 375 596 Q 351 599 329 590 L 281 568 Q 203 537 118 521 Q 84 512 110 498 Q 152 480 214 500 Q 244 509 280 519 L 327 533 Z" fill="black"></path>
				<path d="M 277 338 Q 276 247 274 133 Q 273 109 260 101 Q 254 98 191 114 Q 161 127 163 117 Q 164 110 182 95 Q 240 43 254 15 Q 270 -18 286 -20 Q 299 -21 315 12 Q 333 55 333 126 Q 326 253 325 380 L 325 411 Q 325 472 327 533 L 329 590 Q 344 728 349 743 Q 365 771 312 793 Q 281 811 261 805 Q 245 798 260 776 Q 279 751 281 718 Q 282 702 281 568 L 280 519 Q 279 459 277 379 L 277 338 Z" fill="black"></path>
				<path d="M 277 379 Q 189 321 111 264 Q 80 242 58 234 Q 46 227 45 220 Q 45 211 59 199 Q 78 186 102 179 Q 111 178 140 204 Q 188 259 277 338 L 325 380 Q 338 393 352 403 Q 371 416 381 432 Q 387 445 376 444 Q 369 443 325 411 L 277 379 Z" fill="black"></path>
				<path d="M 647 492 Q 660 675 675 771 Q 679 781 660 795 Q 629 811 606 815 Q 591 818 584 810 Q 577 803 585 790 Q 604 763 604 745 Q 613 624 609 481 C 608 451 645 462 647 492 Z" fill="black"></path>
				<path d="M 469 619 Q 490 594 512 562 Q 522 549 537 547 Q 547 546 553 557 Q 560 570 556 598 Q 555 617 528 635 Q 468 671 452 667 Q 448 664 446 652 Q 447 642 469 619 Z" fill="red"></path>
				<path d="M 778 708 Q 763 681 694 591 Q 684 573 702 577 Q 751 608 780 631 Q 847 685 865 693 Q 886 703 875 722 Q 860 738 833 752 Q 808 765 796 761 Q 783 760 788 746 Q 792 727 778 708 Z" fill="lightgray"></path>
				<path d="M 520 226 Q 523 281 527 320 L 529 344 Q 533 411 538 434 Q 538 437 538 439 C 540 459 540 459 527 470 Q 506 491 472 491 Q 459 487 463 474 Q 514 351 454 140 Q 430 77 431 74 Q 431 41 450 15 Q 457 0 468 6 Q 507 27 516 164 Q 516 185 518 203 L 520 226 Z" fill="lightgray"></path>
				<path d="M 538 439 Q 556 442 692 470 Q 714 474 719 463 Q 731 436 738 249 Q 744 89 729 65 Q 725 59 652 68 Q 630 72 633 63 Q 691 18 724 -15 Q 739 -34 755 -39 Q 765 -43 773 -32 Q 816 22 810 79 Q 779 403 799 448 Q 799 451 801 452 Q 814 473 801 483 Q 779 502 739 518 Q 720 525 704 518 Q 670 502 647 492 L 609 481 Q 576 475 527 470 C 497 467 509 433 538 439 Z" fill="lightgray"></path>
				<path d="M 527 320 Q 530 319 541 320 Q 616 333 672 341 Q 694 345 685 357 Q 675 370 651 374 Q 618 378 529 344 C 501 333 497 323 527 320 Z" fill="lightgray"></path>
				<path d="M 518 203 Q 527 202 539 203 Q 620 215 679 221 Q 701 225 693 237 Q 683 250 659 255 Q 632 261 520 226 C 491 217 488 205 518 203 Z" fill="lightgray"></path>
</g>
		<text x="40" y="140" font-size="128" fill="#999999">5</text></g>
</g>
	<g id="id1:id1" transform="translate(0.0,1024)">
		<g id="id1:id0:id0" transform="matrix(1.0,0,0,1.0,0,0.0)">			<g stroke="lightgray" stroke-width="4" transform="scale(4, 4)"> <rect x="0" y="0" width="256" height="256" fill="white" stroke-width="4"/></g>
			<g transform="scale(0.92, -0.92) translate(60, -920)">					<path d="M 327 533 Q 408 564 410 565 Q 417 572 412 581 Q 405 591 375 596 Q 351 599 329 590 L 281 568 Q 203 537 118 521 Q 84 512 110 498 Q 152 480 214 500 Q 244 509 280 519 L 327 533 Z" fill="black"></path>
				<path d="M 277 338 Q 276 247 274 133 Q 273 109 260 101 Q 254 98 191 114 Q 161 127 163 117 Q 164 110 182 95 Q 240 43 254 15 Q 270 -18 286 -20 Q 299 -21 315 12 Q 333 55 333 126 Q 326 253 325 380 L 325 411 Q 325 472 327 533 L 329 590 Q 344 728 349 743 Q 365 771 312 793 Q 281 811 261 805 Q 245 798 260 776 Q 279 751 281 718 Q 282 702 281 568 L 280 519 Q 279 459 277 379 L 277 338 Z" fill="black"></path>
				<path d="M 277 379 Q 189 321 111 264 Q 80 242 58 234 Q 46 227 45 220 Q 45 211 59 199 Q 78 186 102 179 Q 111 178 140 204 Q 188 259 277 338 L 325 380 Q 338 393 352 403 Q 371 416 381 432 Q 387 445 376 444 Q 369 443 325 411 L 277 379 Z" fill="black"></path>
				<path d="M 647 492 Q 660 675 675 771 Q 679 781 660 795 Q 629 811 606 815 Q 591 818 584 810 Q 577 803 585 790 Q 604 763 604 745 Q 613 624 609 481 C 608 451 645 462 647 492 Z" fill="black"></path>
				<path d="M 469 619 Q 490 594 512 562 Q 522 549 537 547 Q 547 546 553 557 Q 560 570 556 598 Q 555 617 528 635 Q 468 671 452 667 Q 448 664 446 652 Q 447 642 469 619 Z" fill="black"></path>
				<path d="M 778 708 Q 763 681 694 591 Q 684 573 702 577 Q 751 608 780 631 Q 847 685 865 693 Q 886 703 875 722 Q 860 738 833 752 Q 808 765 796 761 Q 783 760 788 746 Q 792 727 778 708 Z" fill="red"></path>
				<path d="M 520 226 Q 523 281 527 320 L 529 344 Q 533 411 538 434 Q 538 437 538 439 C 540 459 540 459 527 470 Q 506 491 472 491 Q 459 487 463 474 Q 514 351 454 140 Q 430 77 431 74 Q 431 41 450 15 Q 457 0 468 6 Q 507 27 516 164 Q 516 185 518 203 L 520 226 Z" fill="lightgray"></path>
				<path d="M 538 439 Q 556 442 692 470 Q 714 474 719 463 Q 731 436 738 249 Q 744 89 729 65 Q 725 59 652 68 Q 630 72 633 63 Q 691 18 724 -15 Q 739 -34 755 -39 Q 765 -43 773 -32 Q 816 22 810 79 Q 779 403 799 448 Q 799 451 801 452 Q 814 473 801 483 Q 779 502 739 518 Q 720 525 704 518 Q 670 502 647 492 L 609 481 Q 576 475 527 470 C 497 467 509 433 538 439 Z" fill="lightgray"></path>
				<path d="M 527 320 Q 530 319 541 320 Q 616 333 672 341 Q 694 345 685 357 Q 675 370 651 374 Q 618 378 529 344 C 501 333 497 323 527 320 Z" fill="lightgray"></path>
				<path d="M 518 203 Q 527 202 539 203 Q 620 215 679 221 Q 701 225 693 237 Q 683 250 659 255 Q 632 261 520 226 C 491 217 488 205 518 203 Z" fill="lightgray"></path>
</g>
		<text x="40" y="140" font-size="128" fill="#999999">6</text></g>
		<g id="id1:id1:id1" transform="matrix(1.0,0,0,1.0,1024,0.0)">			<g stroke="lightgray" stroke-width="4" transform="scale(4, 4)"> <rect x="0" y="0" width="256" height="256" fill="white" stroke-width="4"/></g>
			<g transform="scale(0.92, -0.92) translate(60, -920)">					<path d="M 327 533 Q 408 564 410 565 Q 417 572 412 581 Q 405 591 375 596 Q 351 599 329 590 L 281 568 Q 203 537 118 521 Q 84 512 110 498 Q 152 480 214 500 Q 244 509 280 519 L 327 533 Z" fill="black"></path>
				<path d="M 277 338 Q 276 247 274 133 Q 273 109 260 101 Q 254 98 191 114 Q 161 127 163 117 Q 164 110 182 95 Q 240 43 254 15 Q 270 -18 286 -20 Q 299 -21 315 12 Q 333 55 333 126 Q 326 253 325 380 L 325 411 Q 325 472 327 533 L 329 590 Q 344 728 349 743 Q 365 771 312 793 Q 281 811 261 805 Q 245 798 260 776 Q 279 751 281 718 Q 282 702 281 568 L 280 519 Q 279 459 277 379 L 277 338 Z" fill="black"></path>
				<path d="M 277 379 Q 189 321 111 264 Q 80 242 58 234 Q 46 227 45 220 Q 45 211 59 199 Q 78 186 102 179 Q 111 178 140 204 Q 188 259 277 338 L 325 380 Q 338 393 352 403 Q 371 416 381 432 Q 387 445 376 444 Q 369 443 325 411 L 277 379 Z" fill="black"></path>
				<path d="M 647 492 Q 660 675 675 771 Q 679 781 660 795 Q 629 811 606 815 Q 591 818 584 810 Q 577 803 585 790 Q 604 763 604 745 Q 613 624 609 481 C 608 451 645 462 647 492 Z" fill="black"></path>
				<path d="M 469 619 Q 490 594 512 562 Q 522 549 537 547 Q 547 546 553 557 Q 560 570 556 598 Q 555 617 528 635 Q 468 671 452 667 Q 448 664 446 652 Q 447 642 469 619 Z" fill="black"></path>
				<path d="M 778 708 Q 763 681 694 591 Q 684 573 702 577 Q 751 608 780 631 Q 847 685 865 693 Q 886 703 875 722 Q 860 738 833 752 Q 808 765 796 761 Q 783 760 788 746 Q 792 727 778 708 Z" fill="black"></path>
				<path d="M 520 226 Q 523 281 527 320 L 529 344 Q 533 411 538 434 Q 538 437 538 439 C 540 459 540 459 527 470 Q 506 491 472 491 Q 459 487 463 474 Q 514 351 454 140 Q 430 77 431 74 Q 431 41 450 15 Q 457 0 468 6 Q 507 27 516 164 Q 516 185 518 203 L 520 226 Z" fill="red"></path>
				<path d="M 538 439 Q 556 442 692 470 Q 714 474 719 463 Q 731 436 738 249 Q 744 89 729 65 Q 725 59 652 68 Q 630 72 633 63 Q 691 18 724 -15 Q 739 -34 755 -39 Q 765 -43 773 -32 Q 816 22 810 79 Q 779 403 799 448 Q 799 451 801 452 Q 814 473 801 483 Q 779 502 739 518 Q 720 525 704 518 Q 670 502 647 492 L 609 481 Q 576 475 527 470 C 497 467 509 433 538 439 Z" fill="lightgray"></path>
				<path d="M 527 320 Q 530 319 541 320 Q 616 333 672 341 Q 694 345 685 357 Q 675 370 651 374 Q 618 378 529 344 C 501 333 497 323 527 320 Z" fill="lightgray"></path>
				<path d="M 518 203 Q 527 202 539 203 Q 620 215 679 221 Q 701 225 693 237 Q 683 250 659 255 Q 632 261 520 226 C 491 217 488 205 518 203 Z" fill="lightgray"></path>
</g>
		<text x="40" y="140" font-size="128" fill="#999999">7</text></g>
		<g id="id1:id2:id2" transform="matrix(1.0,0,0,1.0,2048,0.0)">			<g stroke="lightgray" stroke-width="4" transform="scale(4, 4)"> <rect x="0" y="0" width="256" height="256" fill="white" stroke-width="4"/></g>
			<g transform="scale(0.92, -0.92) translate(60, -920)">					<path d="M 327 533 Q 408 564 410 565 Q 417 572 412 581 Q 405 591 375 596 Q 351 599 329 590 L 281 568 Q 203 537 118 521 Q 84 512 110 498 Q 152 480 214 500 Q 244 509 280 519 L 327 533 Z" fill="black"></path>
				<path d="M 277 338 Q 276 247 274 133 Q 273 109 260 101 Q 254 98 191 114 Q 161 127 163 117 Q 164 110 182 95 Q 240 43 254 15 Q 270 -18 286 -20 Q 299 -21 315 12 Q 333 55 333 126 Q 326 253 325 380 L 325 411 Q 325 472 327 533 L 329 590 Q 344 728 349 743 Q 365 771 312 793 Q 281 811 261 805 Q 245 798 260 776 Q 279 751 281 718 Q 282 702 281 568 L 280 519 Q 279 459 277 379 L 277 338 Z" fill="black"></path>
				<path d="M 277 379 Q 189 321 111 264 Q 80 242 58 234 Q 46 227 45 220 Q 45 211 59 199 Q 78 186 102 179 Q 111 178 140 204 Q 188 259 277 338 L 325 380 Q 338 393 352 403 Q 371 416 381 432 Q 387 445 376 444 Q 369 443 325 411 L 277 379 Z" fill="black"></path>
				<path d="M 647 492 Q 660 675 675 771 Q 679 781 660 795 Q 629 811 606 815 Q 591 818 584 810 Q 577 803 585 790 Q 604 763 604 745 Q 613 624 609 481 C 608 451 645 462 647 492 Z" fill="black"></path>
				<path d="M 469 619 Q 490 594 512 562 Q 522 549 537 547 Q 547 546 553 557 Q 560 570 556 598 Q 555 617 528 635 Q 468 671 452 667 Q 448 664 446 652 Q 447 642 469 619 Z" fill="black"></path>
				<path d="M 778 708 Q 763 681 694 591 Q 684 573 702 577 Q 751 608 780 631 Q 847 685 865 693 Q 886 703 875 722 Q 860 738 833 752 Q 808 765 796 761 Q 783 760 788 746 Q 792 727 778 708 Z" fill="black"></path>
				<path d="M 520 226 Q 523 281 527 320 L 529 344 Q 533 411 538 434 Q 538 437 538 439 C 540 459 540 459 527 470 Q 506 491 472 491 Q 459 487 463 474 Q 514 351 454 140 Q 430 77 431 74 Q 431 41 450 15 Q 457 0 468 6 Q 507 27 516 164 Q 516 185 518 203 L 520 226 Z" fill="black"></path>
				<path d="M 538 439 Q 556 442 692 470 Q 714 474 719 463 Q 731 436 738 249 Q 744 89 729 65 Q 725 59 652 68 Q 630 72 633 63 Q 691 18 724 -15 Q 739 -34 755 -39 Q 765 -43 773 -32 Q 816 22 810 79 Q 779 403 799 448 Q 799 451 801 452 Q 814 473 801 483 Q 779 502 739 518 Q 720 525 704 518 Q 670 502 647 492 L 609 481 Q 576 475 527 470 C 497 467 509 433 538 439 Z" fill="red"></path>
				<path d="M 527 320 Q 530 319 541 320 Q 616 333 672 341 Q 694 345 685 357 Q 675 370 651 374 Q 618 378 529 344 C 501 333 497 323 527 320 Z" fill="lightgray"></path>
				<path d="M 518 203 Q 527 202 539 203 Q 620 215 679 221 Q 701 225 693 237 Q 683 250 659 255 Q 632 261 520 226 C 491 217 488 205 518 203 Z" fill="lightgray"></path>
</g>
		<text x="40" y="140" font-size="128" fill="#999999">8</text></g>
		<g id="id1:id3:id3" transform="matrix(1.0,0,0,1.0,3072,0.0)">			<g stroke="lightgray" stroke-width="4" transform="scale(4, 4)"> <rect x="0" y="0" width="256" height="256" fill="white" stroke-width="4"/></g>
			<g transform="scale(0.92, -0.92) translate(60, -920)">					<path d="M 327 533 Q 408 564 410 565 Q 417 572 412 581 Q 405 591 375 596 Q 351 599 329 590 L 281 568 Q 203 537 118 521 Q 84 512 110 498 Q 152 480 214 500 Q 244 509 280 519 L 327 533 Z" fill="black"></path>
				<path d="M 277 338 Q 276 247 274 133 Q 273 109 260 101 Q 254 98 191 114 Q 161 127 163 117 Q 164 110 182 95 Q 240 43 254 15 Q 270 -18 286 -20 Q 299 -21 315 12 Q 333 55 333 126 Q 326 253 325 380 L 325 411 Q 325 472 327 533 L 329 590 Q 344 728 349 743 Q 365 771 312 793 Q 281 811 261 805 Q 245 798 260 776 Q 279 751 281 718 Q 282 702 281 568 L 280 519 Q 279 459 277 379 L 277 338 Z" fill="black"></path>
				<path d="M 277 379 Q 189 321 111 264 Q 80 242 58 234 Q 46 227 45 220 Q 45 211 59 199 Q 78 186 102 179 Q 111 178 140 204 Q 188 259 277 338 L 325 380 Q 338 393 352 403 Q 371 416 381 432 Q 387 445 376 444 Q 369 443 325 411 L 277 379 Z" fill="black"></path>
				<path d="M 647 492 Q 660 675 675 771 Q 679 781 660 795 Q 629 811 606 815 Q 591 818 584 810 Q 577 803 585 790 Q 604 763 604 745 Q 613 624 609 481 C 608 451 645 462 647 492 Z" fill="black"></path>
				<path d="M 469 619 Q 490 594 512 562 Q 522 549 537 547 Q 547 546 553 557 Q 560 570 556 598 Q 555 617 528 635 Q 468 671 452 667 Q 448 664 446 652 Q 447 642 469 619 Z" fill="black"></path>
				<path d="M 778 708 Q 763 681 694 591 Q 684 573 702 577 Q 751 608 780 631 Q 847 685 865 693 Q 886 703 875 722 Q 860 738 833 752 Q 808 765 796 761 Q 783 760 788 746 Q 792 727 778 708 Z" fill="black"></path>
				<path d="M 520 226 Q 523 281 527 320 L 529 344 Q 533 411 538 434 Q 538 437 538 439 C 540 459 540 459 527 470 Q 506 491 472 491 Q 459 487 463 474 Q 514 351 454 140 Q 430 77 431 74 Q 431 41 450 15 Q 457 0 468 6 Q 507 27 516 164 Q 516 185 518 203 L 520 226 Z" fill="black"></path>
				<path d="M 538 439 Q 556 442 692 470 Q 714 474 719 463 Q 731 436 738 249 Q 744 89 729 65 Q 725 59 652 68 Q 630 72 633 63 Q 691 18 724 -15 Q 739 -34 755 -39 Q 765 -43 773 -32 Q 816 22 810 79 Q 779 403 799 448 Q 799 451 801 452 Q 814 473 801 483 Q 779 502 739 518 Q 720 525 704 518 Q 670 502 647 492 L 609 481 Q 576 475 527 470 C 497 467 509 433 538 439 Z" fill="black"></path>
				<path d="M 527 320 Q 530 319 541 320 Q 616 333 672 341 Q 694 345 685 357 Q 675 370 651 374 Q 618 378 529 344 C 501 333 497 323 527 320 Z" fill="red"></path>
				<path d="M 518 203 Q 527 202 539 203 Q 620 215 679 221 Q 701 225 693 237 Q 683 250 659 255 Q 632 261 520 226 C 491 217 488 205 518 203 Z" fill="lightgray"></path>
</g>
		<text x="40" y="140" font-size="128" fill="#999999">9</text></g>
		<g id="id1:id4:id4" transform="matrix(1.0,0,0,1.0,4096,0.0)">			<g stroke="lightgray" stroke-width="4" transform="scale(4, 4)"> <rect x="0" y="0" width="256" height="256" fill="white" stroke-width="4"/></g>
			<g transform="scale(0.92, -0.92) translate(60, -920)">					<path d="M 327 533 Q 408 564 410 565 Q 417 572 412 581 Q 405 591 375 596 Q 351 599 329 590 L 281 568 Q 203 537 118 521 Q 84 512 110 498 Q 152 480 214 500 Q 244 509 280 519 L 327 533 Z" fill="black"></path>
				<path d="M 277 338 Q 276 247 274 133 Q 273 109 260 101 Q 254 98 191 114 Q 161 127 163 117 Q 164 110 182 95 Q 240 43 254 15 Q 270 -18 286 -20 Q 299 -21 315 12 Q 333 55 333 126 Q 326 253 325 380 L 325 411 Q 325 472 327 533 L 329 590 Q 344 728 349 743 Q 365 771 312 793 Q 281 811 261 805 Q 245 798 260 776 Q 279 751 281 718 Q 282 702 281 568 L 280 519 Q 279 459 277 379 L 277 338 Z" fill="black"></path>
				<path d="M 277 379 Q 189 321 111 264 Q 80 242 58 234 Q 46 227 45 220 Q 45 211 59 199 Q 78 186 102 179 Q 111 178 140 204 Q 188 259 277 338 L 325 380 Q 338 393 352 403 Q 371 416 381 432 Q 387 445 376 444 Q 369 443 325 411 L 277 379 Z" fill="black"></path>
				<path d="M 647 492 Q 660 675 675 771 Q 679 781 660 795 Q 629 811 606 815 Q 591 818 584 810 Q 577 803 585 790 Q 604 763 604 745 Q 613 624 609 481 C 608 451 645 462 647 492 Z" fill="black"></path>
				<path d="M 469 619 Q 490 594 512 562 Q 522 549 537 547 Q 547 546 553 557 Q 560 570 556 598 Q 555 617 528 635 Q 468 671 452 667 Q 448 664 446 652 Q 447 642 469 619 Z" fill="black"></path>
				<path d="M 778 708 Q 763 681 694 591 Q 684 573 702 577 Q 751 608 780 631 Q 847 685 865 693 Q 886 703 875 722 Q 860 738 833 752 Q 808 765 796 761 Q 783 760 788 746 Q 792 727 778 708 Z" fill="black"></path>
				<path d="M 520 226 Q 523 281 527 320 L 529 344 Q 533 411 538 434 Q 538 437 538 439 C 540 459 540 459 527 470 Q 506 491 472 491 Q 459 487 463 474 Q 514 351 454 140 Q 430 77 431 74 Q 431 41 450 15 Q 457 0 468 6 Q 507 27 516 164 Q 516 185 518 203 L 520 226 Z" fill="black"></path>
				<path d="M 538 439 Q 556 442 692 470 Q 714 474 719 463 Q 731 436 738 249 Q 744 89 729 65 Q 725 59 652 68 Q 630 72 633 63 Q 691 18 724 -15 Q 739 -34 755 -39 Q 765 -43 773 -32 Q 816 22 810 79 Q 779 403 799 448 Q 799 451 801 452 Q 814 473 801 483 Q 779 502 739 518 Q 720 525 704 518 Q 670 502 647 492 L 609 481 Q 576 475 527 470 C 497 467 509 433 538 439 Z" fill="black"></path>
				<path d="M 527 320 Q 530 319 541 320 Q 616 333 672 341 Q 694 345 685 357 Q 675 370 651 374 Q 618 378 529 344 C 501 333 497 323 527 320 Z" fill="black"></path>
				<path d="M 518 203 Q 527 202 539 203 Q 620 215 679 221 Q 701 225 693 237 Q 683 250 659 255 Q 632 261 520 226 C 491 217 488 205 518 203 Z" fill="red"></path>
</g>
		<text x="40" y="140" font-size="128" fill="#999999">10</text></g>
</g>
</svg>
