<?xml version="1.0" standalone="no"?>
<!DOCTYPE svg PUBLIC "-//W3C//DTD SVG 1.1//EN"
 "http://www.w3.org/Graphics/SVG/1.1/DTD/svg11.dtd">
<!-- generate by Handict dictionary app com.asnsami.handict -->

<svg xmlns="http://www.w3.org/2000/svg" xmlns:sodipodi="http://sodipodi.sourceforge.net/DTD/sodipodi-0.dtd" version="1.1" width="640" height="384" viewBox="0 0 5120 3072">
	<g id="id0:id0" transform="translate(0.0,0)">
		<g id="id0:id0:id0" transform="matrix(1.0,0,0,1.0,0,0.0)">			<g stroke="lightgray" stroke-width="4" transform="scale(4, 4)"> <rect x="0" y="0" width="256" height="256" fill="white" stroke-width="4"/></g>
			<g transform="scale(0.92, -0.92) translate(60, -920)">					<path d="M 154 601 Q 190 534 216 518 Q 228 511 239 522 Q 248 532 249 547 Q 246 590 174 632 Q 161 641 151 639 Q 145 639 144 628 Q 143 616 154 601 Z" fill="red"></path>
				<path d="M 442 661 Q 423 624 382 564 Q 378 557 383 551 Q 390 550 397 555 Q 475 622 513 647 Q 529 654 524 663 Q 517 678 498 693 Q 479 709 457 709 Q 444 708 446 689 Q 450 676 442 661 Z" fill="lightgray"></path>
				<path d="M 170 214 Q 176 368 180 401 Q 180 407 180 411 C 180 423 180 423 168 433 Q 150 451 121 449 Q 108 445 114 434 Q 156 340 116 165 Q 98 105 98 102 Q 98 75 116 52 Q 123 40 132 45 Q 168 72 169 201 L 170 214 Z" fill="lightgray"></path>
				<path d="M 180 411 Q 246 427 288 435 L 330 443 Q 400 456 419 448 Q 429 442 428 418 Q 438 250 425 119 Q 424 94 408 89 Q 401 88 361 100 Q 351 104 350 97 Q 350 90 363 79 Q 390 49 409 20 Q 421 5 434 4 Q 450 7 470 53 Q 495 99 492 146 Q 486 260 480 363 Q 479 405 495 437 Q 507 450 494 464 Q 478 479 443 492 Q 428 501 376 479 Q 355 473 330 465 L 289 457 Q 210 441 168 433 C 139 427 151 404 180 411 Z" fill="lightgray"></path>
				<path d="M 288 435 Q 279 254 279 245 Q 273 209 263 173 Q 254 134 276 84 Q 280 68 288 65 Q 294 59 300 66 Q 324 81 325 138 Q 324 172 330 443 L 330 465 Q 334 658 350 706 Q 362 728 340 743 Q 327 753 301 770 Q 280 785 262 771 Q 258 767 263 753 Q 290 711 291 639 Q 291 519 289 457 L 288 435 Z" fill="lightgray"></path>
				<path d="M 169 201 Q 215 225 244 289 Q 254 314 266 333 Q 270 342 261 349 Q 231 367 217 361 Q 210 360 213 350 Q 226 302 177 225 Q 173 221 170 214 C 161 197 161 197 169 201 Z" fill="lightgray"></path>
				<path d="M 346 347 Q 370 269 387 260 Q 394 256 404 265 Q 408 272 409 288 Q 406 321 357 363 Q 351 367 347 360 Q 344 356 346 347 Z" fill="lightgray"></path>
				<path d="M 615 530 Q 616 534 620 539 Q 651 597 681 684 Q 693 723 706 744 Q 713 756 705 768 Q 698 778 667 793 Q 637 805 620 800 Q 604 794 616 776 Q 661 719 531 438 Q 524 426 524 420 Q 523 410 536 415 Q 552 422 600 501 L 615 530 Z" fill="lightgray"></path>
				<path d="M 730 510 Q 866 549 868 549 Q 877 556 871 565 Q 864 575 836 582 Q 806 586 778 573 Q 741 560 699 547 Q 659 537 615 530 C 585 525 571 510 600 501 Q 645 486 685 500 Q 686 501 691 501 L 730 510 Z" fill="lightgray"></path>
				<path d="M 705 223 Q 741 295 750 349 Q 762 434 778 462 Q 787 478 771 488 Q 744 510 730 510 C 701 519 681 525 691 501 Q 691 498 693 494 Q 732 431 671 262 Q 670 262 670 260 L 651 221 Q 612 155 511 83 Q 499 74 511 72 Q 524 71 557 85 Q 605 106 640 139 Q 662 158 679 179 L 705 223 Z" fill="lightgray"></path>
				<path d="M 679 179 Q 758 67 794 63 Q 870 53 934 54 Q 967 54 965 63 Q 965 67 935 82 Q 911 94 884 105 Q 766 162 705 223 L 670 260 Q 646 290 621 322 Q 593 361 561 364 Q 545 367 542 362 Q 539 356 552 345 Q 585 321 651 221 L 679 179 Z" fill="lightgray"></path>
</g>
		<text x="40" y="140" font-size="128" fill="#999999">1</text></g>
		<g id="id0:id1:id1" transform="matrix(1.0,0,0,1.0,1024,0.0)">			<g stroke="lightgray" stroke-width="4" transform="scale(4, 4)"> <rect x="0" y="0" width="256" height="256" fill="white" stroke-width="4"/></g>
			<g transform="scale(0.92, -0.92) translate(60, -920)">					<path d="M 154 601 Q 190 534 216 518 Q 228 511 239 522 Q 248 532 249 547 Q 246 590 174 632 Q 161 641 151 639 Q 145 639 144 628 Q 143 616 154 601 Z" fill="black"></path>
				<path d="M 442 661 Q 423 624 382 564 Q 378 557 383 551 Q 390 550 397 555 Q 475 622 513 647 Q 529 654 524 663 Q 517 678 498 693 Q 479 709 457 709 Q 444 708 446 689 Q 450 676 442 661 Z" fill="red"></path>
				<path d="M 170 214 Q 176 368 180 401 Q 180 407 180 411 C 180 423 180 423 168 433 Q 150 451 121 449 Q 108 445 114 434 Q 156 340 116 165 Q 98 105 98 102 Q 98 75 116 52 Q 123 40 132 45 Q 168 72 169 201 L 170 214 Z" fill="lightgray"></path>
				<path d="M 180 411 Q 246 427 288 435 L 330 443 Q 400 456 419 448 Q 429 442 428 418 Q 438 250 425 119 Q 424 94 408 89 Q 401 88 361 100 Q 351 104 350 97 Q 350 90 363 79 Q 390 49 409 20 Q 421 5 434 4 Q 450 7 470 53 Q 495 99 492 146 Q 486 260 480 363 Q 479 405 495 437 Q 507 450 494 464 Q 478 479 443 492 Q 428 501 376 479 Q 355 473 330 465 L 289 457 Q 210 441 168 433 C 139 427 151 404 180 411 Z" fill="lightgray"></path>
				<path d="M 288 435 Q 279 254 279 245 Q 273 209 263 173 Q 254 134 276 84 Q 280 68 288 65 Q 294 59 300 66 Q 324 81 325 138 Q 324 172 330 443 L 330 465 Q 334 658 350 706 Q 362 728 340 743 Q 327 753 301 770 Q 280 785 262 771 Q 258 767 263 753 Q 290 711 291 639 Q 291 519 289 457 L 288 435 Z" fill="lightgray"></path>
				<path d="M 169 201 Q 215 225 244 289 Q 254 314 266 333 Q 270 342 261 349 Q 231 367 217 361 Q 210 360 213 350 Q 226 302 177 225 Q 173 221 170 214 C 161 197 161 197 169 201 Z" fill="lightgray"></path>
				<path d="M 346 347 Q 370 269 387 260 Q 394 256 404 265 Q 408 272 409 288 Q 406 321 357 363 Q 351 367 347 360 Q 344 356 346 347 Z" fill="lightgray"></path>
				<path d="M 615 530 Q 616 534 620 539 Q 651 597 681 684 Q 693 723 706 744 Q 713 756 705 768 Q 698 778 667 793 Q 637 805 620 800 Q 604 794 616 776 Q 661 719 531 438 Q 524 426 524 420 Q 523 410 536 415 Q 552 422 600 501 L 615 530 Z" fill="lightgray"></path>
				<path d="M 730 510 Q 866 549 868 549 Q 877 556 871 565 Q 864 575 836 582 Q 806 586 778 573 Q 741 560 699 547 Q 659 537 615 530 C 585 525 571 510 600 501 Q 645 486 685 500 Q 686 501 691 501 L 730 510 Z" fill="lightgray"></path>
				<path d="M 705 223 Q 741 295 750 349 Q 762 434 778 462 Q 787 478 771 488 Q 744 510 730 510 C 701 519 681 525 691 501 Q 691 498 693 494 Q 732 431 671 262 Q 670 262 670 260 L 651 221 Q 612 155 511 83 Q 499 74 511 72 Q 524 71 557 85 Q 605 106 640 139 Q 662 158 679 179 L 705 223 Z" fill="lightgray"></path>
				<path d="M 679 179 Q 758 67 794 63 Q 870 53 934 54 Q 967 54 965 63 Q 965 67 935 82 Q 911 94 884 105 Q 766 162 705 223 L 670 260 Q 646 290 621 322 Q 593 361 561 364 Q 545 367 542 362 Q 539 356 552 345 Q 585 321 651 221 L 679 179 Z" fill="lightgray"></path>
</g>
		<text x="40" y="140" font-size="128" fill="#999999">2</text></g>
		<g id="id0:id2:id2" transform="matrix(1.0,0,0,1.0,2048,0.0)">			<g stroke="lightgray" stroke-width="4" transform="scale(4, 4)"> <rect x="0" y="0" width="256" height="256" fill="white" stroke-width="4"/></g>
			<g transform="scale(0.92, -0.92) translate(60, -920)">					<path d="M 154 601 Q 190 534 216 518 Q 228 511 239 522 Q 248 532 249 547 Q 246 590 174 632 Q 161 641 151 639 Q 145 639 144 628 Q 143 616 154 601 Z" fill="black"></path>
				<path d="M 442 661 Q 423 624 382 564 Q 378 557 383 551 Q 390 550 397 555 Q 475 622 513 647 Q 529 654 524 663 Q 517 678 498 693 Q 479 709 457 709 Q 444 708 446 689 Q 450 676 442 661 Z" fill="black"></path>
				<path d="M 170 214 Q 176 368 180 401 Q 180 407 180 411 C 180 423 180 423 168 433 Q 150 451 121 449 Q 108 445 114 434 Q 156 340 116 165 Q 98 105 98 102 Q 98 75 116 52 Q 123 40 132 45 Q 168 72 169 201 L 170 214 Z" fill="red"></path>
				<path d="M 180 411 Q 246 427 288 435 L 330 443 Q 400 456 419 448 Q 429 442 428 418 Q 438 250 425 119 Q 424 94 408 89 Q 401 88 361 100 Q 351 104 350 97 Q 350 90 363 79 Q 390 49 409 20 Q 421 5 434 4 Q 450 7 470 53 Q 495 99 492 146 Q 486 260 480 363 Q 479 405 495 437 Q 507 450 494 464 Q 478 479 443 492 Q 428 501 376 479 Q 355 473 330 465 L 289 457 Q 210 441 168 433 C 139 427 151 404 180 411 Z" fill="lightgray"></path>
				<path d="M 288 435 Q 279 254 279 245 Q 273 209 263 173 Q 254 134 276 84 Q 280 68 288 65 Q 294 59 300 66 Q 324 81 325 138 Q 324 172 330 443 L 330 465 Q 334 658 350 706 Q 362 728 340 743 Q 327 753 301 770 Q 280 785 262 771 Q 258 767 263 753 Q 290 711 291 639 Q 291 519 289 457 L 288 435 Z" fill="lightgray"></path>
				<path d="M 169 201 Q 215 225 244 289 Q 254 314 266 333 Q 270 342 261 349 Q 231 367 217 361 Q 210 360 213 350 Q 226 302 177 225 Q 173 221 170 214 C 161 197 161 197 169 201 Z" fill="lightgray"></path>
				<path d="M 346 347 Q 370 269 387 260 Q 394 256 404 265 Q 408 272 409 288 Q 406 321 357 363 Q 351 367 347 360 Q 344 356 346 347 Z" fill="lightgray"></path>
				<path d="M 615 530 Q 616 534 620 539 Q 651 597 681 684 Q 693 723 706 744 Q 713 756 705 768 Q 698 778 667 793 Q 637 805 620 800 Q 604 794 616 776 Q 661 719 531 438 Q 524 426 524 420 Q 523 410 536 415 Q 552 422 600 501 L 615 530 Z" fill="lightgray"></path>
				<path d="M 730 510 Q 866 549 868 549 Q 877 556 871 565 Q 864 575 836 582 Q 806 586 778 573 Q 741 560 699 547 Q 659 537 615 530 C 585 525 571 510 600 501 Q 645 486 685 500 Q 686 501 691 501 L 730 510 Z" fill="lightgray"></path>
				<path d="M 705 223 Q 741 295 750 349 Q 762 434 778 462 Q 787 478 771 488 Q 744 510 730 510 C 701 519 681 525 691 501 Q 691 498 693 494 Q 732 431 671 262 Q 670 262 670 260 L 651 221 Q 612 155 511 83 Q 499 74 511 72 Q 524 71 557 85 Q 605 106 640 139 Q 662 158 679 179 L 705 223 Z" fill="lightgray"></path>
				<path d="M 679 179 Q 758 67 794 63 Q 870 53 934 54 Q 967 54 965 63 Q 965 67 935 82 Q 911 94 884 105 Q 766 162 705 223 L 670 260 Q 646 290 621 322 Q 593 361 561 364 Q 545 367 542 362 Q 539 356 552 345 Q 585 321 651 221 L 679 179 Z" fill="lightgray"></path>
</g>
		<text x="40" y="140" font-size="128" fill="#999999">3</text></g>
		<g id="id0:id3:id3" transform="matrix(1.0,0,0,1.0,3072,0.0)">			<g stroke="lightgray" stroke-width="4" transform="scale(4, 4)"> <rect x="0" y="0" width="256" height="256" fill="white" stroke-width="4"/></g>
			<g transform="scale(0.92, -0.92) translate(60, -920)">					<path d="M 154 601 Q 190 534 216 518 Q 228 511 239 522 Q 248 532 249 547 Q 246 590 174 632 Q 161 641 151 639 Q 145 639 144 628 Q 143 616 154 601 Z" fill="black"></path>
				<path d="M 442 661 Q 423 624 382 564 Q 378 557 383 551 Q 390 550 397 555 Q 475 622 513 647 Q 529 654 524 663 Q 517 678 498 693 Q 479 709 457 709 Q 444 708 446 689 Q 450 676 442 661 Z" fill="black"></path>
				<path d="M 170 214 Q 176 368 180 401 Q 180 407 180 411 C 180 423 180 423 168 433 Q 150 451 121 449 Q 108 445 114 434 Q 156 340 116 165 Q 98 105 98 102 Q 98 75 116 52 Q 123 40 132 45 Q 168 72 169 201 L 170 214 Z" fill="black"></path>
				<path d="M 180 411 Q 246 427 288 435 L 330 443 Q 400 456 419 448 Q 429 442 428 418 Q 438 250 425 119 Q 424 94 408 89 Q 401 88 361 100 Q 351 104 350 97 Q 350 90 363 79 Q 390 49 409 20 Q 421 5 434 4 Q 450 7 470 53 Q 495 99 492 146 Q 486 260 480 363 Q 479 405 495 437 Q 507 450 494 464 Q 478 479 443 492 Q 428 501 376 479 Q 355 473 330 465 L 289 457 Q 210 441 168 433 C 139 427 151 404 180 411 Z" fill="red"></path>
				<path d="M 288 435 Q 279 254 279 245 Q 273 209 263 173 Q 254 134 276 84 Q 280 68 288 65 Q 294 59 300 66 Q 324 81 325 138 Q 324 172 330 443 L 330 465 Q 334 658 350 706 Q 362 728 340 743 Q 327 753 301 770 Q 280 785 262 771 Q 258 767 263 753 Q 290 711 291 639 Q 291 519 289 457 L 288 435 Z" fill="lightgray"></path>
				<path d="M 169 201 Q 215 225 244 289 Q 254 314 266 333 Q 270 342 261 349 Q 231 367 217 361 Q 210 360 213 350 Q 226 302 177 225 Q 173 221 170 214 C 161 197 161 197 169 201 Z" fill="lightgray"></path>
				<path d="M 346 347 Q 370 269 387 260 Q 394 256 404 265 Q 408 272 409 288 Q 406 321 357 363 Q 351 367 347 360 Q 344 356 346 347 Z" fill="lightgray"></path>
				<path d="M 615 530 Q 616 534 620 539 Q 651 597 681 684 Q 693 723 706 744 Q 713 756 705 768 Q 698 778 667 793 Q 637 805 620 800 Q 604 794 616 776 Q 661 719 531 438 Q 524 426 524 420 Q 523 410 536 415 Q 552 422 600 501 L 615 530 Z" fill="lightgray"></path>
				<path d="M 730 510 Q 866 549 868 549 Q 877 556 871 565 Q 864 575 836 582 Q 806 586 778 573 Q 741 560 699 547 Q 659 537 615 530 C 585 525 571 510 600 501 Q 645 486 685 500 Q 686 501 691 501 L 730 510 Z" fill="lightgray"></path>
				<path d="M 705 223 Q 741 295 750 349 Q 762 434 778 462 Q 787 478 771 488 Q 744 510 730 510 C 701 519 681 525 691 501 Q 691 498 693 494 Q 732 431 671 262 Q 670 262 670 260 L 651 221 Q 612 155 511 83 Q 499 74 511 72 Q 524 71 557 85 Q 605 106 640 139 Q 662 158 679 179 L 705 223 Z" fill="lightgray"></path>
				<path d="M 679 179 Q 758 67 794 63 Q 870 53 934 54 Q 967 54 965 63 Q 965 67 935 82 Q 911 94 884 105 Q 766 162 705 223 L 670 260 Q 646 290 621 322 Q 593 361 561 364 Q 545 367 542 362 Q 539 356 552 345 Q 585 321 651 221 L 679 179 Z" fill="lightgray"></path>
</g>
		<text x="40" y="140" font-size="128" fill="#999999">4</text></g>
		<g id="id0:id4:id4" transform="matrix(1.0,0,0,1.0,4096,0.0)">			<g stroke="lightgray" stroke-width="4" transform="scale(4, 4)"> <rect x="0" y="0" width="256" height="256" fill="white" stroke-width="4"/></g>
			<g transform="scale(0.92, -0.92) translate(60, -920)">					<path d="M 154 601 Q 190 534 216 518 Q 228 511 239 522 Q 248 532 249 547 Q 246 590 174 632 Q 161 641 151 639 Q 145 639 144 628 Q 143 616 154 601 Z" fill="black"></path>
				<path d="M 442 661 Q 423 624 382 564 Q 378 557 383 551 Q 390 550 397 555 Q 475 622 513 647 Q 529 654 524 663 Q 517 678 498 693 Q 479 709 457 709 Q 444 708 446 689 Q 450 676 442 661 Z" fill="black"></path>
				<path d="M 170 214 Q 176 368 180 401 Q 180 407 180 411 C 180 423 180 423 168 433 Q 150 451 121 449 Q 108 445 114 434 Q 156 340 116 165 Q 98 105 98 102 Q 98 75 116 52 Q 123 40 132 45 Q 168 72 169 201 L 170 214 Z" fill="black"></path>
				<path d="M 180 411 Q 246 427 288 435 L 330 443 Q 400 456 419 448 Q 429 442 428 418 Q 438 250 425 119 Q 424 94 408 89 Q 401 88 361 100 Q 351 104 350 97 Q 350 90 363 79 Q 390 49 409 20 Q 421 5 434 4 Q 450 7 470 53 Q 495 99 492 146 Q 486 260 480 363 Q 479 405 495 437 Q 507 450 494 464 Q 478 479 443 492 Q 428 501 376 479 Q 355 473 330 465 L 289 457 Q 210 441 168 433 C 139 427 151 404 180 411 Z" fill="black"></path>
				<path d="M 288 435 Q 279 254 279 245 Q 273 209 263 173 Q 254 134 276 84 Q 280 68 288 65 Q 294 59 300 66 Q 324 81 325 138 Q 324 172 330 443 L 330 465 Q 334 658 350 706 Q 362 728 340 743 Q 327 753 301 770 Q 280 785 262 771 Q 258 767 263 753 Q 290 711 291 639 Q 291 519 289 457 L 288 435 Z" fill="red"></path>
				<path d="M 169 201 Q 215 225 244 289 Q 254 314 266 333 Q 270 342 261 349 Q 231 367 217 361 Q 210 360 213 350 Q 226 302 177 225 Q 173 221 170 214 C 161 197 161 197 169 201 Z" fill="lightgray"></path>
				<path d="M 346 347 Q 370 269 387 260 Q 394 256 404 265 Q 408 272 409 288 Q 406 321 357 363 Q 351 367 347 360 Q 344 356 346 347 Z" fill="lightgray"></path>
				<path d="M 615 530 Q 616 534 620 539 Q 651 597 681 684 Q 693 723 706 744 Q 713 756 705 768 Q 698 778 667 793 Q 637 805 620 800 Q 604 794 616 776 Q 661 719 531 438 Q 524 426 524 420 Q 523 410 536 415 Q 552 422 600 501 L 615 530 Z" fill="lightgray"></path>
				<path d="M 730 510 Q 866 549 868 549 Q 877 556 871 565 Q 864 575 836 582 Q 806 586 778 573 Q 741 560 699 547 Q 659 537 615 530 C 585 525 571 510 600 501 Q 645 486 685 500 Q 686 501 691 501 L 730 510 Z" fill="lightgray"></path>
				<path d="M 705 223 Q 741 295 750 349 Q 762 434 778 462 Q 787 478 771 488 Q 744 510 730 510 C 701 519 681 525 691 501 Q 691 498 693 494 Q 732 431 671 262 Q 670 262 670 260 L 651 221 Q 612 155 511 83 Q 499 74 511 72 Q 524 71 557 85 Q 605 106 640 139 Q 662 158 679 179 L 705 223 Z" fill="lightgray"></path>
				<path d="M 679 179 Q 758 67 794 63 Q 870 53 934 54 Q 967 54 965 63 Q 965 67 935 82 Q 911 94 884 105 Q 766 162 705 223 L 670 260 Q 646 290 621 322 Q 593 361 561 364 Q 545 367 542 362 Q 539 356 552 345 Q 585 321 651 221 L 679 179 Z" fill="lightgray"></path>
</g>
		<text x="40" y="140" font-size="128" fill="#999999">5</text></g>
</g>
	<g id="id1:id1" transform="translate(0.0,1024)">
		<g id="id1:id0:id0" transform="matrix(1.0,0,0,1.0,0,0.0)">			<g stroke="lightgray" stroke-width="4" transform="scale(4, 4)"> <rect x="0" y="0" width="256" height="256" fill="white" stroke-width="4"/></g>
			<g transform="scale(0.92, -0.92) translate(60, -920)">					<path d="M 154 601 Q 190 534 216 518 Q 228 511 239 522 Q 248 532 249 547 Q 246 590 174 632 Q 161 641 151 639 Q 145 639 144 628 Q 143 616 154 601 Z" fill="black"></path>
				<path d="M 442 661 Q 423 624 382 564 Q 378 557 383 551 Q 390 550 397 555 Q 475 622 513 647 Q 529 654 524 663 Q 517 678 498 693 Q 479 709 457 709 Q 444 708 446 689 Q 450 676 442 661 Z" fill="black"></path>
				<path d="M 170 214 Q 176 368 180 401 Q 180 407 180 411 C 180 423 180 423 168 433 Q 150 451 121 449 Q 108 445 114 434 Q 156 340 116 165 Q 98 105 98 102 Q 98 75 116 52 Q 123 40 132 45 Q 168 72 169 201 L 170 214 Z" fill="black"></path>
				<path d="M 180 411 Q 246 427 288 435 L 330 443 Q 400 456 419 448 Q 429 442 428 418 Q 438 250 425 119 Q 424 94 408 89 Q 401 88 361 100 Q 351 104 350 97 Q 350 90 363 79 Q 390 49 409 20 Q 421 5 434 4 Q 450 7 470 53 Q 495 99 492 146 Q 486 260 480 363 Q 479 405 495 437 Q 507 450 494 464 Q 478 479 443 492 Q 428 501 376 479 Q 355 473 330 465 L 289 457 Q 210 441 168 433 C 139 427 151 404 180 411 Z" fill="black"></path>
				<path d="M 288 435 Q 279 254 279 245 Q 273 209 263 173 Q 254 134 276 84 Q 280 68 288 65 Q 294 59 300 66 Q 324 81 325 138 Q 324 172 330 443 L 330 465 Q 334 658 350 706 Q 362 728 340 743 Q 327 753 301 770 Q 280 785 262 771 Q 258 767 263 753 Q 290 711 291 639 Q 291 519 289 457 L 288 435 Z" fill="black"></path>
				<path d="M 169 201 Q 215 225 244 289 Q 254 314 266 333 Q 270 342 261 349 Q 231 367 217 361 Q 210 360 213 350 Q 226 302 177 225 Q 173 221 170 214 C 161 197 161 197 169 201 Z" fill="red"></path>
				<path d="M 346 347 Q 370 269 387 260 Q 394 256 404 265 Q 408 272 409 288 Q 406 321 357 363 Q 351 367 347 360 Q 344 356 346 347 Z" fill="lightgray"></path>
				<path d="M 615 530 Q 616 534 620 539 Q 651 597 681 684 Q 693 723 706 744 Q 713 756 705 768 Q 698 778 667 793 Q 637 805 620 800 Q 604 794 616 776 Q 661 719 531 438 Q 524 426 524 420 Q 523 410 536 415 Q 552 422 600 501 L 615 530 Z" fill="lightgray"></path>
				<path d="M 730 510 Q 866 549 868 549 Q 877 556 871 565 Q 864 575 836 582 Q 806 586 778 573 Q 741 560 699 547 Q 659 537 615 530 C 585 525 571 510 600 501 Q 645 486 685 500 Q 686 501 691 501 L 730 510 Z" fill="lightgray"></path>
				<path d="M 705 223 Q 741 295 750 349 Q 762 434 778 462 Q 787 478 771 488 Q 744 510 730 510 C 701 519 681 525 691 501 Q 691 498 693 494 Q 732 431 671 262 Q 670 262 670 260 L 651 221 Q 612 155 511 83 Q 499 74 511 72 Q 524 71 557 85 Q 605 106 640 139 Q 662 158 679 179 L 705 223 Z" fill="lightgray"></path>
				<path d="M 679 179 Q 758 67 794 63 Q 870 53 934 54 Q 967 54 965 63 Q 965 67 935 82 Q 911 94 884 105 Q 766 162 705 223 L 670 260 Q 646 290 621 322 Q 593 361 561 364 Q 545 367 542 362 Q 539 356 552 345 Q 585 321 651 221 L 679 179 Z" fill="lightgray"></path>
</g>
		<text x="40" y="140" font-size="128" fill="#999999">6</text></g>
		<g id="id1:id1:id1" transform="matrix(1.0,0,0,1.0,1024,0.0)">			<g stroke="lightgray" stroke-width="4" transform="scale(4, 4)"> <rect x="0" y="0" width="256" height="256" fill="white" stroke-width="4"/></g>
			<g transform="scale(0.92, -0.92) translate(60, -920)">					<path d="M 154 601 Q 190 534 216 518 Q 228 511 239 522 Q 248 532 249 547 Q 246 590 174 632 Q 161 641 151 639 Q 145 639 144 628 Q 143 616 154 601 Z" fill="black"></path>
				<path d="M 442 661 Q 423 624 382 564 Q 378 557 383 551 Q 390 550 397 555 Q 475 622 513 647 Q 529 654 524 663 Q 517 678 498 693 Q 479 709 457 709 Q 444 708 446 689 Q 450 676 442 661 Z" fill="black"></path>
				<path d="M 170 214 Q 176 368 180 401 Q 180 407 180 411 C 180 423 180 423 168 433 Q 150 451 121 449 Q 108 445 114 434 Q 156 340 116 165 Q 98 105 98 102 Q 98 75 116 52 Q 123 40 132 45 Q 168 72 169 201 L 170 214 Z" fill="black"></path>
				<path d="M 180 411 Q 246 427 288 435 L 330 443 Q 400 456 419 448 Q 429 442 428 418 Q 438 250 425 119 Q 424 94 408 89 Q 401 88 361 100 Q 351 104 350 97 Q 350 90 363 79 Q 390 49 409 20 Q 421 5 434 4 Q 450 7 470 53 Q 495 99 492 146 Q 486 260 480 363 Q 479 405 495 437 Q 507 450 494 464 Q 478 479 443 492 Q 428 501 376 479 Q 355 473 330 465 L 289 457 Q 210 441 168 433 C 139 427 151 404 180 411 Z" fill="black"></path>
				<path d="M 288 435 Q 279 254 279 245 Q 273 209 263 173 Q 254 134 276 84 Q 280 68 288 65 Q 294 59 300 66 Q 324 81 325 138 Q 324 172 330 443 L 330 465 Q 334 658 350 706 Q 362 728 340 743 Q 327 753 301 770 Q 280 785 262 771 Q 258 767 263 753 Q 290 711 291 639 Q 291 519 289 457 L 288 435 Z" fill="black"></path>
				<path d="M 169 201 Q 215 225 244 289 Q 254 314 266 333 Q 270 342 261 349 Q 231 367 217 361 Q 210 360 213 350 Q 226 302 177 225 Q 173 221 170 214 C 161 197 161 197 169 201 Z" fill="black"></path>
				<path d="M 346 347 Q 370 269 387 260 Q 394 256 404 265 Q 408 272 409 288 Q 406 321 357 363 Q 351 367 347 360 Q 344 356 346 347 Z" fill="red"></path>
				<path d="M 615 530 Q 616 534 620 539 Q 651 597 681 684 Q 693 723 706 744 Q 713 756 705 768 Q 698 778 667 793 Q 637 805 620 800 Q 604 794 616 776 Q 661 719 531 438 Q 524 426 524 420 Q 523 410 536 415 Q 552 422 600 501 L 615 530 Z" fill="lightgray"></path>
				<path d="M 730 510 Q 866 549 868 549 Q 877 556 871 565 Q 864 575 836 582 Q 806 586 778 573 Q 741 560 699 547 Q 659 537 615 530 C 585 525 571 510 600 501 Q 645 486 685 500 Q 686 501 691 501 L 730 510 Z" fill="lightgray"></path>
				<path d="M 705 223 Q 741 295 750 349 Q 762 434 778 462 Q 787 478 771 488 Q 744 510 730 510 C 701 519 681 525 691 501 Q 691 498 693 494 Q 732 431 671 262 Q 670 262 670 260 L 651 221 Q 612 155 511 83 Q 499 74 511 72 Q 524 71 557 85 Q 605 106 640 139 Q 662 158 679 179 L 705 223 Z" fill="lightgray"></path>
				<path d="M 679 179 Q 758 67 794 63 Q 870 53 934 54 Q 967 54 965 63 Q 965 67 935 82 Q 911 94 884 105 Q 766 162 705 223 L 670 260 Q 646 290 621 322 Q 593 361 561 364 Q 545 367 542 362 Q 539 356 552 345 Q 585 321 651 221 L 679 179 Z" fill="lightgray"></path>
</g>
		<text x="40" y="140" font-size="128" fill="#999999">7</text></g>
		<g id="id1:id2:id2" transform="matrix(1.0,0,0,1.0,2048,0.0)">			<g stroke="lightgray" stroke-width="4" transform="scale(4, 4)"> <rect x="0" y="0" width="256" height="256" fill="white" stroke-width="4"/></g>
			<g transform="scale(0.92, -0.92) translate(60, -920)">					<path d="M 154 601 Q 190 534 216 518 Q 228 511 239 522 Q 248 532 249 547 Q 246 590 174 632 Q 161 641 151 639 Q 145 639 144 628 Q 143 616 154 601 Z" fill="black"></path>
				<path d="M 442 661 Q 423 624 382 564 Q 378 557 383 551 Q 390 550 397 555 Q 475 622 513 647 Q 529 654 524 663 Q 517 678 498 693 Q 479 709 457 709 Q 444 708 446 689 Q 450 676 442 661 Z" fill="black"></path>
				<path d="M 170 214 Q 176 368 180 401 Q 180 407 180 411 C 180 423 180 423 168 433 Q 150 451 121 449 Q 108 445 114 434 Q 156 340 116 165 Q 98 105 98 102 Q 98 75 116 52 Q 123 40 132 45 Q 168 72 169 201 L 170 214 Z" fill="black"></path>
				<path d="M 180 411 Q 246 427 288 435 L 330 443 Q 400 456 419 448 Q 429 442 428 418 Q 438 250 425 119 Q 424 94 408 89 Q 401 88 361 100 Q 351 104 350 97 Q 350 90 363 79 Q 390 49 409 20 Q 421 5 434 4 Q 450 7 470 53 Q 495 99 492 146 Q 486 260 480 363 Q 479 405 495 437 Q 507 450 494 464 Q 478 479 443 492 Q 428 501 376 479 Q 355 473 330 465 L 289 457 Q 210 441 168 433 C 139 427 151 404 180 411 Z" fill="black"></path>
				<path d="M 288 435 Q 279 254 279 245 Q 273 209 263 173 Q 254 134 276 84 Q 280 68 288 65 Q 294 59 300 66 Q 324 81 325 138 Q 324 172 330 443 L 330 465 Q 334 658 350 706 Q 362 728 340 743 Q 327 753 301 770 Q 280 785 262 771 Q 258 767 263 753 Q 290 711 291 639 Q 291 519 289 457 L 288 435 Z" fill="black"></path>
				<path d="M 169 201 Q 215 225 244 289 Q 254 314 266 333 Q 270 342 261 349 Q 231 367 217 361 Q 210 360 213 350 Q 226 302 177 225 Q 173 221 170 214 C 161 197 161 197 169 201 Z" fill="black"></path>
				<path d="M 346 347 Q 370 269 387 260 Q 394 256 404 265 Q 408 272 409 288 Q 406 321 357 363 Q 351 367 347 360 Q 344 356 346 347 Z" fill="black"></path>
				<path d="M 615 530 Q 616 534 620 539 Q 651 597 681 684 Q 693 723 706 744 Q 713 756 705 768 Q 698 778 667 793 Q 637 805 620 800 Q 604 794 616 776 Q 661 719 531 438 Q 524 426 524 420 Q 523 410 536 415 Q 552 422 600 501 L 615 530 Z" fill="red"></path>
				<path d="M 730 510 Q 866 549 868 549 Q 877 556 871 565 Q 864 575 836 582 Q 806 586 778 573 Q 741 560 699 547 Q 659 537 615 530 C 585 525 571 510 600 501 Q 645 486 685 500 Q 686 501 691 501 L 730 510 Z" fill="lightgray"></path>
				<path d="M 705 223 Q 741 295 750 349 Q 762 434 778 462 Q 787 478 771 488 Q 744 510 730 510 C 701 519 681 525 691 501 Q 691 498 693 494 Q 732 431 671 262 Q 670 262 670 260 L 651 221 Q 612 155 511 83 Q 499 74 511 72 Q 524 71 557 85 Q 605 106 640 139 Q 662 158 679 179 L 705 223 Z" fill="lightgray"></path>
				<path d="M 679 179 Q 758 67 794 63 Q 870 53 934 54 Q 967 54 965 63 Q 965 67 935 82 Q 911 94 884 105 Q 766 162 705 223 L 670 260 Q 646 290 621 322 Q 593 361 561 364 Q 545 367 542 362 Q 539 356 552 345 Q 585 321 651 221 L 679 179 Z" fill="lightgray"></path>
</g>
		<text x="40" y="140" font-size="128" fill="#999999">8</text></g>
		<g id="id1:id3:id3" transform="matrix(1.0,0,0,1.0,3072,0.0)">			<g stroke="lightgray" stroke-width="4" transform="scale(4, 4)"> <rect x="0" y="0" width="256" height="256" fill="white" stroke-width="4"/></g>
			<g transform="scale(0.92, -0.92) translate(60, -920)">					<path d="M 154 601 Q 190 534 216 518 Q 228 511 239 522 Q 248 532 249 547 Q 246 590 174 632 Q 161 641 151 639 Q 145 639 144 628 Q 143 616 154 601 Z" fill="black"></path>
				<path d="M 442 661 Q 423 624 382 564 Q 378 557 383 551 Q 390 550 397 555 Q 475 622 513 647 Q 529 654 524 663 Q 517 678 498 693 Q 479 709 457 709 Q 444 708 446 689 Q 450 676 442 661 Z" fill="black"></path>
				<path d="M 170 214 Q 176 368 180 401 Q 180 407 180 411 C 180 423 180 423 168 433 Q 150 451 121 449 Q 108 445 114 434 Q 156 340 116 165 Q 98 105 98 102 Q 98 75 116 52 Q 123 40 132 45 Q 168 72 169 201 L 170 214 Z" fill="black"></path>
				<path d="M 180 411 Q 246 427 288 435 L 330 443 Q 400 456 419 448 Q 429 442 428 418 Q 438 250 425 119 Q 424 94 408 89 Q 401 88 361 100 Q 351 104 350 97 Q 350 90 363 79 Q 390 49 409 20 Q 421 5 434 4 Q 450 7 470 53 Q 495 99 492 146 Q 486 260 480 363 Q 479 405 495 437 Q 507 450 494 464 Q 478 479 443 492 Q 428 501 376 479 Q 355 473 330 465 L 289 457 Q 210 441 168 433 C 139 427 151 404 180 411 Z" fill="black"></path>
				<path d="M 288 435 Q 279 254 279 245 Q 273 209 263 173 Q 254 134 276 84 Q 280 68 288 65 Q 294 59 300 66 Q 324 81 325 138 Q 324 172 330 443 L 330 465 Q 334 658 350 706 Q 362 728 340 743 Q 327 753 301 770 Q 280 785 262 771 Q 258 767 263 753 Q 290 711 291 639 Q 291 519 289 457 L 288 435 Z" fill="black"></path>
				<path d="M 169 201 Q 215 225 244 289 Q 254 314 266 333 Q 270 342 261 349 Q 231 367 217 361 Q 210 360 213 350 Q 226 302 177 225 Q 173 221 170 214 C 161 197 161 197 169 201 Z" fill="black"></path>
				<path d="M 346 347 Q 370 269 387 260 Q 394 256 404 265 Q 408 272 409 288 Q 406 321 357 363 Q 351 367 347 360 Q 344 356 346 347 Z" fill="black"></path>
				<path d="M 615 530 Q 616 534 620 539 Q 651 597 681 684 Q 693 723 706 744 Q 713 756 705 768 Q 698 778 667 793 Q 637 805 620 800 Q 604 794 616 776 Q 661 719 531 438 Q 524 426 524 420 Q 523 410 536 415 Q 552 422 600 501 L 615 530 Z" fill="black"></path>
				<path d="M 730 510 Q 866 549 868 549 Q 877 556 871 565 Q 864 575 836 582 Q 806 586 778 573 Q 741 560 699 547 Q 659 537 615 530 C 585 525 571 510 600 501 Q 645 486 685 500 Q 686 501 691 501 L 730 510 Z" fill="red"></path>
				<path d="M 705 223 Q 741 295 750 349 Q 762 434 778 462 Q 787 478 771 488 Q 744 510 730 510 C 701 519 681 525 691 501 Q 691 498 693 494 Q 732 431 671 262 Q 670 262 670 260 L 651 221 Q 612 155 511 83 Q 499 74 511 72 Q 524 71 557 85 Q 605 106 640 139 Q 662 158 679 179 L 705 223 Z" fill="lightgray"></path>
				<path d="M 679 179 Q 758 67 794 63 Q 870 53 934 54 Q 967 54 965 63 Q 965 67 935 82 Q 911 94 884 105 Q 766 162 705 223 L 670 260 Q 646 290 621 322 Q 593 361 561 364 Q 545 367 542 362 Q 539 356 552 345 Q 585 321 651 221 L 679 179 Z" fill="lightgray"></path>
</g>
		<text x="40" y="140" font-size="128" fill="#999999">9</text></g>
		<g id="id1:id4:id4" transform="matrix(1.0,0,0,1.0,4096,0.0)">			<g stroke="lightgray" stroke-width="4" transform="scale(4, 4)"> <rect x="0" y="0" width="256" height="256" fill="white" stroke-width="4"/></g>
			<g transform="scale(0.92, -0.92) translate(60, -920)">					<path d="M 154 601 Q 190 534 216 518 Q 228 511 239 522 Q 248 532 249 547 Q 246 590 174 632 Q 161 641 151 639 Q 145 639 144 628 Q 143 616 154 601 Z" fill="black"></path>
				<path d="M 442 661 Q 423 624 382 564 Q 378 557 383 551 Q 390 550 397 555 Q 475 622 513 647 Q 529 654 524 663 Q 517 678 498 693 Q 479 709 457 709 Q 444 708 446 689 Q 450 676 442 661 Z" fill="black"></path>
				<path d="M 170 214 Q 176 368 180 401 Q 180 407 180 411 C 180 423 180 423 168 433 Q 150 451 121 449 Q 108 445 114 434 Q 156 340 116 165 Q 98 105 98 102 Q 98 75 116 52 Q 123 40 132 45 Q 168 72 169 201 L 170 214 Z" fill="black"></path>
				<path d="M 180 411 Q 246 427 288 435 L 330 443 Q 400 456 419 448 Q 429 442 428 418 Q 438 250 425 119 Q 424 94 408 89 Q 401 88 361 100 Q 351 104 350 97 Q 350 90 363 79 Q 390 49 409 20 Q 421 5 434 4 Q 450 7 470 53 Q 495 99 492 146 Q 486 260 480 363 Q 479 405 495 437 Q 507 450 494 464 Q 478 479 443 492 Q 428 501 376 479 Q 355 473 330 465 L 289 457 Q 210 441 168 433 C 139 427 151 404 180 411 Z" fill="black"></path>
				<path d="M 288 435 Q 279 254 279 245 Q 273 209 263 173 Q 254 134 276 84 Q 280 68 288 65 Q 294 59 300 66 Q 324 81 325 138 Q 324 172 330 443 L 330 465 Q 334 658 350 706 Q 362 728 340 743 Q 327 753 301 770 Q 280 785 262 771 Q 258 767 263 753 Q 290 711 291 639 Q 291 519 289 457 L 288 435 Z" fill="black"></path>
				<path d="M 169 201 Q 215 225 244 289 Q 254 314 266 333 Q 270 342 261 349 Q 231 367 217 361 Q 210 360 213 350 Q 226 302 177 225 Q 173 221 170 214 C 161 197 161 197 169 201 Z" fill="black"></path>
				<path d="M 346 347 Q 370 269 387 260 Q 394 256 404 265 Q 408 272 409 288 Q 406 321 357 363 Q 351 367 347 360 Q 344 356 346 347 Z" fill="black"></path>
				<path d="M 615 530 Q 616 534 620 539 Q 651 597 681 684 Q 693 723 706 744 Q 713 756 705 768 Q 698 778 667 793 Q 637 805 620 800 Q 604 794 616 776 Q 661 719 531 438 Q 524 426 524 420 Q 523 410 536 415 Q 552 422 600 501 L 615 530 Z" fill="black"></path>
				<path d="M 730 510 Q 866 549 868 549 Q 877 556 871 565 Q 864 575 836 582 Q 806 586 778 573 Q 741 560 699 547 Q 659 537 615 530 C 585 525 571 510 600 501 Q 645 486 685 500 Q 686 501 691 501 L 730 510 Z" fill="black"></path>
				<path d="M 705 223 Q 741 295 750 349 Q 762 434 778 462 Q 787 478 771 488 Q 744 510 730 510 C 701 519 681 525 691 501 Q 691 498 693 494 Q 732 431 671 262 Q 670 262 670 260 L 651 221 Q 612 155 511 83 Q 499 74 511 72 Q 524 71 557 85 Q 605 106 640 139 Q 662 158 679 179 L 705 223 Z" fill="red"></path>
				<path d="M 679 179 Q 758 67 794 63 Q 870 53 934 54 Q 967 54 965 63 Q 965 67 935 82 Q 911 94 884 105 Q 766 162 705 223 L 670 260 Q 646 290 621 322 Q 593 361 561 364 Q 545 367 542 362 Q 539 356 552 345 Q 585 321 651 221 L 679 179 Z" fill="lightgray"></path>
</g>
		<text x="40" y="140" font-size="128" fill="#999999">10</text></g>
</g>
	<g id="id2:id2" transform="translate(0.0,2048)">
		<g id="id2:id0:id0" transform="matrix(1.0,0,0,1.0,0,0.0)">			<g stroke="lightgray" stroke-width="4" transform="scale(4, 4)"> <rect x="0" y="0" width="256" height="256" fill="white" stroke-width="4"/></g>
			<g transform="scale(0.92, -0.92) translate(60, -920)">					<path d="M 154 601 Q 190 534 216 518 Q 228 511 239 522 Q 248 532 249 547 Q 246 590 174 632 Q 161 641 151 639 Q 145 639 144 628 Q 143 616 154 601 Z" fill="black"></path>
				<path d="M 442 661 Q 423 624 382 564 Q 378 557 383 551 Q 390 550 397 555 Q 475 622 513 647 Q 529 654 524 663 Q 517 678 498 693 Q 479 709 457 709 Q 444 708 446 689 Q 450 676 442 661 Z" fill="black"></path>
				<path d="M 170 214 Q 176 368 180 401 Q 180 407 180 411 C 180 423 180 423 168 433 Q 150 451 121 449 Q 108 445 114 434 Q 156 340 116 165 Q 98 105 98 102 Q 98 75 116 52 Q 123 40 132 45 Q 168 72 169 201 L 170 214 Z" fill="black"></path>
				<path d="M 180 411 Q 246 427 288 435 L 330 443 Q 400 456 419 448 Q 429 442 428 418 Q 438 250 425 119 Q 424 94 408 89 Q 401 88 361 100 Q 351 104 350 97 Q 350 90 363 79 Q 390 49 409 20 Q 421 5 434 4 Q 450 7 470 53 Q 495 99 492 146 Q 486 260 480 363 Q 479 405 495 437 Q 507 450 494 464 Q 478 479 443 492 Q 428 501 376 479 Q 355 473 330 465 L 289 457 Q 210 441 168 433 C 139 427 151 404 180 411 Z" fill="black"></path>
				<path d="M 288 435 Q 279 254 279 245 Q 273 209 263 173 Q 254 134 276 84 Q 280 68 288 65 Q 294 59 300 66 Q 324 81 325 138 Q 324 172 330 443 L 330 465 Q 334 658 350 706 Q 362 728 340 743 Q 327 753 301 770 Q 280 785 262 771 Q 258 767 263 753 Q 290 711 291 639 Q 291 519 289 457 L 288 435 Z" fill="black"></path>
				<path d="M 169 201 Q 215 225 244 289 Q 254 314 266 333 Q 270 342 261 349 Q 231 367 217 361 Q 210 360 213 350 Q 226 302 177 225 Q 173 221 170 214 C 161 197 161 197 169 201 Z" fill="black"></path>
				<path d="M 346 347 Q 370 269 387 260 Q 394 256 404 265 Q 408 272 409 288 Q 406 321 357 363 Q 351 367 347 360 Q 344 356 346 347 Z" fill="black"></path>
				<path d="M 615 530 Q 616 534 620 539 Q 651 597 681 684 Q 693 723 706 744 Q 713 756 705 768 Q 698 778 667 793 Q 637 805 620 800 Q 604 794 616 776 Q 661 719 531 438 Q 524 426 524 420 Q 523 410 536 415 Q 552 422 600 501 L 615 530 Z" fill="black"></path>
				<path d="M 730 510 Q 866 549 868 549 Q 877 556 871 565 Q 864 575 836 582 Q 806 586 778 573 Q 741 560 699 547 Q 659 537 615 530 C 585 525 571 510 600 501 Q 645 486 685 500 Q 686 501 691 501 L 730 510 Z" fill="black"></path>
				<path d="M 705 223 Q 741 295 750 349 Q 762 434 778 462 Q 787 478 771 488 Q 744 510 730 510 C 701 519 681 525 691 501 Q 691 498 693 494 Q 732 431 671 262 Q 670 262 670 260 L 651 221 Q 612 155 511 83 Q 499 74 511 72 Q 524 71 557 85 Q 605 106 640 139 Q 662 158 679 179 L 705 223 Z" fill="black"></path>
				<path d="M 679 179 Q 758 67 794 63 Q 870 53 934 54 Q 967 54 965 63 Q 965 67 935 82 Q 911 94 884 105 Q 766 162 705 223 L 670 260 Q 646 290 621 322 Q 593 361 561 364 Q 545 367 542 362 Q 539 356 552 345 Q 585 321 651 221 L 679 179 Z" fill="red"></path>
</g>
		<text x="40" y="140" font-size="128" fill="#999999">11</text></g>
		<g id="id2:id1:id1" transform="matrix(1.0,0,0,1.0,1024,0.0)">			<g stroke="white" stroke-width="4" transform="scale(4, 4)"> <rect x="1" y="1" width="255" height="255" fill="white" stroke-width="0"/></g>
</g>
		<g id="id2:id2:id2" transform="matrix(1.0,0,0,1.0,2048,0.0)">			<g stroke="white" stroke-width="4" transform="scale(4, 4)"> <rect x="1" y="1" width="255" height="255" fill="white" stroke-width="0"/></g>
</g>
		<g id="id2:id3:id3" transform="matrix(1.0,0,0,1.0,3072,0.0)">			<g stroke="white" stroke-width="4" transform="scale(4, 4)"> <rect x="1" y="1" width="255" height="255" fill="white" stroke-width="0"/></g>
</g>
		<g id="id2:id4:id4" transform="matrix(1.0,0,0,1.0,4096,0.0)">			<g stroke="white" stroke-width="4" transform="scale(4, 4)"> <rect x="1" y="1" width="255" height="255" fill="white" stroke-width="0"/></g>
</g>
</g>
</svg>
