<?xml version="1.0" standalone="no"?>
<!DOCTYPE svg PUBLIC "-//W3C//DTD SVG 1.1//EN"
 "http://www.w3.org/Graphics/SVG/1.1/DTD/svg11.dtd">
<!-- generate by Japanese dictionary app com.asnsami.kanjidictionary -->

<svg xmlns="http://www.w3.org/2000/svg" xmlns:sodipodi="http://sodipodi.sourceforge.net/DTD/sodipodi-0.dtd" version="1.1" width="640" height="128" viewBox="0 0 5120 1024">
	<g id="id0:id0" transform="translate(0.0,0)">
		<g id="id0:id0:id0" transform="matrix(1.0,0,0,1.0,0,0.0)">			<g stroke="lightgray" stroke-width="4" transform="scale(4, 4)"> <rect x="0" y="0" width="256" height="256" fill="white" stroke-width="4"/></g>
			<g transform="scale(0.92, -0.92) translate(60, -920)">					<path d="M 420 777 Q 448 753 480 724 Q 498 708 517 710 Q 530 711 536 728 Q 540 747 528 783 Q 521 805 485 819 Q 400 846 384 836 Q 378 830 380 815 Q 386 802 420 777 Z" fill="red"></path>
				<path d="M 528 568 Q 553 574 753 603 Q 766 602 776 616 Q 777 631 751 643 Q 709 670 625 641 Q 424 593 256 571 Q 225 568 193 562 Q 159 558 185 537 Q 224 507 258 515 Q 364 539 496 563 L 528 568 Z" fill="lightgray"></path>
				<path d="M 507 261 Q 553 339 576 447 Q 582 480 591 501 Q 598 514 588 525 Q 558 561 528 568 C 500 579 493 582 496 563 Q 495 560 496 555 Q 526 444 468 318 Q 464 311 461 302 L 442 267 Q 385 183 252 131 Q 204 115 137 95 Q 125 94 120 90 Q 113 86 123 79 Q 130 76 146 78 Q 261 85 347 123 Q 414 150 482 225 L 507 261 Z" fill="lightgray"></path>
				<path d="M 482 225 Q 525 164 676 38 Q 698 16 734 16 Q 842 17 928 32 Q 974 39 970 51 Q 969 58 922 69 Q 732 114 678 141 Q 612 172 507 261 L 461 302 Q 415 345 368 394 Q 326 437 288 437 Q 269 437 265 432 Q 264 425 280 412 Q 331 384 442 267 L 482 225 Z" fill="lightgray"></path>
</g>
		<text x="40" y="140" font-size="128" fill="#999999">1</text></g>
		<g id="id0:id1:id1" transform="matrix(1.0,0,0,1.0,1024,0.0)">			<g stroke="lightgray" stroke-width="4" transform="scale(4, 4)"> <rect x="0" y="0" width="256" height="256" fill="white" stroke-width="4"/></g>
			<g transform="scale(0.92, -0.92) translate(60, -920)">					<path d="M 420 777 Q 448 753 480 724 Q 498 708 517 710 Q 530 711 536 728 Q 540 747 528 783 Q 521 805 485 819 Q 400 846 384 836 Q 378 830 380 815 Q 386 802 420 777 Z" fill="black"></path>
				<path d="M 528 568 Q 553 574 753 603 Q 766 602 776 616 Q 777 631 751 643 Q 709 670 625 641 Q 424 593 256 571 Q 225 568 193 562 Q 159 558 185 537 Q 224 507 258 515 Q 364 539 496 563 L 528 568 Z" fill="red"></path>
				<path d="M 507 261 Q 553 339 576 447 Q 582 480 591 501 Q 598 514 588 525 Q 558 561 528 568 C 500 579 493 582 496 563 Q 495 560 496 555 Q 526 444 468 318 Q 464 311 461 302 L 442 267 Q 385 183 252 131 Q 204 115 137 95 Q 125 94 120 90 Q 113 86 123 79 Q 130 76 146 78 Q 261 85 347 123 Q 414 150 482 225 L 507 261 Z" fill="lightgray"></path>
				<path d="M 482 225 Q 525 164 676 38 Q 698 16 734 16 Q 842 17 928 32 Q 974 39 970 51 Q 969 58 922 69 Q 732 114 678 141 Q 612 172 507 261 L 461 302 Q 415 345 368 394 Q 326 437 288 437 Q 269 437 265 432 Q 264 425 280 412 Q 331 384 442 267 L 482 225 Z" fill="lightgray"></path>
</g>
		<text x="40" y="140" font-size="128" fill="#999999">2</text></g>
		<g id="id0:id2:id2" transform="matrix(1.0,0,0,1.0,2048,0.0)">			<g stroke="lightgray" stroke-width="4" transform="scale(4, 4)"> <rect x="0" y="0" width="256" height="256" fill="white" stroke-width="4"/></g>
			<g transform="scale(0.92, -0.92) translate(60, -920)">					<path d="M 420 777 Q 448 753 480 724 Q 498 708 517 710 Q 530 711 536 728 Q 540 747 528 783 Q 521 805 485 819 Q 400 846 384 836 Q 378 830 380 815 Q 386 802 420 777 Z" fill="black"></path>
				<path d="M 528 568 Q 553 574 753 603 Q 766 602 776 616 Q 777 631 751 643 Q 709 670 625 641 Q 424 593 256 571 Q 225 568 193 562 Q 159 558 185 537 Q 224 507 258 515 Q 364 539 496 563 L 528 568 Z" fill="black"></path>
				<path d="M 507 261 Q 553 339 576 447 Q 582 480 591 501 Q 598 514 588 525 Q 558 561 528 568 C 500 579 493 582 496 563 Q 495 560 496 555 Q 526 444 468 318 Q 464 311 461 302 L 442 267 Q 385 183 252 131 Q 204 115 137 95 Q 125 94 120 90 Q 113 86 123 79 Q 130 76 146 78 Q 261 85 347 123 Q 414 150 482 225 L 507 261 Z" fill="red"></path>
				<path d="M 482 225 Q 525 164 676 38 Q 698 16 734 16 Q 842 17 928 32 Q 974 39 970 51 Q 969 58 922 69 Q 732 114 678 141 Q 612 172 507 261 L 461 302 Q 415 345 368 394 Q 326 437 288 437 Q 269 437 265 432 Q 264 425 280 412 Q 331 384 442 267 L 482 225 Z" fill="lightgray"></path>
</g>
		<text x="40" y="140" font-size="128" fill="#999999">3</text></g>
		<g id="id0:id3:id3" transform="matrix(1.0,0,0,1.0,3072,0.0)">			<g stroke="lightgray" stroke-width="4" transform="scale(4, 4)"> <rect x="0" y="0" width="256" height="256" fill="white" stroke-width="4"/></g>
			<g transform="scale(0.92, -0.92) translate(60, -920)">					<path d="M 420 777 Q 448 753 480 724 Q 498 708 517 710 Q 530 711 536 728 Q 540 747 528 783 Q 521 805 485 819 Q 400 846 384 836 Q 378 830 380 815 Q 386 802 420 777 Z" fill="black"></path>
				<path d="M 528 568 Q 553 574 753 603 Q 766 602 776 616 Q 777 631 751 643 Q 709 670 625 641 Q 424 593 256 571 Q 225 568 193 562 Q 159 558 185 537 Q 224 507 258 515 Q 364 539 496 563 L 528 568 Z" fill="black"></path>
				<path d="M 507 261 Q 553 339 576 447 Q 582 480 591 501 Q 598 514 588 525 Q 558 561 528 568 C 500 579 493 582 496 563 Q 495 560 496 555 Q 526 444 468 318 Q 464 311 461 302 L 442 267 Q 385 183 252 131 Q 204 115 137 95 Q 125 94 120 90 Q 113 86 123 79 Q 130 76 146 78 Q 261 85 347 123 Q 414 150 482 225 L 507 261 Z" fill="black"></path>
				<path d="M 482 225 Q 525 164 676 38 Q 698 16 734 16 Q 842 17 928 32 Q 974 39 970 51 Q 969 58 922 69 Q 732 114 678 141 Q 612 172 507 261 L 461 302 Q 415 345 368 394 Q 326 437 288 437 Q 269 437 265 432 Q 264 425 280 412 Q 331 384 442 267 L 482 225 Z" fill="red"></path>
</g>
		<text x="40" y="140" font-size="128" fill="#999999">4</text></g>
		<g id="id0:id4:id4" transform="matrix(1.0,0,0,1.0,4096,0.0)">			<g stroke="white" stroke-width="4" transform="scale(4, 4)"> <rect x="1" y="1" width="255" height="255" fill="white" stroke-width="0"/></g>
</g>
</g>
</svg>
