<?xml version="1.0" standalone="no"?>
<!DOCTYPE svg PUBLIC "-//W3C//DTD SVG 1.1//EN"
 "http://www.w3.org/Graphics/SVG/1.1/DTD/svg11.dtd">
<!-- generate by Handict dictionary app com.asnsami.handict -->

<svg xmlns="http://www.w3.org/2000/svg" xmlns:sodipodi="http://sodipodi.sourceforge.net/DTD/sodipodi-0.dtd" version="1.1" width="640" height="256" viewBox="0 0 5120 2048">
	<g id="id0:id0" transform="translate(0.0,0)">
		<g id="id0:id0:id0" transform="matrix(1.0,0,0,1.0,0,0.0)">			<g stroke="lightgray" stroke-width="4" transform="scale(4, 4)"> <rect x="0" y="0" width="256" height="256" fill="white" stroke-width="4"/></g>
			<g transform="scale(0.92, -0.92) translate(60, -920)">					<path d="M 341 752 Q 319 764 295 768 Q 288 769 283 764 Q 276 757 286 747 Q 328 690 345 560 Q 354 490 395 471 Q 411 468 412 493 L 410 518 Q 406 540 389 602 L 384 628 Q 384 631 384 632 Q 375 678 371 716 C 369 738 368 739 341 752 Z" fill="red"></path>
				<path d="M 610 518 Q 611 514 613 509 Q 619 491 632 493 Q 647 494 655 510 Q 670 531 696 628 Q 714 683 753 715 Q 774 733 756 749 Q 737 768 684 796 Q 671 805 595 791 Q 571 791 438 767 Q 380 757 341 752 C 311 748 343 706 371 716 Q 404 734 608 754 Q 636 755 647 750 Q 659 743 652 707 Q 627 580 616 548 C 608 522 608 522 610 518 Z" fill="lightgray"></path>
				<path d="M 389 602 Q 393 602 401 603 Q 501 622 575 633 Q 597 637 589 649 Q 579 662 555 667 Q 537 670 384 628 C 355 620 359 600 389 602 Z" fill="lightgray"></path>
				<path d="M 510 505 Q 562 514 610 518 C 640 521 645 539 616 548 Q 612 549 607 551 Q 591 554 410 518 C 381 512 382 493 412 493 Q 416 493 424 493 Q 439 496 455 497 L 510 505 Z" fill="lightgray"></path>
				<path d="M 538 341 Q 728 365 910 345 Q 934 342 939 351 Q 948 364 935 376 Q 907 404 863 424 Q 848 430 823 422 Q 750 407 674 397 Q 595 390 539 383 L 479 377 Q 352 367 288 359 Q 215 349 106 348 Q 93 349 91 337 Q 90 325 109 310 Q 125 297 156 285 Q 166 281 185 289 Q 203 295 280 307 Q 370 326 479 337 L 538 341 Z" fill="lightgray"></path>
				<path d="M 482 6 Q 486 -19 494 -29 Q 500 -36 507 -34 Q 534 -13 536 153 Q 535 196 538 341 L 539 383 Q 539 416 549 461 Q 552 480 538 489 Q 522 499 510 505 C 484 519 441 524 455 497 Q 456 496 458 491 Q 477 458 478 393 Q 478 386 479 377 L 479 337 Q 479 31 482 6 Z" fill="lightgray"></path>
</g>
		<text x="40" y="140" font-size="128" fill="#999999">1</text></g>
		<g id="id0:id1:id1" transform="matrix(1.0,0,0,1.0,1024,0.0)">			<g stroke="lightgray" stroke-width="4" transform="scale(4, 4)"> <rect x="0" y="0" width="256" height="256" fill="white" stroke-width="4"/></g>
			<g transform="scale(0.92, -0.92) translate(60, -920)">					<path d="M 341 752 Q 319 764 295 768 Q 288 769 283 764 Q 276 757 286 747 Q 328 690 345 560 Q 354 490 395 471 Q 411 468 412 493 L 410 518 Q 406 540 389 602 L 384 628 Q 384 631 384 632 Q 375 678 371 716 C 369 738 368 739 341 752 Z" fill="black"></path>
				<path d="M 610 518 Q 611 514 613 509 Q 619 491 632 493 Q 647 494 655 510 Q 670 531 696 628 Q 714 683 753 715 Q 774 733 756 749 Q 737 768 684 796 Q 671 805 595 791 Q 571 791 438 767 Q 380 757 341 752 C 311 748 343 706 371 716 Q 404 734 608 754 Q 636 755 647 750 Q 659 743 652 707 Q 627 580 616 548 C 608 522 608 522 610 518 Z" fill="red"></path>
				<path d="M 389 602 Q 393 602 401 603 Q 501 622 575 633 Q 597 637 589 649 Q 579 662 555 667 Q 537 670 384 628 C 355 620 359 600 389 602 Z" fill="lightgray"></path>
				<path d="M 510 505 Q 562 514 610 518 C 640 521 645 539 616 548 Q 612 549 607 551 Q 591 554 410 518 C 381 512 382 493 412 493 Q 416 493 424 493 Q 439 496 455 497 L 510 505 Z" fill="lightgray"></path>
				<path d="M 538 341 Q 728 365 910 345 Q 934 342 939 351 Q 948 364 935 376 Q 907 404 863 424 Q 848 430 823 422 Q 750 407 674 397 Q 595 390 539 383 L 479 377 Q 352 367 288 359 Q 215 349 106 348 Q 93 349 91 337 Q 90 325 109 310 Q 125 297 156 285 Q 166 281 185 289 Q 203 295 280 307 Q 370 326 479 337 L 538 341 Z" fill="lightgray"></path>
				<path d="M 482 6 Q 486 -19 494 -29 Q 500 -36 507 -34 Q 534 -13 536 153 Q 535 196 538 341 L 539 383 Q 539 416 549 461 Q 552 480 538 489 Q 522 499 510 505 C 484 519 441 524 455 497 Q 456 496 458 491 Q 477 458 478 393 Q 478 386 479 377 L 479 337 Q 479 31 482 6 Z" fill="lightgray"></path>
</g>
		<text x="40" y="140" font-size="128" fill="#999999">2</text></g>
		<g id="id0:id2:id2" transform="matrix(1.0,0,0,1.0,2048,0.0)">			<g stroke="lightgray" stroke-width="4" transform="scale(4, 4)"> <rect x="0" y="0" width="256" height="256" fill="white" stroke-width="4"/></g>
			<g transform="scale(0.92, -0.92) translate(60, -920)">					<path d="M 341 752 Q 319 764 295 768 Q 288 769 283 764 Q 276 757 286 747 Q 328 690 345 560 Q 354 490 395 471 Q 411 468 412 493 L 410 518 Q 406 540 389 602 L 384 628 Q 384 631 384 632 Q 375 678 371 716 C 369 738 368 739 341 752 Z" fill="black"></path>
				<path d="M 610 518 Q 611 514 613 509 Q 619 491 632 493 Q 647 494 655 510 Q 670 531 696 628 Q 714 683 753 715 Q 774 733 756 749 Q 737 768 684 796 Q 671 805 595 791 Q 571 791 438 767 Q 380 757 341 752 C 311 748 343 706 371 716 Q 404 734 608 754 Q 636 755 647 750 Q 659 743 652 707 Q 627 580 616 548 C 608 522 608 522 610 518 Z" fill="black"></path>
				<path d="M 389 602 Q 393 602 401 603 Q 501 622 575 633 Q 597 637 589 649 Q 579 662 555 667 Q 537 670 384 628 C 355 620 359 600 389 602 Z" fill="red"></path>
				<path d="M 510 505 Q 562 514 610 518 C 640 521 645 539 616 548 Q 612 549 607 551 Q 591 554 410 518 C 381 512 382 493 412 493 Q 416 493 424 493 Q 439 496 455 497 L 510 505 Z" fill="lightgray"></path>
				<path d="M 538 341 Q 728 365 910 345 Q 934 342 939 351 Q 948 364 935 376 Q 907 404 863 424 Q 848 430 823 422 Q 750 407 674 397 Q 595 390 539 383 L 479 377 Q 352 367 288 359 Q 215 349 106 348 Q 93 349 91 337 Q 90 325 109 310 Q 125 297 156 285 Q 166 281 185 289 Q 203 295 280 307 Q 370 326 479 337 L 538 341 Z" fill="lightgray"></path>
				<path d="M 482 6 Q 486 -19 494 -29 Q 500 -36 507 -34 Q 534 -13 536 153 Q 535 196 538 341 L 539 383 Q 539 416 549 461 Q 552 480 538 489 Q 522 499 510 505 C 484 519 441 524 455 497 Q 456 496 458 491 Q 477 458 478 393 Q 478 386 479 377 L 479 337 Q 479 31 482 6 Z" fill="lightgray"></path>
</g>
		<text x="40" y="140" font-size="128" fill="#999999">3</text></g>
		<g id="id0:id3:id3" transform="matrix(1.0,0,0,1.0,3072,0.0)">			<g stroke="lightgray" stroke-width="4" transform="scale(4, 4)"> <rect x="0" y="0" width="256" height="256" fill="white" stroke-width="4"/></g>
			<g transform="scale(0.92, -0.92) translate(60, -920)">					<path d="M 341 752 Q 319 764 295 768 Q 288 769 283 764 Q 276 757 286 747 Q 328 690 345 560 Q 354 490 395 471 Q 411 468 412 493 L 410 518 Q 406 540 389 602 L 384 628 Q 384 631 384 632 Q 375 678 371 716 C 369 738 368 739 341 752 Z" fill="black"></path>
				<path d="M 610 518 Q 611 514 613 509 Q 619 491 632 493 Q 647 494 655 510 Q 670 531 696 628 Q 714 683 753 715 Q 774 733 756 749 Q 737 768 684 796 Q 671 805 595 791 Q 571 791 438 767 Q 380 757 341 752 C 311 748 343 706 371 716 Q 404 734 608 754 Q 636 755 647 750 Q 659 743 652 707 Q 627 580 616 548 C 608 522 608 522 610 518 Z" fill="black"></path>
				<path d="M 389 602 Q 393 602 401 603 Q 501 622 575 633 Q 597 637 589 649 Q 579 662 555 667 Q 537 670 384 628 C 355 620 359 600 389 602 Z" fill="black"></path>
				<path d="M 510 505 Q 562 514 610 518 C 640 521 645 539 616 548 Q 612 549 607 551 Q 591 554 410 518 C 381 512 382 493 412 493 Q 416 493 424 493 Q 439 496 455 497 L 510 505 Z" fill="red"></path>
				<path d="M 538 341 Q 728 365 910 345 Q 934 342 939 351 Q 948 364 935 376 Q 907 404 863 424 Q 848 430 823 422 Q 750 407 674 397 Q 595 390 539 383 L 479 377 Q 352 367 288 359 Q 215 349 106 348 Q 93 349 91 337 Q 90 325 109 310 Q 125 297 156 285 Q 166 281 185 289 Q 203 295 280 307 Q 370 326 479 337 L 538 341 Z" fill="lightgray"></path>
				<path d="M 482 6 Q 486 -19 494 -29 Q 500 -36 507 -34 Q 534 -13 536 153 Q 535 196 538 341 L 539 383 Q 539 416 549 461 Q 552 480 538 489 Q 522 499 510 505 C 484 519 441 524 455 497 Q 456 496 458 491 Q 477 458 478 393 Q 478 386 479 377 L 479 337 Q 479 31 482 6 Z" fill="lightgray"></path>
</g>
		<text x="40" y="140" font-size="128" fill="#999999">4</text></g>
		<g id="id0:id4:id4" transform="matrix(1.0,0,0,1.0,4096,0.0)">			<g stroke="lightgray" stroke-width="4" transform="scale(4, 4)"> <rect x="0" y="0" width="256" height="256" fill="white" stroke-width="4"/></g>
			<g transform="scale(0.92, -0.92) translate(60, -920)">					<path d="M 341 752 Q 319 764 295 768 Q 288 769 283 764 Q 276 757 286 747 Q 328 690 345 560 Q 354 490 395 471 Q 411 468 412 493 L 410 518 Q 406 540 389 602 L 384 628 Q 384 631 384 632 Q 375 678 371 716 C 369 738 368 739 341 752 Z" fill="black"></path>
				<path d="M 610 518 Q 611 514 613 509 Q 619 491 632 493 Q 647 494 655 510 Q 670 531 696 628 Q 714 683 753 715 Q 774 733 756 749 Q 737 768 684 796 Q 671 805 595 791 Q 571 791 438 767 Q 380 757 341 752 C 311 748 343 706 371 716 Q 404 734 608 754 Q 636 755 647 750 Q 659 743 652 707 Q 627 580 616 548 C 608 522 608 522 610 518 Z" fill="black"></path>
				<path d="M 389 602 Q 393 602 401 603 Q 501 622 575 633 Q 597 637 589 649 Q 579 662 555 667 Q 537 670 384 628 C 355 620 359 600 389 602 Z" fill="black"></path>
				<path d="M 510 505 Q 562 514 610 518 C 640 521 645 539 616 548 Q 612 549 607 551 Q 591 554 410 518 C 381 512 382 493 412 493 Q 416 493 424 493 Q 439 496 455 497 L 510 505 Z" fill="black"></path>
				<path d="M 538 341 Q 728 365 910 345 Q 934 342 939 351 Q 948 364 935 376 Q 907 404 863 424 Q 848 430 823 422 Q 750 407 674 397 Q 595 390 539 383 L 479 377 Q 352 367 288 359 Q 215 349 106 348 Q 93 349 91 337 Q 90 325 109 310 Q 125 297 156 285 Q 166 281 185 289 Q 203 295 280 307 Q 370 326 479 337 L 538 341 Z" fill="red"></path>
				<path d="M 482 6 Q 486 -19 494 -29 Q 500 -36 507 -34 Q 534 -13 536 153 Q 535 196 538 341 L 539 383 Q 539 416 549 461 Q 552 480 538 489 Q 522 499 510 505 C 484 519 441 524 455 497 Q 456 496 458 491 Q 477 458 478 393 Q 478 386 479 377 L 479 337 Q 479 31 482 6 Z" fill="lightgray"></path>
</g>
		<text x="40" y="140" font-size="128" fill="#999999">5</text></g>
</g>
	<g id="id1:id1" transform="translate(0.0,1024)">
		<g id="id1:id0:id0" transform="matrix(1.0,0,0,1.0,0,0.0)">			<g stroke="lightgray" stroke-width="4" transform="scale(4, 4)"> <rect x="0" y="0" width="256" height="256" fill="white" stroke-width="4"/></g>
			<g transform="scale(0.92, -0.92) translate(60, -920)">					<path d="M 341 752 Q 319 764 295 768 Q 288 769 283 764 Q 276 757 286 747 Q 328 690 345 560 Q 354 490 395 471 Q 411 468 412 493 L 410 518 Q 406 540 389 602 L 384 628 Q 384 631 384 632 Q 375 678 371 716 C 369 738 368 739 341 752 Z" fill="black"></path>
				<path d="M 610 518 Q 611 514 613 509 Q 619 491 632 493 Q 647 494 655 510 Q 670 531 696 628 Q 714 683 753 715 Q 774 733 756 749 Q 737 768 684 796 Q 671 805 595 791 Q 571 791 438 767 Q 380 757 341 752 C 311 748 343 706 371 716 Q 404 734 608 754 Q 636 755 647 750 Q 659 743 652 707 Q 627 580 616 548 C 608 522 608 522 610 518 Z" fill="black"></path>
				<path d="M 389 602 Q 393 602 401 603 Q 501 622 575 633 Q 597 637 589 649 Q 579 662 555 667 Q 537 670 384 628 C 355 620 359 600 389 602 Z" fill="black"></path>
				<path d="M 510 505 Q 562 514 610 518 C 640 521 645 539 616 548 Q 612 549 607 551 Q 591 554 410 518 C 381 512 382 493 412 493 Q 416 493 424 493 Q 439 496 455 497 L 510 505 Z" fill="black"></path>
				<path d="M 538 341 Q 728 365 910 345 Q 934 342 939 351 Q 948 364 935 376 Q 907 404 863 424 Q 848 430 823 422 Q 750 407 674 397 Q 595 390 539 383 L 479 377 Q 352 367 288 359 Q 215 349 106 348 Q 93 349 91 337 Q 90 325 109 310 Q 125 297 156 285 Q 166 281 185 289 Q 203 295 280 307 Q 370 326 479 337 L 538 341 Z" fill="black"></path>
				<path d="M 482 6 Q 486 -19 494 -29 Q 500 -36 507 -34 Q 534 -13 536 153 Q 535 196 538 341 L 539 383 Q 539 416 549 461 Q 552 480 538 489 Q 522 499 510 505 C 484 519 441 524 455 497 Q 456 496 458 491 Q 477 458 478 393 Q 478 386 479 377 L 479 337 Q 479 31 482 6 Z" fill="red"></path>
</g>
		<text x="40" y="140" font-size="128" fill="#999999">6</text></g>
		<g id="id1:id1:id1" transform="matrix(1.0,0,0,1.0,1024,0.0)">			<g stroke="white" stroke-width="4" transform="scale(4, 4)"> <rect x="1" y="1" width="255" height="255" fill="white" stroke-width="0"/></g>
</g>
		<g id="id1:id2:id2" transform="matrix(1.0,0,0,1.0,2048,0.0)">			<g stroke="white" stroke-width="4" transform="scale(4, 4)"> <rect x="1" y="1" width="255" height="255" fill="white" stroke-width="0"/></g>
</g>
		<g id="id1:id3:id3" transform="matrix(1.0,0,0,1.0,3072,0.0)">			<g stroke="white" stroke-width="4" transform="scale(4, 4)"> <rect x="1" y="1" width="255" height="255" fill="white" stroke-width="0"/></g>
</g>
		<g id="id1:id4:id4" transform="matrix(1.0,0,0,1.0,4096,0.0)">			<g stroke="white" stroke-width="4" transform="scale(4, 4)"> <rect x="1" y="1" width="255" height="255" fill="white" stroke-width="0"/></g>
</g>
</g>
</svg>
