<?xml version="1.0" standalone="no"?>
<!DOCTYPE svg PUBLIC "-//W3C//DTD SVG 1.1//EN"
 "http://www.w3.org/Graphics/SVG/1.1/DTD/svg11.dtd">
<!-- generate by Japanese dictionary app com.asnsami.kanjidictionary -->

<svg xmlns="http://www.w3.org/2000/svg" xmlns:sodipodi="http://sodipodi.sourceforge.net/DTD/sodipodi-0.dtd" version="1.1" width="640" height="256" viewBox="0 0 5120 2048">
	<g id="id0:id0" transform="translate(0.0,0)">
		<g id="id0:id0:id0" transform="matrix(1.0,0,0,1.0,0,0.0)">			<g stroke="lightgray" stroke-width="4" transform="scale(4, 4)"> <rect x="0" y="0" width="256" height="256" fill="white" stroke-width="4"/></g>
			<g transform="scale(0.92, -0.92) translate(60, -920)">					<path d="M 182 698 Q 173 710 145 720 Q 135 724 124 721 Q 117 717 123 704 Q 144 625 145 528 Q 139 357 125 300 Q 110 246 146 201 Q 156 188 166 201 Q 176 214 178 229 L 181 261 Q 182 285 183 317 Q 184 402 185 466 L 186 499 Q 189 646 191 659 Q 192 666 192 673 C 193 688 193 688 182 698 Z" fill="red"></path>
				<path d="M 286 244 Q 296 228 306 213 Q 322 189 329 192 Q 341 193 355 226 Q 368 262 366 308 Q 362 401 361 603 Q 361 655 376 682 Q 386 700 378 710 Q 371 720 322 736 Q 298 743 282 734 Q 228 709 182 698 C 153 690 163 667 192 673 Q 228 679 266 691 Q 291 698 301 691 Q 314 678 314 626 Q 315 413 304 296 Q 307 277 293 276 C 278 257 278 257 286 244 Z" fill="lightgray"></path>
				<path d="M 185 466 Q 234 476 273 480 Q 295 484 285 497 Q 275 510 250 513 Q 228 514 190 501 Q 189 500 186 499 C 159 487 156 460 185 466 Z" fill="lightgray"></path>
				<path d="M 178 229 Q 178 230 181 230 Q 215 237 286 244 C 316 247 318 260 293 276 Q 292 277 290 278 Q 277 284 181 261 C 152 254 149 220 178 229 Z" fill="lightgray"></path>
				<path d="M 616 766 Q 646 745 677 719 Q 693 706 709 708 Q 721 709 725 724 Q 728 740 716 771 Q 709 790 675 802 Q 597 824 584 815 Q 580 811 582 797 Q 586 787 616 766 Z" fill="lightgray"></path>
				<path d="M 517 562 Q 532 555 554 562 Q 650 584 861 620 Q 871 619 881 632 Q 882 645 858 655 Q 827 674 756 653 Q 687 638 503 602 C 474 596 488 570 517 562 Z" fill="lightgray"></path>
				<path d="M 503 602 Q 454 627 437 625 Q 416 621 433 598 Q 469 535 440 310 Q 428 250 399 180 Q 374 120 283 28 Q 265 18 258 1 Q 255 -6 268 -6 Q 284 -6 306 9 Q 355 42 385 74 Q 430 120 455 175 Q 479 232 492 310 Q 508 401 513 538 Q 514 553 517 562 C 522 592 522 593 503 602 Z" fill="lightgray"></path>
</g>
		<text x="40" y="140" font-size="128" fill="#999999">1</text></g>
		<g id="id0:id1:id1" transform="matrix(1.0,0,0,1.0,1024,0.0)">			<g stroke="lightgray" stroke-width="4" transform="scale(4, 4)"> <rect x="0" y="0" width="256" height="256" fill="white" stroke-width="4"/></g>
			<g transform="scale(0.92, -0.92) translate(60, -920)">					<path d="M 182 698 Q 173 710 145 720 Q 135 724 124 721 Q 117 717 123 704 Q 144 625 145 528 Q 139 357 125 300 Q 110 246 146 201 Q 156 188 166 201 Q 176 214 178 229 L 181 261 Q 182 285 183 317 Q 184 402 185 466 L 186 499 Q 189 646 191 659 Q 192 666 192 673 C 193 688 193 688 182 698 Z" fill="black"></path>
				<path d="M 286 244 Q 296 228 306 213 Q 322 189 329 192 Q 341 193 355 226 Q 368 262 366 308 Q 362 401 361 603 Q 361 655 376 682 Q 386 700 378 710 Q 371 720 322 736 Q 298 743 282 734 Q 228 709 182 698 C 153 690 163 667 192 673 Q 228 679 266 691 Q 291 698 301 691 Q 314 678 314 626 Q 315 413 304 296 Q 307 277 293 276 C 278 257 278 257 286 244 Z" fill="red"></path>
				<path d="M 185 466 Q 234 476 273 480 Q 295 484 285 497 Q 275 510 250 513 Q 228 514 190 501 Q 189 500 186 499 C 159 487 156 460 185 466 Z" fill="lightgray"></path>
				<path d="M 178 229 Q 178 230 181 230 Q 215 237 286 244 C 316 247 318 260 293 276 Q 292 277 290 278 Q 277 284 181 261 C 152 254 149 220 178 229 Z" fill="lightgray"></path>
				<path d="M 616 766 Q 646 745 677 719 Q 693 706 709 708 Q 721 709 725 724 Q 728 740 716 771 Q 709 790 675 802 Q 597 824 584 815 Q 580 811 582 797 Q 586 787 616 766 Z" fill="lightgray"></path>
				<path d="M 517 562 Q 532 555 554 562 Q 650 584 861 620 Q 871 619 881 632 Q 882 645 858 655 Q 827 674 756 653 Q 687 638 503 602 C 474 596 488 570 517 562 Z" fill="lightgray"></path>
				<path d="M 503 602 Q 454 627 437 625 Q 416 621 433 598 Q 469 535 440 310 Q 428 250 399 180 Q 374 120 283 28 Q 265 18 258 1 Q 255 -6 268 -6 Q 284 -6 306 9 Q 355 42 385 74 Q 430 120 455 175 Q 479 232 492 310 Q 508 401 513 538 Q 514 553 517 562 C 522 592 522 593 503 602 Z" fill="lightgray"></path>
</g>
		<text x="40" y="140" font-size="128" fill="#999999">2</text></g>
		<g id="id0:id2:id2" transform="matrix(1.0,0,0,1.0,2048,0.0)">			<g stroke="lightgray" stroke-width="4" transform="scale(4, 4)"> <rect x="0" y="0" width="256" height="256" fill="white" stroke-width="4"/></g>
			<g transform="scale(0.92, -0.92) translate(60, -920)">					<path d="M 182 698 Q 173 710 145 720 Q 135 724 124 721 Q 117 717 123 704 Q 144 625 145 528 Q 139 357 125 300 Q 110 246 146 201 Q 156 188 166 201 Q 176 214 178 229 L 181 261 Q 182 285 183 317 Q 184 402 185 466 L 186 499 Q 189 646 191 659 Q 192 666 192 673 C 193 688 193 688 182 698 Z" fill="black"></path>
				<path d="M 286 244 Q 296 228 306 213 Q 322 189 329 192 Q 341 193 355 226 Q 368 262 366 308 Q 362 401 361 603 Q 361 655 376 682 Q 386 700 378 710 Q 371 720 322 736 Q 298 743 282 734 Q 228 709 182 698 C 153 690 163 667 192 673 Q 228 679 266 691 Q 291 698 301 691 Q 314 678 314 626 Q 315 413 304 296 Q 307 277 293 276 C 278 257 278 257 286 244 Z" fill="black"></path>
				<path d="M 185 466 Q 234 476 273 480 Q 295 484 285 497 Q 275 510 250 513 Q 228 514 190 501 Q 189 500 186 499 C 159 487 156 460 185 466 Z" fill="red"></path>
				<path d="M 178 229 Q 178 230 181 230 Q 215 237 286 244 C 316 247 318 260 293 276 Q 292 277 290 278 Q 277 284 181 261 C 152 254 149 220 178 229 Z" fill="lightgray"></path>
				<path d="M 616 766 Q 646 745 677 719 Q 693 706 709 708 Q 721 709 725 724 Q 728 740 716 771 Q 709 790 675 802 Q 597 824 584 815 Q 580 811 582 797 Q 586 787 616 766 Z" fill="lightgray"></path>
				<path d="M 517 562 Q 532 555 554 562 Q 650 584 861 620 Q 871 619 881 632 Q 882 645 858 655 Q 827 674 756 653 Q 687 638 503 602 C 474 596 488 570 517 562 Z" fill="lightgray"></path>
				<path d="M 503 602 Q 454 627 437 625 Q 416 621 433 598 Q 469 535 440 310 Q 428 250 399 180 Q 374 120 283 28 Q 265 18 258 1 Q 255 -6 268 -6 Q 284 -6 306 9 Q 355 42 385 74 Q 430 120 455 175 Q 479 232 492 310 Q 508 401 513 538 Q 514 553 517 562 C 522 592 522 593 503 602 Z" fill="lightgray"></path>
</g>
		<text x="40" y="140" font-size="128" fill="#999999">3</text></g>
		<g id="id0:id3:id3" transform="matrix(1.0,0,0,1.0,3072,0.0)">			<g stroke="lightgray" stroke-width="4" transform="scale(4, 4)"> <rect x="0" y="0" width="256" height="256" fill="white" stroke-width="4"/></g>
			<g transform="scale(0.92, -0.92) translate(60, -920)">					<path d="M 182 698 Q 173 710 145 720 Q 135 724 124 721 Q 117 717 123 704 Q 144 625 145 528 Q 139 357 125 300 Q 110 246 146 201 Q 156 188 166 201 Q 176 214 178 229 L 181 261 Q 182 285 183 317 Q 184 402 185 466 L 186 499 Q 189 646 191 659 Q 192 666 192 673 C 193 688 193 688 182 698 Z" fill="black"></path>
				<path d="M 286 244 Q 296 228 306 213 Q 322 189 329 192 Q 341 193 355 226 Q 368 262 366 308 Q 362 401 361 603 Q 361 655 376 682 Q 386 700 378 710 Q 371 720 322 736 Q 298 743 282 734 Q 228 709 182 698 C 153 690 163 667 192 673 Q 228 679 266 691 Q 291 698 301 691 Q 314 678 314 626 Q 315 413 304 296 Q 307 277 293 276 C 278 257 278 257 286 244 Z" fill="black"></path>
				<path d="M 185 466 Q 234 476 273 480 Q 295 484 285 497 Q 275 510 250 513 Q 228 514 190 501 Q 189 500 186 499 C 159 487 156 460 185 466 Z" fill="black"></path>
				<path d="M 178 229 Q 178 230 181 230 Q 215 237 286 244 C 316 247 318 260 293 276 Q 292 277 290 278 Q 277 284 181 261 C 152 254 149 220 178 229 Z" fill="red"></path>
				<path d="M 616 766 Q 646 745 677 719 Q 693 706 709 708 Q 721 709 725 724 Q 728 740 716 771 Q 709 790 675 802 Q 597 824 584 815 Q 580 811 582 797 Q 586 787 616 766 Z" fill="lightgray"></path>
				<path d="M 517 562 Q 532 555 554 562 Q 650 584 861 620 Q 871 619 881 632 Q 882 645 858 655 Q 827 674 756 653 Q 687 638 503 602 C 474 596 488 570 517 562 Z" fill="lightgray"></path>
				<path d="M 503 602 Q 454 627 437 625 Q 416 621 433 598 Q 469 535 440 310 Q 428 250 399 180 Q 374 120 283 28 Q 265 18 258 1 Q 255 -6 268 -6 Q 284 -6 306 9 Q 355 42 385 74 Q 430 120 455 175 Q 479 232 492 310 Q 508 401 513 538 Q 514 553 517 562 C 522 592 522 593 503 602 Z" fill="lightgray"></path>
</g>
		<text x="40" y="140" font-size="128" fill="#999999">4</text></g>
		<g id="id0:id4:id4" transform="matrix(1.0,0,0,1.0,4096,0.0)">			<g stroke="lightgray" stroke-width="4" transform="scale(4, 4)"> <rect x="0" y="0" width="256" height="256" fill="white" stroke-width="4"/></g>
			<g transform="scale(0.92, -0.92) translate(60, -920)">					<path d="M 182 698 Q 173 710 145 720 Q 135 724 124 721 Q 117 717 123 704 Q 144 625 145 528 Q 139 357 125 300 Q 110 246 146 201 Q 156 188 166 201 Q 176 214 178 229 L 181 261 Q 182 285 183 317 Q 184 402 185 466 L 186 499 Q 189 646 191 659 Q 192 666 192 673 C 193 688 193 688 182 698 Z" fill="black"></path>
				<path d="M 286 244 Q 296 228 306 213 Q 322 189 329 192 Q 341 193 355 226 Q 368 262 366 308 Q 362 401 361 603 Q 361 655 376 682 Q 386 700 378 710 Q 371 720 322 736 Q 298 743 282 734 Q 228 709 182 698 C 153 690 163 667 192 673 Q 228 679 266 691 Q 291 698 301 691 Q 314 678 314 626 Q 315 413 304 296 Q 307 277 293 276 C 278 257 278 257 286 244 Z" fill="black"></path>
				<path d="M 185 466 Q 234 476 273 480 Q 295 484 285 497 Q 275 510 250 513 Q 228 514 190 501 Q 189 500 186 499 C 159 487 156 460 185 466 Z" fill="black"></path>
				<path d="M 178 229 Q 178 230 181 230 Q 215 237 286 244 C 316 247 318 260 293 276 Q 292 277 290 278 Q 277 284 181 261 C 152 254 149 220 178 229 Z" fill="black"></path>
				<path d="M 616 766 Q 646 745 677 719 Q 693 706 709 708 Q 721 709 725 724 Q 728 740 716 771 Q 709 790 675 802 Q 597 824 584 815 Q 580 811 582 797 Q 586 787 616 766 Z" fill="red"></path>
				<path d="M 517 562 Q 532 555 554 562 Q 650 584 861 620 Q 871 619 881 632 Q 882 645 858 655 Q 827 674 756 653 Q 687 638 503 602 C 474 596 488 570 517 562 Z" fill="lightgray"></path>
				<path d="M 503 602 Q 454 627 437 625 Q 416 621 433 598 Q 469 535 440 310 Q 428 250 399 180 Q 374 120 283 28 Q 265 18 258 1 Q 255 -6 268 -6 Q 284 -6 306 9 Q 355 42 385 74 Q 430 120 455 175 Q 479 232 492 310 Q 508 401 513 538 Q 514 553 517 562 C 522 592 522 593 503 602 Z" fill="lightgray"></path>
</g>
		<text x="40" y="140" font-size="128" fill="#999999">5</text></g>
</g>
	<g id="id1:id1" transform="translate(0.0,1024)">
		<g id="id1:id0:id0" transform="matrix(1.0,0,0,1.0,0,0.0)">			<g stroke="lightgray" stroke-width="4" transform="scale(4, 4)"> <rect x="0" y="0" width="256" height="256" fill="white" stroke-width="4"/></g>
			<g transform="scale(0.92, -0.92) translate(60, -920)">					<path d="M 182 698 Q 173 710 145 720 Q 135 724 124 721 Q 117 717 123 704 Q 144 625 145 528 Q 139 357 125 300 Q 110 246 146 201 Q 156 188 166 201 Q 176 214 178 229 L 181 261 Q 182 285 183 317 Q 184 402 185 466 L 186 499 Q 189 646 191 659 Q 192 666 192 673 C 193 688 193 688 182 698 Z" fill="black"></path>
				<path d="M 286 244 Q 296 228 306 213 Q 322 189 329 192 Q 341 193 355 226 Q 368 262 366 308 Q 362 401 361 603 Q 361 655 376 682 Q 386 700 378 710 Q 371 720 322 736 Q 298 743 282 734 Q 228 709 182 698 C 153 690 163 667 192 673 Q 228 679 266 691 Q 291 698 301 691 Q 314 678 314 626 Q 315 413 304 296 Q 307 277 293 276 C 278 257 278 257 286 244 Z" fill="black"></path>
				<path d="M 185 466 Q 234 476 273 480 Q 295 484 285 497 Q 275 510 250 513 Q 228 514 190 501 Q 189 500 186 499 C 159 487 156 460 185 466 Z" fill="black"></path>
				<path d="M 178 229 Q 178 230 181 230 Q 215 237 286 244 C 316 247 318 260 293 276 Q 292 277 290 278 Q 277 284 181 261 C 152 254 149 220 178 229 Z" fill="black"></path>
				<path d="M 616 766 Q 646 745 677 719 Q 693 706 709 708 Q 721 709 725 724 Q 728 740 716 771 Q 709 790 675 802 Q 597 824 584 815 Q 580 811 582 797 Q 586 787 616 766 Z" fill="black"></path>
				<path d="M 517 562 Q 532 555 554 562 Q 650 584 861 620 Q 871 619 881 632 Q 882 645 858 655 Q 827 674 756 653 Q 687 638 503 602 C 474 596 488 570 517 562 Z" fill="red"></path>
				<path d="M 503 602 Q 454 627 437 625 Q 416 621 433 598 Q 469 535 440 310 Q 428 250 399 180 Q 374 120 283 28 Q 265 18 258 1 Q 255 -6 268 -6 Q 284 -6 306 9 Q 355 42 385 74 Q 430 120 455 175 Q 479 232 492 310 Q 508 401 513 538 Q 514 553 517 562 C 522 592 522 593 503 602 Z" fill="lightgray"></path>
</g>
		<text x="40" y="140" font-size="128" fill="#999999">6</text></g>
		<g id="id1:id1:id1" transform="matrix(1.0,0,0,1.0,1024,0.0)">			<g stroke="lightgray" stroke-width="4" transform="scale(4, 4)"> <rect x="0" y="0" width="256" height="256" fill="white" stroke-width="4"/></g>
			<g transform="scale(0.92, -0.92) translate(60, -920)">					<path d="M 182 698 Q 173 710 145 720 Q 135 724 124 721 Q 117 717 123 704 Q 144 625 145 528 Q 139 357 125 300 Q 110 246 146 201 Q 156 188 166 201 Q 176 214 178 229 L 181 261 Q 182 285 183 317 Q 184 402 185 466 L 186 499 Q 189 646 191 659 Q 192 666 192 673 C 193 688 193 688 182 698 Z" fill="black"></path>
				<path d="M 286 244 Q 296 228 306 213 Q 322 189 329 192 Q 341 193 355 226 Q 368 262 366 308 Q 362 401 361 603 Q 361 655 376 682 Q 386 700 378 710 Q 371 720 322 736 Q 298 743 282 734 Q 228 709 182 698 C 153 690 163 667 192 673 Q 228 679 266 691 Q 291 698 301 691 Q 314 678 314 626 Q 315 413 304 296 Q 307 277 293 276 C 278 257 278 257 286 244 Z" fill="black"></path>
				<path d="M 185 466 Q 234 476 273 480 Q 295 484 285 497 Q 275 510 250 513 Q 228 514 190 501 Q 189 500 186 499 C 159 487 156 460 185 466 Z" fill="black"></path>
				<path d="M 178 229 Q 178 230 181 230 Q 215 237 286 244 C 316 247 318 260 293 276 Q 292 277 290 278 Q 277 284 181 261 C 152 254 149 220 178 229 Z" fill="black"></path>
				<path d="M 616 766 Q 646 745 677 719 Q 693 706 709 708 Q 721 709 725 724 Q 728 740 716 771 Q 709 790 675 802 Q 597 824 584 815 Q 580 811 582 797 Q 586 787 616 766 Z" fill="black"></path>
				<path d="M 517 562 Q 532 555 554 562 Q 650 584 861 620 Q 871 619 881 632 Q 882 645 858 655 Q 827 674 756 653 Q 687 638 503 602 C 474 596 488 570 517 562 Z" fill="black"></path>
				<path d="M 503 602 Q 454 627 437 625 Q 416 621 433 598 Q 469 535 440 310 Q 428 250 399 180 Q 374 120 283 28 Q 265 18 258 1 Q 255 -6 268 -6 Q 284 -6 306 9 Q 355 42 385 74 Q 430 120 455 175 Q 479 232 492 310 Q 508 401 513 538 Q 514 553 517 562 C 522 592 522 593 503 602 Z" fill="red"></path>
</g>
		<text x="40" y="140" font-size="128" fill="#999999">7</text></g>
		<g id="id1:id2:id2" transform="matrix(1.0,0,0,1.0,2048,0.0)">			<g stroke="white" stroke-width="4" transform="scale(4, 4)"> <rect x="1" y="1" width="255" height="255" fill="white" stroke-width="0"/></g>
</g>
		<g id="id1:id3:id3" transform="matrix(1.0,0,0,1.0,3072,0.0)">			<g stroke="white" stroke-width="4" transform="scale(4, 4)"> <rect x="1" y="1" width="255" height="255" fill="white" stroke-width="0"/></g>
</g>
		<g id="id1:id4:id4" transform="matrix(1.0,0,0,1.0,4096,0.0)">			<g stroke="white" stroke-width="4" transform="scale(4, 4)"> <rect x="1" y="1" width="255" height="255" fill="white" stroke-width="0"/></g>
</g>
</g>
</svg>
