<?xml version="1.0" standalone="no"?>
<!DOCTYPE svg PUBLIC "-//W3C//DTD SVG 1.1//EN"
 "http://www.w3.org/Graphics/SVG/1.1/DTD/svg11.dtd">
<!-- generate by Handict dictionary app com.asnsami.handict -->

<svg xmlns="http://www.w3.org/2000/svg" xmlns:sodipodi="http://sodipodi.sourceforge.net/DTD/sodipodi-0.dtd" version="1.1" width="640" height="256" viewBox="0 0 5120 2048">
	<g id="id0:id0" transform="translate(0.0,0)">
		<g id="id0:id0:id0" transform="matrix(1.0,0,0,1.0,0,0.0)">			<g stroke="lightgray" stroke-width="4" transform="scale(4, 4)"> <rect x="0" y="0" width="256" height="256" fill="white" stroke-width="4"/></g>
			<g transform="scale(0.92, -0.92) translate(60, -920)">					<path d="M 386 759 Q 374 763 348 769 Q 336 772 333 767 Q 326 760 335 744 Q 368 674 385 561 Q 389 527 408 503 Q 426 481 431 497 Q 434 507 435 522 L 434 546 Q 433 564 420 624 L 416 648 Q 406 706 403 728 C 399 755 399 755 386 759 Z" fill="red"></path>
				<path d="M 580 537 Q 598 513 613 505 Q 623 498 638 519 Q 653 544 681 679 Q 690 709 712 733 Q 725 745 714 758 Q 699 774 658 800 Q 643 809 572 793 Q 566 793 461 773 Q 421 766 386 759 C 357 753 374 720 403 728 Q 523 761 592 761 Q 610 764 619 755 Q 632 740 629 724 Q 608 585 591 567 C 577 541 577 541 580 537 Z" fill="lightgray"></path>
				<path d="M 420 624 Q 424 623 430 624 Q 506 637 563 645 Q 585 649 577 661 Q 567 674 543 678 Q 513 681 416 648 C 388 638 390 627 420 624 Z" fill="lightgray"></path>
				<path d="M 435 522 Q 438 521 447 522 Q 522 532 580 537 C 610 540 617 553 591 567 Q 585 571 577 572 Q 547 576 434 546 C 405 538 405 525 435 522 Z" fill="lightgray"></path>
				<path d="M 525 418 Q 639 433 804 433 Q 882 433 888 443 Q 892 455 876 469 Q 816 514 753 494 Q 555 455 149 403 Q 127 400 143 383 Q 176 353 215 363 Q 344 399 477 413 L 525 418 Z" fill="lightgray"></path>
				<path d="M 530 135 Q 534 204 538 262 L 540 287 Q 541 339 547 372 Q 554 393 525 418 C 503 438 464 440 477 413 Q 489 398 489 304 Q 488 253 487 160 C 487 130 528 105 530 135 Z" fill="lightgray"></path>
				<path d="M 538 262 Q 547 258 563 260 Q 648 276 710 287 Q 737 293 726 307 Q 713 323 683 327 Q 653 330 540 287 C 512 276 509 271 538 262 Z" fill="lightgray"></path>
				<path d="M 354 250 Q 375 292 386 301 Q 393 307 391 317 Q 388 327 375 337 Q 342 367 309 357 Q 300 354 304 342 Q 322 282 228 146 Q 224 142 220 136 Q 192 99 120 24 Q 113 18 123 16 Q 177 26 272 130 Q 278 140 287 149 Q 308 177 337 222 L 354 250 Z" fill="lightgray"></path>
				<path d="M 337 222 Q 521 68 686 -15 Q 711 -28 771 -16 Q 822 -4 875 9 Q 909 19 916 30 Q 922 42 902 42 Q 823 52 775 53 Q 649 62 532 134 Q 531 135 530 135 L 487 160 Q 423 200 354 250 C 330 268 314 241 337 222 Z" fill="lightgray"></path>
</g>
		<text x="40" y="140" font-size="128" fill="#999999">1</text></g>
		<g id="id0:id1:id1" transform="matrix(1.0,0,0,1.0,1024,0.0)">			<g stroke="lightgray" stroke-width="4" transform="scale(4, 4)"> <rect x="0" y="0" width="256" height="256" fill="white" stroke-width="4"/></g>
			<g transform="scale(0.92, -0.92) translate(60, -920)">					<path d="M 386 759 Q 374 763 348 769 Q 336 772 333 767 Q 326 760 335 744 Q 368 674 385 561 Q 389 527 408 503 Q 426 481 431 497 Q 434 507 435 522 L 434 546 Q 433 564 420 624 L 416 648 Q 406 706 403 728 C 399 755 399 755 386 759 Z" fill="black"></path>
				<path d="M 580 537 Q 598 513 613 505 Q 623 498 638 519 Q 653 544 681 679 Q 690 709 712 733 Q 725 745 714 758 Q 699 774 658 800 Q 643 809 572 793 Q 566 793 461 773 Q 421 766 386 759 C 357 753 374 720 403 728 Q 523 761 592 761 Q 610 764 619 755 Q 632 740 629 724 Q 608 585 591 567 C 577 541 577 541 580 537 Z" fill="red"></path>
				<path d="M 420 624 Q 424 623 430 624 Q 506 637 563 645 Q 585 649 577 661 Q 567 674 543 678 Q 513 681 416 648 C 388 638 390 627 420 624 Z" fill="lightgray"></path>
				<path d="M 435 522 Q 438 521 447 522 Q 522 532 580 537 C 610 540 617 553 591 567 Q 585 571 577 572 Q 547 576 434 546 C 405 538 405 525 435 522 Z" fill="lightgray"></path>
				<path d="M 525 418 Q 639 433 804 433 Q 882 433 888 443 Q 892 455 876 469 Q 816 514 753 494 Q 555 455 149 403 Q 127 400 143 383 Q 176 353 215 363 Q 344 399 477 413 L 525 418 Z" fill="lightgray"></path>
				<path d="M 530 135 Q 534 204 538 262 L 540 287 Q 541 339 547 372 Q 554 393 525 418 C 503 438 464 440 477 413 Q 489 398 489 304 Q 488 253 487 160 C 487 130 528 105 530 135 Z" fill="lightgray"></path>
				<path d="M 538 262 Q 547 258 563 260 Q 648 276 710 287 Q 737 293 726 307 Q 713 323 683 327 Q 653 330 540 287 C 512 276 509 271 538 262 Z" fill="lightgray"></path>
				<path d="M 354 250 Q 375 292 386 301 Q 393 307 391 317 Q 388 327 375 337 Q 342 367 309 357 Q 300 354 304 342 Q 322 282 228 146 Q 224 142 220 136 Q 192 99 120 24 Q 113 18 123 16 Q 177 26 272 130 Q 278 140 287 149 Q 308 177 337 222 L 354 250 Z" fill="lightgray"></path>
				<path d="M 337 222 Q 521 68 686 -15 Q 711 -28 771 -16 Q 822 -4 875 9 Q 909 19 916 30 Q 922 42 902 42 Q 823 52 775 53 Q 649 62 532 134 Q 531 135 530 135 L 487 160 Q 423 200 354 250 C 330 268 314 241 337 222 Z" fill="lightgray"></path>
</g>
		<text x="40" y="140" font-size="128" fill="#999999">2</text></g>
		<g id="id0:id2:id2" transform="matrix(1.0,0,0,1.0,2048,0.0)">			<g stroke="lightgray" stroke-width="4" transform="scale(4, 4)"> <rect x="0" y="0" width="256" height="256" fill="white" stroke-width="4"/></g>
			<g transform="scale(0.92, -0.92) translate(60, -920)">					<path d="M 386 759 Q 374 763 348 769 Q 336 772 333 767 Q 326 760 335 744 Q 368 674 385 561 Q 389 527 408 503 Q 426 481 431 497 Q 434 507 435 522 L 434 546 Q 433 564 420 624 L 416 648 Q 406 706 403 728 C 399 755 399 755 386 759 Z" fill="black"></path>
				<path d="M 580 537 Q 598 513 613 505 Q 623 498 638 519 Q 653 544 681 679 Q 690 709 712 733 Q 725 745 714 758 Q 699 774 658 800 Q 643 809 572 793 Q 566 793 461 773 Q 421 766 386 759 C 357 753 374 720 403 728 Q 523 761 592 761 Q 610 764 619 755 Q 632 740 629 724 Q 608 585 591 567 C 577 541 577 541 580 537 Z" fill="black"></path>
				<path d="M 420 624 Q 424 623 430 624 Q 506 637 563 645 Q 585 649 577 661 Q 567 674 543 678 Q 513 681 416 648 C 388 638 390 627 420 624 Z" fill="red"></path>
				<path d="M 435 522 Q 438 521 447 522 Q 522 532 580 537 C 610 540 617 553 591 567 Q 585 571 577 572 Q 547 576 434 546 C 405 538 405 525 435 522 Z" fill="lightgray"></path>
				<path d="M 525 418 Q 639 433 804 433 Q 882 433 888 443 Q 892 455 876 469 Q 816 514 753 494 Q 555 455 149 403 Q 127 400 143 383 Q 176 353 215 363 Q 344 399 477 413 L 525 418 Z" fill="lightgray"></path>
				<path d="M 530 135 Q 534 204 538 262 L 540 287 Q 541 339 547 372 Q 554 393 525 418 C 503 438 464 440 477 413 Q 489 398 489 304 Q 488 253 487 160 C 487 130 528 105 530 135 Z" fill="lightgray"></path>
				<path d="M 538 262 Q 547 258 563 260 Q 648 276 710 287 Q 737 293 726 307 Q 713 323 683 327 Q 653 330 540 287 C 512 276 509 271 538 262 Z" fill="lightgray"></path>
				<path d="M 354 250 Q 375 292 386 301 Q 393 307 391 317 Q 388 327 375 337 Q 342 367 309 357 Q 300 354 304 342 Q 322 282 228 146 Q 224 142 220 136 Q 192 99 120 24 Q 113 18 123 16 Q 177 26 272 130 Q 278 140 287 149 Q 308 177 337 222 L 354 250 Z" fill="lightgray"></path>
				<path d="M 337 222 Q 521 68 686 -15 Q 711 -28 771 -16 Q 822 -4 875 9 Q 909 19 916 30 Q 922 42 902 42 Q 823 52 775 53 Q 649 62 532 134 Q 531 135 530 135 L 487 160 Q 423 200 354 250 C 330 268 314 241 337 222 Z" fill="lightgray"></path>
</g>
		<text x="40" y="140" font-size="128" fill="#999999">3</text></g>
		<g id="id0:id3:id3" transform="matrix(1.0,0,0,1.0,3072,0.0)">			<g stroke="lightgray" stroke-width="4" transform="scale(4, 4)"> <rect x="0" y="0" width="256" height="256" fill="white" stroke-width="4"/></g>
			<g transform="scale(0.92, -0.92) translate(60, -920)">					<path d="M 386 759 Q 374 763 348 769 Q 336 772 333 767 Q 326 760 335 744 Q 368 674 385 561 Q 389 527 408 503 Q 426 481 431 497 Q 434 507 435 522 L 434 546 Q 433 564 420 624 L 416 648 Q 406 706 403 728 C 399 755 399 755 386 759 Z" fill="black"></path>
				<path d="M 580 537 Q 598 513 613 505 Q 623 498 638 519 Q 653 544 681 679 Q 690 709 712 733 Q 725 745 714 758 Q 699 774 658 800 Q 643 809 572 793 Q 566 793 461 773 Q 421 766 386 759 C 357 753 374 720 403 728 Q 523 761 592 761 Q 610 764 619 755 Q 632 740 629 724 Q 608 585 591 567 C 577 541 577 541 580 537 Z" fill="black"></path>
				<path d="M 420 624 Q 424 623 430 624 Q 506 637 563 645 Q 585 649 577 661 Q 567 674 543 678 Q 513 681 416 648 C 388 638 390 627 420 624 Z" fill="black"></path>
				<path d="M 435 522 Q 438 521 447 522 Q 522 532 580 537 C 610 540 617 553 591 567 Q 585 571 577 572 Q 547 576 434 546 C 405 538 405 525 435 522 Z" fill="red"></path>
				<path d="M 525 418 Q 639 433 804 433 Q 882 433 888 443 Q 892 455 876 469 Q 816 514 753 494 Q 555 455 149 403 Q 127 400 143 383 Q 176 353 215 363 Q 344 399 477 413 L 525 418 Z" fill="lightgray"></path>
				<path d="M 530 135 Q 534 204 538 262 L 540 287 Q 541 339 547 372 Q 554 393 525 418 C 503 438 464 440 477 413 Q 489 398 489 304 Q 488 253 487 160 C 487 130 528 105 530 135 Z" fill="lightgray"></path>
				<path d="M 538 262 Q 547 258 563 260 Q 648 276 710 287 Q 737 293 726 307 Q 713 323 683 327 Q 653 330 540 287 C 512 276 509 271 538 262 Z" fill="lightgray"></path>
				<path d="M 354 250 Q 375 292 386 301 Q 393 307 391 317 Q 388 327 375 337 Q 342 367 309 357 Q 300 354 304 342 Q 322 282 228 146 Q 224 142 220 136 Q 192 99 120 24 Q 113 18 123 16 Q 177 26 272 130 Q 278 140 287 149 Q 308 177 337 222 L 354 250 Z" fill="lightgray"></path>
				<path d="M 337 222 Q 521 68 686 -15 Q 711 -28 771 -16 Q 822 -4 875 9 Q 909 19 916 30 Q 922 42 902 42 Q 823 52 775 53 Q 649 62 532 134 Q 531 135 530 135 L 487 160 Q 423 200 354 250 C 330 268 314 241 337 222 Z" fill="lightgray"></path>
</g>
		<text x="40" y="140" font-size="128" fill="#999999">4</text></g>
		<g id="id0:id4:id4" transform="matrix(1.0,0,0,1.0,4096,0.0)">			<g stroke="lightgray" stroke-width="4" transform="scale(4, 4)"> <rect x="0" y="0" width="256" height="256" fill="white" stroke-width="4"/></g>
			<g transform="scale(0.92, -0.92) translate(60, -920)">					<path d="M 386 759 Q 374 763 348 769 Q 336 772 333 767 Q 326 760 335 744 Q 368 674 385 561 Q 389 527 408 503 Q 426 481 431 497 Q 434 507 435 522 L 434 546 Q 433 564 420 624 L 416 648 Q 406 706 403 728 C 399 755 399 755 386 759 Z" fill="black"></path>
				<path d="M 580 537 Q 598 513 613 505 Q 623 498 638 519 Q 653 544 681 679 Q 690 709 712 733 Q 725 745 714 758 Q 699 774 658 800 Q 643 809 572 793 Q 566 793 461 773 Q 421 766 386 759 C 357 753 374 720 403 728 Q 523 761 592 761 Q 610 764 619 755 Q 632 740 629 724 Q 608 585 591 567 C 577 541 577 541 580 537 Z" fill="black"></path>
				<path d="M 420 624 Q 424 623 430 624 Q 506 637 563 645 Q 585 649 577 661 Q 567 674 543 678 Q 513 681 416 648 C 388 638 390 627 420 624 Z" fill="black"></path>
				<path d="M 435 522 Q 438 521 447 522 Q 522 532 580 537 C 610 540 617 553 591 567 Q 585 571 577 572 Q 547 576 434 546 C 405 538 405 525 435 522 Z" fill="black"></path>
				<path d="M 525 418 Q 639 433 804 433 Q 882 433 888 443 Q 892 455 876 469 Q 816 514 753 494 Q 555 455 149 403 Q 127 400 143 383 Q 176 353 215 363 Q 344 399 477 413 L 525 418 Z" fill="red"></path>
				<path d="M 530 135 Q 534 204 538 262 L 540 287 Q 541 339 547 372 Q 554 393 525 418 C 503 438 464 440 477 413 Q 489 398 489 304 Q 488 253 487 160 C 487 130 528 105 530 135 Z" fill="lightgray"></path>
				<path d="M 538 262 Q 547 258 563 260 Q 648 276 710 287 Q 737 293 726 307 Q 713 323 683 327 Q 653 330 540 287 C 512 276 509 271 538 262 Z" fill="lightgray"></path>
				<path d="M 354 250 Q 375 292 386 301 Q 393 307 391 317 Q 388 327 375 337 Q 342 367 309 357 Q 300 354 304 342 Q 322 282 228 146 Q 224 142 220 136 Q 192 99 120 24 Q 113 18 123 16 Q 177 26 272 130 Q 278 140 287 149 Q 308 177 337 222 L 354 250 Z" fill="lightgray"></path>
				<path d="M 337 222 Q 521 68 686 -15 Q 711 -28 771 -16 Q 822 -4 875 9 Q 909 19 916 30 Q 922 42 902 42 Q 823 52 775 53 Q 649 62 532 134 Q 531 135 530 135 L 487 160 Q 423 200 354 250 C 330 268 314 241 337 222 Z" fill="lightgray"></path>
</g>
		<text x="40" y="140" font-size="128" fill="#999999">5</text></g>
</g>
	<g id="id1:id1" transform="translate(0.0,1024)">
		<g id="id1:id0:id0" transform="matrix(1.0,0,0,1.0,0,0.0)">			<g stroke="lightgray" stroke-width="4" transform="scale(4, 4)"> <rect x="0" y="0" width="256" height="256" fill="white" stroke-width="4"/></g>
			<g transform="scale(0.92, -0.92) translate(60, -920)">					<path d="M 386 759 Q 374 763 348 769 Q 336 772 333 767 Q 326 760 335 744 Q 368 674 385 561 Q 389 527 408 503 Q 426 481 431 497 Q 434 507 435 522 L 434 546 Q 433 564 420 624 L 416 648 Q 406 706 403 728 C 399 755 399 755 386 759 Z" fill="black"></path>
				<path d="M 580 537 Q 598 513 613 505 Q 623 498 638 519 Q 653 544 681 679 Q 690 709 712 733 Q 725 745 714 758 Q 699 774 658 800 Q 643 809 572 793 Q 566 793 461 773 Q 421 766 386 759 C 357 753 374 720 403 728 Q 523 761 592 761 Q 610 764 619 755 Q 632 740 629 724 Q 608 585 591 567 C 577 541 577 541 580 537 Z" fill="black"></path>
				<path d="M 420 624 Q 424 623 430 624 Q 506 637 563 645 Q 585 649 577 661 Q 567 674 543 678 Q 513 681 416 648 C 388 638 390 627 420 624 Z" fill="black"></path>
				<path d="M 435 522 Q 438 521 447 522 Q 522 532 580 537 C 610 540 617 553 591 567 Q 585 571 577 572 Q 547 576 434 546 C 405 538 405 525 435 522 Z" fill="black"></path>
				<path d="M 525 418 Q 639 433 804 433 Q 882 433 888 443 Q 892 455 876 469 Q 816 514 753 494 Q 555 455 149 403 Q 127 400 143 383 Q 176 353 215 363 Q 344 399 477 413 L 525 418 Z" fill="black"></path>
				<path d="M 530 135 Q 534 204 538 262 L 540 287 Q 541 339 547 372 Q 554 393 525 418 C 503 438 464 440 477 413 Q 489 398 489 304 Q 488 253 487 160 C 487 130 528 105 530 135 Z" fill="red"></path>
				<path d="M 538 262 Q 547 258 563 260 Q 648 276 710 287 Q 737 293 726 307 Q 713 323 683 327 Q 653 330 540 287 C 512 276 509 271 538 262 Z" fill="lightgray"></path>
				<path d="M 354 250 Q 375 292 386 301 Q 393 307 391 317 Q 388 327 375 337 Q 342 367 309 357 Q 300 354 304 342 Q 322 282 228 146 Q 224 142 220 136 Q 192 99 120 24 Q 113 18 123 16 Q 177 26 272 130 Q 278 140 287 149 Q 308 177 337 222 L 354 250 Z" fill="lightgray"></path>
				<path d="M 337 222 Q 521 68 686 -15 Q 711 -28 771 -16 Q 822 -4 875 9 Q 909 19 916 30 Q 922 42 902 42 Q 823 52 775 53 Q 649 62 532 134 Q 531 135 530 135 L 487 160 Q 423 200 354 250 C 330 268 314 241 337 222 Z" fill="lightgray"></path>
</g>
		<text x="40" y="140" font-size="128" fill="#999999">6</text></g>
		<g id="id1:id1:id1" transform="matrix(1.0,0,0,1.0,1024,0.0)">			<g stroke="lightgray" stroke-width="4" transform="scale(4, 4)"> <rect x="0" y="0" width="256" height="256" fill="white" stroke-width="4"/></g>
			<g transform="scale(0.92, -0.92) translate(60, -920)">					<path d="M 386 759 Q 374 763 348 769 Q 336 772 333 767 Q 326 760 335 744 Q 368 674 385 561 Q 389 527 408 503 Q 426 481 431 497 Q 434 507 435 522 L 434 546 Q 433 564 420 624 L 416 648 Q 406 706 403 728 C 399 755 399 755 386 759 Z" fill="black"></path>
				<path d="M 580 537 Q 598 513 613 505 Q 623 498 638 519 Q 653 544 681 679 Q 690 709 712 733 Q 725 745 714 758 Q 699 774 658 800 Q 643 809 572 793 Q 566 793 461 773 Q 421 766 386 759 C 357 753 374 720 403 728 Q 523 761 592 761 Q 610 764 619 755 Q 632 740 629 724 Q 608 585 591 567 C 577 541 577 541 580 537 Z" fill="black"></path>
				<path d="M 420 624 Q 424 623 430 624 Q 506 637 563 645 Q 585 649 577 661 Q 567 674 543 678 Q 513 681 416 648 C 388 638 390 627 420 624 Z" fill="black"></path>
				<path d="M 435 522 Q 438 521 447 522 Q 522 532 580 537 C 610 540 617 553 591 567 Q 585 571 577 572 Q 547 576 434 546 C 405 538 405 525 435 522 Z" fill="black"></path>
				<path d="M 525 418 Q 639 433 804 433 Q 882 433 888 443 Q 892 455 876 469 Q 816 514 753 494 Q 555 455 149 403 Q 127 400 143 383 Q 176 353 215 363 Q 344 399 477 413 L 525 418 Z" fill="black"></path>
				<path d="M 530 135 Q 534 204 538 262 L 540 287 Q 541 339 547 372 Q 554 393 525 418 C 503 438 464 440 477 413 Q 489 398 489 304 Q 488 253 487 160 C 487 130 528 105 530 135 Z" fill="black"></path>
				<path d="M 538 262 Q 547 258 563 260 Q 648 276 710 287 Q 737 293 726 307 Q 713 323 683 327 Q 653 330 540 287 C 512 276 509 271 538 262 Z" fill="red"></path>
				<path d="M 354 250 Q 375 292 386 301 Q 393 307 391 317 Q 388 327 375 337 Q 342 367 309 357 Q 300 354 304 342 Q 322 282 228 146 Q 224 142 220 136 Q 192 99 120 24 Q 113 18 123 16 Q 177 26 272 130 Q 278 140 287 149 Q 308 177 337 222 L 354 250 Z" fill="lightgray"></path>
				<path d="M 337 222 Q 521 68 686 -15 Q 711 -28 771 -16 Q 822 -4 875 9 Q 909 19 916 30 Q 922 42 902 42 Q 823 52 775 53 Q 649 62 532 134 Q 531 135 530 135 L 487 160 Q 423 200 354 250 C 330 268 314 241 337 222 Z" fill="lightgray"></path>
</g>
		<text x="40" y="140" font-size="128" fill="#999999">7</text></g>
		<g id="id1:id2:id2" transform="matrix(1.0,0,0,1.0,2048,0.0)">			<g stroke="lightgray" stroke-width="4" transform="scale(4, 4)"> <rect x="0" y="0" width="256" height="256" fill="white" stroke-width="4"/></g>
			<g transform="scale(0.92, -0.92) translate(60, -920)">					<path d="M 386 759 Q 374 763 348 769 Q 336 772 333 767 Q 326 760 335 744 Q 368 674 385 561 Q 389 527 408 503 Q 426 481 431 497 Q 434 507 435 522 L 434 546 Q 433 564 420 624 L 416 648 Q 406 706 403 728 C 399 755 399 755 386 759 Z" fill="black"></path>
				<path d="M 580 537 Q 598 513 613 505 Q 623 498 638 519 Q 653 544 681 679 Q 690 709 712 733 Q 725 745 714 758 Q 699 774 658 800 Q 643 809 572 793 Q 566 793 461 773 Q 421 766 386 759 C 357 753 374 720 403 728 Q 523 761 592 761 Q 610 764 619 755 Q 632 740 629 724 Q 608 585 591 567 C 577 541 577 541 580 537 Z" fill="black"></path>
				<path d="M 420 624 Q 424 623 430 624 Q 506 637 563 645 Q 585 649 577 661 Q 567 674 543 678 Q 513 681 416 648 C 388 638 390 627 420 624 Z" fill="black"></path>
				<path d="M 435 522 Q 438 521 447 522 Q 522 532 580 537 C 610 540 617 553 591 567 Q 585 571 577 572 Q 547 576 434 546 C 405 538 405 525 435 522 Z" fill="black"></path>
				<path d="M 525 418 Q 639 433 804 433 Q 882 433 888 443 Q 892 455 876 469 Q 816 514 753 494 Q 555 455 149 403 Q 127 400 143 383 Q 176 353 215 363 Q 344 399 477 413 L 525 418 Z" fill="black"></path>
				<path d="M 530 135 Q 534 204 538 262 L 540 287 Q 541 339 547 372 Q 554 393 525 418 C 503 438 464 440 477 413 Q 489 398 489 304 Q 488 253 487 160 C 487 130 528 105 530 135 Z" fill="black"></path>
				<path d="M 538 262 Q 547 258 563 260 Q 648 276 710 287 Q 737 293 726 307 Q 713 323 683 327 Q 653 330 540 287 C 512 276 509 271 538 262 Z" fill="black"></path>
				<path d="M 354 250 Q 375 292 386 301 Q 393 307 391 317 Q 388 327 375 337 Q 342 367 309 357 Q 300 354 304 342 Q 322 282 228 146 Q 224 142 220 136 Q 192 99 120 24 Q 113 18 123 16 Q 177 26 272 130 Q 278 140 287 149 Q 308 177 337 222 L 354 250 Z" fill="red"></path>
				<path d="M 337 222 Q 521 68 686 -15 Q 711 -28 771 -16 Q 822 -4 875 9 Q 909 19 916 30 Q 922 42 902 42 Q 823 52 775 53 Q 649 62 532 134 Q 531 135 530 135 L 487 160 Q 423 200 354 250 C 330 268 314 241 337 222 Z" fill="lightgray"></path>
</g>
		<text x="40" y="140" font-size="128" fill="#999999">8</text></g>
		<g id="id1:id3:id3" transform="matrix(1.0,0,0,1.0,3072,0.0)">			<g stroke="lightgray" stroke-width="4" transform="scale(4, 4)"> <rect x="0" y="0" width="256" height="256" fill="white" stroke-width="4"/></g>
			<g transform="scale(0.92, -0.92) translate(60, -920)">					<path d="M 386 759 Q 374 763 348 769 Q 336 772 333 767 Q 326 760 335 744 Q 368 674 385 561 Q 389 527 408 503 Q 426 481 431 497 Q 434 507 435 522 L 434 546 Q 433 564 420 624 L 416 648 Q 406 706 403 728 C 399 755 399 755 386 759 Z" fill="black"></path>
				<path d="M 580 537 Q 598 513 613 505 Q 623 498 638 519 Q 653 544 681 679 Q 690 709 712 733 Q 725 745 714 758 Q 699 774 658 800 Q 643 809 572 793 Q 566 793 461 773 Q 421 766 386 759 C 357 753 374 720 403 728 Q 523 761 592 761 Q 610 764 619 755 Q 632 740 629 724 Q 608 585 591 567 C 577 541 577 541 580 537 Z" fill="black"></path>
				<path d="M 420 624 Q 424 623 430 624 Q 506 637 563 645 Q 585 649 577 661 Q 567 674 543 678 Q 513 681 416 648 C 388 638 390 627 420 624 Z" fill="black"></path>
				<path d="M 435 522 Q 438 521 447 522 Q 522 532 580 537 C 610 540 617 553 591 567 Q 585 571 577 572 Q 547 576 434 546 C 405 538 405 525 435 522 Z" fill="black"></path>
				<path d="M 525 418 Q 639 433 804 433 Q 882 433 888 443 Q 892 455 876 469 Q 816 514 753 494 Q 555 455 149 403 Q 127 400 143 383 Q 176 353 215 363 Q 344 399 477 413 L 525 418 Z" fill="black"></path>
				<path d="M 530 135 Q 534 204 538 262 L 540 287 Q 541 339 547 372 Q 554 393 525 418 C 503 438 464 440 477 413 Q 489 398 489 304 Q 488 253 487 160 C 487 130 528 105 530 135 Z" fill="black"></path>
				<path d="M 538 262 Q 547 258 563 260 Q 648 276 710 287 Q 737 293 726 307 Q 713 323 683 327 Q 653 330 540 287 C 512 276 509 271 538 262 Z" fill="black"></path>
				<path d="M 354 250 Q 375 292 386 301 Q 393 307 391 317 Q 388 327 375 337 Q 342 367 309 357 Q 300 354 304 342 Q 322 282 228 146 Q 224 142 220 136 Q 192 99 120 24 Q 113 18 123 16 Q 177 26 272 130 Q 278 140 287 149 Q 308 177 337 222 L 354 250 Z" fill="black"></path>
				<path d="M 337 222 Q 521 68 686 -15 Q 711 -28 771 -16 Q 822 -4 875 9 Q 909 19 916 30 Q 922 42 902 42 Q 823 52 775 53 Q 649 62 532 134 Q 531 135 530 135 L 487 160 Q 423 200 354 250 C 330 268 314 241 337 222 Z" fill="red"></path>
</g>
		<text x="40" y="140" font-size="128" fill="#999999">9</text></g>
		<g id="id1:id4:id4" transform="matrix(1.0,0,0,1.0,4096,0.0)">			<g stroke="white" stroke-width="4" transform="scale(4, 4)"> <rect x="1" y="1" width="255" height="255" fill="white" stroke-width="0"/></g>
</g>
</g>
</svg>
