<?xml version="1.0" standalone="no"?>
<!DOCTYPE svg PUBLIC "-//W3C//DTD SVG 1.1//EN"
 "http://www.w3.org/Graphics/SVG/1.1/DTD/svg11.dtd">
<!-- generate by Handict dictionary app com.asnsami.handict -->

<svg xmlns="http://www.w3.org/2000/svg" xmlns:sodipodi="http://sodipodi.sourceforge.net/DTD/sodipodi-0.dtd" version="1.1" width="640" height="256" viewBox="0 0 5120 2048">
	<g id="id0:id0" transform="translate(0.0,0)">
		<g id="id0:id0:id0" transform="matrix(1.0,0,0,1.0,0,0.0)">			<g stroke="lightgray" stroke-width="4" transform="scale(4, 4)"> <rect x="0" y="0" width="256" height="256" fill="white" stroke-width="4"/></g>
			<g transform="scale(0.92, -0.92) translate(60, -920)">					<path d="M 167 645 Q 160 652 138 660 Q 129 664 118 661 Q 111 657 117 644 Q 139 560 140 466 Q 140 310 121 235 Q 109 184 142 141 Q 152 128 162 140 Q 172 155 174 181 L 177 219 Q 178 235 178 257 Q 178 339 179 402 L 179 440 Q 180 588 183 602 Q 184 609 184 616 C 185 633 185 633 167 645 Z" fill="red"></path>
				<path d="M 265 191 Q 275 173 288 155 Q 304 130 313 132 Q 325 133 339 166 Q 352 202 350 248 Q 346 339 344 541 Q 344 593 359 620 Q 371 639 362 651 Q 355 661 300 679 Q 275 689 256 678 Q 207 654 167 645 C 138 637 154 611 184 616 Q 196 617 247 630 Q 269 636 277 628 Q 290 616 290 566 Q 294 359 285 246 Q 289 221 267 224 C 250 216 250 216 265 191 Z" fill="lightgray"></path>
				<path d="M 179 402 Q 225 412 260 417 Q 285 424 274 436 Q 261 449 234 452 Q 212 453 179 440 C 151 429 150 396 179 402 Z" fill="lightgray"></path>
				<path d="M 174 181 Q 174 182 176 182 Q 204 188 265 191 C 295 193 292 207 267 224 Q 263 227 257 230 Q 239 239 177 219 C 148 210 146 170 174 181 Z" fill="lightgray"></path>
				<path d="M 622 576 Q 751 607 755 611 Q 764 620 759 628 Q 752 640 722 647 Q 683 654 623 627 L 580 615 Q 573 615 570 613 Q 518 600 457 594 Q 420 587 447 570 Q 489 549 558 564 Q 568 567 581 567 L 622 576 Z" fill="lightgray"></path>
				<path d="M 628 416 Q 715 431 853 432 Q 872 433 877 442 Q 881 454 865 466 Q 808 505 742 483 Q 691 471 620 456 L 579 448 Q 485 433 375 414 Q 356 411 371 395 Q 384 382 402 378 Q 423 374 438 379 Q 490 395 556 406 L 628 416 Z" fill="lightgray"></path>
				<path d="M 620 456 Q 621 513 622 576 L 623 627 Q 626 709 643 768 Q 652 783 649 797 Q 642 807 586 841 Q 562 857 541 842 Q 537 838 542 822 Q 579 768 579 715 Q 580 669 580 615 L 581 567 Q 581 516 579 448 L 576 333 Q 572 167 563 120 Q 542 15 543 13 Q 543 1 563 -46 Q 570 -64 578 -67 Q 585 -74 592 -65 Q 599 -61 610 -40 Q 620 -15 619 17 Q 618 62 619 384 L 620 456 Z" fill="lightgray"></path>
				<path d="M 556 406 Q 496 261 306 91 Q 296 78 304 77 Q 313 73 325 79 Q 443 137 535 271 Q 548 292 565 316 Q 571 326 576 333 C 635 422 568 435 556 406 Z" fill="lightgray"></path>
				<path d="M 619 384 Q 694 266 791 137 Q 809 115 841 115 Q 950 114 984 118 Q 994 119 996 125 Q 997 131 983 139 Q 832 205 765 271 Q 699 335 628 416 C 608 439 596 420 619 384 Z" fill="lightgray"></path>
</g>
		<text x="40" y="140" font-size="128" fill="#999999">1</text></g>
		<g id="id0:id1:id1" transform="matrix(1.0,0,0,1.0,1024,0.0)">			<g stroke="lightgray" stroke-width="4" transform="scale(4, 4)"> <rect x="0" y="0" width="256" height="256" fill="white" stroke-width="4"/></g>
			<g transform="scale(0.92, -0.92) translate(60, -920)">					<path d="M 167 645 Q 160 652 138 660 Q 129 664 118 661 Q 111 657 117 644 Q 139 560 140 466 Q 140 310 121 235 Q 109 184 142 141 Q 152 128 162 140 Q 172 155 174 181 L 177 219 Q 178 235 178 257 Q 178 339 179 402 L 179 440 Q 180 588 183 602 Q 184 609 184 616 C 185 633 185 633 167 645 Z" fill="black"></path>
				<path d="M 265 191 Q 275 173 288 155 Q 304 130 313 132 Q 325 133 339 166 Q 352 202 350 248 Q 346 339 344 541 Q 344 593 359 620 Q 371 639 362 651 Q 355 661 300 679 Q 275 689 256 678 Q 207 654 167 645 C 138 637 154 611 184 616 Q 196 617 247 630 Q 269 636 277 628 Q 290 616 290 566 Q 294 359 285 246 Q 289 221 267 224 C 250 216 250 216 265 191 Z" fill="red"></path>
				<path d="M 179 402 Q 225 412 260 417 Q 285 424 274 436 Q 261 449 234 452 Q 212 453 179 440 C 151 429 150 396 179 402 Z" fill="lightgray"></path>
				<path d="M 174 181 Q 174 182 176 182 Q 204 188 265 191 C 295 193 292 207 267 224 Q 263 227 257 230 Q 239 239 177 219 C 148 210 146 170 174 181 Z" fill="lightgray"></path>
				<path d="M 622 576 Q 751 607 755 611 Q 764 620 759 628 Q 752 640 722 647 Q 683 654 623 627 L 580 615 Q 573 615 570 613 Q 518 600 457 594 Q 420 587 447 570 Q 489 549 558 564 Q 568 567 581 567 L 622 576 Z" fill="lightgray"></path>
				<path d="M 628 416 Q 715 431 853 432 Q 872 433 877 442 Q 881 454 865 466 Q 808 505 742 483 Q 691 471 620 456 L 579 448 Q 485 433 375 414 Q 356 411 371 395 Q 384 382 402 378 Q 423 374 438 379 Q 490 395 556 406 L 628 416 Z" fill="lightgray"></path>
				<path d="M 620 456 Q 621 513 622 576 L 623 627 Q 626 709 643 768 Q 652 783 649 797 Q 642 807 586 841 Q 562 857 541 842 Q 537 838 542 822 Q 579 768 579 715 Q 580 669 580 615 L 581 567 Q 581 516 579 448 L 576 333 Q 572 167 563 120 Q 542 15 543 13 Q 543 1 563 -46 Q 570 -64 578 -67 Q 585 -74 592 -65 Q 599 -61 610 -40 Q 620 -15 619 17 Q 618 62 619 384 L 620 456 Z" fill="lightgray"></path>
				<path d="M 556 406 Q 496 261 306 91 Q 296 78 304 77 Q 313 73 325 79 Q 443 137 535 271 Q 548 292 565 316 Q 571 326 576 333 C 635 422 568 435 556 406 Z" fill="lightgray"></path>
				<path d="M 619 384 Q 694 266 791 137 Q 809 115 841 115 Q 950 114 984 118 Q 994 119 996 125 Q 997 131 983 139 Q 832 205 765 271 Q 699 335 628 416 C 608 439 596 420 619 384 Z" fill="lightgray"></path>
</g>
		<text x="40" y="140" font-size="128" fill="#999999">2</text></g>
		<g id="id0:id2:id2" transform="matrix(1.0,0,0,1.0,2048,0.0)">			<g stroke="lightgray" stroke-width="4" transform="scale(4, 4)"> <rect x="0" y="0" width="256" height="256" fill="white" stroke-width="4"/></g>
			<g transform="scale(0.92, -0.92) translate(60, -920)">					<path d="M 167 645 Q 160 652 138 660 Q 129 664 118 661 Q 111 657 117 644 Q 139 560 140 466 Q 140 310 121 235 Q 109 184 142 141 Q 152 128 162 140 Q 172 155 174 181 L 177 219 Q 178 235 178 257 Q 178 339 179 402 L 179 440 Q 180 588 183 602 Q 184 609 184 616 C 185 633 185 633 167 645 Z" fill="black"></path>
				<path d="M 265 191 Q 275 173 288 155 Q 304 130 313 132 Q 325 133 339 166 Q 352 202 350 248 Q 346 339 344 541 Q 344 593 359 620 Q 371 639 362 651 Q 355 661 300 679 Q 275 689 256 678 Q 207 654 167 645 C 138 637 154 611 184 616 Q 196 617 247 630 Q 269 636 277 628 Q 290 616 290 566 Q 294 359 285 246 Q 289 221 267 224 C 250 216 250 216 265 191 Z" fill="black"></path>
				<path d="M 179 402 Q 225 412 260 417 Q 285 424 274 436 Q 261 449 234 452 Q 212 453 179 440 C 151 429 150 396 179 402 Z" fill="red"></path>
				<path d="M 174 181 Q 174 182 176 182 Q 204 188 265 191 C 295 193 292 207 267 224 Q 263 227 257 230 Q 239 239 177 219 C 148 210 146 170 174 181 Z" fill="lightgray"></path>
				<path d="M 622 576 Q 751 607 755 611 Q 764 620 759 628 Q 752 640 722 647 Q 683 654 623 627 L 580 615 Q 573 615 570 613 Q 518 600 457 594 Q 420 587 447 570 Q 489 549 558 564 Q 568 567 581 567 L 622 576 Z" fill="lightgray"></path>
				<path d="M 628 416 Q 715 431 853 432 Q 872 433 877 442 Q 881 454 865 466 Q 808 505 742 483 Q 691 471 620 456 L 579 448 Q 485 433 375 414 Q 356 411 371 395 Q 384 382 402 378 Q 423 374 438 379 Q 490 395 556 406 L 628 416 Z" fill="lightgray"></path>
				<path d="M 620 456 Q 621 513 622 576 L 623 627 Q 626 709 643 768 Q 652 783 649 797 Q 642 807 586 841 Q 562 857 541 842 Q 537 838 542 822 Q 579 768 579 715 Q 580 669 580 615 L 581 567 Q 581 516 579 448 L 576 333 Q 572 167 563 120 Q 542 15 543 13 Q 543 1 563 -46 Q 570 -64 578 -67 Q 585 -74 592 -65 Q 599 -61 610 -40 Q 620 -15 619 17 Q 618 62 619 384 L 620 456 Z" fill="lightgray"></path>
				<path d="M 556 406 Q 496 261 306 91 Q 296 78 304 77 Q 313 73 325 79 Q 443 137 535 271 Q 548 292 565 316 Q 571 326 576 333 C 635 422 568 435 556 406 Z" fill="lightgray"></path>
				<path d="M 619 384 Q 694 266 791 137 Q 809 115 841 115 Q 950 114 984 118 Q 994 119 996 125 Q 997 131 983 139 Q 832 205 765 271 Q 699 335 628 416 C 608 439 596 420 619 384 Z" fill="lightgray"></path>
</g>
		<text x="40" y="140" font-size="128" fill="#999999">3</text></g>
		<g id="id0:id3:id3" transform="matrix(1.0,0,0,1.0,3072,0.0)">			<g stroke="lightgray" stroke-width="4" transform="scale(4, 4)"> <rect x="0" y="0" width="256" height="256" fill="white" stroke-width="4"/></g>
			<g transform="scale(0.92, -0.92) translate(60, -920)">					<path d="M 167 645 Q 160 652 138 660 Q 129 664 118 661 Q 111 657 117 644 Q 139 560 140 466 Q 140 310 121 235 Q 109 184 142 141 Q 152 128 162 140 Q 172 155 174 181 L 177 219 Q 178 235 178 257 Q 178 339 179 402 L 179 440 Q 180 588 183 602 Q 184 609 184 616 C 185 633 185 633 167 645 Z" fill="black"></path>
				<path d="M 265 191 Q 275 173 288 155 Q 304 130 313 132 Q 325 133 339 166 Q 352 202 350 248 Q 346 339 344 541 Q 344 593 359 620 Q 371 639 362 651 Q 355 661 300 679 Q 275 689 256 678 Q 207 654 167 645 C 138 637 154 611 184 616 Q 196 617 247 630 Q 269 636 277 628 Q 290 616 290 566 Q 294 359 285 246 Q 289 221 267 224 C 250 216 250 216 265 191 Z" fill="black"></path>
				<path d="M 179 402 Q 225 412 260 417 Q 285 424 274 436 Q 261 449 234 452 Q 212 453 179 440 C 151 429 150 396 179 402 Z" fill="black"></path>
				<path d="M 174 181 Q 174 182 176 182 Q 204 188 265 191 C 295 193 292 207 267 224 Q 263 227 257 230 Q 239 239 177 219 C 148 210 146 170 174 181 Z" fill="red"></path>
				<path d="M 622 576 Q 751 607 755 611 Q 764 620 759 628 Q 752 640 722 647 Q 683 654 623 627 L 580 615 Q 573 615 570 613 Q 518 600 457 594 Q 420 587 447 570 Q 489 549 558 564 Q 568 567 581 567 L 622 576 Z" fill="lightgray"></path>
				<path d="M 628 416 Q 715 431 853 432 Q 872 433 877 442 Q 881 454 865 466 Q 808 505 742 483 Q 691 471 620 456 L 579 448 Q 485 433 375 414 Q 356 411 371 395 Q 384 382 402 378 Q 423 374 438 379 Q 490 395 556 406 L 628 416 Z" fill="lightgray"></path>
				<path d="M 620 456 Q 621 513 622 576 L 623 627 Q 626 709 643 768 Q 652 783 649 797 Q 642 807 586 841 Q 562 857 541 842 Q 537 838 542 822 Q 579 768 579 715 Q 580 669 580 615 L 581 567 Q 581 516 579 448 L 576 333 Q 572 167 563 120 Q 542 15 543 13 Q 543 1 563 -46 Q 570 -64 578 -67 Q 585 -74 592 -65 Q 599 -61 610 -40 Q 620 -15 619 17 Q 618 62 619 384 L 620 456 Z" fill="lightgray"></path>
				<path d="M 556 406 Q 496 261 306 91 Q 296 78 304 77 Q 313 73 325 79 Q 443 137 535 271 Q 548 292 565 316 Q 571 326 576 333 C 635 422 568 435 556 406 Z" fill="lightgray"></path>
				<path d="M 619 384 Q 694 266 791 137 Q 809 115 841 115 Q 950 114 984 118 Q 994 119 996 125 Q 997 131 983 139 Q 832 205 765 271 Q 699 335 628 416 C 608 439 596 420 619 384 Z" fill="lightgray"></path>
</g>
		<text x="40" y="140" font-size="128" fill="#999999">4</text></g>
		<g id="id0:id4:id4" transform="matrix(1.0,0,0,1.0,4096,0.0)">			<g stroke="lightgray" stroke-width="4" transform="scale(4, 4)"> <rect x="0" y="0" width="256" height="256" fill="white" stroke-width="4"/></g>
			<g transform="scale(0.92, -0.92) translate(60, -920)">					<path d="M 167 645 Q 160 652 138 660 Q 129 664 118 661 Q 111 657 117 644 Q 139 560 140 466 Q 140 310 121 235 Q 109 184 142 141 Q 152 128 162 140 Q 172 155 174 181 L 177 219 Q 178 235 178 257 Q 178 339 179 402 L 179 440 Q 180 588 183 602 Q 184 609 184 616 C 185 633 185 633 167 645 Z" fill="black"></path>
				<path d="M 265 191 Q 275 173 288 155 Q 304 130 313 132 Q 325 133 339 166 Q 352 202 350 248 Q 346 339 344 541 Q 344 593 359 620 Q 371 639 362 651 Q 355 661 300 679 Q 275 689 256 678 Q 207 654 167 645 C 138 637 154 611 184 616 Q 196 617 247 630 Q 269 636 277 628 Q 290 616 290 566 Q 294 359 285 246 Q 289 221 267 224 C 250 216 250 216 265 191 Z" fill="black"></path>
				<path d="M 179 402 Q 225 412 260 417 Q 285 424 274 436 Q 261 449 234 452 Q 212 453 179 440 C 151 429 150 396 179 402 Z" fill="black"></path>
				<path d="M 174 181 Q 174 182 176 182 Q 204 188 265 191 C 295 193 292 207 267 224 Q 263 227 257 230 Q 239 239 177 219 C 148 210 146 170 174 181 Z" fill="black"></path>
				<path d="M 622 576 Q 751 607 755 611 Q 764 620 759 628 Q 752 640 722 647 Q 683 654 623 627 L 580 615 Q 573 615 570 613 Q 518 600 457 594 Q 420 587 447 570 Q 489 549 558 564 Q 568 567 581 567 L 622 576 Z" fill="red"></path>
				<path d="M 628 416 Q 715 431 853 432 Q 872 433 877 442 Q 881 454 865 466 Q 808 505 742 483 Q 691 471 620 456 L 579 448 Q 485 433 375 414 Q 356 411 371 395 Q 384 382 402 378 Q 423 374 438 379 Q 490 395 556 406 L 628 416 Z" fill="lightgray"></path>
				<path d="M 620 456 Q 621 513 622 576 L 623 627 Q 626 709 643 768 Q 652 783 649 797 Q 642 807 586 841 Q 562 857 541 842 Q 537 838 542 822 Q 579 768 579 715 Q 580 669 580 615 L 581 567 Q 581 516 579 448 L 576 333 Q 572 167 563 120 Q 542 15 543 13 Q 543 1 563 -46 Q 570 -64 578 -67 Q 585 -74 592 -65 Q 599 -61 610 -40 Q 620 -15 619 17 Q 618 62 619 384 L 620 456 Z" fill="lightgray"></path>
				<path d="M 556 406 Q 496 261 306 91 Q 296 78 304 77 Q 313 73 325 79 Q 443 137 535 271 Q 548 292 565 316 Q 571 326 576 333 C 635 422 568 435 556 406 Z" fill="lightgray"></path>
				<path d="M 619 384 Q 694 266 791 137 Q 809 115 841 115 Q 950 114 984 118 Q 994 119 996 125 Q 997 131 983 139 Q 832 205 765 271 Q 699 335 628 416 C 608 439 596 420 619 384 Z" fill="lightgray"></path>
</g>
		<text x="40" y="140" font-size="128" fill="#999999">5</text></g>
</g>
	<g id="id1:id1" transform="translate(0.0,1024)">
		<g id="id1:id0:id0" transform="matrix(1.0,0,0,1.0,0,0.0)">			<g stroke="lightgray" stroke-width="4" transform="scale(4, 4)"> <rect x="0" y="0" width="256" height="256" fill="white" stroke-width="4"/></g>
			<g transform="scale(0.92, -0.92) translate(60, -920)">					<path d="M 167 645 Q 160 652 138 660 Q 129 664 118 661 Q 111 657 117 644 Q 139 560 140 466 Q 140 310 121 235 Q 109 184 142 141 Q 152 128 162 140 Q 172 155 174 181 L 177 219 Q 178 235 178 257 Q 178 339 179 402 L 179 440 Q 180 588 183 602 Q 184 609 184 616 C 185 633 185 633 167 645 Z" fill="black"></path>
				<path d="M 265 191 Q 275 173 288 155 Q 304 130 313 132 Q 325 133 339 166 Q 352 202 350 248 Q 346 339 344 541 Q 344 593 359 620 Q 371 639 362 651 Q 355 661 300 679 Q 275 689 256 678 Q 207 654 167 645 C 138 637 154 611 184 616 Q 196 617 247 630 Q 269 636 277 628 Q 290 616 290 566 Q 294 359 285 246 Q 289 221 267 224 C 250 216 250 216 265 191 Z" fill="black"></path>
				<path d="M 179 402 Q 225 412 260 417 Q 285 424 274 436 Q 261 449 234 452 Q 212 453 179 440 C 151 429 150 396 179 402 Z" fill="black"></path>
				<path d="M 174 181 Q 174 182 176 182 Q 204 188 265 191 C 295 193 292 207 267 224 Q 263 227 257 230 Q 239 239 177 219 C 148 210 146 170 174 181 Z" fill="black"></path>
				<path d="M 622 576 Q 751 607 755 611 Q 764 620 759 628 Q 752 640 722 647 Q 683 654 623 627 L 580 615 Q 573 615 570 613 Q 518 600 457 594 Q 420 587 447 570 Q 489 549 558 564 Q 568 567 581 567 L 622 576 Z" fill="black"></path>
				<path d="M 628 416 Q 715 431 853 432 Q 872 433 877 442 Q 881 454 865 466 Q 808 505 742 483 Q 691 471 620 456 L 579 448 Q 485 433 375 414 Q 356 411 371 395 Q 384 382 402 378 Q 423 374 438 379 Q 490 395 556 406 L 628 416 Z" fill="red"></path>
				<path d="M 620 456 Q 621 513 622 576 L 623 627 Q 626 709 643 768 Q 652 783 649 797 Q 642 807 586 841 Q 562 857 541 842 Q 537 838 542 822 Q 579 768 579 715 Q 580 669 580 615 L 581 567 Q 581 516 579 448 L 576 333 Q 572 167 563 120 Q 542 15 543 13 Q 543 1 563 -46 Q 570 -64 578 -67 Q 585 -74 592 -65 Q 599 -61 610 -40 Q 620 -15 619 17 Q 618 62 619 384 L 620 456 Z" fill="lightgray"></path>
				<path d="M 556 406 Q 496 261 306 91 Q 296 78 304 77 Q 313 73 325 79 Q 443 137 535 271 Q 548 292 565 316 Q 571 326 576 333 C 635 422 568 435 556 406 Z" fill="lightgray"></path>
				<path d="M 619 384 Q 694 266 791 137 Q 809 115 841 115 Q 950 114 984 118 Q 994 119 996 125 Q 997 131 983 139 Q 832 205 765 271 Q 699 335 628 416 C 608 439 596 420 619 384 Z" fill="lightgray"></path>
</g>
		<text x="40" y="140" font-size="128" fill="#999999">6</text></g>
		<g id="id1:id1:id1" transform="matrix(1.0,0,0,1.0,1024,0.0)">			<g stroke="lightgray" stroke-width="4" transform="scale(4, 4)"> <rect x="0" y="0" width="256" height="256" fill="white" stroke-width="4"/></g>
			<g transform="scale(0.92, -0.92) translate(60, -920)">					<path d="M 167 645 Q 160 652 138 660 Q 129 664 118 661 Q 111 657 117 644 Q 139 560 140 466 Q 140 310 121 235 Q 109 184 142 141 Q 152 128 162 140 Q 172 155 174 181 L 177 219 Q 178 235 178 257 Q 178 339 179 402 L 179 440 Q 180 588 183 602 Q 184 609 184 616 C 185 633 185 633 167 645 Z" fill="black"></path>
				<path d="M 265 191 Q 275 173 288 155 Q 304 130 313 132 Q 325 133 339 166 Q 352 202 350 248 Q 346 339 344 541 Q 344 593 359 620 Q 371 639 362 651 Q 355 661 300 679 Q 275 689 256 678 Q 207 654 167 645 C 138 637 154 611 184 616 Q 196 617 247 630 Q 269 636 277 628 Q 290 616 290 566 Q 294 359 285 246 Q 289 221 267 224 C 250 216 250 216 265 191 Z" fill="black"></path>
				<path d="M 179 402 Q 225 412 260 417 Q 285 424 274 436 Q 261 449 234 452 Q 212 453 179 440 C 151 429 150 396 179 402 Z" fill="black"></path>
				<path d="M 174 181 Q 174 182 176 182 Q 204 188 265 191 C 295 193 292 207 267 224 Q 263 227 257 230 Q 239 239 177 219 C 148 210 146 170 174 181 Z" fill="black"></path>
				<path d="M 622 576 Q 751 607 755 611 Q 764 620 759 628 Q 752 640 722 647 Q 683 654 623 627 L 580 615 Q 573 615 570 613 Q 518 600 457 594 Q 420 587 447 570 Q 489 549 558 564 Q 568 567 581 567 L 622 576 Z" fill="black"></path>
				<path d="M 628 416 Q 715 431 853 432 Q 872 433 877 442 Q 881 454 865 466 Q 808 505 742 483 Q 691 471 620 456 L 579 448 Q 485 433 375 414 Q 356 411 371 395 Q 384 382 402 378 Q 423 374 438 379 Q 490 395 556 406 L 628 416 Z" fill="black"></path>
				<path d="M 620 456 Q 621 513 622 576 L 623 627 Q 626 709 643 768 Q 652 783 649 797 Q 642 807 586 841 Q 562 857 541 842 Q 537 838 542 822 Q 579 768 579 715 Q 580 669 580 615 L 581 567 Q 581 516 579 448 L 576 333 Q 572 167 563 120 Q 542 15 543 13 Q 543 1 563 -46 Q 570 -64 578 -67 Q 585 -74 592 -65 Q 599 -61 610 -40 Q 620 -15 619 17 Q 618 62 619 384 L 620 456 Z" fill="red"></path>
				<path d="M 556 406 Q 496 261 306 91 Q 296 78 304 77 Q 313 73 325 79 Q 443 137 535 271 Q 548 292 565 316 Q 571 326 576 333 C 635 422 568 435 556 406 Z" fill="lightgray"></path>
				<path d="M 619 384 Q 694 266 791 137 Q 809 115 841 115 Q 950 114 984 118 Q 994 119 996 125 Q 997 131 983 139 Q 832 205 765 271 Q 699 335 628 416 C 608 439 596 420 619 384 Z" fill="lightgray"></path>
</g>
		<text x="40" y="140" font-size="128" fill="#999999">7</text></g>
		<g id="id1:id2:id2" transform="matrix(1.0,0,0,1.0,2048,0.0)">			<g stroke="lightgray" stroke-width="4" transform="scale(4, 4)"> <rect x="0" y="0" width="256" height="256" fill="white" stroke-width="4"/></g>
			<g transform="scale(0.92, -0.92) translate(60, -920)">					<path d="M 167 645 Q 160 652 138 660 Q 129 664 118 661 Q 111 657 117 644 Q 139 560 140 466 Q 140 310 121 235 Q 109 184 142 141 Q 152 128 162 140 Q 172 155 174 181 L 177 219 Q 178 235 178 257 Q 178 339 179 402 L 179 440 Q 180 588 183 602 Q 184 609 184 616 C 185 633 185 633 167 645 Z" fill="black"></path>
				<path d="M 265 191 Q 275 173 288 155 Q 304 130 313 132 Q 325 133 339 166 Q 352 202 350 248 Q 346 339 344 541 Q 344 593 359 620 Q 371 639 362 651 Q 355 661 300 679 Q 275 689 256 678 Q 207 654 167 645 C 138 637 154 611 184 616 Q 196 617 247 630 Q 269 636 277 628 Q 290 616 290 566 Q 294 359 285 246 Q 289 221 267 224 C 250 216 250 216 265 191 Z" fill="black"></path>
				<path d="M 179 402 Q 225 412 260 417 Q 285 424 274 436 Q 261 449 234 452 Q 212 453 179 440 C 151 429 150 396 179 402 Z" fill="black"></path>
				<path d="M 174 181 Q 174 182 176 182 Q 204 188 265 191 C 295 193 292 207 267 224 Q 263 227 257 230 Q 239 239 177 219 C 148 210 146 170 174 181 Z" fill="black"></path>
				<path d="M 622 576 Q 751 607 755 611 Q 764 620 759 628 Q 752 640 722 647 Q 683 654 623 627 L 580 615 Q 573 615 570 613 Q 518 600 457 594 Q 420 587 447 570 Q 489 549 558 564 Q 568 567 581 567 L 622 576 Z" fill="black"></path>
				<path d="M 628 416 Q 715 431 853 432 Q 872 433 877 442 Q 881 454 865 466 Q 808 505 742 483 Q 691 471 620 456 L 579 448 Q 485 433 375 414 Q 356 411 371 395 Q 384 382 402 378 Q 423 374 438 379 Q 490 395 556 406 L 628 416 Z" fill="black"></path>
				<path d="M 620 456 Q 621 513 622 576 L 623 627 Q 626 709 643 768 Q 652 783 649 797 Q 642 807 586 841 Q 562 857 541 842 Q 537 838 542 822 Q 579 768 579 715 Q 580 669 580 615 L 581 567 Q 581 516 579 448 L 576 333 Q 572 167 563 120 Q 542 15 543 13 Q 543 1 563 -46 Q 570 -64 578 -67 Q 585 -74 592 -65 Q 599 -61 610 -40 Q 620 -15 619 17 Q 618 62 619 384 L 620 456 Z" fill="black"></path>
				<path d="M 556 406 Q 496 261 306 91 Q 296 78 304 77 Q 313 73 325 79 Q 443 137 535 271 Q 548 292 565 316 Q 571 326 576 333 C 635 422 568 435 556 406 Z" fill="red"></path>
				<path d="M 619 384 Q 694 266 791 137 Q 809 115 841 115 Q 950 114 984 118 Q 994 119 996 125 Q 997 131 983 139 Q 832 205 765 271 Q 699 335 628 416 C 608 439 596 420 619 384 Z" fill="lightgray"></path>
</g>
		<text x="40" y="140" font-size="128" fill="#999999">8</text></g>
		<g id="id1:id3:id3" transform="matrix(1.0,0,0,1.0,3072,0.0)">			<g stroke="lightgray" stroke-width="4" transform="scale(4, 4)"> <rect x="0" y="0" width="256" height="256" fill="white" stroke-width="4"/></g>
			<g transform="scale(0.92, -0.92) translate(60, -920)">					<path d="M 167 645 Q 160 652 138 660 Q 129 664 118 661 Q 111 657 117 644 Q 139 560 140 466 Q 140 310 121 235 Q 109 184 142 141 Q 152 128 162 140 Q 172 155 174 181 L 177 219 Q 178 235 178 257 Q 178 339 179 402 L 179 440 Q 180 588 183 602 Q 184 609 184 616 C 185 633 185 633 167 645 Z" fill="black"></path>
				<path d="M 265 191 Q 275 173 288 155 Q 304 130 313 132 Q 325 133 339 166 Q 352 202 350 248 Q 346 339 344 541 Q 344 593 359 620 Q 371 639 362 651 Q 355 661 300 679 Q 275 689 256 678 Q 207 654 167 645 C 138 637 154 611 184 616 Q 196 617 247 630 Q 269 636 277 628 Q 290 616 290 566 Q 294 359 285 246 Q 289 221 267 224 C 250 216 250 216 265 191 Z" fill="black"></path>
				<path d="M 179 402 Q 225 412 260 417 Q 285 424 274 436 Q 261 449 234 452 Q 212 453 179 440 C 151 429 150 396 179 402 Z" fill="black"></path>
				<path d="M 174 181 Q 174 182 176 182 Q 204 188 265 191 C 295 193 292 207 267 224 Q 263 227 257 230 Q 239 239 177 219 C 148 210 146 170 174 181 Z" fill="black"></path>
				<path d="M 622 576 Q 751 607 755 611 Q 764 620 759 628 Q 752 640 722 647 Q 683 654 623 627 L 580 615 Q 573 615 570 613 Q 518 600 457 594 Q 420 587 447 570 Q 489 549 558 564 Q 568 567 581 567 L 622 576 Z" fill="black"></path>
				<path d="M 628 416 Q 715 431 853 432 Q 872 433 877 442 Q 881 454 865 466 Q 808 505 742 483 Q 691 471 620 456 L 579 448 Q 485 433 375 414 Q 356 411 371 395 Q 384 382 402 378 Q 423 374 438 379 Q 490 395 556 406 L 628 416 Z" fill="black"></path>
				<path d="M 620 456 Q 621 513 622 576 L 623 627 Q 626 709 643 768 Q 652 783 649 797 Q 642 807 586 841 Q 562 857 541 842 Q 537 838 542 822 Q 579 768 579 715 Q 580 669 580 615 L 581 567 Q 581 516 579 448 L 576 333 Q 572 167 563 120 Q 542 15 543 13 Q 543 1 563 -46 Q 570 -64 578 -67 Q 585 -74 592 -65 Q 599 -61 610 -40 Q 620 -15 619 17 Q 618 62 619 384 L 620 456 Z" fill="black"></path>
				<path d="M 556 406 Q 496 261 306 91 Q 296 78 304 77 Q 313 73 325 79 Q 443 137 535 271 Q 548 292 565 316 Q 571 326 576 333 C 635 422 568 435 556 406 Z" fill="black"></path>
				<path d="M 619 384 Q 694 266 791 137 Q 809 115 841 115 Q 950 114 984 118 Q 994 119 996 125 Q 997 131 983 139 Q 832 205 765 271 Q 699 335 628 416 C 608 439 596 420 619 384 Z" fill="red"></path>
</g>
		<text x="40" y="140" font-size="128" fill="#999999">9</text></g>
		<g id="id1:id4:id4" transform="matrix(1.0,0,0,1.0,4096,0.0)">			<g stroke="white" stroke-width="4" transform="scale(4, 4)"> <rect x="1" y="1" width="255" height="255" fill="white" stroke-width="0"/></g>
</g>
</g>
</svg>
