<?xml version="1.0" standalone="no"?>
<!DOCTYPE svg PUBLIC "-//W3C//DTD SVG 1.1//EN"
 "http://www.w3.org/Graphics/SVG/1.1/DTD/svg11.dtd">
<!-- generate by Handict dictionary app com.asnsami.handict -->

<svg xmlns="http://www.w3.org/2000/svg" xmlns:sodipodi="http://sodipodi.sourceforge.net/DTD/sodipodi-0.dtd" version="1.1" width="640" height="256" viewBox="0 0 5120 2048">
	<g id="id0:id0" transform="translate(0.0,0)">
		<g id="id0:id0:id0" transform="matrix(1.0,0,0,1.0,0,0.0)">			<g stroke="lightgray" stroke-width="4" transform="scale(4, 4)"> <rect x="0" y="0" width="256" height="256" fill="white" stroke-width="4"/></g>
			<g transform="scale(0.92, -0.92) translate(60, -920)">					<path d="M 187 684 Q 174 697 152 704 Q 142 708 130 705 Q 123 701 129 687 Q 132 674 137 662 Q 164 604 146 305 Q 140 262 128 212 Q 113 155 149 110 Q 159 97 171 109 Q 183 125 183 147 L 187 177 Q 187 183 192 410 L 193 445 Q 197 623 200 640 Q 201 647 201 653 C 203 672 203 672 187 684 Z" fill="red"></path>
				<path d="M 289 158 Q 305 134 320 111 Q 336 86 345 88 Q 358 91 375 129 Q 391 171 386 225 Q 379 334 375 571 Q 375 632 391 664 Q 403 683 394 695 Q 387 705 332 722 Q 307 732 287 721 Q 233 696 187 684 C 158 676 172 644 201 653 Q 204 654 209 656 Q 237 663 269 673 Q 299 682 309 672 Q 325 657 325 595 Q 329 342 317 202 Q 318 186 311 181 C 303 152 278 175 289 158 Z" fill="lightgray"></path>
				<path d="M 192 410 Q 246 419 284 425 Q 309 432 298 444 Q 285 457 258 460 Q 233 461 193 445 C 165 434 162 405 192 410 Z" fill="lightgray"></path>
				<path d="M 183 147 Q 184 147 187 147 Q 245 154 289 158 C 319 161 332 162 311 181 Q 301 191 281 196 Q 242 200 187 177 C 159 166 153 147 183 147 Z" fill="lightgray"></path>
				<path d="M 610 660 Q 689 682 755 692 Q 776 695 780 689 Q 790 674 784 637 Q 774 534 748 488 Q 732 457 704 461 Q 680 468 659 477 Q 634 486 651 461 Q 693 418 711 384 Q 730 362 748 380 Q 811 422 837 583 Q 843 658 866 689 Q 879 702 872 713 Q 862 725 810 747 Q 789 756 769 742 Q 747 729 656 707 Q 566 683 490 678 Q 472 677 469 668 Q 468 659 492 648 Q 517 632 537 640 Q 553 646 574 650 L 610 660 Z" fill="lightgray"></path>
				<path d="M 574 650 L 575 648 Q 602 561 437 355 Q 431 351 431 344 Q 432 338 437 339 Q 509 357 618 545 Q 619 557 648 599 Q 655 609 646 624 Q 631 648 610 660 C 585 677 566 679 574 650 Z" fill="lightgray"></path>
				<path d="M 480 297 Q 471 300 462 301 Q 449 305 445 299 Q 438 292 447 274 Q 481 204 499 87 Q 503 53 522 29 Q 541 4 548 22 Q 554 41 551 72 L 546 110 Q 527 227 523 259 C 519 286 509 289 480 297 Z" fill="lightgray"></path>
				<path d="M 794 138 Q 819 238 856 270 Q 874 289 858 309 Q 840 322 783 349 Q 764 358 740 348 Q 583 285 480 297 C 450 300 494 252 523 259 Q 734 310 752 294 Q 770 276 738 144 C 731 115 786 109 794 138 Z" fill="lightgray"></path>
				<path d="M 551 72 Q 561 71 573 73 Q 648 88 809 98 Q 822 99 823 109 Q 823 118 794 138 L 738 144 L 737 144 Q 631 120 546 110 C 516 106 521 73 551 72 Z" fill="lightgray"></path>
</g>
		<text x="40" y="140" font-size="128" fill="#999999">1</text></g>
		<g id="id0:id1:id1" transform="matrix(1.0,0,0,1.0,1024,0.0)">			<g stroke="lightgray" stroke-width="4" transform="scale(4, 4)"> <rect x="0" y="0" width="256" height="256" fill="white" stroke-width="4"/></g>
			<g transform="scale(0.92, -0.92) translate(60, -920)">					<path d="M 187 684 Q 174 697 152 704 Q 142 708 130 705 Q 123 701 129 687 Q 132 674 137 662 Q 164 604 146 305 Q 140 262 128 212 Q 113 155 149 110 Q 159 97 171 109 Q 183 125 183 147 L 187 177 Q 187 183 192 410 L 193 445 Q 197 623 200 640 Q 201 647 201 653 C 203 672 203 672 187 684 Z" fill="black"></path>
				<path d="M 289 158 Q 305 134 320 111 Q 336 86 345 88 Q 358 91 375 129 Q 391 171 386 225 Q 379 334 375 571 Q 375 632 391 664 Q 403 683 394 695 Q 387 705 332 722 Q 307 732 287 721 Q 233 696 187 684 C 158 676 172 644 201 653 Q 204 654 209 656 Q 237 663 269 673 Q 299 682 309 672 Q 325 657 325 595 Q 329 342 317 202 Q 318 186 311 181 C 303 152 278 175 289 158 Z" fill="red"></path>
				<path d="M 192 410 Q 246 419 284 425 Q 309 432 298 444 Q 285 457 258 460 Q 233 461 193 445 C 165 434 162 405 192 410 Z" fill="lightgray"></path>
				<path d="M 183 147 Q 184 147 187 147 Q 245 154 289 158 C 319 161 332 162 311 181 Q 301 191 281 196 Q 242 200 187 177 C 159 166 153 147 183 147 Z" fill="lightgray"></path>
				<path d="M 610 660 Q 689 682 755 692 Q 776 695 780 689 Q 790 674 784 637 Q 774 534 748 488 Q 732 457 704 461 Q 680 468 659 477 Q 634 486 651 461 Q 693 418 711 384 Q 730 362 748 380 Q 811 422 837 583 Q 843 658 866 689 Q 879 702 872 713 Q 862 725 810 747 Q 789 756 769 742 Q 747 729 656 707 Q 566 683 490 678 Q 472 677 469 668 Q 468 659 492 648 Q 517 632 537 640 Q 553 646 574 650 L 610 660 Z" fill="lightgray"></path>
				<path d="M 574 650 L 575 648 Q 602 561 437 355 Q 431 351 431 344 Q 432 338 437 339 Q 509 357 618 545 Q 619 557 648 599 Q 655 609 646 624 Q 631 648 610 660 C 585 677 566 679 574 650 Z" fill="lightgray"></path>
				<path d="M 480 297 Q 471 300 462 301 Q 449 305 445 299 Q 438 292 447 274 Q 481 204 499 87 Q 503 53 522 29 Q 541 4 548 22 Q 554 41 551 72 L 546 110 Q 527 227 523 259 C 519 286 509 289 480 297 Z" fill="lightgray"></path>
				<path d="M 794 138 Q 819 238 856 270 Q 874 289 858 309 Q 840 322 783 349 Q 764 358 740 348 Q 583 285 480 297 C 450 300 494 252 523 259 Q 734 310 752 294 Q 770 276 738 144 C 731 115 786 109 794 138 Z" fill="lightgray"></path>
				<path d="M 551 72 Q 561 71 573 73 Q 648 88 809 98 Q 822 99 823 109 Q 823 118 794 138 L 738 144 L 737 144 Q 631 120 546 110 C 516 106 521 73 551 72 Z" fill="lightgray"></path>
</g>
		<text x="40" y="140" font-size="128" fill="#999999">2</text></g>
		<g id="id0:id2:id2" transform="matrix(1.0,0,0,1.0,2048,0.0)">			<g stroke="lightgray" stroke-width="4" transform="scale(4, 4)"> <rect x="0" y="0" width="256" height="256" fill="white" stroke-width="4"/></g>
			<g transform="scale(0.92, -0.92) translate(60, -920)">					<path d="M 187 684 Q 174 697 152 704 Q 142 708 130 705 Q 123 701 129 687 Q 132 674 137 662 Q 164 604 146 305 Q 140 262 128 212 Q 113 155 149 110 Q 159 97 171 109 Q 183 125 183 147 L 187 177 Q 187 183 192 410 L 193 445 Q 197 623 200 640 Q 201 647 201 653 C 203 672 203 672 187 684 Z" fill="black"></path>
				<path d="M 289 158 Q 305 134 320 111 Q 336 86 345 88 Q 358 91 375 129 Q 391 171 386 225 Q 379 334 375 571 Q 375 632 391 664 Q 403 683 394 695 Q 387 705 332 722 Q 307 732 287 721 Q 233 696 187 684 C 158 676 172 644 201 653 Q 204 654 209 656 Q 237 663 269 673 Q 299 682 309 672 Q 325 657 325 595 Q 329 342 317 202 Q 318 186 311 181 C 303 152 278 175 289 158 Z" fill="black"></path>
				<path d="M 192 410 Q 246 419 284 425 Q 309 432 298 444 Q 285 457 258 460 Q 233 461 193 445 C 165 434 162 405 192 410 Z" fill="red"></path>
				<path d="M 183 147 Q 184 147 187 147 Q 245 154 289 158 C 319 161 332 162 311 181 Q 301 191 281 196 Q 242 200 187 177 C 159 166 153 147 183 147 Z" fill="lightgray"></path>
				<path d="M 610 660 Q 689 682 755 692 Q 776 695 780 689 Q 790 674 784 637 Q 774 534 748 488 Q 732 457 704 461 Q 680 468 659 477 Q 634 486 651 461 Q 693 418 711 384 Q 730 362 748 380 Q 811 422 837 583 Q 843 658 866 689 Q 879 702 872 713 Q 862 725 810 747 Q 789 756 769 742 Q 747 729 656 707 Q 566 683 490 678 Q 472 677 469 668 Q 468 659 492 648 Q 517 632 537 640 Q 553 646 574 650 L 610 660 Z" fill="lightgray"></path>
				<path d="M 574 650 L 575 648 Q 602 561 437 355 Q 431 351 431 344 Q 432 338 437 339 Q 509 357 618 545 Q 619 557 648 599 Q 655 609 646 624 Q 631 648 610 660 C 585 677 566 679 574 650 Z" fill="lightgray"></path>
				<path d="M 480 297 Q 471 300 462 301 Q 449 305 445 299 Q 438 292 447 274 Q 481 204 499 87 Q 503 53 522 29 Q 541 4 548 22 Q 554 41 551 72 L 546 110 Q 527 227 523 259 C 519 286 509 289 480 297 Z" fill="lightgray"></path>
				<path d="M 794 138 Q 819 238 856 270 Q 874 289 858 309 Q 840 322 783 349 Q 764 358 740 348 Q 583 285 480 297 C 450 300 494 252 523 259 Q 734 310 752 294 Q 770 276 738 144 C 731 115 786 109 794 138 Z" fill="lightgray"></path>
				<path d="M 551 72 Q 561 71 573 73 Q 648 88 809 98 Q 822 99 823 109 Q 823 118 794 138 L 738 144 L 737 144 Q 631 120 546 110 C 516 106 521 73 551 72 Z" fill="lightgray"></path>
</g>
		<text x="40" y="140" font-size="128" fill="#999999">3</text></g>
		<g id="id0:id3:id3" transform="matrix(1.0,0,0,1.0,3072,0.0)">			<g stroke="lightgray" stroke-width="4" transform="scale(4, 4)"> <rect x="0" y="0" width="256" height="256" fill="white" stroke-width="4"/></g>
			<g transform="scale(0.92, -0.92) translate(60, -920)">					<path d="M 187 684 Q 174 697 152 704 Q 142 708 130 705 Q 123 701 129 687 Q 132 674 137 662 Q 164 604 146 305 Q 140 262 128 212 Q 113 155 149 110 Q 159 97 171 109 Q 183 125 183 147 L 187 177 Q 187 183 192 410 L 193 445 Q 197 623 200 640 Q 201 647 201 653 C 203 672 203 672 187 684 Z" fill="black"></path>
				<path d="M 289 158 Q 305 134 320 111 Q 336 86 345 88 Q 358 91 375 129 Q 391 171 386 225 Q 379 334 375 571 Q 375 632 391 664 Q 403 683 394 695 Q 387 705 332 722 Q 307 732 287 721 Q 233 696 187 684 C 158 676 172 644 201 653 Q 204 654 209 656 Q 237 663 269 673 Q 299 682 309 672 Q 325 657 325 595 Q 329 342 317 202 Q 318 186 311 181 C 303 152 278 175 289 158 Z" fill="black"></path>
				<path d="M 192 410 Q 246 419 284 425 Q 309 432 298 444 Q 285 457 258 460 Q 233 461 193 445 C 165 434 162 405 192 410 Z" fill="black"></path>
				<path d="M 183 147 Q 184 147 187 147 Q 245 154 289 158 C 319 161 332 162 311 181 Q 301 191 281 196 Q 242 200 187 177 C 159 166 153 147 183 147 Z" fill="red"></path>
				<path d="M 610 660 Q 689 682 755 692 Q 776 695 780 689 Q 790 674 784 637 Q 774 534 748 488 Q 732 457 704 461 Q 680 468 659 477 Q 634 486 651 461 Q 693 418 711 384 Q 730 362 748 380 Q 811 422 837 583 Q 843 658 866 689 Q 879 702 872 713 Q 862 725 810 747 Q 789 756 769 742 Q 747 729 656 707 Q 566 683 490 678 Q 472 677 469 668 Q 468 659 492 648 Q 517 632 537 640 Q 553 646 574 650 L 610 660 Z" fill="lightgray"></path>
				<path d="M 574 650 L 575 648 Q 602 561 437 355 Q 431 351 431 344 Q 432 338 437 339 Q 509 357 618 545 Q 619 557 648 599 Q 655 609 646 624 Q 631 648 610 660 C 585 677 566 679 574 650 Z" fill="lightgray"></path>
				<path d="M 480 297 Q 471 300 462 301 Q 449 305 445 299 Q 438 292 447 274 Q 481 204 499 87 Q 503 53 522 29 Q 541 4 548 22 Q 554 41 551 72 L 546 110 Q 527 227 523 259 C 519 286 509 289 480 297 Z" fill="lightgray"></path>
				<path d="M 794 138 Q 819 238 856 270 Q 874 289 858 309 Q 840 322 783 349 Q 764 358 740 348 Q 583 285 480 297 C 450 300 494 252 523 259 Q 734 310 752 294 Q 770 276 738 144 C 731 115 786 109 794 138 Z" fill="lightgray"></path>
				<path d="M 551 72 Q 561 71 573 73 Q 648 88 809 98 Q 822 99 823 109 Q 823 118 794 138 L 738 144 L 737 144 Q 631 120 546 110 C 516 106 521 73 551 72 Z" fill="lightgray"></path>
</g>
		<text x="40" y="140" font-size="128" fill="#999999">4</text></g>
		<g id="id0:id4:id4" transform="matrix(1.0,0,0,1.0,4096,0.0)">			<g stroke="lightgray" stroke-width="4" transform="scale(4, 4)"> <rect x="0" y="0" width="256" height="256" fill="white" stroke-width="4"/></g>
			<g transform="scale(0.92, -0.92) translate(60, -920)">					<path d="M 187 684 Q 174 697 152 704 Q 142 708 130 705 Q 123 701 129 687 Q 132 674 137 662 Q 164 604 146 305 Q 140 262 128 212 Q 113 155 149 110 Q 159 97 171 109 Q 183 125 183 147 L 187 177 Q 187 183 192 410 L 193 445 Q 197 623 200 640 Q 201 647 201 653 C 203 672 203 672 187 684 Z" fill="black"></path>
				<path d="M 289 158 Q 305 134 320 111 Q 336 86 345 88 Q 358 91 375 129 Q 391 171 386 225 Q 379 334 375 571 Q 375 632 391 664 Q 403 683 394 695 Q 387 705 332 722 Q 307 732 287 721 Q 233 696 187 684 C 158 676 172 644 201 653 Q 204 654 209 656 Q 237 663 269 673 Q 299 682 309 672 Q 325 657 325 595 Q 329 342 317 202 Q 318 186 311 181 C 303 152 278 175 289 158 Z" fill="black"></path>
				<path d="M 192 410 Q 246 419 284 425 Q 309 432 298 444 Q 285 457 258 460 Q 233 461 193 445 C 165 434 162 405 192 410 Z" fill="black"></path>
				<path d="M 183 147 Q 184 147 187 147 Q 245 154 289 158 C 319 161 332 162 311 181 Q 301 191 281 196 Q 242 200 187 177 C 159 166 153 147 183 147 Z" fill="black"></path>
				<path d="M 610 660 Q 689 682 755 692 Q 776 695 780 689 Q 790 674 784 637 Q 774 534 748 488 Q 732 457 704 461 Q 680 468 659 477 Q 634 486 651 461 Q 693 418 711 384 Q 730 362 748 380 Q 811 422 837 583 Q 843 658 866 689 Q 879 702 872 713 Q 862 725 810 747 Q 789 756 769 742 Q 747 729 656 707 Q 566 683 490 678 Q 472 677 469 668 Q 468 659 492 648 Q 517 632 537 640 Q 553 646 574 650 L 610 660 Z" fill="red"></path>
				<path d="M 574 650 L 575 648 Q 602 561 437 355 Q 431 351 431 344 Q 432 338 437 339 Q 509 357 618 545 Q 619 557 648 599 Q 655 609 646 624 Q 631 648 610 660 C 585 677 566 679 574 650 Z" fill="lightgray"></path>
				<path d="M 480 297 Q 471 300 462 301 Q 449 305 445 299 Q 438 292 447 274 Q 481 204 499 87 Q 503 53 522 29 Q 541 4 548 22 Q 554 41 551 72 L 546 110 Q 527 227 523 259 C 519 286 509 289 480 297 Z" fill="lightgray"></path>
				<path d="M 794 138 Q 819 238 856 270 Q 874 289 858 309 Q 840 322 783 349 Q 764 358 740 348 Q 583 285 480 297 C 450 300 494 252 523 259 Q 734 310 752 294 Q 770 276 738 144 C 731 115 786 109 794 138 Z" fill="lightgray"></path>
				<path d="M 551 72 Q 561 71 573 73 Q 648 88 809 98 Q 822 99 823 109 Q 823 118 794 138 L 738 144 L 737 144 Q 631 120 546 110 C 516 106 521 73 551 72 Z" fill="lightgray"></path>
</g>
		<text x="40" y="140" font-size="128" fill="#999999">5</text></g>
</g>
	<g id="id1:id1" transform="translate(0.0,1024)">
		<g id="id1:id0:id0" transform="matrix(1.0,0,0,1.0,0,0.0)">			<g stroke="lightgray" stroke-width="4" transform="scale(4, 4)"> <rect x="0" y="0" width="256" height="256" fill="white" stroke-width="4"/></g>
			<g transform="scale(0.92, -0.92) translate(60, -920)">					<path d="M 187 684 Q 174 697 152 704 Q 142 708 130 705 Q 123 701 129 687 Q 132 674 137 662 Q 164 604 146 305 Q 140 262 128 212 Q 113 155 149 110 Q 159 97 171 109 Q 183 125 183 147 L 187 177 Q 187 183 192 410 L 193 445 Q 197 623 200 640 Q 201 647 201 653 C 203 672 203 672 187 684 Z" fill="black"></path>
				<path d="M 289 158 Q 305 134 320 111 Q 336 86 345 88 Q 358 91 375 129 Q 391 171 386 225 Q 379 334 375 571 Q 375 632 391 664 Q 403 683 394 695 Q 387 705 332 722 Q 307 732 287 721 Q 233 696 187 684 C 158 676 172 644 201 653 Q 204 654 209 656 Q 237 663 269 673 Q 299 682 309 672 Q 325 657 325 595 Q 329 342 317 202 Q 318 186 311 181 C 303 152 278 175 289 158 Z" fill="black"></path>
				<path d="M 192 410 Q 246 419 284 425 Q 309 432 298 444 Q 285 457 258 460 Q 233 461 193 445 C 165 434 162 405 192 410 Z" fill="black"></path>
				<path d="M 183 147 Q 184 147 187 147 Q 245 154 289 158 C 319 161 332 162 311 181 Q 301 191 281 196 Q 242 200 187 177 C 159 166 153 147 183 147 Z" fill="black"></path>
				<path d="M 610 660 Q 689 682 755 692 Q 776 695 780 689 Q 790 674 784 637 Q 774 534 748 488 Q 732 457 704 461 Q 680 468 659 477 Q 634 486 651 461 Q 693 418 711 384 Q 730 362 748 380 Q 811 422 837 583 Q 843 658 866 689 Q 879 702 872 713 Q 862 725 810 747 Q 789 756 769 742 Q 747 729 656 707 Q 566 683 490 678 Q 472 677 469 668 Q 468 659 492 648 Q 517 632 537 640 Q 553 646 574 650 L 610 660 Z" fill="black"></path>
				<path d="M 574 650 L 575 648 Q 602 561 437 355 Q 431 351 431 344 Q 432 338 437 339 Q 509 357 618 545 Q 619 557 648 599 Q 655 609 646 624 Q 631 648 610 660 C 585 677 566 679 574 650 Z" fill="red"></path>
				<path d="M 480 297 Q 471 300 462 301 Q 449 305 445 299 Q 438 292 447 274 Q 481 204 499 87 Q 503 53 522 29 Q 541 4 548 22 Q 554 41 551 72 L 546 110 Q 527 227 523 259 C 519 286 509 289 480 297 Z" fill="lightgray"></path>
				<path d="M 794 138 Q 819 238 856 270 Q 874 289 858 309 Q 840 322 783 349 Q 764 358 740 348 Q 583 285 480 297 C 450 300 494 252 523 259 Q 734 310 752 294 Q 770 276 738 144 C 731 115 786 109 794 138 Z" fill="lightgray"></path>
				<path d="M 551 72 Q 561 71 573 73 Q 648 88 809 98 Q 822 99 823 109 Q 823 118 794 138 L 738 144 L 737 144 Q 631 120 546 110 C 516 106 521 73 551 72 Z" fill="lightgray"></path>
</g>
		<text x="40" y="140" font-size="128" fill="#999999">6</text></g>
		<g id="id1:id1:id1" transform="matrix(1.0,0,0,1.0,1024,0.0)">			<g stroke="lightgray" stroke-width="4" transform="scale(4, 4)"> <rect x="0" y="0" width="256" height="256" fill="white" stroke-width="4"/></g>
			<g transform="scale(0.92, -0.92) translate(60, -920)">					<path d="M 187 684 Q 174 697 152 704 Q 142 708 130 705 Q 123 701 129 687 Q 132 674 137 662 Q 164 604 146 305 Q 140 262 128 212 Q 113 155 149 110 Q 159 97 171 109 Q 183 125 183 147 L 187 177 Q 187 183 192 410 L 193 445 Q 197 623 200 640 Q 201 647 201 653 C 203 672 203 672 187 684 Z" fill="black"></path>
				<path d="M 289 158 Q 305 134 320 111 Q 336 86 345 88 Q 358 91 375 129 Q 391 171 386 225 Q 379 334 375 571 Q 375 632 391 664 Q 403 683 394 695 Q 387 705 332 722 Q 307 732 287 721 Q 233 696 187 684 C 158 676 172 644 201 653 Q 204 654 209 656 Q 237 663 269 673 Q 299 682 309 672 Q 325 657 325 595 Q 329 342 317 202 Q 318 186 311 181 C 303 152 278 175 289 158 Z" fill="black"></path>
				<path d="M 192 410 Q 246 419 284 425 Q 309 432 298 444 Q 285 457 258 460 Q 233 461 193 445 C 165 434 162 405 192 410 Z" fill="black"></path>
				<path d="M 183 147 Q 184 147 187 147 Q 245 154 289 158 C 319 161 332 162 311 181 Q 301 191 281 196 Q 242 200 187 177 C 159 166 153 147 183 147 Z" fill="black"></path>
				<path d="M 610 660 Q 689 682 755 692 Q 776 695 780 689 Q 790 674 784 637 Q 774 534 748 488 Q 732 457 704 461 Q 680 468 659 477 Q 634 486 651 461 Q 693 418 711 384 Q 730 362 748 380 Q 811 422 837 583 Q 843 658 866 689 Q 879 702 872 713 Q 862 725 810 747 Q 789 756 769 742 Q 747 729 656 707 Q 566 683 490 678 Q 472 677 469 668 Q 468 659 492 648 Q 517 632 537 640 Q 553 646 574 650 L 610 660 Z" fill="black"></path>
				<path d="M 574 650 L 575 648 Q 602 561 437 355 Q 431 351 431 344 Q 432 338 437 339 Q 509 357 618 545 Q 619 557 648 599 Q 655 609 646 624 Q 631 648 610 660 C 585 677 566 679 574 650 Z" fill="black"></path>
				<path d="M 480 297 Q 471 300 462 301 Q 449 305 445 299 Q 438 292 447 274 Q 481 204 499 87 Q 503 53 522 29 Q 541 4 548 22 Q 554 41 551 72 L 546 110 Q 527 227 523 259 C 519 286 509 289 480 297 Z" fill="red"></path>
				<path d="M 794 138 Q 819 238 856 270 Q 874 289 858 309 Q 840 322 783 349 Q 764 358 740 348 Q 583 285 480 297 C 450 300 494 252 523 259 Q 734 310 752 294 Q 770 276 738 144 C 731 115 786 109 794 138 Z" fill="lightgray"></path>
				<path d="M 551 72 Q 561 71 573 73 Q 648 88 809 98 Q 822 99 823 109 Q 823 118 794 138 L 738 144 L 737 144 Q 631 120 546 110 C 516 106 521 73 551 72 Z" fill="lightgray"></path>
</g>
		<text x="40" y="140" font-size="128" fill="#999999">7</text></g>
		<g id="id1:id2:id2" transform="matrix(1.0,0,0,1.0,2048,0.0)">			<g stroke="lightgray" stroke-width="4" transform="scale(4, 4)"> <rect x="0" y="0" width="256" height="256" fill="white" stroke-width="4"/></g>
			<g transform="scale(0.92, -0.92) translate(60, -920)">					<path d="M 187 684 Q 174 697 152 704 Q 142 708 130 705 Q 123 701 129 687 Q 132 674 137 662 Q 164 604 146 305 Q 140 262 128 212 Q 113 155 149 110 Q 159 97 171 109 Q 183 125 183 147 L 187 177 Q 187 183 192 410 L 193 445 Q 197 623 200 640 Q 201 647 201 653 C 203 672 203 672 187 684 Z" fill="black"></path>
				<path d="M 289 158 Q 305 134 320 111 Q 336 86 345 88 Q 358 91 375 129 Q 391 171 386 225 Q 379 334 375 571 Q 375 632 391 664 Q 403 683 394 695 Q 387 705 332 722 Q 307 732 287 721 Q 233 696 187 684 C 158 676 172 644 201 653 Q 204 654 209 656 Q 237 663 269 673 Q 299 682 309 672 Q 325 657 325 595 Q 329 342 317 202 Q 318 186 311 181 C 303 152 278 175 289 158 Z" fill="black"></path>
				<path d="M 192 410 Q 246 419 284 425 Q 309 432 298 444 Q 285 457 258 460 Q 233 461 193 445 C 165 434 162 405 192 410 Z" fill="black"></path>
				<path d="M 183 147 Q 184 147 187 147 Q 245 154 289 158 C 319 161 332 162 311 181 Q 301 191 281 196 Q 242 200 187 177 C 159 166 153 147 183 147 Z" fill="black"></path>
				<path d="M 610 660 Q 689 682 755 692 Q 776 695 780 689 Q 790 674 784 637 Q 774 534 748 488 Q 732 457 704 461 Q 680 468 659 477 Q 634 486 651 461 Q 693 418 711 384 Q 730 362 748 380 Q 811 422 837 583 Q 843 658 866 689 Q 879 702 872 713 Q 862 725 810 747 Q 789 756 769 742 Q 747 729 656 707 Q 566 683 490 678 Q 472 677 469 668 Q 468 659 492 648 Q 517 632 537 640 Q 553 646 574 650 L 610 660 Z" fill="black"></path>
				<path d="M 574 650 L 575 648 Q 602 561 437 355 Q 431 351 431 344 Q 432 338 437 339 Q 509 357 618 545 Q 619 557 648 599 Q 655 609 646 624 Q 631 648 610 660 C 585 677 566 679 574 650 Z" fill="black"></path>
				<path d="M 480 297 Q 471 300 462 301 Q 449 305 445 299 Q 438 292 447 274 Q 481 204 499 87 Q 503 53 522 29 Q 541 4 548 22 Q 554 41 551 72 L 546 110 Q 527 227 523 259 C 519 286 509 289 480 297 Z" fill="black"></path>
				<path d="M 794 138 Q 819 238 856 270 Q 874 289 858 309 Q 840 322 783 349 Q 764 358 740 348 Q 583 285 480 297 C 450 300 494 252 523 259 Q 734 310 752 294 Q 770 276 738 144 C 731 115 786 109 794 138 Z" fill="red"></path>
				<path d="M 551 72 Q 561 71 573 73 Q 648 88 809 98 Q 822 99 823 109 Q 823 118 794 138 L 738 144 L 737 144 Q 631 120 546 110 C 516 106 521 73 551 72 Z" fill="lightgray"></path>
</g>
		<text x="40" y="140" font-size="128" fill="#999999">8</text></g>
		<g id="id1:id3:id3" transform="matrix(1.0,0,0,1.0,3072,0.0)">			<g stroke="lightgray" stroke-width="4" transform="scale(4, 4)"> <rect x="0" y="0" width="256" height="256" fill="white" stroke-width="4"/></g>
			<g transform="scale(0.92, -0.92) translate(60, -920)">					<path d="M 187 684 Q 174 697 152 704 Q 142 708 130 705 Q 123 701 129 687 Q 132 674 137 662 Q 164 604 146 305 Q 140 262 128 212 Q 113 155 149 110 Q 159 97 171 109 Q 183 125 183 147 L 187 177 Q 187 183 192 410 L 193 445 Q 197 623 200 640 Q 201 647 201 653 C 203 672 203 672 187 684 Z" fill="black"></path>
				<path d="M 289 158 Q 305 134 320 111 Q 336 86 345 88 Q 358 91 375 129 Q 391 171 386 225 Q 379 334 375 571 Q 375 632 391 664 Q 403 683 394 695 Q 387 705 332 722 Q 307 732 287 721 Q 233 696 187 684 C 158 676 172 644 201 653 Q 204 654 209 656 Q 237 663 269 673 Q 299 682 309 672 Q 325 657 325 595 Q 329 342 317 202 Q 318 186 311 181 C 303 152 278 175 289 158 Z" fill="black"></path>
				<path d="M 192 410 Q 246 419 284 425 Q 309 432 298 444 Q 285 457 258 460 Q 233 461 193 445 C 165 434 162 405 192 410 Z" fill="black"></path>
				<path d="M 183 147 Q 184 147 187 147 Q 245 154 289 158 C 319 161 332 162 311 181 Q 301 191 281 196 Q 242 200 187 177 C 159 166 153 147 183 147 Z" fill="black"></path>
				<path d="M 610 660 Q 689 682 755 692 Q 776 695 780 689 Q 790 674 784 637 Q 774 534 748 488 Q 732 457 704 461 Q 680 468 659 477 Q 634 486 651 461 Q 693 418 711 384 Q 730 362 748 380 Q 811 422 837 583 Q 843 658 866 689 Q 879 702 872 713 Q 862 725 810 747 Q 789 756 769 742 Q 747 729 656 707 Q 566 683 490 678 Q 472 677 469 668 Q 468 659 492 648 Q 517 632 537 640 Q 553 646 574 650 L 610 660 Z" fill="black"></path>
				<path d="M 574 650 L 575 648 Q 602 561 437 355 Q 431 351 431 344 Q 432 338 437 339 Q 509 357 618 545 Q 619 557 648 599 Q 655 609 646 624 Q 631 648 610 660 C 585 677 566 679 574 650 Z" fill="black"></path>
				<path d="M 480 297 Q 471 300 462 301 Q 449 305 445 299 Q 438 292 447 274 Q 481 204 499 87 Q 503 53 522 29 Q 541 4 548 22 Q 554 41 551 72 L 546 110 Q 527 227 523 259 C 519 286 509 289 480 297 Z" fill="black"></path>
				<path d="M 794 138 Q 819 238 856 270 Q 874 289 858 309 Q 840 322 783 349 Q 764 358 740 348 Q 583 285 480 297 C 450 300 494 252 523 259 Q 734 310 752 294 Q 770 276 738 144 C 731 115 786 109 794 138 Z" fill="black"></path>
				<path d="M 551 72 Q 561 71 573 73 Q 648 88 809 98 Q 822 99 823 109 Q 823 118 794 138 L 738 144 L 737 144 Q 631 120 546 110 C 516 106 521 73 551 72 Z" fill="red"></path>
</g>
		<text x="40" y="140" font-size="128" fill="#999999">9</text></g>
		<g id="id1:id4:id4" transform="matrix(1.0,0,0,1.0,4096,0.0)">			<g stroke="white" stroke-width="4" transform="scale(4, 4)"> <rect x="1" y="1" width="255" height="255" fill="white" stroke-width="0"/></g>
</g>
</g>
</svg>
