<?xml version="1.0" standalone="no"?>
<!DOCTYPE svg PUBLIC "-//W3C//DTD SVG 1.1//EN"
 "http://www.w3.org/Graphics/SVG/1.1/DTD/svg11.dtd">
<!-- generate by Japanese dictionary app com.asnsami.kanjidictionary -->

<svg xmlns="http://www.w3.org/2000/svg" xmlns:sodipodi="http://sodipodi.sourceforge.net/DTD/sodipodi-0.dtd" version="1.1" width="640" height="384" viewBox="0 0 5120 3072">
	<g id="id0:id0" transform="translate(0.0,0)">
		<g id="id0:id0:id0" transform="matrix(1.0,0,0,1.0,0,0.0)">			<g stroke="lightgray" stroke-width="4" transform="scale(4, 4)"> <rect x="0" y="0" width="256" height="256" fill="white" stroke-width="4"/></g>
			<g transform="scale(0.92, -0.92) translate(60, -920)">					<path d="M 165 679 Q 152 692 129 700 Q 119 704 108 701 Q 101 697 107 684 Q 126 603 128 593 Q 127 592 128 587 Q 140 371 108 248 Q 96 193 130 149 Q 140 136 151 148 Q 163 164 163 184 L 166 221 Q 167 243 167 271 Q 168 361 169 428 L 170 458 Q 173 624 175 639 Q 176 646 176 653 C 177 670 177 670 165 679 Z" fill="red"></path>
				<path d="M 265 196 Q 278 175 291 156 Q 306 134 313 136 Q 326 139 340 174 Q 355 213 349 262 Q 322 613 350 664 Q 360 680 353 691 Q 346 701 299 714 Q 277 723 261 713 Q 209 689 165 679 C 136 671 147 644 176 653 Q 180 654 185 656 Q 269 680 280 671 Q 295 656 295 600 Q 299 365 288 234 Q 291 218 281 215 C 271 187 259 205 265 196 Z" fill="lightgray"></path>
				<path d="M 169 428 Q 224 438 264 442 Q 285 446 277 457 Q 267 470 245 474 Q 202 477 170 458 C 144 443 139 423 169 428 Z" fill="lightgray"></path>
				<path d="M 163 184 Q 169 184 176 186 Q 204 192 265 196 C 295 198 300 198 281 215 Q 274 222 253 234 Q 237 241 207 233 Q 185 226 166 221 C 137 213 133 182 163 184 Z" fill="lightgray"></path>
				<path d="M 638 690 Q 776 721 783 726 Q 790 733 787 741 Q 780 751 754 759 Q 732 762 641 734 L 585 719 Q 531 709 472 702 Q 438 696 463 681 Q 502 660 563 675 Q 573 678 586 679 L 638 690 Z" fill="lightgray"></path>
				<path d="M 630 578 Q 663 587 731 597 Q 740 596 746 607 Q 747 616 728 624 Q 700 639 633 616 L 586 604 Q 552 598 494 587 Q 472 583 490 570 Q 512 554 554 561 Q 569 565 586 568 L 630 578 Z" fill="lightgray"></path>
				<path d="M 625 502 Q 628 541 630 578 L 633 616 Q 634 653 638 690 L 641 734 Q 641 747 657 820 Q 661 830 641 845 Q 607 864 584 867 Q 568 871 560 862 Q 553 855 561 840 Q 582 810 582 790 Q 583 756 585 719 L 586 679 Q 586 643 586 604 L 586 568 Q 585 534 584 495 C 583 465 623 472 625 502 Z" fill="lightgray"></path>
				<path d="M 584 495 Q 482 479 371 461 Q 352 458 366 443 Q 379 430 397 426 Q 416 422 431 427 Q 641 490 921 490 Q 940 491 944 499 Q 948 511 933 523 Q 882 556 849 548 Q 770 529 634 504 Q 628 504 625 502 L 584 495 Z" fill="lightgray"></path>
				<path d="M 520 172 Q 523 218 527 252 L 529 277 Q 533 326 537 344 Q 538 351 537 357 C 537 374 537 374 517 384 Q 490 399 474 399 Q 461 395 465 383 Q 507 283 457 105 Q 423 33 455 -10 Q 462 -23 472 -18 Q 506 1 516 116 Q 517 132 518 146 L 520 172 Z" fill="lightgray"></path>
				<path d="M 537 357 Q 543 358 552 360 Q 610 373 667 386 Q 686 390 692 380 Q 711 335 712 90 Q 712 36 705 26 Q 701 20 683 24 Q 658 31 630 38 Q 611 45 612 36 Q 666 -13 696 -49 Q 709 -67 724 -71 Q 733 -75 740 -65 Q 779 -20 777 33 Q 741 327 766 371 Q 776 390 765 400 Q 744 416 709 431 Q 691 438 677 430 Q 616 397 517 384 C 487 380 508 351 537 357 Z" fill="lightgray"></path>
				<path d="M 527 252 Q 530 251 538 252 Q 601 262 648 269 Q 670 273 661 285 Q 651 298 627 302 Q 590 305 529 277 C 502 265 497 255 527 252 Z" fill="lightgray"></path>
				<path d="M 518 146 Q 525 145 533 146 Q 606 155 662 160 Q 684 163 677 176 Q 667 191 641 196 Q 617 200 520 172 C 491 164 488 149 518 146 Z" fill="lightgray"></path>
</g>
		<text x="40" y="140" font-size="128" fill="#999999">1</text></g>
		<g id="id0:id1:id1" transform="matrix(1.0,0,0,1.0,1024,0.0)">			<g stroke="lightgray" stroke-width="4" transform="scale(4, 4)"> <rect x="0" y="0" width="256" height="256" fill="white" stroke-width="4"/></g>
			<g transform="scale(0.92, -0.92) translate(60, -920)">					<path d="M 165 679 Q 152 692 129 700 Q 119 704 108 701 Q 101 697 107 684 Q 126 603 128 593 Q 127 592 128 587 Q 140 371 108 248 Q 96 193 130 149 Q 140 136 151 148 Q 163 164 163 184 L 166 221 Q 167 243 167 271 Q 168 361 169 428 L 170 458 Q 173 624 175 639 Q 176 646 176 653 C 177 670 177 670 165 679 Z" fill="black"></path>
				<path d="M 265 196 Q 278 175 291 156 Q 306 134 313 136 Q 326 139 340 174 Q 355 213 349 262 Q 322 613 350 664 Q 360 680 353 691 Q 346 701 299 714 Q 277 723 261 713 Q 209 689 165 679 C 136 671 147 644 176 653 Q 180 654 185 656 Q 269 680 280 671 Q 295 656 295 600 Q 299 365 288 234 Q 291 218 281 215 C 271 187 259 205 265 196 Z" fill="red"></path>
				<path d="M 169 428 Q 224 438 264 442 Q 285 446 277 457 Q 267 470 245 474 Q 202 477 170 458 C 144 443 139 423 169 428 Z" fill="lightgray"></path>
				<path d="M 163 184 Q 169 184 176 186 Q 204 192 265 196 C 295 198 300 198 281 215 Q 274 222 253 234 Q 237 241 207 233 Q 185 226 166 221 C 137 213 133 182 163 184 Z" fill="lightgray"></path>
				<path d="M 638 690 Q 776 721 783 726 Q 790 733 787 741 Q 780 751 754 759 Q 732 762 641 734 L 585 719 Q 531 709 472 702 Q 438 696 463 681 Q 502 660 563 675 Q 573 678 586 679 L 638 690 Z" fill="lightgray"></path>
				<path d="M 630 578 Q 663 587 731 597 Q 740 596 746 607 Q 747 616 728 624 Q 700 639 633 616 L 586 604 Q 552 598 494 587 Q 472 583 490 570 Q 512 554 554 561 Q 569 565 586 568 L 630 578 Z" fill="lightgray"></path>
				<path d="M 625 502 Q 628 541 630 578 L 633 616 Q 634 653 638 690 L 641 734 Q 641 747 657 820 Q 661 830 641 845 Q 607 864 584 867 Q 568 871 560 862 Q 553 855 561 840 Q 582 810 582 790 Q 583 756 585 719 L 586 679 Q 586 643 586 604 L 586 568 Q 585 534 584 495 C 583 465 623 472 625 502 Z" fill="lightgray"></path>
				<path d="M 584 495 Q 482 479 371 461 Q 352 458 366 443 Q 379 430 397 426 Q 416 422 431 427 Q 641 490 921 490 Q 940 491 944 499 Q 948 511 933 523 Q 882 556 849 548 Q 770 529 634 504 Q 628 504 625 502 L 584 495 Z" fill="lightgray"></path>
				<path d="M 520 172 Q 523 218 527 252 L 529 277 Q 533 326 537 344 Q 538 351 537 357 C 537 374 537 374 517 384 Q 490 399 474 399 Q 461 395 465 383 Q 507 283 457 105 Q 423 33 455 -10 Q 462 -23 472 -18 Q 506 1 516 116 Q 517 132 518 146 L 520 172 Z" fill="lightgray"></path>
				<path d="M 537 357 Q 543 358 552 360 Q 610 373 667 386 Q 686 390 692 380 Q 711 335 712 90 Q 712 36 705 26 Q 701 20 683 24 Q 658 31 630 38 Q 611 45 612 36 Q 666 -13 696 -49 Q 709 -67 724 -71 Q 733 -75 740 -65 Q 779 -20 777 33 Q 741 327 766 371 Q 776 390 765 400 Q 744 416 709 431 Q 691 438 677 430 Q 616 397 517 384 C 487 380 508 351 537 357 Z" fill="lightgray"></path>
				<path d="M 527 252 Q 530 251 538 252 Q 601 262 648 269 Q 670 273 661 285 Q 651 298 627 302 Q 590 305 529 277 C 502 265 497 255 527 252 Z" fill="lightgray"></path>
				<path d="M 518 146 Q 525 145 533 146 Q 606 155 662 160 Q 684 163 677 176 Q 667 191 641 196 Q 617 200 520 172 C 491 164 488 149 518 146 Z" fill="lightgray"></path>
</g>
		<text x="40" y="140" font-size="128" fill="#999999">2</text></g>
		<g id="id0:id2:id2" transform="matrix(1.0,0,0,1.0,2048,0.0)">			<g stroke="lightgray" stroke-width="4" transform="scale(4, 4)"> <rect x="0" y="0" width="256" height="256" fill="white" stroke-width="4"/></g>
			<g transform="scale(0.92, -0.92) translate(60, -920)">					<path d="M 165 679 Q 152 692 129 700 Q 119 704 108 701 Q 101 697 107 684 Q 126 603 128 593 Q 127 592 128 587 Q 140 371 108 248 Q 96 193 130 149 Q 140 136 151 148 Q 163 164 163 184 L 166 221 Q 167 243 167 271 Q 168 361 169 428 L 170 458 Q 173 624 175 639 Q 176 646 176 653 C 177 670 177 670 165 679 Z" fill="black"></path>
				<path d="M 265 196 Q 278 175 291 156 Q 306 134 313 136 Q 326 139 340 174 Q 355 213 349 262 Q 322 613 350 664 Q 360 680 353 691 Q 346 701 299 714 Q 277 723 261 713 Q 209 689 165 679 C 136 671 147 644 176 653 Q 180 654 185 656 Q 269 680 280 671 Q 295 656 295 600 Q 299 365 288 234 Q 291 218 281 215 C 271 187 259 205 265 196 Z" fill="black"></path>
				<path d="M 169 428 Q 224 438 264 442 Q 285 446 277 457 Q 267 470 245 474 Q 202 477 170 458 C 144 443 139 423 169 428 Z" fill="red"></path>
				<path d="M 163 184 Q 169 184 176 186 Q 204 192 265 196 C 295 198 300 198 281 215 Q 274 222 253 234 Q 237 241 207 233 Q 185 226 166 221 C 137 213 133 182 163 184 Z" fill="lightgray"></path>
				<path d="M 638 690 Q 776 721 783 726 Q 790 733 787 741 Q 780 751 754 759 Q 732 762 641 734 L 585 719 Q 531 709 472 702 Q 438 696 463 681 Q 502 660 563 675 Q 573 678 586 679 L 638 690 Z" fill="lightgray"></path>
				<path d="M 630 578 Q 663 587 731 597 Q 740 596 746 607 Q 747 616 728 624 Q 700 639 633 616 L 586 604 Q 552 598 494 587 Q 472 583 490 570 Q 512 554 554 561 Q 569 565 586 568 L 630 578 Z" fill="lightgray"></path>
				<path d="M 625 502 Q 628 541 630 578 L 633 616 Q 634 653 638 690 L 641 734 Q 641 747 657 820 Q 661 830 641 845 Q 607 864 584 867 Q 568 871 560 862 Q 553 855 561 840 Q 582 810 582 790 Q 583 756 585 719 L 586 679 Q 586 643 586 604 L 586 568 Q 585 534 584 495 C 583 465 623 472 625 502 Z" fill="lightgray"></path>
				<path d="M 584 495 Q 482 479 371 461 Q 352 458 366 443 Q 379 430 397 426 Q 416 422 431 427 Q 641 490 921 490 Q 940 491 944 499 Q 948 511 933 523 Q 882 556 849 548 Q 770 529 634 504 Q 628 504 625 502 L 584 495 Z" fill="lightgray"></path>
				<path d="M 520 172 Q 523 218 527 252 L 529 277 Q 533 326 537 344 Q 538 351 537 357 C 537 374 537 374 517 384 Q 490 399 474 399 Q 461 395 465 383 Q 507 283 457 105 Q 423 33 455 -10 Q 462 -23 472 -18 Q 506 1 516 116 Q 517 132 518 146 L 520 172 Z" fill="lightgray"></path>
				<path d="M 537 357 Q 543 358 552 360 Q 610 373 667 386 Q 686 390 692 380 Q 711 335 712 90 Q 712 36 705 26 Q 701 20 683 24 Q 658 31 630 38 Q 611 45 612 36 Q 666 -13 696 -49 Q 709 -67 724 -71 Q 733 -75 740 -65 Q 779 -20 777 33 Q 741 327 766 371 Q 776 390 765 400 Q 744 416 709 431 Q 691 438 677 430 Q 616 397 517 384 C 487 380 508 351 537 357 Z" fill="lightgray"></path>
				<path d="M 527 252 Q 530 251 538 252 Q 601 262 648 269 Q 670 273 661 285 Q 651 298 627 302 Q 590 305 529 277 C 502 265 497 255 527 252 Z" fill="lightgray"></path>
				<path d="M 518 146 Q 525 145 533 146 Q 606 155 662 160 Q 684 163 677 176 Q 667 191 641 196 Q 617 200 520 172 C 491 164 488 149 518 146 Z" fill="lightgray"></path>
</g>
		<text x="40" y="140" font-size="128" fill="#999999">3</text></g>
		<g id="id0:id3:id3" transform="matrix(1.0,0,0,1.0,3072,0.0)">			<g stroke="lightgray" stroke-width="4" transform="scale(4, 4)"> <rect x="0" y="0" width="256" height="256" fill="white" stroke-width="4"/></g>
			<g transform="scale(0.92, -0.92) translate(60, -920)">					<path d="M 165 679 Q 152 692 129 700 Q 119 704 108 701 Q 101 697 107 684 Q 126 603 128 593 Q 127 592 128 587 Q 140 371 108 248 Q 96 193 130 149 Q 140 136 151 148 Q 163 164 163 184 L 166 221 Q 167 243 167 271 Q 168 361 169 428 L 170 458 Q 173 624 175 639 Q 176 646 176 653 C 177 670 177 670 165 679 Z" fill="black"></path>
				<path d="M 265 196 Q 278 175 291 156 Q 306 134 313 136 Q 326 139 340 174 Q 355 213 349 262 Q 322 613 350 664 Q 360 680 353 691 Q 346 701 299 714 Q 277 723 261 713 Q 209 689 165 679 C 136 671 147 644 176 653 Q 180 654 185 656 Q 269 680 280 671 Q 295 656 295 600 Q 299 365 288 234 Q 291 218 281 215 C 271 187 259 205 265 196 Z" fill="black"></path>
				<path d="M 169 428 Q 224 438 264 442 Q 285 446 277 457 Q 267 470 245 474 Q 202 477 170 458 C 144 443 139 423 169 428 Z" fill="black"></path>
				<path d="M 163 184 Q 169 184 176 186 Q 204 192 265 196 C 295 198 300 198 281 215 Q 274 222 253 234 Q 237 241 207 233 Q 185 226 166 221 C 137 213 133 182 163 184 Z" fill="red"></path>
				<path d="M 638 690 Q 776 721 783 726 Q 790 733 787 741 Q 780 751 754 759 Q 732 762 641 734 L 585 719 Q 531 709 472 702 Q 438 696 463 681 Q 502 660 563 675 Q 573 678 586 679 L 638 690 Z" fill="lightgray"></path>
				<path d="M 630 578 Q 663 587 731 597 Q 740 596 746 607 Q 747 616 728 624 Q 700 639 633 616 L 586 604 Q 552 598 494 587 Q 472 583 490 570 Q 512 554 554 561 Q 569 565 586 568 L 630 578 Z" fill="lightgray"></path>
				<path d="M 625 502 Q 628 541 630 578 L 633 616 Q 634 653 638 690 L 641 734 Q 641 747 657 820 Q 661 830 641 845 Q 607 864 584 867 Q 568 871 560 862 Q 553 855 561 840 Q 582 810 582 790 Q 583 756 585 719 L 586 679 Q 586 643 586 604 L 586 568 Q 585 534 584 495 C 583 465 623 472 625 502 Z" fill="lightgray"></path>
				<path d="M 584 495 Q 482 479 371 461 Q 352 458 366 443 Q 379 430 397 426 Q 416 422 431 427 Q 641 490 921 490 Q 940 491 944 499 Q 948 511 933 523 Q 882 556 849 548 Q 770 529 634 504 Q 628 504 625 502 L 584 495 Z" fill="lightgray"></path>
				<path d="M 520 172 Q 523 218 527 252 L 529 277 Q 533 326 537 344 Q 538 351 537 357 C 537 374 537 374 517 384 Q 490 399 474 399 Q 461 395 465 383 Q 507 283 457 105 Q 423 33 455 -10 Q 462 -23 472 -18 Q 506 1 516 116 Q 517 132 518 146 L 520 172 Z" fill="lightgray"></path>
				<path d="M 537 357 Q 543 358 552 360 Q 610 373 667 386 Q 686 390 692 380 Q 711 335 712 90 Q 712 36 705 26 Q 701 20 683 24 Q 658 31 630 38 Q 611 45 612 36 Q 666 -13 696 -49 Q 709 -67 724 -71 Q 733 -75 740 -65 Q 779 -20 777 33 Q 741 327 766 371 Q 776 390 765 400 Q 744 416 709 431 Q 691 438 677 430 Q 616 397 517 384 C 487 380 508 351 537 357 Z" fill="lightgray"></path>
				<path d="M 527 252 Q 530 251 538 252 Q 601 262 648 269 Q 670 273 661 285 Q 651 298 627 302 Q 590 305 529 277 C 502 265 497 255 527 252 Z" fill="lightgray"></path>
				<path d="M 518 146 Q 525 145 533 146 Q 606 155 662 160 Q 684 163 677 176 Q 667 191 641 196 Q 617 200 520 172 C 491 164 488 149 518 146 Z" fill="lightgray"></path>
</g>
		<text x="40" y="140" font-size="128" fill="#999999">4</text></g>
		<g id="id0:id4:id4" transform="matrix(1.0,0,0,1.0,4096,0.0)">			<g stroke="lightgray" stroke-width="4" transform="scale(4, 4)"> <rect x="0" y="0" width="256" height="256" fill="white" stroke-width="4"/></g>
			<g transform="scale(0.92, -0.92) translate(60, -920)">					<path d="M 165 679 Q 152 692 129 700 Q 119 704 108 701 Q 101 697 107 684 Q 126 603 128 593 Q 127 592 128 587 Q 140 371 108 248 Q 96 193 130 149 Q 140 136 151 148 Q 163 164 163 184 L 166 221 Q 167 243 167 271 Q 168 361 169 428 L 170 458 Q 173 624 175 639 Q 176 646 176 653 C 177 670 177 670 165 679 Z" fill="black"></path>
				<path d="M 265 196 Q 278 175 291 156 Q 306 134 313 136 Q 326 139 340 174 Q 355 213 349 262 Q 322 613 350 664 Q 360 680 353 691 Q 346 701 299 714 Q 277 723 261 713 Q 209 689 165 679 C 136 671 147 644 176 653 Q 180 654 185 656 Q 269 680 280 671 Q 295 656 295 600 Q 299 365 288 234 Q 291 218 281 215 C 271 187 259 205 265 196 Z" fill="black"></path>
				<path d="M 169 428 Q 224 438 264 442 Q 285 446 277 457 Q 267 470 245 474 Q 202 477 170 458 C 144 443 139 423 169 428 Z" fill="black"></path>
				<path d="M 163 184 Q 169 184 176 186 Q 204 192 265 196 C 295 198 300 198 281 215 Q 274 222 253 234 Q 237 241 207 233 Q 185 226 166 221 C 137 213 133 182 163 184 Z" fill="black"></path>
				<path d="M 638 690 Q 776 721 783 726 Q 790 733 787 741 Q 780 751 754 759 Q 732 762 641 734 L 585 719 Q 531 709 472 702 Q 438 696 463 681 Q 502 660 563 675 Q 573 678 586 679 L 638 690 Z" fill="red"></path>
				<path d="M 630 578 Q 663 587 731 597 Q 740 596 746 607 Q 747 616 728 624 Q 700 639 633 616 L 586 604 Q 552 598 494 587 Q 472 583 490 570 Q 512 554 554 561 Q 569 565 586 568 L 630 578 Z" fill="lightgray"></path>
				<path d="M 625 502 Q 628 541 630 578 L 633 616 Q 634 653 638 690 L 641 734 Q 641 747 657 820 Q 661 830 641 845 Q 607 864 584 867 Q 568 871 560 862 Q 553 855 561 840 Q 582 810 582 790 Q 583 756 585 719 L 586 679 Q 586 643 586 604 L 586 568 Q 585 534 584 495 C 583 465 623 472 625 502 Z" fill="lightgray"></path>
				<path d="M 584 495 Q 482 479 371 461 Q 352 458 366 443 Q 379 430 397 426 Q 416 422 431 427 Q 641 490 921 490 Q 940 491 944 499 Q 948 511 933 523 Q 882 556 849 548 Q 770 529 634 504 Q 628 504 625 502 L 584 495 Z" fill="lightgray"></path>
				<path d="M 520 172 Q 523 218 527 252 L 529 277 Q 533 326 537 344 Q 538 351 537 357 C 537 374 537 374 517 384 Q 490 399 474 399 Q 461 395 465 383 Q 507 283 457 105 Q 423 33 455 -10 Q 462 -23 472 -18 Q 506 1 516 116 Q 517 132 518 146 L 520 172 Z" fill="lightgray"></path>
				<path d="M 537 357 Q 543 358 552 360 Q 610 373 667 386 Q 686 390 692 380 Q 711 335 712 90 Q 712 36 705 26 Q 701 20 683 24 Q 658 31 630 38 Q 611 45 612 36 Q 666 -13 696 -49 Q 709 -67 724 -71 Q 733 -75 740 -65 Q 779 -20 777 33 Q 741 327 766 371 Q 776 390 765 400 Q 744 416 709 431 Q 691 438 677 430 Q 616 397 517 384 C 487 380 508 351 537 357 Z" fill="lightgray"></path>
				<path d="M 527 252 Q 530 251 538 252 Q 601 262 648 269 Q 670 273 661 285 Q 651 298 627 302 Q 590 305 529 277 C 502 265 497 255 527 252 Z" fill="lightgray"></path>
				<path d="M 518 146 Q 525 145 533 146 Q 606 155 662 160 Q 684 163 677 176 Q 667 191 641 196 Q 617 200 520 172 C 491 164 488 149 518 146 Z" fill="lightgray"></path>
</g>
		<text x="40" y="140" font-size="128" fill="#999999">5</text></g>
</g>
	<g id="id1:id1" transform="translate(0.0,1024)">
		<g id="id1:id0:id0" transform="matrix(1.0,0,0,1.0,0,0.0)">			<g stroke="lightgray" stroke-width="4" transform="scale(4, 4)"> <rect x="0" y="0" width="256" height="256" fill="white" stroke-width="4"/></g>
			<g transform="scale(0.92, -0.92) translate(60, -920)">					<path d="M 165 679 Q 152 692 129 700 Q 119 704 108 701 Q 101 697 107 684 Q 126 603 128 593 Q 127 592 128 587 Q 140 371 108 248 Q 96 193 130 149 Q 140 136 151 148 Q 163 164 163 184 L 166 221 Q 167 243 167 271 Q 168 361 169 428 L 170 458 Q 173 624 175 639 Q 176 646 176 653 C 177 670 177 670 165 679 Z" fill="black"></path>
				<path d="M 265 196 Q 278 175 291 156 Q 306 134 313 136 Q 326 139 340 174 Q 355 213 349 262 Q 322 613 350 664 Q 360 680 353 691 Q 346 701 299 714 Q 277 723 261 713 Q 209 689 165 679 C 136 671 147 644 176 653 Q 180 654 185 656 Q 269 680 280 671 Q 295 656 295 600 Q 299 365 288 234 Q 291 218 281 215 C 271 187 259 205 265 196 Z" fill="black"></path>
				<path d="M 169 428 Q 224 438 264 442 Q 285 446 277 457 Q 267 470 245 474 Q 202 477 170 458 C 144 443 139 423 169 428 Z" fill="black"></path>
				<path d="M 163 184 Q 169 184 176 186 Q 204 192 265 196 C 295 198 300 198 281 215 Q 274 222 253 234 Q 237 241 207 233 Q 185 226 166 221 C 137 213 133 182 163 184 Z" fill="black"></path>
				<path d="M 638 690 Q 776 721 783 726 Q 790 733 787 741 Q 780 751 754 759 Q 732 762 641 734 L 585 719 Q 531 709 472 702 Q 438 696 463 681 Q 502 660 563 675 Q 573 678 586 679 L 638 690 Z" fill="black"></path>
				<path d="M 630 578 Q 663 587 731 597 Q 740 596 746 607 Q 747 616 728 624 Q 700 639 633 616 L 586 604 Q 552 598 494 587 Q 472 583 490 570 Q 512 554 554 561 Q 569 565 586 568 L 630 578 Z" fill="red"></path>
				<path d="M 625 502 Q 628 541 630 578 L 633 616 Q 634 653 638 690 L 641 734 Q 641 747 657 820 Q 661 830 641 845 Q 607 864 584 867 Q 568 871 560 862 Q 553 855 561 840 Q 582 810 582 790 Q 583 756 585 719 L 586 679 Q 586 643 586 604 L 586 568 Q 585 534 584 495 C 583 465 623 472 625 502 Z" fill="lightgray"></path>
				<path d="M 584 495 Q 482 479 371 461 Q 352 458 366 443 Q 379 430 397 426 Q 416 422 431 427 Q 641 490 921 490 Q 940 491 944 499 Q 948 511 933 523 Q 882 556 849 548 Q 770 529 634 504 Q 628 504 625 502 L 584 495 Z" fill="lightgray"></path>
				<path d="M 520 172 Q 523 218 527 252 L 529 277 Q 533 326 537 344 Q 538 351 537 357 C 537 374 537 374 517 384 Q 490 399 474 399 Q 461 395 465 383 Q 507 283 457 105 Q 423 33 455 -10 Q 462 -23 472 -18 Q 506 1 516 116 Q 517 132 518 146 L 520 172 Z" fill="lightgray"></path>
				<path d="M 537 357 Q 543 358 552 360 Q 610 373 667 386 Q 686 390 692 380 Q 711 335 712 90 Q 712 36 705 26 Q 701 20 683 24 Q 658 31 630 38 Q 611 45 612 36 Q 666 -13 696 -49 Q 709 -67 724 -71 Q 733 -75 740 -65 Q 779 -20 777 33 Q 741 327 766 371 Q 776 390 765 400 Q 744 416 709 431 Q 691 438 677 430 Q 616 397 517 384 C 487 380 508 351 537 357 Z" fill="lightgray"></path>
				<path d="M 527 252 Q 530 251 538 252 Q 601 262 648 269 Q 670 273 661 285 Q 651 298 627 302 Q 590 305 529 277 C 502 265 497 255 527 252 Z" fill="lightgray"></path>
				<path d="M 518 146 Q 525 145 533 146 Q 606 155 662 160 Q 684 163 677 176 Q 667 191 641 196 Q 617 200 520 172 C 491 164 488 149 518 146 Z" fill="lightgray"></path>
</g>
		<text x="40" y="140" font-size="128" fill="#999999">6</text></g>
		<g id="id1:id1:id1" transform="matrix(1.0,0,0,1.0,1024,0.0)">			<g stroke="lightgray" stroke-width="4" transform="scale(4, 4)"> <rect x="0" y="0" width="256" height="256" fill="white" stroke-width="4"/></g>
			<g transform="scale(0.92, -0.92) translate(60, -920)">					<path d="M 165 679 Q 152 692 129 700 Q 119 704 108 701 Q 101 697 107 684 Q 126 603 128 593 Q 127 592 128 587 Q 140 371 108 248 Q 96 193 130 149 Q 140 136 151 148 Q 163 164 163 184 L 166 221 Q 167 243 167 271 Q 168 361 169 428 L 170 458 Q 173 624 175 639 Q 176 646 176 653 C 177 670 177 670 165 679 Z" fill="black"></path>
				<path d="M 265 196 Q 278 175 291 156 Q 306 134 313 136 Q 326 139 340 174 Q 355 213 349 262 Q 322 613 350 664 Q 360 680 353 691 Q 346 701 299 714 Q 277 723 261 713 Q 209 689 165 679 C 136 671 147 644 176 653 Q 180 654 185 656 Q 269 680 280 671 Q 295 656 295 600 Q 299 365 288 234 Q 291 218 281 215 C 271 187 259 205 265 196 Z" fill="black"></path>
				<path d="M 169 428 Q 224 438 264 442 Q 285 446 277 457 Q 267 470 245 474 Q 202 477 170 458 C 144 443 139 423 169 428 Z" fill="black"></path>
				<path d="M 163 184 Q 169 184 176 186 Q 204 192 265 196 C 295 198 300 198 281 215 Q 274 222 253 234 Q 237 241 207 233 Q 185 226 166 221 C 137 213 133 182 163 184 Z" fill="black"></path>
				<path d="M 638 690 Q 776 721 783 726 Q 790 733 787 741 Q 780 751 754 759 Q 732 762 641 734 L 585 719 Q 531 709 472 702 Q 438 696 463 681 Q 502 660 563 675 Q 573 678 586 679 L 638 690 Z" fill="black"></path>
				<path d="M 630 578 Q 663 587 731 597 Q 740 596 746 607 Q 747 616 728 624 Q 700 639 633 616 L 586 604 Q 552 598 494 587 Q 472 583 490 570 Q 512 554 554 561 Q 569 565 586 568 L 630 578 Z" fill="black"></path>
				<path d="M 625 502 Q 628 541 630 578 L 633 616 Q 634 653 638 690 L 641 734 Q 641 747 657 820 Q 661 830 641 845 Q 607 864 584 867 Q 568 871 560 862 Q 553 855 561 840 Q 582 810 582 790 Q 583 756 585 719 L 586 679 Q 586 643 586 604 L 586 568 Q 585 534 584 495 C 583 465 623 472 625 502 Z" fill="red"></path>
				<path d="M 584 495 Q 482 479 371 461 Q 352 458 366 443 Q 379 430 397 426 Q 416 422 431 427 Q 641 490 921 490 Q 940 491 944 499 Q 948 511 933 523 Q 882 556 849 548 Q 770 529 634 504 Q 628 504 625 502 L 584 495 Z" fill="lightgray"></path>
				<path d="M 520 172 Q 523 218 527 252 L 529 277 Q 533 326 537 344 Q 538 351 537 357 C 537 374 537 374 517 384 Q 490 399 474 399 Q 461 395 465 383 Q 507 283 457 105 Q 423 33 455 -10 Q 462 -23 472 -18 Q 506 1 516 116 Q 517 132 518 146 L 520 172 Z" fill="lightgray"></path>
				<path d="M 537 357 Q 543 358 552 360 Q 610 373 667 386 Q 686 390 692 380 Q 711 335 712 90 Q 712 36 705 26 Q 701 20 683 24 Q 658 31 630 38 Q 611 45 612 36 Q 666 -13 696 -49 Q 709 -67 724 -71 Q 733 -75 740 -65 Q 779 -20 777 33 Q 741 327 766 371 Q 776 390 765 400 Q 744 416 709 431 Q 691 438 677 430 Q 616 397 517 384 C 487 380 508 351 537 357 Z" fill="lightgray"></path>
				<path d="M 527 252 Q 530 251 538 252 Q 601 262 648 269 Q 670 273 661 285 Q 651 298 627 302 Q 590 305 529 277 C 502 265 497 255 527 252 Z" fill="lightgray"></path>
				<path d="M 518 146 Q 525 145 533 146 Q 606 155 662 160 Q 684 163 677 176 Q 667 191 641 196 Q 617 200 520 172 C 491 164 488 149 518 146 Z" fill="lightgray"></path>
</g>
		<text x="40" y="140" font-size="128" fill="#999999">7</text></g>
		<g id="id1:id2:id2" transform="matrix(1.0,0,0,1.0,2048,0.0)">			<g stroke="lightgray" stroke-width="4" transform="scale(4, 4)"> <rect x="0" y="0" width="256" height="256" fill="white" stroke-width="4"/></g>
			<g transform="scale(0.92, -0.92) translate(60, -920)">					<path d="M 165 679 Q 152 692 129 700 Q 119 704 108 701 Q 101 697 107 684 Q 126 603 128 593 Q 127 592 128 587 Q 140 371 108 248 Q 96 193 130 149 Q 140 136 151 148 Q 163 164 163 184 L 166 221 Q 167 243 167 271 Q 168 361 169 428 L 170 458 Q 173 624 175 639 Q 176 646 176 653 C 177 670 177 670 165 679 Z" fill="black"></path>
				<path d="M 265 196 Q 278 175 291 156 Q 306 134 313 136 Q 326 139 340 174 Q 355 213 349 262 Q 322 613 350 664 Q 360 680 353 691 Q 346 701 299 714 Q 277 723 261 713 Q 209 689 165 679 C 136 671 147 644 176 653 Q 180 654 185 656 Q 269 680 280 671 Q 295 656 295 600 Q 299 365 288 234 Q 291 218 281 215 C 271 187 259 205 265 196 Z" fill="black"></path>
				<path d="M 169 428 Q 224 438 264 442 Q 285 446 277 457 Q 267 470 245 474 Q 202 477 170 458 C 144 443 139 423 169 428 Z" fill="black"></path>
				<path d="M 163 184 Q 169 184 176 186 Q 204 192 265 196 C 295 198 300 198 281 215 Q 274 222 253 234 Q 237 241 207 233 Q 185 226 166 221 C 137 213 133 182 163 184 Z" fill="black"></path>
				<path d="M 638 690 Q 776 721 783 726 Q 790 733 787 741 Q 780 751 754 759 Q 732 762 641 734 L 585 719 Q 531 709 472 702 Q 438 696 463 681 Q 502 660 563 675 Q 573 678 586 679 L 638 690 Z" fill="black"></path>
				<path d="M 630 578 Q 663 587 731 597 Q 740 596 746 607 Q 747 616 728 624 Q 700 639 633 616 L 586 604 Q 552 598 494 587 Q 472 583 490 570 Q 512 554 554 561 Q 569 565 586 568 L 630 578 Z" fill="black"></path>
				<path d="M 625 502 Q 628 541 630 578 L 633 616 Q 634 653 638 690 L 641 734 Q 641 747 657 820 Q 661 830 641 845 Q 607 864 584 867 Q 568 871 560 862 Q 553 855 561 840 Q 582 810 582 790 Q 583 756 585 719 L 586 679 Q 586 643 586 604 L 586 568 Q 585 534 584 495 C 583 465 623 472 625 502 Z" fill="black"></path>
				<path d="M 584 495 Q 482 479 371 461 Q 352 458 366 443 Q 379 430 397 426 Q 416 422 431 427 Q 641 490 921 490 Q 940 491 944 499 Q 948 511 933 523 Q 882 556 849 548 Q 770 529 634 504 Q 628 504 625 502 L 584 495 Z" fill="red"></path>
				<path d="M 520 172 Q 523 218 527 252 L 529 277 Q 533 326 537 344 Q 538 351 537 357 C 537 374 537 374 517 384 Q 490 399 474 399 Q 461 395 465 383 Q 507 283 457 105 Q 423 33 455 -10 Q 462 -23 472 -18 Q 506 1 516 116 Q 517 132 518 146 L 520 172 Z" fill="lightgray"></path>
				<path d="M 537 357 Q 543 358 552 360 Q 610 373 667 386 Q 686 390 692 380 Q 711 335 712 90 Q 712 36 705 26 Q 701 20 683 24 Q 658 31 630 38 Q 611 45 612 36 Q 666 -13 696 -49 Q 709 -67 724 -71 Q 733 -75 740 -65 Q 779 -20 777 33 Q 741 327 766 371 Q 776 390 765 400 Q 744 416 709 431 Q 691 438 677 430 Q 616 397 517 384 C 487 380 508 351 537 357 Z" fill="lightgray"></path>
				<path d="M 527 252 Q 530 251 538 252 Q 601 262 648 269 Q 670 273 661 285 Q 651 298 627 302 Q 590 305 529 277 C 502 265 497 255 527 252 Z" fill="lightgray"></path>
				<path d="M 518 146 Q 525 145 533 146 Q 606 155 662 160 Q 684 163 677 176 Q 667 191 641 196 Q 617 200 520 172 C 491 164 488 149 518 146 Z" fill="lightgray"></path>
</g>
		<text x="40" y="140" font-size="128" fill="#999999">8</text></g>
		<g id="id1:id3:id3" transform="matrix(1.0,0,0,1.0,3072,0.0)">			<g stroke="lightgray" stroke-width="4" transform="scale(4, 4)"> <rect x="0" y="0" width="256" height="256" fill="white" stroke-width="4"/></g>
			<g transform="scale(0.92, -0.92) translate(60, -920)">					<path d="M 165 679 Q 152 692 129 700 Q 119 704 108 701 Q 101 697 107 684 Q 126 603 128 593 Q 127 592 128 587 Q 140 371 108 248 Q 96 193 130 149 Q 140 136 151 148 Q 163 164 163 184 L 166 221 Q 167 243 167 271 Q 168 361 169 428 L 170 458 Q 173 624 175 639 Q 176 646 176 653 C 177 670 177 670 165 679 Z" fill="black"></path>
				<path d="M 265 196 Q 278 175 291 156 Q 306 134 313 136 Q 326 139 340 174 Q 355 213 349 262 Q 322 613 350 664 Q 360 680 353 691 Q 346 701 299 714 Q 277 723 261 713 Q 209 689 165 679 C 136 671 147 644 176 653 Q 180 654 185 656 Q 269 680 280 671 Q 295 656 295 600 Q 299 365 288 234 Q 291 218 281 215 C 271 187 259 205 265 196 Z" fill="black"></path>
				<path d="M 169 428 Q 224 438 264 442 Q 285 446 277 457 Q 267 470 245 474 Q 202 477 170 458 C 144 443 139 423 169 428 Z" fill="black"></path>
				<path d="M 163 184 Q 169 184 176 186 Q 204 192 265 196 C 295 198 300 198 281 215 Q 274 222 253 234 Q 237 241 207 233 Q 185 226 166 221 C 137 213 133 182 163 184 Z" fill="black"></path>
				<path d="M 638 690 Q 776 721 783 726 Q 790 733 787 741 Q 780 751 754 759 Q 732 762 641 734 L 585 719 Q 531 709 472 702 Q 438 696 463 681 Q 502 660 563 675 Q 573 678 586 679 L 638 690 Z" fill="black"></path>
				<path d="M 630 578 Q 663 587 731 597 Q 740 596 746 607 Q 747 616 728 624 Q 700 639 633 616 L 586 604 Q 552 598 494 587 Q 472 583 490 570 Q 512 554 554 561 Q 569 565 586 568 L 630 578 Z" fill="black"></path>
				<path d="M 625 502 Q 628 541 630 578 L 633 616 Q 634 653 638 690 L 641 734 Q 641 747 657 820 Q 661 830 641 845 Q 607 864 584 867 Q 568 871 560 862 Q 553 855 561 840 Q 582 810 582 790 Q 583 756 585 719 L 586 679 Q 586 643 586 604 L 586 568 Q 585 534 584 495 C 583 465 623 472 625 502 Z" fill="black"></path>
				<path d="M 584 495 Q 482 479 371 461 Q 352 458 366 443 Q 379 430 397 426 Q 416 422 431 427 Q 641 490 921 490 Q 940 491 944 499 Q 948 511 933 523 Q 882 556 849 548 Q 770 529 634 504 Q 628 504 625 502 L 584 495 Z" fill="black"></path>
				<path d="M 520 172 Q 523 218 527 252 L 529 277 Q 533 326 537 344 Q 538 351 537 357 C 537 374 537 374 517 384 Q 490 399 474 399 Q 461 395 465 383 Q 507 283 457 105 Q 423 33 455 -10 Q 462 -23 472 -18 Q 506 1 516 116 Q 517 132 518 146 L 520 172 Z" fill="red"></path>
				<path d="M 537 357 Q 543 358 552 360 Q 610 373 667 386 Q 686 390 692 380 Q 711 335 712 90 Q 712 36 705 26 Q 701 20 683 24 Q 658 31 630 38 Q 611 45 612 36 Q 666 -13 696 -49 Q 709 -67 724 -71 Q 733 -75 740 -65 Q 779 -20 777 33 Q 741 327 766 371 Q 776 390 765 400 Q 744 416 709 431 Q 691 438 677 430 Q 616 397 517 384 C 487 380 508 351 537 357 Z" fill="lightgray"></path>
				<path d="M 527 252 Q 530 251 538 252 Q 601 262 648 269 Q 670 273 661 285 Q 651 298 627 302 Q 590 305 529 277 C 502 265 497 255 527 252 Z" fill="lightgray"></path>
				<path d="M 518 146 Q 525 145 533 146 Q 606 155 662 160 Q 684 163 677 176 Q 667 191 641 196 Q 617 200 520 172 C 491 164 488 149 518 146 Z" fill="lightgray"></path>
</g>
		<text x="40" y="140" font-size="128" fill="#999999">9</text></g>
		<g id="id1:id4:id4" transform="matrix(1.0,0,0,1.0,4096,0.0)">			<g stroke="lightgray" stroke-width="4" transform="scale(4, 4)"> <rect x="0" y="0" width="256" height="256" fill="white" stroke-width="4"/></g>
			<g transform="scale(0.92, -0.92) translate(60, -920)">					<path d="M 165 679 Q 152 692 129 700 Q 119 704 108 701 Q 101 697 107 684 Q 126 603 128 593 Q 127 592 128 587 Q 140 371 108 248 Q 96 193 130 149 Q 140 136 151 148 Q 163 164 163 184 L 166 221 Q 167 243 167 271 Q 168 361 169 428 L 170 458 Q 173 624 175 639 Q 176 646 176 653 C 177 670 177 670 165 679 Z" fill="black"></path>
				<path d="M 265 196 Q 278 175 291 156 Q 306 134 313 136 Q 326 139 340 174 Q 355 213 349 262 Q 322 613 350 664 Q 360 680 353 691 Q 346 701 299 714 Q 277 723 261 713 Q 209 689 165 679 C 136 671 147 644 176 653 Q 180 654 185 656 Q 269 680 280 671 Q 295 656 295 600 Q 299 365 288 234 Q 291 218 281 215 C 271 187 259 205 265 196 Z" fill="black"></path>
				<path d="M 169 428 Q 224 438 264 442 Q 285 446 277 457 Q 267 470 245 474 Q 202 477 170 458 C 144 443 139 423 169 428 Z" fill="black"></path>
				<path d="M 163 184 Q 169 184 176 186 Q 204 192 265 196 C 295 198 300 198 281 215 Q 274 222 253 234 Q 237 241 207 233 Q 185 226 166 221 C 137 213 133 182 163 184 Z" fill="black"></path>
				<path d="M 638 690 Q 776 721 783 726 Q 790 733 787 741 Q 780 751 754 759 Q 732 762 641 734 L 585 719 Q 531 709 472 702 Q 438 696 463 681 Q 502 660 563 675 Q 573 678 586 679 L 638 690 Z" fill="black"></path>
				<path d="M 630 578 Q 663 587 731 597 Q 740 596 746 607 Q 747 616 728 624 Q 700 639 633 616 L 586 604 Q 552 598 494 587 Q 472 583 490 570 Q 512 554 554 561 Q 569 565 586 568 L 630 578 Z" fill="black"></path>
				<path d="M 625 502 Q 628 541 630 578 L 633 616 Q 634 653 638 690 L 641 734 Q 641 747 657 820 Q 661 830 641 845 Q 607 864 584 867 Q 568 871 560 862 Q 553 855 561 840 Q 582 810 582 790 Q 583 756 585 719 L 586 679 Q 586 643 586 604 L 586 568 Q 585 534 584 495 C 583 465 623 472 625 502 Z" fill="black"></path>
				<path d="M 584 495 Q 482 479 371 461 Q 352 458 366 443 Q 379 430 397 426 Q 416 422 431 427 Q 641 490 921 490 Q 940 491 944 499 Q 948 511 933 523 Q 882 556 849 548 Q 770 529 634 504 Q 628 504 625 502 L 584 495 Z" fill="black"></path>
				<path d="M 520 172 Q 523 218 527 252 L 529 277 Q 533 326 537 344 Q 538 351 537 357 C 537 374 537 374 517 384 Q 490 399 474 399 Q 461 395 465 383 Q 507 283 457 105 Q 423 33 455 -10 Q 462 -23 472 -18 Q 506 1 516 116 Q 517 132 518 146 L 520 172 Z" fill="black"></path>
				<path d="M 537 357 Q 543 358 552 360 Q 610 373 667 386 Q 686 390 692 380 Q 711 335 712 90 Q 712 36 705 26 Q 701 20 683 24 Q 658 31 630 38 Q 611 45 612 36 Q 666 -13 696 -49 Q 709 -67 724 -71 Q 733 -75 740 -65 Q 779 -20 777 33 Q 741 327 766 371 Q 776 390 765 400 Q 744 416 709 431 Q 691 438 677 430 Q 616 397 517 384 C 487 380 508 351 537 357 Z" fill="red"></path>
				<path d="M 527 252 Q 530 251 538 252 Q 601 262 648 269 Q 670 273 661 285 Q 651 298 627 302 Q 590 305 529 277 C 502 265 497 255 527 252 Z" fill="lightgray"></path>
				<path d="M 518 146 Q 525 145 533 146 Q 606 155 662 160 Q 684 163 677 176 Q 667 191 641 196 Q 617 200 520 172 C 491 164 488 149 518 146 Z" fill="lightgray"></path>
</g>
		<text x="40" y="140" font-size="128" fill="#999999">10</text></g>
</g>
	<g id="id2:id2" transform="translate(0.0,2048)">
		<g id="id2:id0:id0" transform="matrix(1.0,0,0,1.0,0,0.0)">			<g stroke="lightgray" stroke-width="4" transform="scale(4, 4)"> <rect x="0" y="0" width="256" height="256" fill="white" stroke-width="4"/></g>
			<g transform="scale(0.92, -0.92) translate(60, -920)">					<path d="M 165 679 Q 152 692 129 700 Q 119 704 108 701 Q 101 697 107 684 Q 126 603 128 593 Q 127 592 128 587 Q 140 371 108 248 Q 96 193 130 149 Q 140 136 151 148 Q 163 164 163 184 L 166 221 Q 167 243 167 271 Q 168 361 169 428 L 170 458 Q 173 624 175 639 Q 176 646 176 653 C 177 670 177 670 165 679 Z" fill="black"></path>
				<path d="M 265 196 Q 278 175 291 156 Q 306 134 313 136 Q 326 139 340 174 Q 355 213 349 262 Q 322 613 350 664 Q 360 680 353 691 Q 346 701 299 714 Q 277 723 261 713 Q 209 689 165 679 C 136 671 147 644 176 653 Q 180 654 185 656 Q 269 680 280 671 Q 295 656 295 600 Q 299 365 288 234 Q 291 218 281 215 C 271 187 259 205 265 196 Z" fill="black"></path>
				<path d="M 169 428 Q 224 438 264 442 Q 285 446 277 457 Q 267 470 245 474 Q 202 477 170 458 C 144 443 139 423 169 428 Z" fill="black"></path>
				<path d="M 163 184 Q 169 184 176 186 Q 204 192 265 196 C 295 198 300 198 281 215 Q 274 222 253 234 Q 237 241 207 233 Q 185 226 166 221 C 137 213 133 182 163 184 Z" fill="black"></path>
				<path d="M 638 690 Q 776 721 783 726 Q 790 733 787 741 Q 780 751 754 759 Q 732 762 641 734 L 585 719 Q 531 709 472 702 Q 438 696 463 681 Q 502 660 563 675 Q 573 678 586 679 L 638 690 Z" fill="black"></path>
				<path d="M 630 578 Q 663 587 731 597 Q 740 596 746 607 Q 747 616 728 624 Q 700 639 633 616 L 586 604 Q 552 598 494 587 Q 472 583 490 570 Q 512 554 554 561 Q 569 565 586 568 L 630 578 Z" fill="black"></path>
				<path d="M 625 502 Q 628 541 630 578 L 633 616 Q 634 653 638 690 L 641 734 Q 641 747 657 820 Q 661 830 641 845 Q 607 864 584 867 Q 568 871 560 862 Q 553 855 561 840 Q 582 810 582 790 Q 583 756 585 719 L 586 679 Q 586 643 586 604 L 586 568 Q 585 534 584 495 C 583 465 623 472 625 502 Z" fill="black"></path>
				<path d="M 584 495 Q 482 479 371 461 Q 352 458 366 443 Q 379 430 397 426 Q 416 422 431 427 Q 641 490 921 490 Q 940 491 944 499 Q 948 511 933 523 Q 882 556 849 548 Q 770 529 634 504 Q 628 504 625 502 L 584 495 Z" fill="black"></path>
				<path d="M 520 172 Q 523 218 527 252 L 529 277 Q 533 326 537 344 Q 538 351 537 357 C 537 374 537 374 517 384 Q 490 399 474 399 Q 461 395 465 383 Q 507 283 457 105 Q 423 33 455 -10 Q 462 -23 472 -18 Q 506 1 516 116 Q 517 132 518 146 L 520 172 Z" fill="black"></path>
				<path d="M 537 357 Q 543 358 552 360 Q 610 373 667 386 Q 686 390 692 380 Q 711 335 712 90 Q 712 36 705 26 Q 701 20 683 24 Q 658 31 630 38 Q 611 45 612 36 Q 666 -13 696 -49 Q 709 -67 724 -71 Q 733 -75 740 -65 Q 779 -20 777 33 Q 741 327 766 371 Q 776 390 765 400 Q 744 416 709 431 Q 691 438 677 430 Q 616 397 517 384 C 487 380 508 351 537 357 Z" fill="black"></path>
				<path d="M 527 252 Q 530 251 538 252 Q 601 262 648 269 Q 670 273 661 285 Q 651 298 627 302 Q 590 305 529 277 C 502 265 497 255 527 252 Z" fill="red"></path>
				<path d="M 518 146 Q 525 145 533 146 Q 606 155 662 160 Q 684 163 677 176 Q 667 191 641 196 Q 617 200 520 172 C 491 164 488 149 518 146 Z" fill="lightgray"></path>
</g>
		<text x="40" y="140" font-size="128" fill="#999999">11</text></g>
		<g id="id2:id1:id1" transform="matrix(1.0,0,0,1.0,1024,0.0)">			<g stroke="lightgray" stroke-width="4" transform="scale(4, 4)"> <rect x="0" y="0" width="256" height="256" fill="white" stroke-width="4"/></g>
			<g transform="scale(0.92, -0.92) translate(60, -920)">					<path d="M 165 679 Q 152 692 129 700 Q 119 704 108 701 Q 101 697 107 684 Q 126 603 128 593 Q 127 592 128 587 Q 140 371 108 248 Q 96 193 130 149 Q 140 136 151 148 Q 163 164 163 184 L 166 221 Q 167 243 167 271 Q 168 361 169 428 L 170 458 Q 173 624 175 639 Q 176 646 176 653 C 177 670 177 670 165 679 Z" fill="black"></path>
				<path d="M 265 196 Q 278 175 291 156 Q 306 134 313 136 Q 326 139 340 174 Q 355 213 349 262 Q 322 613 350 664 Q 360 680 353 691 Q 346 701 299 714 Q 277 723 261 713 Q 209 689 165 679 C 136 671 147 644 176 653 Q 180 654 185 656 Q 269 680 280 671 Q 295 656 295 600 Q 299 365 288 234 Q 291 218 281 215 C 271 187 259 205 265 196 Z" fill="black"></path>
				<path d="M 169 428 Q 224 438 264 442 Q 285 446 277 457 Q 267 470 245 474 Q 202 477 170 458 C 144 443 139 423 169 428 Z" fill="black"></path>
				<path d="M 163 184 Q 169 184 176 186 Q 204 192 265 196 C 295 198 300 198 281 215 Q 274 222 253 234 Q 237 241 207 233 Q 185 226 166 221 C 137 213 133 182 163 184 Z" fill="black"></path>
				<path d="M 638 690 Q 776 721 783 726 Q 790 733 787 741 Q 780 751 754 759 Q 732 762 641 734 L 585 719 Q 531 709 472 702 Q 438 696 463 681 Q 502 660 563 675 Q 573 678 586 679 L 638 690 Z" fill="black"></path>
				<path d="M 630 578 Q 663 587 731 597 Q 740 596 746 607 Q 747 616 728 624 Q 700 639 633 616 L 586 604 Q 552 598 494 587 Q 472 583 490 570 Q 512 554 554 561 Q 569 565 586 568 L 630 578 Z" fill="black"></path>
				<path d="M 625 502 Q 628 541 630 578 L 633 616 Q 634 653 638 690 L 641 734 Q 641 747 657 820 Q 661 830 641 845 Q 607 864 584 867 Q 568 871 560 862 Q 553 855 561 840 Q 582 810 582 790 Q 583 756 585 719 L 586 679 Q 586 643 586 604 L 586 568 Q 585 534 584 495 C 583 465 623 472 625 502 Z" fill="black"></path>
				<path d="M 584 495 Q 482 479 371 461 Q 352 458 366 443 Q 379 430 397 426 Q 416 422 431 427 Q 641 490 921 490 Q 940 491 944 499 Q 948 511 933 523 Q 882 556 849 548 Q 770 529 634 504 Q 628 504 625 502 L 584 495 Z" fill="black"></path>
				<path d="M 520 172 Q 523 218 527 252 L 529 277 Q 533 326 537 344 Q 538 351 537 357 C 537 374 537 374 517 384 Q 490 399 474 399 Q 461 395 465 383 Q 507 283 457 105 Q 423 33 455 -10 Q 462 -23 472 -18 Q 506 1 516 116 Q 517 132 518 146 L 520 172 Z" fill="black"></path>
				<path d="M 537 357 Q 543 358 552 360 Q 610 373 667 386 Q 686 390 692 380 Q 711 335 712 90 Q 712 36 705 26 Q 701 20 683 24 Q 658 31 630 38 Q 611 45 612 36 Q 666 -13 696 -49 Q 709 -67 724 -71 Q 733 -75 740 -65 Q 779 -20 777 33 Q 741 327 766 371 Q 776 390 765 400 Q 744 416 709 431 Q 691 438 677 430 Q 616 397 517 384 C 487 380 508 351 537 357 Z" fill="black"></path>
				<path d="M 527 252 Q 530 251 538 252 Q 601 262 648 269 Q 670 273 661 285 Q 651 298 627 302 Q 590 305 529 277 C 502 265 497 255 527 252 Z" fill="black"></path>
				<path d="M 518 146 Q 525 145 533 146 Q 606 155 662 160 Q 684 163 677 176 Q 667 191 641 196 Q 617 200 520 172 C 491 164 488 149 518 146 Z" fill="red"></path>
</g>
		<text x="40" y="140" font-size="128" fill="#999999">12</text></g>
		<g id="id2:id2:id2" transform="matrix(1.0,0,0,1.0,2048,0.0)">			<g stroke="white" stroke-width="4" transform="scale(4, 4)"> <rect x="1" y="1" width="255" height="255" fill="white" stroke-width="0"/></g>
</g>
		<g id="id2:id3:id3" transform="matrix(1.0,0,0,1.0,3072,0.0)">			<g stroke="white" stroke-width="4" transform="scale(4, 4)"> <rect x="1" y="1" width="255" height="255" fill="white" stroke-width="0"/></g>
</g>
		<g id="id2:id4:id4" transform="matrix(1.0,0,0,1.0,4096,0.0)">			<g stroke="white" stroke-width="4" transform="scale(4, 4)"> <rect x="1" y="1" width="255" height="255" fill="white" stroke-width="0"/></g>
</g>
</g>
</svg>
