<?xml version="1.0" standalone="no"?>
<!DOCTYPE svg PUBLIC "-//W3C//DTD SVG 1.1//EN"
 "http://www.w3.org/Graphics/SVG/1.1/DTD/svg11.dtd">
<!-- generate by Handict dictionary app com.asnsami.handict -->

<svg xmlns="http://www.w3.org/2000/svg" xmlns:sodipodi="http://sodipodi.sourceforge.net/DTD/sodipodi-0.dtd" version="1.1" width="640" height="256" viewBox="0 0 5120 2048">
	<g id="id0:id0" transform="translate(0.0,0)">
		<g id="id0:id0:id0" transform="matrix(1.0,0,0,1.0,0,0.0)">			<g stroke="lightgray" stroke-width="4" transform="scale(4, 4)"> <rect x="0" y="0" width="256" height="256" fill="white" stroke-width="4"/></g>
			<g transform="scale(0.92, -0.92) translate(60, -920)">					<path d="M 266 630 Q 251 634 222 634 Q 209 637 205 630 Q 199 623 211 606 Q 257 533 292 407 Q 299 370 325 346 Q 347 325 351 343 Q 352 355 352 370 L 347 401 Q 319 497 289 594 C 280 623 279 627 266 630 Z" fill="red"></path>
				<path d="M 597 421 Q 598 417 600 413 Q 607 395 620 397 Q 636 400 644 416 Q 660 440 685 554 Q 701 612 739 648 Q 760 667 741 683 Q 720 701 663 728 Q 645 737 552 708 Q 536 708 455 683 L 406 669 Q 387 665 371 659 Q 310 640 266 630 C 237 623 261 583 289 594 Q 289 595 291 595 Q 336 614 413 635 L 458 648 Q 609 690 631 679 Q 644 672 638 632 Q 613 481 600 451 Q 599 451 599 450 C 592 431 592 431 597 421 Z" fill="lightgray"></path>
				<path d="M 481 525 Q 512 535 544 541 Q 569 548 558 560 Q 545 573 518 576 Q 499 577 472 567 L 434 552 Q 395 536 362 523 Q 344 517 368 504 Q 377 498 395 503 Q 420 510 444 515 L 481 525 Z" fill="lightgray"></path>
				<path d="M 519 407 Q 553 414 597 421 C 627 426 625 436 599 450 Q 572 469 506 442 L 469 431 Q 403 415 347 401 C 318 394 322 368 352 370 Q 356 370 364 371 Q 407 386 480 399 L 519 407 Z" fill="lightgray"></path>
				<path d="M 579 187 Q 654 61 773 -24 Q 852 -72 876 -56 Q 897 -46 891 -6 Q 885 31 893 167 Q 896 189 890 194 Q 886 195 878 176 Q 835 73 809 56 Q 793 49 749 81 Q 665 145 616 216 L 591 256 Q 551 323 519 407 L 506 442 Q 491 485 481 525 L 472 567 Q 462 610 458 648 L 455 683 Q 452 747 462 785 Q 471 813 423 837 Q 386 858 366 853 Q 345 849 358 821 Q 386 779 394 732 Q 398 701 406 669 L 413 635 Q 423 595 434 552 L 444 515 Q 454 473 469 431 L 480 399 Q 513 306 556 226 L 579 187 Z" fill="lightgray"></path>
				<path d="M 556 226 Q 415 126 270 76 Q 198 54 159 36 Q 143 24 161 21 Q 198 14 260 31 Q 444 85 579 187 L 616 216 Q 689 273 756 317 Q 774 324 765 348 Q 731 405 707 412 Q 694 415 690 398 Q 666 332 591 256 L 556 226 Z" fill="lightgray"></path>
</g>
		<text x="40" y="140" font-size="128" fill="#999999">1</text></g>
		<g id="id0:id1:id1" transform="matrix(1.0,0,0,1.0,1024,0.0)">			<g stroke="lightgray" stroke-width="4" transform="scale(4, 4)"> <rect x="0" y="0" width="256" height="256" fill="white" stroke-width="4"/></g>
			<g transform="scale(0.92, -0.92) translate(60, -920)">					<path d="M 266 630 Q 251 634 222 634 Q 209 637 205 630 Q 199 623 211 606 Q 257 533 292 407 Q 299 370 325 346 Q 347 325 351 343 Q 352 355 352 370 L 347 401 Q 319 497 289 594 C 280 623 279 627 266 630 Z" fill="black"></path>
				<path d="M 597 421 Q 598 417 600 413 Q 607 395 620 397 Q 636 400 644 416 Q 660 440 685 554 Q 701 612 739 648 Q 760 667 741 683 Q 720 701 663 728 Q 645 737 552 708 Q 536 708 455 683 L 406 669 Q 387 665 371 659 Q 310 640 266 630 C 237 623 261 583 289 594 Q 289 595 291 595 Q 336 614 413 635 L 458 648 Q 609 690 631 679 Q 644 672 638 632 Q 613 481 600 451 Q 599 451 599 450 C 592 431 592 431 597 421 Z" fill="red"></path>
				<path d="M 481 525 Q 512 535 544 541 Q 569 548 558 560 Q 545 573 518 576 Q 499 577 472 567 L 434 552 Q 395 536 362 523 Q 344 517 368 504 Q 377 498 395 503 Q 420 510 444 515 L 481 525 Z" fill="lightgray"></path>
				<path d="M 519 407 Q 553 414 597 421 C 627 426 625 436 599 450 Q 572 469 506 442 L 469 431 Q 403 415 347 401 C 318 394 322 368 352 370 Q 356 370 364 371 Q 407 386 480 399 L 519 407 Z" fill="lightgray"></path>
				<path d="M 579 187 Q 654 61 773 -24 Q 852 -72 876 -56 Q 897 -46 891 -6 Q 885 31 893 167 Q 896 189 890 194 Q 886 195 878 176 Q 835 73 809 56 Q 793 49 749 81 Q 665 145 616 216 L 591 256 Q 551 323 519 407 L 506 442 Q 491 485 481 525 L 472 567 Q 462 610 458 648 L 455 683 Q 452 747 462 785 Q 471 813 423 837 Q 386 858 366 853 Q 345 849 358 821 Q 386 779 394 732 Q 398 701 406 669 L 413 635 Q 423 595 434 552 L 444 515 Q 454 473 469 431 L 480 399 Q 513 306 556 226 L 579 187 Z" fill="lightgray"></path>
				<path d="M 556 226 Q 415 126 270 76 Q 198 54 159 36 Q 143 24 161 21 Q 198 14 260 31 Q 444 85 579 187 L 616 216 Q 689 273 756 317 Q 774 324 765 348 Q 731 405 707 412 Q 694 415 690 398 Q 666 332 591 256 L 556 226 Z" fill="lightgray"></path>
</g>
		<text x="40" y="140" font-size="128" fill="#999999">2</text></g>
		<g id="id0:id2:id2" transform="matrix(1.0,0,0,1.0,2048,0.0)">			<g stroke="lightgray" stroke-width="4" transform="scale(4, 4)"> <rect x="0" y="0" width="256" height="256" fill="white" stroke-width="4"/></g>
			<g transform="scale(0.92, -0.92) translate(60, -920)">					<path d="M 266 630 Q 251 634 222 634 Q 209 637 205 630 Q 199 623 211 606 Q 257 533 292 407 Q 299 370 325 346 Q 347 325 351 343 Q 352 355 352 370 L 347 401 Q 319 497 289 594 C 280 623 279 627 266 630 Z" fill="black"></path>
				<path d="M 597 421 Q 598 417 600 413 Q 607 395 620 397 Q 636 400 644 416 Q 660 440 685 554 Q 701 612 739 648 Q 760 667 741 683 Q 720 701 663 728 Q 645 737 552 708 Q 536 708 455 683 L 406 669 Q 387 665 371 659 Q 310 640 266 630 C 237 623 261 583 289 594 Q 289 595 291 595 Q 336 614 413 635 L 458 648 Q 609 690 631 679 Q 644 672 638 632 Q 613 481 600 451 Q 599 451 599 450 C 592 431 592 431 597 421 Z" fill="black"></path>
				<path d="M 481 525 Q 512 535 544 541 Q 569 548 558 560 Q 545 573 518 576 Q 499 577 472 567 L 434 552 Q 395 536 362 523 Q 344 517 368 504 Q 377 498 395 503 Q 420 510 444 515 L 481 525 Z" fill="red"></path>
				<path d="M 519 407 Q 553 414 597 421 C 627 426 625 436 599 450 Q 572 469 506 442 L 469 431 Q 403 415 347 401 C 318 394 322 368 352 370 Q 356 370 364 371 Q 407 386 480 399 L 519 407 Z" fill="lightgray"></path>
				<path d="M 579 187 Q 654 61 773 -24 Q 852 -72 876 -56 Q 897 -46 891 -6 Q 885 31 893 167 Q 896 189 890 194 Q 886 195 878 176 Q 835 73 809 56 Q 793 49 749 81 Q 665 145 616 216 L 591 256 Q 551 323 519 407 L 506 442 Q 491 485 481 525 L 472 567 Q 462 610 458 648 L 455 683 Q 452 747 462 785 Q 471 813 423 837 Q 386 858 366 853 Q 345 849 358 821 Q 386 779 394 732 Q 398 701 406 669 L 413 635 Q 423 595 434 552 L 444 515 Q 454 473 469 431 L 480 399 Q 513 306 556 226 L 579 187 Z" fill="lightgray"></path>
				<path d="M 556 226 Q 415 126 270 76 Q 198 54 159 36 Q 143 24 161 21 Q 198 14 260 31 Q 444 85 579 187 L 616 216 Q 689 273 756 317 Q 774 324 765 348 Q 731 405 707 412 Q 694 415 690 398 Q 666 332 591 256 L 556 226 Z" fill="lightgray"></path>
</g>
		<text x="40" y="140" font-size="128" fill="#999999">3</text></g>
		<g id="id0:id3:id3" transform="matrix(1.0,0,0,1.0,3072,0.0)">			<g stroke="lightgray" stroke-width="4" transform="scale(4, 4)"> <rect x="0" y="0" width="256" height="256" fill="white" stroke-width="4"/></g>
			<g transform="scale(0.92, -0.92) translate(60, -920)">					<path d="M 266 630 Q 251 634 222 634 Q 209 637 205 630 Q 199 623 211 606 Q 257 533 292 407 Q 299 370 325 346 Q 347 325 351 343 Q 352 355 352 370 L 347 401 Q 319 497 289 594 C 280 623 279 627 266 630 Z" fill="black"></path>
				<path d="M 597 421 Q 598 417 600 413 Q 607 395 620 397 Q 636 400 644 416 Q 660 440 685 554 Q 701 612 739 648 Q 760 667 741 683 Q 720 701 663 728 Q 645 737 552 708 Q 536 708 455 683 L 406 669 Q 387 665 371 659 Q 310 640 266 630 C 237 623 261 583 289 594 Q 289 595 291 595 Q 336 614 413 635 L 458 648 Q 609 690 631 679 Q 644 672 638 632 Q 613 481 600 451 Q 599 451 599 450 C 592 431 592 431 597 421 Z" fill="black"></path>
				<path d="M 481 525 Q 512 535 544 541 Q 569 548 558 560 Q 545 573 518 576 Q 499 577 472 567 L 434 552 Q 395 536 362 523 Q 344 517 368 504 Q 377 498 395 503 Q 420 510 444 515 L 481 525 Z" fill="black"></path>
				<path d="M 519 407 Q 553 414 597 421 C 627 426 625 436 599 450 Q 572 469 506 442 L 469 431 Q 403 415 347 401 C 318 394 322 368 352 370 Q 356 370 364 371 Q 407 386 480 399 L 519 407 Z" fill="red"></path>
				<path d="M 579 187 Q 654 61 773 -24 Q 852 -72 876 -56 Q 897 -46 891 -6 Q 885 31 893 167 Q 896 189 890 194 Q 886 195 878 176 Q 835 73 809 56 Q 793 49 749 81 Q 665 145 616 216 L 591 256 Q 551 323 519 407 L 506 442 Q 491 485 481 525 L 472 567 Q 462 610 458 648 L 455 683 Q 452 747 462 785 Q 471 813 423 837 Q 386 858 366 853 Q 345 849 358 821 Q 386 779 394 732 Q 398 701 406 669 L 413 635 Q 423 595 434 552 L 444 515 Q 454 473 469 431 L 480 399 Q 513 306 556 226 L 579 187 Z" fill="lightgray"></path>
				<path d="M 556 226 Q 415 126 270 76 Q 198 54 159 36 Q 143 24 161 21 Q 198 14 260 31 Q 444 85 579 187 L 616 216 Q 689 273 756 317 Q 774 324 765 348 Q 731 405 707 412 Q 694 415 690 398 Q 666 332 591 256 L 556 226 Z" fill="lightgray"></path>
</g>
		<text x="40" y="140" font-size="128" fill="#999999">4</text></g>
		<g id="id0:id4:id4" transform="matrix(1.0,0,0,1.0,4096,0.0)">			<g stroke="lightgray" stroke-width="4" transform="scale(4, 4)"> <rect x="0" y="0" width="256" height="256" fill="white" stroke-width="4"/></g>
			<g transform="scale(0.92, -0.92) translate(60, -920)">					<path d="M 266 630 Q 251 634 222 634 Q 209 637 205 630 Q 199 623 211 606 Q 257 533 292 407 Q 299 370 325 346 Q 347 325 351 343 Q 352 355 352 370 L 347 401 Q 319 497 289 594 C 280 623 279 627 266 630 Z" fill="black"></path>
				<path d="M 597 421 Q 598 417 600 413 Q 607 395 620 397 Q 636 400 644 416 Q 660 440 685 554 Q 701 612 739 648 Q 760 667 741 683 Q 720 701 663 728 Q 645 737 552 708 Q 536 708 455 683 L 406 669 Q 387 665 371 659 Q 310 640 266 630 C 237 623 261 583 289 594 Q 289 595 291 595 Q 336 614 413 635 L 458 648 Q 609 690 631 679 Q 644 672 638 632 Q 613 481 600 451 Q 599 451 599 450 C 592 431 592 431 597 421 Z" fill="black"></path>
				<path d="M 481 525 Q 512 535 544 541 Q 569 548 558 560 Q 545 573 518 576 Q 499 577 472 567 L 434 552 Q 395 536 362 523 Q 344 517 368 504 Q 377 498 395 503 Q 420 510 444 515 L 481 525 Z" fill="black"></path>
				<path d="M 519 407 Q 553 414 597 421 C 627 426 625 436 599 450 Q 572 469 506 442 L 469 431 Q 403 415 347 401 C 318 394 322 368 352 370 Q 356 370 364 371 Q 407 386 480 399 L 519 407 Z" fill="black"></path>
				<path d="M 579 187 Q 654 61 773 -24 Q 852 -72 876 -56 Q 897 -46 891 -6 Q 885 31 893 167 Q 896 189 890 194 Q 886 195 878 176 Q 835 73 809 56 Q 793 49 749 81 Q 665 145 616 216 L 591 256 Q 551 323 519 407 L 506 442 Q 491 485 481 525 L 472 567 Q 462 610 458 648 L 455 683 Q 452 747 462 785 Q 471 813 423 837 Q 386 858 366 853 Q 345 849 358 821 Q 386 779 394 732 Q 398 701 406 669 L 413 635 Q 423 595 434 552 L 444 515 Q 454 473 469 431 L 480 399 Q 513 306 556 226 L 579 187 Z" fill="red"></path>
				<path d="M 556 226 Q 415 126 270 76 Q 198 54 159 36 Q 143 24 161 21 Q 198 14 260 31 Q 444 85 579 187 L 616 216 Q 689 273 756 317 Q 774 324 765 348 Q 731 405 707 412 Q 694 415 690 398 Q 666 332 591 256 L 556 226 Z" fill="lightgray"></path>
</g>
		<text x="40" y="140" font-size="128" fill="#999999">5</text></g>
</g>
	<g id="id1:id1" transform="translate(0.0,1024)">
		<g id="id1:id0:id0" transform="matrix(1.0,0,0,1.0,0,0.0)">			<g stroke="lightgray" stroke-width="4" transform="scale(4, 4)"> <rect x="0" y="0" width="256" height="256" fill="white" stroke-width="4"/></g>
			<g transform="scale(0.92, -0.92) translate(60, -920)">					<path d="M 266 630 Q 251 634 222 634 Q 209 637 205 630 Q 199 623 211 606 Q 257 533 292 407 Q 299 370 325 346 Q 347 325 351 343 Q 352 355 352 370 L 347 401 Q 319 497 289 594 C 280 623 279 627 266 630 Z" fill="black"></path>
				<path d="M 597 421 Q 598 417 600 413 Q 607 395 620 397 Q 636 400 644 416 Q 660 440 685 554 Q 701 612 739 648 Q 760 667 741 683 Q 720 701 663 728 Q 645 737 552 708 Q 536 708 455 683 L 406 669 Q 387 665 371 659 Q 310 640 266 630 C 237 623 261 583 289 594 Q 289 595 291 595 Q 336 614 413 635 L 458 648 Q 609 690 631 679 Q 644 672 638 632 Q 613 481 600 451 Q 599 451 599 450 C 592 431 592 431 597 421 Z" fill="black"></path>
				<path d="M 481 525 Q 512 535 544 541 Q 569 548 558 560 Q 545 573 518 576 Q 499 577 472 567 L 434 552 Q 395 536 362 523 Q 344 517 368 504 Q 377 498 395 503 Q 420 510 444 515 L 481 525 Z" fill="black"></path>
				<path d="M 519 407 Q 553 414 597 421 C 627 426 625 436 599 450 Q 572 469 506 442 L 469 431 Q 403 415 347 401 C 318 394 322 368 352 370 Q 356 370 364 371 Q 407 386 480 399 L 519 407 Z" fill="black"></path>
				<path d="M 579 187 Q 654 61 773 -24 Q 852 -72 876 -56 Q 897 -46 891 -6 Q 885 31 893 167 Q 896 189 890 194 Q 886 195 878 176 Q 835 73 809 56 Q 793 49 749 81 Q 665 145 616 216 L 591 256 Q 551 323 519 407 L 506 442 Q 491 485 481 525 L 472 567 Q 462 610 458 648 L 455 683 Q 452 747 462 785 Q 471 813 423 837 Q 386 858 366 853 Q 345 849 358 821 Q 386 779 394 732 Q 398 701 406 669 L 413 635 Q 423 595 434 552 L 444 515 Q 454 473 469 431 L 480 399 Q 513 306 556 226 L 579 187 Z" fill="black"></path>
				<path d="M 556 226 Q 415 126 270 76 Q 198 54 159 36 Q 143 24 161 21 Q 198 14 260 31 Q 444 85 579 187 L 616 216 Q 689 273 756 317 Q 774 324 765 348 Q 731 405 707 412 Q 694 415 690 398 Q 666 332 591 256 L 556 226 Z" fill="red"></path>
</g>
		<text x="40" y="140" font-size="128" fill="#999999">6</text></g>
		<g id="id1:id1:id1" transform="matrix(1.0,0,0,1.0,1024,0.0)">			<g stroke="white" stroke-width="4" transform="scale(4, 4)"> <rect x="1" y="1" width="255" height="255" fill="white" stroke-width="0"/></g>
</g>
		<g id="id1:id2:id2" transform="matrix(1.0,0,0,1.0,2048,0.0)">			<g stroke="white" stroke-width="4" transform="scale(4, 4)"> <rect x="1" y="1" width="255" height="255" fill="white" stroke-width="0"/></g>
</g>
		<g id="id1:id3:id3" transform="matrix(1.0,0,0,1.0,3072,0.0)">			<g stroke="white" stroke-width="4" transform="scale(4, 4)"> <rect x="1" y="1" width="255" height="255" fill="white" stroke-width="0"/></g>
</g>
		<g id="id1:id4:id4" transform="matrix(1.0,0,0,1.0,4096,0.0)">			<g stroke="white" stroke-width="4" transform="scale(4, 4)"> <rect x="1" y="1" width="255" height="255" fill="white" stroke-width="0"/></g>
</g>
</g>
</svg>
