<?xml version="1.0" standalone="no"?>
<!DOCTYPE svg PUBLIC "-//W3C//DTD SVG 1.1//EN"
 "http://www.w3.org/Graphics/SVG/1.1/DTD/svg11.dtd">
<!-- generate by Handict dictionary app com.asnsami.handict -->

<svg xmlns="http://www.w3.org/2000/svg" xmlns:sodipodi="http://sodipodi.sourceforge.net/DTD/sodipodi-0.dtd" version="1.1" width="640" height="256" viewBox="0 0 5120 2048">
	<g id="id0:id0" transform="translate(0.0,0)">
		<g id="id0:id0:id0" transform="matrix(1.0,0,0,1.0,0,0.0)">			<g stroke="lightgray" stroke-width="4" transform="scale(4, 4)"> <rect x="0" y="0" width="256" height="256" fill="white" stroke-width="4"/></g>
			<g transform="scale(0.92, -0.92) translate(60, -920)">					<path d="M 275 763 Q 271 764 266 764 Q 253 768 249 762 Q 242 755 252 737 Q 289 664 312 541 Q 316 504 338 480 Q 357 456 363 474 Q 366 484 367 496 L 366 521 Q 365 537 361 555 Q 334 684 329 722 C 325 752 305 759 275 763 Z" fill="red"></path>
				<path d="M 597 528 Q 618 494 636 485 Q 648 476 664 499 Q 680 524 716 668 Q 726 702 753 729 Q 768 742 755 757 Q 739 776 693 806 Q 674 815 599 800 Q 572 799 419 775 Q 314 760 275 763 C 245 764 300 714 329 722 Q 381 737 459 746 L 498 751 Q 633 772 650 754 Q 663 738 660 721 Q 630 565 610 551 C 596 529 596 529 597 528 Z" fill="lightgray"></path>
				<path d="M 517 631 Q 550 637 579 641 Q 601 645 593 657 Q 583 670 559 675 Q 543 678 517 671 L 468 658 Q 416 645 371 632 Q 355 628 374 615 Q 384 608 405 611 Q 438 618 469 622 L 517 631 Z" fill="lightgray"></path>
				<path d="M 517 517 Q 559 524 597 528 C 627 531 636 537 610 551 Q 577 572 517 549 L 469 540 Q 414 530 366 521 C 337 515 337 495 367 496 Q 374 496 384 497 Q 429 504 470 510 L 517 517 Z" fill="lightgray"></path>
				<path d="M 524 382 Q 581 388 825 388 Q 846 388 850 396 Q 856 408 840 422 Q 786 461 750 454 Q 660 438 517 417 L 469 411 Q 322 395 157 378 Q 136 377 151 359 Q 164 346 183 339 Q 204 333 220 338 Q 314 362 422 372 L 524 382 Z" fill="lightgray"></path>
				<path d="M 517 417 Q 517 466 517 517 L 517 549 Q 518 583 518 616 Q 517 623 517 631 L 517 671 Q 517 714 520 722 Q 523 734 514 741 Q 508 745 498 751 C 474 769 451 775 459 746 Q 466 733 467 709 Q 467 684 468 658 L 469 622 Q 469 582 469 540 L 470 510 Q 470 461 469 411 L 468 341 Q 468 164 457 42 Q 454 0 479 -33 Q 492 -48 501 -30 Q 528 22 521 67 Q 518 113 517 345 L 517 417 Z" fill="lightgray"></path>
				<path d="M 422 372 Q 416 353 398 327 Q 344 249 283 196 Q 232 150 127 80 Q 108 67 125 66 Q 137 63 178 80 Q 236 99 288 138 Q 399 225 454 319 Q 461 332 468 341 C 496 382 446 433 422 372 Z" fill="lightgray"></path>
				<path d="M 517 345 Q 704 104 751 86 Q 823 68 938 82 Q 959 83 961 88 Q 964 95 947 103 Q 755 191 732 206 Q 648 260 527 380 Q 524 381 524 382 C 502 402 486 385 517 345 Z" fill="lightgray"></path>
</g>
		<text x="40" y="140" font-size="128" fill="#999999">1</text></g>
		<g id="id0:id1:id1" transform="matrix(1.0,0,0,1.0,1024,0.0)">			<g stroke="lightgray" stroke-width="4" transform="scale(4, 4)"> <rect x="0" y="0" width="256" height="256" fill="white" stroke-width="4"/></g>
			<g transform="scale(0.92, -0.92) translate(60, -920)">					<path d="M 275 763 Q 271 764 266 764 Q 253 768 249 762 Q 242 755 252 737 Q 289 664 312 541 Q 316 504 338 480 Q 357 456 363 474 Q 366 484 367 496 L 366 521 Q 365 537 361 555 Q 334 684 329 722 C 325 752 305 759 275 763 Z" fill="black"></path>
				<path d="M 597 528 Q 618 494 636 485 Q 648 476 664 499 Q 680 524 716 668 Q 726 702 753 729 Q 768 742 755 757 Q 739 776 693 806 Q 674 815 599 800 Q 572 799 419 775 Q 314 760 275 763 C 245 764 300 714 329 722 Q 381 737 459 746 L 498 751 Q 633 772 650 754 Q 663 738 660 721 Q 630 565 610 551 C 596 529 596 529 597 528 Z" fill="red"></path>
				<path d="M 517 631 Q 550 637 579 641 Q 601 645 593 657 Q 583 670 559 675 Q 543 678 517 671 L 468 658 Q 416 645 371 632 Q 355 628 374 615 Q 384 608 405 611 Q 438 618 469 622 L 517 631 Z" fill="lightgray"></path>
				<path d="M 517 517 Q 559 524 597 528 C 627 531 636 537 610 551 Q 577 572 517 549 L 469 540 Q 414 530 366 521 C 337 515 337 495 367 496 Q 374 496 384 497 Q 429 504 470 510 L 517 517 Z" fill="lightgray"></path>
				<path d="M 524 382 Q 581 388 825 388 Q 846 388 850 396 Q 856 408 840 422 Q 786 461 750 454 Q 660 438 517 417 L 469 411 Q 322 395 157 378 Q 136 377 151 359 Q 164 346 183 339 Q 204 333 220 338 Q 314 362 422 372 L 524 382 Z" fill="lightgray"></path>
				<path d="M 517 417 Q 517 466 517 517 L 517 549 Q 518 583 518 616 Q 517 623 517 631 L 517 671 Q 517 714 520 722 Q 523 734 514 741 Q 508 745 498 751 C 474 769 451 775 459 746 Q 466 733 467 709 Q 467 684 468 658 L 469 622 Q 469 582 469 540 L 470 510 Q 470 461 469 411 L 468 341 Q 468 164 457 42 Q 454 0 479 -33 Q 492 -48 501 -30 Q 528 22 521 67 Q 518 113 517 345 L 517 417 Z" fill="lightgray"></path>
				<path d="M 422 372 Q 416 353 398 327 Q 344 249 283 196 Q 232 150 127 80 Q 108 67 125 66 Q 137 63 178 80 Q 236 99 288 138 Q 399 225 454 319 Q 461 332 468 341 C 496 382 446 433 422 372 Z" fill="lightgray"></path>
				<path d="M 517 345 Q 704 104 751 86 Q 823 68 938 82 Q 959 83 961 88 Q 964 95 947 103 Q 755 191 732 206 Q 648 260 527 380 Q 524 381 524 382 C 502 402 486 385 517 345 Z" fill="lightgray"></path>
</g>
		<text x="40" y="140" font-size="128" fill="#999999">2</text></g>
		<g id="id0:id2:id2" transform="matrix(1.0,0,0,1.0,2048,0.0)">			<g stroke="lightgray" stroke-width="4" transform="scale(4, 4)"> <rect x="0" y="0" width="256" height="256" fill="white" stroke-width="4"/></g>
			<g transform="scale(0.92, -0.92) translate(60, -920)">					<path d="M 275 763 Q 271 764 266 764 Q 253 768 249 762 Q 242 755 252 737 Q 289 664 312 541 Q 316 504 338 480 Q 357 456 363 474 Q 366 484 367 496 L 366 521 Q 365 537 361 555 Q 334 684 329 722 C 325 752 305 759 275 763 Z" fill="black"></path>
				<path d="M 597 528 Q 618 494 636 485 Q 648 476 664 499 Q 680 524 716 668 Q 726 702 753 729 Q 768 742 755 757 Q 739 776 693 806 Q 674 815 599 800 Q 572 799 419 775 Q 314 760 275 763 C 245 764 300 714 329 722 Q 381 737 459 746 L 498 751 Q 633 772 650 754 Q 663 738 660 721 Q 630 565 610 551 C 596 529 596 529 597 528 Z" fill="black"></path>
				<path d="M 517 631 Q 550 637 579 641 Q 601 645 593 657 Q 583 670 559 675 Q 543 678 517 671 L 468 658 Q 416 645 371 632 Q 355 628 374 615 Q 384 608 405 611 Q 438 618 469 622 L 517 631 Z" fill="red"></path>
				<path d="M 517 517 Q 559 524 597 528 C 627 531 636 537 610 551 Q 577 572 517 549 L 469 540 Q 414 530 366 521 C 337 515 337 495 367 496 Q 374 496 384 497 Q 429 504 470 510 L 517 517 Z" fill="lightgray"></path>
				<path d="M 524 382 Q 581 388 825 388 Q 846 388 850 396 Q 856 408 840 422 Q 786 461 750 454 Q 660 438 517 417 L 469 411 Q 322 395 157 378 Q 136 377 151 359 Q 164 346 183 339 Q 204 333 220 338 Q 314 362 422 372 L 524 382 Z" fill="lightgray"></path>
				<path d="M 517 417 Q 517 466 517 517 L 517 549 Q 518 583 518 616 Q 517 623 517 631 L 517 671 Q 517 714 520 722 Q 523 734 514 741 Q 508 745 498 751 C 474 769 451 775 459 746 Q 466 733 467 709 Q 467 684 468 658 L 469 622 Q 469 582 469 540 L 470 510 Q 470 461 469 411 L 468 341 Q 468 164 457 42 Q 454 0 479 -33 Q 492 -48 501 -30 Q 528 22 521 67 Q 518 113 517 345 L 517 417 Z" fill="lightgray"></path>
				<path d="M 422 372 Q 416 353 398 327 Q 344 249 283 196 Q 232 150 127 80 Q 108 67 125 66 Q 137 63 178 80 Q 236 99 288 138 Q 399 225 454 319 Q 461 332 468 341 C 496 382 446 433 422 372 Z" fill="lightgray"></path>
				<path d="M 517 345 Q 704 104 751 86 Q 823 68 938 82 Q 959 83 961 88 Q 964 95 947 103 Q 755 191 732 206 Q 648 260 527 380 Q 524 381 524 382 C 502 402 486 385 517 345 Z" fill="lightgray"></path>
</g>
		<text x="40" y="140" font-size="128" fill="#999999">3</text></g>
		<g id="id0:id3:id3" transform="matrix(1.0,0,0,1.0,3072,0.0)">			<g stroke="lightgray" stroke-width="4" transform="scale(4, 4)"> <rect x="0" y="0" width="256" height="256" fill="white" stroke-width="4"/></g>
			<g transform="scale(0.92, -0.92) translate(60, -920)">					<path d="M 275 763 Q 271 764 266 764 Q 253 768 249 762 Q 242 755 252 737 Q 289 664 312 541 Q 316 504 338 480 Q 357 456 363 474 Q 366 484 367 496 L 366 521 Q 365 537 361 555 Q 334 684 329 722 C 325 752 305 759 275 763 Z" fill="black"></path>
				<path d="M 597 528 Q 618 494 636 485 Q 648 476 664 499 Q 680 524 716 668 Q 726 702 753 729 Q 768 742 755 757 Q 739 776 693 806 Q 674 815 599 800 Q 572 799 419 775 Q 314 760 275 763 C 245 764 300 714 329 722 Q 381 737 459 746 L 498 751 Q 633 772 650 754 Q 663 738 660 721 Q 630 565 610 551 C 596 529 596 529 597 528 Z" fill="black"></path>
				<path d="M 517 631 Q 550 637 579 641 Q 601 645 593 657 Q 583 670 559 675 Q 543 678 517 671 L 468 658 Q 416 645 371 632 Q 355 628 374 615 Q 384 608 405 611 Q 438 618 469 622 L 517 631 Z" fill="black"></path>
				<path d="M 517 517 Q 559 524 597 528 C 627 531 636 537 610 551 Q 577 572 517 549 L 469 540 Q 414 530 366 521 C 337 515 337 495 367 496 Q 374 496 384 497 Q 429 504 470 510 L 517 517 Z" fill="red"></path>
				<path d="M 524 382 Q 581 388 825 388 Q 846 388 850 396 Q 856 408 840 422 Q 786 461 750 454 Q 660 438 517 417 L 469 411 Q 322 395 157 378 Q 136 377 151 359 Q 164 346 183 339 Q 204 333 220 338 Q 314 362 422 372 L 524 382 Z" fill="lightgray"></path>
				<path d="M 517 417 Q 517 466 517 517 L 517 549 Q 518 583 518 616 Q 517 623 517 631 L 517 671 Q 517 714 520 722 Q 523 734 514 741 Q 508 745 498 751 C 474 769 451 775 459 746 Q 466 733 467 709 Q 467 684 468 658 L 469 622 Q 469 582 469 540 L 470 510 Q 470 461 469 411 L 468 341 Q 468 164 457 42 Q 454 0 479 -33 Q 492 -48 501 -30 Q 528 22 521 67 Q 518 113 517 345 L 517 417 Z" fill="lightgray"></path>
				<path d="M 422 372 Q 416 353 398 327 Q 344 249 283 196 Q 232 150 127 80 Q 108 67 125 66 Q 137 63 178 80 Q 236 99 288 138 Q 399 225 454 319 Q 461 332 468 341 C 496 382 446 433 422 372 Z" fill="lightgray"></path>
				<path d="M 517 345 Q 704 104 751 86 Q 823 68 938 82 Q 959 83 961 88 Q 964 95 947 103 Q 755 191 732 206 Q 648 260 527 380 Q 524 381 524 382 C 502 402 486 385 517 345 Z" fill="lightgray"></path>
</g>
		<text x="40" y="140" font-size="128" fill="#999999">4</text></g>
		<g id="id0:id4:id4" transform="matrix(1.0,0,0,1.0,4096,0.0)">			<g stroke="lightgray" stroke-width="4" transform="scale(4, 4)"> <rect x="0" y="0" width="256" height="256" fill="white" stroke-width="4"/></g>
			<g transform="scale(0.92, -0.92) translate(60, -920)">					<path d="M 275 763 Q 271 764 266 764 Q 253 768 249 762 Q 242 755 252 737 Q 289 664 312 541 Q 316 504 338 480 Q 357 456 363 474 Q 366 484 367 496 L 366 521 Q 365 537 361 555 Q 334 684 329 722 C 325 752 305 759 275 763 Z" fill="black"></path>
				<path d="M 597 528 Q 618 494 636 485 Q 648 476 664 499 Q 680 524 716 668 Q 726 702 753 729 Q 768 742 755 757 Q 739 776 693 806 Q 674 815 599 800 Q 572 799 419 775 Q 314 760 275 763 C 245 764 300 714 329 722 Q 381 737 459 746 L 498 751 Q 633 772 650 754 Q 663 738 660 721 Q 630 565 610 551 C 596 529 596 529 597 528 Z" fill="black"></path>
				<path d="M 517 631 Q 550 637 579 641 Q 601 645 593 657 Q 583 670 559 675 Q 543 678 517 671 L 468 658 Q 416 645 371 632 Q 355 628 374 615 Q 384 608 405 611 Q 438 618 469 622 L 517 631 Z" fill="black"></path>
				<path d="M 517 517 Q 559 524 597 528 C 627 531 636 537 610 551 Q 577 572 517 549 L 469 540 Q 414 530 366 521 C 337 515 337 495 367 496 Q 374 496 384 497 Q 429 504 470 510 L 517 517 Z" fill="black"></path>
				<path d="M 524 382 Q 581 388 825 388 Q 846 388 850 396 Q 856 408 840 422 Q 786 461 750 454 Q 660 438 517 417 L 469 411 Q 322 395 157 378 Q 136 377 151 359 Q 164 346 183 339 Q 204 333 220 338 Q 314 362 422 372 L 524 382 Z" fill="red"></path>
				<path d="M 517 417 Q 517 466 517 517 L 517 549 Q 518 583 518 616 Q 517 623 517 631 L 517 671 Q 517 714 520 722 Q 523 734 514 741 Q 508 745 498 751 C 474 769 451 775 459 746 Q 466 733 467 709 Q 467 684 468 658 L 469 622 Q 469 582 469 540 L 470 510 Q 470 461 469 411 L 468 341 Q 468 164 457 42 Q 454 0 479 -33 Q 492 -48 501 -30 Q 528 22 521 67 Q 518 113 517 345 L 517 417 Z" fill="lightgray"></path>
				<path d="M 422 372 Q 416 353 398 327 Q 344 249 283 196 Q 232 150 127 80 Q 108 67 125 66 Q 137 63 178 80 Q 236 99 288 138 Q 399 225 454 319 Q 461 332 468 341 C 496 382 446 433 422 372 Z" fill="lightgray"></path>
				<path d="M 517 345 Q 704 104 751 86 Q 823 68 938 82 Q 959 83 961 88 Q 964 95 947 103 Q 755 191 732 206 Q 648 260 527 380 Q 524 381 524 382 C 502 402 486 385 517 345 Z" fill="lightgray"></path>
</g>
		<text x="40" y="140" font-size="128" fill="#999999">5</text></g>
</g>
	<g id="id1:id1" transform="translate(0.0,1024)">
		<g id="id1:id0:id0" transform="matrix(1.0,0,0,1.0,0,0.0)">			<g stroke="lightgray" stroke-width="4" transform="scale(4, 4)"> <rect x="0" y="0" width="256" height="256" fill="white" stroke-width="4"/></g>
			<g transform="scale(0.92, -0.92) translate(60, -920)">					<path d="M 275 763 Q 271 764 266 764 Q 253 768 249 762 Q 242 755 252 737 Q 289 664 312 541 Q 316 504 338 480 Q 357 456 363 474 Q 366 484 367 496 L 366 521 Q 365 537 361 555 Q 334 684 329 722 C 325 752 305 759 275 763 Z" fill="black"></path>
				<path d="M 597 528 Q 618 494 636 485 Q 648 476 664 499 Q 680 524 716 668 Q 726 702 753 729 Q 768 742 755 757 Q 739 776 693 806 Q 674 815 599 800 Q 572 799 419 775 Q 314 760 275 763 C 245 764 300 714 329 722 Q 381 737 459 746 L 498 751 Q 633 772 650 754 Q 663 738 660 721 Q 630 565 610 551 C 596 529 596 529 597 528 Z" fill="black"></path>
				<path d="M 517 631 Q 550 637 579 641 Q 601 645 593 657 Q 583 670 559 675 Q 543 678 517 671 L 468 658 Q 416 645 371 632 Q 355 628 374 615 Q 384 608 405 611 Q 438 618 469 622 L 517 631 Z" fill="black"></path>
				<path d="M 517 517 Q 559 524 597 528 C 627 531 636 537 610 551 Q 577 572 517 549 L 469 540 Q 414 530 366 521 C 337 515 337 495 367 496 Q 374 496 384 497 Q 429 504 470 510 L 517 517 Z" fill="black"></path>
				<path d="M 524 382 Q 581 388 825 388 Q 846 388 850 396 Q 856 408 840 422 Q 786 461 750 454 Q 660 438 517 417 L 469 411 Q 322 395 157 378 Q 136 377 151 359 Q 164 346 183 339 Q 204 333 220 338 Q 314 362 422 372 L 524 382 Z" fill="black"></path>
				<path d="M 517 417 Q 517 466 517 517 L 517 549 Q 518 583 518 616 Q 517 623 517 631 L 517 671 Q 517 714 520 722 Q 523 734 514 741 Q 508 745 498 751 C 474 769 451 775 459 746 Q 466 733 467 709 Q 467 684 468 658 L 469 622 Q 469 582 469 540 L 470 510 Q 470 461 469 411 L 468 341 Q 468 164 457 42 Q 454 0 479 -33 Q 492 -48 501 -30 Q 528 22 521 67 Q 518 113 517 345 L 517 417 Z" fill="red"></path>
				<path d="M 422 372 Q 416 353 398 327 Q 344 249 283 196 Q 232 150 127 80 Q 108 67 125 66 Q 137 63 178 80 Q 236 99 288 138 Q 399 225 454 319 Q 461 332 468 341 C 496 382 446 433 422 372 Z" fill="lightgray"></path>
				<path d="M 517 345 Q 704 104 751 86 Q 823 68 938 82 Q 959 83 961 88 Q 964 95 947 103 Q 755 191 732 206 Q 648 260 527 380 Q 524 381 524 382 C 502 402 486 385 517 345 Z" fill="lightgray"></path>
</g>
		<text x="40" y="140" font-size="128" fill="#999999">6</text></g>
		<g id="id1:id1:id1" transform="matrix(1.0,0,0,1.0,1024,0.0)">			<g stroke="lightgray" stroke-width="4" transform="scale(4, 4)"> <rect x="0" y="0" width="256" height="256" fill="white" stroke-width="4"/></g>
			<g transform="scale(0.92, -0.92) translate(60, -920)">					<path d="M 275 763 Q 271 764 266 764 Q 253 768 249 762 Q 242 755 252 737 Q 289 664 312 541 Q 316 504 338 480 Q 357 456 363 474 Q 366 484 367 496 L 366 521 Q 365 537 361 555 Q 334 684 329 722 C 325 752 305 759 275 763 Z" fill="black"></path>
				<path d="M 597 528 Q 618 494 636 485 Q 648 476 664 499 Q 680 524 716 668 Q 726 702 753 729 Q 768 742 755 757 Q 739 776 693 806 Q 674 815 599 800 Q 572 799 419 775 Q 314 760 275 763 C 245 764 300 714 329 722 Q 381 737 459 746 L 498 751 Q 633 772 650 754 Q 663 738 660 721 Q 630 565 610 551 C 596 529 596 529 597 528 Z" fill="black"></path>
				<path d="M 517 631 Q 550 637 579 641 Q 601 645 593 657 Q 583 670 559 675 Q 543 678 517 671 L 468 658 Q 416 645 371 632 Q 355 628 374 615 Q 384 608 405 611 Q 438 618 469 622 L 517 631 Z" fill="black"></path>
				<path d="M 517 517 Q 559 524 597 528 C 627 531 636 537 610 551 Q 577 572 517 549 L 469 540 Q 414 530 366 521 C 337 515 337 495 367 496 Q 374 496 384 497 Q 429 504 470 510 L 517 517 Z" fill="black"></path>
				<path d="M 524 382 Q 581 388 825 388 Q 846 388 850 396 Q 856 408 840 422 Q 786 461 750 454 Q 660 438 517 417 L 469 411 Q 322 395 157 378 Q 136 377 151 359 Q 164 346 183 339 Q 204 333 220 338 Q 314 362 422 372 L 524 382 Z" fill="black"></path>
				<path d="M 517 417 Q 517 466 517 517 L 517 549 Q 518 583 518 616 Q 517 623 517 631 L 517 671 Q 517 714 520 722 Q 523 734 514 741 Q 508 745 498 751 C 474 769 451 775 459 746 Q 466 733 467 709 Q 467 684 468 658 L 469 622 Q 469 582 469 540 L 470 510 Q 470 461 469 411 L 468 341 Q 468 164 457 42 Q 454 0 479 -33 Q 492 -48 501 -30 Q 528 22 521 67 Q 518 113 517 345 L 517 417 Z" fill="black"></path>
				<path d="M 422 372 Q 416 353 398 327 Q 344 249 283 196 Q 232 150 127 80 Q 108 67 125 66 Q 137 63 178 80 Q 236 99 288 138 Q 399 225 454 319 Q 461 332 468 341 C 496 382 446 433 422 372 Z" fill="red"></path>
				<path d="M 517 345 Q 704 104 751 86 Q 823 68 938 82 Q 959 83 961 88 Q 964 95 947 103 Q 755 191 732 206 Q 648 260 527 380 Q 524 381 524 382 C 502 402 486 385 517 345 Z" fill="lightgray"></path>
</g>
		<text x="40" y="140" font-size="128" fill="#999999">7</text></g>
		<g id="id1:id2:id2" transform="matrix(1.0,0,0,1.0,2048,0.0)">			<g stroke="lightgray" stroke-width="4" transform="scale(4, 4)"> <rect x="0" y="0" width="256" height="256" fill="white" stroke-width="4"/></g>
			<g transform="scale(0.92, -0.92) translate(60, -920)">					<path d="M 275 763 Q 271 764 266 764 Q 253 768 249 762 Q 242 755 252 737 Q 289 664 312 541 Q 316 504 338 480 Q 357 456 363 474 Q 366 484 367 496 L 366 521 Q 365 537 361 555 Q 334 684 329 722 C 325 752 305 759 275 763 Z" fill="black"></path>
				<path d="M 597 528 Q 618 494 636 485 Q 648 476 664 499 Q 680 524 716 668 Q 726 702 753 729 Q 768 742 755 757 Q 739 776 693 806 Q 674 815 599 800 Q 572 799 419 775 Q 314 760 275 763 C 245 764 300 714 329 722 Q 381 737 459 746 L 498 751 Q 633 772 650 754 Q 663 738 660 721 Q 630 565 610 551 C 596 529 596 529 597 528 Z" fill="black"></path>
				<path d="M 517 631 Q 550 637 579 641 Q 601 645 593 657 Q 583 670 559 675 Q 543 678 517 671 L 468 658 Q 416 645 371 632 Q 355 628 374 615 Q 384 608 405 611 Q 438 618 469 622 L 517 631 Z" fill="black"></path>
				<path d="M 517 517 Q 559 524 597 528 C 627 531 636 537 610 551 Q 577 572 517 549 L 469 540 Q 414 530 366 521 C 337 515 337 495 367 496 Q 374 496 384 497 Q 429 504 470 510 L 517 517 Z" fill="black"></path>
				<path d="M 524 382 Q 581 388 825 388 Q 846 388 850 396 Q 856 408 840 422 Q 786 461 750 454 Q 660 438 517 417 L 469 411 Q 322 395 157 378 Q 136 377 151 359 Q 164 346 183 339 Q 204 333 220 338 Q 314 362 422 372 L 524 382 Z" fill="black"></path>
				<path d="M 517 417 Q 517 466 517 517 L 517 549 Q 518 583 518 616 Q 517 623 517 631 L 517 671 Q 517 714 520 722 Q 523 734 514 741 Q 508 745 498 751 C 474 769 451 775 459 746 Q 466 733 467 709 Q 467 684 468 658 L 469 622 Q 469 582 469 540 L 470 510 Q 470 461 469 411 L 468 341 Q 468 164 457 42 Q 454 0 479 -33 Q 492 -48 501 -30 Q 528 22 521 67 Q 518 113 517 345 L 517 417 Z" fill="black"></path>
				<path d="M 422 372 Q 416 353 398 327 Q 344 249 283 196 Q 232 150 127 80 Q 108 67 125 66 Q 137 63 178 80 Q 236 99 288 138 Q 399 225 454 319 Q 461 332 468 341 C 496 382 446 433 422 372 Z" fill="black"></path>
				<path d="M 517 345 Q 704 104 751 86 Q 823 68 938 82 Q 959 83 961 88 Q 964 95 947 103 Q 755 191 732 206 Q 648 260 527 380 Q 524 381 524 382 C 502 402 486 385 517 345 Z" fill="red"></path>
</g>
		<text x="40" y="140" font-size="128" fill="#999999">8</text></g>
		<g id="id1:id3:id3" transform="matrix(1.0,0,0,1.0,3072,0.0)">			<g stroke="white" stroke-width="4" transform="scale(4, 4)"> <rect x="1" y="1" width="255" height="255" fill="white" stroke-width="0"/></g>
</g>
		<g id="id1:id4:id4" transform="matrix(1.0,0,0,1.0,4096,0.0)">			<g stroke="white" stroke-width="4" transform="scale(4, 4)"> <rect x="1" y="1" width="255" height="255" fill="white" stroke-width="0"/></g>
</g>
</g>
</svg>
