<?xml version="1.0" standalone="no"?>
<!DOCTYPE svg PUBLIC "-//W3C//DTD SVG 1.1//EN"
 "http://www.w3.org/Graphics/SVG/1.1/DTD/svg11.dtd">
<!-- generate by Handict dictionary app com.asnsami.handict -->

<svg xmlns="http://www.w3.org/2000/svg" xmlns:sodipodi="http://sodipodi.sourceforge.net/DTD/sodipodi-0.dtd" version="1.1" width="640" height="256" viewBox="0 0 5120 2048">
	<g id="id0:id0" transform="translate(0.0,0)">
		<g id="id0:id0:id0" transform="matrix(1.0,0,0,1.0,0,0.0)">			<g stroke="lightgray" stroke-width="4" transform="scale(4, 4)"> <rect x="0" y="0" width="256" height="256" fill="white" stroke-width="4"/></g>
			<g transform="scale(0.92, -0.92) translate(60, -920)">					<path d="M 329 538 Q 416 569 417 570 Q 424 577 420 586 Q 413 596 385 600 Q 357 603 331 590 L 289 573 Q 199 540 125 527 Q 92 518 118 505 Q 158 486 207 503 Q 240 513 276 523 L 329 538 Z" fill="red"></path>
				<path d="M 326 414 Q 327 472 329 538 L 331 590 Q 332 686 353 750 Q 362 765 359 778 Q 352 788 298 821 Q 276 839 255 823 Q 251 819 256 803 Q 289 754 289 704 Q 289 643 289 573 L 284 419 Q 280 335 279 244 Q 273 165 252 93 Q 239 51 265 -6 Q 271 -24 279 -27 Q 285 -33 292 -25 Q 299 -21 310 -1 Q 320 24 319 54 Q 319 94 325 385 L 326 414 Z" fill="lightgray"></path>
				<path d="M 276 523 Q 225 376 62 153 Q 56 143 68 142 Q 92 142 201 281 Q 244 339 284 419 C 352 553 286 551 276 523 Z" fill="lightgray"></path>
				<path d="M 325 385 Q 341 369 375 325 Q 384 313 396 312 Q 403 311 409 321 Q 415 331 411 355 Q 410 371 386 387 Q 341 414 326 414 C 296 417 304 406 325 385 Z" fill="lightgray"></path>
				<path d="M 591 758 Q 645 709 680 699 Q 695 698 703 712 Q 707 725 703 743 Q 684 785 599 798 Q 581 802 572 796 Q 566 795 570 782 Q 573 770 591 758 Z" fill="lightgray"></path>
				<path d="M 497 606 Q 460 599 487 583 Q 532 559 587 574 Q 680 595 777 617 Q 820 629 827 635 Q 837 644 831 652 Q 824 664 794 671 Q 766 675 671 642 Q 562 614 497 606 Z" fill="lightgray"></path>
				<path d="M 499 473 Q 484 440 432 360 Q 426 345 440 350 Q 483 386 539 441 Q 552 457 571 468 Q 587 478 576 492 Q 563 504 540 513 Q 519 522 509 518 Q 499 515 503 504 Q 507 489 499 473 Z" fill="lightgray"></path>
				<path d="M 720 489 Q 765 459 812 423 Q 825 413 840 415 Q 850 416 853 428 Q 856 443 846 468 Q 833 507 712 532 Q 697 533 692 531 Q 688 527 690 515 Q 694 505 720 489 Z" fill="lightgray"></path>
				<path d="M 655 208 Q 697 292 705 327 Q 715 370 726 384 Q 735 397 727 406 Q 715 419 689 427 Q 670 436 650 431 Q 638 427 645 413 Q 666 377 646 314 Q 636 277 619 245 L 600 215 Q 572 179 534 151 Q 482 114 371 77 Q 355 68 375 66 Q 538 57 632 172 L 655 208 Z" fill="lightgray"></path>
				<path d="M 632 172 Q 755 16 818 14 Q 833 14 933 25 Q 946 26 959 31 Q 966 38 954 46 Q 939 53 822 91 Q 746 113 655 208 L 619 245 Q 591 278 560 316 Q 541 341 507 347 Q 497 350 487 343 Q 483 337 491 330 Q 498 324 505 319 Q 527 309 600 215 L 632 172 Z" fill="lightgray"></path>
</g>
		<text x="40" y="140" font-size="128" fill="#999999">1</text></g>
		<g id="id0:id1:id1" transform="matrix(1.0,0,0,1.0,1024,0.0)">			<g stroke="lightgray" stroke-width="4" transform="scale(4, 4)"> <rect x="0" y="0" width="256" height="256" fill="white" stroke-width="4"/></g>
			<g transform="scale(0.92, -0.92) translate(60, -920)">					<path d="M 329 538 Q 416 569 417 570 Q 424 577 420 586 Q 413 596 385 600 Q 357 603 331 590 L 289 573 Q 199 540 125 527 Q 92 518 118 505 Q 158 486 207 503 Q 240 513 276 523 L 329 538 Z" fill="black"></path>
				<path d="M 326 414 Q 327 472 329 538 L 331 590 Q 332 686 353 750 Q 362 765 359 778 Q 352 788 298 821 Q 276 839 255 823 Q 251 819 256 803 Q 289 754 289 704 Q 289 643 289 573 L 284 419 Q 280 335 279 244 Q 273 165 252 93 Q 239 51 265 -6 Q 271 -24 279 -27 Q 285 -33 292 -25 Q 299 -21 310 -1 Q 320 24 319 54 Q 319 94 325 385 L 326 414 Z" fill="red"></path>
				<path d="M 276 523 Q 225 376 62 153 Q 56 143 68 142 Q 92 142 201 281 Q 244 339 284 419 C 352 553 286 551 276 523 Z" fill="lightgray"></path>
				<path d="M 325 385 Q 341 369 375 325 Q 384 313 396 312 Q 403 311 409 321 Q 415 331 411 355 Q 410 371 386 387 Q 341 414 326 414 C 296 417 304 406 325 385 Z" fill="lightgray"></path>
				<path d="M 591 758 Q 645 709 680 699 Q 695 698 703 712 Q 707 725 703 743 Q 684 785 599 798 Q 581 802 572 796 Q 566 795 570 782 Q 573 770 591 758 Z" fill="lightgray"></path>
				<path d="M 497 606 Q 460 599 487 583 Q 532 559 587 574 Q 680 595 777 617 Q 820 629 827 635 Q 837 644 831 652 Q 824 664 794 671 Q 766 675 671 642 Q 562 614 497 606 Z" fill="lightgray"></path>
				<path d="M 499 473 Q 484 440 432 360 Q 426 345 440 350 Q 483 386 539 441 Q 552 457 571 468 Q 587 478 576 492 Q 563 504 540 513 Q 519 522 509 518 Q 499 515 503 504 Q 507 489 499 473 Z" fill="lightgray"></path>
				<path d="M 720 489 Q 765 459 812 423 Q 825 413 840 415 Q 850 416 853 428 Q 856 443 846 468 Q 833 507 712 532 Q 697 533 692 531 Q 688 527 690 515 Q 694 505 720 489 Z" fill="lightgray"></path>
				<path d="M 655 208 Q 697 292 705 327 Q 715 370 726 384 Q 735 397 727 406 Q 715 419 689 427 Q 670 436 650 431 Q 638 427 645 413 Q 666 377 646 314 Q 636 277 619 245 L 600 215 Q 572 179 534 151 Q 482 114 371 77 Q 355 68 375 66 Q 538 57 632 172 L 655 208 Z" fill="lightgray"></path>
				<path d="M 632 172 Q 755 16 818 14 Q 833 14 933 25 Q 946 26 959 31 Q 966 38 954 46 Q 939 53 822 91 Q 746 113 655 208 L 619 245 Q 591 278 560 316 Q 541 341 507 347 Q 497 350 487 343 Q 483 337 491 330 Q 498 324 505 319 Q 527 309 600 215 L 632 172 Z" fill="lightgray"></path>
</g>
		<text x="40" y="140" font-size="128" fill="#999999">2</text></g>
		<g id="id0:id2:id2" transform="matrix(1.0,0,0,1.0,2048,0.0)">			<g stroke="lightgray" stroke-width="4" transform="scale(4, 4)"> <rect x="0" y="0" width="256" height="256" fill="white" stroke-width="4"/></g>
			<g transform="scale(0.92, -0.92) translate(60, -920)">					<path d="M 329 538 Q 416 569 417 570 Q 424 577 420 586 Q 413 596 385 600 Q 357 603 331 590 L 289 573 Q 199 540 125 527 Q 92 518 118 505 Q 158 486 207 503 Q 240 513 276 523 L 329 538 Z" fill="black"></path>
				<path d="M 326 414 Q 327 472 329 538 L 331 590 Q 332 686 353 750 Q 362 765 359 778 Q 352 788 298 821 Q 276 839 255 823 Q 251 819 256 803 Q 289 754 289 704 Q 289 643 289 573 L 284 419 Q 280 335 279 244 Q 273 165 252 93 Q 239 51 265 -6 Q 271 -24 279 -27 Q 285 -33 292 -25 Q 299 -21 310 -1 Q 320 24 319 54 Q 319 94 325 385 L 326 414 Z" fill="black"></path>
				<path d="M 276 523 Q 225 376 62 153 Q 56 143 68 142 Q 92 142 201 281 Q 244 339 284 419 C 352 553 286 551 276 523 Z" fill="red"></path>
				<path d="M 325 385 Q 341 369 375 325 Q 384 313 396 312 Q 403 311 409 321 Q 415 331 411 355 Q 410 371 386 387 Q 341 414 326 414 C 296 417 304 406 325 385 Z" fill="lightgray"></path>
				<path d="M 591 758 Q 645 709 680 699 Q 695 698 703 712 Q 707 725 703 743 Q 684 785 599 798 Q 581 802 572 796 Q 566 795 570 782 Q 573 770 591 758 Z" fill="lightgray"></path>
				<path d="M 497 606 Q 460 599 487 583 Q 532 559 587 574 Q 680 595 777 617 Q 820 629 827 635 Q 837 644 831 652 Q 824 664 794 671 Q 766 675 671 642 Q 562 614 497 606 Z" fill="lightgray"></path>
				<path d="M 499 473 Q 484 440 432 360 Q 426 345 440 350 Q 483 386 539 441 Q 552 457 571 468 Q 587 478 576 492 Q 563 504 540 513 Q 519 522 509 518 Q 499 515 503 504 Q 507 489 499 473 Z" fill="lightgray"></path>
				<path d="M 720 489 Q 765 459 812 423 Q 825 413 840 415 Q 850 416 853 428 Q 856 443 846 468 Q 833 507 712 532 Q 697 533 692 531 Q 688 527 690 515 Q 694 505 720 489 Z" fill="lightgray"></path>
				<path d="M 655 208 Q 697 292 705 327 Q 715 370 726 384 Q 735 397 727 406 Q 715 419 689 427 Q 670 436 650 431 Q 638 427 645 413 Q 666 377 646 314 Q 636 277 619 245 L 600 215 Q 572 179 534 151 Q 482 114 371 77 Q 355 68 375 66 Q 538 57 632 172 L 655 208 Z" fill="lightgray"></path>
				<path d="M 632 172 Q 755 16 818 14 Q 833 14 933 25 Q 946 26 959 31 Q 966 38 954 46 Q 939 53 822 91 Q 746 113 655 208 L 619 245 Q 591 278 560 316 Q 541 341 507 347 Q 497 350 487 343 Q 483 337 491 330 Q 498 324 505 319 Q 527 309 600 215 L 632 172 Z" fill="lightgray"></path>
</g>
		<text x="40" y="140" font-size="128" fill="#999999">3</text></g>
		<g id="id0:id3:id3" transform="matrix(1.0,0,0,1.0,3072,0.0)">			<g stroke="lightgray" stroke-width="4" transform="scale(4, 4)"> <rect x="0" y="0" width="256" height="256" fill="white" stroke-width="4"/></g>
			<g transform="scale(0.92, -0.92) translate(60, -920)">					<path d="M 329 538 Q 416 569 417 570 Q 424 577 420 586 Q 413 596 385 600 Q 357 603 331 590 L 289 573 Q 199 540 125 527 Q 92 518 118 505 Q 158 486 207 503 Q 240 513 276 523 L 329 538 Z" fill="black"></path>
				<path d="M 326 414 Q 327 472 329 538 L 331 590 Q 332 686 353 750 Q 362 765 359 778 Q 352 788 298 821 Q 276 839 255 823 Q 251 819 256 803 Q 289 754 289 704 Q 289 643 289 573 L 284 419 Q 280 335 279 244 Q 273 165 252 93 Q 239 51 265 -6 Q 271 -24 279 -27 Q 285 -33 292 -25 Q 299 -21 310 -1 Q 320 24 319 54 Q 319 94 325 385 L 326 414 Z" fill="black"></path>
				<path d="M 276 523 Q 225 376 62 153 Q 56 143 68 142 Q 92 142 201 281 Q 244 339 284 419 C 352 553 286 551 276 523 Z" fill="black"></path>
				<path d="M 325 385 Q 341 369 375 325 Q 384 313 396 312 Q 403 311 409 321 Q 415 331 411 355 Q 410 371 386 387 Q 341 414 326 414 C 296 417 304 406 325 385 Z" fill="red"></path>
				<path d="M 591 758 Q 645 709 680 699 Q 695 698 703 712 Q 707 725 703 743 Q 684 785 599 798 Q 581 802 572 796 Q 566 795 570 782 Q 573 770 591 758 Z" fill="lightgray"></path>
				<path d="M 497 606 Q 460 599 487 583 Q 532 559 587 574 Q 680 595 777 617 Q 820 629 827 635 Q 837 644 831 652 Q 824 664 794 671 Q 766 675 671 642 Q 562 614 497 606 Z" fill="lightgray"></path>
				<path d="M 499 473 Q 484 440 432 360 Q 426 345 440 350 Q 483 386 539 441 Q 552 457 571 468 Q 587 478 576 492 Q 563 504 540 513 Q 519 522 509 518 Q 499 515 503 504 Q 507 489 499 473 Z" fill="lightgray"></path>
				<path d="M 720 489 Q 765 459 812 423 Q 825 413 840 415 Q 850 416 853 428 Q 856 443 846 468 Q 833 507 712 532 Q 697 533 692 531 Q 688 527 690 515 Q 694 505 720 489 Z" fill="lightgray"></path>
				<path d="M 655 208 Q 697 292 705 327 Q 715 370 726 384 Q 735 397 727 406 Q 715 419 689 427 Q 670 436 650 431 Q 638 427 645 413 Q 666 377 646 314 Q 636 277 619 245 L 600 215 Q 572 179 534 151 Q 482 114 371 77 Q 355 68 375 66 Q 538 57 632 172 L 655 208 Z" fill="lightgray"></path>
				<path d="M 632 172 Q 755 16 818 14 Q 833 14 933 25 Q 946 26 959 31 Q 966 38 954 46 Q 939 53 822 91 Q 746 113 655 208 L 619 245 Q 591 278 560 316 Q 541 341 507 347 Q 497 350 487 343 Q 483 337 491 330 Q 498 324 505 319 Q 527 309 600 215 L 632 172 Z" fill="lightgray"></path>
</g>
		<text x="40" y="140" font-size="128" fill="#999999">4</text></g>
		<g id="id0:id4:id4" transform="matrix(1.0,0,0,1.0,4096,0.0)">			<g stroke="lightgray" stroke-width="4" transform="scale(4, 4)"> <rect x="0" y="0" width="256" height="256" fill="white" stroke-width="4"/></g>
			<g transform="scale(0.92, -0.92) translate(60, -920)">					<path d="M 329 538 Q 416 569 417 570 Q 424 577 420 586 Q 413 596 385 600 Q 357 603 331 590 L 289 573 Q 199 540 125 527 Q 92 518 118 505 Q 158 486 207 503 Q 240 513 276 523 L 329 538 Z" fill="black"></path>
				<path d="M 326 414 Q 327 472 329 538 L 331 590 Q 332 686 353 750 Q 362 765 359 778 Q 352 788 298 821 Q 276 839 255 823 Q 251 819 256 803 Q 289 754 289 704 Q 289 643 289 573 L 284 419 Q 280 335 279 244 Q 273 165 252 93 Q 239 51 265 -6 Q 271 -24 279 -27 Q 285 -33 292 -25 Q 299 -21 310 -1 Q 320 24 319 54 Q 319 94 325 385 L 326 414 Z" fill="black"></path>
				<path d="M 276 523 Q 225 376 62 153 Q 56 143 68 142 Q 92 142 201 281 Q 244 339 284 419 C 352 553 286 551 276 523 Z" fill="black"></path>
				<path d="M 325 385 Q 341 369 375 325 Q 384 313 396 312 Q 403 311 409 321 Q 415 331 411 355 Q 410 371 386 387 Q 341 414 326 414 C 296 417 304 406 325 385 Z" fill="black"></path>
				<path d="M 591 758 Q 645 709 680 699 Q 695 698 703 712 Q 707 725 703 743 Q 684 785 599 798 Q 581 802 572 796 Q 566 795 570 782 Q 573 770 591 758 Z" fill="red"></path>
				<path d="M 497 606 Q 460 599 487 583 Q 532 559 587 574 Q 680 595 777 617 Q 820 629 827 635 Q 837 644 831 652 Q 824 664 794 671 Q 766 675 671 642 Q 562 614 497 606 Z" fill="lightgray"></path>
				<path d="M 499 473 Q 484 440 432 360 Q 426 345 440 350 Q 483 386 539 441 Q 552 457 571 468 Q 587 478 576 492 Q 563 504 540 513 Q 519 522 509 518 Q 499 515 503 504 Q 507 489 499 473 Z" fill="lightgray"></path>
				<path d="M 720 489 Q 765 459 812 423 Q 825 413 840 415 Q 850 416 853 428 Q 856 443 846 468 Q 833 507 712 532 Q 697 533 692 531 Q 688 527 690 515 Q 694 505 720 489 Z" fill="lightgray"></path>
				<path d="M 655 208 Q 697 292 705 327 Q 715 370 726 384 Q 735 397 727 406 Q 715 419 689 427 Q 670 436 650 431 Q 638 427 645 413 Q 666 377 646 314 Q 636 277 619 245 L 600 215 Q 572 179 534 151 Q 482 114 371 77 Q 355 68 375 66 Q 538 57 632 172 L 655 208 Z" fill="lightgray"></path>
				<path d="M 632 172 Q 755 16 818 14 Q 833 14 933 25 Q 946 26 959 31 Q 966 38 954 46 Q 939 53 822 91 Q 746 113 655 208 L 619 245 Q 591 278 560 316 Q 541 341 507 347 Q 497 350 487 343 Q 483 337 491 330 Q 498 324 505 319 Q 527 309 600 215 L 632 172 Z" fill="lightgray"></path>
</g>
		<text x="40" y="140" font-size="128" fill="#999999">5</text></g>
</g>
	<g id="id1:id1" transform="translate(0.0,1024)">
		<g id="id1:id0:id0" transform="matrix(1.0,0,0,1.0,0,0.0)">			<g stroke="lightgray" stroke-width="4" transform="scale(4, 4)"> <rect x="0" y="0" width="256" height="256" fill="white" stroke-width="4"/></g>
			<g transform="scale(0.92, -0.92) translate(60, -920)">					<path d="M 329 538 Q 416 569 417 570 Q 424 577 420 586 Q 413 596 385 600 Q 357 603 331 590 L 289 573 Q 199 540 125 527 Q 92 518 118 505 Q 158 486 207 503 Q 240 513 276 523 L 329 538 Z" fill="black"></path>
				<path d="M 326 414 Q 327 472 329 538 L 331 590 Q 332 686 353 750 Q 362 765 359 778 Q 352 788 298 821 Q 276 839 255 823 Q 251 819 256 803 Q 289 754 289 704 Q 289 643 289 573 L 284 419 Q 280 335 279 244 Q 273 165 252 93 Q 239 51 265 -6 Q 271 -24 279 -27 Q 285 -33 292 -25 Q 299 -21 310 -1 Q 320 24 319 54 Q 319 94 325 385 L 326 414 Z" fill="black"></path>
				<path d="M 276 523 Q 225 376 62 153 Q 56 143 68 142 Q 92 142 201 281 Q 244 339 284 419 C 352 553 286 551 276 523 Z" fill="black"></path>
				<path d="M 325 385 Q 341 369 375 325 Q 384 313 396 312 Q 403 311 409 321 Q 415 331 411 355 Q 410 371 386 387 Q 341 414 326 414 C 296 417 304 406 325 385 Z" fill="black"></path>
				<path d="M 591 758 Q 645 709 680 699 Q 695 698 703 712 Q 707 725 703 743 Q 684 785 599 798 Q 581 802 572 796 Q 566 795 570 782 Q 573 770 591 758 Z" fill="black"></path>
				<path d="M 497 606 Q 460 599 487 583 Q 532 559 587 574 Q 680 595 777 617 Q 820 629 827 635 Q 837 644 831 652 Q 824 664 794 671 Q 766 675 671 642 Q 562 614 497 606 Z" fill="red"></path>
				<path d="M 499 473 Q 484 440 432 360 Q 426 345 440 350 Q 483 386 539 441 Q 552 457 571 468 Q 587 478 576 492 Q 563 504 540 513 Q 519 522 509 518 Q 499 515 503 504 Q 507 489 499 473 Z" fill="lightgray"></path>
				<path d="M 720 489 Q 765 459 812 423 Q 825 413 840 415 Q 850 416 853 428 Q 856 443 846 468 Q 833 507 712 532 Q 697 533 692 531 Q 688 527 690 515 Q 694 505 720 489 Z" fill="lightgray"></path>
				<path d="M 655 208 Q 697 292 705 327 Q 715 370 726 384 Q 735 397 727 406 Q 715 419 689 427 Q 670 436 650 431 Q 638 427 645 413 Q 666 377 646 314 Q 636 277 619 245 L 600 215 Q 572 179 534 151 Q 482 114 371 77 Q 355 68 375 66 Q 538 57 632 172 L 655 208 Z" fill="lightgray"></path>
				<path d="M 632 172 Q 755 16 818 14 Q 833 14 933 25 Q 946 26 959 31 Q 966 38 954 46 Q 939 53 822 91 Q 746 113 655 208 L 619 245 Q 591 278 560 316 Q 541 341 507 347 Q 497 350 487 343 Q 483 337 491 330 Q 498 324 505 319 Q 527 309 600 215 L 632 172 Z" fill="lightgray"></path>
</g>
		<text x="40" y="140" font-size="128" fill="#999999">6</text></g>
		<g id="id1:id1:id1" transform="matrix(1.0,0,0,1.0,1024,0.0)">			<g stroke="lightgray" stroke-width="4" transform="scale(4, 4)"> <rect x="0" y="0" width="256" height="256" fill="white" stroke-width="4"/></g>
			<g transform="scale(0.92, -0.92) translate(60, -920)">					<path d="M 329 538 Q 416 569 417 570 Q 424 577 420 586 Q 413 596 385 600 Q 357 603 331 590 L 289 573 Q 199 540 125 527 Q 92 518 118 505 Q 158 486 207 503 Q 240 513 276 523 L 329 538 Z" fill="black"></path>
				<path d="M 326 414 Q 327 472 329 538 L 331 590 Q 332 686 353 750 Q 362 765 359 778 Q 352 788 298 821 Q 276 839 255 823 Q 251 819 256 803 Q 289 754 289 704 Q 289 643 289 573 L 284 419 Q 280 335 279 244 Q 273 165 252 93 Q 239 51 265 -6 Q 271 -24 279 -27 Q 285 -33 292 -25 Q 299 -21 310 -1 Q 320 24 319 54 Q 319 94 325 385 L 326 414 Z" fill="black"></path>
				<path d="M 276 523 Q 225 376 62 153 Q 56 143 68 142 Q 92 142 201 281 Q 244 339 284 419 C 352 553 286 551 276 523 Z" fill="black"></path>
				<path d="M 325 385 Q 341 369 375 325 Q 384 313 396 312 Q 403 311 409 321 Q 415 331 411 355 Q 410 371 386 387 Q 341 414 326 414 C 296 417 304 406 325 385 Z" fill="black"></path>
				<path d="M 591 758 Q 645 709 680 699 Q 695 698 703 712 Q 707 725 703 743 Q 684 785 599 798 Q 581 802 572 796 Q 566 795 570 782 Q 573 770 591 758 Z" fill="black"></path>
				<path d="M 497 606 Q 460 599 487 583 Q 532 559 587 574 Q 680 595 777 617 Q 820 629 827 635 Q 837 644 831 652 Q 824 664 794 671 Q 766 675 671 642 Q 562 614 497 606 Z" fill="black"></path>
				<path d="M 499 473 Q 484 440 432 360 Q 426 345 440 350 Q 483 386 539 441 Q 552 457 571 468 Q 587 478 576 492 Q 563 504 540 513 Q 519 522 509 518 Q 499 515 503 504 Q 507 489 499 473 Z" fill="red"></path>
				<path d="M 720 489 Q 765 459 812 423 Q 825 413 840 415 Q 850 416 853 428 Q 856 443 846 468 Q 833 507 712 532 Q 697 533 692 531 Q 688 527 690 515 Q 694 505 720 489 Z" fill="lightgray"></path>
				<path d="M 655 208 Q 697 292 705 327 Q 715 370 726 384 Q 735 397 727 406 Q 715 419 689 427 Q 670 436 650 431 Q 638 427 645 413 Q 666 377 646 314 Q 636 277 619 245 L 600 215 Q 572 179 534 151 Q 482 114 371 77 Q 355 68 375 66 Q 538 57 632 172 L 655 208 Z" fill="lightgray"></path>
				<path d="M 632 172 Q 755 16 818 14 Q 833 14 933 25 Q 946 26 959 31 Q 966 38 954 46 Q 939 53 822 91 Q 746 113 655 208 L 619 245 Q 591 278 560 316 Q 541 341 507 347 Q 497 350 487 343 Q 483 337 491 330 Q 498 324 505 319 Q 527 309 600 215 L 632 172 Z" fill="lightgray"></path>
</g>
		<text x="40" y="140" font-size="128" fill="#999999">7</text></g>
		<g id="id1:id2:id2" transform="matrix(1.0,0,0,1.0,2048,0.0)">			<g stroke="lightgray" stroke-width="4" transform="scale(4, 4)"> <rect x="0" y="0" width="256" height="256" fill="white" stroke-width="4"/></g>
			<g transform="scale(0.92, -0.92) translate(60, -920)">					<path d="M 329 538 Q 416 569 417 570 Q 424 577 420 586 Q 413 596 385 600 Q 357 603 331 590 L 289 573 Q 199 540 125 527 Q 92 518 118 505 Q 158 486 207 503 Q 240 513 276 523 L 329 538 Z" fill="black"></path>
				<path d="M 326 414 Q 327 472 329 538 L 331 590 Q 332 686 353 750 Q 362 765 359 778 Q 352 788 298 821 Q 276 839 255 823 Q 251 819 256 803 Q 289 754 289 704 Q 289 643 289 573 L 284 419 Q 280 335 279 244 Q 273 165 252 93 Q 239 51 265 -6 Q 271 -24 279 -27 Q 285 -33 292 -25 Q 299 -21 310 -1 Q 320 24 319 54 Q 319 94 325 385 L 326 414 Z" fill="black"></path>
				<path d="M 276 523 Q 225 376 62 153 Q 56 143 68 142 Q 92 142 201 281 Q 244 339 284 419 C 352 553 286 551 276 523 Z" fill="black"></path>
				<path d="M 325 385 Q 341 369 375 325 Q 384 313 396 312 Q 403 311 409 321 Q 415 331 411 355 Q 410 371 386 387 Q 341 414 326 414 C 296 417 304 406 325 385 Z" fill="black"></path>
				<path d="M 591 758 Q 645 709 680 699 Q 695 698 703 712 Q 707 725 703 743 Q 684 785 599 798 Q 581 802 572 796 Q 566 795 570 782 Q 573 770 591 758 Z" fill="black"></path>
				<path d="M 497 606 Q 460 599 487 583 Q 532 559 587 574 Q 680 595 777 617 Q 820 629 827 635 Q 837 644 831 652 Q 824 664 794 671 Q 766 675 671 642 Q 562 614 497 606 Z" fill="black"></path>
				<path d="M 499 473 Q 484 440 432 360 Q 426 345 440 350 Q 483 386 539 441 Q 552 457 571 468 Q 587 478 576 492 Q 563 504 540 513 Q 519 522 509 518 Q 499 515 503 504 Q 507 489 499 473 Z" fill="black"></path>
				<path d="M 720 489 Q 765 459 812 423 Q 825 413 840 415 Q 850 416 853 428 Q 856 443 846 468 Q 833 507 712 532 Q 697 533 692 531 Q 688 527 690 515 Q 694 505 720 489 Z" fill="red"></path>
				<path d="M 655 208 Q 697 292 705 327 Q 715 370 726 384 Q 735 397 727 406 Q 715 419 689 427 Q 670 436 650 431 Q 638 427 645 413 Q 666 377 646 314 Q 636 277 619 245 L 600 215 Q 572 179 534 151 Q 482 114 371 77 Q 355 68 375 66 Q 538 57 632 172 L 655 208 Z" fill="lightgray"></path>
				<path d="M 632 172 Q 755 16 818 14 Q 833 14 933 25 Q 946 26 959 31 Q 966 38 954 46 Q 939 53 822 91 Q 746 113 655 208 L 619 245 Q 591 278 560 316 Q 541 341 507 347 Q 497 350 487 343 Q 483 337 491 330 Q 498 324 505 319 Q 527 309 600 215 L 632 172 Z" fill="lightgray"></path>
</g>
		<text x="40" y="140" font-size="128" fill="#999999">8</text></g>
		<g id="id1:id3:id3" transform="matrix(1.0,0,0,1.0,3072,0.0)">			<g stroke="lightgray" stroke-width="4" transform="scale(4, 4)"> <rect x="0" y="0" width="256" height="256" fill="white" stroke-width="4"/></g>
			<g transform="scale(0.92, -0.92) translate(60, -920)">					<path d="M 329 538 Q 416 569 417 570 Q 424 577 420 586 Q 413 596 385 600 Q 357 603 331 590 L 289 573 Q 199 540 125 527 Q 92 518 118 505 Q 158 486 207 503 Q 240 513 276 523 L 329 538 Z" fill="black"></path>
				<path d="M 326 414 Q 327 472 329 538 L 331 590 Q 332 686 353 750 Q 362 765 359 778 Q 352 788 298 821 Q 276 839 255 823 Q 251 819 256 803 Q 289 754 289 704 Q 289 643 289 573 L 284 419 Q 280 335 279 244 Q 273 165 252 93 Q 239 51 265 -6 Q 271 -24 279 -27 Q 285 -33 292 -25 Q 299 -21 310 -1 Q 320 24 319 54 Q 319 94 325 385 L 326 414 Z" fill="black"></path>
				<path d="M 276 523 Q 225 376 62 153 Q 56 143 68 142 Q 92 142 201 281 Q 244 339 284 419 C 352 553 286 551 276 523 Z" fill="black"></path>
				<path d="M 325 385 Q 341 369 375 325 Q 384 313 396 312 Q 403 311 409 321 Q 415 331 411 355 Q 410 371 386 387 Q 341 414 326 414 C 296 417 304 406 325 385 Z" fill="black"></path>
				<path d="M 591 758 Q 645 709 680 699 Q 695 698 703 712 Q 707 725 703 743 Q 684 785 599 798 Q 581 802 572 796 Q 566 795 570 782 Q 573 770 591 758 Z" fill="black"></path>
				<path d="M 497 606 Q 460 599 487 583 Q 532 559 587 574 Q 680 595 777 617 Q 820 629 827 635 Q 837 644 831 652 Q 824 664 794 671 Q 766 675 671 642 Q 562 614 497 606 Z" fill="black"></path>
				<path d="M 499 473 Q 484 440 432 360 Q 426 345 440 350 Q 483 386 539 441 Q 552 457 571 468 Q 587 478 576 492 Q 563 504 540 513 Q 519 522 509 518 Q 499 515 503 504 Q 507 489 499 473 Z" fill="black"></path>
				<path d="M 720 489 Q 765 459 812 423 Q 825 413 840 415 Q 850 416 853 428 Q 856 443 846 468 Q 833 507 712 532 Q 697 533 692 531 Q 688 527 690 515 Q 694 505 720 489 Z" fill="black"></path>
				<path d="M 655 208 Q 697 292 705 327 Q 715 370 726 384 Q 735 397 727 406 Q 715 419 689 427 Q 670 436 650 431 Q 638 427 645 413 Q 666 377 646 314 Q 636 277 619 245 L 600 215 Q 572 179 534 151 Q 482 114 371 77 Q 355 68 375 66 Q 538 57 632 172 L 655 208 Z" fill="red"></path>
				<path d="M 632 172 Q 755 16 818 14 Q 833 14 933 25 Q 946 26 959 31 Q 966 38 954 46 Q 939 53 822 91 Q 746 113 655 208 L 619 245 Q 591 278 560 316 Q 541 341 507 347 Q 497 350 487 343 Q 483 337 491 330 Q 498 324 505 319 Q 527 309 600 215 L 632 172 Z" fill="lightgray"></path>
</g>
		<text x="40" y="140" font-size="128" fill="#999999">9</text></g>
		<g id="id1:id4:id4" transform="matrix(1.0,0,0,1.0,4096,0.0)">			<g stroke="lightgray" stroke-width="4" transform="scale(4, 4)"> <rect x="0" y="0" width="256" height="256" fill="white" stroke-width="4"/></g>
			<g transform="scale(0.92, -0.92) translate(60, -920)">					<path d="M 329 538 Q 416 569 417 570 Q 424 577 420 586 Q 413 596 385 600 Q 357 603 331 590 L 289 573 Q 199 540 125 527 Q 92 518 118 505 Q 158 486 207 503 Q 240 513 276 523 L 329 538 Z" fill="black"></path>
				<path d="M 326 414 Q 327 472 329 538 L 331 590 Q 332 686 353 750 Q 362 765 359 778 Q 352 788 298 821 Q 276 839 255 823 Q 251 819 256 803 Q 289 754 289 704 Q 289 643 289 573 L 284 419 Q 280 335 279 244 Q 273 165 252 93 Q 239 51 265 -6 Q 271 -24 279 -27 Q 285 -33 292 -25 Q 299 -21 310 -1 Q 320 24 319 54 Q 319 94 325 385 L 326 414 Z" fill="black"></path>
				<path d="M 276 523 Q 225 376 62 153 Q 56 143 68 142 Q 92 142 201 281 Q 244 339 284 419 C 352 553 286 551 276 523 Z" fill="black"></path>
				<path d="M 325 385 Q 341 369 375 325 Q 384 313 396 312 Q 403 311 409 321 Q 415 331 411 355 Q 410 371 386 387 Q 341 414 326 414 C 296 417 304 406 325 385 Z" fill="black"></path>
				<path d="M 591 758 Q 645 709 680 699 Q 695 698 703 712 Q 707 725 703 743 Q 684 785 599 798 Q 581 802 572 796 Q 566 795 570 782 Q 573 770 591 758 Z" fill="black"></path>
				<path d="M 497 606 Q 460 599 487 583 Q 532 559 587 574 Q 680 595 777 617 Q 820 629 827 635 Q 837 644 831 652 Q 824 664 794 671 Q 766 675 671 642 Q 562 614 497 606 Z" fill="black"></path>
				<path d="M 499 473 Q 484 440 432 360 Q 426 345 440 350 Q 483 386 539 441 Q 552 457 571 468 Q 587 478 576 492 Q 563 504 540 513 Q 519 522 509 518 Q 499 515 503 504 Q 507 489 499 473 Z" fill="black"></path>
				<path d="M 720 489 Q 765 459 812 423 Q 825 413 840 415 Q 850 416 853 428 Q 856 443 846 468 Q 833 507 712 532 Q 697 533 692 531 Q 688 527 690 515 Q 694 505 720 489 Z" fill="black"></path>
				<path d="M 655 208 Q 697 292 705 327 Q 715 370 726 384 Q 735 397 727 406 Q 715 419 689 427 Q 670 436 650 431 Q 638 427 645 413 Q 666 377 646 314 Q 636 277 619 245 L 600 215 Q 572 179 534 151 Q 482 114 371 77 Q 355 68 375 66 Q 538 57 632 172 L 655 208 Z" fill="black"></path>
				<path d="M 632 172 Q 755 16 818 14 Q 833 14 933 25 Q 946 26 959 31 Q 966 38 954 46 Q 939 53 822 91 Q 746 113 655 208 L 619 245 Q 591 278 560 316 Q 541 341 507 347 Q 497 350 487 343 Q 483 337 491 330 Q 498 324 505 319 Q 527 309 600 215 L 632 172 Z" fill="red"></path>
</g>
		<text x="40" y="140" font-size="128" fill="#999999">10</text></g>
</g>
</svg>
