<?xml version="1.0" standalone="no"?>
<!DOCTYPE svg PUBLIC "-//W3C//DTD SVG 1.1//EN"
 "http://www.w3.org/Graphics/SVG/1.1/DTD/svg11.dtd">
<!-- generate by Handict dictionary app com.asnsami.handict -->

<svg xmlns="http://www.w3.org/2000/svg" xmlns:sodipodi="http://sodipodi.sourceforge.net/DTD/sodipodi-0.dtd" version="1.1" width="640" height="384" viewBox="0 0 5120 3072">
	<g id="id0:id0" transform="translate(0.0,0)">
		<g id="id0:id0:id0" transform="matrix(1.0,0,0,1.0,0,0.0)">			<g stroke="lightgray" stroke-width="4" transform="scale(4, 4)"> <rect x="0" y="0" width="256" height="256" fill="white" stroke-width="4"/></g>
			<g transform="scale(0.92, -0.92) translate(60, -920)">					<path d="M 367 621 Q 460 648 464 650 Q 471 657 467 665 Q 460 675 433 681 Q 402 685 372 671 L 329 655 Q 235 633 195 626 Q 162 619 186 605 Q 222 587 286 602 Q 296 605 310 607 L 367 621 Z" fill="red"></path>
				<path d="M 327 554 Q 324 467 315 432 Q 314 422 330 382 Q 339 367 353 375 Q 366 387 363 484 Q 362 554 367 621 L 372 671 Q 378 728 396 760 Q 402 769 391 782 Q 343 824 314 814 Q 301 810 307 796 Q 337 748 329 655 L 327 554 Z" fill="lightgray"></path>
				<path d="M 310 607 Q 258 516 133 392 Q 127 383 137 381 Q 149 378 241 453 Q 284 490 327 554 C 372 620 325 633 310 607 Z" fill="lightgray"></path>
				<path d="M 378 551 Q 423 509 445 511 Q 455 512 459 528 Q 458 538 447 554 Q 437 564 419 567 Q 389 574 378 573 Q 371 573 371 564 Q 371 557 378 551 Z" fill="lightgray"></path>
				<path d="M 653 651 Q 801 690 804 691 Q 813 700 808 708 Q 801 720 770 726 Q 743 732 657 701 L 611 688 Q 568 679 521 674 Q 484 667 511 650 Q 548 634 597 638 L 653 651 Z" fill="lightgray"></path>
				<path d="M 651 631 Q 652 641 653 651 L 657 701 Q 666 765 679 790 Q 685 800 674 813 Q 622 855 593 845 Q 580 841 586 826 Q 610 787 611 688 L 611 580 Q 610 487 601 450 Q 600 435 606 419 Q 612 410 617 398 Q 627 383 641 391 Q 651 400 652 466 Q 648 523 650 597 L 651 631 Z" fill="lightgray"></path>
				<path d="M 597 638 Q 558 557 452 435 Q 448 426 456 425 Q 460 424 469 431 Q 556 491 611 580 C 657 653 610 665 597 638 Z" fill="lightgray"></path>
				<path d="M 650 597 Q 705 518 775 434 Q 790 419 814 420 Q 898 426 923 431 Q 930 432 932 437 Q 932 441 922 447 Q 805 495 746 544 Q 701 583 651 631 C 629 652 633 622 650 597 Z" fill="lightgray"></path>
				<path d="M 382 211 Q 392 281 398 296 C 404 319 404 319 398 323 Q 391 330 371 337 Q 343 350 329 345 Q 319 341 327 326 Q 351 191 291 91 Q 255 28 143 -32 Q 121 -44 148 -43 Q 194 -46 264 -2 Q 342 40 379 192 L 382 211 Z" fill="lightgray"></path>
				<path d="M 398 296 Q 432 300 518 323 Q 531 327 536 321 Q 542 312 534 218 Q 519 62 602 1 Q 692 -56 785 -51 Q 845 -45 902 -17 Q 930 -5 918 25 Q 897 71 890 143 Q 887 164 882 168 Q 872 172 869 157 Q 839 48 821 35 Q 803 22 759 16 Q 701 12 662 29 Q 622 48 592 86 Q 559 147 597 271 Q 610 310 636 329 Q 663 351 632 364 Q 616 373 580 384 Q 556 393 533 377 Q 494 352 398 323 C 369 314 368 291 398 296 Z" fill="lightgray"></path>
				<path d="M 379 192 Q 383 185 399 172 Q 427 147 458 117 Q 468 107 481 106 Q 488 106 493 117 Q 497 127 491 151 Q 485 179 397 209 Q 387 213 382 211 C 367 209 367 209 379 192 Z" fill="lightgray"></path>
</g>
		<text x="40" y="140" font-size="128" fill="#999999">1</text></g>
		<g id="id0:id1:id1" transform="matrix(1.0,0,0,1.0,1024,0.0)">			<g stroke="lightgray" stroke-width="4" transform="scale(4, 4)"> <rect x="0" y="0" width="256" height="256" fill="white" stroke-width="4"/></g>
			<g transform="scale(0.92, -0.92) translate(60, -920)">					<path d="M 367 621 Q 460 648 464 650 Q 471 657 467 665 Q 460 675 433 681 Q 402 685 372 671 L 329 655 Q 235 633 195 626 Q 162 619 186 605 Q 222 587 286 602 Q 296 605 310 607 L 367 621 Z" fill="black"></path>
				<path d="M 327 554 Q 324 467 315 432 Q 314 422 330 382 Q 339 367 353 375 Q 366 387 363 484 Q 362 554 367 621 L 372 671 Q 378 728 396 760 Q 402 769 391 782 Q 343 824 314 814 Q 301 810 307 796 Q 337 748 329 655 L 327 554 Z" fill="red"></path>
				<path d="M 310 607 Q 258 516 133 392 Q 127 383 137 381 Q 149 378 241 453 Q 284 490 327 554 C 372 620 325 633 310 607 Z" fill="lightgray"></path>
				<path d="M 378 551 Q 423 509 445 511 Q 455 512 459 528 Q 458 538 447 554 Q 437 564 419 567 Q 389 574 378 573 Q 371 573 371 564 Q 371 557 378 551 Z" fill="lightgray"></path>
				<path d="M 653 651 Q 801 690 804 691 Q 813 700 808 708 Q 801 720 770 726 Q 743 732 657 701 L 611 688 Q 568 679 521 674 Q 484 667 511 650 Q 548 634 597 638 L 653 651 Z" fill="lightgray"></path>
				<path d="M 651 631 Q 652 641 653 651 L 657 701 Q 666 765 679 790 Q 685 800 674 813 Q 622 855 593 845 Q 580 841 586 826 Q 610 787 611 688 L 611 580 Q 610 487 601 450 Q 600 435 606 419 Q 612 410 617 398 Q 627 383 641 391 Q 651 400 652 466 Q 648 523 650 597 L 651 631 Z" fill="lightgray"></path>
				<path d="M 597 638 Q 558 557 452 435 Q 448 426 456 425 Q 460 424 469 431 Q 556 491 611 580 C 657 653 610 665 597 638 Z" fill="lightgray"></path>
				<path d="M 650 597 Q 705 518 775 434 Q 790 419 814 420 Q 898 426 923 431 Q 930 432 932 437 Q 932 441 922 447 Q 805 495 746 544 Q 701 583 651 631 C 629 652 633 622 650 597 Z" fill="lightgray"></path>
				<path d="M 382 211 Q 392 281 398 296 C 404 319 404 319 398 323 Q 391 330 371 337 Q 343 350 329 345 Q 319 341 327 326 Q 351 191 291 91 Q 255 28 143 -32 Q 121 -44 148 -43 Q 194 -46 264 -2 Q 342 40 379 192 L 382 211 Z" fill="lightgray"></path>
				<path d="M 398 296 Q 432 300 518 323 Q 531 327 536 321 Q 542 312 534 218 Q 519 62 602 1 Q 692 -56 785 -51 Q 845 -45 902 -17 Q 930 -5 918 25 Q 897 71 890 143 Q 887 164 882 168 Q 872 172 869 157 Q 839 48 821 35 Q 803 22 759 16 Q 701 12 662 29 Q 622 48 592 86 Q 559 147 597 271 Q 610 310 636 329 Q 663 351 632 364 Q 616 373 580 384 Q 556 393 533 377 Q 494 352 398 323 C 369 314 368 291 398 296 Z" fill="lightgray"></path>
				<path d="M 379 192 Q 383 185 399 172 Q 427 147 458 117 Q 468 107 481 106 Q 488 106 493 117 Q 497 127 491 151 Q 485 179 397 209 Q 387 213 382 211 C 367 209 367 209 379 192 Z" fill="lightgray"></path>
</g>
		<text x="40" y="140" font-size="128" fill="#999999">2</text></g>
		<g id="id0:id2:id2" transform="matrix(1.0,0,0,1.0,2048,0.0)">			<g stroke="lightgray" stroke-width="4" transform="scale(4, 4)"> <rect x="0" y="0" width="256" height="256" fill="white" stroke-width="4"/></g>
			<g transform="scale(0.92, -0.92) translate(60, -920)">					<path d="M 367 621 Q 460 648 464 650 Q 471 657 467 665 Q 460 675 433 681 Q 402 685 372 671 L 329 655 Q 235 633 195 626 Q 162 619 186 605 Q 222 587 286 602 Q 296 605 310 607 L 367 621 Z" fill="black"></path>
				<path d="M 327 554 Q 324 467 315 432 Q 314 422 330 382 Q 339 367 353 375 Q 366 387 363 484 Q 362 554 367 621 L 372 671 Q 378 728 396 760 Q 402 769 391 782 Q 343 824 314 814 Q 301 810 307 796 Q 337 748 329 655 L 327 554 Z" fill="black"></path>
				<path d="M 310 607 Q 258 516 133 392 Q 127 383 137 381 Q 149 378 241 453 Q 284 490 327 554 C 372 620 325 633 310 607 Z" fill="red"></path>
				<path d="M 378 551 Q 423 509 445 511 Q 455 512 459 528 Q 458 538 447 554 Q 437 564 419 567 Q 389 574 378 573 Q 371 573 371 564 Q 371 557 378 551 Z" fill="lightgray"></path>
				<path d="M 653 651 Q 801 690 804 691 Q 813 700 808 708 Q 801 720 770 726 Q 743 732 657 701 L 611 688 Q 568 679 521 674 Q 484 667 511 650 Q 548 634 597 638 L 653 651 Z" fill="lightgray"></path>
				<path d="M 651 631 Q 652 641 653 651 L 657 701 Q 666 765 679 790 Q 685 800 674 813 Q 622 855 593 845 Q 580 841 586 826 Q 610 787 611 688 L 611 580 Q 610 487 601 450 Q 600 435 606 419 Q 612 410 617 398 Q 627 383 641 391 Q 651 400 652 466 Q 648 523 650 597 L 651 631 Z" fill="lightgray"></path>
				<path d="M 597 638 Q 558 557 452 435 Q 448 426 456 425 Q 460 424 469 431 Q 556 491 611 580 C 657 653 610 665 597 638 Z" fill="lightgray"></path>
				<path d="M 650 597 Q 705 518 775 434 Q 790 419 814 420 Q 898 426 923 431 Q 930 432 932 437 Q 932 441 922 447 Q 805 495 746 544 Q 701 583 651 631 C 629 652 633 622 650 597 Z" fill="lightgray"></path>
				<path d="M 382 211 Q 392 281 398 296 C 404 319 404 319 398 323 Q 391 330 371 337 Q 343 350 329 345 Q 319 341 327 326 Q 351 191 291 91 Q 255 28 143 -32 Q 121 -44 148 -43 Q 194 -46 264 -2 Q 342 40 379 192 L 382 211 Z" fill="lightgray"></path>
				<path d="M 398 296 Q 432 300 518 323 Q 531 327 536 321 Q 542 312 534 218 Q 519 62 602 1 Q 692 -56 785 -51 Q 845 -45 902 -17 Q 930 -5 918 25 Q 897 71 890 143 Q 887 164 882 168 Q 872 172 869 157 Q 839 48 821 35 Q 803 22 759 16 Q 701 12 662 29 Q 622 48 592 86 Q 559 147 597 271 Q 610 310 636 329 Q 663 351 632 364 Q 616 373 580 384 Q 556 393 533 377 Q 494 352 398 323 C 369 314 368 291 398 296 Z" fill="lightgray"></path>
				<path d="M 379 192 Q 383 185 399 172 Q 427 147 458 117 Q 468 107 481 106 Q 488 106 493 117 Q 497 127 491 151 Q 485 179 397 209 Q 387 213 382 211 C 367 209 367 209 379 192 Z" fill="lightgray"></path>
</g>
		<text x="40" y="140" font-size="128" fill="#999999">3</text></g>
		<g id="id0:id3:id3" transform="matrix(1.0,0,0,1.0,3072,0.0)">			<g stroke="lightgray" stroke-width="4" transform="scale(4, 4)"> <rect x="0" y="0" width="256" height="256" fill="white" stroke-width="4"/></g>
			<g transform="scale(0.92, -0.92) translate(60, -920)">					<path d="M 367 621 Q 460 648 464 650 Q 471 657 467 665 Q 460 675 433 681 Q 402 685 372 671 L 329 655 Q 235 633 195 626 Q 162 619 186 605 Q 222 587 286 602 Q 296 605 310 607 L 367 621 Z" fill="black"></path>
				<path d="M 327 554 Q 324 467 315 432 Q 314 422 330 382 Q 339 367 353 375 Q 366 387 363 484 Q 362 554 367 621 L 372 671 Q 378 728 396 760 Q 402 769 391 782 Q 343 824 314 814 Q 301 810 307 796 Q 337 748 329 655 L 327 554 Z" fill="black"></path>
				<path d="M 310 607 Q 258 516 133 392 Q 127 383 137 381 Q 149 378 241 453 Q 284 490 327 554 C 372 620 325 633 310 607 Z" fill="black"></path>
				<path d="M 378 551 Q 423 509 445 511 Q 455 512 459 528 Q 458 538 447 554 Q 437 564 419 567 Q 389 574 378 573 Q 371 573 371 564 Q 371 557 378 551 Z" fill="red"></path>
				<path d="M 653 651 Q 801 690 804 691 Q 813 700 808 708 Q 801 720 770 726 Q 743 732 657 701 L 611 688 Q 568 679 521 674 Q 484 667 511 650 Q 548 634 597 638 L 653 651 Z" fill="lightgray"></path>
				<path d="M 651 631 Q 652 641 653 651 L 657 701 Q 666 765 679 790 Q 685 800 674 813 Q 622 855 593 845 Q 580 841 586 826 Q 610 787 611 688 L 611 580 Q 610 487 601 450 Q 600 435 606 419 Q 612 410 617 398 Q 627 383 641 391 Q 651 400 652 466 Q 648 523 650 597 L 651 631 Z" fill="lightgray"></path>
				<path d="M 597 638 Q 558 557 452 435 Q 448 426 456 425 Q 460 424 469 431 Q 556 491 611 580 C 657 653 610 665 597 638 Z" fill="lightgray"></path>
				<path d="M 650 597 Q 705 518 775 434 Q 790 419 814 420 Q 898 426 923 431 Q 930 432 932 437 Q 932 441 922 447 Q 805 495 746 544 Q 701 583 651 631 C 629 652 633 622 650 597 Z" fill="lightgray"></path>
				<path d="M 382 211 Q 392 281 398 296 C 404 319 404 319 398 323 Q 391 330 371 337 Q 343 350 329 345 Q 319 341 327 326 Q 351 191 291 91 Q 255 28 143 -32 Q 121 -44 148 -43 Q 194 -46 264 -2 Q 342 40 379 192 L 382 211 Z" fill="lightgray"></path>
				<path d="M 398 296 Q 432 300 518 323 Q 531 327 536 321 Q 542 312 534 218 Q 519 62 602 1 Q 692 -56 785 -51 Q 845 -45 902 -17 Q 930 -5 918 25 Q 897 71 890 143 Q 887 164 882 168 Q 872 172 869 157 Q 839 48 821 35 Q 803 22 759 16 Q 701 12 662 29 Q 622 48 592 86 Q 559 147 597 271 Q 610 310 636 329 Q 663 351 632 364 Q 616 373 580 384 Q 556 393 533 377 Q 494 352 398 323 C 369 314 368 291 398 296 Z" fill="lightgray"></path>
				<path d="M 379 192 Q 383 185 399 172 Q 427 147 458 117 Q 468 107 481 106 Q 488 106 493 117 Q 497 127 491 151 Q 485 179 397 209 Q 387 213 382 211 C 367 209 367 209 379 192 Z" fill="lightgray"></path>
</g>
		<text x="40" y="140" font-size="128" fill="#999999">4</text></g>
		<g id="id0:id4:id4" transform="matrix(1.0,0,0,1.0,4096,0.0)">			<g stroke="lightgray" stroke-width="4" transform="scale(4, 4)"> <rect x="0" y="0" width="256" height="256" fill="white" stroke-width="4"/></g>
			<g transform="scale(0.92, -0.92) translate(60, -920)">					<path d="M 367 621 Q 460 648 464 650 Q 471 657 467 665 Q 460 675 433 681 Q 402 685 372 671 L 329 655 Q 235 633 195 626 Q 162 619 186 605 Q 222 587 286 602 Q 296 605 310 607 L 367 621 Z" fill="black"></path>
				<path d="M 327 554 Q 324 467 315 432 Q 314 422 330 382 Q 339 367 353 375 Q 366 387 363 484 Q 362 554 367 621 L 372 671 Q 378 728 396 760 Q 402 769 391 782 Q 343 824 314 814 Q 301 810 307 796 Q 337 748 329 655 L 327 554 Z" fill="black"></path>
				<path d="M 310 607 Q 258 516 133 392 Q 127 383 137 381 Q 149 378 241 453 Q 284 490 327 554 C 372 620 325 633 310 607 Z" fill="black"></path>
				<path d="M 378 551 Q 423 509 445 511 Q 455 512 459 528 Q 458 538 447 554 Q 437 564 419 567 Q 389 574 378 573 Q 371 573 371 564 Q 371 557 378 551 Z" fill="black"></path>
				<path d="M 653 651 Q 801 690 804 691 Q 813 700 808 708 Q 801 720 770 726 Q 743 732 657 701 L 611 688 Q 568 679 521 674 Q 484 667 511 650 Q 548 634 597 638 L 653 651 Z" fill="red"></path>
				<path d="M 651 631 Q 652 641 653 651 L 657 701 Q 666 765 679 790 Q 685 800 674 813 Q 622 855 593 845 Q 580 841 586 826 Q 610 787 611 688 L 611 580 Q 610 487 601 450 Q 600 435 606 419 Q 612 410 617 398 Q 627 383 641 391 Q 651 400 652 466 Q 648 523 650 597 L 651 631 Z" fill="lightgray"></path>
				<path d="M 597 638 Q 558 557 452 435 Q 448 426 456 425 Q 460 424 469 431 Q 556 491 611 580 C 657 653 610 665 597 638 Z" fill="lightgray"></path>
				<path d="M 650 597 Q 705 518 775 434 Q 790 419 814 420 Q 898 426 923 431 Q 930 432 932 437 Q 932 441 922 447 Q 805 495 746 544 Q 701 583 651 631 C 629 652 633 622 650 597 Z" fill="lightgray"></path>
				<path d="M 382 211 Q 392 281 398 296 C 404 319 404 319 398 323 Q 391 330 371 337 Q 343 350 329 345 Q 319 341 327 326 Q 351 191 291 91 Q 255 28 143 -32 Q 121 -44 148 -43 Q 194 -46 264 -2 Q 342 40 379 192 L 382 211 Z" fill="lightgray"></path>
				<path d="M 398 296 Q 432 300 518 323 Q 531 327 536 321 Q 542 312 534 218 Q 519 62 602 1 Q 692 -56 785 -51 Q 845 -45 902 -17 Q 930 -5 918 25 Q 897 71 890 143 Q 887 164 882 168 Q 872 172 869 157 Q 839 48 821 35 Q 803 22 759 16 Q 701 12 662 29 Q 622 48 592 86 Q 559 147 597 271 Q 610 310 636 329 Q 663 351 632 364 Q 616 373 580 384 Q 556 393 533 377 Q 494 352 398 323 C 369 314 368 291 398 296 Z" fill="lightgray"></path>
				<path d="M 379 192 Q 383 185 399 172 Q 427 147 458 117 Q 468 107 481 106 Q 488 106 493 117 Q 497 127 491 151 Q 485 179 397 209 Q 387 213 382 211 C 367 209 367 209 379 192 Z" fill="lightgray"></path>
</g>
		<text x="40" y="140" font-size="128" fill="#999999">5</text></g>
</g>
	<g id="id1:id1" transform="translate(0.0,1024)">
		<g id="id1:id0:id0" transform="matrix(1.0,0,0,1.0,0,0.0)">			<g stroke="lightgray" stroke-width="4" transform="scale(4, 4)"> <rect x="0" y="0" width="256" height="256" fill="white" stroke-width="4"/></g>
			<g transform="scale(0.92, -0.92) translate(60, -920)">					<path d="M 367 621 Q 460 648 464 650 Q 471 657 467 665 Q 460 675 433 681 Q 402 685 372 671 L 329 655 Q 235 633 195 626 Q 162 619 186 605 Q 222 587 286 602 Q 296 605 310 607 L 367 621 Z" fill="black"></path>
				<path d="M 327 554 Q 324 467 315 432 Q 314 422 330 382 Q 339 367 353 375 Q 366 387 363 484 Q 362 554 367 621 L 372 671 Q 378 728 396 760 Q 402 769 391 782 Q 343 824 314 814 Q 301 810 307 796 Q 337 748 329 655 L 327 554 Z" fill="black"></path>
				<path d="M 310 607 Q 258 516 133 392 Q 127 383 137 381 Q 149 378 241 453 Q 284 490 327 554 C 372 620 325 633 310 607 Z" fill="black"></path>
				<path d="M 378 551 Q 423 509 445 511 Q 455 512 459 528 Q 458 538 447 554 Q 437 564 419 567 Q 389 574 378 573 Q 371 573 371 564 Q 371 557 378 551 Z" fill="black"></path>
				<path d="M 653 651 Q 801 690 804 691 Q 813 700 808 708 Q 801 720 770 726 Q 743 732 657 701 L 611 688 Q 568 679 521 674 Q 484 667 511 650 Q 548 634 597 638 L 653 651 Z" fill="black"></path>
				<path d="M 651 631 Q 652 641 653 651 L 657 701 Q 666 765 679 790 Q 685 800 674 813 Q 622 855 593 845 Q 580 841 586 826 Q 610 787 611 688 L 611 580 Q 610 487 601 450 Q 600 435 606 419 Q 612 410 617 398 Q 627 383 641 391 Q 651 400 652 466 Q 648 523 650 597 L 651 631 Z" fill="red"></path>
				<path d="M 597 638 Q 558 557 452 435 Q 448 426 456 425 Q 460 424 469 431 Q 556 491 611 580 C 657 653 610 665 597 638 Z" fill="lightgray"></path>
				<path d="M 650 597 Q 705 518 775 434 Q 790 419 814 420 Q 898 426 923 431 Q 930 432 932 437 Q 932 441 922 447 Q 805 495 746 544 Q 701 583 651 631 C 629 652 633 622 650 597 Z" fill="lightgray"></path>
				<path d="M 382 211 Q 392 281 398 296 C 404 319 404 319 398 323 Q 391 330 371 337 Q 343 350 329 345 Q 319 341 327 326 Q 351 191 291 91 Q 255 28 143 -32 Q 121 -44 148 -43 Q 194 -46 264 -2 Q 342 40 379 192 L 382 211 Z" fill="lightgray"></path>
				<path d="M 398 296 Q 432 300 518 323 Q 531 327 536 321 Q 542 312 534 218 Q 519 62 602 1 Q 692 -56 785 -51 Q 845 -45 902 -17 Q 930 -5 918 25 Q 897 71 890 143 Q 887 164 882 168 Q 872 172 869 157 Q 839 48 821 35 Q 803 22 759 16 Q 701 12 662 29 Q 622 48 592 86 Q 559 147 597 271 Q 610 310 636 329 Q 663 351 632 364 Q 616 373 580 384 Q 556 393 533 377 Q 494 352 398 323 C 369 314 368 291 398 296 Z" fill="lightgray"></path>
				<path d="M 379 192 Q 383 185 399 172 Q 427 147 458 117 Q 468 107 481 106 Q 488 106 493 117 Q 497 127 491 151 Q 485 179 397 209 Q 387 213 382 211 C 367 209 367 209 379 192 Z" fill="lightgray"></path>
</g>
		<text x="40" y="140" font-size="128" fill="#999999">6</text></g>
		<g id="id1:id1:id1" transform="matrix(1.0,0,0,1.0,1024,0.0)">			<g stroke="lightgray" stroke-width="4" transform="scale(4, 4)"> <rect x="0" y="0" width="256" height="256" fill="white" stroke-width="4"/></g>
			<g transform="scale(0.92, -0.92) translate(60, -920)">					<path d="M 367 621 Q 460 648 464 650 Q 471 657 467 665 Q 460 675 433 681 Q 402 685 372 671 L 329 655 Q 235 633 195 626 Q 162 619 186 605 Q 222 587 286 602 Q 296 605 310 607 L 367 621 Z" fill="black"></path>
				<path d="M 327 554 Q 324 467 315 432 Q 314 422 330 382 Q 339 367 353 375 Q 366 387 363 484 Q 362 554 367 621 L 372 671 Q 378 728 396 760 Q 402 769 391 782 Q 343 824 314 814 Q 301 810 307 796 Q 337 748 329 655 L 327 554 Z" fill="black"></path>
				<path d="M 310 607 Q 258 516 133 392 Q 127 383 137 381 Q 149 378 241 453 Q 284 490 327 554 C 372 620 325 633 310 607 Z" fill="black"></path>
				<path d="M 378 551 Q 423 509 445 511 Q 455 512 459 528 Q 458 538 447 554 Q 437 564 419 567 Q 389 574 378 573 Q 371 573 371 564 Q 371 557 378 551 Z" fill="black"></path>
				<path d="M 653 651 Q 801 690 804 691 Q 813 700 808 708 Q 801 720 770 726 Q 743 732 657 701 L 611 688 Q 568 679 521 674 Q 484 667 511 650 Q 548 634 597 638 L 653 651 Z" fill="black"></path>
				<path d="M 651 631 Q 652 641 653 651 L 657 701 Q 666 765 679 790 Q 685 800 674 813 Q 622 855 593 845 Q 580 841 586 826 Q 610 787 611 688 L 611 580 Q 610 487 601 450 Q 600 435 606 419 Q 612 410 617 398 Q 627 383 641 391 Q 651 400 652 466 Q 648 523 650 597 L 651 631 Z" fill="black"></path>
				<path d="M 597 638 Q 558 557 452 435 Q 448 426 456 425 Q 460 424 469 431 Q 556 491 611 580 C 657 653 610 665 597 638 Z" fill="red"></path>
				<path d="M 650 597 Q 705 518 775 434 Q 790 419 814 420 Q 898 426 923 431 Q 930 432 932 437 Q 932 441 922 447 Q 805 495 746 544 Q 701 583 651 631 C 629 652 633 622 650 597 Z" fill="lightgray"></path>
				<path d="M 382 211 Q 392 281 398 296 C 404 319 404 319 398 323 Q 391 330 371 337 Q 343 350 329 345 Q 319 341 327 326 Q 351 191 291 91 Q 255 28 143 -32 Q 121 -44 148 -43 Q 194 -46 264 -2 Q 342 40 379 192 L 382 211 Z" fill="lightgray"></path>
				<path d="M 398 296 Q 432 300 518 323 Q 531 327 536 321 Q 542 312 534 218 Q 519 62 602 1 Q 692 -56 785 -51 Q 845 -45 902 -17 Q 930 -5 918 25 Q 897 71 890 143 Q 887 164 882 168 Q 872 172 869 157 Q 839 48 821 35 Q 803 22 759 16 Q 701 12 662 29 Q 622 48 592 86 Q 559 147 597 271 Q 610 310 636 329 Q 663 351 632 364 Q 616 373 580 384 Q 556 393 533 377 Q 494 352 398 323 C 369 314 368 291 398 296 Z" fill="lightgray"></path>
				<path d="M 379 192 Q 383 185 399 172 Q 427 147 458 117 Q 468 107 481 106 Q 488 106 493 117 Q 497 127 491 151 Q 485 179 397 209 Q 387 213 382 211 C 367 209 367 209 379 192 Z" fill="lightgray"></path>
</g>
		<text x="40" y="140" font-size="128" fill="#999999">7</text></g>
		<g id="id1:id2:id2" transform="matrix(1.0,0,0,1.0,2048,0.0)">			<g stroke="lightgray" stroke-width="4" transform="scale(4, 4)"> <rect x="0" y="0" width="256" height="256" fill="white" stroke-width="4"/></g>
			<g transform="scale(0.92, -0.92) translate(60, -920)">					<path d="M 367 621 Q 460 648 464 650 Q 471 657 467 665 Q 460 675 433 681 Q 402 685 372 671 L 329 655 Q 235 633 195 626 Q 162 619 186 605 Q 222 587 286 602 Q 296 605 310 607 L 367 621 Z" fill="black"></path>
				<path d="M 327 554 Q 324 467 315 432 Q 314 422 330 382 Q 339 367 353 375 Q 366 387 363 484 Q 362 554 367 621 L 372 671 Q 378 728 396 760 Q 402 769 391 782 Q 343 824 314 814 Q 301 810 307 796 Q 337 748 329 655 L 327 554 Z" fill="black"></path>
				<path d="M 310 607 Q 258 516 133 392 Q 127 383 137 381 Q 149 378 241 453 Q 284 490 327 554 C 372 620 325 633 310 607 Z" fill="black"></path>
				<path d="M 378 551 Q 423 509 445 511 Q 455 512 459 528 Q 458 538 447 554 Q 437 564 419 567 Q 389 574 378 573 Q 371 573 371 564 Q 371 557 378 551 Z" fill="black"></path>
				<path d="M 653 651 Q 801 690 804 691 Q 813 700 808 708 Q 801 720 770 726 Q 743 732 657 701 L 611 688 Q 568 679 521 674 Q 484 667 511 650 Q 548 634 597 638 L 653 651 Z" fill="black"></path>
				<path d="M 651 631 Q 652 641 653 651 L 657 701 Q 666 765 679 790 Q 685 800 674 813 Q 622 855 593 845 Q 580 841 586 826 Q 610 787 611 688 L 611 580 Q 610 487 601 450 Q 600 435 606 419 Q 612 410 617 398 Q 627 383 641 391 Q 651 400 652 466 Q 648 523 650 597 L 651 631 Z" fill="black"></path>
				<path d="M 597 638 Q 558 557 452 435 Q 448 426 456 425 Q 460 424 469 431 Q 556 491 611 580 C 657 653 610 665 597 638 Z" fill="black"></path>
				<path d="M 650 597 Q 705 518 775 434 Q 790 419 814 420 Q 898 426 923 431 Q 930 432 932 437 Q 932 441 922 447 Q 805 495 746 544 Q 701 583 651 631 C 629 652 633 622 650 597 Z" fill="red"></path>
				<path d="M 382 211 Q 392 281 398 296 C 404 319 404 319 398 323 Q 391 330 371 337 Q 343 350 329 345 Q 319 341 327 326 Q 351 191 291 91 Q 255 28 143 -32 Q 121 -44 148 -43 Q 194 -46 264 -2 Q 342 40 379 192 L 382 211 Z" fill="lightgray"></path>
				<path d="M 398 296 Q 432 300 518 323 Q 531 327 536 321 Q 542 312 534 218 Q 519 62 602 1 Q 692 -56 785 -51 Q 845 -45 902 -17 Q 930 -5 918 25 Q 897 71 890 143 Q 887 164 882 168 Q 872 172 869 157 Q 839 48 821 35 Q 803 22 759 16 Q 701 12 662 29 Q 622 48 592 86 Q 559 147 597 271 Q 610 310 636 329 Q 663 351 632 364 Q 616 373 580 384 Q 556 393 533 377 Q 494 352 398 323 C 369 314 368 291 398 296 Z" fill="lightgray"></path>
				<path d="M 379 192 Q 383 185 399 172 Q 427 147 458 117 Q 468 107 481 106 Q 488 106 493 117 Q 497 127 491 151 Q 485 179 397 209 Q 387 213 382 211 C 367 209 367 209 379 192 Z" fill="lightgray"></path>
</g>
		<text x="40" y="140" font-size="128" fill="#999999">8</text></g>
		<g id="id1:id3:id3" transform="matrix(1.0,0,0,1.0,3072,0.0)">			<g stroke="lightgray" stroke-width="4" transform="scale(4, 4)"> <rect x="0" y="0" width="256" height="256" fill="white" stroke-width="4"/></g>
			<g transform="scale(0.92, -0.92) translate(60, -920)">					<path d="M 367 621 Q 460 648 464 650 Q 471 657 467 665 Q 460 675 433 681 Q 402 685 372 671 L 329 655 Q 235 633 195 626 Q 162 619 186 605 Q 222 587 286 602 Q 296 605 310 607 L 367 621 Z" fill="black"></path>
				<path d="M 327 554 Q 324 467 315 432 Q 314 422 330 382 Q 339 367 353 375 Q 366 387 363 484 Q 362 554 367 621 L 372 671 Q 378 728 396 760 Q 402 769 391 782 Q 343 824 314 814 Q 301 810 307 796 Q 337 748 329 655 L 327 554 Z" fill="black"></path>
				<path d="M 310 607 Q 258 516 133 392 Q 127 383 137 381 Q 149 378 241 453 Q 284 490 327 554 C 372 620 325 633 310 607 Z" fill="black"></path>
				<path d="M 378 551 Q 423 509 445 511 Q 455 512 459 528 Q 458 538 447 554 Q 437 564 419 567 Q 389 574 378 573 Q 371 573 371 564 Q 371 557 378 551 Z" fill="black"></path>
				<path d="M 653 651 Q 801 690 804 691 Q 813 700 808 708 Q 801 720 770 726 Q 743 732 657 701 L 611 688 Q 568 679 521 674 Q 484 667 511 650 Q 548 634 597 638 L 653 651 Z" fill="black"></path>
				<path d="M 651 631 Q 652 641 653 651 L 657 701 Q 666 765 679 790 Q 685 800 674 813 Q 622 855 593 845 Q 580 841 586 826 Q 610 787 611 688 L 611 580 Q 610 487 601 450 Q 600 435 606 419 Q 612 410 617 398 Q 627 383 641 391 Q 651 400 652 466 Q 648 523 650 597 L 651 631 Z" fill="black"></path>
				<path d="M 597 638 Q 558 557 452 435 Q 448 426 456 425 Q 460 424 469 431 Q 556 491 611 580 C 657 653 610 665 597 638 Z" fill="black"></path>
				<path d="M 650 597 Q 705 518 775 434 Q 790 419 814 420 Q 898 426 923 431 Q 930 432 932 437 Q 932 441 922 447 Q 805 495 746 544 Q 701 583 651 631 C 629 652 633 622 650 597 Z" fill="black"></path>
				<path d="M 382 211 Q 392 281 398 296 C 404 319 404 319 398 323 Q 391 330 371 337 Q 343 350 329 345 Q 319 341 327 326 Q 351 191 291 91 Q 255 28 143 -32 Q 121 -44 148 -43 Q 194 -46 264 -2 Q 342 40 379 192 L 382 211 Z" fill="red"></path>
				<path d="M 398 296 Q 432 300 518 323 Q 531 327 536 321 Q 542 312 534 218 Q 519 62 602 1 Q 692 -56 785 -51 Q 845 -45 902 -17 Q 930 -5 918 25 Q 897 71 890 143 Q 887 164 882 168 Q 872 172 869 157 Q 839 48 821 35 Q 803 22 759 16 Q 701 12 662 29 Q 622 48 592 86 Q 559 147 597 271 Q 610 310 636 329 Q 663 351 632 364 Q 616 373 580 384 Q 556 393 533 377 Q 494 352 398 323 C 369 314 368 291 398 296 Z" fill="lightgray"></path>
				<path d="M 379 192 Q 383 185 399 172 Q 427 147 458 117 Q 468 107 481 106 Q 488 106 493 117 Q 497 127 491 151 Q 485 179 397 209 Q 387 213 382 211 C 367 209 367 209 379 192 Z" fill="lightgray"></path>
</g>
		<text x="40" y="140" font-size="128" fill="#999999">9</text></g>
		<g id="id1:id4:id4" transform="matrix(1.0,0,0,1.0,4096,0.0)">			<g stroke="lightgray" stroke-width="4" transform="scale(4, 4)"> <rect x="0" y="0" width="256" height="256" fill="white" stroke-width="4"/></g>
			<g transform="scale(0.92, -0.92) translate(60, -920)">					<path d="M 367 621 Q 460 648 464 650 Q 471 657 467 665 Q 460 675 433 681 Q 402 685 372 671 L 329 655 Q 235 633 195 626 Q 162 619 186 605 Q 222 587 286 602 Q 296 605 310 607 L 367 621 Z" fill="black"></path>
				<path d="M 327 554 Q 324 467 315 432 Q 314 422 330 382 Q 339 367 353 375 Q 366 387 363 484 Q 362 554 367 621 L 372 671 Q 378 728 396 760 Q 402 769 391 782 Q 343 824 314 814 Q 301 810 307 796 Q 337 748 329 655 L 327 554 Z" fill="black"></path>
				<path d="M 310 607 Q 258 516 133 392 Q 127 383 137 381 Q 149 378 241 453 Q 284 490 327 554 C 372 620 325 633 310 607 Z" fill="black"></path>
				<path d="M 378 551 Q 423 509 445 511 Q 455 512 459 528 Q 458 538 447 554 Q 437 564 419 567 Q 389 574 378 573 Q 371 573 371 564 Q 371 557 378 551 Z" fill="black"></path>
				<path d="M 653 651 Q 801 690 804 691 Q 813 700 808 708 Q 801 720 770 726 Q 743 732 657 701 L 611 688 Q 568 679 521 674 Q 484 667 511 650 Q 548 634 597 638 L 653 651 Z" fill="black"></path>
				<path d="M 651 631 Q 652 641 653 651 L 657 701 Q 666 765 679 790 Q 685 800 674 813 Q 622 855 593 845 Q 580 841 586 826 Q 610 787 611 688 L 611 580 Q 610 487 601 450 Q 600 435 606 419 Q 612 410 617 398 Q 627 383 641 391 Q 651 400 652 466 Q 648 523 650 597 L 651 631 Z" fill="black"></path>
				<path d="M 597 638 Q 558 557 452 435 Q 448 426 456 425 Q 460 424 469 431 Q 556 491 611 580 C 657 653 610 665 597 638 Z" fill="black"></path>
				<path d="M 650 597 Q 705 518 775 434 Q 790 419 814 420 Q 898 426 923 431 Q 930 432 932 437 Q 932 441 922 447 Q 805 495 746 544 Q 701 583 651 631 C 629 652 633 622 650 597 Z" fill="black"></path>
				<path d="M 382 211 Q 392 281 398 296 C 404 319 404 319 398 323 Q 391 330 371 337 Q 343 350 329 345 Q 319 341 327 326 Q 351 191 291 91 Q 255 28 143 -32 Q 121 -44 148 -43 Q 194 -46 264 -2 Q 342 40 379 192 L 382 211 Z" fill="black"></path>
				<path d="M 398 296 Q 432 300 518 323 Q 531 327 536 321 Q 542 312 534 218 Q 519 62 602 1 Q 692 -56 785 -51 Q 845 -45 902 -17 Q 930 -5 918 25 Q 897 71 890 143 Q 887 164 882 168 Q 872 172 869 157 Q 839 48 821 35 Q 803 22 759 16 Q 701 12 662 29 Q 622 48 592 86 Q 559 147 597 271 Q 610 310 636 329 Q 663 351 632 364 Q 616 373 580 384 Q 556 393 533 377 Q 494 352 398 323 C 369 314 368 291 398 296 Z" fill="red"></path>
				<path d="M 379 192 Q 383 185 399 172 Q 427 147 458 117 Q 468 107 481 106 Q 488 106 493 117 Q 497 127 491 151 Q 485 179 397 209 Q 387 213 382 211 C 367 209 367 209 379 192 Z" fill="lightgray"></path>
</g>
		<text x="40" y="140" font-size="128" fill="#999999">10</text></g>
</g>
	<g id="id2:id2" transform="translate(0.0,2048)">
		<g id="id2:id0:id0" transform="matrix(1.0,0,0,1.0,0,0.0)">			<g stroke="lightgray" stroke-width="4" transform="scale(4, 4)"> <rect x="0" y="0" width="256" height="256" fill="white" stroke-width="4"/></g>
			<g transform="scale(0.92, -0.92) translate(60, -920)">					<path d="M 367 621 Q 460 648 464 650 Q 471 657 467 665 Q 460 675 433 681 Q 402 685 372 671 L 329 655 Q 235 633 195 626 Q 162 619 186 605 Q 222 587 286 602 Q 296 605 310 607 L 367 621 Z" fill="black"></path>
				<path d="M 327 554 Q 324 467 315 432 Q 314 422 330 382 Q 339 367 353 375 Q 366 387 363 484 Q 362 554 367 621 L 372 671 Q 378 728 396 760 Q 402 769 391 782 Q 343 824 314 814 Q 301 810 307 796 Q 337 748 329 655 L 327 554 Z" fill="black"></path>
				<path d="M 310 607 Q 258 516 133 392 Q 127 383 137 381 Q 149 378 241 453 Q 284 490 327 554 C 372 620 325 633 310 607 Z" fill="black"></path>
				<path d="M 378 551 Q 423 509 445 511 Q 455 512 459 528 Q 458 538 447 554 Q 437 564 419 567 Q 389 574 378 573 Q 371 573 371 564 Q 371 557 378 551 Z" fill="black"></path>
				<path d="M 653 651 Q 801 690 804 691 Q 813 700 808 708 Q 801 720 770 726 Q 743 732 657 701 L 611 688 Q 568 679 521 674 Q 484 667 511 650 Q 548 634 597 638 L 653 651 Z" fill="black"></path>
				<path d="M 651 631 Q 652 641 653 651 L 657 701 Q 666 765 679 790 Q 685 800 674 813 Q 622 855 593 845 Q 580 841 586 826 Q 610 787 611 688 L 611 580 Q 610 487 601 450 Q 600 435 606 419 Q 612 410 617 398 Q 627 383 641 391 Q 651 400 652 466 Q 648 523 650 597 L 651 631 Z" fill="black"></path>
				<path d="M 597 638 Q 558 557 452 435 Q 448 426 456 425 Q 460 424 469 431 Q 556 491 611 580 C 657 653 610 665 597 638 Z" fill="black"></path>
				<path d="M 650 597 Q 705 518 775 434 Q 790 419 814 420 Q 898 426 923 431 Q 930 432 932 437 Q 932 441 922 447 Q 805 495 746 544 Q 701 583 651 631 C 629 652 633 622 650 597 Z" fill="black"></path>
				<path d="M 382 211 Q 392 281 398 296 C 404 319 404 319 398 323 Q 391 330 371 337 Q 343 350 329 345 Q 319 341 327 326 Q 351 191 291 91 Q 255 28 143 -32 Q 121 -44 148 -43 Q 194 -46 264 -2 Q 342 40 379 192 L 382 211 Z" fill="black"></path>
				<path d="M 398 296 Q 432 300 518 323 Q 531 327 536 321 Q 542 312 534 218 Q 519 62 602 1 Q 692 -56 785 -51 Q 845 -45 902 -17 Q 930 -5 918 25 Q 897 71 890 143 Q 887 164 882 168 Q 872 172 869 157 Q 839 48 821 35 Q 803 22 759 16 Q 701 12 662 29 Q 622 48 592 86 Q 559 147 597 271 Q 610 310 636 329 Q 663 351 632 364 Q 616 373 580 384 Q 556 393 533 377 Q 494 352 398 323 C 369 314 368 291 398 296 Z" fill="black"></path>
				<path d="M 379 192 Q 383 185 399 172 Q 427 147 458 117 Q 468 107 481 106 Q 488 106 493 117 Q 497 127 491 151 Q 485 179 397 209 Q 387 213 382 211 C 367 209 367 209 379 192 Z" fill="red"></path>
</g>
		<text x="40" y="140" font-size="128" fill="#999999">11</text></g>
		<g id="id2:id1:id1" transform="matrix(1.0,0,0,1.0,1024,0.0)">			<g stroke="white" stroke-width="4" transform="scale(4, 4)"> <rect x="1" y="1" width="255" height="255" fill="white" stroke-width="0"/></g>
</g>
		<g id="id2:id2:id2" transform="matrix(1.0,0,0,1.0,2048,0.0)">			<g stroke="white" stroke-width="4" transform="scale(4, 4)"> <rect x="1" y="1" width="255" height="255" fill="white" stroke-width="0"/></g>
</g>
		<g id="id2:id3:id3" transform="matrix(1.0,0,0,1.0,3072,0.0)">			<g stroke="white" stroke-width="4" transform="scale(4, 4)"> <rect x="1" y="1" width="255" height="255" fill="white" stroke-width="0"/></g>
</g>
		<g id="id2:id4:id4" transform="matrix(1.0,0,0,1.0,4096,0.0)">			<g stroke="white" stroke-width="4" transform="scale(4, 4)"> <rect x="1" y="1" width="255" height="255" fill="white" stroke-width="0"/></g>
</g>
</g>
</svg>
