<?xml version="1.0" standalone="no"?>
<!DOCTYPE svg PUBLIC "-//W3C//DTD SVG 1.1//EN"
 "http://www.w3.org/Graphics/SVG/1.1/DTD/svg11.dtd">
<!-- generate by Japanese dictionary app com.asnsami.kanjidictionary -->

<svg xmlns="http://www.w3.org/2000/svg" xmlns:sodipodi="http://sodipodi.sourceforge.net/DTD/sodipodi-0.dtd" version="1.1" width="640" height="384" viewBox="0 0 5120 3072">
	<g id="id0:id0" transform="translate(0.0,0)">
		<g id="id0:id0:id0" transform="matrix(1.0,0,0,1.0,0,0.0)">			<g stroke="lightgray" stroke-width="4" transform="scale(4, 4)"> <rect x="0" y="0" width="256" height="256" fill="white" stroke-width="4"/></g>
			<g transform="scale(0.92, -0.92) translate(60, -920)">					<path d="M 458 582 Q 465 585 476 586 Q 531 599 539 606 Q 546 613 543 621 Q 536 631 510 639 Q 485 645 461 636 L 416 621 Q 371 608 324 595 Q 308 592 291 588 L 248 580 Q 205 576 161 570 Q 127 564 151 549 Q 187 525 243 539 Q 244 539 249 539 L 288 547 Q 349 560 416 574 L 458 582 Z" fill="red"></path>
				<path d="M 291 588 Q 294 642 298 659 Q 302 681 289 694 Q 267 713 240 724 Q 227 730 218 724 Q 209 718 215 703 Q 239 643 248 580 L 249 539 Q 250 455 246 254 C 245 224 287 232 286 262 Q 285 311 285 354 L 285 384 Q 285 418 286 449 L 286 477 Q 287 513 288 547 L 291 588 Z" fill="lightgray"></path>
				<path d="M 442 294 Q 451 444 458 582 L 461 636 Q 461 675 485 771 Q 489 781 469 797 Q 435 816 411 820 Q 396 824 388 815 Q 381 808 388 793 Q 416 748 416 718 Q 417 672 416 621 L 416 574 Q 413 438 401 286 C 399 256 440 264 442 294 Z" fill="lightgray"></path>
				<path d="M 286 449 Q 334 458 370 463 Q 389 467 381 478 Q 371 490 350 492 Q 313 495 286 477 C 261 461 257 443 286 449 Z" fill="lightgray"></path>
				<path d="M 285 354 Q 333 364 370 370 Q 389 374 381 385 Q 371 398 348 400 Q 305 403 285 384 C 262 364 256 348 285 354 Z" fill="lightgray"></path>
				<path d="M 246 254 Q 68 229 67 226 Q 66 226 66 224 Q 63 214 77 203 Q 114 176 153 188 Q 321 242 521 265 Q 537 266 537 274 Q 538 286 522 295 Q 494 308 442 294 L 401 286 Q 334 273 286 262 L 246 254 Z" fill="lightgray"></path>
				<path d="M 245 172 Q 223 106 93 3 Q 74 -10 98 -8 Q 170 1 287 116 Q 302 131 311 138 Q 321 148 319 157 Q 316 170 293 178 Q 266 188 255 186 Q 248 185 245 172 Z" fill="lightgray"></path>
				<path d="M 385 174 Q 433 105 454 103 Q 467 100 474 117 Q 475 129 469 148 Q 456 178 392 199 Q 383 200 381 190 Q 380 183 385 174 Z" fill="lightgray"></path>
				<path d="M 614 546 Q 645 604 677 684 Q 690 726 707 748 Q 714 760 707 771 Q 701 781 671 798 Q 643 810 626 807 Q 610 801 620 783 Q 668 719 509 425 Q 502 415 500 408 Q 499 398 512 402 Q 539 414 600 522 L 614 546 Z" fill="lightgray"></path>
				<path d="M 600 522 Q 619 504 643 511 Q 745 550 768 542 Q 781 529 776 519 Q 776 518 747 456 Q 740 446 745 441 Q 749 435 760 447 Q 845 505 884 518 Q 893 519 894 527 Q 895 540 868 555 Q 847 568 826 582 Q 801 597 787 590 Q 720 565 614 546 C 584 541 577 539 600 522 Z" fill="lightgray"></path>
				<path d="M 649 287 Q 650 291 651 295 Q 664 379 674 400 Q 683 416 667 425 Q 651 437 637 442 Q 615 454 598 447 Q 585 443 592 429 Q 625 377 589 241 Q 553 127 461 63 Q 449 53 435 42 Q 423 33 435 31 Q 522 40 598 147 Q 602 157 608 166 Q 615 182 623 199 Q 635 226 643 255 L 649 287 Z" fill="lightgray"></path>
				<path d="M 643 255 Q 707 149 791 36 Q 807 17 835 16 Q 931 15 962 19 Q 971 20 972 25 Q 973 29 961 37 Q 826 103 771 157 Q 714 211 649 287 C 629 310 627 281 643 255 Z" fill="lightgray"></path>
</g>
		<text x="40" y="140" font-size="128" fill="#999999">1</text></g>
		<g id="id0:id1:id1" transform="matrix(1.0,0,0,1.0,1024,0.0)">			<g stroke="lightgray" stroke-width="4" transform="scale(4, 4)"> <rect x="0" y="0" width="256" height="256" fill="white" stroke-width="4"/></g>
			<g transform="scale(0.92, -0.92) translate(60, -920)">					<path d="M 458 582 Q 465 585 476 586 Q 531 599 539 606 Q 546 613 543 621 Q 536 631 510 639 Q 485 645 461 636 L 416 621 Q 371 608 324 595 Q 308 592 291 588 L 248 580 Q 205 576 161 570 Q 127 564 151 549 Q 187 525 243 539 Q 244 539 249 539 L 288 547 Q 349 560 416 574 L 458 582 Z" fill="black"></path>
				<path d="M 291 588 Q 294 642 298 659 Q 302 681 289 694 Q 267 713 240 724 Q 227 730 218 724 Q 209 718 215 703 Q 239 643 248 580 L 249 539 Q 250 455 246 254 C 245 224 287 232 286 262 Q 285 311 285 354 L 285 384 Q 285 418 286 449 L 286 477 Q 287 513 288 547 L 291 588 Z" fill="red"></path>
				<path d="M 442 294 Q 451 444 458 582 L 461 636 Q 461 675 485 771 Q 489 781 469 797 Q 435 816 411 820 Q 396 824 388 815 Q 381 808 388 793 Q 416 748 416 718 Q 417 672 416 621 L 416 574 Q 413 438 401 286 C 399 256 440 264 442 294 Z" fill="lightgray"></path>
				<path d="M 286 449 Q 334 458 370 463 Q 389 467 381 478 Q 371 490 350 492 Q 313 495 286 477 C 261 461 257 443 286 449 Z" fill="lightgray"></path>
				<path d="M 285 354 Q 333 364 370 370 Q 389 374 381 385 Q 371 398 348 400 Q 305 403 285 384 C 262 364 256 348 285 354 Z" fill="lightgray"></path>
				<path d="M 246 254 Q 68 229 67 226 Q 66 226 66 224 Q 63 214 77 203 Q 114 176 153 188 Q 321 242 521 265 Q 537 266 537 274 Q 538 286 522 295 Q 494 308 442 294 L 401 286 Q 334 273 286 262 L 246 254 Z" fill="lightgray"></path>
				<path d="M 245 172 Q 223 106 93 3 Q 74 -10 98 -8 Q 170 1 287 116 Q 302 131 311 138 Q 321 148 319 157 Q 316 170 293 178 Q 266 188 255 186 Q 248 185 245 172 Z" fill="lightgray"></path>
				<path d="M 385 174 Q 433 105 454 103 Q 467 100 474 117 Q 475 129 469 148 Q 456 178 392 199 Q 383 200 381 190 Q 380 183 385 174 Z" fill="lightgray"></path>
				<path d="M 614 546 Q 645 604 677 684 Q 690 726 707 748 Q 714 760 707 771 Q 701 781 671 798 Q 643 810 626 807 Q 610 801 620 783 Q 668 719 509 425 Q 502 415 500 408 Q 499 398 512 402 Q 539 414 600 522 L 614 546 Z" fill="lightgray"></path>
				<path d="M 600 522 Q 619 504 643 511 Q 745 550 768 542 Q 781 529 776 519 Q 776 518 747 456 Q 740 446 745 441 Q 749 435 760 447 Q 845 505 884 518 Q 893 519 894 527 Q 895 540 868 555 Q 847 568 826 582 Q 801 597 787 590 Q 720 565 614 546 C 584 541 577 539 600 522 Z" fill="lightgray"></path>
				<path d="M 649 287 Q 650 291 651 295 Q 664 379 674 400 Q 683 416 667 425 Q 651 437 637 442 Q 615 454 598 447 Q 585 443 592 429 Q 625 377 589 241 Q 553 127 461 63 Q 449 53 435 42 Q 423 33 435 31 Q 522 40 598 147 Q 602 157 608 166 Q 615 182 623 199 Q 635 226 643 255 L 649 287 Z" fill="lightgray"></path>
				<path d="M 643 255 Q 707 149 791 36 Q 807 17 835 16 Q 931 15 962 19 Q 971 20 972 25 Q 973 29 961 37 Q 826 103 771 157 Q 714 211 649 287 C 629 310 627 281 643 255 Z" fill="lightgray"></path>
</g>
		<text x="40" y="140" font-size="128" fill="#999999">2</text></g>
		<g id="id0:id2:id2" transform="matrix(1.0,0,0,1.0,2048,0.0)">			<g stroke="lightgray" stroke-width="4" transform="scale(4, 4)"> <rect x="0" y="0" width="256" height="256" fill="white" stroke-width="4"/></g>
			<g transform="scale(0.92, -0.92) translate(60, -920)">					<path d="M 458 582 Q 465 585 476 586 Q 531 599 539 606 Q 546 613 543 621 Q 536 631 510 639 Q 485 645 461 636 L 416 621 Q 371 608 324 595 Q 308 592 291 588 L 248 580 Q 205 576 161 570 Q 127 564 151 549 Q 187 525 243 539 Q 244 539 249 539 L 288 547 Q 349 560 416 574 L 458 582 Z" fill="black"></path>
				<path d="M 291 588 Q 294 642 298 659 Q 302 681 289 694 Q 267 713 240 724 Q 227 730 218 724 Q 209 718 215 703 Q 239 643 248 580 L 249 539 Q 250 455 246 254 C 245 224 287 232 286 262 Q 285 311 285 354 L 285 384 Q 285 418 286 449 L 286 477 Q 287 513 288 547 L 291 588 Z" fill="black"></path>
				<path d="M 442 294 Q 451 444 458 582 L 461 636 Q 461 675 485 771 Q 489 781 469 797 Q 435 816 411 820 Q 396 824 388 815 Q 381 808 388 793 Q 416 748 416 718 Q 417 672 416 621 L 416 574 Q 413 438 401 286 C 399 256 440 264 442 294 Z" fill="red"></path>
				<path d="M 286 449 Q 334 458 370 463 Q 389 467 381 478 Q 371 490 350 492 Q 313 495 286 477 C 261 461 257 443 286 449 Z" fill="lightgray"></path>
				<path d="M 285 354 Q 333 364 370 370 Q 389 374 381 385 Q 371 398 348 400 Q 305 403 285 384 C 262 364 256 348 285 354 Z" fill="lightgray"></path>
				<path d="M 246 254 Q 68 229 67 226 Q 66 226 66 224 Q 63 214 77 203 Q 114 176 153 188 Q 321 242 521 265 Q 537 266 537 274 Q 538 286 522 295 Q 494 308 442 294 L 401 286 Q 334 273 286 262 L 246 254 Z" fill="lightgray"></path>
				<path d="M 245 172 Q 223 106 93 3 Q 74 -10 98 -8 Q 170 1 287 116 Q 302 131 311 138 Q 321 148 319 157 Q 316 170 293 178 Q 266 188 255 186 Q 248 185 245 172 Z" fill="lightgray"></path>
				<path d="M 385 174 Q 433 105 454 103 Q 467 100 474 117 Q 475 129 469 148 Q 456 178 392 199 Q 383 200 381 190 Q 380 183 385 174 Z" fill="lightgray"></path>
				<path d="M 614 546 Q 645 604 677 684 Q 690 726 707 748 Q 714 760 707 771 Q 701 781 671 798 Q 643 810 626 807 Q 610 801 620 783 Q 668 719 509 425 Q 502 415 500 408 Q 499 398 512 402 Q 539 414 600 522 L 614 546 Z" fill="lightgray"></path>
				<path d="M 600 522 Q 619 504 643 511 Q 745 550 768 542 Q 781 529 776 519 Q 776 518 747 456 Q 740 446 745 441 Q 749 435 760 447 Q 845 505 884 518 Q 893 519 894 527 Q 895 540 868 555 Q 847 568 826 582 Q 801 597 787 590 Q 720 565 614 546 C 584 541 577 539 600 522 Z" fill="lightgray"></path>
				<path d="M 649 287 Q 650 291 651 295 Q 664 379 674 400 Q 683 416 667 425 Q 651 437 637 442 Q 615 454 598 447 Q 585 443 592 429 Q 625 377 589 241 Q 553 127 461 63 Q 449 53 435 42 Q 423 33 435 31 Q 522 40 598 147 Q 602 157 608 166 Q 615 182 623 199 Q 635 226 643 255 L 649 287 Z" fill="lightgray"></path>
				<path d="M 643 255 Q 707 149 791 36 Q 807 17 835 16 Q 931 15 962 19 Q 971 20 972 25 Q 973 29 961 37 Q 826 103 771 157 Q 714 211 649 287 C 629 310 627 281 643 255 Z" fill="lightgray"></path>
</g>
		<text x="40" y="140" font-size="128" fill="#999999">3</text></g>
		<g id="id0:id3:id3" transform="matrix(1.0,0,0,1.0,3072,0.0)">			<g stroke="lightgray" stroke-width="4" transform="scale(4, 4)"> <rect x="0" y="0" width="256" height="256" fill="white" stroke-width="4"/></g>
			<g transform="scale(0.92, -0.92) translate(60, -920)">					<path d="M 458 582 Q 465 585 476 586 Q 531 599 539 606 Q 546 613 543 621 Q 536 631 510 639 Q 485 645 461 636 L 416 621 Q 371 608 324 595 Q 308 592 291 588 L 248 580 Q 205 576 161 570 Q 127 564 151 549 Q 187 525 243 539 Q 244 539 249 539 L 288 547 Q 349 560 416 574 L 458 582 Z" fill="black"></path>
				<path d="M 291 588 Q 294 642 298 659 Q 302 681 289 694 Q 267 713 240 724 Q 227 730 218 724 Q 209 718 215 703 Q 239 643 248 580 L 249 539 Q 250 455 246 254 C 245 224 287 232 286 262 Q 285 311 285 354 L 285 384 Q 285 418 286 449 L 286 477 Q 287 513 288 547 L 291 588 Z" fill="black"></path>
				<path d="M 442 294 Q 451 444 458 582 L 461 636 Q 461 675 485 771 Q 489 781 469 797 Q 435 816 411 820 Q 396 824 388 815 Q 381 808 388 793 Q 416 748 416 718 Q 417 672 416 621 L 416 574 Q 413 438 401 286 C 399 256 440 264 442 294 Z" fill="black"></path>
				<path d="M 286 449 Q 334 458 370 463 Q 389 467 381 478 Q 371 490 350 492 Q 313 495 286 477 C 261 461 257 443 286 449 Z" fill="red"></path>
				<path d="M 285 354 Q 333 364 370 370 Q 389 374 381 385 Q 371 398 348 400 Q 305 403 285 384 C 262 364 256 348 285 354 Z" fill="lightgray"></path>
				<path d="M 246 254 Q 68 229 67 226 Q 66 226 66 224 Q 63 214 77 203 Q 114 176 153 188 Q 321 242 521 265 Q 537 266 537 274 Q 538 286 522 295 Q 494 308 442 294 L 401 286 Q 334 273 286 262 L 246 254 Z" fill="lightgray"></path>
				<path d="M 245 172 Q 223 106 93 3 Q 74 -10 98 -8 Q 170 1 287 116 Q 302 131 311 138 Q 321 148 319 157 Q 316 170 293 178 Q 266 188 255 186 Q 248 185 245 172 Z" fill="lightgray"></path>
				<path d="M 385 174 Q 433 105 454 103 Q 467 100 474 117 Q 475 129 469 148 Q 456 178 392 199 Q 383 200 381 190 Q 380 183 385 174 Z" fill="lightgray"></path>
				<path d="M 614 546 Q 645 604 677 684 Q 690 726 707 748 Q 714 760 707 771 Q 701 781 671 798 Q 643 810 626 807 Q 610 801 620 783 Q 668 719 509 425 Q 502 415 500 408 Q 499 398 512 402 Q 539 414 600 522 L 614 546 Z" fill="lightgray"></path>
				<path d="M 600 522 Q 619 504 643 511 Q 745 550 768 542 Q 781 529 776 519 Q 776 518 747 456 Q 740 446 745 441 Q 749 435 760 447 Q 845 505 884 518 Q 893 519 894 527 Q 895 540 868 555 Q 847 568 826 582 Q 801 597 787 590 Q 720 565 614 546 C 584 541 577 539 600 522 Z" fill="lightgray"></path>
				<path d="M 649 287 Q 650 291 651 295 Q 664 379 674 400 Q 683 416 667 425 Q 651 437 637 442 Q 615 454 598 447 Q 585 443 592 429 Q 625 377 589 241 Q 553 127 461 63 Q 449 53 435 42 Q 423 33 435 31 Q 522 40 598 147 Q 602 157 608 166 Q 615 182 623 199 Q 635 226 643 255 L 649 287 Z" fill="lightgray"></path>
				<path d="M 643 255 Q 707 149 791 36 Q 807 17 835 16 Q 931 15 962 19 Q 971 20 972 25 Q 973 29 961 37 Q 826 103 771 157 Q 714 211 649 287 C 629 310 627 281 643 255 Z" fill="lightgray"></path>
</g>
		<text x="40" y="140" font-size="128" fill="#999999">4</text></g>
		<g id="id0:id4:id4" transform="matrix(1.0,0,0,1.0,4096,0.0)">			<g stroke="lightgray" stroke-width="4" transform="scale(4, 4)"> <rect x="0" y="0" width="256" height="256" fill="white" stroke-width="4"/></g>
			<g transform="scale(0.92, -0.92) translate(60, -920)">					<path d="M 458 582 Q 465 585 476 586 Q 531 599 539 606 Q 546 613 543 621 Q 536 631 510 639 Q 485 645 461 636 L 416 621 Q 371 608 324 595 Q 308 592 291 588 L 248 580 Q 205 576 161 570 Q 127 564 151 549 Q 187 525 243 539 Q 244 539 249 539 L 288 547 Q 349 560 416 574 L 458 582 Z" fill="black"></path>
				<path d="M 291 588 Q 294 642 298 659 Q 302 681 289 694 Q 267 713 240 724 Q 227 730 218 724 Q 209 718 215 703 Q 239 643 248 580 L 249 539 Q 250 455 246 254 C 245 224 287 232 286 262 Q 285 311 285 354 L 285 384 Q 285 418 286 449 L 286 477 Q 287 513 288 547 L 291 588 Z" fill="black"></path>
				<path d="M 442 294 Q 451 444 458 582 L 461 636 Q 461 675 485 771 Q 489 781 469 797 Q 435 816 411 820 Q 396 824 388 815 Q 381 808 388 793 Q 416 748 416 718 Q 417 672 416 621 L 416 574 Q 413 438 401 286 C 399 256 440 264 442 294 Z" fill="black"></path>
				<path d="M 286 449 Q 334 458 370 463 Q 389 467 381 478 Q 371 490 350 492 Q 313 495 286 477 C 261 461 257 443 286 449 Z" fill="black"></path>
				<path d="M 285 354 Q 333 364 370 370 Q 389 374 381 385 Q 371 398 348 400 Q 305 403 285 384 C 262 364 256 348 285 354 Z" fill="red"></path>
				<path d="M 246 254 Q 68 229 67 226 Q 66 226 66 224 Q 63 214 77 203 Q 114 176 153 188 Q 321 242 521 265 Q 537 266 537 274 Q 538 286 522 295 Q 494 308 442 294 L 401 286 Q 334 273 286 262 L 246 254 Z" fill="lightgray"></path>
				<path d="M 245 172 Q 223 106 93 3 Q 74 -10 98 -8 Q 170 1 287 116 Q 302 131 311 138 Q 321 148 319 157 Q 316 170 293 178 Q 266 188 255 186 Q 248 185 245 172 Z" fill="lightgray"></path>
				<path d="M 385 174 Q 433 105 454 103 Q 467 100 474 117 Q 475 129 469 148 Q 456 178 392 199 Q 383 200 381 190 Q 380 183 385 174 Z" fill="lightgray"></path>
				<path d="M 614 546 Q 645 604 677 684 Q 690 726 707 748 Q 714 760 707 771 Q 701 781 671 798 Q 643 810 626 807 Q 610 801 620 783 Q 668 719 509 425 Q 502 415 500 408 Q 499 398 512 402 Q 539 414 600 522 L 614 546 Z" fill="lightgray"></path>
				<path d="M 600 522 Q 619 504 643 511 Q 745 550 768 542 Q 781 529 776 519 Q 776 518 747 456 Q 740 446 745 441 Q 749 435 760 447 Q 845 505 884 518 Q 893 519 894 527 Q 895 540 868 555 Q 847 568 826 582 Q 801 597 787 590 Q 720 565 614 546 C 584 541 577 539 600 522 Z" fill="lightgray"></path>
				<path d="M 649 287 Q 650 291 651 295 Q 664 379 674 400 Q 683 416 667 425 Q 651 437 637 442 Q 615 454 598 447 Q 585 443 592 429 Q 625 377 589 241 Q 553 127 461 63 Q 449 53 435 42 Q 423 33 435 31 Q 522 40 598 147 Q 602 157 608 166 Q 615 182 623 199 Q 635 226 643 255 L 649 287 Z" fill="lightgray"></path>
				<path d="M 643 255 Q 707 149 791 36 Q 807 17 835 16 Q 931 15 962 19 Q 971 20 972 25 Q 973 29 961 37 Q 826 103 771 157 Q 714 211 649 287 C 629 310 627 281 643 255 Z" fill="lightgray"></path>
</g>
		<text x="40" y="140" font-size="128" fill="#999999">5</text></g>
</g>
	<g id="id1:id1" transform="translate(0.0,1024)">
		<g id="id1:id0:id0" transform="matrix(1.0,0,0,1.0,0,0.0)">			<g stroke="lightgray" stroke-width="4" transform="scale(4, 4)"> <rect x="0" y="0" width="256" height="256" fill="white" stroke-width="4"/></g>
			<g transform="scale(0.92, -0.92) translate(60, -920)">					<path d="M 458 582 Q 465 585 476 586 Q 531 599 539 606 Q 546 613 543 621 Q 536 631 510 639 Q 485 645 461 636 L 416 621 Q 371 608 324 595 Q 308 592 291 588 L 248 580 Q 205 576 161 570 Q 127 564 151 549 Q 187 525 243 539 Q 244 539 249 539 L 288 547 Q 349 560 416 574 L 458 582 Z" fill="black"></path>
				<path d="M 291 588 Q 294 642 298 659 Q 302 681 289 694 Q 267 713 240 724 Q 227 730 218 724 Q 209 718 215 703 Q 239 643 248 580 L 249 539 Q 250 455 246 254 C 245 224 287 232 286 262 Q 285 311 285 354 L 285 384 Q 285 418 286 449 L 286 477 Q 287 513 288 547 L 291 588 Z" fill="black"></path>
				<path d="M 442 294 Q 451 444 458 582 L 461 636 Q 461 675 485 771 Q 489 781 469 797 Q 435 816 411 820 Q 396 824 388 815 Q 381 808 388 793 Q 416 748 416 718 Q 417 672 416 621 L 416 574 Q 413 438 401 286 C 399 256 440 264 442 294 Z" fill="black"></path>
				<path d="M 286 449 Q 334 458 370 463 Q 389 467 381 478 Q 371 490 350 492 Q 313 495 286 477 C 261 461 257 443 286 449 Z" fill="black"></path>
				<path d="M 285 354 Q 333 364 370 370 Q 389 374 381 385 Q 371 398 348 400 Q 305 403 285 384 C 262 364 256 348 285 354 Z" fill="black"></path>
				<path d="M 246 254 Q 68 229 67 226 Q 66 226 66 224 Q 63 214 77 203 Q 114 176 153 188 Q 321 242 521 265 Q 537 266 537 274 Q 538 286 522 295 Q 494 308 442 294 L 401 286 Q 334 273 286 262 L 246 254 Z" fill="red"></path>
				<path d="M 245 172 Q 223 106 93 3 Q 74 -10 98 -8 Q 170 1 287 116 Q 302 131 311 138 Q 321 148 319 157 Q 316 170 293 178 Q 266 188 255 186 Q 248 185 245 172 Z" fill="lightgray"></path>
				<path d="M 385 174 Q 433 105 454 103 Q 467 100 474 117 Q 475 129 469 148 Q 456 178 392 199 Q 383 200 381 190 Q 380 183 385 174 Z" fill="lightgray"></path>
				<path d="M 614 546 Q 645 604 677 684 Q 690 726 707 748 Q 714 760 707 771 Q 701 781 671 798 Q 643 810 626 807 Q 610 801 620 783 Q 668 719 509 425 Q 502 415 500 408 Q 499 398 512 402 Q 539 414 600 522 L 614 546 Z" fill="lightgray"></path>
				<path d="M 600 522 Q 619 504 643 511 Q 745 550 768 542 Q 781 529 776 519 Q 776 518 747 456 Q 740 446 745 441 Q 749 435 760 447 Q 845 505 884 518 Q 893 519 894 527 Q 895 540 868 555 Q 847 568 826 582 Q 801 597 787 590 Q 720 565 614 546 C 584 541 577 539 600 522 Z" fill="lightgray"></path>
				<path d="M 649 287 Q 650 291 651 295 Q 664 379 674 400 Q 683 416 667 425 Q 651 437 637 442 Q 615 454 598 447 Q 585 443 592 429 Q 625 377 589 241 Q 553 127 461 63 Q 449 53 435 42 Q 423 33 435 31 Q 522 40 598 147 Q 602 157 608 166 Q 615 182 623 199 Q 635 226 643 255 L 649 287 Z" fill="lightgray"></path>
				<path d="M 643 255 Q 707 149 791 36 Q 807 17 835 16 Q 931 15 962 19 Q 971 20 972 25 Q 973 29 961 37 Q 826 103 771 157 Q 714 211 649 287 C 629 310 627 281 643 255 Z" fill="lightgray"></path>
</g>
		<text x="40" y="140" font-size="128" fill="#999999">6</text></g>
		<g id="id1:id1:id1" transform="matrix(1.0,0,0,1.0,1024,0.0)">			<g stroke="lightgray" stroke-width="4" transform="scale(4, 4)"> <rect x="0" y="0" width="256" height="256" fill="white" stroke-width="4"/></g>
			<g transform="scale(0.92, -0.92) translate(60, -920)">					<path d="M 458 582 Q 465 585 476 586 Q 531 599 539 606 Q 546 613 543 621 Q 536 631 510 639 Q 485 645 461 636 L 416 621 Q 371 608 324 595 Q 308 592 291 588 L 248 580 Q 205 576 161 570 Q 127 564 151 549 Q 187 525 243 539 Q 244 539 249 539 L 288 547 Q 349 560 416 574 L 458 582 Z" fill="black"></path>
				<path d="M 291 588 Q 294 642 298 659 Q 302 681 289 694 Q 267 713 240 724 Q 227 730 218 724 Q 209 718 215 703 Q 239 643 248 580 L 249 539 Q 250 455 246 254 C 245 224 287 232 286 262 Q 285 311 285 354 L 285 384 Q 285 418 286 449 L 286 477 Q 287 513 288 547 L 291 588 Z" fill="black"></path>
				<path d="M 442 294 Q 451 444 458 582 L 461 636 Q 461 675 485 771 Q 489 781 469 797 Q 435 816 411 820 Q 396 824 388 815 Q 381 808 388 793 Q 416 748 416 718 Q 417 672 416 621 L 416 574 Q 413 438 401 286 C 399 256 440 264 442 294 Z" fill="black"></path>
				<path d="M 286 449 Q 334 458 370 463 Q 389 467 381 478 Q 371 490 350 492 Q 313 495 286 477 C 261 461 257 443 286 449 Z" fill="black"></path>
				<path d="M 285 354 Q 333 364 370 370 Q 389 374 381 385 Q 371 398 348 400 Q 305 403 285 384 C 262 364 256 348 285 354 Z" fill="black"></path>
				<path d="M 246 254 Q 68 229 67 226 Q 66 226 66 224 Q 63 214 77 203 Q 114 176 153 188 Q 321 242 521 265 Q 537 266 537 274 Q 538 286 522 295 Q 494 308 442 294 L 401 286 Q 334 273 286 262 L 246 254 Z" fill="black"></path>
				<path d="M 245 172 Q 223 106 93 3 Q 74 -10 98 -8 Q 170 1 287 116 Q 302 131 311 138 Q 321 148 319 157 Q 316 170 293 178 Q 266 188 255 186 Q 248 185 245 172 Z" fill="red"></path>
				<path d="M 385 174 Q 433 105 454 103 Q 467 100 474 117 Q 475 129 469 148 Q 456 178 392 199 Q 383 200 381 190 Q 380 183 385 174 Z" fill="lightgray"></path>
				<path d="M 614 546 Q 645 604 677 684 Q 690 726 707 748 Q 714 760 707 771 Q 701 781 671 798 Q 643 810 626 807 Q 610 801 620 783 Q 668 719 509 425 Q 502 415 500 408 Q 499 398 512 402 Q 539 414 600 522 L 614 546 Z" fill="lightgray"></path>
				<path d="M 600 522 Q 619 504 643 511 Q 745 550 768 542 Q 781 529 776 519 Q 776 518 747 456 Q 740 446 745 441 Q 749 435 760 447 Q 845 505 884 518 Q 893 519 894 527 Q 895 540 868 555 Q 847 568 826 582 Q 801 597 787 590 Q 720 565 614 546 C 584 541 577 539 600 522 Z" fill="lightgray"></path>
				<path d="M 649 287 Q 650 291 651 295 Q 664 379 674 400 Q 683 416 667 425 Q 651 437 637 442 Q 615 454 598 447 Q 585 443 592 429 Q 625 377 589 241 Q 553 127 461 63 Q 449 53 435 42 Q 423 33 435 31 Q 522 40 598 147 Q 602 157 608 166 Q 615 182 623 199 Q 635 226 643 255 L 649 287 Z" fill="lightgray"></path>
				<path d="M 643 255 Q 707 149 791 36 Q 807 17 835 16 Q 931 15 962 19 Q 971 20 972 25 Q 973 29 961 37 Q 826 103 771 157 Q 714 211 649 287 C 629 310 627 281 643 255 Z" fill="lightgray"></path>
</g>
		<text x="40" y="140" font-size="128" fill="#999999">7</text></g>
		<g id="id1:id2:id2" transform="matrix(1.0,0,0,1.0,2048,0.0)">			<g stroke="lightgray" stroke-width="4" transform="scale(4, 4)"> <rect x="0" y="0" width="256" height="256" fill="white" stroke-width="4"/></g>
			<g transform="scale(0.92, -0.92) translate(60, -920)">					<path d="M 458 582 Q 465 585 476 586 Q 531 599 539 606 Q 546 613 543 621 Q 536 631 510 639 Q 485 645 461 636 L 416 621 Q 371 608 324 595 Q 308 592 291 588 L 248 580 Q 205 576 161 570 Q 127 564 151 549 Q 187 525 243 539 Q 244 539 249 539 L 288 547 Q 349 560 416 574 L 458 582 Z" fill="black"></path>
				<path d="M 291 588 Q 294 642 298 659 Q 302 681 289 694 Q 267 713 240 724 Q 227 730 218 724 Q 209 718 215 703 Q 239 643 248 580 L 249 539 Q 250 455 246 254 C 245 224 287 232 286 262 Q 285 311 285 354 L 285 384 Q 285 418 286 449 L 286 477 Q 287 513 288 547 L 291 588 Z" fill="black"></path>
				<path d="M 442 294 Q 451 444 458 582 L 461 636 Q 461 675 485 771 Q 489 781 469 797 Q 435 816 411 820 Q 396 824 388 815 Q 381 808 388 793 Q 416 748 416 718 Q 417 672 416 621 L 416 574 Q 413 438 401 286 C 399 256 440 264 442 294 Z" fill="black"></path>
				<path d="M 286 449 Q 334 458 370 463 Q 389 467 381 478 Q 371 490 350 492 Q 313 495 286 477 C 261 461 257 443 286 449 Z" fill="black"></path>
				<path d="M 285 354 Q 333 364 370 370 Q 389 374 381 385 Q 371 398 348 400 Q 305 403 285 384 C 262 364 256 348 285 354 Z" fill="black"></path>
				<path d="M 246 254 Q 68 229 67 226 Q 66 226 66 224 Q 63 214 77 203 Q 114 176 153 188 Q 321 242 521 265 Q 537 266 537 274 Q 538 286 522 295 Q 494 308 442 294 L 401 286 Q 334 273 286 262 L 246 254 Z" fill="black"></path>
				<path d="M 245 172 Q 223 106 93 3 Q 74 -10 98 -8 Q 170 1 287 116 Q 302 131 311 138 Q 321 148 319 157 Q 316 170 293 178 Q 266 188 255 186 Q 248 185 245 172 Z" fill="black"></path>
				<path d="M 385 174 Q 433 105 454 103 Q 467 100 474 117 Q 475 129 469 148 Q 456 178 392 199 Q 383 200 381 190 Q 380 183 385 174 Z" fill="red"></path>
				<path d="M 614 546 Q 645 604 677 684 Q 690 726 707 748 Q 714 760 707 771 Q 701 781 671 798 Q 643 810 626 807 Q 610 801 620 783 Q 668 719 509 425 Q 502 415 500 408 Q 499 398 512 402 Q 539 414 600 522 L 614 546 Z" fill="lightgray"></path>
				<path d="M 600 522 Q 619 504 643 511 Q 745 550 768 542 Q 781 529 776 519 Q 776 518 747 456 Q 740 446 745 441 Q 749 435 760 447 Q 845 505 884 518 Q 893 519 894 527 Q 895 540 868 555 Q 847 568 826 582 Q 801 597 787 590 Q 720 565 614 546 C 584 541 577 539 600 522 Z" fill="lightgray"></path>
				<path d="M 649 287 Q 650 291 651 295 Q 664 379 674 400 Q 683 416 667 425 Q 651 437 637 442 Q 615 454 598 447 Q 585 443 592 429 Q 625 377 589 241 Q 553 127 461 63 Q 449 53 435 42 Q 423 33 435 31 Q 522 40 598 147 Q 602 157 608 166 Q 615 182 623 199 Q 635 226 643 255 L 649 287 Z" fill="lightgray"></path>
				<path d="M 643 255 Q 707 149 791 36 Q 807 17 835 16 Q 931 15 962 19 Q 971 20 972 25 Q 973 29 961 37 Q 826 103 771 157 Q 714 211 649 287 C 629 310 627 281 643 255 Z" fill="lightgray"></path>
</g>
		<text x="40" y="140" font-size="128" fill="#999999">8</text></g>
		<g id="id1:id3:id3" transform="matrix(1.0,0,0,1.0,3072,0.0)">			<g stroke="lightgray" stroke-width="4" transform="scale(4, 4)"> <rect x="0" y="0" width="256" height="256" fill="white" stroke-width="4"/></g>
			<g transform="scale(0.92, -0.92) translate(60, -920)">					<path d="M 458 582 Q 465 585 476 586 Q 531 599 539 606 Q 546 613 543 621 Q 536 631 510 639 Q 485 645 461 636 L 416 621 Q 371 608 324 595 Q 308 592 291 588 L 248 580 Q 205 576 161 570 Q 127 564 151 549 Q 187 525 243 539 Q 244 539 249 539 L 288 547 Q 349 560 416 574 L 458 582 Z" fill="black"></path>
				<path d="M 291 588 Q 294 642 298 659 Q 302 681 289 694 Q 267 713 240 724 Q 227 730 218 724 Q 209 718 215 703 Q 239 643 248 580 L 249 539 Q 250 455 246 254 C 245 224 287 232 286 262 Q 285 311 285 354 L 285 384 Q 285 418 286 449 L 286 477 Q 287 513 288 547 L 291 588 Z" fill="black"></path>
				<path d="M 442 294 Q 451 444 458 582 L 461 636 Q 461 675 485 771 Q 489 781 469 797 Q 435 816 411 820 Q 396 824 388 815 Q 381 808 388 793 Q 416 748 416 718 Q 417 672 416 621 L 416 574 Q 413 438 401 286 C 399 256 440 264 442 294 Z" fill="black"></path>
				<path d="M 286 449 Q 334 458 370 463 Q 389 467 381 478 Q 371 490 350 492 Q 313 495 286 477 C 261 461 257 443 286 449 Z" fill="black"></path>
				<path d="M 285 354 Q 333 364 370 370 Q 389 374 381 385 Q 371 398 348 400 Q 305 403 285 384 C 262 364 256 348 285 354 Z" fill="black"></path>
				<path d="M 246 254 Q 68 229 67 226 Q 66 226 66 224 Q 63 214 77 203 Q 114 176 153 188 Q 321 242 521 265 Q 537 266 537 274 Q 538 286 522 295 Q 494 308 442 294 L 401 286 Q 334 273 286 262 L 246 254 Z" fill="black"></path>
				<path d="M 245 172 Q 223 106 93 3 Q 74 -10 98 -8 Q 170 1 287 116 Q 302 131 311 138 Q 321 148 319 157 Q 316 170 293 178 Q 266 188 255 186 Q 248 185 245 172 Z" fill="black"></path>
				<path d="M 385 174 Q 433 105 454 103 Q 467 100 474 117 Q 475 129 469 148 Q 456 178 392 199 Q 383 200 381 190 Q 380 183 385 174 Z" fill="black"></path>
				<path d="M 614 546 Q 645 604 677 684 Q 690 726 707 748 Q 714 760 707 771 Q 701 781 671 798 Q 643 810 626 807 Q 610 801 620 783 Q 668 719 509 425 Q 502 415 500 408 Q 499 398 512 402 Q 539 414 600 522 L 614 546 Z" fill="red"></path>
				<path d="M 600 522 Q 619 504 643 511 Q 745 550 768 542 Q 781 529 776 519 Q 776 518 747 456 Q 740 446 745 441 Q 749 435 760 447 Q 845 505 884 518 Q 893 519 894 527 Q 895 540 868 555 Q 847 568 826 582 Q 801 597 787 590 Q 720 565 614 546 C 584 541 577 539 600 522 Z" fill="lightgray"></path>
				<path d="M 649 287 Q 650 291 651 295 Q 664 379 674 400 Q 683 416 667 425 Q 651 437 637 442 Q 615 454 598 447 Q 585 443 592 429 Q 625 377 589 241 Q 553 127 461 63 Q 449 53 435 42 Q 423 33 435 31 Q 522 40 598 147 Q 602 157 608 166 Q 615 182 623 199 Q 635 226 643 255 L 649 287 Z" fill="lightgray"></path>
				<path d="M 643 255 Q 707 149 791 36 Q 807 17 835 16 Q 931 15 962 19 Q 971 20 972 25 Q 973 29 961 37 Q 826 103 771 157 Q 714 211 649 287 C 629 310 627 281 643 255 Z" fill="lightgray"></path>
</g>
		<text x="40" y="140" font-size="128" fill="#999999">9</text></g>
		<g id="id1:id4:id4" transform="matrix(1.0,0,0,1.0,4096,0.0)">			<g stroke="lightgray" stroke-width="4" transform="scale(4, 4)"> <rect x="0" y="0" width="256" height="256" fill="white" stroke-width="4"/></g>
			<g transform="scale(0.92, -0.92) translate(60, -920)">					<path d="M 458 582 Q 465 585 476 586 Q 531 599 539 606 Q 546 613 543 621 Q 536 631 510 639 Q 485 645 461 636 L 416 621 Q 371 608 324 595 Q 308 592 291 588 L 248 580 Q 205 576 161 570 Q 127 564 151 549 Q 187 525 243 539 Q 244 539 249 539 L 288 547 Q 349 560 416 574 L 458 582 Z" fill="black"></path>
				<path d="M 291 588 Q 294 642 298 659 Q 302 681 289 694 Q 267 713 240 724 Q 227 730 218 724 Q 209 718 215 703 Q 239 643 248 580 L 249 539 Q 250 455 246 254 C 245 224 287 232 286 262 Q 285 311 285 354 L 285 384 Q 285 418 286 449 L 286 477 Q 287 513 288 547 L 291 588 Z" fill="black"></path>
				<path d="M 442 294 Q 451 444 458 582 L 461 636 Q 461 675 485 771 Q 489 781 469 797 Q 435 816 411 820 Q 396 824 388 815 Q 381 808 388 793 Q 416 748 416 718 Q 417 672 416 621 L 416 574 Q 413 438 401 286 C 399 256 440 264 442 294 Z" fill="black"></path>
				<path d="M 286 449 Q 334 458 370 463 Q 389 467 381 478 Q 371 490 350 492 Q 313 495 286 477 C 261 461 257 443 286 449 Z" fill="black"></path>
				<path d="M 285 354 Q 333 364 370 370 Q 389 374 381 385 Q 371 398 348 400 Q 305 403 285 384 C 262 364 256 348 285 354 Z" fill="black"></path>
				<path d="M 246 254 Q 68 229 67 226 Q 66 226 66 224 Q 63 214 77 203 Q 114 176 153 188 Q 321 242 521 265 Q 537 266 537 274 Q 538 286 522 295 Q 494 308 442 294 L 401 286 Q 334 273 286 262 L 246 254 Z" fill="black"></path>
				<path d="M 245 172 Q 223 106 93 3 Q 74 -10 98 -8 Q 170 1 287 116 Q 302 131 311 138 Q 321 148 319 157 Q 316 170 293 178 Q 266 188 255 186 Q 248 185 245 172 Z" fill="black"></path>
				<path d="M 385 174 Q 433 105 454 103 Q 467 100 474 117 Q 475 129 469 148 Q 456 178 392 199 Q 383 200 381 190 Q 380 183 385 174 Z" fill="black"></path>
				<path d="M 614 546 Q 645 604 677 684 Q 690 726 707 748 Q 714 760 707 771 Q 701 781 671 798 Q 643 810 626 807 Q 610 801 620 783 Q 668 719 509 425 Q 502 415 500 408 Q 499 398 512 402 Q 539 414 600 522 L 614 546 Z" fill="black"></path>
				<path d="M 600 522 Q 619 504 643 511 Q 745 550 768 542 Q 781 529 776 519 Q 776 518 747 456 Q 740 446 745 441 Q 749 435 760 447 Q 845 505 884 518 Q 893 519 894 527 Q 895 540 868 555 Q 847 568 826 582 Q 801 597 787 590 Q 720 565 614 546 C 584 541 577 539 600 522 Z" fill="red"></path>
				<path d="M 649 287 Q 650 291 651 295 Q 664 379 674 400 Q 683 416 667 425 Q 651 437 637 442 Q 615 454 598 447 Q 585 443 592 429 Q 625 377 589 241 Q 553 127 461 63 Q 449 53 435 42 Q 423 33 435 31 Q 522 40 598 147 Q 602 157 608 166 Q 615 182 623 199 Q 635 226 643 255 L 649 287 Z" fill="lightgray"></path>
				<path d="M 643 255 Q 707 149 791 36 Q 807 17 835 16 Q 931 15 962 19 Q 971 20 972 25 Q 973 29 961 37 Q 826 103 771 157 Q 714 211 649 287 C 629 310 627 281 643 255 Z" fill="lightgray"></path>
</g>
		<text x="40" y="140" font-size="128" fill="#999999">10</text></g>
</g>
	<g id="id2:id2" transform="translate(0.0,2048)">
		<g id="id2:id0:id0" transform="matrix(1.0,0,0,1.0,0,0.0)">			<g stroke="lightgray" stroke-width="4" transform="scale(4, 4)"> <rect x="0" y="0" width="256" height="256" fill="white" stroke-width="4"/></g>
			<g transform="scale(0.92, -0.92) translate(60, -920)">					<path d="M 458 582 Q 465 585 476 586 Q 531 599 539 606 Q 546 613 543 621 Q 536 631 510 639 Q 485 645 461 636 L 416 621 Q 371 608 324 595 Q 308 592 291 588 L 248 580 Q 205 576 161 570 Q 127 564 151 549 Q 187 525 243 539 Q 244 539 249 539 L 288 547 Q 349 560 416 574 L 458 582 Z" fill="black"></path>
				<path d="M 291 588 Q 294 642 298 659 Q 302 681 289 694 Q 267 713 240 724 Q 227 730 218 724 Q 209 718 215 703 Q 239 643 248 580 L 249 539 Q 250 455 246 254 C 245 224 287 232 286 262 Q 285 311 285 354 L 285 384 Q 285 418 286 449 L 286 477 Q 287 513 288 547 L 291 588 Z" fill="black"></path>
				<path d="M 442 294 Q 451 444 458 582 L 461 636 Q 461 675 485 771 Q 489 781 469 797 Q 435 816 411 820 Q 396 824 388 815 Q 381 808 388 793 Q 416 748 416 718 Q 417 672 416 621 L 416 574 Q 413 438 401 286 C 399 256 440 264 442 294 Z" fill="black"></path>
				<path d="M 286 449 Q 334 458 370 463 Q 389 467 381 478 Q 371 490 350 492 Q 313 495 286 477 C 261 461 257 443 286 449 Z" fill="black"></path>
				<path d="M 285 354 Q 333 364 370 370 Q 389 374 381 385 Q 371 398 348 400 Q 305 403 285 384 C 262 364 256 348 285 354 Z" fill="black"></path>
				<path d="M 246 254 Q 68 229 67 226 Q 66 226 66 224 Q 63 214 77 203 Q 114 176 153 188 Q 321 242 521 265 Q 537 266 537 274 Q 538 286 522 295 Q 494 308 442 294 L 401 286 Q 334 273 286 262 L 246 254 Z" fill="black"></path>
				<path d="M 245 172 Q 223 106 93 3 Q 74 -10 98 -8 Q 170 1 287 116 Q 302 131 311 138 Q 321 148 319 157 Q 316 170 293 178 Q 266 188 255 186 Q 248 185 245 172 Z" fill="black"></path>
				<path d="M 385 174 Q 433 105 454 103 Q 467 100 474 117 Q 475 129 469 148 Q 456 178 392 199 Q 383 200 381 190 Q 380 183 385 174 Z" fill="black"></path>
				<path d="M 614 546 Q 645 604 677 684 Q 690 726 707 748 Q 714 760 707 771 Q 701 781 671 798 Q 643 810 626 807 Q 610 801 620 783 Q 668 719 509 425 Q 502 415 500 408 Q 499 398 512 402 Q 539 414 600 522 L 614 546 Z" fill="black"></path>
				<path d="M 600 522 Q 619 504 643 511 Q 745 550 768 542 Q 781 529 776 519 Q 776 518 747 456 Q 740 446 745 441 Q 749 435 760 447 Q 845 505 884 518 Q 893 519 894 527 Q 895 540 868 555 Q 847 568 826 582 Q 801 597 787 590 Q 720 565 614 546 C 584 541 577 539 600 522 Z" fill="black"></path>
				<path d="M 649 287 Q 650 291 651 295 Q 664 379 674 400 Q 683 416 667 425 Q 651 437 637 442 Q 615 454 598 447 Q 585 443 592 429 Q 625 377 589 241 Q 553 127 461 63 Q 449 53 435 42 Q 423 33 435 31 Q 522 40 598 147 Q 602 157 608 166 Q 615 182 623 199 Q 635 226 643 255 L 649 287 Z" fill="red"></path>
				<path d="M 643 255 Q 707 149 791 36 Q 807 17 835 16 Q 931 15 962 19 Q 971 20 972 25 Q 973 29 961 37 Q 826 103 771 157 Q 714 211 649 287 C 629 310 627 281 643 255 Z" fill="lightgray"></path>
</g>
		<text x="40" y="140" font-size="128" fill="#999999">11</text></g>
		<g id="id2:id1:id1" transform="matrix(1.0,0,0,1.0,1024,0.0)">			<g stroke="lightgray" stroke-width="4" transform="scale(4, 4)"> <rect x="0" y="0" width="256" height="256" fill="white" stroke-width="4"/></g>
			<g transform="scale(0.92, -0.92) translate(60, -920)">					<path d="M 458 582 Q 465 585 476 586 Q 531 599 539 606 Q 546 613 543 621 Q 536 631 510 639 Q 485 645 461 636 L 416 621 Q 371 608 324 595 Q 308 592 291 588 L 248 580 Q 205 576 161 570 Q 127 564 151 549 Q 187 525 243 539 Q 244 539 249 539 L 288 547 Q 349 560 416 574 L 458 582 Z" fill="black"></path>
				<path d="M 291 588 Q 294 642 298 659 Q 302 681 289 694 Q 267 713 240 724 Q 227 730 218 724 Q 209 718 215 703 Q 239 643 248 580 L 249 539 Q 250 455 246 254 C 245 224 287 232 286 262 Q 285 311 285 354 L 285 384 Q 285 418 286 449 L 286 477 Q 287 513 288 547 L 291 588 Z" fill="black"></path>
				<path d="M 442 294 Q 451 444 458 582 L 461 636 Q 461 675 485 771 Q 489 781 469 797 Q 435 816 411 820 Q 396 824 388 815 Q 381 808 388 793 Q 416 748 416 718 Q 417 672 416 621 L 416 574 Q 413 438 401 286 C 399 256 440 264 442 294 Z" fill="black"></path>
				<path d="M 286 449 Q 334 458 370 463 Q 389 467 381 478 Q 371 490 350 492 Q 313 495 286 477 C 261 461 257 443 286 449 Z" fill="black"></path>
				<path d="M 285 354 Q 333 364 370 370 Q 389 374 381 385 Q 371 398 348 400 Q 305 403 285 384 C 262 364 256 348 285 354 Z" fill="black"></path>
				<path d="M 246 254 Q 68 229 67 226 Q 66 226 66 224 Q 63 214 77 203 Q 114 176 153 188 Q 321 242 521 265 Q 537 266 537 274 Q 538 286 522 295 Q 494 308 442 294 L 401 286 Q 334 273 286 262 L 246 254 Z" fill="black"></path>
				<path d="M 245 172 Q 223 106 93 3 Q 74 -10 98 -8 Q 170 1 287 116 Q 302 131 311 138 Q 321 148 319 157 Q 316 170 293 178 Q 266 188 255 186 Q 248 185 245 172 Z" fill="black"></path>
				<path d="M 385 174 Q 433 105 454 103 Q 467 100 474 117 Q 475 129 469 148 Q 456 178 392 199 Q 383 200 381 190 Q 380 183 385 174 Z" fill="black"></path>
				<path d="M 614 546 Q 645 604 677 684 Q 690 726 707 748 Q 714 760 707 771 Q 701 781 671 798 Q 643 810 626 807 Q 610 801 620 783 Q 668 719 509 425 Q 502 415 500 408 Q 499 398 512 402 Q 539 414 600 522 L 614 546 Z" fill="black"></path>
				<path d="M 600 522 Q 619 504 643 511 Q 745 550 768 542 Q 781 529 776 519 Q 776 518 747 456 Q 740 446 745 441 Q 749 435 760 447 Q 845 505 884 518 Q 893 519 894 527 Q 895 540 868 555 Q 847 568 826 582 Q 801 597 787 590 Q 720 565 614 546 C 584 541 577 539 600 522 Z" fill="black"></path>
				<path d="M 649 287 Q 650 291 651 295 Q 664 379 674 400 Q 683 416 667 425 Q 651 437 637 442 Q 615 454 598 447 Q 585 443 592 429 Q 625 377 589 241 Q 553 127 461 63 Q 449 53 435 42 Q 423 33 435 31 Q 522 40 598 147 Q 602 157 608 166 Q 615 182 623 199 Q 635 226 643 255 L 649 287 Z" fill="black"></path>
				<path d="M 643 255 Q 707 149 791 36 Q 807 17 835 16 Q 931 15 962 19 Q 971 20 972 25 Q 973 29 961 37 Q 826 103 771 157 Q 714 211 649 287 C 629 310 627 281 643 255 Z" fill="red"></path>
</g>
		<text x="40" y="140" font-size="128" fill="#999999">12</text></g>
		<g id="id2:id2:id2" transform="matrix(1.0,0,0,1.0,2048,0.0)">			<g stroke="white" stroke-width="4" transform="scale(4, 4)"> <rect x="1" y="1" width="255" height="255" fill="white" stroke-width="0"/></g>
</g>
		<g id="id2:id3:id3" transform="matrix(1.0,0,0,1.0,3072,0.0)">			<g stroke="white" stroke-width="4" transform="scale(4, 4)"> <rect x="1" y="1" width="255" height="255" fill="white" stroke-width="0"/></g>
</g>
		<g id="id2:id4:id4" transform="matrix(1.0,0,0,1.0,4096,0.0)">			<g stroke="white" stroke-width="4" transform="scale(4, 4)"> <rect x="1" y="1" width="255" height="255" fill="white" stroke-width="0"/></g>
</g>
</g>
</svg>
