<?xml version="1.0" standalone="no"?>
<!DOCTYPE svg PUBLIC "-//W3C//DTD SVG 1.1//EN"
 "http://www.w3.org/Graphics/SVG/1.1/DTD/svg11.dtd">
<!-- generate by Japanese dictionary app com.asnsami.kanjidictionary -->

<svg xmlns="http://www.w3.org/2000/svg" xmlns:sodipodi="http://sodipodi.sourceforge.net/DTD/sodipodi-0.dtd" version="1.1" width="640" height="256" viewBox="0 0 5120 2048">
	<g id="id0:id0" transform="translate(0.0,0)">
		<g id="id0:id0:id0" transform="matrix(1.0,0,0,1.0,0,0.0)">			<g stroke="lightgray" stroke-width="4" transform="scale(4, 4)"> <rect x="0" y="0" width="256" height="256" fill="white" stroke-width="4"/></g>
			<g transform="scale(0.92, -0.92) translate(60, -920)">					<path d="M 542 520 Q 549 596 555 665 L 558 696 Q 562 735 567 754 Q 571 767 574 778 Q 578 788 558 804 Q 522 823 498 828 Q 482 831 474 822 Q 467 815 474 800 Q 493 775 493 758 Q 502 644 499 512 C 498 482 539 490 542 520 Z" fill="red"></path>
				<path d="M 555 665 Q 600 650 648 664 Q 699 676 752 688 Q 777 694 780 697 Q 790 707 784 715 Q 775 728 744 734 Q 711 740 679 725 Q 652 716 623 708 Q 593 701 558 696 C 528 692 526 674 555 665 Z" fill="lightgray"></path>
				<path d="M 398 496 Q 389 620 392 649 Q 393 674 378 686 Q 353 704 323 712 Q 307 716 298 710 Q 291 703 298 687 Q 325 647 353 490 C 358 460 400 466 398 496 Z" fill="lightgray"></path>
				<path d="M 535 482 Q 590 489 909 506 Q 931 506 937 516 Q 943 529 924 544 Q 864 586 809 572 Q 704 550 542 520 L 499 512 Q 450 505 398 496 L 353 490 Q 247 475 129 457 Q 107 454 124 435 Q 140 420 160 415 Q 184 409 201 415 Q 360 464 488 476 L 535 482 Z" fill="lightgray"></path>
				<path d="M 488 476 Q 488 473 490 468 Q 515 405 494 235 Q 485 202 515 166 Q 525 154 535 166 Q 557 199 556 243 Q 552 342 566 435 Q 573 459 552 471 Q 543 477 535 482 C 510 498 480 505 488 476 Z" fill="lightgray"></path>
				<path d="M 352 398 Q 327 340 290 286 Q 268 247 287 210 Q 296 191 320 204 Q 375 247 380 333 Q 387 370 379 398 Q 373 408 366 409 Q 356 408 352 398 Z" fill="lightgray"></path>
				<path d="M 695 430 Q 676 238 451 71 Q 447 68 443 65 Q 380 16 232 -63 Q 220 -70 228 -75 Q 237 -79 251 -77 Q 348 -55 437 -4 Q 590 74 727 298 Q 751 334 779 367 Q 791 377 786 390 Q 780 403 748 431 Q 726 450 713 450 Q 697 449 695 430 Z" fill="lightgray"></path>
</g>
		<text x="40" y="140" font-size="128" fill="#999999">1</text></g>
		<g id="id0:id1:id1" transform="matrix(1.0,0,0,1.0,1024,0.0)">			<g stroke="lightgray" stroke-width="4" transform="scale(4, 4)"> <rect x="0" y="0" width="256" height="256" fill="white" stroke-width="4"/></g>
			<g transform="scale(0.92, -0.92) translate(60, -920)">					<path d="M 542 520 Q 549 596 555 665 L 558 696 Q 562 735 567 754 Q 571 767 574 778 Q 578 788 558 804 Q 522 823 498 828 Q 482 831 474 822 Q 467 815 474 800 Q 493 775 493 758 Q 502 644 499 512 C 498 482 539 490 542 520 Z" fill="black"></path>
				<path d="M 555 665 Q 600 650 648 664 Q 699 676 752 688 Q 777 694 780 697 Q 790 707 784 715 Q 775 728 744 734 Q 711 740 679 725 Q 652 716 623 708 Q 593 701 558 696 C 528 692 526 674 555 665 Z" fill="red"></path>
				<path d="M 398 496 Q 389 620 392 649 Q 393 674 378 686 Q 353 704 323 712 Q 307 716 298 710 Q 291 703 298 687 Q 325 647 353 490 C 358 460 400 466 398 496 Z" fill="lightgray"></path>
				<path d="M 535 482 Q 590 489 909 506 Q 931 506 937 516 Q 943 529 924 544 Q 864 586 809 572 Q 704 550 542 520 L 499 512 Q 450 505 398 496 L 353 490 Q 247 475 129 457 Q 107 454 124 435 Q 140 420 160 415 Q 184 409 201 415 Q 360 464 488 476 L 535 482 Z" fill="lightgray"></path>
				<path d="M 488 476 Q 488 473 490 468 Q 515 405 494 235 Q 485 202 515 166 Q 525 154 535 166 Q 557 199 556 243 Q 552 342 566 435 Q 573 459 552 471 Q 543 477 535 482 C 510 498 480 505 488 476 Z" fill="lightgray"></path>
				<path d="M 352 398 Q 327 340 290 286 Q 268 247 287 210 Q 296 191 320 204 Q 375 247 380 333 Q 387 370 379 398 Q 373 408 366 409 Q 356 408 352 398 Z" fill="lightgray"></path>
				<path d="M 695 430 Q 676 238 451 71 Q 447 68 443 65 Q 380 16 232 -63 Q 220 -70 228 -75 Q 237 -79 251 -77 Q 348 -55 437 -4 Q 590 74 727 298 Q 751 334 779 367 Q 791 377 786 390 Q 780 403 748 431 Q 726 450 713 450 Q 697 449 695 430 Z" fill="lightgray"></path>
</g>
		<text x="40" y="140" font-size="128" fill="#999999">2</text></g>
		<g id="id0:id2:id2" transform="matrix(1.0,0,0,1.0,2048,0.0)">			<g stroke="lightgray" stroke-width="4" transform="scale(4, 4)"> <rect x="0" y="0" width="256" height="256" fill="white" stroke-width="4"/></g>
			<g transform="scale(0.92, -0.92) translate(60, -920)">					<path d="M 542 520 Q 549 596 555 665 L 558 696 Q 562 735 567 754 Q 571 767 574 778 Q 578 788 558 804 Q 522 823 498 828 Q 482 831 474 822 Q 467 815 474 800 Q 493 775 493 758 Q 502 644 499 512 C 498 482 539 490 542 520 Z" fill="black"></path>
				<path d="M 555 665 Q 600 650 648 664 Q 699 676 752 688 Q 777 694 780 697 Q 790 707 784 715 Q 775 728 744 734 Q 711 740 679 725 Q 652 716 623 708 Q 593 701 558 696 C 528 692 526 674 555 665 Z" fill="black"></path>
				<path d="M 398 496 Q 389 620 392 649 Q 393 674 378 686 Q 353 704 323 712 Q 307 716 298 710 Q 291 703 298 687 Q 325 647 353 490 C 358 460 400 466 398 496 Z" fill="red"></path>
				<path d="M 535 482 Q 590 489 909 506 Q 931 506 937 516 Q 943 529 924 544 Q 864 586 809 572 Q 704 550 542 520 L 499 512 Q 450 505 398 496 L 353 490 Q 247 475 129 457 Q 107 454 124 435 Q 140 420 160 415 Q 184 409 201 415 Q 360 464 488 476 L 535 482 Z" fill="lightgray"></path>
				<path d="M 488 476 Q 488 473 490 468 Q 515 405 494 235 Q 485 202 515 166 Q 525 154 535 166 Q 557 199 556 243 Q 552 342 566 435 Q 573 459 552 471 Q 543 477 535 482 C 510 498 480 505 488 476 Z" fill="lightgray"></path>
				<path d="M 352 398 Q 327 340 290 286 Q 268 247 287 210 Q 296 191 320 204 Q 375 247 380 333 Q 387 370 379 398 Q 373 408 366 409 Q 356 408 352 398 Z" fill="lightgray"></path>
				<path d="M 695 430 Q 676 238 451 71 Q 447 68 443 65 Q 380 16 232 -63 Q 220 -70 228 -75 Q 237 -79 251 -77 Q 348 -55 437 -4 Q 590 74 727 298 Q 751 334 779 367 Q 791 377 786 390 Q 780 403 748 431 Q 726 450 713 450 Q 697 449 695 430 Z" fill="lightgray"></path>
</g>
		<text x="40" y="140" font-size="128" fill="#999999">3</text></g>
		<g id="id0:id3:id3" transform="matrix(1.0,0,0,1.0,3072,0.0)">			<g stroke="lightgray" stroke-width="4" transform="scale(4, 4)"> <rect x="0" y="0" width="256" height="256" fill="white" stroke-width="4"/></g>
			<g transform="scale(0.92, -0.92) translate(60, -920)">					<path d="M 542 520 Q 549 596 555 665 L 558 696 Q 562 735 567 754 Q 571 767 574 778 Q 578 788 558 804 Q 522 823 498 828 Q 482 831 474 822 Q 467 815 474 800 Q 493 775 493 758 Q 502 644 499 512 C 498 482 539 490 542 520 Z" fill="black"></path>
				<path d="M 555 665 Q 600 650 648 664 Q 699 676 752 688 Q 777 694 780 697 Q 790 707 784 715 Q 775 728 744 734 Q 711 740 679 725 Q 652 716 623 708 Q 593 701 558 696 C 528 692 526 674 555 665 Z" fill="black"></path>
				<path d="M 398 496 Q 389 620 392 649 Q 393 674 378 686 Q 353 704 323 712 Q 307 716 298 710 Q 291 703 298 687 Q 325 647 353 490 C 358 460 400 466 398 496 Z" fill="black"></path>
				<path d="M 535 482 Q 590 489 909 506 Q 931 506 937 516 Q 943 529 924 544 Q 864 586 809 572 Q 704 550 542 520 L 499 512 Q 450 505 398 496 L 353 490 Q 247 475 129 457 Q 107 454 124 435 Q 140 420 160 415 Q 184 409 201 415 Q 360 464 488 476 L 535 482 Z" fill="red"></path>
				<path d="M 488 476 Q 488 473 490 468 Q 515 405 494 235 Q 485 202 515 166 Q 525 154 535 166 Q 557 199 556 243 Q 552 342 566 435 Q 573 459 552 471 Q 543 477 535 482 C 510 498 480 505 488 476 Z" fill="lightgray"></path>
				<path d="M 352 398 Q 327 340 290 286 Q 268 247 287 210 Q 296 191 320 204 Q 375 247 380 333 Q 387 370 379 398 Q 373 408 366 409 Q 356 408 352 398 Z" fill="lightgray"></path>
				<path d="M 695 430 Q 676 238 451 71 Q 447 68 443 65 Q 380 16 232 -63 Q 220 -70 228 -75 Q 237 -79 251 -77 Q 348 -55 437 -4 Q 590 74 727 298 Q 751 334 779 367 Q 791 377 786 390 Q 780 403 748 431 Q 726 450 713 450 Q 697 449 695 430 Z" fill="lightgray"></path>
</g>
		<text x="40" y="140" font-size="128" fill="#999999">4</text></g>
		<g id="id0:id4:id4" transform="matrix(1.0,0,0,1.0,4096,0.0)">			<g stroke="lightgray" stroke-width="4" transform="scale(4, 4)"> <rect x="0" y="0" width="256" height="256" fill="white" stroke-width="4"/></g>
			<g transform="scale(0.92, -0.92) translate(60, -920)">					<path d="M 542 520 Q 549 596 555 665 L 558 696 Q 562 735 567 754 Q 571 767 574 778 Q 578 788 558 804 Q 522 823 498 828 Q 482 831 474 822 Q 467 815 474 800 Q 493 775 493 758 Q 502 644 499 512 C 498 482 539 490 542 520 Z" fill="black"></path>
				<path d="M 555 665 Q 600 650 648 664 Q 699 676 752 688 Q 777 694 780 697 Q 790 707 784 715 Q 775 728 744 734 Q 711 740 679 725 Q 652 716 623 708 Q 593 701 558 696 C 528 692 526 674 555 665 Z" fill="black"></path>
				<path d="M 398 496 Q 389 620 392 649 Q 393 674 378 686 Q 353 704 323 712 Q 307 716 298 710 Q 291 703 298 687 Q 325 647 353 490 C 358 460 400 466 398 496 Z" fill="black"></path>
				<path d="M 535 482 Q 590 489 909 506 Q 931 506 937 516 Q 943 529 924 544 Q 864 586 809 572 Q 704 550 542 520 L 499 512 Q 450 505 398 496 L 353 490 Q 247 475 129 457 Q 107 454 124 435 Q 140 420 160 415 Q 184 409 201 415 Q 360 464 488 476 L 535 482 Z" fill="black"></path>
				<path d="M 488 476 Q 488 473 490 468 Q 515 405 494 235 Q 485 202 515 166 Q 525 154 535 166 Q 557 199 556 243 Q 552 342 566 435 Q 573 459 552 471 Q 543 477 535 482 C 510 498 480 505 488 476 Z" fill="red"></path>
				<path d="M 352 398 Q 327 340 290 286 Q 268 247 287 210 Q 296 191 320 204 Q 375 247 380 333 Q 387 370 379 398 Q 373 408 366 409 Q 356 408 352 398 Z" fill="lightgray"></path>
				<path d="M 695 430 Q 676 238 451 71 Q 447 68 443 65 Q 380 16 232 -63 Q 220 -70 228 -75 Q 237 -79 251 -77 Q 348 -55 437 -4 Q 590 74 727 298 Q 751 334 779 367 Q 791 377 786 390 Q 780 403 748 431 Q 726 450 713 450 Q 697 449 695 430 Z" fill="lightgray"></path>
</g>
		<text x="40" y="140" font-size="128" fill="#999999">5</text></g>
</g>
	<g id="id1:id1" transform="translate(0.0,1024)">
		<g id="id1:id0:id0" transform="matrix(1.0,0,0,1.0,0,0.0)">			<g stroke="lightgray" stroke-width="4" transform="scale(4, 4)"> <rect x="0" y="0" width="256" height="256" fill="white" stroke-width="4"/></g>
			<g transform="scale(0.92, -0.92) translate(60, -920)">					<path d="M 542 520 Q 549 596 555 665 L 558 696 Q 562 735 567 754 Q 571 767 574 778 Q 578 788 558 804 Q 522 823 498 828 Q 482 831 474 822 Q 467 815 474 800 Q 493 775 493 758 Q 502 644 499 512 C 498 482 539 490 542 520 Z" fill="black"></path>
				<path d="M 555 665 Q 600 650 648 664 Q 699 676 752 688 Q 777 694 780 697 Q 790 707 784 715 Q 775 728 744 734 Q 711 740 679 725 Q 652 716 623 708 Q 593 701 558 696 C 528 692 526 674 555 665 Z" fill="black"></path>
				<path d="M 398 496 Q 389 620 392 649 Q 393 674 378 686 Q 353 704 323 712 Q 307 716 298 710 Q 291 703 298 687 Q 325 647 353 490 C 358 460 400 466 398 496 Z" fill="black"></path>
				<path d="M 535 482 Q 590 489 909 506 Q 931 506 937 516 Q 943 529 924 544 Q 864 586 809 572 Q 704 550 542 520 L 499 512 Q 450 505 398 496 L 353 490 Q 247 475 129 457 Q 107 454 124 435 Q 140 420 160 415 Q 184 409 201 415 Q 360 464 488 476 L 535 482 Z" fill="black"></path>
				<path d="M 488 476 Q 488 473 490 468 Q 515 405 494 235 Q 485 202 515 166 Q 525 154 535 166 Q 557 199 556 243 Q 552 342 566 435 Q 573 459 552 471 Q 543 477 535 482 C 510 498 480 505 488 476 Z" fill="black"></path>
				<path d="M 352 398 Q 327 340 290 286 Q 268 247 287 210 Q 296 191 320 204 Q 375 247 380 333 Q 387 370 379 398 Q 373 408 366 409 Q 356 408 352 398 Z" fill="red"></path>
				<path d="M 695 430 Q 676 238 451 71 Q 447 68 443 65 Q 380 16 232 -63 Q 220 -70 228 -75 Q 237 -79 251 -77 Q 348 -55 437 -4 Q 590 74 727 298 Q 751 334 779 367 Q 791 377 786 390 Q 780 403 748 431 Q 726 450 713 450 Q 697 449 695 430 Z" fill="lightgray"></path>
</g>
		<text x="40" y="140" font-size="128" fill="#999999">6</text></g>
		<g id="id1:id1:id1" transform="matrix(1.0,0,0,1.0,1024,0.0)">			<g stroke="lightgray" stroke-width="4" transform="scale(4, 4)"> <rect x="0" y="0" width="256" height="256" fill="white" stroke-width="4"/></g>
			<g transform="scale(0.92, -0.92) translate(60, -920)">					<path d="M 542 520 Q 549 596 555 665 L 558 696 Q 562 735 567 754 Q 571 767 574 778 Q 578 788 558 804 Q 522 823 498 828 Q 482 831 474 822 Q 467 815 474 800 Q 493 775 493 758 Q 502 644 499 512 C 498 482 539 490 542 520 Z" fill="black"></path>
				<path d="M 555 665 Q 600 650 648 664 Q 699 676 752 688 Q 777 694 780 697 Q 790 707 784 715 Q 775 728 744 734 Q 711 740 679 725 Q 652 716 623 708 Q 593 701 558 696 C 528 692 526 674 555 665 Z" fill="black"></path>
				<path d="M 398 496 Q 389 620 392 649 Q 393 674 378 686 Q 353 704 323 712 Q 307 716 298 710 Q 291 703 298 687 Q 325 647 353 490 C 358 460 400 466 398 496 Z" fill="black"></path>
				<path d="M 535 482 Q 590 489 909 506 Q 931 506 937 516 Q 943 529 924 544 Q 864 586 809 572 Q 704 550 542 520 L 499 512 Q 450 505 398 496 L 353 490 Q 247 475 129 457 Q 107 454 124 435 Q 140 420 160 415 Q 184 409 201 415 Q 360 464 488 476 L 535 482 Z" fill="black"></path>
				<path d="M 488 476 Q 488 473 490 468 Q 515 405 494 235 Q 485 202 515 166 Q 525 154 535 166 Q 557 199 556 243 Q 552 342 566 435 Q 573 459 552 471 Q 543 477 535 482 C 510 498 480 505 488 476 Z" fill="black"></path>
				<path d="M 352 398 Q 327 340 290 286 Q 268 247 287 210 Q 296 191 320 204 Q 375 247 380 333 Q 387 370 379 398 Q 373 408 366 409 Q 356 408 352 398 Z" fill="black"></path>
				<path d="M 695 430 Q 676 238 451 71 Q 447 68 443 65 Q 380 16 232 -63 Q 220 -70 228 -75 Q 237 -79 251 -77 Q 348 -55 437 -4 Q 590 74 727 298 Q 751 334 779 367 Q 791 377 786 390 Q 780 403 748 431 Q 726 450 713 450 Q 697 449 695 430 Z" fill="red"></path>
</g>
		<text x="40" y="140" font-size="128" fill="#999999">7</text></g>
		<g id="id1:id2:id2" transform="matrix(1.0,0,0,1.0,2048,0.0)">			<g stroke="white" stroke-width="4" transform="scale(4, 4)"> <rect x="1" y="1" width="255" height="255" fill="white" stroke-width="0"/></g>
</g>
		<g id="id1:id3:id3" transform="matrix(1.0,0,0,1.0,3072,0.0)">			<g stroke="white" stroke-width="4" transform="scale(4, 4)"> <rect x="1" y="1" width="255" height="255" fill="white" stroke-width="0"/></g>
</g>
		<g id="id1:id4:id4" transform="matrix(1.0,0,0,1.0,4096,0.0)">			<g stroke="white" stroke-width="4" transform="scale(4, 4)"> <rect x="1" y="1" width="255" height="255" fill="white" stroke-width="0"/></g>
</g>
</g>
</svg>
