<?xml version="1.0" standalone="no"?>
<!DOCTYPE svg PUBLIC "-//W3C//DTD SVG 1.1//EN"
 "http://www.w3.org/Graphics/SVG/1.1/DTD/svg11.dtd">
<!-- generate by Japanese dictionary app com.asnsami.kanjidictionary -->

<svg xmlns="http://www.w3.org/2000/svg" xmlns:sodipodi="http://sodipodi.sourceforge.net/DTD/sodipodi-0.dtd" version="1.1" width="640" height="384" viewBox="0 0 5120 3072">
	<g id="id0:id0" transform="translate(0.0,0)">
		<g id="id0:id0:id0" transform="matrix(1.0,0,0,1.0,0,0.0)">			<g stroke="lightgray" stroke-width="4" transform="scale(4, 4)"> <rect x="0" y="0" width="256" height="256" fill="white" stroke-width="4"/></g>
			<g transform="scale(0.92, -0.92) translate(60, -920)">					<path d="M 271 645 Q 433 688 436 691 Q 445 700 440 708 Q 433 720 402 726 Q 372 730 283 697 Q 193 676 160 670 Q 123 663 150 647 Q 183 629 233 635 L 271 645 Z" fill="red"></path>
				<path d="M 163 402 Q 199 442 228 481 L 241 499 Q 286 574 303 591 Q 310 600 307 611 Q 297 636 271 645 C 244 657 220 662 233 635 L 234 634 Q 244 615 237 597 Q 215 539 182 484 Q 151 432 105 373 Q 98 366 95 360 Q 92 350 104 353 Q 114 354 133 373 Q 140 380 151 389 L 163 402 Z" fill="lightgray"></path>
				<path d="M 228 481 Q 238 472 267 478 Q 322 491 327 484 Q 334 471 317 414 Q 304 353 249 268 Q 195 177 100 85 Q 78 69 98 72 Q 206 88 329 311 Q 354 360 377 416 Q 396 468 412 485 Q 424 495 417 507 Q 411 517 359 535 Q 346 539 325 527 Q 300 514 241 499 C 212 491 201 488 228 481 Z" fill="lightgray"></path>
				<path d="M 151 389 Q 152 380 171 362 Q 192 337 215 309 Q 224 297 236 296 Q 243 295 249 305 Q 255 315 251 339 Q 250 357 225 374 Q 176 402 163 402 C 146 404 146 404 151 389 Z" fill="lightgray"></path>
				<path d="M 619 659 Q 637 693 654 712 Q 663 724 657 737 Q 653 750 622 771 Q 594 787 574 786 Q 555 783 565 761 Q 581 731 571 705 Q 519 552 377 356 Q 367 344 365 338 Q 364 326 377 330 Q 435 345 585 595 Q 594 614 606 633 L 619 659 Z" fill="lightgray"></path>
				<path d="M 606 633 Q 687 518 790 395 Q 808 374 839 375 Q 944 376 977 382 Q 987 383 988 389 Q 988 393 975 401 Q 821 458 757 522 Q 691 582 619 659 C 598 681 589 657 606 633 Z" fill="lightgray"></path>
				<path d="M 490 401 Q 456 392 482 378 Q 527 359 577 375 Q 626 388 678 402 Q 702 409 705 413 Q 712 420 708 429 Q 701 439 671 445 Q 659 446 559 415 Q 528 406 490 401 Z" fill="lightgray"></path>
				<path d="M 428 221 Q 449 196 470 166 Q 480 153 494 151 Q 503 150 509 161 Q 516 173 512 200 Q 509 225 431 263 Q 418 267 412 267 Q 408 264 407 253 Q 408 243 428 221 Z" fill="lightgray"></path>
				<path d="M 522 290 Q 564 206 586 198 Q 598 194 608 208 Q 612 220 608 240 Q 602 259 581 276 Q 547 304 532 313 Q 525 316 520 306 Q 517 299 522 290 Z" fill="lightgray"></path>
				<path d="M 654 101 Q 753 276 766 293 Q 782 305 773 316 Q 763 334 732 354 Q 717 366 699 359 Q 689 355 695 343 Q 708 292 625 118 Q 619 106 617 96 C 609 67 639 75 654 101 Z" fill="lightgray"></path>
				<path d="M 617 96 Q 601 95 584 91 Q 485 78 369 63 Q 347 62 363 43 Q 378 28 396 23 Q 418 17 435 22 Q 564 53 837 54 Q 858 54 863 63 Q 869 75 852 89 Q 795 131 735 116 Q 699 110 654 101 L 617 96 Z" fill="lightgray"></path>
</g>
		<text x="40" y="140" font-size="128" fill="#999999">1</text></g>
		<g id="id0:id1:id1" transform="matrix(1.0,0,0,1.0,1024,0.0)">			<g stroke="lightgray" stroke-width="4" transform="scale(4, 4)"> <rect x="0" y="0" width="256" height="256" fill="white" stroke-width="4"/></g>
			<g transform="scale(0.92, -0.92) translate(60, -920)">					<path d="M 271 645 Q 433 688 436 691 Q 445 700 440 708 Q 433 720 402 726 Q 372 730 283 697 Q 193 676 160 670 Q 123 663 150 647 Q 183 629 233 635 L 271 645 Z" fill="black"></path>
				<path d="M 163 402 Q 199 442 228 481 L 241 499 Q 286 574 303 591 Q 310 600 307 611 Q 297 636 271 645 C 244 657 220 662 233 635 L 234 634 Q 244 615 237 597 Q 215 539 182 484 Q 151 432 105 373 Q 98 366 95 360 Q 92 350 104 353 Q 114 354 133 373 Q 140 380 151 389 L 163 402 Z" fill="red"></path>
				<path d="M 228 481 Q 238 472 267 478 Q 322 491 327 484 Q 334 471 317 414 Q 304 353 249 268 Q 195 177 100 85 Q 78 69 98 72 Q 206 88 329 311 Q 354 360 377 416 Q 396 468 412 485 Q 424 495 417 507 Q 411 517 359 535 Q 346 539 325 527 Q 300 514 241 499 C 212 491 201 488 228 481 Z" fill="lightgray"></path>
				<path d="M 151 389 Q 152 380 171 362 Q 192 337 215 309 Q 224 297 236 296 Q 243 295 249 305 Q 255 315 251 339 Q 250 357 225 374 Q 176 402 163 402 C 146 404 146 404 151 389 Z" fill="lightgray"></path>
				<path d="M 619 659 Q 637 693 654 712 Q 663 724 657 737 Q 653 750 622 771 Q 594 787 574 786 Q 555 783 565 761 Q 581 731 571 705 Q 519 552 377 356 Q 367 344 365 338 Q 364 326 377 330 Q 435 345 585 595 Q 594 614 606 633 L 619 659 Z" fill="lightgray"></path>
				<path d="M 606 633 Q 687 518 790 395 Q 808 374 839 375 Q 944 376 977 382 Q 987 383 988 389 Q 988 393 975 401 Q 821 458 757 522 Q 691 582 619 659 C 598 681 589 657 606 633 Z" fill="lightgray"></path>
				<path d="M 490 401 Q 456 392 482 378 Q 527 359 577 375 Q 626 388 678 402 Q 702 409 705 413 Q 712 420 708 429 Q 701 439 671 445 Q 659 446 559 415 Q 528 406 490 401 Z" fill="lightgray"></path>
				<path d="M 428 221 Q 449 196 470 166 Q 480 153 494 151 Q 503 150 509 161 Q 516 173 512 200 Q 509 225 431 263 Q 418 267 412 267 Q 408 264 407 253 Q 408 243 428 221 Z" fill="lightgray"></path>
				<path d="M 522 290 Q 564 206 586 198 Q 598 194 608 208 Q 612 220 608 240 Q 602 259 581 276 Q 547 304 532 313 Q 525 316 520 306 Q 517 299 522 290 Z" fill="lightgray"></path>
				<path d="M 654 101 Q 753 276 766 293 Q 782 305 773 316 Q 763 334 732 354 Q 717 366 699 359 Q 689 355 695 343 Q 708 292 625 118 Q 619 106 617 96 C 609 67 639 75 654 101 Z" fill="lightgray"></path>
				<path d="M 617 96 Q 601 95 584 91 Q 485 78 369 63 Q 347 62 363 43 Q 378 28 396 23 Q 418 17 435 22 Q 564 53 837 54 Q 858 54 863 63 Q 869 75 852 89 Q 795 131 735 116 Q 699 110 654 101 L 617 96 Z" fill="lightgray"></path>
</g>
		<text x="40" y="140" font-size="128" fill="#999999">2</text></g>
		<g id="id0:id2:id2" transform="matrix(1.0,0,0,1.0,2048,0.0)">			<g stroke="lightgray" stroke-width="4" transform="scale(4, 4)"> <rect x="0" y="0" width="256" height="256" fill="white" stroke-width="4"/></g>
			<g transform="scale(0.92, -0.92) translate(60, -920)">					<path d="M 271 645 Q 433 688 436 691 Q 445 700 440 708 Q 433 720 402 726 Q 372 730 283 697 Q 193 676 160 670 Q 123 663 150 647 Q 183 629 233 635 L 271 645 Z" fill="black"></path>
				<path d="M 163 402 Q 199 442 228 481 L 241 499 Q 286 574 303 591 Q 310 600 307 611 Q 297 636 271 645 C 244 657 220 662 233 635 L 234 634 Q 244 615 237 597 Q 215 539 182 484 Q 151 432 105 373 Q 98 366 95 360 Q 92 350 104 353 Q 114 354 133 373 Q 140 380 151 389 L 163 402 Z" fill="black"></path>
				<path d="M 228 481 Q 238 472 267 478 Q 322 491 327 484 Q 334 471 317 414 Q 304 353 249 268 Q 195 177 100 85 Q 78 69 98 72 Q 206 88 329 311 Q 354 360 377 416 Q 396 468 412 485 Q 424 495 417 507 Q 411 517 359 535 Q 346 539 325 527 Q 300 514 241 499 C 212 491 201 488 228 481 Z" fill="red"></path>
				<path d="M 151 389 Q 152 380 171 362 Q 192 337 215 309 Q 224 297 236 296 Q 243 295 249 305 Q 255 315 251 339 Q 250 357 225 374 Q 176 402 163 402 C 146 404 146 404 151 389 Z" fill="lightgray"></path>
				<path d="M 619 659 Q 637 693 654 712 Q 663 724 657 737 Q 653 750 622 771 Q 594 787 574 786 Q 555 783 565 761 Q 581 731 571 705 Q 519 552 377 356 Q 367 344 365 338 Q 364 326 377 330 Q 435 345 585 595 Q 594 614 606 633 L 619 659 Z" fill="lightgray"></path>
				<path d="M 606 633 Q 687 518 790 395 Q 808 374 839 375 Q 944 376 977 382 Q 987 383 988 389 Q 988 393 975 401 Q 821 458 757 522 Q 691 582 619 659 C 598 681 589 657 606 633 Z" fill="lightgray"></path>
				<path d="M 490 401 Q 456 392 482 378 Q 527 359 577 375 Q 626 388 678 402 Q 702 409 705 413 Q 712 420 708 429 Q 701 439 671 445 Q 659 446 559 415 Q 528 406 490 401 Z" fill="lightgray"></path>
				<path d="M 428 221 Q 449 196 470 166 Q 480 153 494 151 Q 503 150 509 161 Q 516 173 512 200 Q 509 225 431 263 Q 418 267 412 267 Q 408 264 407 253 Q 408 243 428 221 Z" fill="lightgray"></path>
				<path d="M 522 290 Q 564 206 586 198 Q 598 194 608 208 Q 612 220 608 240 Q 602 259 581 276 Q 547 304 532 313 Q 525 316 520 306 Q 517 299 522 290 Z" fill="lightgray"></path>
				<path d="M 654 101 Q 753 276 766 293 Q 782 305 773 316 Q 763 334 732 354 Q 717 366 699 359 Q 689 355 695 343 Q 708 292 625 118 Q 619 106 617 96 C 609 67 639 75 654 101 Z" fill="lightgray"></path>
				<path d="M 617 96 Q 601 95 584 91 Q 485 78 369 63 Q 347 62 363 43 Q 378 28 396 23 Q 418 17 435 22 Q 564 53 837 54 Q 858 54 863 63 Q 869 75 852 89 Q 795 131 735 116 Q 699 110 654 101 L 617 96 Z" fill="lightgray"></path>
</g>
		<text x="40" y="140" font-size="128" fill="#999999">3</text></g>
		<g id="id0:id3:id3" transform="matrix(1.0,0,0,1.0,3072,0.0)">			<g stroke="lightgray" stroke-width="4" transform="scale(4, 4)"> <rect x="0" y="0" width="256" height="256" fill="white" stroke-width="4"/></g>
			<g transform="scale(0.92, -0.92) translate(60, -920)">					<path d="M 271 645 Q 433 688 436 691 Q 445 700 440 708 Q 433 720 402 726 Q 372 730 283 697 Q 193 676 160 670 Q 123 663 150 647 Q 183 629 233 635 L 271 645 Z" fill="black"></path>
				<path d="M 163 402 Q 199 442 228 481 L 241 499 Q 286 574 303 591 Q 310 600 307 611 Q 297 636 271 645 C 244 657 220 662 233 635 L 234 634 Q 244 615 237 597 Q 215 539 182 484 Q 151 432 105 373 Q 98 366 95 360 Q 92 350 104 353 Q 114 354 133 373 Q 140 380 151 389 L 163 402 Z" fill="black"></path>
				<path d="M 228 481 Q 238 472 267 478 Q 322 491 327 484 Q 334 471 317 414 Q 304 353 249 268 Q 195 177 100 85 Q 78 69 98 72 Q 206 88 329 311 Q 354 360 377 416 Q 396 468 412 485 Q 424 495 417 507 Q 411 517 359 535 Q 346 539 325 527 Q 300 514 241 499 C 212 491 201 488 228 481 Z" fill="black"></path>
				<path d="M 151 389 Q 152 380 171 362 Q 192 337 215 309 Q 224 297 236 296 Q 243 295 249 305 Q 255 315 251 339 Q 250 357 225 374 Q 176 402 163 402 C 146 404 146 404 151 389 Z" fill="red"></path>
				<path d="M 619 659 Q 637 693 654 712 Q 663 724 657 737 Q 653 750 622 771 Q 594 787 574 786 Q 555 783 565 761 Q 581 731 571 705 Q 519 552 377 356 Q 367 344 365 338 Q 364 326 377 330 Q 435 345 585 595 Q 594 614 606 633 L 619 659 Z" fill="lightgray"></path>
				<path d="M 606 633 Q 687 518 790 395 Q 808 374 839 375 Q 944 376 977 382 Q 987 383 988 389 Q 988 393 975 401 Q 821 458 757 522 Q 691 582 619 659 C 598 681 589 657 606 633 Z" fill="lightgray"></path>
				<path d="M 490 401 Q 456 392 482 378 Q 527 359 577 375 Q 626 388 678 402 Q 702 409 705 413 Q 712 420 708 429 Q 701 439 671 445 Q 659 446 559 415 Q 528 406 490 401 Z" fill="lightgray"></path>
				<path d="M 428 221 Q 449 196 470 166 Q 480 153 494 151 Q 503 150 509 161 Q 516 173 512 200 Q 509 225 431 263 Q 418 267 412 267 Q 408 264 407 253 Q 408 243 428 221 Z" fill="lightgray"></path>
				<path d="M 522 290 Q 564 206 586 198 Q 598 194 608 208 Q 612 220 608 240 Q 602 259 581 276 Q 547 304 532 313 Q 525 316 520 306 Q 517 299 522 290 Z" fill="lightgray"></path>
				<path d="M 654 101 Q 753 276 766 293 Q 782 305 773 316 Q 763 334 732 354 Q 717 366 699 359 Q 689 355 695 343 Q 708 292 625 118 Q 619 106 617 96 C 609 67 639 75 654 101 Z" fill="lightgray"></path>
				<path d="M 617 96 Q 601 95 584 91 Q 485 78 369 63 Q 347 62 363 43 Q 378 28 396 23 Q 418 17 435 22 Q 564 53 837 54 Q 858 54 863 63 Q 869 75 852 89 Q 795 131 735 116 Q 699 110 654 101 L 617 96 Z" fill="lightgray"></path>
</g>
		<text x="40" y="140" font-size="128" fill="#999999">4</text></g>
		<g id="id0:id4:id4" transform="matrix(1.0,0,0,1.0,4096,0.0)">			<g stroke="lightgray" stroke-width="4" transform="scale(4, 4)"> <rect x="0" y="0" width="256" height="256" fill="white" stroke-width="4"/></g>
			<g transform="scale(0.92, -0.92) translate(60, -920)">					<path d="M 271 645 Q 433 688 436 691 Q 445 700 440 708 Q 433 720 402 726 Q 372 730 283 697 Q 193 676 160 670 Q 123 663 150 647 Q 183 629 233 635 L 271 645 Z" fill="black"></path>
				<path d="M 163 402 Q 199 442 228 481 L 241 499 Q 286 574 303 591 Q 310 600 307 611 Q 297 636 271 645 C 244 657 220 662 233 635 L 234 634 Q 244 615 237 597 Q 215 539 182 484 Q 151 432 105 373 Q 98 366 95 360 Q 92 350 104 353 Q 114 354 133 373 Q 140 380 151 389 L 163 402 Z" fill="black"></path>
				<path d="M 228 481 Q 238 472 267 478 Q 322 491 327 484 Q 334 471 317 414 Q 304 353 249 268 Q 195 177 100 85 Q 78 69 98 72 Q 206 88 329 311 Q 354 360 377 416 Q 396 468 412 485 Q 424 495 417 507 Q 411 517 359 535 Q 346 539 325 527 Q 300 514 241 499 C 212 491 201 488 228 481 Z" fill="black"></path>
				<path d="M 151 389 Q 152 380 171 362 Q 192 337 215 309 Q 224 297 236 296 Q 243 295 249 305 Q 255 315 251 339 Q 250 357 225 374 Q 176 402 163 402 C 146 404 146 404 151 389 Z" fill="black"></path>
				<path d="M 619 659 Q 637 693 654 712 Q 663 724 657 737 Q 653 750 622 771 Q 594 787 574 786 Q 555 783 565 761 Q 581 731 571 705 Q 519 552 377 356 Q 367 344 365 338 Q 364 326 377 330 Q 435 345 585 595 Q 594 614 606 633 L 619 659 Z" fill="red"></path>
				<path d="M 606 633 Q 687 518 790 395 Q 808 374 839 375 Q 944 376 977 382 Q 987 383 988 389 Q 988 393 975 401 Q 821 458 757 522 Q 691 582 619 659 C 598 681 589 657 606 633 Z" fill="lightgray"></path>
				<path d="M 490 401 Q 456 392 482 378 Q 527 359 577 375 Q 626 388 678 402 Q 702 409 705 413 Q 712 420 708 429 Q 701 439 671 445 Q 659 446 559 415 Q 528 406 490 401 Z" fill="lightgray"></path>
				<path d="M 428 221 Q 449 196 470 166 Q 480 153 494 151 Q 503 150 509 161 Q 516 173 512 200 Q 509 225 431 263 Q 418 267 412 267 Q 408 264 407 253 Q 408 243 428 221 Z" fill="lightgray"></path>
				<path d="M 522 290 Q 564 206 586 198 Q 598 194 608 208 Q 612 220 608 240 Q 602 259 581 276 Q 547 304 532 313 Q 525 316 520 306 Q 517 299 522 290 Z" fill="lightgray"></path>
				<path d="M 654 101 Q 753 276 766 293 Q 782 305 773 316 Q 763 334 732 354 Q 717 366 699 359 Q 689 355 695 343 Q 708 292 625 118 Q 619 106 617 96 C 609 67 639 75 654 101 Z" fill="lightgray"></path>
				<path d="M 617 96 Q 601 95 584 91 Q 485 78 369 63 Q 347 62 363 43 Q 378 28 396 23 Q 418 17 435 22 Q 564 53 837 54 Q 858 54 863 63 Q 869 75 852 89 Q 795 131 735 116 Q 699 110 654 101 L 617 96 Z" fill="lightgray"></path>
</g>
		<text x="40" y="140" font-size="128" fill="#999999">5</text></g>
</g>
	<g id="id1:id1" transform="translate(0.0,1024)">
		<g id="id1:id0:id0" transform="matrix(1.0,0,0,1.0,0,0.0)">			<g stroke="lightgray" stroke-width="4" transform="scale(4, 4)"> <rect x="0" y="0" width="256" height="256" fill="white" stroke-width="4"/></g>
			<g transform="scale(0.92, -0.92) translate(60, -920)">					<path d="M 271 645 Q 433 688 436 691 Q 445 700 440 708 Q 433 720 402 726 Q 372 730 283 697 Q 193 676 160 670 Q 123 663 150 647 Q 183 629 233 635 L 271 645 Z" fill="black"></path>
				<path d="M 163 402 Q 199 442 228 481 L 241 499 Q 286 574 303 591 Q 310 600 307 611 Q 297 636 271 645 C 244 657 220 662 233 635 L 234 634 Q 244 615 237 597 Q 215 539 182 484 Q 151 432 105 373 Q 98 366 95 360 Q 92 350 104 353 Q 114 354 133 373 Q 140 380 151 389 L 163 402 Z" fill="black"></path>
				<path d="M 228 481 Q 238 472 267 478 Q 322 491 327 484 Q 334 471 317 414 Q 304 353 249 268 Q 195 177 100 85 Q 78 69 98 72 Q 206 88 329 311 Q 354 360 377 416 Q 396 468 412 485 Q 424 495 417 507 Q 411 517 359 535 Q 346 539 325 527 Q 300 514 241 499 C 212 491 201 488 228 481 Z" fill="black"></path>
				<path d="M 151 389 Q 152 380 171 362 Q 192 337 215 309 Q 224 297 236 296 Q 243 295 249 305 Q 255 315 251 339 Q 250 357 225 374 Q 176 402 163 402 C 146 404 146 404 151 389 Z" fill="black"></path>
				<path d="M 619 659 Q 637 693 654 712 Q 663 724 657 737 Q 653 750 622 771 Q 594 787 574 786 Q 555 783 565 761 Q 581 731 571 705 Q 519 552 377 356 Q 367 344 365 338 Q 364 326 377 330 Q 435 345 585 595 Q 594 614 606 633 L 619 659 Z" fill="black"></path>
				<path d="M 606 633 Q 687 518 790 395 Q 808 374 839 375 Q 944 376 977 382 Q 987 383 988 389 Q 988 393 975 401 Q 821 458 757 522 Q 691 582 619 659 C 598 681 589 657 606 633 Z" fill="red"></path>
				<path d="M 490 401 Q 456 392 482 378 Q 527 359 577 375 Q 626 388 678 402 Q 702 409 705 413 Q 712 420 708 429 Q 701 439 671 445 Q 659 446 559 415 Q 528 406 490 401 Z" fill="lightgray"></path>
				<path d="M 428 221 Q 449 196 470 166 Q 480 153 494 151 Q 503 150 509 161 Q 516 173 512 200 Q 509 225 431 263 Q 418 267 412 267 Q 408 264 407 253 Q 408 243 428 221 Z" fill="lightgray"></path>
				<path d="M 522 290 Q 564 206 586 198 Q 598 194 608 208 Q 612 220 608 240 Q 602 259 581 276 Q 547 304 532 313 Q 525 316 520 306 Q 517 299 522 290 Z" fill="lightgray"></path>
				<path d="M 654 101 Q 753 276 766 293 Q 782 305 773 316 Q 763 334 732 354 Q 717 366 699 359 Q 689 355 695 343 Q 708 292 625 118 Q 619 106 617 96 C 609 67 639 75 654 101 Z" fill="lightgray"></path>
				<path d="M 617 96 Q 601 95 584 91 Q 485 78 369 63 Q 347 62 363 43 Q 378 28 396 23 Q 418 17 435 22 Q 564 53 837 54 Q 858 54 863 63 Q 869 75 852 89 Q 795 131 735 116 Q 699 110 654 101 L 617 96 Z" fill="lightgray"></path>
</g>
		<text x="40" y="140" font-size="128" fill="#999999">6</text></g>
		<g id="id1:id1:id1" transform="matrix(1.0,0,0,1.0,1024,0.0)">			<g stroke="lightgray" stroke-width="4" transform="scale(4, 4)"> <rect x="0" y="0" width="256" height="256" fill="white" stroke-width="4"/></g>
			<g transform="scale(0.92, -0.92) translate(60, -920)">					<path d="M 271 645 Q 433 688 436 691 Q 445 700 440 708 Q 433 720 402 726 Q 372 730 283 697 Q 193 676 160 670 Q 123 663 150 647 Q 183 629 233 635 L 271 645 Z" fill="black"></path>
				<path d="M 163 402 Q 199 442 228 481 L 241 499 Q 286 574 303 591 Q 310 600 307 611 Q 297 636 271 645 C 244 657 220 662 233 635 L 234 634 Q 244 615 237 597 Q 215 539 182 484 Q 151 432 105 373 Q 98 366 95 360 Q 92 350 104 353 Q 114 354 133 373 Q 140 380 151 389 L 163 402 Z" fill="black"></path>
				<path d="M 228 481 Q 238 472 267 478 Q 322 491 327 484 Q 334 471 317 414 Q 304 353 249 268 Q 195 177 100 85 Q 78 69 98 72 Q 206 88 329 311 Q 354 360 377 416 Q 396 468 412 485 Q 424 495 417 507 Q 411 517 359 535 Q 346 539 325 527 Q 300 514 241 499 C 212 491 201 488 228 481 Z" fill="black"></path>
				<path d="M 151 389 Q 152 380 171 362 Q 192 337 215 309 Q 224 297 236 296 Q 243 295 249 305 Q 255 315 251 339 Q 250 357 225 374 Q 176 402 163 402 C 146 404 146 404 151 389 Z" fill="black"></path>
				<path d="M 619 659 Q 637 693 654 712 Q 663 724 657 737 Q 653 750 622 771 Q 594 787 574 786 Q 555 783 565 761 Q 581 731 571 705 Q 519 552 377 356 Q 367 344 365 338 Q 364 326 377 330 Q 435 345 585 595 Q 594 614 606 633 L 619 659 Z" fill="black"></path>
				<path d="M 606 633 Q 687 518 790 395 Q 808 374 839 375 Q 944 376 977 382 Q 987 383 988 389 Q 988 393 975 401 Q 821 458 757 522 Q 691 582 619 659 C 598 681 589 657 606 633 Z" fill="black"></path>
				<path d="M 490 401 Q 456 392 482 378 Q 527 359 577 375 Q 626 388 678 402 Q 702 409 705 413 Q 712 420 708 429 Q 701 439 671 445 Q 659 446 559 415 Q 528 406 490 401 Z" fill="red"></path>
				<path d="M 428 221 Q 449 196 470 166 Q 480 153 494 151 Q 503 150 509 161 Q 516 173 512 200 Q 509 225 431 263 Q 418 267 412 267 Q 408 264 407 253 Q 408 243 428 221 Z" fill="lightgray"></path>
				<path d="M 522 290 Q 564 206 586 198 Q 598 194 608 208 Q 612 220 608 240 Q 602 259 581 276 Q 547 304 532 313 Q 525 316 520 306 Q 517 299 522 290 Z" fill="lightgray"></path>
				<path d="M 654 101 Q 753 276 766 293 Q 782 305 773 316 Q 763 334 732 354 Q 717 366 699 359 Q 689 355 695 343 Q 708 292 625 118 Q 619 106 617 96 C 609 67 639 75 654 101 Z" fill="lightgray"></path>
				<path d="M 617 96 Q 601 95 584 91 Q 485 78 369 63 Q 347 62 363 43 Q 378 28 396 23 Q 418 17 435 22 Q 564 53 837 54 Q 858 54 863 63 Q 869 75 852 89 Q 795 131 735 116 Q 699 110 654 101 L 617 96 Z" fill="lightgray"></path>
</g>
		<text x="40" y="140" font-size="128" fill="#999999">7</text></g>
		<g id="id1:id2:id2" transform="matrix(1.0,0,0,1.0,2048,0.0)">			<g stroke="lightgray" stroke-width="4" transform="scale(4, 4)"> <rect x="0" y="0" width="256" height="256" fill="white" stroke-width="4"/></g>
			<g transform="scale(0.92, -0.92) translate(60, -920)">					<path d="M 271 645 Q 433 688 436 691 Q 445 700 440 708 Q 433 720 402 726 Q 372 730 283 697 Q 193 676 160 670 Q 123 663 150 647 Q 183 629 233 635 L 271 645 Z" fill="black"></path>
				<path d="M 163 402 Q 199 442 228 481 L 241 499 Q 286 574 303 591 Q 310 600 307 611 Q 297 636 271 645 C 244 657 220 662 233 635 L 234 634 Q 244 615 237 597 Q 215 539 182 484 Q 151 432 105 373 Q 98 366 95 360 Q 92 350 104 353 Q 114 354 133 373 Q 140 380 151 389 L 163 402 Z" fill="black"></path>
				<path d="M 228 481 Q 238 472 267 478 Q 322 491 327 484 Q 334 471 317 414 Q 304 353 249 268 Q 195 177 100 85 Q 78 69 98 72 Q 206 88 329 311 Q 354 360 377 416 Q 396 468 412 485 Q 424 495 417 507 Q 411 517 359 535 Q 346 539 325 527 Q 300 514 241 499 C 212 491 201 488 228 481 Z" fill="black"></path>
				<path d="M 151 389 Q 152 380 171 362 Q 192 337 215 309 Q 224 297 236 296 Q 243 295 249 305 Q 255 315 251 339 Q 250 357 225 374 Q 176 402 163 402 C 146 404 146 404 151 389 Z" fill="black"></path>
				<path d="M 619 659 Q 637 693 654 712 Q 663 724 657 737 Q 653 750 622 771 Q 594 787 574 786 Q 555 783 565 761 Q 581 731 571 705 Q 519 552 377 356 Q 367 344 365 338 Q 364 326 377 330 Q 435 345 585 595 Q 594 614 606 633 L 619 659 Z" fill="black"></path>
				<path d="M 606 633 Q 687 518 790 395 Q 808 374 839 375 Q 944 376 977 382 Q 987 383 988 389 Q 988 393 975 401 Q 821 458 757 522 Q 691 582 619 659 C 598 681 589 657 606 633 Z" fill="black"></path>
				<path d="M 490 401 Q 456 392 482 378 Q 527 359 577 375 Q 626 388 678 402 Q 702 409 705 413 Q 712 420 708 429 Q 701 439 671 445 Q 659 446 559 415 Q 528 406 490 401 Z" fill="black"></path>
				<path d="M 428 221 Q 449 196 470 166 Q 480 153 494 151 Q 503 150 509 161 Q 516 173 512 200 Q 509 225 431 263 Q 418 267 412 267 Q 408 264 407 253 Q 408 243 428 221 Z" fill="red"></path>
				<path d="M 522 290 Q 564 206 586 198 Q 598 194 608 208 Q 612 220 608 240 Q 602 259 581 276 Q 547 304 532 313 Q 525 316 520 306 Q 517 299 522 290 Z" fill="lightgray"></path>
				<path d="M 654 101 Q 753 276 766 293 Q 782 305 773 316 Q 763 334 732 354 Q 717 366 699 359 Q 689 355 695 343 Q 708 292 625 118 Q 619 106 617 96 C 609 67 639 75 654 101 Z" fill="lightgray"></path>
				<path d="M 617 96 Q 601 95 584 91 Q 485 78 369 63 Q 347 62 363 43 Q 378 28 396 23 Q 418 17 435 22 Q 564 53 837 54 Q 858 54 863 63 Q 869 75 852 89 Q 795 131 735 116 Q 699 110 654 101 L 617 96 Z" fill="lightgray"></path>
</g>
		<text x="40" y="140" font-size="128" fill="#999999">8</text></g>
		<g id="id1:id3:id3" transform="matrix(1.0,0,0,1.0,3072,0.0)">			<g stroke="lightgray" stroke-width="4" transform="scale(4, 4)"> <rect x="0" y="0" width="256" height="256" fill="white" stroke-width="4"/></g>
			<g transform="scale(0.92, -0.92) translate(60, -920)">					<path d="M 271 645 Q 433 688 436 691 Q 445 700 440 708 Q 433 720 402 726 Q 372 730 283 697 Q 193 676 160 670 Q 123 663 150 647 Q 183 629 233 635 L 271 645 Z" fill="black"></path>
				<path d="M 163 402 Q 199 442 228 481 L 241 499 Q 286 574 303 591 Q 310 600 307 611 Q 297 636 271 645 C 244 657 220 662 233 635 L 234 634 Q 244 615 237 597 Q 215 539 182 484 Q 151 432 105 373 Q 98 366 95 360 Q 92 350 104 353 Q 114 354 133 373 Q 140 380 151 389 L 163 402 Z" fill="black"></path>
				<path d="M 228 481 Q 238 472 267 478 Q 322 491 327 484 Q 334 471 317 414 Q 304 353 249 268 Q 195 177 100 85 Q 78 69 98 72 Q 206 88 329 311 Q 354 360 377 416 Q 396 468 412 485 Q 424 495 417 507 Q 411 517 359 535 Q 346 539 325 527 Q 300 514 241 499 C 212 491 201 488 228 481 Z" fill="black"></path>
				<path d="M 151 389 Q 152 380 171 362 Q 192 337 215 309 Q 224 297 236 296 Q 243 295 249 305 Q 255 315 251 339 Q 250 357 225 374 Q 176 402 163 402 C 146 404 146 404 151 389 Z" fill="black"></path>
				<path d="M 619 659 Q 637 693 654 712 Q 663 724 657 737 Q 653 750 622 771 Q 594 787 574 786 Q 555 783 565 761 Q 581 731 571 705 Q 519 552 377 356 Q 367 344 365 338 Q 364 326 377 330 Q 435 345 585 595 Q 594 614 606 633 L 619 659 Z" fill="black"></path>
				<path d="M 606 633 Q 687 518 790 395 Q 808 374 839 375 Q 944 376 977 382 Q 987 383 988 389 Q 988 393 975 401 Q 821 458 757 522 Q 691 582 619 659 C 598 681 589 657 606 633 Z" fill="black"></path>
				<path d="M 490 401 Q 456 392 482 378 Q 527 359 577 375 Q 626 388 678 402 Q 702 409 705 413 Q 712 420 708 429 Q 701 439 671 445 Q 659 446 559 415 Q 528 406 490 401 Z" fill="black"></path>
				<path d="M 428 221 Q 449 196 470 166 Q 480 153 494 151 Q 503 150 509 161 Q 516 173 512 200 Q 509 225 431 263 Q 418 267 412 267 Q 408 264 407 253 Q 408 243 428 221 Z" fill="black"></path>
				<path d="M 522 290 Q 564 206 586 198 Q 598 194 608 208 Q 612 220 608 240 Q 602 259 581 276 Q 547 304 532 313 Q 525 316 520 306 Q 517 299 522 290 Z" fill="red"></path>
				<path d="M 654 101 Q 753 276 766 293 Q 782 305 773 316 Q 763 334 732 354 Q 717 366 699 359 Q 689 355 695 343 Q 708 292 625 118 Q 619 106 617 96 C 609 67 639 75 654 101 Z" fill="lightgray"></path>
				<path d="M 617 96 Q 601 95 584 91 Q 485 78 369 63 Q 347 62 363 43 Q 378 28 396 23 Q 418 17 435 22 Q 564 53 837 54 Q 858 54 863 63 Q 869 75 852 89 Q 795 131 735 116 Q 699 110 654 101 L 617 96 Z" fill="lightgray"></path>
</g>
		<text x="40" y="140" font-size="128" fill="#999999">9</text></g>
		<g id="id1:id4:id4" transform="matrix(1.0,0,0,1.0,4096,0.0)">			<g stroke="lightgray" stroke-width="4" transform="scale(4, 4)"> <rect x="0" y="0" width="256" height="256" fill="white" stroke-width="4"/></g>
			<g transform="scale(0.92, -0.92) translate(60, -920)">					<path d="M 271 645 Q 433 688 436 691 Q 445 700 440 708 Q 433 720 402 726 Q 372 730 283 697 Q 193 676 160 670 Q 123 663 150 647 Q 183 629 233 635 L 271 645 Z" fill="black"></path>
				<path d="M 163 402 Q 199 442 228 481 L 241 499 Q 286 574 303 591 Q 310 600 307 611 Q 297 636 271 645 C 244 657 220 662 233 635 L 234 634 Q 244 615 237 597 Q 215 539 182 484 Q 151 432 105 373 Q 98 366 95 360 Q 92 350 104 353 Q 114 354 133 373 Q 140 380 151 389 L 163 402 Z" fill="black"></path>
				<path d="M 228 481 Q 238 472 267 478 Q 322 491 327 484 Q 334 471 317 414 Q 304 353 249 268 Q 195 177 100 85 Q 78 69 98 72 Q 206 88 329 311 Q 354 360 377 416 Q 396 468 412 485 Q 424 495 417 507 Q 411 517 359 535 Q 346 539 325 527 Q 300 514 241 499 C 212 491 201 488 228 481 Z" fill="black"></path>
				<path d="M 151 389 Q 152 380 171 362 Q 192 337 215 309 Q 224 297 236 296 Q 243 295 249 305 Q 255 315 251 339 Q 250 357 225 374 Q 176 402 163 402 C 146 404 146 404 151 389 Z" fill="black"></path>
				<path d="M 619 659 Q 637 693 654 712 Q 663 724 657 737 Q 653 750 622 771 Q 594 787 574 786 Q 555 783 565 761 Q 581 731 571 705 Q 519 552 377 356 Q 367 344 365 338 Q 364 326 377 330 Q 435 345 585 595 Q 594 614 606 633 L 619 659 Z" fill="black"></path>
				<path d="M 606 633 Q 687 518 790 395 Q 808 374 839 375 Q 944 376 977 382 Q 987 383 988 389 Q 988 393 975 401 Q 821 458 757 522 Q 691 582 619 659 C 598 681 589 657 606 633 Z" fill="black"></path>
				<path d="M 490 401 Q 456 392 482 378 Q 527 359 577 375 Q 626 388 678 402 Q 702 409 705 413 Q 712 420 708 429 Q 701 439 671 445 Q 659 446 559 415 Q 528 406 490 401 Z" fill="black"></path>
				<path d="M 428 221 Q 449 196 470 166 Q 480 153 494 151 Q 503 150 509 161 Q 516 173 512 200 Q 509 225 431 263 Q 418 267 412 267 Q 408 264 407 253 Q 408 243 428 221 Z" fill="black"></path>
				<path d="M 522 290 Q 564 206 586 198 Q 598 194 608 208 Q 612 220 608 240 Q 602 259 581 276 Q 547 304 532 313 Q 525 316 520 306 Q 517 299 522 290 Z" fill="black"></path>
				<path d="M 654 101 Q 753 276 766 293 Q 782 305 773 316 Q 763 334 732 354 Q 717 366 699 359 Q 689 355 695 343 Q 708 292 625 118 Q 619 106 617 96 C 609 67 639 75 654 101 Z" fill="red"></path>
				<path d="M 617 96 Q 601 95 584 91 Q 485 78 369 63 Q 347 62 363 43 Q 378 28 396 23 Q 418 17 435 22 Q 564 53 837 54 Q 858 54 863 63 Q 869 75 852 89 Q 795 131 735 116 Q 699 110 654 101 L 617 96 Z" fill="lightgray"></path>
</g>
		<text x="40" y="140" font-size="128" fill="#999999">10</text></g>
</g>
	<g id="id2:id2" transform="translate(0.0,2048)">
		<g id="id2:id0:id0" transform="matrix(1.0,0,0,1.0,0,0.0)">			<g stroke="lightgray" stroke-width="4" transform="scale(4, 4)"> <rect x="0" y="0" width="256" height="256" fill="white" stroke-width="4"/></g>
			<g transform="scale(0.92, -0.92) translate(60, -920)">					<path d="M 271 645 Q 433 688 436 691 Q 445 700 440 708 Q 433 720 402 726 Q 372 730 283 697 Q 193 676 160 670 Q 123 663 150 647 Q 183 629 233 635 L 271 645 Z" fill="black"></path>
				<path d="M 163 402 Q 199 442 228 481 L 241 499 Q 286 574 303 591 Q 310 600 307 611 Q 297 636 271 645 C 244 657 220 662 233 635 L 234 634 Q 244 615 237 597 Q 215 539 182 484 Q 151 432 105 373 Q 98 366 95 360 Q 92 350 104 353 Q 114 354 133 373 Q 140 380 151 389 L 163 402 Z" fill="black"></path>
				<path d="M 228 481 Q 238 472 267 478 Q 322 491 327 484 Q 334 471 317 414 Q 304 353 249 268 Q 195 177 100 85 Q 78 69 98 72 Q 206 88 329 311 Q 354 360 377 416 Q 396 468 412 485 Q 424 495 417 507 Q 411 517 359 535 Q 346 539 325 527 Q 300 514 241 499 C 212 491 201 488 228 481 Z" fill="black"></path>
				<path d="M 151 389 Q 152 380 171 362 Q 192 337 215 309 Q 224 297 236 296 Q 243 295 249 305 Q 255 315 251 339 Q 250 357 225 374 Q 176 402 163 402 C 146 404 146 404 151 389 Z" fill="black"></path>
				<path d="M 619 659 Q 637 693 654 712 Q 663 724 657 737 Q 653 750 622 771 Q 594 787 574 786 Q 555 783 565 761 Q 581 731 571 705 Q 519 552 377 356 Q 367 344 365 338 Q 364 326 377 330 Q 435 345 585 595 Q 594 614 606 633 L 619 659 Z" fill="black"></path>
				<path d="M 606 633 Q 687 518 790 395 Q 808 374 839 375 Q 944 376 977 382 Q 987 383 988 389 Q 988 393 975 401 Q 821 458 757 522 Q 691 582 619 659 C 598 681 589 657 606 633 Z" fill="black"></path>
				<path d="M 490 401 Q 456 392 482 378 Q 527 359 577 375 Q 626 388 678 402 Q 702 409 705 413 Q 712 420 708 429 Q 701 439 671 445 Q 659 446 559 415 Q 528 406 490 401 Z" fill="black"></path>
				<path d="M 428 221 Q 449 196 470 166 Q 480 153 494 151 Q 503 150 509 161 Q 516 173 512 200 Q 509 225 431 263 Q 418 267 412 267 Q 408 264 407 253 Q 408 243 428 221 Z" fill="black"></path>
				<path d="M 522 290 Q 564 206 586 198 Q 598 194 608 208 Q 612 220 608 240 Q 602 259 581 276 Q 547 304 532 313 Q 525 316 520 306 Q 517 299 522 290 Z" fill="black"></path>
				<path d="M 654 101 Q 753 276 766 293 Q 782 305 773 316 Q 763 334 732 354 Q 717 366 699 359 Q 689 355 695 343 Q 708 292 625 118 Q 619 106 617 96 C 609 67 639 75 654 101 Z" fill="black"></path>
				<path d="M 617 96 Q 601 95 584 91 Q 485 78 369 63 Q 347 62 363 43 Q 378 28 396 23 Q 418 17 435 22 Q 564 53 837 54 Q 858 54 863 63 Q 869 75 852 89 Q 795 131 735 116 Q 699 110 654 101 L 617 96 Z" fill="red"></path>
</g>
		<text x="40" y="140" font-size="128" fill="#999999">11</text></g>
		<g id="id2:id1:id1" transform="matrix(1.0,0,0,1.0,1024,0.0)">			<g stroke="white" stroke-width="4" transform="scale(4, 4)"> <rect x="1" y="1" width="255" height="255" fill="white" stroke-width="0"/></g>
</g>
		<g id="id2:id2:id2" transform="matrix(1.0,0,0,1.0,2048,0.0)">			<g stroke="white" stroke-width="4" transform="scale(4, 4)"> <rect x="1" y="1" width="255" height="255" fill="white" stroke-width="0"/></g>
</g>
		<g id="id2:id3:id3" transform="matrix(1.0,0,0,1.0,3072,0.0)">			<g stroke="white" stroke-width="4" transform="scale(4, 4)"> <rect x="1" y="1" width="255" height="255" fill="white" stroke-width="0"/></g>
</g>
		<g id="id2:id4:id4" transform="matrix(1.0,0,0,1.0,4096,0.0)">			<g stroke="white" stroke-width="4" transform="scale(4, 4)"> <rect x="1" y="1" width="255" height="255" fill="white" stroke-width="0"/></g>
</g>
</g>
</svg>
