<?xml version="1.0" standalone="no"?>
<!DOCTYPE svg PUBLIC "-//W3C//DTD SVG 1.1//EN"
 "http://www.w3.org/Graphics/SVG/1.1/DTD/svg11.dtd">
<!-- generate by Japanese dictionary app com.asnsami.kanjidictionary -->

<svg xmlns="http://www.w3.org/2000/svg" xmlns:sodipodi="http://sodipodi.sourceforge.net/DTD/sodipodi-0.dtd" version="1.1" width="640" height="128" viewBox="0 0 5120 1024">
	<g id="id0:id0" transform="translate(0.0,0)">
		<g id="id0:id0:id0" transform="matrix(1.0,0,0,1.0,0,0.0)">			<g stroke="lightgray" stroke-width="4" transform="scale(4, 4)"> <rect x="0" y="0" width="256" height="256" fill="white" stroke-width="4"/></g>
			<g transform="scale(0.92, -0.92) translate(60, -920)">					<path d="M 396 753 Q 353 775 339 773 Q 320 770 335 750 Q 363 705 341 578 Q 335 557 327 534 Q 311 494 267 449 Q 254 437 251 431 Q 250 425 260 425 Q 290 425 334 469 Q 394 532 405 696 Q 406 709 409 718 C 415 744 415 744 396 753 Z" fill="red"></path>
				<path d="M 806 487 Q 821 493 812 508 Q 797 527 779 538 Q 769 545 744 536 Q 696 514 637 517 Q 600 518 588 546 Q 572 571 578 647 Q 579 693 619 743 Q 635 759 618 773 Q 594 792 567 803 Q 557 807 539 797 Q 485 773 396 753 C 367 746 380 711 409 718 Q 469 733 531 750 Q 540 746 538 731 Q 534 563 536 552 Q 542 506 577 482 Q 617 460 693 463 Q 768 466 806 487 Z" fill="lightgray"></path>
				<path d="M 524 160 Q 570 221 600 312 Q 610 349 634 368 Q 653 383 633 401 Q 611 420 576 437 Q 552 447 528 436 Q 444 397 330 386 Q 300 383 287 376 Q 277 369 298 357 Q 326 342 370 356 Q 445 371 519 385 Q 538 392 539 369 Q 539 287 479 194 L 451 158 Q 382 83 175 27 Q 157 24 167 14 Q 174 7 207 9 Q 322 21 390 49 Q 445 73 489 118 L 524 160 Z" fill="lightgray"></path>
				<path d="M 489 118 Q 633 -26 681 -30 Q 774 -30 871 -10 Q 913 -3 909 9 Q 908 15 865 26 Q 675 71 628 94 Q 588 115 524 160 L 479 194 Q 430 236 377 285 Q 334 327 296 325 Q 277 324 273 318 Q 272 311 289 300 Q 346 267 451 158 L 489 118 Z" fill="lightgray"></path>
</g>
		<text x="40" y="140" font-size="128" fill="#999999">1</text></g>
		<g id="id0:id1:id1" transform="matrix(1.0,0,0,1.0,1024,0.0)">			<g stroke="lightgray" stroke-width="4" transform="scale(4, 4)"> <rect x="0" y="0" width="256" height="256" fill="white" stroke-width="4"/></g>
			<g transform="scale(0.92, -0.92) translate(60, -920)">					<path d="M 396 753 Q 353 775 339 773 Q 320 770 335 750 Q 363 705 341 578 Q 335 557 327 534 Q 311 494 267 449 Q 254 437 251 431 Q 250 425 260 425 Q 290 425 334 469 Q 394 532 405 696 Q 406 709 409 718 C 415 744 415 744 396 753 Z" fill="black"></path>
				<path d="M 806 487 Q 821 493 812 508 Q 797 527 779 538 Q 769 545 744 536 Q 696 514 637 517 Q 600 518 588 546 Q 572 571 578 647 Q 579 693 619 743 Q 635 759 618 773 Q 594 792 567 803 Q 557 807 539 797 Q 485 773 396 753 C 367 746 380 711 409 718 Q 469 733 531 750 Q 540 746 538 731 Q 534 563 536 552 Q 542 506 577 482 Q 617 460 693 463 Q 768 466 806 487 Z" fill="red"></path>
				<path d="M 524 160 Q 570 221 600 312 Q 610 349 634 368 Q 653 383 633 401 Q 611 420 576 437 Q 552 447 528 436 Q 444 397 330 386 Q 300 383 287 376 Q 277 369 298 357 Q 326 342 370 356 Q 445 371 519 385 Q 538 392 539 369 Q 539 287 479 194 L 451 158 Q 382 83 175 27 Q 157 24 167 14 Q 174 7 207 9 Q 322 21 390 49 Q 445 73 489 118 L 524 160 Z" fill="lightgray"></path>
				<path d="M 489 118 Q 633 -26 681 -30 Q 774 -30 871 -10 Q 913 -3 909 9 Q 908 15 865 26 Q 675 71 628 94 Q 588 115 524 160 L 479 194 Q 430 236 377 285 Q 334 327 296 325 Q 277 324 273 318 Q 272 311 289 300 Q 346 267 451 158 L 489 118 Z" fill="lightgray"></path>
</g>
		<text x="40" y="140" font-size="128" fill="#999999">2</text></g>
		<g id="id0:id2:id2" transform="matrix(1.0,0,0,1.0,2048,0.0)">			<g stroke="lightgray" stroke-width="4" transform="scale(4, 4)"> <rect x="0" y="0" width="256" height="256" fill="white" stroke-width="4"/></g>
			<g transform="scale(0.92, -0.92) translate(60, -920)">					<path d="M 396 753 Q 353 775 339 773 Q 320 770 335 750 Q 363 705 341 578 Q 335 557 327 534 Q 311 494 267 449 Q 254 437 251 431 Q 250 425 260 425 Q 290 425 334 469 Q 394 532 405 696 Q 406 709 409 718 C 415 744 415 744 396 753 Z" fill="black"></path>
				<path d="M 806 487 Q 821 493 812 508 Q 797 527 779 538 Q 769 545 744 536 Q 696 514 637 517 Q 600 518 588 546 Q 572 571 578 647 Q 579 693 619 743 Q 635 759 618 773 Q 594 792 567 803 Q 557 807 539 797 Q 485 773 396 753 C 367 746 380 711 409 718 Q 469 733 531 750 Q 540 746 538 731 Q 534 563 536 552 Q 542 506 577 482 Q 617 460 693 463 Q 768 466 806 487 Z" fill="black"></path>
				<path d="M 524 160 Q 570 221 600 312 Q 610 349 634 368 Q 653 383 633 401 Q 611 420 576 437 Q 552 447 528 436 Q 444 397 330 386 Q 300 383 287 376 Q 277 369 298 357 Q 326 342 370 356 Q 445 371 519 385 Q 538 392 539 369 Q 539 287 479 194 L 451 158 Q 382 83 175 27 Q 157 24 167 14 Q 174 7 207 9 Q 322 21 390 49 Q 445 73 489 118 L 524 160 Z" fill="red"></path>
				<path d="M 489 118 Q 633 -26 681 -30 Q 774 -30 871 -10 Q 913 -3 909 9 Q 908 15 865 26 Q 675 71 628 94 Q 588 115 524 160 L 479 194 Q 430 236 377 285 Q 334 327 296 325 Q 277 324 273 318 Q 272 311 289 300 Q 346 267 451 158 L 489 118 Z" fill="lightgray"></path>
</g>
		<text x="40" y="140" font-size="128" fill="#999999">3</text></g>
		<g id="id0:id3:id3" transform="matrix(1.0,0,0,1.0,3072,0.0)">			<g stroke="lightgray" stroke-width="4" transform="scale(4, 4)"> <rect x="0" y="0" width="256" height="256" fill="white" stroke-width="4"/></g>
			<g transform="scale(0.92, -0.92) translate(60, -920)">					<path d="M 396 753 Q 353 775 339 773 Q 320 770 335 750 Q 363 705 341 578 Q 335 557 327 534 Q 311 494 267 449 Q 254 437 251 431 Q 250 425 260 425 Q 290 425 334 469 Q 394 532 405 696 Q 406 709 409 718 C 415 744 415 744 396 753 Z" fill="black"></path>
				<path d="M 806 487 Q 821 493 812 508 Q 797 527 779 538 Q 769 545 744 536 Q 696 514 637 517 Q 600 518 588 546 Q 572 571 578 647 Q 579 693 619 743 Q 635 759 618 773 Q 594 792 567 803 Q 557 807 539 797 Q 485 773 396 753 C 367 746 380 711 409 718 Q 469 733 531 750 Q 540 746 538 731 Q 534 563 536 552 Q 542 506 577 482 Q 617 460 693 463 Q 768 466 806 487 Z" fill="black"></path>
				<path d="M 524 160 Q 570 221 600 312 Q 610 349 634 368 Q 653 383 633 401 Q 611 420 576 437 Q 552 447 528 436 Q 444 397 330 386 Q 300 383 287 376 Q 277 369 298 357 Q 326 342 370 356 Q 445 371 519 385 Q 538 392 539 369 Q 539 287 479 194 L 451 158 Q 382 83 175 27 Q 157 24 167 14 Q 174 7 207 9 Q 322 21 390 49 Q 445 73 489 118 L 524 160 Z" fill="black"></path>
				<path d="M 489 118 Q 633 -26 681 -30 Q 774 -30 871 -10 Q 913 -3 909 9 Q 908 15 865 26 Q 675 71 628 94 Q 588 115 524 160 L 479 194 Q 430 236 377 285 Q 334 327 296 325 Q 277 324 273 318 Q 272 311 289 300 Q 346 267 451 158 L 489 118 Z" fill="red"></path>
</g>
		<text x="40" y="140" font-size="128" fill="#999999">4</text></g>
		<g id="id0:id4:id4" transform="matrix(1.0,0,0,1.0,4096,0.0)">			<g stroke="white" stroke-width="4" transform="scale(4, 4)"> <rect x="1" y="1" width="255" height="255" fill="white" stroke-width="0"/></g>
</g>
</g>
</svg>
