<?xml version="1.0" standalone="no"?>
<!DOCTYPE svg PUBLIC "-//W3C//DTD SVG 1.1//EN"
 "http://www.w3.org/Graphics/SVG/1.1/DTD/svg11.dtd">
<!-- generate by Japanese dictionary app com.asnsami.kanjidictionary -->

<svg xmlns="http://www.w3.org/2000/svg" xmlns:sodipodi="http://sodipodi.sourceforge.net/DTD/sodipodi-0.dtd" version="1.1" width="640" height="128" viewBox="0 0 5120 1024">
	<g id="id0:id0" transform="translate(0.0,0)">
		<g id="id0:id0:id0" transform="matrix(1.0,0,0,1.0,0,0.0)">			<g stroke="lightgray" stroke-width="4" transform="scale(4, 4)"> <rect x="0" y="0" width="256" height="256" fill="white" stroke-width="4"/></g>
			<g transform="scale(0.92, -0.92) translate(60, -920)">					<path d="M 359 685 Q 431 787 431 794 Q 428 810 383 837 Q 368 844 353 843 Q 341 842 343 826 Q 349 717 220 586 Q 202 577 158 529 Q 148 513 165 517 Q 186 518 215 540 Q 294 595 346 666 L 359 685 Z" fill="red"></path>
				<path d="M 346 666 Q 355 657 390 649 Q 412 645 550 672 Q 692 703 703 711 Q 712 718 707 728 Q 700 740 670 747 Q 643 753 544 720 Q 451 696 362 686 Q 359 686 359 685 C 329 680 326 679 346 666 Z" fill="lightgray"></path>
				<path d="M 319 558 Q 286 552 310 537 Q 349 519 411 533 Q 487 551 567 570 Q 606 580 612 586 Q 619 593 615 601 Q 608 611 581 618 Q 553 622 527 610 Q 484 594 435 580 Q 381 567 319 558 Z" fill="lightgray"></path>
				<path d="M 191 406 Q 176 405 182 390 Q 186 377 211 368 Q 235 358 259 365 Q 407 405 551 444 Q 593 454 601 449 Q 611 442 603 421 Q 573 205 633 105 Q 685 -4 840 -20 Q 909 -26 936 -13 Q 955 -4 946 21 Q 930 97 926 183 Q 925 216 917 224 Q 910 231 904 214 Q 876 84 849 55 Q 828 42 802 50 Q 757 57 717 90 Q 656 141 645 265 Q 636 380 692 450 Q 708 463 701 473 Q 692 486 635 508 Q 619 514 604 503 Q 540 466 381 432 Q 278 407 191 406 Z" fill="lightgray"></path>
</g>
		<text x="40" y="140" font-size="128" fill="#999999">1</text></g>
		<g id="id0:id1:id1" transform="matrix(1.0,0,0,1.0,1024,0.0)">			<g stroke="lightgray" stroke-width="4" transform="scale(4, 4)"> <rect x="0" y="0" width="256" height="256" fill="white" stroke-width="4"/></g>
			<g transform="scale(0.92, -0.92) translate(60, -920)">					<path d="M 359 685 Q 431 787 431 794 Q 428 810 383 837 Q 368 844 353 843 Q 341 842 343 826 Q 349 717 220 586 Q 202 577 158 529 Q 148 513 165 517 Q 186 518 215 540 Q 294 595 346 666 L 359 685 Z" fill="black"></path>
				<path d="M 346 666 Q 355 657 390 649 Q 412 645 550 672 Q 692 703 703 711 Q 712 718 707 728 Q 700 740 670 747 Q 643 753 544 720 Q 451 696 362 686 Q 359 686 359 685 C 329 680 326 679 346 666 Z" fill="red"></path>
				<path d="M 319 558 Q 286 552 310 537 Q 349 519 411 533 Q 487 551 567 570 Q 606 580 612 586 Q 619 593 615 601 Q 608 611 581 618 Q 553 622 527 610 Q 484 594 435 580 Q 381 567 319 558 Z" fill="lightgray"></path>
				<path d="M 191 406 Q 176 405 182 390 Q 186 377 211 368 Q 235 358 259 365 Q 407 405 551 444 Q 593 454 601 449 Q 611 442 603 421 Q 573 205 633 105 Q 685 -4 840 -20 Q 909 -26 936 -13 Q 955 -4 946 21 Q 930 97 926 183 Q 925 216 917 224 Q 910 231 904 214 Q 876 84 849 55 Q 828 42 802 50 Q 757 57 717 90 Q 656 141 645 265 Q 636 380 692 450 Q 708 463 701 473 Q 692 486 635 508 Q 619 514 604 503 Q 540 466 381 432 Q 278 407 191 406 Z" fill="lightgray"></path>
</g>
		<text x="40" y="140" font-size="128" fill="#999999">2</text></g>
		<g id="id0:id2:id2" transform="matrix(1.0,0,0,1.0,2048,0.0)">			<g stroke="lightgray" stroke-width="4" transform="scale(4, 4)"> <rect x="0" y="0" width="256" height="256" fill="white" stroke-width="4"/></g>
			<g transform="scale(0.92, -0.92) translate(60, -920)">					<path d="M 359 685 Q 431 787 431 794 Q 428 810 383 837 Q 368 844 353 843 Q 341 842 343 826 Q 349 717 220 586 Q 202 577 158 529 Q 148 513 165 517 Q 186 518 215 540 Q 294 595 346 666 L 359 685 Z" fill="black"></path>
				<path d="M 346 666 Q 355 657 390 649 Q 412 645 550 672 Q 692 703 703 711 Q 712 718 707 728 Q 700 740 670 747 Q 643 753 544 720 Q 451 696 362 686 Q 359 686 359 685 C 329 680 326 679 346 666 Z" fill="black"></path>
				<path d="M 319 558 Q 286 552 310 537 Q 349 519 411 533 Q 487 551 567 570 Q 606 580 612 586 Q 619 593 615 601 Q 608 611 581 618 Q 553 622 527 610 Q 484 594 435 580 Q 381 567 319 558 Z" fill="red"></path>
				<path d="M 191 406 Q 176 405 182 390 Q 186 377 211 368 Q 235 358 259 365 Q 407 405 551 444 Q 593 454 601 449 Q 611 442 603 421 Q 573 205 633 105 Q 685 -4 840 -20 Q 909 -26 936 -13 Q 955 -4 946 21 Q 930 97 926 183 Q 925 216 917 224 Q 910 231 904 214 Q 876 84 849 55 Q 828 42 802 50 Q 757 57 717 90 Q 656 141 645 265 Q 636 380 692 450 Q 708 463 701 473 Q 692 486 635 508 Q 619 514 604 503 Q 540 466 381 432 Q 278 407 191 406 Z" fill="lightgray"></path>
</g>
		<text x="40" y="140" font-size="128" fill="#999999">3</text></g>
		<g id="id0:id3:id3" transform="matrix(1.0,0,0,1.0,3072,0.0)">			<g stroke="lightgray" stroke-width="4" transform="scale(4, 4)"> <rect x="0" y="0" width="256" height="256" fill="white" stroke-width="4"/></g>
			<g transform="scale(0.92, -0.92) translate(60, -920)">					<path d="M 359 685 Q 431 787 431 794 Q 428 810 383 837 Q 368 844 353 843 Q 341 842 343 826 Q 349 717 220 586 Q 202 577 158 529 Q 148 513 165 517 Q 186 518 215 540 Q 294 595 346 666 L 359 685 Z" fill="black"></path>
				<path d="M 346 666 Q 355 657 390 649 Q 412 645 550 672 Q 692 703 703 711 Q 712 718 707 728 Q 700 740 670 747 Q 643 753 544 720 Q 451 696 362 686 Q 359 686 359 685 C 329 680 326 679 346 666 Z" fill="black"></path>
				<path d="M 319 558 Q 286 552 310 537 Q 349 519 411 533 Q 487 551 567 570 Q 606 580 612 586 Q 619 593 615 601 Q 608 611 581 618 Q 553 622 527 610 Q 484 594 435 580 Q 381 567 319 558 Z" fill="black"></path>
				<path d="M 191 406 Q 176 405 182 390 Q 186 377 211 368 Q 235 358 259 365 Q 407 405 551 444 Q 593 454 601 449 Q 611 442 603 421 Q 573 205 633 105 Q 685 -4 840 -20 Q 909 -26 936 -13 Q 955 -4 946 21 Q 930 97 926 183 Q 925 216 917 224 Q 910 231 904 214 Q 876 84 849 55 Q 828 42 802 50 Q 757 57 717 90 Q 656 141 645 265 Q 636 380 692 450 Q 708 463 701 473 Q 692 486 635 508 Q 619 514 604 503 Q 540 466 381 432 Q 278 407 191 406 Z" fill="red"></path>
</g>
		<text x="40" y="140" font-size="128" fill="#999999">4</text></g>
		<g id="id0:id4:id4" transform="matrix(1.0,0,0,1.0,4096,0.0)">			<g stroke="white" stroke-width="4" transform="scale(4, 4)"> <rect x="1" y="1" width="255" height="255" fill="white" stroke-width="0"/></g>
</g>
</g>
</svg>
