<?xml version="1.0" standalone="no"?>
<!DOCTYPE svg PUBLIC "-//W3C//DTD SVG 1.1//EN"
 "http://www.w3.org/Graphics/SVG/1.1/DTD/svg11.dtd">
<!-- generate by Japanese dictionary app com.asnsami.kanjidictionary -->

<svg xmlns="http://www.w3.org/2000/svg" xmlns:sodipodi="http://sodipodi.sourceforge.net/DTD/sodipodi-0.dtd" version="1.1" width="640" height="128" viewBox="0 0 5120 1024">
	<g id="id0:id0" transform="translate(0.0,0)">
		<g id="id0:id0:id0" transform="matrix(1.0,0,0,1.0,0,0.0)">			<g stroke="lightgray" stroke-width="4" transform="scale(4, 4)"> <rect x="0" y="0" width="256" height="256" fill="white" stroke-width="4"/></g>
			<g transform="scale(0.92, -0.92) translate(60, -920)">					<path d="M 628 625 Q 661 703 695 721 Q 714 742 698 762 Q 680 777 623 806 Q 604 815 579 806 Q 470 758 283 725 C 253 720 273 681 302 690 Q 306 691 314 694 Q 435 721 551 748 Q 581 757 593 744 Q 602 735 598 717 Q 586 672 573 634 C 564 606 616 598 628 625 Z" fill="red"></path>
				<path d="M 509 572 Q 566 582 639 589 Q 651 590 652 601 Q 652 608 628 625 L 573 634 Q 567 634 564 632 Q 414 592 293 574 C 263 569 264 549 293 541 Q 305 535 326 539 Q 375 552 456 564 L 509 572 Z" fill="lightgray"></path>
				<path d="M 283 725 Q 261 744 242 753 Q 220 762 210 755 Q 198 748 208 730 Q 268 604 223 214 Q 219 157 171 101 Q 158 83 165 57 Q 177 26 191 12 Q 206 2 221 21 Q 243 57 439 197 Q 461 210 468 221 Q 472 231 461 233 Q 443 233 294 158 Q 276 151 276 167 Q 294 375 293 541 L 293 574 Q 293 580 293 585 Q 292 640 301 686 Q 301 689 302 690 C 305 708 305 708 283 725 Z" fill="lightgray"></path>
				<path d="M 582 391 Q 631 406 687 420 Q 745 436 752 445 Q 762 455 756 463 Q 747 476 716 482 Q 683 486 652 472 Q 610 456 568 439 L 521 423 Q 517 423 516 422 Q 437 400 344 385 Q 305 376 335 359 Q 378 335 440 354 Q 488 367 538 379 L 582 391 Z" fill="lightgray"></path>
				<path d="M 538 379 Q 616 193 752 69 Q 797 30 851 1 Q 914 -30 950 -32 Q 978 -28 969 8 Q 956 42 945 203 Q 944 216 938 217 Q 932 217 930 203 Q 918 164 909 126 Q 896 77 879 76 Q 857 75 807 108 Q 755 141 706 198 Q 621 294 582 391 L 568 439 Q 556 488 562 527 Q 565 549 520 568 Q 514 571 509 572 C 481 584 438 588 456 564 Q 457 561 459 556 Q 487 531 501 481 Q 510 451 521 423 L 538 379 Z" fill="lightgray"></path>
</g>
		<text x="40" y="140" font-size="128" fill="#999999">1</text></g>
		<g id="id0:id1:id1" transform="matrix(1.0,0,0,1.0,1024,0.0)">			<g stroke="lightgray" stroke-width="4" transform="scale(4, 4)"> <rect x="0" y="0" width="256" height="256" fill="white" stroke-width="4"/></g>
			<g transform="scale(0.92, -0.92) translate(60, -920)">					<path d="M 628 625 Q 661 703 695 721 Q 714 742 698 762 Q 680 777 623 806 Q 604 815 579 806 Q 470 758 283 725 C 253 720 273 681 302 690 Q 306 691 314 694 Q 435 721 551 748 Q 581 757 593 744 Q 602 735 598 717 Q 586 672 573 634 C 564 606 616 598 628 625 Z" fill="black"></path>
				<path d="M 509 572 Q 566 582 639 589 Q 651 590 652 601 Q 652 608 628 625 L 573 634 Q 567 634 564 632 Q 414 592 293 574 C 263 569 264 549 293 541 Q 305 535 326 539 Q 375 552 456 564 L 509 572 Z" fill="red"></path>
				<path d="M 283 725 Q 261 744 242 753 Q 220 762 210 755 Q 198 748 208 730 Q 268 604 223 214 Q 219 157 171 101 Q 158 83 165 57 Q 177 26 191 12 Q 206 2 221 21 Q 243 57 439 197 Q 461 210 468 221 Q 472 231 461 233 Q 443 233 294 158 Q 276 151 276 167 Q 294 375 293 541 L 293 574 Q 293 580 293 585 Q 292 640 301 686 Q 301 689 302 690 C 305 708 305 708 283 725 Z" fill="lightgray"></path>
				<path d="M 582 391 Q 631 406 687 420 Q 745 436 752 445 Q 762 455 756 463 Q 747 476 716 482 Q 683 486 652 472 Q 610 456 568 439 L 521 423 Q 517 423 516 422 Q 437 400 344 385 Q 305 376 335 359 Q 378 335 440 354 Q 488 367 538 379 L 582 391 Z" fill="lightgray"></path>
				<path d="M 538 379 Q 616 193 752 69 Q 797 30 851 1 Q 914 -30 950 -32 Q 978 -28 969 8 Q 956 42 945 203 Q 944 216 938 217 Q 932 217 930 203 Q 918 164 909 126 Q 896 77 879 76 Q 857 75 807 108 Q 755 141 706 198 Q 621 294 582 391 L 568 439 Q 556 488 562 527 Q 565 549 520 568 Q 514 571 509 572 C 481 584 438 588 456 564 Q 457 561 459 556 Q 487 531 501 481 Q 510 451 521 423 L 538 379 Z" fill="lightgray"></path>
</g>
		<text x="40" y="140" font-size="128" fill="#999999">2</text></g>
		<g id="id0:id2:id2" transform="matrix(1.0,0,0,1.0,2048,0.0)">			<g stroke="lightgray" stroke-width="4" transform="scale(4, 4)"> <rect x="0" y="0" width="256" height="256" fill="white" stroke-width="4"/></g>
			<g transform="scale(0.92, -0.92) translate(60, -920)">					<path d="M 628 625 Q 661 703 695 721 Q 714 742 698 762 Q 680 777 623 806 Q 604 815 579 806 Q 470 758 283 725 C 253 720 273 681 302 690 Q 306 691 314 694 Q 435 721 551 748 Q 581 757 593 744 Q 602 735 598 717 Q 586 672 573 634 C 564 606 616 598 628 625 Z" fill="black"></path>
				<path d="M 509 572 Q 566 582 639 589 Q 651 590 652 601 Q 652 608 628 625 L 573 634 Q 567 634 564 632 Q 414 592 293 574 C 263 569 264 549 293 541 Q 305 535 326 539 Q 375 552 456 564 L 509 572 Z" fill="black"></path>
				<path d="M 283 725 Q 261 744 242 753 Q 220 762 210 755 Q 198 748 208 730 Q 268 604 223 214 Q 219 157 171 101 Q 158 83 165 57 Q 177 26 191 12 Q 206 2 221 21 Q 243 57 439 197 Q 461 210 468 221 Q 472 231 461 233 Q 443 233 294 158 Q 276 151 276 167 Q 294 375 293 541 L 293 574 Q 293 580 293 585 Q 292 640 301 686 Q 301 689 302 690 C 305 708 305 708 283 725 Z" fill="red"></path>
				<path d="M 582 391 Q 631 406 687 420 Q 745 436 752 445 Q 762 455 756 463 Q 747 476 716 482 Q 683 486 652 472 Q 610 456 568 439 L 521 423 Q 517 423 516 422 Q 437 400 344 385 Q 305 376 335 359 Q 378 335 440 354 Q 488 367 538 379 L 582 391 Z" fill="lightgray"></path>
				<path d="M 538 379 Q 616 193 752 69 Q 797 30 851 1 Q 914 -30 950 -32 Q 978 -28 969 8 Q 956 42 945 203 Q 944 216 938 217 Q 932 217 930 203 Q 918 164 909 126 Q 896 77 879 76 Q 857 75 807 108 Q 755 141 706 198 Q 621 294 582 391 L 568 439 Q 556 488 562 527 Q 565 549 520 568 Q 514 571 509 572 C 481 584 438 588 456 564 Q 457 561 459 556 Q 487 531 501 481 Q 510 451 521 423 L 538 379 Z" fill="lightgray"></path>
</g>
		<text x="40" y="140" font-size="128" fill="#999999">3</text></g>
		<g id="id0:id3:id3" transform="matrix(1.0,0,0,1.0,3072,0.0)">			<g stroke="lightgray" stroke-width="4" transform="scale(4, 4)"> <rect x="0" y="0" width="256" height="256" fill="white" stroke-width="4"/></g>
			<g transform="scale(0.92, -0.92) translate(60, -920)">					<path d="M 628 625 Q 661 703 695 721 Q 714 742 698 762 Q 680 777 623 806 Q 604 815 579 806 Q 470 758 283 725 C 253 720 273 681 302 690 Q 306 691 314 694 Q 435 721 551 748 Q 581 757 593 744 Q 602 735 598 717 Q 586 672 573 634 C 564 606 616 598 628 625 Z" fill="black"></path>
				<path d="M 509 572 Q 566 582 639 589 Q 651 590 652 601 Q 652 608 628 625 L 573 634 Q 567 634 564 632 Q 414 592 293 574 C 263 569 264 549 293 541 Q 305 535 326 539 Q 375 552 456 564 L 509 572 Z" fill="black"></path>
				<path d="M 283 725 Q 261 744 242 753 Q 220 762 210 755 Q 198 748 208 730 Q 268 604 223 214 Q 219 157 171 101 Q 158 83 165 57 Q 177 26 191 12 Q 206 2 221 21 Q 243 57 439 197 Q 461 210 468 221 Q 472 231 461 233 Q 443 233 294 158 Q 276 151 276 167 Q 294 375 293 541 L 293 574 Q 293 580 293 585 Q 292 640 301 686 Q 301 689 302 690 C 305 708 305 708 283 725 Z" fill="black"></path>
				<path d="M 582 391 Q 631 406 687 420 Q 745 436 752 445 Q 762 455 756 463 Q 747 476 716 482 Q 683 486 652 472 Q 610 456 568 439 L 521 423 Q 517 423 516 422 Q 437 400 344 385 Q 305 376 335 359 Q 378 335 440 354 Q 488 367 538 379 L 582 391 Z" fill="red"></path>
				<path d="M 538 379 Q 616 193 752 69 Q 797 30 851 1 Q 914 -30 950 -32 Q 978 -28 969 8 Q 956 42 945 203 Q 944 216 938 217 Q 932 217 930 203 Q 918 164 909 126 Q 896 77 879 76 Q 857 75 807 108 Q 755 141 706 198 Q 621 294 582 391 L 568 439 Q 556 488 562 527 Q 565 549 520 568 Q 514 571 509 572 C 481 584 438 588 456 564 Q 457 561 459 556 Q 487 531 501 481 Q 510 451 521 423 L 538 379 Z" fill="lightgray"></path>
</g>
		<text x="40" y="140" font-size="128" fill="#999999">4</text></g>
		<g id="id0:id4:id4" transform="matrix(1.0,0,0,1.0,4096,0.0)">			<g stroke="lightgray" stroke-width="4" transform="scale(4, 4)"> <rect x="0" y="0" width="256" height="256" fill="white" stroke-width="4"/></g>
			<g transform="scale(0.92, -0.92) translate(60, -920)">					<path d="M 628 625 Q 661 703 695 721 Q 714 742 698 762 Q 680 777 623 806 Q 604 815 579 806 Q 470 758 283 725 C 253 720 273 681 302 690 Q 306 691 314 694 Q 435 721 551 748 Q 581 757 593 744 Q 602 735 598 717 Q 586 672 573 634 C 564 606 616 598 628 625 Z" fill="black"></path>
				<path d="M 509 572 Q 566 582 639 589 Q 651 590 652 601 Q 652 608 628 625 L 573 634 Q 567 634 564 632 Q 414 592 293 574 C 263 569 264 549 293 541 Q 305 535 326 539 Q 375 552 456 564 L 509 572 Z" fill="black"></path>
				<path d="M 283 725 Q 261 744 242 753 Q 220 762 210 755 Q 198 748 208 730 Q 268 604 223 214 Q 219 157 171 101 Q 158 83 165 57 Q 177 26 191 12 Q 206 2 221 21 Q 243 57 439 197 Q 461 210 468 221 Q 472 231 461 233 Q 443 233 294 158 Q 276 151 276 167 Q 294 375 293 541 L 293 574 Q 293 580 293 585 Q 292 640 301 686 Q 301 689 302 690 C 305 708 305 708 283 725 Z" fill="black"></path>
				<path d="M 582 391 Q 631 406 687 420 Q 745 436 752 445 Q 762 455 756 463 Q 747 476 716 482 Q 683 486 652 472 Q 610 456 568 439 L 521 423 Q 517 423 516 422 Q 437 400 344 385 Q 305 376 335 359 Q 378 335 440 354 Q 488 367 538 379 L 582 391 Z" fill="black"></path>
				<path d="M 538 379 Q 616 193 752 69 Q 797 30 851 1 Q 914 -30 950 -32 Q 978 -28 969 8 Q 956 42 945 203 Q 944 216 938 217 Q 932 217 930 203 Q 918 164 909 126 Q 896 77 879 76 Q 857 75 807 108 Q 755 141 706 198 Q 621 294 582 391 L 568 439 Q 556 488 562 527 Q 565 549 520 568 Q 514 571 509 572 C 481 584 438 588 456 564 Q 457 561 459 556 Q 487 531 501 481 Q 510 451 521 423 L 538 379 Z" fill="red"></path>
</g>
		<text x="40" y="140" font-size="128" fill="#999999">5</text></g>
</g>
</svg>
