<?xml version="1.0" standalone="no"?>
<!DOCTYPE svg PUBLIC "-//W3C//DTD SVG 1.1//EN"
 "http://www.w3.org/Graphics/SVG/1.1/DTD/svg11.dtd">
<!-- generate by Japanese dictionary app com.asnsami.kanjidictionary -->

<svg xmlns="http://www.w3.org/2000/svg" xmlns:sodipodi="http://sodipodi.sourceforge.net/DTD/sodipodi-0.dtd" version="1.1" width="640" height="256" viewBox="0 0 5120 2048">
	<g id="id0:id0" transform="translate(0.0,0)">
		<g id="id0:id0:id0" transform="matrix(1.0,0,0,1.0,0,0.0)">			<g stroke="lightgray" stroke-width="4" transform="scale(4, 4)"> <rect x="0" y="0" width="256" height="256" fill="white" stroke-width="4"/></g>
			<g transform="scale(0.92, -0.92) translate(60, -920)">					<path d="M 347 752 Q 359 776 384 796 Q 393 805 389 816 Q 386 828 363 848 Q 341 864 326 866 Q 310 865 316 846 Q 328 813 258 709 Q 224 661 179 610 Q 170 601 168 596 Q 164 587 176 589 Q 221 595 329 729 L 347 752 Z" fill="red"></path>
				<path d="M 329 729 Q 368 708 422 719 Q 519 738 621 759 Q 667 769 675 777 Q 684 784 679 793 Q 672 803 644 811 Q 619 817 520 785 Q 432 763 347 752 C 317 748 302 742 329 729 Z" fill="lightgray"></path>
				<path d="M 348 648 Q 317 644 339 628 Q 378 607 422 619 Q 486 632 552 645 Q 583 652 587 656 Q 594 663 591 670 Q 584 680 559 686 Q 534 692 508 681 Q 474 671 437 661 Q 395 652 348 648 Z" fill="lightgray"></path>
				<path d="M 933 -17 Q 929 55 930 176 Q 931 188 924 193 Q 918 197 915 184 Q 881 79 868 67 Q 864 58 841 68 Q 795 86 757 155 Q 724 218 710 299 Q 697 384 709 494 Q 710 533 735 565 Q 751 577 740 588 Q 730 606 697 628 Q 678 641 654 630 Q 635 620 600 611 Q 305 544 227 530 Q 214 530 211 522 Q 210 516 219 512 Q 253 496 283 507 Q 433 549 627 578 Q 643 581 652 574 Q 658 570 654 505 Q 627 51 898 -39 Q 901 -39 906 -41 Q 921 -47 929 -38 Q 935 -32 933 -17 Z" fill="lightgray"></path>
				<path d="M 311 452 Q 327 434 346 413 Q 356 403 369 403 Q 376 403 381 413 Q 385 423 380 447 Q 374 468 309 489 Q 297 492 292 491 Q 288 488 288 478 Q 291 469 311 452 Z" fill="lightgray"></path>
				<path d="M 456 397 Q 475 418 490 431 Q 533 480 547 488 Q 562 498 551 510 Q 538 520 517 528 Q 498 535 488 531 Q 479 528 484 518 Q 490 493 430 391 C 415 365 436 375 456 397 Z" fill="lightgray"></path>
				<path d="M 428 353 Q 447 359 569 376 Q 578 375 585 386 Q 586 396 567 404 Q 540 425 460 398 Q 457 398 456 397 L 430 391 Q 421 390 418 388 Q 337 370 227 357 Q 203 353 222 339 Q 252 318 285 326 Q 322 335 371 342 L 428 353 Z" fill="lightgray"></path>
				<path d="M 434 248 Q 483 258 526 264 Q 550 268 541 280 Q 531 295 505 300 Q 481 303 437 291 L 382 276 Q 321 263 267 249 Q 251 245 271 230 Q 284 221 309 226 Q 346 233 382 239 L 434 248 Z" fill="lightgray"></path>
				<path d="M 431 150 Q 524 159 638 160 Q 656 161 660 169 Q 664 179 649 191 Q 600 224 545 211 Q 497 202 432 187 L 382 178 Q 376 178 374 177 Q 265 159 135 140 Q 116 139 130 123 Q 143 111 159 106 Q 178 102 192 107 Q 294 137 382 145 L 431 150 Z" fill="lightgray"></path>
				<path d="M 385 -39 Q 389 -61 395 -69 Q 399 -76 406 -73 Q 413 -70 418 -57 Q 430 -17 431 144 Q 431 147 431 150 L 432 187 Q 432 215 434 248 L 437 291 Q 440 303 444 325 Q 447 341 435 349 Q 431 352 428 353 C 403 370 361 370 371 342 Q 380 324 382 276 L 382 239 Q 382 211 382 178 L 382 145 Q 382 -18 385 -39 Z" fill="lightgray"></path>
</g>
		<text x="40" y="140" font-size="128" fill="#999999">1</text></g>
		<g id="id0:id1:id1" transform="matrix(1.0,0,0,1.0,1024,0.0)">			<g stroke="lightgray" stroke-width="4" transform="scale(4, 4)"> <rect x="0" y="0" width="256" height="256" fill="white" stroke-width="4"/></g>
			<g transform="scale(0.92, -0.92) translate(60, -920)">					<path d="M 347 752 Q 359 776 384 796 Q 393 805 389 816 Q 386 828 363 848 Q 341 864 326 866 Q 310 865 316 846 Q 328 813 258 709 Q 224 661 179 610 Q 170 601 168 596 Q 164 587 176 589 Q 221 595 329 729 L 347 752 Z" fill="black"></path>
				<path d="M 329 729 Q 368 708 422 719 Q 519 738 621 759 Q 667 769 675 777 Q 684 784 679 793 Q 672 803 644 811 Q 619 817 520 785 Q 432 763 347 752 C 317 748 302 742 329 729 Z" fill="red"></path>
				<path d="M 348 648 Q 317 644 339 628 Q 378 607 422 619 Q 486 632 552 645 Q 583 652 587 656 Q 594 663 591 670 Q 584 680 559 686 Q 534 692 508 681 Q 474 671 437 661 Q 395 652 348 648 Z" fill="lightgray"></path>
				<path d="M 933 -17 Q 929 55 930 176 Q 931 188 924 193 Q 918 197 915 184 Q 881 79 868 67 Q 864 58 841 68 Q 795 86 757 155 Q 724 218 710 299 Q 697 384 709 494 Q 710 533 735 565 Q 751 577 740 588 Q 730 606 697 628 Q 678 641 654 630 Q 635 620 600 611 Q 305 544 227 530 Q 214 530 211 522 Q 210 516 219 512 Q 253 496 283 507 Q 433 549 627 578 Q 643 581 652 574 Q 658 570 654 505 Q 627 51 898 -39 Q 901 -39 906 -41 Q 921 -47 929 -38 Q 935 -32 933 -17 Z" fill="lightgray"></path>
				<path d="M 311 452 Q 327 434 346 413 Q 356 403 369 403 Q 376 403 381 413 Q 385 423 380 447 Q 374 468 309 489 Q 297 492 292 491 Q 288 488 288 478 Q 291 469 311 452 Z" fill="lightgray"></path>
				<path d="M 456 397 Q 475 418 490 431 Q 533 480 547 488 Q 562 498 551 510 Q 538 520 517 528 Q 498 535 488 531 Q 479 528 484 518 Q 490 493 430 391 C 415 365 436 375 456 397 Z" fill="lightgray"></path>
				<path d="M 428 353 Q 447 359 569 376 Q 578 375 585 386 Q 586 396 567 404 Q 540 425 460 398 Q 457 398 456 397 L 430 391 Q 421 390 418 388 Q 337 370 227 357 Q 203 353 222 339 Q 252 318 285 326 Q 322 335 371 342 L 428 353 Z" fill="lightgray"></path>
				<path d="M 434 248 Q 483 258 526 264 Q 550 268 541 280 Q 531 295 505 300 Q 481 303 437 291 L 382 276 Q 321 263 267 249 Q 251 245 271 230 Q 284 221 309 226 Q 346 233 382 239 L 434 248 Z" fill="lightgray"></path>
				<path d="M 431 150 Q 524 159 638 160 Q 656 161 660 169 Q 664 179 649 191 Q 600 224 545 211 Q 497 202 432 187 L 382 178 Q 376 178 374 177 Q 265 159 135 140 Q 116 139 130 123 Q 143 111 159 106 Q 178 102 192 107 Q 294 137 382 145 L 431 150 Z" fill="lightgray"></path>
				<path d="M 385 -39 Q 389 -61 395 -69 Q 399 -76 406 -73 Q 413 -70 418 -57 Q 430 -17 431 144 Q 431 147 431 150 L 432 187 Q 432 215 434 248 L 437 291 Q 440 303 444 325 Q 447 341 435 349 Q 431 352 428 353 C 403 370 361 370 371 342 Q 380 324 382 276 L 382 239 Q 382 211 382 178 L 382 145 Q 382 -18 385 -39 Z" fill="lightgray"></path>
</g>
		<text x="40" y="140" font-size="128" fill="#999999">2</text></g>
		<g id="id0:id2:id2" transform="matrix(1.0,0,0,1.0,2048,0.0)">			<g stroke="lightgray" stroke-width="4" transform="scale(4, 4)"> <rect x="0" y="0" width="256" height="256" fill="white" stroke-width="4"/></g>
			<g transform="scale(0.92, -0.92) translate(60, -920)">					<path d="M 347 752 Q 359 776 384 796 Q 393 805 389 816 Q 386 828 363 848 Q 341 864 326 866 Q 310 865 316 846 Q 328 813 258 709 Q 224 661 179 610 Q 170 601 168 596 Q 164 587 176 589 Q 221 595 329 729 L 347 752 Z" fill="black"></path>
				<path d="M 329 729 Q 368 708 422 719 Q 519 738 621 759 Q 667 769 675 777 Q 684 784 679 793 Q 672 803 644 811 Q 619 817 520 785 Q 432 763 347 752 C 317 748 302 742 329 729 Z" fill="black"></path>
				<path d="M 348 648 Q 317 644 339 628 Q 378 607 422 619 Q 486 632 552 645 Q 583 652 587 656 Q 594 663 591 670 Q 584 680 559 686 Q 534 692 508 681 Q 474 671 437 661 Q 395 652 348 648 Z" fill="red"></path>
				<path d="M 933 -17 Q 929 55 930 176 Q 931 188 924 193 Q 918 197 915 184 Q 881 79 868 67 Q 864 58 841 68 Q 795 86 757 155 Q 724 218 710 299 Q 697 384 709 494 Q 710 533 735 565 Q 751 577 740 588 Q 730 606 697 628 Q 678 641 654 630 Q 635 620 600 611 Q 305 544 227 530 Q 214 530 211 522 Q 210 516 219 512 Q 253 496 283 507 Q 433 549 627 578 Q 643 581 652 574 Q 658 570 654 505 Q 627 51 898 -39 Q 901 -39 906 -41 Q 921 -47 929 -38 Q 935 -32 933 -17 Z" fill="lightgray"></path>
				<path d="M 311 452 Q 327 434 346 413 Q 356 403 369 403 Q 376 403 381 413 Q 385 423 380 447 Q 374 468 309 489 Q 297 492 292 491 Q 288 488 288 478 Q 291 469 311 452 Z" fill="lightgray"></path>
				<path d="M 456 397 Q 475 418 490 431 Q 533 480 547 488 Q 562 498 551 510 Q 538 520 517 528 Q 498 535 488 531 Q 479 528 484 518 Q 490 493 430 391 C 415 365 436 375 456 397 Z" fill="lightgray"></path>
				<path d="M 428 353 Q 447 359 569 376 Q 578 375 585 386 Q 586 396 567 404 Q 540 425 460 398 Q 457 398 456 397 L 430 391 Q 421 390 418 388 Q 337 370 227 357 Q 203 353 222 339 Q 252 318 285 326 Q 322 335 371 342 L 428 353 Z" fill="lightgray"></path>
				<path d="M 434 248 Q 483 258 526 264 Q 550 268 541 280 Q 531 295 505 300 Q 481 303 437 291 L 382 276 Q 321 263 267 249 Q 251 245 271 230 Q 284 221 309 226 Q 346 233 382 239 L 434 248 Z" fill="lightgray"></path>
				<path d="M 431 150 Q 524 159 638 160 Q 656 161 660 169 Q 664 179 649 191 Q 600 224 545 211 Q 497 202 432 187 L 382 178 Q 376 178 374 177 Q 265 159 135 140 Q 116 139 130 123 Q 143 111 159 106 Q 178 102 192 107 Q 294 137 382 145 L 431 150 Z" fill="lightgray"></path>
				<path d="M 385 -39 Q 389 -61 395 -69 Q 399 -76 406 -73 Q 413 -70 418 -57 Q 430 -17 431 144 Q 431 147 431 150 L 432 187 Q 432 215 434 248 L 437 291 Q 440 303 444 325 Q 447 341 435 349 Q 431 352 428 353 C 403 370 361 370 371 342 Q 380 324 382 276 L 382 239 Q 382 211 382 178 L 382 145 Q 382 -18 385 -39 Z" fill="lightgray"></path>
</g>
		<text x="40" y="140" font-size="128" fill="#999999">3</text></g>
		<g id="id0:id3:id3" transform="matrix(1.0,0,0,1.0,3072,0.0)">			<g stroke="lightgray" stroke-width="4" transform="scale(4, 4)"> <rect x="0" y="0" width="256" height="256" fill="white" stroke-width="4"/></g>
			<g transform="scale(0.92, -0.92) translate(60, -920)">					<path d="M 347 752 Q 359 776 384 796 Q 393 805 389 816 Q 386 828 363 848 Q 341 864 326 866 Q 310 865 316 846 Q 328 813 258 709 Q 224 661 179 610 Q 170 601 168 596 Q 164 587 176 589 Q 221 595 329 729 L 347 752 Z" fill="black"></path>
				<path d="M 329 729 Q 368 708 422 719 Q 519 738 621 759 Q 667 769 675 777 Q 684 784 679 793 Q 672 803 644 811 Q 619 817 520 785 Q 432 763 347 752 C 317 748 302 742 329 729 Z" fill="black"></path>
				<path d="M 348 648 Q 317 644 339 628 Q 378 607 422 619 Q 486 632 552 645 Q 583 652 587 656 Q 594 663 591 670 Q 584 680 559 686 Q 534 692 508 681 Q 474 671 437 661 Q 395 652 348 648 Z" fill="black"></path>
				<path d="M 933 -17 Q 929 55 930 176 Q 931 188 924 193 Q 918 197 915 184 Q 881 79 868 67 Q 864 58 841 68 Q 795 86 757 155 Q 724 218 710 299 Q 697 384 709 494 Q 710 533 735 565 Q 751 577 740 588 Q 730 606 697 628 Q 678 641 654 630 Q 635 620 600 611 Q 305 544 227 530 Q 214 530 211 522 Q 210 516 219 512 Q 253 496 283 507 Q 433 549 627 578 Q 643 581 652 574 Q 658 570 654 505 Q 627 51 898 -39 Q 901 -39 906 -41 Q 921 -47 929 -38 Q 935 -32 933 -17 Z" fill="red"></path>
				<path d="M 311 452 Q 327 434 346 413 Q 356 403 369 403 Q 376 403 381 413 Q 385 423 380 447 Q 374 468 309 489 Q 297 492 292 491 Q 288 488 288 478 Q 291 469 311 452 Z" fill="lightgray"></path>
				<path d="M 456 397 Q 475 418 490 431 Q 533 480 547 488 Q 562 498 551 510 Q 538 520 517 528 Q 498 535 488 531 Q 479 528 484 518 Q 490 493 430 391 C 415 365 436 375 456 397 Z" fill="lightgray"></path>
				<path d="M 428 353 Q 447 359 569 376 Q 578 375 585 386 Q 586 396 567 404 Q 540 425 460 398 Q 457 398 456 397 L 430 391 Q 421 390 418 388 Q 337 370 227 357 Q 203 353 222 339 Q 252 318 285 326 Q 322 335 371 342 L 428 353 Z" fill="lightgray"></path>
				<path d="M 434 248 Q 483 258 526 264 Q 550 268 541 280 Q 531 295 505 300 Q 481 303 437 291 L 382 276 Q 321 263 267 249 Q 251 245 271 230 Q 284 221 309 226 Q 346 233 382 239 L 434 248 Z" fill="lightgray"></path>
				<path d="M 431 150 Q 524 159 638 160 Q 656 161 660 169 Q 664 179 649 191 Q 600 224 545 211 Q 497 202 432 187 L 382 178 Q 376 178 374 177 Q 265 159 135 140 Q 116 139 130 123 Q 143 111 159 106 Q 178 102 192 107 Q 294 137 382 145 L 431 150 Z" fill="lightgray"></path>
				<path d="M 385 -39 Q 389 -61 395 -69 Q 399 -76 406 -73 Q 413 -70 418 -57 Q 430 -17 431 144 Q 431 147 431 150 L 432 187 Q 432 215 434 248 L 437 291 Q 440 303 444 325 Q 447 341 435 349 Q 431 352 428 353 C 403 370 361 370 371 342 Q 380 324 382 276 L 382 239 Q 382 211 382 178 L 382 145 Q 382 -18 385 -39 Z" fill="lightgray"></path>
</g>
		<text x="40" y="140" font-size="128" fill="#999999">4</text></g>
		<g id="id0:id4:id4" transform="matrix(1.0,0,0,1.0,4096,0.0)">			<g stroke="lightgray" stroke-width="4" transform="scale(4, 4)"> <rect x="0" y="0" width="256" height="256" fill="white" stroke-width="4"/></g>
			<g transform="scale(0.92, -0.92) translate(60, -920)">					<path d="M 347 752 Q 359 776 384 796 Q 393 805 389 816 Q 386 828 363 848 Q 341 864 326 866 Q 310 865 316 846 Q 328 813 258 709 Q 224 661 179 610 Q 170 601 168 596 Q 164 587 176 589 Q 221 595 329 729 L 347 752 Z" fill="black"></path>
				<path d="M 329 729 Q 368 708 422 719 Q 519 738 621 759 Q 667 769 675 777 Q 684 784 679 793 Q 672 803 644 811 Q 619 817 520 785 Q 432 763 347 752 C 317 748 302 742 329 729 Z" fill="black"></path>
				<path d="M 348 648 Q 317 644 339 628 Q 378 607 422 619 Q 486 632 552 645 Q 583 652 587 656 Q 594 663 591 670 Q 584 680 559 686 Q 534 692 508 681 Q 474 671 437 661 Q 395 652 348 648 Z" fill="black"></path>
				<path d="M 933 -17 Q 929 55 930 176 Q 931 188 924 193 Q 918 197 915 184 Q 881 79 868 67 Q 864 58 841 68 Q 795 86 757 155 Q 724 218 710 299 Q 697 384 709 494 Q 710 533 735 565 Q 751 577 740 588 Q 730 606 697 628 Q 678 641 654 630 Q 635 620 600 611 Q 305 544 227 530 Q 214 530 211 522 Q 210 516 219 512 Q 253 496 283 507 Q 433 549 627 578 Q 643 581 652 574 Q 658 570 654 505 Q 627 51 898 -39 Q 901 -39 906 -41 Q 921 -47 929 -38 Q 935 -32 933 -17 Z" fill="black"></path>
				<path d="M 311 452 Q 327 434 346 413 Q 356 403 369 403 Q 376 403 381 413 Q 385 423 380 447 Q 374 468 309 489 Q 297 492 292 491 Q 288 488 288 478 Q 291 469 311 452 Z" fill="red"></path>
				<path d="M 456 397 Q 475 418 490 431 Q 533 480 547 488 Q 562 498 551 510 Q 538 520 517 528 Q 498 535 488 531 Q 479 528 484 518 Q 490 493 430 391 C 415 365 436 375 456 397 Z" fill="lightgray"></path>
				<path d="M 428 353 Q 447 359 569 376 Q 578 375 585 386 Q 586 396 567 404 Q 540 425 460 398 Q 457 398 456 397 L 430 391 Q 421 390 418 388 Q 337 370 227 357 Q 203 353 222 339 Q 252 318 285 326 Q 322 335 371 342 L 428 353 Z" fill="lightgray"></path>
				<path d="M 434 248 Q 483 258 526 264 Q 550 268 541 280 Q 531 295 505 300 Q 481 303 437 291 L 382 276 Q 321 263 267 249 Q 251 245 271 230 Q 284 221 309 226 Q 346 233 382 239 L 434 248 Z" fill="lightgray"></path>
				<path d="M 431 150 Q 524 159 638 160 Q 656 161 660 169 Q 664 179 649 191 Q 600 224 545 211 Q 497 202 432 187 L 382 178 Q 376 178 374 177 Q 265 159 135 140 Q 116 139 130 123 Q 143 111 159 106 Q 178 102 192 107 Q 294 137 382 145 L 431 150 Z" fill="lightgray"></path>
				<path d="M 385 -39 Q 389 -61 395 -69 Q 399 -76 406 -73 Q 413 -70 418 -57 Q 430 -17 431 144 Q 431 147 431 150 L 432 187 Q 432 215 434 248 L 437 291 Q 440 303 444 325 Q 447 341 435 349 Q 431 352 428 353 C 403 370 361 370 371 342 Q 380 324 382 276 L 382 239 Q 382 211 382 178 L 382 145 Q 382 -18 385 -39 Z" fill="lightgray"></path>
</g>
		<text x="40" y="140" font-size="128" fill="#999999">5</text></g>
</g>
	<g id="id1:id1" transform="translate(0.0,1024)">
		<g id="id1:id0:id0" transform="matrix(1.0,0,0,1.0,0,0.0)">			<g stroke="lightgray" stroke-width="4" transform="scale(4, 4)"> <rect x="0" y="0" width="256" height="256" fill="white" stroke-width="4"/></g>
			<g transform="scale(0.92, -0.92) translate(60, -920)">					<path d="M 347 752 Q 359 776 384 796 Q 393 805 389 816 Q 386 828 363 848 Q 341 864 326 866 Q 310 865 316 846 Q 328 813 258 709 Q 224 661 179 610 Q 170 601 168 596 Q 164 587 176 589 Q 221 595 329 729 L 347 752 Z" fill="black"></path>
				<path d="M 329 729 Q 368 708 422 719 Q 519 738 621 759 Q 667 769 675 777 Q 684 784 679 793 Q 672 803 644 811 Q 619 817 520 785 Q 432 763 347 752 C 317 748 302 742 329 729 Z" fill="black"></path>
				<path d="M 348 648 Q 317 644 339 628 Q 378 607 422 619 Q 486 632 552 645 Q 583 652 587 656 Q 594 663 591 670 Q 584 680 559 686 Q 534 692 508 681 Q 474 671 437 661 Q 395 652 348 648 Z" fill="black"></path>
				<path d="M 933 -17 Q 929 55 930 176 Q 931 188 924 193 Q 918 197 915 184 Q 881 79 868 67 Q 864 58 841 68 Q 795 86 757 155 Q 724 218 710 299 Q 697 384 709 494 Q 710 533 735 565 Q 751 577 740 588 Q 730 606 697 628 Q 678 641 654 630 Q 635 620 600 611 Q 305 544 227 530 Q 214 530 211 522 Q 210 516 219 512 Q 253 496 283 507 Q 433 549 627 578 Q 643 581 652 574 Q 658 570 654 505 Q 627 51 898 -39 Q 901 -39 906 -41 Q 921 -47 929 -38 Q 935 -32 933 -17 Z" fill="black"></path>
				<path d="M 311 452 Q 327 434 346 413 Q 356 403 369 403 Q 376 403 381 413 Q 385 423 380 447 Q 374 468 309 489 Q 297 492 292 491 Q 288 488 288 478 Q 291 469 311 452 Z" fill="black"></path>
				<path d="M 456 397 Q 475 418 490 431 Q 533 480 547 488 Q 562 498 551 510 Q 538 520 517 528 Q 498 535 488 531 Q 479 528 484 518 Q 490 493 430 391 C 415 365 436 375 456 397 Z" fill="red"></path>
				<path d="M 428 353 Q 447 359 569 376 Q 578 375 585 386 Q 586 396 567 404 Q 540 425 460 398 Q 457 398 456 397 L 430 391 Q 421 390 418 388 Q 337 370 227 357 Q 203 353 222 339 Q 252 318 285 326 Q 322 335 371 342 L 428 353 Z" fill="lightgray"></path>
				<path d="M 434 248 Q 483 258 526 264 Q 550 268 541 280 Q 531 295 505 300 Q 481 303 437 291 L 382 276 Q 321 263 267 249 Q 251 245 271 230 Q 284 221 309 226 Q 346 233 382 239 L 434 248 Z" fill="lightgray"></path>
				<path d="M 431 150 Q 524 159 638 160 Q 656 161 660 169 Q 664 179 649 191 Q 600 224 545 211 Q 497 202 432 187 L 382 178 Q 376 178 374 177 Q 265 159 135 140 Q 116 139 130 123 Q 143 111 159 106 Q 178 102 192 107 Q 294 137 382 145 L 431 150 Z" fill="lightgray"></path>
				<path d="M 385 -39 Q 389 -61 395 -69 Q 399 -76 406 -73 Q 413 -70 418 -57 Q 430 -17 431 144 Q 431 147 431 150 L 432 187 Q 432 215 434 248 L 437 291 Q 440 303 444 325 Q 447 341 435 349 Q 431 352 428 353 C 403 370 361 370 371 342 Q 380 324 382 276 L 382 239 Q 382 211 382 178 L 382 145 Q 382 -18 385 -39 Z" fill="lightgray"></path>
</g>
		<text x="40" y="140" font-size="128" fill="#999999">6</text></g>
		<g id="id1:id1:id1" transform="matrix(1.0,0,0,1.0,1024,0.0)">			<g stroke="lightgray" stroke-width="4" transform="scale(4, 4)"> <rect x="0" y="0" width="256" height="256" fill="white" stroke-width="4"/></g>
			<g transform="scale(0.92, -0.92) translate(60, -920)">					<path d="M 347 752 Q 359 776 384 796 Q 393 805 389 816 Q 386 828 363 848 Q 341 864 326 866 Q 310 865 316 846 Q 328 813 258 709 Q 224 661 179 610 Q 170 601 168 596 Q 164 587 176 589 Q 221 595 329 729 L 347 752 Z" fill="black"></path>
				<path d="M 329 729 Q 368 708 422 719 Q 519 738 621 759 Q 667 769 675 777 Q 684 784 679 793 Q 672 803 644 811 Q 619 817 520 785 Q 432 763 347 752 C 317 748 302 742 329 729 Z" fill="black"></path>
				<path d="M 348 648 Q 317 644 339 628 Q 378 607 422 619 Q 486 632 552 645 Q 583 652 587 656 Q 594 663 591 670 Q 584 680 559 686 Q 534 692 508 681 Q 474 671 437 661 Q 395 652 348 648 Z" fill="black"></path>
				<path d="M 933 -17 Q 929 55 930 176 Q 931 188 924 193 Q 918 197 915 184 Q 881 79 868 67 Q 864 58 841 68 Q 795 86 757 155 Q 724 218 710 299 Q 697 384 709 494 Q 710 533 735 565 Q 751 577 740 588 Q 730 606 697 628 Q 678 641 654 630 Q 635 620 600 611 Q 305 544 227 530 Q 214 530 211 522 Q 210 516 219 512 Q 253 496 283 507 Q 433 549 627 578 Q 643 581 652 574 Q 658 570 654 505 Q 627 51 898 -39 Q 901 -39 906 -41 Q 921 -47 929 -38 Q 935 -32 933 -17 Z" fill="black"></path>
				<path d="M 311 452 Q 327 434 346 413 Q 356 403 369 403 Q 376 403 381 413 Q 385 423 380 447 Q 374 468 309 489 Q 297 492 292 491 Q 288 488 288 478 Q 291 469 311 452 Z" fill="black"></path>
				<path d="M 456 397 Q 475 418 490 431 Q 533 480 547 488 Q 562 498 551 510 Q 538 520 517 528 Q 498 535 488 531 Q 479 528 484 518 Q 490 493 430 391 C 415 365 436 375 456 397 Z" fill="black"></path>
				<path d="M 428 353 Q 447 359 569 376 Q 578 375 585 386 Q 586 396 567 404 Q 540 425 460 398 Q 457 398 456 397 L 430 391 Q 421 390 418 388 Q 337 370 227 357 Q 203 353 222 339 Q 252 318 285 326 Q 322 335 371 342 L 428 353 Z" fill="red"></path>
				<path d="M 434 248 Q 483 258 526 264 Q 550 268 541 280 Q 531 295 505 300 Q 481 303 437 291 L 382 276 Q 321 263 267 249 Q 251 245 271 230 Q 284 221 309 226 Q 346 233 382 239 L 434 248 Z" fill="lightgray"></path>
				<path d="M 431 150 Q 524 159 638 160 Q 656 161 660 169 Q 664 179 649 191 Q 600 224 545 211 Q 497 202 432 187 L 382 178 Q 376 178 374 177 Q 265 159 135 140 Q 116 139 130 123 Q 143 111 159 106 Q 178 102 192 107 Q 294 137 382 145 L 431 150 Z" fill="lightgray"></path>
				<path d="M 385 -39 Q 389 -61 395 -69 Q 399 -76 406 -73 Q 413 -70 418 -57 Q 430 -17 431 144 Q 431 147 431 150 L 432 187 Q 432 215 434 248 L 437 291 Q 440 303 444 325 Q 447 341 435 349 Q 431 352 428 353 C 403 370 361 370 371 342 Q 380 324 382 276 L 382 239 Q 382 211 382 178 L 382 145 Q 382 -18 385 -39 Z" fill="lightgray"></path>
</g>
		<text x="40" y="140" font-size="128" fill="#999999">7</text></g>
		<g id="id1:id2:id2" transform="matrix(1.0,0,0,1.0,2048,0.0)">			<g stroke="lightgray" stroke-width="4" transform="scale(4, 4)"> <rect x="0" y="0" width="256" height="256" fill="white" stroke-width="4"/></g>
			<g transform="scale(0.92, -0.92) translate(60, -920)">					<path d="M 347 752 Q 359 776 384 796 Q 393 805 389 816 Q 386 828 363 848 Q 341 864 326 866 Q 310 865 316 846 Q 328 813 258 709 Q 224 661 179 610 Q 170 601 168 596 Q 164 587 176 589 Q 221 595 329 729 L 347 752 Z" fill="black"></path>
				<path d="M 329 729 Q 368 708 422 719 Q 519 738 621 759 Q 667 769 675 777 Q 684 784 679 793 Q 672 803 644 811 Q 619 817 520 785 Q 432 763 347 752 C 317 748 302 742 329 729 Z" fill="black"></path>
				<path d="M 348 648 Q 317 644 339 628 Q 378 607 422 619 Q 486 632 552 645 Q 583 652 587 656 Q 594 663 591 670 Q 584 680 559 686 Q 534 692 508 681 Q 474 671 437 661 Q 395 652 348 648 Z" fill="black"></path>
				<path d="M 933 -17 Q 929 55 930 176 Q 931 188 924 193 Q 918 197 915 184 Q 881 79 868 67 Q 864 58 841 68 Q 795 86 757 155 Q 724 218 710 299 Q 697 384 709 494 Q 710 533 735 565 Q 751 577 740 588 Q 730 606 697 628 Q 678 641 654 630 Q 635 620 600 611 Q 305 544 227 530 Q 214 530 211 522 Q 210 516 219 512 Q 253 496 283 507 Q 433 549 627 578 Q 643 581 652 574 Q 658 570 654 505 Q 627 51 898 -39 Q 901 -39 906 -41 Q 921 -47 929 -38 Q 935 -32 933 -17 Z" fill="black"></path>
				<path d="M 311 452 Q 327 434 346 413 Q 356 403 369 403 Q 376 403 381 413 Q 385 423 380 447 Q 374 468 309 489 Q 297 492 292 491 Q 288 488 288 478 Q 291 469 311 452 Z" fill="black"></path>
				<path d="M 456 397 Q 475 418 490 431 Q 533 480 547 488 Q 562 498 551 510 Q 538 520 517 528 Q 498 535 488 531 Q 479 528 484 518 Q 490 493 430 391 C 415 365 436 375 456 397 Z" fill="black"></path>
				<path d="M 428 353 Q 447 359 569 376 Q 578 375 585 386 Q 586 396 567 404 Q 540 425 460 398 Q 457 398 456 397 L 430 391 Q 421 390 418 388 Q 337 370 227 357 Q 203 353 222 339 Q 252 318 285 326 Q 322 335 371 342 L 428 353 Z" fill="black"></path>
				<path d="M 434 248 Q 483 258 526 264 Q 550 268 541 280 Q 531 295 505 300 Q 481 303 437 291 L 382 276 Q 321 263 267 249 Q 251 245 271 230 Q 284 221 309 226 Q 346 233 382 239 L 434 248 Z" fill="red"></path>
				<path d="M 431 150 Q 524 159 638 160 Q 656 161 660 169 Q 664 179 649 191 Q 600 224 545 211 Q 497 202 432 187 L 382 178 Q 376 178 374 177 Q 265 159 135 140 Q 116 139 130 123 Q 143 111 159 106 Q 178 102 192 107 Q 294 137 382 145 L 431 150 Z" fill="lightgray"></path>
				<path d="M 385 -39 Q 389 -61 395 -69 Q 399 -76 406 -73 Q 413 -70 418 -57 Q 430 -17 431 144 Q 431 147 431 150 L 432 187 Q 432 215 434 248 L 437 291 Q 440 303 444 325 Q 447 341 435 349 Q 431 352 428 353 C 403 370 361 370 371 342 Q 380 324 382 276 L 382 239 Q 382 211 382 178 L 382 145 Q 382 -18 385 -39 Z" fill="lightgray"></path>
</g>
		<text x="40" y="140" font-size="128" fill="#999999">8</text></g>
		<g id="id1:id3:id3" transform="matrix(1.0,0,0,1.0,3072,0.0)">			<g stroke="lightgray" stroke-width="4" transform="scale(4, 4)"> <rect x="0" y="0" width="256" height="256" fill="white" stroke-width="4"/></g>
			<g transform="scale(0.92, -0.92) translate(60, -920)">					<path d="M 347 752 Q 359 776 384 796 Q 393 805 389 816 Q 386 828 363 848 Q 341 864 326 866 Q 310 865 316 846 Q 328 813 258 709 Q 224 661 179 610 Q 170 601 168 596 Q 164 587 176 589 Q 221 595 329 729 L 347 752 Z" fill="black"></path>
				<path d="M 329 729 Q 368 708 422 719 Q 519 738 621 759 Q 667 769 675 777 Q 684 784 679 793 Q 672 803 644 811 Q 619 817 520 785 Q 432 763 347 752 C 317 748 302 742 329 729 Z" fill="black"></path>
				<path d="M 348 648 Q 317 644 339 628 Q 378 607 422 619 Q 486 632 552 645 Q 583 652 587 656 Q 594 663 591 670 Q 584 680 559 686 Q 534 692 508 681 Q 474 671 437 661 Q 395 652 348 648 Z" fill="black"></path>
				<path d="M 933 -17 Q 929 55 930 176 Q 931 188 924 193 Q 918 197 915 184 Q 881 79 868 67 Q 864 58 841 68 Q 795 86 757 155 Q 724 218 710 299 Q 697 384 709 494 Q 710 533 735 565 Q 751 577 740 588 Q 730 606 697 628 Q 678 641 654 630 Q 635 620 600 611 Q 305 544 227 530 Q 214 530 211 522 Q 210 516 219 512 Q 253 496 283 507 Q 433 549 627 578 Q 643 581 652 574 Q 658 570 654 505 Q 627 51 898 -39 Q 901 -39 906 -41 Q 921 -47 929 -38 Q 935 -32 933 -17 Z" fill="black"></path>
				<path d="M 311 452 Q 327 434 346 413 Q 356 403 369 403 Q 376 403 381 413 Q 385 423 380 447 Q 374 468 309 489 Q 297 492 292 491 Q 288 488 288 478 Q 291 469 311 452 Z" fill="black"></path>
				<path d="M 456 397 Q 475 418 490 431 Q 533 480 547 488 Q 562 498 551 510 Q 538 520 517 528 Q 498 535 488 531 Q 479 528 484 518 Q 490 493 430 391 C 415 365 436 375 456 397 Z" fill="black"></path>
				<path d="M 428 353 Q 447 359 569 376 Q 578 375 585 386 Q 586 396 567 404 Q 540 425 460 398 Q 457 398 456 397 L 430 391 Q 421 390 418 388 Q 337 370 227 357 Q 203 353 222 339 Q 252 318 285 326 Q 322 335 371 342 L 428 353 Z" fill="black"></path>
				<path d="M 434 248 Q 483 258 526 264 Q 550 268 541 280 Q 531 295 505 300 Q 481 303 437 291 L 382 276 Q 321 263 267 249 Q 251 245 271 230 Q 284 221 309 226 Q 346 233 382 239 L 434 248 Z" fill="black"></path>
				<path d="M 431 150 Q 524 159 638 160 Q 656 161 660 169 Q 664 179 649 191 Q 600 224 545 211 Q 497 202 432 187 L 382 178 Q 376 178 374 177 Q 265 159 135 140 Q 116 139 130 123 Q 143 111 159 106 Q 178 102 192 107 Q 294 137 382 145 L 431 150 Z" fill="red"></path>
				<path d="M 385 -39 Q 389 -61 395 -69 Q 399 -76 406 -73 Q 413 -70 418 -57 Q 430 -17 431 144 Q 431 147 431 150 L 432 187 Q 432 215 434 248 L 437 291 Q 440 303 444 325 Q 447 341 435 349 Q 431 352 428 353 C 403 370 361 370 371 342 Q 380 324 382 276 L 382 239 Q 382 211 382 178 L 382 145 Q 382 -18 385 -39 Z" fill="lightgray"></path>
</g>
		<text x="40" y="140" font-size="128" fill="#999999">9</text></g>
		<g id="id1:id4:id4" transform="matrix(1.0,0,0,1.0,4096,0.0)">			<g stroke="lightgray" stroke-width="4" transform="scale(4, 4)"> <rect x="0" y="0" width="256" height="256" fill="white" stroke-width="4"/></g>
			<g transform="scale(0.92, -0.92) translate(60, -920)">					<path d="M 347 752 Q 359 776 384 796 Q 393 805 389 816 Q 386 828 363 848 Q 341 864 326 866 Q 310 865 316 846 Q 328 813 258 709 Q 224 661 179 610 Q 170 601 168 596 Q 164 587 176 589 Q 221 595 329 729 L 347 752 Z" fill="black"></path>
				<path d="M 329 729 Q 368 708 422 719 Q 519 738 621 759 Q 667 769 675 777 Q 684 784 679 793 Q 672 803 644 811 Q 619 817 520 785 Q 432 763 347 752 C 317 748 302 742 329 729 Z" fill="black"></path>
				<path d="M 348 648 Q 317 644 339 628 Q 378 607 422 619 Q 486 632 552 645 Q 583 652 587 656 Q 594 663 591 670 Q 584 680 559 686 Q 534 692 508 681 Q 474 671 437 661 Q 395 652 348 648 Z" fill="black"></path>
				<path d="M 933 -17 Q 929 55 930 176 Q 931 188 924 193 Q 918 197 915 184 Q 881 79 868 67 Q 864 58 841 68 Q 795 86 757 155 Q 724 218 710 299 Q 697 384 709 494 Q 710 533 735 565 Q 751 577 740 588 Q 730 606 697 628 Q 678 641 654 630 Q 635 620 600 611 Q 305 544 227 530 Q 214 530 211 522 Q 210 516 219 512 Q 253 496 283 507 Q 433 549 627 578 Q 643 581 652 574 Q 658 570 654 505 Q 627 51 898 -39 Q 901 -39 906 -41 Q 921 -47 929 -38 Q 935 -32 933 -17 Z" fill="black"></path>
				<path d="M 311 452 Q 327 434 346 413 Q 356 403 369 403 Q 376 403 381 413 Q 385 423 380 447 Q 374 468 309 489 Q 297 492 292 491 Q 288 488 288 478 Q 291 469 311 452 Z" fill="black"></path>
				<path d="M 456 397 Q 475 418 490 431 Q 533 480 547 488 Q 562 498 551 510 Q 538 520 517 528 Q 498 535 488 531 Q 479 528 484 518 Q 490 493 430 391 C 415 365 436 375 456 397 Z" fill="black"></path>
				<path d="M 428 353 Q 447 359 569 376 Q 578 375 585 386 Q 586 396 567 404 Q 540 425 460 398 Q 457 398 456 397 L 430 391 Q 421 390 418 388 Q 337 370 227 357 Q 203 353 222 339 Q 252 318 285 326 Q 322 335 371 342 L 428 353 Z" fill="black"></path>
				<path d="M 434 248 Q 483 258 526 264 Q 550 268 541 280 Q 531 295 505 300 Q 481 303 437 291 L 382 276 Q 321 263 267 249 Q 251 245 271 230 Q 284 221 309 226 Q 346 233 382 239 L 434 248 Z" fill="black"></path>
				<path d="M 431 150 Q 524 159 638 160 Q 656 161 660 169 Q 664 179 649 191 Q 600 224 545 211 Q 497 202 432 187 L 382 178 Q 376 178 374 177 Q 265 159 135 140 Q 116 139 130 123 Q 143 111 159 106 Q 178 102 192 107 Q 294 137 382 145 L 431 150 Z" fill="black"></path>
				<path d="M 385 -39 Q 389 -61 395 -69 Q 399 -76 406 -73 Q 413 -70 418 -57 Q 430 -17 431 144 Q 431 147 431 150 L 432 187 Q 432 215 434 248 L 437 291 Q 440 303 444 325 Q 447 341 435 349 Q 431 352 428 353 C 403 370 361 370 371 342 Q 380 324 382 276 L 382 239 Q 382 211 382 178 L 382 145 Q 382 -18 385 -39 Z" fill="red"></path>
</g>
		<text x="40" y="140" font-size="128" fill="#999999">10</text></g>
</g>
</svg>
