<?xml version="1.0" standalone="no"?>
<!DOCTYPE svg PUBLIC "-//W3C//DTD SVG 1.1//EN"
 "http://www.w3.org/Graphics/SVG/1.1/DTD/svg11.dtd">
<!-- generate by Japanese dictionary app com.asnsami.kanjidictionary -->

<svg xmlns="http://www.w3.org/2000/svg" xmlns:sodipodi="http://sodipodi.sourceforge.net/DTD/sodipodi-0.dtd" version="1.1" width="640" height="128" viewBox="0 0 5120 1024">
	<g id="id0:id0" transform="translate(0.0,0)">
		<g id="id0:id0:id0" transform="matrix(1.0,0,0,1.0,0,0.0)">			<g stroke="lightgray" stroke-width="4" transform="scale(4, 4)"> <rect x="0" y="0" width="256" height="256" fill="white" stroke-width="4"/></g>
			<g transform="scale(0.92, -0.92) translate(60, -920)">					<path d="M 214 661 Q 239 636 265 603 Q 278 587 297 587 Q 310 586 316 601 Q 323 617 316 652 Q 312 673 280 691 Q 202 724 188 719 Q 182 715 183 701 Q 186 688 214 661 Z" fill="red"></path>
				<path d="M 103 470 Q 148 415 189 394 Q 205 391 215 405 Q 222 418 219 436 Q 207 478 117 511 Q 99 517 90 513 Q 83 512 85 498 Q 86 485 103 470 Z" fill="lightgray"></path>
				<path d="M 102 143 Q 89 140 91 122 Q 103 47 135 26 Q 141 19 152 21 Q 159 22 162 47 Q 168 89 284 344 Q 291 360 291 366 Q 290 376 281 370 Q 266 361 145 183 Q 132 162 102 143 Z" fill="lightgray"></path>
				<path d="M 474 472 Q 426 252 353 155 Q 250 53 243 46 Q 225 37 217 26 Q 213 19 230 20 Q 267 17 372 110 Q 493 225 533 493 L 538 536 Q 539 549 541 560 Q 556 677 572 718 Q 578 730 569 738 Q 550 757 514 774 Q 492 784 474 779 Q 452 772 469 753 Q 497 722 495 689 Q 491 595 481 516 L 474 472 Z" fill="lightgray"></path>
				<path d="M 533 493 Q 579 509 621 522 Q 634 526 640 517 Q 647 510 643 486 Q 592 140 628 79 Q 629 78 631 75 Q 659 15 824 11 Q 902 11 959 32 Q 987 45 975 71 Q 954 108 941 200 Q 938 221 932 229 Q 925 236 921 216 Q 912 176 899 129 Q 892 89 853 80 Q 805 67 738 77 Q 692 84 680 104 Q 644 155 699 428 Q 706 470 736 502 Q 767 530 742 548 Q 726 564 689 582 Q 661 595 646 582 Q 624 569 538 536 L 481 516 Q 409 497 329 482 Q 314 481 309 473 Q 303 464 318 457 Q 361 427 396 442 Q 436 458 474 472 L 533 493 Z" fill="lightgray"></path>
</g>
		<text x="40" y="140" font-size="128" fill="#999999">1</text></g>
		<g id="id0:id1:id1" transform="matrix(1.0,0,0,1.0,1024,0.0)">			<g stroke="lightgray" stroke-width="4" transform="scale(4, 4)"> <rect x="0" y="0" width="256" height="256" fill="white" stroke-width="4"/></g>
			<g transform="scale(0.92, -0.92) translate(60, -920)">					<path d="M 214 661 Q 239 636 265 603 Q 278 587 297 587 Q 310 586 316 601 Q 323 617 316 652 Q 312 673 280 691 Q 202 724 188 719 Q 182 715 183 701 Q 186 688 214 661 Z" fill="black"></path>
				<path d="M 103 470 Q 148 415 189 394 Q 205 391 215 405 Q 222 418 219 436 Q 207 478 117 511 Q 99 517 90 513 Q 83 512 85 498 Q 86 485 103 470 Z" fill="red"></path>
				<path d="M 102 143 Q 89 140 91 122 Q 103 47 135 26 Q 141 19 152 21 Q 159 22 162 47 Q 168 89 284 344 Q 291 360 291 366 Q 290 376 281 370 Q 266 361 145 183 Q 132 162 102 143 Z" fill="lightgray"></path>
				<path d="M 474 472 Q 426 252 353 155 Q 250 53 243 46 Q 225 37 217 26 Q 213 19 230 20 Q 267 17 372 110 Q 493 225 533 493 L 538 536 Q 539 549 541 560 Q 556 677 572 718 Q 578 730 569 738 Q 550 757 514 774 Q 492 784 474 779 Q 452 772 469 753 Q 497 722 495 689 Q 491 595 481 516 L 474 472 Z" fill="lightgray"></path>
				<path d="M 533 493 Q 579 509 621 522 Q 634 526 640 517 Q 647 510 643 486 Q 592 140 628 79 Q 629 78 631 75 Q 659 15 824 11 Q 902 11 959 32 Q 987 45 975 71 Q 954 108 941 200 Q 938 221 932 229 Q 925 236 921 216 Q 912 176 899 129 Q 892 89 853 80 Q 805 67 738 77 Q 692 84 680 104 Q 644 155 699 428 Q 706 470 736 502 Q 767 530 742 548 Q 726 564 689 582 Q 661 595 646 582 Q 624 569 538 536 L 481 516 Q 409 497 329 482 Q 314 481 309 473 Q 303 464 318 457 Q 361 427 396 442 Q 436 458 474 472 L 533 493 Z" fill="lightgray"></path>
</g>
		<text x="40" y="140" font-size="128" fill="#999999">2</text></g>
		<g id="id0:id2:id2" transform="matrix(1.0,0,0,1.0,2048,0.0)">			<g stroke="lightgray" stroke-width="4" transform="scale(4, 4)"> <rect x="0" y="0" width="256" height="256" fill="white" stroke-width="4"/></g>
			<g transform="scale(0.92, -0.92) translate(60, -920)">					<path d="M 214 661 Q 239 636 265 603 Q 278 587 297 587 Q 310 586 316 601 Q 323 617 316 652 Q 312 673 280 691 Q 202 724 188 719 Q 182 715 183 701 Q 186 688 214 661 Z" fill="black"></path>
				<path d="M 103 470 Q 148 415 189 394 Q 205 391 215 405 Q 222 418 219 436 Q 207 478 117 511 Q 99 517 90 513 Q 83 512 85 498 Q 86 485 103 470 Z" fill="black"></path>
				<path d="M 102 143 Q 89 140 91 122 Q 103 47 135 26 Q 141 19 152 21 Q 159 22 162 47 Q 168 89 284 344 Q 291 360 291 366 Q 290 376 281 370 Q 266 361 145 183 Q 132 162 102 143 Z" fill="red"></path>
				<path d="M 474 472 Q 426 252 353 155 Q 250 53 243 46 Q 225 37 217 26 Q 213 19 230 20 Q 267 17 372 110 Q 493 225 533 493 L 538 536 Q 539 549 541 560 Q 556 677 572 718 Q 578 730 569 738 Q 550 757 514 774 Q 492 784 474 779 Q 452 772 469 753 Q 497 722 495 689 Q 491 595 481 516 L 474 472 Z" fill="lightgray"></path>
				<path d="M 533 493 Q 579 509 621 522 Q 634 526 640 517 Q 647 510 643 486 Q 592 140 628 79 Q 629 78 631 75 Q 659 15 824 11 Q 902 11 959 32 Q 987 45 975 71 Q 954 108 941 200 Q 938 221 932 229 Q 925 236 921 216 Q 912 176 899 129 Q 892 89 853 80 Q 805 67 738 77 Q 692 84 680 104 Q 644 155 699 428 Q 706 470 736 502 Q 767 530 742 548 Q 726 564 689 582 Q 661 595 646 582 Q 624 569 538 536 L 481 516 Q 409 497 329 482 Q 314 481 309 473 Q 303 464 318 457 Q 361 427 396 442 Q 436 458 474 472 L 533 493 Z" fill="lightgray"></path>
</g>
		<text x="40" y="140" font-size="128" fill="#999999">3</text></g>
		<g id="id0:id3:id3" transform="matrix(1.0,0,0,1.0,3072,0.0)">			<g stroke="lightgray" stroke-width="4" transform="scale(4, 4)"> <rect x="0" y="0" width="256" height="256" fill="white" stroke-width="4"/></g>
			<g transform="scale(0.92, -0.92) translate(60, -920)">					<path d="M 214 661 Q 239 636 265 603 Q 278 587 297 587 Q 310 586 316 601 Q 323 617 316 652 Q 312 673 280 691 Q 202 724 188 719 Q 182 715 183 701 Q 186 688 214 661 Z" fill="black"></path>
				<path d="M 103 470 Q 148 415 189 394 Q 205 391 215 405 Q 222 418 219 436 Q 207 478 117 511 Q 99 517 90 513 Q 83 512 85 498 Q 86 485 103 470 Z" fill="black"></path>
				<path d="M 102 143 Q 89 140 91 122 Q 103 47 135 26 Q 141 19 152 21 Q 159 22 162 47 Q 168 89 284 344 Q 291 360 291 366 Q 290 376 281 370 Q 266 361 145 183 Q 132 162 102 143 Z" fill="black"></path>
				<path d="M 474 472 Q 426 252 353 155 Q 250 53 243 46 Q 225 37 217 26 Q 213 19 230 20 Q 267 17 372 110 Q 493 225 533 493 L 538 536 Q 539 549 541 560 Q 556 677 572 718 Q 578 730 569 738 Q 550 757 514 774 Q 492 784 474 779 Q 452 772 469 753 Q 497 722 495 689 Q 491 595 481 516 L 474 472 Z" fill="red"></path>
				<path d="M 533 493 Q 579 509 621 522 Q 634 526 640 517 Q 647 510 643 486 Q 592 140 628 79 Q 629 78 631 75 Q 659 15 824 11 Q 902 11 959 32 Q 987 45 975 71 Q 954 108 941 200 Q 938 221 932 229 Q 925 236 921 216 Q 912 176 899 129 Q 892 89 853 80 Q 805 67 738 77 Q 692 84 680 104 Q 644 155 699 428 Q 706 470 736 502 Q 767 530 742 548 Q 726 564 689 582 Q 661 595 646 582 Q 624 569 538 536 L 481 516 Q 409 497 329 482 Q 314 481 309 473 Q 303 464 318 457 Q 361 427 396 442 Q 436 458 474 472 L 533 493 Z" fill="lightgray"></path>
</g>
		<text x="40" y="140" font-size="128" fill="#999999">4</text></g>
		<g id="id0:id4:id4" transform="matrix(1.0,0,0,1.0,4096,0.0)">			<g stroke="lightgray" stroke-width="4" transform="scale(4, 4)"> <rect x="0" y="0" width="256" height="256" fill="white" stroke-width="4"/></g>
			<g transform="scale(0.92, -0.92) translate(60, -920)">					<path d="M 214 661 Q 239 636 265 603 Q 278 587 297 587 Q 310 586 316 601 Q 323 617 316 652 Q 312 673 280 691 Q 202 724 188 719 Q 182 715 183 701 Q 186 688 214 661 Z" fill="black"></path>
				<path d="M 103 470 Q 148 415 189 394 Q 205 391 215 405 Q 222 418 219 436 Q 207 478 117 511 Q 99 517 90 513 Q 83 512 85 498 Q 86 485 103 470 Z" fill="black"></path>
				<path d="M 102 143 Q 89 140 91 122 Q 103 47 135 26 Q 141 19 152 21 Q 159 22 162 47 Q 168 89 284 344 Q 291 360 291 366 Q 290 376 281 370 Q 266 361 145 183 Q 132 162 102 143 Z" fill="black"></path>
				<path d="M 474 472 Q 426 252 353 155 Q 250 53 243 46 Q 225 37 217 26 Q 213 19 230 20 Q 267 17 372 110 Q 493 225 533 493 L 538 536 Q 539 549 541 560 Q 556 677 572 718 Q 578 730 569 738 Q 550 757 514 774 Q 492 784 474 779 Q 452 772 469 753 Q 497 722 495 689 Q 491 595 481 516 L 474 472 Z" fill="black"></path>
				<path d="M 533 493 Q 579 509 621 522 Q 634 526 640 517 Q 647 510 643 486 Q 592 140 628 79 Q 629 78 631 75 Q 659 15 824 11 Q 902 11 959 32 Q 987 45 975 71 Q 954 108 941 200 Q 938 221 932 229 Q 925 236 921 216 Q 912 176 899 129 Q 892 89 853 80 Q 805 67 738 77 Q 692 84 680 104 Q 644 155 699 428 Q 706 470 736 502 Q 767 530 742 548 Q 726 564 689 582 Q 661 595 646 582 Q 624 569 538 536 L 481 516 Q 409 497 329 482 Q 314 481 309 473 Q 303 464 318 457 Q 361 427 396 442 Q 436 458 474 472 L 533 493 Z" fill="red"></path>
</g>
		<text x="40" y="140" font-size="128" fill="#999999">5</text></g>
</g>
</svg>
