<?xml version="1.0" standalone="no"?>
<!DOCTYPE svg PUBLIC "-//W3C//DTD SVG 1.1//EN"
 "http://www.w3.org/Graphics/SVG/1.1/DTD/svg11.dtd">
<!-- generate by Handict dictionary app com.asnsami.handict -->

<svg xmlns="http://www.w3.org/2000/svg" xmlns:sodipodi="http://sodipodi.sourceforge.net/DTD/sodipodi-0.dtd" version="1.1" width="640" height="256" viewBox="0 0 5120 2048">
	<g id="id0:id0" transform="translate(0.0,0)">
		<g id="id0:id0:id0" transform="matrix(1.0,0,0,1.0,0,0.0)">			<g stroke="lightgray" stroke-width="4" transform="scale(4, 4)"> <rect x="0" y="0" width="256" height="256" fill="white" stroke-width="4"/></g>
			<g transform="scale(0.92, -0.92) translate(60, -920)">					<path d="M 252 720 Q 280 698 309 669 Q 325 656 343 656 Q 355 657 360 672 Q 366 690 354 723 Q 342 754 245 775 Q 227 779 220 775 Q 214 771 216 756 Q 220 743 252 720 Z" fill="red"></path>
				<path d="M 151 503 Q 176 478 205 449 Q 218 434 236 435 Q 246 435 253 449 Q 257 464 250 496 Q 240 529 147 553 Q 131 557 124 555 Q 118 551 120 538 Q 123 525 151 503 Z" fill="lightgray"></path>
				<path d="M 142 187 Q 130 184 131 166 Q 143 88 175 70 Q 181 63 192 65 Q 199 66 202 91 Q 211 139 332 400 Q 339 416 339 422 Q 338 432 329 426 Q 319 420 187 230 Q 172 208 142 187 Z" fill="lightgray"></path>
				<path d="M 546 583 Q 574 626 607 681 Q 629 723 649 743 Q 658 755 653 768 Q 647 781 618 803 Q 590 821 571 820 Q 552 817 561 795 Q 574 768 565 744 Q 517 606 390 436 Q 380 426 378 418 Q 375 408 389 410 Q 401 413 425 436 Q 462 470 507 531 Q 519 546 531 562 L 546 583 Z" fill="lightgray"></path>
				<path d="M 721 494 Q 703 418 659 338 Q 596 217 502 125 Q 418 43 311 -20 Q 301 -27 302 -32 Q 303 -38 312 -37 Q 471 -13 637 191 Q 655 216 673 242 Q 739 342 801 500 Q 820 536 850 560 Q 869 570 869 582 Q 868 598 830 617 Q 785 642 767 642 Q 754 641 740 630 Q 625 591 569 585 Q 556 586 546 583 C 516 580 504 575 531 562 Q 547 549 583 544 Q 620 543 690 572 Q 721 585 734 576 Q 744 570 721 494 Z" fill="lightgray"></path>
				<path d="M 476 421 Q 536 324 562 316 Q 577 312 587 331 Q 591 344 585 369 Q 576 393 549 410 Q 506 441 486 450 Q 476 454 473 441 Q 470 432 476 421 Z" fill="lightgray"></path>
</g>
		<text x="40" y="140" font-size="128" fill="#999999">1</text></g>
		<g id="id0:id1:id1" transform="matrix(1.0,0,0,1.0,1024,0.0)">			<g stroke="lightgray" stroke-width="4" transform="scale(4, 4)"> <rect x="0" y="0" width="256" height="256" fill="white" stroke-width="4"/></g>
			<g transform="scale(0.92, -0.92) translate(60, -920)">					<path d="M 252 720 Q 280 698 309 669 Q 325 656 343 656 Q 355 657 360 672 Q 366 690 354 723 Q 342 754 245 775 Q 227 779 220 775 Q 214 771 216 756 Q 220 743 252 720 Z" fill="black"></path>
				<path d="M 151 503 Q 176 478 205 449 Q 218 434 236 435 Q 246 435 253 449 Q 257 464 250 496 Q 240 529 147 553 Q 131 557 124 555 Q 118 551 120 538 Q 123 525 151 503 Z" fill="red"></path>
				<path d="M 142 187 Q 130 184 131 166 Q 143 88 175 70 Q 181 63 192 65 Q 199 66 202 91 Q 211 139 332 400 Q 339 416 339 422 Q 338 432 329 426 Q 319 420 187 230 Q 172 208 142 187 Z" fill="lightgray"></path>
				<path d="M 546 583 Q 574 626 607 681 Q 629 723 649 743 Q 658 755 653 768 Q 647 781 618 803 Q 590 821 571 820 Q 552 817 561 795 Q 574 768 565 744 Q 517 606 390 436 Q 380 426 378 418 Q 375 408 389 410 Q 401 413 425 436 Q 462 470 507 531 Q 519 546 531 562 L 546 583 Z" fill="lightgray"></path>
				<path d="M 721 494 Q 703 418 659 338 Q 596 217 502 125 Q 418 43 311 -20 Q 301 -27 302 -32 Q 303 -38 312 -37 Q 471 -13 637 191 Q 655 216 673 242 Q 739 342 801 500 Q 820 536 850 560 Q 869 570 869 582 Q 868 598 830 617 Q 785 642 767 642 Q 754 641 740 630 Q 625 591 569 585 Q 556 586 546 583 C 516 580 504 575 531 562 Q 547 549 583 544 Q 620 543 690 572 Q 721 585 734 576 Q 744 570 721 494 Z" fill="lightgray"></path>
				<path d="M 476 421 Q 536 324 562 316 Q 577 312 587 331 Q 591 344 585 369 Q 576 393 549 410 Q 506 441 486 450 Q 476 454 473 441 Q 470 432 476 421 Z" fill="lightgray"></path>
</g>
		<text x="40" y="140" font-size="128" fill="#999999">2</text></g>
		<g id="id0:id2:id2" transform="matrix(1.0,0,0,1.0,2048,0.0)">			<g stroke="lightgray" stroke-width="4" transform="scale(4, 4)"> <rect x="0" y="0" width="256" height="256" fill="white" stroke-width="4"/></g>
			<g transform="scale(0.92, -0.92) translate(60, -920)">					<path d="M 252 720 Q 280 698 309 669 Q 325 656 343 656 Q 355 657 360 672 Q 366 690 354 723 Q 342 754 245 775 Q 227 779 220 775 Q 214 771 216 756 Q 220 743 252 720 Z" fill="black"></path>
				<path d="M 151 503 Q 176 478 205 449 Q 218 434 236 435 Q 246 435 253 449 Q 257 464 250 496 Q 240 529 147 553 Q 131 557 124 555 Q 118 551 120 538 Q 123 525 151 503 Z" fill="black"></path>
				<path d="M 142 187 Q 130 184 131 166 Q 143 88 175 70 Q 181 63 192 65 Q 199 66 202 91 Q 211 139 332 400 Q 339 416 339 422 Q 338 432 329 426 Q 319 420 187 230 Q 172 208 142 187 Z" fill="red"></path>
				<path d="M 546 583 Q 574 626 607 681 Q 629 723 649 743 Q 658 755 653 768 Q 647 781 618 803 Q 590 821 571 820 Q 552 817 561 795 Q 574 768 565 744 Q 517 606 390 436 Q 380 426 378 418 Q 375 408 389 410 Q 401 413 425 436 Q 462 470 507 531 Q 519 546 531 562 L 546 583 Z" fill="lightgray"></path>
				<path d="M 721 494 Q 703 418 659 338 Q 596 217 502 125 Q 418 43 311 -20 Q 301 -27 302 -32 Q 303 -38 312 -37 Q 471 -13 637 191 Q 655 216 673 242 Q 739 342 801 500 Q 820 536 850 560 Q 869 570 869 582 Q 868 598 830 617 Q 785 642 767 642 Q 754 641 740 630 Q 625 591 569 585 Q 556 586 546 583 C 516 580 504 575 531 562 Q 547 549 583 544 Q 620 543 690 572 Q 721 585 734 576 Q 744 570 721 494 Z" fill="lightgray"></path>
				<path d="M 476 421 Q 536 324 562 316 Q 577 312 587 331 Q 591 344 585 369 Q 576 393 549 410 Q 506 441 486 450 Q 476 454 473 441 Q 470 432 476 421 Z" fill="lightgray"></path>
</g>
		<text x="40" y="140" font-size="128" fill="#999999">3</text></g>
		<g id="id0:id3:id3" transform="matrix(1.0,0,0,1.0,3072,0.0)">			<g stroke="lightgray" stroke-width="4" transform="scale(4, 4)"> <rect x="0" y="0" width="256" height="256" fill="white" stroke-width="4"/></g>
			<g transform="scale(0.92, -0.92) translate(60, -920)">					<path d="M 252 720 Q 280 698 309 669 Q 325 656 343 656 Q 355 657 360 672 Q 366 690 354 723 Q 342 754 245 775 Q 227 779 220 775 Q 214 771 216 756 Q 220 743 252 720 Z" fill="black"></path>
				<path d="M 151 503 Q 176 478 205 449 Q 218 434 236 435 Q 246 435 253 449 Q 257 464 250 496 Q 240 529 147 553 Q 131 557 124 555 Q 118 551 120 538 Q 123 525 151 503 Z" fill="black"></path>
				<path d="M 142 187 Q 130 184 131 166 Q 143 88 175 70 Q 181 63 192 65 Q 199 66 202 91 Q 211 139 332 400 Q 339 416 339 422 Q 338 432 329 426 Q 319 420 187 230 Q 172 208 142 187 Z" fill="black"></path>
				<path d="M 546 583 Q 574 626 607 681 Q 629 723 649 743 Q 658 755 653 768 Q 647 781 618 803 Q 590 821 571 820 Q 552 817 561 795 Q 574 768 565 744 Q 517 606 390 436 Q 380 426 378 418 Q 375 408 389 410 Q 401 413 425 436 Q 462 470 507 531 Q 519 546 531 562 L 546 583 Z" fill="red"></path>
				<path d="M 721 494 Q 703 418 659 338 Q 596 217 502 125 Q 418 43 311 -20 Q 301 -27 302 -32 Q 303 -38 312 -37 Q 471 -13 637 191 Q 655 216 673 242 Q 739 342 801 500 Q 820 536 850 560 Q 869 570 869 582 Q 868 598 830 617 Q 785 642 767 642 Q 754 641 740 630 Q 625 591 569 585 Q 556 586 546 583 C 516 580 504 575 531 562 Q 547 549 583 544 Q 620 543 690 572 Q 721 585 734 576 Q 744 570 721 494 Z" fill="lightgray"></path>
				<path d="M 476 421 Q 536 324 562 316 Q 577 312 587 331 Q 591 344 585 369 Q 576 393 549 410 Q 506 441 486 450 Q 476 454 473 441 Q 470 432 476 421 Z" fill="lightgray"></path>
</g>
		<text x="40" y="140" font-size="128" fill="#999999">4</text></g>
		<g id="id0:id4:id4" transform="matrix(1.0,0,0,1.0,4096,0.0)">			<g stroke="lightgray" stroke-width="4" transform="scale(4, 4)"> <rect x="0" y="0" width="256" height="256" fill="white" stroke-width="4"/></g>
			<g transform="scale(0.92, -0.92) translate(60, -920)">					<path d="M 252 720 Q 280 698 309 669 Q 325 656 343 656 Q 355 657 360 672 Q 366 690 354 723 Q 342 754 245 775 Q 227 779 220 775 Q 214 771 216 756 Q 220 743 252 720 Z" fill="black"></path>
				<path d="M 151 503 Q 176 478 205 449 Q 218 434 236 435 Q 246 435 253 449 Q 257 464 250 496 Q 240 529 147 553 Q 131 557 124 555 Q 118 551 120 538 Q 123 525 151 503 Z" fill="black"></path>
				<path d="M 142 187 Q 130 184 131 166 Q 143 88 175 70 Q 181 63 192 65 Q 199 66 202 91 Q 211 139 332 400 Q 339 416 339 422 Q 338 432 329 426 Q 319 420 187 230 Q 172 208 142 187 Z" fill="black"></path>
				<path d="M 546 583 Q 574 626 607 681 Q 629 723 649 743 Q 658 755 653 768 Q 647 781 618 803 Q 590 821 571 820 Q 552 817 561 795 Q 574 768 565 744 Q 517 606 390 436 Q 380 426 378 418 Q 375 408 389 410 Q 401 413 425 436 Q 462 470 507 531 Q 519 546 531 562 L 546 583 Z" fill="black"></path>
				<path d="M 721 494 Q 703 418 659 338 Q 596 217 502 125 Q 418 43 311 -20 Q 301 -27 302 -32 Q 303 -38 312 -37 Q 471 -13 637 191 Q 655 216 673 242 Q 739 342 801 500 Q 820 536 850 560 Q 869 570 869 582 Q 868 598 830 617 Q 785 642 767 642 Q 754 641 740 630 Q 625 591 569 585 Q 556 586 546 583 C 516 580 504 575 531 562 Q 547 549 583 544 Q 620 543 690 572 Q 721 585 734 576 Q 744 570 721 494 Z" fill="red"></path>
				<path d="M 476 421 Q 536 324 562 316 Q 577 312 587 331 Q 591 344 585 369 Q 576 393 549 410 Q 506 441 486 450 Q 476 454 473 441 Q 470 432 476 421 Z" fill="lightgray"></path>
</g>
		<text x="40" y="140" font-size="128" fill="#999999">5</text></g>
</g>
	<g id="id1:id1" transform="translate(0.0,1024)">
		<g id="id1:id0:id0" transform="matrix(1.0,0,0,1.0,0,0.0)">			<g stroke="lightgray" stroke-width="4" transform="scale(4, 4)"> <rect x="0" y="0" width="256" height="256" fill="white" stroke-width="4"/></g>
			<g transform="scale(0.92, -0.92) translate(60, -920)">					<path d="M 252 720 Q 280 698 309 669 Q 325 656 343 656 Q 355 657 360 672 Q 366 690 354 723 Q 342 754 245 775 Q 227 779 220 775 Q 214 771 216 756 Q 220 743 252 720 Z" fill="black"></path>
				<path d="M 151 503 Q 176 478 205 449 Q 218 434 236 435 Q 246 435 253 449 Q 257 464 250 496 Q 240 529 147 553 Q 131 557 124 555 Q 118 551 120 538 Q 123 525 151 503 Z" fill="black"></path>
				<path d="M 142 187 Q 130 184 131 166 Q 143 88 175 70 Q 181 63 192 65 Q 199 66 202 91 Q 211 139 332 400 Q 339 416 339 422 Q 338 432 329 426 Q 319 420 187 230 Q 172 208 142 187 Z" fill="black"></path>
				<path d="M 546 583 Q 574 626 607 681 Q 629 723 649 743 Q 658 755 653 768 Q 647 781 618 803 Q 590 821 571 820 Q 552 817 561 795 Q 574 768 565 744 Q 517 606 390 436 Q 380 426 378 418 Q 375 408 389 410 Q 401 413 425 436 Q 462 470 507 531 Q 519 546 531 562 L 546 583 Z" fill="black"></path>
				<path d="M 721 494 Q 703 418 659 338 Q 596 217 502 125 Q 418 43 311 -20 Q 301 -27 302 -32 Q 303 -38 312 -37 Q 471 -13 637 191 Q 655 216 673 242 Q 739 342 801 500 Q 820 536 850 560 Q 869 570 869 582 Q 868 598 830 617 Q 785 642 767 642 Q 754 641 740 630 Q 625 591 569 585 Q 556 586 546 583 C 516 580 504 575 531 562 Q 547 549 583 544 Q 620 543 690 572 Q 721 585 734 576 Q 744 570 721 494 Z" fill="black"></path>
				<path d="M 476 421 Q 536 324 562 316 Q 577 312 587 331 Q 591 344 585 369 Q 576 393 549 410 Q 506 441 486 450 Q 476 454 473 441 Q 470 432 476 421 Z" fill="red"></path>
</g>
		<text x="40" y="140" font-size="128" fill="#999999">6</text></g>
		<g id="id1:id1:id1" transform="matrix(1.0,0,0,1.0,1024,0.0)">			<g stroke="white" stroke-width="4" transform="scale(4, 4)"> <rect x="1" y="1" width="255" height="255" fill="white" stroke-width="0"/></g>
</g>
		<g id="id1:id2:id2" transform="matrix(1.0,0,0,1.0,2048,0.0)">			<g stroke="white" stroke-width="4" transform="scale(4, 4)"> <rect x="1" y="1" width="255" height="255" fill="white" stroke-width="0"/></g>
</g>
		<g id="id1:id3:id3" transform="matrix(1.0,0,0,1.0,3072,0.0)">			<g stroke="white" stroke-width="4" transform="scale(4, 4)"> <rect x="1" y="1" width="255" height="255" fill="white" stroke-width="0"/></g>
</g>
		<g id="id1:id4:id4" transform="matrix(1.0,0,0,1.0,4096,0.0)">			<g stroke="white" stroke-width="4" transform="scale(4, 4)"> <rect x="1" y="1" width="255" height="255" fill="white" stroke-width="0"/></g>
</g>
</g>
</svg>
