<?xml version="1.0" standalone="no"?>
<!DOCTYPE svg PUBLIC "-//W3C//DTD SVG 1.1//EN"
 "http://www.w3.org/Graphics/SVG/1.1/DTD/svg11.dtd">
<!-- generate by Japanese dictionary app com.asnsami.kanjidictionary -->

<svg xmlns="http://www.w3.org/2000/svg" xmlns:sodipodi="http://sodipodi.sourceforge.net/DTD/sodipodi-0.dtd" version="1.1" width="640" height="256" viewBox="0 0 5120 2048">
	<g id="id0:id0" transform="translate(0.0,0)">
		<g id="id0:id0:id0" transform="matrix(1.0,0,0,1.0,0,0.0)">			<g stroke="lightgray" stroke-width="4" transform="scale(4, 4)"> <rect x="0" y="0" width="256" height="256" fill="white" stroke-width="4"/></g>
			<g transform="scale(0.92, -0.92) translate(60, -920)">					<path d="M 217 724 Q 245 702 275 675 Q 291 662 308 664 Q 320 665 325 680 Q 329 696 317 729 Q 305 759 208 776 Q 190 779 184 775 Q 178 771 181 757 Q 185 744 217 724 Z" fill="red"></path>
				<path d="M 122 525 Q 173 477 211 463 Q 227 462 235 476 Q 239 489 236 507 Q 214 553 134 565 Q 133 566 131 566 Q 113 569 105 564 Q 98 563 102 550 Q 105 538 122 525 Z" fill="lightgray"></path>
				<path d="M 122 186 Q 109 183 111 165 Q 123 89 160 67 Q 167 60 178 62 Q 185 63 187 90 Q 196 147 297 391 Q 304 407 303 414 Q 302 424 293 417 Q 275 405 163 227 Q 150 208 122 186 Z" fill="lightgray"></path>
				<path d="M 475 631 Q 619 691 641 703 Q 686 725 725 736 Q 743 739 746 747 Q 749 757 735 769 Q 669 808 636 801 Q 629 797 629 785 Q 630 749 467 652 C 441 637 447 619 475 631 Z" fill="lightgray"></path>
				<path d="M 465 486 Q 472 630 475 631 C 477 647 477 647 467 652 Q 463 656 457 658 Q 405 683 388 680 Q 366 676 384 652 Q 420 592 402 375 Q 395 309 365 233 Q 335 160 247 70 Q 232 55 229 49 Q 228 42 240 42 Q 286 46 356 126 Q 437 219 454 365 Q 458 404 463 451 L 465 486 Z" fill="lightgray"></path>
				<path d="M 682 489 Q 698 492 894 510 Q 913 511 918 521 Q 922 533 905 545 Q 850 581 796 564 Q 769 558 465 486 C 436 479 433 456 463 451 Q 496 444 513 449 Q 564 467 622 477 L 682 489 Z" fill="lightgray"></path>
				<path d="M 649 -32 Q 653 -59 661 -69 Q 667 -76 675 -74 Q 690 -65 697 -2 Q 704 61 703 123 Q 697 358 714 448 Q 718 467 703 476 Q 691 483 682 489 C 657 505 613 505 622 477 Q 638 432 643 384 Q 647 -30 649 -32 Z" fill="lightgray"></path>
</g>
		<text x="40" y="140" font-size="128" fill="#999999">1</text></g>
		<g id="id0:id1:id1" transform="matrix(1.0,0,0,1.0,1024,0.0)">			<g stroke="lightgray" stroke-width="4" transform="scale(4, 4)"> <rect x="0" y="0" width="256" height="256" fill="white" stroke-width="4"/></g>
			<g transform="scale(0.92, -0.92) translate(60, -920)">					<path d="M 217 724 Q 245 702 275 675 Q 291 662 308 664 Q 320 665 325 680 Q 329 696 317 729 Q 305 759 208 776 Q 190 779 184 775 Q 178 771 181 757 Q 185 744 217 724 Z" fill="black"></path>
				<path d="M 122 525 Q 173 477 211 463 Q 227 462 235 476 Q 239 489 236 507 Q 214 553 134 565 Q 133 566 131 566 Q 113 569 105 564 Q 98 563 102 550 Q 105 538 122 525 Z" fill="red"></path>
				<path d="M 122 186 Q 109 183 111 165 Q 123 89 160 67 Q 167 60 178 62 Q 185 63 187 90 Q 196 147 297 391 Q 304 407 303 414 Q 302 424 293 417 Q 275 405 163 227 Q 150 208 122 186 Z" fill="lightgray"></path>
				<path d="M 475 631 Q 619 691 641 703 Q 686 725 725 736 Q 743 739 746 747 Q 749 757 735 769 Q 669 808 636 801 Q 629 797 629 785 Q 630 749 467 652 C 441 637 447 619 475 631 Z" fill="lightgray"></path>
				<path d="M 465 486 Q 472 630 475 631 C 477 647 477 647 467 652 Q 463 656 457 658 Q 405 683 388 680 Q 366 676 384 652 Q 420 592 402 375 Q 395 309 365 233 Q 335 160 247 70 Q 232 55 229 49 Q 228 42 240 42 Q 286 46 356 126 Q 437 219 454 365 Q 458 404 463 451 L 465 486 Z" fill="lightgray"></path>
				<path d="M 682 489 Q 698 492 894 510 Q 913 511 918 521 Q 922 533 905 545 Q 850 581 796 564 Q 769 558 465 486 C 436 479 433 456 463 451 Q 496 444 513 449 Q 564 467 622 477 L 682 489 Z" fill="lightgray"></path>
				<path d="M 649 -32 Q 653 -59 661 -69 Q 667 -76 675 -74 Q 690 -65 697 -2 Q 704 61 703 123 Q 697 358 714 448 Q 718 467 703 476 Q 691 483 682 489 C 657 505 613 505 622 477 Q 638 432 643 384 Q 647 -30 649 -32 Z" fill="lightgray"></path>
</g>
		<text x="40" y="140" font-size="128" fill="#999999">2</text></g>
		<g id="id0:id2:id2" transform="matrix(1.0,0,0,1.0,2048,0.0)">			<g stroke="lightgray" stroke-width="4" transform="scale(4, 4)"> <rect x="0" y="0" width="256" height="256" fill="white" stroke-width="4"/></g>
			<g transform="scale(0.92, -0.92) translate(60, -920)">					<path d="M 217 724 Q 245 702 275 675 Q 291 662 308 664 Q 320 665 325 680 Q 329 696 317 729 Q 305 759 208 776 Q 190 779 184 775 Q 178 771 181 757 Q 185 744 217 724 Z" fill="black"></path>
				<path d="M 122 525 Q 173 477 211 463 Q 227 462 235 476 Q 239 489 236 507 Q 214 553 134 565 Q 133 566 131 566 Q 113 569 105 564 Q 98 563 102 550 Q 105 538 122 525 Z" fill="black"></path>
				<path d="M 122 186 Q 109 183 111 165 Q 123 89 160 67 Q 167 60 178 62 Q 185 63 187 90 Q 196 147 297 391 Q 304 407 303 414 Q 302 424 293 417 Q 275 405 163 227 Q 150 208 122 186 Z" fill="red"></path>
				<path d="M 475 631 Q 619 691 641 703 Q 686 725 725 736 Q 743 739 746 747 Q 749 757 735 769 Q 669 808 636 801 Q 629 797 629 785 Q 630 749 467 652 C 441 637 447 619 475 631 Z" fill="lightgray"></path>
				<path d="M 465 486 Q 472 630 475 631 C 477 647 477 647 467 652 Q 463 656 457 658 Q 405 683 388 680 Q 366 676 384 652 Q 420 592 402 375 Q 395 309 365 233 Q 335 160 247 70 Q 232 55 229 49 Q 228 42 240 42 Q 286 46 356 126 Q 437 219 454 365 Q 458 404 463 451 L 465 486 Z" fill="lightgray"></path>
				<path d="M 682 489 Q 698 492 894 510 Q 913 511 918 521 Q 922 533 905 545 Q 850 581 796 564 Q 769 558 465 486 C 436 479 433 456 463 451 Q 496 444 513 449 Q 564 467 622 477 L 682 489 Z" fill="lightgray"></path>
				<path d="M 649 -32 Q 653 -59 661 -69 Q 667 -76 675 -74 Q 690 -65 697 -2 Q 704 61 703 123 Q 697 358 714 448 Q 718 467 703 476 Q 691 483 682 489 C 657 505 613 505 622 477 Q 638 432 643 384 Q 647 -30 649 -32 Z" fill="lightgray"></path>
</g>
		<text x="40" y="140" font-size="128" fill="#999999">3</text></g>
		<g id="id0:id3:id3" transform="matrix(1.0,0,0,1.0,3072,0.0)">			<g stroke="lightgray" stroke-width="4" transform="scale(4, 4)"> <rect x="0" y="0" width="256" height="256" fill="white" stroke-width="4"/></g>
			<g transform="scale(0.92, -0.92) translate(60, -920)">					<path d="M 217 724 Q 245 702 275 675 Q 291 662 308 664 Q 320 665 325 680 Q 329 696 317 729 Q 305 759 208 776 Q 190 779 184 775 Q 178 771 181 757 Q 185 744 217 724 Z" fill="black"></path>
				<path d="M 122 525 Q 173 477 211 463 Q 227 462 235 476 Q 239 489 236 507 Q 214 553 134 565 Q 133 566 131 566 Q 113 569 105 564 Q 98 563 102 550 Q 105 538 122 525 Z" fill="black"></path>
				<path d="M 122 186 Q 109 183 111 165 Q 123 89 160 67 Q 167 60 178 62 Q 185 63 187 90 Q 196 147 297 391 Q 304 407 303 414 Q 302 424 293 417 Q 275 405 163 227 Q 150 208 122 186 Z" fill="black"></path>
				<path d="M 475 631 Q 619 691 641 703 Q 686 725 725 736 Q 743 739 746 747 Q 749 757 735 769 Q 669 808 636 801 Q 629 797 629 785 Q 630 749 467 652 C 441 637 447 619 475 631 Z" fill="red"></path>
				<path d="M 465 486 Q 472 630 475 631 C 477 647 477 647 467 652 Q 463 656 457 658 Q 405 683 388 680 Q 366 676 384 652 Q 420 592 402 375 Q 395 309 365 233 Q 335 160 247 70 Q 232 55 229 49 Q 228 42 240 42 Q 286 46 356 126 Q 437 219 454 365 Q 458 404 463 451 L 465 486 Z" fill="lightgray"></path>
				<path d="M 682 489 Q 698 492 894 510 Q 913 511 918 521 Q 922 533 905 545 Q 850 581 796 564 Q 769 558 465 486 C 436 479 433 456 463 451 Q 496 444 513 449 Q 564 467 622 477 L 682 489 Z" fill="lightgray"></path>
				<path d="M 649 -32 Q 653 -59 661 -69 Q 667 -76 675 -74 Q 690 -65 697 -2 Q 704 61 703 123 Q 697 358 714 448 Q 718 467 703 476 Q 691 483 682 489 C 657 505 613 505 622 477 Q 638 432 643 384 Q 647 -30 649 -32 Z" fill="lightgray"></path>
</g>
		<text x="40" y="140" font-size="128" fill="#999999">4</text></g>
		<g id="id0:id4:id4" transform="matrix(1.0,0,0,1.0,4096,0.0)">			<g stroke="lightgray" stroke-width="4" transform="scale(4, 4)"> <rect x="0" y="0" width="256" height="256" fill="white" stroke-width="4"/></g>
			<g transform="scale(0.92, -0.92) translate(60, -920)">					<path d="M 217 724 Q 245 702 275 675 Q 291 662 308 664 Q 320 665 325 680 Q 329 696 317 729 Q 305 759 208 776 Q 190 779 184 775 Q 178 771 181 757 Q 185 744 217 724 Z" fill="black"></path>
				<path d="M 122 525 Q 173 477 211 463 Q 227 462 235 476 Q 239 489 236 507 Q 214 553 134 565 Q 133 566 131 566 Q 113 569 105 564 Q 98 563 102 550 Q 105 538 122 525 Z" fill="black"></path>
				<path d="M 122 186 Q 109 183 111 165 Q 123 89 160 67 Q 167 60 178 62 Q 185 63 187 90 Q 196 147 297 391 Q 304 407 303 414 Q 302 424 293 417 Q 275 405 163 227 Q 150 208 122 186 Z" fill="black"></path>
				<path d="M 475 631 Q 619 691 641 703 Q 686 725 725 736 Q 743 739 746 747 Q 749 757 735 769 Q 669 808 636 801 Q 629 797 629 785 Q 630 749 467 652 C 441 637 447 619 475 631 Z" fill="black"></path>
				<path d="M 465 486 Q 472 630 475 631 C 477 647 477 647 467 652 Q 463 656 457 658 Q 405 683 388 680 Q 366 676 384 652 Q 420 592 402 375 Q 395 309 365 233 Q 335 160 247 70 Q 232 55 229 49 Q 228 42 240 42 Q 286 46 356 126 Q 437 219 454 365 Q 458 404 463 451 L 465 486 Z" fill="red"></path>
				<path d="M 682 489 Q 698 492 894 510 Q 913 511 918 521 Q 922 533 905 545 Q 850 581 796 564 Q 769 558 465 486 C 436 479 433 456 463 451 Q 496 444 513 449 Q 564 467 622 477 L 682 489 Z" fill="lightgray"></path>
				<path d="M 649 -32 Q 653 -59 661 -69 Q 667 -76 675 -74 Q 690 -65 697 -2 Q 704 61 703 123 Q 697 358 714 448 Q 718 467 703 476 Q 691 483 682 489 C 657 505 613 505 622 477 Q 638 432 643 384 Q 647 -30 649 -32 Z" fill="lightgray"></path>
</g>
		<text x="40" y="140" font-size="128" fill="#999999">5</text></g>
</g>
	<g id="id1:id1" transform="translate(0.0,1024)">
		<g id="id1:id0:id0" transform="matrix(1.0,0,0,1.0,0,0.0)">			<g stroke="lightgray" stroke-width="4" transform="scale(4, 4)"> <rect x="0" y="0" width="256" height="256" fill="white" stroke-width="4"/></g>
			<g transform="scale(0.92, -0.92) translate(60, -920)">					<path d="M 217 724 Q 245 702 275 675 Q 291 662 308 664 Q 320 665 325 680 Q 329 696 317 729 Q 305 759 208 776 Q 190 779 184 775 Q 178 771 181 757 Q 185 744 217 724 Z" fill="black"></path>
				<path d="M 122 525 Q 173 477 211 463 Q 227 462 235 476 Q 239 489 236 507 Q 214 553 134 565 Q 133 566 131 566 Q 113 569 105 564 Q 98 563 102 550 Q 105 538 122 525 Z" fill="black"></path>
				<path d="M 122 186 Q 109 183 111 165 Q 123 89 160 67 Q 167 60 178 62 Q 185 63 187 90 Q 196 147 297 391 Q 304 407 303 414 Q 302 424 293 417 Q 275 405 163 227 Q 150 208 122 186 Z" fill="black"></path>
				<path d="M 475 631 Q 619 691 641 703 Q 686 725 725 736 Q 743 739 746 747 Q 749 757 735 769 Q 669 808 636 801 Q 629 797 629 785 Q 630 749 467 652 C 441 637 447 619 475 631 Z" fill="black"></path>
				<path d="M 465 486 Q 472 630 475 631 C 477 647 477 647 467 652 Q 463 656 457 658 Q 405 683 388 680 Q 366 676 384 652 Q 420 592 402 375 Q 395 309 365 233 Q 335 160 247 70 Q 232 55 229 49 Q 228 42 240 42 Q 286 46 356 126 Q 437 219 454 365 Q 458 404 463 451 L 465 486 Z" fill="black"></path>
				<path d="M 682 489 Q 698 492 894 510 Q 913 511 918 521 Q 922 533 905 545 Q 850 581 796 564 Q 769 558 465 486 C 436 479 433 456 463 451 Q 496 444 513 449 Q 564 467 622 477 L 682 489 Z" fill="red"></path>
				<path d="M 649 -32 Q 653 -59 661 -69 Q 667 -76 675 -74 Q 690 -65 697 -2 Q 704 61 703 123 Q 697 358 714 448 Q 718 467 703 476 Q 691 483 682 489 C 657 505 613 505 622 477 Q 638 432 643 384 Q 647 -30 649 -32 Z" fill="lightgray"></path>
</g>
		<text x="40" y="140" font-size="128" fill="#999999">6</text></g>
		<g id="id1:id1:id1" transform="matrix(1.0,0,0,1.0,1024,0.0)">			<g stroke="lightgray" stroke-width="4" transform="scale(4, 4)"> <rect x="0" y="0" width="256" height="256" fill="white" stroke-width="4"/></g>
			<g transform="scale(0.92, -0.92) translate(60, -920)">					<path d="M 217 724 Q 245 702 275 675 Q 291 662 308 664 Q 320 665 325 680 Q 329 696 317 729 Q 305 759 208 776 Q 190 779 184 775 Q 178 771 181 757 Q 185 744 217 724 Z" fill="black"></path>
				<path d="M 122 525 Q 173 477 211 463 Q 227 462 235 476 Q 239 489 236 507 Q 214 553 134 565 Q 133 566 131 566 Q 113 569 105 564 Q 98 563 102 550 Q 105 538 122 525 Z" fill="black"></path>
				<path d="M 122 186 Q 109 183 111 165 Q 123 89 160 67 Q 167 60 178 62 Q 185 63 187 90 Q 196 147 297 391 Q 304 407 303 414 Q 302 424 293 417 Q 275 405 163 227 Q 150 208 122 186 Z" fill="black"></path>
				<path d="M 475 631 Q 619 691 641 703 Q 686 725 725 736 Q 743 739 746 747 Q 749 757 735 769 Q 669 808 636 801 Q 629 797 629 785 Q 630 749 467 652 C 441 637 447 619 475 631 Z" fill="black"></path>
				<path d="M 465 486 Q 472 630 475 631 C 477 647 477 647 467 652 Q 463 656 457 658 Q 405 683 388 680 Q 366 676 384 652 Q 420 592 402 375 Q 395 309 365 233 Q 335 160 247 70 Q 232 55 229 49 Q 228 42 240 42 Q 286 46 356 126 Q 437 219 454 365 Q 458 404 463 451 L 465 486 Z" fill="black"></path>
				<path d="M 682 489 Q 698 492 894 510 Q 913 511 918 521 Q 922 533 905 545 Q 850 581 796 564 Q 769 558 465 486 C 436 479 433 456 463 451 Q 496 444 513 449 Q 564 467 622 477 L 682 489 Z" fill="black"></path>
				<path d="M 649 -32 Q 653 -59 661 -69 Q 667 -76 675 -74 Q 690 -65 697 -2 Q 704 61 703 123 Q 697 358 714 448 Q 718 467 703 476 Q 691 483 682 489 C 657 505 613 505 622 477 Q 638 432 643 384 Q 647 -30 649 -32 Z" fill="red"></path>
</g>
		<text x="40" y="140" font-size="128" fill="#999999">7</text></g>
		<g id="id1:id2:id2" transform="matrix(1.0,0,0,1.0,2048,0.0)">			<g stroke="white" stroke-width="4" transform="scale(4, 4)"> <rect x="1" y="1" width="255" height="255" fill="white" stroke-width="0"/></g>
</g>
		<g id="id1:id3:id3" transform="matrix(1.0,0,0,1.0,3072,0.0)">			<g stroke="white" stroke-width="4" transform="scale(4, 4)"> <rect x="1" y="1" width="255" height="255" fill="white" stroke-width="0"/></g>
</g>
		<g id="id1:id4:id4" transform="matrix(1.0,0,0,1.0,4096,0.0)">			<g stroke="white" stroke-width="4" transform="scale(4, 4)"> <rect x="1" y="1" width="255" height="255" fill="white" stroke-width="0"/></g>
</g>
</g>
</svg>
