<?xml version="1.0" standalone="no"?>
<!DOCTYPE svg PUBLIC "-//W3C//DTD SVG 1.1//EN"
 "http://www.w3.org/Graphics/SVG/1.1/DTD/svg11.dtd">
<!-- generate by Japanese dictionary app com.asnsami.kanjidictionary -->

<svg xmlns="http://www.w3.org/2000/svg" xmlns:sodipodi="http://sodipodi.sourceforge.net/DTD/sodipodi-0.dtd" version="1.1" width="640" height="256" viewBox="0 0 5120 2048">
	<g id="id0:id0" transform="translate(0.0,0)">
		<g id="id0:id0:id0" transform="matrix(1.0,0,0,1.0,0,0.0)">			<g stroke="lightgray" stroke-width="4" transform="scale(4, 4)"> <rect x="0" y="0" width="256" height="256" fill="white" stroke-width="4"/></g>
			<g transform="scale(0.92, -0.92) translate(60, -920)">					<path d="M 234 719 Q 262 694 293 663 Q 308 648 326 649 Q 339 649 344 665 Q 350 681 340 716 Q 328 750 229 774 Q 211 778 204 775 Q 198 771 200 756 Q 204 743 234 719 Z" fill="red"></path>
				<path d="M 144 512 Q 198 455 235 441 Q 250 438 259 453 Q 265 466 262 483 Q 247 525 158 551 Q 157 552 156 552 Q 138 556 129 552 Q 123 551 126 538 Q 127 526 144 512 Z" fill="lightgray"></path>
				<path d="M 138 178 Q 125 175 128 157 Q 140 79 176 59 Q 183 52 194 54 Q 201 55 203 82 Q 213 139 324 403 Q 331 419 331 426 Q 330 436 321 429 Q 305 420 183 224 Q 168 202 138 178 Z" fill="lightgray"></path>
				<path d="M 566 792 Q 602 731 587 467 Q 577 413 593 378 Q 594 375 596 371 Q 606 355 622 364 Q 634 374 635 454 Q 626 532 646 687 Q 647 715 666 753 Q 673 763 661 778 Q 603 823 573 812 Q 560 808 566 792 Z" fill="lightgray"></path>
				<path d="M 447 566 Q 425 508 393 455 Q 372 428 392 388 Q 401 372 421 384 Q 443 400 456 433 Q 474 473 474 509 Q 478 543 471 567 Q 465 576 460 576 Q 451 575 447 566 Z" fill="lightgray"></path>
				<path d="M 764 610 Q 821 576 890 525 Q 912 507 929 506 Q 939 506 945 519 Q 955 535 931 580 Q 913 620 834 634 Q 785 641 758 644 Q 748 648 748 634 Q 751 619 764 610 Z" fill="lightgray"></path>
				<path d="M 718 485 Q 718 305 523 123 Q 511 114 500 104 Q 442 49 302 -40 Q 292 -47 299 -52 Q 308 -56 321 -52 Q 526 17 634 162 Q 695 234 757 360 Q 776 397 802 433 Q 812 443 807 455 Q 800 467 768 490 Q 746 506 734 505 Q 718 502 718 485 Z" fill="lightgray"></path>
</g>
		<text x="40" y="140" font-size="128" fill="#999999">1</text></g>
		<g id="id0:id1:id1" transform="matrix(1.0,0,0,1.0,1024,0.0)">			<g stroke="lightgray" stroke-width="4" transform="scale(4, 4)"> <rect x="0" y="0" width="256" height="256" fill="white" stroke-width="4"/></g>
			<g transform="scale(0.92, -0.92) translate(60, -920)">					<path d="M 234 719 Q 262 694 293 663 Q 308 648 326 649 Q 339 649 344 665 Q 350 681 340 716 Q 328 750 229 774 Q 211 778 204 775 Q 198 771 200 756 Q 204 743 234 719 Z" fill="black"></path>
				<path d="M 144 512 Q 198 455 235 441 Q 250 438 259 453 Q 265 466 262 483 Q 247 525 158 551 Q 157 552 156 552 Q 138 556 129 552 Q 123 551 126 538 Q 127 526 144 512 Z" fill="red"></path>
				<path d="M 138 178 Q 125 175 128 157 Q 140 79 176 59 Q 183 52 194 54 Q 201 55 203 82 Q 213 139 324 403 Q 331 419 331 426 Q 330 436 321 429 Q 305 420 183 224 Q 168 202 138 178 Z" fill="lightgray"></path>
				<path d="M 566 792 Q 602 731 587 467 Q 577 413 593 378 Q 594 375 596 371 Q 606 355 622 364 Q 634 374 635 454 Q 626 532 646 687 Q 647 715 666 753 Q 673 763 661 778 Q 603 823 573 812 Q 560 808 566 792 Z" fill="lightgray"></path>
				<path d="M 447 566 Q 425 508 393 455 Q 372 428 392 388 Q 401 372 421 384 Q 443 400 456 433 Q 474 473 474 509 Q 478 543 471 567 Q 465 576 460 576 Q 451 575 447 566 Z" fill="lightgray"></path>
				<path d="M 764 610 Q 821 576 890 525 Q 912 507 929 506 Q 939 506 945 519 Q 955 535 931 580 Q 913 620 834 634 Q 785 641 758 644 Q 748 648 748 634 Q 751 619 764 610 Z" fill="lightgray"></path>
				<path d="M 718 485 Q 718 305 523 123 Q 511 114 500 104 Q 442 49 302 -40 Q 292 -47 299 -52 Q 308 -56 321 -52 Q 526 17 634 162 Q 695 234 757 360 Q 776 397 802 433 Q 812 443 807 455 Q 800 467 768 490 Q 746 506 734 505 Q 718 502 718 485 Z" fill="lightgray"></path>
</g>
		<text x="40" y="140" font-size="128" fill="#999999">2</text></g>
		<g id="id0:id2:id2" transform="matrix(1.0,0,0,1.0,2048,0.0)">			<g stroke="lightgray" stroke-width="4" transform="scale(4, 4)"> <rect x="0" y="0" width="256" height="256" fill="white" stroke-width="4"/></g>
			<g transform="scale(0.92, -0.92) translate(60, -920)">					<path d="M 234 719 Q 262 694 293 663 Q 308 648 326 649 Q 339 649 344 665 Q 350 681 340 716 Q 328 750 229 774 Q 211 778 204 775 Q 198 771 200 756 Q 204 743 234 719 Z" fill="black"></path>
				<path d="M 144 512 Q 198 455 235 441 Q 250 438 259 453 Q 265 466 262 483 Q 247 525 158 551 Q 157 552 156 552 Q 138 556 129 552 Q 123 551 126 538 Q 127 526 144 512 Z" fill="black"></path>
				<path d="M 138 178 Q 125 175 128 157 Q 140 79 176 59 Q 183 52 194 54 Q 201 55 203 82 Q 213 139 324 403 Q 331 419 331 426 Q 330 436 321 429 Q 305 420 183 224 Q 168 202 138 178 Z" fill="red"></path>
				<path d="M 566 792 Q 602 731 587 467 Q 577 413 593 378 Q 594 375 596 371 Q 606 355 622 364 Q 634 374 635 454 Q 626 532 646 687 Q 647 715 666 753 Q 673 763 661 778 Q 603 823 573 812 Q 560 808 566 792 Z" fill="lightgray"></path>
				<path d="M 447 566 Q 425 508 393 455 Q 372 428 392 388 Q 401 372 421 384 Q 443 400 456 433 Q 474 473 474 509 Q 478 543 471 567 Q 465 576 460 576 Q 451 575 447 566 Z" fill="lightgray"></path>
				<path d="M 764 610 Q 821 576 890 525 Q 912 507 929 506 Q 939 506 945 519 Q 955 535 931 580 Q 913 620 834 634 Q 785 641 758 644 Q 748 648 748 634 Q 751 619 764 610 Z" fill="lightgray"></path>
				<path d="M 718 485 Q 718 305 523 123 Q 511 114 500 104 Q 442 49 302 -40 Q 292 -47 299 -52 Q 308 -56 321 -52 Q 526 17 634 162 Q 695 234 757 360 Q 776 397 802 433 Q 812 443 807 455 Q 800 467 768 490 Q 746 506 734 505 Q 718 502 718 485 Z" fill="lightgray"></path>
</g>
		<text x="40" y="140" font-size="128" fill="#999999">3</text></g>
		<g id="id0:id3:id3" transform="matrix(1.0,0,0,1.0,3072,0.0)">			<g stroke="lightgray" stroke-width="4" transform="scale(4, 4)"> <rect x="0" y="0" width="256" height="256" fill="white" stroke-width="4"/></g>
			<g transform="scale(0.92, -0.92) translate(60, -920)">					<path d="M 234 719 Q 262 694 293 663 Q 308 648 326 649 Q 339 649 344 665 Q 350 681 340 716 Q 328 750 229 774 Q 211 778 204 775 Q 198 771 200 756 Q 204 743 234 719 Z" fill="black"></path>
				<path d="M 144 512 Q 198 455 235 441 Q 250 438 259 453 Q 265 466 262 483 Q 247 525 158 551 Q 157 552 156 552 Q 138 556 129 552 Q 123 551 126 538 Q 127 526 144 512 Z" fill="black"></path>
				<path d="M 138 178 Q 125 175 128 157 Q 140 79 176 59 Q 183 52 194 54 Q 201 55 203 82 Q 213 139 324 403 Q 331 419 331 426 Q 330 436 321 429 Q 305 420 183 224 Q 168 202 138 178 Z" fill="black"></path>
				<path d="M 566 792 Q 602 731 587 467 Q 577 413 593 378 Q 594 375 596 371 Q 606 355 622 364 Q 634 374 635 454 Q 626 532 646 687 Q 647 715 666 753 Q 673 763 661 778 Q 603 823 573 812 Q 560 808 566 792 Z" fill="red"></path>
				<path d="M 447 566 Q 425 508 393 455 Q 372 428 392 388 Q 401 372 421 384 Q 443 400 456 433 Q 474 473 474 509 Q 478 543 471 567 Q 465 576 460 576 Q 451 575 447 566 Z" fill="lightgray"></path>
				<path d="M 764 610 Q 821 576 890 525 Q 912 507 929 506 Q 939 506 945 519 Q 955 535 931 580 Q 913 620 834 634 Q 785 641 758 644 Q 748 648 748 634 Q 751 619 764 610 Z" fill="lightgray"></path>
				<path d="M 718 485 Q 718 305 523 123 Q 511 114 500 104 Q 442 49 302 -40 Q 292 -47 299 -52 Q 308 -56 321 -52 Q 526 17 634 162 Q 695 234 757 360 Q 776 397 802 433 Q 812 443 807 455 Q 800 467 768 490 Q 746 506 734 505 Q 718 502 718 485 Z" fill="lightgray"></path>
</g>
		<text x="40" y="140" font-size="128" fill="#999999">4</text></g>
		<g id="id0:id4:id4" transform="matrix(1.0,0,0,1.0,4096,0.0)">			<g stroke="lightgray" stroke-width="4" transform="scale(4, 4)"> <rect x="0" y="0" width="256" height="256" fill="white" stroke-width="4"/></g>
			<g transform="scale(0.92, -0.92) translate(60, -920)">					<path d="M 234 719 Q 262 694 293 663 Q 308 648 326 649 Q 339 649 344 665 Q 350 681 340 716 Q 328 750 229 774 Q 211 778 204 775 Q 198 771 200 756 Q 204 743 234 719 Z" fill="black"></path>
				<path d="M 144 512 Q 198 455 235 441 Q 250 438 259 453 Q 265 466 262 483 Q 247 525 158 551 Q 157 552 156 552 Q 138 556 129 552 Q 123 551 126 538 Q 127 526 144 512 Z" fill="black"></path>
				<path d="M 138 178 Q 125 175 128 157 Q 140 79 176 59 Q 183 52 194 54 Q 201 55 203 82 Q 213 139 324 403 Q 331 419 331 426 Q 330 436 321 429 Q 305 420 183 224 Q 168 202 138 178 Z" fill="black"></path>
				<path d="M 566 792 Q 602 731 587 467 Q 577 413 593 378 Q 594 375 596 371 Q 606 355 622 364 Q 634 374 635 454 Q 626 532 646 687 Q 647 715 666 753 Q 673 763 661 778 Q 603 823 573 812 Q 560 808 566 792 Z" fill="black"></path>
				<path d="M 447 566 Q 425 508 393 455 Q 372 428 392 388 Q 401 372 421 384 Q 443 400 456 433 Q 474 473 474 509 Q 478 543 471 567 Q 465 576 460 576 Q 451 575 447 566 Z" fill="red"></path>
				<path d="M 764 610 Q 821 576 890 525 Q 912 507 929 506 Q 939 506 945 519 Q 955 535 931 580 Q 913 620 834 634 Q 785 641 758 644 Q 748 648 748 634 Q 751 619 764 610 Z" fill="lightgray"></path>
				<path d="M 718 485 Q 718 305 523 123 Q 511 114 500 104 Q 442 49 302 -40 Q 292 -47 299 -52 Q 308 -56 321 -52 Q 526 17 634 162 Q 695 234 757 360 Q 776 397 802 433 Q 812 443 807 455 Q 800 467 768 490 Q 746 506 734 505 Q 718 502 718 485 Z" fill="lightgray"></path>
</g>
		<text x="40" y="140" font-size="128" fill="#999999">5</text></g>
</g>
	<g id="id1:id1" transform="translate(0.0,1024)">
		<g id="id1:id0:id0" transform="matrix(1.0,0,0,1.0,0,0.0)">			<g stroke="lightgray" stroke-width="4" transform="scale(4, 4)"> <rect x="0" y="0" width="256" height="256" fill="white" stroke-width="4"/></g>
			<g transform="scale(0.92, -0.92) translate(60, -920)">					<path d="M 234 719 Q 262 694 293 663 Q 308 648 326 649 Q 339 649 344 665 Q 350 681 340 716 Q 328 750 229 774 Q 211 778 204 775 Q 198 771 200 756 Q 204 743 234 719 Z" fill="black"></path>
				<path d="M 144 512 Q 198 455 235 441 Q 250 438 259 453 Q 265 466 262 483 Q 247 525 158 551 Q 157 552 156 552 Q 138 556 129 552 Q 123 551 126 538 Q 127 526 144 512 Z" fill="black"></path>
				<path d="M 138 178 Q 125 175 128 157 Q 140 79 176 59 Q 183 52 194 54 Q 201 55 203 82 Q 213 139 324 403 Q 331 419 331 426 Q 330 436 321 429 Q 305 420 183 224 Q 168 202 138 178 Z" fill="black"></path>
				<path d="M 566 792 Q 602 731 587 467 Q 577 413 593 378 Q 594 375 596 371 Q 606 355 622 364 Q 634 374 635 454 Q 626 532 646 687 Q 647 715 666 753 Q 673 763 661 778 Q 603 823 573 812 Q 560 808 566 792 Z" fill="black"></path>
				<path d="M 447 566 Q 425 508 393 455 Q 372 428 392 388 Q 401 372 421 384 Q 443 400 456 433 Q 474 473 474 509 Q 478 543 471 567 Q 465 576 460 576 Q 451 575 447 566 Z" fill="black"></path>
				<path d="M 764 610 Q 821 576 890 525 Q 912 507 929 506 Q 939 506 945 519 Q 955 535 931 580 Q 913 620 834 634 Q 785 641 758 644 Q 748 648 748 634 Q 751 619 764 610 Z" fill="red"></path>
				<path d="M 718 485 Q 718 305 523 123 Q 511 114 500 104 Q 442 49 302 -40 Q 292 -47 299 -52 Q 308 -56 321 -52 Q 526 17 634 162 Q 695 234 757 360 Q 776 397 802 433 Q 812 443 807 455 Q 800 467 768 490 Q 746 506 734 505 Q 718 502 718 485 Z" fill="lightgray"></path>
</g>
		<text x="40" y="140" font-size="128" fill="#999999">6</text></g>
		<g id="id1:id1:id1" transform="matrix(1.0,0,0,1.0,1024,0.0)">			<g stroke="lightgray" stroke-width="4" transform="scale(4, 4)"> <rect x="0" y="0" width="256" height="256" fill="white" stroke-width="4"/></g>
			<g transform="scale(0.92, -0.92) translate(60, -920)">					<path d="M 234 719 Q 262 694 293 663 Q 308 648 326 649 Q 339 649 344 665 Q 350 681 340 716 Q 328 750 229 774 Q 211 778 204 775 Q 198 771 200 756 Q 204 743 234 719 Z" fill="black"></path>
				<path d="M 144 512 Q 198 455 235 441 Q 250 438 259 453 Q 265 466 262 483 Q 247 525 158 551 Q 157 552 156 552 Q 138 556 129 552 Q 123 551 126 538 Q 127 526 144 512 Z" fill="black"></path>
				<path d="M 138 178 Q 125 175 128 157 Q 140 79 176 59 Q 183 52 194 54 Q 201 55 203 82 Q 213 139 324 403 Q 331 419 331 426 Q 330 436 321 429 Q 305 420 183 224 Q 168 202 138 178 Z" fill="black"></path>
				<path d="M 566 792 Q 602 731 587 467 Q 577 413 593 378 Q 594 375 596 371 Q 606 355 622 364 Q 634 374 635 454 Q 626 532 646 687 Q 647 715 666 753 Q 673 763 661 778 Q 603 823 573 812 Q 560 808 566 792 Z" fill="black"></path>
				<path d="M 447 566 Q 425 508 393 455 Q 372 428 392 388 Q 401 372 421 384 Q 443 400 456 433 Q 474 473 474 509 Q 478 543 471 567 Q 465 576 460 576 Q 451 575 447 566 Z" fill="black"></path>
				<path d="M 764 610 Q 821 576 890 525 Q 912 507 929 506 Q 939 506 945 519 Q 955 535 931 580 Q 913 620 834 634 Q 785 641 758 644 Q 748 648 748 634 Q 751 619 764 610 Z" fill="black"></path>
				<path d="M 718 485 Q 718 305 523 123 Q 511 114 500 104 Q 442 49 302 -40 Q 292 -47 299 -52 Q 308 -56 321 -52 Q 526 17 634 162 Q 695 234 757 360 Q 776 397 802 433 Q 812 443 807 455 Q 800 467 768 490 Q 746 506 734 505 Q 718 502 718 485 Z" fill="red"></path>
</g>
		<text x="40" y="140" font-size="128" fill="#999999">7</text></g>
		<g id="id1:id2:id2" transform="matrix(1.0,0,0,1.0,2048,0.0)">			<g stroke="white" stroke-width="4" transform="scale(4, 4)"> <rect x="1" y="1" width="255" height="255" fill="white" stroke-width="0"/></g>
</g>
		<g id="id1:id3:id3" transform="matrix(1.0,0,0,1.0,3072,0.0)">			<g stroke="white" stroke-width="4" transform="scale(4, 4)"> <rect x="1" y="1" width="255" height="255" fill="white" stroke-width="0"/></g>
</g>
		<g id="id1:id4:id4" transform="matrix(1.0,0,0,1.0,4096,0.0)">			<g stroke="white" stroke-width="4" transform="scale(4, 4)"> <rect x="1" y="1" width="255" height="255" fill="white" stroke-width="0"/></g>
</g>
</g>
</svg>
