<?xml version="1.0" standalone="no"?>
<!DOCTYPE svg PUBLIC "-//W3C//DTD SVG 1.1//EN"
 "http://www.w3.org/Graphics/SVG/1.1/DTD/svg11.dtd">
<!-- generate by Japanese dictionary app com.asnsami.kanjidictionary -->

<svg xmlns="http://www.w3.org/2000/svg" xmlns:sodipodi="http://sodipodi.sourceforge.net/DTD/sodipodi-0.dtd" version="1.1" width="640" height="256" viewBox="0 0 5120 2048">
	<g id="id0:id0" transform="translate(0.0,0)">
		<g id="id0:id0:id0" transform="matrix(1.0,0,0,1.0,0,0.0)">			<g stroke="lightgray" stroke-width="4" transform="scale(4, 4)"> <rect x="0" y="0" width="256" height="256" fill="white" stroke-width="4"/></g>
			<g transform="scale(0.92, -0.92) translate(60, -920)">					<path d="M 222 717 Q 250 693 281 665 Q 296 652 313 653 Q 323 654 329 668 Q 333 684 323 715 Q 311 746 215 767 Q 199 770 192 767 Q 186 763 189 749 Q 193 739 222 717 Z" fill="red"></path>
				<path d="M 126 499 Q 168 447 202 431 Q 217 427 227 441 Q 234 454 231 471 Q 225 496 208 509 Q 160 542 122 542 Q 116 542 113 540 Q 107 539 109 526 Q 110 514 126 499 Z" fill="lightgray"></path>
				<path d="M 125 146 Q 113 142 115 124 Q 127 49 164 27 Q 171 20 182 23 Q 189 24 191 50 Q 200 101 297 347 Q 304 363 303 370 Q 302 380 293 373 Q 283 366 270 349 Q 215 262 165 187 Q 153 166 125 146 Z" fill="lightgray"></path>
				<path d="M 571 790 Q 602 765 637 736 Q 653 723 669 725 Q 679 726 685 740 Q 689 756 677 787 Q 665 820 563 840 Q 547 843 540 839 Q 534 835 537 821 Q 541 811 571 790 Z" fill="lightgray"></path>
				<path d="M 433 625 Q 433 626 433 627 Q 421 651 410 659 Q 391 674 389 648 Q 395 611 335 546 Q 314 522 343 467 Q 358 440 378 468 Q 394 492 406 528 Q 421 571 431 597 L 433 625 Z" fill="lightgray"></path>
				<path d="M 431 597 Q 452 587 494 594 Q 614 634 764 647 Q 774 648 781 647 Q 799 634 796 626 Q 796 623 772 550 Q 766 537 773 533 Q 780 530 795 542 Q 844 584 886 601 Q 920 616 919 624 Q 918 634 847 679 Q 826 694 736 675 Q 679 669 513 637 Q 473 630 433 625 C 403 621 402 605 431 597 Z" fill="lightgray"></path>
				<path d="M 624 400 Q 691 410 796 412 Q 847 412 853 422 Q 857 434 841 446 Q 784 485 718 463 Q 613 439 391 402 Q 372 399 387 383 Q 400 370 418 366 Q 439 362 454 366 Q 511 384 575 392 L 624 400 Z" fill="lightgray"></path>
				<path d="M 561 69 Q 525 76 490 83 Q 478 86 479 78 Q 480 71 491 64 Q 567 3 595 -34 Q 610 -50 625 -37 Q 659 -1 658 68 Q 655 95 651 266 Q 650 315 663 347 Q 672 366 655 379 Q 640 392 624 400 C 598 415 557 416 575 392 Q 600 367 599 306 Q 603 171 598 101 Q 597 80 585 72 Q 576 65 561 69 Z" fill="lightgray"></path>
</g>
		<text x="40" y="140" font-size="128" fill="#999999">1</text></g>
		<g id="id0:id1:id1" transform="matrix(1.0,0,0,1.0,1024,0.0)">			<g stroke="lightgray" stroke-width="4" transform="scale(4, 4)"> <rect x="0" y="0" width="256" height="256" fill="white" stroke-width="4"/></g>
			<g transform="scale(0.92, -0.92) translate(60, -920)">					<path d="M 222 717 Q 250 693 281 665 Q 296 652 313 653 Q 323 654 329 668 Q 333 684 323 715 Q 311 746 215 767 Q 199 770 192 767 Q 186 763 189 749 Q 193 739 222 717 Z" fill="black"></path>
				<path d="M 126 499 Q 168 447 202 431 Q 217 427 227 441 Q 234 454 231 471 Q 225 496 208 509 Q 160 542 122 542 Q 116 542 113 540 Q 107 539 109 526 Q 110 514 126 499 Z" fill="red"></path>
				<path d="M 125 146 Q 113 142 115 124 Q 127 49 164 27 Q 171 20 182 23 Q 189 24 191 50 Q 200 101 297 347 Q 304 363 303 370 Q 302 380 293 373 Q 283 366 270 349 Q 215 262 165 187 Q 153 166 125 146 Z" fill="lightgray"></path>
				<path d="M 571 790 Q 602 765 637 736 Q 653 723 669 725 Q 679 726 685 740 Q 689 756 677 787 Q 665 820 563 840 Q 547 843 540 839 Q 534 835 537 821 Q 541 811 571 790 Z" fill="lightgray"></path>
				<path d="M 433 625 Q 433 626 433 627 Q 421 651 410 659 Q 391 674 389 648 Q 395 611 335 546 Q 314 522 343 467 Q 358 440 378 468 Q 394 492 406 528 Q 421 571 431 597 L 433 625 Z" fill="lightgray"></path>
				<path d="M 431 597 Q 452 587 494 594 Q 614 634 764 647 Q 774 648 781 647 Q 799 634 796 626 Q 796 623 772 550 Q 766 537 773 533 Q 780 530 795 542 Q 844 584 886 601 Q 920 616 919 624 Q 918 634 847 679 Q 826 694 736 675 Q 679 669 513 637 Q 473 630 433 625 C 403 621 402 605 431 597 Z" fill="lightgray"></path>
				<path d="M 624 400 Q 691 410 796 412 Q 847 412 853 422 Q 857 434 841 446 Q 784 485 718 463 Q 613 439 391 402 Q 372 399 387 383 Q 400 370 418 366 Q 439 362 454 366 Q 511 384 575 392 L 624 400 Z" fill="lightgray"></path>
				<path d="M 561 69 Q 525 76 490 83 Q 478 86 479 78 Q 480 71 491 64 Q 567 3 595 -34 Q 610 -50 625 -37 Q 659 -1 658 68 Q 655 95 651 266 Q 650 315 663 347 Q 672 366 655 379 Q 640 392 624 400 C 598 415 557 416 575 392 Q 600 367 599 306 Q 603 171 598 101 Q 597 80 585 72 Q 576 65 561 69 Z" fill="lightgray"></path>
</g>
		<text x="40" y="140" font-size="128" fill="#999999">2</text></g>
		<g id="id0:id2:id2" transform="matrix(1.0,0,0,1.0,2048,0.0)">			<g stroke="lightgray" stroke-width="4" transform="scale(4, 4)"> <rect x="0" y="0" width="256" height="256" fill="white" stroke-width="4"/></g>
			<g transform="scale(0.92, -0.92) translate(60, -920)">					<path d="M 222 717 Q 250 693 281 665 Q 296 652 313 653 Q 323 654 329 668 Q 333 684 323 715 Q 311 746 215 767 Q 199 770 192 767 Q 186 763 189 749 Q 193 739 222 717 Z" fill="black"></path>
				<path d="M 126 499 Q 168 447 202 431 Q 217 427 227 441 Q 234 454 231 471 Q 225 496 208 509 Q 160 542 122 542 Q 116 542 113 540 Q 107 539 109 526 Q 110 514 126 499 Z" fill="black"></path>
				<path d="M 125 146 Q 113 142 115 124 Q 127 49 164 27 Q 171 20 182 23 Q 189 24 191 50 Q 200 101 297 347 Q 304 363 303 370 Q 302 380 293 373 Q 283 366 270 349 Q 215 262 165 187 Q 153 166 125 146 Z" fill="red"></path>
				<path d="M 571 790 Q 602 765 637 736 Q 653 723 669 725 Q 679 726 685 740 Q 689 756 677 787 Q 665 820 563 840 Q 547 843 540 839 Q 534 835 537 821 Q 541 811 571 790 Z" fill="lightgray"></path>
				<path d="M 433 625 Q 433 626 433 627 Q 421 651 410 659 Q 391 674 389 648 Q 395 611 335 546 Q 314 522 343 467 Q 358 440 378 468 Q 394 492 406 528 Q 421 571 431 597 L 433 625 Z" fill="lightgray"></path>
				<path d="M 431 597 Q 452 587 494 594 Q 614 634 764 647 Q 774 648 781 647 Q 799 634 796 626 Q 796 623 772 550 Q 766 537 773 533 Q 780 530 795 542 Q 844 584 886 601 Q 920 616 919 624 Q 918 634 847 679 Q 826 694 736 675 Q 679 669 513 637 Q 473 630 433 625 C 403 621 402 605 431 597 Z" fill="lightgray"></path>
				<path d="M 624 400 Q 691 410 796 412 Q 847 412 853 422 Q 857 434 841 446 Q 784 485 718 463 Q 613 439 391 402 Q 372 399 387 383 Q 400 370 418 366 Q 439 362 454 366 Q 511 384 575 392 L 624 400 Z" fill="lightgray"></path>
				<path d="M 561 69 Q 525 76 490 83 Q 478 86 479 78 Q 480 71 491 64 Q 567 3 595 -34 Q 610 -50 625 -37 Q 659 -1 658 68 Q 655 95 651 266 Q 650 315 663 347 Q 672 366 655 379 Q 640 392 624 400 C 598 415 557 416 575 392 Q 600 367 599 306 Q 603 171 598 101 Q 597 80 585 72 Q 576 65 561 69 Z" fill="lightgray"></path>
</g>
		<text x="40" y="140" font-size="128" fill="#999999">3</text></g>
		<g id="id0:id3:id3" transform="matrix(1.0,0,0,1.0,3072,0.0)">			<g stroke="lightgray" stroke-width="4" transform="scale(4, 4)"> <rect x="0" y="0" width="256" height="256" fill="white" stroke-width="4"/></g>
			<g transform="scale(0.92, -0.92) translate(60, -920)">					<path d="M 222 717 Q 250 693 281 665 Q 296 652 313 653 Q 323 654 329 668 Q 333 684 323 715 Q 311 746 215 767 Q 199 770 192 767 Q 186 763 189 749 Q 193 739 222 717 Z" fill="black"></path>
				<path d="M 126 499 Q 168 447 202 431 Q 217 427 227 441 Q 234 454 231 471 Q 225 496 208 509 Q 160 542 122 542 Q 116 542 113 540 Q 107 539 109 526 Q 110 514 126 499 Z" fill="black"></path>
				<path d="M 125 146 Q 113 142 115 124 Q 127 49 164 27 Q 171 20 182 23 Q 189 24 191 50 Q 200 101 297 347 Q 304 363 303 370 Q 302 380 293 373 Q 283 366 270 349 Q 215 262 165 187 Q 153 166 125 146 Z" fill="black"></path>
				<path d="M 571 790 Q 602 765 637 736 Q 653 723 669 725 Q 679 726 685 740 Q 689 756 677 787 Q 665 820 563 840 Q 547 843 540 839 Q 534 835 537 821 Q 541 811 571 790 Z" fill="red"></path>
				<path d="M 433 625 Q 433 626 433 627 Q 421 651 410 659 Q 391 674 389 648 Q 395 611 335 546 Q 314 522 343 467 Q 358 440 378 468 Q 394 492 406 528 Q 421 571 431 597 L 433 625 Z" fill="lightgray"></path>
				<path d="M 431 597 Q 452 587 494 594 Q 614 634 764 647 Q 774 648 781 647 Q 799 634 796 626 Q 796 623 772 550 Q 766 537 773 533 Q 780 530 795 542 Q 844 584 886 601 Q 920 616 919 624 Q 918 634 847 679 Q 826 694 736 675 Q 679 669 513 637 Q 473 630 433 625 C 403 621 402 605 431 597 Z" fill="lightgray"></path>
				<path d="M 624 400 Q 691 410 796 412 Q 847 412 853 422 Q 857 434 841 446 Q 784 485 718 463 Q 613 439 391 402 Q 372 399 387 383 Q 400 370 418 366 Q 439 362 454 366 Q 511 384 575 392 L 624 400 Z" fill="lightgray"></path>
				<path d="M 561 69 Q 525 76 490 83 Q 478 86 479 78 Q 480 71 491 64 Q 567 3 595 -34 Q 610 -50 625 -37 Q 659 -1 658 68 Q 655 95 651 266 Q 650 315 663 347 Q 672 366 655 379 Q 640 392 624 400 C 598 415 557 416 575 392 Q 600 367 599 306 Q 603 171 598 101 Q 597 80 585 72 Q 576 65 561 69 Z" fill="lightgray"></path>
</g>
		<text x="40" y="140" font-size="128" fill="#999999">4</text></g>
		<g id="id0:id4:id4" transform="matrix(1.0,0,0,1.0,4096,0.0)">			<g stroke="lightgray" stroke-width="4" transform="scale(4, 4)"> <rect x="0" y="0" width="256" height="256" fill="white" stroke-width="4"/></g>
			<g transform="scale(0.92, -0.92) translate(60, -920)">					<path d="M 222 717 Q 250 693 281 665 Q 296 652 313 653 Q 323 654 329 668 Q 333 684 323 715 Q 311 746 215 767 Q 199 770 192 767 Q 186 763 189 749 Q 193 739 222 717 Z" fill="black"></path>
				<path d="M 126 499 Q 168 447 202 431 Q 217 427 227 441 Q 234 454 231 471 Q 225 496 208 509 Q 160 542 122 542 Q 116 542 113 540 Q 107 539 109 526 Q 110 514 126 499 Z" fill="black"></path>
				<path d="M 125 146 Q 113 142 115 124 Q 127 49 164 27 Q 171 20 182 23 Q 189 24 191 50 Q 200 101 297 347 Q 304 363 303 370 Q 302 380 293 373 Q 283 366 270 349 Q 215 262 165 187 Q 153 166 125 146 Z" fill="black"></path>
				<path d="M 571 790 Q 602 765 637 736 Q 653 723 669 725 Q 679 726 685 740 Q 689 756 677 787 Q 665 820 563 840 Q 547 843 540 839 Q 534 835 537 821 Q 541 811 571 790 Z" fill="black"></path>
				<path d="M 433 625 Q 433 626 433 627 Q 421 651 410 659 Q 391 674 389 648 Q 395 611 335 546 Q 314 522 343 467 Q 358 440 378 468 Q 394 492 406 528 Q 421 571 431 597 L 433 625 Z" fill="red"></path>
				<path d="M 431 597 Q 452 587 494 594 Q 614 634 764 647 Q 774 648 781 647 Q 799 634 796 626 Q 796 623 772 550 Q 766 537 773 533 Q 780 530 795 542 Q 844 584 886 601 Q 920 616 919 624 Q 918 634 847 679 Q 826 694 736 675 Q 679 669 513 637 Q 473 630 433 625 C 403 621 402 605 431 597 Z" fill="lightgray"></path>
				<path d="M 624 400 Q 691 410 796 412 Q 847 412 853 422 Q 857 434 841 446 Q 784 485 718 463 Q 613 439 391 402 Q 372 399 387 383 Q 400 370 418 366 Q 439 362 454 366 Q 511 384 575 392 L 624 400 Z" fill="lightgray"></path>
				<path d="M 561 69 Q 525 76 490 83 Q 478 86 479 78 Q 480 71 491 64 Q 567 3 595 -34 Q 610 -50 625 -37 Q 659 -1 658 68 Q 655 95 651 266 Q 650 315 663 347 Q 672 366 655 379 Q 640 392 624 400 C 598 415 557 416 575 392 Q 600 367 599 306 Q 603 171 598 101 Q 597 80 585 72 Q 576 65 561 69 Z" fill="lightgray"></path>
</g>
		<text x="40" y="140" font-size="128" fill="#999999">5</text></g>
</g>
	<g id="id1:id1" transform="translate(0.0,1024)">
		<g id="id1:id0:id0" transform="matrix(1.0,0,0,1.0,0,0.0)">			<g stroke="lightgray" stroke-width="4" transform="scale(4, 4)"> <rect x="0" y="0" width="256" height="256" fill="white" stroke-width="4"/></g>
			<g transform="scale(0.92, -0.92) translate(60, -920)">					<path d="M 222 717 Q 250 693 281 665 Q 296 652 313 653 Q 323 654 329 668 Q 333 684 323 715 Q 311 746 215 767 Q 199 770 192 767 Q 186 763 189 749 Q 193 739 222 717 Z" fill="black"></path>
				<path d="M 126 499 Q 168 447 202 431 Q 217 427 227 441 Q 234 454 231 471 Q 225 496 208 509 Q 160 542 122 542 Q 116 542 113 540 Q 107 539 109 526 Q 110 514 126 499 Z" fill="black"></path>
				<path d="M 125 146 Q 113 142 115 124 Q 127 49 164 27 Q 171 20 182 23 Q 189 24 191 50 Q 200 101 297 347 Q 304 363 303 370 Q 302 380 293 373 Q 283 366 270 349 Q 215 262 165 187 Q 153 166 125 146 Z" fill="black"></path>
				<path d="M 571 790 Q 602 765 637 736 Q 653 723 669 725 Q 679 726 685 740 Q 689 756 677 787 Q 665 820 563 840 Q 547 843 540 839 Q 534 835 537 821 Q 541 811 571 790 Z" fill="black"></path>
				<path d="M 433 625 Q 433 626 433 627 Q 421 651 410 659 Q 391 674 389 648 Q 395 611 335 546 Q 314 522 343 467 Q 358 440 378 468 Q 394 492 406 528 Q 421 571 431 597 L 433 625 Z" fill="black"></path>
				<path d="M 431 597 Q 452 587 494 594 Q 614 634 764 647 Q 774 648 781 647 Q 799 634 796 626 Q 796 623 772 550 Q 766 537 773 533 Q 780 530 795 542 Q 844 584 886 601 Q 920 616 919 624 Q 918 634 847 679 Q 826 694 736 675 Q 679 669 513 637 Q 473 630 433 625 C 403 621 402 605 431 597 Z" fill="red"></path>
				<path d="M 624 400 Q 691 410 796 412 Q 847 412 853 422 Q 857 434 841 446 Q 784 485 718 463 Q 613 439 391 402 Q 372 399 387 383 Q 400 370 418 366 Q 439 362 454 366 Q 511 384 575 392 L 624 400 Z" fill="lightgray"></path>
				<path d="M 561 69 Q 525 76 490 83 Q 478 86 479 78 Q 480 71 491 64 Q 567 3 595 -34 Q 610 -50 625 -37 Q 659 -1 658 68 Q 655 95 651 266 Q 650 315 663 347 Q 672 366 655 379 Q 640 392 624 400 C 598 415 557 416 575 392 Q 600 367 599 306 Q 603 171 598 101 Q 597 80 585 72 Q 576 65 561 69 Z" fill="lightgray"></path>
</g>
		<text x="40" y="140" font-size="128" fill="#999999">6</text></g>
		<g id="id1:id1:id1" transform="matrix(1.0,0,0,1.0,1024,0.0)">			<g stroke="lightgray" stroke-width="4" transform="scale(4, 4)"> <rect x="0" y="0" width="256" height="256" fill="white" stroke-width="4"/></g>
			<g transform="scale(0.92, -0.92) translate(60, -920)">					<path d="M 222 717 Q 250 693 281 665 Q 296 652 313 653 Q 323 654 329 668 Q 333 684 323 715 Q 311 746 215 767 Q 199 770 192 767 Q 186 763 189 749 Q 193 739 222 717 Z" fill="black"></path>
				<path d="M 126 499 Q 168 447 202 431 Q 217 427 227 441 Q 234 454 231 471 Q 225 496 208 509 Q 160 542 122 542 Q 116 542 113 540 Q 107 539 109 526 Q 110 514 126 499 Z" fill="black"></path>
				<path d="M 125 146 Q 113 142 115 124 Q 127 49 164 27 Q 171 20 182 23 Q 189 24 191 50 Q 200 101 297 347 Q 304 363 303 370 Q 302 380 293 373 Q 283 366 270 349 Q 215 262 165 187 Q 153 166 125 146 Z" fill="black"></path>
				<path d="M 571 790 Q 602 765 637 736 Q 653 723 669 725 Q 679 726 685 740 Q 689 756 677 787 Q 665 820 563 840 Q 547 843 540 839 Q 534 835 537 821 Q 541 811 571 790 Z" fill="black"></path>
				<path d="M 433 625 Q 433 626 433 627 Q 421 651 410 659 Q 391 674 389 648 Q 395 611 335 546 Q 314 522 343 467 Q 358 440 378 468 Q 394 492 406 528 Q 421 571 431 597 L 433 625 Z" fill="black"></path>
				<path d="M 431 597 Q 452 587 494 594 Q 614 634 764 647 Q 774 648 781 647 Q 799 634 796 626 Q 796 623 772 550 Q 766 537 773 533 Q 780 530 795 542 Q 844 584 886 601 Q 920 616 919 624 Q 918 634 847 679 Q 826 694 736 675 Q 679 669 513 637 Q 473 630 433 625 C 403 621 402 605 431 597 Z" fill="black"></path>
				<path d="M 624 400 Q 691 410 796 412 Q 847 412 853 422 Q 857 434 841 446 Q 784 485 718 463 Q 613 439 391 402 Q 372 399 387 383 Q 400 370 418 366 Q 439 362 454 366 Q 511 384 575 392 L 624 400 Z" fill="red"></path>
				<path d="M 561 69 Q 525 76 490 83 Q 478 86 479 78 Q 480 71 491 64 Q 567 3 595 -34 Q 610 -50 625 -37 Q 659 -1 658 68 Q 655 95 651 266 Q 650 315 663 347 Q 672 366 655 379 Q 640 392 624 400 C 598 415 557 416 575 392 Q 600 367 599 306 Q 603 171 598 101 Q 597 80 585 72 Q 576 65 561 69 Z" fill="lightgray"></path>
</g>
		<text x="40" y="140" font-size="128" fill="#999999">7</text></g>
		<g id="id1:id2:id2" transform="matrix(1.0,0,0,1.0,2048,0.0)">			<g stroke="lightgray" stroke-width="4" transform="scale(4, 4)"> <rect x="0" y="0" width="256" height="256" fill="white" stroke-width="4"/></g>
			<g transform="scale(0.92, -0.92) translate(60, -920)">					<path d="M 222 717 Q 250 693 281 665 Q 296 652 313 653 Q 323 654 329 668 Q 333 684 323 715 Q 311 746 215 767 Q 199 770 192 767 Q 186 763 189 749 Q 193 739 222 717 Z" fill="black"></path>
				<path d="M 126 499 Q 168 447 202 431 Q 217 427 227 441 Q 234 454 231 471 Q 225 496 208 509 Q 160 542 122 542 Q 116 542 113 540 Q 107 539 109 526 Q 110 514 126 499 Z" fill="black"></path>
				<path d="M 125 146 Q 113 142 115 124 Q 127 49 164 27 Q 171 20 182 23 Q 189 24 191 50 Q 200 101 297 347 Q 304 363 303 370 Q 302 380 293 373 Q 283 366 270 349 Q 215 262 165 187 Q 153 166 125 146 Z" fill="black"></path>
				<path d="M 571 790 Q 602 765 637 736 Q 653 723 669 725 Q 679 726 685 740 Q 689 756 677 787 Q 665 820 563 840 Q 547 843 540 839 Q 534 835 537 821 Q 541 811 571 790 Z" fill="black"></path>
				<path d="M 433 625 Q 433 626 433 627 Q 421 651 410 659 Q 391 674 389 648 Q 395 611 335 546 Q 314 522 343 467 Q 358 440 378 468 Q 394 492 406 528 Q 421 571 431 597 L 433 625 Z" fill="black"></path>
				<path d="M 431 597 Q 452 587 494 594 Q 614 634 764 647 Q 774 648 781 647 Q 799 634 796 626 Q 796 623 772 550 Q 766 537 773 533 Q 780 530 795 542 Q 844 584 886 601 Q 920 616 919 624 Q 918 634 847 679 Q 826 694 736 675 Q 679 669 513 637 Q 473 630 433 625 C 403 621 402 605 431 597 Z" fill="black"></path>
				<path d="M 624 400 Q 691 410 796 412 Q 847 412 853 422 Q 857 434 841 446 Q 784 485 718 463 Q 613 439 391 402 Q 372 399 387 383 Q 400 370 418 366 Q 439 362 454 366 Q 511 384 575 392 L 624 400 Z" fill="black"></path>
				<path d="M 561 69 Q 525 76 490 83 Q 478 86 479 78 Q 480 71 491 64 Q 567 3 595 -34 Q 610 -50 625 -37 Q 659 -1 658 68 Q 655 95 651 266 Q 650 315 663 347 Q 672 366 655 379 Q 640 392 624 400 C 598 415 557 416 575 392 Q 600 367 599 306 Q 603 171 598 101 Q 597 80 585 72 Q 576 65 561 69 Z" fill="red"></path>
</g>
		<text x="40" y="140" font-size="128" fill="#999999">8</text></g>
		<g id="id1:id3:id3" transform="matrix(1.0,0,0,1.0,3072,0.0)">			<g stroke="white" stroke-width="4" transform="scale(4, 4)"> <rect x="1" y="1" width="255" height="255" fill="white" stroke-width="0"/></g>
</g>
		<g id="id1:id4:id4" transform="matrix(1.0,0,0,1.0,4096,0.0)">			<g stroke="white" stroke-width="4" transform="scale(4, 4)"> <rect x="1" y="1" width="255" height="255" fill="white" stroke-width="0"/></g>
</g>
</g>
</svg>
