<?xml version="1.0" standalone="no"?>
<!DOCTYPE svg PUBLIC "-//W3C//DTD SVG 1.1//EN"
 "http://www.w3.org/Graphics/SVG/1.1/DTD/svg11.dtd">
<!-- generate by Japanese dictionary app com.asnsami.kanjidictionary -->

<svg xmlns="http://www.w3.org/2000/svg" xmlns:sodipodi="http://sodipodi.sourceforge.net/DTD/sodipodi-0.dtd" version="1.1" width="640" height="256" viewBox="0 0 5120 2048">
	<g id="id0:id0" transform="translate(0.0,0)">
		<g id="id0:id0:id0" transform="matrix(1.0,0,0,1.0,0,0.0)">			<g stroke="lightgray" stroke-width="4" transform="scale(4, 4)"> <rect x="0" y="0" width="256" height="256" fill="white" stroke-width="4"/></g>
			<g transform="scale(0.92, -0.92) translate(60, -920)">					<path d="M 248 706 Q 273 681 301 650 Q 316 634 334 634 Q 346 634 352 649 Q 359 665 350 700 Q 346 721 313 738 Q 238 771 220 763 Q 214 759 215 744 Q 219 731 248 706 Z" fill="red"></path>
				<path d="M 137 505 Q 194 445 228 432 Q 244 429 255 445 Q 261 458 257 478 Q 245 521 152 548 Q 151 549 150 549 Q 131 553 121 549 Q 114 548 118 534 Q 119 521 137 505 Z" fill="lightgray"></path>
				<path d="M 143 142 Q 130 138 132 119 Q 148 40 186 19 Q 193 12 204 15 Q 213 16 213 44 Q 220 96 329 382 Q 336 398 335 406 Q 334 416 325 409 Q 310 400 188 190 Q 175 166 143 142 Z" fill="lightgray"></path>
				<path d="M 473 665 Q 461 681 430 692 Q 420 696 407 692 Q 400 688 405 673 Q 426 588 427 580 Q 427 295 405 202 Q 372 153 422 85 Q 422 84 424 82 Q 436 67 447 81 Q 454 91 458 101 L 464 140 Q 468 170 468 217 Q 468 260 469 297 L 470 328 Q 471 392 474 443 L 475 473 Q 479 626 482 627 C 485 654 485 654 473 665 Z" fill="lightgray"></path>
				<path d="M 685 127 Q 722 81 749 39 Q 759 18 772 19 Q 791 20 808 59 Q 827 104 823 157 Q 810 311 801 597 Q 800 633 817 658 Q 827 674 817 685 Q 795 707 734 732 Q 713 742 696 731 Q 635 701 473 665 C 444 658 453 621 482 627 Q 507 631 680 673 Q 707 679 721 669 Q 760 630 743 189 Q 740 173 740 159 Q 736 144 726 144 C 710 119 668 149 685 127 Z" fill="lightgray"></path>
				<path d="M 474 443 Q 484 442 496 444 Q 596 466 670 479 Q 697 485 686 499 Q 673 515 643 519 Q 607 522 475 473 C 447 463 444 444 474 443 Z" fill="lightgray"></path>
				<path d="M 469 297 Q 470 297 680 324 Q 707 328 697 343 Q 685 359 655 366 Q 630 370 470 328 C 441 320 439 293 469 297 Z" fill="lightgray"></path>
				<path d="M 458 101 Q 465 100 478 102 Q 545 117 685 127 C 715 129 735 131 726 144 Q 722 154 694 173 Q 675 183 641 175 Q 544 153 464 140 C 434 135 428 102 458 101 Z" fill="lightgray"></path>
</g>
		<text x="40" y="140" font-size="128" fill="#999999">1</text></g>
		<g id="id0:id1:id1" transform="matrix(1.0,0,0,1.0,1024,0.0)">			<g stroke="lightgray" stroke-width="4" transform="scale(4, 4)"> <rect x="0" y="0" width="256" height="256" fill="white" stroke-width="4"/></g>
			<g transform="scale(0.92, -0.92) translate(60, -920)">					<path d="M 248 706 Q 273 681 301 650 Q 316 634 334 634 Q 346 634 352 649 Q 359 665 350 700 Q 346 721 313 738 Q 238 771 220 763 Q 214 759 215 744 Q 219 731 248 706 Z" fill="black"></path>
				<path d="M 137 505 Q 194 445 228 432 Q 244 429 255 445 Q 261 458 257 478 Q 245 521 152 548 Q 151 549 150 549 Q 131 553 121 549 Q 114 548 118 534 Q 119 521 137 505 Z" fill="red"></path>
				<path d="M 143 142 Q 130 138 132 119 Q 148 40 186 19 Q 193 12 204 15 Q 213 16 213 44 Q 220 96 329 382 Q 336 398 335 406 Q 334 416 325 409 Q 310 400 188 190 Q 175 166 143 142 Z" fill="lightgray"></path>
				<path d="M 473 665 Q 461 681 430 692 Q 420 696 407 692 Q 400 688 405 673 Q 426 588 427 580 Q 427 295 405 202 Q 372 153 422 85 Q 422 84 424 82 Q 436 67 447 81 Q 454 91 458 101 L 464 140 Q 468 170 468 217 Q 468 260 469 297 L 470 328 Q 471 392 474 443 L 475 473 Q 479 626 482 627 C 485 654 485 654 473 665 Z" fill="lightgray"></path>
				<path d="M 685 127 Q 722 81 749 39 Q 759 18 772 19 Q 791 20 808 59 Q 827 104 823 157 Q 810 311 801 597 Q 800 633 817 658 Q 827 674 817 685 Q 795 707 734 732 Q 713 742 696 731 Q 635 701 473 665 C 444 658 453 621 482 627 Q 507 631 680 673 Q 707 679 721 669 Q 760 630 743 189 Q 740 173 740 159 Q 736 144 726 144 C 710 119 668 149 685 127 Z" fill="lightgray"></path>
				<path d="M 474 443 Q 484 442 496 444 Q 596 466 670 479 Q 697 485 686 499 Q 673 515 643 519 Q 607 522 475 473 C 447 463 444 444 474 443 Z" fill="lightgray"></path>
				<path d="M 469 297 Q 470 297 680 324 Q 707 328 697 343 Q 685 359 655 366 Q 630 370 470 328 C 441 320 439 293 469 297 Z" fill="lightgray"></path>
				<path d="M 458 101 Q 465 100 478 102 Q 545 117 685 127 C 715 129 735 131 726 144 Q 722 154 694 173 Q 675 183 641 175 Q 544 153 464 140 C 434 135 428 102 458 101 Z" fill="lightgray"></path>
</g>
		<text x="40" y="140" font-size="128" fill="#999999">2</text></g>
		<g id="id0:id2:id2" transform="matrix(1.0,0,0,1.0,2048,0.0)">			<g stroke="lightgray" stroke-width="4" transform="scale(4, 4)"> <rect x="0" y="0" width="256" height="256" fill="white" stroke-width="4"/></g>
			<g transform="scale(0.92, -0.92) translate(60, -920)">					<path d="M 248 706 Q 273 681 301 650 Q 316 634 334 634 Q 346 634 352 649 Q 359 665 350 700 Q 346 721 313 738 Q 238 771 220 763 Q 214 759 215 744 Q 219 731 248 706 Z" fill="black"></path>
				<path d="M 137 505 Q 194 445 228 432 Q 244 429 255 445 Q 261 458 257 478 Q 245 521 152 548 Q 151 549 150 549 Q 131 553 121 549 Q 114 548 118 534 Q 119 521 137 505 Z" fill="black"></path>
				<path d="M 143 142 Q 130 138 132 119 Q 148 40 186 19 Q 193 12 204 15 Q 213 16 213 44 Q 220 96 329 382 Q 336 398 335 406 Q 334 416 325 409 Q 310 400 188 190 Q 175 166 143 142 Z" fill="red"></path>
				<path d="M 473 665 Q 461 681 430 692 Q 420 696 407 692 Q 400 688 405 673 Q 426 588 427 580 Q 427 295 405 202 Q 372 153 422 85 Q 422 84 424 82 Q 436 67 447 81 Q 454 91 458 101 L 464 140 Q 468 170 468 217 Q 468 260 469 297 L 470 328 Q 471 392 474 443 L 475 473 Q 479 626 482 627 C 485 654 485 654 473 665 Z" fill="lightgray"></path>
				<path d="M 685 127 Q 722 81 749 39 Q 759 18 772 19 Q 791 20 808 59 Q 827 104 823 157 Q 810 311 801 597 Q 800 633 817 658 Q 827 674 817 685 Q 795 707 734 732 Q 713 742 696 731 Q 635 701 473 665 C 444 658 453 621 482 627 Q 507 631 680 673 Q 707 679 721 669 Q 760 630 743 189 Q 740 173 740 159 Q 736 144 726 144 C 710 119 668 149 685 127 Z" fill="lightgray"></path>
				<path d="M 474 443 Q 484 442 496 444 Q 596 466 670 479 Q 697 485 686 499 Q 673 515 643 519 Q 607 522 475 473 C 447 463 444 444 474 443 Z" fill="lightgray"></path>
				<path d="M 469 297 Q 470 297 680 324 Q 707 328 697 343 Q 685 359 655 366 Q 630 370 470 328 C 441 320 439 293 469 297 Z" fill="lightgray"></path>
				<path d="M 458 101 Q 465 100 478 102 Q 545 117 685 127 C 715 129 735 131 726 144 Q 722 154 694 173 Q 675 183 641 175 Q 544 153 464 140 C 434 135 428 102 458 101 Z" fill="lightgray"></path>
</g>
		<text x="40" y="140" font-size="128" fill="#999999">3</text></g>
		<g id="id0:id3:id3" transform="matrix(1.0,0,0,1.0,3072,0.0)">			<g stroke="lightgray" stroke-width="4" transform="scale(4, 4)"> <rect x="0" y="0" width="256" height="256" fill="white" stroke-width="4"/></g>
			<g transform="scale(0.92, -0.92) translate(60, -920)">					<path d="M 248 706 Q 273 681 301 650 Q 316 634 334 634 Q 346 634 352 649 Q 359 665 350 700 Q 346 721 313 738 Q 238 771 220 763 Q 214 759 215 744 Q 219 731 248 706 Z" fill="black"></path>
				<path d="M 137 505 Q 194 445 228 432 Q 244 429 255 445 Q 261 458 257 478 Q 245 521 152 548 Q 151 549 150 549 Q 131 553 121 549 Q 114 548 118 534 Q 119 521 137 505 Z" fill="black"></path>
				<path d="M 143 142 Q 130 138 132 119 Q 148 40 186 19 Q 193 12 204 15 Q 213 16 213 44 Q 220 96 329 382 Q 336 398 335 406 Q 334 416 325 409 Q 310 400 188 190 Q 175 166 143 142 Z" fill="black"></path>
				<path d="M 473 665 Q 461 681 430 692 Q 420 696 407 692 Q 400 688 405 673 Q 426 588 427 580 Q 427 295 405 202 Q 372 153 422 85 Q 422 84 424 82 Q 436 67 447 81 Q 454 91 458 101 L 464 140 Q 468 170 468 217 Q 468 260 469 297 L 470 328 Q 471 392 474 443 L 475 473 Q 479 626 482 627 C 485 654 485 654 473 665 Z" fill="red"></path>
				<path d="M 685 127 Q 722 81 749 39 Q 759 18 772 19 Q 791 20 808 59 Q 827 104 823 157 Q 810 311 801 597 Q 800 633 817 658 Q 827 674 817 685 Q 795 707 734 732 Q 713 742 696 731 Q 635 701 473 665 C 444 658 453 621 482 627 Q 507 631 680 673 Q 707 679 721 669 Q 760 630 743 189 Q 740 173 740 159 Q 736 144 726 144 C 710 119 668 149 685 127 Z" fill="lightgray"></path>
				<path d="M 474 443 Q 484 442 496 444 Q 596 466 670 479 Q 697 485 686 499 Q 673 515 643 519 Q 607 522 475 473 C 447 463 444 444 474 443 Z" fill="lightgray"></path>
				<path d="M 469 297 Q 470 297 680 324 Q 707 328 697 343 Q 685 359 655 366 Q 630 370 470 328 C 441 320 439 293 469 297 Z" fill="lightgray"></path>
				<path d="M 458 101 Q 465 100 478 102 Q 545 117 685 127 C 715 129 735 131 726 144 Q 722 154 694 173 Q 675 183 641 175 Q 544 153 464 140 C 434 135 428 102 458 101 Z" fill="lightgray"></path>
</g>
		<text x="40" y="140" font-size="128" fill="#999999">4</text></g>
		<g id="id0:id4:id4" transform="matrix(1.0,0,0,1.0,4096,0.0)">			<g stroke="lightgray" stroke-width="4" transform="scale(4, 4)"> <rect x="0" y="0" width="256" height="256" fill="white" stroke-width="4"/></g>
			<g transform="scale(0.92, -0.92) translate(60, -920)">					<path d="M 248 706 Q 273 681 301 650 Q 316 634 334 634 Q 346 634 352 649 Q 359 665 350 700 Q 346 721 313 738 Q 238 771 220 763 Q 214 759 215 744 Q 219 731 248 706 Z" fill="black"></path>
				<path d="M 137 505 Q 194 445 228 432 Q 244 429 255 445 Q 261 458 257 478 Q 245 521 152 548 Q 151 549 150 549 Q 131 553 121 549 Q 114 548 118 534 Q 119 521 137 505 Z" fill="black"></path>
				<path d="M 143 142 Q 130 138 132 119 Q 148 40 186 19 Q 193 12 204 15 Q 213 16 213 44 Q 220 96 329 382 Q 336 398 335 406 Q 334 416 325 409 Q 310 400 188 190 Q 175 166 143 142 Z" fill="black"></path>
				<path d="M 473 665 Q 461 681 430 692 Q 420 696 407 692 Q 400 688 405 673 Q 426 588 427 580 Q 427 295 405 202 Q 372 153 422 85 Q 422 84 424 82 Q 436 67 447 81 Q 454 91 458 101 L 464 140 Q 468 170 468 217 Q 468 260 469 297 L 470 328 Q 471 392 474 443 L 475 473 Q 479 626 482 627 C 485 654 485 654 473 665 Z" fill="black"></path>
				<path d="M 685 127 Q 722 81 749 39 Q 759 18 772 19 Q 791 20 808 59 Q 827 104 823 157 Q 810 311 801 597 Q 800 633 817 658 Q 827 674 817 685 Q 795 707 734 732 Q 713 742 696 731 Q 635 701 473 665 C 444 658 453 621 482 627 Q 507 631 680 673 Q 707 679 721 669 Q 760 630 743 189 Q 740 173 740 159 Q 736 144 726 144 C 710 119 668 149 685 127 Z" fill="red"></path>
				<path d="M 474 443 Q 484 442 496 444 Q 596 466 670 479 Q 697 485 686 499 Q 673 515 643 519 Q 607 522 475 473 C 447 463 444 444 474 443 Z" fill="lightgray"></path>
				<path d="M 469 297 Q 470 297 680 324 Q 707 328 697 343 Q 685 359 655 366 Q 630 370 470 328 C 441 320 439 293 469 297 Z" fill="lightgray"></path>
				<path d="M 458 101 Q 465 100 478 102 Q 545 117 685 127 C 715 129 735 131 726 144 Q 722 154 694 173 Q 675 183 641 175 Q 544 153 464 140 C 434 135 428 102 458 101 Z" fill="lightgray"></path>
</g>
		<text x="40" y="140" font-size="128" fill="#999999">5</text></g>
</g>
	<g id="id1:id1" transform="translate(0.0,1024)">
		<g id="id1:id0:id0" transform="matrix(1.0,0,0,1.0,0,0.0)">			<g stroke="lightgray" stroke-width="4" transform="scale(4, 4)"> <rect x="0" y="0" width="256" height="256" fill="white" stroke-width="4"/></g>
			<g transform="scale(0.92, -0.92) translate(60, -920)">					<path d="M 248 706 Q 273 681 301 650 Q 316 634 334 634 Q 346 634 352 649 Q 359 665 350 700 Q 346 721 313 738 Q 238 771 220 763 Q 214 759 215 744 Q 219 731 248 706 Z" fill="black"></path>
				<path d="M 137 505 Q 194 445 228 432 Q 244 429 255 445 Q 261 458 257 478 Q 245 521 152 548 Q 151 549 150 549 Q 131 553 121 549 Q 114 548 118 534 Q 119 521 137 505 Z" fill="black"></path>
				<path d="M 143 142 Q 130 138 132 119 Q 148 40 186 19 Q 193 12 204 15 Q 213 16 213 44 Q 220 96 329 382 Q 336 398 335 406 Q 334 416 325 409 Q 310 400 188 190 Q 175 166 143 142 Z" fill="black"></path>
				<path d="M 473 665 Q 461 681 430 692 Q 420 696 407 692 Q 400 688 405 673 Q 426 588 427 580 Q 427 295 405 202 Q 372 153 422 85 Q 422 84 424 82 Q 436 67 447 81 Q 454 91 458 101 L 464 140 Q 468 170 468 217 Q 468 260 469 297 L 470 328 Q 471 392 474 443 L 475 473 Q 479 626 482 627 C 485 654 485 654 473 665 Z" fill="black"></path>
				<path d="M 685 127 Q 722 81 749 39 Q 759 18 772 19 Q 791 20 808 59 Q 827 104 823 157 Q 810 311 801 597 Q 800 633 817 658 Q 827 674 817 685 Q 795 707 734 732 Q 713 742 696 731 Q 635 701 473 665 C 444 658 453 621 482 627 Q 507 631 680 673 Q 707 679 721 669 Q 760 630 743 189 Q 740 173 740 159 Q 736 144 726 144 C 710 119 668 149 685 127 Z" fill="black"></path>
				<path d="M 474 443 Q 484 442 496 444 Q 596 466 670 479 Q 697 485 686 499 Q 673 515 643 519 Q 607 522 475 473 C 447 463 444 444 474 443 Z" fill="red"></path>
				<path d="M 469 297 Q 470 297 680 324 Q 707 328 697 343 Q 685 359 655 366 Q 630 370 470 328 C 441 320 439 293 469 297 Z" fill="lightgray"></path>
				<path d="M 458 101 Q 465 100 478 102 Q 545 117 685 127 C 715 129 735 131 726 144 Q 722 154 694 173 Q 675 183 641 175 Q 544 153 464 140 C 434 135 428 102 458 101 Z" fill="lightgray"></path>
</g>
		<text x="40" y="140" font-size="128" fill="#999999">6</text></g>
		<g id="id1:id1:id1" transform="matrix(1.0,0,0,1.0,1024,0.0)">			<g stroke="lightgray" stroke-width="4" transform="scale(4, 4)"> <rect x="0" y="0" width="256" height="256" fill="white" stroke-width="4"/></g>
			<g transform="scale(0.92, -0.92) translate(60, -920)">					<path d="M 248 706 Q 273 681 301 650 Q 316 634 334 634 Q 346 634 352 649 Q 359 665 350 700 Q 346 721 313 738 Q 238 771 220 763 Q 214 759 215 744 Q 219 731 248 706 Z" fill="black"></path>
				<path d="M 137 505 Q 194 445 228 432 Q 244 429 255 445 Q 261 458 257 478 Q 245 521 152 548 Q 151 549 150 549 Q 131 553 121 549 Q 114 548 118 534 Q 119 521 137 505 Z" fill="black"></path>
				<path d="M 143 142 Q 130 138 132 119 Q 148 40 186 19 Q 193 12 204 15 Q 213 16 213 44 Q 220 96 329 382 Q 336 398 335 406 Q 334 416 325 409 Q 310 400 188 190 Q 175 166 143 142 Z" fill="black"></path>
				<path d="M 473 665 Q 461 681 430 692 Q 420 696 407 692 Q 400 688 405 673 Q 426 588 427 580 Q 427 295 405 202 Q 372 153 422 85 Q 422 84 424 82 Q 436 67 447 81 Q 454 91 458 101 L 464 140 Q 468 170 468 217 Q 468 260 469 297 L 470 328 Q 471 392 474 443 L 475 473 Q 479 626 482 627 C 485 654 485 654 473 665 Z" fill="black"></path>
				<path d="M 685 127 Q 722 81 749 39 Q 759 18 772 19 Q 791 20 808 59 Q 827 104 823 157 Q 810 311 801 597 Q 800 633 817 658 Q 827 674 817 685 Q 795 707 734 732 Q 713 742 696 731 Q 635 701 473 665 C 444 658 453 621 482 627 Q 507 631 680 673 Q 707 679 721 669 Q 760 630 743 189 Q 740 173 740 159 Q 736 144 726 144 C 710 119 668 149 685 127 Z" fill="black"></path>
				<path d="M 474 443 Q 484 442 496 444 Q 596 466 670 479 Q 697 485 686 499 Q 673 515 643 519 Q 607 522 475 473 C 447 463 444 444 474 443 Z" fill="black"></path>
				<path d="M 469 297 Q 470 297 680 324 Q 707 328 697 343 Q 685 359 655 366 Q 630 370 470 328 C 441 320 439 293 469 297 Z" fill="red"></path>
				<path d="M 458 101 Q 465 100 478 102 Q 545 117 685 127 C 715 129 735 131 726 144 Q 722 154 694 173 Q 675 183 641 175 Q 544 153 464 140 C 434 135 428 102 458 101 Z" fill="lightgray"></path>
</g>
		<text x="40" y="140" font-size="128" fill="#999999">7</text></g>
		<g id="id1:id2:id2" transform="matrix(1.0,0,0,1.0,2048,0.0)">			<g stroke="lightgray" stroke-width="4" transform="scale(4, 4)"> <rect x="0" y="0" width="256" height="256" fill="white" stroke-width="4"/></g>
			<g transform="scale(0.92, -0.92) translate(60, -920)">					<path d="M 248 706 Q 273 681 301 650 Q 316 634 334 634 Q 346 634 352 649 Q 359 665 350 700 Q 346 721 313 738 Q 238 771 220 763 Q 214 759 215 744 Q 219 731 248 706 Z" fill="black"></path>
				<path d="M 137 505 Q 194 445 228 432 Q 244 429 255 445 Q 261 458 257 478 Q 245 521 152 548 Q 151 549 150 549 Q 131 553 121 549 Q 114 548 118 534 Q 119 521 137 505 Z" fill="black"></path>
				<path d="M 143 142 Q 130 138 132 119 Q 148 40 186 19 Q 193 12 204 15 Q 213 16 213 44 Q 220 96 329 382 Q 336 398 335 406 Q 334 416 325 409 Q 310 400 188 190 Q 175 166 143 142 Z" fill="black"></path>
				<path d="M 473 665 Q 461 681 430 692 Q 420 696 407 692 Q 400 688 405 673 Q 426 588 427 580 Q 427 295 405 202 Q 372 153 422 85 Q 422 84 424 82 Q 436 67 447 81 Q 454 91 458 101 L 464 140 Q 468 170 468 217 Q 468 260 469 297 L 470 328 Q 471 392 474 443 L 475 473 Q 479 626 482 627 C 485 654 485 654 473 665 Z" fill="black"></path>
				<path d="M 685 127 Q 722 81 749 39 Q 759 18 772 19 Q 791 20 808 59 Q 827 104 823 157 Q 810 311 801 597 Q 800 633 817 658 Q 827 674 817 685 Q 795 707 734 732 Q 713 742 696 731 Q 635 701 473 665 C 444 658 453 621 482 627 Q 507 631 680 673 Q 707 679 721 669 Q 760 630 743 189 Q 740 173 740 159 Q 736 144 726 144 C 710 119 668 149 685 127 Z" fill="black"></path>
				<path d="M 474 443 Q 484 442 496 444 Q 596 466 670 479 Q 697 485 686 499 Q 673 515 643 519 Q 607 522 475 473 C 447 463 444 444 474 443 Z" fill="black"></path>
				<path d="M 469 297 Q 470 297 680 324 Q 707 328 697 343 Q 685 359 655 366 Q 630 370 470 328 C 441 320 439 293 469 297 Z" fill="black"></path>
				<path d="M 458 101 Q 465 100 478 102 Q 545 117 685 127 C 715 129 735 131 726 144 Q 722 154 694 173 Q 675 183 641 175 Q 544 153 464 140 C 434 135 428 102 458 101 Z" fill="red"></path>
</g>
		<text x="40" y="140" font-size="128" fill="#999999">8</text></g>
		<g id="id1:id3:id3" transform="matrix(1.0,0,0,1.0,3072,0.0)">			<g stroke="white" stroke-width="4" transform="scale(4, 4)"> <rect x="1" y="1" width="255" height="255" fill="white" stroke-width="0"/></g>
</g>
		<g id="id1:id4:id4" transform="matrix(1.0,0,0,1.0,4096,0.0)">			<g stroke="white" stroke-width="4" transform="scale(4, 4)"> <rect x="1" y="1" width="255" height="255" fill="white" stroke-width="0"/></g>
</g>
</g>
</svg>
