<?xml version="1.0" standalone="no"?>
<!DOCTYPE svg PUBLIC "-//W3C//DTD SVG 1.1//EN"
 "http://www.w3.org/Graphics/SVG/1.1/DTD/svg11.dtd">
<!-- generate by Japanese dictionary app com.asnsami.kanjidictionary -->

<svg xmlns="http://www.w3.org/2000/svg" xmlns:sodipodi="http://sodipodi.sourceforge.net/DTD/sodipodi-0.dtd" version="1.1" width="640" height="256" viewBox="0 0 5120 2048">
	<g id="id0:id0" transform="translate(0.0,0)">
		<g id="id0:id0:id0" transform="matrix(1.0,0,0,1.0,0,0.0)">			<g stroke="lightgray" stroke-width="4" transform="scale(4, 4)"> <rect x="0" y="0" width="256" height="256" fill="white" stroke-width="4"/></g>
			<g transform="scale(0.92, -0.92) translate(60, -920)">					<path d="M 202 628 Q 230 603 260 574 Q 278 558 297 559 Q 310 560 316 577 Q 322 595 310 631 Q 303 653 268 668 Q 183 693 168 688 Q 162 682 164 667 Q 168 654 202 628 Z" fill="red"></path>
				<path d="M 109 443 Q 154 388 194 369 Q 212 365 222 381 Q 229 396 227 415 Q 220 443 199 458 Q 150 491 108 491 Q 99 492 94 489 Q 87 488 89 473 Q 90 460 109 443 Z" fill="lightgray"></path>
				<path d="M 106 122 Q 93 118 96 99 Q 114 18 150 0 Q 157 -7 169 -4 Q 176 -3 177 24 Q 184 81 277 334 Q 284 350 283 358 Q 282 368 273 361 Q 264 357 146 165 Q 134 143 106 122 Z" fill="lightgray"></path>
				<path d="M 414 514 Q 395 527 371 532 Q 356 536 349 530 Q 342 523 349 509 Q 367 484 377 455 Q 384 428 406 323 C 412 294 450 299 446 329 Q 430 449 434 478 C 436 500 436 500 414 514 Z" fill="lightgray"></path>
				<path d="M 743 380 Q 768 473 806 504 Q 824 523 808 543 Q 726 601 677 577 Q 634 562 595 549 L 546 537 Q 482 524 414 514 C 384 510 405 470 434 478 Q 482 491 545 502 L 593 511 Q 629 520 665 527 Q 692 534 703 523 Q 715 513 712 489 Q 700 422 686 368 C 679 339 735 351 743 380 Z" fill="lightgray"></path>
				<path d="M 581 314 Q 680 330 835 332 Q 898 332 904 342 Q 908 352 893 366 Q 836 405 773 387 Q 758 384 743 380 L 686 368 Q 640 361 585 351 L 533 343 Q 490 337 446 329 L 406 323 Q 358 317 312 310 Q 291 307 307 291 Q 320 278 338 273 Q 359 269 374 273 Q 446 295 528 306 L 581 314 Z" fill="lightgray"></path>
				<path d="M 576 285 Q 577 300 581 314 L 585 351 Q 586 375 588 399 Q 591 456 593 511 L 595 549 Q 602 699 625 752 Q 632 767 620 779 Q 596 798 554 811 Q 527 818 518 810 Q 508 803 516 789 Q 541 750 544 700 Q 548 618 546 537 L 545 502 Q 544 438 537 376 Q 536 360 533 343 L 528 306 Q 503 165 390 83 Q 347 53 287 23 Q 274 16 273 11 Q 274 7 286 6 Q 305 2 352 18 Q 431 40 487 99 Q 538 150 562 225 Q 565 238 569 251 L 576 285 Z" fill="lightgray"></path>
				<path d="M 569 251 Q 645 137 745 16 Q 764 -5 795 -5 Q 903 -4 937 2 Q 947 3 948 9 Q 949 15 934 22 Q 775 85 703 157 Q 642 214 576 285 C 556 307 552 276 569 251 Z" fill="lightgray"></path>
</g>
		<text x="40" y="140" font-size="128" fill="#999999">1</text></g>
		<g id="id0:id1:id1" transform="matrix(1.0,0,0,1.0,1024,0.0)">			<g stroke="lightgray" stroke-width="4" transform="scale(4, 4)"> <rect x="0" y="0" width="256" height="256" fill="white" stroke-width="4"/></g>
			<g transform="scale(0.92, -0.92) translate(60, -920)">					<path d="M 202 628 Q 230 603 260 574 Q 278 558 297 559 Q 310 560 316 577 Q 322 595 310 631 Q 303 653 268 668 Q 183 693 168 688 Q 162 682 164 667 Q 168 654 202 628 Z" fill="black"></path>
				<path d="M 109 443 Q 154 388 194 369 Q 212 365 222 381 Q 229 396 227 415 Q 220 443 199 458 Q 150 491 108 491 Q 99 492 94 489 Q 87 488 89 473 Q 90 460 109 443 Z" fill="red"></path>
				<path d="M 106 122 Q 93 118 96 99 Q 114 18 150 0 Q 157 -7 169 -4 Q 176 -3 177 24 Q 184 81 277 334 Q 284 350 283 358 Q 282 368 273 361 Q 264 357 146 165 Q 134 143 106 122 Z" fill="lightgray"></path>
				<path d="M 414 514 Q 395 527 371 532 Q 356 536 349 530 Q 342 523 349 509 Q 367 484 377 455 Q 384 428 406 323 C 412 294 450 299 446 329 Q 430 449 434 478 C 436 500 436 500 414 514 Z" fill="lightgray"></path>
				<path d="M 743 380 Q 768 473 806 504 Q 824 523 808 543 Q 726 601 677 577 Q 634 562 595 549 L 546 537 Q 482 524 414 514 C 384 510 405 470 434 478 Q 482 491 545 502 L 593 511 Q 629 520 665 527 Q 692 534 703 523 Q 715 513 712 489 Q 700 422 686 368 C 679 339 735 351 743 380 Z" fill="lightgray"></path>
				<path d="M 581 314 Q 680 330 835 332 Q 898 332 904 342 Q 908 352 893 366 Q 836 405 773 387 Q 758 384 743 380 L 686 368 Q 640 361 585 351 L 533 343 Q 490 337 446 329 L 406 323 Q 358 317 312 310 Q 291 307 307 291 Q 320 278 338 273 Q 359 269 374 273 Q 446 295 528 306 L 581 314 Z" fill="lightgray"></path>
				<path d="M 576 285 Q 577 300 581 314 L 585 351 Q 586 375 588 399 Q 591 456 593 511 L 595 549 Q 602 699 625 752 Q 632 767 620 779 Q 596 798 554 811 Q 527 818 518 810 Q 508 803 516 789 Q 541 750 544 700 Q 548 618 546 537 L 545 502 Q 544 438 537 376 Q 536 360 533 343 L 528 306 Q 503 165 390 83 Q 347 53 287 23 Q 274 16 273 11 Q 274 7 286 6 Q 305 2 352 18 Q 431 40 487 99 Q 538 150 562 225 Q 565 238 569 251 L 576 285 Z" fill="lightgray"></path>
				<path d="M 569 251 Q 645 137 745 16 Q 764 -5 795 -5 Q 903 -4 937 2 Q 947 3 948 9 Q 949 15 934 22 Q 775 85 703 157 Q 642 214 576 285 C 556 307 552 276 569 251 Z" fill="lightgray"></path>
</g>
		<text x="40" y="140" font-size="128" fill="#999999">2</text></g>
		<g id="id0:id2:id2" transform="matrix(1.0,0,0,1.0,2048,0.0)">			<g stroke="lightgray" stroke-width="4" transform="scale(4, 4)"> <rect x="0" y="0" width="256" height="256" fill="white" stroke-width="4"/></g>
			<g transform="scale(0.92, -0.92) translate(60, -920)">					<path d="M 202 628 Q 230 603 260 574 Q 278 558 297 559 Q 310 560 316 577 Q 322 595 310 631 Q 303 653 268 668 Q 183 693 168 688 Q 162 682 164 667 Q 168 654 202 628 Z" fill="black"></path>
				<path d="M 109 443 Q 154 388 194 369 Q 212 365 222 381 Q 229 396 227 415 Q 220 443 199 458 Q 150 491 108 491 Q 99 492 94 489 Q 87 488 89 473 Q 90 460 109 443 Z" fill="black"></path>
				<path d="M 106 122 Q 93 118 96 99 Q 114 18 150 0 Q 157 -7 169 -4 Q 176 -3 177 24 Q 184 81 277 334 Q 284 350 283 358 Q 282 368 273 361 Q 264 357 146 165 Q 134 143 106 122 Z" fill="red"></path>
				<path d="M 414 514 Q 395 527 371 532 Q 356 536 349 530 Q 342 523 349 509 Q 367 484 377 455 Q 384 428 406 323 C 412 294 450 299 446 329 Q 430 449 434 478 C 436 500 436 500 414 514 Z" fill="lightgray"></path>
				<path d="M 743 380 Q 768 473 806 504 Q 824 523 808 543 Q 726 601 677 577 Q 634 562 595 549 L 546 537 Q 482 524 414 514 C 384 510 405 470 434 478 Q 482 491 545 502 L 593 511 Q 629 520 665 527 Q 692 534 703 523 Q 715 513 712 489 Q 700 422 686 368 C 679 339 735 351 743 380 Z" fill="lightgray"></path>
				<path d="M 581 314 Q 680 330 835 332 Q 898 332 904 342 Q 908 352 893 366 Q 836 405 773 387 Q 758 384 743 380 L 686 368 Q 640 361 585 351 L 533 343 Q 490 337 446 329 L 406 323 Q 358 317 312 310 Q 291 307 307 291 Q 320 278 338 273 Q 359 269 374 273 Q 446 295 528 306 L 581 314 Z" fill="lightgray"></path>
				<path d="M 576 285 Q 577 300 581 314 L 585 351 Q 586 375 588 399 Q 591 456 593 511 L 595 549 Q 602 699 625 752 Q 632 767 620 779 Q 596 798 554 811 Q 527 818 518 810 Q 508 803 516 789 Q 541 750 544 700 Q 548 618 546 537 L 545 502 Q 544 438 537 376 Q 536 360 533 343 L 528 306 Q 503 165 390 83 Q 347 53 287 23 Q 274 16 273 11 Q 274 7 286 6 Q 305 2 352 18 Q 431 40 487 99 Q 538 150 562 225 Q 565 238 569 251 L 576 285 Z" fill="lightgray"></path>
				<path d="M 569 251 Q 645 137 745 16 Q 764 -5 795 -5 Q 903 -4 937 2 Q 947 3 948 9 Q 949 15 934 22 Q 775 85 703 157 Q 642 214 576 285 C 556 307 552 276 569 251 Z" fill="lightgray"></path>
</g>
		<text x="40" y="140" font-size="128" fill="#999999">3</text></g>
		<g id="id0:id3:id3" transform="matrix(1.0,0,0,1.0,3072,0.0)">			<g stroke="lightgray" stroke-width="4" transform="scale(4, 4)"> <rect x="0" y="0" width="256" height="256" fill="white" stroke-width="4"/></g>
			<g transform="scale(0.92, -0.92) translate(60, -920)">					<path d="M 202 628 Q 230 603 260 574 Q 278 558 297 559 Q 310 560 316 577 Q 322 595 310 631 Q 303 653 268 668 Q 183 693 168 688 Q 162 682 164 667 Q 168 654 202 628 Z" fill="black"></path>
				<path d="M 109 443 Q 154 388 194 369 Q 212 365 222 381 Q 229 396 227 415 Q 220 443 199 458 Q 150 491 108 491 Q 99 492 94 489 Q 87 488 89 473 Q 90 460 109 443 Z" fill="black"></path>
				<path d="M 106 122 Q 93 118 96 99 Q 114 18 150 0 Q 157 -7 169 -4 Q 176 -3 177 24 Q 184 81 277 334 Q 284 350 283 358 Q 282 368 273 361 Q 264 357 146 165 Q 134 143 106 122 Z" fill="black"></path>
				<path d="M 414 514 Q 395 527 371 532 Q 356 536 349 530 Q 342 523 349 509 Q 367 484 377 455 Q 384 428 406 323 C 412 294 450 299 446 329 Q 430 449 434 478 C 436 500 436 500 414 514 Z" fill="red"></path>
				<path d="M 743 380 Q 768 473 806 504 Q 824 523 808 543 Q 726 601 677 577 Q 634 562 595 549 L 546 537 Q 482 524 414 514 C 384 510 405 470 434 478 Q 482 491 545 502 L 593 511 Q 629 520 665 527 Q 692 534 703 523 Q 715 513 712 489 Q 700 422 686 368 C 679 339 735 351 743 380 Z" fill="lightgray"></path>
				<path d="M 581 314 Q 680 330 835 332 Q 898 332 904 342 Q 908 352 893 366 Q 836 405 773 387 Q 758 384 743 380 L 686 368 Q 640 361 585 351 L 533 343 Q 490 337 446 329 L 406 323 Q 358 317 312 310 Q 291 307 307 291 Q 320 278 338 273 Q 359 269 374 273 Q 446 295 528 306 L 581 314 Z" fill="lightgray"></path>
				<path d="M 576 285 Q 577 300 581 314 L 585 351 Q 586 375 588 399 Q 591 456 593 511 L 595 549 Q 602 699 625 752 Q 632 767 620 779 Q 596 798 554 811 Q 527 818 518 810 Q 508 803 516 789 Q 541 750 544 700 Q 548 618 546 537 L 545 502 Q 544 438 537 376 Q 536 360 533 343 L 528 306 Q 503 165 390 83 Q 347 53 287 23 Q 274 16 273 11 Q 274 7 286 6 Q 305 2 352 18 Q 431 40 487 99 Q 538 150 562 225 Q 565 238 569 251 L 576 285 Z" fill="lightgray"></path>
				<path d="M 569 251 Q 645 137 745 16 Q 764 -5 795 -5 Q 903 -4 937 2 Q 947 3 948 9 Q 949 15 934 22 Q 775 85 703 157 Q 642 214 576 285 C 556 307 552 276 569 251 Z" fill="lightgray"></path>
</g>
		<text x="40" y="140" font-size="128" fill="#999999">4</text></g>
		<g id="id0:id4:id4" transform="matrix(1.0,0,0,1.0,4096,0.0)">			<g stroke="lightgray" stroke-width="4" transform="scale(4, 4)"> <rect x="0" y="0" width="256" height="256" fill="white" stroke-width="4"/></g>
			<g transform="scale(0.92, -0.92) translate(60, -920)">					<path d="M 202 628 Q 230 603 260 574 Q 278 558 297 559 Q 310 560 316 577 Q 322 595 310 631 Q 303 653 268 668 Q 183 693 168 688 Q 162 682 164 667 Q 168 654 202 628 Z" fill="black"></path>
				<path d="M 109 443 Q 154 388 194 369 Q 212 365 222 381 Q 229 396 227 415 Q 220 443 199 458 Q 150 491 108 491 Q 99 492 94 489 Q 87 488 89 473 Q 90 460 109 443 Z" fill="black"></path>
				<path d="M 106 122 Q 93 118 96 99 Q 114 18 150 0 Q 157 -7 169 -4 Q 176 -3 177 24 Q 184 81 277 334 Q 284 350 283 358 Q 282 368 273 361 Q 264 357 146 165 Q 134 143 106 122 Z" fill="black"></path>
				<path d="M 414 514 Q 395 527 371 532 Q 356 536 349 530 Q 342 523 349 509 Q 367 484 377 455 Q 384 428 406 323 C 412 294 450 299 446 329 Q 430 449 434 478 C 436 500 436 500 414 514 Z" fill="black"></path>
				<path d="M 743 380 Q 768 473 806 504 Q 824 523 808 543 Q 726 601 677 577 Q 634 562 595 549 L 546 537 Q 482 524 414 514 C 384 510 405 470 434 478 Q 482 491 545 502 L 593 511 Q 629 520 665 527 Q 692 534 703 523 Q 715 513 712 489 Q 700 422 686 368 C 679 339 735 351 743 380 Z" fill="red"></path>
				<path d="M 581 314 Q 680 330 835 332 Q 898 332 904 342 Q 908 352 893 366 Q 836 405 773 387 Q 758 384 743 380 L 686 368 Q 640 361 585 351 L 533 343 Q 490 337 446 329 L 406 323 Q 358 317 312 310 Q 291 307 307 291 Q 320 278 338 273 Q 359 269 374 273 Q 446 295 528 306 L 581 314 Z" fill="lightgray"></path>
				<path d="M 576 285 Q 577 300 581 314 L 585 351 Q 586 375 588 399 Q 591 456 593 511 L 595 549 Q 602 699 625 752 Q 632 767 620 779 Q 596 798 554 811 Q 527 818 518 810 Q 508 803 516 789 Q 541 750 544 700 Q 548 618 546 537 L 545 502 Q 544 438 537 376 Q 536 360 533 343 L 528 306 Q 503 165 390 83 Q 347 53 287 23 Q 274 16 273 11 Q 274 7 286 6 Q 305 2 352 18 Q 431 40 487 99 Q 538 150 562 225 Q 565 238 569 251 L 576 285 Z" fill="lightgray"></path>
				<path d="M 569 251 Q 645 137 745 16 Q 764 -5 795 -5 Q 903 -4 937 2 Q 947 3 948 9 Q 949 15 934 22 Q 775 85 703 157 Q 642 214 576 285 C 556 307 552 276 569 251 Z" fill="lightgray"></path>
</g>
		<text x="40" y="140" font-size="128" fill="#999999">5</text></g>
</g>
	<g id="id1:id1" transform="translate(0.0,1024)">
		<g id="id1:id0:id0" transform="matrix(1.0,0,0,1.0,0,0.0)">			<g stroke="lightgray" stroke-width="4" transform="scale(4, 4)"> <rect x="0" y="0" width="256" height="256" fill="white" stroke-width="4"/></g>
			<g transform="scale(0.92, -0.92) translate(60, -920)">					<path d="M 202 628 Q 230 603 260 574 Q 278 558 297 559 Q 310 560 316 577 Q 322 595 310 631 Q 303 653 268 668 Q 183 693 168 688 Q 162 682 164 667 Q 168 654 202 628 Z" fill="black"></path>
				<path d="M 109 443 Q 154 388 194 369 Q 212 365 222 381 Q 229 396 227 415 Q 220 443 199 458 Q 150 491 108 491 Q 99 492 94 489 Q 87 488 89 473 Q 90 460 109 443 Z" fill="black"></path>
				<path d="M 106 122 Q 93 118 96 99 Q 114 18 150 0 Q 157 -7 169 -4 Q 176 -3 177 24 Q 184 81 277 334 Q 284 350 283 358 Q 282 368 273 361 Q 264 357 146 165 Q 134 143 106 122 Z" fill="black"></path>
				<path d="M 414 514 Q 395 527 371 532 Q 356 536 349 530 Q 342 523 349 509 Q 367 484 377 455 Q 384 428 406 323 C 412 294 450 299 446 329 Q 430 449 434 478 C 436 500 436 500 414 514 Z" fill="black"></path>
				<path d="M 743 380 Q 768 473 806 504 Q 824 523 808 543 Q 726 601 677 577 Q 634 562 595 549 L 546 537 Q 482 524 414 514 C 384 510 405 470 434 478 Q 482 491 545 502 L 593 511 Q 629 520 665 527 Q 692 534 703 523 Q 715 513 712 489 Q 700 422 686 368 C 679 339 735 351 743 380 Z" fill="black"></path>
				<path d="M 581 314 Q 680 330 835 332 Q 898 332 904 342 Q 908 352 893 366 Q 836 405 773 387 Q 758 384 743 380 L 686 368 Q 640 361 585 351 L 533 343 Q 490 337 446 329 L 406 323 Q 358 317 312 310 Q 291 307 307 291 Q 320 278 338 273 Q 359 269 374 273 Q 446 295 528 306 L 581 314 Z" fill="red"></path>
				<path d="M 576 285 Q 577 300 581 314 L 585 351 Q 586 375 588 399 Q 591 456 593 511 L 595 549 Q 602 699 625 752 Q 632 767 620 779 Q 596 798 554 811 Q 527 818 518 810 Q 508 803 516 789 Q 541 750 544 700 Q 548 618 546 537 L 545 502 Q 544 438 537 376 Q 536 360 533 343 L 528 306 Q 503 165 390 83 Q 347 53 287 23 Q 274 16 273 11 Q 274 7 286 6 Q 305 2 352 18 Q 431 40 487 99 Q 538 150 562 225 Q 565 238 569 251 L 576 285 Z" fill="lightgray"></path>
				<path d="M 569 251 Q 645 137 745 16 Q 764 -5 795 -5 Q 903 -4 937 2 Q 947 3 948 9 Q 949 15 934 22 Q 775 85 703 157 Q 642 214 576 285 C 556 307 552 276 569 251 Z" fill="lightgray"></path>
</g>
		<text x="40" y="140" font-size="128" fill="#999999">6</text></g>
		<g id="id1:id1:id1" transform="matrix(1.0,0,0,1.0,1024,0.0)">			<g stroke="lightgray" stroke-width="4" transform="scale(4, 4)"> <rect x="0" y="0" width="256" height="256" fill="white" stroke-width="4"/></g>
			<g transform="scale(0.92, -0.92) translate(60, -920)">					<path d="M 202 628 Q 230 603 260 574 Q 278 558 297 559 Q 310 560 316 577 Q 322 595 310 631 Q 303 653 268 668 Q 183 693 168 688 Q 162 682 164 667 Q 168 654 202 628 Z" fill="black"></path>
				<path d="M 109 443 Q 154 388 194 369 Q 212 365 222 381 Q 229 396 227 415 Q 220 443 199 458 Q 150 491 108 491 Q 99 492 94 489 Q 87 488 89 473 Q 90 460 109 443 Z" fill="black"></path>
				<path d="M 106 122 Q 93 118 96 99 Q 114 18 150 0 Q 157 -7 169 -4 Q 176 -3 177 24 Q 184 81 277 334 Q 284 350 283 358 Q 282 368 273 361 Q 264 357 146 165 Q 134 143 106 122 Z" fill="black"></path>
				<path d="M 414 514 Q 395 527 371 532 Q 356 536 349 530 Q 342 523 349 509 Q 367 484 377 455 Q 384 428 406 323 C 412 294 450 299 446 329 Q 430 449 434 478 C 436 500 436 500 414 514 Z" fill="black"></path>
				<path d="M 743 380 Q 768 473 806 504 Q 824 523 808 543 Q 726 601 677 577 Q 634 562 595 549 L 546 537 Q 482 524 414 514 C 384 510 405 470 434 478 Q 482 491 545 502 L 593 511 Q 629 520 665 527 Q 692 534 703 523 Q 715 513 712 489 Q 700 422 686 368 C 679 339 735 351 743 380 Z" fill="black"></path>
				<path d="M 581 314 Q 680 330 835 332 Q 898 332 904 342 Q 908 352 893 366 Q 836 405 773 387 Q 758 384 743 380 L 686 368 Q 640 361 585 351 L 533 343 Q 490 337 446 329 L 406 323 Q 358 317 312 310 Q 291 307 307 291 Q 320 278 338 273 Q 359 269 374 273 Q 446 295 528 306 L 581 314 Z" fill="black"></path>
				<path d="M 576 285 Q 577 300 581 314 L 585 351 Q 586 375 588 399 Q 591 456 593 511 L 595 549 Q 602 699 625 752 Q 632 767 620 779 Q 596 798 554 811 Q 527 818 518 810 Q 508 803 516 789 Q 541 750 544 700 Q 548 618 546 537 L 545 502 Q 544 438 537 376 Q 536 360 533 343 L 528 306 Q 503 165 390 83 Q 347 53 287 23 Q 274 16 273 11 Q 274 7 286 6 Q 305 2 352 18 Q 431 40 487 99 Q 538 150 562 225 Q 565 238 569 251 L 576 285 Z" fill="red"></path>
				<path d="M 569 251 Q 645 137 745 16 Q 764 -5 795 -5 Q 903 -4 937 2 Q 947 3 948 9 Q 949 15 934 22 Q 775 85 703 157 Q 642 214 576 285 C 556 307 552 276 569 251 Z" fill="lightgray"></path>
</g>
		<text x="40" y="140" font-size="128" fill="#999999">7</text></g>
		<g id="id1:id2:id2" transform="matrix(1.0,0,0,1.0,2048,0.0)">			<g stroke="lightgray" stroke-width="4" transform="scale(4, 4)"> <rect x="0" y="0" width="256" height="256" fill="white" stroke-width="4"/></g>
			<g transform="scale(0.92, -0.92) translate(60, -920)">					<path d="M 202 628 Q 230 603 260 574 Q 278 558 297 559 Q 310 560 316 577 Q 322 595 310 631 Q 303 653 268 668 Q 183 693 168 688 Q 162 682 164 667 Q 168 654 202 628 Z" fill="black"></path>
				<path d="M 109 443 Q 154 388 194 369 Q 212 365 222 381 Q 229 396 227 415 Q 220 443 199 458 Q 150 491 108 491 Q 99 492 94 489 Q 87 488 89 473 Q 90 460 109 443 Z" fill="black"></path>
				<path d="M 106 122 Q 93 118 96 99 Q 114 18 150 0 Q 157 -7 169 -4 Q 176 -3 177 24 Q 184 81 277 334 Q 284 350 283 358 Q 282 368 273 361 Q 264 357 146 165 Q 134 143 106 122 Z" fill="black"></path>
				<path d="M 414 514 Q 395 527 371 532 Q 356 536 349 530 Q 342 523 349 509 Q 367 484 377 455 Q 384 428 406 323 C 412 294 450 299 446 329 Q 430 449 434 478 C 436 500 436 500 414 514 Z" fill="black"></path>
				<path d="M 743 380 Q 768 473 806 504 Q 824 523 808 543 Q 726 601 677 577 Q 634 562 595 549 L 546 537 Q 482 524 414 514 C 384 510 405 470 434 478 Q 482 491 545 502 L 593 511 Q 629 520 665 527 Q 692 534 703 523 Q 715 513 712 489 Q 700 422 686 368 C 679 339 735 351 743 380 Z" fill="black"></path>
				<path d="M 581 314 Q 680 330 835 332 Q 898 332 904 342 Q 908 352 893 366 Q 836 405 773 387 Q 758 384 743 380 L 686 368 Q 640 361 585 351 L 533 343 Q 490 337 446 329 L 406 323 Q 358 317 312 310 Q 291 307 307 291 Q 320 278 338 273 Q 359 269 374 273 Q 446 295 528 306 L 581 314 Z" fill="black"></path>
				<path d="M 576 285 Q 577 300 581 314 L 585 351 Q 586 375 588 399 Q 591 456 593 511 L 595 549 Q 602 699 625 752 Q 632 767 620 779 Q 596 798 554 811 Q 527 818 518 810 Q 508 803 516 789 Q 541 750 544 700 Q 548 618 546 537 L 545 502 Q 544 438 537 376 Q 536 360 533 343 L 528 306 Q 503 165 390 83 Q 347 53 287 23 Q 274 16 273 11 Q 274 7 286 6 Q 305 2 352 18 Q 431 40 487 99 Q 538 150 562 225 Q 565 238 569 251 L 576 285 Z" fill="black"></path>
				<path d="M 569 251 Q 645 137 745 16 Q 764 -5 795 -5 Q 903 -4 937 2 Q 947 3 948 9 Q 949 15 934 22 Q 775 85 703 157 Q 642 214 576 285 C 556 307 552 276 569 251 Z" fill="red"></path>
</g>
		<text x="40" y="140" font-size="128" fill="#999999">8</text></g>
		<g id="id1:id3:id3" transform="matrix(1.0,0,0,1.0,3072,0.0)">			<g stroke="white" stroke-width="4" transform="scale(4, 4)"> <rect x="1" y="1" width="255" height="255" fill="white" stroke-width="0"/></g>
</g>
		<g id="id1:id4:id4" transform="matrix(1.0,0,0,1.0,4096,0.0)">			<g stroke="white" stroke-width="4" transform="scale(4, 4)"> <rect x="1" y="1" width="255" height="255" fill="white" stroke-width="0"/></g>
</g>
</g>
</svg>
