<?xml version="1.0" standalone="no"?>
<!DOCTYPE svg PUBLIC "-//W3C//DTD SVG 1.1//EN"
 "http://www.w3.org/Graphics/SVG/1.1/DTD/svg11.dtd">
<!-- generate by Japanese dictionary app com.asnsami.kanjidictionary -->

<svg xmlns="http://www.w3.org/2000/svg" xmlns:sodipodi="http://sodipodi.sourceforge.net/DTD/sodipodi-0.dtd" version="1.1" width="640" height="256" viewBox="0 0 5120 2048">
	<g id="id0:id0" transform="translate(0.0,0)">
		<g id="id0:id0:id0" transform="matrix(1.0,0,0,1.0,0,0.0)">			<g stroke="lightgray" stroke-width="4" transform="scale(4, 4)"> <rect x="0" y="0" width="256" height="256" fill="white" stroke-width="4"/></g>
			<g transform="scale(0.92, -0.92) translate(60, -920)">					<path d="M 115 534 Q 114 470 102 407 Q 98 367 125 344 Q 138 331 153 350 Q 168 372 169 408 Q 172 454 160 490 Q 153 523 137 543 Q 130 549 123 548 Q 116 544 115 534 Z" fill="red"></path>
				<path d="M 305 497 Q 347 521 410 561 Q 429 576 452 584 Q 471 593 463 609 Q 451 625 427 641 Q 405 654 393 653 Q 381 652 385 639 Q 386 611 336 558 Q 321 543 306 527 C 285 505 279 482 305 497 Z" fill="lightgray"></path>
				<path d="M 293 305 Q 294 323 305 497 L 306 527 Q 307 642 333 716 Q 340 732 329 743 Q 304 762 262 774 Q 235 781 226 774 Q 216 767 225 753 Q 288 653 239 279 Q 212 156 141 80 Q 114 56 80 29 Q 67 19 68 15 Q 69 11 82 12 Q 95 8 129 24 Q 255 75 289 273 L 293 305 Z" fill="lightgray"></path>
				<path d="M 289 273 Q 292 269 298 263 Q 326 229 357 187 Q 366 174 378 173 Q 387 172 393 181 Q 400 191 397 217 Q 396 241 367 264 Q 336 283 302 302 Q 298 303 293 305 C 265 315 270 296 289 273 Z" fill="lightgray"></path>
				<path d="M 679 217 Q 700 640 715 693 Q 719 708 697 725 Q 657 746 630 751 Q 611 755 602 745 Q 593 736 603 719 Q 634 676 633 645 Q 643 443 632 208 C 631 178 678 187 679 217 Z" fill="lightgray"></path>
				<path d="M 821 196 L 822 195 C 852 191 860 242 830 239 Q 749 232 679 217 L 632 208 Q 571 198 519 181 Q 495 174 501 202 Q 505 266 512 333 Q 516 358 504 373 Q 488 392 462 405 Q 449 411 439 408 Q 429 404 437 383 Q 467 319 458 252 Q 451 189 426 161 Q 407 142 415 127 Q 428 111 446 100 Q 459 91 471 101 Q 508 144 713 184 Q 797 202 821 196 Z" fill="lightgray"></path>
				<path d="M 822 195 Q 829 164 838 145 Q 848 129 860 140 Q 884 165 888 251 Q 904 374 913 389 Q 920 405 910 418 Q 891 434 857 453 Q 844 460 832 454 Q 825 450 827 436 Q 854 393 832 245 Q 831 242 830 239 L 822 195 Z" fill="lightgray"></path>
</g>
		<text x="40" y="140" font-size="128" fill="#999999">1</text></g>
		<g id="id0:id1:id1" transform="matrix(1.0,0,0,1.0,1024,0.0)">			<g stroke="lightgray" stroke-width="4" transform="scale(4, 4)"> <rect x="0" y="0" width="256" height="256" fill="white" stroke-width="4"/></g>
			<g transform="scale(0.92, -0.92) translate(60, -920)">					<path d="M 115 534 Q 114 470 102 407 Q 98 367 125 344 Q 138 331 153 350 Q 168 372 169 408 Q 172 454 160 490 Q 153 523 137 543 Q 130 549 123 548 Q 116 544 115 534 Z" fill="black"></path>
				<path d="M 305 497 Q 347 521 410 561 Q 429 576 452 584 Q 471 593 463 609 Q 451 625 427 641 Q 405 654 393 653 Q 381 652 385 639 Q 386 611 336 558 Q 321 543 306 527 C 285 505 279 482 305 497 Z" fill="red"></path>
				<path d="M 293 305 Q 294 323 305 497 L 306 527 Q 307 642 333 716 Q 340 732 329 743 Q 304 762 262 774 Q 235 781 226 774 Q 216 767 225 753 Q 288 653 239 279 Q 212 156 141 80 Q 114 56 80 29 Q 67 19 68 15 Q 69 11 82 12 Q 95 8 129 24 Q 255 75 289 273 L 293 305 Z" fill="lightgray"></path>
				<path d="M 289 273 Q 292 269 298 263 Q 326 229 357 187 Q 366 174 378 173 Q 387 172 393 181 Q 400 191 397 217 Q 396 241 367 264 Q 336 283 302 302 Q 298 303 293 305 C 265 315 270 296 289 273 Z" fill="lightgray"></path>
				<path d="M 679 217 Q 700 640 715 693 Q 719 708 697 725 Q 657 746 630 751 Q 611 755 602 745 Q 593 736 603 719 Q 634 676 633 645 Q 643 443 632 208 C 631 178 678 187 679 217 Z" fill="lightgray"></path>
				<path d="M 821 196 L 822 195 C 852 191 860 242 830 239 Q 749 232 679 217 L 632 208 Q 571 198 519 181 Q 495 174 501 202 Q 505 266 512 333 Q 516 358 504 373 Q 488 392 462 405 Q 449 411 439 408 Q 429 404 437 383 Q 467 319 458 252 Q 451 189 426 161 Q 407 142 415 127 Q 428 111 446 100 Q 459 91 471 101 Q 508 144 713 184 Q 797 202 821 196 Z" fill="lightgray"></path>
				<path d="M 822 195 Q 829 164 838 145 Q 848 129 860 140 Q 884 165 888 251 Q 904 374 913 389 Q 920 405 910 418 Q 891 434 857 453 Q 844 460 832 454 Q 825 450 827 436 Q 854 393 832 245 Q 831 242 830 239 L 822 195 Z" fill="lightgray"></path>
</g>
		<text x="40" y="140" font-size="128" fill="#999999">2</text></g>
		<g id="id0:id2:id2" transform="matrix(1.0,0,0,1.0,2048,0.0)">			<g stroke="lightgray" stroke-width="4" transform="scale(4, 4)"> <rect x="0" y="0" width="256" height="256" fill="white" stroke-width="4"/></g>
			<g transform="scale(0.92, -0.92) translate(60, -920)">					<path d="M 115 534 Q 114 470 102 407 Q 98 367 125 344 Q 138 331 153 350 Q 168 372 169 408 Q 172 454 160 490 Q 153 523 137 543 Q 130 549 123 548 Q 116 544 115 534 Z" fill="black"></path>
				<path d="M 305 497 Q 347 521 410 561 Q 429 576 452 584 Q 471 593 463 609 Q 451 625 427 641 Q 405 654 393 653 Q 381 652 385 639 Q 386 611 336 558 Q 321 543 306 527 C 285 505 279 482 305 497 Z" fill="black"></path>
				<path d="M 293 305 Q 294 323 305 497 L 306 527 Q 307 642 333 716 Q 340 732 329 743 Q 304 762 262 774 Q 235 781 226 774 Q 216 767 225 753 Q 288 653 239 279 Q 212 156 141 80 Q 114 56 80 29 Q 67 19 68 15 Q 69 11 82 12 Q 95 8 129 24 Q 255 75 289 273 L 293 305 Z" fill="red"></path>
				<path d="M 289 273 Q 292 269 298 263 Q 326 229 357 187 Q 366 174 378 173 Q 387 172 393 181 Q 400 191 397 217 Q 396 241 367 264 Q 336 283 302 302 Q 298 303 293 305 C 265 315 270 296 289 273 Z" fill="lightgray"></path>
				<path d="M 679 217 Q 700 640 715 693 Q 719 708 697 725 Q 657 746 630 751 Q 611 755 602 745 Q 593 736 603 719 Q 634 676 633 645 Q 643 443 632 208 C 631 178 678 187 679 217 Z" fill="lightgray"></path>
				<path d="M 821 196 L 822 195 C 852 191 860 242 830 239 Q 749 232 679 217 L 632 208 Q 571 198 519 181 Q 495 174 501 202 Q 505 266 512 333 Q 516 358 504 373 Q 488 392 462 405 Q 449 411 439 408 Q 429 404 437 383 Q 467 319 458 252 Q 451 189 426 161 Q 407 142 415 127 Q 428 111 446 100 Q 459 91 471 101 Q 508 144 713 184 Q 797 202 821 196 Z" fill="lightgray"></path>
				<path d="M 822 195 Q 829 164 838 145 Q 848 129 860 140 Q 884 165 888 251 Q 904 374 913 389 Q 920 405 910 418 Q 891 434 857 453 Q 844 460 832 454 Q 825 450 827 436 Q 854 393 832 245 Q 831 242 830 239 L 822 195 Z" fill="lightgray"></path>
</g>
		<text x="40" y="140" font-size="128" fill="#999999">3</text></g>
		<g id="id0:id3:id3" transform="matrix(1.0,0,0,1.0,3072,0.0)">			<g stroke="lightgray" stroke-width="4" transform="scale(4, 4)"> <rect x="0" y="0" width="256" height="256" fill="white" stroke-width="4"/></g>
			<g transform="scale(0.92, -0.92) translate(60, -920)">					<path d="M 115 534 Q 114 470 102 407 Q 98 367 125 344 Q 138 331 153 350 Q 168 372 169 408 Q 172 454 160 490 Q 153 523 137 543 Q 130 549 123 548 Q 116 544 115 534 Z" fill="black"></path>
				<path d="M 305 497 Q 347 521 410 561 Q 429 576 452 584 Q 471 593 463 609 Q 451 625 427 641 Q 405 654 393 653 Q 381 652 385 639 Q 386 611 336 558 Q 321 543 306 527 C 285 505 279 482 305 497 Z" fill="black"></path>
				<path d="M 293 305 Q 294 323 305 497 L 306 527 Q 307 642 333 716 Q 340 732 329 743 Q 304 762 262 774 Q 235 781 226 774 Q 216 767 225 753 Q 288 653 239 279 Q 212 156 141 80 Q 114 56 80 29 Q 67 19 68 15 Q 69 11 82 12 Q 95 8 129 24 Q 255 75 289 273 L 293 305 Z" fill="black"></path>
				<path d="M 289 273 Q 292 269 298 263 Q 326 229 357 187 Q 366 174 378 173 Q 387 172 393 181 Q 400 191 397 217 Q 396 241 367 264 Q 336 283 302 302 Q 298 303 293 305 C 265 315 270 296 289 273 Z" fill="red"></path>
				<path d="M 679 217 Q 700 640 715 693 Q 719 708 697 725 Q 657 746 630 751 Q 611 755 602 745 Q 593 736 603 719 Q 634 676 633 645 Q 643 443 632 208 C 631 178 678 187 679 217 Z" fill="lightgray"></path>
				<path d="M 821 196 L 822 195 C 852 191 860 242 830 239 Q 749 232 679 217 L 632 208 Q 571 198 519 181 Q 495 174 501 202 Q 505 266 512 333 Q 516 358 504 373 Q 488 392 462 405 Q 449 411 439 408 Q 429 404 437 383 Q 467 319 458 252 Q 451 189 426 161 Q 407 142 415 127 Q 428 111 446 100 Q 459 91 471 101 Q 508 144 713 184 Q 797 202 821 196 Z" fill="lightgray"></path>
				<path d="M 822 195 Q 829 164 838 145 Q 848 129 860 140 Q 884 165 888 251 Q 904 374 913 389 Q 920 405 910 418 Q 891 434 857 453 Q 844 460 832 454 Q 825 450 827 436 Q 854 393 832 245 Q 831 242 830 239 L 822 195 Z" fill="lightgray"></path>
</g>
		<text x="40" y="140" font-size="128" fill="#999999">4</text></g>
		<g id="id0:id4:id4" transform="matrix(1.0,0,0,1.0,4096,0.0)">			<g stroke="lightgray" stroke-width="4" transform="scale(4, 4)"> <rect x="0" y="0" width="256" height="256" fill="white" stroke-width="4"/></g>
			<g transform="scale(0.92, -0.92) translate(60, -920)">					<path d="M 115 534 Q 114 470 102 407 Q 98 367 125 344 Q 138 331 153 350 Q 168 372 169 408 Q 172 454 160 490 Q 153 523 137 543 Q 130 549 123 548 Q 116 544 115 534 Z" fill="black"></path>
				<path d="M 305 497 Q 347 521 410 561 Q 429 576 452 584 Q 471 593 463 609 Q 451 625 427 641 Q 405 654 393 653 Q 381 652 385 639 Q 386 611 336 558 Q 321 543 306 527 C 285 505 279 482 305 497 Z" fill="black"></path>
				<path d="M 293 305 Q 294 323 305 497 L 306 527 Q 307 642 333 716 Q 340 732 329 743 Q 304 762 262 774 Q 235 781 226 774 Q 216 767 225 753 Q 288 653 239 279 Q 212 156 141 80 Q 114 56 80 29 Q 67 19 68 15 Q 69 11 82 12 Q 95 8 129 24 Q 255 75 289 273 L 293 305 Z" fill="black"></path>
				<path d="M 289 273 Q 292 269 298 263 Q 326 229 357 187 Q 366 174 378 173 Q 387 172 393 181 Q 400 191 397 217 Q 396 241 367 264 Q 336 283 302 302 Q 298 303 293 305 C 265 315 270 296 289 273 Z" fill="black"></path>
				<path d="M 679 217 Q 700 640 715 693 Q 719 708 697 725 Q 657 746 630 751 Q 611 755 602 745 Q 593 736 603 719 Q 634 676 633 645 Q 643 443 632 208 C 631 178 678 187 679 217 Z" fill="red"></path>
				<path d="M 821 196 L 822 195 C 852 191 860 242 830 239 Q 749 232 679 217 L 632 208 Q 571 198 519 181 Q 495 174 501 202 Q 505 266 512 333 Q 516 358 504 373 Q 488 392 462 405 Q 449 411 439 408 Q 429 404 437 383 Q 467 319 458 252 Q 451 189 426 161 Q 407 142 415 127 Q 428 111 446 100 Q 459 91 471 101 Q 508 144 713 184 Q 797 202 821 196 Z" fill="lightgray"></path>
				<path d="M 822 195 Q 829 164 838 145 Q 848 129 860 140 Q 884 165 888 251 Q 904 374 913 389 Q 920 405 910 418 Q 891 434 857 453 Q 844 460 832 454 Q 825 450 827 436 Q 854 393 832 245 Q 831 242 830 239 L 822 195 Z" fill="lightgray"></path>
</g>
		<text x="40" y="140" font-size="128" fill="#999999">5</text></g>
</g>
	<g id="id1:id1" transform="translate(0.0,1024)">
		<g id="id1:id0:id0" transform="matrix(1.0,0,0,1.0,0,0.0)">			<g stroke="lightgray" stroke-width="4" transform="scale(4, 4)"> <rect x="0" y="0" width="256" height="256" fill="white" stroke-width="4"/></g>
			<g transform="scale(0.92, -0.92) translate(60, -920)">					<path d="M 115 534 Q 114 470 102 407 Q 98 367 125 344 Q 138 331 153 350 Q 168 372 169 408 Q 172 454 160 490 Q 153 523 137 543 Q 130 549 123 548 Q 116 544 115 534 Z" fill="black"></path>
				<path d="M 305 497 Q 347 521 410 561 Q 429 576 452 584 Q 471 593 463 609 Q 451 625 427 641 Q 405 654 393 653 Q 381 652 385 639 Q 386 611 336 558 Q 321 543 306 527 C 285 505 279 482 305 497 Z" fill="black"></path>
				<path d="M 293 305 Q 294 323 305 497 L 306 527 Q 307 642 333 716 Q 340 732 329 743 Q 304 762 262 774 Q 235 781 226 774 Q 216 767 225 753 Q 288 653 239 279 Q 212 156 141 80 Q 114 56 80 29 Q 67 19 68 15 Q 69 11 82 12 Q 95 8 129 24 Q 255 75 289 273 L 293 305 Z" fill="black"></path>
				<path d="M 289 273 Q 292 269 298 263 Q 326 229 357 187 Q 366 174 378 173 Q 387 172 393 181 Q 400 191 397 217 Q 396 241 367 264 Q 336 283 302 302 Q 298 303 293 305 C 265 315 270 296 289 273 Z" fill="black"></path>
				<path d="M 679 217 Q 700 640 715 693 Q 719 708 697 725 Q 657 746 630 751 Q 611 755 602 745 Q 593 736 603 719 Q 634 676 633 645 Q 643 443 632 208 C 631 178 678 187 679 217 Z" fill="black"></path>
				<path d="M 821 196 L 822 195 C 852 191 860 242 830 239 Q 749 232 679 217 L 632 208 Q 571 198 519 181 Q 495 174 501 202 Q 505 266 512 333 Q 516 358 504 373 Q 488 392 462 405 Q 449 411 439 408 Q 429 404 437 383 Q 467 319 458 252 Q 451 189 426 161 Q 407 142 415 127 Q 428 111 446 100 Q 459 91 471 101 Q 508 144 713 184 Q 797 202 821 196 Z" fill="red"></path>
				<path d="M 822 195 Q 829 164 838 145 Q 848 129 860 140 Q 884 165 888 251 Q 904 374 913 389 Q 920 405 910 418 Q 891 434 857 453 Q 844 460 832 454 Q 825 450 827 436 Q 854 393 832 245 Q 831 242 830 239 L 822 195 Z" fill="lightgray"></path>
</g>
		<text x="40" y="140" font-size="128" fill="#999999">6</text></g>
		<g id="id1:id1:id1" transform="matrix(1.0,0,0,1.0,1024,0.0)">			<g stroke="lightgray" stroke-width="4" transform="scale(4, 4)"> <rect x="0" y="0" width="256" height="256" fill="white" stroke-width="4"/></g>
			<g transform="scale(0.92, -0.92) translate(60, -920)">					<path d="M 115 534 Q 114 470 102 407 Q 98 367 125 344 Q 138 331 153 350 Q 168 372 169 408 Q 172 454 160 490 Q 153 523 137 543 Q 130 549 123 548 Q 116 544 115 534 Z" fill="black"></path>
				<path d="M 305 497 Q 347 521 410 561 Q 429 576 452 584 Q 471 593 463 609 Q 451 625 427 641 Q 405 654 393 653 Q 381 652 385 639 Q 386 611 336 558 Q 321 543 306 527 C 285 505 279 482 305 497 Z" fill="black"></path>
				<path d="M 293 305 Q 294 323 305 497 L 306 527 Q 307 642 333 716 Q 340 732 329 743 Q 304 762 262 774 Q 235 781 226 774 Q 216 767 225 753 Q 288 653 239 279 Q 212 156 141 80 Q 114 56 80 29 Q 67 19 68 15 Q 69 11 82 12 Q 95 8 129 24 Q 255 75 289 273 L 293 305 Z" fill="black"></path>
				<path d="M 289 273 Q 292 269 298 263 Q 326 229 357 187 Q 366 174 378 173 Q 387 172 393 181 Q 400 191 397 217 Q 396 241 367 264 Q 336 283 302 302 Q 298 303 293 305 C 265 315 270 296 289 273 Z" fill="black"></path>
				<path d="M 679 217 Q 700 640 715 693 Q 719 708 697 725 Q 657 746 630 751 Q 611 755 602 745 Q 593 736 603 719 Q 634 676 633 645 Q 643 443 632 208 C 631 178 678 187 679 217 Z" fill="black"></path>
				<path d="M 821 196 L 822 195 C 852 191 860 242 830 239 Q 749 232 679 217 L 632 208 Q 571 198 519 181 Q 495 174 501 202 Q 505 266 512 333 Q 516 358 504 373 Q 488 392 462 405 Q 449 411 439 408 Q 429 404 437 383 Q 467 319 458 252 Q 451 189 426 161 Q 407 142 415 127 Q 428 111 446 100 Q 459 91 471 101 Q 508 144 713 184 Q 797 202 821 196 Z" fill="black"></path>
				<path d="M 822 195 Q 829 164 838 145 Q 848 129 860 140 Q 884 165 888 251 Q 904 374 913 389 Q 920 405 910 418 Q 891 434 857 453 Q 844 460 832 454 Q 825 450 827 436 Q 854 393 832 245 Q 831 242 830 239 L 822 195 Z" fill="red"></path>
</g>
		<text x="40" y="140" font-size="128" fill="#999999">7</text></g>
		<g id="id1:id2:id2" transform="matrix(1.0,0,0,1.0,2048,0.0)">			<g stroke="white" stroke-width="4" transform="scale(4, 4)"> <rect x="1" y="1" width="255" height="255" fill="white" stroke-width="0"/></g>
</g>
		<g id="id1:id3:id3" transform="matrix(1.0,0,0,1.0,3072,0.0)">			<g stroke="white" stroke-width="4" transform="scale(4, 4)"> <rect x="1" y="1" width="255" height="255" fill="white" stroke-width="0"/></g>
</g>
		<g id="id1:id4:id4" transform="matrix(1.0,0,0,1.0,4096,0.0)">			<g stroke="white" stroke-width="4" transform="scale(4, 4)"> <rect x="1" y="1" width="255" height="255" fill="white" stroke-width="0"/></g>
</g>
</g>
</svg>
