<?xml version="1.0" standalone="no"?>
<!DOCTYPE svg PUBLIC "-//W3C//DTD SVG 1.1//EN"
 "http://www.w3.org/Graphics/SVG/1.1/DTD/svg11.dtd">
<!-- generate by Japanese dictionary app com.asnsami.kanjidictionary -->

<svg xmlns="http://www.w3.org/2000/svg" xmlns:sodipodi="http://sodipodi.sourceforge.net/DTD/sodipodi-0.dtd" version="1.1" width="640" height="384" viewBox="0 0 5120 3072">
	<g id="id0:id0" transform="translate(0.0,0)">
		<g id="id0:id0:id0" transform="matrix(1.0,0,0,1.0,0,0.0)">			<g stroke="lightgray" stroke-width="4" transform="scale(4, 4)"> <rect x="0" y="0" width="256" height="256" fill="white" stroke-width="4"/></g>
			<g transform="scale(0.92, -0.92) translate(60, -920)">					<path d="M 487 802 Q 512 781 541 756 Q 557 743 573 745 Q 583 746 589 760 Q 593 776 581 807 Q 569 837 479 852 Q 463 855 456 851 Q 450 847 453 833 Q 457 823 487 802 Z" fill="red"></path>
				<path d="M 208 677 Q 189 676 203 659 Q 216 646 234 640 Q 253 636 269 639 Q 479 694 799 694 Q 818 694 839 693 Q 858 694 863 702 Q 867 712 852 726 Q 803 765 766 756 Q 624 726 208 677 Z" fill="lightgray"></path>
				<path d="M 393 612 Q 383 616 350 618 Q 340 619 337 614 Q 331 608 341 595 Q 366 558 389 492 Q 395 473 408 460 Q 427 444 429 458 Q 430 467 430 479 L 423 511 Q 410 562 404 583 C 396 611 396 611 393 612 Z" fill="lightgray"></path>
				<path d="M 644 531 Q 668 579 690 592 Q 706 608 693 624 Q 678 637 633 660 Q 617 667 597 660 Q 515 630 393 612 C 363 608 375 577 404 583 Q 407 584 578 617 Q 599 621 607 613 Q 613 607 599 546 C 592 517 630 504 644 531 Z" fill="lightgray"></path>
				<path d="M 430 479 Q 451 489 644 508 Q 654 509 656 517 Q 656 523 644 531 L 599 546 Q 592 547 584 544 Q 494 522 423 511 C 393 506 402 469 430 479 Z" fill="lightgray"></path>
				<path d="M 563 331 Q 650 386 681 392 Q 700 398 695 414 Q 694 430 631 467 Q 613 477 591 470 Q 521 448 414 421 Q 386 414 319 418 Q 297 419 304 399 Q 311 387 330 376 Q 358 358 391 377 Q 572 434 589 426 Q 599 419 595 407 Q 574 379 551 347 C 533 323 538 315 563 331 Z" fill="lightgray"></path>
				<path d="M 551 347 Q 535 363 508 367 Q 490 371 483 364 Q 473 357 486 348 Q 519 330 532 294 Q 544 237 528 199 Q 518 180 493 183 Q 468 187 443 190 Q 433 191 437 183 Q 441 176 458 167 Q 492 142 506 121 Q 516 108 529 110 Q 539 113 560 137 Q 596 182 582 269 Q 575 309 563 331 L 551 347 Z" fill="lightgray"></path>
				<path d="M 244 154 Q 213 99 172 51 Q 148 15 161 -21 Q 168 -40 192 -30 Q 217 -15 237 17 Q 259 54 265 88 Q 275 122 270 151 Q 266 161 259 162 Q 250 162 244 154 Z" fill="lightgray"></path>
				<path d="M 377 111 Q 413 23 436 15 Q 449 9 461 25 Q 465 38 463 60 Q 459 81 437 97 Q 404 128 389 136 Q 380 140 376 129 Q 372 122 377 111 Z" fill="lightgray"></path>
				<path d="M 575 104 Q 615 26 640 21 Q 653 17 663 34 Q 667 47 662 68 Q 655 87 633 100 Q 600 124 585 129 Q 576 133 573 122 Q 570 113 575 104 Z" fill="lightgray"></path>
				<path d="M 715 154 Q 773 90 841 0 Q 856 -22 871 -29 Q 880 -30 889 -21 Q 904 -9 895 39 Q 889 85 812 132 Q 799 145 719 187 Q 710 194 707 180 Q 706 167 715 154 Z" fill="lightgray"></path>
</g>
		<text x="40" y="140" font-size="128" fill="#999999">1</text></g>
		<g id="id0:id1:id1" transform="matrix(1.0,0,0,1.0,1024,0.0)">			<g stroke="lightgray" stroke-width="4" transform="scale(4, 4)"> <rect x="0" y="0" width="256" height="256" fill="white" stroke-width="4"/></g>
			<g transform="scale(0.92, -0.92) translate(60, -920)">					<path d="M 487 802 Q 512 781 541 756 Q 557 743 573 745 Q 583 746 589 760 Q 593 776 581 807 Q 569 837 479 852 Q 463 855 456 851 Q 450 847 453 833 Q 457 823 487 802 Z" fill="black"></path>
				<path d="M 208 677 Q 189 676 203 659 Q 216 646 234 640 Q 253 636 269 639 Q 479 694 799 694 Q 818 694 839 693 Q 858 694 863 702 Q 867 712 852 726 Q 803 765 766 756 Q 624 726 208 677 Z" fill="red"></path>
				<path d="M 393 612 Q 383 616 350 618 Q 340 619 337 614 Q 331 608 341 595 Q 366 558 389 492 Q 395 473 408 460 Q 427 444 429 458 Q 430 467 430 479 L 423 511 Q 410 562 404 583 C 396 611 396 611 393 612 Z" fill="lightgray"></path>
				<path d="M 644 531 Q 668 579 690 592 Q 706 608 693 624 Q 678 637 633 660 Q 617 667 597 660 Q 515 630 393 612 C 363 608 375 577 404 583 Q 407 584 578 617 Q 599 621 607 613 Q 613 607 599 546 C 592 517 630 504 644 531 Z" fill="lightgray"></path>
				<path d="M 430 479 Q 451 489 644 508 Q 654 509 656 517 Q 656 523 644 531 L 599 546 Q 592 547 584 544 Q 494 522 423 511 C 393 506 402 469 430 479 Z" fill="lightgray"></path>
				<path d="M 563 331 Q 650 386 681 392 Q 700 398 695 414 Q 694 430 631 467 Q 613 477 591 470 Q 521 448 414 421 Q 386 414 319 418 Q 297 419 304 399 Q 311 387 330 376 Q 358 358 391 377 Q 572 434 589 426 Q 599 419 595 407 Q 574 379 551 347 C 533 323 538 315 563 331 Z" fill="lightgray"></path>
				<path d="M 551 347 Q 535 363 508 367 Q 490 371 483 364 Q 473 357 486 348 Q 519 330 532 294 Q 544 237 528 199 Q 518 180 493 183 Q 468 187 443 190 Q 433 191 437 183 Q 441 176 458 167 Q 492 142 506 121 Q 516 108 529 110 Q 539 113 560 137 Q 596 182 582 269 Q 575 309 563 331 L 551 347 Z" fill="lightgray"></path>
				<path d="M 244 154 Q 213 99 172 51 Q 148 15 161 -21 Q 168 -40 192 -30 Q 217 -15 237 17 Q 259 54 265 88 Q 275 122 270 151 Q 266 161 259 162 Q 250 162 244 154 Z" fill="lightgray"></path>
				<path d="M 377 111 Q 413 23 436 15 Q 449 9 461 25 Q 465 38 463 60 Q 459 81 437 97 Q 404 128 389 136 Q 380 140 376 129 Q 372 122 377 111 Z" fill="lightgray"></path>
				<path d="M 575 104 Q 615 26 640 21 Q 653 17 663 34 Q 667 47 662 68 Q 655 87 633 100 Q 600 124 585 129 Q 576 133 573 122 Q 570 113 575 104 Z" fill="lightgray"></path>
				<path d="M 715 154 Q 773 90 841 0 Q 856 -22 871 -29 Q 880 -30 889 -21 Q 904 -9 895 39 Q 889 85 812 132 Q 799 145 719 187 Q 710 194 707 180 Q 706 167 715 154 Z" fill="lightgray"></path>
</g>
		<text x="40" y="140" font-size="128" fill="#999999">2</text></g>
		<g id="id0:id2:id2" transform="matrix(1.0,0,0,1.0,2048,0.0)">			<g stroke="lightgray" stroke-width="4" transform="scale(4, 4)"> <rect x="0" y="0" width="256" height="256" fill="white" stroke-width="4"/></g>
			<g transform="scale(0.92, -0.92) translate(60, -920)">					<path d="M 487 802 Q 512 781 541 756 Q 557 743 573 745 Q 583 746 589 760 Q 593 776 581 807 Q 569 837 479 852 Q 463 855 456 851 Q 450 847 453 833 Q 457 823 487 802 Z" fill="black"></path>
				<path d="M 208 677 Q 189 676 203 659 Q 216 646 234 640 Q 253 636 269 639 Q 479 694 799 694 Q 818 694 839 693 Q 858 694 863 702 Q 867 712 852 726 Q 803 765 766 756 Q 624 726 208 677 Z" fill="black"></path>
				<path d="M 393 612 Q 383 616 350 618 Q 340 619 337 614 Q 331 608 341 595 Q 366 558 389 492 Q 395 473 408 460 Q 427 444 429 458 Q 430 467 430 479 L 423 511 Q 410 562 404 583 C 396 611 396 611 393 612 Z" fill="red"></path>
				<path d="M 644 531 Q 668 579 690 592 Q 706 608 693 624 Q 678 637 633 660 Q 617 667 597 660 Q 515 630 393 612 C 363 608 375 577 404 583 Q 407 584 578 617 Q 599 621 607 613 Q 613 607 599 546 C 592 517 630 504 644 531 Z" fill="lightgray"></path>
				<path d="M 430 479 Q 451 489 644 508 Q 654 509 656 517 Q 656 523 644 531 L 599 546 Q 592 547 584 544 Q 494 522 423 511 C 393 506 402 469 430 479 Z" fill="lightgray"></path>
				<path d="M 563 331 Q 650 386 681 392 Q 700 398 695 414 Q 694 430 631 467 Q 613 477 591 470 Q 521 448 414 421 Q 386 414 319 418 Q 297 419 304 399 Q 311 387 330 376 Q 358 358 391 377 Q 572 434 589 426 Q 599 419 595 407 Q 574 379 551 347 C 533 323 538 315 563 331 Z" fill="lightgray"></path>
				<path d="M 551 347 Q 535 363 508 367 Q 490 371 483 364 Q 473 357 486 348 Q 519 330 532 294 Q 544 237 528 199 Q 518 180 493 183 Q 468 187 443 190 Q 433 191 437 183 Q 441 176 458 167 Q 492 142 506 121 Q 516 108 529 110 Q 539 113 560 137 Q 596 182 582 269 Q 575 309 563 331 L 551 347 Z" fill="lightgray"></path>
				<path d="M 244 154 Q 213 99 172 51 Q 148 15 161 -21 Q 168 -40 192 -30 Q 217 -15 237 17 Q 259 54 265 88 Q 275 122 270 151 Q 266 161 259 162 Q 250 162 244 154 Z" fill="lightgray"></path>
				<path d="M 377 111 Q 413 23 436 15 Q 449 9 461 25 Q 465 38 463 60 Q 459 81 437 97 Q 404 128 389 136 Q 380 140 376 129 Q 372 122 377 111 Z" fill="lightgray"></path>
				<path d="M 575 104 Q 615 26 640 21 Q 653 17 663 34 Q 667 47 662 68 Q 655 87 633 100 Q 600 124 585 129 Q 576 133 573 122 Q 570 113 575 104 Z" fill="lightgray"></path>
				<path d="M 715 154 Q 773 90 841 0 Q 856 -22 871 -29 Q 880 -30 889 -21 Q 904 -9 895 39 Q 889 85 812 132 Q 799 145 719 187 Q 710 194 707 180 Q 706 167 715 154 Z" fill="lightgray"></path>
</g>
		<text x="40" y="140" font-size="128" fill="#999999">3</text></g>
		<g id="id0:id3:id3" transform="matrix(1.0,0,0,1.0,3072,0.0)">			<g stroke="lightgray" stroke-width="4" transform="scale(4, 4)"> <rect x="0" y="0" width="256" height="256" fill="white" stroke-width="4"/></g>
			<g transform="scale(0.92, -0.92) translate(60, -920)">					<path d="M 487 802 Q 512 781 541 756 Q 557 743 573 745 Q 583 746 589 760 Q 593 776 581 807 Q 569 837 479 852 Q 463 855 456 851 Q 450 847 453 833 Q 457 823 487 802 Z" fill="black"></path>
				<path d="M 208 677 Q 189 676 203 659 Q 216 646 234 640 Q 253 636 269 639 Q 479 694 799 694 Q 818 694 839 693 Q 858 694 863 702 Q 867 712 852 726 Q 803 765 766 756 Q 624 726 208 677 Z" fill="black"></path>
				<path d="M 393 612 Q 383 616 350 618 Q 340 619 337 614 Q 331 608 341 595 Q 366 558 389 492 Q 395 473 408 460 Q 427 444 429 458 Q 430 467 430 479 L 423 511 Q 410 562 404 583 C 396 611 396 611 393 612 Z" fill="black"></path>
				<path d="M 644 531 Q 668 579 690 592 Q 706 608 693 624 Q 678 637 633 660 Q 617 667 597 660 Q 515 630 393 612 C 363 608 375 577 404 583 Q 407 584 578 617 Q 599 621 607 613 Q 613 607 599 546 C 592 517 630 504 644 531 Z" fill="red"></path>
				<path d="M 430 479 Q 451 489 644 508 Q 654 509 656 517 Q 656 523 644 531 L 599 546 Q 592 547 584 544 Q 494 522 423 511 C 393 506 402 469 430 479 Z" fill="lightgray"></path>
				<path d="M 563 331 Q 650 386 681 392 Q 700 398 695 414 Q 694 430 631 467 Q 613 477 591 470 Q 521 448 414 421 Q 386 414 319 418 Q 297 419 304 399 Q 311 387 330 376 Q 358 358 391 377 Q 572 434 589 426 Q 599 419 595 407 Q 574 379 551 347 C 533 323 538 315 563 331 Z" fill="lightgray"></path>
				<path d="M 551 347 Q 535 363 508 367 Q 490 371 483 364 Q 473 357 486 348 Q 519 330 532 294 Q 544 237 528 199 Q 518 180 493 183 Q 468 187 443 190 Q 433 191 437 183 Q 441 176 458 167 Q 492 142 506 121 Q 516 108 529 110 Q 539 113 560 137 Q 596 182 582 269 Q 575 309 563 331 L 551 347 Z" fill="lightgray"></path>
				<path d="M 244 154 Q 213 99 172 51 Q 148 15 161 -21 Q 168 -40 192 -30 Q 217 -15 237 17 Q 259 54 265 88 Q 275 122 270 151 Q 266 161 259 162 Q 250 162 244 154 Z" fill="lightgray"></path>
				<path d="M 377 111 Q 413 23 436 15 Q 449 9 461 25 Q 465 38 463 60 Q 459 81 437 97 Q 404 128 389 136 Q 380 140 376 129 Q 372 122 377 111 Z" fill="lightgray"></path>
				<path d="M 575 104 Q 615 26 640 21 Q 653 17 663 34 Q 667 47 662 68 Q 655 87 633 100 Q 600 124 585 129 Q 576 133 573 122 Q 570 113 575 104 Z" fill="lightgray"></path>
				<path d="M 715 154 Q 773 90 841 0 Q 856 -22 871 -29 Q 880 -30 889 -21 Q 904 -9 895 39 Q 889 85 812 132 Q 799 145 719 187 Q 710 194 707 180 Q 706 167 715 154 Z" fill="lightgray"></path>
</g>
		<text x="40" y="140" font-size="128" fill="#999999">4</text></g>
		<g id="id0:id4:id4" transform="matrix(1.0,0,0,1.0,4096,0.0)">			<g stroke="lightgray" stroke-width="4" transform="scale(4, 4)"> <rect x="0" y="0" width="256" height="256" fill="white" stroke-width="4"/></g>
			<g transform="scale(0.92, -0.92) translate(60, -920)">					<path d="M 487 802 Q 512 781 541 756 Q 557 743 573 745 Q 583 746 589 760 Q 593 776 581 807 Q 569 837 479 852 Q 463 855 456 851 Q 450 847 453 833 Q 457 823 487 802 Z" fill="black"></path>
				<path d="M 208 677 Q 189 676 203 659 Q 216 646 234 640 Q 253 636 269 639 Q 479 694 799 694 Q 818 694 839 693 Q 858 694 863 702 Q 867 712 852 726 Q 803 765 766 756 Q 624 726 208 677 Z" fill="black"></path>
				<path d="M 393 612 Q 383 616 350 618 Q 340 619 337 614 Q 331 608 341 595 Q 366 558 389 492 Q 395 473 408 460 Q 427 444 429 458 Q 430 467 430 479 L 423 511 Q 410 562 404 583 C 396 611 396 611 393 612 Z" fill="black"></path>
				<path d="M 644 531 Q 668 579 690 592 Q 706 608 693 624 Q 678 637 633 660 Q 617 667 597 660 Q 515 630 393 612 C 363 608 375 577 404 583 Q 407 584 578 617 Q 599 621 607 613 Q 613 607 599 546 C 592 517 630 504 644 531 Z" fill="black"></path>
				<path d="M 430 479 Q 451 489 644 508 Q 654 509 656 517 Q 656 523 644 531 L 599 546 Q 592 547 584 544 Q 494 522 423 511 C 393 506 402 469 430 479 Z" fill="red"></path>
				<path d="M 563 331 Q 650 386 681 392 Q 700 398 695 414 Q 694 430 631 467 Q 613 477 591 470 Q 521 448 414 421 Q 386 414 319 418 Q 297 419 304 399 Q 311 387 330 376 Q 358 358 391 377 Q 572 434 589 426 Q 599 419 595 407 Q 574 379 551 347 C 533 323 538 315 563 331 Z" fill="lightgray"></path>
				<path d="M 551 347 Q 535 363 508 367 Q 490 371 483 364 Q 473 357 486 348 Q 519 330 532 294 Q 544 237 528 199 Q 518 180 493 183 Q 468 187 443 190 Q 433 191 437 183 Q 441 176 458 167 Q 492 142 506 121 Q 516 108 529 110 Q 539 113 560 137 Q 596 182 582 269 Q 575 309 563 331 L 551 347 Z" fill="lightgray"></path>
				<path d="M 244 154 Q 213 99 172 51 Q 148 15 161 -21 Q 168 -40 192 -30 Q 217 -15 237 17 Q 259 54 265 88 Q 275 122 270 151 Q 266 161 259 162 Q 250 162 244 154 Z" fill="lightgray"></path>
				<path d="M 377 111 Q 413 23 436 15 Q 449 9 461 25 Q 465 38 463 60 Q 459 81 437 97 Q 404 128 389 136 Q 380 140 376 129 Q 372 122 377 111 Z" fill="lightgray"></path>
				<path d="M 575 104 Q 615 26 640 21 Q 653 17 663 34 Q 667 47 662 68 Q 655 87 633 100 Q 600 124 585 129 Q 576 133 573 122 Q 570 113 575 104 Z" fill="lightgray"></path>
				<path d="M 715 154 Q 773 90 841 0 Q 856 -22 871 -29 Q 880 -30 889 -21 Q 904 -9 895 39 Q 889 85 812 132 Q 799 145 719 187 Q 710 194 707 180 Q 706 167 715 154 Z" fill="lightgray"></path>
</g>
		<text x="40" y="140" font-size="128" fill="#999999">5</text></g>
</g>
	<g id="id1:id1" transform="translate(0.0,1024)">
		<g id="id1:id0:id0" transform="matrix(1.0,0,0,1.0,0,0.0)">			<g stroke="lightgray" stroke-width="4" transform="scale(4, 4)"> <rect x="0" y="0" width="256" height="256" fill="white" stroke-width="4"/></g>
			<g transform="scale(0.92, -0.92) translate(60, -920)">					<path d="M 487 802 Q 512 781 541 756 Q 557 743 573 745 Q 583 746 589 760 Q 593 776 581 807 Q 569 837 479 852 Q 463 855 456 851 Q 450 847 453 833 Q 457 823 487 802 Z" fill="black"></path>
				<path d="M 208 677 Q 189 676 203 659 Q 216 646 234 640 Q 253 636 269 639 Q 479 694 799 694 Q 818 694 839 693 Q 858 694 863 702 Q 867 712 852 726 Q 803 765 766 756 Q 624 726 208 677 Z" fill="black"></path>
				<path d="M 393 612 Q 383 616 350 618 Q 340 619 337 614 Q 331 608 341 595 Q 366 558 389 492 Q 395 473 408 460 Q 427 444 429 458 Q 430 467 430 479 L 423 511 Q 410 562 404 583 C 396 611 396 611 393 612 Z" fill="black"></path>
				<path d="M 644 531 Q 668 579 690 592 Q 706 608 693 624 Q 678 637 633 660 Q 617 667 597 660 Q 515 630 393 612 C 363 608 375 577 404 583 Q 407 584 578 617 Q 599 621 607 613 Q 613 607 599 546 C 592 517 630 504 644 531 Z" fill="black"></path>
				<path d="M 430 479 Q 451 489 644 508 Q 654 509 656 517 Q 656 523 644 531 L 599 546 Q 592 547 584 544 Q 494 522 423 511 C 393 506 402 469 430 479 Z" fill="black"></path>
				<path d="M 563 331 Q 650 386 681 392 Q 700 398 695 414 Q 694 430 631 467 Q 613 477 591 470 Q 521 448 414 421 Q 386 414 319 418 Q 297 419 304 399 Q 311 387 330 376 Q 358 358 391 377 Q 572 434 589 426 Q 599 419 595 407 Q 574 379 551 347 C 533 323 538 315 563 331 Z" fill="red"></path>
				<path d="M 551 347 Q 535 363 508 367 Q 490 371 483 364 Q 473 357 486 348 Q 519 330 532 294 Q 544 237 528 199 Q 518 180 493 183 Q 468 187 443 190 Q 433 191 437 183 Q 441 176 458 167 Q 492 142 506 121 Q 516 108 529 110 Q 539 113 560 137 Q 596 182 582 269 Q 575 309 563 331 L 551 347 Z" fill="lightgray"></path>
				<path d="M 244 154 Q 213 99 172 51 Q 148 15 161 -21 Q 168 -40 192 -30 Q 217 -15 237 17 Q 259 54 265 88 Q 275 122 270 151 Q 266 161 259 162 Q 250 162 244 154 Z" fill="lightgray"></path>
				<path d="M 377 111 Q 413 23 436 15 Q 449 9 461 25 Q 465 38 463 60 Q 459 81 437 97 Q 404 128 389 136 Q 380 140 376 129 Q 372 122 377 111 Z" fill="lightgray"></path>
				<path d="M 575 104 Q 615 26 640 21 Q 653 17 663 34 Q 667 47 662 68 Q 655 87 633 100 Q 600 124 585 129 Q 576 133 573 122 Q 570 113 575 104 Z" fill="lightgray"></path>
				<path d="M 715 154 Q 773 90 841 0 Q 856 -22 871 -29 Q 880 -30 889 -21 Q 904 -9 895 39 Q 889 85 812 132 Q 799 145 719 187 Q 710 194 707 180 Q 706 167 715 154 Z" fill="lightgray"></path>
</g>
		<text x="40" y="140" font-size="128" fill="#999999">6</text></g>
		<g id="id1:id1:id1" transform="matrix(1.0,0,0,1.0,1024,0.0)">			<g stroke="lightgray" stroke-width="4" transform="scale(4, 4)"> <rect x="0" y="0" width="256" height="256" fill="white" stroke-width="4"/></g>
			<g transform="scale(0.92, -0.92) translate(60, -920)">					<path d="M 487 802 Q 512 781 541 756 Q 557 743 573 745 Q 583 746 589 760 Q 593 776 581 807 Q 569 837 479 852 Q 463 855 456 851 Q 450 847 453 833 Q 457 823 487 802 Z" fill="black"></path>
				<path d="M 208 677 Q 189 676 203 659 Q 216 646 234 640 Q 253 636 269 639 Q 479 694 799 694 Q 818 694 839 693 Q 858 694 863 702 Q 867 712 852 726 Q 803 765 766 756 Q 624 726 208 677 Z" fill="black"></path>
				<path d="M 393 612 Q 383 616 350 618 Q 340 619 337 614 Q 331 608 341 595 Q 366 558 389 492 Q 395 473 408 460 Q 427 444 429 458 Q 430 467 430 479 L 423 511 Q 410 562 404 583 C 396 611 396 611 393 612 Z" fill="black"></path>
				<path d="M 644 531 Q 668 579 690 592 Q 706 608 693 624 Q 678 637 633 660 Q 617 667 597 660 Q 515 630 393 612 C 363 608 375 577 404 583 Q 407 584 578 617 Q 599 621 607 613 Q 613 607 599 546 C 592 517 630 504 644 531 Z" fill="black"></path>
				<path d="M 430 479 Q 451 489 644 508 Q 654 509 656 517 Q 656 523 644 531 L 599 546 Q 592 547 584 544 Q 494 522 423 511 C 393 506 402 469 430 479 Z" fill="black"></path>
				<path d="M 563 331 Q 650 386 681 392 Q 700 398 695 414 Q 694 430 631 467 Q 613 477 591 470 Q 521 448 414 421 Q 386 414 319 418 Q 297 419 304 399 Q 311 387 330 376 Q 358 358 391 377 Q 572 434 589 426 Q 599 419 595 407 Q 574 379 551 347 C 533 323 538 315 563 331 Z" fill="black"></path>
				<path d="M 551 347 Q 535 363 508 367 Q 490 371 483 364 Q 473 357 486 348 Q 519 330 532 294 Q 544 237 528 199 Q 518 180 493 183 Q 468 187 443 190 Q 433 191 437 183 Q 441 176 458 167 Q 492 142 506 121 Q 516 108 529 110 Q 539 113 560 137 Q 596 182 582 269 Q 575 309 563 331 L 551 347 Z" fill="red"></path>
				<path d="M 244 154 Q 213 99 172 51 Q 148 15 161 -21 Q 168 -40 192 -30 Q 217 -15 237 17 Q 259 54 265 88 Q 275 122 270 151 Q 266 161 259 162 Q 250 162 244 154 Z" fill="lightgray"></path>
				<path d="M 377 111 Q 413 23 436 15 Q 449 9 461 25 Q 465 38 463 60 Q 459 81 437 97 Q 404 128 389 136 Q 380 140 376 129 Q 372 122 377 111 Z" fill="lightgray"></path>
				<path d="M 575 104 Q 615 26 640 21 Q 653 17 663 34 Q 667 47 662 68 Q 655 87 633 100 Q 600 124 585 129 Q 576 133 573 122 Q 570 113 575 104 Z" fill="lightgray"></path>
				<path d="M 715 154 Q 773 90 841 0 Q 856 -22 871 -29 Q 880 -30 889 -21 Q 904 -9 895 39 Q 889 85 812 132 Q 799 145 719 187 Q 710 194 707 180 Q 706 167 715 154 Z" fill="lightgray"></path>
</g>
		<text x="40" y="140" font-size="128" fill="#999999">7</text></g>
		<g id="id1:id2:id2" transform="matrix(1.0,0,0,1.0,2048,0.0)">			<g stroke="lightgray" stroke-width="4" transform="scale(4, 4)"> <rect x="0" y="0" width="256" height="256" fill="white" stroke-width="4"/></g>
			<g transform="scale(0.92, -0.92) translate(60, -920)">					<path d="M 487 802 Q 512 781 541 756 Q 557 743 573 745 Q 583 746 589 760 Q 593 776 581 807 Q 569 837 479 852 Q 463 855 456 851 Q 450 847 453 833 Q 457 823 487 802 Z" fill="black"></path>
				<path d="M 208 677 Q 189 676 203 659 Q 216 646 234 640 Q 253 636 269 639 Q 479 694 799 694 Q 818 694 839 693 Q 858 694 863 702 Q 867 712 852 726 Q 803 765 766 756 Q 624 726 208 677 Z" fill="black"></path>
				<path d="M 393 612 Q 383 616 350 618 Q 340 619 337 614 Q 331 608 341 595 Q 366 558 389 492 Q 395 473 408 460 Q 427 444 429 458 Q 430 467 430 479 L 423 511 Q 410 562 404 583 C 396 611 396 611 393 612 Z" fill="black"></path>
				<path d="M 644 531 Q 668 579 690 592 Q 706 608 693 624 Q 678 637 633 660 Q 617 667 597 660 Q 515 630 393 612 C 363 608 375 577 404 583 Q 407 584 578 617 Q 599 621 607 613 Q 613 607 599 546 C 592 517 630 504 644 531 Z" fill="black"></path>
				<path d="M 430 479 Q 451 489 644 508 Q 654 509 656 517 Q 656 523 644 531 L 599 546 Q 592 547 584 544 Q 494 522 423 511 C 393 506 402 469 430 479 Z" fill="black"></path>
				<path d="M 563 331 Q 650 386 681 392 Q 700 398 695 414 Q 694 430 631 467 Q 613 477 591 470 Q 521 448 414 421 Q 386 414 319 418 Q 297 419 304 399 Q 311 387 330 376 Q 358 358 391 377 Q 572 434 589 426 Q 599 419 595 407 Q 574 379 551 347 C 533 323 538 315 563 331 Z" fill="black"></path>
				<path d="M 551 347 Q 535 363 508 367 Q 490 371 483 364 Q 473 357 486 348 Q 519 330 532 294 Q 544 237 528 199 Q 518 180 493 183 Q 468 187 443 190 Q 433 191 437 183 Q 441 176 458 167 Q 492 142 506 121 Q 516 108 529 110 Q 539 113 560 137 Q 596 182 582 269 Q 575 309 563 331 L 551 347 Z" fill="black"></path>
				<path d="M 244 154 Q 213 99 172 51 Q 148 15 161 -21 Q 168 -40 192 -30 Q 217 -15 237 17 Q 259 54 265 88 Q 275 122 270 151 Q 266 161 259 162 Q 250 162 244 154 Z" fill="red"></path>
				<path d="M 377 111 Q 413 23 436 15 Q 449 9 461 25 Q 465 38 463 60 Q 459 81 437 97 Q 404 128 389 136 Q 380 140 376 129 Q 372 122 377 111 Z" fill="lightgray"></path>
				<path d="M 575 104 Q 615 26 640 21 Q 653 17 663 34 Q 667 47 662 68 Q 655 87 633 100 Q 600 124 585 129 Q 576 133 573 122 Q 570 113 575 104 Z" fill="lightgray"></path>
				<path d="M 715 154 Q 773 90 841 0 Q 856 -22 871 -29 Q 880 -30 889 -21 Q 904 -9 895 39 Q 889 85 812 132 Q 799 145 719 187 Q 710 194 707 180 Q 706 167 715 154 Z" fill="lightgray"></path>
</g>
		<text x="40" y="140" font-size="128" fill="#999999">8</text></g>
		<g id="id1:id3:id3" transform="matrix(1.0,0,0,1.0,3072,0.0)">			<g stroke="lightgray" stroke-width="4" transform="scale(4, 4)"> <rect x="0" y="0" width="256" height="256" fill="white" stroke-width="4"/></g>
			<g transform="scale(0.92, -0.92) translate(60, -920)">					<path d="M 487 802 Q 512 781 541 756 Q 557 743 573 745 Q 583 746 589 760 Q 593 776 581 807 Q 569 837 479 852 Q 463 855 456 851 Q 450 847 453 833 Q 457 823 487 802 Z" fill="black"></path>
				<path d="M 208 677 Q 189 676 203 659 Q 216 646 234 640 Q 253 636 269 639 Q 479 694 799 694 Q 818 694 839 693 Q 858 694 863 702 Q 867 712 852 726 Q 803 765 766 756 Q 624 726 208 677 Z" fill="black"></path>
				<path d="M 393 612 Q 383 616 350 618 Q 340 619 337 614 Q 331 608 341 595 Q 366 558 389 492 Q 395 473 408 460 Q 427 444 429 458 Q 430 467 430 479 L 423 511 Q 410 562 404 583 C 396 611 396 611 393 612 Z" fill="black"></path>
				<path d="M 644 531 Q 668 579 690 592 Q 706 608 693 624 Q 678 637 633 660 Q 617 667 597 660 Q 515 630 393 612 C 363 608 375 577 404 583 Q 407 584 578 617 Q 599 621 607 613 Q 613 607 599 546 C 592 517 630 504 644 531 Z" fill="black"></path>
				<path d="M 430 479 Q 451 489 644 508 Q 654 509 656 517 Q 656 523 644 531 L 599 546 Q 592 547 584 544 Q 494 522 423 511 C 393 506 402 469 430 479 Z" fill="black"></path>
				<path d="M 563 331 Q 650 386 681 392 Q 700 398 695 414 Q 694 430 631 467 Q 613 477 591 470 Q 521 448 414 421 Q 386 414 319 418 Q 297 419 304 399 Q 311 387 330 376 Q 358 358 391 377 Q 572 434 589 426 Q 599 419 595 407 Q 574 379 551 347 C 533 323 538 315 563 331 Z" fill="black"></path>
				<path d="M 551 347 Q 535 363 508 367 Q 490 371 483 364 Q 473 357 486 348 Q 519 330 532 294 Q 544 237 528 199 Q 518 180 493 183 Q 468 187 443 190 Q 433 191 437 183 Q 441 176 458 167 Q 492 142 506 121 Q 516 108 529 110 Q 539 113 560 137 Q 596 182 582 269 Q 575 309 563 331 L 551 347 Z" fill="black"></path>
				<path d="M 244 154 Q 213 99 172 51 Q 148 15 161 -21 Q 168 -40 192 -30 Q 217 -15 237 17 Q 259 54 265 88 Q 275 122 270 151 Q 266 161 259 162 Q 250 162 244 154 Z" fill="black"></path>
				<path d="M 377 111 Q 413 23 436 15 Q 449 9 461 25 Q 465 38 463 60 Q 459 81 437 97 Q 404 128 389 136 Q 380 140 376 129 Q 372 122 377 111 Z" fill="red"></path>
				<path d="M 575 104 Q 615 26 640 21 Q 653 17 663 34 Q 667 47 662 68 Q 655 87 633 100 Q 600 124 585 129 Q 576 133 573 122 Q 570 113 575 104 Z" fill="lightgray"></path>
				<path d="M 715 154 Q 773 90 841 0 Q 856 -22 871 -29 Q 880 -30 889 -21 Q 904 -9 895 39 Q 889 85 812 132 Q 799 145 719 187 Q 710 194 707 180 Q 706 167 715 154 Z" fill="lightgray"></path>
</g>
		<text x="40" y="140" font-size="128" fill="#999999">9</text></g>
		<g id="id1:id4:id4" transform="matrix(1.0,0,0,1.0,4096,0.0)">			<g stroke="lightgray" stroke-width="4" transform="scale(4, 4)"> <rect x="0" y="0" width="256" height="256" fill="white" stroke-width="4"/></g>
			<g transform="scale(0.92, -0.92) translate(60, -920)">					<path d="M 487 802 Q 512 781 541 756 Q 557 743 573 745 Q 583 746 589 760 Q 593 776 581 807 Q 569 837 479 852 Q 463 855 456 851 Q 450 847 453 833 Q 457 823 487 802 Z" fill="black"></path>
				<path d="M 208 677 Q 189 676 203 659 Q 216 646 234 640 Q 253 636 269 639 Q 479 694 799 694 Q 818 694 839 693 Q 858 694 863 702 Q 867 712 852 726 Q 803 765 766 756 Q 624 726 208 677 Z" fill="black"></path>
				<path d="M 393 612 Q 383 616 350 618 Q 340 619 337 614 Q 331 608 341 595 Q 366 558 389 492 Q 395 473 408 460 Q 427 444 429 458 Q 430 467 430 479 L 423 511 Q 410 562 404 583 C 396 611 396 611 393 612 Z" fill="black"></path>
				<path d="M 644 531 Q 668 579 690 592 Q 706 608 693 624 Q 678 637 633 660 Q 617 667 597 660 Q 515 630 393 612 C 363 608 375 577 404 583 Q 407 584 578 617 Q 599 621 607 613 Q 613 607 599 546 C 592 517 630 504 644 531 Z" fill="black"></path>
				<path d="M 430 479 Q 451 489 644 508 Q 654 509 656 517 Q 656 523 644 531 L 599 546 Q 592 547 584 544 Q 494 522 423 511 C 393 506 402 469 430 479 Z" fill="black"></path>
				<path d="M 563 331 Q 650 386 681 392 Q 700 398 695 414 Q 694 430 631 467 Q 613 477 591 470 Q 521 448 414 421 Q 386 414 319 418 Q 297 419 304 399 Q 311 387 330 376 Q 358 358 391 377 Q 572 434 589 426 Q 599 419 595 407 Q 574 379 551 347 C 533 323 538 315 563 331 Z" fill="black"></path>
				<path d="M 551 347 Q 535 363 508 367 Q 490 371 483 364 Q 473 357 486 348 Q 519 330 532 294 Q 544 237 528 199 Q 518 180 493 183 Q 468 187 443 190 Q 433 191 437 183 Q 441 176 458 167 Q 492 142 506 121 Q 516 108 529 110 Q 539 113 560 137 Q 596 182 582 269 Q 575 309 563 331 L 551 347 Z" fill="black"></path>
				<path d="M 244 154 Q 213 99 172 51 Q 148 15 161 -21 Q 168 -40 192 -30 Q 217 -15 237 17 Q 259 54 265 88 Q 275 122 270 151 Q 266 161 259 162 Q 250 162 244 154 Z" fill="black"></path>
				<path d="M 377 111 Q 413 23 436 15 Q 449 9 461 25 Q 465 38 463 60 Q 459 81 437 97 Q 404 128 389 136 Q 380 140 376 129 Q 372 122 377 111 Z" fill="black"></path>
				<path d="M 575 104 Q 615 26 640 21 Q 653 17 663 34 Q 667 47 662 68 Q 655 87 633 100 Q 600 124 585 129 Q 576 133 573 122 Q 570 113 575 104 Z" fill="red"></path>
				<path d="M 715 154 Q 773 90 841 0 Q 856 -22 871 -29 Q 880 -30 889 -21 Q 904 -9 895 39 Q 889 85 812 132 Q 799 145 719 187 Q 710 194 707 180 Q 706 167 715 154 Z" fill="lightgray"></path>
</g>
		<text x="40" y="140" font-size="128" fill="#999999">10</text></g>
</g>
	<g id="id2:id2" transform="translate(0.0,2048)">
		<g id="id2:id0:id0" transform="matrix(1.0,0,0,1.0,0,0.0)">			<g stroke="lightgray" stroke-width="4" transform="scale(4, 4)"> <rect x="0" y="0" width="256" height="256" fill="white" stroke-width="4"/></g>
			<g transform="scale(0.92, -0.92) translate(60, -920)">					<path d="M 487 802 Q 512 781 541 756 Q 557 743 573 745 Q 583 746 589 760 Q 593 776 581 807 Q 569 837 479 852 Q 463 855 456 851 Q 450 847 453 833 Q 457 823 487 802 Z" fill="black"></path>
				<path d="M 208 677 Q 189 676 203 659 Q 216 646 234 640 Q 253 636 269 639 Q 479 694 799 694 Q 818 694 839 693 Q 858 694 863 702 Q 867 712 852 726 Q 803 765 766 756 Q 624 726 208 677 Z" fill="black"></path>
				<path d="M 393 612 Q 383 616 350 618 Q 340 619 337 614 Q 331 608 341 595 Q 366 558 389 492 Q 395 473 408 460 Q 427 444 429 458 Q 430 467 430 479 L 423 511 Q 410 562 404 583 C 396 611 396 611 393 612 Z" fill="black"></path>
				<path d="M 644 531 Q 668 579 690 592 Q 706 608 693 624 Q 678 637 633 660 Q 617 667 597 660 Q 515 630 393 612 C 363 608 375 577 404 583 Q 407 584 578 617 Q 599 621 607 613 Q 613 607 599 546 C 592 517 630 504 644 531 Z" fill="black"></path>
				<path d="M 430 479 Q 451 489 644 508 Q 654 509 656 517 Q 656 523 644 531 L 599 546 Q 592 547 584 544 Q 494 522 423 511 C 393 506 402 469 430 479 Z" fill="black"></path>
				<path d="M 563 331 Q 650 386 681 392 Q 700 398 695 414 Q 694 430 631 467 Q 613 477 591 470 Q 521 448 414 421 Q 386 414 319 418 Q 297 419 304 399 Q 311 387 330 376 Q 358 358 391 377 Q 572 434 589 426 Q 599 419 595 407 Q 574 379 551 347 C 533 323 538 315 563 331 Z" fill="black"></path>
				<path d="M 551 347 Q 535 363 508 367 Q 490 371 483 364 Q 473 357 486 348 Q 519 330 532 294 Q 544 237 528 199 Q 518 180 493 183 Q 468 187 443 190 Q 433 191 437 183 Q 441 176 458 167 Q 492 142 506 121 Q 516 108 529 110 Q 539 113 560 137 Q 596 182 582 269 Q 575 309 563 331 L 551 347 Z" fill="black"></path>
				<path d="M 244 154 Q 213 99 172 51 Q 148 15 161 -21 Q 168 -40 192 -30 Q 217 -15 237 17 Q 259 54 265 88 Q 275 122 270 151 Q 266 161 259 162 Q 250 162 244 154 Z" fill="black"></path>
				<path d="M 377 111 Q 413 23 436 15 Q 449 9 461 25 Q 465 38 463 60 Q 459 81 437 97 Q 404 128 389 136 Q 380 140 376 129 Q 372 122 377 111 Z" fill="black"></path>
				<path d="M 575 104 Q 615 26 640 21 Q 653 17 663 34 Q 667 47 662 68 Q 655 87 633 100 Q 600 124 585 129 Q 576 133 573 122 Q 570 113 575 104 Z" fill="black"></path>
				<path d="M 715 154 Q 773 90 841 0 Q 856 -22 871 -29 Q 880 -30 889 -21 Q 904 -9 895 39 Q 889 85 812 132 Q 799 145 719 187 Q 710 194 707 180 Q 706 167 715 154 Z" fill="red"></path>
</g>
		<text x="40" y="140" font-size="128" fill="#999999">11</text></g>
		<g id="id2:id1:id1" transform="matrix(1.0,0,0,1.0,1024,0.0)">			<g stroke="white" stroke-width="4" transform="scale(4, 4)"> <rect x="1" y="1" width="255" height="255" fill="white" stroke-width="0"/></g>
</g>
		<g id="id2:id2:id2" transform="matrix(1.0,0,0,1.0,2048,0.0)">			<g stroke="white" stroke-width="4" transform="scale(4, 4)"> <rect x="1" y="1" width="255" height="255" fill="white" stroke-width="0"/></g>
</g>
		<g id="id2:id3:id3" transform="matrix(1.0,0,0,1.0,3072,0.0)">			<g stroke="white" stroke-width="4" transform="scale(4, 4)"> <rect x="1" y="1" width="255" height="255" fill="white" stroke-width="0"/></g>
</g>
		<g id="id2:id4:id4" transform="matrix(1.0,0,0,1.0,4096,0.0)">			<g stroke="white" stroke-width="4" transform="scale(4, 4)"> <rect x="1" y="1" width="255" height="255" fill="white" stroke-width="0"/></g>
</g>
</g>
</svg>
