<?xml version="1.0" standalone="no"?>
<!DOCTYPE svg PUBLIC "-//W3C//DTD SVG 1.1//EN"
 "http://www.w3.org/Graphics/SVG/1.1/DTD/svg11.dtd">
<!-- generate by Japanese dictionary app com.asnsami.kanjidictionary -->

<svg xmlns="http://www.w3.org/2000/svg" xmlns:sodipodi="http://sodipodi.sourceforge.net/DTD/sodipodi-0.dtd" version="1.1" width="640" height="384" viewBox="0 0 5120 3072">
	<g id="id0:id0" transform="translate(0.0,0)">
		<g id="id0:id0:id0" transform="matrix(1.0,0,0,1.0,0,0.0)">			<g stroke="lightgray" stroke-width="4" transform="scale(4, 4)"> <rect x="0" y="0" width="256" height="256" fill="white" stroke-width="4"/></g>
			<g transform="scale(0.92, -0.92) translate(60, -920)">					<path d="M 243 735 Q 233 745 211 753 Q 202 757 192 753 Q 185 749 190 737 Q 208 682 212 567 Q 206 425 200 394 Q 176 346 219 297 Q 229 284 238 296 Q 248 312 249 329 L 251 362 Q 251 372 252 518 L 252 551 Q 253 684 255 696 Q 256 705 256 711 C 257 725 257 725 243 735 Z" fill="red"></path>
				<path d="M 361 345 Q 371 329 383 311 Q 398 289 405 292 Q 415 293 427 323 Q 433 339 434 419 Q 419 689 438 724 Q 448 740 440 751 Q 433 761 387 774 Q 365 781 349 772 Q 291 745 243 735 C 214 728 227 703 256 711 Q 257 712 261 713 Q 291 720 326 731 Q 357 741 368 731 Q 380 719 380 675 Q 386 491 379 390 Q 380 378 376 373 C 371 343 353 358 361 345 Z" fill="lightgray"></path>
				<path d="M 252 518 Q 301 528 338 536 Q 359 542 350 553 Q 338 566 314 567 Q 292 568 254 553 Q 253 552 252 551 C 229 532 223 512 252 518 Z" fill="lightgray"></path>
				<path d="M 249 329 Q 253 329 260 330 Q 294 337 361 345 C 391 349 399 354 376 373 Q 372 377 363 382 Q 348 389 320 381 Q 281 369 251 362 C 222 355 219 327 249 329 Z" fill="lightgray"></path>
				<path d="M 632 735 Q 692 751 743 758 Q 762 761 765 755 Q 772 745 768 719 Q 762 647 745 616 Q 727 585 701 591 Q 679 597 659 605 Q 635 612 651 589 Q 690 549 707 518 Q 720 500 736 513 Q 791 546 824 697 Q 831 734 847 752 Q 859 765 853 774 Q 844 784 796 807 Q 777 816 759 803 Q 738 790 657 772 Q 575 751 506 747 Q 490 746 488 738 Q 487 731 508 720 Q 530 707 548 713 Q 572 720 597 726 L 632 735 Z" fill="lightgray"></path>
				<path d="M 597 726 L 598 724 Q 604 643 464 479 Q 452 476 452 463 Q 452 459 457 459 Q 535 477 630 644 Q 639 662 657 686 Q 663 695 656 707 Q 644 726 632 735 C 610 755 594 756 597 726 Z" fill="lightgray"></path>
				<path d="M 543 450 Q 533 454 514 456 Q 504 459 500 454 Q 496 448 503 434 Q 525 388 541 312 Q 544 290 557 274 Q 573 255 578 269 Q 582 279 581 295 L 577 326 Q 564 402 563 423 C 561 444 561 444 543 450 Z" fill="lightgray"></path>
				<path d="M 775 347 Q 796 405 825 426 Q 841 444 827 460 Q 811 473 762 496 Q 746 503 674 477 Q 599 459 543 450 C 513 445 533 418 563 423 Q 647 438 732 452 Q 733 451 735 449 Q 742 442 741 428 Q 734 386 725 353 C 717 324 764 319 775 347 Z" fill="lightgray"></path>
				<path d="M 581 295 Q 585 294 596 295 Q 656 308 784 316 Q 794 317 795 325 Q 795 332 775 347 C 759 359 754 359 725 353 L 724 353 Q 642 335 577 326 C 547 322 551 297 581 295 Z" fill="lightgray"></path>
				<path d="M 206 209 Q 176 148 136 95 Q 112 64 129 26 Q 136 7 159 18 Q 216 58 228 147 Q 235 181 230 207 Q 226 216 220 217 Q 210 217 206 209 Z" fill="lightgray"></path>
				<path d="M 340 184 Q 371 118 403 87 Q 416 81 428 90 Q 437 100 439 115 Q 439 160 362 215 Q 349 224 339 223 Q 333 223 332 212 Q 331 202 340 184 Z" fill="lightgray"></path>
				<path d="M 532 192 Q 566 123 599 91 Q 612 84 624 94 Q 633 104 635 119 Q 635 164 555 222 L 554 223 Q 541 232 531 231 Q 525 231 524 220 Q 523 210 532 192 Z" fill="lightgray"></path>
				<path d="M 725 207 Q 779 140 840 46 Q 853 24 868 16 Q 875 13 885 22 Q 900 34 894 80 Q 890 137 731 238 Q 722 245 719 232 Q 716 219 725 207 Z" fill="lightgray"></path>
</g>
		<text x="40" y="140" font-size="128" fill="#999999">1</text></g>
		<g id="id0:id1:id1" transform="matrix(1.0,0,0,1.0,1024,0.0)">			<g stroke="lightgray" stroke-width="4" transform="scale(4, 4)"> <rect x="0" y="0" width="256" height="256" fill="white" stroke-width="4"/></g>
			<g transform="scale(0.92, -0.92) translate(60, -920)">					<path d="M 243 735 Q 233 745 211 753 Q 202 757 192 753 Q 185 749 190 737 Q 208 682 212 567 Q 206 425 200 394 Q 176 346 219 297 Q 229 284 238 296 Q 248 312 249 329 L 251 362 Q 251 372 252 518 L 252 551 Q 253 684 255 696 Q 256 705 256 711 C 257 725 257 725 243 735 Z" fill="black"></path>
				<path d="M 361 345 Q 371 329 383 311 Q 398 289 405 292 Q 415 293 427 323 Q 433 339 434 419 Q 419 689 438 724 Q 448 740 440 751 Q 433 761 387 774 Q 365 781 349 772 Q 291 745 243 735 C 214 728 227 703 256 711 Q 257 712 261 713 Q 291 720 326 731 Q 357 741 368 731 Q 380 719 380 675 Q 386 491 379 390 Q 380 378 376 373 C 371 343 353 358 361 345 Z" fill="red"></path>
				<path d="M 252 518 Q 301 528 338 536 Q 359 542 350 553 Q 338 566 314 567 Q 292 568 254 553 Q 253 552 252 551 C 229 532 223 512 252 518 Z" fill="lightgray"></path>
				<path d="M 249 329 Q 253 329 260 330 Q 294 337 361 345 C 391 349 399 354 376 373 Q 372 377 363 382 Q 348 389 320 381 Q 281 369 251 362 C 222 355 219 327 249 329 Z" fill="lightgray"></path>
				<path d="M 632 735 Q 692 751 743 758 Q 762 761 765 755 Q 772 745 768 719 Q 762 647 745 616 Q 727 585 701 591 Q 679 597 659 605 Q 635 612 651 589 Q 690 549 707 518 Q 720 500 736 513 Q 791 546 824 697 Q 831 734 847 752 Q 859 765 853 774 Q 844 784 796 807 Q 777 816 759 803 Q 738 790 657 772 Q 575 751 506 747 Q 490 746 488 738 Q 487 731 508 720 Q 530 707 548 713 Q 572 720 597 726 L 632 735 Z" fill="lightgray"></path>
				<path d="M 597 726 L 598 724 Q 604 643 464 479 Q 452 476 452 463 Q 452 459 457 459 Q 535 477 630 644 Q 639 662 657 686 Q 663 695 656 707 Q 644 726 632 735 C 610 755 594 756 597 726 Z" fill="lightgray"></path>
				<path d="M 543 450 Q 533 454 514 456 Q 504 459 500 454 Q 496 448 503 434 Q 525 388 541 312 Q 544 290 557 274 Q 573 255 578 269 Q 582 279 581 295 L 577 326 Q 564 402 563 423 C 561 444 561 444 543 450 Z" fill="lightgray"></path>
				<path d="M 775 347 Q 796 405 825 426 Q 841 444 827 460 Q 811 473 762 496 Q 746 503 674 477 Q 599 459 543 450 C 513 445 533 418 563 423 Q 647 438 732 452 Q 733 451 735 449 Q 742 442 741 428 Q 734 386 725 353 C 717 324 764 319 775 347 Z" fill="lightgray"></path>
				<path d="M 581 295 Q 585 294 596 295 Q 656 308 784 316 Q 794 317 795 325 Q 795 332 775 347 C 759 359 754 359 725 353 L 724 353 Q 642 335 577 326 C 547 322 551 297 581 295 Z" fill="lightgray"></path>
				<path d="M 206 209 Q 176 148 136 95 Q 112 64 129 26 Q 136 7 159 18 Q 216 58 228 147 Q 235 181 230 207 Q 226 216 220 217 Q 210 217 206 209 Z" fill="lightgray"></path>
				<path d="M 340 184 Q 371 118 403 87 Q 416 81 428 90 Q 437 100 439 115 Q 439 160 362 215 Q 349 224 339 223 Q 333 223 332 212 Q 331 202 340 184 Z" fill="lightgray"></path>
				<path d="M 532 192 Q 566 123 599 91 Q 612 84 624 94 Q 633 104 635 119 Q 635 164 555 222 L 554 223 Q 541 232 531 231 Q 525 231 524 220 Q 523 210 532 192 Z" fill="lightgray"></path>
				<path d="M 725 207 Q 779 140 840 46 Q 853 24 868 16 Q 875 13 885 22 Q 900 34 894 80 Q 890 137 731 238 Q 722 245 719 232 Q 716 219 725 207 Z" fill="lightgray"></path>
</g>
		<text x="40" y="140" font-size="128" fill="#999999">2</text></g>
		<g id="id0:id2:id2" transform="matrix(1.0,0,0,1.0,2048,0.0)">			<g stroke="lightgray" stroke-width="4" transform="scale(4, 4)"> <rect x="0" y="0" width="256" height="256" fill="white" stroke-width="4"/></g>
			<g transform="scale(0.92, -0.92) translate(60, -920)">					<path d="M 243 735 Q 233 745 211 753 Q 202 757 192 753 Q 185 749 190 737 Q 208 682 212 567 Q 206 425 200 394 Q 176 346 219 297 Q 229 284 238 296 Q 248 312 249 329 L 251 362 Q 251 372 252 518 L 252 551 Q 253 684 255 696 Q 256 705 256 711 C 257 725 257 725 243 735 Z" fill="black"></path>
				<path d="M 361 345 Q 371 329 383 311 Q 398 289 405 292 Q 415 293 427 323 Q 433 339 434 419 Q 419 689 438 724 Q 448 740 440 751 Q 433 761 387 774 Q 365 781 349 772 Q 291 745 243 735 C 214 728 227 703 256 711 Q 257 712 261 713 Q 291 720 326 731 Q 357 741 368 731 Q 380 719 380 675 Q 386 491 379 390 Q 380 378 376 373 C 371 343 353 358 361 345 Z" fill="black"></path>
				<path d="M 252 518 Q 301 528 338 536 Q 359 542 350 553 Q 338 566 314 567 Q 292 568 254 553 Q 253 552 252 551 C 229 532 223 512 252 518 Z" fill="red"></path>
				<path d="M 249 329 Q 253 329 260 330 Q 294 337 361 345 C 391 349 399 354 376 373 Q 372 377 363 382 Q 348 389 320 381 Q 281 369 251 362 C 222 355 219 327 249 329 Z" fill="lightgray"></path>
				<path d="M 632 735 Q 692 751 743 758 Q 762 761 765 755 Q 772 745 768 719 Q 762 647 745 616 Q 727 585 701 591 Q 679 597 659 605 Q 635 612 651 589 Q 690 549 707 518 Q 720 500 736 513 Q 791 546 824 697 Q 831 734 847 752 Q 859 765 853 774 Q 844 784 796 807 Q 777 816 759 803 Q 738 790 657 772 Q 575 751 506 747 Q 490 746 488 738 Q 487 731 508 720 Q 530 707 548 713 Q 572 720 597 726 L 632 735 Z" fill="lightgray"></path>
				<path d="M 597 726 L 598 724 Q 604 643 464 479 Q 452 476 452 463 Q 452 459 457 459 Q 535 477 630 644 Q 639 662 657 686 Q 663 695 656 707 Q 644 726 632 735 C 610 755 594 756 597 726 Z" fill="lightgray"></path>
				<path d="M 543 450 Q 533 454 514 456 Q 504 459 500 454 Q 496 448 503 434 Q 525 388 541 312 Q 544 290 557 274 Q 573 255 578 269 Q 582 279 581 295 L 577 326 Q 564 402 563 423 C 561 444 561 444 543 450 Z" fill="lightgray"></path>
				<path d="M 775 347 Q 796 405 825 426 Q 841 444 827 460 Q 811 473 762 496 Q 746 503 674 477 Q 599 459 543 450 C 513 445 533 418 563 423 Q 647 438 732 452 Q 733 451 735 449 Q 742 442 741 428 Q 734 386 725 353 C 717 324 764 319 775 347 Z" fill="lightgray"></path>
				<path d="M 581 295 Q 585 294 596 295 Q 656 308 784 316 Q 794 317 795 325 Q 795 332 775 347 C 759 359 754 359 725 353 L 724 353 Q 642 335 577 326 C 547 322 551 297 581 295 Z" fill="lightgray"></path>
				<path d="M 206 209 Q 176 148 136 95 Q 112 64 129 26 Q 136 7 159 18 Q 216 58 228 147 Q 235 181 230 207 Q 226 216 220 217 Q 210 217 206 209 Z" fill="lightgray"></path>
				<path d="M 340 184 Q 371 118 403 87 Q 416 81 428 90 Q 437 100 439 115 Q 439 160 362 215 Q 349 224 339 223 Q 333 223 332 212 Q 331 202 340 184 Z" fill="lightgray"></path>
				<path d="M 532 192 Q 566 123 599 91 Q 612 84 624 94 Q 633 104 635 119 Q 635 164 555 222 L 554 223 Q 541 232 531 231 Q 525 231 524 220 Q 523 210 532 192 Z" fill="lightgray"></path>
				<path d="M 725 207 Q 779 140 840 46 Q 853 24 868 16 Q 875 13 885 22 Q 900 34 894 80 Q 890 137 731 238 Q 722 245 719 232 Q 716 219 725 207 Z" fill="lightgray"></path>
</g>
		<text x="40" y="140" font-size="128" fill="#999999">3</text></g>
		<g id="id0:id3:id3" transform="matrix(1.0,0,0,1.0,3072,0.0)">			<g stroke="lightgray" stroke-width="4" transform="scale(4, 4)"> <rect x="0" y="0" width="256" height="256" fill="white" stroke-width="4"/></g>
			<g transform="scale(0.92, -0.92) translate(60, -920)">					<path d="M 243 735 Q 233 745 211 753 Q 202 757 192 753 Q 185 749 190 737 Q 208 682 212 567 Q 206 425 200 394 Q 176 346 219 297 Q 229 284 238 296 Q 248 312 249 329 L 251 362 Q 251 372 252 518 L 252 551 Q 253 684 255 696 Q 256 705 256 711 C 257 725 257 725 243 735 Z" fill="black"></path>
				<path d="M 361 345 Q 371 329 383 311 Q 398 289 405 292 Q 415 293 427 323 Q 433 339 434 419 Q 419 689 438 724 Q 448 740 440 751 Q 433 761 387 774 Q 365 781 349 772 Q 291 745 243 735 C 214 728 227 703 256 711 Q 257 712 261 713 Q 291 720 326 731 Q 357 741 368 731 Q 380 719 380 675 Q 386 491 379 390 Q 380 378 376 373 C 371 343 353 358 361 345 Z" fill="black"></path>
				<path d="M 252 518 Q 301 528 338 536 Q 359 542 350 553 Q 338 566 314 567 Q 292 568 254 553 Q 253 552 252 551 C 229 532 223 512 252 518 Z" fill="black"></path>
				<path d="M 249 329 Q 253 329 260 330 Q 294 337 361 345 C 391 349 399 354 376 373 Q 372 377 363 382 Q 348 389 320 381 Q 281 369 251 362 C 222 355 219 327 249 329 Z" fill="red"></path>
				<path d="M 632 735 Q 692 751 743 758 Q 762 761 765 755 Q 772 745 768 719 Q 762 647 745 616 Q 727 585 701 591 Q 679 597 659 605 Q 635 612 651 589 Q 690 549 707 518 Q 720 500 736 513 Q 791 546 824 697 Q 831 734 847 752 Q 859 765 853 774 Q 844 784 796 807 Q 777 816 759 803 Q 738 790 657 772 Q 575 751 506 747 Q 490 746 488 738 Q 487 731 508 720 Q 530 707 548 713 Q 572 720 597 726 L 632 735 Z" fill="lightgray"></path>
				<path d="M 597 726 L 598 724 Q 604 643 464 479 Q 452 476 452 463 Q 452 459 457 459 Q 535 477 630 644 Q 639 662 657 686 Q 663 695 656 707 Q 644 726 632 735 C 610 755 594 756 597 726 Z" fill="lightgray"></path>
				<path d="M 543 450 Q 533 454 514 456 Q 504 459 500 454 Q 496 448 503 434 Q 525 388 541 312 Q 544 290 557 274 Q 573 255 578 269 Q 582 279 581 295 L 577 326 Q 564 402 563 423 C 561 444 561 444 543 450 Z" fill="lightgray"></path>
				<path d="M 775 347 Q 796 405 825 426 Q 841 444 827 460 Q 811 473 762 496 Q 746 503 674 477 Q 599 459 543 450 C 513 445 533 418 563 423 Q 647 438 732 452 Q 733 451 735 449 Q 742 442 741 428 Q 734 386 725 353 C 717 324 764 319 775 347 Z" fill="lightgray"></path>
				<path d="M 581 295 Q 585 294 596 295 Q 656 308 784 316 Q 794 317 795 325 Q 795 332 775 347 C 759 359 754 359 725 353 L 724 353 Q 642 335 577 326 C 547 322 551 297 581 295 Z" fill="lightgray"></path>
				<path d="M 206 209 Q 176 148 136 95 Q 112 64 129 26 Q 136 7 159 18 Q 216 58 228 147 Q 235 181 230 207 Q 226 216 220 217 Q 210 217 206 209 Z" fill="lightgray"></path>
				<path d="M 340 184 Q 371 118 403 87 Q 416 81 428 90 Q 437 100 439 115 Q 439 160 362 215 Q 349 224 339 223 Q 333 223 332 212 Q 331 202 340 184 Z" fill="lightgray"></path>
				<path d="M 532 192 Q 566 123 599 91 Q 612 84 624 94 Q 633 104 635 119 Q 635 164 555 222 L 554 223 Q 541 232 531 231 Q 525 231 524 220 Q 523 210 532 192 Z" fill="lightgray"></path>
				<path d="M 725 207 Q 779 140 840 46 Q 853 24 868 16 Q 875 13 885 22 Q 900 34 894 80 Q 890 137 731 238 Q 722 245 719 232 Q 716 219 725 207 Z" fill="lightgray"></path>
</g>
		<text x="40" y="140" font-size="128" fill="#999999">4</text></g>
		<g id="id0:id4:id4" transform="matrix(1.0,0,0,1.0,4096,0.0)">			<g stroke="lightgray" stroke-width="4" transform="scale(4, 4)"> <rect x="0" y="0" width="256" height="256" fill="white" stroke-width="4"/></g>
			<g transform="scale(0.92, -0.92) translate(60, -920)">					<path d="M 243 735 Q 233 745 211 753 Q 202 757 192 753 Q 185 749 190 737 Q 208 682 212 567 Q 206 425 200 394 Q 176 346 219 297 Q 229 284 238 296 Q 248 312 249 329 L 251 362 Q 251 372 252 518 L 252 551 Q 253 684 255 696 Q 256 705 256 711 C 257 725 257 725 243 735 Z" fill="black"></path>
				<path d="M 361 345 Q 371 329 383 311 Q 398 289 405 292 Q 415 293 427 323 Q 433 339 434 419 Q 419 689 438 724 Q 448 740 440 751 Q 433 761 387 774 Q 365 781 349 772 Q 291 745 243 735 C 214 728 227 703 256 711 Q 257 712 261 713 Q 291 720 326 731 Q 357 741 368 731 Q 380 719 380 675 Q 386 491 379 390 Q 380 378 376 373 C 371 343 353 358 361 345 Z" fill="black"></path>
				<path d="M 252 518 Q 301 528 338 536 Q 359 542 350 553 Q 338 566 314 567 Q 292 568 254 553 Q 253 552 252 551 C 229 532 223 512 252 518 Z" fill="black"></path>
				<path d="M 249 329 Q 253 329 260 330 Q 294 337 361 345 C 391 349 399 354 376 373 Q 372 377 363 382 Q 348 389 320 381 Q 281 369 251 362 C 222 355 219 327 249 329 Z" fill="black"></path>
				<path d="M 632 735 Q 692 751 743 758 Q 762 761 765 755 Q 772 745 768 719 Q 762 647 745 616 Q 727 585 701 591 Q 679 597 659 605 Q 635 612 651 589 Q 690 549 707 518 Q 720 500 736 513 Q 791 546 824 697 Q 831 734 847 752 Q 859 765 853 774 Q 844 784 796 807 Q 777 816 759 803 Q 738 790 657 772 Q 575 751 506 747 Q 490 746 488 738 Q 487 731 508 720 Q 530 707 548 713 Q 572 720 597 726 L 632 735 Z" fill="red"></path>
				<path d="M 597 726 L 598 724 Q 604 643 464 479 Q 452 476 452 463 Q 452 459 457 459 Q 535 477 630 644 Q 639 662 657 686 Q 663 695 656 707 Q 644 726 632 735 C 610 755 594 756 597 726 Z" fill="lightgray"></path>
				<path d="M 543 450 Q 533 454 514 456 Q 504 459 500 454 Q 496 448 503 434 Q 525 388 541 312 Q 544 290 557 274 Q 573 255 578 269 Q 582 279 581 295 L 577 326 Q 564 402 563 423 C 561 444 561 444 543 450 Z" fill="lightgray"></path>
				<path d="M 775 347 Q 796 405 825 426 Q 841 444 827 460 Q 811 473 762 496 Q 746 503 674 477 Q 599 459 543 450 C 513 445 533 418 563 423 Q 647 438 732 452 Q 733 451 735 449 Q 742 442 741 428 Q 734 386 725 353 C 717 324 764 319 775 347 Z" fill="lightgray"></path>
				<path d="M 581 295 Q 585 294 596 295 Q 656 308 784 316 Q 794 317 795 325 Q 795 332 775 347 C 759 359 754 359 725 353 L 724 353 Q 642 335 577 326 C 547 322 551 297 581 295 Z" fill="lightgray"></path>
				<path d="M 206 209 Q 176 148 136 95 Q 112 64 129 26 Q 136 7 159 18 Q 216 58 228 147 Q 235 181 230 207 Q 226 216 220 217 Q 210 217 206 209 Z" fill="lightgray"></path>
				<path d="M 340 184 Q 371 118 403 87 Q 416 81 428 90 Q 437 100 439 115 Q 439 160 362 215 Q 349 224 339 223 Q 333 223 332 212 Q 331 202 340 184 Z" fill="lightgray"></path>
				<path d="M 532 192 Q 566 123 599 91 Q 612 84 624 94 Q 633 104 635 119 Q 635 164 555 222 L 554 223 Q 541 232 531 231 Q 525 231 524 220 Q 523 210 532 192 Z" fill="lightgray"></path>
				<path d="M 725 207 Q 779 140 840 46 Q 853 24 868 16 Q 875 13 885 22 Q 900 34 894 80 Q 890 137 731 238 Q 722 245 719 232 Q 716 219 725 207 Z" fill="lightgray"></path>
</g>
		<text x="40" y="140" font-size="128" fill="#999999">5</text></g>
</g>
	<g id="id1:id1" transform="translate(0.0,1024)">
		<g id="id1:id0:id0" transform="matrix(1.0,0,0,1.0,0,0.0)">			<g stroke="lightgray" stroke-width="4" transform="scale(4, 4)"> <rect x="0" y="0" width="256" height="256" fill="white" stroke-width="4"/></g>
			<g transform="scale(0.92, -0.92) translate(60, -920)">					<path d="M 243 735 Q 233 745 211 753 Q 202 757 192 753 Q 185 749 190 737 Q 208 682 212 567 Q 206 425 200 394 Q 176 346 219 297 Q 229 284 238 296 Q 248 312 249 329 L 251 362 Q 251 372 252 518 L 252 551 Q 253 684 255 696 Q 256 705 256 711 C 257 725 257 725 243 735 Z" fill="black"></path>
				<path d="M 361 345 Q 371 329 383 311 Q 398 289 405 292 Q 415 293 427 323 Q 433 339 434 419 Q 419 689 438 724 Q 448 740 440 751 Q 433 761 387 774 Q 365 781 349 772 Q 291 745 243 735 C 214 728 227 703 256 711 Q 257 712 261 713 Q 291 720 326 731 Q 357 741 368 731 Q 380 719 380 675 Q 386 491 379 390 Q 380 378 376 373 C 371 343 353 358 361 345 Z" fill="black"></path>
				<path d="M 252 518 Q 301 528 338 536 Q 359 542 350 553 Q 338 566 314 567 Q 292 568 254 553 Q 253 552 252 551 C 229 532 223 512 252 518 Z" fill="black"></path>
				<path d="M 249 329 Q 253 329 260 330 Q 294 337 361 345 C 391 349 399 354 376 373 Q 372 377 363 382 Q 348 389 320 381 Q 281 369 251 362 C 222 355 219 327 249 329 Z" fill="black"></path>
				<path d="M 632 735 Q 692 751 743 758 Q 762 761 765 755 Q 772 745 768 719 Q 762 647 745 616 Q 727 585 701 591 Q 679 597 659 605 Q 635 612 651 589 Q 690 549 707 518 Q 720 500 736 513 Q 791 546 824 697 Q 831 734 847 752 Q 859 765 853 774 Q 844 784 796 807 Q 777 816 759 803 Q 738 790 657 772 Q 575 751 506 747 Q 490 746 488 738 Q 487 731 508 720 Q 530 707 548 713 Q 572 720 597 726 L 632 735 Z" fill="black"></path>
				<path d="M 597 726 L 598 724 Q 604 643 464 479 Q 452 476 452 463 Q 452 459 457 459 Q 535 477 630 644 Q 639 662 657 686 Q 663 695 656 707 Q 644 726 632 735 C 610 755 594 756 597 726 Z" fill="red"></path>
				<path d="M 543 450 Q 533 454 514 456 Q 504 459 500 454 Q 496 448 503 434 Q 525 388 541 312 Q 544 290 557 274 Q 573 255 578 269 Q 582 279 581 295 L 577 326 Q 564 402 563 423 C 561 444 561 444 543 450 Z" fill="lightgray"></path>
				<path d="M 775 347 Q 796 405 825 426 Q 841 444 827 460 Q 811 473 762 496 Q 746 503 674 477 Q 599 459 543 450 C 513 445 533 418 563 423 Q 647 438 732 452 Q 733 451 735 449 Q 742 442 741 428 Q 734 386 725 353 C 717 324 764 319 775 347 Z" fill="lightgray"></path>
				<path d="M 581 295 Q 585 294 596 295 Q 656 308 784 316 Q 794 317 795 325 Q 795 332 775 347 C 759 359 754 359 725 353 L 724 353 Q 642 335 577 326 C 547 322 551 297 581 295 Z" fill="lightgray"></path>
				<path d="M 206 209 Q 176 148 136 95 Q 112 64 129 26 Q 136 7 159 18 Q 216 58 228 147 Q 235 181 230 207 Q 226 216 220 217 Q 210 217 206 209 Z" fill="lightgray"></path>
				<path d="M 340 184 Q 371 118 403 87 Q 416 81 428 90 Q 437 100 439 115 Q 439 160 362 215 Q 349 224 339 223 Q 333 223 332 212 Q 331 202 340 184 Z" fill="lightgray"></path>
				<path d="M 532 192 Q 566 123 599 91 Q 612 84 624 94 Q 633 104 635 119 Q 635 164 555 222 L 554 223 Q 541 232 531 231 Q 525 231 524 220 Q 523 210 532 192 Z" fill="lightgray"></path>
				<path d="M 725 207 Q 779 140 840 46 Q 853 24 868 16 Q 875 13 885 22 Q 900 34 894 80 Q 890 137 731 238 Q 722 245 719 232 Q 716 219 725 207 Z" fill="lightgray"></path>
</g>
		<text x="40" y="140" font-size="128" fill="#999999">6</text></g>
		<g id="id1:id1:id1" transform="matrix(1.0,0,0,1.0,1024,0.0)">			<g stroke="lightgray" stroke-width="4" transform="scale(4, 4)"> <rect x="0" y="0" width="256" height="256" fill="white" stroke-width="4"/></g>
			<g transform="scale(0.92, -0.92) translate(60, -920)">					<path d="M 243 735 Q 233 745 211 753 Q 202 757 192 753 Q 185 749 190 737 Q 208 682 212 567 Q 206 425 200 394 Q 176 346 219 297 Q 229 284 238 296 Q 248 312 249 329 L 251 362 Q 251 372 252 518 L 252 551 Q 253 684 255 696 Q 256 705 256 711 C 257 725 257 725 243 735 Z" fill="black"></path>
				<path d="M 361 345 Q 371 329 383 311 Q 398 289 405 292 Q 415 293 427 323 Q 433 339 434 419 Q 419 689 438 724 Q 448 740 440 751 Q 433 761 387 774 Q 365 781 349 772 Q 291 745 243 735 C 214 728 227 703 256 711 Q 257 712 261 713 Q 291 720 326 731 Q 357 741 368 731 Q 380 719 380 675 Q 386 491 379 390 Q 380 378 376 373 C 371 343 353 358 361 345 Z" fill="black"></path>
				<path d="M 252 518 Q 301 528 338 536 Q 359 542 350 553 Q 338 566 314 567 Q 292 568 254 553 Q 253 552 252 551 C 229 532 223 512 252 518 Z" fill="black"></path>
				<path d="M 249 329 Q 253 329 260 330 Q 294 337 361 345 C 391 349 399 354 376 373 Q 372 377 363 382 Q 348 389 320 381 Q 281 369 251 362 C 222 355 219 327 249 329 Z" fill="black"></path>
				<path d="M 632 735 Q 692 751 743 758 Q 762 761 765 755 Q 772 745 768 719 Q 762 647 745 616 Q 727 585 701 591 Q 679 597 659 605 Q 635 612 651 589 Q 690 549 707 518 Q 720 500 736 513 Q 791 546 824 697 Q 831 734 847 752 Q 859 765 853 774 Q 844 784 796 807 Q 777 816 759 803 Q 738 790 657 772 Q 575 751 506 747 Q 490 746 488 738 Q 487 731 508 720 Q 530 707 548 713 Q 572 720 597 726 L 632 735 Z" fill="black"></path>
				<path d="M 597 726 L 598 724 Q 604 643 464 479 Q 452 476 452 463 Q 452 459 457 459 Q 535 477 630 644 Q 639 662 657 686 Q 663 695 656 707 Q 644 726 632 735 C 610 755 594 756 597 726 Z" fill="black"></path>
				<path d="M 543 450 Q 533 454 514 456 Q 504 459 500 454 Q 496 448 503 434 Q 525 388 541 312 Q 544 290 557 274 Q 573 255 578 269 Q 582 279 581 295 L 577 326 Q 564 402 563 423 C 561 444 561 444 543 450 Z" fill="red"></path>
				<path d="M 775 347 Q 796 405 825 426 Q 841 444 827 460 Q 811 473 762 496 Q 746 503 674 477 Q 599 459 543 450 C 513 445 533 418 563 423 Q 647 438 732 452 Q 733 451 735 449 Q 742 442 741 428 Q 734 386 725 353 C 717 324 764 319 775 347 Z" fill="lightgray"></path>
				<path d="M 581 295 Q 585 294 596 295 Q 656 308 784 316 Q 794 317 795 325 Q 795 332 775 347 C 759 359 754 359 725 353 L 724 353 Q 642 335 577 326 C 547 322 551 297 581 295 Z" fill="lightgray"></path>
				<path d="M 206 209 Q 176 148 136 95 Q 112 64 129 26 Q 136 7 159 18 Q 216 58 228 147 Q 235 181 230 207 Q 226 216 220 217 Q 210 217 206 209 Z" fill="lightgray"></path>
				<path d="M 340 184 Q 371 118 403 87 Q 416 81 428 90 Q 437 100 439 115 Q 439 160 362 215 Q 349 224 339 223 Q 333 223 332 212 Q 331 202 340 184 Z" fill="lightgray"></path>
				<path d="M 532 192 Q 566 123 599 91 Q 612 84 624 94 Q 633 104 635 119 Q 635 164 555 222 L 554 223 Q 541 232 531 231 Q 525 231 524 220 Q 523 210 532 192 Z" fill="lightgray"></path>
				<path d="M 725 207 Q 779 140 840 46 Q 853 24 868 16 Q 875 13 885 22 Q 900 34 894 80 Q 890 137 731 238 Q 722 245 719 232 Q 716 219 725 207 Z" fill="lightgray"></path>
</g>
		<text x="40" y="140" font-size="128" fill="#999999">7</text></g>
		<g id="id1:id2:id2" transform="matrix(1.0,0,0,1.0,2048,0.0)">			<g stroke="lightgray" stroke-width="4" transform="scale(4, 4)"> <rect x="0" y="0" width="256" height="256" fill="white" stroke-width="4"/></g>
			<g transform="scale(0.92, -0.92) translate(60, -920)">					<path d="M 243 735 Q 233 745 211 753 Q 202 757 192 753 Q 185 749 190 737 Q 208 682 212 567 Q 206 425 200 394 Q 176 346 219 297 Q 229 284 238 296 Q 248 312 249 329 L 251 362 Q 251 372 252 518 L 252 551 Q 253 684 255 696 Q 256 705 256 711 C 257 725 257 725 243 735 Z" fill="black"></path>
				<path d="M 361 345 Q 371 329 383 311 Q 398 289 405 292 Q 415 293 427 323 Q 433 339 434 419 Q 419 689 438 724 Q 448 740 440 751 Q 433 761 387 774 Q 365 781 349 772 Q 291 745 243 735 C 214 728 227 703 256 711 Q 257 712 261 713 Q 291 720 326 731 Q 357 741 368 731 Q 380 719 380 675 Q 386 491 379 390 Q 380 378 376 373 C 371 343 353 358 361 345 Z" fill="black"></path>
				<path d="M 252 518 Q 301 528 338 536 Q 359 542 350 553 Q 338 566 314 567 Q 292 568 254 553 Q 253 552 252 551 C 229 532 223 512 252 518 Z" fill="black"></path>
				<path d="M 249 329 Q 253 329 260 330 Q 294 337 361 345 C 391 349 399 354 376 373 Q 372 377 363 382 Q 348 389 320 381 Q 281 369 251 362 C 222 355 219 327 249 329 Z" fill="black"></path>
				<path d="M 632 735 Q 692 751 743 758 Q 762 761 765 755 Q 772 745 768 719 Q 762 647 745 616 Q 727 585 701 591 Q 679 597 659 605 Q 635 612 651 589 Q 690 549 707 518 Q 720 500 736 513 Q 791 546 824 697 Q 831 734 847 752 Q 859 765 853 774 Q 844 784 796 807 Q 777 816 759 803 Q 738 790 657 772 Q 575 751 506 747 Q 490 746 488 738 Q 487 731 508 720 Q 530 707 548 713 Q 572 720 597 726 L 632 735 Z" fill="black"></path>
				<path d="M 597 726 L 598 724 Q 604 643 464 479 Q 452 476 452 463 Q 452 459 457 459 Q 535 477 630 644 Q 639 662 657 686 Q 663 695 656 707 Q 644 726 632 735 C 610 755 594 756 597 726 Z" fill="black"></path>
				<path d="M 543 450 Q 533 454 514 456 Q 504 459 500 454 Q 496 448 503 434 Q 525 388 541 312 Q 544 290 557 274 Q 573 255 578 269 Q 582 279 581 295 L 577 326 Q 564 402 563 423 C 561 444 561 444 543 450 Z" fill="black"></path>
				<path d="M 775 347 Q 796 405 825 426 Q 841 444 827 460 Q 811 473 762 496 Q 746 503 674 477 Q 599 459 543 450 C 513 445 533 418 563 423 Q 647 438 732 452 Q 733 451 735 449 Q 742 442 741 428 Q 734 386 725 353 C 717 324 764 319 775 347 Z" fill="red"></path>
				<path d="M 581 295 Q 585 294 596 295 Q 656 308 784 316 Q 794 317 795 325 Q 795 332 775 347 C 759 359 754 359 725 353 L 724 353 Q 642 335 577 326 C 547 322 551 297 581 295 Z" fill="lightgray"></path>
				<path d="M 206 209 Q 176 148 136 95 Q 112 64 129 26 Q 136 7 159 18 Q 216 58 228 147 Q 235 181 230 207 Q 226 216 220 217 Q 210 217 206 209 Z" fill="lightgray"></path>
				<path d="M 340 184 Q 371 118 403 87 Q 416 81 428 90 Q 437 100 439 115 Q 439 160 362 215 Q 349 224 339 223 Q 333 223 332 212 Q 331 202 340 184 Z" fill="lightgray"></path>
				<path d="M 532 192 Q 566 123 599 91 Q 612 84 624 94 Q 633 104 635 119 Q 635 164 555 222 L 554 223 Q 541 232 531 231 Q 525 231 524 220 Q 523 210 532 192 Z" fill="lightgray"></path>
				<path d="M 725 207 Q 779 140 840 46 Q 853 24 868 16 Q 875 13 885 22 Q 900 34 894 80 Q 890 137 731 238 Q 722 245 719 232 Q 716 219 725 207 Z" fill="lightgray"></path>
</g>
		<text x="40" y="140" font-size="128" fill="#999999">8</text></g>
		<g id="id1:id3:id3" transform="matrix(1.0,0,0,1.0,3072,0.0)">			<g stroke="lightgray" stroke-width="4" transform="scale(4, 4)"> <rect x="0" y="0" width="256" height="256" fill="white" stroke-width="4"/></g>
			<g transform="scale(0.92, -0.92) translate(60, -920)">					<path d="M 243 735 Q 233 745 211 753 Q 202 757 192 753 Q 185 749 190 737 Q 208 682 212 567 Q 206 425 200 394 Q 176 346 219 297 Q 229 284 238 296 Q 248 312 249 329 L 251 362 Q 251 372 252 518 L 252 551 Q 253 684 255 696 Q 256 705 256 711 C 257 725 257 725 243 735 Z" fill="black"></path>
				<path d="M 361 345 Q 371 329 383 311 Q 398 289 405 292 Q 415 293 427 323 Q 433 339 434 419 Q 419 689 438 724 Q 448 740 440 751 Q 433 761 387 774 Q 365 781 349 772 Q 291 745 243 735 C 214 728 227 703 256 711 Q 257 712 261 713 Q 291 720 326 731 Q 357 741 368 731 Q 380 719 380 675 Q 386 491 379 390 Q 380 378 376 373 C 371 343 353 358 361 345 Z" fill="black"></path>
				<path d="M 252 518 Q 301 528 338 536 Q 359 542 350 553 Q 338 566 314 567 Q 292 568 254 553 Q 253 552 252 551 C 229 532 223 512 252 518 Z" fill="black"></path>
				<path d="M 249 329 Q 253 329 260 330 Q 294 337 361 345 C 391 349 399 354 376 373 Q 372 377 363 382 Q 348 389 320 381 Q 281 369 251 362 C 222 355 219 327 249 329 Z" fill="black"></path>
				<path d="M 632 735 Q 692 751 743 758 Q 762 761 765 755 Q 772 745 768 719 Q 762 647 745 616 Q 727 585 701 591 Q 679 597 659 605 Q 635 612 651 589 Q 690 549 707 518 Q 720 500 736 513 Q 791 546 824 697 Q 831 734 847 752 Q 859 765 853 774 Q 844 784 796 807 Q 777 816 759 803 Q 738 790 657 772 Q 575 751 506 747 Q 490 746 488 738 Q 487 731 508 720 Q 530 707 548 713 Q 572 720 597 726 L 632 735 Z" fill="black"></path>
				<path d="M 597 726 L 598 724 Q 604 643 464 479 Q 452 476 452 463 Q 452 459 457 459 Q 535 477 630 644 Q 639 662 657 686 Q 663 695 656 707 Q 644 726 632 735 C 610 755 594 756 597 726 Z" fill="black"></path>
				<path d="M 543 450 Q 533 454 514 456 Q 504 459 500 454 Q 496 448 503 434 Q 525 388 541 312 Q 544 290 557 274 Q 573 255 578 269 Q 582 279 581 295 L 577 326 Q 564 402 563 423 C 561 444 561 444 543 450 Z" fill="black"></path>
				<path d="M 775 347 Q 796 405 825 426 Q 841 444 827 460 Q 811 473 762 496 Q 746 503 674 477 Q 599 459 543 450 C 513 445 533 418 563 423 Q 647 438 732 452 Q 733 451 735 449 Q 742 442 741 428 Q 734 386 725 353 C 717 324 764 319 775 347 Z" fill="black"></path>
				<path d="M 581 295 Q 585 294 596 295 Q 656 308 784 316 Q 794 317 795 325 Q 795 332 775 347 C 759 359 754 359 725 353 L 724 353 Q 642 335 577 326 C 547 322 551 297 581 295 Z" fill="red"></path>
				<path d="M 206 209 Q 176 148 136 95 Q 112 64 129 26 Q 136 7 159 18 Q 216 58 228 147 Q 235 181 230 207 Q 226 216 220 217 Q 210 217 206 209 Z" fill="lightgray"></path>
				<path d="M 340 184 Q 371 118 403 87 Q 416 81 428 90 Q 437 100 439 115 Q 439 160 362 215 Q 349 224 339 223 Q 333 223 332 212 Q 331 202 340 184 Z" fill="lightgray"></path>
				<path d="M 532 192 Q 566 123 599 91 Q 612 84 624 94 Q 633 104 635 119 Q 635 164 555 222 L 554 223 Q 541 232 531 231 Q 525 231 524 220 Q 523 210 532 192 Z" fill="lightgray"></path>
				<path d="M 725 207 Q 779 140 840 46 Q 853 24 868 16 Q 875 13 885 22 Q 900 34 894 80 Q 890 137 731 238 Q 722 245 719 232 Q 716 219 725 207 Z" fill="lightgray"></path>
</g>
		<text x="40" y="140" font-size="128" fill="#999999">9</text></g>
		<g id="id1:id4:id4" transform="matrix(1.0,0,0,1.0,4096,0.0)">			<g stroke="lightgray" stroke-width="4" transform="scale(4, 4)"> <rect x="0" y="0" width="256" height="256" fill="white" stroke-width="4"/></g>
			<g transform="scale(0.92, -0.92) translate(60, -920)">					<path d="M 243 735 Q 233 745 211 753 Q 202 757 192 753 Q 185 749 190 737 Q 208 682 212 567 Q 206 425 200 394 Q 176 346 219 297 Q 229 284 238 296 Q 248 312 249 329 L 251 362 Q 251 372 252 518 L 252 551 Q 253 684 255 696 Q 256 705 256 711 C 257 725 257 725 243 735 Z" fill="black"></path>
				<path d="M 361 345 Q 371 329 383 311 Q 398 289 405 292 Q 415 293 427 323 Q 433 339 434 419 Q 419 689 438 724 Q 448 740 440 751 Q 433 761 387 774 Q 365 781 349 772 Q 291 745 243 735 C 214 728 227 703 256 711 Q 257 712 261 713 Q 291 720 326 731 Q 357 741 368 731 Q 380 719 380 675 Q 386 491 379 390 Q 380 378 376 373 C 371 343 353 358 361 345 Z" fill="black"></path>
				<path d="M 252 518 Q 301 528 338 536 Q 359 542 350 553 Q 338 566 314 567 Q 292 568 254 553 Q 253 552 252 551 C 229 532 223 512 252 518 Z" fill="black"></path>
				<path d="M 249 329 Q 253 329 260 330 Q 294 337 361 345 C 391 349 399 354 376 373 Q 372 377 363 382 Q 348 389 320 381 Q 281 369 251 362 C 222 355 219 327 249 329 Z" fill="black"></path>
				<path d="M 632 735 Q 692 751 743 758 Q 762 761 765 755 Q 772 745 768 719 Q 762 647 745 616 Q 727 585 701 591 Q 679 597 659 605 Q 635 612 651 589 Q 690 549 707 518 Q 720 500 736 513 Q 791 546 824 697 Q 831 734 847 752 Q 859 765 853 774 Q 844 784 796 807 Q 777 816 759 803 Q 738 790 657 772 Q 575 751 506 747 Q 490 746 488 738 Q 487 731 508 720 Q 530 707 548 713 Q 572 720 597 726 L 632 735 Z" fill="black"></path>
				<path d="M 597 726 L 598 724 Q 604 643 464 479 Q 452 476 452 463 Q 452 459 457 459 Q 535 477 630 644 Q 639 662 657 686 Q 663 695 656 707 Q 644 726 632 735 C 610 755 594 756 597 726 Z" fill="black"></path>
				<path d="M 543 450 Q 533 454 514 456 Q 504 459 500 454 Q 496 448 503 434 Q 525 388 541 312 Q 544 290 557 274 Q 573 255 578 269 Q 582 279 581 295 L 577 326 Q 564 402 563 423 C 561 444 561 444 543 450 Z" fill="black"></path>
				<path d="M 775 347 Q 796 405 825 426 Q 841 444 827 460 Q 811 473 762 496 Q 746 503 674 477 Q 599 459 543 450 C 513 445 533 418 563 423 Q 647 438 732 452 Q 733 451 735 449 Q 742 442 741 428 Q 734 386 725 353 C 717 324 764 319 775 347 Z" fill="black"></path>
				<path d="M 581 295 Q 585 294 596 295 Q 656 308 784 316 Q 794 317 795 325 Q 795 332 775 347 C 759 359 754 359 725 353 L 724 353 Q 642 335 577 326 C 547 322 551 297 581 295 Z" fill="black"></path>
				<path d="M 206 209 Q 176 148 136 95 Q 112 64 129 26 Q 136 7 159 18 Q 216 58 228 147 Q 235 181 230 207 Q 226 216 220 217 Q 210 217 206 209 Z" fill="red"></path>
				<path d="M 340 184 Q 371 118 403 87 Q 416 81 428 90 Q 437 100 439 115 Q 439 160 362 215 Q 349 224 339 223 Q 333 223 332 212 Q 331 202 340 184 Z" fill="lightgray"></path>
				<path d="M 532 192 Q 566 123 599 91 Q 612 84 624 94 Q 633 104 635 119 Q 635 164 555 222 L 554 223 Q 541 232 531 231 Q 525 231 524 220 Q 523 210 532 192 Z" fill="lightgray"></path>
				<path d="M 725 207 Q 779 140 840 46 Q 853 24 868 16 Q 875 13 885 22 Q 900 34 894 80 Q 890 137 731 238 Q 722 245 719 232 Q 716 219 725 207 Z" fill="lightgray"></path>
</g>
		<text x="40" y="140" font-size="128" fill="#999999">10</text></g>
</g>
	<g id="id2:id2" transform="translate(0.0,2048)">
		<g id="id2:id0:id0" transform="matrix(1.0,0,0,1.0,0,0.0)">			<g stroke="lightgray" stroke-width="4" transform="scale(4, 4)"> <rect x="0" y="0" width="256" height="256" fill="white" stroke-width="4"/></g>
			<g transform="scale(0.92, -0.92) translate(60, -920)">					<path d="M 243 735 Q 233 745 211 753 Q 202 757 192 753 Q 185 749 190 737 Q 208 682 212 567 Q 206 425 200 394 Q 176 346 219 297 Q 229 284 238 296 Q 248 312 249 329 L 251 362 Q 251 372 252 518 L 252 551 Q 253 684 255 696 Q 256 705 256 711 C 257 725 257 725 243 735 Z" fill="black"></path>
				<path d="M 361 345 Q 371 329 383 311 Q 398 289 405 292 Q 415 293 427 323 Q 433 339 434 419 Q 419 689 438 724 Q 448 740 440 751 Q 433 761 387 774 Q 365 781 349 772 Q 291 745 243 735 C 214 728 227 703 256 711 Q 257 712 261 713 Q 291 720 326 731 Q 357 741 368 731 Q 380 719 380 675 Q 386 491 379 390 Q 380 378 376 373 C 371 343 353 358 361 345 Z" fill="black"></path>
				<path d="M 252 518 Q 301 528 338 536 Q 359 542 350 553 Q 338 566 314 567 Q 292 568 254 553 Q 253 552 252 551 C 229 532 223 512 252 518 Z" fill="black"></path>
				<path d="M 249 329 Q 253 329 260 330 Q 294 337 361 345 C 391 349 399 354 376 373 Q 372 377 363 382 Q 348 389 320 381 Q 281 369 251 362 C 222 355 219 327 249 329 Z" fill="black"></path>
				<path d="M 632 735 Q 692 751 743 758 Q 762 761 765 755 Q 772 745 768 719 Q 762 647 745 616 Q 727 585 701 591 Q 679 597 659 605 Q 635 612 651 589 Q 690 549 707 518 Q 720 500 736 513 Q 791 546 824 697 Q 831 734 847 752 Q 859 765 853 774 Q 844 784 796 807 Q 777 816 759 803 Q 738 790 657 772 Q 575 751 506 747 Q 490 746 488 738 Q 487 731 508 720 Q 530 707 548 713 Q 572 720 597 726 L 632 735 Z" fill="black"></path>
				<path d="M 597 726 L 598 724 Q 604 643 464 479 Q 452 476 452 463 Q 452 459 457 459 Q 535 477 630 644 Q 639 662 657 686 Q 663 695 656 707 Q 644 726 632 735 C 610 755 594 756 597 726 Z" fill="black"></path>
				<path d="M 543 450 Q 533 454 514 456 Q 504 459 500 454 Q 496 448 503 434 Q 525 388 541 312 Q 544 290 557 274 Q 573 255 578 269 Q 582 279 581 295 L 577 326 Q 564 402 563 423 C 561 444 561 444 543 450 Z" fill="black"></path>
				<path d="M 775 347 Q 796 405 825 426 Q 841 444 827 460 Q 811 473 762 496 Q 746 503 674 477 Q 599 459 543 450 C 513 445 533 418 563 423 Q 647 438 732 452 Q 733 451 735 449 Q 742 442 741 428 Q 734 386 725 353 C 717 324 764 319 775 347 Z" fill="black"></path>
				<path d="M 581 295 Q 585 294 596 295 Q 656 308 784 316 Q 794 317 795 325 Q 795 332 775 347 C 759 359 754 359 725 353 L 724 353 Q 642 335 577 326 C 547 322 551 297 581 295 Z" fill="black"></path>
				<path d="M 206 209 Q 176 148 136 95 Q 112 64 129 26 Q 136 7 159 18 Q 216 58 228 147 Q 235 181 230 207 Q 226 216 220 217 Q 210 217 206 209 Z" fill="black"></path>
				<path d="M 340 184 Q 371 118 403 87 Q 416 81 428 90 Q 437 100 439 115 Q 439 160 362 215 Q 349 224 339 223 Q 333 223 332 212 Q 331 202 340 184 Z" fill="red"></path>
				<path d="M 532 192 Q 566 123 599 91 Q 612 84 624 94 Q 633 104 635 119 Q 635 164 555 222 L 554 223 Q 541 232 531 231 Q 525 231 524 220 Q 523 210 532 192 Z" fill="lightgray"></path>
				<path d="M 725 207 Q 779 140 840 46 Q 853 24 868 16 Q 875 13 885 22 Q 900 34 894 80 Q 890 137 731 238 Q 722 245 719 232 Q 716 219 725 207 Z" fill="lightgray"></path>
</g>
		<text x="40" y="140" font-size="128" fill="#999999">11</text></g>
		<g id="id2:id1:id1" transform="matrix(1.0,0,0,1.0,1024,0.0)">			<g stroke="lightgray" stroke-width="4" transform="scale(4, 4)"> <rect x="0" y="0" width="256" height="256" fill="white" stroke-width="4"/></g>
			<g transform="scale(0.92, -0.92) translate(60, -920)">					<path d="M 243 735 Q 233 745 211 753 Q 202 757 192 753 Q 185 749 190 737 Q 208 682 212 567 Q 206 425 200 394 Q 176 346 219 297 Q 229 284 238 296 Q 248 312 249 329 L 251 362 Q 251 372 252 518 L 252 551 Q 253 684 255 696 Q 256 705 256 711 C 257 725 257 725 243 735 Z" fill="black"></path>
				<path d="M 361 345 Q 371 329 383 311 Q 398 289 405 292 Q 415 293 427 323 Q 433 339 434 419 Q 419 689 438 724 Q 448 740 440 751 Q 433 761 387 774 Q 365 781 349 772 Q 291 745 243 735 C 214 728 227 703 256 711 Q 257 712 261 713 Q 291 720 326 731 Q 357 741 368 731 Q 380 719 380 675 Q 386 491 379 390 Q 380 378 376 373 C 371 343 353 358 361 345 Z" fill="black"></path>
				<path d="M 252 518 Q 301 528 338 536 Q 359 542 350 553 Q 338 566 314 567 Q 292 568 254 553 Q 253 552 252 551 C 229 532 223 512 252 518 Z" fill="black"></path>
				<path d="M 249 329 Q 253 329 260 330 Q 294 337 361 345 C 391 349 399 354 376 373 Q 372 377 363 382 Q 348 389 320 381 Q 281 369 251 362 C 222 355 219 327 249 329 Z" fill="black"></path>
				<path d="M 632 735 Q 692 751 743 758 Q 762 761 765 755 Q 772 745 768 719 Q 762 647 745 616 Q 727 585 701 591 Q 679 597 659 605 Q 635 612 651 589 Q 690 549 707 518 Q 720 500 736 513 Q 791 546 824 697 Q 831 734 847 752 Q 859 765 853 774 Q 844 784 796 807 Q 777 816 759 803 Q 738 790 657 772 Q 575 751 506 747 Q 490 746 488 738 Q 487 731 508 720 Q 530 707 548 713 Q 572 720 597 726 L 632 735 Z" fill="black"></path>
				<path d="M 597 726 L 598 724 Q 604 643 464 479 Q 452 476 452 463 Q 452 459 457 459 Q 535 477 630 644 Q 639 662 657 686 Q 663 695 656 707 Q 644 726 632 735 C 610 755 594 756 597 726 Z" fill="black"></path>
				<path d="M 543 450 Q 533 454 514 456 Q 504 459 500 454 Q 496 448 503 434 Q 525 388 541 312 Q 544 290 557 274 Q 573 255 578 269 Q 582 279 581 295 L 577 326 Q 564 402 563 423 C 561 444 561 444 543 450 Z" fill="black"></path>
				<path d="M 775 347 Q 796 405 825 426 Q 841 444 827 460 Q 811 473 762 496 Q 746 503 674 477 Q 599 459 543 450 C 513 445 533 418 563 423 Q 647 438 732 452 Q 733 451 735 449 Q 742 442 741 428 Q 734 386 725 353 C 717 324 764 319 775 347 Z" fill="black"></path>
				<path d="M 581 295 Q 585 294 596 295 Q 656 308 784 316 Q 794 317 795 325 Q 795 332 775 347 C 759 359 754 359 725 353 L 724 353 Q 642 335 577 326 C 547 322 551 297 581 295 Z" fill="black"></path>
				<path d="M 206 209 Q 176 148 136 95 Q 112 64 129 26 Q 136 7 159 18 Q 216 58 228 147 Q 235 181 230 207 Q 226 216 220 217 Q 210 217 206 209 Z" fill="black"></path>
				<path d="M 340 184 Q 371 118 403 87 Q 416 81 428 90 Q 437 100 439 115 Q 439 160 362 215 Q 349 224 339 223 Q 333 223 332 212 Q 331 202 340 184 Z" fill="black"></path>
				<path d="M 532 192 Q 566 123 599 91 Q 612 84 624 94 Q 633 104 635 119 Q 635 164 555 222 L 554 223 Q 541 232 531 231 Q 525 231 524 220 Q 523 210 532 192 Z" fill="red"></path>
				<path d="M 725 207 Q 779 140 840 46 Q 853 24 868 16 Q 875 13 885 22 Q 900 34 894 80 Q 890 137 731 238 Q 722 245 719 232 Q 716 219 725 207 Z" fill="lightgray"></path>
</g>
		<text x="40" y="140" font-size="128" fill="#999999">12</text></g>
		<g id="id2:id2:id2" transform="matrix(1.0,0,0,1.0,2048,0.0)">			<g stroke="lightgray" stroke-width="4" transform="scale(4, 4)"> <rect x="0" y="0" width="256" height="256" fill="white" stroke-width="4"/></g>
			<g transform="scale(0.92, -0.92) translate(60, -920)">					<path d="M 243 735 Q 233 745 211 753 Q 202 757 192 753 Q 185 749 190 737 Q 208 682 212 567 Q 206 425 200 394 Q 176 346 219 297 Q 229 284 238 296 Q 248 312 249 329 L 251 362 Q 251 372 252 518 L 252 551 Q 253 684 255 696 Q 256 705 256 711 C 257 725 257 725 243 735 Z" fill="black"></path>
				<path d="M 361 345 Q 371 329 383 311 Q 398 289 405 292 Q 415 293 427 323 Q 433 339 434 419 Q 419 689 438 724 Q 448 740 440 751 Q 433 761 387 774 Q 365 781 349 772 Q 291 745 243 735 C 214 728 227 703 256 711 Q 257 712 261 713 Q 291 720 326 731 Q 357 741 368 731 Q 380 719 380 675 Q 386 491 379 390 Q 380 378 376 373 C 371 343 353 358 361 345 Z" fill="black"></path>
				<path d="M 252 518 Q 301 528 338 536 Q 359 542 350 553 Q 338 566 314 567 Q 292 568 254 553 Q 253 552 252 551 C 229 532 223 512 252 518 Z" fill="black"></path>
				<path d="M 249 329 Q 253 329 260 330 Q 294 337 361 345 C 391 349 399 354 376 373 Q 372 377 363 382 Q 348 389 320 381 Q 281 369 251 362 C 222 355 219 327 249 329 Z" fill="black"></path>
				<path d="M 632 735 Q 692 751 743 758 Q 762 761 765 755 Q 772 745 768 719 Q 762 647 745 616 Q 727 585 701 591 Q 679 597 659 605 Q 635 612 651 589 Q 690 549 707 518 Q 720 500 736 513 Q 791 546 824 697 Q 831 734 847 752 Q 859 765 853 774 Q 844 784 796 807 Q 777 816 759 803 Q 738 790 657 772 Q 575 751 506 747 Q 490 746 488 738 Q 487 731 508 720 Q 530 707 548 713 Q 572 720 597 726 L 632 735 Z" fill="black"></path>
				<path d="M 597 726 L 598 724 Q 604 643 464 479 Q 452 476 452 463 Q 452 459 457 459 Q 535 477 630 644 Q 639 662 657 686 Q 663 695 656 707 Q 644 726 632 735 C 610 755 594 756 597 726 Z" fill="black"></path>
				<path d="M 543 450 Q 533 454 514 456 Q 504 459 500 454 Q 496 448 503 434 Q 525 388 541 312 Q 544 290 557 274 Q 573 255 578 269 Q 582 279 581 295 L 577 326 Q 564 402 563 423 C 561 444 561 444 543 450 Z" fill="black"></path>
				<path d="M 775 347 Q 796 405 825 426 Q 841 444 827 460 Q 811 473 762 496 Q 746 503 674 477 Q 599 459 543 450 C 513 445 533 418 563 423 Q 647 438 732 452 Q 733 451 735 449 Q 742 442 741 428 Q 734 386 725 353 C 717 324 764 319 775 347 Z" fill="black"></path>
				<path d="M 581 295 Q 585 294 596 295 Q 656 308 784 316 Q 794 317 795 325 Q 795 332 775 347 C 759 359 754 359 725 353 L 724 353 Q 642 335 577 326 C 547 322 551 297 581 295 Z" fill="black"></path>
				<path d="M 206 209 Q 176 148 136 95 Q 112 64 129 26 Q 136 7 159 18 Q 216 58 228 147 Q 235 181 230 207 Q 226 216 220 217 Q 210 217 206 209 Z" fill="black"></path>
				<path d="M 340 184 Q 371 118 403 87 Q 416 81 428 90 Q 437 100 439 115 Q 439 160 362 215 Q 349 224 339 223 Q 333 223 332 212 Q 331 202 340 184 Z" fill="black"></path>
				<path d="M 532 192 Q 566 123 599 91 Q 612 84 624 94 Q 633 104 635 119 Q 635 164 555 222 L 554 223 Q 541 232 531 231 Q 525 231 524 220 Q 523 210 532 192 Z" fill="black"></path>
				<path d="M 725 207 Q 779 140 840 46 Q 853 24 868 16 Q 875 13 885 22 Q 900 34 894 80 Q 890 137 731 238 Q 722 245 719 232 Q 716 219 725 207 Z" fill="red"></path>
</g>
		<text x="40" y="140" font-size="128" fill="#999999">13</text></g>
		<g id="id2:id3:id3" transform="matrix(1.0,0,0,1.0,3072,0.0)">			<g stroke="white" stroke-width="4" transform="scale(4, 4)"> <rect x="1" y="1" width="255" height="255" fill="white" stroke-width="0"/></g>
</g>
		<g id="id2:id4:id4" transform="matrix(1.0,0,0,1.0,4096,0.0)">			<g stroke="white" stroke-width="4" transform="scale(4, 4)"> <rect x="1" y="1" width="255" height="255" fill="white" stroke-width="0"/></g>
</g>
</g>
</svg>
