<?xml version="1.0" standalone="no"?>
<!DOCTYPE svg PUBLIC "-//W3C//DTD SVG 1.1//EN"
 "http://www.w3.org/Graphics/SVG/1.1/DTD/svg11.dtd">
<!-- generate by Handict dictionary app com.asnsami.handict -->

<svg xmlns="http://www.w3.org/2000/svg" xmlns:sodipodi="http://sodipodi.sourceforge.net/DTD/sodipodi-0.dtd" version="1.1" width="640" height="128" viewBox="0 0 5120 1024">
	<g id="id0:id0" transform="translate(0.0,0)">
		<g id="id0:id0:id0" transform="matrix(1.0,0,0,1.0,0,0.0)">			<g stroke="lightgray" stroke-width="4" transform="scale(4, 4)"> <rect x="0" y="0" width="256" height="256" fill="white" stroke-width="4"/></g>
			<g transform="scale(0.92, -0.92) translate(60, -920)">					<path d="M 365 604 Q 396 614 447 632 L 481 644 Q 542 668 592 693 Q 640 714 681 722 Q 700 723 704 732 Q 708 744 694 755 Q 672 771 624 789 Q 608 798 594 796 Q 585 792 585 780 Q 585 735 353 623 C 326 610 336 595 365 604 Z" fill="red"></path>
				<path d="M 353 623 Q 353 624 352 624 Q 297 655 270 642 Q 257 635 265 620 Q 307 563 286 392 Q 283 376 280 358 Q 238 187 122 98 Q 109 83 93 69 Q 80 57 94 56 Q 109 57 144 77 Q 201 111 240 161 Q 279 203 310 279 Q 341 399 344 409 Q 344 560 365 602 Q 365 603 365 604 C 369 615 369 615 353 623 Z" fill="lightgray"></path>
				<path d="M 447 632 Q 469 596 462 338 Q 455 116 437 72 Q 425 14 481 -44 Q 481 -45 484 -47 Q 497 -48 502 -34 Q 515 0 511 32 Q 499 420 511 547 L 513 574 Q 516 617 512 621 Q 496 634 481 644 C 457 661 437 660 447 632 Z" fill="lightgray"></path>
				<path d="M 511 547 Q 550 508 621 362 Q 664 275 755 155 Q 782 121 833 119 Q 968 110 980 112 Q 990 119 978 130 Q 963 143 834 209 Q 711 273 574 525 Q 559 558 516 574 Q 515 574 513 574 C 485 584 491 570 511 547 Z" fill="lightgray"></path>
</g>
		<text x="40" y="140" font-size="128" fill="#999999">1</text></g>
		<g id="id0:id1:id1" transform="matrix(1.0,0,0,1.0,1024,0.0)">			<g stroke="lightgray" stroke-width="4" transform="scale(4, 4)"> <rect x="0" y="0" width="256" height="256" fill="white" stroke-width="4"/></g>
			<g transform="scale(0.92, -0.92) translate(60, -920)">					<path d="M 365 604 Q 396 614 447 632 L 481 644 Q 542 668 592 693 Q 640 714 681 722 Q 700 723 704 732 Q 708 744 694 755 Q 672 771 624 789 Q 608 798 594 796 Q 585 792 585 780 Q 585 735 353 623 C 326 610 336 595 365 604 Z" fill="black"></path>
				<path d="M 353 623 Q 353 624 352 624 Q 297 655 270 642 Q 257 635 265 620 Q 307 563 286 392 Q 283 376 280 358 Q 238 187 122 98 Q 109 83 93 69 Q 80 57 94 56 Q 109 57 144 77 Q 201 111 240 161 Q 279 203 310 279 Q 341 399 344 409 Q 344 560 365 602 Q 365 603 365 604 C 369 615 369 615 353 623 Z" fill="red"></path>
				<path d="M 447 632 Q 469 596 462 338 Q 455 116 437 72 Q 425 14 481 -44 Q 481 -45 484 -47 Q 497 -48 502 -34 Q 515 0 511 32 Q 499 420 511 547 L 513 574 Q 516 617 512 621 Q 496 634 481 644 C 457 661 437 660 447 632 Z" fill="lightgray"></path>
				<path d="M 511 547 Q 550 508 621 362 Q 664 275 755 155 Q 782 121 833 119 Q 968 110 980 112 Q 990 119 978 130 Q 963 143 834 209 Q 711 273 574 525 Q 559 558 516 574 Q 515 574 513 574 C 485 584 491 570 511 547 Z" fill="lightgray"></path>
</g>
		<text x="40" y="140" font-size="128" fill="#999999">2</text></g>
		<g id="id0:id2:id2" transform="matrix(1.0,0,0,1.0,2048,0.0)">			<g stroke="lightgray" stroke-width="4" transform="scale(4, 4)"> <rect x="0" y="0" width="256" height="256" fill="white" stroke-width="4"/></g>
			<g transform="scale(0.92, -0.92) translate(60, -920)">					<path d="M 365 604 Q 396 614 447 632 L 481 644 Q 542 668 592 693 Q 640 714 681 722 Q 700 723 704 732 Q 708 744 694 755 Q 672 771 624 789 Q 608 798 594 796 Q 585 792 585 780 Q 585 735 353 623 C 326 610 336 595 365 604 Z" fill="black"></path>
				<path d="M 353 623 Q 353 624 352 624 Q 297 655 270 642 Q 257 635 265 620 Q 307 563 286 392 Q 283 376 280 358 Q 238 187 122 98 Q 109 83 93 69 Q 80 57 94 56 Q 109 57 144 77 Q 201 111 240 161 Q 279 203 310 279 Q 341 399 344 409 Q 344 560 365 602 Q 365 603 365 604 C 369 615 369 615 353 623 Z" fill="black"></path>
				<path d="M 447 632 Q 469 596 462 338 Q 455 116 437 72 Q 425 14 481 -44 Q 481 -45 484 -47 Q 497 -48 502 -34 Q 515 0 511 32 Q 499 420 511 547 L 513 574 Q 516 617 512 621 Q 496 634 481 644 C 457 661 437 660 447 632 Z" fill="red"></path>
				<path d="M 511 547 Q 550 508 621 362 Q 664 275 755 155 Q 782 121 833 119 Q 968 110 980 112 Q 990 119 978 130 Q 963 143 834 209 Q 711 273 574 525 Q 559 558 516 574 Q 515 574 513 574 C 485 584 491 570 511 547 Z" fill="lightgray"></path>
</g>
		<text x="40" y="140" font-size="128" fill="#999999">3</text></g>
		<g id="id0:id3:id3" transform="matrix(1.0,0,0,1.0,3072,0.0)">			<g stroke="lightgray" stroke-width="4" transform="scale(4, 4)"> <rect x="0" y="0" width="256" height="256" fill="white" stroke-width="4"/></g>
			<g transform="scale(0.92, -0.92) translate(60, -920)">					<path d="M 365 604 Q 396 614 447 632 L 481 644 Q 542 668 592 693 Q 640 714 681 722 Q 700 723 704 732 Q 708 744 694 755 Q 672 771 624 789 Q 608 798 594 796 Q 585 792 585 780 Q 585 735 353 623 C 326 610 336 595 365 604 Z" fill="black"></path>
				<path d="M 353 623 Q 353 624 352 624 Q 297 655 270 642 Q 257 635 265 620 Q 307 563 286 392 Q 283 376 280 358 Q 238 187 122 98 Q 109 83 93 69 Q 80 57 94 56 Q 109 57 144 77 Q 201 111 240 161 Q 279 203 310 279 Q 341 399 344 409 Q 344 560 365 602 Q 365 603 365 604 C 369 615 369 615 353 623 Z" fill="black"></path>
				<path d="M 447 632 Q 469 596 462 338 Q 455 116 437 72 Q 425 14 481 -44 Q 481 -45 484 -47 Q 497 -48 502 -34 Q 515 0 511 32 Q 499 420 511 547 L 513 574 Q 516 617 512 621 Q 496 634 481 644 C 457 661 437 660 447 632 Z" fill="black"></path>
				<path d="M 511 547 Q 550 508 621 362 Q 664 275 755 155 Q 782 121 833 119 Q 968 110 980 112 Q 990 119 978 130 Q 963 143 834 209 Q 711 273 574 525 Q 559 558 516 574 Q 515 574 513 574 C 485 584 491 570 511 547 Z" fill="red"></path>
</g>
		<text x="40" y="140" font-size="128" fill="#999999">4</text></g>
		<g id="id0:id4:id4" transform="matrix(1.0,0,0,1.0,4096,0.0)">			<g stroke="white" stroke-width="4" transform="scale(4, 4)"> <rect x="1" y="1" width="255" height="255" fill="white" stroke-width="0"/></g>
</g>
</g>
</svg>
