<?xml version="1.0" standalone="no"?>
<!DOCTYPE svg PUBLIC "-//W3C//DTD SVG 1.1//EN"
 "http://www.w3.org/Graphics/SVG/1.1/DTD/svg11.dtd">
<!-- generate by Handict dictionary app com.asnsami.handict -->

<svg xmlns="http://www.w3.org/2000/svg" xmlns:sodipodi="http://sodipodi.sourceforge.net/DTD/sodipodi-0.dtd" version="1.1" width="640" height="256" viewBox="0 0 5120 2048">
	<g id="id0:id0" transform="translate(0.0,0)">
		<g id="id0:id0:id0" transform="matrix(1.0,0,0,1.0,0,0.0)">			<g stroke="lightgray" stroke-width="4" transform="scale(4, 4)"> <rect x="0" y="0" width="256" height="256" fill="white" stroke-width="4"/></g>
			<g transform="scale(0.92, -0.92) translate(60, -920)">					<path d="M 369 669 Q 403 685 432 704 Q 472 728 508 740 Q 524 743 527 751 Q 528 761 516 770 Q 494 783 450 793 Q 434 797 422 795 Q 415 791 416 780 Q 417 746 265 641 C 240 624 250 615 278 627 Q 299 636 343 656 L 369 669 Z" fill="red"></path>
				<path d="M 265 641 Q 265 642 263 643 Q 214 668 198 664 Q 179 660 195 638 Q 234 572 206 354 Q 196 296 167 226 Q 143 165 47 68 Q 34 55 30 48 Q 29 41 40 42 Q 80 42 154 122 Q 233 209 255 356 Q 271 446 273 581 Q 277 600 278 612 Q 279 622 278 627 C 278 634 278 634 265 641 Z" fill="lightgray"></path>
				<path d="M 396 502 Q 396 649 394 652 Q 393 653 392 654 Q 383 661 369 669 C 344 685 338 686 343 656 Q 358 614 343 130 Q 336 28 358 0 L 360 -2 Q 372 -15 381 1 Q 406 49 399 92 Q 396 120 396 465 L 396 502 Z" fill="lightgray"></path>
				<path d="M 396 465 Q 429 438 476 357 Q 587 143 672 58 Q 696 37 808 40 Q 848 41 907 44 Q 926 45 927 51 Q 927 55 909 62 Q 849 83 781 114 Q 699 141 631 214 Q 561 283 447 466 Q 429 497 396 502 C 367 511 374 486 396 465 Z" fill="lightgray"></path>
				<path d="M 801 528 Q 822 597 851 621 Q 866 637 852 653 Q 789 705 727 671 Q 655 646 580 630 C 551 624 565 597 594 604 Q 601 605 615 610 Q 633 614 651 619 L 683 627 Q 713 634 743 642 Q 759 646 766 640 Q 773 633 772 617 Q 765 571 754 533 C 746 504 792 499 801 528 Z" fill="lightgray"></path>
				<path d="M 651 619 Q 651 616 652 505 C 652 475 685 485 688 515 Q 692 552 697 581 Q 698 587 698 591 Q 705 604 698 612 Q 691 621 683 627 C 660 646 651 649 651 619 Z" fill="lightgray"></path>
				<path d="M 584 461 Q 588 461 593 462 Q 662 481 810 501 Q 820 502 820 510 Q 820 516 801 528 L 754 533 L 753 533 Q 719 524 688 515 L 652 505 Q 615 498 584 492 C 555 486 554 458 584 461 Z" fill="lightgray"></path>
				<path d="M 899 376 Q 887 394 868 449 Q 867 462 861 466 Q 855 467 853 453 Q 834 392 821 373 Q 811 357 778 349 Q 702 327 634 358 Q 607 371 599 389 Q 584 416 584 461 L 584 492 Q 585 541 594 600 Q 594 603 594 604 C 596 622 596 622 580 630 Q 570 637 556 641 Q 544 645 538 640 Q 532 637 537 622 Q 550 588 548 556 Q 542 372 580 333 Q 599 314 644 299 Q 789 256 895 340 Q 911 355 899 376 Z" fill="lightgray"></path>
</g>
		<text x="40" y="140" font-size="128" fill="#999999">1</text></g>
		<g id="id0:id1:id1" transform="matrix(1.0,0,0,1.0,1024,0.0)">			<g stroke="lightgray" stroke-width="4" transform="scale(4, 4)"> <rect x="0" y="0" width="256" height="256" fill="white" stroke-width="4"/></g>
			<g transform="scale(0.92, -0.92) translate(60, -920)">					<path d="M 369 669 Q 403 685 432 704 Q 472 728 508 740 Q 524 743 527 751 Q 528 761 516 770 Q 494 783 450 793 Q 434 797 422 795 Q 415 791 416 780 Q 417 746 265 641 C 240 624 250 615 278 627 Q 299 636 343 656 L 369 669 Z" fill="black"></path>
				<path d="M 265 641 Q 265 642 263 643 Q 214 668 198 664 Q 179 660 195 638 Q 234 572 206 354 Q 196 296 167 226 Q 143 165 47 68 Q 34 55 30 48 Q 29 41 40 42 Q 80 42 154 122 Q 233 209 255 356 Q 271 446 273 581 Q 277 600 278 612 Q 279 622 278 627 C 278 634 278 634 265 641 Z" fill="red"></path>
				<path d="M 396 502 Q 396 649 394 652 Q 393 653 392 654 Q 383 661 369 669 C 344 685 338 686 343 656 Q 358 614 343 130 Q 336 28 358 0 L 360 -2 Q 372 -15 381 1 Q 406 49 399 92 Q 396 120 396 465 L 396 502 Z" fill="lightgray"></path>
				<path d="M 396 465 Q 429 438 476 357 Q 587 143 672 58 Q 696 37 808 40 Q 848 41 907 44 Q 926 45 927 51 Q 927 55 909 62 Q 849 83 781 114 Q 699 141 631 214 Q 561 283 447 466 Q 429 497 396 502 C 367 511 374 486 396 465 Z" fill="lightgray"></path>
				<path d="M 801 528 Q 822 597 851 621 Q 866 637 852 653 Q 789 705 727 671 Q 655 646 580 630 C 551 624 565 597 594 604 Q 601 605 615 610 Q 633 614 651 619 L 683 627 Q 713 634 743 642 Q 759 646 766 640 Q 773 633 772 617 Q 765 571 754 533 C 746 504 792 499 801 528 Z" fill="lightgray"></path>
				<path d="M 651 619 Q 651 616 652 505 C 652 475 685 485 688 515 Q 692 552 697 581 Q 698 587 698 591 Q 705 604 698 612 Q 691 621 683 627 C 660 646 651 649 651 619 Z" fill="lightgray"></path>
				<path d="M 584 461 Q 588 461 593 462 Q 662 481 810 501 Q 820 502 820 510 Q 820 516 801 528 L 754 533 L 753 533 Q 719 524 688 515 L 652 505 Q 615 498 584 492 C 555 486 554 458 584 461 Z" fill="lightgray"></path>
				<path d="M 899 376 Q 887 394 868 449 Q 867 462 861 466 Q 855 467 853 453 Q 834 392 821 373 Q 811 357 778 349 Q 702 327 634 358 Q 607 371 599 389 Q 584 416 584 461 L 584 492 Q 585 541 594 600 Q 594 603 594 604 C 596 622 596 622 580 630 Q 570 637 556 641 Q 544 645 538 640 Q 532 637 537 622 Q 550 588 548 556 Q 542 372 580 333 Q 599 314 644 299 Q 789 256 895 340 Q 911 355 899 376 Z" fill="lightgray"></path>
</g>
		<text x="40" y="140" font-size="128" fill="#999999">2</text></g>
		<g id="id0:id2:id2" transform="matrix(1.0,0,0,1.0,2048,0.0)">			<g stroke="lightgray" stroke-width="4" transform="scale(4, 4)"> <rect x="0" y="0" width="256" height="256" fill="white" stroke-width="4"/></g>
			<g transform="scale(0.92, -0.92) translate(60, -920)">					<path d="M 369 669 Q 403 685 432 704 Q 472 728 508 740 Q 524 743 527 751 Q 528 761 516 770 Q 494 783 450 793 Q 434 797 422 795 Q 415 791 416 780 Q 417 746 265 641 C 240 624 250 615 278 627 Q 299 636 343 656 L 369 669 Z" fill="black"></path>
				<path d="M 265 641 Q 265 642 263 643 Q 214 668 198 664 Q 179 660 195 638 Q 234 572 206 354 Q 196 296 167 226 Q 143 165 47 68 Q 34 55 30 48 Q 29 41 40 42 Q 80 42 154 122 Q 233 209 255 356 Q 271 446 273 581 Q 277 600 278 612 Q 279 622 278 627 C 278 634 278 634 265 641 Z" fill="black"></path>
				<path d="M 396 502 Q 396 649 394 652 Q 393 653 392 654 Q 383 661 369 669 C 344 685 338 686 343 656 Q 358 614 343 130 Q 336 28 358 0 L 360 -2 Q 372 -15 381 1 Q 406 49 399 92 Q 396 120 396 465 L 396 502 Z" fill="red"></path>
				<path d="M 396 465 Q 429 438 476 357 Q 587 143 672 58 Q 696 37 808 40 Q 848 41 907 44 Q 926 45 927 51 Q 927 55 909 62 Q 849 83 781 114 Q 699 141 631 214 Q 561 283 447 466 Q 429 497 396 502 C 367 511 374 486 396 465 Z" fill="lightgray"></path>
				<path d="M 801 528 Q 822 597 851 621 Q 866 637 852 653 Q 789 705 727 671 Q 655 646 580 630 C 551 624 565 597 594 604 Q 601 605 615 610 Q 633 614 651 619 L 683 627 Q 713 634 743 642 Q 759 646 766 640 Q 773 633 772 617 Q 765 571 754 533 C 746 504 792 499 801 528 Z" fill="lightgray"></path>
				<path d="M 651 619 Q 651 616 652 505 C 652 475 685 485 688 515 Q 692 552 697 581 Q 698 587 698 591 Q 705 604 698 612 Q 691 621 683 627 C 660 646 651 649 651 619 Z" fill="lightgray"></path>
				<path d="M 584 461 Q 588 461 593 462 Q 662 481 810 501 Q 820 502 820 510 Q 820 516 801 528 L 754 533 L 753 533 Q 719 524 688 515 L 652 505 Q 615 498 584 492 C 555 486 554 458 584 461 Z" fill="lightgray"></path>
				<path d="M 899 376 Q 887 394 868 449 Q 867 462 861 466 Q 855 467 853 453 Q 834 392 821 373 Q 811 357 778 349 Q 702 327 634 358 Q 607 371 599 389 Q 584 416 584 461 L 584 492 Q 585 541 594 600 Q 594 603 594 604 C 596 622 596 622 580 630 Q 570 637 556 641 Q 544 645 538 640 Q 532 637 537 622 Q 550 588 548 556 Q 542 372 580 333 Q 599 314 644 299 Q 789 256 895 340 Q 911 355 899 376 Z" fill="lightgray"></path>
</g>
		<text x="40" y="140" font-size="128" fill="#999999">3</text></g>
		<g id="id0:id3:id3" transform="matrix(1.0,0,0,1.0,3072,0.0)">			<g stroke="lightgray" stroke-width="4" transform="scale(4, 4)"> <rect x="0" y="0" width="256" height="256" fill="white" stroke-width="4"/></g>
			<g transform="scale(0.92, -0.92) translate(60, -920)">					<path d="M 369 669 Q 403 685 432 704 Q 472 728 508 740 Q 524 743 527 751 Q 528 761 516 770 Q 494 783 450 793 Q 434 797 422 795 Q 415 791 416 780 Q 417 746 265 641 C 240 624 250 615 278 627 Q 299 636 343 656 L 369 669 Z" fill="black"></path>
				<path d="M 265 641 Q 265 642 263 643 Q 214 668 198 664 Q 179 660 195 638 Q 234 572 206 354 Q 196 296 167 226 Q 143 165 47 68 Q 34 55 30 48 Q 29 41 40 42 Q 80 42 154 122 Q 233 209 255 356 Q 271 446 273 581 Q 277 600 278 612 Q 279 622 278 627 C 278 634 278 634 265 641 Z" fill="black"></path>
				<path d="M 396 502 Q 396 649 394 652 Q 393 653 392 654 Q 383 661 369 669 C 344 685 338 686 343 656 Q 358 614 343 130 Q 336 28 358 0 L 360 -2 Q 372 -15 381 1 Q 406 49 399 92 Q 396 120 396 465 L 396 502 Z" fill="black"></path>
				<path d="M 396 465 Q 429 438 476 357 Q 587 143 672 58 Q 696 37 808 40 Q 848 41 907 44 Q 926 45 927 51 Q 927 55 909 62 Q 849 83 781 114 Q 699 141 631 214 Q 561 283 447 466 Q 429 497 396 502 C 367 511 374 486 396 465 Z" fill="red"></path>
				<path d="M 801 528 Q 822 597 851 621 Q 866 637 852 653 Q 789 705 727 671 Q 655 646 580 630 C 551 624 565 597 594 604 Q 601 605 615 610 Q 633 614 651 619 L 683 627 Q 713 634 743 642 Q 759 646 766 640 Q 773 633 772 617 Q 765 571 754 533 C 746 504 792 499 801 528 Z" fill="lightgray"></path>
				<path d="M 651 619 Q 651 616 652 505 C 652 475 685 485 688 515 Q 692 552 697 581 Q 698 587 698 591 Q 705 604 698 612 Q 691 621 683 627 C 660 646 651 649 651 619 Z" fill="lightgray"></path>
				<path d="M 584 461 Q 588 461 593 462 Q 662 481 810 501 Q 820 502 820 510 Q 820 516 801 528 L 754 533 L 753 533 Q 719 524 688 515 L 652 505 Q 615 498 584 492 C 555 486 554 458 584 461 Z" fill="lightgray"></path>
				<path d="M 899 376 Q 887 394 868 449 Q 867 462 861 466 Q 855 467 853 453 Q 834 392 821 373 Q 811 357 778 349 Q 702 327 634 358 Q 607 371 599 389 Q 584 416 584 461 L 584 492 Q 585 541 594 600 Q 594 603 594 604 C 596 622 596 622 580 630 Q 570 637 556 641 Q 544 645 538 640 Q 532 637 537 622 Q 550 588 548 556 Q 542 372 580 333 Q 599 314 644 299 Q 789 256 895 340 Q 911 355 899 376 Z" fill="lightgray"></path>
</g>
		<text x="40" y="140" font-size="128" fill="#999999">4</text></g>
		<g id="id0:id4:id4" transform="matrix(1.0,0,0,1.0,4096,0.0)">			<g stroke="lightgray" stroke-width="4" transform="scale(4, 4)"> <rect x="0" y="0" width="256" height="256" fill="white" stroke-width="4"/></g>
			<g transform="scale(0.92, -0.92) translate(60, -920)">					<path d="M 369 669 Q 403 685 432 704 Q 472 728 508 740 Q 524 743 527 751 Q 528 761 516 770 Q 494 783 450 793 Q 434 797 422 795 Q 415 791 416 780 Q 417 746 265 641 C 240 624 250 615 278 627 Q 299 636 343 656 L 369 669 Z" fill="black"></path>
				<path d="M 265 641 Q 265 642 263 643 Q 214 668 198 664 Q 179 660 195 638 Q 234 572 206 354 Q 196 296 167 226 Q 143 165 47 68 Q 34 55 30 48 Q 29 41 40 42 Q 80 42 154 122 Q 233 209 255 356 Q 271 446 273 581 Q 277 600 278 612 Q 279 622 278 627 C 278 634 278 634 265 641 Z" fill="black"></path>
				<path d="M 396 502 Q 396 649 394 652 Q 393 653 392 654 Q 383 661 369 669 C 344 685 338 686 343 656 Q 358 614 343 130 Q 336 28 358 0 L 360 -2 Q 372 -15 381 1 Q 406 49 399 92 Q 396 120 396 465 L 396 502 Z" fill="black"></path>
				<path d="M 396 465 Q 429 438 476 357 Q 587 143 672 58 Q 696 37 808 40 Q 848 41 907 44 Q 926 45 927 51 Q 927 55 909 62 Q 849 83 781 114 Q 699 141 631 214 Q 561 283 447 466 Q 429 497 396 502 C 367 511 374 486 396 465 Z" fill="black"></path>
				<path d="M 801 528 Q 822 597 851 621 Q 866 637 852 653 Q 789 705 727 671 Q 655 646 580 630 C 551 624 565 597 594 604 Q 601 605 615 610 Q 633 614 651 619 L 683 627 Q 713 634 743 642 Q 759 646 766 640 Q 773 633 772 617 Q 765 571 754 533 C 746 504 792 499 801 528 Z" fill="red"></path>
				<path d="M 651 619 Q 651 616 652 505 C 652 475 685 485 688 515 Q 692 552 697 581 Q 698 587 698 591 Q 705 604 698 612 Q 691 621 683 627 C 660 646 651 649 651 619 Z" fill="lightgray"></path>
				<path d="M 584 461 Q 588 461 593 462 Q 662 481 810 501 Q 820 502 820 510 Q 820 516 801 528 L 754 533 L 753 533 Q 719 524 688 515 L 652 505 Q 615 498 584 492 C 555 486 554 458 584 461 Z" fill="lightgray"></path>
				<path d="M 899 376 Q 887 394 868 449 Q 867 462 861 466 Q 855 467 853 453 Q 834 392 821 373 Q 811 357 778 349 Q 702 327 634 358 Q 607 371 599 389 Q 584 416 584 461 L 584 492 Q 585 541 594 600 Q 594 603 594 604 C 596 622 596 622 580 630 Q 570 637 556 641 Q 544 645 538 640 Q 532 637 537 622 Q 550 588 548 556 Q 542 372 580 333 Q 599 314 644 299 Q 789 256 895 340 Q 911 355 899 376 Z" fill="lightgray"></path>
</g>
		<text x="40" y="140" font-size="128" fill="#999999">5</text></g>
</g>
	<g id="id1:id1" transform="translate(0.0,1024)">
		<g id="id1:id0:id0" transform="matrix(1.0,0,0,1.0,0,0.0)">			<g stroke="lightgray" stroke-width="4" transform="scale(4, 4)"> <rect x="0" y="0" width="256" height="256" fill="white" stroke-width="4"/></g>
			<g transform="scale(0.92, -0.92) translate(60, -920)">					<path d="M 369 669 Q 403 685 432 704 Q 472 728 508 740 Q 524 743 527 751 Q 528 761 516 770 Q 494 783 450 793 Q 434 797 422 795 Q 415 791 416 780 Q 417 746 265 641 C 240 624 250 615 278 627 Q 299 636 343 656 L 369 669 Z" fill="black"></path>
				<path d="M 265 641 Q 265 642 263 643 Q 214 668 198 664 Q 179 660 195 638 Q 234 572 206 354 Q 196 296 167 226 Q 143 165 47 68 Q 34 55 30 48 Q 29 41 40 42 Q 80 42 154 122 Q 233 209 255 356 Q 271 446 273 581 Q 277 600 278 612 Q 279 622 278 627 C 278 634 278 634 265 641 Z" fill="black"></path>
				<path d="M 396 502 Q 396 649 394 652 Q 393 653 392 654 Q 383 661 369 669 C 344 685 338 686 343 656 Q 358 614 343 130 Q 336 28 358 0 L 360 -2 Q 372 -15 381 1 Q 406 49 399 92 Q 396 120 396 465 L 396 502 Z" fill="black"></path>
				<path d="M 396 465 Q 429 438 476 357 Q 587 143 672 58 Q 696 37 808 40 Q 848 41 907 44 Q 926 45 927 51 Q 927 55 909 62 Q 849 83 781 114 Q 699 141 631 214 Q 561 283 447 466 Q 429 497 396 502 C 367 511 374 486 396 465 Z" fill="black"></path>
				<path d="M 801 528 Q 822 597 851 621 Q 866 637 852 653 Q 789 705 727 671 Q 655 646 580 630 C 551 624 565 597 594 604 Q 601 605 615 610 Q 633 614 651 619 L 683 627 Q 713 634 743 642 Q 759 646 766 640 Q 773 633 772 617 Q 765 571 754 533 C 746 504 792 499 801 528 Z" fill="black"></path>
				<path d="M 651 619 Q 651 616 652 505 C 652 475 685 485 688 515 Q 692 552 697 581 Q 698 587 698 591 Q 705 604 698 612 Q 691 621 683 627 C 660 646 651 649 651 619 Z" fill="red"></path>
				<path d="M 584 461 Q 588 461 593 462 Q 662 481 810 501 Q 820 502 820 510 Q 820 516 801 528 L 754 533 L 753 533 Q 719 524 688 515 L 652 505 Q 615 498 584 492 C 555 486 554 458 584 461 Z" fill="lightgray"></path>
				<path d="M 899 376 Q 887 394 868 449 Q 867 462 861 466 Q 855 467 853 453 Q 834 392 821 373 Q 811 357 778 349 Q 702 327 634 358 Q 607 371 599 389 Q 584 416 584 461 L 584 492 Q 585 541 594 600 Q 594 603 594 604 C 596 622 596 622 580 630 Q 570 637 556 641 Q 544 645 538 640 Q 532 637 537 622 Q 550 588 548 556 Q 542 372 580 333 Q 599 314 644 299 Q 789 256 895 340 Q 911 355 899 376 Z" fill="lightgray"></path>
</g>
		<text x="40" y="140" font-size="128" fill="#999999">6</text></g>
		<g id="id1:id1:id1" transform="matrix(1.0,0,0,1.0,1024,0.0)">			<g stroke="lightgray" stroke-width="4" transform="scale(4, 4)"> <rect x="0" y="0" width="256" height="256" fill="white" stroke-width="4"/></g>
			<g transform="scale(0.92, -0.92) translate(60, -920)">					<path d="M 369 669 Q 403 685 432 704 Q 472 728 508 740 Q 524 743 527 751 Q 528 761 516 770 Q 494 783 450 793 Q 434 797 422 795 Q 415 791 416 780 Q 417 746 265 641 C 240 624 250 615 278 627 Q 299 636 343 656 L 369 669 Z" fill="black"></path>
				<path d="M 265 641 Q 265 642 263 643 Q 214 668 198 664 Q 179 660 195 638 Q 234 572 206 354 Q 196 296 167 226 Q 143 165 47 68 Q 34 55 30 48 Q 29 41 40 42 Q 80 42 154 122 Q 233 209 255 356 Q 271 446 273 581 Q 277 600 278 612 Q 279 622 278 627 C 278 634 278 634 265 641 Z" fill="black"></path>
				<path d="M 396 502 Q 396 649 394 652 Q 393 653 392 654 Q 383 661 369 669 C 344 685 338 686 343 656 Q 358 614 343 130 Q 336 28 358 0 L 360 -2 Q 372 -15 381 1 Q 406 49 399 92 Q 396 120 396 465 L 396 502 Z" fill="black"></path>
				<path d="M 396 465 Q 429 438 476 357 Q 587 143 672 58 Q 696 37 808 40 Q 848 41 907 44 Q 926 45 927 51 Q 927 55 909 62 Q 849 83 781 114 Q 699 141 631 214 Q 561 283 447 466 Q 429 497 396 502 C 367 511 374 486 396 465 Z" fill="black"></path>
				<path d="M 801 528 Q 822 597 851 621 Q 866 637 852 653 Q 789 705 727 671 Q 655 646 580 630 C 551 624 565 597 594 604 Q 601 605 615 610 Q 633 614 651 619 L 683 627 Q 713 634 743 642 Q 759 646 766 640 Q 773 633 772 617 Q 765 571 754 533 C 746 504 792 499 801 528 Z" fill="black"></path>
				<path d="M 651 619 Q 651 616 652 505 C 652 475 685 485 688 515 Q 692 552 697 581 Q 698 587 698 591 Q 705 604 698 612 Q 691 621 683 627 C 660 646 651 649 651 619 Z" fill="black"></path>
				<path d="M 584 461 Q 588 461 593 462 Q 662 481 810 501 Q 820 502 820 510 Q 820 516 801 528 L 754 533 L 753 533 Q 719 524 688 515 L 652 505 Q 615 498 584 492 C 555 486 554 458 584 461 Z" fill="red"></path>
				<path d="M 899 376 Q 887 394 868 449 Q 867 462 861 466 Q 855 467 853 453 Q 834 392 821 373 Q 811 357 778 349 Q 702 327 634 358 Q 607 371 599 389 Q 584 416 584 461 L 584 492 Q 585 541 594 600 Q 594 603 594 604 C 596 622 596 622 580 630 Q 570 637 556 641 Q 544 645 538 640 Q 532 637 537 622 Q 550 588 548 556 Q 542 372 580 333 Q 599 314 644 299 Q 789 256 895 340 Q 911 355 899 376 Z" fill="lightgray"></path>
</g>
		<text x="40" y="140" font-size="128" fill="#999999">7</text></g>
		<g id="id1:id2:id2" transform="matrix(1.0,0,0,1.0,2048,0.0)">			<g stroke="lightgray" stroke-width="4" transform="scale(4, 4)"> <rect x="0" y="0" width="256" height="256" fill="white" stroke-width="4"/></g>
			<g transform="scale(0.92, -0.92) translate(60, -920)">					<path d="M 369 669 Q 403 685 432 704 Q 472 728 508 740 Q 524 743 527 751 Q 528 761 516 770 Q 494 783 450 793 Q 434 797 422 795 Q 415 791 416 780 Q 417 746 265 641 C 240 624 250 615 278 627 Q 299 636 343 656 L 369 669 Z" fill="black"></path>
				<path d="M 265 641 Q 265 642 263 643 Q 214 668 198 664 Q 179 660 195 638 Q 234 572 206 354 Q 196 296 167 226 Q 143 165 47 68 Q 34 55 30 48 Q 29 41 40 42 Q 80 42 154 122 Q 233 209 255 356 Q 271 446 273 581 Q 277 600 278 612 Q 279 622 278 627 C 278 634 278 634 265 641 Z" fill="black"></path>
				<path d="M 396 502 Q 396 649 394 652 Q 393 653 392 654 Q 383 661 369 669 C 344 685 338 686 343 656 Q 358 614 343 130 Q 336 28 358 0 L 360 -2 Q 372 -15 381 1 Q 406 49 399 92 Q 396 120 396 465 L 396 502 Z" fill="black"></path>
				<path d="M 396 465 Q 429 438 476 357 Q 587 143 672 58 Q 696 37 808 40 Q 848 41 907 44 Q 926 45 927 51 Q 927 55 909 62 Q 849 83 781 114 Q 699 141 631 214 Q 561 283 447 466 Q 429 497 396 502 C 367 511 374 486 396 465 Z" fill="black"></path>
				<path d="M 801 528 Q 822 597 851 621 Q 866 637 852 653 Q 789 705 727 671 Q 655 646 580 630 C 551 624 565 597 594 604 Q 601 605 615 610 Q 633 614 651 619 L 683 627 Q 713 634 743 642 Q 759 646 766 640 Q 773 633 772 617 Q 765 571 754 533 C 746 504 792 499 801 528 Z" fill="black"></path>
				<path d="M 651 619 Q 651 616 652 505 C 652 475 685 485 688 515 Q 692 552 697 581 Q 698 587 698 591 Q 705 604 698 612 Q 691 621 683 627 C 660 646 651 649 651 619 Z" fill="black"></path>
				<path d="M 584 461 Q 588 461 593 462 Q 662 481 810 501 Q 820 502 820 510 Q 820 516 801 528 L 754 533 L 753 533 Q 719 524 688 515 L 652 505 Q 615 498 584 492 C 555 486 554 458 584 461 Z" fill="black"></path>
				<path d="M 899 376 Q 887 394 868 449 Q 867 462 861 466 Q 855 467 853 453 Q 834 392 821 373 Q 811 357 778 349 Q 702 327 634 358 Q 607 371 599 389 Q 584 416 584 461 L 584 492 Q 585 541 594 600 Q 594 603 594 604 C 596 622 596 622 580 630 Q 570 637 556 641 Q 544 645 538 640 Q 532 637 537 622 Q 550 588 548 556 Q 542 372 580 333 Q 599 314 644 299 Q 789 256 895 340 Q 911 355 899 376 Z" fill="red"></path>
</g>
		<text x="40" y="140" font-size="128" fill="#999999">8</text></g>
		<g id="id1:id3:id3" transform="matrix(1.0,0,0,1.0,3072,0.0)">			<g stroke="white" stroke-width="4" transform="scale(4, 4)"> <rect x="1" y="1" width="255" height="255" fill="white" stroke-width="0"/></g>
</g>
		<g id="id1:id4:id4" transform="matrix(1.0,0,0,1.0,4096,0.0)">			<g stroke="white" stroke-width="4" transform="scale(4, 4)"> <rect x="1" y="1" width="255" height="255" fill="white" stroke-width="0"/></g>
</g>
</g>
</svg>
