<?xml version="1.0" standalone="no"?>
<!DOCTYPE svg PUBLIC "-//W3C//DTD SVG 1.1//EN"
 "http://www.w3.org/Graphics/SVG/1.1/DTD/svg11.dtd">
<!-- generate by Japanese dictionary app com.asnsami.kanjidictionary -->

<svg xmlns="http://www.w3.org/2000/svg" xmlns:sodipodi="http://sodipodi.sourceforge.net/DTD/sodipodi-0.dtd" version="1.1" width="640" height="256" viewBox="0 0 5120 2048">
	<g id="id0:id0" transform="translate(0.0,0)">
		<g id="id0:id0:id0" transform="matrix(1.0,0,0,1.0,0,0.0)">			<g stroke="lightgray" stroke-width="4" transform="scale(4, 4)"> <rect x="0" y="0" width="256" height="256" fill="white" stroke-width="4"/></g>
			<g transform="scale(0.92, -0.92) translate(60, -920)">					<path d="M 361 800 Q 351 725 233 646 Q 217 640 172 611 Q 160 599 176 599 Q 222 592 326 658 Q 407 724 425 738 Q 438 747 429 765 Q 396 810 374 814 Q 364 815 361 800 Z" fill="red"></path>
				<path d="M 608 793 Q 677 745 762 675 Q 780 659 794 656 Q 803 656 809 667 Q 819 680 801 720 Q 783 771 605 822 Q 595 826 595 814 Q 596 801 608 793 Z" fill="lightgray"></path>
				<path d="M 557 577 Q 587 613 624 648 Q 634 654 632 665 Q 629 677 606 702 Q 590 721 580 721 Q 567 722 563 707 Q 550 656 518 608 L 495 577 Q 398 465 229 390 Q 181 371 113 345 Q 103 341 109 335 Q 115 331 127 331 Q 212 340 293 372 Q 411 414 529 545 L 557 577 Z" fill="lightgray"></path>
				<path d="M 529 545 Q 709 374 783 376 Q 847 376 955 400 Q 967 404 970 413 Q 973 422 952 423 Q 895 436 833 445 Q 713 464 557 577 L 518 608 Q 434 677 373 660 Q 363 656 368 646 Q 375 639 386 638 Q 423 635 495 577 L 529 545 Z" fill="lightgray"></path>
				<path d="M 507 319 Q 579 331 642 334 Q 675 335 680 325 Q 687 315 684 289 Q 680 216 665 183 Q 646 149 616 154 Q 591 158 567 166 Q 542 173 561 149 Q 606 110 627 80 Q 642 62 657 75 Q 708 109 735 226 Q 745 302 765 324 Q 780 337 773 349 Q 764 361 711 387 Q 690 397 669 384 Q 633 366 501 348 Q 368 326 256 327 Q 237 328 234 319 Q 231 310 255 296 Q 280 277 303 284 Q 451 314 457 304 C 487 302 477 314 507 319 Z" fill="lightgray"></path>
				<path d="M 475 -40 Q 479 -64 486 -73 Q 492 -80 499 -78 Q 526 -62 526 68 Q 525 102 531 236 Q 531 243 538 281 Q 541 297 528 307 Q 516 314 507 319 C 481 334 446 332 457 304 Q 472 289 471 63 Q 472 -13 475 -40 Z" fill="lightgray"></path>
</g>
		<text x="40" y="140" font-size="128" fill="#999999">1</text></g>
		<g id="id0:id1:id1" transform="matrix(1.0,0,0,1.0,1024,0.0)">			<g stroke="lightgray" stroke-width="4" transform="scale(4, 4)"> <rect x="0" y="0" width="256" height="256" fill="white" stroke-width="4"/></g>
			<g transform="scale(0.92, -0.92) translate(60, -920)">					<path d="M 361 800 Q 351 725 233 646 Q 217 640 172 611 Q 160 599 176 599 Q 222 592 326 658 Q 407 724 425 738 Q 438 747 429 765 Q 396 810 374 814 Q 364 815 361 800 Z" fill="black"></path>
				<path d="M 608 793 Q 677 745 762 675 Q 780 659 794 656 Q 803 656 809 667 Q 819 680 801 720 Q 783 771 605 822 Q 595 826 595 814 Q 596 801 608 793 Z" fill="red"></path>
				<path d="M 557 577 Q 587 613 624 648 Q 634 654 632 665 Q 629 677 606 702 Q 590 721 580 721 Q 567 722 563 707 Q 550 656 518 608 L 495 577 Q 398 465 229 390 Q 181 371 113 345 Q 103 341 109 335 Q 115 331 127 331 Q 212 340 293 372 Q 411 414 529 545 L 557 577 Z" fill="lightgray"></path>
				<path d="M 529 545 Q 709 374 783 376 Q 847 376 955 400 Q 967 404 970 413 Q 973 422 952 423 Q 895 436 833 445 Q 713 464 557 577 L 518 608 Q 434 677 373 660 Q 363 656 368 646 Q 375 639 386 638 Q 423 635 495 577 L 529 545 Z" fill="lightgray"></path>
				<path d="M 507 319 Q 579 331 642 334 Q 675 335 680 325 Q 687 315 684 289 Q 680 216 665 183 Q 646 149 616 154 Q 591 158 567 166 Q 542 173 561 149 Q 606 110 627 80 Q 642 62 657 75 Q 708 109 735 226 Q 745 302 765 324 Q 780 337 773 349 Q 764 361 711 387 Q 690 397 669 384 Q 633 366 501 348 Q 368 326 256 327 Q 237 328 234 319 Q 231 310 255 296 Q 280 277 303 284 Q 451 314 457 304 C 487 302 477 314 507 319 Z" fill="lightgray"></path>
				<path d="M 475 -40 Q 479 -64 486 -73 Q 492 -80 499 -78 Q 526 -62 526 68 Q 525 102 531 236 Q 531 243 538 281 Q 541 297 528 307 Q 516 314 507 319 C 481 334 446 332 457 304 Q 472 289 471 63 Q 472 -13 475 -40 Z" fill="lightgray"></path>
</g>
		<text x="40" y="140" font-size="128" fill="#999999">2</text></g>
		<g id="id0:id2:id2" transform="matrix(1.0,0,0,1.0,2048,0.0)">			<g stroke="lightgray" stroke-width="4" transform="scale(4, 4)"> <rect x="0" y="0" width="256" height="256" fill="white" stroke-width="4"/></g>
			<g transform="scale(0.92, -0.92) translate(60, -920)">					<path d="M 361 800 Q 351 725 233 646 Q 217 640 172 611 Q 160 599 176 599 Q 222 592 326 658 Q 407 724 425 738 Q 438 747 429 765 Q 396 810 374 814 Q 364 815 361 800 Z" fill="black"></path>
				<path d="M 608 793 Q 677 745 762 675 Q 780 659 794 656 Q 803 656 809 667 Q 819 680 801 720 Q 783 771 605 822 Q 595 826 595 814 Q 596 801 608 793 Z" fill="black"></path>
				<path d="M 557 577 Q 587 613 624 648 Q 634 654 632 665 Q 629 677 606 702 Q 590 721 580 721 Q 567 722 563 707 Q 550 656 518 608 L 495 577 Q 398 465 229 390 Q 181 371 113 345 Q 103 341 109 335 Q 115 331 127 331 Q 212 340 293 372 Q 411 414 529 545 L 557 577 Z" fill="red"></path>
				<path d="M 529 545 Q 709 374 783 376 Q 847 376 955 400 Q 967 404 970 413 Q 973 422 952 423 Q 895 436 833 445 Q 713 464 557 577 L 518 608 Q 434 677 373 660 Q 363 656 368 646 Q 375 639 386 638 Q 423 635 495 577 L 529 545 Z" fill="lightgray"></path>
				<path d="M 507 319 Q 579 331 642 334 Q 675 335 680 325 Q 687 315 684 289 Q 680 216 665 183 Q 646 149 616 154 Q 591 158 567 166 Q 542 173 561 149 Q 606 110 627 80 Q 642 62 657 75 Q 708 109 735 226 Q 745 302 765 324 Q 780 337 773 349 Q 764 361 711 387 Q 690 397 669 384 Q 633 366 501 348 Q 368 326 256 327 Q 237 328 234 319 Q 231 310 255 296 Q 280 277 303 284 Q 451 314 457 304 C 487 302 477 314 507 319 Z" fill="lightgray"></path>
				<path d="M 475 -40 Q 479 -64 486 -73 Q 492 -80 499 -78 Q 526 -62 526 68 Q 525 102 531 236 Q 531 243 538 281 Q 541 297 528 307 Q 516 314 507 319 C 481 334 446 332 457 304 Q 472 289 471 63 Q 472 -13 475 -40 Z" fill="lightgray"></path>
</g>
		<text x="40" y="140" font-size="128" fill="#999999">3</text></g>
		<g id="id0:id3:id3" transform="matrix(1.0,0,0,1.0,3072,0.0)">			<g stroke="lightgray" stroke-width="4" transform="scale(4, 4)"> <rect x="0" y="0" width="256" height="256" fill="white" stroke-width="4"/></g>
			<g transform="scale(0.92, -0.92) translate(60, -920)">					<path d="M 361 800 Q 351 725 233 646 Q 217 640 172 611 Q 160 599 176 599 Q 222 592 326 658 Q 407 724 425 738 Q 438 747 429 765 Q 396 810 374 814 Q 364 815 361 800 Z" fill="black"></path>
				<path d="M 608 793 Q 677 745 762 675 Q 780 659 794 656 Q 803 656 809 667 Q 819 680 801 720 Q 783 771 605 822 Q 595 826 595 814 Q 596 801 608 793 Z" fill="black"></path>
				<path d="M 557 577 Q 587 613 624 648 Q 634 654 632 665 Q 629 677 606 702 Q 590 721 580 721 Q 567 722 563 707 Q 550 656 518 608 L 495 577 Q 398 465 229 390 Q 181 371 113 345 Q 103 341 109 335 Q 115 331 127 331 Q 212 340 293 372 Q 411 414 529 545 L 557 577 Z" fill="black"></path>
				<path d="M 529 545 Q 709 374 783 376 Q 847 376 955 400 Q 967 404 970 413 Q 973 422 952 423 Q 895 436 833 445 Q 713 464 557 577 L 518 608 Q 434 677 373 660 Q 363 656 368 646 Q 375 639 386 638 Q 423 635 495 577 L 529 545 Z" fill="red"></path>
				<path d="M 507 319 Q 579 331 642 334 Q 675 335 680 325 Q 687 315 684 289 Q 680 216 665 183 Q 646 149 616 154 Q 591 158 567 166 Q 542 173 561 149 Q 606 110 627 80 Q 642 62 657 75 Q 708 109 735 226 Q 745 302 765 324 Q 780 337 773 349 Q 764 361 711 387 Q 690 397 669 384 Q 633 366 501 348 Q 368 326 256 327 Q 237 328 234 319 Q 231 310 255 296 Q 280 277 303 284 Q 451 314 457 304 C 487 302 477 314 507 319 Z" fill="lightgray"></path>
				<path d="M 475 -40 Q 479 -64 486 -73 Q 492 -80 499 -78 Q 526 -62 526 68 Q 525 102 531 236 Q 531 243 538 281 Q 541 297 528 307 Q 516 314 507 319 C 481 334 446 332 457 304 Q 472 289 471 63 Q 472 -13 475 -40 Z" fill="lightgray"></path>
</g>
		<text x="40" y="140" font-size="128" fill="#999999">4</text></g>
		<g id="id0:id4:id4" transform="matrix(1.0,0,0,1.0,4096,0.0)">			<g stroke="lightgray" stroke-width="4" transform="scale(4, 4)"> <rect x="0" y="0" width="256" height="256" fill="white" stroke-width="4"/></g>
			<g transform="scale(0.92, -0.92) translate(60, -920)">					<path d="M 361 800 Q 351 725 233 646 Q 217 640 172 611 Q 160 599 176 599 Q 222 592 326 658 Q 407 724 425 738 Q 438 747 429 765 Q 396 810 374 814 Q 364 815 361 800 Z" fill="black"></path>
				<path d="M 608 793 Q 677 745 762 675 Q 780 659 794 656 Q 803 656 809 667 Q 819 680 801 720 Q 783 771 605 822 Q 595 826 595 814 Q 596 801 608 793 Z" fill="black"></path>
				<path d="M 557 577 Q 587 613 624 648 Q 634 654 632 665 Q 629 677 606 702 Q 590 721 580 721 Q 567 722 563 707 Q 550 656 518 608 L 495 577 Q 398 465 229 390 Q 181 371 113 345 Q 103 341 109 335 Q 115 331 127 331 Q 212 340 293 372 Q 411 414 529 545 L 557 577 Z" fill="black"></path>
				<path d="M 529 545 Q 709 374 783 376 Q 847 376 955 400 Q 967 404 970 413 Q 973 422 952 423 Q 895 436 833 445 Q 713 464 557 577 L 518 608 Q 434 677 373 660 Q 363 656 368 646 Q 375 639 386 638 Q 423 635 495 577 L 529 545 Z" fill="black"></path>
				<path d="M 507 319 Q 579 331 642 334 Q 675 335 680 325 Q 687 315 684 289 Q 680 216 665 183 Q 646 149 616 154 Q 591 158 567 166 Q 542 173 561 149 Q 606 110 627 80 Q 642 62 657 75 Q 708 109 735 226 Q 745 302 765 324 Q 780 337 773 349 Q 764 361 711 387 Q 690 397 669 384 Q 633 366 501 348 Q 368 326 256 327 Q 237 328 234 319 Q 231 310 255 296 Q 280 277 303 284 Q 451 314 457 304 C 487 302 477 314 507 319 Z" fill="red"></path>
				<path d="M 475 -40 Q 479 -64 486 -73 Q 492 -80 499 -78 Q 526 -62 526 68 Q 525 102 531 236 Q 531 243 538 281 Q 541 297 528 307 Q 516 314 507 319 C 481 334 446 332 457 304 Q 472 289 471 63 Q 472 -13 475 -40 Z" fill="lightgray"></path>
</g>
		<text x="40" y="140" font-size="128" fill="#999999">5</text></g>
</g>
	<g id="id1:id1" transform="translate(0.0,1024)">
		<g id="id1:id0:id0" transform="matrix(1.0,0,0,1.0,0,0.0)">			<g stroke="lightgray" stroke-width="4" transform="scale(4, 4)"> <rect x="0" y="0" width="256" height="256" fill="white" stroke-width="4"/></g>
			<g transform="scale(0.92, -0.92) translate(60, -920)">					<path d="M 361 800 Q 351 725 233 646 Q 217 640 172 611 Q 160 599 176 599 Q 222 592 326 658 Q 407 724 425 738 Q 438 747 429 765 Q 396 810 374 814 Q 364 815 361 800 Z" fill="black"></path>
				<path d="M 608 793 Q 677 745 762 675 Q 780 659 794 656 Q 803 656 809 667 Q 819 680 801 720 Q 783 771 605 822 Q 595 826 595 814 Q 596 801 608 793 Z" fill="black"></path>
				<path d="M 557 577 Q 587 613 624 648 Q 634 654 632 665 Q 629 677 606 702 Q 590 721 580 721 Q 567 722 563 707 Q 550 656 518 608 L 495 577 Q 398 465 229 390 Q 181 371 113 345 Q 103 341 109 335 Q 115 331 127 331 Q 212 340 293 372 Q 411 414 529 545 L 557 577 Z" fill="black"></path>
				<path d="M 529 545 Q 709 374 783 376 Q 847 376 955 400 Q 967 404 970 413 Q 973 422 952 423 Q 895 436 833 445 Q 713 464 557 577 L 518 608 Q 434 677 373 660 Q 363 656 368 646 Q 375 639 386 638 Q 423 635 495 577 L 529 545 Z" fill="black"></path>
				<path d="M 507 319 Q 579 331 642 334 Q 675 335 680 325 Q 687 315 684 289 Q 680 216 665 183 Q 646 149 616 154 Q 591 158 567 166 Q 542 173 561 149 Q 606 110 627 80 Q 642 62 657 75 Q 708 109 735 226 Q 745 302 765 324 Q 780 337 773 349 Q 764 361 711 387 Q 690 397 669 384 Q 633 366 501 348 Q 368 326 256 327 Q 237 328 234 319 Q 231 310 255 296 Q 280 277 303 284 Q 451 314 457 304 C 487 302 477 314 507 319 Z" fill="black"></path>
				<path d="M 475 -40 Q 479 -64 486 -73 Q 492 -80 499 -78 Q 526 -62 526 68 Q 525 102 531 236 Q 531 243 538 281 Q 541 297 528 307 Q 516 314 507 319 C 481 334 446 332 457 304 Q 472 289 471 63 Q 472 -13 475 -40 Z" fill="red"></path>
</g>
		<text x="40" y="140" font-size="128" fill="#999999">6</text></g>
		<g id="id1:id1:id1" transform="matrix(1.0,0,0,1.0,1024,0.0)">			<g stroke="white" stroke-width="4" transform="scale(4, 4)"> <rect x="1" y="1" width="255" height="255" fill="white" stroke-width="0"/></g>
</g>
		<g id="id1:id2:id2" transform="matrix(1.0,0,0,1.0,2048,0.0)">			<g stroke="white" stroke-width="4" transform="scale(4, 4)"> <rect x="1" y="1" width="255" height="255" fill="white" stroke-width="0"/></g>
</g>
		<g id="id1:id3:id3" transform="matrix(1.0,0,0,1.0,3072,0.0)">			<g stroke="white" stroke-width="4" transform="scale(4, 4)"> <rect x="1" y="1" width="255" height="255" fill="white" stroke-width="0"/></g>
</g>
		<g id="id1:id4:id4" transform="matrix(1.0,0,0,1.0,4096,0.0)">			<g stroke="white" stroke-width="4" transform="scale(4, 4)"> <rect x="1" y="1" width="255" height="255" fill="white" stroke-width="0"/></g>
</g>
</g>
</svg>
