<?xml version="1.0" standalone="no"?>
<!DOCTYPE svg PUBLIC "-//W3C//DTD SVG 1.1//EN"
 "http://www.w3.org/Graphics/SVG/1.1/DTD/svg11.dtd">
<!-- generate by Japanese dictionary app com.asnsami.kanjidictionary -->

<svg xmlns="http://www.w3.org/2000/svg" xmlns:sodipodi="http://sodipodi.sourceforge.net/DTD/sodipodi-0.dtd" version="1.1" width="640" height="128" viewBox="0 0 5120 1024">
	<g id="id0:id0" transform="translate(0.0,0)">
		<g id="id0:id0:id0" transform="matrix(1.0,0,0,1.0,0,0.0)">			<g stroke="lightgray" stroke-width="4" transform="scale(4, 4)"> <rect x="0" y="0" width="256" height="256" fill="white" stroke-width="4"/></g>
			<g transform="scale(0.92, -0.92) translate(60, -920)">					<path d="M 549 637 Q 576 670 606 712 Q 624 737 645 759 Q 655 766 652 778 Q 648 790 622 814 Q 603 832 593 831 Q 578 830 577 815 Q 565 736 496 656 L 464 622 Q 394 553 240 478 Q 230 472 236 467 Q 264 451 390 510 Q 453 538 499 585 Q 505 591 512 597 L 549 637 Z" fill="red"></path>
				<path d="M 512 597 Q 597 554 671 502 Q 689 486 704 483 Q 717 480 723 499 Q 727 515 715 543 Q 702 582 549 637 L 496 656 Q 313 722 301 714 Q 295 713 299 700 Q 302 691 320 685 Q 396 655 464 622 L 512 597 Z" fill="lightgray"></path>
				<path d="M 525 191 Q 567 251 598 346 Q 607 377 618 398 Q 625 411 618 420 Q 602 445 578 460 Q 557 476 546 474 Q 536 471 536 458 Q 548 344 482 231 L 463 198 Q 403 111 244 66 Q 195 56 125 44 Q 115 45 109 41 Q 102 38 111 31 Q 117 28 132 27 Q 247 23 336 50 Q 426 77 498 156 L 525 191 Z" fill="lightgray"></path>
				<path d="M 498 156 Q 645 -12 693 -17 Q 819 -17 880 -9 Q 923 -5 919 7 Q 918 13 876 25 Q 717 67 681 84 Q 626 111 525 191 L 482 231 Q 427 285 371 347 Q 335 387 301 388 Q 283 389 279 385 Q 278 378 293 367 Q 347 334 463 198 L 498 156 Z" fill="lightgray"></path>
</g>
		<text x="40" y="140" font-size="128" fill="#999999">1</text></g>
		<g id="id0:id1:id1" transform="matrix(1.0,0,0,1.0,1024,0.0)">			<g stroke="lightgray" stroke-width="4" transform="scale(4, 4)"> <rect x="0" y="0" width="256" height="256" fill="white" stroke-width="4"/></g>
			<g transform="scale(0.92, -0.92) translate(60, -920)">					<path d="M 549 637 Q 576 670 606 712 Q 624 737 645 759 Q 655 766 652 778 Q 648 790 622 814 Q 603 832 593 831 Q 578 830 577 815 Q 565 736 496 656 L 464 622 Q 394 553 240 478 Q 230 472 236 467 Q 264 451 390 510 Q 453 538 499 585 Q 505 591 512 597 L 549 637 Z" fill="black"></path>
				<path d="M 512 597 Q 597 554 671 502 Q 689 486 704 483 Q 717 480 723 499 Q 727 515 715 543 Q 702 582 549 637 L 496 656 Q 313 722 301 714 Q 295 713 299 700 Q 302 691 320 685 Q 396 655 464 622 L 512 597 Z" fill="red"></path>
				<path d="M 525 191 Q 567 251 598 346 Q 607 377 618 398 Q 625 411 618 420 Q 602 445 578 460 Q 557 476 546 474 Q 536 471 536 458 Q 548 344 482 231 L 463 198 Q 403 111 244 66 Q 195 56 125 44 Q 115 45 109 41 Q 102 38 111 31 Q 117 28 132 27 Q 247 23 336 50 Q 426 77 498 156 L 525 191 Z" fill="lightgray"></path>
				<path d="M 498 156 Q 645 -12 693 -17 Q 819 -17 880 -9 Q 923 -5 919 7 Q 918 13 876 25 Q 717 67 681 84 Q 626 111 525 191 L 482 231 Q 427 285 371 347 Q 335 387 301 388 Q 283 389 279 385 Q 278 378 293 367 Q 347 334 463 198 L 498 156 Z" fill="lightgray"></path>
</g>
		<text x="40" y="140" font-size="128" fill="#999999">2</text></g>
		<g id="id0:id2:id2" transform="matrix(1.0,0,0,1.0,2048,0.0)">			<g stroke="lightgray" stroke-width="4" transform="scale(4, 4)"> <rect x="0" y="0" width="256" height="256" fill="white" stroke-width="4"/></g>
			<g transform="scale(0.92, -0.92) translate(60, -920)">					<path d="M 549 637 Q 576 670 606 712 Q 624 737 645 759 Q 655 766 652 778 Q 648 790 622 814 Q 603 832 593 831 Q 578 830 577 815 Q 565 736 496 656 L 464 622 Q 394 553 240 478 Q 230 472 236 467 Q 264 451 390 510 Q 453 538 499 585 Q 505 591 512 597 L 549 637 Z" fill="black"></path>
				<path d="M 512 597 Q 597 554 671 502 Q 689 486 704 483 Q 717 480 723 499 Q 727 515 715 543 Q 702 582 549 637 L 496 656 Q 313 722 301 714 Q 295 713 299 700 Q 302 691 320 685 Q 396 655 464 622 L 512 597 Z" fill="black"></path>
				<path d="M 525 191 Q 567 251 598 346 Q 607 377 618 398 Q 625 411 618 420 Q 602 445 578 460 Q 557 476 546 474 Q 536 471 536 458 Q 548 344 482 231 L 463 198 Q 403 111 244 66 Q 195 56 125 44 Q 115 45 109 41 Q 102 38 111 31 Q 117 28 132 27 Q 247 23 336 50 Q 426 77 498 156 L 525 191 Z" fill="red"></path>
				<path d="M 498 156 Q 645 -12 693 -17 Q 819 -17 880 -9 Q 923 -5 919 7 Q 918 13 876 25 Q 717 67 681 84 Q 626 111 525 191 L 482 231 Q 427 285 371 347 Q 335 387 301 388 Q 283 389 279 385 Q 278 378 293 367 Q 347 334 463 198 L 498 156 Z" fill="lightgray"></path>
</g>
		<text x="40" y="140" font-size="128" fill="#999999">3</text></g>
		<g id="id0:id3:id3" transform="matrix(1.0,0,0,1.0,3072,0.0)">			<g stroke="lightgray" stroke-width="4" transform="scale(4, 4)"> <rect x="0" y="0" width="256" height="256" fill="white" stroke-width="4"/></g>
			<g transform="scale(0.92, -0.92) translate(60, -920)">					<path d="M 549 637 Q 576 670 606 712 Q 624 737 645 759 Q 655 766 652 778 Q 648 790 622 814 Q 603 832 593 831 Q 578 830 577 815 Q 565 736 496 656 L 464 622 Q 394 553 240 478 Q 230 472 236 467 Q 264 451 390 510 Q 453 538 499 585 Q 505 591 512 597 L 549 637 Z" fill="black"></path>
				<path d="M 512 597 Q 597 554 671 502 Q 689 486 704 483 Q 717 480 723 499 Q 727 515 715 543 Q 702 582 549 637 L 496 656 Q 313 722 301 714 Q 295 713 299 700 Q 302 691 320 685 Q 396 655 464 622 L 512 597 Z" fill="black"></path>
				<path d="M 525 191 Q 567 251 598 346 Q 607 377 618 398 Q 625 411 618 420 Q 602 445 578 460 Q 557 476 546 474 Q 536 471 536 458 Q 548 344 482 231 L 463 198 Q 403 111 244 66 Q 195 56 125 44 Q 115 45 109 41 Q 102 38 111 31 Q 117 28 132 27 Q 247 23 336 50 Q 426 77 498 156 L 525 191 Z" fill="black"></path>
				<path d="M 498 156 Q 645 -12 693 -17 Q 819 -17 880 -9 Q 923 -5 919 7 Q 918 13 876 25 Q 717 67 681 84 Q 626 111 525 191 L 482 231 Q 427 285 371 347 Q 335 387 301 388 Q 283 389 279 385 Q 278 378 293 367 Q 347 334 463 198 L 498 156 Z" fill="red"></path>
</g>
		<text x="40" y="140" font-size="128" fill="#999999">4</text></g>
		<g id="id0:id4:id4" transform="matrix(1.0,0,0,1.0,4096,0.0)">			<g stroke="white" stroke-width="4" transform="scale(4, 4)"> <rect x="1" y="1" width="255" height="255" fill="white" stroke-width="0"/></g>
</g>
</g>
</svg>
