<?xml version="1.0" standalone="no"?>
<!DOCTYPE svg PUBLIC "-//W3C//DTD SVG 1.1//EN"
 "http://www.w3.org/Graphics/SVG/1.1/DTD/svg11.dtd">
<!-- generate by Handict dictionary app com.asnsami.handict -->

<svg xmlns="http://www.w3.org/2000/svg" xmlns:sodipodi="http://sodipodi.sourceforge.net/DTD/sodipodi-0.dtd" version="1.1" width="640" height="128" viewBox="0 0 5120 1024">
	<g id="id0:id0" transform="translate(0.0,0)">
		<g id="id0:id0:id0" transform="matrix(1.0,0,0,1.0,0,0.0)">			<g stroke="lightgray" stroke-width="4" transform="scale(4, 4)"> <rect x="0" y="0" width="256" height="256" fill="white" stroke-width="4"/></g>
			<g transform="scale(0.92, -0.92) translate(60, -920)">					<path d="M 356 343 Q 369 433 374 494 L 376 519 Q 379 651 383 685 Q 389 707 366 718 Q 311 743 294 739 Q 272 735 291 710 Q 327 656 315 447 Q 312 362 273 260 Q 245 182 147 83 Q 132 68 128 61 Q 127 54 140 54 Q 188 58 262 145 Q 326 221 350 315 L 356 343 Z" fill="red"></path>
				<path d="M 624 573 Q 645 744 660 778 Q 664 788 644 804 Q 611 823 587 829 Q 572 833 564 825 Q 557 818 564 803 Q 579 781 579 766 Q 583 669 580 558 C 579 528 620 543 624 573 Z" fill="lightgray"></path>
				<path d="M 374 494 Q 413 476 462 487 Q 559 506 661 527 Q 707 537 715 545 Q 724 552 719 561 Q 712 571 684 579 Q 654 585 625 574 Q 624 574 624 573 L 580 558 Q 442 528 377 520 Q 376 520 376 519 C 347 513 346 505 374 494 Z" fill="lightgray"></path>
				<path d="M 350 315 Q 374 303 593 352 Q 612 356 616 339 Q 632 248 604 81 Q 600 47 615 21 Q 643 -30 656 -29 Q 669 -28 677 -5 Q 684 31 682 259 Q 682 313 703 344 Q 719 366 714 376 Q 705 385 672 397 Q 635 412 607 400 Q 502 361 356 343 C 326 339 320 318 350 315 Z" fill="lightgray"></path>
</g>
		<text x="40" y="140" font-size="128" fill="#999999">1</text></g>
		<g id="id0:id1:id1" transform="matrix(1.0,0,0,1.0,1024,0.0)">			<g stroke="lightgray" stroke-width="4" transform="scale(4, 4)"> <rect x="0" y="0" width="256" height="256" fill="white" stroke-width="4"/></g>
			<g transform="scale(0.92, -0.92) translate(60, -920)">					<path d="M 356 343 Q 369 433 374 494 L 376 519 Q 379 651 383 685 Q 389 707 366 718 Q 311 743 294 739 Q 272 735 291 710 Q 327 656 315 447 Q 312 362 273 260 Q 245 182 147 83 Q 132 68 128 61 Q 127 54 140 54 Q 188 58 262 145 Q 326 221 350 315 L 356 343 Z" fill="black"></path>
				<path d="M 624 573 Q 645 744 660 778 Q 664 788 644 804 Q 611 823 587 829 Q 572 833 564 825 Q 557 818 564 803 Q 579 781 579 766 Q 583 669 580 558 C 579 528 620 543 624 573 Z" fill="red"></path>
				<path d="M 374 494 Q 413 476 462 487 Q 559 506 661 527 Q 707 537 715 545 Q 724 552 719 561 Q 712 571 684 579 Q 654 585 625 574 Q 624 574 624 573 L 580 558 Q 442 528 377 520 Q 376 520 376 519 C 347 513 346 505 374 494 Z" fill="lightgray"></path>
				<path d="M 350 315 Q 374 303 593 352 Q 612 356 616 339 Q 632 248 604 81 Q 600 47 615 21 Q 643 -30 656 -29 Q 669 -28 677 -5 Q 684 31 682 259 Q 682 313 703 344 Q 719 366 714 376 Q 705 385 672 397 Q 635 412 607 400 Q 502 361 356 343 C 326 339 320 318 350 315 Z" fill="lightgray"></path>
</g>
		<text x="40" y="140" font-size="128" fill="#999999">2</text></g>
		<g id="id0:id2:id2" transform="matrix(1.0,0,0,1.0,2048,0.0)">			<g stroke="lightgray" stroke-width="4" transform="scale(4, 4)"> <rect x="0" y="0" width="256" height="256" fill="white" stroke-width="4"/></g>
			<g transform="scale(0.92, -0.92) translate(60, -920)">					<path d="M 356 343 Q 369 433 374 494 L 376 519 Q 379 651 383 685 Q 389 707 366 718 Q 311 743 294 739 Q 272 735 291 710 Q 327 656 315 447 Q 312 362 273 260 Q 245 182 147 83 Q 132 68 128 61 Q 127 54 140 54 Q 188 58 262 145 Q 326 221 350 315 L 356 343 Z" fill="black"></path>
				<path d="M 624 573 Q 645 744 660 778 Q 664 788 644 804 Q 611 823 587 829 Q 572 833 564 825 Q 557 818 564 803 Q 579 781 579 766 Q 583 669 580 558 C 579 528 620 543 624 573 Z" fill="black"></path>
				<path d="M 374 494 Q 413 476 462 487 Q 559 506 661 527 Q 707 537 715 545 Q 724 552 719 561 Q 712 571 684 579 Q 654 585 625 574 Q 624 574 624 573 L 580 558 Q 442 528 377 520 Q 376 520 376 519 C 347 513 346 505 374 494 Z" fill="red"></path>
				<path d="M 350 315 Q 374 303 593 352 Q 612 356 616 339 Q 632 248 604 81 Q 600 47 615 21 Q 643 -30 656 -29 Q 669 -28 677 -5 Q 684 31 682 259 Q 682 313 703 344 Q 719 366 714 376 Q 705 385 672 397 Q 635 412 607 400 Q 502 361 356 343 C 326 339 320 318 350 315 Z" fill="lightgray"></path>
</g>
		<text x="40" y="140" font-size="128" fill="#999999">3</text></g>
		<g id="id0:id3:id3" transform="matrix(1.0,0,0,1.0,3072,0.0)">			<g stroke="lightgray" stroke-width="4" transform="scale(4, 4)"> <rect x="0" y="0" width="256" height="256" fill="white" stroke-width="4"/></g>
			<g transform="scale(0.92, -0.92) translate(60, -920)">					<path d="M 356 343 Q 369 433 374 494 L 376 519 Q 379 651 383 685 Q 389 707 366 718 Q 311 743 294 739 Q 272 735 291 710 Q 327 656 315 447 Q 312 362 273 260 Q 245 182 147 83 Q 132 68 128 61 Q 127 54 140 54 Q 188 58 262 145 Q 326 221 350 315 L 356 343 Z" fill="black"></path>
				<path d="M 624 573 Q 645 744 660 778 Q 664 788 644 804 Q 611 823 587 829 Q 572 833 564 825 Q 557 818 564 803 Q 579 781 579 766 Q 583 669 580 558 C 579 528 620 543 624 573 Z" fill="black"></path>
				<path d="M 374 494 Q 413 476 462 487 Q 559 506 661 527 Q 707 537 715 545 Q 724 552 719 561 Q 712 571 684 579 Q 654 585 625 574 Q 624 574 624 573 L 580 558 Q 442 528 377 520 Q 376 520 376 519 C 347 513 346 505 374 494 Z" fill="black"></path>
				<path d="M 350 315 Q 374 303 593 352 Q 612 356 616 339 Q 632 248 604 81 Q 600 47 615 21 Q 643 -30 656 -29 Q 669 -28 677 -5 Q 684 31 682 259 Q 682 313 703 344 Q 719 366 714 376 Q 705 385 672 397 Q 635 412 607 400 Q 502 361 356 343 C 326 339 320 318 350 315 Z" fill="red"></path>
</g>
		<text x="40" y="140" font-size="128" fill="#999999">4</text></g>
		<g id="id0:id4:id4" transform="matrix(1.0,0,0,1.0,4096,0.0)">			<g stroke="white" stroke-width="4" transform="scale(4, 4)"> <rect x="1" y="1" width="255" height="255" fill="white" stroke-width="0"/></g>
</g>
</g>
</svg>
