<?xml version="1.0" standalone="no"?>
<!DOCTYPE svg PUBLIC "-//W3C//DTD SVG 1.1//EN"
 "http://www.w3.org/Graphics/SVG/1.1/DTD/svg11.dtd">
<!-- generate by Handict dictionary app com.asnsami.handict -->

<svg xmlns="http://www.w3.org/2000/svg" xmlns:sodipodi="http://sodipodi.sourceforge.net/DTD/sodipodi-0.dtd" version="1.1" width="640" height="128" viewBox="0 0 5120 1024">
	<g id="id0:id0" transform="translate(0.0,0)">
		<g id="id0:id0:id0" transform="matrix(1.0,0,0,1.0,0,0.0)">			<g stroke="lightgray" stroke-width="4" transform="scale(4, 4)"> <rect x="0" y="0" width="256" height="256" fill="white" stroke-width="4"/></g>
			<g transform="scale(0.92, -0.92) translate(60, -920)">					<path d="M 343 575 Q 344 576 345 577 Q 369 617 390 649 Q 400 662 385 678 Q 337 711 311 706 Q 299 703 303 688 Q 321 615 236 498 Q 227 494 197 449 Q 188 433 204 438 Q 220 441 242 458 Q 297 501 331 554 L 343 575 Z" fill="red"></path>
				<path d="M 559 559 Q 736 596 742 601 Q 752 610 747 619 Q 740 632 708 640 Q 677 647 643 635 Q 601 622 561 610 L 504 597 Q 431 582 347 576 Q 343 576 343 575 C 313 571 310 571 331 554 Q 364 521 441 537 Q 471 543 503 548 L 559 559 Z" fill="lightgray"></path>
				<path d="M 556 343 Q 676 356 843 356 Q 877 356 906 357 Q 931 357 936 368 Q 943 381 923 399 Q 853 451 786 429 Q 692 411 556 387 L 501 379 Q 326 354 119 327 Q 94 324 113 303 Q 129 287 152 281 Q 177 274 197 280 Q 318 314 455 331 Q 476 335 501 337 L 556 343 Z" fill="lightgray"></path>
				<path d="M 501 337 Q 491 -35 512 -68 Q 527 -84 536 -62 Q 557 -14 556 343 L 556 387 Q 557 486 559 559 L 561 610 Q 564 746 584 778 Q 593 799 573 815 Q 548 834 503 847 Q 482 853 469 838 Q 459 829 472 817 Q 503 790 505 753 Q 505 692 504 597 L 503 548 Q 502 458 501 379 L 501 337 Z" fill="lightgray"></path>
</g>
		<text x="40" y="140" font-size="128" fill="#999999">1</text></g>
		<g id="id0:id1:id1" transform="matrix(1.0,0,0,1.0,1024,0.0)">			<g stroke="lightgray" stroke-width="4" transform="scale(4, 4)"> <rect x="0" y="0" width="256" height="256" fill="white" stroke-width="4"/></g>
			<g transform="scale(0.92, -0.92) translate(60, -920)">					<path d="M 343 575 Q 344 576 345 577 Q 369 617 390 649 Q 400 662 385 678 Q 337 711 311 706 Q 299 703 303 688 Q 321 615 236 498 Q 227 494 197 449 Q 188 433 204 438 Q 220 441 242 458 Q 297 501 331 554 L 343 575 Z" fill="black"></path>
				<path d="M 559 559 Q 736 596 742 601 Q 752 610 747 619 Q 740 632 708 640 Q 677 647 643 635 Q 601 622 561 610 L 504 597 Q 431 582 347 576 Q 343 576 343 575 C 313 571 310 571 331 554 Q 364 521 441 537 Q 471 543 503 548 L 559 559 Z" fill="red"></path>
				<path d="M 556 343 Q 676 356 843 356 Q 877 356 906 357 Q 931 357 936 368 Q 943 381 923 399 Q 853 451 786 429 Q 692 411 556 387 L 501 379 Q 326 354 119 327 Q 94 324 113 303 Q 129 287 152 281 Q 177 274 197 280 Q 318 314 455 331 Q 476 335 501 337 L 556 343 Z" fill="lightgray"></path>
				<path d="M 501 337 Q 491 -35 512 -68 Q 527 -84 536 -62 Q 557 -14 556 343 L 556 387 Q 557 486 559 559 L 561 610 Q 564 746 584 778 Q 593 799 573 815 Q 548 834 503 847 Q 482 853 469 838 Q 459 829 472 817 Q 503 790 505 753 Q 505 692 504 597 L 503 548 Q 502 458 501 379 L 501 337 Z" fill="lightgray"></path>
</g>
		<text x="40" y="140" font-size="128" fill="#999999">2</text></g>
		<g id="id0:id2:id2" transform="matrix(1.0,0,0,1.0,2048,0.0)">			<g stroke="lightgray" stroke-width="4" transform="scale(4, 4)"> <rect x="0" y="0" width="256" height="256" fill="white" stroke-width="4"/></g>
			<g transform="scale(0.92, -0.92) translate(60, -920)">					<path d="M 343 575 Q 344 576 345 577 Q 369 617 390 649 Q 400 662 385 678 Q 337 711 311 706 Q 299 703 303 688 Q 321 615 236 498 Q 227 494 197 449 Q 188 433 204 438 Q 220 441 242 458 Q 297 501 331 554 L 343 575 Z" fill="black"></path>
				<path d="M 559 559 Q 736 596 742 601 Q 752 610 747 619 Q 740 632 708 640 Q 677 647 643 635 Q 601 622 561 610 L 504 597 Q 431 582 347 576 Q 343 576 343 575 C 313 571 310 571 331 554 Q 364 521 441 537 Q 471 543 503 548 L 559 559 Z" fill="black"></path>
				<path d="M 556 343 Q 676 356 843 356 Q 877 356 906 357 Q 931 357 936 368 Q 943 381 923 399 Q 853 451 786 429 Q 692 411 556 387 L 501 379 Q 326 354 119 327 Q 94 324 113 303 Q 129 287 152 281 Q 177 274 197 280 Q 318 314 455 331 Q 476 335 501 337 L 556 343 Z" fill="red"></path>
				<path d="M 501 337 Q 491 -35 512 -68 Q 527 -84 536 -62 Q 557 -14 556 343 L 556 387 Q 557 486 559 559 L 561 610 Q 564 746 584 778 Q 593 799 573 815 Q 548 834 503 847 Q 482 853 469 838 Q 459 829 472 817 Q 503 790 505 753 Q 505 692 504 597 L 503 548 Q 502 458 501 379 L 501 337 Z" fill="lightgray"></path>
</g>
		<text x="40" y="140" font-size="128" fill="#999999">3</text></g>
		<g id="id0:id3:id3" transform="matrix(1.0,0,0,1.0,3072,0.0)">			<g stroke="lightgray" stroke-width="4" transform="scale(4, 4)"> <rect x="0" y="0" width="256" height="256" fill="white" stroke-width="4"/></g>
			<g transform="scale(0.92, -0.92) translate(60, -920)">					<path d="M 343 575 Q 344 576 345 577 Q 369 617 390 649 Q 400 662 385 678 Q 337 711 311 706 Q 299 703 303 688 Q 321 615 236 498 Q 227 494 197 449 Q 188 433 204 438 Q 220 441 242 458 Q 297 501 331 554 L 343 575 Z" fill="black"></path>
				<path d="M 559 559 Q 736 596 742 601 Q 752 610 747 619 Q 740 632 708 640 Q 677 647 643 635 Q 601 622 561 610 L 504 597 Q 431 582 347 576 Q 343 576 343 575 C 313 571 310 571 331 554 Q 364 521 441 537 Q 471 543 503 548 L 559 559 Z" fill="black"></path>
				<path d="M 556 343 Q 676 356 843 356 Q 877 356 906 357 Q 931 357 936 368 Q 943 381 923 399 Q 853 451 786 429 Q 692 411 556 387 L 501 379 Q 326 354 119 327 Q 94 324 113 303 Q 129 287 152 281 Q 177 274 197 280 Q 318 314 455 331 Q 476 335 501 337 L 556 343 Z" fill="black"></path>
				<path d="M 501 337 Q 491 -35 512 -68 Q 527 -84 536 -62 Q 557 -14 556 343 L 556 387 Q 557 486 559 559 L 561 610 Q 564 746 584 778 Q 593 799 573 815 Q 548 834 503 847 Q 482 853 469 838 Q 459 829 472 817 Q 503 790 505 753 Q 505 692 504 597 L 503 548 Q 502 458 501 379 L 501 337 Z" fill="red"></path>
</g>
		<text x="40" y="140" font-size="128" fill="#999999">4</text></g>
		<g id="id0:id4:id4" transform="matrix(1.0,0,0,1.0,4096,0.0)">			<g stroke="white" stroke-width="4" transform="scale(4, 4)"> <rect x="1" y="1" width="255" height="255" fill="white" stroke-width="0"/></g>
</g>
</g>
</svg>
