<?xml version="1.0" standalone="no"?>
<!DOCTYPE svg PUBLIC "-//W3C//DTD SVG 1.1//EN"
 "http://www.w3.org/Graphics/SVG/1.1/DTD/svg11.dtd">
<!-- generate by Japanese dictionary app com.asnsami.kanjidictionary -->

<svg xmlns="http://www.w3.org/2000/svg" xmlns:sodipodi="http://sodipodi.sourceforge.net/DTD/sodipodi-0.dtd" version="1.1" width="640" height="128" viewBox="0 0 5120 1024">
	<g id="id0:id0" transform="translate(0.0,0)">
		<g id="id0:id0:id0" transform="matrix(1.0,0,0,1.0,0,0.0)">			<g stroke="lightgray" stroke-width="4" transform="scale(4, 4)"> <rect x="0" y="0" width="256" height="256" fill="white" stroke-width="4"/></g>
			<g transform="scale(0.92, -0.92) translate(60, -920)">					<path d="M 574 716 Q 703 749 708 753 Q 717 763 712 771 Q 703 784 672 791 Q 650 795 543 761 Q 432 734 385 728 Q 346 721 375 703 Q 420 679 483 696 Q 505 702 530 706 L 574 716 Z" fill="red"></path>
				<path d="M 605 487 Q 657 500 833 498 Q 858 497 866 511 Q 873 521 851 535 Q 788 575 734 558 Q 623 536 606 529 L 549 519 Q 441 500 337 471 Q 306 459 313 489 Q 329 564 344 593 Q 354 605 348 616 Q 341 628 302 645 Q 283 655 271 648 Q 259 638 270 623 Q 286 586 267 502 Q 263 480 236 454 Q 226 442 228 427 Q 232 414 251 400 Q 266 391 280 405 Q 361 451 507 472 L 605 487 Z" fill="lightgray"></path>
				<path d="M 549 431 Q 549 296 549 100 Q 548 66 537 52 Q 525 45 496 53 Q 468 63 433 72 Q 420 76 421 68 Q 421 59 432 50 Q 504 -7 550 -53 Q 562 -63 576 -46 Q 618 8 614 93 Q 601 360 605 487 L 606 529 Q 607 590 613 648 Q 620 676 613 687 Q 604 700 574 716 C 548 732 521 735 530 706 Q 546 655 548 636 Q 548 579 549 519 L 549 431 Z" fill="lightgray"></path>
				<path d="M 507 472 Q 485 397 356 274 Q 245 180 143 113 Q 124 100 141 97 Q 174 94 280 151 Q 362 202 454 301 Q 485 337 549 431 C 586 486 527 528 507 472 Z" fill="lightgray"></path>
</g>
		<text x="40" y="140" font-size="128" fill="#999999">1</text></g>
		<g id="id0:id1:id1" transform="matrix(1.0,0,0,1.0,1024,0.0)">			<g stroke="lightgray" stroke-width="4" transform="scale(4, 4)"> <rect x="0" y="0" width="256" height="256" fill="white" stroke-width="4"/></g>
			<g transform="scale(0.92, -0.92) translate(60, -920)">					<path d="M 574 716 Q 703 749 708 753 Q 717 763 712 771 Q 703 784 672 791 Q 650 795 543 761 Q 432 734 385 728 Q 346 721 375 703 Q 420 679 483 696 Q 505 702 530 706 L 574 716 Z" fill="black"></path>
				<path d="M 605 487 Q 657 500 833 498 Q 858 497 866 511 Q 873 521 851 535 Q 788 575 734 558 Q 623 536 606 529 L 549 519 Q 441 500 337 471 Q 306 459 313 489 Q 329 564 344 593 Q 354 605 348 616 Q 341 628 302 645 Q 283 655 271 648 Q 259 638 270 623 Q 286 586 267 502 Q 263 480 236 454 Q 226 442 228 427 Q 232 414 251 400 Q 266 391 280 405 Q 361 451 507 472 L 605 487 Z" fill="red"></path>
				<path d="M 549 431 Q 549 296 549 100 Q 548 66 537 52 Q 525 45 496 53 Q 468 63 433 72 Q 420 76 421 68 Q 421 59 432 50 Q 504 -7 550 -53 Q 562 -63 576 -46 Q 618 8 614 93 Q 601 360 605 487 L 606 529 Q 607 590 613 648 Q 620 676 613 687 Q 604 700 574 716 C 548 732 521 735 530 706 Q 546 655 548 636 Q 548 579 549 519 L 549 431 Z" fill="lightgray"></path>
				<path d="M 507 472 Q 485 397 356 274 Q 245 180 143 113 Q 124 100 141 97 Q 174 94 280 151 Q 362 202 454 301 Q 485 337 549 431 C 586 486 527 528 507 472 Z" fill="lightgray"></path>
</g>
		<text x="40" y="140" font-size="128" fill="#999999">2</text></g>
		<g id="id0:id2:id2" transform="matrix(1.0,0,0,1.0,2048,0.0)">			<g stroke="lightgray" stroke-width="4" transform="scale(4, 4)"> <rect x="0" y="0" width="256" height="256" fill="white" stroke-width="4"/></g>
			<g transform="scale(0.92, -0.92) translate(60, -920)">					<path d="M 574 716 Q 703 749 708 753 Q 717 763 712 771 Q 703 784 672 791 Q 650 795 543 761 Q 432 734 385 728 Q 346 721 375 703 Q 420 679 483 696 Q 505 702 530 706 L 574 716 Z" fill="black"></path>
				<path d="M 605 487 Q 657 500 833 498 Q 858 497 866 511 Q 873 521 851 535 Q 788 575 734 558 Q 623 536 606 529 L 549 519 Q 441 500 337 471 Q 306 459 313 489 Q 329 564 344 593 Q 354 605 348 616 Q 341 628 302 645 Q 283 655 271 648 Q 259 638 270 623 Q 286 586 267 502 Q 263 480 236 454 Q 226 442 228 427 Q 232 414 251 400 Q 266 391 280 405 Q 361 451 507 472 L 605 487 Z" fill="black"></path>
				<path d="M 549 431 Q 549 296 549 100 Q 548 66 537 52 Q 525 45 496 53 Q 468 63 433 72 Q 420 76 421 68 Q 421 59 432 50 Q 504 -7 550 -53 Q 562 -63 576 -46 Q 618 8 614 93 Q 601 360 605 487 L 606 529 Q 607 590 613 648 Q 620 676 613 687 Q 604 700 574 716 C 548 732 521 735 530 706 Q 546 655 548 636 Q 548 579 549 519 L 549 431 Z" fill="red"></path>
				<path d="M 507 472 Q 485 397 356 274 Q 245 180 143 113 Q 124 100 141 97 Q 174 94 280 151 Q 362 202 454 301 Q 485 337 549 431 C 586 486 527 528 507 472 Z" fill="lightgray"></path>
</g>
		<text x="40" y="140" font-size="128" fill="#999999">3</text></g>
		<g id="id0:id3:id3" transform="matrix(1.0,0,0,1.0,3072,0.0)">			<g stroke="lightgray" stroke-width="4" transform="scale(4, 4)"> <rect x="0" y="0" width="256" height="256" fill="white" stroke-width="4"/></g>
			<g transform="scale(0.92, -0.92) translate(60, -920)">					<path d="M 574 716 Q 703 749 708 753 Q 717 763 712 771 Q 703 784 672 791 Q 650 795 543 761 Q 432 734 385 728 Q 346 721 375 703 Q 420 679 483 696 Q 505 702 530 706 L 574 716 Z" fill="black"></path>
				<path d="M 605 487 Q 657 500 833 498 Q 858 497 866 511 Q 873 521 851 535 Q 788 575 734 558 Q 623 536 606 529 L 549 519 Q 441 500 337 471 Q 306 459 313 489 Q 329 564 344 593 Q 354 605 348 616 Q 341 628 302 645 Q 283 655 271 648 Q 259 638 270 623 Q 286 586 267 502 Q 263 480 236 454 Q 226 442 228 427 Q 232 414 251 400 Q 266 391 280 405 Q 361 451 507 472 L 605 487 Z" fill="black"></path>
				<path d="M 549 431 Q 549 296 549 100 Q 548 66 537 52 Q 525 45 496 53 Q 468 63 433 72 Q 420 76 421 68 Q 421 59 432 50 Q 504 -7 550 -53 Q 562 -63 576 -46 Q 618 8 614 93 Q 601 360 605 487 L 606 529 Q 607 590 613 648 Q 620 676 613 687 Q 604 700 574 716 C 548 732 521 735 530 706 Q 546 655 548 636 Q 548 579 549 519 L 549 431 Z" fill="black"></path>
				<path d="M 507 472 Q 485 397 356 274 Q 245 180 143 113 Q 124 100 141 97 Q 174 94 280 151 Q 362 202 454 301 Q 485 337 549 431 C 586 486 527 528 507 472 Z" fill="red"></path>
</g>
		<text x="40" y="140" font-size="128" fill="#999999">4</text></g>
		<g id="id0:id4:id4" transform="matrix(1.0,0,0,1.0,4096,0.0)">			<g stroke="white" stroke-width="4" transform="scale(4, 4)"> <rect x="1" y="1" width="255" height="255" fill="white" stroke-width="0"/></g>
</g>
</g>
</svg>
