<?xml version="1.0" standalone="no"?>
<!DOCTYPE svg PUBLIC "-//W3C//DTD SVG 1.1//EN"
 "http://www.w3.org/Graphics/SVG/1.1/DTD/svg11.dtd">
<!-- generate by Japanese dictionary app com.asnsami.kanjidictionary -->

<svg xmlns="http://www.w3.org/2000/svg" xmlns:sodipodi="http://sodipodi.sourceforge.net/DTD/sodipodi-0.dtd" version="1.1" width="640" height="256" viewBox="0 0 5120 2048">
	<g id="id0:id0" transform="translate(0.0,0)">
		<g id="id0:id0:id0" transform="matrix(1.0,0,0,1.0,0,0.0)">			<g stroke="lightgray" stroke-width="4" transform="scale(4, 4)"> <rect x="0" y="0" width="256" height="256" fill="white" stroke-width="4"/></g>
			<g transform="scale(0.92, -0.92) translate(60, -920)">					<path d="M 218 504 Q 242 568 266 611 Q 273 626 257 637 Q 209 662 186 655 Q 176 651 180 637 Q 207 552 128 426 Q 109 398 99 380 Q 93 364 108 371 Q 150 383 207 483 L 218 504 Z" fill="red"></path>
				<path d="M 380 496 Q 405 505 434 511 Q 464 520 469 525 Q 476 532 472 541 Q 465 551 435 557 Q 407 561 381 549 L 339 533 Q 260 512 219 505 Q 218 505 218 504 C 189 496 180 493 207 483 Q 249 465 315 481 Q 325 484 338 486 L 380 496 Z" fill="lightgray"></path>
				<path d="M 332 300 Q 332 186 306 97 Q 296 60 320 -2 Q 327 -20 335 -23 Q 341 -30 348 -21 Q 375 -5 375 58 Q 374 94 377 327 L 377 357 Q 378 421 380 496 L 381 549 Q 381 666 401 738 Q 416 763 386 783 Q 371 795 346 809 Q 324 825 303 811 Q 299 807 305 791 Q 336 742 338 694 Q 339 622 340 541 Q 339 538 339 533 L 338 486 Q 335 414 333 337 L 332 300 Z" fill="lightgray"></path>
				<path d="M 333 337 Q 225 291 130 244 Q 93 228 69 223 Q 56 219 53 210 Q 52 201 64 186 Q 82 168 104 158 Q 119 154 134 166 Q 197 218 332 300 L 377 327 Q 389 336 404 343 Q 428 353 440 368 Q 447 381 436 381 Q 432 381 377 357 L 333 337 Z" fill="lightgray"></path>
				<path d="M 573 528 Q 631 627 658 689 Q 671 725 685 743 Q 692 756 685 768 Q 678 781 646 798 Q 616 811 597 808 Q 578 802 591 782 Q 633 728 501 472 Q 494 460 492 453 Q 491 441 504 447 Q 516 453 557 504 L 573 528 Z" fill="lightgray"></path>
				<path d="M 697 503 Q 866 548 868 549 Q 877 559 872 567 Q 863 580 832 586 Q 799 592 767 578 Q 725 562 680 549 Q 631 537 573 528 C 543 523 530 516 557 504 Q 603 482 656 493 L 697 503 Z" fill="lightgray"></path>
				<path d="M 681 246 Q 723 312 734 418 Q 735 443 741 458 Q 745 471 736 478 Q 717 494 697 503 C 670 517 646 521 656 493 Q 692 397 646 283 L 623 247 Q 566 180 441 127 Q 431 124 427 120 Q 421 116 431 112 Q 464 105 560 145 Q 626 181 653 208 L 681 246 Z" fill="lightgray"></path>
				<path d="M 653 208 Q 773 55 803 47 Q 920 47 965 52 Q 983 53 990 62 Q 994 69 982 73 Q 820 125 783 157 Q 744 182 681 246 L 646 283 Q 600 332 548 394 Q 535 413 516 415 Q 491 416 483 408 Q 480 402 489 397 Q 528 375 553 338 Q 587 290 623 247 L 653 208 Z" fill="lightgray"></path>
</g>
		<text x="40" y="140" font-size="128" fill="#999999">1</text></g>
		<g id="id0:id1:id1" transform="matrix(1.0,0,0,1.0,1024,0.0)">			<g stroke="lightgray" stroke-width="4" transform="scale(4, 4)"> <rect x="0" y="0" width="256" height="256" fill="white" stroke-width="4"/></g>
			<g transform="scale(0.92, -0.92) translate(60, -920)">					<path d="M 218 504 Q 242 568 266 611 Q 273 626 257 637 Q 209 662 186 655 Q 176 651 180 637 Q 207 552 128 426 Q 109 398 99 380 Q 93 364 108 371 Q 150 383 207 483 L 218 504 Z" fill="black"></path>
				<path d="M 380 496 Q 405 505 434 511 Q 464 520 469 525 Q 476 532 472 541 Q 465 551 435 557 Q 407 561 381 549 L 339 533 Q 260 512 219 505 Q 218 505 218 504 C 189 496 180 493 207 483 Q 249 465 315 481 Q 325 484 338 486 L 380 496 Z" fill="red"></path>
				<path d="M 332 300 Q 332 186 306 97 Q 296 60 320 -2 Q 327 -20 335 -23 Q 341 -30 348 -21 Q 375 -5 375 58 Q 374 94 377 327 L 377 357 Q 378 421 380 496 L 381 549 Q 381 666 401 738 Q 416 763 386 783 Q 371 795 346 809 Q 324 825 303 811 Q 299 807 305 791 Q 336 742 338 694 Q 339 622 340 541 Q 339 538 339 533 L 338 486 Q 335 414 333 337 L 332 300 Z" fill="lightgray"></path>
				<path d="M 333 337 Q 225 291 130 244 Q 93 228 69 223 Q 56 219 53 210 Q 52 201 64 186 Q 82 168 104 158 Q 119 154 134 166 Q 197 218 332 300 L 377 327 Q 389 336 404 343 Q 428 353 440 368 Q 447 381 436 381 Q 432 381 377 357 L 333 337 Z" fill="lightgray"></path>
				<path d="M 573 528 Q 631 627 658 689 Q 671 725 685 743 Q 692 756 685 768 Q 678 781 646 798 Q 616 811 597 808 Q 578 802 591 782 Q 633 728 501 472 Q 494 460 492 453 Q 491 441 504 447 Q 516 453 557 504 L 573 528 Z" fill="lightgray"></path>
				<path d="M 697 503 Q 866 548 868 549 Q 877 559 872 567 Q 863 580 832 586 Q 799 592 767 578 Q 725 562 680 549 Q 631 537 573 528 C 543 523 530 516 557 504 Q 603 482 656 493 L 697 503 Z" fill="lightgray"></path>
				<path d="M 681 246 Q 723 312 734 418 Q 735 443 741 458 Q 745 471 736 478 Q 717 494 697 503 C 670 517 646 521 656 493 Q 692 397 646 283 L 623 247 Q 566 180 441 127 Q 431 124 427 120 Q 421 116 431 112 Q 464 105 560 145 Q 626 181 653 208 L 681 246 Z" fill="lightgray"></path>
				<path d="M 653 208 Q 773 55 803 47 Q 920 47 965 52 Q 983 53 990 62 Q 994 69 982 73 Q 820 125 783 157 Q 744 182 681 246 L 646 283 Q 600 332 548 394 Q 535 413 516 415 Q 491 416 483 408 Q 480 402 489 397 Q 528 375 553 338 Q 587 290 623 247 L 653 208 Z" fill="lightgray"></path>
</g>
		<text x="40" y="140" font-size="128" fill="#999999">2</text></g>
		<g id="id0:id2:id2" transform="matrix(1.0,0,0,1.0,2048,0.0)">			<g stroke="lightgray" stroke-width="4" transform="scale(4, 4)"> <rect x="0" y="0" width="256" height="256" fill="white" stroke-width="4"/></g>
			<g transform="scale(0.92, -0.92) translate(60, -920)">					<path d="M 218 504 Q 242 568 266 611 Q 273 626 257 637 Q 209 662 186 655 Q 176 651 180 637 Q 207 552 128 426 Q 109 398 99 380 Q 93 364 108 371 Q 150 383 207 483 L 218 504 Z" fill="black"></path>
				<path d="M 380 496 Q 405 505 434 511 Q 464 520 469 525 Q 476 532 472 541 Q 465 551 435 557 Q 407 561 381 549 L 339 533 Q 260 512 219 505 Q 218 505 218 504 C 189 496 180 493 207 483 Q 249 465 315 481 Q 325 484 338 486 L 380 496 Z" fill="black"></path>
				<path d="M 332 300 Q 332 186 306 97 Q 296 60 320 -2 Q 327 -20 335 -23 Q 341 -30 348 -21 Q 375 -5 375 58 Q 374 94 377 327 L 377 357 Q 378 421 380 496 L 381 549 Q 381 666 401 738 Q 416 763 386 783 Q 371 795 346 809 Q 324 825 303 811 Q 299 807 305 791 Q 336 742 338 694 Q 339 622 340 541 Q 339 538 339 533 L 338 486 Q 335 414 333 337 L 332 300 Z" fill="red"></path>
				<path d="M 333 337 Q 225 291 130 244 Q 93 228 69 223 Q 56 219 53 210 Q 52 201 64 186 Q 82 168 104 158 Q 119 154 134 166 Q 197 218 332 300 L 377 327 Q 389 336 404 343 Q 428 353 440 368 Q 447 381 436 381 Q 432 381 377 357 L 333 337 Z" fill="lightgray"></path>
				<path d="M 573 528 Q 631 627 658 689 Q 671 725 685 743 Q 692 756 685 768 Q 678 781 646 798 Q 616 811 597 808 Q 578 802 591 782 Q 633 728 501 472 Q 494 460 492 453 Q 491 441 504 447 Q 516 453 557 504 L 573 528 Z" fill="lightgray"></path>
				<path d="M 697 503 Q 866 548 868 549 Q 877 559 872 567 Q 863 580 832 586 Q 799 592 767 578 Q 725 562 680 549 Q 631 537 573 528 C 543 523 530 516 557 504 Q 603 482 656 493 L 697 503 Z" fill="lightgray"></path>
				<path d="M 681 246 Q 723 312 734 418 Q 735 443 741 458 Q 745 471 736 478 Q 717 494 697 503 C 670 517 646 521 656 493 Q 692 397 646 283 L 623 247 Q 566 180 441 127 Q 431 124 427 120 Q 421 116 431 112 Q 464 105 560 145 Q 626 181 653 208 L 681 246 Z" fill="lightgray"></path>
				<path d="M 653 208 Q 773 55 803 47 Q 920 47 965 52 Q 983 53 990 62 Q 994 69 982 73 Q 820 125 783 157 Q 744 182 681 246 L 646 283 Q 600 332 548 394 Q 535 413 516 415 Q 491 416 483 408 Q 480 402 489 397 Q 528 375 553 338 Q 587 290 623 247 L 653 208 Z" fill="lightgray"></path>
</g>
		<text x="40" y="140" font-size="128" fill="#999999">3</text></g>
		<g id="id0:id3:id3" transform="matrix(1.0,0,0,1.0,3072,0.0)">			<g stroke="lightgray" stroke-width="4" transform="scale(4, 4)"> <rect x="0" y="0" width="256" height="256" fill="white" stroke-width="4"/></g>
			<g transform="scale(0.92, -0.92) translate(60, -920)">					<path d="M 218 504 Q 242 568 266 611 Q 273 626 257 637 Q 209 662 186 655 Q 176 651 180 637 Q 207 552 128 426 Q 109 398 99 380 Q 93 364 108 371 Q 150 383 207 483 L 218 504 Z" fill="black"></path>
				<path d="M 380 496 Q 405 505 434 511 Q 464 520 469 525 Q 476 532 472 541 Q 465 551 435 557 Q 407 561 381 549 L 339 533 Q 260 512 219 505 Q 218 505 218 504 C 189 496 180 493 207 483 Q 249 465 315 481 Q 325 484 338 486 L 380 496 Z" fill="black"></path>
				<path d="M 332 300 Q 332 186 306 97 Q 296 60 320 -2 Q 327 -20 335 -23 Q 341 -30 348 -21 Q 375 -5 375 58 Q 374 94 377 327 L 377 357 Q 378 421 380 496 L 381 549 Q 381 666 401 738 Q 416 763 386 783 Q 371 795 346 809 Q 324 825 303 811 Q 299 807 305 791 Q 336 742 338 694 Q 339 622 340 541 Q 339 538 339 533 L 338 486 Q 335 414 333 337 L 332 300 Z" fill="black"></path>
				<path d="M 333 337 Q 225 291 130 244 Q 93 228 69 223 Q 56 219 53 210 Q 52 201 64 186 Q 82 168 104 158 Q 119 154 134 166 Q 197 218 332 300 L 377 327 Q 389 336 404 343 Q 428 353 440 368 Q 447 381 436 381 Q 432 381 377 357 L 333 337 Z" fill="red"></path>
				<path d="M 573 528 Q 631 627 658 689 Q 671 725 685 743 Q 692 756 685 768 Q 678 781 646 798 Q 616 811 597 808 Q 578 802 591 782 Q 633 728 501 472 Q 494 460 492 453 Q 491 441 504 447 Q 516 453 557 504 L 573 528 Z" fill="lightgray"></path>
				<path d="M 697 503 Q 866 548 868 549 Q 877 559 872 567 Q 863 580 832 586 Q 799 592 767 578 Q 725 562 680 549 Q 631 537 573 528 C 543 523 530 516 557 504 Q 603 482 656 493 L 697 503 Z" fill="lightgray"></path>
				<path d="M 681 246 Q 723 312 734 418 Q 735 443 741 458 Q 745 471 736 478 Q 717 494 697 503 C 670 517 646 521 656 493 Q 692 397 646 283 L 623 247 Q 566 180 441 127 Q 431 124 427 120 Q 421 116 431 112 Q 464 105 560 145 Q 626 181 653 208 L 681 246 Z" fill="lightgray"></path>
				<path d="M 653 208 Q 773 55 803 47 Q 920 47 965 52 Q 983 53 990 62 Q 994 69 982 73 Q 820 125 783 157 Q 744 182 681 246 L 646 283 Q 600 332 548 394 Q 535 413 516 415 Q 491 416 483 408 Q 480 402 489 397 Q 528 375 553 338 Q 587 290 623 247 L 653 208 Z" fill="lightgray"></path>
</g>
		<text x="40" y="140" font-size="128" fill="#999999">4</text></g>
		<g id="id0:id4:id4" transform="matrix(1.0,0,0,1.0,4096,0.0)">			<g stroke="lightgray" stroke-width="4" transform="scale(4, 4)"> <rect x="0" y="0" width="256" height="256" fill="white" stroke-width="4"/></g>
			<g transform="scale(0.92, -0.92) translate(60, -920)">					<path d="M 218 504 Q 242 568 266 611 Q 273 626 257 637 Q 209 662 186 655 Q 176 651 180 637 Q 207 552 128 426 Q 109 398 99 380 Q 93 364 108 371 Q 150 383 207 483 L 218 504 Z" fill="black"></path>
				<path d="M 380 496 Q 405 505 434 511 Q 464 520 469 525 Q 476 532 472 541 Q 465 551 435 557 Q 407 561 381 549 L 339 533 Q 260 512 219 505 Q 218 505 218 504 C 189 496 180 493 207 483 Q 249 465 315 481 Q 325 484 338 486 L 380 496 Z" fill="black"></path>
				<path d="M 332 300 Q 332 186 306 97 Q 296 60 320 -2 Q 327 -20 335 -23 Q 341 -30 348 -21 Q 375 -5 375 58 Q 374 94 377 327 L 377 357 Q 378 421 380 496 L 381 549 Q 381 666 401 738 Q 416 763 386 783 Q 371 795 346 809 Q 324 825 303 811 Q 299 807 305 791 Q 336 742 338 694 Q 339 622 340 541 Q 339 538 339 533 L 338 486 Q 335 414 333 337 L 332 300 Z" fill="black"></path>
				<path d="M 333 337 Q 225 291 130 244 Q 93 228 69 223 Q 56 219 53 210 Q 52 201 64 186 Q 82 168 104 158 Q 119 154 134 166 Q 197 218 332 300 L 377 327 Q 389 336 404 343 Q 428 353 440 368 Q 447 381 436 381 Q 432 381 377 357 L 333 337 Z" fill="black"></path>
				<path d="M 573 528 Q 631 627 658 689 Q 671 725 685 743 Q 692 756 685 768 Q 678 781 646 798 Q 616 811 597 808 Q 578 802 591 782 Q 633 728 501 472 Q 494 460 492 453 Q 491 441 504 447 Q 516 453 557 504 L 573 528 Z" fill="red"></path>
				<path d="M 697 503 Q 866 548 868 549 Q 877 559 872 567 Q 863 580 832 586 Q 799 592 767 578 Q 725 562 680 549 Q 631 537 573 528 C 543 523 530 516 557 504 Q 603 482 656 493 L 697 503 Z" fill="lightgray"></path>
				<path d="M 681 246 Q 723 312 734 418 Q 735 443 741 458 Q 745 471 736 478 Q 717 494 697 503 C 670 517 646 521 656 493 Q 692 397 646 283 L 623 247 Q 566 180 441 127 Q 431 124 427 120 Q 421 116 431 112 Q 464 105 560 145 Q 626 181 653 208 L 681 246 Z" fill="lightgray"></path>
				<path d="M 653 208 Q 773 55 803 47 Q 920 47 965 52 Q 983 53 990 62 Q 994 69 982 73 Q 820 125 783 157 Q 744 182 681 246 L 646 283 Q 600 332 548 394 Q 535 413 516 415 Q 491 416 483 408 Q 480 402 489 397 Q 528 375 553 338 Q 587 290 623 247 L 653 208 Z" fill="lightgray"></path>
</g>
		<text x="40" y="140" font-size="128" fill="#999999">5</text></g>
</g>
	<g id="id1:id1" transform="translate(0.0,1024)">
		<g id="id1:id0:id0" transform="matrix(1.0,0,0,1.0,0,0.0)">			<g stroke="lightgray" stroke-width="4" transform="scale(4, 4)"> <rect x="0" y="0" width="256" height="256" fill="white" stroke-width="4"/></g>
			<g transform="scale(0.92, -0.92) translate(60, -920)">					<path d="M 218 504 Q 242 568 266 611 Q 273 626 257 637 Q 209 662 186 655 Q 176 651 180 637 Q 207 552 128 426 Q 109 398 99 380 Q 93 364 108 371 Q 150 383 207 483 L 218 504 Z" fill="black"></path>
				<path d="M 380 496 Q 405 505 434 511 Q 464 520 469 525 Q 476 532 472 541 Q 465 551 435 557 Q 407 561 381 549 L 339 533 Q 260 512 219 505 Q 218 505 218 504 C 189 496 180 493 207 483 Q 249 465 315 481 Q 325 484 338 486 L 380 496 Z" fill="black"></path>
				<path d="M 332 300 Q 332 186 306 97 Q 296 60 320 -2 Q 327 -20 335 -23 Q 341 -30 348 -21 Q 375 -5 375 58 Q 374 94 377 327 L 377 357 Q 378 421 380 496 L 381 549 Q 381 666 401 738 Q 416 763 386 783 Q 371 795 346 809 Q 324 825 303 811 Q 299 807 305 791 Q 336 742 338 694 Q 339 622 340 541 Q 339 538 339 533 L 338 486 Q 335 414 333 337 L 332 300 Z" fill="black"></path>
				<path d="M 333 337 Q 225 291 130 244 Q 93 228 69 223 Q 56 219 53 210 Q 52 201 64 186 Q 82 168 104 158 Q 119 154 134 166 Q 197 218 332 300 L 377 327 Q 389 336 404 343 Q 428 353 440 368 Q 447 381 436 381 Q 432 381 377 357 L 333 337 Z" fill="black"></path>
				<path d="M 573 528 Q 631 627 658 689 Q 671 725 685 743 Q 692 756 685 768 Q 678 781 646 798 Q 616 811 597 808 Q 578 802 591 782 Q 633 728 501 472 Q 494 460 492 453 Q 491 441 504 447 Q 516 453 557 504 L 573 528 Z" fill="black"></path>
				<path d="M 697 503 Q 866 548 868 549 Q 877 559 872 567 Q 863 580 832 586 Q 799 592 767 578 Q 725 562 680 549 Q 631 537 573 528 C 543 523 530 516 557 504 Q 603 482 656 493 L 697 503 Z" fill="red"></path>
				<path d="M 681 246 Q 723 312 734 418 Q 735 443 741 458 Q 745 471 736 478 Q 717 494 697 503 C 670 517 646 521 656 493 Q 692 397 646 283 L 623 247 Q 566 180 441 127 Q 431 124 427 120 Q 421 116 431 112 Q 464 105 560 145 Q 626 181 653 208 L 681 246 Z" fill="lightgray"></path>
				<path d="M 653 208 Q 773 55 803 47 Q 920 47 965 52 Q 983 53 990 62 Q 994 69 982 73 Q 820 125 783 157 Q 744 182 681 246 L 646 283 Q 600 332 548 394 Q 535 413 516 415 Q 491 416 483 408 Q 480 402 489 397 Q 528 375 553 338 Q 587 290 623 247 L 653 208 Z" fill="lightgray"></path>
</g>
		<text x="40" y="140" font-size="128" fill="#999999">6</text></g>
		<g id="id1:id1:id1" transform="matrix(1.0,0,0,1.0,1024,0.0)">			<g stroke="lightgray" stroke-width="4" transform="scale(4, 4)"> <rect x="0" y="0" width="256" height="256" fill="white" stroke-width="4"/></g>
			<g transform="scale(0.92, -0.92) translate(60, -920)">					<path d="M 218 504 Q 242 568 266 611 Q 273 626 257 637 Q 209 662 186 655 Q 176 651 180 637 Q 207 552 128 426 Q 109 398 99 380 Q 93 364 108 371 Q 150 383 207 483 L 218 504 Z" fill="black"></path>
				<path d="M 380 496 Q 405 505 434 511 Q 464 520 469 525 Q 476 532 472 541 Q 465 551 435 557 Q 407 561 381 549 L 339 533 Q 260 512 219 505 Q 218 505 218 504 C 189 496 180 493 207 483 Q 249 465 315 481 Q 325 484 338 486 L 380 496 Z" fill="black"></path>
				<path d="M 332 300 Q 332 186 306 97 Q 296 60 320 -2 Q 327 -20 335 -23 Q 341 -30 348 -21 Q 375 -5 375 58 Q 374 94 377 327 L 377 357 Q 378 421 380 496 L 381 549 Q 381 666 401 738 Q 416 763 386 783 Q 371 795 346 809 Q 324 825 303 811 Q 299 807 305 791 Q 336 742 338 694 Q 339 622 340 541 Q 339 538 339 533 L 338 486 Q 335 414 333 337 L 332 300 Z" fill="black"></path>
				<path d="M 333 337 Q 225 291 130 244 Q 93 228 69 223 Q 56 219 53 210 Q 52 201 64 186 Q 82 168 104 158 Q 119 154 134 166 Q 197 218 332 300 L 377 327 Q 389 336 404 343 Q 428 353 440 368 Q 447 381 436 381 Q 432 381 377 357 L 333 337 Z" fill="black"></path>
				<path d="M 573 528 Q 631 627 658 689 Q 671 725 685 743 Q 692 756 685 768 Q 678 781 646 798 Q 616 811 597 808 Q 578 802 591 782 Q 633 728 501 472 Q 494 460 492 453 Q 491 441 504 447 Q 516 453 557 504 L 573 528 Z" fill="black"></path>
				<path d="M 697 503 Q 866 548 868 549 Q 877 559 872 567 Q 863 580 832 586 Q 799 592 767 578 Q 725 562 680 549 Q 631 537 573 528 C 543 523 530 516 557 504 Q 603 482 656 493 L 697 503 Z" fill="black"></path>
				<path d="M 681 246 Q 723 312 734 418 Q 735 443 741 458 Q 745 471 736 478 Q 717 494 697 503 C 670 517 646 521 656 493 Q 692 397 646 283 L 623 247 Q 566 180 441 127 Q 431 124 427 120 Q 421 116 431 112 Q 464 105 560 145 Q 626 181 653 208 L 681 246 Z" fill="red"></path>
				<path d="M 653 208 Q 773 55 803 47 Q 920 47 965 52 Q 983 53 990 62 Q 994 69 982 73 Q 820 125 783 157 Q 744 182 681 246 L 646 283 Q 600 332 548 394 Q 535 413 516 415 Q 491 416 483 408 Q 480 402 489 397 Q 528 375 553 338 Q 587 290 623 247 L 653 208 Z" fill="lightgray"></path>
</g>
		<text x="40" y="140" font-size="128" fill="#999999">7</text></g>
		<g id="id1:id2:id2" transform="matrix(1.0,0,0,1.0,2048,0.0)">			<g stroke="lightgray" stroke-width="4" transform="scale(4, 4)"> <rect x="0" y="0" width="256" height="256" fill="white" stroke-width="4"/></g>
			<g transform="scale(0.92, -0.92) translate(60, -920)">					<path d="M 218 504 Q 242 568 266 611 Q 273 626 257 637 Q 209 662 186 655 Q 176 651 180 637 Q 207 552 128 426 Q 109 398 99 380 Q 93 364 108 371 Q 150 383 207 483 L 218 504 Z" fill="black"></path>
				<path d="M 380 496 Q 405 505 434 511 Q 464 520 469 525 Q 476 532 472 541 Q 465 551 435 557 Q 407 561 381 549 L 339 533 Q 260 512 219 505 Q 218 505 218 504 C 189 496 180 493 207 483 Q 249 465 315 481 Q 325 484 338 486 L 380 496 Z" fill="black"></path>
				<path d="M 332 300 Q 332 186 306 97 Q 296 60 320 -2 Q 327 -20 335 -23 Q 341 -30 348 -21 Q 375 -5 375 58 Q 374 94 377 327 L 377 357 Q 378 421 380 496 L 381 549 Q 381 666 401 738 Q 416 763 386 783 Q 371 795 346 809 Q 324 825 303 811 Q 299 807 305 791 Q 336 742 338 694 Q 339 622 340 541 Q 339 538 339 533 L 338 486 Q 335 414 333 337 L 332 300 Z" fill="black"></path>
				<path d="M 333 337 Q 225 291 130 244 Q 93 228 69 223 Q 56 219 53 210 Q 52 201 64 186 Q 82 168 104 158 Q 119 154 134 166 Q 197 218 332 300 L 377 327 Q 389 336 404 343 Q 428 353 440 368 Q 447 381 436 381 Q 432 381 377 357 L 333 337 Z" fill="black"></path>
				<path d="M 573 528 Q 631 627 658 689 Q 671 725 685 743 Q 692 756 685 768 Q 678 781 646 798 Q 616 811 597 808 Q 578 802 591 782 Q 633 728 501 472 Q 494 460 492 453 Q 491 441 504 447 Q 516 453 557 504 L 573 528 Z" fill="black"></path>
				<path d="M 697 503 Q 866 548 868 549 Q 877 559 872 567 Q 863 580 832 586 Q 799 592 767 578 Q 725 562 680 549 Q 631 537 573 528 C 543 523 530 516 557 504 Q 603 482 656 493 L 697 503 Z" fill="black"></path>
				<path d="M 681 246 Q 723 312 734 418 Q 735 443 741 458 Q 745 471 736 478 Q 717 494 697 503 C 670 517 646 521 656 493 Q 692 397 646 283 L 623 247 Q 566 180 441 127 Q 431 124 427 120 Q 421 116 431 112 Q 464 105 560 145 Q 626 181 653 208 L 681 246 Z" fill="black"></path>
				<path d="M 653 208 Q 773 55 803 47 Q 920 47 965 52 Q 983 53 990 62 Q 994 69 982 73 Q 820 125 783 157 Q 744 182 681 246 L 646 283 Q 600 332 548 394 Q 535 413 516 415 Q 491 416 483 408 Q 480 402 489 397 Q 528 375 553 338 Q 587 290 623 247 L 653 208 Z" fill="red"></path>
</g>
		<text x="40" y="140" font-size="128" fill="#999999">8</text></g>
		<g id="id1:id3:id3" transform="matrix(1.0,0,0,1.0,3072,0.0)">			<g stroke="white" stroke-width="4" transform="scale(4, 4)"> <rect x="1" y="1" width="255" height="255" fill="white" stroke-width="0"/></g>
</g>
		<g id="id1:id4:id4" transform="matrix(1.0,0,0,1.0,4096,0.0)">			<g stroke="white" stroke-width="4" transform="scale(4, 4)"> <rect x="1" y="1" width="255" height="255" fill="white" stroke-width="0"/></g>
</g>
</g>
</svg>
