<?xml version="1.0" standalone="no"?>
<!DOCTYPE svg PUBLIC "-//W3C//DTD SVG 1.1//EN"
 "http://www.w3.org/Graphics/SVG/1.1/DTD/svg11.dtd">
<!-- generate by Japanese dictionary app com.asnsami.kanjidictionary -->

<svg xmlns="http://www.w3.org/2000/svg" xmlns:sodipodi="http://sodipodi.sourceforge.net/DTD/sodipodi-0.dtd" version="1.1" width="640" height="256" viewBox="0 0 5120 2048">
	<g id="id0:id0" transform="translate(0.0,0)">
		<g id="id0:id0:id0" transform="matrix(1.0,0,0,1.0,0,0.0)">			<g stroke="lightgray" stroke-width="4" transform="scale(4, 4)"> <rect x="0" y="0" width="256" height="256" fill="white" stroke-width="4"/></g>
			<g transform="scale(0.92, -0.92) translate(60, -920)">					<path d="M 228 521 Q 244 558 263 587 Q 270 600 256 613 Q 208 638 188 634 Q 178 630 181 616 Q 202 537 124 422 Q 114 412 92 376 Q 85 360 99 366 Q 115 370 134 389 Q 185 438 215 493 L 228 521 Z" fill="red"></path>
				<path d="M 377 505 Q 473 529 479 533 Q 488 540 483 549 Q 476 559 448 566 Q 406 575 378 555 L 336 541 Q 324 540 313 536 Q 273 527 228 521 C 198 517 186 500 215 493 Q 258 481 311 492 Q 321 495 335 496 L 377 505 Z" fill="lightgray"></path>
				<path d="M 331 285 Q 331 189 306 96 Q 296 60 320 -2 Q 327 -20 335 -23 Q 341 -30 348 -21 Q 355 -17 365 3 Q 375 28 374 58 Q 373 92 375 313 L 375 347 Q 375 417 377 505 L 378 555 Q 378 682 398 750 Q 413 775 378 798 Q 363 808 342 821 Q 320 837 299 822 Q 295 818 301 802 Q 334 753 335 704 Q 336 631 337 548 Q 336 545 336 541 L 335 496 Q 332 414 331 326 L 331 285 Z" fill="lightgray"></path>
				<path d="M 331 326 Q 106 224 99 220 Q 81 220 76 206 Q 75 197 88 182 Q 106 164 128 154 Q 140 150 168 170 Q 282 257 331 285 L 375 313 Q 405 334 436 350 Q 460 360 472 376 Q 479 389 468 389 Q 456 389 375 347 L 331 326 Z" fill="lightgray"></path>
				<path d="M 709 431 Q 856 464 863 471 Q 872 480 867 488 Q 860 500 830 507 Q 799 513 768 500 Q 740 490 711 481 L 659 466 Q 601 454 537 446 Q 500 439 527 422 Q 569 401 637 416 Q 647 419 659 419 L 709 431 Z" fill="lightgray"></path>
				<path d="M 700 218 Q 704 327 709 431 L 711 481 Q 714 628 736 720 Q 740 733 717 749 Q 677 771 649 775 Q 631 779 622 769 Q 613 759 623 743 Q 654 697 655 664 Q 659 570 659 466 L 659 419 Q 658 319 653 210 C 652 180 699 188 700 218 Z" fill="lightgray"></path>
				<path d="M 653 210 Q 559 194 453 176 Q 431 173 447 155 Q 484 125 532 140 Q 691 188 939 187 Q 960 188 965 197 Q 971 210 952 224 Q 889 269 811 243 Q 763 233 700 218 L 653 210 Z" fill="lightgray"></path>
</g>
		<text x="40" y="140" font-size="128" fill="#999999">1</text></g>
		<g id="id0:id1:id1" transform="matrix(1.0,0,0,1.0,1024,0.0)">			<g stroke="lightgray" stroke-width="4" transform="scale(4, 4)"> <rect x="0" y="0" width="256" height="256" fill="white" stroke-width="4"/></g>
			<g transform="scale(0.92, -0.92) translate(60, -920)">					<path d="M 228 521 Q 244 558 263 587 Q 270 600 256 613 Q 208 638 188 634 Q 178 630 181 616 Q 202 537 124 422 Q 114 412 92 376 Q 85 360 99 366 Q 115 370 134 389 Q 185 438 215 493 L 228 521 Z" fill="black"></path>
				<path d="M 377 505 Q 473 529 479 533 Q 488 540 483 549 Q 476 559 448 566 Q 406 575 378 555 L 336 541 Q 324 540 313 536 Q 273 527 228 521 C 198 517 186 500 215 493 Q 258 481 311 492 Q 321 495 335 496 L 377 505 Z" fill="red"></path>
				<path d="M 331 285 Q 331 189 306 96 Q 296 60 320 -2 Q 327 -20 335 -23 Q 341 -30 348 -21 Q 355 -17 365 3 Q 375 28 374 58 Q 373 92 375 313 L 375 347 Q 375 417 377 505 L 378 555 Q 378 682 398 750 Q 413 775 378 798 Q 363 808 342 821 Q 320 837 299 822 Q 295 818 301 802 Q 334 753 335 704 Q 336 631 337 548 Q 336 545 336 541 L 335 496 Q 332 414 331 326 L 331 285 Z" fill="lightgray"></path>
				<path d="M 331 326 Q 106 224 99 220 Q 81 220 76 206 Q 75 197 88 182 Q 106 164 128 154 Q 140 150 168 170 Q 282 257 331 285 L 375 313 Q 405 334 436 350 Q 460 360 472 376 Q 479 389 468 389 Q 456 389 375 347 L 331 326 Z" fill="lightgray"></path>
				<path d="M 709 431 Q 856 464 863 471 Q 872 480 867 488 Q 860 500 830 507 Q 799 513 768 500 Q 740 490 711 481 L 659 466 Q 601 454 537 446 Q 500 439 527 422 Q 569 401 637 416 Q 647 419 659 419 L 709 431 Z" fill="lightgray"></path>
				<path d="M 700 218 Q 704 327 709 431 L 711 481 Q 714 628 736 720 Q 740 733 717 749 Q 677 771 649 775 Q 631 779 622 769 Q 613 759 623 743 Q 654 697 655 664 Q 659 570 659 466 L 659 419 Q 658 319 653 210 C 652 180 699 188 700 218 Z" fill="lightgray"></path>
				<path d="M 653 210 Q 559 194 453 176 Q 431 173 447 155 Q 484 125 532 140 Q 691 188 939 187 Q 960 188 965 197 Q 971 210 952 224 Q 889 269 811 243 Q 763 233 700 218 L 653 210 Z" fill="lightgray"></path>
</g>
		<text x="40" y="140" font-size="128" fill="#999999">2</text></g>
		<g id="id0:id2:id2" transform="matrix(1.0,0,0,1.0,2048,0.0)">			<g stroke="lightgray" stroke-width="4" transform="scale(4, 4)"> <rect x="0" y="0" width="256" height="256" fill="white" stroke-width="4"/></g>
			<g transform="scale(0.92, -0.92) translate(60, -920)">					<path d="M 228 521 Q 244 558 263 587 Q 270 600 256 613 Q 208 638 188 634 Q 178 630 181 616 Q 202 537 124 422 Q 114 412 92 376 Q 85 360 99 366 Q 115 370 134 389 Q 185 438 215 493 L 228 521 Z" fill="black"></path>
				<path d="M 377 505 Q 473 529 479 533 Q 488 540 483 549 Q 476 559 448 566 Q 406 575 378 555 L 336 541 Q 324 540 313 536 Q 273 527 228 521 C 198 517 186 500 215 493 Q 258 481 311 492 Q 321 495 335 496 L 377 505 Z" fill="black"></path>
				<path d="M 331 285 Q 331 189 306 96 Q 296 60 320 -2 Q 327 -20 335 -23 Q 341 -30 348 -21 Q 355 -17 365 3 Q 375 28 374 58 Q 373 92 375 313 L 375 347 Q 375 417 377 505 L 378 555 Q 378 682 398 750 Q 413 775 378 798 Q 363 808 342 821 Q 320 837 299 822 Q 295 818 301 802 Q 334 753 335 704 Q 336 631 337 548 Q 336 545 336 541 L 335 496 Q 332 414 331 326 L 331 285 Z" fill="red"></path>
				<path d="M 331 326 Q 106 224 99 220 Q 81 220 76 206 Q 75 197 88 182 Q 106 164 128 154 Q 140 150 168 170 Q 282 257 331 285 L 375 313 Q 405 334 436 350 Q 460 360 472 376 Q 479 389 468 389 Q 456 389 375 347 L 331 326 Z" fill="lightgray"></path>
				<path d="M 709 431 Q 856 464 863 471 Q 872 480 867 488 Q 860 500 830 507 Q 799 513 768 500 Q 740 490 711 481 L 659 466 Q 601 454 537 446 Q 500 439 527 422 Q 569 401 637 416 Q 647 419 659 419 L 709 431 Z" fill="lightgray"></path>
				<path d="M 700 218 Q 704 327 709 431 L 711 481 Q 714 628 736 720 Q 740 733 717 749 Q 677 771 649 775 Q 631 779 622 769 Q 613 759 623 743 Q 654 697 655 664 Q 659 570 659 466 L 659 419 Q 658 319 653 210 C 652 180 699 188 700 218 Z" fill="lightgray"></path>
				<path d="M 653 210 Q 559 194 453 176 Q 431 173 447 155 Q 484 125 532 140 Q 691 188 939 187 Q 960 188 965 197 Q 971 210 952 224 Q 889 269 811 243 Q 763 233 700 218 L 653 210 Z" fill="lightgray"></path>
</g>
		<text x="40" y="140" font-size="128" fill="#999999">3</text></g>
		<g id="id0:id3:id3" transform="matrix(1.0,0,0,1.0,3072,0.0)">			<g stroke="lightgray" stroke-width="4" transform="scale(4, 4)"> <rect x="0" y="0" width="256" height="256" fill="white" stroke-width="4"/></g>
			<g transform="scale(0.92, -0.92) translate(60, -920)">					<path d="M 228 521 Q 244 558 263 587 Q 270 600 256 613 Q 208 638 188 634 Q 178 630 181 616 Q 202 537 124 422 Q 114 412 92 376 Q 85 360 99 366 Q 115 370 134 389 Q 185 438 215 493 L 228 521 Z" fill="black"></path>
				<path d="M 377 505 Q 473 529 479 533 Q 488 540 483 549 Q 476 559 448 566 Q 406 575 378 555 L 336 541 Q 324 540 313 536 Q 273 527 228 521 C 198 517 186 500 215 493 Q 258 481 311 492 Q 321 495 335 496 L 377 505 Z" fill="black"></path>
				<path d="M 331 285 Q 331 189 306 96 Q 296 60 320 -2 Q 327 -20 335 -23 Q 341 -30 348 -21 Q 355 -17 365 3 Q 375 28 374 58 Q 373 92 375 313 L 375 347 Q 375 417 377 505 L 378 555 Q 378 682 398 750 Q 413 775 378 798 Q 363 808 342 821 Q 320 837 299 822 Q 295 818 301 802 Q 334 753 335 704 Q 336 631 337 548 Q 336 545 336 541 L 335 496 Q 332 414 331 326 L 331 285 Z" fill="black"></path>
				<path d="M 331 326 Q 106 224 99 220 Q 81 220 76 206 Q 75 197 88 182 Q 106 164 128 154 Q 140 150 168 170 Q 282 257 331 285 L 375 313 Q 405 334 436 350 Q 460 360 472 376 Q 479 389 468 389 Q 456 389 375 347 L 331 326 Z" fill="red"></path>
				<path d="M 709 431 Q 856 464 863 471 Q 872 480 867 488 Q 860 500 830 507 Q 799 513 768 500 Q 740 490 711 481 L 659 466 Q 601 454 537 446 Q 500 439 527 422 Q 569 401 637 416 Q 647 419 659 419 L 709 431 Z" fill="lightgray"></path>
				<path d="M 700 218 Q 704 327 709 431 L 711 481 Q 714 628 736 720 Q 740 733 717 749 Q 677 771 649 775 Q 631 779 622 769 Q 613 759 623 743 Q 654 697 655 664 Q 659 570 659 466 L 659 419 Q 658 319 653 210 C 652 180 699 188 700 218 Z" fill="lightgray"></path>
				<path d="M 653 210 Q 559 194 453 176 Q 431 173 447 155 Q 484 125 532 140 Q 691 188 939 187 Q 960 188 965 197 Q 971 210 952 224 Q 889 269 811 243 Q 763 233 700 218 L 653 210 Z" fill="lightgray"></path>
</g>
		<text x="40" y="140" font-size="128" fill="#999999">4</text></g>
		<g id="id0:id4:id4" transform="matrix(1.0,0,0,1.0,4096,0.0)">			<g stroke="lightgray" stroke-width="4" transform="scale(4, 4)"> <rect x="0" y="0" width="256" height="256" fill="white" stroke-width="4"/></g>
			<g transform="scale(0.92, -0.92) translate(60, -920)">					<path d="M 228 521 Q 244 558 263 587 Q 270 600 256 613 Q 208 638 188 634 Q 178 630 181 616 Q 202 537 124 422 Q 114 412 92 376 Q 85 360 99 366 Q 115 370 134 389 Q 185 438 215 493 L 228 521 Z" fill="black"></path>
				<path d="M 377 505 Q 473 529 479 533 Q 488 540 483 549 Q 476 559 448 566 Q 406 575 378 555 L 336 541 Q 324 540 313 536 Q 273 527 228 521 C 198 517 186 500 215 493 Q 258 481 311 492 Q 321 495 335 496 L 377 505 Z" fill="black"></path>
				<path d="M 331 285 Q 331 189 306 96 Q 296 60 320 -2 Q 327 -20 335 -23 Q 341 -30 348 -21 Q 355 -17 365 3 Q 375 28 374 58 Q 373 92 375 313 L 375 347 Q 375 417 377 505 L 378 555 Q 378 682 398 750 Q 413 775 378 798 Q 363 808 342 821 Q 320 837 299 822 Q 295 818 301 802 Q 334 753 335 704 Q 336 631 337 548 Q 336 545 336 541 L 335 496 Q 332 414 331 326 L 331 285 Z" fill="black"></path>
				<path d="M 331 326 Q 106 224 99 220 Q 81 220 76 206 Q 75 197 88 182 Q 106 164 128 154 Q 140 150 168 170 Q 282 257 331 285 L 375 313 Q 405 334 436 350 Q 460 360 472 376 Q 479 389 468 389 Q 456 389 375 347 L 331 326 Z" fill="black"></path>
				<path d="M 709 431 Q 856 464 863 471 Q 872 480 867 488 Q 860 500 830 507 Q 799 513 768 500 Q 740 490 711 481 L 659 466 Q 601 454 537 446 Q 500 439 527 422 Q 569 401 637 416 Q 647 419 659 419 L 709 431 Z" fill="red"></path>
				<path d="M 700 218 Q 704 327 709 431 L 711 481 Q 714 628 736 720 Q 740 733 717 749 Q 677 771 649 775 Q 631 779 622 769 Q 613 759 623 743 Q 654 697 655 664 Q 659 570 659 466 L 659 419 Q 658 319 653 210 C 652 180 699 188 700 218 Z" fill="lightgray"></path>
				<path d="M 653 210 Q 559 194 453 176 Q 431 173 447 155 Q 484 125 532 140 Q 691 188 939 187 Q 960 188 965 197 Q 971 210 952 224 Q 889 269 811 243 Q 763 233 700 218 L 653 210 Z" fill="lightgray"></path>
</g>
		<text x="40" y="140" font-size="128" fill="#999999">5</text></g>
</g>
	<g id="id1:id1" transform="translate(0.0,1024)">
		<g id="id1:id0:id0" transform="matrix(1.0,0,0,1.0,0,0.0)">			<g stroke="lightgray" stroke-width="4" transform="scale(4, 4)"> <rect x="0" y="0" width="256" height="256" fill="white" stroke-width="4"/></g>
			<g transform="scale(0.92, -0.92) translate(60, -920)">					<path d="M 228 521 Q 244 558 263 587 Q 270 600 256 613 Q 208 638 188 634 Q 178 630 181 616 Q 202 537 124 422 Q 114 412 92 376 Q 85 360 99 366 Q 115 370 134 389 Q 185 438 215 493 L 228 521 Z" fill="black"></path>
				<path d="M 377 505 Q 473 529 479 533 Q 488 540 483 549 Q 476 559 448 566 Q 406 575 378 555 L 336 541 Q 324 540 313 536 Q 273 527 228 521 C 198 517 186 500 215 493 Q 258 481 311 492 Q 321 495 335 496 L 377 505 Z" fill="black"></path>
				<path d="M 331 285 Q 331 189 306 96 Q 296 60 320 -2 Q 327 -20 335 -23 Q 341 -30 348 -21 Q 355 -17 365 3 Q 375 28 374 58 Q 373 92 375 313 L 375 347 Q 375 417 377 505 L 378 555 Q 378 682 398 750 Q 413 775 378 798 Q 363 808 342 821 Q 320 837 299 822 Q 295 818 301 802 Q 334 753 335 704 Q 336 631 337 548 Q 336 545 336 541 L 335 496 Q 332 414 331 326 L 331 285 Z" fill="black"></path>
				<path d="M 331 326 Q 106 224 99 220 Q 81 220 76 206 Q 75 197 88 182 Q 106 164 128 154 Q 140 150 168 170 Q 282 257 331 285 L 375 313 Q 405 334 436 350 Q 460 360 472 376 Q 479 389 468 389 Q 456 389 375 347 L 331 326 Z" fill="black"></path>
				<path d="M 709 431 Q 856 464 863 471 Q 872 480 867 488 Q 860 500 830 507 Q 799 513 768 500 Q 740 490 711 481 L 659 466 Q 601 454 537 446 Q 500 439 527 422 Q 569 401 637 416 Q 647 419 659 419 L 709 431 Z" fill="black"></path>
				<path d="M 700 218 Q 704 327 709 431 L 711 481 Q 714 628 736 720 Q 740 733 717 749 Q 677 771 649 775 Q 631 779 622 769 Q 613 759 623 743 Q 654 697 655 664 Q 659 570 659 466 L 659 419 Q 658 319 653 210 C 652 180 699 188 700 218 Z" fill="red"></path>
				<path d="M 653 210 Q 559 194 453 176 Q 431 173 447 155 Q 484 125 532 140 Q 691 188 939 187 Q 960 188 965 197 Q 971 210 952 224 Q 889 269 811 243 Q 763 233 700 218 L 653 210 Z" fill="lightgray"></path>
</g>
		<text x="40" y="140" font-size="128" fill="#999999">6</text></g>
		<g id="id1:id1:id1" transform="matrix(1.0,0,0,1.0,1024,0.0)">			<g stroke="lightgray" stroke-width="4" transform="scale(4, 4)"> <rect x="0" y="0" width="256" height="256" fill="white" stroke-width="4"/></g>
			<g transform="scale(0.92, -0.92) translate(60, -920)">					<path d="M 228 521 Q 244 558 263 587 Q 270 600 256 613 Q 208 638 188 634 Q 178 630 181 616 Q 202 537 124 422 Q 114 412 92 376 Q 85 360 99 366 Q 115 370 134 389 Q 185 438 215 493 L 228 521 Z" fill="black"></path>
				<path d="M 377 505 Q 473 529 479 533 Q 488 540 483 549 Q 476 559 448 566 Q 406 575 378 555 L 336 541 Q 324 540 313 536 Q 273 527 228 521 C 198 517 186 500 215 493 Q 258 481 311 492 Q 321 495 335 496 L 377 505 Z" fill="black"></path>
				<path d="M 331 285 Q 331 189 306 96 Q 296 60 320 -2 Q 327 -20 335 -23 Q 341 -30 348 -21 Q 355 -17 365 3 Q 375 28 374 58 Q 373 92 375 313 L 375 347 Q 375 417 377 505 L 378 555 Q 378 682 398 750 Q 413 775 378 798 Q 363 808 342 821 Q 320 837 299 822 Q 295 818 301 802 Q 334 753 335 704 Q 336 631 337 548 Q 336 545 336 541 L 335 496 Q 332 414 331 326 L 331 285 Z" fill="black"></path>
				<path d="M 331 326 Q 106 224 99 220 Q 81 220 76 206 Q 75 197 88 182 Q 106 164 128 154 Q 140 150 168 170 Q 282 257 331 285 L 375 313 Q 405 334 436 350 Q 460 360 472 376 Q 479 389 468 389 Q 456 389 375 347 L 331 326 Z" fill="black"></path>
				<path d="M 709 431 Q 856 464 863 471 Q 872 480 867 488 Q 860 500 830 507 Q 799 513 768 500 Q 740 490 711 481 L 659 466 Q 601 454 537 446 Q 500 439 527 422 Q 569 401 637 416 Q 647 419 659 419 L 709 431 Z" fill="black"></path>
				<path d="M 700 218 Q 704 327 709 431 L 711 481 Q 714 628 736 720 Q 740 733 717 749 Q 677 771 649 775 Q 631 779 622 769 Q 613 759 623 743 Q 654 697 655 664 Q 659 570 659 466 L 659 419 Q 658 319 653 210 C 652 180 699 188 700 218 Z" fill="black"></path>
				<path d="M 653 210 Q 559 194 453 176 Q 431 173 447 155 Q 484 125 532 140 Q 691 188 939 187 Q 960 188 965 197 Q 971 210 952 224 Q 889 269 811 243 Q 763 233 700 218 L 653 210 Z" fill="red"></path>
</g>
		<text x="40" y="140" font-size="128" fill="#999999">7</text></g>
		<g id="id1:id2:id2" transform="matrix(1.0,0,0,1.0,2048,0.0)">			<g stroke="white" stroke-width="4" transform="scale(4, 4)"> <rect x="1" y="1" width="255" height="255" fill="white" stroke-width="0"/></g>
</g>
		<g id="id1:id3:id3" transform="matrix(1.0,0,0,1.0,3072,0.0)">			<g stroke="white" stroke-width="4" transform="scale(4, 4)"> <rect x="1" y="1" width="255" height="255" fill="white" stroke-width="0"/></g>
</g>
		<g id="id1:id4:id4" transform="matrix(1.0,0,0,1.0,4096,0.0)">			<g stroke="white" stroke-width="4" transform="scale(4, 4)"> <rect x="1" y="1" width="255" height="255" fill="white" stroke-width="0"/></g>
</g>
</g>
</svg>
