<?xml version="1.0" standalone="no"?>
<!DOCTYPE svg PUBLIC "-//W3C//DTD SVG 1.1//EN"
 "http://www.w3.org/Graphics/SVG/1.1/DTD/svg11.dtd">
<!-- generate by Japanese dictionary app com.asnsami.kanjidictionary -->

<svg xmlns="http://www.w3.org/2000/svg" xmlns:sodipodi="http://sodipodi.sourceforge.net/DTD/sodipodi-0.dtd" version="1.1" width="640" height="256" viewBox="0 0 5120 2048">
	<g id="id0:id0" transform="translate(0.0,0)">
		<g id="id0:id0:id0" transform="matrix(1.0,0,0,1.0,0,0.0)">			<g stroke="lightgray" stroke-width="4" transform="scale(4, 4)"> <rect x="0" y="0" width="256" height="256" fill="white" stroke-width="4"/></g>
			<g transform="scale(0.92, -0.92) translate(60, -920)">					<path d="M 328 619 Q 359 668 432 750 Q 445 763 431 781 Q 386 826 359 824 Q 346 823 347 806 Q 347 742 301 671 L 270 628 Q 204 550 158 515 Q 113 482 91 461 Q 79 445 97 448 Q 167 451 290 577 L 328 619 Z" fill="red"></path>
				<path d="M 318 415 Q 327 255 286 137 Q 277 118 266 114 Q 253 114 218 129 Q 187 142 182 136 Q 178 130 187 116 Q 223 77 244 41 Q 266 8 278 9 Q 288 9 310 33 Q 380 129 375 358 Q 366 523 328 619 L 301 671 Q 265 728 166 757 Q 163 758 162 758 Q 146 762 144 750 Q 144 735 155 717 Q 168 699 187 699 Q 232 690 270 628 L 290 577 Q 299 546 306 512 L 318 415 Z" fill="lightgray"></path>
				<path d="M 306 512 Q 243 359 67 202 Q 61 198 55 192 Q 42 179 52 177 Q 62 173 74 179 Q 194 228 308 400 Q 312 409 318 415 C 336 439 318 540 306 512 Z" fill="lightgray"></path>
				<path d="M 651 593 Q 838 630 846 636 Q 856 645 851 654 Q 844 667 811 677 Q 772 686 690 656 Q 572 629 484 621 Q 442 615 472 596 Q 520 569 594 583 L 651 593 Z" fill="lightgray"></path>
				<path d="M 666 373 Q 712 385 766 395 Q 809 405 815 411 Q 824 418 819 428 Q 812 440 782 447 Q 752 453 668 423 L 609 407 Q 554 397 494 390 Q 457 383 483 366 Q 522 345 594 359 Q 600 360 609 361 L 666 373 Z" fill="lightgray"></path>
				<path d="M 659 183 Q 663 286 666 373 L 668 423 Q 671 528 673 543 Q 682 570 651 593 C 628 613 588 612 594 583 Q 606 532 609 460 Q 609 439 609 407 L 609 361 Q 608 288 608 177 C 608 147 658 153 659 183 Z" fill="lightgray"></path>
				<path d="M 608 177 Q 511 167 402 152 Q 380 151 396 131 Q 412 115 431 109 Q 455 103 472 108 Q 617 144 896 144 Q 912 144 927 143 Q 949 142 955 152 Q 961 165 943 180 Q 886 223 844 215 Q 775 202 659 183 L 608 177 Z" fill="lightgray"></path>
</g>
		<text x="40" y="140" font-size="128" fill="#999999">1</text></g>
		<g id="id0:id1:id1" transform="matrix(1.0,0,0,1.0,1024,0.0)">			<g stroke="lightgray" stroke-width="4" transform="scale(4, 4)"> <rect x="0" y="0" width="256" height="256" fill="white" stroke-width="4"/></g>
			<g transform="scale(0.92, -0.92) translate(60, -920)">					<path d="M 328 619 Q 359 668 432 750 Q 445 763 431 781 Q 386 826 359 824 Q 346 823 347 806 Q 347 742 301 671 L 270 628 Q 204 550 158 515 Q 113 482 91 461 Q 79 445 97 448 Q 167 451 290 577 L 328 619 Z" fill="black"></path>
				<path d="M 318 415 Q 327 255 286 137 Q 277 118 266 114 Q 253 114 218 129 Q 187 142 182 136 Q 178 130 187 116 Q 223 77 244 41 Q 266 8 278 9 Q 288 9 310 33 Q 380 129 375 358 Q 366 523 328 619 L 301 671 Q 265 728 166 757 Q 163 758 162 758 Q 146 762 144 750 Q 144 735 155 717 Q 168 699 187 699 Q 232 690 270 628 L 290 577 Q 299 546 306 512 L 318 415 Z" fill="red"></path>
				<path d="M 306 512 Q 243 359 67 202 Q 61 198 55 192 Q 42 179 52 177 Q 62 173 74 179 Q 194 228 308 400 Q 312 409 318 415 C 336 439 318 540 306 512 Z" fill="lightgray"></path>
				<path d="M 651 593 Q 838 630 846 636 Q 856 645 851 654 Q 844 667 811 677 Q 772 686 690 656 Q 572 629 484 621 Q 442 615 472 596 Q 520 569 594 583 L 651 593 Z" fill="lightgray"></path>
				<path d="M 666 373 Q 712 385 766 395 Q 809 405 815 411 Q 824 418 819 428 Q 812 440 782 447 Q 752 453 668 423 L 609 407 Q 554 397 494 390 Q 457 383 483 366 Q 522 345 594 359 Q 600 360 609 361 L 666 373 Z" fill="lightgray"></path>
				<path d="M 659 183 Q 663 286 666 373 L 668 423 Q 671 528 673 543 Q 682 570 651 593 C 628 613 588 612 594 583 Q 606 532 609 460 Q 609 439 609 407 L 609 361 Q 608 288 608 177 C 608 147 658 153 659 183 Z" fill="lightgray"></path>
				<path d="M 608 177 Q 511 167 402 152 Q 380 151 396 131 Q 412 115 431 109 Q 455 103 472 108 Q 617 144 896 144 Q 912 144 927 143 Q 949 142 955 152 Q 961 165 943 180 Q 886 223 844 215 Q 775 202 659 183 L 608 177 Z" fill="lightgray"></path>
</g>
		<text x="40" y="140" font-size="128" fill="#999999">2</text></g>
		<g id="id0:id2:id2" transform="matrix(1.0,0,0,1.0,2048,0.0)">			<g stroke="lightgray" stroke-width="4" transform="scale(4, 4)"> <rect x="0" y="0" width="256" height="256" fill="white" stroke-width="4"/></g>
			<g transform="scale(0.92, -0.92) translate(60, -920)">					<path d="M 328 619 Q 359 668 432 750 Q 445 763 431 781 Q 386 826 359 824 Q 346 823 347 806 Q 347 742 301 671 L 270 628 Q 204 550 158 515 Q 113 482 91 461 Q 79 445 97 448 Q 167 451 290 577 L 328 619 Z" fill="black"></path>
				<path d="M 318 415 Q 327 255 286 137 Q 277 118 266 114 Q 253 114 218 129 Q 187 142 182 136 Q 178 130 187 116 Q 223 77 244 41 Q 266 8 278 9 Q 288 9 310 33 Q 380 129 375 358 Q 366 523 328 619 L 301 671 Q 265 728 166 757 Q 163 758 162 758 Q 146 762 144 750 Q 144 735 155 717 Q 168 699 187 699 Q 232 690 270 628 L 290 577 Q 299 546 306 512 L 318 415 Z" fill="black"></path>
				<path d="M 306 512 Q 243 359 67 202 Q 61 198 55 192 Q 42 179 52 177 Q 62 173 74 179 Q 194 228 308 400 Q 312 409 318 415 C 336 439 318 540 306 512 Z" fill="red"></path>
				<path d="M 651 593 Q 838 630 846 636 Q 856 645 851 654 Q 844 667 811 677 Q 772 686 690 656 Q 572 629 484 621 Q 442 615 472 596 Q 520 569 594 583 L 651 593 Z" fill="lightgray"></path>
				<path d="M 666 373 Q 712 385 766 395 Q 809 405 815 411 Q 824 418 819 428 Q 812 440 782 447 Q 752 453 668 423 L 609 407 Q 554 397 494 390 Q 457 383 483 366 Q 522 345 594 359 Q 600 360 609 361 L 666 373 Z" fill="lightgray"></path>
				<path d="M 659 183 Q 663 286 666 373 L 668 423 Q 671 528 673 543 Q 682 570 651 593 C 628 613 588 612 594 583 Q 606 532 609 460 Q 609 439 609 407 L 609 361 Q 608 288 608 177 C 608 147 658 153 659 183 Z" fill="lightgray"></path>
				<path d="M 608 177 Q 511 167 402 152 Q 380 151 396 131 Q 412 115 431 109 Q 455 103 472 108 Q 617 144 896 144 Q 912 144 927 143 Q 949 142 955 152 Q 961 165 943 180 Q 886 223 844 215 Q 775 202 659 183 L 608 177 Z" fill="lightgray"></path>
</g>
		<text x="40" y="140" font-size="128" fill="#999999">3</text></g>
		<g id="id0:id3:id3" transform="matrix(1.0,0,0,1.0,3072,0.0)">			<g stroke="lightgray" stroke-width="4" transform="scale(4, 4)"> <rect x="0" y="0" width="256" height="256" fill="white" stroke-width="4"/></g>
			<g transform="scale(0.92, -0.92) translate(60, -920)">					<path d="M 328 619 Q 359 668 432 750 Q 445 763 431 781 Q 386 826 359 824 Q 346 823 347 806 Q 347 742 301 671 L 270 628 Q 204 550 158 515 Q 113 482 91 461 Q 79 445 97 448 Q 167 451 290 577 L 328 619 Z" fill="black"></path>
				<path d="M 318 415 Q 327 255 286 137 Q 277 118 266 114 Q 253 114 218 129 Q 187 142 182 136 Q 178 130 187 116 Q 223 77 244 41 Q 266 8 278 9 Q 288 9 310 33 Q 380 129 375 358 Q 366 523 328 619 L 301 671 Q 265 728 166 757 Q 163 758 162 758 Q 146 762 144 750 Q 144 735 155 717 Q 168 699 187 699 Q 232 690 270 628 L 290 577 Q 299 546 306 512 L 318 415 Z" fill="black"></path>
				<path d="M 306 512 Q 243 359 67 202 Q 61 198 55 192 Q 42 179 52 177 Q 62 173 74 179 Q 194 228 308 400 Q 312 409 318 415 C 336 439 318 540 306 512 Z" fill="black"></path>
				<path d="M 651 593 Q 838 630 846 636 Q 856 645 851 654 Q 844 667 811 677 Q 772 686 690 656 Q 572 629 484 621 Q 442 615 472 596 Q 520 569 594 583 L 651 593 Z" fill="red"></path>
				<path d="M 666 373 Q 712 385 766 395 Q 809 405 815 411 Q 824 418 819 428 Q 812 440 782 447 Q 752 453 668 423 L 609 407 Q 554 397 494 390 Q 457 383 483 366 Q 522 345 594 359 Q 600 360 609 361 L 666 373 Z" fill="lightgray"></path>
				<path d="M 659 183 Q 663 286 666 373 L 668 423 Q 671 528 673 543 Q 682 570 651 593 C 628 613 588 612 594 583 Q 606 532 609 460 Q 609 439 609 407 L 609 361 Q 608 288 608 177 C 608 147 658 153 659 183 Z" fill="lightgray"></path>
				<path d="M 608 177 Q 511 167 402 152 Q 380 151 396 131 Q 412 115 431 109 Q 455 103 472 108 Q 617 144 896 144 Q 912 144 927 143 Q 949 142 955 152 Q 961 165 943 180 Q 886 223 844 215 Q 775 202 659 183 L 608 177 Z" fill="lightgray"></path>
</g>
		<text x="40" y="140" font-size="128" fill="#999999">4</text></g>
		<g id="id0:id4:id4" transform="matrix(1.0,0,0,1.0,4096,0.0)">			<g stroke="lightgray" stroke-width="4" transform="scale(4, 4)"> <rect x="0" y="0" width="256" height="256" fill="white" stroke-width="4"/></g>
			<g transform="scale(0.92, -0.92) translate(60, -920)">					<path d="M 328 619 Q 359 668 432 750 Q 445 763 431 781 Q 386 826 359 824 Q 346 823 347 806 Q 347 742 301 671 L 270 628 Q 204 550 158 515 Q 113 482 91 461 Q 79 445 97 448 Q 167 451 290 577 L 328 619 Z" fill="black"></path>
				<path d="M 318 415 Q 327 255 286 137 Q 277 118 266 114 Q 253 114 218 129 Q 187 142 182 136 Q 178 130 187 116 Q 223 77 244 41 Q 266 8 278 9 Q 288 9 310 33 Q 380 129 375 358 Q 366 523 328 619 L 301 671 Q 265 728 166 757 Q 163 758 162 758 Q 146 762 144 750 Q 144 735 155 717 Q 168 699 187 699 Q 232 690 270 628 L 290 577 Q 299 546 306 512 L 318 415 Z" fill="black"></path>
				<path d="M 306 512 Q 243 359 67 202 Q 61 198 55 192 Q 42 179 52 177 Q 62 173 74 179 Q 194 228 308 400 Q 312 409 318 415 C 336 439 318 540 306 512 Z" fill="black"></path>
				<path d="M 651 593 Q 838 630 846 636 Q 856 645 851 654 Q 844 667 811 677 Q 772 686 690 656 Q 572 629 484 621 Q 442 615 472 596 Q 520 569 594 583 L 651 593 Z" fill="black"></path>
				<path d="M 666 373 Q 712 385 766 395 Q 809 405 815 411 Q 824 418 819 428 Q 812 440 782 447 Q 752 453 668 423 L 609 407 Q 554 397 494 390 Q 457 383 483 366 Q 522 345 594 359 Q 600 360 609 361 L 666 373 Z" fill="red"></path>
				<path d="M 659 183 Q 663 286 666 373 L 668 423 Q 671 528 673 543 Q 682 570 651 593 C 628 613 588 612 594 583 Q 606 532 609 460 Q 609 439 609 407 L 609 361 Q 608 288 608 177 C 608 147 658 153 659 183 Z" fill="lightgray"></path>
				<path d="M 608 177 Q 511 167 402 152 Q 380 151 396 131 Q 412 115 431 109 Q 455 103 472 108 Q 617 144 896 144 Q 912 144 927 143 Q 949 142 955 152 Q 961 165 943 180 Q 886 223 844 215 Q 775 202 659 183 L 608 177 Z" fill="lightgray"></path>
</g>
		<text x="40" y="140" font-size="128" fill="#999999">5</text></g>
</g>
	<g id="id1:id1" transform="translate(0.0,1024)">
		<g id="id1:id0:id0" transform="matrix(1.0,0,0,1.0,0,0.0)">			<g stroke="lightgray" stroke-width="4" transform="scale(4, 4)"> <rect x="0" y="0" width="256" height="256" fill="white" stroke-width="4"/></g>
			<g transform="scale(0.92, -0.92) translate(60, -920)">					<path d="M 328 619 Q 359 668 432 750 Q 445 763 431 781 Q 386 826 359 824 Q 346 823 347 806 Q 347 742 301 671 L 270 628 Q 204 550 158 515 Q 113 482 91 461 Q 79 445 97 448 Q 167 451 290 577 L 328 619 Z" fill="black"></path>
				<path d="M 318 415 Q 327 255 286 137 Q 277 118 266 114 Q 253 114 218 129 Q 187 142 182 136 Q 178 130 187 116 Q 223 77 244 41 Q 266 8 278 9 Q 288 9 310 33 Q 380 129 375 358 Q 366 523 328 619 L 301 671 Q 265 728 166 757 Q 163 758 162 758 Q 146 762 144 750 Q 144 735 155 717 Q 168 699 187 699 Q 232 690 270 628 L 290 577 Q 299 546 306 512 L 318 415 Z" fill="black"></path>
				<path d="M 306 512 Q 243 359 67 202 Q 61 198 55 192 Q 42 179 52 177 Q 62 173 74 179 Q 194 228 308 400 Q 312 409 318 415 C 336 439 318 540 306 512 Z" fill="black"></path>
				<path d="M 651 593 Q 838 630 846 636 Q 856 645 851 654 Q 844 667 811 677 Q 772 686 690 656 Q 572 629 484 621 Q 442 615 472 596 Q 520 569 594 583 L 651 593 Z" fill="black"></path>
				<path d="M 666 373 Q 712 385 766 395 Q 809 405 815 411 Q 824 418 819 428 Q 812 440 782 447 Q 752 453 668 423 L 609 407 Q 554 397 494 390 Q 457 383 483 366 Q 522 345 594 359 Q 600 360 609 361 L 666 373 Z" fill="black"></path>
				<path d="M 659 183 Q 663 286 666 373 L 668 423 Q 671 528 673 543 Q 682 570 651 593 C 628 613 588 612 594 583 Q 606 532 609 460 Q 609 439 609 407 L 609 361 Q 608 288 608 177 C 608 147 658 153 659 183 Z" fill="red"></path>
				<path d="M 608 177 Q 511 167 402 152 Q 380 151 396 131 Q 412 115 431 109 Q 455 103 472 108 Q 617 144 896 144 Q 912 144 927 143 Q 949 142 955 152 Q 961 165 943 180 Q 886 223 844 215 Q 775 202 659 183 L 608 177 Z" fill="lightgray"></path>
</g>
		<text x="40" y="140" font-size="128" fill="#999999">6</text></g>
		<g id="id1:id1:id1" transform="matrix(1.0,0,0,1.0,1024,0.0)">			<g stroke="lightgray" stroke-width="4" transform="scale(4, 4)"> <rect x="0" y="0" width="256" height="256" fill="white" stroke-width="4"/></g>
			<g transform="scale(0.92, -0.92) translate(60, -920)">					<path d="M 328 619 Q 359 668 432 750 Q 445 763 431 781 Q 386 826 359 824 Q 346 823 347 806 Q 347 742 301 671 L 270 628 Q 204 550 158 515 Q 113 482 91 461 Q 79 445 97 448 Q 167 451 290 577 L 328 619 Z" fill="black"></path>
				<path d="M 318 415 Q 327 255 286 137 Q 277 118 266 114 Q 253 114 218 129 Q 187 142 182 136 Q 178 130 187 116 Q 223 77 244 41 Q 266 8 278 9 Q 288 9 310 33 Q 380 129 375 358 Q 366 523 328 619 L 301 671 Q 265 728 166 757 Q 163 758 162 758 Q 146 762 144 750 Q 144 735 155 717 Q 168 699 187 699 Q 232 690 270 628 L 290 577 Q 299 546 306 512 L 318 415 Z" fill="black"></path>
				<path d="M 306 512 Q 243 359 67 202 Q 61 198 55 192 Q 42 179 52 177 Q 62 173 74 179 Q 194 228 308 400 Q 312 409 318 415 C 336 439 318 540 306 512 Z" fill="black"></path>
				<path d="M 651 593 Q 838 630 846 636 Q 856 645 851 654 Q 844 667 811 677 Q 772 686 690 656 Q 572 629 484 621 Q 442 615 472 596 Q 520 569 594 583 L 651 593 Z" fill="black"></path>
				<path d="M 666 373 Q 712 385 766 395 Q 809 405 815 411 Q 824 418 819 428 Q 812 440 782 447 Q 752 453 668 423 L 609 407 Q 554 397 494 390 Q 457 383 483 366 Q 522 345 594 359 Q 600 360 609 361 L 666 373 Z" fill="black"></path>
				<path d="M 659 183 Q 663 286 666 373 L 668 423 Q 671 528 673 543 Q 682 570 651 593 C 628 613 588 612 594 583 Q 606 532 609 460 Q 609 439 609 407 L 609 361 Q 608 288 608 177 C 608 147 658 153 659 183 Z" fill="black"></path>
				<path d="M 608 177 Q 511 167 402 152 Q 380 151 396 131 Q 412 115 431 109 Q 455 103 472 108 Q 617 144 896 144 Q 912 144 927 143 Q 949 142 955 152 Q 961 165 943 180 Q 886 223 844 215 Q 775 202 659 183 L 608 177 Z" fill="red"></path>
</g>
		<text x="40" y="140" font-size="128" fill="#999999">7</text></g>
		<g id="id1:id2:id2" transform="matrix(1.0,0,0,1.0,2048,0.0)">			<g stroke="white" stroke-width="4" transform="scale(4, 4)"> <rect x="1" y="1" width="255" height="255" fill="white" stroke-width="0"/></g>
</g>
		<g id="id1:id3:id3" transform="matrix(1.0,0,0,1.0,3072,0.0)">			<g stroke="white" stroke-width="4" transform="scale(4, 4)"> <rect x="1" y="1" width="255" height="255" fill="white" stroke-width="0"/></g>
</g>
		<g id="id1:id4:id4" transform="matrix(1.0,0,0,1.0,4096,0.0)">			<g stroke="white" stroke-width="4" transform="scale(4, 4)"> <rect x="1" y="1" width="255" height="255" fill="white" stroke-width="0"/></g>
</g>
</g>
</svg>
