<?xml version="1.0" standalone="no"?>
<!DOCTYPE svg PUBLIC "-//W3C//DTD SVG 1.1//EN"
 "http://www.w3.org/Graphics/SVG/1.1/DTD/svg11.dtd">
<!-- generate by Handict dictionary app com.asnsami.handict -->

<svg xmlns="http://www.w3.org/2000/svg" xmlns:sodipodi="http://sodipodi.sourceforge.net/DTD/sodipodi-0.dtd" version="1.1" width="640" height="384" viewBox="0 0 5120 3072">
	<g id="id0:id0" transform="translate(0.0,0)">
		<g id="id0:id0:id0" transform="matrix(1.0,0,0,1.0,0,0.0)">			<g stroke="lightgray" stroke-width="4" transform="scale(4, 4)"> <rect x="0" y="0" width="256" height="256" fill="white" stroke-width="4"/></g>
			<g transform="scale(0.92, -0.92) translate(60, -920)">					<path d="M 315 610 Q 366 679 395 711 Q 407 723 394 739 Q 355 778 328 778 Q 316 777 317 761 Q 317 713 287 659 L 261 619 Q 251 609 243 597 Q 219 564 110 472 Q 100 457 116 461 Q 180 465 281 571 L 315 610 Z" fill="red"></path>
				<path d="M 310 405 Q 317 254 274 127 Q 265 108 253 103 Q 240 102 203 115 Q 175 125 170 120 Q 166 114 175 102 Q 212 66 234 34 Q 253 6 263 7 Q 275 7 296 32 Q 371 125 364 356 Q 361 407 353 458 Q 341 546 315 610 L 287 659 Q 248 705 164 728 Q 149 732 148 721 Q 148 708 159 691 Q 171 675 189 676 Q 235 664 261 619 L 281 571 Q 293 534 301 492 L 310 405 Z" fill="lightgray"></path>
				<path d="M 301 492 Q 238 366 64 191 Q 57 181 69 179 Q 88 176 204 276 Q 258 325 310 405 C 327 430 315 519 301 492 Z" fill="lightgray"></path>
				<path d="M 657 617 Q 754 695 777 701 Q 796 707 789 723 Q 786 739 722 773 Q 704 782 682 773 Q 630 754 553 731 Q 532 724 483 726 Q 461 727 468 707 Q 475 695 494 684 Q 521 669 558 687 Q 663 741 683 727 Q 695 720 689 706 Q 668 670 643 629 C 627 603 634 598 657 617 Z" fill="lightgray"></path>
				<path d="M 678 575 Q 671 603 657 617 L 643 629 Q 633 636 617 640 Q 599 646 591 640 Q 581 633 593 623 Q 623 604 633 567 L 640 534 Q 652 468 632 421 Q 622 400 594 404 Q 566 408 539 414 Q 529 415 533 407 Q 569 374 605 341 Q 615 328 628 330 Q 640 331 660 355 Q 705 406 687 535 Q 686 538 686 540 L 678 575 Z" fill="lightgray"></path>
				<path d="M 686 540 Q 749 547 835 549 Q 886 549 892 558 Q 896 568 882 580 Q 831 614 776 596 Q 734 587 678 575 L 633 567 Q 534 552 418 531 Q 400 530 414 515 Q 427 503 442 499 Q 460 495 474 500 Q 553 524 640 534 L 686 540 Z" fill="lightgray"></path>
				<path d="M 463 299 Q 453 305 419 312 Q 407 316 404 311 Q 400 305 406 291 Q 433 230 447 132 Q 448 111 457 95 C 470 68 489 68 490 98 Q 491 116 487 141 Q 474 226 468 263 C 463 293 464 299 463 299 Z" fill="lightgray"></path>
				<path d="M 810 134 Q 840 246 870 290 Q 880 300 877 311 Q 870 327 813 354 Q 797 361 783 358 Q 638 324 463 299 C 433 295 439 256 468 263 Q 477 264 485 267 Q 507 273 534 278 L 559 283 Q 599 293 643 300 L 676 306 Q 763 327 782 314 Q 789 310 789 289 Q 777 222 753 126 C 746 97 802 105 810 134 Z" fill="lightgray"></path>
				<path d="M 582 106 Q 588 145 562 269 Q 561 272 561 273 Q 560 279 559 283 C 553 312 532 308 534 278 Q 547 122 550 118 Q 550 115 558 103 C 574 78 579 76 582 106 Z" fill="lightgray"></path>
				<path d="M 669 115 Q 690 235 701 254 Q 708 270 699 283 Q 689 296 676 306 C 653 325 636 329 643 300 Q 650 273 651 246 Q 650 219 635 112 C 631 82 664 85 669 115 Z" fill="lightgray"></path>
				<path d="M 457 95 Q 420 94 381 89 Q 360 88 375 70 Q 388 57 405 51 Q 424 45 441 49 Q 642 94 909 74 Q 928 74 933 82 Q 939 92 924 107 Q 861 155 812 134 Q 811 135 810 134 L 753 126 Q 714 122 669 115 L 635 112 Q 634 112 633 112 Q 608 111 582 106 L 558 103 Q 524 102 490 98 L 457 95 Z" fill="lightgray"></path>
</g>
		<text x="40" y="140" font-size="128" fill="#999999">1</text></g>
		<g id="id0:id1:id1" transform="matrix(1.0,0,0,1.0,1024,0.0)">			<g stroke="lightgray" stroke-width="4" transform="scale(4, 4)"> <rect x="0" y="0" width="256" height="256" fill="white" stroke-width="4"/></g>
			<g transform="scale(0.92, -0.92) translate(60, -920)">					<path d="M 315 610 Q 366 679 395 711 Q 407 723 394 739 Q 355 778 328 778 Q 316 777 317 761 Q 317 713 287 659 L 261 619 Q 251 609 243 597 Q 219 564 110 472 Q 100 457 116 461 Q 180 465 281 571 L 315 610 Z" fill="black"></path>
				<path d="M 310 405 Q 317 254 274 127 Q 265 108 253 103 Q 240 102 203 115 Q 175 125 170 120 Q 166 114 175 102 Q 212 66 234 34 Q 253 6 263 7 Q 275 7 296 32 Q 371 125 364 356 Q 361 407 353 458 Q 341 546 315 610 L 287 659 Q 248 705 164 728 Q 149 732 148 721 Q 148 708 159 691 Q 171 675 189 676 Q 235 664 261 619 L 281 571 Q 293 534 301 492 L 310 405 Z" fill="red"></path>
				<path d="M 301 492 Q 238 366 64 191 Q 57 181 69 179 Q 88 176 204 276 Q 258 325 310 405 C 327 430 315 519 301 492 Z" fill="lightgray"></path>
				<path d="M 657 617 Q 754 695 777 701 Q 796 707 789 723 Q 786 739 722 773 Q 704 782 682 773 Q 630 754 553 731 Q 532 724 483 726 Q 461 727 468 707 Q 475 695 494 684 Q 521 669 558 687 Q 663 741 683 727 Q 695 720 689 706 Q 668 670 643 629 C 627 603 634 598 657 617 Z" fill="lightgray"></path>
				<path d="M 678 575 Q 671 603 657 617 L 643 629 Q 633 636 617 640 Q 599 646 591 640 Q 581 633 593 623 Q 623 604 633 567 L 640 534 Q 652 468 632 421 Q 622 400 594 404 Q 566 408 539 414 Q 529 415 533 407 Q 569 374 605 341 Q 615 328 628 330 Q 640 331 660 355 Q 705 406 687 535 Q 686 538 686 540 L 678 575 Z" fill="lightgray"></path>
				<path d="M 686 540 Q 749 547 835 549 Q 886 549 892 558 Q 896 568 882 580 Q 831 614 776 596 Q 734 587 678 575 L 633 567 Q 534 552 418 531 Q 400 530 414 515 Q 427 503 442 499 Q 460 495 474 500 Q 553 524 640 534 L 686 540 Z" fill="lightgray"></path>
				<path d="M 463 299 Q 453 305 419 312 Q 407 316 404 311 Q 400 305 406 291 Q 433 230 447 132 Q 448 111 457 95 C 470 68 489 68 490 98 Q 491 116 487 141 Q 474 226 468 263 C 463 293 464 299 463 299 Z" fill="lightgray"></path>
				<path d="M 810 134 Q 840 246 870 290 Q 880 300 877 311 Q 870 327 813 354 Q 797 361 783 358 Q 638 324 463 299 C 433 295 439 256 468 263 Q 477 264 485 267 Q 507 273 534 278 L 559 283 Q 599 293 643 300 L 676 306 Q 763 327 782 314 Q 789 310 789 289 Q 777 222 753 126 C 746 97 802 105 810 134 Z" fill="lightgray"></path>
				<path d="M 582 106 Q 588 145 562 269 Q 561 272 561 273 Q 560 279 559 283 C 553 312 532 308 534 278 Q 547 122 550 118 Q 550 115 558 103 C 574 78 579 76 582 106 Z" fill="lightgray"></path>
				<path d="M 669 115 Q 690 235 701 254 Q 708 270 699 283 Q 689 296 676 306 C 653 325 636 329 643 300 Q 650 273 651 246 Q 650 219 635 112 C 631 82 664 85 669 115 Z" fill="lightgray"></path>
				<path d="M 457 95 Q 420 94 381 89 Q 360 88 375 70 Q 388 57 405 51 Q 424 45 441 49 Q 642 94 909 74 Q 928 74 933 82 Q 939 92 924 107 Q 861 155 812 134 Q 811 135 810 134 L 753 126 Q 714 122 669 115 L 635 112 Q 634 112 633 112 Q 608 111 582 106 L 558 103 Q 524 102 490 98 L 457 95 Z" fill="lightgray"></path>
</g>
		<text x="40" y="140" font-size="128" fill="#999999">2</text></g>
		<g id="id0:id2:id2" transform="matrix(1.0,0,0,1.0,2048,0.0)">			<g stroke="lightgray" stroke-width="4" transform="scale(4, 4)"> <rect x="0" y="0" width="256" height="256" fill="white" stroke-width="4"/></g>
			<g transform="scale(0.92, -0.92) translate(60, -920)">					<path d="M 315 610 Q 366 679 395 711 Q 407 723 394 739 Q 355 778 328 778 Q 316 777 317 761 Q 317 713 287 659 L 261 619 Q 251 609 243 597 Q 219 564 110 472 Q 100 457 116 461 Q 180 465 281 571 L 315 610 Z" fill="black"></path>
				<path d="M 310 405 Q 317 254 274 127 Q 265 108 253 103 Q 240 102 203 115 Q 175 125 170 120 Q 166 114 175 102 Q 212 66 234 34 Q 253 6 263 7 Q 275 7 296 32 Q 371 125 364 356 Q 361 407 353 458 Q 341 546 315 610 L 287 659 Q 248 705 164 728 Q 149 732 148 721 Q 148 708 159 691 Q 171 675 189 676 Q 235 664 261 619 L 281 571 Q 293 534 301 492 L 310 405 Z" fill="black"></path>
				<path d="M 301 492 Q 238 366 64 191 Q 57 181 69 179 Q 88 176 204 276 Q 258 325 310 405 C 327 430 315 519 301 492 Z" fill="red"></path>
				<path d="M 657 617 Q 754 695 777 701 Q 796 707 789 723 Q 786 739 722 773 Q 704 782 682 773 Q 630 754 553 731 Q 532 724 483 726 Q 461 727 468 707 Q 475 695 494 684 Q 521 669 558 687 Q 663 741 683 727 Q 695 720 689 706 Q 668 670 643 629 C 627 603 634 598 657 617 Z" fill="lightgray"></path>
				<path d="M 678 575 Q 671 603 657 617 L 643 629 Q 633 636 617 640 Q 599 646 591 640 Q 581 633 593 623 Q 623 604 633 567 L 640 534 Q 652 468 632 421 Q 622 400 594 404 Q 566 408 539 414 Q 529 415 533 407 Q 569 374 605 341 Q 615 328 628 330 Q 640 331 660 355 Q 705 406 687 535 Q 686 538 686 540 L 678 575 Z" fill="lightgray"></path>
				<path d="M 686 540 Q 749 547 835 549 Q 886 549 892 558 Q 896 568 882 580 Q 831 614 776 596 Q 734 587 678 575 L 633 567 Q 534 552 418 531 Q 400 530 414 515 Q 427 503 442 499 Q 460 495 474 500 Q 553 524 640 534 L 686 540 Z" fill="lightgray"></path>
				<path d="M 463 299 Q 453 305 419 312 Q 407 316 404 311 Q 400 305 406 291 Q 433 230 447 132 Q 448 111 457 95 C 470 68 489 68 490 98 Q 491 116 487 141 Q 474 226 468 263 C 463 293 464 299 463 299 Z" fill="lightgray"></path>
				<path d="M 810 134 Q 840 246 870 290 Q 880 300 877 311 Q 870 327 813 354 Q 797 361 783 358 Q 638 324 463 299 C 433 295 439 256 468 263 Q 477 264 485 267 Q 507 273 534 278 L 559 283 Q 599 293 643 300 L 676 306 Q 763 327 782 314 Q 789 310 789 289 Q 777 222 753 126 C 746 97 802 105 810 134 Z" fill="lightgray"></path>
				<path d="M 582 106 Q 588 145 562 269 Q 561 272 561 273 Q 560 279 559 283 C 553 312 532 308 534 278 Q 547 122 550 118 Q 550 115 558 103 C 574 78 579 76 582 106 Z" fill="lightgray"></path>
				<path d="M 669 115 Q 690 235 701 254 Q 708 270 699 283 Q 689 296 676 306 C 653 325 636 329 643 300 Q 650 273 651 246 Q 650 219 635 112 C 631 82 664 85 669 115 Z" fill="lightgray"></path>
				<path d="M 457 95 Q 420 94 381 89 Q 360 88 375 70 Q 388 57 405 51 Q 424 45 441 49 Q 642 94 909 74 Q 928 74 933 82 Q 939 92 924 107 Q 861 155 812 134 Q 811 135 810 134 L 753 126 Q 714 122 669 115 L 635 112 Q 634 112 633 112 Q 608 111 582 106 L 558 103 Q 524 102 490 98 L 457 95 Z" fill="lightgray"></path>
</g>
		<text x="40" y="140" font-size="128" fill="#999999">3</text></g>
		<g id="id0:id3:id3" transform="matrix(1.0,0,0,1.0,3072,0.0)">			<g stroke="lightgray" stroke-width="4" transform="scale(4, 4)"> <rect x="0" y="0" width="256" height="256" fill="white" stroke-width="4"/></g>
			<g transform="scale(0.92, -0.92) translate(60, -920)">					<path d="M 315 610 Q 366 679 395 711 Q 407 723 394 739 Q 355 778 328 778 Q 316 777 317 761 Q 317 713 287 659 L 261 619 Q 251 609 243 597 Q 219 564 110 472 Q 100 457 116 461 Q 180 465 281 571 L 315 610 Z" fill="black"></path>
				<path d="M 310 405 Q 317 254 274 127 Q 265 108 253 103 Q 240 102 203 115 Q 175 125 170 120 Q 166 114 175 102 Q 212 66 234 34 Q 253 6 263 7 Q 275 7 296 32 Q 371 125 364 356 Q 361 407 353 458 Q 341 546 315 610 L 287 659 Q 248 705 164 728 Q 149 732 148 721 Q 148 708 159 691 Q 171 675 189 676 Q 235 664 261 619 L 281 571 Q 293 534 301 492 L 310 405 Z" fill="black"></path>
				<path d="M 301 492 Q 238 366 64 191 Q 57 181 69 179 Q 88 176 204 276 Q 258 325 310 405 C 327 430 315 519 301 492 Z" fill="black"></path>
				<path d="M 657 617 Q 754 695 777 701 Q 796 707 789 723 Q 786 739 722 773 Q 704 782 682 773 Q 630 754 553 731 Q 532 724 483 726 Q 461 727 468 707 Q 475 695 494 684 Q 521 669 558 687 Q 663 741 683 727 Q 695 720 689 706 Q 668 670 643 629 C 627 603 634 598 657 617 Z" fill="red"></path>
				<path d="M 678 575 Q 671 603 657 617 L 643 629 Q 633 636 617 640 Q 599 646 591 640 Q 581 633 593 623 Q 623 604 633 567 L 640 534 Q 652 468 632 421 Q 622 400 594 404 Q 566 408 539 414 Q 529 415 533 407 Q 569 374 605 341 Q 615 328 628 330 Q 640 331 660 355 Q 705 406 687 535 Q 686 538 686 540 L 678 575 Z" fill="lightgray"></path>
				<path d="M 686 540 Q 749 547 835 549 Q 886 549 892 558 Q 896 568 882 580 Q 831 614 776 596 Q 734 587 678 575 L 633 567 Q 534 552 418 531 Q 400 530 414 515 Q 427 503 442 499 Q 460 495 474 500 Q 553 524 640 534 L 686 540 Z" fill="lightgray"></path>
				<path d="M 463 299 Q 453 305 419 312 Q 407 316 404 311 Q 400 305 406 291 Q 433 230 447 132 Q 448 111 457 95 C 470 68 489 68 490 98 Q 491 116 487 141 Q 474 226 468 263 C 463 293 464 299 463 299 Z" fill="lightgray"></path>
				<path d="M 810 134 Q 840 246 870 290 Q 880 300 877 311 Q 870 327 813 354 Q 797 361 783 358 Q 638 324 463 299 C 433 295 439 256 468 263 Q 477 264 485 267 Q 507 273 534 278 L 559 283 Q 599 293 643 300 L 676 306 Q 763 327 782 314 Q 789 310 789 289 Q 777 222 753 126 C 746 97 802 105 810 134 Z" fill="lightgray"></path>
				<path d="M 582 106 Q 588 145 562 269 Q 561 272 561 273 Q 560 279 559 283 C 553 312 532 308 534 278 Q 547 122 550 118 Q 550 115 558 103 C 574 78 579 76 582 106 Z" fill="lightgray"></path>
				<path d="M 669 115 Q 690 235 701 254 Q 708 270 699 283 Q 689 296 676 306 C 653 325 636 329 643 300 Q 650 273 651 246 Q 650 219 635 112 C 631 82 664 85 669 115 Z" fill="lightgray"></path>
				<path d="M 457 95 Q 420 94 381 89 Q 360 88 375 70 Q 388 57 405 51 Q 424 45 441 49 Q 642 94 909 74 Q 928 74 933 82 Q 939 92 924 107 Q 861 155 812 134 Q 811 135 810 134 L 753 126 Q 714 122 669 115 L 635 112 Q 634 112 633 112 Q 608 111 582 106 L 558 103 Q 524 102 490 98 L 457 95 Z" fill="lightgray"></path>
</g>
		<text x="40" y="140" font-size="128" fill="#999999">4</text></g>
		<g id="id0:id4:id4" transform="matrix(1.0,0,0,1.0,4096,0.0)">			<g stroke="lightgray" stroke-width="4" transform="scale(4, 4)"> <rect x="0" y="0" width="256" height="256" fill="white" stroke-width="4"/></g>
			<g transform="scale(0.92, -0.92) translate(60, -920)">					<path d="M 315 610 Q 366 679 395 711 Q 407 723 394 739 Q 355 778 328 778 Q 316 777 317 761 Q 317 713 287 659 L 261 619 Q 251 609 243 597 Q 219 564 110 472 Q 100 457 116 461 Q 180 465 281 571 L 315 610 Z" fill="black"></path>
				<path d="M 310 405 Q 317 254 274 127 Q 265 108 253 103 Q 240 102 203 115 Q 175 125 170 120 Q 166 114 175 102 Q 212 66 234 34 Q 253 6 263 7 Q 275 7 296 32 Q 371 125 364 356 Q 361 407 353 458 Q 341 546 315 610 L 287 659 Q 248 705 164 728 Q 149 732 148 721 Q 148 708 159 691 Q 171 675 189 676 Q 235 664 261 619 L 281 571 Q 293 534 301 492 L 310 405 Z" fill="black"></path>
				<path d="M 301 492 Q 238 366 64 191 Q 57 181 69 179 Q 88 176 204 276 Q 258 325 310 405 C 327 430 315 519 301 492 Z" fill="black"></path>
				<path d="M 657 617 Q 754 695 777 701 Q 796 707 789 723 Q 786 739 722 773 Q 704 782 682 773 Q 630 754 553 731 Q 532 724 483 726 Q 461 727 468 707 Q 475 695 494 684 Q 521 669 558 687 Q 663 741 683 727 Q 695 720 689 706 Q 668 670 643 629 C 627 603 634 598 657 617 Z" fill="black"></path>
				<path d="M 678 575 Q 671 603 657 617 L 643 629 Q 633 636 617 640 Q 599 646 591 640 Q 581 633 593 623 Q 623 604 633 567 L 640 534 Q 652 468 632 421 Q 622 400 594 404 Q 566 408 539 414 Q 529 415 533 407 Q 569 374 605 341 Q 615 328 628 330 Q 640 331 660 355 Q 705 406 687 535 Q 686 538 686 540 L 678 575 Z" fill="red"></path>
				<path d="M 686 540 Q 749 547 835 549 Q 886 549 892 558 Q 896 568 882 580 Q 831 614 776 596 Q 734 587 678 575 L 633 567 Q 534 552 418 531 Q 400 530 414 515 Q 427 503 442 499 Q 460 495 474 500 Q 553 524 640 534 L 686 540 Z" fill="lightgray"></path>
				<path d="M 463 299 Q 453 305 419 312 Q 407 316 404 311 Q 400 305 406 291 Q 433 230 447 132 Q 448 111 457 95 C 470 68 489 68 490 98 Q 491 116 487 141 Q 474 226 468 263 C 463 293 464 299 463 299 Z" fill="lightgray"></path>
				<path d="M 810 134 Q 840 246 870 290 Q 880 300 877 311 Q 870 327 813 354 Q 797 361 783 358 Q 638 324 463 299 C 433 295 439 256 468 263 Q 477 264 485 267 Q 507 273 534 278 L 559 283 Q 599 293 643 300 L 676 306 Q 763 327 782 314 Q 789 310 789 289 Q 777 222 753 126 C 746 97 802 105 810 134 Z" fill="lightgray"></path>
				<path d="M 582 106 Q 588 145 562 269 Q 561 272 561 273 Q 560 279 559 283 C 553 312 532 308 534 278 Q 547 122 550 118 Q 550 115 558 103 C 574 78 579 76 582 106 Z" fill="lightgray"></path>
				<path d="M 669 115 Q 690 235 701 254 Q 708 270 699 283 Q 689 296 676 306 C 653 325 636 329 643 300 Q 650 273 651 246 Q 650 219 635 112 C 631 82 664 85 669 115 Z" fill="lightgray"></path>
				<path d="M 457 95 Q 420 94 381 89 Q 360 88 375 70 Q 388 57 405 51 Q 424 45 441 49 Q 642 94 909 74 Q 928 74 933 82 Q 939 92 924 107 Q 861 155 812 134 Q 811 135 810 134 L 753 126 Q 714 122 669 115 L 635 112 Q 634 112 633 112 Q 608 111 582 106 L 558 103 Q 524 102 490 98 L 457 95 Z" fill="lightgray"></path>
</g>
		<text x="40" y="140" font-size="128" fill="#999999">5</text></g>
</g>
	<g id="id1:id1" transform="translate(0.0,1024)">
		<g id="id1:id0:id0" transform="matrix(1.0,0,0,1.0,0,0.0)">			<g stroke="lightgray" stroke-width="4" transform="scale(4, 4)"> <rect x="0" y="0" width="256" height="256" fill="white" stroke-width="4"/></g>
			<g transform="scale(0.92, -0.92) translate(60, -920)">					<path d="M 315 610 Q 366 679 395 711 Q 407 723 394 739 Q 355 778 328 778 Q 316 777 317 761 Q 317 713 287 659 L 261 619 Q 251 609 243 597 Q 219 564 110 472 Q 100 457 116 461 Q 180 465 281 571 L 315 610 Z" fill="black"></path>
				<path d="M 310 405 Q 317 254 274 127 Q 265 108 253 103 Q 240 102 203 115 Q 175 125 170 120 Q 166 114 175 102 Q 212 66 234 34 Q 253 6 263 7 Q 275 7 296 32 Q 371 125 364 356 Q 361 407 353 458 Q 341 546 315 610 L 287 659 Q 248 705 164 728 Q 149 732 148 721 Q 148 708 159 691 Q 171 675 189 676 Q 235 664 261 619 L 281 571 Q 293 534 301 492 L 310 405 Z" fill="black"></path>
				<path d="M 301 492 Q 238 366 64 191 Q 57 181 69 179 Q 88 176 204 276 Q 258 325 310 405 C 327 430 315 519 301 492 Z" fill="black"></path>
				<path d="M 657 617 Q 754 695 777 701 Q 796 707 789 723 Q 786 739 722 773 Q 704 782 682 773 Q 630 754 553 731 Q 532 724 483 726 Q 461 727 468 707 Q 475 695 494 684 Q 521 669 558 687 Q 663 741 683 727 Q 695 720 689 706 Q 668 670 643 629 C 627 603 634 598 657 617 Z" fill="black"></path>
				<path d="M 678 575 Q 671 603 657 617 L 643 629 Q 633 636 617 640 Q 599 646 591 640 Q 581 633 593 623 Q 623 604 633 567 L 640 534 Q 652 468 632 421 Q 622 400 594 404 Q 566 408 539 414 Q 529 415 533 407 Q 569 374 605 341 Q 615 328 628 330 Q 640 331 660 355 Q 705 406 687 535 Q 686 538 686 540 L 678 575 Z" fill="black"></path>
				<path d="M 686 540 Q 749 547 835 549 Q 886 549 892 558 Q 896 568 882 580 Q 831 614 776 596 Q 734 587 678 575 L 633 567 Q 534 552 418 531 Q 400 530 414 515 Q 427 503 442 499 Q 460 495 474 500 Q 553 524 640 534 L 686 540 Z" fill="red"></path>
				<path d="M 463 299 Q 453 305 419 312 Q 407 316 404 311 Q 400 305 406 291 Q 433 230 447 132 Q 448 111 457 95 C 470 68 489 68 490 98 Q 491 116 487 141 Q 474 226 468 263 C 463 293 464 299 463 299 Z" fill="lightgray"></path>
				<path d="M 810 134 Q 840 246 870 290 Q 880 300 877 311 Q 870 327 813 354 Q 797 361 783 358 Q 638 324 463 299 C 433 295 439 256 468 263 Q 477 264 485 267 Q 507 273 534 278 L 559 283 Q 599 293 643 300 L 676 306 Q 763 327 782 314 Q 789 310 789 289 Q 777 222 753 126 C 746 97 802 105 810 134 Z" fill="lightgray"></path>
				<path d="M 582 106 Q 588 145 562 269 Q 561 272 561 273 Q 560 279 559 283 C 553 312 532 308 534 278 Q 547 122 550 118 Q 550 115 558 103 C 574 78 579 76 582 106 Z" fill="lightgray"></path>
				<path d="M 669 115 Q 690 235 701 254 Q 708 270 699 283 Q 689 296 676 306 C 653 325 636 329 643 300 Q 650 273 651 246 Q 650 219 635 112 C 631 82 664 85 669 115 Z" fill="lightgray"></path>
				<path d="M 457 95 Q 420 94 381 89 Q 360 88 375 70 Q 388 57 405 51 Q 424 45 441 49 Q 642 94 909 74 Q 928 74 933 82 Q 939 92 924 107 Q 861 155 812 134 Q 811 135 810 134 L 753 126 Q 714 122 669 115 L 635 112 Q 634 112 633 112 Q 608 111 582 106 L 558 103 Q 524 102 490 98 L 457 95 Z" fill="lightgray"></path>
</g>
		<text x="40" y="140" font-size="128" fill="#999999">6</text></g>
		<g id="id1:id1:id1" transform="matrix(1.0,0,0,1.0,1024,0.0)">			<g stroke="lightgray" stroke-width="4" transform="scale(4, 4)"> <rect x="0" y="0" width="256" height="256" fill="white" stroke-width="4"/></g>
			<g transform="scale(0.92, -0.92) translate(60, -920)">					<path d="M 315 610 Q 366 679 395 711 Q 407 723 394 739 Q 355 778 328 778 Q 316 777 317 761 Q 317 713 287 659 L 261 619 Q 251 609 243 597 Q 219 564 110 472 Q 100 457 116 461 Q 180 465 281 571 L 315 610 Z" fill="black"></path>
				<path d="M 310 405 Q 317 254 274 127 Q 265 108 253 103 Q 240 102 203 115 Q 175 125 170 120 Q 166 114 175 102 Q 212 66 234 34 Q 253 6 263 7 Q 275 7 296 32 Q 371 125 364 356 Q 361 407 353 458 Q 341 546 315 610 L 287 659 Q 248 705 164 728 Q 149 732 148 721 Q 148 708 159 691 Q 171 675 189 676 Q 235 664 261 619 L 281 571 Q 293 534 301 492 L 310 405 Z" fill="black"></path>
				<path d="M 301 492 Q 238 366 64 191 Q 57 181 69 179 Q 88 176 204 276 Q 258 325 310 405 C 327 430 315 519 301 492 Z" fill="black"></path>
				<path d="M 657 617 Q 754 695 777 701 Q 796 707 789 723 Q 786 739 722 773 Q 704 782 682 773 Q 630 754 553 731 Q 532 724 483 726 Q 461 727 468 707 Q 475 695 494 684 Q 521 669 558 687 Q 663 741 683 727 Q 695 720 689 706 Q 668 670 643 629 C 627 603 634 598 657 617 Z" fill="black"></path>
				<path d="M 678 575 Q 671 603 657 617 L 643 629 Q 633 636 617 640 Q 599 646 591 640 Q 581 633 593 623 Q 623 604 633 567 L 640 534 Q 652 468 632 421 Q 622 400 594 404 Q 566 408 539 414 Q 529 415 533 407 Q 569 374 605 341 Q 615 328 628 330 Q 640 331 660 355 Q 705 406 687 535 Q 686 538 686 540 L 678 575 Z" fill="black"></path>
				<path d="M 686 540 Q 749 547 835 549 Q 886 549 892 558 Q 896 568 882 580 Q 831 614 776 596 Q 734 587 678 575 L 633 567 Q 534 552 418 531 Q 400 530 414 515 Q 427 503 442 499 Q 460 495 474 500 Q 553 524 640 534 L 686 540 Z" fill="black"></path>
				<path d="M 463 299 Q 453 305 419 312 Q 407 316 404 311 Q 400 305 406 291 Q 433 230 447 132 Q 448 111 457 95 C 470 68 489 68 490 98 Q 491 116 487 141 Q 474 226 468 263 C 463 293 464 299 463 299 Z" fill="red"></path>
				<path d="M 810 134 Q 840 246 870 290 Q 880 300 877 311 Q 870 327 813 354 Q 797 361 783 358 Q 638 324 463 299 C 433 295 439 256 468 263 Q 477 264 485 267 Q 507 273 534 278 L 559 283 Q 599 293 643 300 L 676 306 Q 763 327 782 314 Q 789 310 789 289 Q 777 222 753 126 C 746 97 802 105 810 134 Z" fill="lightgray"></path>
				<path d="M 582 106 Q 588 145 562 269 Q 561 272 561 273 Q 560 279 559 283 C 553 312 532 308 534 278 Q 547 122 550 118 Q 550 115 558 103 C 574 78 579 76 582 106 Z" fill="lightgray"></path>
				<path d="M 669 115 Q 690 235 701 254 Q 708 270 699 283 Q 689 296 676 306 C 653 325 636 329 643 300 Q 650 273 651 246 Q 650 219 635 112 C 631 82 664 85 669 115 Z" fill="lightgray"></path>
				<path d="M 457 95 Q 420 94 381 89 Q 360 88 375 70 Q 388 57 405 51 Q 424 45 441 49 Q 642 94 909 74 Q 928 74 933 82 Q 939 92 924 107 Q 861 155 812 134 Q 811 135 810 134 L 753 126 Q 714 122 669 115 L 635 112 Q 634 112 633 112 Q 608 111 582 106 L 558 103 Q 524 102 490 98 L 457 95 Z" fill="lightgray"></path>
</g>
		<text x="40" y="140" font-size="128" fill="#999999">7</text></g>
		<g id="id1:id2:id2" transform="matrix(1.0,0,0,1.0,2048,0.0)">			<g stroke="lightgray" stroke-width="4" transform="scale(4, 4)"> <rect x="0" y="0" width="256" height="256" fill="white" stroke-width="4"/></g>
			<g transform="scale(0.92, -0.92) translate(60, -920)">					<path d="M 315 610 Q 366 679 395 711 Q 407 723 394 739 Q 355 778 328 778 Q 316 777 317 761 Q 317 713 287 659 L 261 619 Q 251 609 243 597 Q 219 564 110 472 Q 100 457 116 461 Q 180 465 281 571 L 315 610 Z" fill="black"></path>
				<path d="M 310 405 Q 317 254 274 127 Q 265 108 253 103 Q 240 102 203 115 Q 175 125 170 120 Q 166 114 175 102 Q 212 66 234 34 Q 253 6 263 7 Q 275 7 296 32 Q 371 125 364 356 Q 361 407 353 458 Q 341 546 315 610 L 287 659 Q 248 705 164 728 Q 149 732 148 721 Q 148 708 159 691 Q 171 675 189 676 Q 235 664 261 619 L 281 571 Q 293 534 301 492 L 310 405 Z" fill="black"></path>
				<path d="M 301 492 Q 238 366 64 191 Q 57 181 69 179 Q 88 176 204 276 Q 258 325 310 405 C 327 430 315 519 301 492 Z" fill="black"></path>
				<path d="M 657 617 Q 754 695 777 701 Q 796 707 789 723 Q 786 739 722 773 Q 704 782 682 773 Q 630 754 553 731 Q 532 724 483 726 Q 461 727 468 707 Q 475 695 494 684 Q 521 669 558 687 Q 663 741 683 727 Q 695 720 689 706 Q 668 670 643 629 C 627 603 634 598 657 617 Z" fill="black"></path>
				<path d="M 678 575 Q 671 603 657 617 L 643 629 Q 633 636 617 640 Q 599 646 591 640 Q 581 633 593 623 Q 623 604 633 567 L 640 534 Q 652 468 632 421 Q 622 400 594 404 Q 566 408 539 414 Q 529 415 533 407 Q 569 374 605 341 Q 615 328 628 330 Q 640 331 660 355 Q 705 406 687 535 Q 686 538 686 540 L 678 575 Z" fill="black"></path>
				<path d="M 686 540 Q 749 547 835 549 Q 886 549 892 558 Q 896 568 882 580 Q 831 614 776 596 Q 734 587 678 575 L 633 567 Q 534 552 418 531 Q 400 530 414 515 Q 427 503 442 499 Q 460 495 474 500 Q 553 524 640 534 L 686 540 Z" fill="black"></path>
				<path d="M 463 299 Q 453 305 419 312 Q 407 316 404 311 Q 400 305 406 291 Q 433 230 447 132 Q 448 111 457 95 C 470 68 489 68 490 98 Q 491 116 487 141 Q 474 226 468 263 C 463 293 464 299 463 299 Z" fill="black"></path>
				<path d="M 810 134 Q 840 246 870 290 Q 880 300 877 311 Q 870 327 813 354 Q 797 361 783 358 Q 638 324 463 299 C 433 295 439 256 468 263 Q 477 264 485 267 Q 507 273 534 278 L 559 283 Q 599 293 643 300 L 676 306 Q 763 327 782 314 Q 789 310 789 289 Q 777 222 753 126 C 746 97 802 105 810 134 Z" fill="red"></path>
				<path d="M 582 106 Q 588 145 562 269 Q 561 272 561 273 Q 560 279 559 283 C 553 312 532 308 534 278 Q 547 122 550 118 Q 550 115 558 103 C 574 78 579 76 582 106 Z" fill="lightgray"></path>
				<path d="M 669 115 Q 690 235 701 254 Q 708 270 699 283 Q 689 296 676 306 C 653 325 636 329 643 300 Q 650 273 651 246 Q 650 219 635 112 C 631 82 664 85 669 115 Z" fill="lightgray"></path>
				<path d="M 457 95 Q 420 94 381 89 Q 360 88 375 70 Q 388 57 405 51 Q 424 45 441 49 Q 642 94 909 74 Q 928 74 933 82 Q 939 92 924 107 Q 861 155 812 134 Q 811 135 810 134 L 753 126 Q 714 122 669 115 L 635 112 Q 634 112 633 112 Q 608 111 582 106 L 558 103 Q 524 102 490 98 L 457 95 Z" fill="lightgray"></path>
</g>
		<text x="40" y="140" font-size="128" fill="#999999">8</text></g>
		<g id="id1:id3:id3" transform="matrix(1.0,0,0,1.0,3072,0.0)">			<g stroke="lightgray" stroke-width="4" transform="scale(4, 4)"> <rect x="0" y="0" width="256" height="256" fill="white" stroke-width="4"/></g>
			<g transform="scale(0.92, -0.92) translate(60, -920)">					<path d="M 315 610 Q 366 679 395 711 Q 407 723 394 739 Q 355 778 328 778 Q 316 777 317 761 Q 317 713 287 659 L 261 619 Q 251 609 243 597 Q 219 564 110 472 Q 100 457 116 461 Q 180 465 281 571 L 315 610 Z" fill="black"></path>
				<path d="M 310 405 Q 317 254 274 127 Q 265 108 253 103 Q 240 102 203 115 Q 175 125 170 120 Q 166 114 175 102 Q 212 66 234 34 Q 253 6 263 7 Q 275 7 296 32 Q 371 125 364 356 Q 361 407 353 458 Q 341 546 315 610 L 287 659 Q 248 705 164 728 Q 149 732 148 721 Q 148 708 159 691 Q 171 675 189 676 Q 235 664 261 619 L 281 571 Q 293 534 301 492 L 310 405 Z" fill="black"></path>
				<path d="M 301 492 Q 238 366 64 191 Q 57 181 69 179 Q 88 176 204 276 Q 258 325 310 405 C 327 430 315 519 301 492 Z" fill="black"></path>
				<path d="M 657 617 Q 754 695 777 701 Q 796 707 789 723 Q 786 739 722 773 Q 704 782 682 773 Q 630 754 553 731 Q 532 724 483 726 Q 461 727 468 707 Q 475 695 494 684 Q 521 669 558 687 Q 663 741 683 727 Q 695 720 689 706 Q 668 670 643 629 C 627 603 634 598 657 617 Z" fill="black"></path>
				<path d="M 678 575 Q 671 603 657 617 L 643 629 Q 633 636 617 640 Q 599 646 591 640 Q 581 633 593 623 Q 623 604 633 567 L 640 534 Q 652 468 632 421 Q 622 400 594 404 Q 566 408 539 414 Q 529 415 533 407 Q 569 374 605 341 Q 615 328 628 330 Q 640 331 660 355 Q 705 406 687 535 Q 686 538 686 540 L 678 575 Z" fill="black"></path>
				<path d="M 686 540 Q 749 547 835 549 Q 886 549 892 558 Q 896 568 882 580 Q 831 614 776 596 Q 734 587 678 575 L 633 567 Q 534 552 418 531 Q 400 530 414 515 Q 427 503 442 499 Q 460 495 474 500 Q 553 524 640 534 L 686 540 Z" fill="black"></path>
				<path d="M 463 299 Q 453 305 419 312 Q 407 316 404 311 Q 400 305 406 291 Q 433 230 447 132 Q 448 111 457 95 C 470 68 489 68 490 98 Q 491 116 487 141 Q 474 226 468 263 C 463 293 464 299 463 299 Z" fill="black"></path>
				<path d="M 810 134 Q 840 246 870 290 Q 880 300 877 311 Q 870 327 813 354 Q 797 361 783 358 Q 638 324 463 299 C 433 295 439 256 468 263 Q 477 264 485 267 Q 507 273 534 278 L 559 283 Q 599 293 643 300 L 676 306 Q 763 327 782 314 Q 789 310 789 289 Q 777 222 753 126 C 746 97 802 105 810 134 Z" fill="black"></path>
				<path d="M 582 106 Q 588 145 562 269 Q 561 272 561 273 Q 560 279 559 283 C 553 312 532 308 534 278 Q 547 122 550 118 Q 550 115 558 103 C 574 78 579 76 582 106 Z" fill="red"></path>
				<path d="M 669 115 Q 690 235 701 254 Q 708 270 699 283 Q 689 296 676 306 C 653 325 636 329 643 300 Q 650 273 651 246 Q 650 219 635 112 C 631 82 664 85 669 115 Z" fill="lightgray"></path>
				<path d="M 457 95 Q 420 94 381 89 Q 360 88 375 70 Q 388 57 405 51 Q 424 45 441 49 Q 642 94 909 74 Q 928 74 933 82 Q 939 92 924 107 Q 861 155 812 134 Q 811 135 810 134 L 753 126 Q 714 122 669 115 L 635 112 Q 634 112 633 112 Q 608 111 582 106 L 558 103 Q 524 102 490 98 L 457 95 Z" fill="lightgray"></path>
</g>
		<text x="40" y="140" font-size="128" fill="#999999">9</text></g>
		<g id="id1:id4:id4" transform="matrix(1.0,0,0,1.0,4096,0.0)">			<g stroke="lightgray" stroke-width="4" transform="scale(4, 4)"> <rect x="0" y="0" width="256" height="256" fill="white" stroke-width="4"/></g>
			<g transform="scale(0.92, -0.92) translate(60, -920)">					<path d="M 315 610 Q 366 679 395 711 Q 407 723 394 739 Q 355 778 328 778 Q 316 777 317 761 Q 317 713 287 659 L 261 619 Q 251 609 243 597 Q 219 564 110 472 Q 100 457 116 461 Q 180 465 281 571 L 315 610 Z" fill="black"></path>
				<path d="M 310 405 Q 317 254 274 127 Q 265 108 253 103 Q 240 102 203 115 Q 175 125 170 120 Q 166 114 175 102 Q 212 66 234 34 Q 253 6 263 7 Q 275 7 296 32 Q 371 125 364 356 Q 361 407 353 458 Q 341 546 315 610 L 287 659 Q 248 705 164 728 Q 149 732 148 721 Q 148 708 159 691 Q 171 675 189 676 Q 235 664 261 619 L 281 571 Q 293 534 301 492 L 310 405 Z" fill="black"></path>
				<path d="M 301 492 Q 238 366 64 191 Q 57 181 69 179 Q 88 176 204 276 Q 258 325 310 405 C 327 430 315 519 301 492 Z" fill="black"></path>
				<path d="M 657 617 Q 754 695 777 701 Q 796 707 789 723 Q 786 739 722 773 Q 704 782 682 773 Q 630 754 553 731 Q 532 724 483 726 Q 461 727 468 707 Q 475 695 494 684 Q 521 669 558 687 Q 663 741 683 727 Q 695 720 689 706 Q 668 670 643 629 C 627 603 634 598 657 617 Z" fill="black"></path>
				<path d="M 678 575 Q 671 603 657 617 L 643 629 Q 633 636 617 640 Q 599 646 591 640 Q 581 633 593 623 Q 623 604 633 567 L 640 534 Q 652 468 632 421 Q 622 400 594 404 Q 566 408 539 414 Q 529 415 533 407 Q 569 374 605 341 Q 615 328 628 330 Q 640 331 660 355 Q 705 406 687 535 Q 686 538 686 540 L 678 575 Z" fill="black"></path>
				<path d="M 686 540 Q 749 547 835 549 Q 886 549 892 558 Q 896 568 882 580 Q 831 614 776 596 Q 734 587 678 575 L 633 567 Q 534 552 418 531 Q 400 530 414 515 Q 427 503 442 499 Q 460 495 474 500 Q 553 524 640 534 L 686 540 Z" fill="black"></path>
				<path d="M 463 299 Q 453 305 419 312 Q 407 316 404 311 Q 400 305 406 291 Q 433 230 447 132 Q 448 111 457 95 C 470 68 489 68 490 98 Q 491 116 487 141 Q 474 226 468 263 C 463 293 464 299 463 299 Z" fill="black"></path>
				<path d="M 810 134 Q 840 246 870 290 Q 880 300 877 311 Q 870 327 813 354 Q 797 361 783 358 Q 638 324 463 299 C 433 295 439 256 468 263 Q 477 264 485 267 Q 507 273 534 278 L 559 283 Q 599 293 643 300 L 676 306 Q 763 327 782 314 Q 789 310 789 289 Q 777 222 753 126 C 746 97 802 105 810 134 Z" fill="black"></path>
				<path d="M 582 106 Q 588 145 562 269 Q 561 272 561 273 Q 560 279 559 283 C 553 312 532 308 534 278 Q 547 122 550 118 Q 550 115 558 103 C 574 78 579 76 582 106 Z" fill="black"></path>
				<path d="M 669 115 Q 690 235 701 254 Q 708 270 699 283 Q 689 296 676 306 C 653 325 636 329 643 300 Q 650 273 651 246 Q 650 219 635 112 C 631 82 664 85 669 115 Z" fill="red"></path>
				<path d="M 457 95 Q 420 94 381 89 Q 360 88 375 70 Q 388 57 405 51 Q 424 45 441 49 Q 642 94 909 74 Q 928 74 933 82 Q 939 92 924 107 Q 861 155 812 134 Q 811 135 810 134 L 753 126 Q 714 122 669 115 L 635 112 Q 634 112 633 112 Q 608 111 582 106 L 558 103 Q 524 102 490 98 L 457 95 Z" fill="lightgray"></path>
</g>
		<text x="40" y="140" font-size="128" fill="#999999">10</text></g>
</g>
	<g id="id2:id2" transform="translate(0.0,2048)">
		<g id="id2:id0:id0" transform="matrix(1.0,0,0,1.0,0,0.0)">			<g stroke="lightgray" stroke-width="4" transform="scale(4, 4)"> <rect x="0" y="0" width="256" height="256" fill="white" stroke-width="4"/></g>
			<g transform="scale(0.92, -0.92) translate(60, -920)">					<path d="M 315 610 Q 366 679 395 711 Q 407 723 394 739 Q 355 778 328 778 Q 316 777 317 761 Q 317 713 287 659 L 261 619 Q 251 609 243 597 Q 219 564 110 472 Q 100 457 116 461 Q 180 465 281 571 L 315 610 Z" fill="black"></path>
				<path d="M 310 405 Q 317 254 274 127 Q 265 108 253 103 Q 240 102 203 115 Q 175 125 170 120 Q 166 114 175 102 Q 212 66 234 34 Q 253 6 263 7 Q 275 7 296 32 Q 371 125 364 356 Q 361 407 353 458 Q 341 546 315 610 L 287 659 Q 248 705 164 728 Q 149 732 148 721 Q 148 708 159 691 Q 171 675 189 676 Q 235 664 261 619 L 281 571 Q 293 534 301 492 L 310 405 Z" fill="black"></path>
				<path d="M 301 492 Q 238 366 64 191 Q 57 181 69 179 Q 88 176 204 276 Q 258 325 310 405 C 327 430 315 519 301 492 Z" fill="black"></path>
				<path d="M 657 617 Q 754 695 777 701 Q 796 707 789 723 Q 786 739 722 773 Q 704 782 682 773 Q 630 754 553 731 Q 532 724 483 726 Q 461 727 468 707 Q 475 695 494 684 Q 521 669 558 687 Q 663 741 683 727 Q 695 720 689 706 Q 668 670 643 629 C 627 603 634 598 657 617 Z" fill="black"></path>
				<path d="M 678 575 Q 671 603 657 617 L 643 629 Q 633 636 617 640 Q 599 646 591 640 Q 581 633 593 623 Q 623 604 633 567 L 640 534 Q 652 468 632 421 Q 622 400 594 404 Q 566 408 539 414 Q 529 415 533 407 Q 569 374 605 341 Q 615 328 628 330 Q 640 331 660 355 Q 705 406 687 535 Q 686 538 686 540 L 678 575 Z" fill="black"></path>
				<path d="M 686 540 Q 749 547 835 549 Q 886 549 892 558 Q 896 568 882 580 Q 831 614 776 596 Q 734 587 678 575 L 633 567 Q 534 552 418 531 Q 400 530 414 515 Q 427 503 442 499 Q 460 495 474 500 Q 553 524 640 534 L 686 540 Z" fill="black"></path>
				<path d="M 463 299 Q 453 305 419 312 Q 407 316 404 311 Q 400 305 406 291 Q 433 230 447 132 Q 448 111 457 95 C 470 68 489 68 490 98 Q 491 116 487 141 Q 474 226 468 263 C 463 293 464 299 463 299 Z" fill="black"></path>
				<path d="M 810 134 Q 840 246 870 290 Q 880 300 877 311 Q 870 327 813 354 Q 797 361 783 358 Q 638 324 463 299 C 433 295 439 256 468 263 Q 477 264 485 267 Q 507 273 534 278 L 559 283 Q 599 293 643 300 L 676 306 Q 763 327 782 314 Q 789 310 789 289 Q 777 222 753 126 C 746 97 802 105 810 134 Z" fill="black"></path>
				<path d="M 582 106 Q 588 145 562 269 Q 561 272 561 273 Q 560 279 559 283 C 553 312 532 308 534 278 Q 547 122 550 118 Q 550 115 558 103 C 574 78 579 76 582 106 Z" fill="black"></path>
				<path d="M 669 115 Q 690 235 701 254 Q 708 270 699 283 Q 689 296 676 306 C 653 325 636 329 643 300 Q 650 273 651 246 Q 650 219 635 112 C 631 82 664 85 669 115 Z" fill="black"></path>
				<path d="M 457 95 Q 420 94 381 89 Q 360 88 375 70 Q 388 57 405 51 Q 424 45 441 49 Q 642 94 909 74 Q 928 74 933 82 Q 939 92 924 107 Q 861 155 812 134 Q 811 135 810 134 L 753 126 Q 714 122 669 115 L 635 112 Q 634 112 633 112 Q 608 111 582 106 L 558 103 Q 524 102 490 98 L 457 95 Z" fill="red"></path>
</g>
		<text x="40" y="140" font-size="128" fill="#999999">11</text></g>
		<g id="id2:id1:id1" transform="matrix(1.0,0,0,1.0,1024,0.0)">			<g stroke="white" stroke-width="4" transform="scale(4, 4)"> <rect x="1" y="1" width="255" height="255" fill="white" stroke-width="0"/></g>
</g>
		<g id="id2:id2:id2" transform="matrix(1.0,0,0,1.0,2048,0.0)">			<g stroke="white" stroke-width="4" transform="scale(4, 4)"> <rect x="1" y="1" width="255" height="255" fill="white" stroke-width="0"/></g>
</g>
		<g id="id2:id3:id3" transform="matrix(1.0,0,0,1.0,3072,0.0)">			<g stroke="white" stroke-width="4" transform="scale(4, 4)"> <rect x="1" y="1" width="255" height="255" fill="white" stroke-width="0"/></g>
</g>
		<g id="id2:id4:id4" transform="matrix(1.0,0,0,1.0,4096,0.0)">			<g stroke="white" stroke-width="4" transform="scale(4, 4)"> <rect x="1" y="1" width="255" height="255" fill="white" stroke-width="0"/></g>
</g>
</g>
</svg>
