<?xml version="1.0" standalone="no"?>
<!DOCTYPE svg PUBLIC "-//W3C//DTD SVG 1.1//EN"
 "http://www.w3.org/Graphics/SVG/1.1/DTD/svg11.dtd">
<!-- generate by Handict dictionary app com.asnsami.handict -->

<svg xmlns="http://www.w3.org/2000/svg" xmlns:sodipodi="http://sodipodi.sourceforge.net/DTD/sodipodi-0.dtd" version="1.1" width="640" height="384" viewBox="0 0 5120 3072">
	<g id="id0:id0" transform="translate(0.0,0)">
		<g id="id0:id0:id0" transform="matrix(1.0,0,0,1.0,0,0.0)">			<g stroke="lightgray" stroke-width="4" transform="scale(4, 4)"> <rect x="0" y="0" width="256" height="256" fill="white" stroke-width="4"/></g>
			<g transform="scale(0.92, -0.92) translate(60, -920)">					<path d="M 288 605 Q 330 672 382 739 Q 394 752 379 768 Q 337 807 309 804 Q 297 803 298 786 Q 301 732 264 659 L 231 607 Q 228 606 228 603 Q 192 552 147 513 Q 110 480 90 461 Q 80 445 97 449 Q 149 456 249 558 L 288 605 Z" fill="red"></path>
				<path d="M 272 396 Q 279 221 255 116 Q 251 100 244 100 Q 234 97 204 101 Q 170 111 166 105 Q 162 98 173 85 Q 206 51 225 18 Q 247 -10 257 -10 Q 264 -13 278 4 Q 359 115 311 499 Q 296 578 288 605 L 264 659 Q 249 689 223 714 Q 184 751 156 766 Q 143 776 137 763 Q 131 748 137 727 Q 144 705 164 699 Q 200 681 227 617 Q 228 613 231 607 L 249 558 Q 249 557 250 555 Q 257 521 263 484 L 272 396 Z" fill="lightgray"></path>
				<path d="M 263 484 Q 229 417 187 359 Q 142 301 40 195 Q 33 185 45 183 Q 63 180 172 273 Q 223 319 272 396 C 288 421 277 511 263 484 Z" fill="lightgray"></path>
				<path d="M 535 767 Q 516 780 495 786 Q 482 790 474 784 Q 467 778 474 765 Q 493 732 502 698 Q 509 664 526 524 C 530 494 565 500 562 530 Q 556 597 553 644 L 552 671 Q 552 702 553 735 C 554 755 554 755 535 767 Z" fill="lightgray"></path>
				<path d="M 764 564 Q 786 711 833 754 Q 848 773 833 789 Q 817 802 765 823 Q 747 830 726 821 Q 659 791 535 767 C 506 761 524 727 553 735 Q 565 739 713 772 Q 731 776 739 769 Q 752 756 750 729 Q 737 630 714 555 C 706 526 759 534 764 564 Z" fill="lightgray"></path>
				<path d="M 654 546 Q 666 624 681 654 Q 688 661 684 669 Q 678 679 636 694 Q 624 698 616 694 Q 586 682 552 671 C 523 662 523 641 553 644 Q 562 644 570 648 Q 613 664 618 663 Q 622 660 624 648 Q 624 603 617 539 C 614 509 649 516 654 546 Z" fill="lightgray"></path>
				<path d="M 442 511 Q 429 533 414 544 Q 411 548 405 545 Q 399 541 399 530 Q 400 502 375 444 Q 365 428 365 408 Q 368 389 377 374 Q 384 362 390 370 Q 397 371 406 387 Q 410 393 418 416 Q 428 443 446 478 C 453 492 453 492 442 511 Z" fill="lightgray"></path>
				<path d="M 446 478 Q 456 475 522 492 Q 639 526 789 540 Q 819 544 830 542 Q 843 533 842 527 Q 842 524 813 461 Q 807 448 813 445 Q 820 441 834 452 Q 883 485 924 496 Q 957 506 956 514 Q 955 523 891 569 Q 872 582 851 579 Q 811 573 764 564 L 714 555 Q 686 552 654 546 L 617 539 Q 590 536 562 530 L 526 524 Q 525 525 523 524 Q 483 517 442 511 C 412 507 416 476 446 478 Z" fill="lightgray"></path>
				<path d="M 536 204 Q 539 256 544 292 L 547 320 Q 551 371 555 390 Q 555 393 555 395 C 557 415 557 415 544 425 Q 526 443 495 443 Q 482 439 487 428 Q 533 314 474 106 Q 450 46 451 45 Q 451 14 468 -10 Q 474 -23 484 -18 Q 521 6 534 178 L 536 204 Z" fill="lightgray"></path>
				<path d="M 555 395 Q 591 401 680 419 Q 701 423 706 411 Q 727 356 727 109 Q 727 54 720 43 Q 716 37 699 41 Q 680 45 659 49 Q 640 58 640 48 Q 685 -1 709 -36 Q 722 -55 738 -60 Q 747 -64 755 -54 Q 797 -6 796 48 Q 757 351 784 402 Q 797 421 784 432 Q 762 451 725 466 Q 706 473 691 465 Q 628 432 544 425 C 514 422 525 390 555 395 Z" fill="lightgray"></path>
				<path d="M 544 292 Q 545 292 548 292 Q 620 305 672 313 Q 694 317 685 329 Q 675 342 651 346 Q 620 349 547 320 C 519 309 514 291 544 292 Z" fill="lightgray"></path>
				<path d="M 534 178 Q 541 177 550 178 Q 626 187 682 192 Q 704 195 697 208 Q 687 223 661 228 Q 639 232 536 204 C 507 196 504 181 534 178 Z" fill="lightgray"></path>
</g>
		<text x="40" y="140" font-size="128" fill="#999999">1</text></g>
		<g id="id0:id1:id1" transform="matrix(1.0,0,0,1.0,1024,0.0)">			<g stroke="lightgray" stroke-width="4" transform="scale(4, 4)"> <rect x="0" y="0" width="256" height="256" fill="white" stroke-width="4"/></g>
			<g transform="scale(0.92, -0.92) translate(60, -920)">					<path d="M 288 605 Q 330 672 382 739 Q 394 752 379 768 Q 337 807 309 804 Q 297 803 298 786 Q 301 732 264 659 L 231 607 Q 228 606 228 603 Q 192 552 147 513 Q 110 480 90 461 Q 80 445 97 449 Q 149 456 249 558 L 288 605 Z" fill="black"></path>
				<path d="M 272 396 Q 279 221 255 116 Q 251 100 244 100 Q 234 97 204 101 Q 170 111 166 105 Q 162 98 173 85 Q 206 51 225 18 Q 247 -10 257 -10 Q 264 -13 278 4 Q 359 115 311 499 Q 296 578 288 605 L 264 659 Q 249 689 223 714 Q 184 751 156 766 Q 143 776 137 763 Q 131 748 137 727 Q 144 705 164 699 Q 200 681 227 617 Q 228 613 231 607 L 249 558 Q 249 557 250 555 Q 257 521 263 484 L 272 396 Z" fill="red"></path>
				<path d="M 263 484 Q 229 417 187 359 Q 142 301 40 195 Q 33 185 45 183 Q 63 180 172 273 Q 223 319 272 396 C 288 421 277 511 263 484 Z" fill="lightgray"></path>
				<path d="M 535 767 Q 516 780 495 786 Q 482 790 474 784 Q 467 778 474 765 Q 493 732 502 698 Q 509 664 526 524 C 530 494 565 500 562 530 Q 556 597 553 644 L 552 671 Q 552 702 553 735 C 554 755 554 755 535 767 Z" fill="lightgray"></path>
				<path d="M 764 564 Q 786 711 833 754 Q 848 773 833 789 Q 817 802 765 823 Q 747 830 726 821 Q 659 791 535 767 C 506 761 524 727 553 735 Q 565 739 713 772 Q 731 776 739 769 Q 752 756 750 729 Q 737 630 714 555 C 706 526 759 534 764 564 Z" fill="lightgray"></path>
				<path d="M 654 546 Q 666 624 681 654 Q 688 661 684 669 Q 678 679 636 694 Q 624 698 616 694 Q 586 682 552 671 C 523 662 523 641 553 644 Q 562 644 570 648 Q 613 664 618 663 Q 622 660 624 648 Q 624 603 617 539 C 614 509 649 516 654 546 Z" fill="lightgray"></path>
				<path d="M 442 511 Q 429 533 414 544 Q 411 548 405 545 Q 399 541 399 530 Q 400 502 375 444 Q 365 428 365 408 Q 368 389 377 374 Q 384 362 390 370 Q 397 371 406 387 Q 410 393 418 416 Q 428 443 446 478 C 453 492 453 492 442 511 Z" fill="lightgray"></path>
				<path d="M 446 478 Q 456 475 522 492 Q 639 526 789 540 Q 819 544 830 542 Q 843 533 842 527 Q 842 524 813 461 Q 807 448 813 445 Q 820 441 834 452 Q 883 485 924 496 Q 957 506 956 514 Q 955 523 891 569 Q 872 582 851 579 Q 811 573 764 564 L 714 555 Q 686 552 654 546 L 617 539 Q 590 536 562 530 L 526 524 Q 525 525 523 524 Q 483 517 442 511 C 412 507 416 476 446 478 Z" fill="lightgray"></path>
				<path d="M 536 204 Q 539 256 544 292 L 547 320 Q 551 371 555 390 Q 555 393 555 395 C 557 415 557 415 544 425 Q 526 443 495 443 Q 482 439 487 428 Q 533 314 474 106 Q 450 46 451 45 Q 451 14 468 -10 Q 474 -23 484 -18 Q 521 6 534 178 L 536 204 Z" fill="lightgray"></path>
				<path d="M 555 395 Q 591 401 680 419 Q 701 423 706 411 Q 727 356 727 109 Q 727 54 720 43 Q 716 37 699 41 Q 680 45 659 49 Q 640 58 640 48 Q 685 -1 709 -36 Q 722 -55 738 -60 Q 747 -64 755 -54 Q 797 -6 796 48 Q 757 351 784 402 Q 797 421 784 432 Q 762 451 725 466 Q 706 473 691 465 Q 628 432 544 425 C 514 422 525 390 555 395 Z" fill="lightgray"></path>
				<path d="M 544 292 Q 545 292 548 292 Q 620 305 672 313 Q 694 317 685 329 Q 675 342 651 346 Q 620 349 547 320 C 519 309 514 291 544 292 Z" fill="lightgray"></path>
				<path d="M 534 178 Q 541 177 550 178 Q 626 187 682 192 Q 704 195 697 208 Q 687 223 661 228 Q 639 232 536 204 C 507 196 504 181 534 178 Z" fill="lightgray"></path>
</g>
		<text x="40" y="140" font-size="128" fill="#999999">2</text></g>
		<g id="id0:id2:id2" transform="matrix(1.0,0,0,1.0,2048,0.0)">			<g stroke="lightgray" stroke-width="4" transform="scale(4, 4)"> <rect x="0" y="0" width="256" height="256" fill="white" stroke-width="4"/></g>
			<g transform="scale(0.92, -0.92) translate(60, -920)">					<path d="M 288 605 Q 330 672 382 739 Q 394 752 379 768 Q 337 807 309 804 Q 297 803 298 786 Q 301 732 264 659 L 231 607 Q 228 606 228 603 Q 192 552 147 513 Q 110 480 90 461 Q 80 445 97 449 Q 149 456 249 558 L 288 605 Z" fill="black"></path>
				<path d="M 272 396 Q 279 221 255 116 Q 251 100 244 100 Q 234 97 204 101 Q 170 111 166 105 Q 162 98 173 85 Q 206 51 225 18 Q 247 -10 257 -10 Q 264 -13 278 4 Q 359 115 311 499 Q 296 578 288 605 L 264 659 Q 249 689 223 714 Q 184 751 156 766 Q 143 776 137 763 Q 131 748 137 727 Q 144 705 164 699 Q 200 681 227 617 Q 228 613 231 607 L 249 558 Q 249 557 250 555 Q 257 521 263 484 L 272 396 Z" fill="black"></path>
				<path d="M 263 484 Q 229 417 187 359 Q 142 301 40 195 Q 33 185 45 183 Q 63 180 172 273 Q 223 319 272 396 C 288 421 277 511 263 484 Z" fill="red"></path>
				<path d="M 535 767 Q 516 780 495 786 Q 482 790 474 784 Q 467 778 474 765 Q 493 732 502 698 Q 509 664 526 524 C 530 494 565 500 562 530 Q 556 597 553 644 L 552 671 Q 552 702 553 735 C 554 755 554 755 535 767 Z" fill="lightgray"></path>
				<path d="M 764 564 Q 786 711 833 754 Q 848 773 833 789 Q 817 802 765 823 Q 747 830 726 821 Q 659 791 535 767 C 506 761 524 727 553 735 Q 565 739 713 772 Q 731 776 739 769 Q 752 756 750 729 Q 737 630 714 555 C 706 526 759 534 764 564 Z" fill="lightgray"></path>
				<path d="M 654 546 Q 666 624 681 654 Q 688 661 684 669 Q 678 679 636 694 Q 624 698 616 694 Q 586 682 552 671 C 523 662 523 641 553 644 Q 562 644 570 648 Q 613 664 618 663 Q 622 660 624 648 Q 624 603 617 539 C 614 509 649 516 654 546 Z" fill="lightgray"></path>
				<path d="M 442 511 Q 429 533 414 544 Q 411 548 405 545 Q 399 541 399 530 Q 400 502 375 444 Q 365 428 365 408 Q 368 389 377 374 Q 384 362 390 370 Q 397 371 406 387 Q 410 393 418 416 Q 428 443 446 478 C 453 492 453 492 442 511 Z" fill="lightgray"></path>
				<path d="M 446 478 Q 456 475 522 492 Q 639 526 789 540 Q 819 544 830 542 Q 843 533 842 527 Q 842 524 813 461 Q 807 448 813 445 Q 820 441 834 452 Q 883 485 924 496 Q 957 506 956 514 Q 955 523 891 569 Q 872 582 851 579 Q 811 573 764 564 L 714 555 Q 686 552 654 546 L 617 539 Q 590 536 562 530 L 526 524 Q 525 525 523 524 Q 483 517 442 511 C 412 507 416 476 446 478 Z" fill="lightgray"></path>
				<path d="M 536 204 Q 539 256 544 292 L 547 320 Q 551 371 555 390 Q 555 393 555 395 C 557 415 557 415 544 425 Q 526 443 495 443 Q 482 439 487 428 Q 533 314 474 106 Q 450 46 451 45 Q 451 14 468 -10 Q 474 -23 484 -18 Q 521 6 534 178 L 536 204 Z" fill="lightgray"></path>
				<path d="M 555 395 Q 591 401 680 419 Q 701 423 706 411 Q 727 356 727 109 Q 727 54 720 43 Q 716 37 699 41 Q 680 45 659 49 Q 640 58 640 48 Q 685 -1 709 -36 Q 722 -55 738 -60 Q 747 -64 755 -54 Q 797 -6 796 48 Q 757 351 784 402 Q 797 421 784 432 Q 762 451 725 466 Q 706 473 691 465 Q 628 432 544 425 C 514 422 525 390 555 395 Z" fill="lightgray"></path>
				<path d="M 544 292 Q 545 292 548 292 Q 620 305 672 313 Q 694 317 685 329 Q 675 342 651 346 Q 620 349 547 320 C 519 309 514 291 544 292 Z" fill="lightgray"></path>
				<path d="M 534 178 Q 541 177 550 178 Q 626 187 682 192 Q 704 195 697 208 Q 687 223 661 228 Q 639 232 536 204 C 507 196 504 181 534 178 Z" fill="lightgray"></path>
</g>
		<text x="40" y="140" font-size="128" fill="#999999">3</text></g>
		<g id="id0:id3:id3" transform="matrix(1.0,0,0,1.0,3072,0.0)">			<g stroke="lightgray" stroke-width="4" transform="scale(4, 4)"> <rect x="0" y="0" width="256" height="256" fill="white" stroke-width="4"/></g>
			<g transform="scale(0.92, -0.92) translate(60, -920)">					<path d="M 288 605 Q 330 672 382 739 Q 394 752 379 768 Q 337 807 309 804 Q 297 803 298 786 Q 301 732 264 659 L 231 607 Q 228 606 228 603 Q 192 552 147 513 Q 110 480 90 461 Q 80 445 97 449 Q 149 456 249 558 L 288 605 Z" fill="black"></path>
				<path d="M 272 396 Q 279 221 255 116 Q 251 100 244 100 Q 234 97 204 101 Q 170 111 166 105 Q 162 98 173 85 Q 206 51 225 18 Q 247 -10 257 -10 Q 264 -13 278 4 Q 359 115 311 499 Q 296 578 288 605 L 264 659 Q 249 689 223 714 Q 184 751 156 766 Q 143 776 137 763 Q 131 748 137 727 Q 144 705 164 699 Q 200 681 227 617 Q 228 613 231 607 L 249 558 Q 249 557 250 555 Q 257 521 263 484 L 272 396 Z" fill="black"></path>
				<path d="M 263 484 Q 229 417 187 359 Q 142 301 40 195 Q 33 185 45 183 Q 63 180 172 273 Q 223 319 272 396 C 288 421 277 511 263 484 Z" fill="black"></path>
				<path d="M 535 767 Q 516 780 495 786 Q 482 790 474 784 Q 467 778 474 765 Q 493 732 502 698 Q 509 664 526 524 C 530 494 565 500 562 530 Q 556 597 553 644 L 552 671 Q 552 702 553 735 C 554 755 554 755 535 767 Z" fill="red"></path>
				<path d="M 764 564 Q 786 711 833 754 Q 848 773 833 789 Q 817 802 765 823 Q 747 830 726 821 Q 659 791 535 767 C 506 761 524 727 553 735 Q 565 739 713 772 Q 731 776 739 769 Q 752 756 750 729 Q 737 630 714 555 C 706 526 759 534 764 564 Z" fill="lightgray"></path>
				<path d="M 654 546 Q 666 624 681 654 Q 688 661 684 669 Q 678 679 636 694 Q 624 698 616 694 Q 586 682 552 671 C 523 662 523 641 553 644 Q 562 644 570 648 Q 613 664 618 663 Q 622 660 624 648 Q 624 603 617 539 C 614 509 649 516 654 546 Z" fill="lightgray"></path>
				<path d="M 442 511 Q 429 533 414 544 Q 411 548 405 545 Q 399 541 399 530 Q 400 502 375 444 Q 365 428 365 408 Q 368 389 377 374 Q 384 362 390 370 Q 397 371 406 387 Q 410 393 418 416 Q 428 443 446 478 C 453 492 453 492 442 511 Z" fill="lightgray"></path>
				<path d="M 446 478 Q 456 475 522 492 Q 639 526 789 540 Q 819 544 830 542 Q 843 533 842 527 Q 842 524 813 461 Q 807 448 813 445 Q 820 441 834 452 Q 883 485 924 496 Q 957 506 956 514 Q 955 523 891 569 Q 872 582 851 579 Q 811 573 764 564 L 714 555 Q 686 552 654 546 L 617 539 Q 590 536 562 530 L 526 524 Q 525 525 523 524 Q 483 517 442 511 C 412 507 416 476 446 478 Z" fill="lightgray"></path>
				<path d="M 536 204 Q 539 256 544 292 L 547 320 Q 551 371 555 390 Q 555 393 555 395 C 557 415 557 415 544 425 Q 526 443 495 443 Q 482 439 487 428 Q 533 314 474 106 Q 450 46 451 45 Q 451 14 468 -10 Q 474 -23 484 -18 Q 521 6 534 178 L 536 204 Z" fill="lightgray"></path>
				<path d="M 555 395 Q 591 401 680 419 Q 701 423 706 411 Q 727 356 727 109 Q 727 54 720 43 Q 716 37 699 41 Q 680 45 659 49 Q 640 58 640 48 Q 685 -1 709 -36 Q 722 -55 738 -60 Q 747 -64 755 -54 Q 797 -6 796 48 Q 757 351 784 402 Q 797 421 784 432 Q 762 451 725 466 Q 706 473 691 465 Q 628 432 544 425 C 514 422 525 390 555 395 Z" fill="lightgray"></path>
				<path d="M 544 292 Q 545 292 548 292 Q 620 305 672 313 Q 694 317 685 329 Q 675 342 651 346 Q 620 349 547 320 C 519 309 514 291 544 292 Z" fill="lightgray"></path>
				<path d="M 534 178 Q 541 177 550 178 Q 626 187 682 192 Q 704 195 697 208 Q 687 223 661 228 Q 639 232 536 204 C 507 196 504 181 534 178 Z" fill="lightgray"></path>
</g>
		<text x="40" y="140" font-size="128" fill="#999999">4</text></g>
		<g id="id0:id4:id4" transform="matrix(1.0,0,0,1.0,4096,0.0)">			<g stroke="lightgray" stroke-width="4" transform="scale(4, 4)"> <rect x="0" y="0" width="256" height="256" fill="white" stroke-width="4"/></g>
			<g transform="scale(0.92, -0.92) translate(60, -920)">					<path d="M 288 605 Q 330 672 382 739 Q 394 752 379 768 Q 337 807 309 804 Q 297 803 298 786 Q 301 732 264 659 L 231 607 Q 228 606 228 603 Q 192 552 147 513 Q 110 480 90 461 Q 80 445 97 449 Q 149 456 249 558 L 288 605 Z" fill="black"></path>
				<path d="M 272 396 Q 279 221 255 116 Q 251 100 244 100 Q 234 97 204 101 Q 170 111 166 105 Q 162 98 173 85 Q 206 51 225 18 Q 247 -10 257 -10 Q 264 -13 278 4 Q 359 115 311 499 Q 296 578 288 605 L 264 659 Q 249 689 223 714 Q 184 751 156 766 Q 143 776 137 763 Q 131 748 137 727 Q 144 705 164 699 Q 200 681 227 617 Q 228 613 231 607 L 249 558 Q 249 557 250 555 Q 257 521 263 484 L 272 396 Z" fill="black"></path>
				<path d="M 263 484 Q 229 417 187 359 Q 142 301 40 195 Q 33 185 45 183 Q 63 180 172 273 Q 223 319 272 396 C 288 421 277 511 263 484 Z" fill="black"></path>
				<path d="M 535 767 Q 516 780 495 786 Q 482 790 474 784 Q 467 778 474 765 Q 493 732 502 698 Q 509 664 526 524 C 530 494 565 500 562 530 Q 556 597 553 644 L 552 671 Q 552 702 553 735 C 554 755 554 755 535 767 Z" fill="black"></path>
				<path d="M 764 564 Q 786 711 833 754 Q 848 773 833 789 Q 817 802 765 823 Q 747 830 726 821 Q 659 791 535 767 C 506 761 524 727 553 735 Q 565 739 713 772 Q 731 776 739 769 Q 752 756 750 729 Q 737 630 714 555 C 706 526 759 534 764 564 Z" fill="red"></path>
				<path d="M 654 546 Q 666 624 681 654 Q 688 661 684 669 Q 678 679 636 694 Q 624 698 616 694 Q 586 682 552 671 C 523 662 523 641 553 644 Q 562 644 570 648 Q 613 664 618 663 Q 622 660 624 648 Q 624 603 617 539 C 614 509 649 516 654 546 Z" fill="lightgray"></path>
				<path d="M 442 511 Q 429 533 414 544 Q 411 548 405 545 Q 399 541 399 530 Q 400 502 375 444 Q 365 428 365 408 Q 368 389 377 374 Q 384 362 390 370 Q 397 371 406 387 Q 410 393 418 416 Q 428 443 446 478 C 453 492 453 492 442 511 Z" fill="lightgray"></path>
				<path d="M 446 478 Q 456 475 522 492 Q 639 526 789 540 Q 819 544 830 542 Q 843 533 842 527 Q 842 524 813 461 Q 807 448 813 445 Q 820 441 834 452 Q 883 485 924 496 Q 957 506 956 514 Q 955 523 891 569 Q 872 582 851 579 Q 811 573 764 564 L 714 555 Q 686 552 654 546 L 617 539 Q 590 536 562 530 L 526 524 Q 525 525 523 524 Q 483 517 442 511 C 412 507 416 476 446 478 Z" fill="lightgray"></path>
				<path d="M 536 204 Q 539 256 544 292 L 547 320 Q 551 371 555 390 Q 555 393 555 395 C 557 415 557 415 544 425 Q 526 443 495 443 Q 482 439 487 428 Q 533 314 474 106 Q 450 46 451 45 Q 451 14 468 -10 Q 474 -23 484 -18 Q 521 6 534 178 L 536 204 Z" fill="lightgray"></path>
				<path d="M 555 395 Q 591 401 680 419 Q 701 423 706 411 Q 727 356 727 109 Q 727 54 720 43 Q 716 37 699 41 Q 680 45 659 49 Q 640 58 640 48 Q 685 -1 709 -36 Q 722 -55 738 -60 Q 747 -64 755 -54 Q 797 -6 796 48 Q 757 351 784 402 Q 797 421 784 432 Q 762 451 725 466 Q 706 473 691 465 Q 628 432 544 425 C 514 422 525 390 555 395 Z" fill="lightgray"></path>
				<path d="M 544 292 Q 545 292 548 292 Q 620 305 672 313 Q 694 317 685 329 Q 675 342 651 346 Q 620 349 547 320 C 519 309 514 291 544 292 Z" fill="lightgray"></path>
				<path d="M 534 178 Q 541 177 550 178 Q 626 187 682 192 Q 704 195 697 208 Q 687 223 661 228 Q 639 232 536 204 C 507 196 504 181 534 178 Z" fill="lightgray"></path>
</g>
		<text x="40" y="140" font-size="128" fill="#999999">5</text></g>
</g>
	<g id="id1:id1" transform="translate(0.0,1024)">
		<g id="id1:id0:id0" transform="matrix(1.0,0,0,1.0,0,0.0)">			<g stroke="lightgray" stroke-width="4" transform="scale(4, 4)"> <rect x="0" y="0" width="256" height="256" fill="white" stroke-width="4"/></g>
			<g transform="scale(0.92, -0.92) translate(60, -920)">					<path d="M 288 605 Q 330 672 382 739 Q 394 752 379 768 Q 337 807 309 804 Q 297 803 298 786 Q 301 732 264 659 L 231 607 Q 228 606 228 603 Q 192 552 147 513 Q 110 480 90 461 Q 80 445 97 449 Q 149 456 249 558 L 288 605 Z" fill="black"></path>
				<path d="M 272 396 Q 279 221 255 116 Q 251 100 244 100 Q 234 97 204 101 Q 170 111 166 105 Q 162 98 173 85 Q 206 51 225 18 Q 247 -10 257 -10 Q 264 -13 278 4 Q 359 115 311 499 Q 296 578 288 605 L 264 659 Q 249 689 223 714 Q 184 751 156 766 Q 143 776 137 763 Q 131 748 137 727 Q 144 705 164 699 Q 200 681 227 617 Q 228 613 231 607 L 249 558 Q 249 557 250 555 Q 257 521 263 484 L 272 396 Z" fill="black"></path>
				<path d="M 263 484 Q 229 417 187 359 Q 142 301 40 195 Q 33 185 45 183 Q 63 180 172 273 Q 223 319 272 396 C 288 421 277 511 263 484 Z" fill="black"></path>
				<path d="M 535 767 Q 516 780 495 786 Q 482 790 474 784 Q 467 778 474 765 Q 493 732 502 698 Q 509 664 526 524 C 530 494 565 500 562 530 Q 556 597 553 644 L 552 671 Q 552 702 553 735 C 554 755 554 755 535 767 Z" fill="black"></path>
				<path d="M 764 564 Q 786 711 833 754 Q 848 773 833 789 Q 817 802 765 823 Q 747 830 726 821 Q 659 791 535 767 C 506 761 524 727 553 735 Q 565 739 713 772 Q 731 776 739 769 Q 752 756 750 729 Q 737 630 714 555 C 706 526 759 534 764 564 Z" fill="black"></path>
				<path d="M 654 546 Q 666 624 681 654 Q 688 661 684 669 Q 678 679 636 694 Q 624 698 616 694 Q 586 682 552 671 C 523 662 523 641 553 644 Q 562 644 570 648 Q 613 664 618 663 Q 622 660 624 648 Q 624 603 617 539 C 614 509 649 516 654 546 Z" fill="red"></path>
				<path d="M 442 511 Q 429 533 414 544 Q 411 548 405 545 Q 399 541 399 530 Q 400 502 375 444 Q 365 428 365 408 Q 368 389 377 374 Q 384 362 390 370 Q 397 371 406 387 Q 410 393 418 416 Q 428 443 446 478 C 453 492 453 492 442 511 Z" fill="lightgray"></path>
				<path d="M 446 478 Q 456 475 522 492 Q 639 526 789 540 Q 819 544 830 542 Q 843 533 842 527 Q 842 524 813 461 Q 807 448 813 445 Q 820 441 834 452 Q 883 485 924 496 Q 957 506 956 514 Q 955 523 891 569 Q 872 582 851 579 Q 811 573 764 564 L 714 555 Q 686 552 654 546 L 617 539 Q 590 536 562 530 L 526 524 Q 525 525 523 524 Q 483 517 442 511 C 412 507 416 476 446 478 Z" fill="lightgray"></path>
				<path d="M 536 204 Q 539 256 544 292 L 547 320 Q 551 371 555 390 Q 555 393 555 395 C 557 415 557 415 544 425 Q 526 443 495 443 Q 482 439 487 428 Q 533 314 474 106 Q 450 46 451 45 Q 451 14 468 -10 Q 474 -23 484 -18 Q 521 6 534 178 L 536 204 Z" fill="lightgray"></path>
				<path d="M 555 395 Q 591 401 680 419 Q 701 423 706 411 Q 727 356 727 109 Q 727 54 720 43 Q 716 37 699 41 Q 680 45 659 49 Q 640 58 640 48 Q 685 -1 709 -36 Q 722 -55 738 -60 Q 747 -64 755 -54 Q 797 -6 796 48 Q 757 351 784 402 Q 797 421 784 432 Q 762 451 725 466 Q 706 473 691 465 Q 628 432 544 425 C 514 422 525 390 555 395 Z" fill="lightgray"></path>
				<path d="M 544 292 Q 545 292 548 292 Q 620 305 672 313 Q 694 317 685 329 Q 675 342 651 346 Q 620 349 547 320 C 519 309 514 291 544 292 Z" fill="lightgray"></path>
				<path d="M 534 178 Q 541 177 550 178 Q 626 187 682 192 Q 704 195 697 208 Q 687 223 661 228 Q 639 232 536 204 C 507 196 504 181 534 178 Z" fill="lightgray"></path>
</g>
		<text x="40" y="140" font-size="128" fill="#999999">6</text></g>
		<g id="id1:id1:id1" transform="matrix(1.0,0,0,1.0,1024,0.0)">			<g stroke="lightgray" stroke-width="4" transform="scale(4, 4)"> <rect x="0" y="0" width="256" height="256" fill="white" stroke-width="4"/></g>
			<g transform="scale(0.92, -0.92) translate(60, -920)">					<path d="M 288 605 Q 330 672 382 739 Q 394 752 379 768 Q 337 807 309 804 Q 297 803 298 786 Q 301 732 264 659 L 231 607 Q 228 606 228 603 Q 192 552 147 513 Q 110 480 90 461 Q 80 445 97 449 Q 149 456 249 558 L 288 605 Z" fill="black"></path>
				<path d="M 272 396 Q 279 221 255 116 Q 251 100 244 100 Q 234 97 204 101 Q 170 111 166 105 Q 162 98 173 85 Q 206 51 225 18 Q 247 -10 257 -10 Q 264 -13 278 4 Q 359 115 311 499 Q 296 578 288 605 L 264 659 Q 249 689 223 714 Q 184 751 156 766 Q 143 776 137 763 Q 131 748 137 727 Q 144 705 164 699 Q 200 681 227 617 Q 228 613 231 607 L 249 558 Q 249 557 250 555 Q 257 521 263 484 L 272 396 Z" fill="black"></path>
				<path d="M 263 484 Q 229 417 187 359 Q 142 301 40 195 Q 33 185 45 183 Q 63 180 172 273 Q 223 319 272 396 C 288 421 277 511 263 484 Z" fill="black"></path>
				<path d="M 535 767 Q 516 780 495 786 Q 482 790 474 784 Q 467 778 474 765 Q 493 732 502 698 Q 509 664 526 524 C 530 494 565 500 562 530 Q 556 597 553 644 L 552 671 Q 552 702 553 735 C 554 755 554 755 535 767 Z" fill="black"></path>
				<path d="M 764 564 Q 786 711 833 754 Q 848 773 833 789 Q 817 802 765 823 Q 747 830 726 821 Q 659 791 535 767 C 506 761 524 727 553 735 Q 565 739 713 772 Q 731 776 739 769 Q 752 756 750 729 Q 737 630 714 555 C 706 526 759 534 764 564 Z" fill="black"></path>
				<path d="M 654 546 Q 666 624 681 654 Q 688 661 684 669 Q 678 679 636 694 Q 624 698 616 694 Q 586 682 552 671 C 523 662 523 641 553 644 Q 562 644 570 648 Q 613 664 618 663 Q 622 660 624 648 Q 624 603 617 539 C 614 509 649 516 654 546 Z" fill="black"></path>
				<path d="M 442 511 Q 429 533 414 544 Q 411 548 405 545 Q 399 541 399 530 Q 400 502 375 444 Q 365 428 365 408 Q 368 389 377 374 Q 384 362 390 370 Q 397 371 406 387 Q 410 393 418 416 Q 428 443 446 478 C 453 492 453 492 442 511 Z" fill="red"></path>
				<path d="M 446 478 Q 456 475 522 492 Q 639 526 789 540 Q 819 544 830 542 Q 843 533 842 527 Q 842 524 813 461 Q 807 448 813 445 Q 820 441 834 452 Q 883 485 924 496 Q 957 506 956 514 Q 955 523 891 569 Q 872 582 851 579 Q 811 573 764 564 L 714 555 Q 686 552 654 546 L 617 539 Q 590 536 562 530 L 526 524 Q 525 525 523 524 Q 483 517 442 511 C 412 507 416 476 446 478 Z" fill="lightgray"></path>
				<path d="M 536 204 Q 539 256 544 292 L 547 320 Q 551 371 555 390 Q 555 393 555 395 C 557 415 557 415 544 425 Q 526 443 495 443 Q 482 439 487 428 Q 533 314 474 106 Q 450 46 451 45 Q 451 14 468 -10 Q 474 -23 484 -18 Q 521 6 534 178 L 536 204 Z" fill="lightgray"></path>
				<path d="M 555 395 Q 591 401 680 419 Q 701 423 706 411 Q 727 356 727 109 Q 727 54 720 43 Q 716 37 699 41 Q 680 45 659 49 Q 640 58 640 48 Q 685 -1 709 -36 Q 722 -55 738 -60 Q 747 -64 755 -54 Q 797 -6 796 48 Q 757 351 784 402 Q 797 421 784 432 Q 762 451 725 466 Q 706 473 691 465 Q 628 432 544 425 C 514 422 525 390 555 395 Z" fill="lightgray"></path>
				<path d="M 544 292 Q 545 292 548 292 Q 620 305 672 313 Q 694 317 685 329 Q 675 342 651 346 Q 620 349 547 320 C 519 309 514 291 544 292 Z" fill="lightgray"></path>
				<path d="M 534 178 Q 541 177 550 178 Q 626 187 682 192 Q 704 195 697 208 Q 687 223 661 228 Q 639 232 536 204 C 507 196 504 181 534 178 Z" fill="lightgray"></path>
</g>
		<text x="40" y="140" font-size="128" fill="#999999">7</text></g>
		<g id="id1:id2:id2" transform="matrix(1.0,0,0,1.0,2048,0.0)">			<g stroke="lightgray" stroke-width="4" transform="scale(4, 4)"> <rect x="0" y="0" width="256" height="256" fill="white" stroke-width="4"/></g>
			<g transform="scale(0.92, -0.92) translate(60, -920)">					<path d="M 288 605 Q 330 672 382 739 Q 394 752 379 768 Q 337 807 309 804 Q 297 803 298 786 Q 301 732 264 659 L 231 607 Q 228 606 228 603 Q 192 552 147 513 Q 110 480 90 461 Q 80 445 97 449 Q 149 456 249 558 L 288 605 Z" fill="black"></path>
				<path d="M 272 396 Q 279 221 255 116 Q 251 100 244 100 Q 234 97 204 101 Q 170 111 166 105 Q 162 98 173 85 Q 206 51 225 18 Q 247 -10 257 -10 Q 264 -13 278 4 Q 359 115 311 499 Q 296 578 288 605 L 264 659 Q 249 689 223 714 Q 184 751 156 766 Q 143 776 137 763 Q 131 748 137 727 Q 144 705 164 699 Q 200 681 227 617 Q 228 613 231 607 L 249 558 Q 249 557 250 555 Q 257 521 263 484 L 272 396 Z" fill="black"></path>
				<path d="M 263 484 Q 229 417 187 359 Q 142 301 40 195 Q 33 185 45 183 Q 63 180 172 273 Q 223 319 272 396 C 288 421 277 511 263 484 Z" fill="black"></path>
				<path d="M 535 767 Q 516 780 495 786 Q 482 790 474 784 Q 467 778 474 765 Q 493 732 502 698 Q 509 664 526 524 C 530 494 565 500 562 530 Q 556 597 553 644 L 552 671 Q 552 702 553 735 C 554 755 554 755 535 767 Z" fill="black"></path>
				<path d="M 764 564 Q 786 711 833 754 Q 848 773 833 789 Q 817 802 765 823 Q 747 830 726 821 Q 659 791 535 767 C 506 761 524 727 553 735 Q 565 739 713 772 Q 731 776 739 769 Q 752 756 750 729 Q 737 630 714 555 C 706 526 759 534 764 564 Z" fill="black"></path>
				<path d="M 654 546 Q 666 624 681 654 Q 688 661 684 669 Q 678 679 636 694 Q 624 698 616 694 Q 586 682 552 671 C 523 662 523 641 553 644 Q 562 644 570 648 Q 613 664 618 663 Q 622 660 624 648 Q 624 603 617 539 C 614 509 649 516 654 546 Z" fill="black"></path>
				<path d="M 442 511 Q 429 533 414 544 Q 411 548 405 545 Q 399 541 399 530 Q 400 502 375 444 Q 365 428 365 408 Q 368 389 377 374 Q 384 362 390 370 Q 397 371 406 387 Q 410 393 418 416 Q 428 443 446 478 C 453 492 453 492 442 511 Z" fill="black"></path>
				<path d="M 446 478 Q 456 475 522 492 Q 639 526 789 540 Q 819 544 830 542 Q 843 533 842 527 Q 842 524 813 461 Q 807 448 813 445 Q 820 441 834 452 Q 883 485 924 496 Q 957 506 956 514 Q 955 523 891 569 Q 872 582 851 579 Q 811 573 764 564 L 714 555 Q 686 552 654 546 L 617 539 Q 590 536 562 530 L 526 524 Q 525 525 523 524 Q 483 517 442 511 C 412 507 416 476 446 478 Z" fill="red"></path>
				<path d="M 536 204 Q 539 256 544 292 L 547 320 Q 551 371 555 390 Q 555 393 555 395 C 557 415 557 415 544 425 Q 526 443 495 443 Q 482 439 487 428 Q 533 314 474 106 Q 450 46 451 45 Q 451 14 468 -10 Q 474 -23 484 -18 Q 521 6 534 178 L 536 204 Z" fill="lightgray"></path>
				<path d="M 555 395 Q 591 401 680 419 Q 701 423 706 411 Q 727 356 727 109 Q 727 54 720 43 Q 716 37 699 41 Q 680 45 659 49 Q 640 58 640 48 Q 685 -1 709 -36 Q 722 -55 738 -60 Q 747 -64 755 -54 Q 797 -6 796 48 Q 757 351 784 402 Q 797 421 784 432 Q 762 451 725 466 Q 706 473 691 465 Q 628 432 544 425 C 514 422 525 390 555 395 Z" fill="lightgray"></path>
				<path d="M 544 292 Q 545 292 548 292 Q 620 305 672 313 Q 694 317 685 329 Q 675 342 651 346 Q 620 349 547 320 C 519 309 514 291 544 292 Z" fill="lightgray"></path>
				<path d="M 534 178 Q 541 177 550 178 Q 626 187 682 192 Q 704 195 697 208 Q 687 223 661 228 Q 639 232 536 204 C 507 196 504 181 534 178 Z" fill="lightgray"></path>
</g>
		<text x="40" y="140" font-size="128" fill="#999999">8</text></g>
		<g id="id1:id3:id3" transform="matrix(1.0,0,0,1.0,3072,0.0)">			<g stroke="lightgray" stroke-width="4" transform="scale(4, 4)"> <rect x="0" y="0" width="256" height="256" fill="white" stroke-width="4"/></g>
			<g transform="scale(0.92, -0.92) translate(60, -920)">					<path d="M 288 605 Q 330 672 382 739 Q 394 752 379 768 Q 337 807 309 804 Q 297 803 298 786 Q 301 732 264 659 L 231 607 Q 228 606 228 603 Q 192 552 147 513 Q 110 480 90 461 Q 80 445 97 449 Q 149 456 249 558 L 288 605 Z" fill="black"></path>
				<path d="M 272 396 Q 279 221 255 116 Q 251 100 244 100 Q 234 97 204 101 Q 170 111 166 105 Q 162 98 173 85 Q 206 51 225 18 Q 247 -10 257 -10 Q 264 -13 278 4 Q 359 115 311 499 Q 296 578 288 605 L 264 659 Q 249 689 223 714 Q 184 751 156 766 Q 143 776 137 763 Q 131 748 137 727 Q 144 705 164 699 Q 200 681 227 617 Q 228 613 231 607 L 249 558 Q 249 557 250 555 Q 257 521 263 484 L 272 396 Z" fill="black"></path>
				<path d="M 263 484 Q 229 417 187 359 Q 142 301 40 195 Q 33 185 45 183 Q 63 180 172 273 Q 223 319 272 396 C 288 421 277 511 263 484 Z" fill="black"></path>
				<path d="M 535 767 Q 516 780 495 786 Q 482 790 474 784 Q 467 778 474 765 Q 493 732 502 698 Q 509 664 526 524 C 530 494 565 500 562 530 Q 556 597 553 644 L 552 671 Q 552 702 553 735 C 554 755 554 755 535 767 Z" fill="black"></path>
				<path d="M 764 564 Q 786 711 833 754 Q 848 773 833 789 Q 817 802 765 823 Q 747 830 726 821 Q 659 791 535 767 C 506 761 524 727 553 735 Q 565 739 713 772 Q 731 776 739 769 Q 752 756 750 729 Q 737 630 714 555 C 706 526 759 534 764 564 Z" fill="black"></path>
				<path d="M 654 546 Q 666 624 681 654 Q 688 661 684 669 Q 678 679 636 694 Q 624 698 616 694 Q 586 682 552 671 C 523 662 523 641 553 644 Q 562 644 570 648 Q 613 664 618 663 Q 622 660 624 648 Q 624 603 617 539 C 614 509 649 516 654 546 Z" fill="black"></path>
				<path d="M 442 511 Q 429 533 414 544 Q 411 548 405 545 Q 399 541 399 530 Q 400 502 375 444 Q 365 428 365 408 Q 368 389 377 374 Q 384 362 390 370 Q 397 371 406 387 Q 410 393 418 416 Q 428 443 446 478 C 453 492 453 492 442 511 Z" fill="black"></path>
				<path d="M 446 478 Q 456 475 522 492 Q 639 526 789 540 Q 819 544 830 542 Q 843 533 842 527 Q 842 524 813 461 Q 807 448 813 445 Q 820 441 834 452 Q 883 485 924 496 Q 957 506 956 514 Q 955 523 891 569 Q 872 582 851 579 Q 811 573 764 564 L 714 555 Q 686 552 654 546 L 617 539 Q 590 536 562 530 L 526 524 Q 525 525 523 524 Q 483 517 442 511 C 412 507 416 476 446 478 Z" fill="black"></path>
				<path d="M 536 204 Q 539 256 544 292 L 547 320 Q 551 371 555 390 Q 555 393 555 395 C 557 415 557 415 544 425 Q 526 443 495 443 Q 482 439 487 428 Q 533 314 474 106 Q 450 46 451 45 Q 451 14 468 -10 Q 474 -23 484 -18 Q 521 6 534 178 L 536 204 Z" fill="red"></path>
				<path d="M 555 395 Q 591 401 680 419 Q 701 423 706 411 Q 727 356 727 109 Q 727 54 720 43 Q 716 37 699 41 Q 680 45 659 49 Q 640 58 640 48 Q 685 -1 709 -36 Q 722 -55 738 -60 Q 747 -64 755 -54 Q 797 -6 796 48 Q 757 351 784 402 Q 797 421 784 432 Q 762 451 725 466 Q 706 473 691 465 Q 628 432 544 425 C 514 422 525 390 555 395 Z" fill="lightgray"></path>
				<path d="M 544 292 Q 545 292 548 292 Q 620 305 672 313 Q 694 317 685 329 Q 675 342 651 346 Q 620 349 547 320 C 519 309 514 291 544 292 Z" fill="lightgray"></path>
				<path d="M 534 178 Q 541 177 550 178 Q 626 187 682 192 Q 704 195 697 208 Q 687 223 661 228 Q 639 232 536 204 C 507 196 504 181 534 178 Z" fill="lightgray"></path>
</g>
		<text x="40" y="140" font-size="128" fill="#999999">9</text></g>
		<g id="id1:id4:id4" transform="matrix(1.0,0,0,1.0,4096,0.0)">			<g stroke="lightgray" stroke-width="4" transform="scale(4, 4)"> <rect x="0" y="0" width="256" height="256" fill="white" stroke-width="4"/></g>
			<g transform="scale(0.92, -0.92) translate(60, -920)">					<path d="M 288 605 Q 330 672 382 739 Q 394 752 379 768 Q 337 807 309 804 Q 297 803 298 786 Q 301 732 264 659 L 231 607 Q 228 606 228 603 Q 192 552 147 513 Q 110 480 90 461 Q 80 445 97 449 Q 149 456 249 558 L 288 605 Z" fill="black"></path>
				<path d="M 272 396 Q 279 221 255 116 Q 251 100 244 100 Q 234 97 204 101 Q 170 111 166 105 Q 162 98 173 85 Q 206 51 225 18 Q 247 -10 257 -10 Q 264 -13 278 4 Q 359 115 311 499 Q 296 578 288 605 L 264 659 Q 249 689 223 714 Q 184 751 156 766 Q 143 776 137 763 Q 131 748 137 727 Q 144 705 164 699 Q 200 681 227 617 Q 228 613 231 607 L 249 558 Q 249 557 250 555 Q 257 521 263 484 L 272 396 Z" fill="black"></path>
				<path d="M 263 484 Q 229 417 187 359 Q 142 301 40 195 Q 33 185 45 183 Q 63 180 172 273 Q 223 319 272 396 C 288 421 277 511 263 484 Z" fill="black"></path>
				<path d="M 535 767 Q 516 780 495 786 Q 482 790 474 784 Q 467 778 474 765 Q 493 732 502 698 Q 509 664 526 524 C 530 494 565 500 562 530 Q 556 597 553 644 L 552 671 Q 552 702 553 735 C 554 755 554 755 535 767 Z" fill="black"></path>
				<path d="M 764 564 Q 786 711 833 754 Q 848 773 833 789 Q 817 802 765 823 Q 747 830 726 821 Q 659 791 535 767 C 506 761 524 727 553 735 Q 565 739 713 772 Q 731 776 739 769 Q 752 756 750 729 Q 737 630 714 555 C 706 526 759 534 764 564 Z" fill="black"></path>
				<path d="M 654 546 Q 666 624 681 654 Q 688 661 684 669 Q 678 679 636 694 Q 624 698 616 694 Q 586 682 552 671 C 523 662 523 641 553 644 Q 562 644 570 648 Q 613 664 618 663 Q 622 660 624 648 Q 624 603 617 539 C 614 509 649 516 654 546 Z" fill="black"></path>
				<path d="M 442 511 Q 429 533 414 544 Q 411 548 405 545 Q 399 541 399 530 Q 400 502 375 444 Q 365 428 365 408 Q 368 389 377 374 Q 384 362 390 370 Q 397 371 406 387 Q 410 393 418 416 Q 428 443 446 478 C 453 492 453 492 442 511 Z" fill="black"></path>
				<path d="M 446 478 Q 456 475 522 492 Q 639 526 789 540 Q 819 544 830 542 Q 843 533 842 527 Q 842 524 813 461 Q 807 448 813 445 Q 820 441 834 452 Q 883 485 924 496 Q 957 506 956 514 Q 955 523 891 569 Q 872 582 851 579 Q 811 573 764 564 L 714 555 Q 686 552 654 546 L 617 539 Q 590 536 562 530 L 526 524 Q 525 525 523 524 Q 483 517 442 511 C 412 507 416 476 446 478 Z" fill="black"></path>
				<path d="M 536 204 Q 539 256 544 292 L 547 320 Q 551 371 555 390 Q 555 393 555 395 C 557 415 557 415 544 425 Q 526 443 495 443 Q 482 439 487 428 Q 533 314 474 106 Q 450 46 451 45 Q 451 14 468 -10 Q 474 -23 484 -18 Q 521 6 534 178 L 536 204 Z" fill="black"></path>
				<path d="M 555 395 Q 591 401 680 419 Q 701 423 706 411 Q 727 356 727 109 Q 727 54 720 43 Q 716 37 699 41 Q 680 45 659 49 Q 640 58 640 48 Q 685 -1 709 -36 Q 722 -55 738 -60 Q 747 -64 755 -54 Q 797 -6 796 48 Q 757 351 784 402 Q 797 421 784 432 Q 762 451 725 466 Q 706 473 691 465 Q 628 432 544 425 C 514 422 525 390 555 395 Z" fill="red"></path>
				<path d="M 544 292 Q 545 292 548 292 Q 620 305 672 313 Q 694 317 685 329 Q 675 342 651 346 Q 620 349 547 320 C 519 309 514 291 544 292 Z" fill="lightgray"></path>
				<path d="M 534 178 Q 541 177 550 178 Q 626 187 682 192 Q 704 195 697 208 Q 687 223 661 228 Q 639 232 536 204 C 507 196 504 181 534 178 Z" fill="lightgray"></path>
</g>
		<text x="40" y="140" font-size="128" fill="#999999">10</text></g>
</g>
	<g id="id2:id2" transform="translate(0.0,2048)">
		<g id="id2:id0:id0" transform="matrix(1.0,0,0,1.0,0,0.0)">			<g stroke="lightgray" stroke-width="4" transform="scale(4, 4)"> <rect x="0" y="0" width="256" height="256" fill="white" stroke-width="4"/></g>
			<g transform="scale(0.92, -0.92) translate(60, -920)">					<path d="M 288 605 Q 330 672 382 739 Q 394 752 379 768 Q 337 807 309 804 Q 297 803 298 786 Q 301 732 264 659 L 231 607 Q 228 606 228 603 Q 192 552 147 513 Q 110 480 90 461 Q 80 445 97 449 Q 149 456 249 558 L 288 605 Z" fill="black"></path>
				<path d="M 272 396 Q 279 221 255 116 Q 251 100 244 100 Q 234 97 204 101 Q 170 111 166 105 Q 162 98 173 85 Q 206 51 225 18 Q 247 -10 257 -10 Q 264 -13 278 4 Q 359 115 311 499 Q 296 578 288 605 L 264 659 Q 249 689 223 714 Q 184 751 156 766 Q 143 776 137 763 Q 131 748 137 727 Q 144 705 164 699 Q 200 681 227 617 Q 228 613 231 607 L 249 558 Q 249 557 250 555 Q 257 521 263 484 L 272 396 Z" fill="black"></path>
				<path d="M 263 484 Q 229 417 187 359 Q 142 301 40 195 Q 33 185 45 183 Q 63 180 172 273 Q 223 319 272 396 C 288 421 277 511 263 484 Z" fill="black"></path>
				<path d="M 535 767 Q 516 780 495 786 Q 482 790 474 784 Q 467 778 474 765 Q 493 732 502 698 Q 509 664 526 524 C 530 494 565 500 562 530 Q 556 597 553 644 L 552 671 Q 552 702 553 735 C 554 755 554 755 535 767 Z" fill="black"></path>
				<path d="M 764 564 Q 786 711 833 754 Q 848 773 833 789 Q 817 802 765 823 Q 747 830 726 821 Q 659 791 535 767 C 506 761 524 727 553 735 Q 565 739 713 772 Q 731 776 739 769 Q 752 756 750 729 Q 737 630 714 555 C 706 526 759 534 764 564 Z" fill="black"></path>
				<path d="M 654 546 Q 666 624 681 654 Q 688 661 684 669 Q 678 679 636 694 Q 624 698 616 694 Q 586 682 552 671 C 523 662 523 641 553 644 Q 562 644 570 648 Q 613 664 618 663 Q 622 660 624 648 Q 624 603 617 539 C 614 509 649 516 654 546 Z" fill="black"></path>
				<path d="M 442 511 Q 429 533 414 544 Q 411 548 405 545 Q 399 541 399 530 Q 400 502 375 444 Q 365 428 365 408 Q 368 389 377 374 Q 384 362 390 370 Q 397 371 406 387 Q 410 393 418 416 Q 428 443 446 478 C 453 492 453 492 442 511 Z" fill="black"></path>
				<path d="M 446 478 Q 456 475 522 492 Q 639 526 789 540 Q 819 544 830 542 Q 843 533 842 527 Q 842 524 813 461 Q 807 448 813 445 Q 820 441 834 452 Q 883 485 924 496 Q 957 506 956 514 Q 955 523 891 569 Q 872 582 851 579 Q 811 573 764 564 L 714 555 Q 686 552 654 546 L 617 539 Q 590 536 562 530 L 526 524 Q 525 525 523 524 Q 483 517 442 511 C 412 507 416 476 446 478 Z" fill="black"></path>
				<path d="M 536 204 Q 539 256 544 292 L 547 320 Q 551 371 555 390 Q 555 393 555 395 C 557 415 557 415 544 425 Q 526 443 495 443 Q 482 439 487 428 Q 533 314 474 106 Q 450 46 451 45 Q 451 14 468 -10 Q 474 -23 484 -18 Q 521 6 534 178 L 536 204 Z" fill="black"></path>
				<path d="M 555 395 Q 591 401 680 419 Q 701 423 706 411 Q 727 356 727 109 Q 727 54 720 43 Q 716 37 699 41 Q 680 45 659 49 Q 640 58 640 48 Q 685 -1 709 -36 Q 722 -55 738 -60 Q 747 -64 755 -54 Q 797 -6 796 48 Q 757 351 784 402 Q 797 421 784 432 Q 762 451 725 466 Q 706 473 691 465 Q 628 432 544 425 C 514 422 525 390 555 395 Z" fill="black"></path>
				<path d="M 544 292 Q 545 292 548 292 Q 620 305 672 313 Q 694 317 685 329 Q 675 342 651 346 Q 620 349 547 320 C 519 309 514 291 544 292 Z" fill="red"></path>
				<path d="M 534 178 Q 541 177 550 178 Q 626 187 682 192 Q 704 195 697 208 Q 687 223 661 228 Q 639 232 536 204 C 507 196 504 181 534 178 Z" fill="lightgray"></path>
</g>
		<text x="40" y="140" font-size="128" fill="#999999">11</text></g>
		<g id="id2:id1:id1" transform="matrix(1.0,0,0,1.0,1024,0.0)">			<g stroke="lightgray" stroke-width="4" transform="scale(4, 4)"> <rect x="0" y="0" width="256" height="256" fill="white" stroke-width="4"/></g>
			<g transform="scale(0.92, -0.92) translate(60, -920)">					<path d="M 288 605 Q 330 672 382 739 Q 394 752 379 768 Q 337 807 309 804 Q 297 803 298 786 Q 301 732 264 659 L 231 607 Q 228 606 228 603 Q 192 552 147 513 Q 110 480 90 461 Q 80 445 97 449 Q 149 456 249 558 L 288 605 Z" fill="black"></path>
				<path d="M 272 396 Q 279 221 255 116 Q 251 100 244 100 Q 234 97 204 101 Q 170 111 166 105 Q 162 98 173 85 Q 206 51 225 18 Q 247 -10 257 -10 Q 264 -13 278 4 Q 359 115 311 499 Q 296 578 288 605 L 264 659 Q 249 689 223 714 Q 184 751 156 766 Q 143 776 137 763 Q 131 748 137 727 Q 144 705 164 699 Q 200 681 227 617 Q 228 613 231 607 L 249 558 Q 249 557 250 555 Q 257 521 263 484 L 272 396 Z" fill="black"></path>
				<path d="M 263 484 Q 229 417 187 359 Q 142 301 40 195 Q 33 185 45 183 Q 63 180 172 273 Q 223 319 272 396 C 288 421 277 511 263 484 Z" fill="black"></path>
				<path d="M 535 767 Q 516 780 495 786 Q 482 790 474 784 Q 467 778 474 765 Q 493 732 502 698 Q 509 664 526 524 C 530 494 565 500 562 530 Q 556 597 553 644 L 552 671 Q 552 702 553 735 C 554 755 554 755 535 767 Z" fill="black"></path>
				<path d="M 764 564 Q 786 711 833 754 Q 848 773 833 789 Q 817 802 765 823 Q 747 830 726 821 Q 659 791 535 767 C 506 761 524 727 553 735 Q 565 739 713 772 Q 731 776 739 769 Q 752 756 750 729 Q 737 630 714 555 C 706 526 759 534 764 564 Z" fill="black"></path>
				<path d="M 654 546 Q 666 624 681 654 Q 688 661 684 669 Q 678 679 636 694 Q 624 698 616 694 Q 586 682 552 671 C 523 662 523 641 553 644 Q 562 644 570 648 Q 613 664 618 663 Q 622 660 624 648 Q 624 603 617 539 C 614 509 649 516 654 546 Z" fill="black"></path>
				<path d="M 442 511 Q 429 533 414 544 Q 411 548 405 545 Q 399 541 399 530 Q 400 502 375 444 Q 365 428 365 408 Q 368 389 377 374 Q 384 362 390 370 Q 397 371 406 387 Q 410 393 418 416 Q 428 443 446 478 C 453 492 453 492 442 511 Z" fill="black"></path>
				<path d="M 446 478 Q 456 475 522 492 Q 639 526 789 540 Q 819 544 830 542 Q 843 533 842 527 Q 842 524 813 461 Q 807 448 813 445 Q 820 441 834 452 Q 883 485 924 496 Q 957 506 956 514 Q 955 523 891 569 Q 872 582 851 579 Q 811 573 764 564 L 714 555 Q 686 552 654 546 L 617 539 Q 590 536 562 530 L 526 524 Q 525 525 523 524 Q 483 517 442 511 C 412 507 416 476 446 478 Z" fill="black"></path>
				<path d="M 536 204 Q 539 256 544 292 L 547 320 Q 551 371 555 390 Q 555 393 555 395 C 557 415 557 415 544 425 Q 526 443 495 443 Q 482 439 487 428 Q 533 314 474 106 Q 450 46 451 45 Q 451 14 468 -10 Q 474 -23 484 -18 Q 521 6 534 178 L 536 204 Z" fill="black"></path>
				<path d="M 555 395 Q 591 401 680 419 Q 701 423 706 411 Q 727 356 727 109 Q 727 54 720 43 Q 716 37 699 41 Q 680 45 659 49 Q 640 58 640 48 Q 685 -1 709 -36 Q 722 -55 738 -60 Q 747 -64 755 -54 Q 797 -6 796 48 Q 757 351 784 402 Q 797 421 784 432 Q 762 451 725 466 Q 706 473 691 465 Q 628 432 544 425 C 514 422 525 390 555 395 Z" fill="black"></path>
				<path d="M 544 292 Q 545 292 548 292 Q 620 305 672 313 Q 694 317 685 329 Q 675 342 651 346 Q 620 349 547 320 C 519 309 514 291 544 292 Z" fill="black"></path>
				<path d="M 534 178 Q 541 177 550 178 Q 626 187 682 192 Q 704 195 697 208 Q 687 223 661 228 Q 639 232 536 204 C 507 196 504 181 534 178 Z" fill="red"></path>
</g>
		<text x="40" y="140" font-size="128" fill="#999999">12</text></g>
		<g id="id2:id2:id2" transform="matrix(1.0,0,0,1.0,2048,0.0)">			<g stroke="white" stroke-width="4" transform="scale(4, 4)"> <rect x="1" y="1" width="255" height="255" fill="white" stroke-width="0"/></g>
</g>
		<g id="id2:id3:id3" transform="matrix(1.0,0,0,1.0,3072,0.0)">			<g stroke="white" stroke-width="4" transform="scale(4, 4)"> <rect x="1" y="1" width="255" height="255" fill="white" stroke-width="0"/></g>
</g>
		<g id="id2:id4:id4" transform="matrix(1.0,0,0,1.0,4096,0.0)">			<g stroke="white" stroke-width="4" transform="scale(4, 4)"> <rect x="1" y="1" width="255" height="255" fill="white" stroke-width="0"/></g>
</g>
</g>
</svg>
