<?xml version="1.0" standalone="no"?>
<!DOCTYPE svg PUBLIC "-//W3C//DTD SVG 1.1//EN"
 "http://www.w3.org/Graphics/SVG/1.1/DTD/svg11.dtd">
<!-- generate by Handict dictionary app com.asnsami.handict -->

<svg xmlns="http://www.w3.org/2000/svg" xmlns:sodipodi="http://sodipodi.sourceforge.net/DTD/sodipodi-0.dtd" version="1.1" width="640" height="128" viewBox="0 0 5120 1024">
	<g id="id0:id0" transform="translate(0.0,0)">
		<g id="id0:id0:id0" transform="matrix(1.0,0,0,1.0,0,0.0)">			<g stroke="lightgray" stroke-width="4" transform="scale(4, 4)"> <rect x="0" y="0" width="256" height="256" fill="white" stroke-width="4"/></g>
			<g transform="scale(0.92, -0.92) translate(60, -920)">					<path d="M 522 647 Q 597 660 675 672 Q 736 684 745 692 Q 755 701 751 710 Q 744 725 711 734 Q 675 743 586 714 Q 439 680 317 673 Q 275 669 304 648 Q 347 621 431 633 Q 447 636 466 638 L 522 647 Z" fill="red"></path>
				<path d="M 537 386 Q 589 396 646 404 Q 701 414 709 421 Q 719 430 715 439 Q 708 452 677 461 Q 644 470 612 458 Q 575 448 538 437 L 484 425 Q 408 413 320 407 Q 280 403 308 383 Q 353 355 412 367 Q 446 373 483 377 L 537 386 Z" fill="lightgray"></path>
				<path d="M 530 162 Q 533 283 537 386 L 538 437 Q 539 545 545 598 Q 554 623 522 647 C 499 667 456 666 466 638 Q 481 602 485 499 Q 484 471 484 425 L 483 377 Q 482 289 480 157 C 480 127 529 132 530 162 Z" fill="lightgray"></path>
				<path d="M 512 111 Q 566 114 617 118 Q 749 128 895 112 Q 920 108 927 118 Q 936 131 922 145 Q 891 176 844 198 Q 828 205 801 196 Q 704 178 530 162 L 480 157 Q 359 147 297 140 Q 228 131 125 132 Q 110 132 109 120 Q 108 107 128 91 Q 176 55 213 68 Q 243 78 400 100 Q 452 107 512 111 Z" fill="lightgray"></path>
				<path d="M 732 327 Q 763 299 798 265 Q 810 252 825 252 Q 835 252 841 265 Q 845 278 838 307 Q 834 329 800 348 Q 722 378 708 375 Q 704 371 704 359 Q 707 349 732 327 Z" fill="lightgray"></path>
</g>
		<text x="40" y="140" font-size="128" fill="#999999">1</text></g>
		<g id="id0:id1:id1" transform="matrix(1.0,0,0,1.0,1024,0.0)">			<g stroke="lightgray" stroke-width="4" transform="scale(4, 4)"> <rect x="0" y="0" width="256" height="256" fill="white" stroke-width="4"/></g>
			<g transform="scale(0.92, -0.92) translate(60, -920)">					<path d="M 522 647 Q 597 660 675 672 Q 736 684 745 692 Q 755 701 751 710 Q 744 725 711 734 Q 675 743 586 714 Q 439 680 317 673 Q 275 669 304 648 Q 347 621 431 633 Q 447 636 466 638 L 522 647 Z" fill="black"></path>
				<path d="M 537 386 Q 589 396 646 404 Q 701 414 709 421 Q 719 430 715 439 Q 708 452 677 461 Q 644 470 612 458 Q 575 448 538 437 L 484 425 Q 408 413 320 407 Q 280 403 308 383 Q 353 355 412 367 Q 446 373 483 377 L 537 386 Z" fill="red"></path>
				<path d="M 530 162 Q 533 283 537 386 L 538 437 Q 539 545 545 598 Q 554 623 522 647 C 499 667 456 666 466 638 Q 481 602 485 499 Q 484 471 484 425 L 483 377 Q 482 289 480 157 C 480 127 529 132 530 162 Z" fill="lightgray"></path>
				<path d="M 512 111 Q 566 114 617 118 Q 749 128 895 112 Q 920 108 927 118 Q 936 131 922 145 Q 891 176 844 198 Q 828 205 801 196 Q 704 178 530 162 L 480 157 Q 359 147 297 140 Q 228 131 125 132 Q 110 132 109 120 Q 108 107 128 91 Q 176 55 213 68 Q 243 78 400 100 Q 452 107 512 111 Z" fill="lightgray"></path>
				<path d="M 732 327 Q 763 299 798 265 Q 810 252 825 252 Q 835 252 841 265 Q 845 278 838 307 Q 834 329 800 348 Q 722 378 708 375 Q 704 371 704 359 Q 707 349 732 327 Z" fill="lightgray"></path>
</g>
		<text x="40" y="140" font-size="128" fill="#999999">2</text></g>
		<g id="id0:id2:id2" transform="matrix(1.0,0,0,1.0,2048,0.0)">			<g stroke="lightgray" stroke-width="4" transform="scale(4, 4)"> <rect x="0" y="0" width="256" height="256" fill="white" stroke-width="4"/></g>
			<g transform="scale(0.92, -0.92) translate(60, -920)">					<path d="M 522 647 Q 597 660 675 672 Q 736 684 745 692 Q 755 701 751 710 Q 744 725 711 734 Q 675 743 586 714 Q 439 680 317 673 Q 275 669 304 648 Q 347 621 431 633 Q 447 636 466 638 L 522 647 Z" fill="black"></path>
				<path d="M 537 386 Q 589 396 646 404 Q 701 414 709 421 Q 719 430 715 439 Q 708 452 677 461 Q 644 470 612 458 Q 575 448 538 437 L 484 425 Q 408 413 320 407 Q 280 403 308 383 Q 353 355 412 367 Q 446 373 483 377 L 537 386 Z" fill="black"></path>
				<path d="M 530 162 Q 533 283 537 386 L 538 437 Q 539 545 545 598 Q 554 623 522 647 C 499 667 456 666 466 638 Q 481 602 485 499 Q 484 471 484 425 L 483 377 Q 482 289 480 157 C 480 127 529 132 530 162 Z" fill="red"></path>
				<path d="M 512 111 Q 566 114 617 118 Q 749 128 895 112 Q 920 108 927 118 Q 936 131 922 145 Q 891 176 844 198 Q 828 205 801 196 Q 704 178 530 162 L 480 157 Q 359 147 297 140 Q 228 131 125 132 Q 110 132 109 120 Q 108 107 128 91 Q 176 55 213 68 Q 243 78 400 100 Q 452 107 512 111 Z" fill="lightgray"></path>
				<path d="M 732 327 Q 763 299 798 265 Q 810 252 825 252 Q 835 252 841 265 Q 845 278 838 307 Q 834 329 800 348 Q 722 378 708 375 Q 704 371 704 359 Q 707 349 732 327 Z" fill="lightgray"></path>
</g>
		<text x="40" y="140" font-size="128" fill="#999999">3</text></g>
		<g id="id0:id3:id3" transform="matrix(1.0,0,0,1.0,3072,0.0)">			<g stroke="lightgray" stroke-width="4" transform="scale(4, 4)"> <rect x="0" y="0" width="256" height="256" fill="white" stroke-width="4"/></g>
			<g transform="scale(0.92, -0.92) translate(60, -920)">					<path d="M 522 647 Q 597 660 675 672 Q 736 684 745 692 Q 755 701 751 710 Q 744 725 711 734 Q 675 743 586 714 Q 439 680 317 673 Q 275 669 304 648 Q 347 621 431 633 Q 447 636 466 638 L 522 647 Z" fill="black"></path>
				<path d="M 537 386 Q 589 396 646 404 Q 701 414 709 421 Q 719 430 715 439 Q 708 452 677 461 Q 644 470 612 458 Q 575 448 538 437 L 484 425 Q 408 413 320 407 Q 280 403 308 383 Q 353 355 412 367 Q 446 373 483 377 L 537 386 Z" fill="black"></path>
				<path d="M 530 162 Q 533 283 537 386 L 538 437 Q 539 545 545 598 Q 554 623 522 647 C 499 667 456 666 466 638 Q 481 602 485 499 Q 484 471 484 425 L 483 377 Q 482 289 480 157 C 480 127 529 132 530 162 Z" fill="black"></path>
				<path d="M 512 111 Q 566 114 617 118 Q 749 128 895 112 Q 920 108 927 118 Q 936 131 922 145 Q 891 176 844 198 Q 828 205 801 196 Q 704 178 530 162 L 480 157 Q 359 147 297 140 Q 228 131 125 132 Q 110 132 109 120 Q 108 107 128 91 Q 176 55 213 68 Q 243 78 400 100 Q 452 107 512 111 Z" fill="red"></path>
				<path d="M 732 327 Q 763 299 798 265 Q 810 252 825 252 Q 835 252 841 265 Q 845 278 838 307 Q 834 329 800 348 Q 722 378 708 375 Q 704 371 704 359 Q 707 349 732 327 Z" fill="lightgray"></path>
</g>
		<text x="40" y="140" font-size="128" fill="#999999">4</text></g>
		<g id="id0:id4:id4" transform="matrix(1.0,0,0,1.0,4096,0.0)">			<g stroke="lightgray" stroke-width="4" transform="scale(4, 4)"> <rect x="0" y="0" width="256" height="256" fill="white" stroke-width="4"/></g>
			<g transform="scale(0.92, -0.92) translate(60, -920)">					<path d="M 522 647 Q 597 660 675 672 Q 736 684 745 692 Q 755 701 751 710 Q 744 725 711 734 Q 675 743 586 714 Q 439 680 317 673 Q 275 669 304 648 Q 347 621 431 633 Q 447 636 466 638 L 522 647 Z" fill="black"></path>
				<path d="M 537 386 Q 589 396 646 404 Q 701 414 709 421 Q 719 430 715 439 Q 708 452 677 461 Q 644 470 612 458 Q 575 448 538 437 L 484 425 Q 408 413 320 407 Q 280 403 308 383 Q 353 355 412 367 Q 446 373 483 377 L 537 386 Z" fill="black"></path>
				<path d="M 530 162 Q 533 283 537 386 L 538 437 Q 539 545 545 598 Q 554 623 522 647 C 499 667 456 666 466 638 Q 481 602 485 499 Q 484 471 484 425 L 483 377 Q 482 289 480 157 C 480 127 529 132 530 162 Z" fill="black"></path>
				<path d="M 512 111 Q 566 114 617 118 Q 749 128 895 112 Q 920 108 927 118 Q 936 131 922 145 Q 891 176 844 198 Q 828 205 801 196 Q 704 178 530 162 L 480 157 Q 359 147 297 140 Q 228 131 125 132 Q 110 132 109 120 Q 108 107 128 91 Q 176 55 213 68 Q 243 78 400 100 Q 452 107 512 111 Z" fill="black"></path>
				<path d="M 732 327 Q 763 299 798 265 Q 810 252 825 252 Q 835 252 841 265 Q 845 278 838 307 Q 834 329 800 348 Q 722 378 708 375 Q 704 371 704 359 Q 707 349 732 327 Z" fill="red"></path>
</g>
		<text x="40" y="140" font-size="128" fill="#999999">5</text></g>
</g>
</svg>
