<?xml version="1.0" standalone="no"?>
<!DOCTYPE svg PUBLIC "-//W3C//DTD SVG 1.1//EN"
 "http://www.w3.org/Graphics/SVG/1.1/DTD/svg11.dtd">
<!-- generate by Handict dictionary app com.asnsami.handict -->

<svg xmlns="http://www.w3.org/2000/svg" xmlns:sodipodi="http://sodipodi.sourceforge.net/DTD/sodipodi-0.dtd" version="1.1" width="640" height="128" viewBox="0 0 5120 1024">
	<g id="id0:id0" transform="translate(0.0,0)">
		<g id="id0:id0:id0" transform="matrix(1.0,0,0,1.0,0,0.0)">			<g stroke="lightgray" stroke-width="4" transform="scale(4, 4)"> <rect x="0" y="0" width="256" height="256" fill="white" stroke-width="4"/></g>
			<g transform="scale(0.92, -0.92) translate(60, -920)">					<path d="M 467 761 Q 498 733 530 700 Q 546 684 565 685 Q 578 685 584 701 Q 590 719 580 754 Q 568 790 462 818 Q 443 822 436 820 Q 430 816 432 800 Q 436 787 467 761 Z" fill="red"></path>
				<path d="M 493 577 Q 634 595 899 596 Q 923 597 928 606 Q 934 619 915 636 Q 851 682 780 663 Q 540 618 118 565 Q 94 564 112 543 Q 128 527 149 521 Q 173 515 192 521 Q 312 554 450 571 L 493 577 Z" fill="lightgray"></path>
				<path d="M 546 318 Q 455 318 381 316 Q 353 317 368 334 Q 446 425 517 493 Q 536 509 533 519 Q 533 535 495 575 Q 494 576 493 577 C 473 599 450 601 450 571 Q 459 526 358 388 Q 336 357 294 330 Q 272 317 273 302 Q 276 280 290 259 Q 300 246 315 253 Q 358 272 522 291 C 552 295 576 318 546 318 Z" fill="lightgray"></path>
				<path d="M 671 140 Q 553 130 411 103 Q 383 96 403 117 Q 470 184 623 318 Q 666 358 701 379 Q 717 389 713 402 Q 703 427 667 458 Q 649 473 637 471 Q 624 470 623 450 Q 620 411 546 318 L 522 291 Q 519 290 517 285 Q 346 116 303 99 Q 284 90 286 73 Q 285 57 313 28 Q 325 12 345 23 Q 483 89 685 117 C 715 121 701 143 671 140 Z" fill="lightgray"></path>
				<path d="M 685 117 Q 751 6 759 1 Q 768 -2 777 6 Q 793 16 791 63 Q 791 129 639 233 Q 632 240 626 228 Q 622 215 631 202 Q 650 174 671 140 L 685 117 Z" fill="lightgray"></path>
</g>
		<text x="40" y="140" font-size="128" fill="#999999">1</text></g>
		<g id="id0:id1:id1" transform="matrix(1.0,0,0,1.0,1024,0.0)">			<g stroke="lightgray" stroke-width="4" transform="scale(4, 4)"> <rect x="0" y="0" width="256" height="256" fill="white" stroke-width="4"/></g>
			<g transform="scale(0.92, -0.92) translate(60, -920)">					<path d="M 467 761 Q 498 733 530 700 Q 546 684 565 685 Q 578 685 584 701 Q 590 719 580 754 Q 568 790 462 818 Q 443 822 436 820 Q 430 816 432 800 Q 436 787 467 761 Z" fill="black"></path>
				<path d="M 493 577 Q 634 595 899 596 Q 923 597 928 606 Q 934 619 915 636 Q 851 682 780 663 Q 540 618 118 565 Q 94 564 112 543 Q 128 527 149 521 Q 173 515 192 521 Q 312 554 450 571 L 493 577 Z" fill="red"></path>
				<path d="M 546 318 Q 455 318 381 316 Q 353 317 368 334 Q 446 425 517 493 Q 536 509 533 519 Q 533 535 495 575 Q 494 576 493 577 C 473 599 450 601 450 571 Q 459 526 358 388 Q 336 357 294 330 Q 272 317 273 302 Q 276 280 290 259 Q 300 246 315 253 Q 358 272 522 291 C 552 295 576 318 546 318 Z" fill="lightgray"></path>
				<path d="M 671 140 Q 553 130 411 103 Q 383 96 403 117 Q 470 184 623 318 Q 666 358 701 379 Q 717 389 713 402 Q 703 427 667 458 Q 649 473 637 471 Q 624 470 623 450 Q 620 411 546 318 L 522 291 Q 519 290 517 285 Q 346 116 303 99 Q 284 90 286 73 Q 285 57 313 28 Q 325 12 345 23 Q 483 89 685 117 C 715 121 701 143 671 140 Z" fill="lightgray"></path>
				<path d="M 685 117 Q 751 6 759 1 Q 768 -2 777 6 Q 793 16 791 63 Q 791 129 639 233 Q 632 240 626 228 Q 622 215 631 202 Q 650 174 671 140 L 685 117 Z" fill="lightgray"></path>
</g>
		<text x="40" y="140" font-size="128" fill="#999999">2</text></g>
		<g id="id0:id2:id2" transform="matrix(1.0,0,0,1.0,2048,0.0)">			<g stroke="lightgray" stroke-width="4" transform="scale(4, 4)"> <rect x="0" y="0" width="256" height="256" fill="white" stroke-width="4"/></g>
			<g transform="scale(0.92, -0.92) translate(60, -920)">					<path d="M 467 761 Q 498 733 530 700 Q 546 684 565 685 Q 578 685 584 701 Q 590 719 580 754 Q 568 790 462 818 Q 443 822 436 820 Q 430 816 432 800 Q 436 787 467 761 Z" fill="black"></path>
				<path d="M 493 577 Q 634 595 899 596 Q 923 597 928 606 Q 934 619 915 636 Q 851 682 780 663 Q 540 618 118 565 Q 94 564 112 543 Q 128 527 149 521 Q 173 515 192 521 Q 312 554 450 571 L 493 577 Z" fill="black"></path>
				<path d="M 546 318 Q 455 318 381 316 Q 353 317 368 334 Q 446 425 517 493 Q 536 509 533 519 Q 533 535 495 575 Q 494 576 493 577 C 473 599 450 601 450 571 Q 459 526 358 388 Q 336 357 294 330 Q 272 317 273 302 Q 276 280 290 259 Q 300 246 315 253 Q 358 272 522 291 C 552 295 576 318 546 318 Z" fill="red"></path>
				<path d="M 671 140 Q 553 130 411 103 Q 383 96 403 117 Q 470 184 623 318 Q 666 358 701 379 Q 717 389 713 402 Q 703 427 667 458 Q 649 473 637 471 Q 624 470 623 450 Q 620 411 546 318 L 522 291 Q 519 290 517 285 Q 346 116 303 99 Q 284 90 286 73 Q 285 57 313 28 Q 325 12 345 23 Q 483 89 685 117 C 715 121 701 143 671 140 Z" fill="lightgray"></path>
				<path d="M 685 117 Q 751 6 759 1 Q 768 -2 777 6 Q 793 16 791 63 Q 791 129 639 233 Q 632 240 626 228 Q 622 215 631 202 Q 650 174 671 140 L 685 117 Z" fill="lightgray"></path>
</g>
		<text x="40" y="140" font-size="128" fill="#999999">3</text></g>
		<g id="id0:id3:id3" transform="matrix(1.0,0,0,1.0,3072,0.0)">			<g stroke="lightgray" stroke-width="4" transform="scale(4, 4)"> <rect x="0" y="0" width="256" height="256" fill="white" stroke-width="4"/></g>
			<g transform="scale(0.92, -0.92) translate(60, -920)">					<path d="M 467 761 Q 498 733 530 700 Q 546 684 565 685 Q 578 685 584 701 Q 590 719 580 754 Q 568 790 462 818 Q 443 822 436 820 Q 430 816 432 800 Q 436 787 467 761 Z" fill="black"></path>
				<path d="M 493 577 Q 634 595 899 596 Q 923 597 928 606 Q 934 619 915 636 Q 851 682 780 663 Q 540 618 118 565 Q 94 564 112 543 Q 128 527 149 521 Q 173 515 192 521 Q 312 554 450 571 L 493 577 Z" fill="black"></path>
				<path d="M 546 318 Q 455 318 381 316 Q 353 317 368 334 Q 446 425 517 493 Q 536 509 533 519 Q 533 535 495 575 Q 494 576 493 577 C 473 599 450 601 450 571 Q 459 526 358 388 Q 336 357 294 330 Q 272 317 273 302 Q 276 280 290 259 Q 300 246 315 253 Q 358 272 522 291 C 552 295 576 318 546 318 Z" fill="black"></path>
				<path d="M 671 140 Q 553 130 411 103 Q 383 96 403 117 Q 470 184 623 318 Q 666 358 701 379 Q 717 389 713 402 Q 703 427 667 458 Q 649 473 637 471 Q 624 470 623 450 Q 620 411 546 318 L 522 291 Q 519 290 517 285 Q 346 116 303 99 Q 284 90 286 73 Q 285 57 313 28 Q 325 12 345 23 Q 483 89 685 117 C 715 121 701 143 671 140 Z" fill="red"></path>
				<path d="M 685 117 Q 751 6 759 1 Q 768 -2 777 6 Q 793 16 791 63 Q 791 129 639 233 Q 632 240 626 228 Q 622 215 631 202 Q 650 174 671 140 L 685 117 Z" fill="lightgray"></path>
</g>
		<text x="40" y="140" font-size="128" fill="#999999">4</text></g>
		<g id="id0:id4:id4" transform="matrix(1.0,0,0,1.0,4096,0.0)">			<g stroke="lightgray" stroke-width="4" transform="scale(4, 4)"> <rect x="0" y="0" width="256" height="256" fill="white" stroke-width="4"/></g>
			<g transform="scale(0.92, -0.92) translate(60, -920)">					<path d="M 467 761 Q 498 733 530 700 Q 546 684 565 685 Q 578 685 584 701 Q 590 719 580 754 Q 568 790 462 818 Q 443 822 436 820 Q 430 816 432 800 Q 436 787 467 761 Z" fill="black"></path>
				<path d="M 493 577 Q 634 595 899 596 Q 923 597 928 606 Q 934 619 915 636 Q 851 682 780 663 Q 540 618 118 565 Q 94 564 112 543 Q 128 527 149 521 Q 173 515 192 521 Q 312 554 450 571 L 493 577 Z" fill="black"></path>
				<path d="M 546 318 Q 455 318 381 316 Q 353 317 368 334 Q 446 425 517 493 Q 536 509 533 519 Q 533 535 495 575 Q 494 576 493 577 C 473 599 450 601 450 571 Q 459 526 358 388 Q 336 357 294 330 Q 272 317 273 302 Q 276 280 290 259 Q 300 246 315 253 Q 358 272 522 291 C 552 295 576 318 546 318 Z" fill="black"></path>
				<path d="M 671 140 Q 553 130 411 103 Q 383 96 403 117 Q 470 184 623 318 Q 666 358 701 379 Q 717 389 713 402 Q 703 427 667 458 Q 649 473 637 471 Q 624 470 623 450 Q 620 411 546 318 L 522 291 Q 519 290 517 285 Q 346 116 303 99 Q 284 90 286 73 Q 285 57 313 28 Q 325 12 345 23 Q 483 89 685 117 C 715 121 701 143 671 140 Z" fill="black"></path>
				<path d="M 685 117 Q 751 6 759 1 Q 768 -2 777 6 Q 793 16 791 63 Q 791 129 639 233 Q 632 240 626 228 Q 622 215 631 202 Q 650 174 671 140 L 685 117 Z" fill="red"></path>
</g>
		<text x="40" y="140" font-size="128" fill="#999999">5</text></g>
</g>
</svg>
