<?xml version="1.0" standalone="no"?>
<!DOCTYPE svg PUBLIC "-//W3C//DTD SVG 1.1//EN"
 "http://www.w3.org/Graphics/SVG/1.1/DTD/svg11.dtd">
<!-- generate by Japanese dictionary app com.asnsami.kanjidictionary -->

<svg xmlns="http://www.w3.org/2000/svg" xmlns:sodipodi="http://sodipodi.sourceforge.net/DTD/sodipodi-0.dtd" version="1.1" width="640" height="384" viewBox="0 0 5120 3072">
	<g id="id0:id0" transform="translate(0.0,0)">
		<g id="id0:id0:id0" transform="matrix(1.0,0,0,1.0,0,0.0)">			<g stroke="lightgray" stroke-width="4" transform="scale(4, 4)"> <rect x="0" y="0" width="256" height="256" fill="white" stroke-width="4"/></g>
			<g transform="scale(0.92, -0.92) translate(60, -920)">					<path d="M 275 645 Q 315 657 360 667 Q 388 674 392 679 Q 401 688 396 696 Q 389 708 358 714 Q 337 717 245 686 Q 152 668 148 667 Q 111 658 138 643 Q 177 622 233 635 L 275 645 Z" fill="red"></path>
				<path d="M 300 451 Q 321 458 346 465 Q 370 472 374 477 Q 381 484 376 493 Q 369 503 339 508 Q 320 509 302 504 L 250 483 Q 198 467 153 457 Q 119 447 146 434 Q 180 419 251 436 L 300 451 Z" fill="lightgray"></path>
				<path d="M 295 281 Q 298 372 300 451 L 302 504 Q 302 558 306 594 Q 315 618 275 645 C 251 663 224 664 233 635 Q 248 596 250 483 L 251 436 Q 251 369 251 264 C 251 234 294 251 295 281 Z" fill="lightgray"></path>
				<path d="M 251 264 Q 196 245 137 222 Q 118 215 86 213 Q 73 210 72 200 Q 71 187 81 178 Q 106 163 141 147 Q 153 144 164 154 Q 195 182 371 278 Q 396 291 413 306 Q 426 315 426 325 Q 419 329 407 326 Q 355 304 295 281 L 251 264 Z" fill="lightgray"></path>
				<path d="M 455 722 Q 436 734 414 738 Q 407 741 402 735 Q 395 729 404 718 Q 449 648 459 475 Q 460 414 499 386 Q 500 385 503 383 Q 516 380 520 396 L 521 426 Q 520 451 511 481 Q 487 674 488 688 C 487 704 481 707 455 722 Z" fill="lightgray"></path>
				<path d="M 729 422 Q 747 394 764 385 Q 776 376 792 399 Q 814 436 853 633 Q 863 667 890 693 Q 903 706 892 722 Q 876 741 829 770 Q 811 779 725 763 Q 716 762 707 760 Q 686 757 455 722 C 425 718 459 681 488 688 Q 528 698 584 706 L 636 714 Q 682 721 738 726 Q 775 730 786 718 Q 805 696 800 674 Q 761 466 739 452 C 724 429 724 429 729 422 Z" fill="lightgray"></path>
				<path d="M 654 558 Q 691 565 723 569 Q 745 573 737 585 Q 727 598 703 603 Q 684 606 655 598 L 607 585 Q 567 575 531 564 Q 515 560 534 547 Q 540 543 607 551 L 654 558 Z" fill="lightgray"></path>
				<path d="M 650 412 Q 690 419 729 422 C 759 424 765 437 739 452 Q 712 470 652 455 Q 651 455 651 454 C 646 452 634 450 605 444 Q 560 435 521 426 C 492 419 490 392 520 396 L 605 407 L 650 412 Z" fill="lightgray"></path>
				<path d="M 644 134 Q 645 197 646 254 L 647 303 Q 648 360 650 412 L 651 454 Q 652 508 654 558 L 655 598 Q 655 610 659 667 Q 668 691 636 714 C 613 734 570 733 584 706 Q 591 691 599 678 Q 605 654 607 585 L 607 551 Q 607 511 605 444 L 605 407 Q 604 358 602 293 L 601 246 Q 600 192 598 128 C 597 98 644 104 644 134 Z" fill="lightgray"></path>
				<path d="M 646 254 Q 784 282 786 283 Q 795 290 791 300 Q 784 312 754 321 Q 724 328 647 303 L 602 293 Q 598 293 596 292 Q 541 282 475 277 Q 438 273 464 254 Q 500 230 575 243 Q 587 246 601 246 L 646 254 Z" fill="lightgray"></path>
				<path d="M 598 128 Q 471 118 326 103 Q 304 102 319 83 Q 334 68 352 62 Q 374 55 390 60 Q 591 108 887 96 Q 909 96 932 95 Q 953 94 958 103 Q 964 115 947 130 Q 893 172 855 164 Q 774 151 644 134 L 598 128 Z" fill="lightgray"></path>
</g>
		<text x="40" y="140" font-size="128" fill="#999999">1</text></g>
		<g id="id0:id1:id1" transform="matrix(1.0,0,0,1.0,1024,0.0)">			<g stroke="lightgray" stroke-width="4" transform="scale(4, 4)"> <rect x="0" y="0" width="256" height="256" fill="white" stroke-width="4"/></g>
			<g transform="scale(0.92, -0.92) translate(60, -920)">					<path d="M 275 645 Q 315 657 360 667 Q 388 674 392 679 Q 401 688 396 696 Q 389 708 358 714 Q 337 717 245 686 Q 152 668 148 667 Q 111 658 138 643 Q 177 622 233 635 L 275 645 Z" fill="black"></path>
				<path d="M 300 451 Q 321 458 346 465 Q 370 472 374 477 Q 381 484 376 493 Q 369 503 339 508 Q 320 509 302 504 L 250 483 Q 198 467 153 457 Q 119 447 146 434 Q 180 419 251 436 L 300 451 Z" fill="red"></path>
				<path d="M 295 281 Q 298 372 300 451 L 302 504 Q 302 558 306 594 Q 315 618 275 645 C 251 663 224 664 233 635 Q 248 596 250 483 L 251 436 Q 251 369 251 264 C 251 234 294 251 295 281 Z" fill="lightgray"></path>
				<path d="M 251 264 Q 196 245 137 222 Q 118 215 86 213 Q 73 210 72 200 Q 71 187 81 178 Q 106 163 141 147 Q 153 144 164 154 Q 195 182 371 278 Q 396 291 413 306 Q 426 315 426 325 Q 419 329 407 326 Q 355 304 295 281 L 251 264 Z" fill="lightgray"></path>
				<path d="M 455 722 Q 436 734 414 738 Q 407 741 402 735 Q 395 729 404 718 Q 449 648 459 475 Q 460 414 499 386 Q 500 385 503 383 Q 516 380 520 396 L 521 426 Q 520 451 511 481 Q 487 674 488 688 C 487 704 481 707 455 722 Z" fill="lightgray"></path>
				<path d="M 729 422 Q 747 394 764 385 Q 776 376 792 399 Q 814 436 853 633 Q 863 667 890 693 Q 903 706 892 722 Q 876 741 829 770 Q 811 779 725 763 Q 716 762 707 760 Q 686 757 455 722 C 425 718 459 681 488 688 Q 528 698 584 706 L 636 714 Q 682 721 738 726 Q 775 730 786 718 Q 805 696 800 674 Q 761 466 739 452 C 724 429 724 429 729 422 Z" fill="lightgray"></path>
				<path d="M 654 558 Q 691 565 723 569 Q 745 573 737 585 Q 727 598 703 603 Q 684 606 655 598 L 607 585 Q 567 575 531 564 Q 515 560 534 547 Q 540 543 607 551 L 654 558 Z" fill="lightgray"></path>
				<path d="M 650 412 Q 690 419 729 422 C 759 424 765 437 739 452 Q 712 470 652 455 Q 651 455 651 454 C 646 452 634 450 605 444 Q 560 435 521 426 C 492 419 490 392 520 396 L 605 407 L 650 412 Z" fill="lightgray"></path>
				<path d="M 644 134 Q 645 197 646 254 L 647 303 Q 648 360 650 412 L 651 454 Q 652 508 654 558 L 655 598 Q 655 610 659 667 Q 668 691 636 714 C 613 734 570 733 584 706 Q 591 691 599 678 Q 605 654 607 585 L 607 551 Q 607 511 605 444 L 605 407 Q 604 358 602 293 L 601 246 Q 600 192 598 128 C 597 98 644 104 644 134 Z" fill="lightgray"></path>
				<path d="M 646 254 Q 784 282 786 283 Q 795 290 791 300 Q 784 312 754 321 Q 724 328 647 303 L 602 293 Q 598 293 596 292 Q 541 282 475 277 Q 438 273 464 254 Q 500 230 575 243 Q 587 246 601 246 L 646 254 Z" fill="lightgray"></path>
				<path d="M 598 128 Q 471 118 326 103 Q 304 102 319 83 Q 334 68 352 62 Q 374 55 390 60 Q 591 108 887 96 Q 909 96 932 95 Q 953 94 958 103 Q 964 115 947 130 Q 893 172 855 164 Q 774 151 644 134 L 598 128 Z" fill="lightgray"></path>
</g>
		<text x="40" y="140" font-size="128" fill="#999999">2</text></g>
		<g id="id0:id2:id2" transform="matrix(1.0,0,0,1.0,2048,0.0)">			<g stroke="lightgray" stroke-width="4" transform="scale(4, 4)"> <rect x="0" y="0" width="256" height="256" fill="white" stroke-width="4"/></g>
			<g transform="scale(0.92, -0.92) translate(60, -920)">					<path d="M 275 645 Q 315 657 360 667 Q 388 674 392 679 Q 401 688 396 696 Q 389 708 358 714 Q 337 717 245 686 Q 152 668 148 667 Q 111 658 138 643 Q 177 622 233 635 L 275 645 Z" fill="black"></path>
				<path d="M 300 451 Q 321 458 346 465 Q 370 472 374 477 Q 381 484 376 493 Q 369 503 339 508 Q 320 509 302 504 L 250 483 Q 198 467 153 457 Q 119 447 146 434 Q 180 419 251 436 L 300 451 Z" fill="black"></path>
				<path d="M 295 281 Q 298 372 300 451 L 302 504 Q 302 558 306 594 Q 315 618 275 645 C 251 663 224 664 233 635 Q 248 596 250 483 L 251 436 Q 251 369 251 264 C 251 234 294 251 295 281 Z" fill="red"></path>
				<path d="M 251 264 Q 196 245 137 222 Q 118 215 86 213 Q 73 210 72 200 Q 71 187 81 178 Q 106 163 141 147 Q 153 144 164 154 Q 195 182 371 278 Q 396 291 413 306 Q 426 315 426 325 Q 419 329 407 326 Q 355 304 295 281 L 251 264 Z" fill="lightgray"></path>
				<path d="M 455 722 Q 436 734 414 738 Q 407 741 402 735 Q 395 729 404 718 Q 449 648 459 475 Q 460 414 499 386 Q 500 385 503 383 Q 516 380 520 396 L 521 426 Q 520 451 511 481 Q 487 674 488 688 C 487 704 481 707 455 722 Z" fill="lightgray"></path>
				<path d="M 729 422 Q 747 394 764 385 Q 776 376 792 399 Q 814 436 853 633 Q 863 667 890 693 Q 903 706 892 722 Q 876 741 829 770 Q 811 779 725 763 Q 716 762 707 760 Q 686 757 455 722 C 425 718 459 681 488 688 Q 528 698 584 706 L 636 714 Q 682 721 738 726 Q 775 730 786 718 Q 805 696 800 674 Q 761 466 739 452 C 724 429 724 429 729 422 Z" fill="lightgray"></path>
				<path d="M 654 558 Q 691 565 723 569 Q 745 573 737 585 Q 727 598 703 603 Q 684 606 655 598 L 607 585 Q 567 575 531 564 Q 515 560 534 547 Q 540 543 607 551 L 654 558 Z" fill="lightgray"></path>
				<path d="M 650 412 Q 690 419 729 422 C 759 424 765 437 739 452 Q 712 470 652 455 Q 651 455 651 454 C 646 452 634 450 605 444 Q 560 435 521 426 C 492 419 490 392 520 396 L 605 407 L 650 412 Z" fill="lightgray"></path>
				<path d="M 644 134 Q 645 197 646 254 L 647 303 Q 648 360 650 412 L 651 454 Q 652 508 654 558 L 655 598 Q 655 610 659 667 Q 668 691 636 714 C 613 734 570 733 584 706 Q 591 691 599 678 Q 605 654 607 585 L 607 551 Q 607 511 605 444 L 605 407 Q 604 358 602 293 L 601 246 Q 600 192 598 128 C 597 98 644 104 644 134 Z" fill="lightgray"></path>
				<path d="M 646 254 Q 784 282 786 283 Q 795 290 791 300 Q 784 312 754 321 Q 724 328 647 303 L 602 293 Q 598 293 596 292 Q 541 282 475 277 Q 438 273 464 254 Q 500 230 575 243 Q 587 246 601 246 L 646 254 Z" fill="lightgray"></path>
				<path d="M 598 128 Q 471 118 326 103 Q 304 102 319 83 Q 334 68 352 62 Q 374 55 390 60 Q 591 108 887 96 Q 909 96 932 95 Q 953 94 958 103 Q 964 115 947 130 Q 893 172 855 164 Q 774 151 644 134 L 598 128 Z" fill="lightgray"></path>
</g>
		<text x="40" y="140" font-size="128" fill="#999999">3</text></g>
		<g id="id0:id3:id3" transform="matrix(1.0,0,0,1.0,3072,0.0)">			<g stroke="lightgray" stroke-width="4" transform="scale(4, 4)"> <rect x="0" y="0" width="256" height="256" fill="white" stroke-width="4"/></g>
			<g transform="scale(0.92, -0.92) translate(60, -920)">					<path d="M 275 645 Q 315 657 360 667 Q 388 674 392 679 Q 401 688 396 696 Q 389 708 358 714 Q 337 717 245 686 Q 152 668 148 667 Q 111 658 138 643 Q 177 622 233 635 L 275 645 Z" fill="black"></path>
				<path d="M 300 451 Q 321 458 346 465 Q 370 472 374 477 Q 381 484 376 493 Q 369 503 339 508 Q 320 509 302 504 L 250 483 Q 198 467 153 457 Q 119 447 146 434 Q 180 419 251 436 L 300 451 Z" fill="black"></path>
				<path d="M 295 281 Q 298 372 300 451 L 302 504 Q 302 558 306 594 Q 315 618 275 645 C 251 663 224 664 233 635 Q 248 596 250 483 L 251 436 Q 251 369 251 264 C 251 234 294 251 295 281 Z" fill="black"></path>
				<path d="M 251 264 Q 196 245 137 222 Q 118 215 86 213 Q 73 210 72 200 Q 71 187 81 178 Q 106 163 141 147 Q 153 144 164 154 Q 195 182 371 278 Q 396 291 413 306 Q 426 315 426 325 Q 419 329 407 326 Q 355 304 295 281 L 251 264 Z" fill="red"></path>
				<path d="M 455 722 Q 436 734 414 738 Q 407 741 402 735 Q 395 729 404 718 Q 449 648 459 475 Q 460 414 499 386 Q 500 385 503 383 Q 516 380 520 396 L 521 426 Q 520 451 511 481 Q 487 674 488 688 C 487 704 481 707 455 722 Z" fill="lightgray"></path>
				<path d="M 729 422 Q 747 394 764 385 Q 776 376 792 399 Q 814 436 853 633 Q 863 667 890 693 Q 903 706 892 722 Q 876 741 829 770 Q 811 779 725 763 Q 716 762 707 760 Q 686 757 455 722 C 425 718 459 681 488 688 Q 528 698 584 706 L 636 714 Q 682 721 738 726 Q 775 730 786 718 Q 805 696 800 674 Q 761 466 739 452 C 724 429 724 429 729 422 Z" fill="lightgray"></path>
				<path d="M 654 558 Q 691 565 723 569 Q 745 573 737 585 Q 727 598 703 603 Q 684 606 655 598 L 607 585 Q 567 575 531 564 Q 515 560 534 547 Q 540 543 607 551 L 654 558 Z" fill="lightgray"></path>
				<path d="M 650 412 Q 690 419 729 422 C 759 424 765 437 739 452 Q 712 470 652 455 Q 651 455 651 454 C 646 452 634 450 605 444 Q 560 435 521 426 C 492 419 490 392 520 396 L 605 407 L 650 412 Z" fill="lightgray"></path>
				<path d="M 644 134 Q 645 197 646 254 L 647 303 Q 648 360 650 412 L 651 454 Q 652 508 654 558 L 655 598 Q 655 610 659 667 Q 668 691 636 714 C 613 734 570 733 584 706 Q 591 691 599 678 Q 605 654 607 585 L 607 551 Q 607 511 605 444 L 605 407 Q 604 358 602 293 L 601 246 Q 600 192 598 128 C 597 98 644 104 644 134 Z" fill="lightgray"></path>
				<path d="M 646 254 Q 784 282 786 283 Q 795 290 791 300 Q 784 312 754 321 Q 724 328 647 303 L 602 293 Q 598 293 596 292 Q 541 282 475 277 Q 438 273 464 254 Q 500 230 575 243 Q 587 246 601 246 L 646 254 Z" fill="lightgray"></path>
				<path d="M 598 128 Q 471 118 326 103 Q 304 102 319 83 Q 334 68 352 62 Q 374 55 390 60 Q 591 108 887 96 Q 909 96 932 95 Q 953 94 958 103 Q 964 115 947 130 Q 893 172 855 164 Q 774 151 644 134 L 598 128 Z" fill="lightgray"></path>
</g>
		<text x="40" y="140" font-size="128" fill="#999999">4</text></g>
		<g id="id0:id4:id4" transform="matrix(1.0,0,0,1.0,4096,0.0)">			<g stroke="lightgray" stroke-width="4" transform="scale(4, 4)"> <rect x="0" y="0" width="256" height="256" fill="white" stroke-width="4"/></g>
			<g transform="scale(0.92, -0.92) translate(60, -920)">					<path d="M 275 645 Q 315 657 360 667 Q 388 674 392 679 Q 401 688 396 696 Q 389 708 358 714 Q 337 717 245 686 Q 152 668 148 667 Q 111 658 138 643 Q 177 622 233 635 L 275 645 Z" fill="black"></path>
				<path d="M 300 451 Q 321 458 346 465 Q 370 472 374 477 Q 381 484 376 493 Q 369 503 339 508 Q 320 509 302 504 L 250 483 Q 198 467 153 457 Q 119 447 146 434 Q 180 419 251 436 L 300 451 Z" fill="black"></path>
				<path d="M 295 281 Q 298 372 300 451 L 302 504 Q 302 558 306 594 Q 315 618 275 645 C 251 663 224 664 233 635 Q 248 596 250 483 L 251 436 Q 251 369 251 264 C 251 234 294 251 295 281 Z" fill="black"></path>
				<path d="M 251 264 Q 196 245 137 222 Q 118 215 86 213 Q 73 210 72 200 Q 71 187 81 178 Q 106 163 141 147 Q 153 144 164 154 Q 195 182 371 278 Q 396 291 413 306 Q 426 315 426 325 Q 419 329 407 326 Q 355 304 295 281 L 251 264 Z" fill="black"></path>
				<path d="M 455 722 Q 436 734 414 738 Q 407 741 402 735 Q 395 729 404 718 Q 449 648 459 475 Q 460 414 499 386 Q 500 385 503 383 Q 516 380 520 396 L 521 426 Q 520 451 511 481 Q 487 674 488 688 C 487 704 481 707 455 722 Z" fill="red"></path>
				<path d="M 729 422 Q 747 394 764 385 Q 776 376 792 399 Q 814 436 853 633 Q 863 667 890 693 Q 903 706 892 722 Q 876 741 829 770 Q 811 779 725 763 Q 716 762 707 760 Q 686 757 455 722 C 425 718 459 681 488 688 Q 528 698 584 706 L 636 714 Q 682 721 738 726 Q 775 730 786 718 Q 805 696 800 674 Q 761 466 739 452 C 724 429 724 429 729 422 Z" fill="lightgray"></path>
				<path d="M 654 558 Q 691 565 723 569 Q 745 573 737 585 Q 727 598 703 603 Q 684 606 655 598 L 607 585 Q 567 575 531 564 Q 515 560 534 547 Q 540 543 607 551 L 654 558 Z" fill="lightgray"></path>
				<path d="M 650 412 Q 690 419 729 422 C 759 424 765 437 739 452 Q 712 470 652 455 Q 651 455 651 454 C 646 452 634 450 605 444 Q 560 435 521 426 C 492 419 490 392 520 396 L 605 407 L 650 412 Z" fill="lightgray"></path>
				<path d="M 644 134 Q 645 197 646 254 L 647 303 Q 648 360 650 412 L 651 454 Q 652 508 654 558 L 655 598 Q 655 610 659 667 Q 668 691 636 714 C 613 734 570 733 584 706 Q 591 691 599 678 Q 605 654 607 585 L 607 551 Q 607 511 605 444 L 605 407 Q 604 358 602 293 L 601 246 Q 600 192 598 128 C 597 98 644 104 644 134 Z" fill="lightgray"></path>
				<path d="M 646 254 Q 784 282 786 283 Q 795 290 791 300 Q 784 312 754 321 Q 724 328 647 303 L 602 293 Q 598 293 596 292 Q 541 282 475 277 Q 438 273 464 254 Q 500 230 575 243 Q 587 246 601 246 L 646 254 Z" fill="lightgray"></path>
				<path d="M 598 128 Q 471 118 326 103 Q 304 102 319 83 Q 334 68 352 62 Q 374 55 390 60 Q 591 108 887 96 Q 909 96 932 95 Q 953 94 958 103 Q 964 115 947 130 Q 893 172 855 164 Q 774 151 644 134 L 598 128 Z" fill="lightgray"></path>
</g>
		<text x="40" y="140" font-size="128" fill="#999999">5</text></g>
</g>
	<g id="id1:id1" transform="translate(0.0,1024)">
		<g id="id1:id0:id0" transform="matrix(1.0,0,0,1.0,0,0.0)">			<g stroke="lightgray" stroke-width="4" transform="scale(4, 4)"> <rect x="0" y="0" width="256" height="256" fill="white" stroke-width="4"/></g>
			<g transform="scale(0.92, -0.92) translate(60, -920)">					<path d="M 275 645 Q 315 657 360 667 Q 388 674 392 679 Q 401 688 396 696 Q 389 708 358 714 Q 337 717 245 686 Q 152 668 148 667 Q 111 658 138 643 Q 177 622 233 635 L 275 645 Z" fill="black"></path>
				<path d="M 300 451 Q 321 458 346 465 Q 370 472 374 477 Q 381 484 376 493 Q 369 503 339 508 Q 320 509 302 504 L 250 483 Q 198 467 153 457 Q 119 447 146 434 Q 180 419 251 436 L 300 451 Z" fill="black"></path>
				<path d="M 295 281 Q 298 372 300 451 L 302 504 Q 302 558 306 594 Q 315 618 275 645 C 251 663 224 664 233 635 Q 248 596 250 483 L 251 436 Q 251 369 251 264 C 251 234 294 251 295 281 Z" fill="black"></path>
				<path d="M 251 264 Q 196 245 137 222 Q 118 215 86 213 Q 73 210 72 200 Q 71 187 81 178 Q 106 163 141 147 Q 153 144 164 154 Q 195 182 371 278 Q 396 291 413 306 Q 426 315 426 325 Q 419 329 407 326 Q 355 304 295 281 L 251 264 Z" fill="black"></path>
				<path d="M 455 722 Q 436 734 414 738 Q 407 741 402 735 Q 395 729 404 718 Q 449 648 459 475 Q 460 414 499 386 Q 500 385 503 383 Q 516 380 520 396 L 521 426 Q 520 451 511 481 Q 487 674 488 688 C 487 704 481 707 455 722 Z" fill="black"></path>
				<path d="M 729 422 Q 747 394 764 385 Q 776 376 792 399 Q 814 436 853 633 Q 863 667 890 693 Q 903 706 892 722 Q 876 741 829 770 Q 811 779 725 763 Q 716 762 707 760 Q 686 757 455 722 C 425 718 459 681 488 688 Q 528 698 584 706 L 636 714 Q 682 721 738 726 Q 775 730 786 718 Q 805 696 800 674 Q 761 466 739 452 C 724 429 724 429 729 422 Z" fill="red"></path>
				<path d="M 654 558 Q 691 565 723 569 Q 745 573 737 585 Q 727 598 703 603 Q 684 606 655 598 L 607 585 Q 567 575 531 564 Q 515 560 534 547 Q 540 543 607 551 L 654 558 Z" fill="lightgray"></path>
				<path d="M 650 412 Q 690 419 729 422 C 759 424 765 437 739 452 Q 712 470 652 455 Q 651 455 651 454 C 646 452 634 450 605 444 Q 560 435 521 426 C 492 419 490 392 520 396 L 605 407 L 650 412 Z" fill="lightgray"></path>
				<path d="M 644 134 Q 645 197 646 254 L 647 303 Q 648 360 650 412 L 651 454 Q 652 508 654 558 L 655 598 Q 655 610 659 667 Q 668 691 636 714 C 613 734 570 733 584 706 Q 591 691 599 678 Q 605 654 607 585 L 607 551 Q 607 511 605 444 L 605 407 Q 604 358 602 293 L 601 246 Q 600 192 598 128 C 597 98 644 104 644 134 Z" fill="lightgray"></path>
				<path d="M 646 254 Q 784 282 786 283 Q 795 290 791 300 Q 784 312 754 321 Q 724 328 647 303 L 602 293 Q 598 293 596 292 Q 541 282 475 277 Q 438 273 464 254 Q 500 230 575 243 Q 587 246 601 246 L 646 254 Z" fill="lightgray"></path>
				<path d="M 598 128 Q 471 118 326 103 Q 304 102 319 83 Q 334 68 352 62 Q 374 55 390 60 Q 591 108 887 96 Q 909 96 932 95 Q 953 94 958 103 Q 964 115 947 130 Q 893 172 855 164 Q 774 151 644 134 L 598 128 Z" fill="lightgray"></path>
</g>
		<text x="40" y="140" font-size="128" fill="#999999">6</text></g>
		<g id="id1:id1:id1" transform="matrix(1.0,0,0,1.0,1024,0.0)">			<g stroke="lightgray" stroke-width="4" transform="scale(4, 4)"> <rect x="0" y="0" width="256" height="256" fill="white" stroke-width="4"/></g>
			<g transform="scale(0.92, -0.92) translate(60, -920)">					<path d="M 275 645 Q 315 657 360 667 Q 388 674 392 679 Q 401 688 396 696 Q 389 708 358 714 Q 337 717 245 686 Q 152 668 148 667 Q 111 658 138 643 Q 177 622 233 635 L 275 645 Z" fill="black"></path>
				<path d="M 300 451 Q 321 458 346 465 Q 370 472 374 477 Q 381 484 376 493 Q 369 503 339 508 Q 320 509 302 504 L 250 483 Q 198 467 153 457 Q 119 447 146 434 Q 180 419 251 436 L 300 451 Z" fill="black"></path>
				<path d="M 295 281 Q 298 372 300 451 L 302 504 Q 302 558 306 594 Q 315 618 275 645 C 251 663 224 664 233 635 Q 248 596 250 483 L 251 436 Q 251 369 251 264 C 251 234 294 251 295 281 Z" fill="black"></path>
				<path d="M 251 264 Q 196 245 137 222 Q 118 215 86 213 Q 73 210 72 200 Q 71 187 81 178 Q 106 163 141 147 Q 153 144 164 154 Q 195 182 371 278 Q 396 291 413 306 Q 426 315 426 325 Q 419 329 407 326 Q 355 304 295 281 L 251 264 Z" fill="black"></path>
				<path d="M 455 722 Q 436 734 414 738 Q 407 741 402 735 Q 395 729 404 718 Q 449 648 459 475 Q 460 414 499 386 Q 500 385 503 383 Q 516 380 520 396 L 521 426 Q 520 451 511 481 Q 487 674 488 688 C 487 704 481 707 455 722 Z" fill="black"></path>
				<path d="M 729 422 Q 747 394 764 385 Q 776 376 792 399 Q 814 436 853 633 Q 863 667 890 693 Q 903 706 892 722 Q 876 741 829 770 Q 811 779 725 763 Q 716 762 707 760 Q 686 757 455 722 C 425 718 459 681 488 688 Q 528 698 584 706 L 636 714 Q 682 721 738 726 Q 775 730 786 718 Q 805 696 800 674 Q 761 466 739 452 C 724 429 724 429 729 422 Z" fill="black"></path>
				<path d="M 654 558 Q 691 565 723 569 Q 745 573 737 585 Q 727 598 703 603 Q 684 606 655 598 L 607 585 Q 567 575 531 564 Q 515 560 534 547 Q 540 543 607 551 L 654 558 Z" fill="red"></path>
				<path d="M 650 412 Q 690 419 729 422 C 759 424 765 437 739 452 Q 712 470 652 455 Q 651 455 651 454 C 646 452 634 450 605 444 Q 560 435 521 426 C 492 419 490 392 520 396 L 605 407 L 650 412 Z" fill="lightgray"></path>
				<path d="M 644 134 Q 645 197 646 254 L 647 303 Q 648 360 650 412 L 651 454 Q 652 508 654 558 L 655 598 Q 655 610 659 667 Q 668 691 636 714 C 613 734 570 733 584 706 Q 591 691 599 678 Q 605 654 607 585 L 607 551 Q 607 511 605 444 L 605 407 Q 604 358 602 293 L 601 246 Q 600 192 598 128 C 597 98 644 104 644 134 Z" fill="lightgray"></path>
				<path d="M 646 254 Q 784 282 786 283 Q 795 290 791 300 Q 784 312 754 321 Q 724 328 647 303 L 602 293 Q 598 293 596 292 Q 541 282 475 277 Q 438 273 464 254 Q 500 230 575 243 Q 587 246 601 246 L 646 254 Z" fill="lightgray"></path>
				<path d="M 598 128 Q 471 118 326 103 Q 304 102 319 83 Q 334 68 352 62 Q 374 55 390 60 Q 591 108 887 96 Q 909 96 932 95 Q 953 94 958 103 Q 964 115 947 130 Q 893 172 855 164 Q 774 151 644 134 L 598 128 Z" fill="lightgray"></path>
</g>
		<text x="40" y="140" font-size="128" fill="#999999">7</text></g>
		<g id="id1:id2:id2" transform="matrix(1.0,0,0,1.0,2048,0.0)">			<g stroke="lightgray" stroke-width="4" transform="scale(4, 4)"> <rect x="0" y="0" width="256" height="256" fill="white" stroke-width="4"/></g>
			<g transform="scale(0.92, -0.92) translate(60, -920)">					<path d="M 275 645 Q 315 657 360 667 Q 388 674 392 679 Q 401 688 396 696 Q 389 708 358 714 Q 337 717 245 686 Q 152 668 148 667 Q 111 658 138 643 Q 177 622 233 635 L 275 645 Z" fill="black"></path>
				<path d="M 300 451 Q 321 458 346 465 Q 370 472 374 477 Q 381 484 376 493 Q 369 503 339 508 Q 320 509 302 504 L 250 483 Q 198 467 153 457 Q 119 447 146 434 Q 180 419 251 436 L 300 451 Z" fill="black"></path>
				<path d="M 295 281 Q 298 372 300 451 L 302 504 Q 302 558 306 594 Q 315 618 275 645 C 251 663 224 664 233 635 Q 248 596 250 483 L 251 436 Q 251 369 251 264 C 251 234 294 251 295 281 Z" fill="black"></path>
				<path d="M 251 264 Q 196 245 137 222 Q 118 215 86 213 Q 73 210 72 200 Q 71 187 81 178 Q 106 163 141 147 Q 153 144 164 154 Q 195 182 371 278 Q 396 291 413 306 Q 426 315 426 325 Q 419 329 407 326 Q 355 304 295 281 L 251 264 Z" fill="black"></path>
				<path d="M 455 722 Q 436 734 414 738 Q 407 741 402 735 Q 395 729 404 718 Q 449 648 459 475 Q 460 414 499 386 Q 500 385 503 383 Q 516 380 520 396 L 521 426 Q 520 451 511 481 Q 487 674 488 688 C 487 704 481 707 455 722 Z" fill="black"></path>
				<path d="M 729 422 Q 747 394 764 385 Q 776 376 792 399 Q 814 436 853 633 Q 863 667 890 693 Q 903 706 892 722 Q 876 741 829 770 Q 811 779 725 763 Q 716 762 707 760 Q 686 757 455 722 C 425 718 459 681 488 688 Q 528 698 584 706 L 636 714 Q 682 721 738 726 Q 775 730 786 718 Q 805 696 800 674 Q 761 466 739 452 C 724 429 724 429 729 422 Z" fill="black"></path>
				<path d="M 654 558 Q 691 565 723 569 Q 745 573 737 585 Q 727 598 703 603 Q 684 606 655 598 L 607 585 Q 567 575 531 564 Q 515 560 534 547 Q 540 543 607 551 L 654 558 Z" fill="black"></path>
				<path d="M 650 412 Q 690 419 729 422 C 759 424 765 437 739 452 Q 712 470 652 455 Q 651 455 651 454 C 646 452 634 450 605 444 Q 560 435 521 426 C 492 419 490 392 520 396 L 605 407 L 650 412 Z" fill="red"></path>
				<path d="M 644 134 Q 645 197 646 254 L 647 303 Q 648 360 650 412 L 651 454 Q 652 508 654 558 L 655 598 Q 655 610 659 667 Q 668 691 636 714 C 613 734 570 733 584 706 Q 591 691 599 678 Q 605 654 607 585 L 607 551 Q 607 511 605 444 L 605 407 Q 604 358 602 293 L 601 246 Q 600 192 598 128 C 597 98 644 104 644 134 Z" fill="lightgray"></path>
				<path d="M 646 254 Q 784 282 786 283 Q 795 290 791 300 Q 784 312 754 321 Q 724 328 647 303 L 602 293 Q 598 293 596 292 Q 541 282 475 277 Q 438 273 464 254 Q 500 230 575 243 Q 587 246 601 246 L 646 254 Z" fill="lightgray"></path>
				<path d="M 598 128 Q 471 118 326 103 Q 304 102 319 83 Q 334 68 352 62 Q 374 55 390 60 Q 591 108 887 96 Q 909 96 932 95 Q 953 94 958 103 Q 964 115 947 130 Q 893 172 855 164 Q 774 151 644 134 L 598 128 Z" fill="lightgray"></path>
</g>
		<text x="40" y="140" font-size="128" fill="#999999">8</text></g>
		<g id="id1:id3:id3" transform="matrix(1.0,0,0,1.0,3072,0.0)">			<g stroke="lightgray" stroke-width="4" transform="scale(4, 4)"> <rect x="0" y="0" width="256" height="256" fill="white" stroke-width="4"/></g>
			<g transform="scale(0.92, -0.92) translate(60, -920)">					<path d="M 275 645 Q 315 657 360 667 Q 388 674 392 679 Q 401 688 396 696 Q 389 708 358 714 Q 337 717 245 686 Q 152 668 148 667 Q 111 658 138 643 Q 177 622 233 635 L 275 645 Z" fill="black"></path>
				<path d="M 300 451 Q 321 458 346 465 Q 370 472 374 477 Q 381 484 376 493 Q 369 503 339 508 Q 320 509 302 504 L 250 483 Q 198 467 153 457 Q 119 447 146 434 Q 180 419 251 436 L 300 451 Z" fill="black"></path>
				<path d="M 295 281 Q 298 372 300 451 L 302 504 Q 302 558 306 594 Q 315 618 275 645 C 251 663 224 664 233 635 Q 248 596 250 483 L 251 436 Q 251 369 251 264 C 251 234 294 251 295 281 Z" fill="black"></path>
				<path d="M 251 264 Q 196 245 137 222 Q 118 215 86 213 Q 73 210 72 200 Q 71 187 81 178 Q 106 163 141 147 Q 153 144 164 154 Q 195 182 371 278 Q 396 291 413 306 Q 426 315 426 325 Q 419 329 407 326 Q 355 304 295 281 L 251 264 Z" fill="black"></path>
				<path d="M 455 722 Q 436 734 414 738 Q 407 741 402 735 Q 395 729 404 718 Q 449 648 459 475 Q 460 414 499 386 Q 500 385 503 383 Q 516 380 520 396 L 521 426 Q 520 451 511 481 Q 487 674 488 688 C 487 704 481 707 455 722 Z" fill="black"></path>
				<path d="M 729 422 Q 747 394 764 385 Q 776 376 792 399 Q 814 436 853 633 Q 863 667 890 693 Q 903 706 892 722 Q 876 741 829 770 Q 811 779 725 763 Q 716 762 707 760 Q 686 757 455 722 C 425 718 459 681 488 688 Q 528 698 584 706 L 636 714 Q 682 721 738 726 Q 775 730 786 718 Q 805 696 800 674 Q 761 466 739 452 C 724 429 724 429 729 422 Z" fill="black"></path>
				<path d="M 654 558 Q 691 565 723 569 Q 745 573 737 585 Q 727 598 703 603 Q 684 606 655 598 L 607 585 Q 567 575 531 564 Q 515 560 534 547 Q 540 543 607 551 L 654 558 Z" fill="black"></path>
				<path d="M 650 412 Q 690 419 729 422 C 759 424 765 437 739 452 Q 712 470 652 455 Q 651 455 651 454 C 646 452 634 450 605 444 Q 560 435 521 426 C 492 419 490 392 520 396 L 605 407 L 650 412 Z" fill="black"></path>
				<path d="M 644 134 Q 645 197 646 254 L 647 303 Q 648 360 650 412 L 651 454 Q 652 508 654 558 L 655 598 Q 655 610 659 667 Q 668 691 636 714 C 613 734 570 733 584 706 Q 591 691 599 678 Q 605 654 607 585 L 607 551 Q 607 511 605 444 L 605 407 Q 604 358 602 293 L 601 246 Q 600 192 598 128 C 597 98 644 104 644 134 Z" fill="red"></path>
				<path d="M 646 254 Q 784 282 786 283 Q 795 290 791 300 Q 784 312 754 321 Q 724 328 647 303 L 602 293 Q 598 293 596 292 Q 541 282 475 277 Q 438 273 464 254 Q 500 230 575 243 Q 587 246 601 246 L 646 254 Z" fill="lightgray"></path>
				<path d="M 598 128 Q 471 118 326 103 Q 304 102 319 83 Q 334 68 352 62 Q 374 55 390 60 Q 591 108 887 96 Q 909 96 932 95 Q 953 94 958 103 Q 964 115 947 130 Q 893 172 855 164 Q 774 151 644 134 L 598 128 Z" fill="lightgray"></path>
</g>
		<text x="40" y="140" font-size="128" fill="#999999">9</text></g>
		<g id="id1:id4:id4" transform="matrix(1.0,0,0,1.0,4096,0.0)">			<g stroke="lightgray" stroke-width="4" transform="scale(4, 4)"> <rect x="0" y="0" width="256" height="256" fill="white" stroke-width="4"/></g>
			<g transform="scale(0.92, -0.92) translate(60, -920)">					<path d="M 275 645 Q 315 657 360 667 Q 388 674 392 679 Q 401 688 396 696 Q 389 708 358 714 Q 337 717 245 686 Q 152 668 148 667 Q 111 658 138 643 Q 177 622 233 635 L 275 645 Z" fill="black"></path>
				<path d="M 300 451 Q 321 458 346 465 Q 370 472 374 477 Q 381 484 376 493 Q 369 503 339 508 Q 320 509 302 504 L 250 483 Q 198 467 153 457 Q 119 447 146 434 Q 180 419 251 436 L 300 451 Z" fill="black"></path>
				<path d="M 295 281 Q 298 372 300 451 L 302 504 Q 302 558 306 594 Q 315 618 275 645 C 251 663 224 664 233 635 Q 248 596 250 483 L 251 436 Q 251 369 251 264 C 251 234 294 251 295 281 Z" fill="black"></path>
				<path d="M 251 264 Q 196 245 137 222 Q 118 215 86 213 Q 73 210 72 200 Q 71 187 81 178 Q 106 163 141 147 Q 153 144 164 154 Q 195 182 371 278 Q 396 291 413 306 Q 426 315 426 325 Q 419 329 407 326 Q 355 304 295 281 L 251 264 Z" fill="black"></path>
				<path d="M 455 722 Q 436 734 414 738 Q 407 741 402 735 Q 395 729 404 718 Q 449 648 459 475 Q 460 414 499 386 Q 500 385 503 383 Q 516 380 520 396 L 521 426 Q 520 451 511 481 Q 487 674 488 688 C 487 704 481 707 455 722 Z" fill="black"></path>
				<path d="M 729 422 Q 747 394 764 385 Q 776 376 792 399 Q 814 436 853 633 Q 863 667 890 693 Q 903 706 892 722 Q 876 741 829 770 Q 811 779 725 763 Q 716 762 707 760 Q 686 757 455 722 C 425 718 459 681 488 688 Q 528 698 584 706 L 636 714 Q 682 721 738 726 Q 775 730 786 718 Q 805 696 800 674 Q 761 466 739 452 C 724 429 724 429 729 422 Z" fill="black"></path>
				<path d="M 654 558 Q 691 565 723 569 Q 745 573 737 585 Q 727 598 703 603 Q 684 606 655 598 L 607 585 Q 567 575 531 564 Q 515 560 534 547 Q 540 543 607 551 L 654 558 Z" fill="black"></path>
				<path d="M 650 412 Q 690 419 729 422 C 759 424 765 437 739 452 Q 712 470 652 455 Q 651 455 651 454 C 646 452 634 450 605 444 Q 560 435 521 426 C 492 419 490 392 520 396 L 605 407 L 650 412 Z" fill="black"></path>
				<path d="M 644 134 Q 645 197 646 254 L 647 303 Q 648 360 650 412 L 651 454 Q 652 508 654 558 L 655 598 Q 655 610 659 667 Q 668 691 636 714 C 613 734 570 733 584 706 Q 591 691 599 678 Q 605 654 607 585 L 607 551 Q 607 511 605 444 L 605 407 Q 604 358 602 293 L 601 246 Q 600 192 598 128 C 597 98 644 104 644 134 Z" fill="black"></path>
				<path d="M 646 254 Q 784 282 786 283 Q 795 290 791 300 Q 784 312 754 321 Q 724 328 647 303 L 602 293 Q 598 293 596 292 Q 541 282 475 277 Q 438 273 464 254 Q 500 230 575 243 Q 587 246 601 246 L 646 254 Z" fill="red"></path>
				<path d="M 598 128 Q 471 118 326 103 Q 304 102 319 83 Q 334 68 352 62 Q 374 55 390 60 Q 591 108 887 96 Q 909 96 932 95 Q 953 94 958 103 Q 964 115 947 130 Q 893 172 855 164 Q 774 151 644 134 L 598 128 Z" fill="lightgray"></path>
</g>
		<text x="40" y="140" font-size="128" fill="#999999">10</text></g>
</g>
	<g id="id2:id2" transform="translate(0.0,2048)">
		<g id="id2:id0:id0" transform="matrix(1.0,0,0,1.0,0,0.0)">			<g stroke="lightgray" stroke-width="4" transform="scale(4, 4)"> <rect x="0" y="0" width="256" height="256" fill="white" stroke-width="4"/></g>
			<g transform="scale(0.92, -0.92) translate(60, -920)">					<path d="M 275 645 Q 315 657 360 667 Q 388 674 392 679 Q 401 688 396 696 Q 389 708 358 714 Q 337 717 245 686 Q 152 668 148 667 Q 111 658 138 643 Q 177 622 233 635 L 275 645 Z" fill="black"></path>
				<path d="M 300 451 Q 321 458 346 465 Q 370 472 374 477 Q 381 484 376 493 Q 369 503 339 508 Q 320 509 302 504 L 250 483 Q 198 467 153 457 Q 119 447 146 434 Q 180 419 251 436 L 300 451 Z" fill="black"></path>
				<path d="M 295 281 Q 298 372 300 451 L 302 504 Q 302 558 306 594 Q 315 618 275 645 C 251 663 224 664 233 635 Q 248 596 250 483 L 251 436 Q 251 369 251 264 C 251 234 294 251 295 281 Z" fill="black"></path>
				<path d="M 251 264 Q 196 245 137 222 Q 118 215 86 213 Q 73 210 72 200 Q 71 187 81 178 Q 106 163 141 147 Q 153 144 164 154 Q 195 182 371 278 Q 396 291 413 306 Q 426 315 426 325 Q 419 329 407 326 Q 355 304 295 281 L 251 264 Z" fill="black"></path>
				<path d="M 455 722 Q 436 734 414 738 Q 407 741 402 735 Q 395 729 404 718 Q 449 648 459 475 Q 460 414 499 386 Q 500 385 503 383 Q 516 380 520 396 L 521 426 Q 520 451 511 481 Q 487 674 488 688 C 487 704 481 707 455 722 Z" fill="black"></path>
				<path d="M 729 422 Q 747 394 764 385 Q 776 376 792 399 Q 814 436 853 633 Q 863 667 890 693 Q 903 706 892 722 Q 876 741 829 770 Q 811 779 725 763 Q 716 762 707 760 Q 686 757 455 722 C 425 718 459 681 488 688 Q 528 698 584 706 L 636 714 Q 682 721 738 726 Q 775 730 786 718 Q 805 696 800 674 Q 761 466 739 452 C 724 429 724 429 729 422 Z" fill="black"></path>
				<path d="M 654 558 Q 691 565 723 569 Q 745 573 737 585 Q 727 598 703 603 Q 684 606 655 598 L 607 585 Q 567 575 531 564 Q 515 560 534 547 Q 540 543 607 551 L 654 558 Z" fill="black"></path>
				<path d="M 650 412 Q 690 419 729 422 C 759 424 765 437 739 452 Q 712 470 652 455 Q 651 455 651 454 C 646 452 634 450 605 444 Q 560 435 521 426 C 492 419 490 392 520 396 L 605 407 L 650 412 Z" fill="black"></path>
				<path d="M 644 134 Q 645 197 646 254 L 647 303 Q 648 360 650 412 L 651 454 Q 652 508 654 558 L 655 598 Q 655 610 659 667 Q 668 691 636 714 C 613 734 570 733 584 706 Q 591 691 599 678 Q 605 654 607 585 L 607 551 Q 607 511 605 444 L 605 407 Q 604 358 602 293 L 601 246 Q 600 192 598 128 C 597 98 644 104 644 134 Z" fill="black"></path>
				<path d="M 646 254 Q 784 282 786 283 Q 795 290 791 300 Q 784 312 754 321 Q 724 328 647 303 L 602 293 Q 598 293 596 292 Q 541 282 475 277 Q 438 273 464 254 Q 500 230 575 243 Q 587 246 601 246 L 646 254 Z" fill="black"></path>
				<path d="M 598 128 Q 471 118 326 103 Q 304 102 319 83 Q 334 68 352 62 Q 374 55 390 60 Q 591 108 887 96 Q 909 96 932 95 Q 953 94 958 103 Q 964 115 947 130 Q 893 172 855 164 Q 774 151 644 134 L 598 128 Z" fill="red"></path>
</g>
		<text x="40" y="140" font-size="128" fill="#999999">11</text></g>
		<g id="id2:id1:id1" transform="matrix(1.0,0,0,1.0,1024,0.0)">			<g stroke="white" stroke-width="4" transform="scale(4, 4)"> <rect x="1" y="1" width="255" height="255" fill="white" stroke-width="0"/></g>
</g>
		<g id="id2:id2:id2" transform="matrix(1.0,0,0,1.0,2048,0.0)">			<g stroke="white" stroke-width="4" transform="scale(4, 4)"> <rect x="1" y="1" width="255" height="255" fill="white" stroke-width="0"/></g>
</g>
		<g id="id2:id3:id3" transform="matrix(1.0,0,0,1.0,3072,0.0)">			<g stroke="white" stroke-width="4" transform="scale(4, 4)"> <rect x="1" y="1" width="255" height="255" fill="white" stroke-width="0"/></g>
</g>
		<g id="id2:id4:id4" transform="matrix(1.0,0,0,1.0,4096,0.0)">			<g stroke="white" stroke-width="4" transform="scale(4, 4)"> <rect x="1" y="1" width="255" height="255" fill="white" stroke-width="0"/></g>
</g>
</g>
</svg>
