<?xml version="1.0" standalone="no"?>
<!DOCTYPE svg PUBLIC "-//W3C//DTD SVG 1.1//EN"
 "http://www.w3.org/Graphics/SVG/1.1/DTD/svg11.dtd">
<!-- generate by Handict dictionary app com.asnsami.handict -->

<svg xmlns="http://www.w3.org/2000/svg" xmlns:sodipodi="http://sodipodi.sourceforge.net/DTD/sodipodi-0.dtd" version="1.1" width="640" height="256" viewBox="0 0 5120 2048">
	<g id="id0:id0" transform="translate(0.0,0)">
		<g id="id0:id0:id0" transform="matrix(1.0,0,0,1.0,0,0.0)">			<g stroke="lightgray" stroke-width="4" transform="scale(4, 4)"> <rect x="0" y="0" width="256" height="256" fill="white" stroke-width="4"/></g>
			<g transform="scale(0.92, -0.92) translate(60, -920)">					<path d="M 509 793 Q 540 768 573 738 Q 588 725 604 726 Q 616 726 621 740 Q 625 756 615 787 Q 608 809 574 823 Q 495 850 480 843 Q 474 839 477 825 Q 481 815 509 793 Z" fill="red"></path>
				<path d="M 373 619 Q 425 612 451 616 Q 796 674 814 687 Q 823 694 819 704 Q 812 716 782 725 Q 758 731 659 703 Q 497 664 363 653 Q 362 653 361 652 C 331 648 343 623 373 619 Z" fill="lightgray"></path>
				<path d="M 271 342 Q 235 185 123 16 Q 119 9 116 3 Q 113 -9 124 -6 Q 157 0 236 117 Q 251 144 268 176 Q 332 320 358 537 Q 361 609 373 619 C 381 637 381 637 361 652 Q 315 691 289 682 Q 276 675 283 660 Q 304 632 299 575 Q 284 406 279 380 Q 278 379 278 376 L 271 342 Z" fill="lightgray"></path>
				<path d="M 156 530 Q 189 460 214 439 Q 227 432 239 442 Q 249 452 251 468 Q 252 493 240 509 Q 225 528 179 562 Q 166 572 155 571 Q 149 572 148 560 Q 147 548 156 530 Z" fill="lightgray"></path>
				<path d="M 278 376 Q 107 297 74 293 Q 62 289 62 280 Q 62 267 72 261 Q 96 249 129 236 Q 139 235 150 245 Q 168 269 270 341 Q 270 342 271 342 C 295 360 305 389 278 376 Z" fill="lightgray"></path>
				<path d="M 524 441 Q 560 499 585 519 Q 594 528 590 540 Q 587 550 563 572 Q 541 590 524 590 Q 508 589 514 570 Q 523 548 514 530 Q 489 470 448 415 Q 411 361 359 303 Q 350 294 348 289 Q 344 279 357 281 Q 394 287 506 418 L 524 441 Z" fill="lightgray"></path>
				<path d="M 629 253 Q 665 305 703 375 Q 719 403 745 420 Q 760 427 760 437 Q 760 450 732 466 Q 698 490 683 490 Q 671 489 660 481 Q 573 448 526 443 Q 525 443 524 441 C 495 434 477 424 506 418 Q 548 403 620 433 Q 642 440 651 434 Q 658 430 637 378 Q 558 153 291 33 Q 281 29 282 24 Q 283 20 290 20 Q 411 16 571 178 Q 574 185 614 231 L 629 253 Z" fill="lightgray"></path>
				<path d="M 614 231 Q 687 125 782 12 Q 801 -7 830 -5 Q 930 -1 962 6 Q 971 7 972 13 Q 973 17 959 25 Q 811 86 756 135 Q 696 186 629 253 C 608 274 597 256 614 231 Z" fill="lightgray"></path>
</g>
		<text x="40" y="140" font-size="128" fill="#999999">1</text></g>
		<g id="id0:id1:id1" transform="matrix(1.0,0,0,1.0,1024,0.0)">			<g stroke="lightgray" stroke-width="4" transform="scale(4, 4)"> <rect x="0" y="0" width="256" height="256" fill="white" stroke-width="4"/></g>
			<g transform="scale(0.92, -0.92) translate(60, -920)">					<path d="M 509 793 Q 540 768 573 738 Q 588 725 604 726 Q 616 726 621 740 Q 625 756 615 787 Q 608 809 574 823 Q 495 850 480 843 Q 474 839 477 825 Q 481 815 509 793 Z" fill="black"></path>
				<path d="M 373 619 Q 425 612 451 616 Q 796 674 814 687 Q 823 694 819 704 Q 812 716 782 725 Q 758 731 659 703 Q 497 664 363 653 Q 362 653 361 652 C 331 648 343 623 373 619 Z" fill="red"></path>
				<path d="M 271 342 Q 235 185 123 16 Q 119 9 116 3 Q 113 -9 124 -6 Q 157 0 236 117 Q 251 144 268 176 Q 332 320 358 537 Q 361 609 373 619 C 381 637 381 637 361 652 Q 315 691 289 682 Q 276 675 283 660 Q 304 632 299 575 Q 284 406 279 380 Q 278 379 278 376 L 271 342 Z" fill="lightgray"></path>
				<path d="M 156 530 Q 189 460 214 439 Q 227 432 239 442 Q 249 452 251 468 Q 252 493 240 509 Q 225 528 179 562 Q 166 572 155 571 Q 149 572 148 560 Q 147 548 156 530 Z" fill="lightgray"></path>
				<path d="M 278 376 Q 107 297 74 293 Q 62 289 62 280 Q 62 267 72 261 Q 96 249 129 236 Q 139 235 150 245 Q 168 269 270 341 Q 270 342 271 342 C 295 360 305 389 278 376 Z" fill="lightgray"></path>
				<path d="M 524 441 Q 560 499 585 519 Q 594 528 590 540 Q 587 550 563 572 Q 541 590 524 590 Q 508 589 514 570 Q 523 548 514 530 Q 489 470 448 415 Q 411 361 359 303 Q 350 294 348 289 Q 344 279 357 281 Q 394 287 506 418 L 524 441 Z" fill="lightgray"></path>
				<path d="M 629 253 Q 665 305 703 375 Q 719 403 745 420 Q 760 427 760 437 Q 760 450 732 466 Q 698 490 683 490 Q 671 489 660 481 Q 573 448 526 443 Q 525 443 524 441 C 495 434 477 424 506 418 Q 548 403 620 433 Q 642 440 651 434 Q 658 430 637 378 Q 558 153 291 33 Q 281 29 282 24 Q 283 20 290 20 Q 411 16 571 178 Q 574 185 614 231 L 629 253 Z" fill="lightgray"></path>
				<path d="M 614 231 Q 687 125 782 12 Q 801 -7 830 -5 Q 930 -1 962 6 Q 971 7 972 13 Q 973 17 959 25 Q 811 86 756 135 Q 696 186 629 253 C 608 274 597 256 614 231 Z" fill="lightgray"></path>
</g>
		<text x="40" y="140" font-size="128" fill="#999999">2</text></g>
		<g id="id0:id2:id2" transform="matrix(1.0,0,0,1.0,2048,0.0)">			<g stroke="lightgray" stroke-width="4" transform="scale(4, 4)"> <rect x="0" y="0" width="256" height="256" fill="white" stroke-width="4"/></g>
			<g transform="scale(0.92, -0.92) translate(60, -920)">					<path d="M 509 793 Q 540 768 573 738 Q 588 725 604 726 Q 616 726 621 740 Q 625 756 615 787 Q 608 809 574 823 Q 495 850 480 843 Q 474 839 477 825 Q 481 815 509 793 Z" fill="black"></path>
				<path d="M 373 619 Q 425 612 451 616 Q 796 674 814 687 Q 823 694 819 704 Q 812 716 782 725 Q 758 731 659 703 Q 497 664 363 653 Q 362 653 361 652 C 331 648 343 623 373 619 Z" fill="black"></path>
				<path d="M 271 342 Q 235 185 123 16 Q 119 9 116 3 Q 113 -9 124 -6 Q 157 0 236 117 Q 251 144 268 176 Q 332 320 358 537 Q 361 609 373 619 C 381 637 381 637 361 652 Q 315 691 289 682 Q 276 675 283 660 Q 304 632 299 575 Q 284 406 279 380 Q 278 379 278 376 L 271 342 Z" fill="red"></path>
				<path d="M 156 530 Q 189 460 214 439 Q 227 432 239 442 Q 249 452 251 468 Q 252 493 240 509 Q 225 528 179 562 Q 166 572 155 571 Q 149 572 148 560 Q 147 548 156 530 Z" fill="lightgray"></path>
				<path d="M 278 376 Q 107 297 74 293 Q 62 289 62 280 Q 62 267 72 261 Q 96 249 129 236 Q 139 235 150 245 Q 168 269 270 341 Q 270 342 271 342 C 295 360 305 389 278 376 Z" fill="lightgray"></path>
				<path d="M 524 441 Q 560 499 585 519 Q 594 528 590 540 Q 587 550 563 572 Q 541 590 524 590 Q 508 589 514 570 Q 523 548 514 530 Q 489 470 448 415 Q 411 361 359 303 Q 350 294 348 289 Q 344 279 357 281 Q 394 287 506 418 L 524 441 Z" fill="lightgray"></path>
				<path d="M 629 253 Q 665 305 703 375 Q 719 403 745 420 Q 760 427 760 437 Q 760 450 732 466 Q 698 490 683 490 Q 671 489 660 481 Q 573 448 526 443 Q 525 443 524 441 C 495 434 477 424 506 418 Q 548 403 620 433 Q 642 440 651 434 Q 658 430 637 378 Q 558 153 291 33 Q 281 29 282 24 Q 283 20 290 20 Q 411 16 571 178 Q 574 185 614 231 L 629 253 Z" fill="lightgray"></path>
				<path d="M 614 231 Q 687 125 782 12 Q 801 -7 830 -5 Q 930 -1 962 6 Q 971 7 972 13 Q 973 17 959 25 Q 811 86 756 135 Q 696 186 629 253 C 608 274 597 256 614 231 Z" fill="lightgray"></path>
</g>
		<text x="40" y="140" font-size="128" fill="#999999">3</text></g>
		<g id="id0:id3:id3" transform="matrix(1.0,0,0,1.0,3072,0.0)">			<g stroke="lightgray" stroke-width="4" transform="scale(4, 4)"> <rect x="0" y="0" width="256" height="256" fill="white" stroke-width="4"/></g>
			<g transform="scale(0.92, -0.92) translate(60, -920)">					<path d="M 509 793 Q 540 768 573 738 Q 588 725 604 726 Q 616 726 621 740 Q 625 756 615 787 Q 608 809 574 823 Q 495 850 480 843 Q 474 839 477 825 Q 481 815 509 793 Z" fill="black"></path>
				<path d="M 373 619 Q 425 612 451 616 Q 796 674 814 687 Q 823 694 819 704 Q 812 716 782 725 Q 758 731 659 703 Q 497 664 363 653 Q 362 653 361 652 C 331 648 343 623 373 619 Z" fill="black"></path>
				<path d="M 271 342 Q 235 185 123 16 Q 119 9 116 3 Q 113 -9 124 -6 Q 157 0 236 117 Q 251 144 268 176 Q 332 320 358 537 Q 361 609 373 619 C 381 637 381 637 361 652 Q 315 691 289 682 Q 276 675 283 660 Q 304 632 299 575 Q 284 406 279 380 Q 278 379 278 376 L 271 342 Z" fill="black"></path>
				<path d="M 156 530 Q 189 460 214 439 Q 227 432 239 442 Q 249 452 251 468 Q 252 493 240 509 Q 225 528 179 562 Q 166 572 155 571 Q 149 572 148 560 Q 147 548 156 530 Z" fill="red"></path>
				<path d="M 278 376 Q 107 297 74 293 Q 62 289 62 280 Q 62 267 72 261 Q 96 249 129 236 Q 139 235 150 245 Q 168 269 270 341 Q 270 342 271 342 C 295 360 305 389 278 376 Z" fill="lightgray"></path>
				<path d="M 524 441 Q 560 499 585 519 Q 594 528 590 540 Q 587 550 563 572 Q 541 590 524 590 Q 508 589 514 570 Q 523 548 514 530 Q 489 470 448 415 Q 411 361 359 303 Q 350 294 348 289 Q 344 279 357 281 Q 394 287 506 418 L 524 441 Z" fill="lightgray"></path>
				<path d="M 629 253 Q 665 305 703 375 Q 719 403 745 420 Q 760 427 760 437 Q 760 450 732 466 Q 698 490 683 490 Q 671 489 660 481 Q 573 448 526 443 Q 525 443 524 441 C 495 434 477 424 506 418 Q 548 403 620 433 Q 642 440 651 434 Q 658 430 637 378 Q 558 153 291 33 Q 281 29 282 24 Q 283 20 290 20 Q 411 16 571 178 Q 574 185 614 231 L 629 253 Z" fill="lightgray"></path>
				<path d="M 614 231 Q 687 125 782 12 Q 801 -7 830 -5 Q 930 -1 962 6 Q 971 7 972 13 Q 973 17 959 25 Q 811 86 756 135 Q 696 186 629 253 C 608 274 597 256 614 231 Z" fill="lightgray"></path>
</g>
		<text x="40" y="140" font-size="128" fill="#999999">4</text></g>
		<g id="id0:id4:id4" transform="matrix(1.0,0,0,1.0,4096,0.0)">			<g stroke="lightgray" stroke-width="4" transform="scale(4, 4)"> <rect x="0" y="0" width="256" height="256" fill="white" stroke-width="4"/></g>
			<g transform="scale(0.92, -0.92) translate(60, -920)">					<path d="M 509 793 Q 540 768 573 738 Q 588 725 604 726 Q 616 726 621 740 Q 625 756 615 787 Q 608 809 574 823 Q 495 850 480 843 Q 474 839 477 825 Q 481 815 509 793 Z" fill="black"></path>
				<path d="M 373 619 Q 425 612 451 616 Q 796 674 814 687 Q 823 694 819 704 Q 812 716 782 725 Q 758 731 659 703 Q 497 664 363 653 Q 362 653 361 652 C 331 648 343 623 373 619 Z" fill="black"></path>
				<path d="M 271 342 Q 235 185 123 16 Q 119 9 116 3 Q 113 -9 124 -6 Q 157 0 236 117 Q 251 144 268 176 Q 332 320 358 537 Q 361 609 373 619 C 381 637 381 637 361 652 Q 315 691 289 682 Q 276 675 283 660 Q 304 632 299 575 Q 284 406 279 380 Q 278 379 278 376 L 271 342 Z" fill="black"></path>
				<path d="M 156 530 Q 189 460 214 439 Q 227 432 239 442 Q 249 452 251 468 Q 252 493 240 509 Q 225 528 179 562 Q 166 572 155 571 Q 149 572 148 560 Q 147 548 156 530 Z" fill="black"></path>
				<path d="M 278 376 Q 107 297 74 293 Q 62 289 62 280 Q 62 267 72 261 Q 96 249 129 236 Q 139 235 150 245 Q 168 269 270 341 Q 270 342 271 342 C 295 360 305 389 278 376 Z" fill="red"></path>
				<path d="M 524 441 Q 560 499 585 519 Q 594 528 590 540 Q 587 550 563 572 Q 541 590 524 590 Q 508 589 514 570 Q 523 548 514 530 Q 489 470 448 415 Q 411 361 359 303 Q 350 294 348 289 Q 344 279 357 281 Q 394 287 506 418 L 524 441 Z" fill="lightgray"></path>
				<path d="M 629 253 Q 665 305 703 375 Q 719 403 745 420 Q 760 427 760 437 Q 760 450 732 466 Q 698 490 683 490 Q 671 489 660 481 Q 573 448 526 443 Q 525 443 524 441 C 495 434 477 424 506 418 Q 548 403 620 433 Q 642 440 651 434 Q 658 430 637 378 Q 558 153 291 33 Q 281 29 282 24 Q 283 20 290 20 Q 411 16 571 178 Q 574 185 614 231 L 629 253 Z" fill="lightgray"></path>
				<path d="M 614 231 Q 687 125 782 12 Q 801 -7 830 -5 Q 930 -1 962 6 Q 971 7 972 13 Q 973 17 959 25 Q 811 86 756 135 Q 696 186 629 253 C 608 274 597 256 614 231 Z" fill="lightgray"></path>
</g>
		<text x="40" y="140" font-size="128" fill="#999999">5</text></g>
</g>
	<g id="id1:id1" transform="translate(0.0,1024)">
		<g id="id1:id0:id0" transform="matrix(1.0,0,0,1.0,0,0.0)">			<g stroke="lightgray" stroke-width="4" transform="scale(4, 4)"> <rect x="0" y="0" width="256" height="256" fill="white" stroke-width="4"/></g>
			<g transform="scale(0.92, -0.92) translate(60, -920)">					<path d="M 509 793 Q 540 768 573 738 Q 588 725 604 726 Q 616 726 621 740 Q 625 756 615 787 Q 608 809 574 823 Q 495 850 480 843 Q 474 839 477 825 Q 481 815 509 793 Z" fill="black"></path>
				<path d="M 373 619 Q 425 612 451 616 Q 796 674 814 687 Q 823 694 819 704 Q 812 716 782 725 Q 758 731 659 703 Q 497 664 363 653 Q 362 653 361 652 C 331 648 343 623 373 619 Z" fill="black"></path>
				<path d="M 271 342 Q 235 185 123 16 Q 119 9 116 3 Q 113 -9 124 -6 Q 157 0 236 117 Q 251 144 268 176 Q 332 320 358 537 Q 361 609 373 619 C 381 637 381 637 361 652 Q 315 691 289 682 Q 276 675 283 660 Q 304 632 299 575 Q 284 406 279 380 Q 278 379 278 376 L 271 342 Z" fill="black"></path>
				<path d="M 156 530 Q 189 460 214 439 Q 227 432 239 442 Q 249 452 251 468 Q 252 493 240 509 Q 225 528 179 562 Q 166 572 155 571 Q 149 572 148 560 Q 147 548 156 530 Z" fill="black"></path>
				<path d="M 278 376 Q 107 297 74 293 Q 62 289 62 280 Q 62 267 72 261 Q 96 249 129 236 Q 139 235 150 245 Q 168 269 270 341 Q 270 342 271 342 C 295 360 305 389 278 376 Z" fill="black"></path>
				<path d="M 524 441 Q 560 499 585 519 Q 594 528 590 540 Q 587 550 563 572 Q 541 590 524 590 Q 508 589 514 570 Q 523 548 514 530 Q 489 470 448 415 Q 411 361 359 303 Q 350 294 348 289 Q 344 279 357 281 Q 394 287 506 418 L 524 441 Z" fill="red"></path>
				<path d="M 629 253 Q 665 305 703 375 Q 719 403 745 420 Q 760 427 760 437 Q 760 450 732 466 Q 698 490 683 490 Q 671 489 660 481 Q 573 448 526 443 Q 525 443 524 441 C 495 434 477 424 506 418 Q 548 403 620 433 Q 642 440 651 434 Q 658 430 637 378 Q 558 153 291 33 Q 281 29 282 24 Q 283 20 290 20 Q 411 16 571 178 Q 574 185 614 231 L 629 253 Z" fill="lightgray"></path>
				<path d="M 614 231 Q 687 125 782 12 Q 801 -7 830 -5 Q 930 -1 962 6 Q 971 7 972 13 Q 973 17 959 25 Q 811 86 756 135 Q 696 186 629 253 C 608 274 597 256 614 231 Z" fill="lightgray"></path>
</g>
		<text x="40" y="140" font-size="128" fill="#999999">6</text></g>
		<g id="id1:id1:id1" transform="matrix(1.0,0,0,1.0,1024,0.0)">			<g stroke="lightgray" stroke-width="4" transform="scale(4, 4)"> <rect x="0" y="0" width="256" height="256" fill="white" stroke-width="4"/></g>
			<g transform="scale(0.92, -0.92) translate(60, -920)">					<path d="M 509 793 Q 540 768 573 738 Q 588 725 604 726 Q 616 726 621 740 Q 625 756 615 787 Q 608 809 574 823 Q 495 850 480 843 Q 474 839 477 825 Q 481 815 509 793 Z" fill="black"></path>
				<path d="M 373 619 Q 425 612 451 616 Q 796 674 814 687 Q 823 694 819 704 Q 812 716 782 725 Q 758 731 659 703 Q 497 664 363 653 Q 362 653 361 652 C 331 648 343 623 373 619 Z" fill="black"></path>
				<path d="M 271 342 Q 235 185 123 16 Q 119 9 116 3 Q 113 -9 124 -6 Q 157 0 236 117 Q 251 144 268 176 Q 332 320 358 537 Q 361 609 373 619 C 381 637 381 637 361 652 Q 315 691 289 682 Q 276 675 283 660 Q 304 632 299 575 Q 284 406 279 380 Q 278 379 278 376 L 271 342 Z" fill="black"></path>
				<path d="M 156 530 Q 189 460 214 439 Q 227 432 239 442 Q 249 452 251 468 Q 252 493 240 509 Q 225 528 179 562 Q 166 572 155 571 Q 149 572 148 560 Q 147 548 156 530 Z" fill="black"></path>
				<path d="M 278 376 Q 107 297 74 293 Q 62 289 62 280 Q 62 267 72 261 Q 96 249 129 236 Q 139 235 150 245 Q 168 269 270 341 Q 270 342 271 342 C 295 360 305 389 278 376 Z" fill="black"></path>
				<path d="M 524 441 Q 560 499 585 519 Q 594 528 590 540 Q 587 550 563 572 Q 541 590 524 590 Q 508 589 514 570 Q 523 548 514 530 Q 489 470 448 415 Q 411 361 359 303 Q 350 294 348 289 Q 344 279 357 281 Q 394 287 506 418 L 524 441 Z" fill="black"></path>
				<path d="M 629 253 Q 665 305 703 375 Q 719 403 745 420 Q 760 427 760 437 Q 760 450 732 466 Q 698 490 683 490 Q 671 489 660 481 Q 573 448 526 443 Q 525 443 524 441 C 495 434 477 424 506 418 Q 548 403 620 433 Q 642 440 651 434 Q 658 430 637 378 Q 558 153 291 33 Q 281 29 282 24 Q 283 20 290 20 Q 411 16 571 178 Q 574 185 614 231 L 629 253 Z" fill="red"></path>
				<path d="M 614 231 Q 687 125 782 12 Q 801 -7 830 -5 Q 930 -1 962 6 Q 971 7 972 13 Q 973 17 959 25 Q 811 86 756 135 Q 696 186 629 253 C 608 274 597 256 614 231 Z" fill="lightgray"></path>
</g>
		<text x="40" y="140" font-size="128" fill="#999999">7</text></g>
		<g id="id1:id2:id2" transform="matrix(1.0,0,0,1.0,2048,0.0)">			<g stroke="lightgray" stroke-width="4" transform="scale(4, 4)"> <rect x="0" y="0" width="256" height="256" fill="white" stroke-width="4"/></g>
			<g transform="scale(0.92, -0.92) translate(60, -920)">					<path d="M 509 793 Q 540 768 573 738 Q 588 725 604 726 Q 616 726 621 740 Q 625 756 615 787 Q 608 809 574 823 Q 495 850 480 843 Q 474 839 477 825 Q 481 815 509 793 Z" fill="black"></path>
				<path d="M 373 619 Q 425 612 451 616 Q 796 674 814 687 Q 823 694 819 704 Q 812 716 782 725 Q 758 731 659 703 Q 497 664 363 653 Q 362 653 361 652 C 331 648 343 623 373 619 Z" fill="black"></path>
				<path d="M 271 342 Q 235 185 123 16 Q 119 9 116 3 Q 113 -9 124 -6 Q 157 0 236 117 Q 251 144 268 176 Q 332 320 358 537 Q 361 609 373 619 C 381 637 381 637 361 652 Q 315 691 289 682 Q 276 675 283 660 Q 304 632 299 575 Q 284 406 279 380 Q 278 379 278 376 L 271 342 Z" fill="black"></path>
				<path d="M 156 530 Q 189 460 214 439 Q 227 432 239 442 Q 249 452 251 468 Q 252 493 240 509 Q 225 528 179 562 Q 166 572 155 571 Q 149 572 148 560 Q 147 548 156 530 Z" fill="black"></path>
				<path d="M 278 376 Q 107 297 74 293 Q 62 289 62 280 Q 62 267 72 261 Q 96 249 129 236 Q 139 235 150 245 Q 168 269 270 341 Q 270 342 271 342 C 295 360 305 389 278 376 Z" fill="black"></path>
				<path d="M 524 441 Q 560 499 585 519 Q 594 528 590 540 Q 587 550 563 572 Q 541 590 524 590 Q 508 589 514 570 Q 523 548 514 530 Q 489 470 448 415 Q 411 361 359 303 Q 350 294 348 289 Q 344 279 357 281 Q 394 287 506 418 L 524 441 Z" fill="black"></path>
				<path d="M 629 253 Q 665 305 703 375 Q 719 403 745 420 Q 760 427 760 437 Q 760 450 732 466 Q 698 490 683 490 Q 671 489 660 481 Q 573 448 526 443 Q 525 443 524 441 C 495 434 477 424 506 418 Q 548 403 620 433 Q 642 440 651 434 Q 658 430 637 378 Q 558 153 291 33 Q 281 29 282 24 Q 283 20 290 20 Q 411 16 571 178 Q 574 185 614 231 L 629 253 Z" fill="black"></path>
				<path d="M 614 231 Q 687 125 782 12 Q 801 -7 830 -5 Q 930 -1 962 6 Q 971 7 972 13 Q 973 17 959 25 Q 811 86 756 135 Q 696 186 629 253 C 608 274 597 256 614 231 Z" fill="red"></path>
</g>
		<text x="40" y="140" font-size="128" fill="#999999">8</text></g>
		<g id="id1:id3:id3" transform="matrix(1.0,0,0,1.0,3072,0.0)">			<g stroke="white" stroke-width="4" transform="scale(4, 4)"> <rect x="1" y="1" width="255" height="255" fill="white" stroke-width="0"/></g>
</g>
		<g id="id1:id4:id4" transform="matrix(1.0,0,0,1.0,4096,0.0)">			<g stroke="white" stroke-width="4" transform="scale(4, 4)"> <rect x="1" y="1" width="255" height="255" fill="white" stroke-width="0"/></g>
</g>
</g>
</svg>
