<?xml version="1.0" standalone="no"?>
<!DOCTYPE svg PUBLIC "-//W3C//DTD SVG 1.1//EN"
 "http://www.w3.org/Graphics/SVG/1.1/DTD/svg11.dtd">
<!-- generate by Japanese dictionary app com.asnsami.kanjidictionary -->

<svg xmlns="http://www.w3.org/2000/svg" xmlns:sodipodi="http://sodipodi.sourceforge.net/DTD/sodipodi-0.dtd" version="1.1" width="640" height="256" viewBox="0 0 5120 2048">
	<g id="id0:id0" transform="translate(0.0,0)">
		<g id="id0:id0:id0" transform="matrix(1.0,0,0,1.0,0,0.0)">			<g stroke="lightgray" stroke-width="4" transform="scale(4, 4)"> <rect x="0" y="0" width="256" height="256" fill="white" stroke-width="4"/></g>
			<g transform="scale(0.92, -0.92) translate(60, -920)">					<path d="M 504 798 Q 538 773 573 743 Q 589 731 605 733 Q 617 734 621 748 Q 625 764 613 795 Q 606 817 569 831 Q 485 856 472 847 Q 466 843 469 829 Q 473 819 504 798 Z" fill="red"></path>
				<path d="M 374 607 Q 419 586 472 596 Q 602 620 739 644 Q 800 657 810 665 Q 820 674 815 683 Q 808 696 777 705 Q 744 712 712 700 Q 640 678 564 660 Q 479 642 380 635 Q 368 634 364 631 C 335 623 346 618 374 607 Z" fill="lightgray"></path>
				<path d="M 254 305 Q 206 149 97 -7 Q 90 -14 88 -21 Q 85 -33 97 -31 Q 127 -25 215 92 Q 231 119 250 151 Q 323 305 360 557 Q 364 576 369 594 Q 373 601 374 607 C 378 619 378 619 364 631 Q 349 647 322 660 Q 301 673 287 668 Q 274 661 281 645 Q 299 612 295 558 Q 292 542 291 522 Q 285 447 264 343 L 254 305 Z" fill="lightgray"></path>
				<path d="M 146 533 Q 173 473 200 450 Q 215 443 227 454 Q 237 464 239 482 Q 239 524 187 556 Q 156 577 143 575 Q 137 576 136 563 Q 135 551 146 533 Z" fill="lightgray"></path>
				<path d="M 264 343 Q 89 271 60 269 Q 48 266 47 256 Q 47 243 56 237 Q 80 224 113 210 Q 123 209 134 218 Q 155 240 254 305 C 279 321 292 354 264 343 Z" fill="lightgray"></path>
				<path d="M 618 203 Q 639 464 651 510 Q 654 520 634 536 Q 598 555 574 559 Q 558 563 550 554 Q 543 547 551 531 Q 572 501 572 481 Q 581 348 575 194 C 574 164 616 173 618 203 Z" fill="lightgray"></path>
				<path d="M 788 230 Q 697 220 618 203 L 575 194 Q 505 181 446 161 Q 425 157 430 181 Q 436 227 442 276 Q 446 301 436 317 Q 402 359 372 354 Q 360 350 368 329 Q 393 274 383 218 Q 376 166 355 142 Q 336 123 343 109 Q 356 93 373 81 Q 388 72 400 84 Q 421 109 553 145 Q 736 202 784 187 Q 785 188 788 188 C 818 185 818 233 788 230 Z" fill="lightgray"></path>
				<path d="M 788 188 Q 782 125 800 93 Q 803 86 808 79 Q 820 63 831 77 Q 853 110 845 196 Q 842 319 851 348 Q 858 364 845 378 Q 823 391 785 406 Q 772 412 759 404 Q 752 398 756 385 Q 783 355 788 230 L 788 188 Z" fill="lightgray"></path>
</g>
		<text x="40" y="140" font-size="128" fill="#999999">1</text></g>
		<g id="id0:id1:id1" transform="matrix(1.0,0,0,1.0,1024,0.0)">			<g stroke="lightgray" stroke-width="4" transform="scale(4, 4)"> <rect x="0" y="0" width="256" height="256" fill="white" stroke-width="4"/></g>
			<g transform="scale(0.92, -0.92) translate(60, -920)">					<path d="M 504 798 Q 538 773 573 743 Q 589 731 605 733 Q 617 734 621 748 Q 625 764 613 795 Q 606 817 569 831 Q 485 856 472 847 Q 466 843 469 829 Q 473 819 504 798 Z" fill="black"></path>
				<path d="M 374 607 Q 419 586 472 596 Q 602 620 739 644 Q 800 657 810 665 Q 820 674 815 683 Q 808 696 777 705 Q 744 712 712 700 Q 640 678 564 660 Q 479 642 380 635 Q 368 634 364 631 C 335 623 346 618 374 607 Z" fill="red"></path>
				<path d="M 254 305 Q 206 149 97 -7 Q 90 -14 88 -21 Q 85 -33 97 -31 Q 127 -25 215 92 Q 231 119 250 151 Q 323 305 360 557 Q 364 576 369 594 Q 373 601 374 607 C 378 619 378 619 364 631 Q 349 647 322 660 Q 301 673 287 668 Q 274 661 281 645 Q 299 612 295 558 Q 292 542 291 522 Q 285 447 264 343 L 254 305 Z" fill="lightgray"></path>
				<path d="M 146 533 Q 173 473 200 450 Q 215 443 227 454 Q 237 464 239 482 Q 239 524 187 556 Q 156 577 143 575 Q 137 576 136 563 Q 135 551 146 533 Z" fill="lightgray"></path>
				<path d="M 264 343 Q 89 271 60 269 Q 48 266 47 256 Q 47 243 56 237 Q 80 224 113 210 Q 123 209 134 218 Q 155 240 254 305 C 279 321 292 354 264 343 Z" fill="lightgray"></path>
				<path d="M 618 203 Q 639 464 651 510 Q 654 520 634 536 Q 598 555 574 559 Q 558 563 550 554 Q 543 547 551 531 Q 572 501 572 481 Q 581 348 575 194 C 574 164 616 173 618 203 Z" fill="lightgray"></path>
				<path d="M 788 230 Q 697 220 618 203 L 575 194 Q 505 181 446 161 Q 425 157 430 181 Q 436 227 442 276 Q 446 301 436 317 Q 402 359 372 354 Q 360 350 368 329 Q 393 274 383 218 Q 376 166 355 142 Q 336 123 343 109 Q 356 93 373 81 Q 388 72 400 84 Q 421 109 553 145 Q 736 202 784 187 Q 785 188 788 188 C 818 185 818 233 788 230 Z" fill="lightgray"></path>
				<path d="M 788 188 Q 782 125 800 93 Q 803 86 808 79 Q 820 63 831 77 Q 853 110 845 196 Q 842 319 851 348 Q 858 364 845 378 Q 823 391 785 406 Q 772 412 759 404 Q 752 398 756 385 Q 783 355 788 230 L 788 188 Z" fill="lightgray"></path>
</g>
		<text x="40" y="140" font-size="128" fill="#999999">2</text></g>
		<g id="id0:id2:id2" transform="matrix(1.0,0,0,1.0,2048,0.0)">			<g stroke="lightgray" stroke-width="4" transform="scale(4, 4)"> <rect x="0" y="0" width="256" height="256" fill="white" stroke-width="4"/></g>
			<g transform="scale(0.92, -0.92) translate(60, -920)">					<path d="M 504 798 Q 538 773 573 743 Q 589 731 605 733 Q 617 734 621 748 Q 625 764 613 795 Q 606 817 569 831 Q 485 856 472 847 Q 466 843 469 829 Q 473 819 504 798 Z" fill="black"></path>
				<path d="M 374 607 Q 419 586 472 596 Q 602 620 739 644 Q 800 657 810 665 Q 820 674 815 683 Q 808 696 777 705 Q 744 712 712 700 Q 640 678 564 660 Q 479 642 380 635 Q 368 634 364 631 C 335 623 346 618 374 607 Z" fill="black"></path>
				<path d="M 254 305 Q 206 149 97 -7 Q 90 -14 88 -21 Q 85 -33 97 -31 Q 127 -25 215 92 Q 231 119 250 151 Q 323 305 360 557 Q 364 576 369 594 Q 373 601 374 607 C 378 619 378 619 364 631 Q 349 647 322 660 Q 301 673 287 668 Q 274 661 281 645 Q 299 612 295 558 Q 292 542 291 522 Q 285 447 264 343 L 254 305 Z" fill="red"></path>
				<path d="M 146 533 Q 173 473 200 450 Q 215 443 227 454 Q 237 464 239 482 Q 239 524 187 556 Q 156 577 143 575 Q 137 576 136 563 Q 135 551 146 533 Z" fill="lightgray"></path>
				<path d="M 264 343 Q 89 271 60 269 Q 48 266 47 256 Q 47 243 56 237 Q 80 224 113 210 Q 123 209 134 218 Q 155 240 254 305 C 279 321 292 354 264 343 Z" fill="lightgray"></path>
				<path d="M 618 203 Q 639 464 651 510 Q 654 520 634 536 Q 598 555 574 559 Q 558 563 550 554 Q 543 547 551 531 Q 572 501 572 481 Q 581 348 575 194 C 574 164 616 173 618 203 Z" fill="lightgray"></path>
				<path d="M 788 230 Q 697 220 618 203 L 575 194 Q 505 181 446 161 Q 425 157 430 181 Q 436 227 442 276 Q 446 301 436 317 Q 402 359 372 354 Q 360 350 368 329 Q 393 274 383 218 Q 376 166 355 142 Q 336 123 343 109 Q 356 93 373 81 Q 388 72 400 84 Q 421 109 553 145 Q 736 202 784 187 Q 785 188 788 188 C 818 185 818 233 788 230 Z" fill="lightgray"></path>
				<path d="M 788 188 Q 782 125 800 93 Q 803 86 808 79 Q 820 63 831 77 Q 853 110 845 196 Q 842 319 851 348 Q 858 364 845 378 Q 823 391 785 406 Q 772 412 759 404 Q 752 398 756 385 Q 783 355 788 230 L 788 188 Z" fill="lightgray"></path>
</g>
		<text x="40" y="140" font-size="128" fill="#999999">3</text></g>
		<g id="id0:id3:id3" transform="matrix(1.0,0,0,1.0,3072,0.0)">			<g stroke="lightgray" stroke-width="4" transform="scale(4, 4)"> <rect x="0" y="0" width="256" height="256" fill="white" stroke-width="4"/></g>
			<g transform="scale(0.92, -0.92) translate(60, -920)">					<path d="M 504 798 Q 538 773 573 743 Q 589 731 605 733 Q 617 734 621 748 Q 625 764 613 795 Q 606 817 569 831 Q 485 856 472 847 Q 466 843 469 829 Q 473 819 504 798 Z" fill="black"></path>
				<path d="M 374 607 Q 419 586 472 596 Q 602 620 739 644 Q 800 657 810 665 Q 820 674 815 683 Q 808 696 777 705 Q 744 712 712 700 Q 640 678 564 660 Q 479 642 380 635 Q 368 634 364 631 C 335 623 346 618 374 607 Z" fill="black"></path>
				<path d="M 254 305 Q 206 149 97 -7 Q 90 -14 88 -21 Q 85 -33 97 -31 Q 127 -25 215 92 Q 231 119 250 151 Q 323 305 360 557 Q 364 576 369 594 Q 373 601 374 607 C 378 619 378 619 364 631 Q 349 647 322 660 Q 301 673 287 668 Q 274 661 281 645 Q 299 612 295 558 Q 292 542 291 522 Q 285 447 264 343 L 254 305 Z" fill="black"></path>
				<path d="M 146 533 Q 173 473 200 450 Q 215 443 227 454 Q 237 464 239 482 Q 239 524 187 556 Q 156 577 143 575 Q 137 576 136 563 Q 135 551 146 533 Z" fill="red"></path>
				<path d="M 264 343 Q 89 271 60 269 Q 48 266 47 256 Q 47 243 56 237 Q 80 224 113 210 Q 123 209 134 218 Q 155 240 254 305 C 279 321 292 354 264 343 Z" fill="lightgray"></path>
				<path d="M 618 203 Q 639 464 651 510 Q 654 520 634 536 Q 598 555 574 559 Q 558 563 550 554 Q 543 547 551 531 Q 572 501 572 481 Q 581 348 575 194 C 574 164 616 173 618 203 Z" fill="lightgray"></path>
				<path d="M 788 230 Q 697 220 618 203 L 575 194 Q 505 181 446 161 Q 425 157 430 181 Q 436 227 442 276 Q 446 301 436 317 Q 402 359 372 354 Q 360 350 368 329 Q 393 274 383 218 Q 376 166 355 142 Q 336 123 343 109 Q 356 93 373 81 Q 388 72 400 84 Q 421 109 553 145 Q 736 202 784 187 Q 785 188 788 188 C 818 185 818 233 788 230 Z" fill="lightgray"></path>
				<path d="M 788 188 Q 782 125 800 93 Q 803 86 808 79 Q 820 63 831 77 Q 853 110 845 196 Q 842 319 851 348 Q 858 364 845 378 Q 823 391 785 406 Q 772 412 759 404 Q 752 398 756 385 Q 783 355 788 230 L 788 188 Z" fill="lightgray"></path>
</g>
		<text x="40" y="140" font-size="128" fill="#999999">4</text></g>
		<g id="id0:id4:id4" transform="matrix(1.0,0,0,1.0,4096,0.0)">			<g stroke="lightgray" stroke-width="4" transform="scale(4, 4)"> <rect x="0" y="0" width="256" height="256" fill="white" stroke-width="4"/></g>
			<g transform="scale(0.92, -0.92) translate(60, -920)">					<path d="M 504 798 Q 538 773 573 743 Q 589 731 605 733 Q 617 734 621 748 Q 625 764 613 795 Q 606 817 569 831 Q 485 856 472 847 Q 466 843 469 829 Q 473 819 504 798 Z" fill="black"></path>
				<path d="M 374 607 Q 419 586 472 596 Q 602 620 739 644 Q 800 657 810 665 Q 820 674 815 683 Q 808 696 777 705 Q 744 712 712 700 Q 640 678 564 660 Q 479 642 380 635 Q 368 634 364 631 C 335 623 346 618 374 607 Z" fill="black"></path>
				<path d="M 254 305 Q 206 149 97 -7 Q 90 -14 88 -21 Q 85 -33 97 -31 Q 127 -25 215 92 Q 231 119 250 151 Q 323 305 360 557 Q 364 576 369 594 Q 373 601 374 607 C 378 619 378 619 364 631 Q 349 647 322 660 Q 301 673 287 668 Q 274 661 281 645 Q 299 612 295 558 Q 292 542 291 522 Q 285 447 264 343 L 254 305 Z" fill="black"></path>
				<path d="M 146 533 Q 173 473 200 450 Q 215 443 227 454 Q 237 464 239 482 Q 239 524 187 556 Q 156 577 143 575 Q 137 576 136 563 Q 135 551 146 533 Z" fill="black"></path>
				<path d="M 264 343 Q 89 271 60 269 Q 48 266 47 256 Q 47 243 56 237 Q 80 224 113 210 Q 123 209 134 218 Q 155 240 254 305 C 279 321 292 354 264 343 Z" fill="red"></path>
				<path d="M 618 203 Q 639 464 651 510 Q 654 520 634 536 Q 598 555 574 559 Q 558 563 550 554 Q 543 547 551 531 Q 572 501 572 481 Q 581 348 575 194 C 574 164 616 173 618 203 Z" fill="lightgray"></path>
				<path d="M 788 230 Q 697 220 618 203 L 575 194 Q 505 181 446 161 Q 425 157 430 181 Q 436 227 442 276 Q 446 301 436 317 Q 402 359 372 354 Q 360 350 368 329 Q 393 274 383 218 Q 376 166 355 142 Q 336 123 343 109 Q 356 93 373 81 Q 388 72 400 84 Q 421 109 553 145 Q 736 202 784 187 Q 785 188 788 188 C 818 185 818 233 788 230 Z" fill="lightgray"></path>
				<path d="M 788 188 Q 782 125 800 93 Q 803 86 808 79 Q 820 63 831 77 Q 853 110 845 196 Q 842 319 851 348 Q 858 364 845 378 Q 823 391 785 406 Q 772 412 759 404 Q 752 398 756 385 Q 783 355 788 230 L 788 188 Z" fill="lightgray"></path>
</g>
		<text x="40" y="140" font-size="128" fill="#999999">5</text></g>
</g>
	<g id="id1:id1" transform="translate(0.0,1024)">
		<g id="id1:id0:id0" transform="matrix(1.0,0,0,1.0,0,0.0)">			<g stroke="lightgray" stroke-width="4" transform="scale(4, 4)"> <rect x="0" y="0" width="256" height="256" fill="white" stroke-width="4"/></g>
			<g transform="scale(0.92, -0.92) translate(60, -920)">					<path d="M 504 798 Q 538 773 573 743 Q 589 731 605 733 Q 617 734 621 748 Q 625 764 613 795 Q 606 817 569 831 Q 485 856 472 847 Q 466 843 469 829 Q 473 819 504 798 Z" fill="black"></path>
				<path d="M 374 607 Q 419 586 472 596 Q 602 620 739 644 Q 800 657 810 665 Q 820 674 815 683 Q 808 696 777 705 Q 744 712 712 700 Q 640 678 564 660 Q 479 642 380 635 Q 368 634 364 631 C 335 623 346 618 374 607 Z" fill="black"></path>
				<path d="M 254 305 Q 206 149 97 -7 Q 90 -14 88 -21 Q 85 -33 97 -31 Q 127 -25 215 92 Q 231 119 250 151 Q 323 305 360 557 Q 364 576 369 594 Q 373 601 374 607 C 378 619 378 619 364 631 Q 349 647 322 660 Q 301 673 287 668 Q 274 661 281 645 Q 299 612 295 558 Q 292 542 291 522 Q 285 447 264 343 L 254 305 Z" fill="black"></path>
				<path d="M 146 533 Q 173 473 200 450 Q 215 443 227 454 Q 237 464 239 482 Q 239 524 187 556 Q 156 577 143 575 Q 137 576 136 563 Q 135 551 146 533 Z" fill="black"></path>
				<path d="M 264 343 Q 89 271 60 269 Q 48 266 47 256 Q 47 243 56 237 Q 80 224 113 210 Q 123 209 134 218 Q 155 240 254 305 C 279 321 292 354 264 343 Z" fill="black"></path>
				<path d="M 618 203 Q 639 464 651 510 Q 654 520 634 536 Q 598 555 574 559 Q 558 563 550 554 Q 543 547 551 531 Q 572 501 572 481 Q 581 348 575 194 C 574 164 616 173 618 203 Z" fill="red"></path>
				<path d="M 788 230 Q 697 220 618 203 L 575 194 Q 505 181 446 161 Q 425 157 430 181 Q 436 227 442 276 Q 446 301 436 317 Q 402 359 372 354 Q 360 350 368 329 Q 393 274 383 218 Q 376 166 355 142 Q 336 123 343 109 Q 356 93 373 81 Q 388 72 400 84 Q 421 109 553 145 Q 736 202 784 187 Q 785 188 788 188 C 818 185 818 233 788 230 Z" fill="lightgray"></path>
				<path d="M 788 188 Q 782 125 800 93 Q 803 86 808 79 Q 820 63 831 77 Q 853 110 845 196 Q 842 319 851 348 Q 858 364 845 378 Q 823 391 785 406 Q 772 412 759 404 Q 752 398 756 385 Q 783 355 788 230 L 788 188 Z" fill="lightgray"></path>
</g>
		<text x="40" y="140" font-size="128" fill="#999999">6</text></g>
		<g id="id1:id1:id1" transform="matrix(1.0,0,0,1.0,1024,0.0)">			<g stroke="lightgray" stroke-width="4" transform="scale(4, 4)"> <rect x="0" y="0" width="256" height="256" fill="white" stroke-width="4"/></g>
			<g transform="scale(0.92, -0.92) translate(60, -920)">					<path d="M 504 798 Q 538 773 573 743 Q 589 731 605 733 Q 617 734 621 748 Q 625 764 613 795 Q 606 817 569 831 Q 485 856 472 847 Q 466 843 469 829 Q 473 819 504 798 Z" fill="black"></path>
				<path d="M 374 607 Q 419 586 472 596 Q 602 620 739 644 Q 800 657 810 665 Q 820 674 815 683 Q 808 696 777 705 Q 744 712 712 700 Q 640 678 564 660 Q 479 642 380 635 Q 368 634 364 631 C 335 623 346 618 374 607 Z" fill="black"></path>
				<path d="M 254 305 Q 206 149 97 -7 Q 90 -14 88 -21 Q 85 -33 97 -31 Q 127 -25 215 92 Q 231 119 250 151 Q 323 305 360 557 Q 364 576 369 594 Q 373 601 374 607 C 378 619 378 619 364 631 Q 349 647 322 660 Q 301 673 287 668 Q 274 661 281 645 Q 299 612 295 558 Q 292 542 291 522 Q 285 447 264 343 L 254 305 Z" fill="black"></path>
				<path d="M 146 533 Q 173 473 200 450 Q 215 443 227 454 Q 237 464 239 482 Q 239 524 187 556 Q 156 577 143 575 Q 137 576 136 563 Q 135 551 146 533 Z" fill="black"></path>
				<path d="M 264 343 Q 89 271 60 269 Q 48 266 47 256 Q 47 243 56 237 Q 80 224 113 210 Q 123 209 134 218 Q 155 240 254 305 C 279 321 292 354 264 343 Z" fill="black"></path>
				<path d="M 618 203 Q 639 464 651 510 Q 654 520 634 536 Q 598 555 574 559 Q 558 563 550 554 Q 543 547 551 531 Q 572 501 572 481 Q 581 348 575 194 C 574 164 616 173 618 203 Z" fill="black"></path>
				<path d="M 788 230 Q 697 220 618 203 L 575 194 Q 505 181 446 161 Q 425 157 430 181 Q 436 227 442 276 Q 446 301 436 317 Q 402 359 372 354 Q 360 350 368 329 Q 393 274 383 218 Q 376 166 355 142 Q 336 123 343 109 Q 356 93 373 81 Q 388 72 400 84 Q 421 109 553 145 Q 736 202 784 187 Q 785 188 788 188 C 818 185 818 233 788 230 Z" fill="red"></path>
				<path d="M 788 188 Q 782 125 800 93 Q 803 86 808 79 Q 820 63 831 77 Q 853 110 845 196 Q 842 319 851 348 Q 858 364 845 378 Q 823 391 785 406 Q 772 412 759 404 Q 752 398 756 385 Q 783 355 788 230 L 788 188 Z" fill="lightgray"></path>
</g>
		<text x="40" y="140" font-size="128" fill="#999999">7</text></g>
		<g id="id1:id2:id2" transform="matrix(1.0,0,0,1.0,2048,0.0)">			<g stroke="lightgray" stroke-width="4" transform="scale(4, 4)"> <rect x="0" y="0" width="256" height="256" fill="white" stroke-width="4"/></g>
			<g transform="scale(0.92, -0.92) translate(60, -920)">					<path d="M 504 798 Q 538 773 573 743 Q 589 731 605 733 Q 617 734 621 748 Q 625 764 613 795 Q 606 817 569 831 Q 485 856 472 847 Q 466 843 469 829 Q 473 819 504 798 Z" fill="black"></path>
				<path d="M 374 607 Q 419 586 472 596 Q 602 620 739 644 Q 800 657 810 665 Q 820 674 815 683 Q 808 696 777 705 Q 744 712 712 700 Q 640 678 564 660 Q 479 642 380 635 Q 368 634 364 631 C 335 623 346 618 374 607 Z" fill="black"></path>
				<path d="M 254 305 Q 206 149 97 -7 Q 90 -14 88 -21 Q 85 -33 97 -31 Q 127 -25 215 92 Q 231 119 250 151 Q 323 305 360 557 Q 364 576 369 594 Q 373 601 374 607 C 378 619 378 619 364 631 Q 349 647 322 660 Q 301 673 287 668 Q 274 661 281 645 Q 299 612 295 558 Q 292 542 291 522 Q 285 447 264 343 L 254 305 Z" fill="black"></path>
				<path d="M 146 533 Q 173 473 200 450 Q 215 443 227 454 Q 237 464 239 482 Q 239 524 187 556 Q 156 577 143 575 Q 137 576 136 563 Q 135 551 146 533 Z" fill="black"></path>
				<path d="M 264 343 Q 89 271 60 269 Q 48 266 47 256 Q 47 243 56 237 Q 80 224 113 210 Q 123 209 134 218 Q 155 240 254 305 C 279 321 292 354 264 343 Z" fill="black"></path>
				<path d="M 618 203 Q 639 464 651 510 Q 654 520 634 536 Q 598 555 574 559 Q 558 563 550 554 Q 543 547 551 531 Q 572 501 572 481 Q 581 348 575 194 C 574 164 616 173 618 203 Z" fill="black"></path>
				<path d="M 788 230 Q 697 220 618 203 L 575 194 Q 505 181 446 161 Q 425 157 430 181 Q 436 227 442 276 Q 446 301 436 317 Q 402 359 372 354 Q 360 350 368 329 Q 393 274 383 218 Q 376 166 355 142 Q 336 123 343 109 Q 356 93 373 81 Q 388 72 400 84 Q 421 109 553 145 Q 736 202 784 187 Q 785 188 788 188 C 818 185 818 233 788 230 Z" fill="black"></path>
				<path d="M 788 188 Q 782 125 800 93 Q 803 86 808 79 Q 820 63 831 77 Q 853 110 845 196 Q 842 319 851 348 Q 858 364 845 378 Q 823 391 785 406 Q 772 412 759 404 Q 752 398 756 385 Q 783 355 788 230 L 788 188 Z" fill="red"></path>
</g>
		<text x="40" y="140" font-size="128" fill="#999999">8</text></g>
		<g id="id1:id3:id3" transform="matrix(1.0,0,0,1.0,3072,0.0)">			<g stroke="white" stroke-width="4" transform="scale(4, 4)"> <rect x="1" y="1" width="255" height="255" fill="white" stroke-width="0"/></g>
</g>
		<g id="id1:id4:id4" transform="matrix(1.0,0,0,1.0,4096,0.0)">			<g stroke="white" stroke-width="4" transform="scale(4, 4)"> <rect x="1" y="1" width="255" height="255" fill="white" stroke-width="0"/></g>
</g>
</g>
</svg>
