<?xml version="1.0" standalone="no"?>
<!DOCTYPE svg PUBLIC "-//W3C//DTD SVG 1.1//EN"
 "http://www.w3.org/Graphics/SVG/1.1/DTD/svg11.dtd">
<!-- generate by Japanese dictionary app com.asnsami.kanjidictionary -->

<svg xmlns="http://www.w3.org/2000/svg" xmlns:sodipodi="http://sodipodi.sourceforge.net/DTD/sodipodi-0.dtd" version="1.1" width="640" height="256" viewBox="0 0 5120 2048">
	<g id="id0:id0" transform="translate(0.0,0)">
		<g id="id0:id0:id0" transform="matrix(1.0,0,0,1.0,0,0.0)">			<g stroke="lightgray" stroke-width="4" transform="scale(4, 4)"> <rect x="0" y="0" width="256" height="256" fill="white" stroke-width="4"/></g>
			<g transform="scale(0.92, -0.92) translate(60, -920)">					<path d="M 541 800 Q 569 778 599 751 Q 615 738 632 740 Q 644 741 649 756 Q 653 772 641 805 Q 629 835 532 852 Q 514 855 508 851 Q 502 847 505 833 Q 509 820 541 800 Z" fill="red"></path>
				<path d="M 381 612 Q 421 600 481 609 Q 785 654 801 666 Q 811 673 807 683 Q 800 696 769 706 Q 733 715 646 687 Q 505 654 374 647 C 344 645 352 619 381 612 Z" fill="lightgray"></path>
				<path d="M 278 338 Q 242 182 116 -5 Q 110 -12 108 -18 Q 105 -28 116 -27 Q 150 -21 232 98 Q 248 126 266 159 Q 339 312 362 503 Q 369 572 380 611 Q 380 612 381 612 C 388 637 388 637 374 647 Q 326 686 303 678 Q 290 671 297 657 Q 318 621 310 551 Q 309 542 308 532 Q 302 456 289 387 L 278 338 Z" fill="lightgray"></path>
				<path d="M 154 568 Q 196 508 227 490 Q 240 486 251 497 Q 258 509 258 525 Q 251 570 171 603 Q 155 610 146 608 Q 140 607 141 595 Q 141 583 154 568 Z" fill="lightgray"></path>
				<path d="M 289 387 Q 210 332 111 267 Q 98 257 70 250 Q 58 246 60 235 Q 61 222 73 217 Q 100 208 137 201 Q 147 201 156 213 Q 180 250 278 338 C 300 358 314 404 289 387 Z" fill="lightgray"></path>
				<path d="M 509 421 Q 569 421 705 448 Q 715 451 726 452 Q 760 459 767 465 Q 776 472 771 480 Q 764 492 736 499 Q 717 505 623 478 Q 527 460 494 456 C 464 452 479 421 509 421 Z" fill="lightgray"></path>
				<path d="M 456 259 Q 449 174 419 115 Q 401 90 440 56 Q 452 46 467 59 Q 525 101 679 110 Q 730 113 792 108 Q 814 105 824 111 Q 831 117 825 129 Q 819 142 781 163 Q 763 173 684 162 Q 669 169 515 135 Q 493 131 492 132 Q 476 142 482 173 Q 483 225 487 267 L 490 305 Q 497 389 509 421 C 515 441 515 441 494 456 Q 476 472 451 480 Q 436 484 428 475 Q 424 468 434 452 Q 455 422 457 300 L 456 259 Z" fill="lightgray"></path>
				<path d="M 487 267 Q 613 300 862 299 Q 883 299 887 307 Q 891 317 877 331 Q 829 367 793 358 Q 714 340 490 305 L 457 300 Q 414 296 371 289 Q 352 286 366 271 Q 379 258 396 253 Q 415 249 431 253 Q 441 257 456 259 L 487 267 Z" fill="lightgray"></path>
</g>
		<text x="40" y="140" font-size="128" fill="#999999">1</text></g>
		<g id="id0:id1:id1" transform="matrix(1.0,0,0,1.0,1024,0.0)">			<g stroke="lightgray" stroke-width="4" transform="scale(4, 4)"> <rect x="0" y="0" width="256" height="256" fill="white" stroke-width="4"/></g>
			<g transform="scale(0.92, -0.92) translate(60, -920)">					<path d="M 541 800 Q 569 778 599 751 Q 615 738 632 740 Q 644 741 649 756 Q 653 772 641 805 Q 629 835 532 852 Q 514 855 508 851 Q 502 847 505 833 Q 509 820 541 800 Z" fill="black"></path>
				<path d="M 381 612 Q 421 600 481 609 Q 785 654 801 666 Q 811 673 807 683 Q 800 696 769 706 Q 733 715 646 687 Q 505 654 374 647 C 344 645 352 619 381 612 Z" fill="red"></path>
				<path d="M 278 338 Q 242 182 116 -5 Q 110 -12 108 -18 Q 105 -28 116 -27 Q 150 -21 232 98 Q 248 126 266 159 Q 339 312 362 503 Q 369 572 380 611 Q 380 612 381 612 C 388 637 388 637 374 647 Q 326 686 303 678 Q 290 671 297 657 Q 318 621 310 551 Q 309 542 308 532 Q 302 456 289 387 L 278 338 Z" fill="lightgray"></path>
				<path d="M 154 568 Q 196 508 227 490 Q 240 486 251 497 Q 258 509 258 525 Q 251 570 171 603 Q 155 610 146 608 Q 140 607 141 595 Q 141 583 154 568 Z" fill="lightgray"></path>
				<path d="M 289 387 Q 210 332 111 267 Q 98 257 70 250 Q 58 246 60 235 Q 61 222 73 217 Q 100 208 137 201 Q 147 201 156 213 Q 180 250 278 338 C 300 358 314 404 289 387 Z" fill="lightgray"></path>
				<path d="M 509 421 Q 569 421 705 448 Q 715 451 726 452 Q 760 459 767 465 Q 776 472 771 480 Q 764 492 736 499 Q 717 505 623 478 Q 527 460 494 456 C 464 452 479 421 509 421 Z" fill="lightgray"></path>
				<path d="M 456 259 Q 449 174 419 115 Q 401 90 440 56 Q 452 46 467 59 Q 525 101 679 110 Q 730 113 792 108 Q 814 105 824 111 Q 831 117 825 129 Q 819 142 781 163 Q 763 173 684 162 Q 669 169 515 135 Q 493 131 492 132 Q 476 142 482 173 Q 483 225 487 267 L 490 305 Q 497 389 509 421 C 515 441 515 441 494 456 Q 476 472 451 480 Q 436 484 428 475 Q 424 468 434 452 Q 455 422 457 300 L 456 259 Z" fill="lightgray"></path>
				<path d="M 487 267 Q 613 300 862 299 Q 883 299 887 307 Q 891 317 877 331 Q 829 367 793 358 Q 714 340 490 305 L 457 300 Q 414 296 371 289 Q 352 286 366 271 Q 379 258 396 253 Q 415 249 431 253 Q 441 257 456 259 L 487 267 Z" fill="lightgray"></path>
</g>
		<text x="40" y="140" font-size="128" fill="#999999">2</text></g>
		<g id="id0:id2:id2" transform="matrix(1.0,0,0,1.0,2048,0.0)">			<g stroke="lightgray" stroke-width="4" transform="scale(4, 4)"> <rect x="0" y="0" width="256" height="256" fill="white" stroke-width="4"/></g>
			<g transform="scale(0.92, -0.92) translate(60, -920)">					<path d="M 541 800 Q 569 778 599 751 Q 615 738 632 740 Q 644 741 649 756 Q 653 772 641 805 Q 629 835 532 852 Q 514 855 508 851 Q 502 847 505 833 Q 509 820 541 800 Z" fill="black"></path>
				<path d="M 381 612 Q 421 600 481 609 Q 785 654 801 666 Q 811 673 807 683 Q 800 696 769 706 Q 733 715 646 687 Q 505 654 374 647 C 344 645 352 619 381 612 Z" fill="black"></path>
				<path d="M 278 338 Q 242 182 116 -5 Q 110 -12 108 -18 Q 105 -28 116 -27 Q 150 -21 232 98 Q 248 126 266 159 Q 339 312 362 503 Q 369 572 380 611 Q 380 612 381 612 C 388 637 388 637 374 647 Q 326 686 303 678 Q 290 671 297 657 Q 318 621 310 551 Q 309 542 308 532 Q 302 456 289 387 L 278 338 Z" fill="red"></path>
				<path d="M 154 568 Q 196 508 227 490 Q 240 486 251 497 Q 258 509 258 525 Q 251 570 171 603 Q 155 610 146 608 Q 140 607 141 595 Q 141 583 154 568 Z" fill="lightgray"></path>
				<path d="M 289 387 Q 210 332 111 267 Q 98 257 70 250 Q 58 246 60 235 Q 61 222 73 217 Q 100 208 137 201 Q 147 201 156 213 Q 180 250 278 338 C 300 358 314 404 289 387 Z" fill="lightgray"></path>
				<path d="M 509 421 Q 569 421 705 448 Q 715 451 726 452 Q 760 459 767 465 Q 776 472 771 480 Q 764 492 736 499 Q 717 505 623 478 Q 527 460 494 456 C 464 452 479 421 509 421 Z" fill="lightgray"></path>
				<path d="M 456 259 Q 449 174 419 115 Q 401 90 440 56 Q 452 46 467 59 Q 525 101 679 110 Q 730 113 792 108 Q 814 105 824 111 Q 831 117 825 129 Q 819 142 781 163 Q 763 173 684 162 Q 669 169 515 135 Q 493 131 492 132 Q 476 142 482 173 Q 483 225 487 267 L 490 305 Q 497 389 509 421 C 515 441 515 441 494 456 Q 476 472 451 480 Q 436 484 428 475 Q 424 468 434 452 Q 455 422 457 300 L 456 259 Z" fill="lightgray"></path>
				<path d="M 487 267 Q 613 300 862 299 Q 883 299 887 307 Q 891 317 877 331 Q 829 367 793 358 Q 714 340 490 305 L 457 300 Q 414 296 371 289 Q 352 286 366 271 Q 379 258 396 253 Q 415 249 431 253 Q 441 257 456 259 L 487 267 Z" fill="lightgray"></path>
</g>
		<text x="40" y="140" font-size="128" fill="#999999">3</text></g>
		<g id="id0:id3:id3" transform="matrix(1.0,0,0,1.0,3072,0.0)">			<g stroke="lightgray" stroke-width="4" transform="scale(4, 4)"> <rect x="0" y="0" width="256" height="256" fill="white" stroke-width="4"/></g>
			<g transform="scale(0.92, -0.92) translate(60, -920)">					<path d="M 541 800 Q 569 778 599 751 Q 615 738 632 740 Q 644 741 649 756 Q 653 772 641 805 Q 629 835 532 852 Q 514 855 508 851 Q 502 847 505 833 Q 509 820 541 800 Z" fill="black"></path>
				<path d="M 381 612 Q 421 600 481 609 Q 785 654 801 666 Q 811 673 807 683 Q 800 696 769 706 Q 733 715 646 687 Q 505 654 374 647 C 344 645 352 619 381 612 Z" fill="black"></path>
				<path d="M 278 338 Q 242 182 116 -5 Q 110 -12 108 -18 Q 105 -28 116 -27 Q 150 -21 232 98 Q 248 126 266 159 Q 339 312 362 503 Q 369 572 380 611 Q 380 612 381 612 C 388 637 388 637 374 647 Q 326 686 303 678 Q 290 671 297 657 Q 318 621 310 551 Q 309 542 308 532 Q 302 456 289 387 L 278 338 Z" fill="black"></path>
				<path d="M 154 568 Q 196 508 227 490 Q 240 486 251 497 Q 258 509 258 525 Q 251 570 171 603 Q 155 610 146 608 Q 140 607 141 595 Q 141 583 154 568 Z" fill="red"></path>
				<path d="M 289 387 Q 210 332 111 267 Q 98 257 70 250 Q 58 246 60 235 Q 61 222 73 217 Q 100 208 137 201 Q 147 201 156 213 Q 180 250 278 338 C 300 358 314 404 289 387 Z" fill="lightgray"></path>
				<path d="M 509 421 Q 569 421 705 448 Q 715 451 726 452 Q 760 459 767 465 Q 776 472 771 480 Q 764 492 736 499 Q 717 505 623 478 Q 527 460 494 456 C 464 452 479 421 509 421 Z" fill="lightgray"></path>
				<path d="M 456 259 Q 449 174 419 115 Q 401 90 440 56 Q 452 46 467 59 Q 525 101 679 110 Q 730 113 792 108 Q 814 105 824 111 Q 831 117 825 129 Q 819 142 781 163 Q 763 173 684 162 Q 669 169 515 135 Q 493 131 492 132 Q 476 142 482 173 Q 483 225 487 267 L 490 305 Q 497 389 509 421 C 515 441 515 441 494 456 Q 476 472 451 480 Q 436 484 428 475 Q 424 468 434 452 Q 455 422 457 300 L 456 259 Z" fill="lightgray"></path>
				<path d="M 487 267 Q 613 300 862 299 Q 883 299 887 307 Q 891 317 877 331 Q 829 367 793 358 Q 714 340 490 305 L 457 300 Q 414 296 371 289 Q 352 286 366 271 Q 379 258 396 253 Q 415 249 431 253 Q 441 257 456 259 L 487 267 Z" fill="lightgray"></path>
</g>
		<text x="40" y="140" font-size="128" fill="#999999">4</text></g>
		<g id="id0:id4:id4" transform="matrix(1.0,0,0,1.0,4096,0.0)">			<g stroke="lightgray" stroke-width="4" transform="scale(4, 4)"> <rect x="0" y="0" width="256" height="256" fill="white" stroke-width="4"/></g>
			<g transform="scale(0.92, -0.92) translate(60, -920)">					<path d="M 541 800 Q 569 778 599 751 Q 615 738 632 740 Q 644 741 649 756 Q 653 772 641 805 Q 629 835 532 852 Q 514 855 508 851 Q 502 847 505 833 Q 509 820 541 800 Z" fill="black"></path>
				<path d="M 381 612 Q 421 600 481 609 Q 785 654 801 666 Q 811 673 807 683 Q 800 696 769 706 Q 733 715 646 687 Q 505 654 374 647 C 344 645 352 619 381 612 Z" fill="black"></path>
				<path d="M 278 338 Q 242 182 116 -5 Q 110 -12 108 -18 Q 105 -28 116 -27 Q 150 -21 232 98 Q 248 126 266 159 Q 339 312 362 503 Q 369 572 380 611 Q 380 612 381 612 C 388 637 388 637 374 647 Q 326 686 303 678 Q 290 671 297 657 Q 318 621 310 551 Q 309 542 308 532 Q 302 456 289 387 L 278 338 Z" fill="black"></path>
				<path d="M 154 568 Q 196 508 227 490 Q 240 486 251 497 Q 258 509 258 525 Q 251 570 171 603 Q 155 610 146 608 Q 140 607 141 595 Q 141 583 154 568 Z" fill="black"></path>
				<path d="M 289 387 Q 210 332 111 267 Q 98 257 70 250 Q 58 246 60 235 Q 61 222 73 217 Q 100 208 137 201 Q 147 201 156 213 Q 180 250 278 338 C 300 358 314 404 289 387 Z" fill="red"></path>
				<path d="M 509 421 Q 569 421 705 448 Q 715 451 726 452 Q 760 459 767 465 Q 776 472 771 480 Q 764 492 736 499 Q 717 505 623 478 Q 527 460 494 456 C 464 452 479 421 509 421 Z" fill="lightgray"></path>
				<path d="M 456 259 Q 449 174 419 115 Q 401 90 440 56 Q 452 46 467 59 Q 525 101 679 110 Q 730 113 792 108 Q 814 105 824 111 Q 831 117 825 129 Q 819 142 781 163 Q 763 173 684 162 Q 669 169 515 135 Q 493 131 492 132 Q 476 142 482 173 Q 483 225 487 267 L 490 305 Q 497 389 509 421 C 515 441 515 441 494 456 Q 476 472 451 480 Q 436 484 428 475 Q 424 468 434 452 Q 455 422 457 300 L 456 259 Z" fill="lightgray"></path>
				<path d="M 487 267 Q 613 300 862 299 Q 883 299 887 307 Q 891 317 877 331 Q 829 367 793 358 Q 714 340 490 305 L 457 300 Q 414 296 371 289 Q 352 286 366 271 Q 379 258 396 253 Q 415 249 431 253 Q 441 257 456 259 L 487 267 Z" fill="lightgray"></path>
</g>
		<text x="40" y="140" font-size="128" fill="#999999">5</text></g>
</g>
	<g id="id1:id1" transform="translate(0.0,1024)">
		<g id="id1:id0:id0" transform="matrix(1.0,0,0,1.0,0,0.0)">			<g stroke="lightgray" stroke-width="4" transform="scale(4, 4)"> <rect x="0" y="0" width="256" height="256" fill="white" stroke-width="4"/></g>
			<g transform="scale(0.92, -0.92) translate(60, -920)">					<path d="M 541 800 Q 569 778 599 751 Q 615 738 632 740 Q 644 741 649 756 Q 653 772 641 805 Q 629 835 532 852 Q 514 855 508 851 Q 502 847 505 833 Q 509 820 541 800 Z" fill="black"></path>
				<path d="M 381 612 Q 421 600 481 609 Q 785 654 801 666 Q 811 673 807 683 Q 800 696 769 706 Q 733 715 646 687 Q 505 654 374 647 C 344 645 352 619 381 612 Z" fill="black"></path>
				<path d="M 278 338 Q 242 182 116 -5 Q 110 -12 108 -18 Q 105 -28 116 -27 Q 150 -21 232 98 Q 248 126 266 159 Q 339 312 362 503 Q 369 572 380 611 Q 380 612 381 612 C 388 637 388 637 374 647 Q 326 686 303 678 Q 290 671 297 657 Q 318 621 310 551 Q 309 542 308 532 Q 302 456 289 387 L 278 338 Z" fill="black"></path>
				<path d="M 154 568 Q 196 508 227 490 Q 240 486 251 497 Q 258 509 258 525 Q 251 570 171 603 Q 155 610 146 608 Q 140 607 141 595 Q 141 583 154 568 Z" fill="black"></path>
				<path d="M 289 387 Q 210 332 111 267 Q 98 257 70 250 Q 58 246 60 235 Q 61 222 73 217 Q 100 208 137 201 Q 147 201 156 213 Q 180 250 278 338 C 300 358 314 404 289 387 Z" fill="black"></path>
				<path d="M 509 421 Q 569 421 705 448 Q 715 451 726 452 Q 760 459 767 465 Q 776 472 771 480 Q 764 492 736 499 Q 717 505 623 478 Q 527 460 494 456 C 464 452 479 421 509 421 Z" fill="red"></path>
				<path d="M 456 259 Q 449 174 419 115 Q 401 90 440 56 Q 452 46 467 59 Q 525 101 679 110 Q 730 113 792 108 Q 814 105 824 111 Q 831 117 825 129 Q 819 142 781 163 Q 763 173 684 162 Q 669 169 515 135 Q 493 131 492 132 Q 476 142 482 173 Q 483 225 487 267 L 490 305 Q 497 389 509 421 C 515 441 515 441 494 456 Q 476 472 451 480 Q 436 484 428 475 Q 424 468 434 452 Q 455 422 457 300 L 456 259 Z" fill="lightgray"></path>
				<path d="M 487 267 Q 613 300 862 299 Q 883 299 887 307 Q 891 317 877 331 Q 829 367 793 358 Q 714 340 490 305 L 457 300 Q 414 296 371 289 Q 352 286 366 271 Q 379 258 396 253 Q 415 249 431 253 Q 441 257 456 259 L 487 267 Z" fill="lightgray"></path>
</g>
		<text x="40" y="140" font-size="128" fill="#999999">6</text></g>
		<g id="id1:id1:id1" transform="matrix(1.0,0,0,1.0,1024,0.0)">			<g stroke="lightgray" stroke-width="4" transform="scale(4, 4)"> <rect x="0" y="0" width="256" height="256" fill="white" stroke-width="4"/></g>
			<g transform="scale(0.92, -0.92) translate(60, -920)">					<path d="M 541 800 Q 569 778 599 751 Q 615 738 632 740 Q 644 741 649 756 Q 653 772 641 805 Q 629 835 532 852 Q 514 855 508 851 Q 502 847 505 833 Q 509 820 541 800 Z" fill="black"></path>
				<path d="M 381 612 Q 421 600 481 609 Q 785 654 801 666 Q 811 673 807 683 Q 800 696 769 706 Q 733 715 646 687 Q 505 654 374 647 C 344 645 352 619 381 612 Z" fill="black"></path>
				<path d="M 278 338 Q 242 182 116 -5 Q 110 -12 108 -18 Q 105 -28 116 -27 Q 150 -21 232 98 Q 248 126 266 159 Q 339 312 362 503 Q 369 572 380 611 Q 380 612 381 612 C 388 637 388 637 374 647 Q 326 686 303 678 Q 290 671 297 657 Q 318 621 310 551 Q 309 542 308 532 Q 302 456 289 387 L 278 338 Z" fill="black"></path>
				<path d="M 154 568 Q 196 508 227 490 Q 240 486 251 497 Q 258 509 258 525 Q 251 570 171 603 Q 155 610 146 608 Q 140 607 141 595 Q 141 583 154 568 Z" fill="black"></path>
				<path d="M 289 387 Q 210 332 111 267 Q 98 257 70 250 Q 58 246 60 235 Q 61 222 73 217 Q 100 208 137 201 Q 147 201 156 213 Q 180 250 278 338 C 300 358 314 404 289 387 Z" fill="black"></path>
				<path d="M 509 421 Q 569 421 705 448 Q 715 451 726 452 Q 760 459 767 465 Q 776 472 771 480 Q 764 492 736 499 Q 717 505 623 478 Q 527 460 494 456 C 464 452 479 421 509 421 Z" fill="black"></path>
				<path d="M 456 259 Q 449 174 419 115 Q 401 90 440 56 Q 452 46 467 59 Q 525 101 679 110 Q 730 113 792 108 Q 814 105 824 111 Q 831 117 825 129 Q 819 142 781 163 Q 763 173 684 162 Q 669 169 515 135 Q 493 131 492 132 Q 476 142 482 173 Q 483 225 487 267 L 490 305 Q 497 389 509 421 C 515 441 515 441 494 456 Q 476 472 451 480 Q 436 484 428 475 Q 424 468 434 452 Q 455 422 457 300 L 456 259 Z" fill="red"></path>
				<path d="M 487 267 Q 613 300 862 299 Q 883 299 887 307 Q 891 317 877 331 Q 829 367 793 358 Q 714 340 490 305 L 457 300 Q 414 296 371 289 Q 352 286 366 271 Q 379 258 396 253 Q 415 249 431 253 Q 441 257 456 259 L 487 267 Z" fill="lightgray"></path>
</g>
		<text x="40" y="140" font-size="128" fill="#999999">7</text></g>
		<g id="id1:id2:id2" transform="matrix(1.0,0,0,1.0,2048,0.0)">			<g stroke="lightgray" stroke-width="4" transform="scale(4, 4)"> <rect x="0" y="0" width="256" height="256" fill="white" stroke-width="4"/></g>
			<g transform="scale(0.92, -0.92) translate(60, -920)">					<path d="M 541 800 Q 569 778 599 751 Q 615 738 632 740 Q 644 741 649 756 Q 653 772 641 805 Q 629 835 532 852 Q 514 855 508 851 Q 502 847 505 833 Q 509 820 541 800 Z" fill="black"></path>
				<path d="M 381 612 Q 421 600 481 609 Q 785 654 801 666 Q 811 673 807 683 Q 800 696 769 706 Q 733 715 646 687 Q 505 654 374 647 C 344 645 352 619 381 612 Z" fill="black"></path>
				<path d="M 278 338 Q 242 182 116 -5 Q 110 -12 108 -18 Q 105 -28 116 -27 Q 150 -21 232 98 Q 248 126 266 159 Q 339 312 362 503 Q 369 572 380 611 Q 380 612 381 612 C 388 637 388 637 374 647 Q 326 686 303 678 Q 290 671 297 657 Q 318 621 310 551 Q 309 542 308 532 Q 302 456 289 387 L 278 338 Z" fill="black"></path>
				<path d="M 154 568 Q 196 508 227 490 Q 240 486 251 497 Q 258 509 258 525 Q 251 570 171 603 Q 155 610 146 608 Q 140 607 141 595 Q 141 583 154 568 Z" fill="black"></path>
				<path d="M 289 387 Q 210 332 111 267 Q 98 257 70 250 Q 58 246 60 235 Q 61 222 73 217 Q 100 208 137 201 Q 147 201 156 213 Q 180 250 278 338 C 300 358 314 404 289 387 Z" fill="black"></path>
				<path d="M 509 421 Q 569 421 705 448 Q 715 451 726 452 Q 760 459 767 465 Q 776 472 771 480 Q 764 492 736 499 Q 717 505 623 478 Q 527 460 494 456 C 464 452 479 421 509 421 Z" fill="black"></path>
				<path d="M 456 259 Q 449 174 419 115 Q 401 90 440 56 Q 452 46 467 59 Q 525 101 679 110 Q 730 113 792 108 Q 814 105 824 111 Q 831 117 825 129 Q 819 142 781 163 Q 763 173 684 162 Q 669 169 515 135 Q 493 131 492 132 Q 476 142 482 173 Q 483 225 487 267 L 490 305 Q 497 389 509 421 C 515 441 515 441 494 456 Q 476 472 451 480 Q 436 484 428 475 Q 424 468 434 452 Q 455 422 457 300 L 456 259 Z" fill="black"></path>
				<path d="M 487 267 Q 613 300 862 299 Q 883 299 887 307 Q 891 317 877 331 Q 829 367 793 358 Q 714 340 490 305 L 457 300 Q 414 296 371 289 Q 352 286 366 271 Q 379 258 396 253 Q 415 249 431 253 Q 441 257 456 259 L 487 267 Z" fill="red"></path>
</g>
		<text x="40" y="140" font-size="128" fill="#999999">8</text></g>
		<g id="id1:id3:id3" transform="matrix(1.0,0,0,1.0,3072,0.0)">			<g stroke="white" stroke-width="4" transform="scale(4, 4)"> <rect x="1" y="1" width="255" height="255" fill="white" stroke-width="0"/></g>
</g>
		<g id="id1:id4:id4" transform="matrix(1.0,0,0,1.0,4096,0.0)">			<g stroke="white" stroke-width="4" transform="scale(4, 4)"> <rect x="1" y="1" width="255" height="255" fill="white" stroke-width="0"/></g>
</g>
</g>
</svg>
