<?xml version="1.0" standalone="no"?>
<!DOCTYPE svg PUBLIC "-//W3C//DTD SVG 1.1//EN"
 "http://www.w3.org/Graphics/SVG/1.1/DTD/svg11.dtd">
<!-- generate by Handict dictionary app com.asnsami.handict -->

<svg xmlns="http://www.w3.org/2000/svg" xmlns:sodipodi="http://sodipodi.sourceforge.net/DTD/sodipodi-0.dtd" version="1.1" width="640" height="384" viewBox="0 0 5120 3072">
	<g id="id0:id0" transform="translate(0.0,0)">
		<g id="id0:id0:id0" transform="matrix(1.0,0,0,1.0,0,0.0)">			<g stroke="lightgray" stroke-width="4" transform="scale(4, 4)"> <rect x="0" y="0" width="256" height="256" fill="white" stroke-width="4"/></g>
			<g transform="scale(0.92, -0.92) translate(60, -920)">					<path d="M 527 801 Q 549 783 573 760 Q 589 747 605 749 Q 615 750 621 764 Q 625 780 614 811 Q 602 839 519 851 Q 503 855 496 851 Q 490 847 493 833 Q 497 823 527 801 Z" fill="red"></path>
				<path d="M 386 629 Q 422 622 513 635 Q 793 683 805 691 Q 815 698 811 708 Q 804 720 774 729 Q 744 736 643 706 Q 490 673 372 665 Q 371 665 371 664 C 341 660 356 633 386 629 Z" fill="lightgray"></path>
				<path d="M 273 330 Q 216 152 104 -5 Q 98 -12 96 -18 Q 93 -28 104 -27 Q 137 -23 224 99 Q 242 129 260 161 Q 338 317 374 584 Q 383 623 386 629 C 392 649 392 649 371 664 Q 328 697 307 691 Q 294 684 300 670 Q 322 640 311 552 Q 310 548 310 542 Q 300 418 283 366 L 273 330 Z" fill="lightgray"></path>
				<path d="M 139 565 Q 175 502 204 485 Q 217 479 227 490 Q 236 500 236 516 Q 233 555 178 585 Q 150 606 134 603 Q 128 603 129 591 Q 128 581 139 565 Z" fill="lightgray"></path>
				<path d="M 283 366 Q 91 291 65 289 Q 52 286 52 276 Q 51 263 61 257 Q 83 244 117 229 Q 127 228 137 237 Q 159 259 273 330 C 298 346 311 377 283 366 Z" fill="lightgray"></path>
				<path d="M 454 546 Q 417 540 443 522 Q 488 498 543 510 Q 619 523 697 539 Q 733 546 738 551 Q 748 558 743 568 Q 736 580 706 588 Q 684 594 589 567 Q 504 551 454 546 Z" fill="lightgray"></path>
				<path d="M 460 423 Q 448 429 420 432 Q 408 435 405 429 Q 398 423 408 407 Q 432 364 450 291 Q 454 269 468 255 Q 486 233 491 250 Q 492 256 493 262 L 491 295 Q 479 370 476 394 C 473 418 473 418 460 423 Z" fill="lightgray"></path>
				<path d="M 725 323 Q 752 380 778 395 Q 794 413 781 430 Q 709 488 665 466 Q 581 439 460 423 C 430 419 446 389 476 394 Q 479 394 660 425 Q 679 429 688 421 Q 695 414 692 400 Q 685 363 673 330 C 663 302 712 296 725 323 Z" fill="lightgray"></path>
				<path d="M 493 262 Q 502 261 515 263 Q 585 278 735 290 Q 745 291 747 299 Q 747 306 725 323 C 708 337 702 335 673 330 Q 672 330 671 330 Q 571 306 491 295 C 461 291 463 263 493 262 Z" fill="lightgray"></path>
				<path d="M 425 178 Q 443 141 473 110 Q 485 104 496 114 Q 503 123 505 138 Q 502 174 444 208 Q 431 215 423 215 Q 417 215 417 204 Q 416 194 425 178 Z" fill="lightgray"></path>
				<path d="M 632 95 Q 648 113 696 170 Q 706 183 726 202 Q 742 212 735 223 Q 728 242 702 265 Q 689 278 671 274 Q 661 271 665 259 Q 671 225 611 119 Q 601 103 598 91 C 589 62 612 72 632 95 Z" fill="lightgray"></path>
				<path d="M 598 91 Q 588 91 578 89 Q 449 76 298 62 Q 276 61 291 43 Q 306 28 324 22 Q 346 15 362 19 Q 590 71 881 51 Q 882 52 884 51 Q 905 50 910 59 Q 916 71 899 86 Q 835 137 798 118 Q 731 108 632 95 L 598 91 Z" fill="lightgray"></path>
</g>
		<text x="40" y="140" font-size="128" fill="#999999">1</text></g>
		<g id="id0:id1:id1" transform="matrix(1.0,0,0,1.0,1024,0.0)">			<g stroke="lightgray" stroke-width="4" transform="scale(4, 4)"> <rect x="0" y="0" width="256" height="256" fill="white" stroke-width="4"/></g>
			<g transform="scale(0.92, -0.92) translate(60, -920)">					<path d="M 527 801 Q 549 783 573 760 Q 589 747 605 749 Q 615 750 621 764 Q 625 780 614 811 Q 602 839 519 851 Q 503 855 496 851 Q 490 847 493 833 Q 497 823 527 801 Z" fill="black"></path>
				<path d="M 386 629 Q 422 622 513 635 Q 793 683 805 691 Q 815 698 811 708 Q 804 720 774 729 Q 744 736 643 706 Q 490 673 372 665 Q 371 665 371 664 C 341 660 356 633 386 629 Z" fill="red"></path>
				<path d="M 273 330 Q 216 152 104 -5 Q 98 -12 96 -18 Q 93 -28 104 -27 Q 137 -23 224 99 Q 242 129 260 161 Q 338 317 374 584 Q 383 623 386 629 C 392 649 392 649 371 664 Q 328 697 307 691 Q 294 684 300 670 Q 322 640 311 552 Q 310 548 310 542 Q 300 418 283 366 L 273 330 Z" fill="lightgray"></path>
				<path d="M 139 565 Q 175 502 204 485 Q 217 479 227 490 Q 236 500 236 516 Q 233 555 178 585 Q 150 606 134 603 Q 128 603 129 591 Q 128 581 139 565 Z" fill="lightgray"></path>
				<path d="M 283 366 Q 91 291 65 289 Q 52 286 52 276 Q 51 263 61 257 Q 83 244 117 229 Q 127 228 137 237 Q 159 259 273 330 C 298 346 311 377 283 366 Z" fill="lightgray"></path>
				<path d="M 454 546 Q 417 540 443 522 Q 488 498 543 510 Q 619 523 697 539 Q 733 546 738 551 Q 748 558 743 568 Q 736 580 706 588 Q 684 594 589 567 Q 504 551 454 546 Z" fill="lightgray"></path>
				<path d="M 460 423 Q 448 429 420 432 Q 408 435 405 429 Q 398 423 408 407 Q 432 364 450 291 Q 454 269 468 255 Q 486 233 491 250 Q 492 256 493 262 L 491 295 Q 479 370 476 394 C 473 418 473 418 460 423 Z" fill="lightgray"></path>
				<path d="M 725 323 Q 752 380 778 395 Q 794 413 781 430 Q 709 488 665 466 Q 581 439 460 423 C 430 419 446 389 476 394 Q 479 394 660 425 Q 679 429 688 421 Q 695 414 692 400 Q 685 363 673 330 C 663 302 712 296 725 323 Z" fill="lightgray"></path>
				<path d="M 493 262 Q 502 261 515 263 Q 585 278 735 290 Q 745 291 747 299 Q 747 306 725 323 C 708 337 702 335 673 330 Q 672 330 671 330 Q 571 306 491 295 C 461 291 463 263 493 262 Z" fill="lightgray"></path>
				<path d="M 425 178 Q 443 141 473 110 Q 485 104 496 114 Q 503 123 505 138 Q 502 174 444 208 Q 431 215 423 215 Q 417 215 417 204 Q 416 194 425 178 Z" fill="lightgray"></path>
				<path d="M 632 95 Q 648 113 696 170 Q 706 183 726 202 Q 742 212 735 223 Q 728 242 702 265 Q 689 278 671 274 Q 661 271 665 259 Q 671 225 611 119 Q 601 103 598 91 C 589 62 612 72 632 95 Z" fill="lightgray"></path>
				<path d="M 598 91 Q 588 91 578 89 Q 449 76 298 62 Q 276 61 291 43 Q 306 28 324 22 Q 346 15 362 19 Q 590 71 881 51 Q 882 52 884 51 Q 905 50 910 59 Q 916 71 899 86 Q 835 137 798 118 Q 731 108 632 95 L 598 91 Z" fill="lightgray"></path>
</g>
		<text x="40" y="140" font-size="128" fill="#999999">2</text></g>
		<g id="id0:id2:id2" transform="matrix(1.0,0,0,1.0,2048,0.0)">			<g stroke="lightgray" stroke-width="4" transform="scale(4, 4)"> <rect x="0" y="0" width="256" height="256" fill="white" stroke-width="4"/></g>
			<g transform="scale(0.92, -0.92) translate(60, -920)">					<path d="M 527 801 Q 549 783 573 760 Q 589 747 605 749 Q 615 750 621 764 Q 625 780 614 811 Q 602 839 519 851 Q 503 855 496 851 Q 490 847 493 833 Q 497 823 527 801 Z" fill="black"></path>
				<path d="M 386 629 Q 422 622 513 635 Q 793 683 805 691 Q 815 698 811 708 Q 804 720 774 729 Q 744 736 643 706 Q 490 673 372 665 Q 371 665 371 664 C 341 660 356 633 386 629 Z" fill="black"></path>
				<path d="M 273 330 Q 216 152 104 -5 Q 98 -12 96 -18 Q 93 -28 104 -27 Q 137 -23 224 99 Q 242 129 260 161 Q 338 317 374 584 Q 383 623 386 629 C 392 649 392 649 371 664 Q 328 697 307 691 Q 294 684 300 670 Q 322 640 311 552 Q 310 548 310 542 Q 300 418 283 366 L 273 330 Z" fill="red"></path>
				<path d="M 139 565 Q 175 502 204 485 Q 217 479 227 490 Q 236 500 236 516 Q 233 555 178 585 Q 150 606 134 603 Q 128 603 129 591 Q 128 581 139 565 Z" fill="lightgray"></path>
				<path d="M 283 366 Q 91 291 65 289 Q 52 286 52 276 Q 51 263 61 257 Q 83 244 117 229 Q 127 228 137 237 Q 159 259 273 330 C 298 346 311 377 283 366 Z" fill="lightgray"></path>
				<path d="M 454 546 Q 417 540 443 522 Q 488 498 543 510 Q 619 523 697 539 Q 733 546 738 551 Q 748 558 743 568 Q 736 580 706 588 Q 684 594 589 567 Q 504 551 454 546 Z" fill="lightgray"></path>
				<path d="M 460 423 Q 448 429 420 432 Q 408 435 405 429 Q 398 423 408 407 Q 432 364 450 291 Q 454 269 468 255 Q 486 233 491 250 Q 492 256 493 262 L 491 295 Q 479 370 476 394 C 473 418 473 418 460 423 Z" fill="lightgray"></path>
				<path d="M 725 323 Q 752 380 778 395 Q 794 413 781 430 Q 709 488 665 466 Q 581 439 460 423 C 430 419 446 389 476 394 Q 479 394 660 425 Q 679 429 688 421 Q 695 414 692 400 Q 685 363 673 330 C 663 302 712 296 725 323 Z" fill="lightgray"></path>
				<path d="M 493 262 Q 502 261 515 263 Q 585 278 735 290 Q 745 291 747 299 Q 747 306 725 323 C 708 337 702 335 673 330 Q 672 330 671 330 Q 571 306 491 295 C 461 291 463 263 493 262 Z" fill="lightgray"></path>
				<path d="M 425 178 Q 443 141 473 110 Q 485 104 496 114 Q 503 123 505 138 Q 502 174 444 208 Q 431 215 423 215 Q 417 215 417 204 Q 416 194 425 178 Z" fill="lightgray"></path>
				<path d="M 632 95 Q 648 113 696 170 Q 706 183 726 202 Q 742 212 735 223 Q 728 242 702 265 Q 689 278 671 274 Q 661 271 665 259 Q 671 225 611 119 Q 601 103 598 91 C 589 62 612 72 632 95 Z" fill="lightgray"></path>
				<path d="M 598 91 Q 588 91 578 89 Q 449 76 298 62 Q 276 61 291 43 Q 306 28 324 22 Q 346 15 362 19 Q 590 71 881 51 Q 882 52 884 51 Q 905 50 910 59 Q 916 71 899 86 Q 835 137 798 118 Q 731 108 632 95 L 598 91 Z" fill="lightgray"></path>
</g>
		<text x="40" y="140" font-size="128" fill="#999999">3</text></g>
		<g id="id0:id3:id3" transform="matrix(1.0,0,0,1.0,3072,0.0)">			<g stroke="lightgray" stroke-width="4" transform="scale(4, 4)"> <rect x="0" y="0" width="256" height="256" fill="white" stroke-width="4"/></g>
			<g transform="scale(0.92, -0.92) translate(60, -920)">					<path d="M 527 801 Q 549 783 573 760 Q 589 747 605 749 Q 615 750 621 764 Q 625 780 614 811 Q 602 839 519 851 Q 503 855 496 851 Q 490 847 493 833 Q 497 823 527 801 Z" fill="black"></path>
				<path d="M 386 629 Q 422 622 513 635 Q 793 683 805 691 Q 815 698 811 708 Q 804 720 774 729 Q 744 736 643 706 Q 490 673 372 665 Q 371 665 371 664 C 341 660 356 633 386 629 Z" fill="black"></path>
				<path d="M 273 330 Q 216 152 104 -5 Q 98 -12 96 -18 Q 93 -28 104 -27 Q 137 -23 224 99 Q 242 129 260 161 Q 338 317 374 584 Q 383 623 386 629 C 392 649 392 649 371 664 Q 328 697 307 691 Q 294 684 300 670 Q 322 640 311 552 Q 310 548 310 542 Q 300 418 283 366 L 273 330 Z" fill="black"></path>
				<path d="M 139 565 Q 175 502 204 485 Q 217 479 227 490 Q 236 500 236 516 Q 233 555 178 585 Q 150 606 134 603 Q 128 603 129 591 Q 128 581 139 565 Z" fill="red"></path>
				<path d="M 283 366 Q 91 291 65 289 Q 52 286 52 276 Q 51 263 61 257 Q 83 244 117 229 Q 127 228 137 237 Q 159 259 273 330 C 298 346 311 377 283 366 Z" fill="lightgray"></path>
				<path d="M 454 546 Q 417 540 443 522 Q 488 498 543 510 Q 619 523 697 539 Q 733 546 738 551 Q 748 558 743 568 Q 736 580 706 588 Q 684 594 589 567 Q 504 551 454 546 Z" fill="lightgray"></path>
				<path d="M 460 423 Q 448 429 420 432 Q 408 435 405 429 Q 398 423 408 407 Q 432 364 450 291 Q 454 269 468 255 Q 486 233 491 250 Q 492 256 493 262 L 491 295 Q 479 370 476 394 C 473 418 473 418 460 423 Z" fill="lightgray"></path>
				<path d="M 725 323 Q 752 380 778 395 Q 794 413 781 430 Q 709 488 665 466 Q 581 439 460 423 C 430 419 446 389 476 394 Q 479 394 660 425 Q 679 429 688 421 Q 695 414 692 400 Q 685 363 673 330 C 663 302 712 296 725 323 Z" fill="lightgray"></path>
				<path d="M 493 262 Q 502 261 515 263 Q 585 278 735 290 Q 745 291 747 299 Q 747 306 725 323 C 708 337 702 335 673 330 Q 672 330 671 330 Q 571 306 491 295 C 461 291 463 263 493 262 Z" fill="lightgray"></path>
				<path d="M 425 178 Q 443 141 473 110 Q 485 104 496 114 Q 503 123 505 138 Q 502 174 444 208 Q 431 215 423 215 Q 417 215 417 204 Q 416 194 425 178 Z" fill="lightgray"></path>
				<path d="M 632 95 Q 648 113 696 170 Q 706 183 726 202 Q 742 212 735 223 Q 728 242 702 265 Q 689 278 671 274 Q 661 271 665 259 Q 671 225 611 119 Q 601 103 598 91 C 589 62 612 72 632 95 Z" fill="lightgray"></path>
				<path d="M 598 91 Q 588 91 578 89 Q 449 76 298 62 Q 276 61 291 43 Q 306 28 324 22 Q 346 15 362 19 Q 590 71 881 51 Q 882 52 884 51 Q 905 50 910 59 Q 916 71 899 86 Q 835 137 798 118 Q 731 108 632 95 L 598 91 Z" fill="lightgray"></path>
</g>
		<text x="40" y="140" font-size="128" fill="#999999">4</text></g>
		<g id="id0:id4:id4" transform="matrix(1.0,0,0,1.0,4096,0.0)">			<g stroke="lightgray" stroke-width="4" transform="scale(4, 4)"> <rect x="0" y="0" width="256" height="256" fill="white" stroke-width="4"/></g>
			<g transform="scale(0.92, -0.92) translate(60, -920)">					<path d="M 527 801 Q 549 783 573 760 Q 589 747 605 749 Q 615 750 621 764 Q 625 780 614 811 Q 602 839 519 851 Q 503 855 496 851 Q 490 847 493 833 Q 497 823 527 801 Z" fill="black"></path>
				<path d="M 386 629 Q 422 622 513 635 Q 793 683 805 691 Q 815 698 811 708 Q 804 720 774 729 Q 744 736 643 706 Q 490 673 372 665 Q 371 665 371 664 C 341 660 356 633 386 629 Z" fill="black"></path>
				<path d="M 273 330 Q 216 152 104 -5 Q 98 -12 96 -18 Q 93 -28 104 -27 Q 137 -23 224 99 Q 242 129 260 161 Q 338 317 374 584 Q 383 623 386 629 C 392 649 392 649 371 664 Q 328 697 307 691 Q 294 684 300 670 Q 322 640 311 552 Q 310 548 310 542 Q 300 418 283 366 L 273 330 Z" fill="black"></path>
				<path d="M 139 565 Q 175 502 204 485 Q 217 479 227 490 Q 236 500 236 516 Q 233 555 178 585 Q 150 606 134 603 Q 128 603 129 591 Q 128 581 139 565 Z" fill="black"></path>
				<path d="M 283 366 Q 91 291 65 289 Q 52 286 52 276 Q 51 263 61 257 Q 83 244 117 229 Q 127 228 137 237 Q 159 259 273 330 C 298 346 311 377 283 366 Z" fill="red"></path>
				<path d="M 454 546 Q 417 540 443 522 Q 488 498 543 510 Q 619 523 697 539 Q 733 546 738 551 Q 748 558 743 568 Q 736 580 706 588 Q 684 594 589 567 Q 504 551 454 546 Z" fill="lightgray"></path>
				<path d="M 460 423 Q 448 429 420 432 Q 408 435 405 429 Q 398 423 408 407 Q 432 364 450 291 Q 454 269 468 255 Q 486 233 491 250 Q 492 256 493 262 L 491 295 Q 479 370 476 394 C 473 418 473 418 460 423 Z" fill="lightgray"></path>
				<path d="M 725 323 Q 752 380 778 395 Q 794 413 781 430 Q 709 488 665 466 Q 581 439 460 423 C 430 419 446 389 476 394 Q 479 394 660 425 Q 679 429 688 421 Q 695 414 692 400 Q 685 363 673 330 C 663 302 712 296 725 323 Z" fill="lightgray"></path>
				<path d="M 493 262 Q 502 261 515 263 Q 585 278 735 290 Q 745 291 747 299 Q 747 306 725 323 C 708 337 702 335 673 330 Q 672 330 671 330 Q 571 306 491 295 C 461 291 463 263 493 262 Z" fill="lightgray"></path>
				<path d="M 425 178 Q 443 141 473 110 Q 485 104 496 114 Q 503 123 505 138 Q 502 174 444 208 Q 431 215 423 215 Q 417 215 417 204 Q 416 194 425 178 Z" fill="lightgray"></path>
				<path d="M 632 95 Q 648 113 696 170 Q 706 183 726 202 Q 742 212 735 223 Q 728 242 702 265 Q 689 278 671 274 Q 661 271 665 259 Q 671 225 611 119 Q 601 103 598 91 C 589 62 612 72 632 95 Z" fill="lightgray"></path>
				<path d="M 598 91 Q 588 91 578 89 Q 449 76 298 62 Q 276 61 291 43 Q 306 28 324 22 Q 346 15 362 19 Q 590 71 881 51 Q 882 52 884 51 Q 905 50 910 59 Q 916 71 899 86 Q 835 137 798 118 Q 731 108 632 95 L 598 91 Z" fill="lightgray"></path>
</g>
		<text x="40" y="140" font-size="128" fill="#999999">5</text></g>
</g>
	<g id="id1:id1" transform="translate(0.0,1024)">
		<g id="id1:id0:id0" transform="matrix(1.0,0,0,1.0,0,0.0)">			<g stroke="lightgray" stroke-width="4" transform="scale(4, 4)"> <rect x="0" y="0" width="256" height="256" fill="white" stroke-width="4"/></g>
			<g transform="scale(0.92, -0.92) translate(60, -920)">					<path d="M 527 801 Q 549 783 573 760 Q 589 747 605 749 Q 615 750 621 764 Q 625 780 614 811 Q 602 839 519 851 Q 503 855 496 851 Q 490 847 493 833 Q 497 823 527 801 Z" fill="black"></path>
				<path d="M 386 629 Q 422 622 513 635 Q 793 683 805 691 Q 815 698 811 708 Q 804 720 774 729 Q 744 736 643 706 Q 490 673 372 665 Q 371 665 371 664 C 341 660 356 633 386 629 Z" fill="black"></path>
				<path d="M 273 330 Q 216 152 104 -5 Q 98 -12 96 -18 Q 93 -28 104 -27 Q 137 -23 224 99 Q 242 129 260 161 Q 338 317 374 584 Q 383 623 386 629 C 392 649 392 649 371 664 Q 328 697 307 691 Q 294 684 300 670 Q 322 640 311 552 Q 310 548 310 542 Q 300 418 283 366 L 273 330 Z" fill="black"></path>
				<path d="M 139 565 Q 175 502 204 485 Q 217 479 227 490 Q 236 500 236 516 Q 233 555 178 585 Q 150 606 134 603 Q 128 603 129 591 Q 128 581 139 565 Z" fill="black"></path>
				<path d="M 283 366 Q 91 291 65 289 Q 52 286 52 276 Q 51 263 61 257 Q 83 244 117 229 Q 127 228 137 237 Q 159 259 273 330 C 298 346 311 377 283 366 Z" fill="black"></path>
				<path d="M 454 546 Q 417 540 443 522 Q 488 498 543 510 Q 619 523 697 539 Q 733 546 738 551 Q 748 558 743 568 Q 736 580 706 588 Q 684 594 589 567 Q 504 551 454 546 Z" fill="red"></path>
				<path d="M 460 423 Q 448 429 420 432 Q 408 435 405 429 Q 398 423 408 407 Q 432 364 450 291 Q 454 269 468 255 Q 486 233 491 250 Q 492 256 493 262 L 491 295 Q 479 370 476 394 C 473 418 473 418 460 423 Z" fill="lightgray"></path>
				<path d="M 725 323 Q 752 380 778 395 Q 794 413 781 430 Q 709 488 665 466 Q 581 439 460 423 C 430 419 446 389 476 394 Q 479 394 660 425 Q 679 429 688 421 Q 695 414 692 400 Q 685 363 673 330 C 663 302 712 296 725 323 Z" fill="lightgray"></path>
				<path d="M 493 262 Q 502 261 515 263 Q 585 278 735 290 Q 745 291 747 299 Q 747 306 725 323 C 708 337 702 335 673 330 Q 672 330 671 330 Q 571 306 491 295 C 461 291 463 263 493 262 Z" fill="lightgray"></path>
				<path d="M 425 178 Q 443 141 473 110 Q 485 104 496 114 Q 503 123 505 138 Q 502 174 444 208 Q 431 215 423 215 Q 417 215 417 204 Q 416 194 425 178 Z" fill="lightgray"></path>
				<path d="M 632 95 Q 648 113 696 170 Q 706 183 726 202 Q 742 212 735 223 Q 728 242 702 265 Q 689 278 671 274 Q 661 271 665 259 Q 671 225 611 119 Q 601 103 598 91 C 589 62 612 72 632 95 Z" fill="lightgray"></path>
				<path d="M 598 91 Q 588 91 578 89 Q 449 76 298 62 Q 276 61 291 43 Q 306 28 324 22 Q 346 15 362 19 Q 590 71 881 51 Q 882 52 884 51 Q 905 50 910 59 Q 916 71 899 86 Q 835 137 798 118 Q 731 108 632 95 L 598 91 Z" fill="lightgray"></path>
</g>
		<text x="40" y="140" font-size="128" fill="#999999">6</text></g>
		<g id="id1:id1:id1" transform="matrix(1.0,0,0,1.0,1024,0.0)">			<g stroke="lightgray" stroke-width="4" transform="scale(4, 4)"> <rect x="0" y="0" width="256" height="256" fill="white" stroke-width="4"/></g>
			<g transform="scale(0.92, -0.92) translate(60, -920)">					<path d="M 527 801 Q 549 783 573 760 Q 589 747 605 749 Q 615 750 621 764 Q 625 780 614 811 Q 602 839 519 851 Q 503 855 496 851 Q 490 847 493 833 Q 497 823 527 801 Z" fill="black"></path>
				<path d="M 386 629 Q 422 622 513 635 Q 793 683 805 691 Q 815 698 811 708 Q 804 720 774 729 Q 744 736 643 706 Q 490 673 372 665 Q 371 665 371 664 C 341 660 356 633 386 629 Z" fill="black"></path>
				<path d="M 273 330 Q 216 152 104 -5 Q 98 -12 96 -18 Q 93 -28 104 -27 Q 137 -23 224 99 Q 242 129 260 161 Q 338 317 374 584 Q 383 623 386 629 C 392 649 392 649 371 664 Q 328 697 307 691 Q 294 684 300 670 Q 322 640 311 552 Q 310 548 310 542 Q 300 418 283 366 L 273 330 Z" fill="black"></path>
				<path d="M 139 565 Q 175 502 204 485 Q 217 479 227 490 Q 236 500 236 516 Q 233 555 178 585 Q 150 606 134 603 Q 128 603 129 591 Q 128 581 139 565 Z" fill="black"></path>
				<path d="M 283 366 Q 91 291 65 289 Q 52 286 52 276 Q 51 263 61 257 Q 83 244 117 229 Q 127 228 137 237 Q 159 259 273 330 C 298 346 311 377 283 366 Z" fill="black"></path>
				<path d="M 454 546 Q 417 540 443 522 Q 488 498 543 510 Q 619 523 697 539 Q 733 546 738 551 Q 748 558 743 568 Q 736 580 706 588 Q 684 594 589 567 Q 504 551 454 546 Z" fill="black"></path>
				<path d="M 460 423 Q 448 429 420 432 Q 408 435 405 429 Q 398 423 408 407 Q 432 364 450 291 Q 454 269 468 255 Q 486 233 491 250 Q 492 256 493 262 L 491 295 Q 479 370 476 394 C 473 418 473 418 460 423 Z" fill="red"></path>
				<path d="M 725 323 Q 752 380 778 395 Q 794 413 781 430 Q 709 488 665 466 Q 581 439 460 423 C 430 419 446 389 476 394 Q 479 394 660 425 Q 679 429 688 421 Q 695 414 692 400 Q 685 363 673 330 C 663 302 712 296 725 323 Z" fill="lightgray"></path>
				<path d="M 493 262 Q 502 261 515 263 Q 585 278 735 290 Q 745 291 747 299 Q 747 306 725 323 C 708 337 702 335 673 330 Q 672 330 671 330 Q 571 306 491 295 C 461 291 463 263 493 262 Z" fill="lightgray"></path>
				<path d="M 425 178 Q 443 141 473 110 Q 485 104 496 114 Q 503 123 505 138 Q 502 174 444 208 Q 431 215 423 215 Q 417 215 417 204 Q 416 194 425 178 Z" fill="lightgray"></path>
				<path d="M 632 95 Q 648 113 696 170 Q 706 183 726 202 Q 742 212 735 223 Q 728 242 702 265 Q 689 278 671 274 Q 661 271 665 259 Q 671 225 611 119 Q 601 103 598 91 C 589 62 612 72 632 95 Z" fill="lightgray"></path>
				<path d="M 598 91 Q 588 91 578 89 Q 449 76 298 62 Q 276 61 291 43 Q 306 28 324 22 Q 346 15 362 19 Q 590 71 881 51 Q 882 52 884 51 Q 905 50 910 59 Q 916 71 899 86 Q 835 137 798 118 Q 731 108 632 95 L 598 91 Z" fill="lightgray"></path>
</g>
		<text x="40" y="140" font-size="128" fill="#999999">7</text></g>
		<g id="id1:id2:id2" transform="matrix(1.0,0,0,1.0,2048,0.0)">			<g stroke="lightgray" stroke-width="4" transform="scale(4, 4)"> <rect x="0" y="0" width="256" height="256" fill="white" stroke-width="4"/></g>
			<g transform="scale(0.92, -0.92) translate(60, -920)">					<path d="M 527 801 Q 549 783 573 760 Q 589 747 605 749 Q 615 750 621 764 Q 625 780 614 811 Q 602 839 519 851 Q 503 855 496 851 Q 490 847 493 833 Q 497 823 527 801 Z" fill="black"></path>
				<path d="M 386 629 Q 422 622 513 635 Q 793 683 805 691 Q 815 698 811 708 Q 804 720 774 729 Q 744 736 643 706 Q 490 673 372 665 Q 371 665 371 664 C 341 660 356 633 386 629 Z" fill="black"></path>
				<path d="M 273 330 Q 216 152 104 -5 Q 98 -12 96 -18 Q 93 -28 104 -27 Q 137 -23 224 99 Q 242 129 260 161 Q 338 317 374 584 Q 383 623 386 629 C 392 649 392 649 371 664 Q 328 697 307 691 Q 294 684 300 670 Q 322 640 311 552 Q 310 548 310 542 Q 300 418 283 366 L 273 330 Z" fill="black"></path>
				<path d="M 139 565 Q 175 502 204 485 Q 217 479 227 490 Q 236 500 236 516 Q 233 555 178 585 Q 150 606 134 603 Q 128 603 129 591 Q 128 581 139 565 Z" fill="black"></path>
				<path d="M 283 366 Q 91 291 65 289 Q 52 286 52 276 Q 51 263 61 257 Q 83 244 117 229 Q 127 228 137 237 Q 159 259 273 330 C 298 346 311 377 283 366 Z" fill="black"></path>
				<path d="M 454 546 Q 417 540 443 522 Q 488 498 543 510 Q 619 523 697 539 Q 733 546 738 551 Q 748 558 743 568 Q 736 580 706 588 Q 684 594 589 567 Q 504 551 454 546 Z" fill="black"></path>
				<path d="M 460 423 Q 448 429 420 432 Q 408 435 405 429 Q 398 423 408 407 Q 432 364 450 291 Q 454 269 468 255 Q 486 233 491 250 Q 492 256 493 262 L 491 295 Q 479 370 476 394 C 473 418 473 418 460 423 Z" fill="black"></path>
				<path d="M 725 323 Q 752 380 778 395 Q 794 413 781 430 Q 709 488 665 466 Q 581 439 460 423 C 430 419 446 389 476 394 Q 479 394 660 425 Q 679 429 688 421 Q 695 414 692 400 Q 685 363 673 330 C 663 302 712 296 725 323 Z" fill="red"></path>
				<path d="M 493 262 Q 502 261 515 263 Q 585 278 735 290 Q 745 291 747 299 Q 747 306 725 323 C 708 337 702 335 673 330 Q 672 330 671 330 Q 571 306 491 295 C 461 291 463 263 493 262 Z" fill="lightgray"></path>
				<path d="M 425 178 Q 443 141 473 110 Q 485 104 496 114 Q 503 123 505 138 Q 502 174 444 208 Q 431 215 423 215 Q 417 215 417 204 Q 416 194 425 178 Z" fill="lightgray"></path>
				<path d="M 632 95 Q 648 113 696 170 Q 706 183 726 202 Q 742 212 735 223 Q 728 242 702 265 Q 689 278 671 274 Q 661 271 665 259 Q 671 225 611 119 Q 601 103 598 91 C 589 62 612 72 632 95 Z" fill="lightgray"></path>
				<path d="M 598 91 Q 588 91 578 89 Q 449 76 298 62 Q 276 61 291 43 Q 306 28 324 22 Q 346 15 362 19 Q 590 71 881 51 Q 882 52 884 51 Q 905 50 910 59 Q 916 71 899 86 Q 835 137 798 118 Q 731 108 632 95 L 598 91 Z" fill="lightgray"></path>
</g>
		<text x="40" y="140" font-size="128" fill="#999999">8</text></g>
		<g id="id1:id3:id3" transform="matrix(1.0,0,0,1.0,3072,0.0)">			<g stroke="lightgray" stroke-width="4" transform="scale(4, 4)"> <rect x="0" y="0" width="256" height="256" fill="white" stroke-width="4"/></g>
			<g transform="scale(0.92, -0.92) translate(60, -920)">					<path d="M 527 801 Q 549 783 573 760 Q 589 747 605 749 Q 615 750 621 764 Q 625 780 614 811 Q 602 839 519 851 Q 503 855 496 851 Q 490 847 493 833 Q 497 823 527 801 Z" fill="black"></path>
				<path d="M 386 629 Q 422 622 513 635 Q 793 683 805 691 Q 815 698 811 708 Q 804 720 774 729 Q 744 736 643 706 Q 490 673 372 665 Q 371 665 371 664 C 341 660 356 633 386 629 Z" fill="black"></path>
				<path d="M 273 330 Q 216 152 104 -5 Q 98 -12 96 -18 Q 93 -28 104 -27 Q 137 -23 224 99 Q 242 129 260 161 Q 338 317 374 584 Q 383 623 386 629 C 392 649 392 649 371 664 Q 328 697 307 691 Q 294 684 300 670 Q 322 640 311 552 Q 310 548 310 542 Q 300 418 283 366 L 273 330 Z" fill="black"></path>
				<path d="M 139 565 Q 175 502 204 485 Q 217 479 227 490 Q 236 500 236 516 Q 233 555 178 585 Q 150 606 134 603 Q 128 603 129 591 Q 128 581 139 565 Z" fill="black"></path>
				<path d="M 283 366 Q 91 291 65 289 Q 52 286 52 276 Q 51 263 61 257 Q 83 244 117 229 Q 127 228 137 237 Q 159 259 273 330 C 298 346 311 377 283 366 Z" fill="black"></path>
				<path d="M 454 546 Q 417 540 443 522 Q 488 498 543 510 Q 619 523 697 539 Q 733 546 738 551 Q 748 558 743 568 Q 736 580 706 588 Q 684 594 589 567 Q 504 551 454 546 Z" fill="black"></path>
				<path d="M 460 423 Q 448 429 420 432 Q 408 435 405 429 Q 398 423 408 407 Q 432 364 450 291 Q 454 269 468 255 Q 486 233 491 250 Q 492 256 493 262 L 491 295 Q 479 370 476 394 C 473 418 473 418 460 423 Z" fill="black"></path>
				<path d="M 725 323 Q 752 380 778 395 Q 794 413 781 430 Q 709 488 665 466 Q 581 439 460 423 C 430 419 446 389 476 394 Q 479 394 660 425 Q 679 429 688 421 Q 695 414 692 400 Q 685 363 673 330 C 663 302 712 296 725 323 Z" fill="black"></path>
				<path d="M 493 262 Q 502 261 515 263 Q 585 278 735 290 Q 745 291 747 299 Q 747 306 725 323 C 708 337 702 335 673 330 Q 672 330 671 330 Q 571 306 491 295 C 461 291 463 263 493 262 Z" fill="red"></path>
				<path d="M 425 178 Q 443 141 473 110 Q 485 104 496 114 Q 503 123 505 138 Q 502 174 444 208 Q 431 215 423 215 Q 417 215 417 204 Q 416 194 425 178 Z" fill="lightgray"></path>
				<path d="M 632 95 Q 648 113 696 170 Q 706 183 726 202 Q 742 212 735 223 Q 728 242 702 265 Q 689 278 671 274 Q 661 271 665 259 Q 671 225 611 119 Q 601 103 598 91 C 589 62 612 72 632 95 Z" fill="lightgray"></path>
				<path d="M 598 91 Q 588 91 578 89 Q 449 76 298 62 Q 276 61 291 43 Q 306 28 324 22 Q 346 15 362 19 Q 590 71 881 51 Q 882 52 884 51 Q 905 50 910 59 Q 916 71 899 86 Q 835 137 798 118 Q 731 108 632 95 L 598 91 Z" fill="lightgray"></path>
</g>
		<text x="40" y="140" font-size="128" fill="#999999">9</text></g>
		<g id="id1:id4:id4" transform="matrix(1.0,0,0,1.0,4096,0.0)">			<g stroke="lightgray" stroke-width="4" transform="scale(4, 4)"> <rect x="0" y="0" width="256" height="256" fill="white" stroke-width="4"/></g>
			<g transform="scale(0.92, -0.92) translate(60, -920)">					<path d="M 527 801 Q 549 783 573 760 Q 589 747 605 749 Q 615 750 621 764 Q 625 780 614 811 Q 602 839 519 851 Q 503 855 496 851 Q 490 847 493 833 Q 497 823 527 801 Z" fill="black"></path>
				<path d="M 386 629 Q 422 622 513 635 Q 793 683 805 691 Q 815 698 811 708 Q 804 720 774 729 Q 744 736 643 706 Q 490 673 372 665 Q 371 665 371 664 C 341 660 356 633 386 629 Z" fill="black"></path>
				<path d="M 273 330 Q 216 152 104 -5 Q 98 -12 96 -18 Q 93 -28 104 -27 Q 137 -23 224 99 Q 242 129 260 161 Q 338 317 374 584 Q 383 623 386 629 C 392 649 392 649 371 664 Q 328 697 307 691 Q 294 684 300 670 Q 322 640 311 552 Q 310 548 310 542 Q 300 418 283 366 L 273 330 Z" fill="black"></path>
				<path d="M 139 565 Q 175 502 204 485 Q 217 479 227 490 Q 236 500 236 516 Q 233 555 178 585 Q 150 606 134 603 Q 128 603 129 591 Q 128 581 139 565 Z" fill="black"></path>
				<path d="M 283 366 Q 91 291 65 289 Q 52 286 52 276 Q 51 263 61 257 Q 83 244 117 229 Q 127 228 137 237 Q 159 259 273 330 C 298 346 311 377 283 366 Z" fill="black"></path>
				<path d="M 454 546 Q 417 540 443 522 Q 488 498 543 510 Q 619 523 697 539 Q 733 546 738 551 Q 748 558 743 568 Q 736 580 706 588 Q 684 594 589 567 Q 504 551 454 546 Z" fill="black"></path>
				<path d="M 460 423 Q 448 429 420 432 Q 408 435 405 429 Q 398 423 408 407 Q 432 364 450 291 Q 454 269 468 255 Q 486 233 491 250 Q 492 256 493 262 L 491 295 Q 479 370 476 394 C 473 418 473 418 460 423 Z" fill="black"></path>
				<path d="M 725 323 Q 752 380 778 395 Q 794 413 781 430 Q 709 488 665 466 Q 581 439 460 423 C 430 419 446 389 476 394 Q 479 394 660 425 Q 679 429 688 421 Q 695 414 692 400 Q 685 363 673 330 C 663 302 712 296 725 323 Z" fill="black"></path>
				<path d="M 493 262 Q 502 261 515 263 Q 585 278 735 290 Q 745 291 747 299 Q 747 306 725 323 C 708 337 702 335 673 330 Q 672 330 671 330 Q 571 306 491 295 C 461 291 463 263 493 262 Z" fill="black"></path>
				<path d="M 425 178 Q 443 141 473 110 Q 485 104 496 114 Q 503 123 505 138 Q 502 174 444 208 Q 431 215 423 215 Q 417 215 417 204 Q 416 194 425 178 Z" fill="red"></path>
				<path d="M 632 95 Q 648 113 696 170 Q 706 183 726 202 Q 742 212 735 223 Q 728 242 702 265 Q 689 278 671 274 Q 661 271 665 259 Q 671 225 611 119 Q 601 103 598 91 C 589 62 612 72 632 95 Z" fill="lightgray"></path>
				<path d="M 598 91 Q 588 91 578 89 Q 449 76 298 62 Q 276 61 291 43 Q 306 28 324 22 Q 346 15 362 19 Q 590 71 881 51 Q 882 52 884 51 Q 905 50 910 59 Q 916 71 899 86 Q 835 137 798 118 Q 731 108 632 95 L 598 91 Z" fill="lightgray"></path>
</g>
		<text x="40" y="140" font-size="128" fill="#999999">10</text></g>
</g>
	<g id="id2:id2" transform="translate(0.0,2048)">
		<g id="id2:id0:id0" transform="matrix(1.0,0,0,1.0,0,0.0)">			<g stroke="lightgray" stroke-width="4" transform="scale(4, 4)"> <rect x="0" y="0" width="256" height="256" fill="white" stroke-width="4"/></g>
			<g transform="scale(0.92, -0.92) translate(60, -920)">					<path d="M 527 801 Q 549 783 573 760 Q 589 747 605 749 Q 615 750 621 764 Q 625 780 614 811 Q 602 839 519 851 Q 503 855 496 851 Q 490 847 493 833 Q 497 823 527 801 Z" fill="black"></path>
				<path d="M 386 629 Q 422 622 513 635 Q 793 683 805 691 Q 815 698 811 708 Q 804 720 774 729 Q 744 736 643 706 Q 490 673 372 665 Q 371 665 371 664 C 341 660 356 633 386 629 Z" fill="black"></path>
				<path d="M 273 330 Q 216 152 104 -5 Q 98 -12 96 -18 Q 93 -28 104 -27 Q 137 -23 224 99 Q 242 129 260 161 Q 338 317 374 584 Q 383 623 386 629 C 392 649 392 649 371 664 Q 328 697 307 691 Q 294 684 300 670 Q 322 640 311 552 Q 310 548 310 542 Q 300 418 283 366 L 273 330 Z" fill="black"></path>
				<path d="M 139 565 Q 175 502 204 485 Q 217 479 227 490 Q 236 500 236 516 Q 233 555 178 585 Q 150 606 134 603 Q 128 603 129 591 Q 128 581 139 565 Z" fill="black"></path>
				<path d="M 283 366 Q 91 291 65 289 Q 52 286 52 276 Q 51 263 61 257 Q 83 244 117 229 Q 127 228 137 237 Q 159 259 273 330 C 298 346 311 377 283 366 Z" fill="black"></path>
				<path d="M 454 546 Q 417 540 443 522 Q 488 498 543 510 Q 619 523 697 539 Q 733 546 738 551 Q 748 558 743 568 Q 736 580 706 588 Q 684 594 589 567 Q 504 551 454 546 Z" fill="black"></path>
				<path d="M 460 423 Q 448 429 420 432 Q 408 435 405 429 Q 398 423 408 407 Q 432 364 450 291 Q 454 269 468 255 Q 486 233 491 250 Q 492 256 493 262 L 491 295 Q 479 370 476 394 C 473 418 473 418 460 423 Z" fill="black"></path>
				<path d="M 725 323 Q 752 380 778 395 Q 794 413 781 430 Q 709 488 665 466 Q 581 439 460 423 C 430 419 446 389 476 394 Q 479 394 660 425 Q 679 429 688 421 Q 695 414 692 400 Q 685 363 673 330 C 663 302 712 296 725 323 Z" fill="black"></path>
				<path d="M 493 262 Q 502 261 515 263 Q 585 278 735 290 Q 745 291 747 299 Q 747 306 725 323 C 708 337 702 335 673 330 Q 672 330 671 330 Q 571 306 491 295 C 461 291 463 263 493 262 Z" fill="black"></path>
				<path d="M 425 178 Q 443 141 473 110 Q 485 104 496 114 Q 503 123 505 138 Q 502 174 444 208 Q 431 215 423 215 Q 417 215 417 204 Q 416 194 425 178 Z" fill="black"></path>
				<path d="M 632 95 Q 648 113 696 170 Q 706 183 726 202 Q 742 212 735 223 Q 728 242 702 265 Q 689 278 671 274 Q 661 271 665 259 Q 671 225 611 119 Q 601 103 598 91 C 589 62 612 72 632 95 Z" fill="red"></path>
				<path d="M 598 91 Q 588 91 578 89 Q 449 76 298 62 Q 276 61 291 43 Q 306 28 324 22 Q 346 15 362 19 Q 590 71 881 51 Q 882 52 884 51 Q 905 50 910 59 Q 916 71 899 86 Q 835 137 798 118 Q 731 108 632 95 L 598 91 Z" fill="lightgray"></path>
</g>
		<text x="40" y="140" font-size="128" fill="#999999">11</text></g>
		<g id="id2:id1:id1" transform="matrix(1.0,0,0,1.0,1024,0.0)">			<g stroke="lightgray" stroke-width="4" transform="scale(4, 4)"> <rect x="0" y="0" width="256" height="256" fill="white" stroke-width="4"/></g>
			<g transform="scale(0.92, -0.92) translate(60, -920)">					<path d="M 527 801 Q 549 783 573 760 Q 589 747 605 749 Q 615 750 621 764 Q 625 780 614 811 Q 602 839 519 851 Q 503 855 496 851 Q 490 847 493 833 Q 497 823 527 801 Z" fill="black"></path>
				<path d="M 386 629 Q 422 622 513 635 Q 793 683 805 691 Q 815 698 811 708 Q 804 720 774 729 Q 744 736 643 706 Q 490 673 372 665 Q 371 665 371 664 C 341 660 356 633 386 629 Z" fill="black"></path>
				<path d="M 273 330 Q 216 152 104 -5 Q 98 -12 96 -18 Q 93 -28 104 -27 Q 137 -23 224 99 Q 242 129 260 161 Q 338 317 374 584 Q 383 623 386 629 C 392 649 392 649 371 664 Q 328 697 307 691 Q 294 684 300 670 Q 322 640 311 552 Q 310 548 310 542 Q 300 418 283 366 L 273 330 Z" fill="black"></path>
				<path d="M 139 565 Q 175 502 204 485 Q 217 479 227 490 Q 236 500 236 516 Q 233 555 178 585 Q 150 606 134 603 Q 128 603 129 591 Q 128 581 139 565 Z" fill="black"></path>
				<path d="M 283 366 Q 91 291 65 289 Q 52 286 52 276 Q 51 263 61 257 Q 83 244 117 229 Q 127 228 137 237 Q 159 259 273 330 C 298 346 311 377 283 366 Z" fill="black"></path>
				<path d="M 454 546 Q 417 540 443 522 Q 488 498 543 510 Q 619 523 697 539 Q 733 546 738 551 Q 748 558 743 568 Q 736 580 706 588 Q 684 594 589 567 Q 504 551 454 546 Z" fill="black"></path>
				<path d="M 460 423 Q 448 429 420 432 Q 408 435 405 429 Q 398 423 408 407 Q 432 364 450 291 Q 454 269 468 255 Q 486 233 491 250 Q 492 256 493 262 L 491 295 Q 479 370 476 394 C 473 418 473 418 460 423 Z" fill="black"></path>
				<path d="M 725 323 Q 752 380 778 395 Q 794 413 781 430 Q 709 488 665 466 Q 581 439 460 423 C 430 419 446 389 476 394 Q 479 394 660 425 Q 679 429 688 421 Q 695 414 692 400 Q 685 363 673 330 C 663 302 712 296 725 323 Z" fill="black"></path>
				<path d="M 493 262 Q 502 261 515 263 Q 585 278 735 290 Q 745 291 747 299 Q 747 306 725 323 C 708 337 702 335 673 330 Q 672 330 671 330 Q 571 306 491 295 C 461 291 463 263 493 262 Z" fill="black"></path>
				<path d="M 425 178 Q 443 141 473 110 Q 485 104 496 114 Q 503 123 505 138 Q 502 174 444 208 Q 431 215 423 215 Q 417 215 417 204 Q 416 194 425 178 Z" fill="black"></path>
				<path d="M 632 95 Q 648 113 696 170 Q 706 183 726 202 Q 742 212 735 223 Q 728 242 702 265 Q 689 278 671 274 Q 661 271 665 259 Q 671 225 611 119 Q 601 103 598 91 C 589 62 612 72 632 95 Z" fill="black"></path>
				<path d="M 598 91 Q 588 91 578 89 Q 449 76 298 62 Q 276 61 291 43 Q 306 28 324 22 Q 346 15 362 19 Q 590 71 881 51 Q 882 52 884 51 Q 905 50 910 59 Q 916 71 899 86 Q 835 137 798 118 Q 731 108 632 95 L 598 91 Z" fill="red"></path>
</g>
		<text x="40" y="140" font-size="128" fill="#999999">12</text></g>
		<g id="id2:id2:id2" transform="matrix(1.0,0,0,1.0,2048,0.0)">			<g stroke="white" stroke-width="4" transform="scale(4, 4)"> <rect x="1" y="1" width="255" height="255" fill="white" stroke-width="0"/></g>
</g>
		<g id="id2:id3:id3" transform="matrix(1.0,0,0,1.0,3072,0.0)">			<g stroke="white" stroke-width="4" transform="scale(4, 4)"> <rect x="1" y="1" width="255" height="255" fill="white" stroke-width="0"/></g>
</g>
		<g id="id2:id4:id4" transform="matrix(1.0,0,0,1.0,4096,0.0)">			<g stroke="white" stroke-width="4" transform="scale(4, 4)"> <rect x="1" y="1" width="255" height="255" fill="white" stroke-width="0"/></g>
</g>
</g>
</svg>
