<?xml version="1.0" standalone="no"?>
<!DOCTYPE svg PUBLIC "-//W3C//DTD SVG 1.1//EN"
 "http://www.w3.org/Graphics/SVG/1.1/DTD/svg11.dtd">
<!-- generate by Japanese dictionary app com.asnsami.kanjidictionary -->

<svg xmlns="http://www.w3.org/2000/svg" xmlns:sodipodi="http://sodipodi.sourceforge.net/DTD/sodipodi-0.dtd" version="1.1" width="640" height="384" viewBox="0 0 5120 3072">
	<g id="id0:id0" transform="translate(0.0,0)">
		<g id="id0:id0:id0" transform="matrix(1.0,0,0,1.0,0,0.0)">			<g stroke="lightgray" stroke-width="4" transform="scale(4, 4)"> <rect x="0" y="0" width="256" height="256" fill="white" stroke-width="4"/></g>
			<g transform="scale(0.92, -0.92) translate(60, -920)">					<path d="M 515 809 Q 537 791 561 768 Q 577 755 593 757 Q 603 758 609 772 Q 613 788 602 819 Q 590 847 507 859 Q 491 863 484 859 Q 478 855 481 841 Q 485 831 515 809 Z" fill="red"></path>
				<path d="M 366 651 Q 417 644 478 652 Q 766 698 777 707 Q 787 714 782 724 Q 775 737 746 745 Q 719 751 618 724 Q 473 691 356 685 C 326 683 336 654 366 651 Z" fill="lightgray"></path>
				<path d="M 262 352 Q 207 159 95 3 Q 91 -4 88 -10 Q 85 -20 96 -19 Q 129 -13 208 102 Q 229 135 250 175 Q 325 341 347 535 Q 356 622 365 647 Q 366 650 366 651 C 372 674 372 674 356 685 Q 341 698 319 707 Q 300 719 287 714 Q 274 707 281 693 Q 302 665 297 601 Q 285 460 271 391 Q 270 390 270 387 L 262 352 Z" fill="lightgray"></path>
				<path d="M 134 542 Q 161 496 197 470 Q 212 466 223 477 Q 230 490 231 507 Q 224 549 152 579 Q 136 586 126 584 Q 120 583 121 571 Q 121 558 134 542 Z" fill="lightgray"></path>
				<path d="M 270 387 Q 75 303 44 301 Q 31 298 31 288 Q 31 275 40 269 Q 64 256 97 242 Q 107 241 117 250 Q 138 272 261 352 L 262 352 C 288 367 298 399 270 387 Z" fill="lightgray"></path>
				<path d="M 608 477 Q 788 510 798 518 Q 805 525 802 533 Q 796 543 770 552 Q 742 559 715 548 Q 664 533 611 519 L 551 505 Q 475 492 385 485 Q 352 481 375 465 Q 408 444 481 455 Q 515 461 553 467 L 608 477 Z" fill="lightgray"></path>
				<path d="M 598 368 Q 602 425 608 477 L 611 519 Q 612 528 613 536 Q 616 566 626 592 Q 629 602 609 617 Q 575 635 552 639 Q 536 643 528 634 Q 521 627 529 612 Q 545 590 546 575 Q 549 541 551 505 L 553 467 Q 554 416 555 359 C 556 329 596 338 598 368 Z" fill="lightgray"></path>
				<path d="M 555 359 Q 485 346 421 332 Q 402 328 425 310 Q 438 298 470 303 Q 618 327 727 340 Q 755 344 745 359 Q 733 377 704 383 Q 662 389 598 368 L 555 359 Z" fill="lightgray"></path>
				<path d="M 352 215 Q 331 160 301 112 Q 283 82 301 48 Q 308 32 328 44 Q 377 83 378 160 Q 382 191 375 215 Q 371 222 364 224 Q 357 223 352 215 Z" fill="lightgray"></path>
				<path d="M 424 172 Q 445 78 516 35 Q 615 -25 794 3 Q 819 9 842 20 Q 864 30 865 44 Q 869 53 835 76 Q 783 121 745 167 Q 733 183 729 176 Q 728 176 743 97 Q 755 61 713 53 Q 704 53 694 51 Q 559 44 503 95 Q 478 117 465 156 Q 458 178 446 183 Q 433 190 426 186 Q 420 185 424 172 Z" fill="lightgray"></path>
				<path d="M 562 210 Q 605 158 621 157 Q 631 157 637 169 Q 643 182 637 212 Q 630 236 561 256 Q 546 260 540 259 Q 536 255 535 243 Q 538 233 562 210 Z" fill="lightgray"></path>
				<path d="M 771 257 Q 819 230 879 187 Q 898 171 915 171 Q 924 171 929 183 Q 938 199 915 238 Q 897 274 830 282 Q 787 286 765 287 Q 755 291 756 278 Q 757 265 771 257 Z" fill="lightgray"></path>
</g>
		<text x="40" y="140" font-size="128" fill="#999999">1</text></g>
		<g id="id0:id1:id1" transform="matrix(1.0,0,0,1.0,1024,0.0)">			<g stroke="lightgray" stroke-width="4" transform="scale(4, 4)"> <rect x="0" y="0" width="256" height="256" fill="white" stroke-width="4"/></g>
			<g transform="scale(0.92, -0.92) translate(60, -920)">					<path d="M 515 809 Q 537 791 561 768 Q 577 755 593 757 Q 603 758 609 772 Q 613 788 602 819 Q 590 847 507 859 Q 491 863 484 859 Q 478 855 481 841 Q 485 831 515 809 Z" fill="black"></path>
				<path d="M 366 651 Q 417 644 478 652 Q 766 698 777 707 Q 787 714 782 724 Q 775 737 746 745 Q 719 751 618 724 Q 473 691 356 685 C 326 683 336 654 366 651 Z" fill="red"></path>
				<path d="M 262 352 Q 207 159 95 3 Q 91 -4 88 -10 Q 85 -20 96 -19 Q 129 -13 208 102 Q 229 135 250 175 Q 325 341 347 535 Q 356 622 365 647 Q 366 650 366 651 C 372 674 372 674 356 685 Q 341 698 319 707 Q 300 719 287 714 Q 274 707 281 693 Q 302 665 297 601 Q 285 460 271 391 Q 270 390 270 387 L 262 352 Z" fill="lightgray"></path>
				<path d="M 134 542 Q 161 496 197 470 Q 212 466 223 477 Q 230 490 231 507 Q 224 549 152 579 Q 136 586 126 584 Q 120 583 121 571 Q 121 558 134 542 Z" fill="lightgray"></path>
				<path d="M 270 387 Q 75 303 44 301 Q 31 298 31 288 Q 31 275 40 269 Q 64 256 97 242 Q 107 241 117 250 Q 138 272 261 352 L 262 352 C 288 367 298 399 270 387 Z" fill="lightgray"></path>
				<path d="M 608 477 Q 788 510 798 518 Q 805 525 802 533 Q 796 543 770 552 Q 742 559 715 548 Q 664 533 611 519 L 551 505 Q 475 492 385 485 Q 352 481 375 465 Q 408 444 481 455 Q 515 461 553 467 L 608 477 Z" fill="lightgray"></path>
				<path d="M 598 368 Q 602 425 608 477 L 611 519 Q 612 528 613 536 Q 616 566 626 592 Q 629 602 609 617 Q 575 635 552 639 Q 536 643 528 634 Q 521 627 529 612 Q 545 590 546 575 Q 549 541 551 505 L 553 467 Q 554 416 555 359 C 556 329 596 338 598 368 Z" fill="lightgray"></path>
				<path d="M 555 359 Q 485 346 421 332 Q 402 328 425 310 Q 438 298 470 303 Q 618 327 727 340 Q 755 344 745 359 Q 733 377 704 383 Q 662 389 598 368 L 555 359 Z" fill="lightgray"></path>
				<path d="M 352 215 Q 331 160 301 112 Q 283 82 301 48 Q 308 32 328 44 Q 377 83 378 160 Q 382 191 375 215 Q 371 222 364 224 Q 357 223 352 215 Z" fill="lightgray"></path>
				<path d="M 424 172 Q 445 78 516 35 Q 615 -25 794 3 Q 819 9 842 20 Q 864 30 865 44 Q 869 53 835 76 Q 783 121 745 167 Q 733 183 729 176 Q 728 176 743 97 Q 755 61 713 53 Q 704 53 694 51 Q 559 44 503 95 Q 478 117 465 156 Q 458 178 446 183 Q 433 190 426 186 Q 420 185 424 172 Z" fill="lightgray"></path>
				<path d="M 562 210 Q 605 158 621 157 Q 631 157 637 169 Q 643 182 637 212 Q 630 236 561 256 Q 546 260 540 259 Q 536 255 535 243 Q 538 233 562 210 Z" fill="lightgray"></path>
				<path d="M 771 257 Q 819 230 879 187 Q 898 171 915 171 Q 924 171 929 183 Q 938 199 915 238 Q 897 274 830 282 Q 787 286 765 287 Q 755 291 756 278 Q 757 265 771 257 Z" fill="lightgray"></path>
</g>
		<text x="40" y="140" font-size="128" fill="#999999">2</text></g>
		<g id="id0:id2:id2" transform="matrix(1.0,0,0,1.0,2048,0.0)">			<g stroke="lightgray" stroke-width="4" transform="scale(4, 4)"> <rect x="0" y="0" width="256" height="256" fill="white" stroke-width="4"/></g>
			<g transform="scale(0.92, -0.92) translate(60, -920)">					<path d="M 515 809 Q 537 791 561 768 Q 577 755 593 757 Q 603 758 609 772 Q 613 788 602 819 Q 590 847 507 859 Q 491 863 484 859 Q 478 855 481 841 Q 485 831 515 809 Z" fill="black"></path>
				<path d="M 366 651 Q 417 644 478 652 Q 766 698 777 707 Q 787 714 782 724 Q 775 737 746 745 Q 719 751 618 724 Q 473 691 356 685 C 326 683 336 654 366 651 Z" fill="black"></path>
				<path d="M 262 352 Q 207 159 95 3 Q 91 -4 88 -10 Q 85 -20 96 -19 Q 129 -13 208 102 Q 229 135 250 175 Q 325 341 347 535 Q 356 622 365 647 Q 366 650 366 651 C 372 674 372 674 356 685 Q 341 698 319 707 Q 300 719 287 714 Q 274 707 281 693 Q 302 665 297 601 Q 285 460 271 391 Q 270 390 270 387 L 262 352 Z" fill="red"></path>
				<path d="M 134 542 Q 161 496 197 470 Q 212 466 223 477 Q 230 490 231 507 Q 224 549 152 579 Q 136 586 126 584 Q 120 583 121 571 Q 121 558 134 542 Z" fill="lightgray"></path>
				<path d="M 270 387 Q 75 303 44 301 Q 31 298 31 288 Q 31 275 40 269 Q 64 256 97 242 Q 107 241 117 250 Q 138 272 261 352 L 262 352 C 288 367 298 399 270 387 Z" fill="lightgray"></path>
				<path d="M 608 477 Q 788 510 798 518 Q 805 525 802 533 Q 796 543 770 552 Q 742 559 715 548 Q 664 533 611 519 L 551 505 Q 475 492 385 485 Q 352 481 375 465 Q 408 444 481 455 Q 515 461 553 467 L 608 477 Z" fill="lightgray"></path>
				<path d="M 598 368 Q 602 425 608 477 L 611 519 Q 612 528 613 536 Q 616 566 626 592 Q 629 602 609 617 Q 575 635 552 639 Q 536 643 528 634 Q 521 627 529 612 Q 545 590 546 575 Q 549 541 551 505 L 553 467 Q 554 416 555 359 C 556 329 596 338 598 368 Z" fill="lightgray"></path>
				<path d="M 555 359 Q 485 346 421 332 Q 402 328 425 310 Q 438 298 470 303 Q 618 327 727 340 Q 755 344 745 359 Q 733 377 704 383 Q 662 389 598 368 L 555 359 Z" fill="lightgray"></path>
				<path d="M 352 215 Q 331 160 301 112 Q 283 82 301 48 Q 308 32 328 44 Q 377 83 378 160 Q 382 191 375 215 Q 371 222 364 224 Q 357 223 352 215 Z" fill="lightgray"></path>
				<path d="M 424 172 Q 445 78 516 35 Q 615 -25 794 3 Q 819 9 842 20 Q 864 30 865 44 Q 869 53 835 76 Q 783 121 745 167 Q 733 183 729 176 Q 728 176 743 97 Q 755 61 713 53 Q 704 53 694 51 Q 559 44 503 95 Q 478 117 465 156 Q 458 178 446 183 Q 433 190 426 186 Q 420 185 424 172 Z" fill="lightgray"></path>
				<path d="M 562 210 Q 605 158 621 157 Q 631 157 637 169 Q 643 182 637 212 Q 630 236 561 256 Q 546 260 540 259 Q 536 255 535 243 Q 538 233 562 210 Z" fill="lightgray"></path>
				<path d="M 771 257 Q 819 230 879 187 Q 898 171 915 171 Q 924 171 929 183 Q 938 199 915 238 Q 897 274 830 282 Q 787 286 765 287 Q 755 291 756 278 Q 757 265 771 257 Z" fill="lightgray"></path>
</g>
		<text x="40" y="140" font-size="128" fill="#999999">3</text></g>
		<g id="id0:id3:id3" transform="matrix(1.0,0,0,1.0,3072,0.0)">			<g stroke="lightgray" stroke-width="4" transform="scale(4, 4)"> <rect x="0" y="0" width="256" height="256" fill="white" stroke-width="4"/></g>
			<g transform="scale(0.92, -0.92) translate(60, -920)">					<path d="M 515 809 Q 537 791 561 768 Q 577 755 593 757 Q 603 758 609 772 Q 613 788 602 819 Q 590 847 507 859 Q 491 863 484 859 Q 478 855 481 841 Q 485 831 515 809 Z" fill="black"></path>
				<path d="M 366 651 Q 417 644 478 652 Q 766 698 777 707 Q 787 714 782 724 Q 775 737 746 745 Q 719 751 618 724 Q 473 691 356 685 C 326 683 336 654 366 651 Z" fill="black"></path>
				<path d="M 262 352 Q 207 159 95 3 Q 91 -4 88 -10 Q 85 -20 96 -19 Q 129 -13 208 102 Q 229 135 250 175 Q 325 341 347 535 Q 356 622 365 647 Q 366 650 366 651 C 372 674 372 674 356 685 Q 341 698 319 707 Q 300 719 287 714 Q 274 707 281 693 Q 302 665 297 601 Q 285 460 271 391 Q 270 390 270 387 L 262 352 Z" fill="black"></path>
				<path d="M 134 542 Q 161 496 197 470 Q 212 466 223 477 Q 230 490 231 507 Q 224 549 152 579 Q 136 586 126 584 Q 120 583 121 571 Q 121 558 134 542 Z" fill="red"></path>
				<path d="M 270 387 Q 75 303 44 301 Q 31 298 31 288 Q 31 275 40 269 Q 64 256 97 242 Q 107 241 117 250 Q 138 272 261 352 L 262 352 C 288 367 298 399 270 387 Z" fill="lightgray"></path>
				<path d="M 608 477 Q 788 510 798 518 Q 805 525 802 533 Q 796 543 770 552 Q 742 559 715 548 Q 664 533 611 519 L 551 505 Q 475 492 385 485 Q 352 481 375 465 Q 408 444 481 455 Q 515 461 553 467 L 608 477 Z" fill="lightgray"></path>
				<path d="M 598 368 Q 602 425 608 477 L 611 519 Q 612 528 613 536 Q 616 566 626 592 Q 629 602 609 617 Q 575 635 552 639 Q 536 643 528 634 Q 521 627 529 612 Q 545 590 546 575 Q 549 541 551 505 L 553 467 Q 554 416 555 359 C 556 329 596 338 598 368 Z" fill="lightgray"></path>
				<path d="M 555 359 Q 485 346 421 332 Q 402 328 425 310 Q 438 298 470 303 Q 618 327 727 340 Q 755 344 745 359 Q 733 377 704 383 Q 662 389 598 368 L 555 359 Z" fill="lightgray"></path>
				<path d="M 352 215 Q 331 160 301 112 Q 283 82 301 48 Q 308 32 328 44 Q 377 83 378 160 Q 382 191 375 215 Q 371 222 364 224 Q 357 223 352 215 Z" fill="lightgray"></path>
				<path d="M 424 172 Q 445 78 516 35 Q 615 -25 794 3 Q 819 9 842 20 Q 864 30 865 44 Q 869 53 835 76 Q 783 121 745 167 Q 733 183 729 176 Q 728 176 743 97 Q 755 61 713 53 Q 704 53 694 51 Q 559 44 503 95 Q 478 117 465 156 Q 458 178 446 183 Q 433 190 426 186 Q 420 185 424 172 Z" fill="lightgray"></path>
				<path d="M 562 210 Q 605 158 621 157 Q 631 157 637 169 Q 643 182 637 212 Q 630 236 561 256 Q 546 260 540 259 Q 536 255 535 243 Q 538 233 562 210 Z" fill="lightgray"></path>
				<path d="M 771 257 Q 819 230 879 187 Q 898 171 915 171 Q 924 171 929 183 Q 938 199 915 238 Q 897 274 830 282 Q 787 286 765 287 Q 755 291 756 278 Q 757 265 771 257 Z" fill="lightgray"></path>
</g>
		<text x="40" y="140" font-size="128" fill="#999999">4</text></g>
		<g id="id0:id4:id4" transform="matrix(1.0,0,0,1.0,4096,0.0)">			<g stroke="lightgray" stroke-width="4" transform="scale(4, 4)"> <rect x="0" y="0" width="256" height="256" fill="white" stroke-width="4"/></g>
			<g transform="scale(0.92, -0.92) translate(60, -920)">					<path d="M 515 809 Q 537 791 561 768 Q 577 755 593 757 Q 603 758 609 772 Q 613 788 602 819 Q 590 847 507 859 Q 491 863 484 859 Q 478 855 481 841 Q 485 831 515 809 Z" fill="black"></path>
				<path d="M 366 651 Q 417 644 478 652 Q 766 698 777 707 Q 787 714 782 724 Q 775 737 746 745 Q 719 751 618 724 Q 473 691 356 685 C 326 683 336 654 366 651 Z" fill="black"></path>
				<path d="M 262 352 Q 207 159 95 3 Q 91 -4 88 -10 Q 85 -20 96 -19 Q 129 -13 208 102 Q 229 135 250 175 Q 325 341 347 535 Q 356 622 365 647 Q 366 650 366 651 C 372 674 372 674 356 685 Q 341 698 319 707 Q 300 719 287 714 Q 274 707 281 693 Q 302 665 297 601 Q 285 460 271 391 Q 270 390 270 387 L 262 352 Z" fill="black"></path>
				<path d="M 134 542 Q 161 496 197 470 Q 212 466 223 477 Q 230 490 231 507 Q 224 549 152 579 Q 136 586 126 584 Q 120 583 121 571 Q 121 558 134 542 Z" fill="black"></path>
				<path d="M 270 387 Q 75 303 44 301 Q 31 298 31 288 Q 31 275 40 269 Q 64 256 97 242 Q 107 241 117 250 Q 138 272 261 352 L 262 352 C 288 367 298 399 270 387 Z" fill="red"></path>
				<path d="M 608 477 Q 788 510 798 518 Q 805 525 802 533 Q 796 543 770 552 Q 742 559 715 548 Q 664 533 611 519 L 551 505 Q 475 492 385 485 Q 352 481 375 465 Q 408 444 481 455 Q 515 461 553 467 L 608 477 Z" fill="lightgray"></path>
				<path d="M 598 368 Q 602 425 608 477 L 611 519 Q 612 528 613 536 Q 616 566 626 592 Q 629 602 609 617 Q 575 635 552 639 Q 536 643 528 634 Q 521 627 529 612 Q 545 590 546 575 Q 549 541 551 505 L 553 467 Q 554 416 555 359 C 556 329 596 338 598 368 Z" fill="lightgray"></path>
				<path d="M 555 359 Q 485 346 421 332 Q 402 328 425 310 Q 438 298 470 303 Q 618 327 727 340 Q 755 344 745 359 Q 733 377 704 383 Q 662 389 598 368 L 555 359 Z" fill="lightgray"></path>
				<path d="M 352 215 Q 331 160 301 112 Q 283 82 301 48 Q 308 32 328 44 Q 377 83 378 160 Q 382 191 375 215 Q 371 222 364 224 Q 357 223 352 215 Z" fill="lightgray"></path>
				<path d="M 424 172 Q 445 78 516 35 Q 615 -25 794 3 Q 819 9 842 20 Q 864 30 865 44 Q 869 53 835 76 Q 783 121 745 167 Q 733 183 729 176 Q 728 176 743 97 Q 755 61 713 53 Q 704 53 694 51 Q 559 44 503 95 Q 478 117 465 156 Q 458 178 446 183 Q 433 190 426 186 Q 420 185 424 172 Z" fill="lightgray"></path>
				<path d="M 562 210 Q 605 158 621 157 Q 631 157 637 169 Q 643 182 637 212 Q 630 236 561 256 Q 546 260 540 259 Q 536 255 535 243 Q 538 233 562 210 Z" fill="lightgray"></path>
				<path d="M 771 257 Q 819 230 879 187 Q 898 171 915 171 Q 924 171 929 183 Q 938 199 915 238 Q 897 274 830 282 Q 787 286 765 287 Q 755 291 756 278 Q 757 265 771 257 Z" fill="lightgray"></path>
</g>
		<text x="40" y="140" font-size="128" fill="#999999">5</text></g>
</g>
	<g id="id1:id1" transform="translate(0.0,1024)">
		<g id="id1:id0:id0" transform="matrix(1.0,0,0,1.0,0,0.0)">			<g stroke="lightgray" stroke-width="4" transform="scale(4, 4)"> <rect x="0" y="0" width="256" height="256" fill="white" stroke-width="4"/></g>
			<g transform="scale(0.92, -0.92) translate(60, -920)">					<path d="M 515 809 Q 537 791 561 768 Q 577 755 593 757 Q 603 758 609 772 Q 613 788 602 819 Q 590 847 507 859 Q 491 863 484 859 Q 478 855 481 841 Q 485 831 515 809 Z" fill="black"></path>
				<path d="M 366 651 Q 417 644 478 652 Q 766 698 777 707 Q 787 714 782 724 Q 775 737 746 745 Q 719 751 618 724 Q 473 691 356 685 C 326 683 336 654 366 651 Z" fill="black"></path>
				<path d="M 262 352 Q 207 159 95 3 Q 91 -4 88 -10 Q 85 -20 96 -19 Q 129 -13 208 102 Q 229 135 250 175 Q 325 341 347 535 Q 356 622 365 647 Q 366 650 366 651 C 372 674 372 674 356 685 Q 341 698 319 707 Q 300 719 287 714 Q 274 707 281 693 Q 302 665 297 601 Q 285 460 271 391 Q 270 390 270 387 L 262 352 Z" fill="black"></path>
				<path d="M 134 542 Q 161 496 197 470 Q 212 466 223 477 Q 230 490 231 507 Q 224 549 152 579 Q 136 586 126 584 Q 120 583 121 571 Q 121 558 134 542 Z" fill="black"></path>
				<path d="M 270 387 Q 75 303 44 301 Q 31 298 31 288 Q 31 275 40 269 Q 64 256 97 242 Q 107 241 117 250 Q 138 272 261 352 L 262 352 C 288 367 298 399 270 387 Z" fill="black"></path>
				<path d="M 608 477 Q 788 510 798 518 Q 805 525 802 533 Q 796 543 770 552 Q 742 559 715 548 Q 664 533 611 519 L 551 505 Q 475 492 385 485 Q 352 481 375 465 Q 408 444 481 455 Q 515 461 553 467 L 608 477 Z" fill="red"></path>
				<path d="M 598 368 Q 602 425 608 477 L 611 519 Q 612 528 613 536 Q 616 566 626 592 Q 629 602 609 617 Q 575 635 552 639 Q 536 643 528 634 Q 521 627 529 612 Q 545 590 546 575 Q 549 541 551 505 L 553 467 Q 554 416 555 359 C 556 329 596 338 598 368 Z" fill="lightgray"></path>
				<path d="M 555 359 Q 485 346 421 332 Q 402 328 425 310 Q 438 298 470 303 Q 618 327 727 340 Q 755 344 745 359 Q 733 377 704 383 Q 662 389 598 368 L 555 359 Z" fill="lightgray"></path>
				<path d="M 352 215 Q 331 160 301 112 Q 283 82 301 48 Q 308 32 328 44 Q 377 83 378 160 Q 382 191 375 215 Q 371 222 364 224 Q 357 223 352 215 Z" fill="lightgray"></path>
				<path d="M 424 172 Q 445 78 516 35 Q 615 -25 794 3 Q 819 9 842 20 Q 864 30 865 44 Q 869 53 835 76 Q 783 121 745 167 Q 733 183 729 176 Q 728 176 743 97 Q 755 61 713 53 Q 704 53 694 51 Q 559 44 503 95 Q 478 117 465 156 Q 458 178 446 183 Q 433 190 426 186 Q 420 185 424 172 Z" fill="lightgray"></path>
				<path d="M 562 210 Q 605 158 621 157 Q 631 157 637 169 Q 643 182 637 212 Q 630 236 561 256 Q 546 260 540 259 Q 536 255 535 243 Q 538 233 562 210 Z" fill="lightgray"></path>
				<path d="M 771 257 Q 819 230 879 187 Q 898 171 915 171 Q 924 171 929 183 Q 938 199 915 238 Q 897 274 830 282 Q 787 286 765 287 Q 755 291 756 278 Q 757 265 771 257 Z" fill="lightgray"></path>
</g>
		<text x="40" y="140" font-size="128" fill="#999999">6</text></g>
		<g id="id1:id1:id1" transform="matrix(1.0,0,0,1.0,1024,0.0)">			<g stroke="lightgray" stroke-width="4" transform="scale(4, 4)"> <rect x="0" y="0" width="256" height="256" fill="white" stroke-width="4"/></g>
			<g transform="scale(0.92, -0.92) translate(60, -920)">					<path d="M 515 809 Q 537 791 561 768 Q 577 755 593 757 Q 603 758 609 772 Q 613 788 602 819 Q 590 847 507 859 Q 491 863 484 859 Q 478 855 481 841 Q 485 831 515 809 Z" fill="black"></path>
				<path d="M 366 651 Q 417 644 478 652 Q 766 698 777 707 Q 787 714 782 724 Q 775 737 746 745 Q 719 751 618 724 Q 473 691 356 685 C 326 683 336 654 366 651 Z" fill="black"></path>
				<path d="M 262 352 Q 207 159 95 3 Q 91 -4 88 -10 Q 85 -20 96 -19 Q 129 -13 208 102 Q 229 135 250 175 Q 325 341 347 535 Q 356 622 365 647 Q 366 650 366 651 C 372 674 372 674 356 685 Q 341 698 319 707 Q 300 719 287 714 Q 274 707 281 693 Q 302 665 297 601 Q 285 460 271 391 Q 270 390 270 387 L 262 352 Z" fill="black"></path>
				<path d="M 134 542 Q 161 496 197 470 Q 212 466 223 477 Q 230 490 231 507 Q 224 549 152 579 Q 136 586 126 584 Q 120 583 121 571 Q 121 558 134 542 Z" fill="black"></path>
				<path d="M 270 387 Q 75 303 44 301 Q 31 298 31 288 Q 31 275 40 269 Q 64 256 97 242 Q 107 241 117 250 Q 138 272 261 352 L 262 352 C 288 367 298 399 270 387 Z" fill="black"></path>
				<path d="M 608 477 Q 788 510 798 518 Q 805 525 802 533 Q 796 543 770 552 Q 742 559 715 548 Q 664 533 611 519 L 551 505 Q 475 492 385 485 Q 352 481 375 465 Q 408 444 481 455 Q 515 461 553 467 L 608 477 Z" fill="black"></path>
				<path d="M 598 368 Q 602 425 608 477 L 611 519 Q 612 528 613 536 Q 616 566 626 592 Q 629 602 609 617 Q 575 635 552 639 Q 536 643 528 634 Q 521 627 529 612 Q 545 590 546 575 Q 549 541 551 505 L 553 467 Q 554 416 555 359 C 556 329 596 338 598 368 Z" fill="red"></path>
				<path d="M 555 359 Q 485 346 421 332 Q 402 328 425 310 Q 438 298 470 303 Q 618 327 727 340 Q 755 344 745 359 Q 733 377 704 383 Q 662 389 598 368 L 555 359 Z" fill="lightgray"></path>
				<path d="M 352 215 Q 331 160 301 112 Q 283 82 301 48 Q 308 32 328 44 Q 377 83 378 160 Q 382 191 375 215 Q 371 222 364 224 Q 357 223 352 215 Z" fill="lightgray"></path>
				<path d="M 424 172 Q 445 78 516 35 Q 615 -25 794 3 Q 819 9 842 20 Q 864 30 865 44 Q 869 53 835 76 Q 783 121 745 167 Q 733 183 729 176 Q 728 176 743 97 Q 755 61 713 53 Q 704 53 694 51 Q 559 44 503 95 Q 478 117 465 156 Q 458 178 446 183 Q 433 190 426 186 Q 420 185 424 172 Z" fill="lightgray"></path>
				<path d="M 562 210 Q 605 158 621 157 Q 631 157 637 169 Q 643 182 637 212 Q 630 236 561 256 Q 546 260 540 259 Q 536 255 535 243 Q 538 233 562 210 Z" fill="lightgray"></path>
				<path d="M 771 257 Q 819 230 879 187 Q 898 171 915 171 Q 924 171 929 183 Q 938 199 915 238 Q 897 274 830 282 Q 787 286 765 287 Q 755 291 756 278 Q 757 265 771 257 Z" fill="lightgray"></path>
</g>
		<text x="40" y="140" font-size="128" fill="#999999">7</text></g>
		<g id="id1:id2:id2" transform="matrix(1.0,0,0,1.0,2048,0.0)">			<g stroke="lightgray" stroke-width="4" transform="scale(4, 4)"> <rect x="0" y="0" width="256" height="256" fill="white" stroke-width="4"/></g>
			<g transform="scale(0.92, -0.92) translate(60, -920)">					<path d="M 515 809 Q 537 791 561 768 Q 577 755 593 757 Q 603 758 609 772 Q 613 788 602 819 Q 590 847 507 859 Q 491 863 484 859 Q 478 855 481 841 Q 485 831 515 809 Z" fill="black"></path>
				<path d="M 366 651 Q 417 644 478 652 Q 766 698 777 707 Q 787 714 782 724 Q 775 737 746 745 Q 719 751 618 724 Q 473 691 356 685 C 326 683 336 654 366 651 Z" fill="black"></path>
				<path d="M 262 352 Q 207 159 95 3 Q 91 -4 88 -10 Q 85 -20 96 -19 Q 129 -13 208 102 Q 229 135 250 175 Q 325 341 347 535 Q 356 622 365 647 Q 366 650 366 651 C 372 674 372 674 356 685 Q 341 698 319 707 Q 300 719 287 714 Q 274 707 281 693 Q 302 665 297 601 Q 285 460 271 391 Q 270 390 270 387 L 262 352 Z" fill="black"></path>
				<path d="M 134 542 Q 161 496 197 470 Q 212 466 223 477 Q 230 490 231 507 Q 224 549 152 579 Q 136 586 126 584 Q 120 583 121 571 Q 121 558 134 542 Z" fill="black"></path>
				<path d="M 270 387 Q 75 303 44 301 Q 31 298 31 288 Q 31 275 40 269 Q 64 256 97 242 Q 107 241 117 250 Q 138 272 261 352 L 262 352 C 288 367 298 399 270 387 Z" fill="black"></path>
				<path d="M 608 477 Q 788 510 798 518 Q 805 525 802 533 Q 796 543 770 552 Q 742 559 715 548 Q 664 533 611 519 L 551 505 Q 475 492 385 485 Q 352 481 375 465 Q 408 444 481 455 Q 515 461 553 467 L 608 477 Z" fill="black"></path>
				<path d="M 598 368 Q 602 425 608 477 L 611 519 Q 612 528 613 536 Q 616 566 626 592 Q 629 602 609 617 Q 575 635 552 639 Q 536 643 528 634 Q 521 627 529 612 Q 545 590 546 575 Q 549 541 551 505 L 553 467 Q 554 416 555 359 C 556 329 596 338 598 368 Z" fill="black"></path>
				<path d="M 555 359 Q 485 346 421 332 Q 402 328 425 310 Q 438 298 470 303 Q 618 327 727 340 Q 755 344 745 359 Q 733 377 704 383 Q 662 389 598 368 L 555 359 Z" fill="red"></path>
				<path d="M 352 215 Q 331 160 301 112 Q 283 82 301 48 Q 308 32 328 44 Q 377 83 378 160 Q 382 191 375 215 Q 371 222 364 224 Q 357 223 352 215 Z" fill="lightgray"></path>
				<path d="M 424 172 Q 445 78 516 35 Q 615 -25 794 3 Q 819 9 842 20 Q 864 30 865 44 Q 869 53 835 76 Q 783 121 745 167 Q 733 183 729 176 Q 728 176 743 97 Q 755 61 713 53 Q 704 53 694 51 Q 559 44 503 95 Q 478 117 465 156 Q 458 178 446 183 Q 433 190 426 186 Q 420 185 424 172 Z" fill="lightgray"></path>
				<path d="M 562 210 Q 605 158 621 157 Q 631 157 637 169 Q 643 182 637 212 Q 630 236 561 256 Q 546 260 540 259 Q 536 255 535 243 Q 538 233 562 210 Z" fill="lightgray"></path>
				<path d="M 771 257 Q 819 230 879 187 Q 898 171 915 171 Q 924 171 929 183 Q 938 199 915 238 Q 897 274 830 282 Q 787 286 765 287 Q 755 291 756 278 Q 757 265 771 257 Z" fill="lightgray"></path>
</g>
		<text x="40" y="140" font-size="128" fill="#999999">8</text></g>
		<g id="id1:id3:id3" transform="matrix(1.0,0,0,1.0,3072,0.0)">			<g stroke="lightgray" stroke-width="4" transform="scale(4, 4)"> <rect x="0" y="0" width="256" height="256" fill="white" stroke-width="4"/></g>
			<g transform="scale(0.92, -0.92) translate(60, -920)">					<path d="M 515 809 Q 537 791 561 768 Q 577 755 593 757 Q 603 758 609 772 Q 613 788 602 819 Q 590 847 507 859 Q 491 863 484 859 Q 478 855 481 841 Q 485 831 515 809 Z" fill="black"></path>
				<path d="M 366 651 Q 417 644 478 652 Q 766 698 777 707 Q 787 714 782 724 Q 775 737 746 745 Q 719 751 618 724 Q 473 691 356 685 C 326 683 336 654 366 651 Z" fill="black"></path>
				<path d="M 262 352 Q 207 159 95 3 Q 91 -4 88 -10 Q 85 -20 96 -19 Q 129 -13 208 102 Q 229 135 250 175 Q 325 341 347 535 Q 356 622 365 647 Q 366 650 366 651 C 372 674 372 674 356 685 Q 341 698 319 707 Q 300 719 287 714 Q 274 707 281 693 Q 302 665 297 601 Q 285 460 271 391 Q 270 390 270 387 L 262 352 Z" fill="black"></path>
				<path d="M 134 542 Q 161 496 197 470 Q 212 466 223 477 Q 230 490 231 507 Q 224 549 152 579 Q 136 586 126 584 Q 120 583 121 571 Q 121 558 134 542 Z" fill="black"></path>
				<path d="M 270 387 Q 75 303 44 301 Q 31 298 31 288 Q 31 275 40 269 Q 64 256 97 242 Q 107 241 117 250 Q 138 272 261 352 L 262 352 C 288 367 298 399 270 387 Z" fill="black"></path>
				<path d="M 608 477 Q 788 510 798 518 Q 805 525 802 533 Q 796 543 770 552 Q 742 559 715 548 Q 664 533 611 519 L 551 505 Q 475 492 385 485 Q 352 481 375 465 Q 408 444 481 455 Q 515 461 553 467 L 608 477 Z" fill="black"></path>
				<path d="M 598 368 Q 602 425 608 477 L 611 519 Q 612 528 613 536 Q 616 566 626 592 Q 629 602 609 617 Q 575 635 552 639 Q 536 643 528 634 Q 521 627 529 612 Q 545 590 546 575 Q 549 541 551 505 L 553 467 Q 554 416 555 359 C 556 329 596 338 598 368 Z" fill="black"></path>
				<path d="M 555 359 Q 485 346 421 332 Q 402 328 425 310 Q 438 298 470 303 Q 618 327 727 340 Q 755 344 745 359 Q 733 377 704 383 Q 662 389 598 368 L 555 359 Z" fill="black"></path>
				<path d="M 352 215 Q 331 160 301 112 Q 283 82 301 48 Q 308 32 328 44 Q 377 83 378 160 Q 382 191 375 215 Q 371 222 364 224 Q 357 223 352 215 Z" fill="red"></path>
				<path d="M 424 172 Q 445 78 516 35 Q 615 -25 794 3 Q 819 9 842 20 Q 864 30 865 44 Q 869 53 835 76 Q 783 121 745 167 Q 733 183 729 176 Q 728 176 743 97 Q 755 61 713 53 Q 704 53 694 51 Q 559 44 503 95 Q 478 117 465 156 Q 458 178 446 183 Q 433 190 426 186 Q 420 185 424 172 Z" fill="lightgray"></path>
				<path d="M 562 210 Q 605 158 621 157 Q 631 157 637 169 Q 643 182 637 212 Q 630 236 561 256 Q 546 260 540 259 Q 536 255 535 243 Q 538 233 562 210 Z" fill="lightgray"></path>
				<path d="M 771 257 Q 819 230 879 187 Q 898 171 915 171 Q 924 171 929 183 Q 938 199 915 238 Q 897 274 830 282 Q 787 286 765 287 Q 755 291 756 278 Q 757 265 771 257 Z" fill="lightgray"></path>
</g>
		<text x="40" y="140" font-size="128" fill="#999999">9</text></g>
		<g id="id1:id4:id4" transform="matrix(1.0,0,0,1.0,4096,0.0)">			<g stroke="lightgray" stroke-width="4" transform="scale(4, 4)"> <rect x="0" y="0" width="256" height="256" fill="white" stroke-width="4"/></g>
			<g transform="scale(0.92, -0.92) translate(60, -920)">					<path d="M 515 809 Q 537 791 561 768 Q 577 755 593 757 Q 603 758 609 772 Q 613 788 602 819 Q 590 847 507 859 Q 491 863 484 859 Q 478 855 481 841 Q 485 831 515 809 Z" fill="black"></path>
				<path d="M 366 651 Q 417 644 478 652 Q 766 698 777 707 Q 787 714 782 724 Q 775 737 746 745 Q 719 751 618 724 Q 473 691 356 685 C 326 683 336 654 366 651 Z" fill="black"></path>
				<path d="M 262 352 Q 207 159 95 3 Q 91 -4 88 -10 Q 85 -20 96 -19 Q 129 -13 208 102 Q 229 135 250 175 Q 325 341 347 535 Q 356 622 365 647 Q 366 650 366 651 C 372 674 372 674 356 685 Q 341 698 319 707 Q 300 719 287 714 Q 274 707 281 693 Q 302 665 297 601 Q 285 460 271 391 Q 270 390 270 387 L 262 352 Z" fill="black"></path>
				<path d="M 134 542 Q 161 496 197 470 Q 212 466 223 477 Q 230 490 231 507 Q 224 549 152 579 Q 136 586 126 584 Q 120 583 121 571 Q 121 558 134 542 Z" fill="black"></path>
				<path d="M 270 387 Q 75 303 44 301 Q 31 298 31 288 Q 31 275 40 269 Q 64 256 97 242 Q 107 241 117 250 Q 138 272 261 352 L 262 352 C 288 367 298 399 270 387 Z" fill="black"></path>
				<path d="M 608 477 Q 788 510 798 518 Q 805 525 802 533 Q 796 543 770 552 Q 742 559 715 548 Q 664 533 611 519 L 551 505 Q 475 492 385 485 Q 352 481 375 465 Q 408 444 481 455 Q 515 461 553 467 L 608 477 Z" fill="black"></path>
				<path d="M 598 368 Q 602 425 608 477 L 611 519 Q 612 528 613 536 Q 616 566 626 592 Q 629 602 609 617 Q 575 635 552 639 Q 536 643 528 634 Q 521 627 529 612 Q 545 590 546 575 Q 549 541 551 505 L 553 467 Q 554 416 555 359 C 556 329 596 338 598 368 Z" fill="black"></path>
				<path d="M 555 359 Q 485 346 421 332 Q 402 328 425 310 Q 438 298 470 303 Q 618 327 727 340 Q 755 344 745 359 Q 733 377 704 383 Q 662 389 598 368 L 555 359 Z" fill="black"></path>
				<path d="M 352 215 Q 331 160 301 112 Q 283 82 301 48 Q 308 32 328 44 Q 377 83 378 160 Q 382 191 375 215 Q 371 222 364 224 Q 357 223 352 215 Z" fill="black"></path>
				<path d="M 424 172 Q 445 78 516 35 Q 615 -25 794 3 Q 819 9 842 20 Q 864 30 865 44 Q 869 53 835 76 Q 783 121 745 167 Q 733 183 729 176 Q 728 176 743 97 Q 755 61 713 53 Q 704 53 694 51 Q 559 44 503 95 Q 478 117 465 156 Q 458 178 446 183 Q 433 190 426 186 Q 420 185 424 172 Z" fill="red"></path>
				<path d="M 562 210 Q 605 158 621 157 Q 631 157 637 169 Q 643 182 637 212 Q 630 236 561 256 Q 546 260 540 259 Q 536 255 535 243 Q 538 233 562 210 Z" fill="lightgray"></path>
				<path d="M 771 257 Q 819 230 879 187 Q 898 171 915 171 Q 924 171 929 183 Q 938 199 915 238 Q 897 274 830 282 Q 787 286 765 287 Q 755 291 756 278 Q 757 265 771 257 Z" fill="lightgray"></path>
</g>
		<text x="40" y="140" font-size="128" fill="#999999">10</text></g>
</g>
	<g id="id2:id2" transform="translate(0.0,2048)">
		<g id="id2:id0:id0" transform="matrix(1.0,0,0,1.0,0,0.0)">			<g stroke="lightgray" stroke-width="4" transform="scale(4, 4)"> <rect x="0" y="0" width="256" height="256" fill="white" stroke-width="4"/></g>
			<g transform="scale(0.92, -0.92) translate(60, -920)">					<path d="M 515 809 Q 537 791 561 768 Q 577 755 593 757 Q 603 758 609 772 Q 613 788 602 819 Q 590 847 507 859 Q 491 863 484 859 Q 478 855 481 841 Q 485 831 515 809 Z" fill="black"></path>
				<path d="M 366 651 Q 417 644 478 652 Q 766 698 777 707 Q 787 714 782 724 Q 775 737 746 745 Q 719 751 618 724 Q 473 691 356 685 C 326 683 336 654 366 651 Z" fill="black"></path>
				<path d="M 262 352 Q 207 159 95 3 Q 91 -4 88 -10 Q 85 -20 96 -19 Q 129 -13 208 102 Q 229 135 250 175 Q 325 341 347 535 Q 356 622 365 647 Q 366 650 366 651 C 372 674 372 674 356 685 Q 341 698 319 707 Q 300 719 287 714 Q 274 707 281 693 Q 302 665 297 601 Q 285 460 271 391 Q 270 390 270 387 L 262 352 Z" fill="black"></path>
				<path d="M 134 542 Q 161 496 197 470 Q 212 466 223 477 Q 230 490 231 507 Q 224 549 152 579 Q 136 586 126 584 Q 120 583 121 571 Q 121 558 134 542 Z" fill="black"></path>
				<path d="M 270 387 Q 75 303 44 301 Q 31 298 31 288 Q 31 275 40 269 Q 64 256 97 242 Q 107 241 117 250 Q 138 272 261 352 L 262 352 C 288 367 298 399 270 387 Z" fill="black"></path>
				<path d="M 608 477 Q 788 510 798 518 Q 805 525 802 533 Q 796 543 770 552 Q 742 559 715 548 Q 664 533 611 519 L 551 505 Q 475 492 385 485 Q 352 481 375 465 Q 408 444 481 455 Q 515 461 553 467 L 608 477 Z" fill="black"></path>
				<path d="M 598 368 Q 602 425 608 477 L 611 519 Q 612 528 613 536 Q 616 566 626 592 Q 629 602 609 617 Q 575 635 552 639 Q 536 643 528 634 Q 521 627 529 612 Q 545 590 546 575 Q 549 541 551 505 L 553 467 Q 554 416 555 359 C 556 329 596 338 598 368 Z" fill="black"></path>
				<path d="M 555 359 Q 485 346 421 332 Q 402 328 425 310 Q 438 298 470 303 Q 618 327 727 340 Q 755 344 745 359 Q 733 377 704 383 Q 662 389 598 368 L 555 359 Z" fill="black"></path>
				<path d="M 352 215 Q 331 160 301 112 Q 283 82 301 48 Q 308 32 328 44 Q 377 83 378 160 Q 382 191 375 215 Q 371 222 364 224 Q 357 223 352 215 Z" fill="black"></path>
				<path d="M 424 172 Q 445 78 516 35 Q 615 -25 794 3 Q 819 9 842 20 Q 864 30 865 44 Q 869 53 835 76 Q 783 121 745 167 Q 733 183 729 176 Q 728 176 743 97 Q 755 61 713 53 Q 704 53 694 51 Q 559 44 503 95 Q 478 117 465 156 Q 458 178 446 183 Q 433 190 426 186 Q 420 185 424 172 Z" fill="black"></path>
				<path d="M 562 210 Q 605 158 621 157 Q 631 157 637 169 Q 643 182 637 212 Q 630 236 561 256 Q 546 260 540 259 Q 536 255 535 243 Q 538 233 562 210 Z" fill="red"></path>
				<path d="M 771 257 Q 819 230 879 187 Q 898 171 915 171 Q 924 171 929 183 Q 938 199 915 238 Q 897 274 830 282 Q 787 286 765 287 Q 755 291 756 278 Q 757 265 771 257 Z" fill="lightgray"></path>
</g>
		<text x="40" y="140" font-size="128" fill="#999999">11</text></g>
		<g id="id2:id1:id1" transform="matrix(1.0,0,0,1.0,1024,0.0)">			<g stroke="lightgray" stroke-width="4" transform="scale(4, 4)"> <rect x="0" y="0" width="256" height="256" fill="white" stroke-width="4"/></g>
			<g transform="scale(0.92, -0.92) translate(60, -920)">					<path d="M 515 809 Q 537 791 561 768 Q 577 755 593 757 Q 603 758 609 772 Q 613 788 602 819 Q 590 847 507 859 Q 491 863 484 859 Q 478 855 481 841 Q 485 831 515 809 Z" fill="black"></path>
				<path d="M 366 651 Q 417 644 478 652 Q 766 698 777 707 Q 787 714 782 724 Q 775 737 746 745 Q 719 751 618 724 Q 473 691 356 685 C 326 683 336 654 366 651 Z" fill="black"></path>
				<path d="M 262 352 Q 207 159 95 3 Q 91 -4 88 -10 Q 85 -20 96 -19 Q 129 -13 208 102 Q 229 135 250 175 Q 325 341 347 535 Q 356 622 365 647 Q 366 650 366 651 C 372 674 372 674 356 685 Q 341 698 319 707 Q 300 719 287 714 Q 274 707 281 693 Q 302 665 297 601 Q 285 460 271 391 Q 270 390 270 387 L 262 352 Z" fill="black"></path>
				<path d="M 134 542 Q 161 496 197 470 Q 212 466 223 477 Q 230 490 231 507 Q 224 549 152 579 Q 136 586 126 584 Q 120 583 121 571 Q 121 558 134 542 Z" fill="black"></path>
				<path d="M 270 387 Q 75 303 44 301 Q 31 298 31 288 Q 31 275 40 269 Q 64 256 97 242 Q 107 241 117 250 Q 138 272 261 352 L 262 352 C 288 367 298 399 270 387 Z" fill="black"></path>
				<path d="M 608 477 Q 788 510 798 518 Q 805 525 802 533 Q 796 543 770 552 Q 742 559 715 548 Q 664 533 611 519 L 551 505 Q 475 492 385 485 Q 352 481 375 465 Q 408 444 481 455 Q 515 461 553 467 L 608 477 Z" fill="black"></path>
				<path d="M 598 368 Q 602 425 608 477 L 611 519 Q 612 528 613 536 Q 616 566 626 592 Q 629 602 609 617 Q 575 635 552 639 Q 536 643 528 634 Q 521 627 529 612 Q 545 590 546 575 Q 549 541 551 505 L 553 467 Q 554 416 555 359 C 556 329 596 338 598 368 Z" fill="black"></path>
				<path d="M 555 359 Q 485 346 421 332 Q 402 328 425 310 Q 438 298 470 303 Q 618 327 727 340 Q 755 344 745 359 Q 733 377 704 383 Q 662 389 598 368 L 555 359 Z" fill="black"></path>
				<path d="M 352 215 Q 331 160 301 112 Q 283 82 301 48 Q 308 32 328 44 Q 377 83 378 160 Q 382 191 375 215 Q 371 222 364 224 Q 357 223 352 215 Z" fill="black"></path>
				<path d="M 424 172 Q 445 78 516 35 Q 615 -25 794 3 Q 819 9 842 20 Q 864 30 865 44 Q 869 53 835 76 Q 783 121 745 167 Q 733 183 729 176 Q 728 176 743 97 Q 755 61 713 53 Q 704 53 694 51 Q 559 44 503 95 Q 478 117 465 156 Q 458 178 446 183 Q 433 190 426 186 Q 420 185 424 172 Z" fill="black"></path>
				<path d="M 562 210 Q 605 158 621 157 Q 631 157 637 169 Q 643 182 637 212 Q 630 236 561 256 Q 546 260 540 259 Q 536 255 535 243 Q 538 233 562 210 Z" fill="black"></path>
				<path d="M 771 257 Q 819 230 879 187 Q 898 171 915 171 Q 924 171 929 183 Q 938 199 915 238 Q 897 274 830 282 Q 787 286 765 287 Q 755 291 756 278 Q 757 265 771 257 Z" fill="red"></path>
</g>
		<text x="40" y="140" font-size="128" fill="#999999">12</text></g>
		<g id="id2:id2:id2" transform="matrix(1.0,0,0,1.0,2048,0.0)">			<g stroke="white" stroke-width="4" transform="scale(4, 4)"> <rect x="1" y="1" width="255" height="255" fill="white" stroke-width="0"/></g>
</g>
		<g id="id2:id3:id3" transform="matrix(1.0,0,0,1.0,3072,0.0)">			<g stroke="white" stroke-width="4" transform="scale(4, 4)"> <rect x="1" y="1" width="255" height="255" fill="white" stroke-width="0"/></g>
</g>
		<g id="id2:id4:id4" transform="matrix(1.0,0,0,1.0,4096,0.0)">			<g stroke="white" stroke-width="4" transform="scale(4, 4)"> <rect x="1" y="1" width="255" height="255" fill="white" stroke-width="0"/></g>
</g>
</g>
</svg>
