<?xml version="1.0" standalone="no"?>
<!DOCTYPE svg PUBLIC "-//W3C//DTD SVG 1.1//EN"
 "http://www.w3.org/Graphics/SVG/1.1/DTD/svg11.dtd">
<!-- generate by Japanese dictionary app com.asnsami.kanjidictionary -->

<svg xmlns="http://www.w3.org/2000/svg" xmlns:sodipodi="http://sodipodi.sourceforge.net/DTD/sodipodi-0.dtd" version="1.1" width="640" height="512" viewBox="0 0 5120 4096">
	<g id="id0:id0" transform="translate(0.0,0)">
		<g id="id0:id0:id0" transform="matrix(1.0,0,0,1.0,0,0.0)">			<g stroke="lightgray" stroke-width="4" transform="scale(4, 4)"> <rect x="0" y="0" width="256" height="256" fill="white" stroke-width="4"/></g>
			<g transform="scale(0.92, -0.92) translate(60, -920)">					<path d="M 510 803 Q 538 785 568 763 Q 584 753 599 756 Q 609 757 613 772 Q 614 788 601 816 Q 594 832 562 842 Q 487 857 475 847 Q 471 843 475 830 Q 479 820 510 803 Z" fill="red"></path>
				<path d="M 334 657 Q 370 644 432 651 Q 565 669 706 689 Q 775 699 785 709 Q 794 716 790 724 Q 784 737 756 745 Q 728 754 634 727 Q 463 691 332 687 Q 326 687 322 684 C 293 678 305 665 334 657 Z" fill="lightgray"></path>
				<path d="M 247 375 Q 214 210 102 22 Q 98 16 95 10 Q 94 0 104 2 Q 132 8 206 122 Q 224 155 242 194 Q 308 350 318 542 Q 324 639 334 657 C 339 672 339 672 322 684 Q 307 697 284 707 Q 265 717 252 712 Q 240 705 247 691 Q 266 664 267 595 Q 266 582 266 567 Q 263 486 253 413 L 247 375 Z" fill="lightgray"></path>
				<path d="M 127 549 Q 181 480 205 477 Q 218 476 225 494 Q 226 507 218 528 Q 208 544 185 554 Q 148 573 133 576 Q 123 577 122 566 Q 121 557 127 549 Z" fill="lightgray"></path>
				<path d="M 253 413 Q 88 305 48 296 Q 36 292 38 282 Q 39 269 50 264 Q 75 255 110 247 Q 120 247 129 258 Q 150 291 247 375 C 270 395 278 429 253 413 Z" fill="lightgray"></path>
				<path d="M 391 376 Q 445 352 494 320 Q 504 311 513 320 Q 522 327 526 344 Q 536 386 484 442 Q 454 475 521 542 Q 527 549 533 552 Q 549 562 541 574 Q 529 590 496 605 Q 477 611 440 579 Q 407 564 382 558 C 353 550 374 524 403 533 Q 404 534 407 535 Q 429 539 453 550 Q 462 556 468 550 Q 472 546 466 534 Q 439 462 443 451 Q 444 447 448 442 Q 484 394 475 384 Q 468 375 447 379 Q 420 386 392 386 C 367 387 367 387 391 376 Z" fill="lightgray"></path>
				<path d="M 382 558 Q 366 571 345 577 Q 338 578 331 571 Q 327 567 334 556 Q 385 430 340 165 Q 333 128 319 89 Q 304 40 334 4 Q 344 -9 353 4 Q 386 38 386 178 Q 386 271 391 376 L 392 386 Q 395 494 403 526 Q 403 530 403 533 C 404 543 404 543 382 558 Z" fill="lightgray"></path>
				<path d="M 635 563 Q 657 596 673 606 Q 679 613 676 621 Q 675 628 658 644 Q 642 657 630 657 Q 618 657 623 643 Q 629 625 589 557 Q 568 527 541 495 Q 534 489 533 485 Q 530 478 539 480 Q 555 483 621 547 L 635 563 Z" fill="lightgray"></path>
				<path d="M 685 455 Q 752 531 781 550 Q 796 559 786 569 Q 774 579 743 596 Q 739 597 635 563 C 606 554 604 553 621 547 Q 636 538 694 552 Q 700 553 702 552 Q 705 549 701 542 Q 679 487 665 459 Q 661 452 659 447 C 646 420 665 433 685 455 Z" fill="lightgray"></path>
				<path d="M 767 286 Q 791 380 826 407 Q 841 423 828 439 Q 764 490 707 462 Q 695 459 685 455 L 659 447 Q 614 438 569 433 Q 556 432 556 423 Q 559 416 574 411 Q 596 401 626 411 Q 737 430 743 425 Q 752 416 750 397 Q 740 340 725 294 C 716 265 759 257 767 286 Z" fill="lightgray"></path>
				<path d="M 554 338 Q 541 335 557 323 Q 561 320 696 336 Q 715 339 709 350 Q 700 362 679 366 Q 664 369 554 338 Z" fill="lightgray"></path>
				<path d="M 725 294 Q 721 295 716 293 Q 625 271 550 261 Q 531 260 542 243 Q 557 228 580 232 Q 641 245 776 256 Q 786 257 787 265 Q 787 272 767 286 L 725 294 Z" fill="lightgray"></path>
				<path d="M 475 164 Q 456 119 429 78 Q 411 53 426 23 Q 433 8 450 18 Q 492 48 496 116 Q 500 143 495 164 Q 491 171 486 172 Q 479 171 475 164 Z" fill="lightgray"></path>
				<path d="M 540 141 Q 555 62 618 22 Q 708 -32 862 -7 Q 880 -1 898 5 Q 917 14 919 26 Q 922 36 886 56 Q 831 96 789 141 Q 776 156 773 148 Q 770 145 797 72 Q 804 41 760 37 Q 757 37 756 37 Q 648 36 607 76 Q 588 94 579 125 Q 572 147 561 151 Q 549 158 542 154 Q 538 153 540 141 Z" fill="lightgray"></path>
				<path d="M 632 184 Q 680 127 703 129 Q 715 128 720 144 Q 721 156 712 173 Q 702 186 681 193 Q 648 206 635 208 Q 626 209 626 199 Q 625 192 632 184 Z" fill="lightgray"></path>
				<path d="M 810 209 Q 853 181 905 140 Q 920 127 933 125 Q 940 125 944 134 Q 953 147 936 179 Q 924 209 865 223 Q 828 230 807 233 Q 798 236 799 226 Q 800 216 810 209 Z" fill="lightgray"></path>
</g>
		<text x="40" y="140" font-size="128" fill="#999999">1</text></g>
		<g id="id0:id1:id1" transform="matrix(1.0,0,0,1.0,1024,0.0)">			<g stroke="lightgray" stroke-width="4" transform="scale(4, 4)"> <rect x="0" y="0" width="256" height="256" fill="white" stroke-width="4"/></g>
			<g transform="scale(0.92, -0.92) translate(60, -920)">					<path d="M 510 803 Q 538 785 568 763 Q 584 753 599 756 Q 609 757 613 772 Q 614 788 601 816 Q 594 832 562 842 Q 487 857 475 847 Q 471 843 475 830 Q 479 820 510 803 Z" fill="black"></path>
				<path d="M 334 657 Q 370 644 432 651 Q 565 669 706 689 Q 775 699 785 709 Q 794 716 790 724 Q 784 737 756 745 Q 728 754 634 727 Q 463 691 332 687 Q 326 687 322 684 C 293 678 305 665 334 657 Z" fill="red"></path>
				<path d="M 247 375 Q 214 210 102 22 Q 98 16 95 10 Q 94 0 104 2 Q 132 8 206 122 Q 224 155 242 194 Q 308 350 318 542 Q 324 639 334 657 C 339 672 339 672 322 684 Q 307 697 284 707 Q 265 717 252 712 Q 240 705 247 691 Q 266 664 267 595 Q 266 582 266 567 Q 263 486 253 413 L 247 375 Z" fill="lightgray"></path>
				<path d="M 127 549 Q 181 480 205 477 Q 218 476 225 494 Q 226 507 218 528 Q 208 544 185 554 Q 148 573 133 576 Q 123 577 122 566 Q 121 557 127 549 Z" fill="lightgray"></path>
				<path d="M 253 413 Q 88 305 48 296 Q 36 292 38 282 Q 39 269 50 264 Q 75 255 110 247 Q 120 247 129 258 Q 150 291 247 375 C 270 395 278 429 253 413 Z" fill="lightgray"></path>
				<path d="M 391 376 Q 445 352 494 320 Q 504 311 513 320 Q 522 327 526 344 Q 536 386 484 442 Q 454 475 521 542 Q 527 549 533 552 Q 549 562 541 574 Q 529 590 496 605 Q 477 611 440 579 Q 407 564 382 558 C 353 550 374 524 403 533 Q 404 534 407 535 Q 429 539 453 550 Q 462 556 468 550 Q 472 546 466 534 Q 439 462 443 451 Q 444 447 448 442 Q 484 394 475 384 Q 468 375 447 379 Q 420 386 392 386 C 367 387 367 387 391 376 Z" fill="lightgray"></path>
				<path d="M 382 558 Q 366 571 345 577 Q 338 578 331 571 Q 327 567 334 556 Q 385 430 340 165 Q 333 128 319 89 Q 304 40 334 4 Q 344 -9 353 4 Q 386 38 386 178 Q 386 271 391 376 L 392 386 Q 395 494 403 526 Q 403 530 403 533 C 404 543 404 543 382 558 Z" fill="lightgray"></path>
				<path d="M 635 563 Q 657 596 673 606 Q 679 613 676 621 Q 675 628 658 644 Q 642 657 630 657 Q 618 657 623 643 Q 629 625 589 557 Q 568 527 541 495 Q 534 489 533 485 Q 530 478 539 480 Q 555 483 621 547 L 635 563 Z" fill="lightgray"></path>
				<path d="M 685 455 Q 752 531 781 550 Q 796 559 786 569 Q 774 579 743 596 Q 739 597 635 563 C 606 554 604 553 621 547 Q 636 538 694 552 Q 700 553 702 552 Q 705 549 701 542 Q 679 487 665 459 Q 661 452 659 447 C 646 420 665 433 685 455 Z" fill="lightgray"></path>
				<path d="M 767 286 Q 791 380 826 407 Q 841 423 828 439 Q 764 490 707 462 Q 695 459 685 455 L 659 447 Q 614 438 569 433 Q 556 432 556 423 Q 559 416 574 411 Q 596 401 626 411 Q 737 430 743 425 Q 752 416 750 397 Q 740 340 725 294 C 716 265 759 257 767 286 Z" fill="lightgray"></path>
				<path d="M 554 338 Q 541 335 557 323 Q 561 320 696 336 Q 715 339 709 350 Q 700 362 679 366 Q 664 369 554 338 Z" fill="lightgray"></path>
				<path d="M 725 294 Q 721 295 716 293 Q 625 271 550 261 Q 531 260 542 243 Q 557 228 580 232 Q 641 245 776 256 Q 786 257 787 265 Q 787 272 767 286 L 725 294 Z" fill="lightgray"></path>
				<path d="M 475 164 Q 456 119 429 78 Q 411 53 426 23 Q 433 8 450 18 Q 492 48 496 116 Q 500 143 495 164 Q 491 171 486 172 Q 479 171 475 164 Z" fill="lightgray"></path>
				<path d="M 540 141 Q 555 62 618 22 Q 708 -32 862 -7 Q 880 -1 898 5 Q 917 14 919 26 Q 922 36 886 56 Q 831 96 789 141 Q 776 156 773 148 Q 770 145 797 72 Q 804 41 760 37 Q 757 37 756 37 Q 648 36 607 76 Q 588 94 579 125 Q 572 147 561 151 Q 549 158 542 154 Q 538 153 540 141 Z" fill="lightgray"></path>
				<path d="M 632 184 Q 680 127 703 129 Q 715 128 720 144 Q 721 156 712 173 Q 702 186 681 193 Q 648 206 635 208 Q 626 209 626 199 Q 625 192 632 184 Z" fill="lightgray"></path>
				<path d="M 810 209 Q 853 181 905 140 Q 920 127 933 125 Q 940 125 944 134 Q 953 147 936 179 Q 924 209 865 223 Q 828 230 807 233 Q 798 236 799 226 Q 800 216 810 209 Z" fill="lightgray"></path>
</g>
		<text x="40" y="140" font-size="128" fill="#999999">2</text></g>
		<g id="id0:id2:id2" transform="matrix(1.0,0,0,1.0,2048,0.0)">			<g stroke="lightgray" stroke-width="4" transform="scale(4, 4)"> <rect x="0" y="0" width="256" height="256" fill="white" stroke-width="4"/></g>
			<g transform="scale(0.92, -0.92) translate(60, -920)">					<path d="M 510 803 Q 538 785 568 763 Q 584 753 599 756 Q 609 757 613 772 Q 614 788 601 816 Q 594 832 562 842 Q 487 857 475 847 Q 471 843 475 830 Q 479 820 510 803 Z" fill="black"></path>
				<path d="M 334 657 Q 370 644 432 651 Q 565 669 706 689 Q 775 699 785 709 Q 794 716 790 724 Q 784 737 756 745 Q 728 754 634 727 Q 463 691 332 687 Q 326 687 322 684 C 293 678 305 665 334 657 Z" fill="black"></path>
				<path d="M 247 375 Q 214 210 102 22 Q 98 16 95 10 Q 94 0 104 2 Q 132 8 206 122 Q 224 155 242 194 Q 308 350 318 542 Q 324 639 334 657 C 339 672 339 672 322 684 Q 307 697 284 707 Q 265 717 252 712 Q 240 705 247 691 Q 266 664 267 595 Q 266 582 266 567 Q 263 486 253 413 L 247 375 Z" fill="red"></path>
				<path d="M 127 549 Q 181 480 205 477 Q 218 476 225 494 Q 226 507 218 528 Q 208 544 185 554 Q 148 573 133 576 Q 123 577 122 566 Q 121 557 127 549 Z" fill="lightgray"></path>
				<path d="M 253 413 Q 88 305 48 296 Q 36 292 38 282 Q 39 269 50 264 Q 75 255 110 247 Q 120 247 129 258 Q 150 291 247 375 C 270 395 278 429 253 413 Z" fill="lightgray"></path>
				<path d="M 391 376 Q 445 352 494 320 Q 504 311 513 320 Q 522 327 526 344 Q 536 386 484 442 Q 454 475 521 542 Q 527 549 533 552 Q 549 562 541 574 Q 529 590 496 605 Q 477 611 440 579 Q 407 564 382 558 C 353 550 374 524 403 533 Q 404 534 407 535 Q 429 539 453 550 Q 462 556 468 550 Q 472 546 466 534 Q 439 462 443 451 Q 444 447 448 442 Q 484 394 475 384 Q 468 375 447 379 Q 420 386 392 386 C 367 387 367 387 391 376 Z" fill="lightgray"></path>
				<path d="M 382 558 Q 366 571 345 577 Q 338 578 331 571 Q 327 567 334 556 Q 385 430 340 165 Q 333 128 319 89 Q 304 40 334 4 Q 344 -9 353 4 Q 386 38 386 178 Q 386 271 391 376 L 392 386 Q 395 494 403 526 Q 403 530 403 533 C 404 543 404 543 382 558 Z" fill="lightgray"></path>
				<path d="M 635 563 Q 657 596 673 606 Q 679 613 676 621 Q 675 628 658 644 Q 642 657 630 657 Q 618 657 623 643 Q 629 625 589 557 Q 568 527 541 495 Q 534 489 533 485 Q 530 478 539 480 Q 555 483 621 547 L 635 563 Z" fill="lightgray"></path>
				<path d="M 685 455 Q 752 531 781 550 Q 796 559 786 569 Q 774 579 743 596 Q 739 597 635 563 C 606 554 604 553 621 547 Q 636 538 694 552 Q 700 553 702 552 Q 705 549 701 542 Q 679 487 665 459 Q 661 452 659 447 C 646 420 665 433 685 455 Z" fill="lightgray"></path>
				<path d="M 767 286 Q 791 380 826 407 Q 841 423 828 439 Q 764 490 707 462 Q 695 459 685 455 L 659 447 Q 614 438 569 433 Q 556 432 556 423 Q 559 416 574 411 Q 596 401 626 411 Q 737 430 743 425 Q 752 416 750 397 Q 740 340 725 294 C 716 265 759 257 767 286 Z" fill="lightgray"></path>
				<path d="M 554 338 Q 541 335 557 323 Q 561 320 696 336 Q 715 339 709 350 Q 700 362 679 366 Q 664 369 554 338 Z" fill="lightgray"></path>
				<path d="M 725 294 Q 721 295 716 293 Q 625 271 550 261 Q 531 260 542 243 Q 557 228 580 232 Q 641 245 776 256 Q 786 257 787 265 Q 787 272 767 286 L 725 294 Z" fill="lightgray"></path>
				<path d="M 475 164 Q 456 119 429 78 Q 411 53 426 23 Q 433 8 450 18 Q 492 48 496 116 Q 500 143 495 164 Q 491 171 486 172 Q 479 171 475 164 Z" fill="lightgray"></path>
				<path d="M 540 141 Q 555 62 618 22 Q 708 -32 862 -7 Q 880 -1 898 5 Q 917 14 919 26 Q 922 36 886 56 Q 831 96 789 141 Q 776 156 773 148 Q 770 145 797 72 Q 804 41 760 37 Q 757 37 756 37 Q 648 36 607 76 Q 588 94 579 125 Q 572 147 561 151 Q 549 158 542 154 Q 538 153 540 141 Z" fill="lightgray"></path>
				<path d="M 632 184 Q 680 127 703 129 Q 715 128 720 144 Q 721 156 712 173 Q 702 186 681 193 Q 648 206 635 208 Q 626 209 626 199 Q 625 192 632 184 Z" fill="lightgray"></path>
				<path d="M 810 209 Q 853 181 905 140 Q 920 127 933 125 Q 940 125 944 134 Q 953 147 936 179 Q 924 209 865 223 Q 828 230 807 233 Q 798 236 799 226 Q 800 216 810 209 Z" fill="lightgray"></path>
</g>
		<text x="40" y="140" font-size="128" fill="#999999">3</text></g>
		<g id="id0:id3:id3" transform="matrix(1.0,0,0,1.0,3072,0.0)">			<g stroke="lightgray" stroke-width="4" transform="scale(4, 4)"> <rect x="0" y="0" width="256" height="256" fill="white" stroke-width="4"/></g>
			<g transform="scale(0.92, -0.92) translate(60, -920)">					<path d="M 510 803 Q 538 785 568 763 Q 584 753 599 756 Q 609 757 613 772 Q 614 788 601 816 Q 594 832 562 842 Q 487 857 475 847 Q 471 843 475 830 Q 479 820 510 803 Z" fill="black"></path>
				<path d="M 334 657 Q 370 644 432 651 Q 565 669 706 689 Q 775 699 785 709 Q 794 716 790 724 Q 784 737 756 745 Q 728 754 634 727 Q 463 691 332 687 Q 326 687 322 684 C 293 678 305 665 334 657 Z" fill="black"></path>
				<path d="M 247 375 Q 214 210 102 22 Q 98 16 95 10 Q 94 0 104 2 Q 132 8 206 122 Q 224 155 242 194 Q 308 350 318 542 Q 324 639 334 657 C 339 672 339 672 322 684 Q 307 697 284 707 Q 265 717 252 712 Q 240 705 247 691 Q 266 664 267 595 Q 266 582 266 567 Q 263 486 253 413 L 247 375 Z" fill="black"></path>
				<path d="M 127 549 Q 181 480 205 477 Q 218 476 225 494 Q 226 507 218 528 Q 208 544 185 554 Q 148 573 133 576 Q 123 577 122 566 Q 121 557 127 549 Z" fill="red"></path>
				<path d="M 253 413 Q 88 305 48 296 Q 36 292 38 282 Q 39 269 50 264 Q 75 255 110 247 Q 120 247 129 258 Q 150 291 247 375 C 270 395 278 429 253 413 Z" fill="lightgray"></path>
				<path d="M 391 376 Q 445 352 494 320 Q 504 311 513 320 Q 522 327 526 344 Q 536 386 484 442 Q 454 475 521 542 Q 527 549 533 552 Q 549 562 541 574 Q 529 590 496 605 Q 477 611 440 579 Q 407 564 382 558 C 353 550 374 524 403 533 Q 404 534 407 535 Q 429 539 453 550 Q 462 556 468 550 Q 472 546 466 534 Q 439 462 443 451 Q 444 447 448 442 Q 484 394 475 384 Q 468 375 447 379 Q 420 386 392 386 C 367 387 367 387 391 376 Z" fill="lightgray"></path>
				<path d="M 382 558 Q 366 571 345 577 Q 338 578 331 571 Q 327 567 334 556 Q 385 430 340 165 Q 333 128 319 89 Q 304 40 334 4 Q 344 -9 353 4 Q 386 38 386 178 Q 386 271 391 376 L 392 386 Q 395 494 403 526 Q 403 530 403 533 C 404 543 404 543 382 558 Z" fill="lightgray"></path>
				<path d="M 635 563 Q 657 596 673 606 Q 679 613 676 621 Q 675 628 658 644 Q 642 657 630 657 Q 618 657 623 643 Q 629 625 589 557 Q 568 527 541 495 Q 534 489 533 485 Q 530 478 539 480 Q 555 483 621 547 L 635 563 Z" fill="lightgray"></path>
				<path d="M 685 455 Q 752 531 781 550 Q 796 559 786 569 Q 774 579 743 596 Q 739 597 635 563 C 606 554 604 553 621 547 Q 636 538 694 552 Q 700 553 702 552 Q 705 549 701 542 Q 679 487 665 459 Q 661 452 659 447 C 646 420 665 433 685 455 Z" fill="lightgray"></path>
				<path d="M 767 286 Q 791 380 826 407 Q 841 423 828 439 Q 764 490 707 462 Q 695 459 685 455 L 659 447 Q 614 438 569 433 Q 556 432 556 423 Q 559 416 574 411 Q 596 401 626 411 Q 737 430 743 425 Q 752 416 750 397 Q 740 340 725 294 C 716 265 759 257 767 286 Z" fill="lightgray"></path>
				<path d="M 554 338 Q 541 335 557 323 Q 561 320 696 336 Q 715 339 709 350 Q 700 362 679 366 Q 664 369 554 338 Z" fill="lightgray"></path>
				<path d="M 725 294 Q 721 295 716 293 Q 625 271 550 261 Q 531 260 542 243 Q 557 228 580 232 Q 641 245 776 256 Q 786 257 787 265 Q 787 272 767 286 L 725 294 Z" fill="lightgray"></path>
				<path d="M 475 164 Q 456 119 429 78 Q 411 53 426 23 Q 433 8 450 18 Q 492 48 496 116 Q 500 143 495 164 Q 491 171 486 172 Q 479 171 475 164 Z" fill="lightgray"></path>
				<path d="M 540 141 Q 555 62 618 22 Q 708 -32 862 -7 Q 880 -1 898 5 Q 917 14 919 26 Q 922 36 886 56 Q 831 96 789 141 Q 776 156 773 148 Q 770 145 797 72 Q 804 41 760 37 Q 757 37 756 37 Q 648 36 607 76 Q 588 94 579 125 Q 572 147 561 151 Q 549 158 542 154 Q 538 153 540 141 Z" fill="lightgray"></path>
				<path d="M 632 184 Q 680 127 703 129 Q 715 128 720 144 Q 721 156 712 173 Q 702 186 681 193 Q 648 206 635 208 Q 626 209 626 199 Q 625 192 632 184 Z" fill="lightgray"></path>
				<path d="M 810 209 Q 853 181 905 140 Q 920 127 933 125 Q 940 125 944 134 Q 953 147 936 179 Q 924 209 865 223 Q 828 230 807 233 Q 798 236 799 226 Q 800 216 810 209 Z" fill="lightgray"></path>
</g>
		<text x="40" y="140" font-size="128" fill="#999999">4</text></g>
		<g id="id0:id4:id4" transform="matrix(1.0,0,0,1.0,4096,0.0)">			<g stroke="lightgray" stroke-width="4" transform="scale(4, 4)"> <rect x="0" y="0" width="256" height="256" fill="white" stroke-width="4"/></g>
			<g transform="scale(0.92, -0.92) translate(60, -920)">					<path d="M 510 803 Q 538 785 568 763 Q 584 753 599 756 Q 609 757 613 772 Q 614 788 601 816 Q 594 832 562 842 Q 487 857 475 847 Q 471 843 475 830 Q 479 820 510 803 Z" fill="black"></path>
				<path d="M 334 657 Q 370 644 432 651 Q 565 669 706 689 Q 775 699 785 709 Q 794 716 790 724 Q 784 737 756 745 Q 728 754 634 727 Q 463 691 332 687 Q 326 687 322 684 C 293 678 305 665 334 657 Z" fill="black"></path>
				<path d="M 247 375 Q 214 210 102 22 Q 98 16 95 10 Q 94 0 104 2 Q 132 8 206 122 Q 224 155 242 194 Q 308 350 318 542 Q 324 639 334 657 C 339 672 339 672 322 684 Q 307 697 284 707 Q 265 717 252 712 Q 240 705 247 691 Q 266 664 267 595 Q 266 582 266 567 Q 263 486 253 413 L 247 375 Z" fill="black"></path>
				<path d="M 127 549 Q 181 480 205 477 Q 218 476 225 494 Q 226 507 218 528 Q 208 544 185 554 Q 148 573 133 576 Q 123 577 122 566 Q 121 557 127 549 Z" fill="black"></path>
				<path d="M 253 413 Q 88 305 48 296 Q 36 292 38 282 Q 39 269 50 264 Q 75 255 110 247 Q 120 247 129 258 Q 150 291 247 375 C 270 395 278 429 253 413 Z" fill="red"></path>
				<path d="M 391 376 Q 445 352 494 320 Q 504 311 513 320 Q 522 327 526 344 Q 536 386 484 442 Q 454 475 521 542 Q 527 549 533 552 Q 549 562 541 574 Q 529 590 496 605 Q 477 611 440 579 Q 407 564 382 558 C 353 550 374 524 403 533 Q 404 534 407 535 Q 429 539 453 550 Q 462 556 468 550 Q 472 546 466 534 Q 439 462 443 451 Q 444 447 448 442 Q 484 394 475 384 Q 468 375 447 379 Q 420 386 392 386 C 367 387 367 387 391 376 Z" fill="lightgray"></path>
				<path d="M 382 558 Q 366 571 345 577 Q 338 578 331 571 Q 327 567 334 556 Q 385 430 340 165 Q 333 128 319 89 Q 304 40 334 4 Q 344 -9 353 4 Q 386 38 386 178 Q 386 271 391 376 L 392 386 Q 395 494 403 526 Q 403 530 403 533 C 404 543 404 543 382 558 Z" fill="lightgray"></path>
				<path d="M 635 563 Q 657 596 673 606 Q 679 613 676 621 Q 675 628 658 644 Q 642 657 630 657 Q 618 657 623 643 Q 629 625 589 557 Q 568 527 541 495 Q 534 489 533 485 Q 530 478 539 480 Q 555 483 621 547 L 635 563 Z" fill="lightgray"></path>
				<path d="M 685 455 Q 752 531 781 550 Q 796 559 786 569 Q 774 579 743 596 Q 739 597 635 563 C 606 554 604 553 621 547 Q 636 538 694 552 Q 700 553 702 552 Q 705 549 701 542 Q 679 487 665 459 Q 661 452 659 447 C 646 420 665 433 685 455 Z" fill="lightgray"></path>
				<path d="M 767 286 Q 791 380 826 407 Q 841 423 828 439 Q 764 490 707 462 Q 695 459 685 455 L 659 447 Q 614 438 569 433 Q 556 432 556 423 Q 559 416 574 411 Q 596 401 626 411 Q 737 430 743 425 Q 752 416 750 397 Q 740 340 725 294 C 716 265 759 257 767 286 Z" fill="lightgray"></path>
				<path d="M 554 338 Q 541 335 557 323 Q 561 320 696 336 Q 715 339 709 350 Q 700 362 679 366 Q 664 369 554 338 Z" fill="lightgray"></path>
				<path d="M 725 294 Q 721 295 716 293 Q 625 271 550 261 Q 531 260 542 243 Q 557 228 580 232 Q 641 245 776 256 Q 786 257 787 265 Q 787 272 767 286 L 725 294 Z" fill="lightgray"></path>
				<path d="M 475 164 Q 456 119 429 78 Q 411 53 426 23 Q 433 8 450 18 Q 492 48 496 116 Q 500 143 495 164 Q 491 171 486 172 Q 479 171 475 164 Z" fill="lightgray"></path>
				<path d="M 540 141 Q 555 62 618 22 Q 708 -32 862 -7 Q 880 -1 898 5 Q 917 14 919 26 Q 922 36 886 56 Q 831 96 789 141 Q 776 156 773 148 Q 770 145 797 72 Q 804 41 760 37 Q 757 37 756 37 Q 648 36 607 76 Q 588 94 579 125 Q 572 147 561 151 Q 549 158 542 154 Q 538 153 540 141 Z" fill="lightgray"></path>
				<path d="M 632 184 Q 680 127 703 129 Q 715 128 720 144 Q 721 156 712 173 Q 702 186 681 193 Q 648 206 635 208 Q 626 209 626 199 Q 625 192 632 184 Z" fill="lightgray"></path>
				<path d="M 810 209 Q 853 181 905 140 Q 920 127 933 125 Q 940 125 944 134 Q 953 147 936 179 Q 924 209 865 223 Q 828 230 807 233 Q 798 236 799 226 Q 800 216 810 209 Z" fill="lightgray"></path>
</g>
		<text x="40" y="140" font-size="128" fill="#999999">5</text></g>
</g>
	<g id="id1:id1" transform="translate(0.0,1024)">
		<g id="id1:id0:id0" transform="matrix(1.0,0,0,1.0,0,0.0)">			<g stroke="lightgray" stroke-width="4" transform="scale(4, 4)"> <rect x="0" y="0" width="256" height="256" fill="white" stroke-width="4"/></g>
			<g transform="scale(0.92, -0.92) translate(60, -920)">					<path d="M 510 803 Q 538 785 568 763 Q 584 753 599 756 Q 609 757 613 772 Q 614 788 601 816 Q 594 832 562 842 Q 487 857 475 847 Q 471 843 475 830 Q 479 820 510 803 Z" fill="black"></path>
				<path d="M 334 657 Q 370 644 432 651 Q 565 669 706 689 Q 775 699 785 709 Q 794 716 790 724 Q 784 737 756 745 Q 728 754 634 727 Q 463 691 332 687 Q 326 687 322 684 C 293 678 305 665 334 657 Z" fill="black"></path>
				<path d="M 247 375 Q 214 210 102 22 Q 98 16 95 10 Q 94 0 104 2 Q 132 8 206 122 Q 224 155 242 194 Q 308 350 318 542 Q 324 639 334 657 C 339 672 339 672 322 684 Q 307 697 284 707 Q 265 717 252 712 Q 240 705 247 691 Q 266 664 267 595 Q 266 582 266 567 Q 263 486 253 413 L 247 375 Z" fill="black"></path>
				<path d="M 127 549 Q 181 480 205 477 Q 218 476 225 494 Q 226 507 218 528 Q 208 544 185 554 Q 148 573 133 576 Q 123 577 122 566 Q 121 557 127 549 Z" fill="black"></path>
				<path d="M 253 413 Q 88 305 48 296 Q 36 292 38 282 Q 39 269 50 264 Q 75 255 110 247 Q 120 247 129 258 Q 150 291 247 375 C 270 395 278 429 253 413 Z" fill="black"></path>
				<path d="M 391 376 Q 445 352 494 320 Q 504 311 513 320 Q 522 327 526 344 Q 536 386 484 442 Q 454 475 521 542 Q 527 549 533 552 Q 549 562 541 574 Q 529 590 496 605 Q 477 611 440 579 Q 407 564 382 558 C 353 550 374 524 403 533 Q 404 534 407 535 Q 429 539 453 550 Q 462 556 468 550 Q 472 546 466 534 Q 439 462 443 451 Q 444 447 448 442 Q 484 394 475 384 Q 468 375 447 379 Q 420 386 392 386 C 367 387 367 387 391 376 Z" fill="red"></path>
				<path d="M 382 558 Q 366 571 345 577 Q 338 578 331 571 Q 327 567 334 556 Q 385 430 340 165 Q 333 128 319 89 Q 304 40 334 4 Q 344 -9 353 4 Q 386 38 386 178 Q 386 271 391 376 L 392 386 Q 395 494 403 526 Q 403 530 403 533 C 404 543 404 543 382 558 Z" fill="lightgray"></path>
				<path d="M 635 563 Q 657 596 673 606 Q 679 613 676 621 Q 675 628 658 644 Q 642 657 630 657 Q 618 657 623 643 Q 629 625 589 557 Q 568 527 541 495 Q 534 489 533 485 Q 530 478 539 480 Q 555 483 621 547 L 635 563 Z" fill="lightgray"></path>
				<path d="M 685 455 Q 752 531 781 550 Q 796 559 786 569 Q 774 579 743 596 Q 739 597 635 563 C 606 554 604 553 621 547 Q 636 538 694 552 Q 700 553 702 552 Q 705 549 701 542 Q 679 487 665 459 Q 661 452 659 447 C 646 420 665 433 685 455 Z" fill="lightgray"></path>
				<path d="M 767 286 Q 791 380 826 407 Q 841 423 828 439 Q 764 490 707 462 Q 695 459 685 455 L 659 447 Q 614 438 569 433 Q 556 432 556 423 Q 559 416 574 411 Q 596 401 626 411 Q 737 430 743 425 Q 752 416 750 397 Q 740 340 725 294 C 716 265 759 257 767 286 Z" fill="lightgray"></path>
				<path d="M 554 338 Q 541 335 557 323 Q 561 320 696 336 Q 715 339 709 350 Q 700 362 679 366 Q 664 369 554 338 Z" fill="lightgray"></path>
				<path d="M 725 294 Q 721 295 716 293 Q 625 271 550 261 Q 531 260 542 243 Q 557 228 580 232 Q 641 245 776 256 Q 786 257 787 265 Q 787 272 767 286 L 725 294 Z" fill="lightgray"></path>
				<path d="M 475 164 Q 456 119 429 78 Q 411 53 426 23 Q 433 8 450 18 Q 492 48 496 116 Q 500 143 495 164 Q 491 171 486 172 Q 479 171 475 164 Z" fill="lightgray"></path>
				<path d="M 540 141 Q 555 62 618 22 Q 708 -32 862 -7 Q 880 -1 898 5 Q 917 14 919 26 Q 922 36 886 56 Q 831 96 789 141 Q 776 156 773 148 Q 770 145 797 72 Q 804 41 760 37 Q 757 37 756 37 Q 648 36 607 76 Q 588 94 579 125 Q 572 147 561 151 Q 549 158 542 154 Q 538 153 540 141 Z" fill="lightgray"></path>
				<path d="M 632 184 Q 680 127 703 129 Q 715 128 720 144 Q 721 156 712 173 Q 702 186 681 193 Q 648 206 635 208 Q 626 209 626 199 Q 625 192 632 184 Z" fill="lightgray"></path>
				<path d="M 810 209 Q 853 181 905 140 Q 920 127 933 125 Q 940 125 944 134 Q 953 147 936 179 Q 924 209 865 223 Q 828 230 807 233 Q 798 236 799 226 Q 800 216 810 209 Z" fill="lightgray"></path>
</g>
		<text x="40" y="140" font-size="128" fill="#999999">6</text></g>
		<g id="id1:id1:id1" transform="matrix(1.0,0,0,1.0,1024,0.0)">			<g stroke="lightgray" stroke-width="4" transform="scale(4, 4)"> <rect x="0" y="0" width="256" height="256" fill="white" stroke-width="4"/></g>
			<g transform="scale(0.92, -0.92) translate(60, -920)">					<path d="M 510 803 Q 538 785 568 763 Q 584 753 599 756 Q 609 757 613 772 Q 614 788 601 816 Q 594 832 562 842 Q 487 857 475 847 Q 471 843 475 830 Q 479 820 510 803 Z" fill="black"></path>
				<path d="M 334 657 Q 370 644 432 651 Q 565 669 706 689 Q 775 699 785 709 Q 794 716 790 724 Q 784 737 756 745 Q 728 754 634 727 Q 463 691 332 687 Q 326 687 322 684 C 293 678 305 665 334 657 Z" fill="black"></path>
				<path d="M 247 375 Q 214 210 102 22 Q 98 16 95 10 Q 94 0 104 2 Q 132 8 206 122 Q 224 155 242 194 Q 308 350 318 542 Q 324 639 334 657 C 339 672 339 672 322 684 Q 307 697 284 707 Q 265 717 252 712 Q 240 705 247 691 Q 266 664 267 595 Q 266 582 266 567 Q 263 486 253 413 L 247 375 Z" fill="black"></path>
				<path d="M 127 549 Q 181 480 205 477 Q 218 476 225 494 Q 226 507 218 528 Q 208 544 185 554 Q 148 573 133 576 Q 123 577 122 566 Q 121 557 127 549 Z" fill="black"></path>
				<path d="M 253 413 Q 88 305 48 296 Q 36 292 38 282 Q 39 269 50 264 Q 75 255 110 247 Q 120 247 129 258 Q 150 291 247 375 C 270 395 278 429 253 413 Z" fill="black"></path>
				<path d="M 391 376 Q 445 352 494 320 Q 504 311 513 320 Q 522 327 526 344 Q 536 386 484 442 Q 454 475 521 542 Q 527 549 533 552 Q 549 562 541 574 Q 529 590 496 605 Q 477 611 440 579 Q 407 564 382 558 C 353 550 374 524 403 533 Q 404 534 407 535 Q 429 539 453 550 Q 462 556 468 550 Q 472 546 466 534 Q 439 462 443 451 Q 444 447 448 442 Q 484 394 475 384 Q 468 375 447 379 Q 420 386 392 386 C 367 387 367 387 391 376 Z" fill="black"></path>
				<path d="M 382 558 Q 366 571 345 577 Q 338 578 331 571 Q 327 567 334 556 Q 385 430 340 165 Q 333 128 319 89 Q 304 40 334 4 Q 344 -9 353 4 Q 386 38 386 178 Q 386 271 391 376 L 392 386 Q 395 494 403 526 Q 403 530 403 533 C 404 543 404 543 382 558 Z" fill="red"></path>
				<path d="M 635 563 Q 657 596 673 606 Q 679 613 676 621 Q 675 628 658 644 Q 642 657 630 657 Q 618 657 623 643 Q 629 625 589 557 Q 568 527 541 495 Q 534 489 533 485 Q 530 478 539 480 Q 555 483 621 547 L 635 563 Z" fill="lightgray"></path>
				<path d="M 685 455 Q 752 531 781 550 Q 796 559 786 569 Q 774 579 743 596 Q 739 597 635 563 C 606 554 604 553 621 547 Q 636 538 694 552 Q 700 553 702 552 Q 705 549 701 542 Q 679 487 665 459 Q 661 452 659 447 C 646 420 665 433 685 455 Z" fill="lightgray"></path>
				<path d="M 767 286 Q 791 380 826 407 Q 841 423 828 439 Q 764 490 707 462 Q 695 459 685 455 L 659 447 Q 614 438 569 433 Q 556 432 556 423 Q 559 416 574 411 Q 596 401 626 411 Q 737 430 743 425 Q 752 416 750 397 Q 740 340 725 294 C 716 265 759 257 767 286 Z" fill="lightgray"></path>
				<path d="M 554 338 Q 541 335 557 323 Q 561 320 696 336 Q 715 339 709 350 Q 700 362 679 366 Q 664 369 554 338 Z" fill="lightgray"></path>
				<path d="M 725 294 Q 721 295 716 293 Q 625 271 550 261 Q 531 260 542 243 Q 557 228 580 232 Q 641 245 776 256 Q 786 257 787 265 Q 787 272 767 286 L 725 294 Z" fill="lightgray"></path>
				<path d="M 475 164 Q 456 119 429 78 Q 411 53 426 23 Q 433 8 450 18 Q 492 48 496 116 Q 500 143 495 164 Q 491 171 486 172 Q 479 171 475 164 Z" fill="lightgray"></path>
				<path d="M 540 141 Q 555 62 618 22 Q 708 -32 862 -7 Q 880 -1 898 5 Q 917 14 919 26 Q 922 36 886 56 Q 831 96 789 141 Q 776 156 773 148 Q 770 145 797 72 Q 804 41 760 37 Q 757 37 756 37 Q 648 36 607 76 Q 588 94 579 125 Q 572 147 561 151 Q 549 158 542 154 Q 538 153 540 141 Z" fill="lightgray"></path>
				<path d="M 632 184 Q 680 127 703 129 Q 715 128 720 144 Q 721 156 712 173 Q 702 186 681 193 Q 648 206 635 208 Q 626 209 626 199 Q 625 192 632 184 Z" fill="lightgray"></path>
				<path d="M 810 209 Q 853 181 905 140 Q 920 127 933 125 Q 940 125 944 134 Q 953 147 936 179 Q 924 209 865 223 Q 828 230 807 233 Q 798 236 799 226 Q 800 216 810 209 Z" fill="lightgray"></path>
</g>
		<text x="40" y="140" font-size="128" fill="#999999">7</text></g>
		<g id="id1:id2:id2" transform="matrix(1.0,0,0,1.0,2048,0.0)">			<g stroke="lightgray" stroke-width="4" transform="scale(4, 4)"> <rect x="0" y="0" width="256" height="256" fill="white" stroke-width="4"/></g>
			<g transform="scale(0.92, -0.92) translate(60, -920)">					<path d="M 510 803 Q 538 785 568 763 Q 584 753 599 756 Q 609 757 613 772 Q 614 788 601 816 Q 594 832 562 842 Q 487 857 475 847 Q 471 843 475 830 Q 479 820 510 803 Z" fill="black"></path>
				<path d="M 334 657 Q 370 644 432 651 Q 565 669 706 689 Q 775 699 785 709 Q 794 716 790 724 Q 784 737 756 745 Q 728 754 634 727 Q 463 691 332 687 Q 326 687 322 684 C 293 678 305 665 334 657 Z" fill="black"></path>
				<path d="M 247 375 Q 214 210 102 22 Q 98 16 95 10 Q 94 0 104 2 Q 132 8 206 122 Q 224 155 242 194 Q 308 350 318 542 Q 324 639 334 657 C 339 672 339 672 322 684 Q 307 697 284 707 Q 265 717 252 712 Q 240 705 247 691 Q 266 664 267 595 Q 266 582 266 567 Q 263 486 253 413 L 247 375 Z" fill="black"></path>
				<path d="M 127 549 Q 181 480 205 477 Q 218 476 225 494 Q 226 507 218 528 Q 208 544 185 554 Q 148 573 133 576 Q 123 577 122 566 Q 121 557 127 549 Z" fill="black"></path>
				<path d="M 253 413 Q 88 305 48 296 Q 36 292 38 282 Q 39 269 50 264 Q 75 255 110 247 Q 120 247 129 258 Q 150 291 247 375 C 270 395 278 429 253 413 Z" fill="black"></path>
				<path d="M 391 376 Q 445 352 494 320 Q 504 311 513 320 Q 522 327 526 344 Q 536 386 484 442 Q 454 475 521 542 Q 527 549 533 552 Q 549 562 541 574 Q 529 590 496 605 Q 477 611 440 579 Q 407 564 382 558 C 353 550 374 524 403 533 Q 404 534 407 535 Q 429 539 453 550 Q 462 556 468 550 Q 472 546 466 534 Q 439 462 443 451 Q 444 447 448 442 Q 484 394 475 384 Q 468 375 447 379 Q 420 386 392 386 C 367 387 367 387 391 376 Z" fill="black"></path>
				<path d="M 382 558 Q 366 571 345 577 Q 338 578 331 571 Q 327 567 334 556 Q 385 430 340 165 Q 333 128 319 89 Q 304 40 334 4 Q 344 -9 353 4 Q 386 38 386 178 Q 386 271 391 376 L 392 386 Q 395 494 403 526 Q 403 530 403 533 C 404 543 404 543 382 558 Z" fill="black"></path>
				<path d="M 635 563 Q 657 596 673 606 Q 679 613 676 621 Q 675 628 658 644 Q 642 657 630 657 Q 618 657 623 643 Q 629 625 589 557 Q 568 527 541 495 Q 534 489 533 485 Q 530 478 539 480 Q 555 483 621 547 L 635 563 Z" fill="red"></path>
				<path d="M 685 455 Q 752 531 781 550 Q 796 559 786 569 Q 774 579 743 596 Q 739 597 635 563 C 606 554 604 553 621 547 Q 636 538 694 552 Q 700 553 702 552 Q 705 549 701 542 Q 679 487 665 459 Q 661 452 659 447 C 646 420 665 433 685 455 Z" fill="lightgray"></path>
				<path d="M 767 286 Q 791 380 826 407 Q 841 423 828 439 Q 764 490 707 462 Q 695 459 685 455 L 659 447 Q 614 438 569 433 Q 556 432 556 423 Q 559 416 574 411 Q 596 401 626 411 Q 737 430 743 425 Q 752 416 750 397 Q 740 340 725 294 C 716 265 759 257 767 286 Z" fill="lightgray"></path>
				<path d="M 554 338 Q 541 335 557 323 Q 561 320 696 336 Q 715 339 709 350 Q 700 362 679 366 Q 664 369 554 338 Z" fill="lightgray"></path>
				<path d="M 725 294 Q 721 295 716 293 Q 625 271 550 261 Q 531 260 542 243 Q 557 228 580 232 Q 641 245 776 256 Q 786 257 787 265 Q 787 272 767 286 L 725 294 Z" fill="lightgray"></path>
				<path d="M 475 164 Q 456 119 429 78 Q 411 53 426 23 Q 433 8 450 18 Q 492 48 496 116 Q 500 143 495 164 Q 491 171 486 172 Q 479 171 475 164 Z" fill="lightgray"></path>
				<path d="M 540 141 Q 555 62 618 22 Q 708 -32 862 -7 Q 880 -1 898 5 Q 917 14 919 26 Q 922 36 886 56 Q 831 96 789 141 Q 776 156 773 148 Q 770 145 797 72 Q 804 41 760 37 Q 757 37 756 37 Q 648 36 607 76 Q 588 94 579 125 Q 572 147 561 151 Q 549 158 542 154 Q 538 153 540 141 Z" fill="lightgray"></path>
				<path d="M 632 184 Q 680 127 703 129 Q 715 128 720 144 Q 721 156 712 173 Q 702 186 681 193 Q 648 206 635 208 Q 626 209 626 199 Q 625 192 632 184 Z" fill="lightgray"></path>
				<path d="M 810 209 Q 853 181 905 140 Q 920 127 933 125 Q 940 125 944 134 Q 953 147 936 179 Q 924 209 865 223 Q 828 230 807 233 Q 798 236 799 226 Q 800 216 810 209 Z" fill="lightgray"></path>
</g>
		<text x="40" y="140" font-size="128" fill="#999999">8</text></g>
		<g id="id1:id3:id3" transform="matrix(1.0,0,0,1.0,3072,0.0)">			<g stroke="lightgray" stroke-width="4" transform="scale(4, 4)"> <rect x="0" y="0" width="256" height="256" fill="white" stroke-width="4"/></g>
			<g transform="scale(0.92, -0.92) translate(60, -920)">					<path d="M 510 803 Q 538 785 568 763 Q 584 753 599 756 Q 609 757 613 772 Q 614 788 601 816 Q 594 832 562 842 Q 487 857 475 847 Q 471 843 475 830 Q 479 820 510 803 Z" fill="black"></path>
				<path d="M 334 657 Q 370 644 432 651 Q 565 669 706 689 Q 775 699 785 709 Q 794 716 790 724 Q 784 737 756 745 Q 728 754 634 727 Q 463 691 332 687 Q 326 687 322 684 C 293 678 305 665 334 657 Z" fill="black"></path>
				<path d="M 247 375 Q 214 210 102 22 Q 98 16 95 10 Q 94 0 104 2 Q 132 8 206 122 Q 224 155 242 194 Q 308 350 318 542 Q 324 639 334 657 C 339 672 339 672 322 684 Q 307 697 284 707 Q 265 717 252 712 Q 240 705 247 691 Q 266 664 267 595 Q 266 582 266 567 Q 263 486 253 413 L 247 375 Z" fill="black"></path>
				<path d="M 127 549 Q 181 480 205 477 Q 218 476 225 494 Q 226 507 218 528 Q 208 544 185 554 Q 148 573 133 576 Q 123 577 122 566 Q 121 557 127 549 Z" fill="black"></path>
				<path d="M 253 413 Q 88 305 48 296 Q 36 292 38 282 Q 39 269 50 264 Q 75 255 110 247 Q 120 247 129 258 Q 150 291 247 375 C 270 395 278 429 253 413 Z" fill="black"></path>
				<path d="M 391 376 Q 445 352 494 320 Q 504 311 513 320 Q 522 327 526 344 Q 536 386 484 442 Q 454 475 521 542 Q 527 549 533 552 Q 549 562 541 574 Q 529 590 496 605 Q 477 611 440 579 Q 407 564 382 558 C 353 550 374 524 403 533 Q 404 534 407 535 Q 429 539 453 550 Q 462 556 468 550 Q 472 546 466 534 Q 439 462 443 451 Q 444 447 448 442 Q 484 394 475 384 Q 468 375 447 379 Q 420 386 392 386 C 367 387 367 387 391 376 Z" fill="black"></path>
				<path d="M 382 558 Q 366 571 345 577 Q 338 578 331 571 Q 327 567 334 556 Q 385 430 340 165 Q 333 128 319 89 Q 304 40 334 4 Q 344 -9 353 4 Q 386 38 386 178 Q 386 271 391 376 L 392 386 Q 395 494 403 526 Q 403 530 403 533 C 404 543 404 543 382 558 Z" fill="black"></path>
				<path d="M 635 563 Q 657 596 673 606 Q 679 613 676 621 Q 675 628 658 644 Q 642 657 630 657 Q 618 657 623 643 Q 629 625 589 557 Q 568 527 541 495 Q 534 489 533 485 Q 530 478 539 480 Q 555 483 621 547 L 635 563 Z" fill="black"></path>
				<path d="M 685 455 Q 752 531 781 550 Q 796 559 786 569 Q 774 579 743 596 Q 739 597 635 563 C 606 554 604 553 621 547 Q 636 538 694 552 Q 700 553 702 552 Q 705 549 701 542 Q 679 487 665 459 Q 661 452 659 447 C 646 420 665 433 685 455 Z" fill="red"></path>
				<path d="M 767 286 Q 791 380 826 407 Q 841 423 828 439 Q 764 490 707 462 Q 695 459 685 455 L 659 447 Q 614 438 569 433 Q 556 432 556 423 Q 559 416 574 411 Q 596 401 626 411 Q 737 430 743 425 Q 752 416 750 397 Q 740 340 725 294 C 716 265 759 257 767 286 Z" fill="lightgray"></path>
				<path d="M 554 338 Q 541 335 557 323 Q 561 320 696 336 Q 715 339 709 350 Q 700 362 679 366 Q 664 369 554 338 Z" fill="lightgray"></path>
				<path d="M 725 294 Q 721 295 716 293 Q 625 271 550 261 Q 531 260 542 243 Q 557 228 580 232 Q 641 245 776 256 Q 786 257 787 265 Q 787 272 767 286 L 725 294 Z" fill="lightgray"></path>
				<path d="M 475 164 Q 456 119 429 78 Q 411 53 426 23 Q 433 8 450 18 Q 492 48 496 116 Q 500 143 495 164 Q 491 171 486 172 Q 479 171 475 164 Z" fill="lightgray"></path>
				<path d="M 540 141 Q 555 62 618 22 Q 708 -32 862 -7 Q 880 -1 898 5 Q 917 14 919 26 Q 922 36 886 56 Q 831 96 789 141 Q 776 156 773 148 Q 770 145 797 72 Q 804 41 760 37 Q 757 37 756 37 Q 648 36 607 76 Q 588 94 579 125 Q 572 147 561 151 Q 549 158 542 154 Q 538 153 540 141 Z" fill="lightgray"></path>
				<path d="M 632 184 Q 680 127 703 129 Q 715 128 720 144 Q 721 156 712 173 Q 702 186 681 193 Q 648 206 635 208 Q 626 209 626 199 Q 625 192 632 184 Z" fill="lightgray"></path>
				<path d="M 810 209 Q 853 181 905 140 Q 920 127 933 125 Q 940 125 944 134 Q 953 147 936 179 Q 924 209 865 223 Q 828 230 807 233 Q 798 236 799 226 Q 800 216 810 209 Z" fill="lightgray"></path>
</g>
		<text x="40" y="140" font-size="128" fill="#999999">9</text></g>
		<g id="id1:id4:id4" transform="matrix(1.0,0,0,1.0,4096,0.0)">			<g stroke="lightgray" stroke-width="4" transform="scale(4, 4)"> <rect x="0" y="0" width="256" height="256" fill="white" stroke-width="4"/></g>
			<g transform="scale(0.92, -0.92) translate(60, -920)">					<path d="M 510 803 Q 538 785 568 763 Q 584 753 599 756 Q 609 757 613 772 Q 614 788 601 816 Q 594 832 562 842 Q 487 857 475 847 Q 471 843 475 830 Q 479 820 510 803 Z" fill="black"></path>
				<path d="M 334 657 Q 370 644 432 651 Q 565 669 706 689 Q 775 699 785 709 Q 794 716 790 724 Q 784 737 756 745 Q 728 754 634 727 Q 463 691 332 687 Q 326 687 322 684 C 293 678 305 665 334 657 Z" fill="black"></path>
				<path d="M 247 375 Q 214 210 102 22 Q 98 16 95 10 Q 94 0 104 2 Q 132 8 206 122 Q 224 155 242 194 Q 308 350 318 542 Q 324 639 334 657 C 339 672 339 672 322 684 Q 307 697 284 707 Q 265 717 252 712 Q 240 705 247 691 Q 266 664 267 595 Q 266 582 266 567 Q 263 486 253 413 L 247 375 Z" fill="black"></path>
				<path d="M 127 549 Q 181 480 205 477 Q 218 476 225 494 Q 226 507 218 528 Q 208 544 185 554 Q 148 573 133 576 Q 123 577 122 566 Q 121 557 127 549 Z" fill="black"></path>
				<path d="M 253 413 Q 88 305 48 296 Q 36 292 38 282 Q 39 269 50 264 Q 75 255 110 247 Q 120 247 129 258 Q 150 291 247 375 C 270 395 278 429 253 413 Z" fill="black"></path>
				<path d="M 391 376 Q 445 352 494 320 Q 504 311 513 320 Q 522 327 526 344 Q 536 386 484 442 Q 454 475 521 542 Q 527 549 533 552 Q 549 562 541 574 Q 529 590 496 605 Q 477 611 440 579 Q 407 564 382 558 C 353 550 374 524 403 533 Q 404 534 407 535 Q 429 539 453 550 Q 462 556 468 550 Q 472 546 466 534 Q 439 462 443 451 Q 444 447 448 442 Q 484 394 475 384 Q 468 375 447 379 Q 420 386 392 386 C 367 387 367 387 391 376 Z" fill="black"></path>
				<path d="M 382 558 Q 366 571 345 577 Q 338 578 331 571 Q 327 567 334 556 Q 385 430 340 165 Q 333 128 319 89 Q 304 40 334 4 Q 344 -9 353 4 Q 386 38 386 178 Q 386 271 391 376 L 392 386 Q 395 494 403 526 Q 403 530 403 533 C 404 543 404 543 382 558 Z" fill="black"></path>
				<path d="M 635 563 Q 657 596 673 606 Q 679 613 676 621 Q 675 628 658 644 Q 642 657 630 657 Q 618 657 623 643 Q 629 625 589 557 Q 568 527 541 495 Q 534 489 533 485 Q 530 478 539 480 Q 555 483 621 547 L 635 563 Z" fill="black"></path>
				<path d="M 685 455 Q 752 531 781 550 Q 796 559 786 569 Q 774 579 743 596 Q 739 597 635 563 C 606 554 604 553 621 547 Q 636 538 694 552 Q 700 553 702 552 Q 705 549 701 542 Q 679 487 665 459 Q 661 452 659 447 C 646 420 665 433 685 455 Z" fill="black"></path>
				<path d="M 767 286 Q 791 380 826 407 Q 841 423 828 439 Q 764 490 707 462 Q 695 459 685 455 L 659 447 Q 614 438 569 433 Q 556 432 556 423 Q 559 416 574 411 Q 596 401 626 411 Q 737 430 743 425 Q 752 416 750 397 Q 740 340 725 294 C 716 265 759 257 767 286 Z" fill="red"></path>
				<path d="M 554 338 Q 541 335 557 323 Q 561 320 696 336 Q 715 339 709 350 Q 700 362 679 366 Q 664 369 554 338 Z" fill="lightgray"></path>
				<path d="M 725 294 Q 721 295 716 293 Q 625 271 550 261 Q 531 260 542 243 Q 557 228 580 232 Q 641 245 776 256 Q 786 257 787 265 Q 787 272 767 286 L 725 294 Z" fill="lightgray"></path>
				<path d="M 475 164 Q 456 119 429 78 Q 411 53 426 23 Q 433 8 450 18 Q 492 48 496 116 Q 500 143 495 164 Q 491 171 486 172 Q 479 171 475 164 Z" fill="lightgray"></path>
				<path d="M 540 141 Q 555 62 618 22 Q 708 -32 862 -7 Q 880 -1 898 5 Q 917 14 919 26 Q 922 36 886 56 Q 831 96 789 141 Q 776 156 773 148 Q 770 145 797 72 Q 804 41 760 37 Q 757 37 756 37 Q 648 36 607 76 Q 588 94 579 125 Q 572 147 561 151 Q 549 158 542 154 Q 538 153 540 141 Z" fill="lightgray"></path>
				<path d="M 632 184 Q 680 127 703 129 Q 715 128 720 144 Q 721 156 712 173 Q 702 186 681 193 Q 648 206 635 208 Q 626 209 626 199 Q 625 192 632 184 Z" fill="lightgray"></path>
				<path d="M 810 209 Q 853 181 905 140 Q 920 127 933 125 Q 940 125 944 134 Q 953 147 936 179 Q 924 209 865 223 Q 828 230 807 233 Q 798 236 799 226 Q 800 216 810 209 Z" fill="lightgray"></path>
</g>
		<text x="40" y="140" font-size="128" fill="#999999">10</text></g>
</g>
	<g id="id2:id2" transform="translate(0.0,2048)">
		<g id="id2:id0:id0" transform="matrix(1.0,0,0,1.0,0,0.0)">			<g stroke="lightgray" stroke-width="4" transform="scale(4, 4)"> <rect x="0" y="0" width="256" height="256" fill="white" stroke-width="4"/></g>
			<g transform="scale(0.92, -0.92) translate(60, -920)">					<path d="M 510 803 Q 538 785 568 763 Q 584 753 599 756 Q 609 757 613 772 Q 614 788 601 816 Q 594 832 562 842 Q 487 857 475 847 Q 471 843 475 830 Q 479 820 510 803 Z" fill="black"></path>
				<path d="M 334 657 Q 370 644 432 651 Q 565 669 706 689 Q 775 699 785 709 Q 794 716 790 724 Q 784 737 756 745 Q 728 754 634 727 Q 463 691 332 687 Q 326 687 322 684 C 293 678 305 665 334 657 Z" fill="black"></path>
				<path d="M 247 375 Q 214 210 102 22 Q 98 16 95 10 Q 94 0 104 2 Q 132 8 206 122 Q 224 155 242 194 Q 308 350 318 542 Q 324 639 334 657 C 339 672 339 672 322 684 Q 307 697 284 707 Q 265 717 252 712 Q 240 705 247 691 Q 266 664 267 595 Q 266 582 266 567 Q 263 486 253 413 L 247 375 Z" fill="black"></path>
				<path d="M 127 549 Q 181 480 205 477 Q 218 476 225 494 Q 226 507 218 528 Q 208 544 185 554 Q 148 573 133 576 Q 123 577 122 566 Q 121 557 127 549 Z" fill="black"></path>
				<path d="M 253 413 Q 88 305 48 296 Q 36 292 38 282 Q 39 269 50 264 Q 75 255 110 247 Q 120 247 129 258 Q 150 291 247 375 C 270 395 278 429 253 413 Z" fill="black"></path>
				<path d="M 391 376 Q 445 352 494 320 Q 504 311 513 320 Q 522 327 526 344 Q 536 386 484 442 Q 454 475 521 542 Q 527 549 533 552 Q 549 562 541 574 Q 529 590 496 605 Q 477 611 440 579 Q 407 564 382 558 C 353 550 374 524 403 533 Q 404 534 407 535 Q 429 539 453 550 Q 462 556 468 550 Q 472 546 466 534 Q 439 462 443 451 Q 444 447 448 442 Q 484 394 475 384 Q 468 375 447 379 Q 420 386 392 386 C 367 387 367 387 391 376 Z" fill="black"></path>
				<path d="M 382 558 Q 366 571 345 577 Q 338 578 331 571 Q 327 567 334 556 Q 385 430 340 165 Q 333 128 319 89 Q 304 40 334 4 Q 344 -9 353 4 Q 386 38 386 178 Q 386 271 391 376 L 392 386 Q 395 494 403 526 Q 403 530 403 533 C 404 543 404 543 382 558 Z" fill="black"></path>
				<path d="M 635 563 Q 657 596 673 606 Q 679 613 676 621 Q 675 628 658 644 Q 642 657 630 657 Q 618 657 623 643 Q 629 625 589 557 Q 568 527 541 495 Q 534 489 533 485 Q 530 478 539 480 Q 555 483 621 547 L 635 563 Z" fill="black"></path>
				<path d="M 685 455 Q 752 531 781 550 Q 796 559 786 569 Q 774 579 743 596 Q 739 597 635 563 C 606 554 604 553 621 547 Q 636 538 694 552 Q 700 553 702 552 Q 705 549 701 542 Q 679 487 665 459 Q 661 452 659 447 C 646 420 665 433 685 455 Z" fill="black"></path>
				<path d="M 767 286 Q 791 380 826 407 Q 841 423 828 439 Q 764 490 707 462 Q 695 459 685 455 L 659 447 Q 614 438 569 433 Q 556 432 556 423 Q 559 416 574 411 Q 596 401 626 411 Q 737 430 743 425 Q 752 416 750 397 Q 740 340 725 294 C 716 265 759 257 767 286 Z" fill="black"></path>
				<path d="M 554 338 Q 541 335 557 323 Q 561 320 696 336 Q 715 339 709 350 Q 700 362 679 366 Q 664 369 554 338 Z" fill="red"></path>
				<path d="M 725 294 Q 721 295 716 293 Q 625 271 550 261 Q 531 260 542 243 Q 557 228 580 232 Q 641 245 776 256 Q 786 257 787 265 Q 787 272 767 286 L 725 294 Z" fill="lightgray"></path>
				<path d="M 475 164 Q 456 119 429 78 Q 411 53 426 23 Q 433 8 450 18 Q 492 48 496 116 Q 500 143 495 164 Q 491 171 486 172 Q 479 171 475 164 Z" fill="lightgray"></path>
				<path d="M 540 141 Q 555 62 618 22 Q 708 -32 862 -7 Q 880 -1 898 5 Q 917 14 919 26 Q 922 36 886 56 Q 831 96 789 141 Q 776 156 773 148 Q 770 145 797 72 Q 804 41 760 37 Q 757 37 756 37 Q 648 36 607 76 Q 588 94 579 125 Q 572 147 561 151 Q 549 158 542 154 Q 538 153 540 141 Z" fill="lightgray"></path>
				<path d="M 632 184 Q 680 127 703 129 Q 715 128 720 144 Q 721 156 712 173 Q 702 186 681 193 Q 648 206 635 208 Q 626 209 626 199 Q 625 192 632 184 Z" fill="lightgray"></path>
				<path d="M 810 209 Q 853 181 905 140 Q 920 127 933 125 Q 940 125 944 134 Q 953 147 936 179 Q 924 209 865 223 Q 828 230 807 233 Q 798 236 799 226 Q 800 216 810 209 Z" fill="lightgray"></path>
</g>
		<text x="40" y="140" font-size="128" fill="#999999">11</text></g>
		<g id="id2:id1:id1" transform="matrix(1.0,0,0,1.0,1024,0.0)">			<g stroke="lightgray" stroke-width="4" transform="scale(4, 4)"> <rect x="0" y="0" width="256" height="256" fill="white" stroke-width="4"/></g>
			<g transform="scale(0.92, -0.92) translate(60, -920)">					<path d="M 510 803 Q 538 785 568 763 Q 584 753 599 756 Q 609 757 613 772 Q 614 788 601 816 Q 594 832 562 842 Q 487 857 475 847 Q 471 843 475 830 Q 479 820 510 803 Z" fill="black"></path>
				<path d="M 334 657 Q 370 644 432 651 Q 565 669 706 689 Q 775 699 785 709 Q 794 716 790 724 Q 784 737 756 745 Q 728 754 634 727 Q 463 691 332 687 Q 326 687 322 684 C 293 678 305 665 334 657 Z" fill="black"></path>
				<path d="M 247 375 Q 214 210 102 22 Q 98 16 95 10 Q 94 0 104 2 Q 132 8 206 122 Q 224 155 242 194 Q 308 350 318 542 Q 324 639 334 657 C 339 672 339 672 322 684 Q 307 697 284 707 Q 265 717 252 712 Q 240 705 247 691 Q 266 664 267 595 Q 266 582 266 567 Q 263 486 253 413 L 247 375 Z" fill="black"></path>
				<path d="M 127 549 Q 181 480 205 477 Q 218 476 225 494 Q 226 507 218 528 Q 208 544 185 554 Q 148 573 133 576 Q 123 577 122 566 Q 121 557 127 549 Z" fill="black"></path>
				<path d="M 253 413 Q 88 305 48 296 Q 36 292 38 282 Q 39 269 50 264 Q 75 255 110 247 Q 120 247 129 258 Q 150 291 247 375 C 270 395 278 429 253 413 Z" fill="black"></path>
				<path d="M 391 376 Q 445 352 494 320 Q 504 311 513 320 Q 522 327 526 344 Q 536 386 484 442 Q 454 475 521 542 Q 527 549 533 552 Q 549 562 541 574 Q 529 590 496 605 Q 477 611 440 579 Q 407 564 382 558 C 353 550 374 524 403 533 Q 404 534 407 535 Q 429 539 453 550 Q 462 556 468 550 Q 472 546 466 534 Q 439 462 443 451 Q 444 447 448 442 Q 484 394 475 384 Q 468 375 447 379 Q 420 386 392 386 C 367 387 367 387 391 376 Z" fill="black"></path>
				<path d="M 382 558 Q 366 571 345 577 Q 338 578 331 571 Q 327 567 334 556 Q 385 430 340 165 Q 333 128 319 89 Q 304 40 334 4 Q 344 -9 353 4 Q 386 38 386 178 Q 386 271 391 376 L 392 386 Q 395 494 403 526 Q 403 530 403 533 C 404 543 404 543 382 558 Z" fill="black"></path>
				<path d="M 635 563 Q 657 596 673 606 Q 679 613 676 621 Q 675 628 658 644 Q 642 657 630 657 Q 618 657 623 643 Q 629 625 589 557 Q 568 527 541 495 Q 534 489 533 485 Q 530 478 539 480 Q 555 483 621 547 L 635 563 Z" fill="black"></path>
				<path d="M 685 455 Q 752 531 781 550 Q 796 559 786 569 Q 774 579 743 596 Q 739 597 635 563 C 606 554 604 553 621 547 Q 636 538 694 552 Q 700 553 702 552 Q 705 549 701 542 Q 679 487 665 459 Q 661 452 659 447 C 646 420 665 433 685 455 Z" fill="black"></path>
				<path d="M 767 286 Q 791 380 826 407 Q 841 423 828 439 Q 764 490 707 462 Q 695 459 685 455 L 659 447 Q 614 438 569 433 Q 556 432 556 423 Q 559 416 574 411 Q 596 401 626 411 Q 737 430 743 425 Q 752 416 750 397 Q 740 340 725 294 C 716 265 759 257 767 286 Z" fill="black"></path>
				<path d="M 554 338 Q 541 335 557 323 Q 561 320 696 336 Q 715 339 709 350 Q 700 362 679 366 Q 664 369 554 338 Z" fill="black"></path>
				<path d="M 725 294 Q 721 295 716 293 Q 625 271 550 261 Q 531 260 542 243 Q 557 228 580 232 Q 641 245 776 256 Q 786 257 787 265 Q 787 272 767 286 L 725 294 Z" fill="red"></path>
				<path d="M 475 164 Q 456 119 429 78 Q 411 53 426 23 Q 433 8 450 18 Q 492 48 496 116 Q 500 143 495 164 Q 491 171 486 172 Q 479 171 475 164 Z" fill="lightgray"></path>
				<path d="M 540 141 Q 555 62 618 22 Q 708 -32 862 -7 Q 880 -1 898 5 Q 917 14 919 26 Q 922 36 886 56 Q 831 96 789 141 Q 776 156 773 148 Q 770 145 797 72 Q 804 41 760 37 Q 757 37 756 37 Q 648 36 607 76 Q 588 94 579 125 Q 572 147 561 151 Q 549 158 542 154 Q 538 153 540 141 Z" fill="lightgray"></path>
				<path d="M 632 184 Q 680 127 703 129 Q 715 128 720 144 Q 721 156 712 173 Q 702 186 681 193 Q 648 206 635 208 Q 626 209 626 199 Q 625 192 632 184 Z" fill="lightgray"></path>
				<path d="M 810 209 Q 853 181 905 140 Q 920 127 933 125 Q 940 125 944 134 Q 953 147 936 179 Q 924 209 865 223 Q 828 230 807 233 Q 798 236 799 226 Q 800 216 810 209 Z" fill="lightgray"></path>
</g>
		<text x="40" y="140" font-size="128" fill="#999999">12</text></g>
		<g id="id2:id2:id2" transform="matrix(1.0,0,0,1.0,2048,0.0)">			<g stroke="lightgray" stroke-width="4" transform="scale(4, 4)"> <rect x="0" y="0" width="256" height="256" fill="white" stroke-width="4"/></g>
			<g transform="scale(0.92, -0.92) translate(60, -920)">					<path d="M 510 803 Q 538 785 568 763 Q 584 753 599 756 Q 609 757 613 772 Q 614 788 601 816 Q 594 832 562 842 Q 487 857 475 847 Q 471 843 475 830 Q 479 820 510 803 Z" fill="black"></path>
				<path d="M 334 657 Q 370 644 432 651 Q 565 669 706 689 Q 775 699 785 709 Q 794 716 790 724 Q 784 737 756 745 Q 728 754 634 727 Q 463 691 332 687 Q 326 687 322 684 C 293 678 305 665 334 657 Z" fill="black"></path>
				<path d="M 247 375 Q 214 210 102 22 Q 98 16 95 10 Q 94 0 104 2 Q 132 8 206 122 Q 224 155 242 194 Q 308 350 318 542 Q 324 639 334 657 C 339 672 339 672 322 684 Q 307 697 284 707 Q 265 717 252 712 Q 240 705 247 691 Q 266 664 267 595 Q 266 582 266 567 Q 263 486 253 413 L 247 375 Z" fill="black"></path>
				<path d="M 127 549 Q 181 480 205 477 Q 218 476 225 494 Q 226 507 218 528 Q 208 544 185 554 Q 148 573 133 576 Q 123 577 122 566 Q 121 557 127 549 Z" fill="black"></path>
				<path d="M 253 413 Q 88 305 48 296 Q 36 292 38 282 Q 39 269 50 264 Q 75 255 110 247 Q 120 247 129 258 Q 150 291 247 375 C 270 395 278 429 253 413 Z" fill="black"></path>
				<path d="M 391 376 Q 445 352 494 320 Q 504 311 513 320 Q 522 327 526 344 Q 536 386 484 442 Q 454 475 521 542 Q 527 549 533 552 Q 549 562 541 574 Q 529 590 496 605 Q 477 611 440 579 Q 407 564 382 558 C 353 550 374 524 403 533 Q 404 534 407 535 Q 429 539 453 550 Q 462 556 468 550 Q 472 546 466 534 Q 439 462 443 451 Q 444 447 448 442 Q 484 394 475 384 Q 468 375 447 379 Q 420 386 392 386 C 367 387 367 387 391 376 Z" fill="black"></path>
				<path d="M 382 558 Q 366 571 345 577 Q 338 578 331 571 Q 327 567 334 556 Q 385 430 340 165 Q 333 128 319 89 Q 304 40 334 4 Q 344 -9 353 4 Q 386 38 386 178 Q 386 271 391 376 L 392 386 Q 395 494 403 526 Q 403 530 403 533 C 404 543 404 543 382 558 Z" fill="black"></path>
				<path d="M 635 563 Q 657 596 673 606 Q 679 613 676 621 Q 675 628 658 644 Q 642 657 630 657 Q 618 657 623 643 Q 629 625 589 557 Q 568 527 541 495 Q 534 489 533 485 Q 530 478 539 480 Q 555 483 621 547 L 635 563 Z" fill="black"></path>
				<path d="M 685 455 Q 752 531 781 550 Q 796 559 786 569 Q 774 579 743 596 Q 739 597 635 563 C 606 554 604 553 621 547 Q 636 538 694 552 Q 700 553 702 552 Q 705 549 701 542 Q 679 487 665 459 Q 661 452 659 447 C 646 420 665 433 685 455 Z" fill="black"></path>
				<path d="M 767 286 Q 791 380 826 407 Q 841 423 828 439 Q 764 490 707 462 Q 695 459 685 455 L 659 447 Q 614 438 569 433 Q 556 432 556 423 Q 559 416 574 411 Q 596 401 626 411 Q 737 430 743 425 Q 752 416 750 397 Q 740 340 725 294 C 716 265 759 257 767 286 Z" fill="black"></path>
				<path d="M 554 338 Q 541 335 557 323 Q 561 320 696 336 Q 715 339 709 350 Q 700 362 679 366 Q 664 369 554 338 Z" fill="black"></path>
				<path d="M 725 294 Q 721 295 716 293 Q 625 271 550 261 Q 531 260 542 243 Q 557 228 580 232 Q 641 245 776 256 Q 786 257 787 265 Q 787 272 767 286 L 725 294 Z" fill="black"></path>
				<path d="M 475 164 Q 456 119 429 78 Q 411 53 426 23 Q 433 8 450 18 Q 492 48 496 116 Q 500 143 495 164 Q 491 171 486 172 Q 479 171 475 164 Z" fill="red"></path>
				<path d="M 540 141 Q 555 62 618 22 Q 708 -32 862 -7 Q 880 -1 898 5 Q 917 14 919 26 Q 922 36 886 56 Q 831 96 789 141 Q 776 156 773 148 Q 770 145 797 72 Q 804 41 760 37 Q 757 37 756 37 Q 648 36 607 76 Q 588 94 579 125 Q 572 147 561 151 Q 549 158 542 154 Q 538 153 540 141 Z" fill="lightgray"></path>
				<path d="M 632 184 Q 680 127 703 129 Q 715 128 720 144 Q 721 156 712 173 Q 702 186 681 193 Q 648 206 635 208 Q 626 209 626 199 Q 625 192 632 184 Z" fill="lightgray"></path>
				<path d="M 810 209 Q 853 181 905 140 Q 920 127 933 125 Q 940 125 944 134 Q 953 147 936 179 Q 924 209 865 223 Q 828 230 807 233 Q 798 236 799 226 Q 800 216 810 209 Z" fill="lightgray"></path>
</g>
		<text x="40" y="140" font-size="128" fill="#999999">13</text></g>
		<g id="id2:id3:id3" transform="matrix(1.0,0,0,1.0,3072,0.0)">			<g stroke="lightgray" stroke-width="4" transform="scale(4, 4)"> <rect x="0" y="0" width="256" height="256" fill="white" stroke-width="4"/></g>
			<g transform="scale(0.92, -0.92) translate(60, -920)">					<path d="M 510 803 Q 538 785 568 763 Q 584 753 599 756 Q 609 757 613 772 Q 614 788 601 816 Q 594 832 562 842 Q 487 857 475 847 Q 471 843 475 830 Q 479 820 510 803 Z" fill="black"></path>
				<path d="M 334 657 Q 370 644 432 651 Q 565 669 706 689 Q 775 699 785 709 Q 794 716 790 724 Q 784 737 756 745 Q 728 754 634 727 Q 463 691 332 687 Q 326 687 322 684 C 293 678 305 665 334 657 Z" fill="black"></path>
				<path d="M 247 375 Q 214 210 102 22 Q 98 16 95 10 Q 94 0 104 2 Q 132 8 206 122 Q 224 155 242 194 Q 308 350 318 542 Q 324 639 334 657 C 339 672 339 672 322 684 Q 307 697 284 707 Q 265 717 252 712 Q 240 705 247 691 Q 266 664 267 595 Q 266 582 266 567 Q 263 486 253 413 L 247 375 Z" fill="black"></path>
				<path d="M 127 549 Q 181 480 205 477 Q 218 476 225 494 Q 226 507 218 528 Q 208 544 185 554 Q 148 573 133 576 Q 123 577 122 566 Q 121 557 127 549 Z" fill="black"></path>
				<path d="M 253 413 Q 88 305 48 296 Q 36 292 38 282 Q 39 269 50 264 Q 75 255 110 247 Q 120 247 129 258 Q 150 291 247 375 C 270 395 278 429 253 413 Z" fill="black"></path>
				<path d="M 391 376 Q 445 352 494 320 Q 504 311 513 320 Q 522 327 526 344 Q 536 386 484 442 Q 454 475 521 542 Q 527 549 533 552 Q 549 562 541 574 Q 529 590 496 605 Q 477 611 440 579 Q 407 564 382 558 C 353 550 374 524 403 533 Q 404 534 407 535 Q 429 539 453 550 Q 462 556 468 550 Q 472 546 466 534 Q 439 462 443 451 Q 444 447 448 442 Q 484 394 475 384 Q 468 375 447 379 Q 420 386 392 386 C 367 387 367 387 391 376 Z" fill="black"></path>
				<path d="M 382 558 Q 366 571 345 577 Q 338 578 331 571 Q 327 567 334 556 Q 385 430 340 165 Q 333 128 319 89 Q 304 40 334 4 Q 344 -9 353 4 Q 386 38 386 178 Q 386 271 391 376 L 392 386 Q 395 494 403 526 Q 403 530 403 533 C 404 543 404 543 382 558 Z" fill="black"></path>
				<path d="M 635 563 Q 657 596 673 606 Q 679 613 676 621 Q 675 628 658 644 Q 642 657 630 657 Q 618 657 623 643 Q 629 625 589 557 Q 568 527 541 495 Q 534 489 533 485 Q 530 478 539 480 Q 555 483 621 547 L 635 563 Z" fill="black"></path>
				<path d="M 685 455 Q 752 531 781 550 Q 796 559 786 569 Q 774 579 743 596 Q 739 597 635 563 C 606 554 604 553 621 547 Q 636 538 694 552 Q 700 553 702 552 Q 705 549 701 542 Q 679 487 665 459 Q 661 452 659 447 C 646 420 665 433 685 455 Z" fill="black"></path>
				<path d="M 767 286 Q 791 380 826 407 Q 841 423 828 439 Q 764 490 707 462 Q 695 459 685 455 L 659 447 Q 614 438 569 433 Q 556 432 556 423 Q 559 416 574 411 Q 596 401 626 411 Q 737 430 743 425 Q 752 416 750 397 Q 740 340 725 294 C 716 265 759 257 767 286 Z" fill="black"></path>
				<path d="M 554 338 Q 541 335 557 323 Q 561 320 696 336 Q 715 339 709 350 Q 700 362 679 366 Q 664 369 554 338 Z" fill="black"></path>
				<path d="M 725 294 Q 721 295 716 293 Q 625 271 550 261 Q 531 260 542 243 Q 557 228 580 232 Q 641 245 776 256 Q 786 257 787 265 Q 787 272 767 286 L 725 294 Z" fill="black"></path>
				<path d="M 475 164 Q 456 119 429 78 Q 411 53 426 23 Q 433 8 450 18 Q 492 48 496 116 Q 500 143 495 164 Q 491 171 486 172 Q 479 171 475 164 Z" fill="black"></path>
				<path d="M 540 141 Q 555 62 618 22 Q 708 -32 862 -7 Q 880 -1 898 5 Q 917 14 919 26 Q 922 36 886 56 Q 831 96 789 141 Q 776 156 773 148 Q 770 145 797 72 Q 804 41 760 37 Q 757 37 756 37 Q 648 36 607 76 Q 588 94 579 125 Q 572 147 561 151 Q 549 158 542 154 Q 538 153 540 141 Z" fill="red"></path>
				<path d="M 632 184 Q 680 127 703 129 Q 715 128 720 144 Q 721 156 712 173 Q 702 186 681 193 Q 648 206 635 208 Q 626 209 626 199 Q 625 192 632 184 Z" fill="lightgray"></path>
				<path d="M 810 209 Q 853 181 905 140 Q 920 127 933 125 Q 940 125 944 134 Q 953 147 936 179 Q 924 209 865 223 Q 828 230 807 233 Q 798 236 799 226 Q 800 216 810 209 Z" fill="lightgray"></path>
</g>
		<text x="40" y="140" font-size="128" fill="#999999">14</text></g>
		<g id="id2:id4:id4" transform="matrix(1.0,0,0,1.0,4096,0.0)">			<g stroke="lightgray" stroke-width="4" transform="scale(4, 4)"> <rect x="0" y="0" width="256" height="256" fill="white" stroke-width="4"/></g>
			<g transform="scale(0.92, -0.92) translate(60, -920)">					<path d="M 510 803 Q 538 785 568 763 Q 584 753 599 756 Q 609 757 613 772 Q 614 788 601 816 Q 594 832 562 842 Q 487 857 475 847 Q 471 843 475 830 Q 479 820 510 803 Z" fill="black"></path>
				<path d="M 334 657 Q 370 644 432 651 Q 565 669 706 689 Q 775 699 785 709 Q 794 716 790 724 Q 784 737 756 745 Q 728 754 634 727 Q 463 691 332 687 Q 326 687 322 684 C 293 678 305 665 334 657 Z" fill="black"></path>
				<path d="M 247 375 Q 214 210 102 22 Q 98 16 95 10 Q 94 0 104 2 Q 132 8 206 122 Q 224 155 242 194 Q 308 350 318 542 Q 324 639 334 657 C 339 672 339 672 322 684 Q 307 697 284 707 Q 265 717 252 712 Q 240 705 247 691 Q 266 664 267 595 Q 266 582 266 567 Q 263 486 253 413 L 247 375 Z" fill="black"></path>
				<path d="M 127 549 Q 181 480 205 477 Q 218 476 225 494 Q 226 507 218 528 Q 208 544 185 554 Q 148 573 133 576 Q 123 577 122 566 Q 121 557 127 549 Z" fill="black"></path>
				<path d="M 253 413 Q 88 305 48 296 Q 36 292 38 282 Q 39 269 50 264 Q 75 255 110 247 Q 120 247 129 258 Q 150 291 247 375 C 270 395 278 429 253 413 Z" fill="black"></path>
				<path d="M 391 376 Q 445 352 494 320 Q 504 311 513 320 Q 522 327 526 344 Q 536 386 484 442 Q 454 475 521 542 Q 527 549 533 552 Q 549 562 541 574 Q 529 590 496 605 Q 477 611 440 579 Q 407 564 382 558 C 353 550 374 524 403 533 Q 404 534 407 535 Q 429 539 453 550 Q 462 556 468 550 Q 472 546 466 534 Q 439 462 443 451 Q 444 447 448 442 Q 484 394 475 384 Q 468 375 447 379 Q 420 386 392 386 C 367 387 367 387 391 376 Z" fill="black"></path>
				<path d="M 382 558 Q 366 571 345 577 Q 338 578 331 571 Q 327 567 334 556 Q 385 430 340 165 Q 333 128 319 89 Q 304 40 334 4 Q 344 -9 353 4 Q 386 38 386 178 Q 386 271 391 376 L 392 386 Q 395 494 403 526 Q 403 530 403 533 C 404 543 404 543 382 558 Z" fill="black"></path>
				<path d="M 635 563 Q 657 596 673 606 Q 679 613 676 621 Q 675 628 658 644 Q 642 657 630 657 Q 618 657 623 643 Q 629 625 589 557 Q 568 527 541 495 Q 534 489 533 485 Q 530 478 539 480 Q 555 483 621 547 L 635 563 Z" fill="black"></path>
				<path d="M 685 455 Q 752 531 781 550 Q 796 559 786 569 Q 774 579 743 596 Q 739 597 635 563 C 606 554 604 553 621 547 Q 636 538 694 552 Q 700 553 702 552 Q 705 549 701 542 Q 679 487 665 459 Q 661 452 659 447 C 646 420 665 433 685 455 Z" fill="black"></path>
				<path d="M 767 286 Q 791 380 826 407 Q 841 423 828 439 Q 764 490 707 462 Q 695 459 685 455 L 659 447 Q 614 438 569 433 Q 556 432 556 423 Q 559 416 574 411 Q 596 401 626 411 Q 737 430 743 425 Q 752 416 750 397 Q 740 340 725 294 C 716 265 759 257 767 286 Z" fill="black"></path>
				<path d="M 554 338 Q 541 335 557 323 Q 561 320 696 336 Q 715 339 709 350 Q 700 362 679 366 Q 664 369 554 338 Z" fill="black"></path>
				<path d="M 725 294 Q 721 295 716 293 Q 625 271 550 261 Q 531 260 542 243 Q 557 228 580 232 Q 641 245 776 256 Q 786 257 787 265 Q 787 272 767 286 L 725 294 Z" fill="black"></path>
				<path d="M 475 164 Q 456 119 429 78 Q 411 53 426 23 Q 433 8 450 18 Q 492 48 496 116 Q 500 143 495 164 Q 491 171 486 172 Q 479 171 475 164 Z" fill="black"></path>
				<path d="M 540 141 Q 555 62 618 22 Q 708 -32 862 -7 Q 880 -1 898 5 Q 917 14 919 26 Q 922 36 886 56 Q 831 96 789 141 Q 776 156 773 148 Q 770 145 797 72 Q 804 41 760 37 Q 757 37 756 37 Q 648 36 607 76 Q 588 94 579 125 Q 572 147 561 151 Q 549 158 542 154 Q 538 153 540 141 Z" fill="black"></path>
				<path d="M 632 184 Q 680 127 703 129 Q 715 128 720 144 Q 721 156 712 173 Q 702 186 681 193 Q 648 206 635 208 Q 626 209 626 199 Q 625 192 632 184 Z" fill="red"></path>
				<path d="M 810 209 Q 853 181 905 140 Q 920 127 933 125 Q 940 125 944 134 Q 953 147 936 179 Q 924 209 865 223 Q 828 230 807 233 Q 798 236 799 226 Q 800 216 810 209 Z" fill="lightgray"></path>
</g>
		<text x="40" y="140" font-size="128" fill="#999999">15</text></g>
</g>
	<g id="id3:id3" transform="translate(0.0,3072)">
		<g id="id3:id0:id0" transform="matrix(1.0,0,0,1.0,0,0.0)">			<g stroke="lightgray" stroke-width="4" transform="scale(4, 4)"> <rect x="0" y="0" width="256" height="256" fill="white" stroke-width="4"/></g>
			<g transform="scale(0.92, -0.92) translate(60, -920)">					<path d="M 510 803 Q 538 785 568 763 Q 584 753 599 756 Q 609 757 613 772 Q 614 788 601 816 Q 594 832 562 842 Q 487 857 475 847 Q 471 843 475 830 Q 479 820 510 803 Z" fill="black"></path>
				<path d="M 334 657 Q 370 644 432 651 Q 565 669 706 689 Q 775 699 785 709 Q 794 716 790 724 Q 784 737 756 745 Q 728 754 634 727 Q 463 691 332 687 Q 326 687 322 684 C 293 678 305 665 334 657 Z" fill="black"></path>
				<path d="M 247 375 Q 214 210 102 22 Q 98 16 95 10 Q 94 0 104 2 Q 132 8 206 122 Q 224 155 242 194 Q 308 350 318 542 Q 324 639 334 657 C 339 672 339 672 322 684 Q 307 697 284 707 Q 265 717 252 712 Q 240 705 247 691 Q 266 664 267 595 Q 266 582 266 567 Q 263 486 253 413 L 247 375 Z" fill="black"></path>
				<path d="M 127 549 Q 181 480 205 477 Q 218 476 225 494 Q 226 507 218 528 Q 208 544 185 554 Q 148 573 133 576 Q 123 577 122 566 Q 121 557 127 549 Z" fill="black"></path>
				<path d="M 253 413 Q 88 305 48 296 Q 36 292 38 282 Q 39 269 50 264 Q 75 255 110 247 Q 120 247 129 258 Q 150 291 247 375 C 270 395 278 429 253 413 Z" fill="black"></path>
				<path d="M 391 376 Q 445 352 494 320 Q 504 311 513 320 Q 522 327 526 344 Q 536 386 484 442 Q 454 475 521 542 Q 527 549 533 552 Q 549 562 541 574 Q 529 590 496 605 Q 477 611 440 579 Q 407 564 382 558 C 353 550 374 524 403 533 Q 404 534 407 535 Q 429 539 453 550 Q 462 556 468 550 Q 472 546 466 534 Q 439 462 443 451 Q 444 447 448 442 Q 484 394 475 384 Q 468 375 447 379 Q 420 386 392 386 C 367 387 367 387 391 376 Z" fill="black"></path>
				<path d="M 382 558 Q 366 571 345 577 Q 338 578 331 571 Q 327 567 334 556 Q 385 430 340 165 Q 333 128 319 89 Q 304 40 334 4 Q 344 -9 353 4 Q 386 38 386 178 Q 386 271 391 376 L 392 386 Q 395 494 403 526 Q 403 530 403 533 C 404 543 404 543 382 558 Z" fill="black"></path>
				<path d="M 635 563 Q 657 596 673 606 Q 679 613 676 621 Q 675 628 658 644 Q 642 657 630 657 Q 618 657 623 643 Q 629 625 589 557 Q 568 527 541 495 Q 534 489 533 485 Q 530 478 539 480 Q 555 483 621 547 L 635 563 Z" fill="black"></path>
				<path d="M 685 455 Q 752 531 781 550 Q 796 559 786 569 Q 774 579 743 596 Q 739 597 635 563 C 606 554 604 553 621 547 Q 636 538 694 552 Q 700 553 702 552 Q 705 549 701 542 Q 679 487 665 459 Q 661 452 659 447 C 646 420 665 433 685 455 Z" fill="black"></path>
				<path d="M 767 286 Q 791 380 826 407 Q 841 423 828 439 Q 764 490 707 462 Q 695 459 685 455 L 659 447 Q 614 438 569 433 Q 556 432 556 423 Q 559 416 574 411 Q 596 401 626 411 Q 737 430 743 425 Q 752 416 750 397 Q 740 340 725 294 C 716 265 759 257 767 286 Z" fill="black"></path>
				<path d="M 554 338 Q 541 335 557 323 Q 561 320 696 336 Q 715 339 709 350 Q 700 362 679 366 Q 664 369 554 338 Z" fill="black"></path>
				<path d="M 725 294 Q 721 295 716 293 Q 625 271 550 261 Q 531 260 542 243 Q 557 228 580 232 Q 641 245 776 256 Q 786 257 787 265 Q 787 272 767 286 L 725 294 Z" fill="black"></path>
				<path d="M 475 164 Q 456 119 429 78 Q 411 53 426 23 Q 433 8 450 18 Q 492 48 496 116 Q 500 143 495 164 Q 491 171 486 172 Q 479 171 475 164 Z" fill="black"></path>
				<path d="M 540 141 Q 555 62 618 22 Q 708 -32 862 -7 Q 880 -1 898 5 Q 917 14 919 26 Q 922 36 886 56 Q 831 96 789 141 Q 776 156 773 148 Q 770 145 797 72 Q 804 41 760 37 Q 757 37 756 37 Q 648 36 607 76 Q 588 94 579 125 Q 572 147 561 151 Q 549 158 542 154 Q 538 153 540 141 Z" fill="black"></path>
				<path d="M 632 184 Q 680 127 703 129 Q 715 128 720 144 Q 721 156 712 173 Q 702 186 681 193 Q 648 206 635 208 Q 626 209 626 199 Q 625 192 632 184 Z" fill="black"></path>
				<path d="M 810 209 Q 853 181 905 140 Q 920 127 933 125 Q 940 125 944 134 Q 953 147 936 179 Q 924 209 865 223 Q 828 230 807 233 Q 798 236 799 226 Q 800 216 810 209 Z" fill="red"></path>
</g>
		<text x="40" y="140" font-size="128" fill="#999999">16</text></g>
		<g id="id3:id1:id1" transform="matrix(1.0,0,0,1.0,1024,0.0)">			<g stroke="white" stroke-width="4" transform="scale(4, 4)"> <rect x="1" y="1" width="255" height="255" fill="white" stroke-width="0"/></g>
</g>
		<g id="id3:id2:id2" transform="matrix(1.0,0,0,1.0,2048,0.0)">			<g stroke="white" stroke-width="4" transform="scale(4, 4)"> <rect x="1" y="1" width="255" height="255" fill="white" stroke-width="0"/></g>
</g>
		<g id="id3:id3:id3" transform="matrix(1.0,0,0,1.0,3072,0.0)">			<g stroke="white" stroke-width="4" transform="scale(4, 4)"> <rect x="1" y="1" width="255" height="255" fill="white" stroke-width="0"/></g>
</g>
		<g id="id3:id4:id4" transform="matrix(1.0,0,0,1.0,4096,0.0)">			<g stroke="white" stroke-width="4" transform="scale(4, 4)"> <rect x="1" y="1" width="255" height="255" fill="white" stroke-width="0"/></g>
</g>
</g>
</svg>
