<?xml version="1.0" standalone="no"?>
<!DOCTYPE svg PUBLIC "-//W3C//DTD SVG 1.1//EN"
 "http://www.w3.org/Graphics/SVG/1.1/DTD/svg11.dtd">
<!-- generate by Handict dictionary app com.asnsami.handict -->

<svg xmlns="http://www.w3.org/2000/svg" xmlns:sodipodi="http://sodipodi.sourceforge.net/DTD/sodipodi-0.dtd" version="1.1" width="640" height="128" viewBox="0 0 5120 1024">
	<g id="id0:id0" transform="translate(0.0,0)">
		<g id="id0:id0:id0" transform="matrix(1.0,0,0,1.0,0,0.0)">			<g stroke="lightgray" stroke-width="4" transform="scale(4, 4)"> <rect x="0" y="0" width="256" height="256" fill="white" stroke-width="4"/></g>
			<g transform="scale(0.92, -0.92) translate(60, -920)">					<path d="M 329 714 Q 320 723 298 731 Q 286 737 273 732 Q 266 726 272 712 Q 275 699 281 685 Q 309 624 291 287 Q 285 239 271 184 Q 256 121 295 70 Q 308 54 320 69 Q 335 87 334 115 L 338 152 Q 339 180 340 216 Q 341 280 342 336 L 342 369 Q 343 439 345 493 L 346 525 Q 349 646 351 660 Q 352 670 352 677 C 353 698 353 698 329 714 Z" fill="red"></path>
				<path d="M 597 135 Q 637 86 665 43 Q 675 22 688 23 Q 707 24 724 63 Q 743 108 739 161 Q 726 329 717 637 Q 716 674 735 699 Q 745 714 735 725 Q 713 747 653 775 Q 632 785 614 775 Q 494 727 329 714 C 299 711 322 673 352 677 Q 361 677 586 717 Q 620 723 636 710 Q 676 667 660 203 Q 657 181 656 163 Q 652 144 633 149 C 608 132 591 142 597 135 Z" fill="lightgray"></path>
				<path d="M 345 493 Q 369 486 539 511 Q 542 512 548 512 Q 581 518 586 522 Q 593 529 590 537 Q 584 549 558 556 Q 530 563 503 553 Q 466 543 426 535 Q 389 529 346 525 C 316 522 315 498 345 493 Z" fill="lightgray"></path>
				<path d="M 342 336 Q 382 329 540 348 Q 544 349 550 349 Q 584 353 589 358 Q 598 365 594 373 Q 588 385 562 393 Q 535 400 507 392 Q 470 382 428 376 Q 388 370 342 369 C 312 368 312 340 342 336 Z" fill="lightgray"></path>
				<path d="M 334 115 Q 376 130 597 135 C 627 136 641 136 633 149 Q 630 159 604 178 Q 588 188 554 183 Q 436 161 338 152 C 308 149 305 107 334 115 Z" fill="lightgray"></path>
</g>
		<text x="40" y="140" font-size="128" fill="#999999">1</text></g>
		<g id="id0:id1:id1" transform="matrix(1.0,0,0,1.0,1024,0.0)">			<g stroke="lightgray" stroke-width="4" transform="scale(4, 4)"> <rect x="0" y="0" width="256" height="256" fill="white" stroke-width="4"/></g>
			<g transform="scale(0.92, -0.92) translate(60, -920)">					<path d="M 329 714 Q 320 723 298 731 Q 286 737 273 732 Q 266 726 272 712 Q 275 699 281 685 Q 309 624 291 287 Q 285 239 271 184 Q 256 121 295 70 Q 308 54 320 69 Q 335 87 334 115 L 338 152 Q 339 180 340 216 Q 341 280 342 336 L 342 369 Q 343 439 345 493 L 346 525 Q 349 646 351 660 Q 352 670 352 677 C 353 698 353 698 329 714 Z" fill="black"></path>
				<path d="M 597 135 Q 637 86 665 43 Q 675 22 688 23 Q 707 24 724 63 Q 743 108 739 161 Q 726 329 717 637 Q 716 674 735 699 Q 745 714 735 725 Q 713 747 653 775 Q 632 785 614 775 Q 494 727 329 714 C 299 711 322 673 352 677 Q 361 677 586 717 Q 620 723 636 710 Q 676 667 660 203 Q 657 181 656 163 Q 652 144 633 149 C 608 132 591 142 597 135 Z" fill="red"></path>
				<path d="M 345 493 Q 369 486 539 511 Q 542 512 548 512 Q 581 518 586 522 Q 593 529 590 537 Q 584 549 558 556 Q 530 563 503 553 Q 466 543 426 535 Q 389 529 346 525 C 316 522 315 498 345 493 Z" fill="lightgray"></path>
				<path d="M 342 336 Q 382 329 540 348 Q 544 349 550 349 Q 584 353 589 358 Q 598 365 594 373 Q 588 385 562 393 Q 535 400 507 392 Q 470 382 428 376 Q 388 370 342 369 C 312 368 312 340 342 336 Z" fill="lightgray"></path>
				<path d="M 334 115 Q 376 130 597 135 C 627 136 641 136 633 149 Q 630 159 604 178 Q 588 188 554 183 Q 436 161 338 152 C 308 149 305 107 334 115 Z" fill="lightgray"></path>
</g>
		<text x="40" y="140" font-size="128" fill="#999999">2</text></g>
		<g id="id0:id2:id2" transform="matrix(1.0,0,0,1.0,2048,0.0)">			<g stroke="lightgray" stroke-width="4" transform="scale(4, 4)"> <rect x="0" y="0" width="256" height="256" fill="white" stroke-width="4"/></g>
			<g transform="scale(0.92, -0.92) translate(60, -920)">					<path d="M 329 714 Q 320 723 298 731 Q 286 737 273 732 Q 266 726 272 712 Q 275 699 281 685 Q 309 624 291 287 Q 285 239 271 184 Q 256 121 295 70 Q 308 54 320 69 Q 335 87 334 115 L 338 152 Q 339 180 340 216 Q 341 280 342 336 L 342 369 Q 343 439 345 493 L 346 525 Q 349 646 351 660 Q 352 670 352 677 C 353 698 353 698 329 714 Z" fill="black"></path>
				<path d="M 597 135 Q 637 86 665 43 Q 675 22 688 23 Q 707 24 724 63 Q 743 108 739 161 Q 726 329 717 637 Q 716 674 735 699 Q 745 714 735 725 Q 713 747 653 775 Q 632 785 614 775 Q 494 727 329 714 C 299 711 322 673 352 677 Q 361 677 586 717 Q 620 723 636 710 Q 676 667 660 203 Q 657 181 656 163 Q 652 144 633 149 C 608 132 591 142 597 135 Z" fill="black"></path>
				<path d="M 345 493 Q 369 486 539 511 Q 542 512 548 512 Q 581 518 586 522 Q 593 529 590 537 Q 584 549 558 556 Q 530 563 503 553 Q 466 543 426 535 Q 389 529 346 525 C 316 522 315 498 345 493 Z" fill="red"></path>
				<path d="M 342 336 Q 382 329 540 348 Q 544 349 550 349 Q 584 353 589 358 Q 598 365 594 373 Q 588 385 562 393 Q 535 400 507 392 Q 470 382 428 376 Q 388 370 342 369 C 312 368 312 340 342 336 Z" fill="lightgray"></path>
				<path d="M 334 115 Q 376 130 597 135 C 627 136 641 136 633 149 Q 630 159 604 178 Q 588 188 554 183 Q 436 161 338 152 C 308 149 305 107 334 115 Z" fill="lightgray"></path>
</g>
		<text x="40" y="140" font-size="128" fill="#999999">3</text></g>
		<g id="id0:id3:id3" transform="matrix(1.0,0,0,1.0,3072,0.0)">			<g stroke="lightgray" stroke-width="4" transform="scale(4, 4)"> <rect x="0" y="0" width="256" height="256" fill="white" stroke-width="4"/></g>
			<g transform="scale(0.92, -0.92) translate(60, -920)">					<path d="M 329 714 Q 320 723 298 731 Q 286 737 273 732 Q 266 726 272 712 Q 275 699 281 685 Q 309 624 291 287 Q 285 239 271 184 Q 256 121 295 70 Q 308 54 320 69 Q 335 87 334 115 L 338 152 Q 339 180 340 216 Q 341 280 342 336 L 342 369 Q 343 439 345 493 L 346 525 Q 349 646 351 660 Q 352 670 352 677 C 353 698 353 698 329 714 Z" fill="black"></path>
				<path d="M 597 135 Q 637 86 665 43 Q 675 22 688 23 Q 707 24 724 63 Q 743 108 739 161 Q 726 329 717 637 Q 716 674 735 699 Q 745 714 735 725 Q 713 747 653 775 Q 632 785 614 775 Q 494 727 329 714 C 299 711 322 673 352 677 Q 361 677 586 717 Q 620 723 636 710 Q 676 667 660 203 Q 657 181 656 163 Q 652 144 633 149 C 608 132 591 142 597 135 Z" fill="black"></path>
				<path d="M 345 493 Q 369 486 539 511 Q 542 512 548 512 Q 581 518 586 522 Q 593 529 590 537 Q 584 549 558 556 Q 530 563 503 553 Q 466 543 426 535 Q 389 529 346 525 C 316 522 315 498 345 493 Z" fill="black"></path>
				<path d="M 342 336 Q 382 329 540 348 Q 544 349 550 349 Q 584 353 589 358 Q 598 365 594 373 Q 588 385 562 393 Q 535 400 507 392 Q 470 382 428 376 Q 388 370 342 369 C 312 368 312 340 342 336 Z" fill="red"></path>
				<path d="M 334 115 Q 376 130 597 135 C 627 136 641 136 633 149 Q 630 159 604 178 Q 588 188 554 183 Q 436 161 338 152 C 308 149 305 107 334 115 Z" fill="lightgray"></path>
</g>
		<text x="40" y="140" font-size="128" fill="#999999">4</text></g>
		<g id="id0:id4:id4" transform="matrix(1.0,0,0,1.0,4096,0.0)">			<g stroke="lightgray" stroke-width="4" transform="scale(4, 4)"> <rect x="0" y="0" width="256" height="256" fill="white" stroke-width="4"/></g>
			<g transform="scale(0.92, -0.92) translate(60, -920)">					<path d="M 329 714 Q 320 723 298 731 Q 286 737 273 732 Q 266 726 272 712 Q 275 699 281 685 Q 309 624 291 287 Q 285 239 271 184 Q 256 121 295 70 Q 308 54 320 69 Q 335 87 334 115 L 338 152 Q 339 180 340 216 Q 341 280 342 336 L 342 369 Q 343 439 345 493 L 346 525 Q 349 646 351 660 Q 352 670 352 677 C 353 698 353 698 329 714 Z" fill="black"></path>
				<path d="M 597 135 Q 637 86 665 43 Q 675 22 688 23 Q 707 24 724 63 Q 743 108 739 161 Q 726 329 717 637 Q 716 674 735 699 Q 745 714 735 725 Q 713 747 653 775 Q 632 785 614 775 Q 494 727 329 714 C 299 711 322 673 352 677 Q 361 677 586 717 Q 620 723 636 710 Q 676 667 660 203 Q 657 181 656 163 Q 652 144 633 149 C 608 132 591 142 597 135 Z" fill="black"></path>
				<path d="M 345 493 Q 369 486 539 511 Q 542 512 548 512 Q 581 518 586 522 Q 593 529 590 537 Q 584 549 558 556 Q 530 563 503 553 Q 466 543 426 535 Q 389 529 346 525 C 316 522 315 498 345 493 Z" fill="black"></path>
				<path d="M 342 336 Q 382 329 540 348 Q 544 349 550 349 Q 584 353 589 358 Q 598 365 594 373 Q 588 385 562 393 Q 535 400 507 392 Q 470 382 428 376 Q 388 370 342 369 C 312 368 312 340 342 336 Z" fill="black"></path>
				<path d="M 334 115 Q 376 130 597 135 C 627 136 641 136 633 149 Q 630 159 604 178 Q 588 188 554 183 Q 436 161 338 152 C 308 149 305 107 334 115 Z" fill="red"></path>
</g>
		<text x="40" y="140" font-size="128" fill="#999999">5</text></g>
</g>
</svg>
