<?xml version="1.0" standalone="no"?>
<!DOCTYPE svg PUBLIC "-//W3C//DTD SVG 1.1//EN"
 "http://www.w3.org/Graphics/SVG/1.1/DTD/svg11.dtd">
<!-- generate by Japanese dictionary app com.asnsami.kanjidictionary -->

<svg xmlns="http://www.w3.org/2000/svg" xmlns:sodipodi="http://sodipodi.sourceforge.net/DTD/sodipodi-0.dtd" version="1.1" width="640" height="256" viewBox="0 0 5120 2048">
	<g id="id0:id0" transform="translate(0.0,0)">
		<g id="id0:id0:id0" transform="matrix(1.0,0,0,1.0,0,0.0)">			<g stroke="lightgray" stroke-width="4" transform="scale(4, 4)"> <rect x="0" y="0" width="256" height="256" fill="white" stroke-width="4"/></g>
			<g transform="scale(0.92, -0.92) translate(60, -920)">					<path d="M 459 811 Q 487 769 477 606 Q 471 588 489 546 Q 499 531 513 539 Q 523 548 524 618 Q 525 738 549 777 Q 555 786 544 799 Q 492 838 466 829 Q 453 825 459 811 Z" fill="red"></path>
				<path d="M 317 699 Q 283 647 241 603 Q 214 573 227 535 Q 231 516 255 524 Q 313 555 333 635 Q 345 668 342 695 Q 338 705 332 707 Q 323 707 317 699 Z" fill="lightgray"></path>
				<path d="M 682 728 Q 743 691 818 634 Q 837 616 854 615 Q 863 615 869 627 Q 879 643 857 684 Q 838 733 678 759 Q 668 763 668 750 Q 669 737 682 728 Z" fill="lightgray"></path>
				<path d="M 464 403 Q 597 512 629 541 Q 657 568 683 577 Q 699 581 700 590 Q 699 597 688 606 Q 660 628 633 636 Q 617 640 608 625 Q 584 559 410 412 L 382 389 Q 211 257 71 176 Q 64 173 65 169 Q 66 166 74 167 Q 194 191 392 345 L 464 403 Z" fill="lightgray"></path>
				<path d="M 410 412 Q 400 418 389 421 Q 382 424 375 416 Q 371 410 378 400 Q 379 396 382 389 L 392 345 Q 407 221 370 88 Q 358 76 363 42 Q 370 9 382 -4 Q 392 -17 401 -4 Q 413 9 418 33 L 425 68 Q 425 72 432 158 L 433 184 Q 433 220 436 259 L 437 285 Q 440 346 445 367 L 410 412 Z" fill="lightgray"></path>
				<path d="M 622 48 Q 655 11 677 -25 Q 686 -41 697 -41 Q 712 -40 726 -7 Q 742 30 737 74 Q 727 168 716 342 Q 715 372 729 393 Q 738 405 729 414 Q 711 433 661 453 Q 643 462 629 453 Q 578 429 464 403 C 413 391 416 360 445 367 Q 457 370 475 374 Q 548 390 611 405 Q 636 409 649 401 Q 686 371 669 74 Q 665 61 654 62 C 632 42 614 57 622 48 Z" fill="lightgray"></path>
				<path d="M 436 259 Q 442 258 453 260 Q 537 275 599 283 Q 621 287 613 300 Q 603 315 577 319 Q 546 322 437 285 C 409 275 406 261 436 259 Z" fill="lightgray"></path>
				<path d="M 432 158 Q 439 157 450 158 Q 540 170 606 176 Q 628 179 621 192 Q 611 207 585 213 Q 563 217 433 184 C 404 177 402 160 432 158 Z" fill="lightgray"></path>
				<path d="M 418 33 Q 424 32 431 33 Q 492 45 622 48 C 652 49 661 49 654 62 Q 653 71 626 89 Q 610 99 579 93 Q 494 75 425 68 C 395 65 388 35 418 33 Z" fill="lightgray"></path>
</g>
		<text x="40" y="140" font-size="128" fill="#999999">1</text></g>
		<g id="id0:id1:id1" transform="matrix(1.0,0,0,1.0,1024,0.0)">			<g stroke="lightgray" stroke-width="4" transform="scale(4, 4)"> <rect x="0" y="0" width="256" height="256" fill="white" stroke-width="4"/></g>
			<g transform="scale(0.92, -0.92) translate(60, -920)">					<path d="M 459 811 Q 487 769 477 606 Q 471 588 489 546 Q 499 531 513 539 Q 523 548 524 618 Q 525 738 549 777 Q 555 786 544 799 Q 492 838 466 829 Q 453 825 459 811 Z" fill="black"></path>
				<path d="M 317 699 Q 283 647 241 603 Q 214 573 227 535 Q 231 516 255 524 Q 313 555 333 635 Q 345 668 342 695 Q 338 705 332 707 Q 323 707 317 699 Z" fill="red"></path>
				<path d="M 682 728 Q 743 691 818 634 Q 837 616 854 615 Q 863 615 869 627 Q 879 643 857 684 Q 838 733 678 759 Q 668 763 668 750 Q 669 737 682 728 Z" fill="lightgray"></path>
				<path d="M 464 403 Q 597 512 629 541 Q 657 568 683 577 Q 699 581 700 590 Q 699 597 688 606 Q 660 628 633 636 Q 617 640 608 625 Q 584 559 410 412 L 382 389 Q 211 257 71 176 Q 64 173 65 169 Q 66 166 74 167 Q 194 191 392 345 L 464 403 Z" fill="lightgray"></path>
				<path d="M 410 412 Q 400 418 389 421 Q 382 424 375 416 Q 371 410 378 400 Q 379 396 382 389 L 392 345 Q 407 221 370 88 Q 358 76 363 42 Q 370 9 382 -4 Q 392 -17 401 -4 Q 413 9 418 33 L 425 68 Q 425 72 432 158 L 433 184 Q 433 220 436 259 L 437 285 Q 440 346 445 367 L 410 412 Z" fill="lightgray"></path>
				<path d="M 622 48 Q 655 11 677 -25 Q 686 -41 697 -41 Q 712 -40 726 -7 Q 742 30 737 74 Q 727 168 716 342 Q 715 372 729 393 Q 738 405 729 414 Q 711 433 661 453 Q 643 462 629 453 Q 578 429 464 403 C 413 391 416 360 445 367 Q 457 370 475 374 Q 548 390 611 405 Q 636 409 649 401 Q 686 371 669 74 Q 665 61 654 62 C 632 42 614 57 622 48 Z" fill="lightgray"></path>
				<path d="M 436 259 Q 442 258 453 260 Q 537 275 599 283 Q 621 287 613 300 Q 603 315 577 319 Q 546 322 437 285 C 409 275 406 261 436 259 Z" fill="lightgray"></path>
				<path d="M 432 158 Q 439 157 450 158 Q 540 170 606 176 Q 628 179 621 192 Q 611 207 585 213 Q 563 217 433 184 C 404 177 402 160 432 158 Z" fill="lightgray"></path>
				<path d="M 418 33 Q 424 32 431 33 Q 492 45 622 48 C 652 49 661 49 654 62 Q 653 71 626 89 Q 610 99 579 93 Q 494 75 425 68 C 395 65 388 35 418 33 Z" fill="lightgray"></path>
</g>
		<text x="40" y="140" font-size="128" fill="#999999">2</text></g>
		<g id="id0:id2:id2" transform="matrix(1.0,0,0,1.0,2048,0.0)">			<g stroke="lightgray" stroke-width="4" transform="scale(4, 4)"> <rect x="0" y="0" width="256" height="256" fill="white" stroke-width="4"/></g>
			<g transform="scale(0.92, -0.92) translate(60, -920)">					<path d="M 459 811 Q 487 769 477 606 Q 471 588 489 546 Q 499 531 513 539 Q 523 548 524 618 Q 525 738 549 777 Q 555 786 544 799 Q 492 838 466 829 Q 453 825 459 811 Z" fill="black"></path>
				<path d="M 317 699 Q 283 647 241 603 Q 214 573 227 535 Q 231 516 255 524 Q 313 555 333 635 Q 345 668 342 695 Q 338 705 332 707 Q 323 707 317 699 Z" fill="black"></path>
				<path d="M 682 728 Q 743 691 818 634 Q 837 616 854 615 Q 863 615 869 627 Q 879 643 857 684 Q 838 733 678 759 Q 668 763 668 750 Q 669 737 682 728 Z" fill="red"></path>
				<path d="M 464 403 Q 597 512 629 541 Q 657 568 683 577 Q 699 581 700 590 Q 699 597 688 606 Q 660 628 633 636 Q 617 640 608 625 Q 584 559 410 412 L 382 389 Q 211 257 71 176 Q 64 173 65 169 Q 66 166 74 167 Q 194 191 392 345 L 464 403 Z" fill="lightgray"></path>
				<path d="M 410 412 Q 400 418 389 421 Q 382 424 375 416 Q 371 410 378 400 Q 379 396 382 389 L 392 345 Q 407 221 370 88 Q 358 76 363 42 Q 370 9 382 -4 Q 392 -17 401 -4 Q 413 9 418 33 L 425 68 Q 425 72 432 158 L 433 184 Q 433 220 436 259 L 437 285 Q 440 346 445 367 L 410 412 Z" fill="lightgray"></path>
				<path d="M 622 48 Q 655 11 677 -25 Q 686 -41 697 -41 Q 712 -40 726 -7 Q 742 30 737 74 Q 727 168 716 342 Q 715 372 729 393 Q 738 405 729 414 Q 711 433 661 453 Q 643 462 629 453 Q 578 429 464 403 C 413 391 416 360 445 367 Q 457 370 475 374 Q 548 390 611 405 Q 636 409 649 401 Q 686 371 669 74 Q 665 61 654 62 C 632 42 614 57 622 48 Z" fill="lightgray"></path>
				<path d="M 436 259 Q 442 258 453 260 Q 537 275 599 283 Q 621 287 613 300 Q 603 315 577 319 Q 546 322 437 285 C 409 275 406 261 436 259 Z" fill="lightgray"></path>
				<path d="M 432 158 Q 439 157 450 158 Q 540 170 606 176 Q 628 179 621 192 Q 611 207 585 213 Q 563 217 433 184 C 404 177 402 160 432 158 Z" fill="lightgray"></path>
				<path d="M 418 33 Q 424 32 431 33 Q 492 45 622 48 C 652 49 661 49 654 62 Q 653 71 626 89 Q 610 99 579 93 Q 494 75 425 68 C 395 65 388 35 418 33 Z" fill="lightgray"></path>
</g>
		<text x="40" y="140" font-size="128" fill="#999999">3</text></g>
		<g id="id0:id3:id3" transform="matrix(1.0,0,0,1.0,3072,0.0)">			<g stroke="lightgray" stroke-width="4" transform="scale(4, 4)"> <rect x="0" y="0" width="256" height="256" fill="white" stroke-width="4"/></g>
			<g transform="scale(0.92, -0.92) translate(60, -920)">					<path d="M 459 811 Q 487 769 477 606 Q 471 588 489 546 Q 499 531 513 539 Q 523 548 524 618 Q 525 738 549 777 Q 555 786 544 799 Q 492 838 466 829 Q 453 825 459 811 Z" fill="black"></path>
				<path d="M 317 699 Q 283 647 241 603 Q 214 573 227 535 Q 231 516 255 524 Q 313 555 333 635 Q 345 668 342 695 Q 338 705 332 707 Q 323 707 317 699 Z" fill="black"></path>
				<path d="M 682 728 Q 743 691 818 634 Q 837 616 854 615 Q 863 615 869 627 Q 879 643 857 684 Q 838 733 678 759 Q 668 763 668 750 Q 669 737 682 728 Z" fill="black"></path>
				<path d="M 464 403 Q 597 512 629 541 Q 657 568 683 577 Q 699 581 700 590 Q 699 597 688 606 Q 660 628 633 636 Q 617 640 608 625 Q 584 559 410 412 L 382 389 Q 211 257 71 176 Q 64 173 65 169 Q 66 166 74 167 Q 194 191 392 345 L 464 403 Z" fill="red"></path>
				<path d="M 410 412 Q 400 418 389 421 Q 382 424 375 416 Q 371 410 378 400 Q 379 396 382 389 L 392 345 Q 407 221 370 88 Q 358 76 363 42 Q 370 9 382 -4 Q 392 -17 401 -4 Q 413 9 418 33 L 425 68 Q 425 72 432 158 L 433 184 Q 433 220 436 259 L 437 285 Q 440 346 445 367 L 410 412 Z" fill="lightgray"></path>
				<path d="M 622 48 Q 655 11 677 -25 Q 686 -41 697 -41 Q 712 -40 726 -7 Q 742 30 737 74 Q 727 168 716 342 Q 715 372 729 393 Q 738 405 729 414 Q 711 433 661 453 Q 643 462 629 453 Q 578 429 464 403 C 413 391 416 360 445 367 Q 457 370 475 374 Q 548 390 611 405 Q 636 409 649 401 Q 686 371 669 74 Q 665 61 654 62 C 632 42 614 57 622 48 Z" fill="lightgray"></path>
				<path d="M 436 259 Q 442 258 453 260 Q 537 275 599 283 Q 621 287 613 300 Q 603 315 577 319 Q 546 322 437 285 C 409 275 406 261 436 259 Z" fill="lightgray"></path>
				<path d="M 432 158 Q 439 157 450 158 Q 540 170 606 176 Q 628 179 621 192 Q 611 207 585 213 Q 563 217 433 184 C 404 177 402 160 432 158 Z" fill="lightgray"></path>
				<path d="M 418 33 Q 424 32 431 33 Q 492 45 622 48 C 652 49 661 49 654 62 Q 653 71 626 89 Q 610 99 579 93 Q 494 75 425 68 C 395 65 388 35 418 33 Z" fill="lightgray"></path>
</g>
		<text x="40" y="140" font-size="128" fill="#999999">4</text></g>
		<g id="id0:id4:id4" transform="matrix(1.0,0,0,1.0,4096,0.0)">			<g stroke="lightgray" stroke-width="4" transform="scale(4, 4)"> <rect x="0" y="0" width="256" height="256" fill="white" stroke-width="4"/></g>
			<g transform="scale(0.92, -0.92) translate(60, -920)">					<path d="M 459 811 Q 487 769 477 606 Q 471 588 489 546 Q 499 531 513 539 Q 523 548 524 618 Q 525 738 549 777 Q 555 786 544 799 Q 492 838 466 829 Q 453 825 459 811 Z" fill="black"></path>
				<path d="M 317 699 Q 283 647 241 603 Q 214 573 227 535 Q 231 516 255 524 Q 313 555 333 635 Q 345 668 342 695 Q 338 705 332 707 Q 323 707 317 699 Z" fill="black"></path>
				<path d="M 682 728 Q 743 691 818 634 Q 837 616 854 615 Q 863 615 869 627 Q 879 643 857 684 Q 838 733 678 759 Q 668 763 668 750 Q 669 737 682 728 Z" fill="black"></path>
				<path d="M 464 403 Q 597 512 629 541 Q 657 568 683 577 Q 699 581 700 590 Q 699 597 688 606 Q 660 628 633 636 Q 617 640 608 625 Q 584 559 410 412 L 382 389 Q 211 257 71 176 Q 64 173 65 169 Q 66 166 74 167 Q 194 191 392 345 L 464 403 Z" fill="black"></path>
				<path d="M 410 412 Q 400 418 389 421 Q 382 424 375 416 Q 371 410 378 400 Q 379 396 382 389 L 392 345 Q 407 221 370 88 Q 358 76 363 42 Q 370 9 382 -4 Q 392 -17 401 -4 Q 413 9 418 33 L 425 68 Q 425 72 432 158 L 433 184 Q 433 220 436 259 L 437 285 Q 440 346 445 367 L 410 412 Z" fill="red"></path>
				<path d="M 622 48 Q 655 11 677 -25 Q 686 -41 697 -41 Q 712 -40 726 -7 Q 742 30 737 74 Q 727 168 716 342 Q 715 372 729 393 Q 738 405 729 414 Q 711 433 661 453 Q 643 462 629 453 Q 578 429 464 403 C 413 391 416 360 445 367 Q 457 370 475 374 Q 548 390 611 405 Q 636 409 649 401 Q 686 371 669 74 Q 665 61 654 62 C 632 42 614 57 622 48 Z" fill="lightgray"></path>
				<path d="M 436 259 Q 442 258 453 260 Q 537 275 599 283 Q 621 287 613 300 Q 603 315 577 319 Q 546 322 437 285 C 409 275 406 261 436 259 Z" fill="lightgray"></path>
				<path d="M 432 158 Q 439 157 450 158 Q 540 170 606 176 Q 628 179 621 192 Q 611 207 585 213 Q 563 217 433 184 C 404 177 402 160 432 158 Z" fill="lightgray"></path>
				<path d="M 418 33 Q 424 32 431 33 Q 492 45 622 48 C 652 49 661 49 654 62 Q 653 71 626 89 Q 610 99 579 93 Q 494 75 425 68 C 395 65 388 35 418 33 Z" fill="lightgray"></path>
</g>
		<text x="40" y="140" font-size="128" fill="#999999">5</text></g>
</g>
	<g id="id1:id1" transform="translate(0.0,1024)">
		<g id="id1:id0:id0" transform="matrix(1.0,0,0,1.0,0,0.0)">			<g stroke="lightgray" stroke-width="4" transform="scale(4, 4)"> <rect x="0" y="0" width="256" height="256" fill="white" stroke-width="4"/></g>
			<g transform="scale(0.92, -0.92) translate(60, -920)">					<path d="M 459 811 Q 487 769 477 606 Q 471 588 489 546 Q 499 531 513 539 Q 523 548 524 618 Q 525 738 549 777 Q 555 786 544 799 Q 492 838 466 829 Q 453 825 459 811 Z" fill="black"></path>
				<path d="M 317 699 Q 283 647 241 603 Q 214 573 227 535 Q 231 516 255 524 Q 313 555 333 635 Q 345 668 342 695 Q 338 705 332 707 Q 323 707 317 699 Z" fill="black"></path>
				<path d="M 682 728 Q 743 691 818 634 Q 837 616 854 615 Q 863 615 869 627 Q 879 643 857 684 Q 838 733 678 759 Q 668 763 668 750 Q 669 737 682 728 Z" fill="black"></path>
				<path d="M 464 403 Q 597 512 629 541 Q 657 568 683 577 Q 699 581 700 590 Q 699 597 688 606 Q 660 628 633 636 Q 617 640 608 625 Q 584 559 410 412 L 382 389 Q 211 257 71 176 Q 64 173 65 169 Q 66 166 74 167 Q 194 191 392 345 L 464 403 Z" fill="black"></path>
				<path d="M 410 412 Q 400 418 389 421 Q 382 424 375 416 Q 371 410 378 400 Q 379 396 382 389 L 392 345 Q 407 221 370 88 Q 358 76 363 42 Q 370 9 382 -4 Q 392 -17 401 -4 Q 413 9 418 33 L 425 68 Q 425 72 432 158 L 433 184 Q 433 220 436 259 L 437 285 Q 440 346 445 367 L 410 412 Z" fill="black"></path>
				<path d="M 622 48 Q 655 11 677 -25 Q 686 -41 697 -41 Q 712 -40 726 -7 Q 742 30 737 74 Q 727 168 716 342 Q 715 372 729 393 Q 738 405 729 414 Q 711 433 661 453 Q 643 462 629 453 Q 578 429 464 403 C 413 391 416 360 445 367 Q 457 370 475 374 Q 548 390 611 405 Q 636 409 649 401 Q 686 371 669 74 Q 665 61 654 62 C 632 42 614 57 622 48 Z" fill="red"></path>
				<path d="M 436 259 Q 442 258 453 260 Q 537 275 599 283 Q 621 287 613 300 Q 603 315 577 319 Q 546 322 437 285 C 409 275 406 261 436 259 Z" fill="lightgray"></path>
				<path d="M 432 158 Q 439 157 450 158 Q 540 170 606 176 Q 628 179 621 192 Q 611 207 585 213 Q 563 217 433 184 C 404 177 402 160 432 158 Z" fill="lightgray"></path>
				<path d="M 418 33 Q 424 32 431 33 Q 492 45 622 48 C 652 49 661 49 654 62 Q 653 71 626 89 Q 610 99 579 93 Q 494 75 425 68 C 395 65 388 35 418 33 Z" fill="lightgray"></path>
</g>
		<text x="40" y="140" font-size="128" fill="#999999">6</text></g>
		<g id="id1:id1:id1" transform="matrix(1.0,0,0,1.0,1024,0.0)">			<g stroke="lightgray" stroke-width="4" transform="scale(4, 4)"> <rect x="0" y="0" width="256" height="256" fill="white" stroke-width="4"/></g>
			<g transform="scale(0.92, -0.92) translate(60, -920)">					<path d="M 459 811 Q 487 769 477 606 Q 471 588 489 546 Q 499 531 513 539 Q 523 548 524 618 Q 525 738 549 777 Q 555 786 544 799 Q 492 838 466 829 Q 453 825 459 811 Z" fill="black"></path>
				<path d="M 317 699 Q 283 647 241 603 Q 214 573 227 535 Q 231 516 255 524 Q 313 555 333 635 Q 345 668 342 695 Q 338 705 332 707 Q 323 707 317 699 Z" fill="black"></path>
				<path d="M 682 728 Q 743 691 818 634 Q 837 616 854 615 Q 863 615 869 627 Q 879 643 857 684 Q 838 733 678 759 Q 668 763 668 750 Q 669 737 682 728 Z" fill="black"></path>
				<path d="M 464 403 Q 597 512 629 541 Q 657 568 683 577 Q 699 581 700 590 Q 699 597 688 606 Q 660 628 633 636 Q 617 640 608 625 Q 584 559 410 412 L 382 389 Q 211 257 71 176 Q 64 173 65 169 Q 66 166 74 167 Q 194 191 392 345 L 464 403 Z" fill="black"></path>
				<path d="M 410 412 Q 400 418 389 421 Q 382 424 375 416 Q 371 410 378 400 Q 379 396 382 389 L 392 345 Q 407 221 370 88 Q 358 76 363 42 Q 370 9 382 -4 Q 392 -17 401 -4 Q 413 9 418 33 L 425 68 Q 425 72 432 158 L 433 184 Q 433 220 436 259 L 437 285 Q 440 346 445 367 L 410 412 Z" fill="black"></path>
				<path d="M 622 48 Q 655 11 677 -25 Q 686 -41 697 -41 Q 712 -40 726 -7 Q 742 30 737 74 Q 727 168 716 342 Q 715 372 729 393 Q 738 405 729 414 Q 711 433 661 453 Q 643 462 629 453 Q 578 429 464 403 C 413 391 416 360 445 367 Q 457 370 475 374 Q 548 390 611 405 Q 636 409 649 401 Q 686 371 669 74 Q 665 61 654 62 C 632 42 614 57 622 48 Z" fill="black"></path>
				<path d="M 436 259 Q 442 258 453 260 Q 537 275 599 283 Q 621 287 613 300 Q 603 315 577 319 Q 546 322 437 285 C 409 275 406 261 436 259 Z" fill="red"></path>
				<path d="M 432 158 Q 439 157 450 158 Q 540 170 606 176 Q 628 179 621 192 Q 611 207 585 213 Q 563 217 433 184 C 404 177 402 160 432 158 Z" fill="lightgray"></path>
				<path d="M 418 33 Q 424 32 431 33 Q 492 45 622 48 C 652 49 661 49 654 62 Q 653 71 626 89 Q 610 99 579 93 Q 494 75 425 68 C 395 65 388 35 418 33 Z" fill="lightgray"></path>
</g>
		<text x="40" y="140" font-size="128" fill="#999999">7</text></g>
		<g id="id1:id2:id2" transform="matrix(1.0,0,0,1.0,2048,0.0)">			<g stroke="lightgray" stroke-width="4" transform="scale(4, 4)"> <rect x="0" y="0" width="256" height="256" fill="white" stroke-width="4"/></g>
			<g transform="scale(0.92, -0.92) translate(60, -920)">					<path d="M 459 811 Q 487 769 477 606 Q 471 588 489 546 Q 499 531 513 539 Q 523 548 524 618 Q 525 738 549 777 Q 555 786 544 799 Q 492 838 466 829 Q 453 825 459 811 Z" fill="black"></path>
				<path d="M 317 699 Q 283 647 241 603 Q 214 573 227 535 Q 231 516 255 524 Q 313 555 333 635 Q 345 668 342 695 Q 338 705 332 707 Q 323 707 317 699 Z" fill="black"></path>
				<path d="M 682 728 Q 743 691 818 634 Q 837 616 854 615 Q 863 615 869 627 Q 879 643 857 684 Q 838 733 678 759 Q 668 763 668 750 Q 669 737 682 728 Z" fill="black"></path>
				<path d="M 464 403 Q 597 512 629 541 Q 657 568 683 577 Q 699 581 700 590 Q 699 597 688 606 Q 660 628 633 636 Q 617 640 608 625 Q 584 559 410 412 L 382 389 Q 211 257 71 176 Q 64 173 65 169 Q 66 166 74 167 Q 194 191 392 345 L 464 403 Z" fill="black"></path>
				<path d="M 410 412 Q 400 418 389 421 Q 382 424 375 416 Q 371 410 378 400 Q 379 396 382 389 L 392 345 Q 407 221 370 88 Q 358 76 363 42 Q 370 9 382 -4 Q 392 -17 401 -4 Q 413 9 418 33 L 425 68 Q 425 72 432 158 L 433 184 Q 433 220 436 259 L 437 285 Q 440 346 445 367 L 410 412 Z" fill="black"></path>
				<path d="M 622 48 Q 655 11 677 -25 Q 686 -41 697 -41 Q 712 -40 726 -7 Q 742 30 737 74 Q 727 168 716 342 Q 715 372 729 393 Q 738 405 729 414 Q 711 433 661 453 Q 643 462 629 453 Q 578 429 464 403 C 413 391 416 360 445 367 Q 457 370 475 374 Q 548 390 611 405 Q 636 409 649 401 Q 686 371 669 74 Q 665 61 654 62 C 632 42 614 57 622 48 Z" fill="black"></path>
				<path d="M 436 259 Q 442 258 453 260 Q 537 275 599 283 Q 621 287 613 300 Q 603 315 577 319 Q 546 322 437 285 C 409 275 406 261 436 259 Z" fill="black"></path>
				<path d="M 432 158 Q 439 157 450 158 Q 540 170 606 176 Q 628 179 621 192 Q 611 207 585 213 Q 563 217 433 184 C 404 177 402 160 432 158 Z" fill="red"></path>
				<path d="M 418 33 Q 424 32 431 33 Q 492 45 622 48 C 652 49 661 49 654 62 Q 653 71 626 89 Q 610 99 579 93 Q 494 75 425 68 C 395 65 388 35 418 33 Z" fill="lightgray"></path>
</g>
		<text x="40" y="140" font-size="128" fill="#999999">8</text></g>
		<g id="id1:id3:id3" transform="matrix(1.0,0,0,1.0,3072,0.0)">			<g stroke="lightgray" stroke-width="4" transform="scale(4, 4)"> <rect x="0" y="0" width="256" height="256" fill="white" stroke-width="4"/></g>
			<g transform="scale(0.92, -0.92) translate(60, -920)">					<path d="M 459 811 Q 487 769 477 606 Q 471 588 489 546 Q 499 531 513 539 Q 523 548 524 618 Q 525 738 549 777 Q 555 786 544 799 Q 492 838 466 829 Q 453 825 459 811 Z" fill="black"></path>
				<path d="M 317 699 Q 283 647 241 603 Q 214 573 227 535 Q 231 516 255 524 Q 313 555 333 635 Q 345 668 342 695 Q 338 705 332 707 Q 323 707 317 699 Z" fill="black"></path>
				<path d="M 682 728 Q 743 691 818 634 Q 837 616 854 615 Q 863 615 869 627 Q 879 643 857 684 Q 838 733 678 759 Q 668 763 668 750 Q 669 737 682 728 Z" fill="black"></path>
				<path d="M 464 403 Q 597 512 629 541 Q 657 568 683 577 Q 699 581 700 590 Q 699 597 688 606 Q 660 628 633 636 Q 617 640 608 625 Q 584 559 410 412 L 382 389 Q 211 257 71 176 Q 64 173 65 169 Q 66 166 74 167 Q 194 191 392 345 L 464 403 Z" fill="black"></path>
				<path d="M 410 412 Q 400 418 389 421 Q 382 424 375 416 Q 371 410 378 400 Q 379 396 382 389 L 392 345 Q 407 221 370 88 Q 358 76 363 42 Q 370 9 382 -4 Q 392 -17 401 -4 Q 413 9 418 33 L 425 68 Q 425 72 432 158 L 433 184 Q 433 220 436 259 L 437 285 Q 440 346 445 367 L 410 412 Z" fill="black"></path>
				<path d="M 622 48 Q 655 11 677 -25 Q 686 -41 697 -41 Q 712 -40 726 -7 Q 742 30 737 74 Q 727 168 716 342 Q 715 372 729 393 Q 738 405 729 414 Q 711 433 661 453 Q 643 462 629 453 Q 578 429 464 403 C 413 391 416 360 445 367 Q 457 370 475 374 Q 548 390 611 405 Q 636 409 649 401 Q 686 371 669 74 Q 665 61 654 62 C 632 42 614 57 622 48 Z" fill="black"></path>
				<path d="M 436 259 Q 442 258 453 260 Q 537 275 599 283 Q 621 287 613 300 Q 603 315 577 319 Q 546 322 437 285 C 409 275 406 261 436 259 Z" fill="black"></path>
				<path d="M 432 158 Q 439 157 450 158 Q 540 170 606 176 Q 628 179 621 192 Q 611 207 585 213 Q 563 217 433 184 C 404 177 402 160 432 158 Z" fill="black"></path>
				<path d="M 418 33 Q 424 32 431 33 Q 492 45 622 48 C 652 49 661 49 654 62 Q 653 71 626 89 Q 610 99 579 93 Q 494 75 425 68 C 395 65 388 35 418 33 Z" fill="red"></path>
</g>
		<text x="40" y="140" font-size="128" fill="#999999">9</text></g>
		<g id="id1:id4:id4" transform="matrix(1.0,0,0,1.0,4096,0.0)">			<g stroke="white" stroke-width="4" transform="scale(4, 4)"> <rect x="1" y="1" width="255" height="255" fill="white" stroke-width="0"/></g>
</g>
</g>
</svg>
