<?xml version="1.0" standalone="no"?>
<!DOCTYPE svg PUBLIC "-//W3C//DTD SVG 1.1//EN"
 "http://www.w3.org/Graphics/SVG/1.1/DTD/svg11.dtd">
<!-- generate by Japanese dictionary app com.asnsami.kanjidictionary -->

<svg xmlns="http://www.w3.org/2000/svg" xmlns:sodipodi="http://sodipodi.sourceforge.net/DTD/sodipodi-0.dtd" version="1.1" width="640" height="256" viewBox="0 0 5120 2048">
	<g id="id0:id0" transform="translate(0.0,0)">
		<g id="id0:id0:id0" transform="matrix(1.0,0,0,1.0,0,0.0)">			<g stroke="lightgray" stroke-width="4" transform="scale(4, 4)"> <rect x="0" y="0" width="256" height="256" fill="white" stroke-width="4"/></g>
			<g transform="scale(0.92, -0.92) translate(60, -920)">					<path d="M 281 773 Q 308 751 337 724 Q 353 711 371 712 Q 384 713 388 728 Q 392 746 381 779 Q 374 798 341 812 Q 310 821 273 828 Q 255 831 248 827 Q 242 823 245 808 Q 249 795 281 773 Z" fill="red"></path>
				<path d="M 251 387 Q 276 427 304 473 Q 335 530 381 567 Q 396 579 383 594 Q 364 609 334 618 Q 312 625 294 614 Q 207 553 70 546 Q 57 547 55 540 Q 51 530 67 519 Q 107 492 142 501 Q 269 559 278 547 Q 284 538 272 515 Q 206 367 43 196 Q 30 184 32 180 Q 35 179 47 184 Q 137 233 226 352 L 251 387 Z" fill="lightgray"></path>
				<path d="M 226 352 Q 254 283 221 117 Q 200 89 235 25 Q 238 21 242 15 Q 258 0 270 25 Q 283 64 283 107 Q 284 273 291 311 Q 298 336 289 346 Q 273 365 251 387 C 230 408 216 380 226 352 Z" fill="lightgray"></path>
				<path d="M 327 402 Q 376 336 397 334 Q 410 333 417 350 Q 418 362 411 382 Q 402 398 381 407 Q 347 423 332 427 Q 323 428 322 418 Q 321 411 327 402 Z" fill="lightgray"></path>
				<path d="M 633 669 Q 735 726 774 736 Q 792 739 794 747 Q 797 759 784 769 Q 718 806 684 799 Q 677 795 677 783 Q 678 743 495 632 C 469 616 482 604 510 615 Q 537 625 577 644 Q 584 647 593 650 L 633 669 Z" fill="lightgray"></path>
				<path d="M 495 632 Q 479 642 442 650 Q 424 653 418 647 Q 411 640 424 621 Q 457 579 464 442 Q 464 235 422 164 Q 415 157 409 146 Q 397 133 407 111 Q 419 81 435 69 Q 448 60 462 77 Q 496 135 605 259 Q 620 272 621 282 Q 622 289 615 287 Q 608 286 520 219 Q 513 215 510 216 Q 503 220 504 239 Q 505 564 510 600 Q 511 609 510 615 C 510 625 510 625 495 632 Z" fill="lightgray"></path>
				<path d="M 687 455 Q 840 512 842 514 Q 849 523 844 530 Q 837 540 809 543 Q 781 544 755 531 Q 716 512 677 495 L 635 480 Q 592 467 544 455 Q 511 445 537 433 Q 571 421 645 441 L 687 455 Z" fill="lightgray"></path>
				<path d="M 645 441 Q 705 240 830 118 Q 843 106 861 93 Q 919 53 955 46 Q 983 47 979 83 Q 969 116 968 266 Q 968 279 962 281 Q 956 281 952 268 Q 940 234 930 202 Q 915 159 900 159 Q 879 160 840 199 Q 798 236 762 296 Q 711 374 687 455 L 677 495 Q 667 567 681 615 Q 688 636 648 660 Q 641 666 633 669 C 607 685 579 677 593 650 Q 611 623 617 580 Q 624 528 635 480 L 645 441 Z" fill="lightgray"></path>
</g>
		<text x="40" y="140" font-size="128" fill="#999999">1</text></g>
		<g id="id0:id1:id1" transform="matrix(1.0,0,0,1.0,1024,0.0)">			<g stroke="lightgray" stroke-width="4" transform="scale(4, 4)"> <rect x="0" y="0" width="256" height="256" fill="white" stroke-width="4"/></g>
			<g transform="scale(0.92, -0.92) translate(60, -920)">					<path d="M 281 773 Q 308 751 337 724 Q 353 711 371 712 Q 384 713 388 728 Q 392 746 381 779 Q 374 798 341 812 Q 310 821 273 828 Q 255 831 248 827 Q 242 823 245 808 Q 249 795 281 773 Z" fill="black"></path>
				<path d="M 251 387 Q 276 427 304 473 Q 335 530 381 567 Q 396 579 383 594 Q 364 609 334 618 Q 312 625 294 614 Q 207 553 70 546 Q 57 547 55 540 Q 51 530 67 519 Q 107 492 142 501 Q 269 559 278 547 Q 284 538 272 515 Q 206 367 43 196 Q 30 184 32 180 Q 35 179 47 184 Q 137 233 226 352 L 251 387 Z" fill="red"></path>
				<path d="M 226 352 Q 254 283 221 117 Q 200 89 235 25 Q 238 21 242 15 Q 258 0 270 25 Q 283 64 283 107 Q 284 273 291 311 Q 298 336 289 346 Q 273 365 251 387 C 230 408 216 380 226 352 Z" fill="lightgray"></path>
				<path d="M 327 402 Q 376 336 397 334 Q 410 333 417 350 Q 418 362 411 382 Q 402 398 381 407 Q 347 423 332 427 Q 323 428 322 418 Q 321 411 327 402 Z" fill="lightgray"></path>
				<path d="M 633 669 Q 735 726 774 736 Q 792 739 794 747 Q 797 759 784 769 Q 718 806 684 799 Q 677 795 677 783 Q 678 743 495 632 C 469 616 482 604 510 615 Q 537 625 577 644 Q 584 647 593 650 L 633 669 Z" fill="lightgray"></path>
				<path d="M 495 632 Q 479 642 442 650 Q 424 653 418 647 Q 411 640 424 621 Q 457 579 464 442 Q 464 235 422 164 Q 415 157 409 146 Q 397 133 407 111 Q 419 81 435 69 Q 448 60 462 77 Q 496 135 605 259 Q 620 272 621 282 Q 622 289 615 287 Q 608 286 520 219 Q 513 215 510 216 Q 503 220 504 239 Q 505 564 510 600 Q 511 609 510 615 C 510 625 510 625 495 632 Z" fill="lightgray"></path>
				<path d="M 687 455 Q 840 512 842 514 Q 849 523 844 530 Q 837 540 809 543 Q 781 544 755 531 Q 716 512 677 495 L 635 480 Q 592 467 544 455 Q 511 445 537 433 Q 571 421 645 441 L 687 455 Z" fill="lightgray"></path>
				<path d="M 645 441 Q 705 240 830 118 Q 843 106 861 93 Q 919 53 955 46 Q 983 47 979 83 Q 969 116 968 266 Q 968 279 962 281 Q 956 281 952 268 Q 940 234 930 202 Q 915 159 900 159 Q 879 160 840 199 Q 798 236 762 296 Q 711 374 687 455 L 677 495 Q 667 567 681 615 Q 688 636 648 660 Q 641 666 633 669 C 607 685 579 677 593 650 Q 611 623 617 580 Q 624 528 635 480 L 645 441 Z" fill="lightgray"></path>
</g>
		<text x="40" y="140" font-size="128" fill="#999999">2</text></g>
		<g id="id0:id2:id2" transform="matrix(1.0,0,0,1.0,2048,0.0)">			<g stroke="lightgray" stroke-width="4" transform="scale(4, 4)"> <rect x="0" y="0" width="256" height="256" fill="white" stroke-width="4"/></g>
			<g transform="scale(0.92, -0.92) translate(60, -920)">					<path d="M 281 773 Q 308 751 337 724 Q 353 711 371 712 Q 384 713 388 728 Q 392 746 381 779 Q 374 798 341 812 Q 310 821 273 828 Q 255 831 248 827 Q 242 823 245 808 Q 249 795 281 773 Z" fill="black"></path>
				<path d="M 251 387 Q 276 427 304 473 Q 335 530 381 567 Q 396 579 383 594 Q 364 609 334 618 Q 312 625 294 614 Q 207 553 70 546 Q 57 547 55 540 Q 51 530 67 519 Q 107 492 142 501 Q 269 559 278 547 Q 284 538 272 515 Q 206 367 43 196 Q 30 184 32 180 Q 35 179 47 184 Q 137 233 226 352 L 251 387 Z" fill="black"></path>
				<path d="M 226 352 Q 254 283 221 117 Q 200 89 235 25 Q 238 21 242 15 Q 258 0 270 25 Q 283 64 283 107 Q 284 273 291 311 Q 298 336 289 346 Q 273 365 251 387 C 230 408 216 380 226 352 Z" fill="red"></path>
				<path d="M 327 402 Q 376 336 397 334 Q 410 333 417 350 Q 418 362 411 382 Q 402 398 381 407 Q 347 423 332 427 Q 323 428 322 418 Q 321 411 327 402 Z" fill="lightgray"></path>
				<path d="M 633 669 Q 735 726 774 736 Q 792 739 794 747 Q 797 759 784 769 Q 718 806 684 799 Q 677 795 677 783 Q 678 743 495 632 C 469 616 482 604 510 615 Q 537 625 577 644 Q 584 647 593 650 L 633 669 Z" fill="lightgray"></path>
				<path d="M 495 632 Q 479 642 442 650 Q 424 653 418 647 Q 411 640 424 621 Q 457 579 464 442 Q 464 235 422 164 Q 415 157 409 146 Q 397 133 407 111 Q 419 81 435 69 Q 448 60 462 77 Q 496 135 605 259 Q 620 272 621 282 Q 622 289 615 287 Q 608 286 520 219 Q 513 215 510 216 Q 503 220 504 239 Q 505 564 510 600 Q 511 609 510 615 C 510 625 510 625 495 632 Z" fill="lightgray"></path>
				<path d="M 687 455 Q 840 512 842 514 Q 849 523 844 530 Q 837 540 809 543 Q 781 544 755 531 Q 716 512 677 495 L 635 480 Q 592 467 544 455 Q 511 445 537 433 Q 571 421 645 441 L 687 455 Z" fill="lightgray"></path>
				<path d="M 645 441 Q 705 240 830 118 Q 843 106 861 93 Q 919 53 955 46 Q 983 47 979 83 Q 969 116 968 266 Q 968 279 962 281 Q 956 281 952 268 Q 940 234 930 202 Q 915 159 900 159 Q 879 160 840 199 Q 798 236 762 296 Q 711 374 687 455 L 677 495 Q 667 567 681 615 Q 688 636 648 660 Q 641 666 633 669 C 607 685 579 677 593 650 Q 611 623 617 580 Q 624 528 635 480 L 645 441 Z" fill="lightgray"></path>
</g>
		<text x="40" y="140" font-size="128" fill="#999999">3</text></g>
		<g id="id0:id3:id3" transform="matrix(1.0,0,0,1.0,3072,0.0)">			<g stroke="lightgray" stroke-width="4" transform="scale(4, 4)"> <rect x="0" y="0" width="256" height="256" fill="white" stroke-width="4"/></g>
			<g transform="scale(0.92, -0.92) translate(60, -920)">					<path d="M 281 773 Q 308 751 337 724 Q 353 711 371 712 Q 384 713 388 728 Q 392 746 381 779 Q 374 798 341 812 Q 310 821 273 828 Q 255 831 248 827 Q 242 823 245 808 Q 249 795 281 773 Z" fill="black"></path>
				<path d="M 251 387 Q 276 427 304 473 Q 335 530 381 567 Q 396 579 383 594 Q 364 609 334 618 Q 312 625 294 614 Q 207 553 70 546 Q 57 547 55 540 Q 51 530 67 519 Q 107 492 142 501 Q 269 559 278 547 Q 284 538 272 515 Q 206 367 43 196 Q 30 184 32 180 Q 35 179 47 184 Q 137 233 226 352 L 251 387 Z" fill="black"></path>
				<path d="M 226 352 Q 254 283 221 117 Q 200 89 235 25 Q 238 21 242 15 Q 258 0 270 25 Q 283 64 283 107 Q 284 273 291 311 Q 298 336 289 346 Q 273 365 251 387 C 230 408 216 380 226 352 Z" fill="black"></path>
				<path d="M 327 402 Q 376 336 397 334 Q 410 333 417 350 Q 418 362 411 382 Q 402 398 381 407 Q 347 423 332 427 Q 323 428 322 418 Q 321 411 327 402 Z" fill="red"></path>
				<path d="M 633 669 Q 735 726 774 736 Q 792 739 794 747 Q 797 759 784 769 Q 718 806 684 799 Q 677 795 677 783 Q 678 743 495 632 C 469 616 482 604 510 615 Q 537 625 577 644 Q 584 647 593 650 L 633 669 Z" fill="lightgray"></path>
				<path d="M 495 632 Q 479 642 442 650 Q 424 653 418 647 Q 411 640 424 621 Q 457 579 464 442 Q 464 235 422 164 Q 415 157 409 146 Q 397 133 407 111 Q 419 81 435 69 Q 448 60 462 77 Q 496 135 605 259 Q 620 272 621 282 Q 622 289 615 287 Q 608 286 520 219 Q 513 215 510 216 Q 503 220 504 239 Q 505 564 510 600 Q 511 609 510 615 C 510 625 510 625 495 632 Z" fill="lightgray"></path>
				<path d="M 687 455 Q 840 512 842 514 Q 849 523 844 530 Q 837 540 809 543 Q 781 544 755 531 Q 716 512 677 495 L 635 480 Q 592 467 544 455 Q 511 445 537 433 Q 571 421 645 441 L 687 455 Z" fill="lightgray"></path>
				<path d="M 645 441 Q 705 240 830 118 Q 843 106 861 93 Q 919 53 955 46 Q 983 47 979 83 Q 969 116 968 266 Q 968 279 962 281 Q 956 281 952 268 Q 940 234 930 202 Q 915 159 900 159 Q 879 160 840 199 Q 798 236 762 296 Q 711 374 687 455 L 677 495 Q 667 567 681 615 Q 688 636 648 660 Q 641 666 633 669 C 607 685 579 677 593 650 Q 611 623 617 580 Q 624 528 635 480 L 645 441 Z" fill="lightgray"></path>
</g>
		<text x="40" y="140" font-size="128" fill="#999999">4</text></g>
		<g id="id0:id4:id4" transform="matrix(1.0,0,0,1.0,4096,0.0)">			<g stroke="lightgray" stroke-width="4" transform="scale(4, 4)"> <rect x="0" y="0" width="256" height="256" fill="white" stroke-width="4"/></g>
			<g transform="scale(0.92, -0.92) translate(60, -920)">					<path d="M 281 773 Q 308 751 337 724 Q 353 711 371 712 Q 384 713 388 728 Q 392 746 381 779 Q 374 798 341 812 Q 310 821 273 828 Q 255 831 248 827 Q 242 823 245 808 Q 249 795 281 773 Z" fill="black"></path>
				<path d="M 251 387 Q 276 427 304 473 Q 335 530 381 567 Q 396 579 383 594 Q 364 609 334 618 Q 312 625 294 614 Q 207 553 70 546 Q 57 547 55 540 Q 51 530 67 519 Q 107 492 142 501 Q 269 559 278 547 Q 284 538 272 515 Q 206 367 43 196 Q 30 184 32 180 Q 35 179 47 184 Q 137 233 226 352 L 251 387 Z" fill="black"></path>
				<path d="M 226 352 Q 254 283 221 117 Q 200 89 235 25 Q 238 21 242 15 Q 258 0 270 25 Q 283 64 283 107 Q 284 273 291 311 Q 298 336 289 346 Q 273 365 251 387 C 230 408 216 380 226 352 Z" fill="black"></path>
				<path d="M 327 402 Q 376 336 397 334 Q 410 333 417 350 Q 418 362 411 382 Q 402 398 381 407 Q 347 423 332 427 Q 323 428 322 418 Q 321 411 327 402 Z" fill="black"></path>
				<path d="M 633 669 Q 735 726 774 736 Q 792 739 794 747 Q 797 759 784 769 Q 718 806 684 799 Q 677 795 677 783 Q 678 743 495 632 C 469 616 482 604 510 615 Q 537 625 577 644 Q 584 647 593 650 L 633 669 Z" fill="red"></path>
				<path d="M 495 632 Q 479 642 442 650 Q 424 653 418 647 Q 411 640 424 621 Q 457 579 464 442 Q 464 235 422 164 Q 415 157 409 146 Q 397 133 407 111 Q 419 81 435 69 Q 448 60 462 77 Q 496 135 605 259 Q 620 272 621 282 Q 622 289 615 287 Q 608 286 520 219 Q 513 215 510 216 Q 503 220 504 239 Q 505 564 510 600 Q 511 609 510 615 C 510 625 510 625 495 632 Z" fill="lightgray"></path>
				<path d="M 687 455 Q 840 512 842 514 Q 849 523 844 530 Q 837 540 809 543 Q 781 544 755 531 Q 716 512 677 495 L 635 480 Q 592 467 544 455 Q 511 445 537 433 Q 571 421 645 441 L 687 455 Z" fill="lightgray"></path>
				<path d="M 645 441 Q 705 240 830 118 Q 843 106 861 93 Q 919 53 955 46 Q 983 47 979 83 Q 969 116 968 266 Q 968 279 962 281 Q 956 281 952 268 Q 940 234 930 202 Q 915 159 900 159 Q 879 160 840 199 Q 798 236 762 296 Q 711 374 687 455 L 677 495 Q 667 567 681 615 Q 688 636 648 660 Q 641 666 633 669 C 607 685 579 677 593 650 Q 611 623 617 580 Q 624 528 635 480 L 645 441 Z" fill="lightgray"></path>
</g>
		<text x="40" y="140" font-size="128" fill="#999999">5</text></g>
</g>
	<g id="id1:id1" transform="translate(0.0,1024)">
		<g id="id1:id0:id0" transform="matrix(1.0,0,0,1.0,0,0.0)">			<g stroke="lightgray" stroke-width="4" transform="scale(4, 4)"> <rect x="0" y="0" width="256" height="256" fill="white" stroke-width="4"/></g>
			<g transform="scale(0.92, -0.92) translate(60, -920)">					<path d="M 281 773 Q 308 751 337 724 Q 353 711 371 712 Q 384 713 388 728 Q 392 746 381 779 Q 374 798 341 812 Q 310 821 273 828 Q 255 831 248 827 Q 242 823 245 808 Q 249 795 281 773 Z" fill="black"></path>
				<path d="M 251 387 Q 276 427 304 473 Q 335 530 381 567 Q 396 579 383 594 Q 364 609 334 618 Q 312 625 294 614 Q 207 553 70 546 Q 57 547 55 540 Q 51 530 67 519 Q 107 492 142 501 Q 269 559 278 547 Q 284 538 272 515 Q 206 367 43 196 Q 30 184 32 180 Q 35 179 47 184 Q 137 233 226 352 L 251 387 Z" fill="black"></path>
				<path d="M 226 352 Q 254 283 221 117 Q 200 89 235 25 Q 238 21 242 15 Q 258 0 270 25 Q 283 64 283 107 Q 284 273 291 311 Q 298 336 289 346 Q 273 365 251 387 C 230 408 216 380 226 352 Z" fill="black"></path>
				<path d="M 327 402 Q 376 336 397 334 Q 410 333 417 350 Q 418 362 411 382 Q 402 398 381 407 Q 347 423 332 427 Q 323 428 322 418 Q 321 411 327 402 Z" fill="black"></path>
				<path d="M 633 669 Q 735 726 774 736 Q 792 739 794 747 Q 797 759 784 769 Q 718 806 684 799 Q 677 795 677 783 Q 678 743 495 632 C 469 616 482 604 510 615 Q 537 625 577 644 Q 584 647 593 650 L 633 669 Z" fill="black"></path>
				<path d="M 495 632 Q 479 642 442 650 Q 424 653 418 647 Q 411 640 424 621 Q 457 579 464 442 Q 464 235 422 164 Q 415 157 409 146 Q 397 133 407 111 Q 419 81 435 69 Q 448 60 462 77 Q 496 135 605 259 Q 620 272 621 282 Q 622 289 615 287 Q 608 286 520 219 Q 513 215 510 216 Q 503 220 504 239 Q 505 564 510 600 Q 511 609 510 615 C 510 625 510 625 495 632 Z" fill="red"></path>
				<path d="M 687 455 Q 840 512 842 514 Q 849 523 844 530 Q 837 540 809 543 Q 781 544 755 531 Q 716 512 677 495 L 635 480 Q 592 467 544 455 Q 511 445 537 433 Q 571 421 645 441 L 687 455 Z" fill="lightgray"></path>
				<path d="M 645 441 Q 705 240 830 118 Q 843 106 861 93 Q 919 53 955 46 Q 983 47 979 83 Q 969 116 968 266 Q 968 279 962 281 Q 956 281 952 268 Q 940 234 930 202 Q 915 159 900 159 Q 879 160 840 199 Q 798 236 762 296 Q 711 374 687 455 L 677 495 Q 667 567 681 615 Q 688 636 648 660 Q 641 666 633 669 C 607 685 579 677 593 650 Q 611 623 617 580 Q 624 528 635 480 L 645 441 Z" fill="lightgray"></path>
</g>
		<text x="40" y="140" font-size="128" fill="#999999">6</text></g>
		<g id="id1:id1:id1" transform="matrix(1.0,0,0,1.0,1024,0.0)">			<g stroke="lightgray" stroke-width="4" transform="scale(4, 4)"> <rect x="0" y="0" width="256" height="256" fill="white" stroke-width="4"/></g>
			<g transform="scale(0.92, -0.92) translate(60, -920)">					<path d="M 281 773 Q 308 751 337 724 Q 353 711 371 712 Q 384 713 388 728 Q 392 746 381 779 Q 374 798 341 812 Q 310 821 273 828 Q 255 831 248 827 Q 242 823 245 808 Q 249 795 281 773 Z" fill="black"></path>
				<path d="M 251 387 Q 276 427 304 473 Q 335 530 381 567 Q 396 579 383 594 Q 364 609 334 618 Q 312 625 294 614 Q 207 553 70 546 Q 57 547 55 540 Q 51 530 67 519 Q 107 492 142 501 Q 269 559 278 547 Q 284 538 272 515 Q 206 367 43 196 Q 30 184 32 180 Q 35 179 47 184 Q 137 233 226 352 L 251 387 Z" fill="black"></path>
				<path d="M 226 352 Q 254 283 221 117 Q 200 89 235 25 Q 238 21 242 15 Q 258 0 270 25 Q 283 64 283 107 Q 284 273 291 311 Q 298 336 289 346 Q 273 365 251 387 C 230 408 216 380 226 352 Z" fill="black"></path>
				<path d="M 327 402 Q 376 336 397 334 Q 410 333 417 350 Q 418 362 411 382 Q 402 398 381 407 Q 347 423 332 427 Q 323 428 322 418 Q 321 411 327 402 Z" fill="black"></path>
				<path d="M 633 669 Q 735 726 774 736 Q 792 739 794 747 Q 797 759 784 769 Q 718 806 684 799 Q 677 795 677 783 Q 678 743 495 632 C 469 616 482 604 510 615 Q 537 625 577 644 Q 584 647 593 650 L 633 669 Z" fill="black"></path>
				<path d="M 495 632 Q 479 642 442 650 Q 424 653 418 647 Q 411 640 424 621 Q 457 579 464 442 Q 464 235 422 164 Q 415 157 409 146 Q 397 133 407 111 Q 419 81 435 69 Q 448 60 462 77 Q 496 135 605 259 Q 620 272 621 282 Q 622 289 615 287 Q 608 286 520 219 Q 513 215 510 216 Q 503 220 504 239 Q 505 564 510 600 Q 511 609 510 615 C 510 625 510 625 495 632 Z" fill="black"></path>
				<path d="M 687 455 Q 840 512 842 514 Q 849 523 844 530 Q 837 540 809 543 Q 781 544 755 531 Q 716 512 677 495 L 635 480 Q 592 467 544 455 Q 511 445 537 433 Q 571 421 645 441 L 687 455 Z" fill="red"></path>
				<path d="M 645 441 Q 705 240 830 118 Q 843 106 861 93 Q 919 53 955 46 Q 983 47 979 83 Q 969 116 968 266 Q 968 279 962 281 Q 956 281 952 268 Q 940 234 930 202 Q 915 159 900 159 Q 879 160 840 199 Q 798 236 762 296 Q 711 374 687 455 L 677 495 Q 667 567 681 615 Q 688 636 648 660 Q 641 666 633 669 C 607 685 579 677 593 650 Q 611 623 617 580 Q 624 528 635 480 L 645 441 Z" fill="lightgray"></path>
</g>
		<text x="40" y="140" font-size="128" fill="#999999">7</text></g>
		<g id="id1:id2:id2" transform="matrix(1.0,0,0,1.0,2048,0.0)">			<g stroke="lightgray" stroke-width="4" transform="scale(4, 4)"> <rect x="0" y="0" width="256" height="256" fill="white" stroke-width="4"/></g>
			<g transform="scale(0.92, -0.92) translate(60, -920)">					<path d="M 281 773 Q 308 751 337 724 Q 353 711 371 712 Q 384 713 388 728 Q 392 746 381 779 Q 374 798 341 812 Q 310 821 273 828 Q 255 831 248 827 Q 242 823 245 808 Q 249 795 281 773 Z" fill="black"></path>
				<path d="M 251 387 Q 276 427 304 473 Q 335 530 381 567 Q 396 579 383 594 Q 364 609 334 618 Q 312 625 294 614 Q 207 553 70 546 Q 57 547 55 540 Q 51 530 67 519 Q 107 492 142 501 Q 269 559 278 547 Q 284 538 272 515 Q 206 367 43 196 Q 30 184 32 180 Q 35 179 47 184 Q 137 233 226 352 L 251 387 Z" fill="black"></path>
				<path d="M 226 352 Q 254 283 221 117 Q 200 89 235 25 Q 238 21 242 15 Q 258 0 270 25 Q 283 64 283 107 Q 284 273 291 311 Q 298 336 289 346 Q 273 365 251 387 C 230 408 216 380 226 352 Z" fill="black"></path>
				<path d="M 327 402 Q 376 336 397 334 Q 410 333 417 350 Q 418 362 411 382 Q 402 398 381 407 Q 347 423 332 427 Q 323 428 322 418 Q 321 411 327 402 Z" fill="black"></path>
				<path d="M 633 669 Q 735 726 774 736 Q 792 739 794 747 Q 797 759 784 769 Q 718 806 684 799 Q 677 795 677 783 Q 678 743 495 632 C 469 616 482 604 510 615 Q 537 625 577 644 Q 584 647 593 650 L 633 669 Z" fill="black"></path>
				<path d="M 495 632 Q 479 642 442 650 Q 424 653 418 647 Q 411 640 424 621 Q 457 579 464 442 Q 464 235 422 164 Q 415 157 409 146 Q 397 133 407 111 Q 419 81 435 69 Q 448 60 462 77 Q 496 135 605 259 Q 620 272 621 282 Q 622 289 615 287 Q 608 286 520 219 Q 513 215 510 216 Q 503 220 504 239 Q 505 564 510 600 Q 511 609 510 615 C 510 625 510 625 495 632 Z" fill="black"></path>
				<path d="M 687 455 Q 840 512 842 514 Q 849 523 844 530 Q 837 540 809 543 Q 781 544 755 531 Q 716 512 677 495 L 635 480 Q 592 467 544 455 Q 511 445 537 433 Q 571 421 645 441 L 687 455 Z" fill="black"></path>
				<path d="M 645 441 Q 705 240 830 118 Q 843 106 861 93 Q 919 53 955 46 Q 983 47 979 83 Q 969 116 968 266 Q 968 279 962 281 Q 956 281 952 268 Q 940 234 930 202 Q 915 159 900 159 Q 879 160 840 199 Q 798 236 762 296 Q 711 374 687 455 L 677 495 Q 667 567 681 615 Q 688 636 648 660 Q 641 666 633 669 C 607 685 579 677 593 650 Q 611 623 617 580 Q 624 528 635 480 L 645 441 Z" fill="red"></path>
</g>
		<text x="40" y="140" font-size="128" fill="#999999">8</text></g>
		<g id="id1:id3:id3" transform="matrix(1.0,0,0,1.0,3072,0.0)">			<g stroke="white" stroke-width="4" transform="scale(4, 4)"> <rect x="1" y="1" width="255" height="255" fill="white" stroke-width="0"/></g>
</g>
		<g id="id1:id4:id4" transform="matrix(1.0,0,0,1.0,4096,0.0)">			<g stroke="white" stroke-width="4" transform="scale(4, 4)"> <rect x="1" y="1" width="255" height="255" fill="white" stroke-width="0"/></g>
</g>
</g>
</svg>
