<?xml version="1.0" standalone="no"?>
<!DOCTYPE svg PUBLIC "-//W3C//DTD SVG 1.1//EN"
 "http://www.w3.org/Graphics/SVG/1.1/DTD/svg11.dtd">
<!-- generate by Handict dictionary app com.asnsami.handict -->

<svg xmlns="http://www.w3.org/2000/svg" xmlns:sodipodi="http://sodipodi.sourceforge.net/DTD/sodipodi-0.dtd" version="1.1" width="640" height="384" viewBox="0 0 5120 3072">
	<g id="id0:id0" transform="translate(0.0,0)">
		<g id="id0:id0:id0" transform="matrix(1.0,0,0,1.0,0,0.0)">			<g stroke="lightgray" stroke-width="4" transform="scale(4, 4)"> <rect x="0" y="0" width="256" height="256" fill="white" stroke-width="4"/></g>
			<g transform="scale(0.92, -0.92) translate(60, -920)">					<path d="M 273 765 Q 304 740 337 710 Q 352 697 368 698 Q 380 698 385 712 Q 389 728 379 759 Q 372 781 338 795 Q 259 822 244 815 Q 238 811 241 797 Q 245 787 273 765 Z" fill="red"></path>
				<path d="M 276 355 Q 307 397 341 449 Q 374 503 419 537 Q 434 549 421 563 Q 402 579 372 588 Q 350 597 332 585 Q 239 519 86 513 Q 74 514 72 507 Q 69 497 83 487 Q 119 463 151 468 Q 187 481 292 525 Q 311 532 316 524 Q 322 515 309 493 Q 234 345 76 192 Q 61 180 64 177 Q 67 174 80 180 Q 162 220 251 324 L 276 355 Z" fill="lightgray"></path>
				<path d="M 251 324 Q 281 261 244 96 Q 234 54 263 12 Q 264 9 267 7 Q 283 -8 294 17 Q 307 54 307 95 Q 308 248 314 282 Q 321 307 312 316 Q 282 350 276 355 C 255 376 240 352 251 324 Z" fill="lightgray"></path>
				<path d="M 368 396 Q 416 339 439 341 Q 451 340 456 356 Q 457 368 448 385 Q 438 398 417 405 Q 384 418 371 420 Q 362 421 362 411 Q 361 404 368 396 Z" fill="lightgray"></path>
				<path d="M 757 615 Q 770 619 787 621 Q 842 634 850 641 Q 859 648 855 656 Q 848 668 820 676 Q 793 682 759 670 L 707 654 Q 628 633 573 624 L 523 617 Q 493 614 466 612 Q 430 606 455 590 Q 483 571 527 573 L 570 581 Q 637 594 708 607 L 757 615 Z" fill="lightgray"></path>
				<path d="M 573 624 Q 574 664 579 680 Q 583 702 570 717 Q 548 736 519 748 Q 506 754 496 748 Q 487 742 493 726 Q 515 674 523 617 L 527 573 Q 528 494 525 276 C 525 246 566 251 566 281 Q 566 330 566 373 L 566 400 Q 566 442 567 477 L 568 506 Q 568 560 570 581 L 573 624 Z" fill="lightgray"></path>
				<path d="M 742 304 Q 751 466 757 615 L 759 670 Q 759 707 781 803 Q 785 815 764 830 Q 727 851 700 855 Q 682 859 674 850 Q 667 841 675 825 Q 706 779 705 748 Q 706 702 707 654 L 708 607 Q 708 462 699 298 C 697 268 740 274 742 304 Z" fill="lightgray"></path>
				<path d="M 567 477 L 669 496 Q 691 502 682 513 Q 670 526 646 528 Q 609 531 568 506 C 542 491 538 472 567 477 Z" fill="lightgray"></path>
				<path d="M 566 373 Q 567 373 572 373 Q 627 383 668 388 Q 690 392 681 405 Q 671 418 646 421 Q 613 424 566 400 C 539 387 536 373 566 373 Z" fill="lightgray"></path>
				<path d="M 525 276 Q 461 270 393 262 Q 371 261 387 243 Q 400 230 419 223 Q 440 217 456 222 Q 609 261 904 261 Q 920 261 938 260 Q 957 260 963 268 Q 967 280 952 294 Q 891 339 834 320 Q 794 314 742 304 L 699 298 Q 675 297 651 292 Q 609 288 566 281 L 525 276 Z" fill="lightgray"></path>
				<path d="M 520 186 Q 508 132 378 32 Q 356 19 383 20 Q 437 20 547 107 Q 550 114 591 145 Q 603 157 601 167 Q 600 180 573 190 Q 545 203 532 200 Q 525 199 520 186 Z" fill="lightgray"></path>
				<path d="M 696 175 Q 751 117 816 35 Q 832 13 847 7 Q 857 4 865 15 Q 880 28 869 75 Q 857 132 699 207 Q 690 214 687 200 Q 686 187 696 175 Z" fill="lightgray"></path>
</g>
		<text x="40" y="140" font-size="128" fill="#999999">1</text></g>
		<g id="id0:id1:id1" transform="matrix(1.0,0,0,1.0,1024,0.0)">			<g stroke="lightgray" stroke-width="4" transform="scale(4, 4)"> <rect x="0" y="0" width="256" height="256" fill="white" stroke-width="4"/></g>
			<g transform="scale(0.92, -0.92) translate(60, -920)">					<path d="M 273 765 Q 304 740 337 710 Q 352 697 368 698 Q 380 698 385 712 Q 389 728 379 759 Q 372 781 338 795 Q 259 822 244 815 Q 238 811 241 797 Q 245 787 273 765 Z" fill="black"></path>
				<path d="M 276 355 Q 307 397 341 449 Q 374 503 419 537 Q 434 549 421 563 Q 402 579 372 588 Q 350 597 332 585 Q 239 519 86 513 Q 74 514 72 507 Q 69 497 83 487 Q 119 463 151 468 Q 187 481 292 525 Q 311 532 316 524 Q 322 515 309 493 Q 234 345 76 192 Q 61 180 64 177 Q 67 174 80 180 Q 162 220 251 324 L 276 355 Z" fill="red"></path>
				<path d="M 251 324 Q 281 261 244 96 Q 234 54 263 12 Q 264 9 267 7 Q 283 -8 294 17 Q 307 54 307 95 Q 308 248 314 282 Q 321 307 312 316 Q 282 350 276 355 C 255 376 240 352 251 324 Z" fill="lightgray"></path>
				<path d="M 368 396 Q 416 339 439 341 Q 451 340 456 356 Q 457 368 448 385 Q 438 398 417 405 Q 384 418 371 420 Q 362 421 362 411 Q 361 404 368 396 Z" fill="lightgray"></path>
				<path d="M 757 615 Q 770 619 787 621 Q 842 634 850 641 Q 859 648 855 656 Q 848 668 820 676 Q 793 682 759 670 L 707 654 Q 628 633 573 624 L 523 617 Q 493 614 466 612 Q 430 606 455 590 Q 483 571 527 573 L 570 581 Q 637 594 708 607 L 757 615 Z" fill="lightgray"></path>
				<path d="M 573 624 Q 574 664 579 680 Q 583 702 570 717 Q 548 736 519 748 Q 506 754 496 748 Q 487 742 493 726 Q 515 674 523 617 L 527 573 Q 528 494 525 276 C 525 246 566 251 566 281 Q 566 330 566 373 L 566 400 Q 566 442 567 477 L 568 506 Q 568 560 570 581 L 573 624 Z" fill="lightgray"></path>
				<path d="M 742 304 Q 751 466 757 615 L 759 670 Q 759 707 781 803 Q 785 815 764 830 Q 727 851 700 855 Q 682 859 674 850 Q 667 841 675 825 Q 706 779 705 748 Q 706 702 707 654 L 708 607 Q 708 462 699 298 C 697 268 740 274 742 304 Z" fill="lightgray"></path>
				<path d="M 567 477 L 669 496 Q 691 502 682 513 Q 670 526 646 528 Q 609 531 568 506 C 542 491 538 472 567 477 Z" fill="lightgray"></path>
				<path d="M 566 373 Q 567 373 572 373 Q 627 383 668 388 Q 690 392 681 405 Q 671 418 646 421 Q 613 424 566 400 C 539 387 536 373 566 373 Z" fill="lightgray"></path>
				<path d="M 525 276 Q 461 270 393 262 Q 371 261 387 243 Q 400 230 419 223 Q 440 217 456 222 Q 609 261 904 261 Q 920 261 938 260 Q 957 260 963 268 Q 967 280 952 294 Q 891 339 834 320 Q 794 314 742 304 L 699 298 Q 675 297 651 292 Q 609 288 566 281 L 525 276 Z" fill="lightgray"></path>
				<path d="M 520 186 Q 508 132 378 32 Q 356 19 383 20 Q 437 20 547 107 Q 550 114 591 145 Q 603 157 601 167 Q 600 180 573 190 Q 545 203 532 200 Q 525 199 520 186 Z" fill="lightgray"></path>
				<path d="M 696 175 Q 751 117 816 35 Q 832 13 847 7 Q 857 4 865 15 Q 880 28 869 75 Q 857 132 699 207 Q 690 214 687 200 Q 686 187 696 175 Z" fill="lightgray"></path>
</g>
		<text x="40" y="140" font-size="128" fill="#999999">2</text></g>
		<g id="id0:id2:id2" transform="matrix(1.0,0,0,1.0,2048,0.0)">			<g stroke="lightgray" stroke-width="4" transform="scale(4, 4)"> <rect x="0" y="0" width="256" height="256" fill="white" stroke-width="4"/></g>
			<g transform="scale(0.92, -0.92) translate(60, -920)">					<path d="M 273 765 Q 304 740 337 710 Q 352 697 368 698 Q 380 698 385 712 Q 389 728 379 759 Q 372 781 338 795 Q 259 822 244 815 Q 238 811 241 797 Q 245 787 273 765 Z" fill="black"></path>
				<path d="M 276 355 Q 307 397 341 449 Q 374 503 419 537 Q 434 549 421 563 Q 402 579 372 588 Q 350 597 332 585 Q 239 519 86 513 Q 74 514 72 507 Q 69 497 83 487 Q 119 463 151 468 Q 187 481 292 525 Q 311 532 316 524 Q 322 515 309 493 Q 234 345 76 192 Q 61 180 64 177 Q 67 174 80 180 Q 162 220 251 324 L 276 355 Z" fill="black"></path>
				<path d="M 251 324 Q 281 261 244 96 Q 234 54 263 12 Q 264 9 267 7 Q 283 -8 294 17 Q 307 54 307 95 Q 308 248 314 282 Q 321 307 312 316 Q 282 350 276 355 C 255 376 240 352 251 324 Z" fill="red"></path>
				<path d="M 368 396 Q 416 339 439 341 Q 451 340 456 356 Q 457 368 448 385 Q 438 398 417 405 Q 384 418 371 420 Q 362 421 362 411 Q 361 404 368 396 Z" fill="lightgray"></path>
				<path d="M 757 615 Q 770 619 787 621 Q 842 634 850 641 Q 859 648 855 656 Q 848 668 820 676 Q 793 682 759 670 L 707 654 Q 628 633 573 624 L 523 617 Q 493 614 466 612 Q 430 606 455 590 Q 483 571 527 573 L 570 581 Q 637 594 708 607 L 757 615 Z" fill="lightgray"></path>
				<path d="M 573 624 Q 574 664 579 680 Q 583 702 570 717 Q 548 736 519 748 Q 506 754 496 748 Q 487 742 493 726 Q 515 674 523 617 L 527 573 Q 528 494 525 276 C 525 246 566 251 566 281 Q 566 330 566 373 L 566 400 Q 566 442 567 477 L 568 506 Q 568 560 570 581 L 573 624 Z" fill="lightgray"></path>
				<path d="M 742 304 Q 751 466 757 615 L 759 670 Q 759 707 781 803 Q 785 815 764 830 Q 727 851 700 855 Q 682 859 674 850 Q 667 841 675 825 Q 706 779 705 748 Q 706 702 707 654 L 708 607 Q 708 462 699 298 C 697 268 740 274 742 304 Z" fill="lightgray"></path>
				<path d="M 567 477 L 669 496 Q 691 502 682 513 Q 670 526 646 528 Q 609 531 568 506 C 542 491 538 472 567 477 Z" fill="lightgray"></path>
				<path d="M 566 373 Q 567 373 572 373 Q 627 383 668 388 Q 690 392 681 405 Q 671 418 646 421 Q 613 424 566 400 C 539 387 536 373 566 373 Z" fill="lightgray"></path>
				<path d="M 525 276 Q 461 270 393 262 Q 371 261 387 243 Q 400 230 419 223 Q 440 217 456 222 Q 609 261 904 261 Q 920 261 938 260 Q 957 260 963 268 Q 967 280 952 294 Q 891 339 834 320 Q 794 314 742 304 L 699 298 Q 675 297 651 292 Q 609 288 566 281 L 525 276 Z" fill="lightgray"></path>
				<path d="M 520 186 Q 508 132 378 32 Q 356 19 383 20 Q 437 20 547 107 Q 550 114 591 145 Q 603 157 601 167 Q 600 180 573 190 Q 545 203 532 200 Q 525 199 520 186 Z" fill="lightgray"></path>
				<path d="M 696 175 Q 751 117 816 35 Q 832 13 847 7 Q 857 4 865 15 Q 880 28 869 75 Q 857 132 699 207 Q 690 214 687 200 Q 686 187 696 175 Z" fill="lightgray"></path>
</g>
		<text x="40" y="140" font-size="128" fill="#999999">3</text></g>
		<g id="id0:id3:id3" transform="matrix(1.0,0,0,1.0,3072,0.0)">			<g stroke="lightgray" stroke-width="4" transform="scale(4, 4)"> <rect x="0" y="0" width="256" height="256" fill="white" stroke-width="4"/></g>
			<g transform="scale(0.92, -0.92) translate(60, -920)">					<path d="M 273 765 Q 304 740 337 710 Q 352 697 368 698 Q 380 698 385 712 Q 389 728 379 759 Q 372 781 338 795 Q 259 822 244 815 Q 238 811 241 797 Q 245 787 273 765 Z" fill="black"></path>
				<path d="M 276 355 Q 307 397 341 449 Q 374 503 419 537 Q 434 549 421 563 Q 402 579 372 588 Q 350 597 332 585 Q 239 519 86 513 Q 74 514 72 507 Q 69 497 83 487 Q 119 463 151 468 Q 187 481 292 525 Q 311 532 316 524 Q 322 515 309 493 Q 234 345 76 192 Q 61 180 64 177 Q 67 174 80 180 Q 162 220 251 324 L 276 355 Z" fill="black"></path>
				<path d="M 251 324 Q 281 261 244 96 Q 234 54 263 12 Q 264 9 267 7 Q 283 -8 294 17 Q 307 54 307 95 Q 308 248 314 282 Q 321 307 312 316 Q 282 350 276 355 C 255 376 240 352 251 324 Z" fill="black"></path>
				<path d="M 368 396 Q 416 339 439 341 Q 451 340 456 356 Q 457 368 448 385 Q 438 398 417 405 Q 384 418 371 420 Q 362 421 362 411 Q 361 404 368 396 Z" fill="red"></path>
				<path d="M 757 615 Q 770 619 787 621 Q 842 634 850 641 Q 859 648 855 656 Q 848 668 820 676 Q 793 682 759 670 L 707 654 Q 628 633 573 624 L 523 617 Q 493 614 466 612 Q 430 606 455 590 Q 483 571 527 573 L 570 581 Q 637 594 708 607 L 757 615 Z" fill="lightgray"></path>
				<path d="M 573 624 Q 574 664 579 680 Q 583 702 570 717 Q 548 736 519 748 Q 506 754 496 748 Q 487 742 493 726 Q 515 674 523 617 L 527 573 Q 528 494 525 276 C 525 246 566 251 566 281 Q 566 330 566 373 L 566 400 Q 566 442 567 477 L 568 506 Q 568 560 570 581 L 573 624 Z" fill="lightgray"></path>
				<path d="M 742 304 Q 751 466 757 615 L 759 670 Q 759 707 781 803 Q 785 815 764 830 Q 727 851 700 855 Q 682 859 674 850 Q 667 841 675 825 Q 706 779 705 748 Q 706 702 707 654 L 708 607 Q 708 462 699 298 C 697 268 740 274 742 304 Z" fill="lightgray"></path>
				<path d="M 567 477 L 669 496 Q 691 502 682 513 Q 670 526 646 528 Q 609 531 568 506 C 542 491 538 472 567 477 Z" fill="lightgray"></path>
				<path d="M 566 373 Q 567 373 572 373 Q 627 383 668 388 Q 690 392 681 405 Q 671 418 646 421 Q 613 424 566 400 C 539 387 536 373 566 373 Z" fill="lightgray"></path>
				<path d="M 525 276 Q 461 270 393 262 Q 371 261 387 243 Q 400 230 419 223 Q 440 217 456 222 Q 609 261 904 261 Q 920 261 938 260 Q 957 260 963 268 Q 967 280 952 294 Q 891 339 834 320 Q 794 314 742 304 L 699 298 Q 675 297 651 292 Q 609 288 566 281 L 525 276 Z" fill="lightgray"></path>
				<path d="M 520 186 Q 508 132 378 32 Q 356 19 383 20 Q 437 20 547 107 Q 550 114 591 145 Q 603 157 601 167 Q 600 180 573 190 Q 545 203 532 200 Q 525 199 520 186 Z" fill="lightgray"></path>
				<path d="M 696 175 Q 751 117 816 35 Q 832 13 847 7 Q 857 4 865 15 Q 880 28 869 75 Q 857 132 699 207 Q 690 214 687 200 Q 686 187 696 175 Z" fill="lightgray"></path>
</g>
		<text x="40" y="140" font-size="128" fill="#999999">4</text></g>
		<g id="id0:id4:id4" transform="matrix(1.0,0,0,1.0,4096,0.0)">			<g stroke="lightgray" stroke-width="4" transform="scale(4, 4)"> <rect x="0" y="0" width="256" height="256" fill="white" stroke-width="4"/></g>
			<g transform="scale(0.92, -0.92) translate(60, -920)">					<path d="M 273 765 Q 304 740 337 710 Q 352 697 368 698 Q 380 698 385 712 Q 389 728 379 759 Q 372 781 338 795 Q 259 822 244 815 Q 238 811 241 797 Q 245 787 273 765 Z" fill="black"></path>
				<path d="M 276 355 Q 307 397 341 449 Q 374 503 419 537 Q 434 549 421 563 Q 402 579 372 588 Q 350 597 332 585 Q 239 519 86 513 Q 74 514 72 507 Q 69 497 83 487 Q 119 463 151 468 Q 187 481 292 525 Q 311 532 316 524 Q 322 515 309 493 Q 234 345 76 192 Q 61 180 64 177 Q 67 174 80 180 Q 162 220 251 324 L 276 355 Z" fill="black"></path>
				<path d="M 251 324 Q 281 261 244 96 Q 234 54 263 12 Q 264 9 267 7 Q 283 -8 294 17 Q 307 54 307 95 Q 308 248 314 282 Q 321 307 312 316 Q 282 350 276 355 C 255 376 240 352 251 324 Z" fill="black"></path>
				<path d="M 368 396 Q 416 339 439 341 Q 451 340 456 356 Q 457 368 448 385 Q 438 398 417 405 Q 384 418 371 420 Q 362 421 362 411 Q 361 404 368 396 Z" fill="black"></path>
				<path d="M 757 615 Q 770 619 787 621 Q 842 634 850 641 Q 859 648 855 656 Q 848 668 820 676 Q 793 682 759 670 L 707 654 Q 628 633 573 624 L 523 617 Q 493 614 466 612 Q 430 606 455 590 Q 483 571 527 573 L 570 581 Q 637 594 708 607 L 757 615 Z" fill="red"></path>
				<path d="M 573 624 Q 574 664 579 680 Q 583 702 570 717 Q 548 736 519 748 Q 506 754 496 748 Q 487 742 493 726 Q 515 674 523 617 L 527 573 Q 528 494 525 276 C 525 246 566 251 566 281 Q 566 330 566 373 L 566 400 Q 566 442 567 477 L 568 506 Q 568 560 570 581 L 573 624 Z" fill="lightgray"></path>
				<path d="M 742 304 Q 751 466 757 615 L 759 670 Q 759 707 781 803 Q 785 815 764 830 Q 727 851 700 855 Q 682 859 674 850 Q 667 841 675 825 Q 706 779 705 748 Q 706 702 707 654 L 708 607 Q 708 462 699 298 C 697 268 740 274 742 304 Z" fill="lightgray"></path>
				<path d="M 567 477 L 669 496 Q 691 502 682 513 Q 670 526 646 528 Q 609 531 568 506 C 542 491 538 472 567 477 Z" fill="lightgray"></path>
				<path d="M 566 373 Q 567 373 572 373 Q 627 383 668 388 Q 690 392 681 405 Q 671 418 646 421 Q 613 424 566 400 C 539 387 536 373 566 373 Z" fill="lightgray"></path>
				<path d="M 525 276 Q 461 270 393 262 Q 371 261 387 243 Q 400 230 419 223 Q 440 217 456 222 Q 609 261 904 261 Q 920 261 938 260 Q 957 260 963 268 Q 967 280 952 294 Q 891 339 834 320 Q 794 314 742 304 L 699 298 Q 675 297 651 292 Q 609 288 566 281 L 525 276 Z" fill="lightgray"></path>
				<path d="M 520 186 Q 508 132 378 32 Q 356 19 383 20 Q 437 20 547 107 Q 550 114 591 145 Q 603 157 601 167 Q 600 180 573 190 Q 545 203 532 200 Q 525 199 520 186 Z" fill="lightgray"></path>
				<path d="M 696 175 Q 751 117 816 35 Q 832 13 847 7 Q 857 4 865 15 Q 880 28 869 75 Q 857 132 699 207 Q 690 214 687 200 Q 686 187 696 175 Z" fill="lightgray"></path>
</g>
		<text x="40" y="140" font-size="128" fill="#999999">5</text></g>
</g>
	<g id="id1:id1" transform="translate(0.0,1024)">
		<g id="id1:id0:id0" transform="matrix(1.0,0,0,1.0,0,0.0)">			<g stroke="lightgray" stroke-width="4" transform="scale(4, 4)"> <rect x="0" y="0" width="256" height="256" fill="white" stroke-width="4"/></g>
			<g transform="scale(0.92, -0.92) translate(60, -920)">					<path d="M 273 765 Q 304 740 337 710 Q 352 697 368 698 Q 380 698 385 712 Q 389 728 379 759 Q 372 781 338 795 Q 259 822 244 815 Q 238 811 241 797 Q 245 787 273 765 Z" fill="black"></path>
				<path d="M 276 355 Q 307 397 341 449 Q 374 503 419 537 Q 434 549 421 563 Q 402 579 372 588 Q 350 597 332 585 Q 239 519 86 513 Q 74 514 72 507 Q 69 497 83 487 Q 119 463 151 468 Q 187 481 292 525 Q 311 532 316 524 Q 322 515 309 493 Q 234 345 76 192 Q 61 180 64 177 Q 67 174 80 180 Q 162 220 251 324 L 276 355 Z" fill="black"></path>
				<path d="M 251 324 Q 281 261 244 96 Q 234 54 263 12 Q 264 9 267 7 Q 283 -8 294 17 Q 307 54 307 95 Q 308 248 314 282 Q 321 307 312 316 Q 282 350 276 355 C 255 376 240 352 251 324 Z" fill="black"></path>
				<path d="M 368 396 Q 416 339 439 341 Q 451 340 456 356 Q 457 368 448 385 Q 438 398 417 405 Q 384 418 371 420 Q 362 421 362 411 Q 361 404 368 396 Z" fill="black"></path>
				<path d="M 757 615 Q 770 619 787 621 Q 842 634 850 641 Q 859 648 855 656 Q 848 668 820 676 Q 793 682 759 670 L 707 654 Q 628 633 573 624 L 523 617 Q 493 614 466 612 Q 430 606 455 590 Q 483 571 527 573 L 570 581 Q 637 594 708 607 L 757 615 Z" fill="black"></path>
				<path d="M 573 624 Q 574 664 579 680 Q 583 702 570 717 Q 548 736 519 748 Q 506 754 496 748 Q 487 742 493 726 Q 515 674 523 617 L 527 573 Q 528 494 525 276 C 525 246 566 251 566 281 Q 566 330 566 373 L 566 400 Q 566 442 567 477 L 568 506 Q 568 560 570 581 L 573 624 Z" fill="red"></path>
				<path d="M 742 304 Q 751 466 757 615 L 759 670 Q 759 707 781 803 Q 785 815 764 830 Q 727 851 700 855 Q 682 859 674 850 Q 667 841 675 825 Q 706 779 705 748 Q 706 702 707 654 L 708 607 Q 708 462 699 298 C 697 268 740 274 742 304 Z" fill="lightgray"></path>
				<path d="M 567 477 L 669 496 Q 691 502 682 513 Q 670 526 646 528 Q 609 531 568 506 C 542 491 538 472 567 477 Z" fill="lightgray"></path>
				<path d="M 566 373 Q 567 373 572 373 Q 627 383 668 388 Q 690 392 681 405 Q 671 418 646 421 Q 613 424 566 400 C 539 387 536 373 566 373 Z" fill="lightgray"></path>
				<path d="M 525 276 Q 461 270 393 262 Q 371 261 387 243 Q 400 230 419 223 Q 440 217 456 222 Q 609 261 904 261 Q 920 261 938 260 Q 957 260 963 268 Q 967 280 952 294 Q 891 339 834 320 Q 794 314 742 304 L 699 298 Q 675 297 651 292 Q 609 288 566 281 L 525 276 Z" fill="lightgray"></path>
				<path d="M 520 186 Q 508 132 378 32 Q 356 19 383 20 Q 437 20 547 107 Q 550 114 591 145 Q 603 157 601 167 Q 600 180 573 190 Q 545 203 532 200 Q 525 199 520 186 Z" fill="lightgray"></path>
				<path d="M 696 175 Q 751 117 816 35 Q 832 13 847 7 Q 857 4 865 15 Q 880 28 869 75 Q 857 132 699 207 Q 690 214 687 200 Q 686 187 696 175 Z" fill="lightgray"></path>
</g>
		<text x="40" y="140" font-size="128" fill="#999999">6</text></g>
		<g id="id1:id1:id1" transform="matrix(1.0,0,0,1.0,1024,0.0)">			<g stroke="lightgray" stroke-width="4" transform="scale(4, 4)"> <rect x="0" y="0" width="256" height="256" fill="white" stroke-width="4"/></g>
			<g transform="scale(0.92, -0.92) translate(60, -920)">					<path d="M 273 765 Q 304 740 337 710 Q 352 697 368 698 Q 380 698 385 712 Q 389 728 379 759 Q 372 781 338 795 Q 259 822 244 815 Q 238 811 241 797 Q 245 787 273 765 Z" fill="black"></path>
				<path d="M 276 355 Q 307 397 341 449 Q 374 503 419 537 Q 434 549 421 563 Q 402 579 372 588 Q 350 597 332 585 Q 239 519 86 513 Q 74 514 72 507 Q 69 497 83 487 Q 119 463 151 468 Q 187 481 292 525 Q 311 532 316 524 Q 322 515 309 493 Q 234 345 76 192 Q 61 180 64 177 Q 67 174 80 180 Q 162 220 251 324 L 276 355 Z" fill="black"></path>
				<path d="M 251 324 Q 281 261 244 96 Q 234 54 263 12 Q 264 9 267 7 Q 283 -8 294 17 Q 307 54 307 95 Q 308 248 314 282 Q 321 307 312 316 Q 282 350 276 355 C 255 376 240 352 251 324 Z" fill="black"></path>
				<path d="M 368 396 Q 416 339 439 341 Q 451 340 456 356 Q 457 368 448 385 Q 438 398 417 405 Q 384 418 371 420 Q 362 421 362 411 Q 361 404 368 396 Z" fill="black"></path>
				<path d="M 757 615 Q 770 619 787 621 Q 842 634 850 641 Q 859 648 855 656 Q 848 668 820 676 Q 793 682 759 670 L 707 654 Q 628 633 573 624 L 523 617 Q 493 614 466 612 Q 430 606 455 590 Q 483 571 527 573 L 570 581 Q 637 594 708 607 L 757 615 Z" fill="black"></path>
				<path d="M 573 624 Q 574 664 579 680 Q 583 702 570 717 Q 548 736 519 748 Q 506 754 496 748 Q 487 742 493 726 Q 515 674 523 617 L 527 573 Q 528 494 525 276 C 525 246 566 251 566 281 Q 566 330 566 373 L 566 400 Q 566 442 567 477 L 568 506 Q 568 560 570 581 L 573 624 Z" fill="black"></path>
				<path d="M 742 304 Q 751 466 757 615 L 759 670 Q 759 707 781 803 Q 785 815 764 830 Q 727 851 700 855 Q 682 859 674 850 Q 667 841 675 825 Q 706 779 705 748 Q 706 702 707 654 L 708 607 Q 708 462 699 298 C 697 268 740 274 742 304 Z" fill="red"></path>
				<path d="M 567 477 L 669 496 Q 691 502 682 513 Q 670 526 646 528 Q 609 531 568 506 C 542 491 538 472 567 477 Z" fill="lightgray"></path>
				<path d="M 566 373 Q 567 373 572 373 Q 627 383 668 388 Q 690 392 681 405 Q 671 418 646 421 Q 613 424 566 400 C 539 387 536 373 566 373 Z" fill="lightgray"></path>
				<path d="M 525 276 Q 461 270 393 262 Q 371 261 387 243 Q 400 230 419 223 Q 440 217 456 222 Q 609 261 904 261 Q 920 261 938 260 Q 957 260 963 268 Q 967 280 952 294 Q 891 339 834 320 Q 794 314 742 304 L 699 298 Q 675 297 651 292 Q 609 288 566 281 L 525 276 Z" fill="lightgray"></path>
				<path d="M 520 186 Q 508 132 378 32 Q 356 19 383 20 Q 437 20 547 107 Q 550 114 591 145 Q 603 157 601 167 Q 600 180 573 190 Q 545 203 532 200 Q 525 199 520 186 Z" fill="lightgray"></path>
				<path d="M 696 175 Q 751 117 816 35 Q 832 13 847 7 Q 857 4 865 15 Q 880 28 869 75 Q 857 132 699 207 Q 690 214 687 200 Q 686 187 696 175 Z" fill="lightgray"></path>
</g>
		<text x="40" y="140" font-size="128" fill="#999999">7</text></g>
		<g id="id1:id2:id2" transform="matrix(1.0,0,0,1.0,2048,0.0)">			<g stroke="lightgray" stroke-width="4" transform="scale(4, 4)"> <rect x="0" y="0" width="256" height="256" fill="white" stroke-width="4"/></g>
			<g transform="scale(0.92, -0.92) translate(60, -920)">					<path d="M 273 765 Q 304 740 337 710 Q 352 697 368 698 Q 380 698 385 712 Q 389 728 379 759 Q 372 781 338 795 Q 259 822 244 815 Q 238 811 241 797 Q 245 787 273 765 Z" fill="black"></path>
				<path d="M 276 355 Q 307 397 341 449 Q 374 503 419 537 Q 434 549 421 563 Q 402 579 372 588 Q 350 597 332 585 Q 239 519 86 513 Q 74 514 72 507 Q 69 497 83 487 Q 119 463 151 468 Q 187 481 292 525 Q 311 532 316 524 Q 322 515 309 493 Q 234 345 76 192 Q 61 180 64 177 Q 67 174 80 180 Q 162 220 251 324 L 276 355 Z" fill="black"></path>
				<path d="M 251 324 Q 281 261 244 96 Q 234 54 263 12 Q 264 9 267 7 Q 283 -8 294 17 Q 307 54 307 95 Q 308 248 314 282 Q 321 307 312 316 Q 282 350 276 355 C 255 376 240 352 251 324 Z" fill="black"></path>
				<path d="M 368 396 Q 416 339 439 341 Q 451 340 456 356 Q 457 368 448 385 Q 438 398 417 405 Q 384 418 371 420 Q 362 421 362 411 Q 361 404 368 396 Z" fill="black"></path>
				<path d="M 757 615 Q 770 619 787 621 Q 842 634 850 641 Q 859 648 855 656 Q 848 668 820 676 Q 793 682 759 670 L 707 654 Q 628 633 573 624 L 523 617 Q 493 614 466 612 Q 430 606 455 590 Q 483 571 527 573 L 570 581 Q 637 594 708 607 L 757 615 Z" fill="black"></path>
				<path d="M 573 624 Q 574 664 579 680 Q 583 702 570 717 Q 548 736 519 748 Q 506 754 496 748 Q 487 742 493 726 Q 515 674 523 617 L 527 573 Q 528 494 525 276 C 525 246 566 251 566 281 Q 566 330 566 373 L 566 400 Q 566 442 567 477 L 568 506 Q 568 560 570 581 L 573 624 Z" fill="black"></path>
				<path d="M 742 304 Q 751 466 757 615 L 759 670 Q 759 707 781 803 Q 785 815 764 830 Q 727 851 700 855 Q 682 859 674 850 Q 667 841 675 825 Q 706 779 705 748 Q 706 702 707 654 L 708 607 Q 708 462 699 298 C 697 268 740 274 742 304 Z" fill="black"></path>
				<path d="M 567 477 L 669 496 Q 691 502 682 513 Q 670 526 646 528 Q 609 531 568 506 C 542 491 538 472 567 477 Z" fill="red"></path>
				<path d="M 566 373 Q 567 373 572 373 Q 627 383 668 388 Q 690 392 681 405 Q 671 418 646 421 Q 613 424 566 400 C 539 387 536 373 566 373 Z" fill="lightgray"></path>
				<path d="M 525 276 Q 461 270 393 262 Q 371 261 387 243 Q 400 230 419 223 Q 440 217 456 222 Q 609 261 904 261 Q 920 261 938 260 Q 957 260 963 268 Q 967 280 952 294 Q 891 339 834 320 Q 794 314 742 304 L 699 298 Q 675 297 651 292 Q 609 288 566 281 L 525 276 Z" fill="lightgray"></path>
				<path d="M 520 186 Q 508 132 378 32 Q 356 19 383 20 Q 437 20 547 107 Q 550 114 591 145 Q 603 157 601 167 Q 600 180 573 190 Q 545 203 532 200 Q 525 199 520 186 Z" fill="lightgray"></path>
				<path d="M 696 175 Q 751 117 816 35 Q 832 13 847 7 Q 857 4 865 15 Q 880 28 869 75 Q 857 132 699 207 Q 690 214 687 200 Q 686 187 696 175 Z" fill="lightgray"></path>
</g>
		<text x="40" y="140" font-size="128" fill="#999999">8</text></g>
		<g id="id1:id3:id3" transform="matrix(1.0,0,0,1.0,3072,0.0)">			<g stroke="lightgray" stroke-width="4" transform="scale(4, 4)"> <rect x="0" y="0" width="256" height="256" fill="white" stroke-width="4"/></g>
			<g transform="scale(0.92, -0.92) translate(60, -920)">					<path d="M 273 765 Q 304 740 337 710 Q 352 697 368 698 Q 380 698 385 712 Q 389 728 379 759 Q 372 781 338 795 Q 259 822 244 815 Q 238 811 241 797 Q 245 787 273 765 Z" fill="black"></path>
				<path d="M 276 355 Q 307 397 341 449 Q 374 503 419 537 Q 434 549 421 563 Q 402 579 372 588 Q 350 597 332 585 Q 239 519 86 513 Q 74 514 72 507 Q 69 497 83 487 Q 119 463 151 468 Q 187 481 292 525 Q 311 532 316 524 Q 322 515 309 493 Q 234 345 76 192 Q 61 180 64 177 Q 67 174 80 180 Q 162 220 251 324 L 276 355 Z" fill="black"></path>
				<path d="M 251 324 Q 281 261 244 96 Q 234 54 263 12 Q 264 9 267 7 Q 283 -8 294 17 Q 307 54 307 95 Q 308 248 314 282 Q 321 307 312 316 Q 282 350 276 355 C 255 376 240 352 251 324 Z" fill="black"></path>
				<path d="M 368 396 Q 416 339 439 341 Q 451 340 456 356 Q 457 368 448 385 Q 438 398 417 405 Q 384 418 371 420 Q 362 421 362 411 Q 361 404 368 396 Z" fill="black"></path>
				<path d="M 757 615 Q 770 619 787 621 Q 842 634 850 641 Q 859 648 855 656 Q 848 668 820 676 Q 793 682 759 670 L 707 654 Q 628 633 573 624 L 523 617 Q 493 614 466 612 Q 430 606 455 590 Q 483 571 527 573 L 570 581 Q 637 594 708 607 L 757 615 Z" fill="black"></path>
				<path d="M 573 624 Q 574 664 579 680 Q 583 702 570 717 Q 548 736 519 748 Q 506 754 496 748 Q 487 742 493 726 Q 515 674 523 617 L 527 573 Q 528 494 525 276 C 525 246 566 251 566 281 Q 566 330 566 373 L 566 400 Q 566 442 567 477 L 568 506 Q 568 560 570 581 L 573 624 Z" fill="black"></path>
				<path d="M 742 304 Q 751 466 757 615 L 759 670 Q 759 707 781 803 Q 785 815 764 830 Q 727 851 700 855 Q 682 859 674 850 Q 667 841 675 825 Q 706 779 705 748 Q 706 702 707 654 L 708 607 Q 708 462 699 298 C 697 268 740 274 742 304 Z" fill="black"></path>
				<path d="M 567 477 L 669 496 Q 691 502 682 513 Q 670 526 646 528 Q 609 531 568 506 C 542 491 538 472 567 477 Z" fill="black"></path>
				<path d="M 566 373 Q 567 373 572 373 Q 627 383 668 388 Q 690 392 681 405 Q 671 418 646 421 Q 613 424 566 400 C 539 387 536 373 566 373 Z" fill="red"></path>
				<path d="M 525 276 Q 461 270 393 262 Q 371 261 387 243 Q 400 230 419 223 Q 440 217 456 222 Q 609 261 904 261 Q 920 261 938 260 Q 957 260 963 268 Q 967 280 952 294 Q 891 339 834 320 Q 794 314 742 304 L 699 298 Q 675 297 651 292 Q 609 288 566 281 L 525 276 Z" fill="lightgray"></path>
				<path d="M 520 186 Q 508 132 378 32 Q 356 19 383 20 Q 437 20 547 107 Q 550 114 591 145 Q 603 157 601 167 Q 600 180 573 190 Q 545 203 532 200 Q 525 199 520 186 Z" fill="lightgray"></path>
				<path d="M 696 175 Q 751 117 816 35 Q 832 13 847 7 Q 857 4 865 15 Q 880 28 869 75 Q 857 132 699 207 Q 690 214 687 200 Q 686 187 696 175 Z" fill="lightgray"></path>
</g>
		<text x="40" y="140" font-size="128" fill="#999999">9</text></g>
		<g id="id1:id4:id4" transform="matrix(1.0,0,0,1.0,4096,0.0)">			<g stroke="lightgray" stroke-width="4" transform="scale(4, 4)"> <rect x="0" y="0" width="256" height="256" fill="white" stroke-width="4"/></g>
			<g transform="scale(0.92, -0.92) translate(60, -920)">					<path d="M 273 765 Q 304 740 337 710 Q 352 697 368 698 Q 380 698 385 712 Q 389 728 379 759 Q 372 781 338 795 Q 259 822 244 815 Q 238 811 241 797 Q 245 787 273 765 Z" fill="black"></path>
				<path d="M 276 355 Q 307 397 341 449 Q 374 503 419 537 Q 434 549 421 563 Q 402 579 372 588 Q 350 597 332 585 Q 239 519 86 513 Q 74 514 72 507 Q 69 497 83 487 Q 119 463 151 468 Q 187 481 292 525 Q 311 532 316 524 Q 322 515 309 493 Q 234 345 76 192 Q 61 180 64 177 Q 67 174 80 180 Q 162 220 251 324 L 276 355 Z" fill="black"></path>
				<path d="M 251 324 Q 281 261 244 96 Q 234 54 263 12 Q 264 9 267 7 Q 283 -8 294 17 Q 307 54 307 95 Q 308 248 314 282 Q 321 307 312 316 Q 282 350 276 355 C 255 376 240 352 251 324 Z" fill="black"></path>
				<path d="M 368 396 Q 416 339 439 341 Q 451 340 456 356 Q 457 368 448 385 Q 438 398 417 405 Q 384 418 371 420 Q 362 421 362 411 Q 361 404 368 396 Z" fill="black"></path>
				<path d="M 757 615 Q 770 619 787 621 Q 842 634 850 641 Q 859 648 855 656 Q 848 668 820 676 Q 793 682 759 670 L 707 654 Q 628 633 573 624 L 523 617 Q 493 614 466 612 Q 430 606 455 590 Q 483 571 527 573 L 570 581 Q 637 594 708 607 L 757 615 Z" fill="black"></path>
				<path d="M 573 624 Q 574 664 579 680 Q 583 702 570 717 Q 548 736 519 748 Q 506 754 496 748 Q 487 742 493 726 Q 515 674 523 617 L 527 573 Q 528 494 525 276 C 525 246 566 251 566 281 Q 566 330 566 373 L 566 400 Q 566 442 567 477 L 568 506 Q 568 560 570 581 L 573 624 Z" fill="black"></path>
				<path d="M 742 304 Q 751 466 757 615 L 759 670 Q 759 707 781 803 Q 785 815 764 830 Q 727 851 700 855 Q 682 859 674 850 Q 667 841 675 825 Q 706 779 705 748 Q 706 702 707 654 L 708 607 Q 708 462 699 298 C 697 268 740 274 742 304 Z" fill="black"></path>
				<path d="M 567 477 L 669 496 Q 691 502 682 513 Q 670 526 646 528 Q 609 531 568 506 C 542 491 538 472 567 477 Z" fill="black"></path>
				<path d="M 566 373 Q 567 373 572 373 Q 627 383 668 388 Q 690 392 681 405 Q 671 418 646 421 Q 613 424 566 400 C 539 387 536 373 566 373 Z" fill="black"></path>
				<path d="M 525 276 Q 461 270 393 262 Q 371 261 387 243 Q 400 230 419 223 Q 440 217 456 222 Q 609 261 904 261 Q 920 261 938 260 Q 957 260 963 268 Q 967 280 952 294 Q 891 339 834 320 Q 794 314 742 304 L 699 298 Q 675 297 651 292 Q 609 288 566 281 L 525 276 Z" fill="red"></path>
				<path d="M 520 186 Q 508 132 378 32 Q 356 19 383 20 Q 437 20 547 107 Q 550 114 591 145 Q 603 157 601 167 Q 600 180 573 190 Q 545 203 532 200 Q 525 199 520 186 Z" fill="lightgray"></path>
				<path d="M 696 175 Q 751 117 816 35 Q 832 13 847 7 Q 857 4 865 15 Q 880 28 869 75 Q 857 132 699 207 Q 690 214 687 200 Q 686 187 696 175 Z" fill="lightgray"></path>
</g>
		<text x="40" y="140" font-size="128" fill="#999999">10</text></g>
</g>
	<g id="id2:id2" transform="translate(0.0,2048)">
		<g id="id2:id0:id0" transform="matrix(1.0,0,0,1.0,0,0.0)">			<g stroke="lightgray" stroke-width="4" transform="scale(4, 4)"> <rect x="0" y="0" width="256" height="256" fill="white" stroke-width="4"/></g>
			<g transform="scale(0.92, -0.92) translate(60, -920)">					<path d="M 273 765 Q 304 740 337 710 Q 352 697 368 698 Q 380 698 385 712 Q 389 728 379 759 Q 372 781 338 795 Q 259 822 244 815 Q 238 811 241 797 Q 245 787 273 765 Z" fill="black"></path>
				<path d="M 276 355 Q 307 397 341 449 Q 374 503 419 537 Q 434 549 421 563 Q 402 579 372 588 Q 350 597 332 585 Q 239 519 86 513 Q 74 514 72 507 Q 69 497 83 487 Q 119 463 151 468 Q 187 481 292 525 Q 311 532 316 524 Q 322 515 309 493 Q 234 345 76 192 Q 61 180 64 177 Q 67 174 80 180 Q 162 220 251 324 L 276 355 Z" fill="black"></path>
				<path d="M 251 324 Q 281 261 244 96 Q 234 54 263 12 Q 264 9 267 7 Q 283 -8 294 17 Q 307 54 307 95 Q 308 248 314 282 Q 321 307 312 316 Q 282 350 276 355 C 255 376 240 352 251 324 Z" fill="black"></path>
				<path d="M 368 396 Q 416 339 439 341 Q 451 340 456 356 Q 457 368 448 385 Q 438 398 417 405 Q 384 418 371 420 Q 362 421 362 411 Q 361 404 368 396 Z" fill="black"></path>
				<path d="M 757 615 Q 770 619 787 621 Q 842 634 850 641 Q 859 648 855 656 Q 848 668 820 676 Q 793 682 759 670 L 707 654 Q 628 633 573 624 L 523 617 Q 493 614 466 612 Q 430 606 455 590 Q 483 571 527 573 L 570 581 Q 637 594 708 607 L 757 615 Z" fill="black"></path>
				<path d="M 573 624 Q 574 664 579 680 Q 583 702 570 717 Q 548 736 519 748 Q 506 754 496 748 Q 487 742 493 726 Q 515 674 523 617 L 527 573 Q 528 494 525 276 C 525 246 566 251 566 281 Q 566 330 566 373 L 566 400 Q 566 442 567 477 L 568 506 Q 568 560 570 581 L 573 624 Z" fill="black"></path>
				<path d="M 742 304 Q 751 466 757 615 L 759 670 Q 759 707 781 803 Q 785 815 764 830 Q 727 851 700 855 Q 682 859 674 850 Q 667 841 675 825 Q 706 779 705 748 Q 706 702 707 654 L 708 607 Q 708 462 699 298 C 697 268 740 274 742 304 Z" fill="black"></path>
				<path d="M 567 477 L 669 496 Q 691 502 682 513 Q 670 526 646 528 Q 609 531 568 506 C 542 491 538 472 567 477 Z" fill="black"></path>
				<path d="M 566 373 Q 567 373 572 373 Q 627 383 668 388 Q 690 392 681 405 Q 671 418 646 421 Q 613 424 566 400 C 539 387 536 373 566 373 Z" fill="black"></path>
				<path d="M 525 276 Q 461 270 393 262 Q 371 261 387 243 Q 400 230 419 223 Q 440 217 456 222 Q 609 261 904 261 Q 920 261 938 260 Q 957 260 963 268 Q 967 280 952 294 Q 891 339 834 320 Q 794 314 742 304 L 699 298 Q 675 297 651 292 Q 609 288 566 281 L 525 276 Z" fill="black"></path>
				<path d="M 520 186 Q 508 132 378 32 Q 356 19 383 20 Q 437 20 547 107 Q 550 114 591 145 Q 603 157 601 167 Q 600 180 573 190 Q 545 203 532 200 Q 525 199 520 186 Z" fill="red"></path>
				<path d="M 696 175 Q 751 117 816 35 Q 832 13 847 7 Q 857 4 865 15 Q 880 28 869 75 Q 857 132 699 207 Q 690 214 687 200 Q 686 187 696 175 Z" fill="lightgray"></path>
</g>
		<text x="40" y="140" font-size="128" fill="#999999">11</text></g>
		<g id="id2:id1:id1" transform="matrix(1.0,0,0,1.0,1024,0.0)">			<g stroke="lightgray" stroke-width="4" transform="scale(4, 4)"> <rect x="0" y="0" width="256" height="256" fill="white" stroke-width="4"/></g>
			<g transform="scale(0.92, -0.92) translate(60, -920)">					<path d="M 273 765 Q 304 740 337 710 Q 352 697 368 698 Q 380 698 385 712 Q 389 728 379 759 Q 372 781 338 795 Q 259 822 244 815 Q 238 811 241 797 Q 245 787 273 765 Z" fill="black"></path>
				<path d="M 276 355 Q 307 397 341 449 Q 374 503 419 537 Q 434 549 421 563 Q 402 579 372 588 Q 350 597 332 585 Q 239 519 86 513 Q 74 514 72 507 Q 69 497 83 487 Q 119 463 151 468 Q 187 481 292 525 Q 311 532 316 524 Q 322 515 309 493 Q 234 345 76 192 Q 61 180 64 177 Q 67 174 80 180 Q 162 220 251 324 L 276 355 Z" fill="black"></path>
				<path d="M 251 324 Q 281 261 244 96 Q 234 54 263 12 Q 264 9 267 7 Q 283 -8 294 17 Q 307 54 307 95 Q 308 248 314 282 Q 321 307 312 316 Q 282 350 276 355 C 255 376 240 352 251 324 Z" fill="black"></path>
				<path d="M 368 396 Q 416 339 439 341 Q 451 340 456 356 Q 457 368 448 385 Q 438 398 417 405 Q 384 418 371 420 Q 362 421 362 411 Q 361 404 368 396 Z" fill="black"></path>
				<path d="M 757 615 Q 770 619 787 621 Q 842 634 850 641 Q 859 648 855 656 Q 848 668 820 676 Q 793 682 759 670 L 707 654 Q 628 633 573 624 L 523 617 Q 493 614 466 612 Q 430 606 455 590 Q 483 571 527 573 L 570 581 Q 637 594 708 607 L 757 615 Z" fill="black"></path>
				<path d="M 573 624 Q 574 664 579 680 Q 583 702 570 717 Q 548 736 519 748 Q 506 754 496 748 Q 487 742 493 726 Q 515 674 523 617 L 527 573 Q 528 494 525 276 C 525 246 566 251 566 281 Q 566 330 566 373 L 566 400 Q 566 442 567 477 L 568 506 Q 568 560 570 581 L 573 624 Z" fill="black"></path>
				<path d="M 742 304 Q 751 466 757 615 L 759 670 Q 759 707 781 803 Q 785 815 764 830 Q 727 851 700 855 Q 682 859 674 850 Q 667 841 675 825 Q 706 779 705 748 Q 706 702 707 654 L 708 607 Q 708 462 699 298 C 697 268 740 274 742 304 Z" fill="black"></path>
				<path d="M 567 477 L 669 496 Q 691 502 682 513 Q 670 526 646 528 Q 609 531 568 506 C 542 491 538 472 567 477 Z" fill="black"></path>
				<path d="M 566 373 Q 567 373 572 373 Q 627 383 668 388 Q 690 392 681 405 Q 671 418 646 421 Q 613 424 566 400 C 539 387 536 373 566 373 Z" fill="black"></path>
				<path d="M 525 276 Q 461 270 393 262 Q 371 261 387 243 Q 400 230 419 223 Q 440 217 456 222 Q 609 261 904 261 Q 920 261 938 260 Q 957 260 963 268 Q 967 280 952 294 Q 891 339 834 320 Q 794 314 742 304 L 699 298 Q 675 297 651 292 Q 609 288 566 281 L 525 276 Z" fill="black"></path>
				<path d="M 520 186 Q 508 132 378 32 Q 356 19 383 20 Q 437 20 547 107 Q 550 114 591 145 Q 603 157 601 167 Q 600 180 573 190 Q 545 203 532 200 Q 525 199 520 186 Z" fill="black"></path>
				<path d="M 696 175 Q 751 117 816 35 Q 832 13 847 7 Q 857 4 865 15 Q 880 28 869 75 Q 857 132 699 207 Q 690 214 687 200 Q 686 187 696 175 Z" fill="red"></path>
</g>
		<text x="40" y="140" font-size="128" fill="#999999">12</text></g>
		<g id="id2:id2:id2" transform="matrix(1.0,0,0,1.0,2048,0.0)">			<g stroke="white" stroke-width="4" transform="scale(4, 4)"> <rect x="1" y="1" width="255" height="255" fill="white" stroke-width="0"/></g>
</g>
		<g id="id2:id3:id3" transform="matrix(1.0,0,0,1.0,3072,0.0)">			<g stroke="white" stroke-width="4" transform="scale(4, 4)"> <rect x="1" y="1" width="255" height="255" fill="white" stroke-width="0"/></g>
</g>
		<g id="id2:id4:id4" transform="matrix(1.0,0,0,1.0,4096,0.0)">			<g stroke="white" stroke-width="4" transform="scale(4, 4)"> <rect x="1" y="1" width="255" height="255" fill="white" stroke-width="0"/></g>
</g>
</g>
</svg>
