<?xml version="1.0" standalone="no"?>
<!DOCTYPE svg PUBLIC "-//W3C//DTD SVG 1.1//EN"
 "http://www.w3.org/Graphics/SVG/1.1/DTD/svg11.dtd">
<!-- generate by Japanese dictionary app com.asnsami.kanjidictionary -->

<svg xmlns="http://www.w3.org/2000/svg" xmlns:sodipodi="http://sodipodi.sourceforge.net/DTD/sodipodi-0.dtd" version="1.1" width="640" height="256" viewBox="0 0 5120 2048">
	<g id="id0:id0" transform="translate(0.0,0)">
		<g id="id0:id0:id0" transform="matrix(1.0,0,0,1.0,0,0.0)">			<g stroke="lightgray" stroke-width="4" transform="scale(4, 4)"> <rect x="0" y="0" width="256" height="256" fill="white" stroke-width="4"/></g>
			<g transform="scale(0.92, -0.92) translate(60, -920)">					<path d="M 444 794 Q 478 769 514 740 Q 527 728 543 730 Q 553 731 557 744 Q 561 759 550 787 Q 538 818 437 839 Q 421 842 416 839 Q 412 835 413 823 Q 417 813 444 794 Z" fill="red"></path>
				<path d="M 559 660 Q 613 670 753 680 Q 765 679 775 691 Q 776 704 753 716 Q 710 741 649 723 Q 453 687 258 671 Q 227 668 250 649 Q 286 618 316 625 Q 412 641 533 657 L 559 660 Z" fill="lightgray"></path>
				<path d="M 537 565 Q 558 590 585 617 Q 591 620 591 627 Q 588 646 561 660 L 559 660 C 533 671 533 671 533 657 Q 532 657 533 656 Q 536 632 498 580 L 476 552 Q 467 545 460 536 Q 438 515 386 476 Q 379 473 387 471 Q 420 464 504 533 L 537 565 Z" fill="lightgray"></path>
				<path d="M 504 533 Q 531 517 560 494 Q 573 484 583 482 Q 589 483 592 490 Q 598 500 585 527 Q 573 548 537 565 L 498 580 Q 489 589 404 613 Q 398 614 398 607 Q 399 598 408 593 Q 439 575 476 552 L 504 533 Z" fill="lightgray"></path>
				<path d="M 488 413 Q 518 422 552 427 Q 637 440 659 435 C 689 433 694 473 664 471 Q 489 458 357 423 Q 335 417 341 442 Q 344 467 347 492 Q 351 514 341 527 Q 328 543 305 555 Q 295 561 285 558 Q 275 554 283 537 Q 299 500 295 461 Q 291 424 276 408 Q 260 392 266 379 Q 276 366 291 355 Q 304 348 313 355 Q 331 376 444 403 L 488 413 Z" fill="lightgray"></path>
				<path d="M 659 435 Q 665 410 673 394 Q 680 381 691 391 Q 712 412 713 484 Q 722 554 731 569 Q 738 582 729 593 Q 713 606 684 621 Q 674 627 663 622 Q 657 618 659 607 Q 680 577 665 474 Q 664 473 664 471 L 659 435 Z" fill="lightgray"></path>
				<path d="M 253 274 Q 231 292 207 297 Q 201 300 196 293 Q 192 286 197 274 Q 216 238 220 208 Q 226 138 220 59 Q 216 35 226 16 Q 239 -3 256 -16 Q 269 -25 272 -13 Q 279 -9 281 13 Q 284 29 278 89 Q 272 194 272 234 C 272 260 272 260 253 274 Z" fill="lightgray"></path>
				<path d="M 483 282 Q 718 322 746 292 Q 753 285 749 269 Q 745 88 731 61 Q 727 51 713 53 Q 685 56 656 59 Q 628 60 648 44 Q 712 -5 739 -40 Q 751 -55 764 -44 Q 780 -28 790 -1 Q 800 27 805 183 Q 806 241 824 269 Q 840 290 833 298 Q 826 311 774 344 Q 756 359 707 342 Q 604 330 499 315 L 445 307 Q 391 300 361 292 Q 300 279 254 275 Q 253 275 253 274 C 223 270 242 231 272 234 Q 288 233 304 238 Q 352 256 434 272 L 483 282 Z" fill="lightgray"></path>
				<path d="M 585 203 Q 516 190 445 168 Q 438 165 435 167 Q 432 170 436 181 Q 463 241 483 282 L 499 315 Q 521 358 530 371 Q 540 383 532 393 Q 525 403 488 413 C 459 422 434 429 444 403 Q 444 399 449 390 Q 458 372 445 307 L 434 272 Q 401 190 359 146 Q 340 137 347 118 Q 354 103 381 88 Q 394 79 404 92 Q 422 113 597 182 C 625 193 614 209 585 203 Z" fill="lightgray"></path>
				<path d="M 597 182 Q 630 121 639 116 Q 646 115 654 121 Q 661 130 663 152 Q 666 188 587 252 Q 577 258 572 258 Q 568 257 565 248 Q 565 238 585 203 L 597 182 Z" fill="lightgray"></path>
</g>
		<text x="40" y="140" font-size="128" fill="#999999">1</text></g>
		<g id="id0:id1:id1" transform="matrix(1.0,0,0,1.0,1024,0.0)">			<g stroke="lightgray" stroke-width="4" transform="scale(4, 4)"> <rect x="0" y="0" width="256" height="256" fill="white" stroke-width="4"/></g>
			<g transform="scale(0.92, -0.92) translate(60, -920)">					<path d="M 444 794 Q 478 769 514 740 Q 527 728 543 730 Q 553 731 557 744 Q 561 759 550 787 Q 538 818 437 839 Q 421 842 416 839 Q 412 835 413 823 Q 417 813 444 794 Z" fill="black"></path>
				<path d="M 559 660 Q 613 670 753 680 Q 765 679 775 691 Q 776 704 753 716 Q 710 741 649 723 Q 453 687 258 671 Q 227 668 250 649 Q 286 618 316 625 Q 412 641 533 657 L 559 660 Z" fill="red"></path>
				<path d="M 537 565 Q 558 590 585 617 Q 591 620 591 627 Q 588 646 561 660 L 559 660 C 533 671 533 671 533 657 Q 532 657 533 656 Q 536 632 498 580 L 476 552 Q 467 545 460 536 Q 438 515 386 476 Q 379 473 387 471 Q 420 464 504 533 L 537 565 Z" fill="lightgray"></path>
				<path d="M 504 533 Q 531 517 560 494 Q 573 484 583 482 Q 589 483 592 490 Q 598 500 585 527 Q 573 548 537 565 L 498 580 Q 489 589 404 613 Q 398 614 398 607 Q 399 598 408 593 Q 439 575 476 552 L 504 533 Z" fill="lightgray"></path>
				<path d="M 488 413 Q 518 422 552 427 Q 637 440 659 435 C 689 433 694 473 664 471 Q 489 458 357 423 Q 335 417 341 442 Q 344 467 347 492 Q 351 514 341 527 Q 328 543 305 555 Q 295 561 285 558 Q 275 554 283 537 Q 299 500 295 461 Q 291 424 276 408 Q 260 392 266 379 Q 276 366 291 355 Q 304 348 313 355 Q 331 376 444 403 L 488 413 Z" fill="lightgray"></path>
				<path d="M 659 435 Q 665 410 673 394 Q 680 381 691 391 Q 712 412 713 484 Q 722 554 731 569 Q 738 582 729 593 Q 713 606 684 621 Q 674 627 663 622 Q 657 618 659 607 Q 680 577 665 474 Q 664 473 664 471 L 659 435 Z" fill="lightgray"></path>
				<path d="M 253 274 Q 231 292 207 297 Q 201 300 196 293 Q 192 286 197 274 Q 216 238 220 208 Q 226 138 220 59 Q 216 35 226 16 Q 239 -3 256 -16 Q 269 -25 272 -13 Q 279 -9 281 13 Q 284 29 278 89 Q 272 194 272 234 C 272 260 272 260 253 274 Z" fill="lightgray"></path>
				<path d="M 483 282 Q 718 322 746 292 Q 753 285 749 269 Q 745 88 731 61 Q 727 51 713 53 Q 685 56 656 59 Q 628 60 648 44 Q 712 -5 739 -40 Q 751 -55 764 -44 Q 780 -28 790 -1 Q 800 27 805 183 Q 806 241 824 269 Q 840 290 833 298 Q 826 311 774 344 Q 756 359 707 342 Q 604 330 499 315 L 445 307 Q 391 300 361 292 Q 300 279 254 275 Q 253 275 253 274 C 223 270 242 231 272 234 Q 288 233 304 238 Q 352 256 434 272 L 483 282 Z" fill="lightgray"></path>
				<path d="M 585 203 Q 516 190 445 168 Q 438 165 435 167 Q 432 170 436 181 Q 463 241 483 282 L 499 315 Q 521 358 530 371 Q 540 383 532 393 Q 525 403 488 413 C 459 422 434 429 444 403 Q 444 399 449 390 Q 458 372 445 307 L 434 272 Q 401 190 359 146 Q 340 137 347 118 Q 354 103 381 88 Q 394 79 404 92 Q 422 113 597 182 C 625 193 614 209 585 203 Z" fill="lightgray"></path>
				<path d="M 597 182 Q 630 121 639 116 Q 646 115 654 121 Q 661 130 663 152 Q 666 188 587 252 Q 577 258 572 258 Q 568 257 565 248 Q 565 238 585 203 L 597 182 Z" fill="lightgray"></path>
</g>
		<text x="40" y="140" font-size="128" fill="#999999">2</text></g>
		<g id="id0:id2:id2" transform="matrix(1.0,0,0,1.0,2048,0.0)">			<g stroke="lightgray" stroke-width="4" transform="scale(4, 4)"> <rect x="0" y="0" width="256" height="256" fill="white" stroke-width="4"/></g>
			<g transform="scale(0.92, -0.92) translate(60, -920)">					<path d="M 444 794 Q 478 769 514 740 Q 527 728 543 730 Q 553 731 557 744 Q 561 759 550 787 Q 538 818 437 839 Q 421 842 416 839 Q 412 835 413 823 Q 417 813 444 794 Z" fill="black"></path>
				<path d="M 559 660 Q 613 670 753 680 Q 765 679 775 691 Q 776 704 753 716 Q 710 741 649 723 Q 453 687 258 671 Q 227 668 250 649 Q 286 618 316 625 Q 412 641 533 657 L 559 660 Z" fill="black"></path>
				<path d="M 537 565 Q 558 590 585 617 Q 591 620 591 627 Q 588 646 561 660 L 559 660 C 533 671 533 671 533 657 Q 532 657 533 656 Q 536 632 498 580 L 476 552 Q 467 545 460 536 Q 438 515 386 476 Q 379 473 387 471 Q 420 464 504 533 L 537 565 Z" fill="red"></path>
				<path d="M 504 533 Q 531 517 560 494 Q 573 484 583 482 Q 589 483 592 490 Q 598 500 585 527 Q 573 548 537 565 L 498 580 Q 489 589 404 613 Q 398 614 398 607 Q 399 598 408 593 Q 439 575 476 552 L 504 533 Z" fill="lightgray"></path>
				<path d="M 488 413 Q 518 422 552 427 Q 637 440 659 435 C 689 433 694 473 664 471 Q 489 458 357 423 Q 335 417 341 442 Q 344 467 347 492 Q 351 514 341 527 Q 328 543 305 555 Q 295 561 285 558 Q 275 554 283 537 Q 299 500 295 461 Q 291 424 276 408 Q 260 392 266 379 Q 276 366 291 355 Q 304 348 313 355 Q 331 376 444 403 L 488 413 Z" fill="lightgray"></path>
				<path d="M 659 435 Q 665 410 673 394 Q 680 381 691 391 Q 712 412 713 484 Q 722 554 731 569 Q 738 582 729 593 Q 713 606 684 621 Q 674 627 663 622 Q 657 618 659 607 Q 680 577 665 474 Q 664 473 664 471 L 659 435 Z" fill="lightgray"></path>
				<path d="M 253 274 Q 231 292 207 297 Q 201 300 196 293 Q 192 286 197 274 Q 216 238 220 208 Q 226 138 220 59 Q 216 35 226 16 Q 239 -3 256 -16 Q 269 -25 272 -13 Q 279 -9 281 13 Q 284 29 278 89 Q 272 194 272 234 C 272 260 272 260 253 274 Z" fill="lightgray"></path>
				<path d="M 483 282 Q 718 322 746 292 Q 753 285 749 269 Q 745 88 731 61 Q 727 51 713 53 Q 685 56 656 59 Q 628 60 648 44 Q 712 -5 739 -40 Q 751 -55 764 -44 Q 780 -28 790 -1 Q 800 27 805 183 Q 806 241 824 269 Q 840 290 833 298 Q 826 311 774 344 Q 756 359 707 342 Q 604 330 499 315 L 445 307 Q 391 300 361 292 Q 300 279 254 275 Q 253 275 253 274 C 223 270 242 231 272 234 Q 288 233 304 238 Q 352 256 434 272 L 483 282 Z" fill="lightgray"></path>
				<path d="M 585 203 Q 516 190 445 168 Q 438 165 435 167 Q 432 170 436 181 Q 463 241 483 282 L 499 315 Q 521 358 530 371 Q 540 383 532 393 Q 525 403 488 413 C 459 422 434 429 444 403 Q 444 399 449 390 Q 458 372 445 307 L 434 272 Q 401 190 359 146 Q 340 137 347 118 Q 354 103 381 88 Q 394 79 404 92 Q 422 113 597 182 C 625 193 614 209 585 203 Z" fill="lightgray"></path>
				<path d="M 597 182 Q 630 121 639 116 Q 646 115 654 121 Q 661 130 663 152 Q 666 188 587 252 Q 577 258 572 258 Q 568 257 565 248 Q 565 238 585 203 L 597 182 Z" fill="lightgray"></path>
</g>
		<text x="40" y="140" font-size="128" fill="#999999">3</text></g>
		<g id="id0:id3:id3" transform="matrix(1.0,0,0,1.0,3072,0.0)">			<g stroke="lightgray" stroke-width="4" transform="scale(4, 4)"> <rect x="0" y="0" width="256" height="256" fill="white" stroke-width="4"/></g>
			<g transform="scale(0.92, -0.92) translate(60, -920)">					<path d="M 444 794 Q 478 769 514 740 Q 527 728 543 730 Q 553 731 557 744 Q 561 759 550 787 Q 538 818 437 839 Q 421 842 416 839 Q 412 835 413 823 Q 417 813 444 794 Z" fill="black"></path>
				<path d="M 559 660 Q 613 670 753 680 Q 765 679 775 691 Q 776 704 753 716 Q 710 741 649 723 Q 453 687 258 671 Q 227 668 250 649 Q 286 618 316 625 Q 412 641 533 657 L 559 660 Z" fill="black"></path>
				<path d="M 537 565 Q 558 590 585 617 Q 591 620 591 627 Q 588 646 561 660 L 559 660 C 533 671 533 671 533 657 Q 532 657 533 656 Q 536 632 498 580 L 476 552 Q 467 545 460 536 Q 438 515 386 476 Q 379 473 387 471 Q 420 464 504 533 L 537 565 Z" fill="black"></path>
				<path d="M 504 533 Q 531 517 560 494 Q 573 484 583 482 Q 589 483 592 490 Q 598 500 585 527 Q 573 548 537 565 L 498 580 Q 489 589 404 613 Q 398 614 398 607 Q 399 598 408 593 Q 439 575 476 552 L 504 533 Z" fill="red"></path>
				<path d="M 488 413 Q 518 422 552 427 Q 637 440 659 435 C 689 433 694 473 664 471 Q 489 458 357 423 Q 335 417 341 442 Q 344 467 347 492 Q 351 514 341 527 Q 328 543 305 555 Q 295 561 285 558 Q 275 554 283 537 Q 299 500 295 461 Q 291 424 276 408 Q 260 392 266 379 Q 276 366 291 355 Q 304 348 313 355 Q 331 376 444 403 L 488 413 Z" fill="lightgray"></path>
				<path d="M 659 435 Q 665 410 673 394 Q 680 381 691 391 Q 712 412 713 484 Q 722 554 731 569 Q 738 582 729 593 Q 713 606 684 621 Q 674 627 663 622 Q 657 618 659 607 Q 680 577 665 474 Q 664 473 664 471 L 659 435 Z" fill="lightgray"></path>
				<path d="M 253 274 Q 231 292 207 297 Q 201 300 196 293 Q 192 286 197 274 Q 216 238 220 208 Q 226 138 220 59 Q 216 35 226 16 Q 239 -3 256 -16 Q 269 -25 272 -13 Q 279 -9 281 13 Q 284 29 278 89 Q 272 194 272 234 C 272 260 272 260 253 274 Z" fill="lightgray"></path>
				<path d="M 483 282 Q 718 322 746 292 Q 753 285 749 269 Q 745 88 731 61 Q 727 51 713 53 Q 685 56 656 59 Q 628 60 648 44 Q 712 -5 739 -40 Q 751 -55 764 -44 Q 780 -28 790 -1 Q 800 27 805 183 Q 806 241 824 269 Q 840 290 833 298 Q 826 311 774 344 Q 756 359 707 342 Q 604 330 499 315 L 445 307 Q 391 300 361 292 Q 300 279 254 275 Q 253 275 253 274 C 223 270 242 231 272 234 Q 288 233 304 238 Q 352 256 434 272 L 483 282 Z" fill="lightgray"></path>
				<path d="M 585 203 Q 516 190 445 168 Q 438 165 435 167 Q 432 170 436 181 Q 463 241 483 282 L 499 315 Q 521 358 530 371 Q 540 383 532 393 Q 525 403 488 413 C 459 422 434 429 444 403 Q 444 399 449 390 Q 458 372 445 307 L 434 272 Q 401 190 359 146 Q 340 137 347 118 Q 354 103 381 88 Q 394 79 404 92 Q 422 113 597 182 C 625 193 614 209 585 203 Z" fill="lightgray"></path>
				<path d="M 597 182 Q 630 121 639 116 Q 646 115 654 121 Q 661 130 663 152 Q 666 188 587 252 Q 577 258 572 258 Q 568 257 565 248 Q 565 238 585 203 L 597 182 Z" fill="lightgray"></path>
</g>
		<text x="40" y="140" font-size="128" fill="#999999">4</text></g>
		<g id="id0:id4:id4" transform="matrix(1.0,0,0,1.0,4096,0.0)">			<g stroke="lightgray" stroke-width="4" transform="scale(4, 4)"> <rect x="0" y="0" width="256" height="256" fill="white" stroke-width="4"/></g>
			<g transform="scale(0.92, -0.92) translate(60, -920)">					<path d="M 444 794 Q 478 769 514 740 Q 527 728 543 730 Q 553 731 557 744 Q 561 759 550 787 Q 538 818 437 839 Q 421 842 416 839 Q 412 835 413 823 Q 417 813 444 794 Z" fill="black"></path>
				<path d="M 559 660 Q 613 670 753 680 Q 765 679 775 691 Q 776 704 753 716 Q 710 741 649 723 Q 453 687 258 671 Q 227 668 250 649 Q 286 618 316 625 Q 412 641 533 657 L 559 660 Z" fill="black"></path>
				<path d="M 537 565 Q 558 590 585 617 Q 591 620 591 627 Q 588 646 561 660 L 559 660 C 533 671 533 671 533 657 Q 532 657 533 656 Q 536 632 498 580 L 476 552 Q 467 545 460 536 Q 438 515 386 476 Q 379 473 387 471 Q 420 464 504 533 L 537 565 Z" fill="black"></path>
				<path d="M 504 533 Q 531 517 560 494 Q 573 484 583 482 Q 589 483 592 490 Q 598 500 585 527 Q 573 548 537 565 L 498 580 Q 489 589 404 613 Q 398 614 398 607 Q 399 598 408 593 Q 439 575 476 552 L 504 533 Z" fill="black"></path>
				<path d="M 488 413 Q 518 422 552 427 Q 637 440 659 435 C 689 433 694 473 664 471 Q 489 458 357 423 Q 335 417 341 442 Q 344 467 347 492 Q 351 514 341 527 Q 328 543 305 555 Q 295 561 285 558 Q 275 554 283 537 Q 299 500 295 461 Q 291 424 276 408 Q 260 392 266 379 Q 276 366 291 355 Q 304 348 313 355 Q 331 376 444 403 L 488 413 Z" fill="red"></path>
				<path d="M 659 435 Q 665 410 673 394 Q 680 381 691 391 Q 712 412 713 484 Q 722 554 731 569 Q 738 582 729 593 Q 713 606 684 621 Q 674 627 663 622 Q 657 618 659 607 Q 680 577 665 474 Q 664 473 664 471 L 659 435 Z" fill="lightgray"></path>
				<path d="M 253 274 Q 231 292 207 297 Q 201 300 196 293 Q 192 286 197 274 Q 216 238 220 208 Q 226 138 220 59 Q 216 35 226 16 Q 239 -3 256 -16 Q 269 -25 272 -13 Q 279 -9 281 13 Q 284 29 278 89 Q 272 194 272 234 C 272 260 272 260 253 274 Z" fill="lightgray"></path>
				<path d="M 483 282 Q 718 322 746 292 Q 753 285 749 269 Q 745 88 731 61 Q 727 51 713 53 Q 685 56 656 59 Q 628 60 648 44 Q 712 -5 739 -40 Q 751 -55 764 -44 Q 780 -28 790 -1 Q 800 27 805 183 Q 806 241 824 269 Q 840 290 833 298 Q 826 311 774 344 Q 756 359 707 342 Q 604 330 499 315 L 445 307 Q 391 300 361 292 Q 300 279 254 275 Q 253 275 253 274 C 223 270 242 231 272 234 Q 288 233 304 238 Q 352 256 434 272 L 483 282 Z" fill="lightgray"></path>
				<path d="M 585 203 Q 516 190 445 168 Q 438 165 435 167 Q 432 170 436 181 Q 463 241 483 282 L 499 315 Q 521 358 530 371 Q 540 383 532 393 Q 525 403 488 413 C 459 422 434 429 444 403 Q 444 399 449 390 Q 458 372 445 307 L 434 272 Q 401 190 359 146 Q 340 137 347 118 Q 354 103 381 88 Q 394 79 404 92 Q 422 113 597 182 C 625 193 614 209 585 203 Z" fill="lightgray"></path>
				<path d="M 597 182 Q 630 121 639 116 Q 646 115 654 121 Q 661 130 663 152 Q 666 188 587 252 Q 577 258 572 258 Q 568 257 565 248 Q 565 238 585 203 L 597 182 Z" fill="lightgray"></path>
</g>
		<text x="40" y="140" font-size="128" fill="#999999">5</text></g>
</g>
	<g id="id1:id1" transform="translate(0.0,1024)">
		<g id="id1:id0:id0" transform="matrix(1.0,0,0,1.0,0,0.0)">			<g stroke="lightgray" stroke-width="4" transform="scale(4, 4)"> <rect x="0" y="0" width="256" height="256" fill="white" stroke-width="4"/></g>
			<g transform="scale(0.92, -0.92) translate(60, -920)">					<path d="M 444 794 Q 478 769 514 740 Q 527 728 543 730 Q 553 731 557 744 Q 561 759 550 787 Q 538 818 437 839 Q 421 842 416 839 Q 412 835 413 823 Q 417 813 444 794 Z" fill="black"></path>
				<path d="M 559 660 Q 613 670 753 680 Q 765 679 775 691 Q 776 704 753 716 Q 710 741 649 723 Q 453 687 258 671 Q 227 668 250 649 Q 286 618 316 625 Q 412 641 533 657 L 559 660 Z" fill="black"></path>
				<path d="M 537 565 Q 558 590 585 617 Q 591 620 591 627 Q 588 646 561 660 L 559 660 C 533 671 533 671 533 657 Q 532 657 533 656 Q 536 632 498 580 L 476 552 Q 467 545 460 536 Q 438 515 386 476 Q 379 473 387 471 Q 420 464 504 533 L 537 565 Z" fill="black"></path>
				<path d="M 504 533 Q 531 517 560 494 Q 573 484 583 482 Q 589 483 592 490 Q 598 500 585 527 Q 573 548 537 565 L 498 580 Q 489 589 404 613 Q 398 614 398 607 Q 399 598 408 593 Q 439 575 476 552 L 504 533 Z" fill="black"></path>
				<path d="M 488 413 Q 518 422 552 427 Q 637 440 659 435 C 689 433 694 473 664 471 Q 489 458 357 423 Q 335 417 341 442 Q 344 467 347 492 Q 351 514 341 527 Q 328 543 305 555 Q 295 561 285 558 Q 275 554 283 537 Q 299 500 295 461 Q 291 424 276 408 Q 260 392 266 379 Q 276 366 291 355 Q 304 348 313 355 Q 331 376 444 403 L 488 413 Z" fill="black"></path>
				<path d="M 659 435 Q 665 410 673 394 Q 680 381 691 391 Q 712 412 713 484 Q 722 554 731 569 Q 738 582 729 593 Q 713 606 684 621 Q 674 627 663 622 Q 657 618 659 607 Q 680 577 665 474 Q 664 473 664 471 L 659 435 Z" fill="red"></path>
				<path d="M 253 274 Q 231 292 207 297 Q 201 300 196 293 Q 192 286 197 274 Q 216 238 220 208 Q 226 138 220 59 Q 216 35 226 16 Q 239 -3 256 -16 Q 269 -25 272 -13 Q 279 -9 281 13 Q 284 29 278 89 Q 272 194 272 234 C 272 260 272 260 253 274 Z" fill="lightgray"></path>
				<path d="M 483 282 Q 718 322 746 292 Q 753 285 749 269 Q 745 88 731 61 Q 727 51 713 53 Q 685 56 656 59 Q 628 60 648 44 Q 712 -5 739 -40 Q 751 -55 764 -44 Q 780 -28 790 -1 Q 800 27 805 183 Q 806 241 824 269 Q 840 290 833 298 Q 826 311 774 344 Q 756 359 707 342 Q 604 330 499 315 L 445 307 Q 391 300 361 292 Q 300 279 254 275 Q 253 275 253 274 C 223 270 242 231 272 234 Q 288 233 304 238 Q 352 256 434 272 L 483 282 Z" fill="lightgray"></path>
				<path d="M 585 203 Q 516 190 445 168 Q 438 165 435 167 Q 432 170 436 181 Q 463 241 483 282 L 499 315 Q 521 358 530 371 Q 540 383 532 393 Q 525 403 488 413 C 459 422 434 429 444 403 Q 444 399 449 390 Q 458 372 445 307 L 434 272 Q 401 190 359 146 Q 340 137 347 118 Q 354 103 381 88 Q 394 79 404 92 Q 422 113 597 182 C 625 193 614 209 585 203 Z" fill="lightgray"></path>
				<path d="M 597 182 Q 630 121 639 116 Q 646 115 654 121 Q 661 130 663 152 Q 666 188 587 252 Q 577 258 572 258 Q 568 257 565 248 Q 565 238 585 203 L 597 182 Z" fill="lightgray"></path>
</g>
		<text x="40" y="140" font-size="128" fill="#999999">6</text></g>
		<g id="id1:id1:id1" transform="matrix(1.0,0,0,1.0,1024,0.0)">			<g stroke="lightgray" stroke-width="4" transform="scale(4, 4)"> <rect x="0" y="0" width="256" height="256" fill="white" stroke-width="4"/></g>
			<g transform="scale(0.92, -0.92) translate(60, -920)">					<path d="M 444 794 Q 478 769 514 740 Q 527 728 543 730 Q 553 731 557 744 Q 561 759 550 787 Q 538 818 437 839 Q 421 842 416 839 Q 412 835 413 823 Q 417 813 444 794 Z" fill="black"></path>
				<path d="M 559 660 Q 613 670 753 680 Q 765 679 775 691 Q 776 704 753 716 Q 710 741 649 723 Q 453 687 258 671 Q 227 668 250 649 Q 286 618 316 625 Q 412 641 533 657 L 559 660 Z" fill="black"></path>
				<path d="M 537 565 Q 558 590 585 617 Q 591 620 591 627 Q 588 646 561 660 L 559 660 C 533 671 533 671 533 657 Q 532 657 533 656 Q 536 632 498 580 L 476 552 Q 467 545 460 536 Q 438 515 386 476 Q 379 473 387 471 Q 420 464 504 533 L 537 565 Z" fill="black"></path>
				<path d="M 504 533 Q 531 517 560 494 Q 573 484 583 482 Q 589 483 592 490 Q 598 500 585 527 Q 573 548 537 565 L 498 580 Q 489 589 404 613 Q 398 614 398 607 Q 399 598 408 593 Q 439 575 476 552 L 504 533 Z" fill="black"></path>
				<path d="M 488 413 Q 518 422 552 427 Q 637 440 659 435 C 689 433 694 473 664 471 Q 489 458 357 423 Q 335 417 341 442 Q 344 467 347 492 Q 351 514 341 527 Q 328 543 305 555 Q 295 561 285 558 Q 275 554 283 537 Q 299 500 295 461 Q 291 424 276 408 Q 260 392 266 379 Q 276 366 291 355 Q 304 348 313 355 Q 331 376 444 403 L 488 413 Z" fill="black"></path>
				<path d="M 659 435 Q 665 410 673 394 Q 680 381 691 391 Q 712 412 713 484 Q 722 554 731 569 Q 738 582 729 593 Q 713 606 684 621 Q 674 627 663 622 Q 657 618 659 607 Q 680 577 665 474 Q 664 473 664 471 L 659 435 Z" fill="black"></path>
				<path d="M 253 274 Q 231 292 207 297 Q 201 300 196 293 Q 192 286 197 274 Q 216 238 220 208 Q 226 138 220 59 Q 216 35 226 16 Q 239 -3 256 -16 Q 269 -25 272 -13 Q 279 -9 281 13 Q 284 29 278 89 Q 272 194 272 234 C 272 260 272 260 253 274 Z" fill="red"></path>
				<path d="M 483 282 Q 718 322 746 292 Q 753 285 749 269 Q 745 88 731 61 Q 727 51 713 53 Q 685 56 656 59 Q 628 60 648 44 Q 712 -5 739 -40 Q 751 -55 764 -44 Q 780 -28 790 -1 Q 800 27 805 183 Q 806 241 824 269 Q 840 290 833 298 Q 826 311 774 344 Q 756 359 707 342 Q 604 330 499 315 L 445 307 Q 391 300 361 292 Q 300 279 254 275 Q 253 275 253 274 C 223 270 242 231 272 234 Q 288 233 304 238 Q 352 256 434 272 L 483 282 Z" fill="lightgray"></path>
				<path d="M 585 203 Q 516 190 445 168 Q 438 165 435 167 Q 432 170 436 181 Q 463 241 483 282 L 499 315 Q 521 358 530 371 Q 540 383 532 393 Q 525 403 488 413 C 459 422 434 429 444 403 Q 444 399 449 390 Q 458 372 445 307 L 434 272 Q 401 190 359 146 Q 340 137 347 118 Q 354 103 381 88 Q 394 79 404 92 Q 422 113 597 182 C 625 193 614 209 585 203 Z" fill="lightgray"></path>
				<path d="M 597 182 Q 630 121 639 116 Q 646 115 654 121 Q 661 130 663 152 Q 666 188 587 252 Q 577 258 572 258 Q 568 257 565 248 Q 565 238 585 203 L 597 182 Z" fill="lightgray"></path>
</g>
		<text x="40" y="140" font-size="128" fill="#999999">7</text></g>
		<g id="id1:id2:id2" transform="matrix(1.0,0,0,1.0,2048,0.0)">			<g stroke="lightgray" stroke-width="4" transform="scale(4, 4)"> <rect x="0" y="0" width="256" height="256" fill="white" stroke-width="4"/></g>
			<g transform="scale(0.92, -0.92) translate(60, -920)">					<path d="M 444 794 Q 478 769 514 740 Q 527 728 543 730 Q 553 731 557 744 Q 561 759 550 787 Q 538 818 437 839 Q 421 842 416 839 Q 412 835 413 823 Q 417 813 444 794 Z" fill="black"></path>
				<path d="M 559 660 Q 613 670 753 680 Q 765 679 775 691 Q 776 704 753 716 Q 710 741 649 723 Q 453 687 258 671 Q 227 668 250 649 Q 286 618 316 625 Q 412 641 533 657 L 559 660 Z" fill="black"></path>
				<path d="M 537 565 Q 558 590 585 617 Q 591 620 591 627 Q 588 646 561 660 L 559 660 C 533 671 533 671 533 657 Q 532 657 533 656 Q 536 632 498 580 L 476 552 Q 467 545 460 536 Q 438 515 386 476 Q 379 473 387 471 Q 420 464 504 533 L 537 565 Z" fill="black"></path>
				<path d="M 504 533 Q 531 517 560 494 Q 573 484 583 482 Q 589 483 592 490 Q 598 500 585 527 Q 573 548 537 565 L 498 580 Q 489 589 404 613 Q 398 614 398 607 Q 399 598 408 593 Q 439 575 476 552 L 504 533 Z" fill="black"></path>
				<path d="M 488 413 Q 518 422 552 427 Q 637 440 659 435 C 689 433 694 473 664 471 Q 489 458 357 423 Q 335 417 341 442 Q 344 467 347 492 Q 351 514 341 527 Q 328 543 305 555 Q 295 561 285 558 Q 275 554 283 537 Q 299 500 295 461 Q 291 424 276 408 Q 260 392 266 379 Q 276 366 291 355 Q 304 348 313 355 Q 331 376 444 403 L 488 413 Z" fill="black"></path>
				<path d="M 659 435 Q 665 410 673 394 Q 680 381 691 391 Q 712 412 713 484 Q 722 554 731 569 Q 738 582 729 593 Q 713 606 684 621 Q 674 627 663 622 Q 657 618 659 607 Q 680 577 665 474 Q 664 473 664 471 L 659 435 Z" fill="black"></path>
				<path d="M 253 274 Q 231 292 207 297 Q 201 300 196 293 Q 192 286 197 274 Q 216 238 220 208 Q 226 138 220 59 Q 216 35 226 16 Q 239 -3 256 -16 Q 269 -25 272 -13 Q 279 -9 281 13 Q 284 29 278 89 Q 272 194 272 234 C 272 260 272 260 253 274 Z" fill="black"></path>
				<path d="M 483 282 Q 718 322 746 292 Q 753 285 749 269 Q 745 88 731 61 Q 727 51 713 53 Q 685 56 656 59 Q 628 60 648 44 Q 712 -5 739 -40 Q 751 -55 764 -44 Q 780 -28 790 -1 Q 800 27 805 183 Q 806 241 824 269 Q 840 290 833 298 Q 826 311 774 344 Q 756 359 707 342 Q 604 330 499 315 L 445 307 Q 391 300 361 292 Q 300 279 254 275 Q 253 275 253 274 C 223 270 242 231 272 234 Q 288 233 304 238 Q 352 256 434 272 L 483 282 Z" fill="red"></path>
				<path d="M 585 203 Q 516 190 445 168 Q 438 165 435 167 Q 432 170 436 181 Q 463 241 483 282 L 499 315 Q 521 358 530 371 Q 540 383 532 393 Q 525 403 488 413 C 459 422 434 429 444 403 Q 444 399 449 390 Q 458 372 445 307 L 434 272 Q 401 190 359 146 Q 340 137 347 118 Q 354 103 381 88 Q 394 79 404 92 Q 422 113 597 182 C 625 193 614 209 585 203 Z" fill="lightgray"></path>
				<path d="M 597 182 Q 630 121 639 116 Q 646 115 654 121 Q 661 130 663 152 Q 666 188 587 252 Q 577 258 572 258 Q 568 257 565 248 Q 565 238 585 203 L 597 182 Z" fill="lightgray"></path>
</g>
		<text x="40" y="140" font-size="128" fill="#999999">8</text></g>
		<g id="id1:id3:id3" transform="matrix(1.0,0,0,1.0,3072,0.0)">			<g stroke="lightgray" stroke-width="4" transform="scale(4, 4)"> <rect x="0" y="0" width="256" height="256" fill="white" stroke-width="4"/></g>
			<g transform="scale(0.92, -0.92) translate(60, -920)">					<path d="M 444 794 Q 478 769 514 740 Q 527 728 543 730 Q 553 731 557 744 Q 561 759 550 787 Q 538 818 437 839 Q 421 842 416 839 Q 412 835 413 823 Q 417 813 444 794 Z" fill="black"></path>
				<path d="M 559 660 Q 613 670 753 680 Q 765 679 775 691 Q 776 704 753 716 Q 710 741 649 723 Q 453 687 258 671 Q 227 668 250 649 Q 286 618 316 625 Q 412 641 533 657 L 559 660 Z" fill="black"></path>
				<path d="M 537 565 Q 558 590 585 617 Q 591 620 591 627 Q 588 646 561 660 L 559 660 C 533 671 533 671 533 657 Q 532 657 533 656 Q 536 632 498 580 L 476 552 Q 467 545 460 536 Q 438 515 386 476 Q 379 473 387 471 Q 420 464 504 533 L 537 565 Z" fill="black"></path>
				<path d="M 504 533 Q 531 517 560 494 Q 573 484 583 482 Q 589 483 592 490 Q 598 500 585 527 Q 573 548 537 565 L 498 580 Q 489 589 404 613 Q 398 614 398 607 Q 399 598 408 593 Q 439 575 476 552 L 504 533 Z" fill="black"></path>
				<path d="M 488 413 Q 518 422 552 427 Q 637 440 659 435 C 689 433 694 473 664 471 Q 489 458 357 423 Q 335 417 341 442 Q 344 467 347 492 Q 351 514 341 527 Q 328 543 305 555 Q 295 561 285 558 Q 275 554 283 537 Q 299 500 295 461 Q 291 424 276 408 Q 260 392 266 379 Q 276 366 291 355 Q 304 348 313 355 Q 331 376 444 403 L 488 413 Z" fill="black"></path>
				<path d="M 659 435 Q 665 410 673 394 Q 680 381 691 391 Q 712 412 713 484 Q 722 554 731 569 Q 738 582 729 593 Q 713 606 684 621 Q 674 627 663 622 Q 657 618 659 607 Q 680 577 665 474 Q 664 473 664 471 L 659 435 Z" fill="black"></path>
				<path d="M 253 274 Q 231 292 207 297 Q 201 300 196 293 Q 192 286 197 274 Q 216 238 220 208 Q 226 138 220 59 Q 216 35 226 16 Q 239 -3 256 -16 Q 269 -25 272 -13 Q 279 -9 281 13 Q 284 29 278 89 Q 272 194 272 234 C 272 260 272 260 253 274 Z" fill="black"></path>
				<path d="M 483 282 Q 718 322 746 292 Q 753 285 749 269 Q 745 88 731 61 Q 727 51 713 53 Q 685 56 656 59 Q 628 60 648 44 Q 712 -5 739 -40 Q 751 -55 764 -44 Q 780 -28 790 -1 Q 800 27 805 183 Q 806 241 824 269 Q 840 290 833 298 Q 826 311 774 344 Q 756 359 707 342 Q 604 330 499 315 L 445 307 Q 391 300 361 292 Q 300 279 254 275 Q 253 275 253 274 C 223 270 242 231 272 234 Q 288 233 304 238 Q 352 256 434 272 L 483 282 Z" fill="black"></path>
				<path d="M 585 203 Q 516 190 445 168 Q 438 165 435 167 Q 432 170 436 181 Q 463 241 483 282 L 499 315 Q 521 358 530 371 Q 540 383 532 393 Q 525 403 488 413 C 459 422 434 429 444 403 Q 444 399 449 390 Q 458 372 445 307 L 434 272 Q 401 190 359 146 Q 340 137 347 118 Q 354 103 381 88 Q 394 79 404 92 Q 422 113 597 182 C 625 193 614 209 585 203 Z" fill="red"></path>
				<path d="M 597 182 Q 630 121 639 116 Q 646 115 654 121 Q 661 130 663 152 Q 666 188 587 252 Q 577 258 572 258 Q 568 257 565 248 Q 565 238 585 203 L 597 182 Z" fill="lightgray"></path>
</g>
		<text x="40" y="140" font-size="128" fill="#999999">9</text></g>
		<g id="id1:id4:id4" transform="matrix(1.0,0,0,1.0,4096,0.0)">			<g stroke="lightgray" stroke-width="4" transform="scale(4, 4)"> <rect x="0" y="0" width="256" height="256" fill="white" stroke-width="4"/></g>
			<g transform="scale(0.92, -0.92) translate(60, -920)">					<path d="M 444 794 Q 478 769 514 740 Q 527 728 543 730 Q 553 731 557 744 Q 561 759 550 787 Q 538 818 437 839 Q 421 842 416 839 Q 412 835 413 823 Q 417 813 444 794 Z" fill="black"></path>
				<path d="M 559 660 Q 613 670 753 680 Q 765 679 775 691 Q 776 704 753 716 Q 710 741 649 723 Q 453 687 258 671 Q 227 668 250 649 Q 286 618 316 625 Q 412 641 533 657 L 559 660 Z" fill="black"></path>
				<path d="M 537 565 Q 558 590 585 617 Q 591 620 591 627 Q 588 646 561 660 L 559 660 C 533 671 533 671 533 657 Q 532 657 533 656 Q 536 632 498 580 L 476 552 Q 467 545 460 536 Q 438 515 386 476 Q 379 473 387 471 Q 420 464 504 533 L 537 565 Z" fill="black"></path>
				<path d="M 504 533 Q 531 517 560 494 Q 573 484 583 482 Q 589 483 592 490 Q 598 500 585 527 Q 573 548 537 565 L 498 580 Q 489 589 404 613 Q 398 614 398 607 Q 399 598 408 593 Q 439 575 476 552 L 504 533 Z" fill="black"></path>
				<path d="M 488 413 Q 518 422 552 427 Q 637 440 659 435 C 689 433 694 473 664 471 Q 489 458 357 423 Q 335 417 341 442 Q 344 467 347 492 Q 351 514 341 527 Q 328 543 305 555 Q 295 561 285 558 Q 275 554 283 537 Q 299 500 295 461 Q 291 424 276 408 Q 260 392 266 379 Q 276 366 291 355 Q 304 348 313 355 Q 331 376 444 403 L 488 413 Z" fill="black"></path>
				<path d="M 659 435 Q 665 410 673 394 Q 680 381 691 391 Q 712 412 713 484 Q 722 554 731 569 Q 738 582 729 593 Q 713 606 684 621 Q 674 627 663 622 Q 657 618 659 607 Q 680 577 665 474 Q 664 473 664 471 L 659 435 Z" fill="black"></path>
				<path d="M 253 274 Q 231 292 207 297 Q 201 300 196 293 Q 192 286 197 274 Q 216 238 220 208 Q 226 138 220 59 Q 216 35 226 16 Q 239 -3 256 -16 Q 269 -25 272 -13 Q 279 -9 281 13 Q 284 29 278 89 Q 272 194 272 234 C 272 260 272 260 253 274 Z" fill="black"></path>
				<path d="M 483 282 Q 718 322 746 292 Q 753 285 749 269 Q 745 88 731 61 Q 727 51 713 53 Q 685 56 656 59 Q 628 60 648 44 Q 712 -5 739 -40 Q 751 -55 764 -44 Q 780 -28 790 -1 Q 800 27 805 183 Q 806 241 824 269 Q 840 290 833 298 Q 826 311 774 344 Q 756 359 707 342 Q 604 330 499 315 L 445 307 Q 391 300 361 292 Q 300 279 254 275 Q 253 275 253 274 C 223 270 242 231 272 234 Q 288 233 304 238 Q 352 256 434 272 L 483 282 Z" fill="black"></path>
				<path d="M 585 203 Q 516 190 445 168 Q 438 165 435 167 Q 432 170 436 181 Q 463 241 483 282 L 499 315 Q 521 358 530 371 Q 540 383 532 393 Q 525 403 488 413 C 459 422 434 429 444 403 Q 444 399 449 390 Q 458 372 445 307 L 434 272 Q 401 190 359 146 Q 340 137 347 118 Q 354 103 381 88 Q 394 79 404 92 Q 422 113 597 182 C 625 193 614 209 585 203 Z" fill="black"></path>
				<path d="M 597 182 Q 630 121 639 116 Q 646 115 654 121 Q 661 130 663 152 Q 666 188 587 252 Q 577 258 572 258 Q 568 257 565 248 Q 565 238 585 203 L 597 182 Z" fill="red"></path>
</g>
		<text x="40" y="140" font-size="128" fill="#999999">10</text></g>
</g>
</svg>
