<?xml version="1.0" standalone="no"?>
<!DOCTYPE svg PUBLIC "-//W3C//DTD SVG 1.1//EN"
 "http://www.w3.org/Graphics/SVG/1.1/DTD/svg11.dtd">
<!-- generate by Japanese dictionary app com.asnsami.kanjidictionary -->

<svg xmlns="http://www.w3.org/2000/svg" xmlns:sodipodi="http://sodipodi.sourceforge.net/DTD/sodipodi-0.dtd" version="1.1" width="640" height="256" viewBox="0 0 5120 2048">
	<g id="id0:id0" transform="translate(0.0,0)">
		<g id="id0:id0:id0" transform="matrix(1.0,0,0,1.0,0,0.0)">			<g stroke="lightgray" stroke-width="4" transform="scale(4, 4)"> <rect x="0" y="0" width="256" height="256" fill="white" stroke-width="4"/></g>
			<g transform="scale(0.92, -0.92) translate(60, -920)">					<path d="M 462 784 Q 496 762 533 735 Q 551 722 569 726 Q 581 727 584 744 Q 588 762 572 794 Q 562 815 525 827 Q 489 834 448 838 Q 430 839 424 835 Q 418 831 422 816 Q 429 804 462 784 Z" fill="red"></path>
				<path d="M 267 646 Q 257 665 248 673 Q 229 689 226 661 Q 226 618 177 574 Q 144 559 175 483 Q 190 455 213 483 Q 249 549 273 616 C 277 628 277 628 267 646 Z" fill="lightgray"></path>
				<path d="M 273 616 Q 297 604 334 611 Q 460 650 688 671 Q 730 675 745 673 Q 761 664 759 657 Q 759 653 723 583 Q 714 570 721 565 Q 728 561 746 571 Q 804 605 850 616 Q 889 626 888 635 Q 887 645 816 702 Q 791 723 732 709 Q 648 702 381 660 Q 326 653 272 647 Q 268 647 267 646 C 237 642 244 625 273 616 Z" fill="lightgray"></path>
				<path d="M 379 575 Q 386 551 334 485 Q 309 454 276 422 Q 269 415 265 411 Q 261 404 272 404 Q 281 404 301 417 Q 322 427 348 449 Q 376 470 409 504 Q 422 520 434 526 Q 441 533 440 543 Q 439 553 420 573 Q 404 589 390 591 Q 377 592 379 575 Z" fill="lightgray"></path>
				<path d="M 585 547 Q 619 517 654 481 Q 664 469 679 469 Q 688 469 693 481 Q 697 494 691 519 Q 687 541 654 561 Q 581 597 564 591 Q 560 587 560 576 Q 563 566 585 547 Z" fill="lightgray"></path>
				<path d="M 519 291 Q 591 298 762 299 Q 783 300 787 308 Q 793 320 776 334 Q 719 377 667 360 Q 604 348 513 332 L 452 322 Q 340 307 212 290 Q 191 289 207 271 Q 220 258 239 252 Q 261 246 276 251 Q 355 273 446 282 L 519 291 Z" fill="lightgray"></path>
				<path d="M 513 332 Q 522 390 531 405 Q 538 412 532 423 Q 526 430 495 443 Q 461 461 444 454 Q 431 448 442 430 Q 458 378 452 322 L 446 282 Q 406 134 280 60 Q 237 38 169 7 Q 142 -6 174 -7 Q 252 -14 371 60 Q 393 78 415 103 Q 467 160 499 271 L 513 332 Z" fill="lightgray"></path>
				<path d="M 499 271 Q 500 270 503 267 Q 591 140 705 4 Q 727 -18 760 -16 Q 875 -10 912 -3 Q 922 0 925 5 Q 925 11 909 19 Q 755 80 707 117 Q 620 187 519 291 C 498 312 480 295 499 271 Z" fill="lightgray"></path>
				<path d="M 770 413 Q 833 350 846 349 Q 856 349 861 361 Q 865 374 860 401 Q 854 428 768 457 Q 755 461 748 459 Q 744 455 744 444 Q 747 434 770 413 Z" fill="lightgray"></path>
</g>
		<text x="40" y="140" font-size="128" fill="#999999">1</text></g>
		<g id="id0:id1:id1" transform="matrix(1.0,0,0,1.0,1024,0.0)">			<g stroke="lightgray" stroke-width="4" transform="scale(4, 4)"> <rect x="0" y="0" width="256" height="256" fill="white" stroke-width="4"/></g>
			<g transform="scale(0.92, -0.92) translate(60, -920)">					<path d="M 462 784 Q 496 762 533 735 Q 551 722 569 726 Q 581 727 584 744 Q 588 762 572 794 Q 562 815 525 827 Q 489 834 448 838 Q 430 839 424 835 Q 418 831 422 816 Q 429 804 462 784 Z" fill="black"></path>
				<path d="M 267 646 Q 257 665 248 673 Q 229 689 226 661 Q 226 618 177 574 Q 144 559 175 483 Q 190 455 213 483 Q 249 549 273 616 C 277 628 277 628 267 646 Z" fill="red"></path>
				<path d="M 273 616 Q 297 604 334 611 Q 460 650 688 671 Q 730 675 745 673 Q 761 664 759 657 Q 759 653 723 583 Q 714 570 721 565 Q 728 561 746 571 Q 804 605 850 616 Q 889 626 888 635 Q 887 645 816 702 Q 791 723 732 709 Q 648 702 381 660 Q 326 653 272 647 Q 268 647 267 646 C 237 642 244 625 273 616 Z" fill="lightgray"></path>
				<path d="M 379 575 Q 386 551 334 485 Q 309 454 276 422 Q 269 415 265 411 Q 261 404 272 404 Q 281 404 301 417 Q 322 427 348 449 Q 376 470 409 504 Q 422 520 434 526 Q 441 533 440 543 Q 439 553 420 573 Q 404 589 390 591 Q 377 592 379 575 Z" fill="lightgray"></path>
				<path d="M 585 547 Q 619 517 654 481 Q 664 469 679 469 Q 688 469 693 481 Q 697 494 691 519 Q 687 541 654 561 Q 581 597 564 591 Q 560 587 560 576 Q 563 566 585 547 Z" fill="lightgray"></path>
				<path d="M 519 291 Q 591 298 762 299 Q 783 300 787 308 Q 793 320 776 334 Q 719 377 667 360 Q 604 348 513 332 L 452 322 Q 340 307 212 290 Q 191 289 207 271 Q 220 258 239 252 Q 261 246 276 251 Q 355 273 446 282 L 519 291 Z" fill="lightgray"></path>
				<path d="M 513 332 Q 522 390 531 405 Q 538 412 532 423 Q 526 430 495 443 Q 461 461 444 454 Q 431 448 442 430 Q 458 378 452 322 L 446 282 Q 406 134 280 60 Q 237 38 169 7 Q 142 -6 174 -7 Q 252 -14 371 60 Q 393 78 415 103 Q 467 160 499 271 L 513 332 Z" fill="lightgray"></path>
				<path d="M 499 271 Q 500 270 503 267 Q 591 140 705 4 Q 727 -18 760 -16 Q 875 -10 912 -3 Q 922 0 925 5 Q 925 11 909 19 Q 755 80 707 117 Q 620 187 519 291 C 498 312 480 295 499 271 Z" fill="lightgray"></path>
				<path d="M 770 413 Q 833 350 846 349 Q 856 349 861 361 Q 865 374 860 401 Q 854 428 768 457 Q 755 461 748 459 Q 744 455 744 444 Q 747 434 770 413 Z" fill="lightgray"></path>
</g>
		<text x="40" y="140" font-size="128" fill="#999999">2</text></g>
		<g id="id0:id2:id2" transform="matrix(1.0,0,0,1.0,2048,0.0)">			<g stroke="lightgray" stroke-width="4" transform="scale(4, 4)"> <rect x="0" y="0" width="256" height="256" fill="white" stroke-width="4"/></g>
			<g transform="scale(0.92, -0.92) translate(60, -920)">					<path d="M 462 784 Q 496 762 533 735 Q 551 722 569 726 Q 581 727 584 744 Q 588 762 572 794 Q 562 815 525 827 Q 489 834 448 838 Q 430 839 424 835 Q 418 831 422 816 Q 429 804 462 784 Z" fill="black"></path>
				<path d="M 267 646 Q 257 665 248 673 Q 229 689 226 661 Q 226 618 177 574 Q 144 559 175 483 Q 190 455 213 483 Q 249 549 273 616 C 277 628 277 628 267 646 Z" fill="black"></path>
				<path d="M 273 616 Q 297 604 334 611 Q 460 650 688 671 Q 730 675 745 673 Q 761 664 759 657 Q 759 653 723 583 Q 714 570 721 565 Q 728 561 746 571 Q 804 605 850 616 Q 889 626 888 635 Q 887 645 816 702 Q 791 723 732 709 Q 648 702 381 660 Q 326 653 272 647 Q 268 647 267 646 C 237 642 244 625 273 616 Z" fill="red"></path>
				<path d="M 379 575 Q 386 551 334 485 Q 309 454 276 422 Q 269 415 265 411 Q 261 404 272 404 Q 281 404 301 417 Q 322 427 348 449 Q 376 470 409 504 Q 422 520 434 526 Q 441 533 440 543 Q 439 553 420 573 Q 404 589 390 591 Q 377 592 379 575 Z" fill="lightgray"></path>
				<path d="M 585 547 Q 619 517 654 481 Q 664 469 679 469 Q 688 469 693 481 Q 697 494 691 519 Q 687 541 654 561 Q 581 597 564 591 Q 560 587 560 576 Q 563 566 585 547 Z" fill="lightgray"></path>
				<path d="M 519 291 Q 591 298 762 299 Q 783 300 787 308 Q 793 320 776 334 Q 719 377 667 360 Q 604 348 513 332 L 452 322 Q 340 307 212 290 Q 191 289 207 271 Q 220 258 239 252 Q 261 246 276 251 Q 355 273 446 282 L 519 291 Z" fill="lightgray"></path>
				<path d="M 513 332 Q 522 390 531 405 Q 538 412 532 423 Q 526 430 495 443 Q 461 461 444 454 Q 431 448 442 430 Q 458 378 452 322 L 446 282 Q 406 134 280 60 Q 237 38 169 7 Q 142 -6 174 -7 Q 252 -14 371 60 Q 393 78 415 103 Q 467 160 499 271 L 513 332 Z" fill="lightgray"></path>
				<path d="M 499 271 Q 500 270 503 267 Q 591 140 705 4 Q 727 -18 760 -16 Q 875 -10 912 -3 Q 922 0 925 5 Q 925 11 909 19 Q 755 80 707 117 Q 620 187 519 291 C 498 312 480 295 499 271 Z" fill="lightgray"></path>
				<path d="M 770 413 Q 833 350 846 349 Q 856 349 861 361 Q 865 374 860 401 Q 854 428 768 457 Q 755 461 748 459 Q 744 455 744 444 Q 747 434 770 413 Z" fill="lightgray"></path>
</g>
		<text x="40" y="140" font-size="128" fill="#999999">3</text></g>
		<g id="id0:id3:id3" transform="matrix(1.0,0,0,1.0,3072,0.0)">			<g stroke="lightgray" stroke-width="4" transform="scale(4, 4)"> <rect x="0" y="0" width="256" height="256" fill="white" stroke-width="4"/></g>
			<g transform="scale(0.92, -0.92) translate(60, -920)">					<path d="M 462 784 Q 496 762 533 735 Q 551 722 569 726 Q 581 727 584 744 Q 588 762 572 794 Q 562 815 525 827 Q 489 834 448 838 Q 430 839 424 835 Q 418 831 422 816 Q 429 804 462 784 Z" fill="black"></path>
				<path d="M 267 646 Q 257 665 248 673 Q 229 689 226 661 Q 226 618 177 574 Q 144 559 175 483 Q 190 455 213 483 Q 249 549 273 616 C 277 628 277 628 267 646 Z" fill="black"></path>
				<path d="M 273 616 Q 297 604 334 611 Q 460 650 688 671 Q 730 675 745 673 Q 761 664 759 657 Q 759 653 723 583 Q 714 570 721 565 Q 728 561 746 571 Q 804 605 850 616 Q 889 626 888 635 Q 887 645 816 702 Q 791 723 732 709 Q 648 702 381 660 Q 326 653 272 647 Q 268 647 267 646 C 237 642 244 625 273 616 Z" fill="black"></path>
				<path d="M 379 575 Q 386 551 334 485 Q 309 454 276 422 Q 269 415 265 411 Q 261 404 272 404 Q 281 404 301 417 Q 322 427 348 449 Q 376 470 409 504 Q 422 520 434 526 Q 441 533 440 543 Q 439 553 420 573 Q 404 589 390 591 Q 377 592 379 575 Z" fill="red"></path>
				<path d="M 585 547 Q 619 517 654 481 Q 664 469 679 469 Q 688 469 693 481 Q 697 494 691 519 Q 687 541 654 561 Q 581 597 564 591 Q 560 587 560 576 Q 563 566 585 547 Z" fill="lightgray"></path>
				<path d="M 519 291 Q 591 298 762 299 Q 783 300 787 308 Q 793 320 776 334 Q 719 377 667 360 Q 604 348 513 332 L 452 322 Q 340 307 212 290 Q 191 289 207 271 Q 220 258 239 252 Q 261 246 276 251 Q 355 273 446 282 L 519 291 Z" fill="lightgray"></path>
				<path d="M 513 332 Q 522 390 531 405 Q 538 412 532 423 Q 526 430 495 443 Q 461 461 444 454 Q 431 448 442 430 Q 458 378 452 322 L 446 282 Q 406 134 280 60 Q 237 38 169 7 Q 142 -6 174 -7 Q 252 -14 371 60 Q 393 78 415 103 Q 467 160 499 271 L 513 332 Z" fill="lightgray"></path>
				<path d="M 499 271 Q 500 270 503 267 Q 591 140 705 4 Q 727 -18 760 -16 Q 875 -10 912 -3 Q 922 0 925 5 Q 925 11 909 19 Q 755 80 707 117 Q 620 187 519 291 C 498 312 480 295 499 271 Z" fill="lightgray"></path>
				<path d="M 770 413 Q 833 350 846 349 Q 856 349 861 361 Q 865 374 860 401 Q 854 428 768 457 Q 755 461 748 459 Q 744 455 744 444 Q 747 434 770 413 Z" fill="lightgray"></path>
</g>
		<text x="40" y="140" font-size="128" fill="#999999">4</text></g>
		<g id="id0:id4:id4" transform="matrix(1.0,0,0,1.0,4096,0.0)">			<g stroke="lightgray" stroke-width="4" transform="scale(4, 4)"> <rect x="0" y="0" width="256" height="256" fill="white" stroke-width="4"/></g>
			<g transform="scale(0.92, -0.92) translate(60, -920)">					<path d="M 462 784 Q 496 762 533 735 Q 551 722 569 726 Q 581 727 584 744 Q 588 762 572 794 Q 562 815 525 827 Q 489 834 448 838 Q 430 839 424 835 Q 418 831 422 816 Q 429 804 462 784 Z" fill="black"></path>
				<path d="M 267 646 Q 257 665 248 673 Q 229 689 226 661 Q 226 618 177 574 Q 144 559 175 483 Q 190 455 213 483 Q 249 549 273 616 C 277 628 277 628 267 646 Z" fill="black"></path>
				<path d="M 273 616 Q 297 604 334 611 Q 460 650 688 671 Q 730 675 745 673 Q 761 664 759 657 Q 759 653 723 583 Q 714 570 721 565 Q 728 561 746 571 Q 804 605 850 616 Q 889 626 888 635 Q 887 645 816 702 Q 791 723 732 709 Q 648 702 381 660 Q 326 653 272 647 Q 268 647 267 646 C 237 642 244 625 273 616 Z" fill="black"></path>
				<path d="M 379 575 Q 386 551 334 485 Q 309 454 276 422 Q 269 415 265 411 Q 261 404 272 404 Q 281 404 301 417 Q 322 427 348 449 Q 376 470 409 504 Q 422 520 434 526 Q 441 533 440 543 Q 439 553 420 573 Q 404 589 390 591 Q 377 592 379 575 Z" fill="black"></path>
				<path d="M 585 547 Q 619 517 654 481 Q 664 469 679 469 Q 688 469 693 481 Q 697 494 691 519 Q 687 541 654 561 Q 581 597 564 591 Q 560 587 560 576 Q 563 566 585 547 Z" fill="red"></path>
				<path d="M 519 291 Q 591 298 762 299 Q 783 300 787 308 Q 793 320 776 334 Q 719 377 667 360 Q 604 348 513 332 L 452 322 Q 340 307 212 290 Q 191 289 207 271 Q 220 258 239 252 Q 261 246 276 251 Q 355 273 446 282 L 519 291 Z" fill="lightgray"></path>
				<path d="M 513 332 Q 522 390 531 405 Q 538 412 532 423 Q 526 430 495 443 Q 461 461 444 454 Q 431 448 442 430 Q 458 378 452 322 L 446 282 Q 406 134 280 60 Q 237 38 169 7 Q 142 -6 174 -7 Q 252 -14 371 60 Q 393 78 415 103 Q 467 160 499 271 L 513 332 Z" fill="lightgray"></path>
				<path d="M 499 271 Q 500 270 503 267 Q 591 140 705 4 Q 727 -18 760 -16 Q 875 -10 912 -3 Q 922 0 925 5 Q 925 11 909 19 Q 755 80 707 117 Q 620 187 519 291 C 498 312 480 295 499 271 Z" fill="lightgray"></path>
				<path d="M 770 413 Q 833 350 846 349 Q 856 349 861 361 Q 865 374 860 401 Q 854 428 768 457 Q 755 461 748 459 Q 744 455 744 444 Q 747 434 770 413 Z" fill="lightgray"></path>
</g>
		<text x="40" y="140" font-size="128" fill="#999999">5</text></g>
</g>
	<g id="id1:id1" transform="translate(0.0,1024)">
		<g id="id1:id0:id0" transform="matrix(1.0,0,0,1.0,0,0.0)">			<g stroke="lightgray" stroke-width="4" transform="scale(4, 4)"> <rect x="0" y="0" width="256" height="256" fill="white" stroke-width="4"/></g>
			<g transform="scale(0.92, -0.92) translate(60, -920)">					<path d="M 462 784 Q 496 762 533 735 Q 551 722 569 726 Q 581 727 584 744 Q 588 762 572 794 Q 562 815 525 827 Q 489 834 448 838 Q 430 839 424 835 Q 418 831 422 816 Q 429 804 462 784 Z" fill="black"></path>
				<path d="M 267 646 Q 257 665 248 673 Q 229 689 226 661 Q 226 618 177 574 Q 144 559 175 483 Q 190 455 213 483 Q 249 549 273 616 C 277 628 277 628 267 646 Z" fill="black"></path>
				<path d="M 273 616 Q 297 604 334 611 Q 460 650 688 671 Q 730 675 745 673 Q 761 664 759 657 Q 759 653 723 583 Q 714 570 721 565 Q 728 561 746 571 Q 804 605 850 616 Q 889 626 888 635 Q 887 645 816 702 Q 791 723 732 709 Q 648 702 381 660 Q 326 653 272 647 Q 268 647 267 646 C 237 642 244 625 273 616 Z" fill="black"></path>
				<path d="M 379 575 Q 386 551 334 485 Q 309 454 276 422 Q 269 415 265 411 Q 261 404 272 404 Q 281 404 301 417 Q 322 427 348 449 Q 376 470 409 504 Q 422 520 434 526 Q 441 533 440 543 Q 439 553 420 573 Q 404 589 390 591 Q 377 592 379 575 Z" fill="black"></path>
				<path d="M 585 547 Q 619 517 654 481 Q 664 469 679 469 Q 688 469 693 481 Q 697 494 691 519 Q 687 541 654 561 Q 581 597 564 591 Q 560 587 560 576 Q 563 566 585 547 Z" fill="black"></path>
				<path d="M 519 291 Q 591 298 762 299 Q 783 300 787 308 Q 793 320 776 334 Q 719 377 667 360 Q 604 348 513 332 L 452 322 Q 340 307 212 290 Q 191 289 207 271 Q 220 258 239 252 Q 261 246 276 251 Q 355 273 446 282 L 519 291 Z" fill="red"></path>
				<path d="M 513 332 Q 522 390 531 405 Q 538 412 532 423 Q 526 430 495 443 Q 461 461 444 454 Q 431 448 442 430 Q 458 378 452 322 L 446 282 Q 406 134 280 60 Q 237 38 169 7 Q 142 -6 174 -7 Q 252 -14 371 60 Q 393 78 415 103 Q 467 160 499 271 L 513 332 Z" fill="lightgray"></path>
				<path d="M 499 271 Q 500 270 503 267 Q 591 140 705 4 Q 727 -18 760 -16 Q 875 -10 912 -3 Q 922 0 925 5 Q 925 11 909 19 Q 755 80 707 117 Q 620 187 519 291 C 498 312 480 295 499 271 Z" fill="lightgray"></path>
				<path d="M 770 413 Q 833 350 846 349 Q 856 349 861 361 Q 865 374 860 401 Q 854 428 768 457 Q 755 461 748 459 Q 744 455 744 444 Q 747 434 770 413 Z" fill="lightgray"></path>
</g>
		<text x="40" y="140" font-size="128" fill="#999999">6</text></g>
		<g id="id1:id1:id1" transform="matrix(1.0,0,0,1.0,1024,0.0)">			<g stroke="lightgray" stroke-width="4" transform="scale(4, 4)"> <rect x="0" y="0" width="256" height="256" fill="white" stroke-width="4"/></g>
			<g transform="scale(0.92, -0.92) translate(60, -920)">					<path d="M 462 784 Q 496 762 533 735 Q 551 722 569 726 Q 581 727 584 744 Q 588 762 572 794 Q 562 815 525 827 Q 489 834 448 838 Q 430 839 424 835 Q 418 831 422 816 Q 429 804 462 784 Z" fill="black"></path>
				<path d="M 267 646 Q 257 665 248 673 Q 229 689 226 661 Q 226 618 177 574 Q 144 559 175 483 Q 190 455 213 483 Q 249 549 273 616 C 277 628 277 628 267 646 Z" fill="black"></path>
				<path d="M 273 616 Q 297 604 334 611 Q 460 650 688 671 Q 730 675 745 673 Q 761 664 759 657 Q 759 653 723 583 Q 714 570 721 565 Q 728 561 746 571 Q 804 605 850 616 Q 889 626 888 635 Q 887 645 816 702 Q 791 723 732 709 Q 648 702 381 660 Q 326 653 272 647 Q 268 647 267 646 C 237 642 244 625 273 616 Z" fill="black"></path>
				<path d="M 379 575 Q 386 551 334 485 Q 309 454 276 422 Q 269 415 265 411 Q 261 404 272 404 Q 281 404 301 417 Q 322 427 348 449 Q 376 470 409 504 Q 422 520 434 526 Q 441 533 440 543 Q 439 553 420 573 Q 404 589 390 591 Q 377 592 379 575 Z" fill="black"></path>
				<path d="M 585 547 Q 619 517 654 481 Q 664 469 679 469 Q 688 469 693 481 Q 697 494 691 519 Q 687 541 654 561 Q 581 597 564 591 Q 560 587 560 576 Q 563 566 585 547 Z" fill="black"></path>
				<path d="M 519 291 Q 591 298 762 299 Q 783 300 787 308 Q 793 320 776 334 Q 719 377 667 360 Q 604 348 513 332 L 452 322 Q 340 307 212 290 Q 191 289 207 271 Q 220 258 239 252 Q 261 246 276 251 Q 355 273 446 282 L 519 291 Z" fill="black"></path>
				<path d="M 513 332 Q 522 390 531 405 Q 538 412 532 423 Q 526 430 495 443 Q 461 461 444 454 Q 431 448 442 430 Q 458 378 452 322 L 446 282 Q 406 134 280 60 Q 237 38 169 7 Q 142 -6 174 -7 Q 252 -14 371 60 Q 393 78 415 103 Q 467 160 499 271 L 513 332 Z" fill="red"></path>
				<path d="M 499 271 Q 500 270 503 267 Q 591 140 705 4 Q 727 -18 760 -16 Q 875 -10 912 -3 Q 922 0 925 5 Q 925 11 909 19 Q 755 80 707 117 Q 620 187 519 291 C 498 312 480 295 499 271 Z" fill="lightgray"></path>
				<path d="M 770 413 Q 833 350 846 349 Q 856 349 861 361 Q 865 374 860 401 Q 854 428 768 457 Q 755 461 748 459 Q 744 455 744 444 Q 747 434 770 413 Z" fill="lightgray"></path>
</g>
		<text x="40" y="140" font-size="128" fill="#999999">7</text></g>
		<g id="id1:id2:id2" transform="matrix(1.0,0,0,1.0,2048,0.0)">			<g stroke="lightgray" stroke-width="4" transform="scale(4, 4)"> <rect x="0" y="0" width="256" height="256" fill="white" stroke-width="4"/></g>
			<g transform="scale(0.92, -0.92) translate(60, -920)">					<path d="M 462 784 Q 496 762 533 735 Q 551 722 569 726 Q 581 727 584 744 Q 588 762 572 794 Q 562 815 525 827 Q 489 834 448 838 Q 430 839 424 835 Q 418 831 422 816 Q 429 804 462 784 Z" fill="black"></path>
				<path d="M 267 646 Q 257 665 248 673 Q 229 689 226 661 Q 226 618 177 574 Q 144 559 175 483 Q 190 455 213 483 Q 249 549 273 616 C 277 628 277 628 267 646 Z" fill="black"></path>
				<path d="M 273 616 Q 297 604 334 611 Q 460 650 688 671 Q 730 675 745 673 Q 761 664 759 657 Q 759 653 723 583 Q 714 570 721 565 Q 728 561 746 571 Q 804 605 850 616 Q 889 626 888 635 Q 887 645 816 702 Q 791 723 732 709 Q 648 702 381 660 Q 326 653 272 647 Q 268 647 267 646 C 237 642 244 625 273 616 Z" fill="black"></path>
				<path d="M 379 575 Q 386 551 334 485 Q 309 454 276 422 Q 269 415 265 411 Q 261 404 272 404 Q 281 404 301 417 Q 322 427 348 449 Q 376 470 409 504 Q 422 520 434 526 Q 441 533 440 543 Q 439 553 420 573 Q 404 589 390 591 Q 377 592 379 575 Z" fill="black"></path>
				<path d="M 585 547 Q 619 517 654 481 Q 664 469 679 469 Q 688 469 693 481 Q 697 494 691 519 Q 687 541 654 561 Q 581 597 564 591 Q 560 587 560 576 Q 563 566 585 547 Z" fill="black"></path>
				<path d="M 519 291 Q 591 298 762 299 Q 783 300 787 308 Q 793 320 776 334 Q 719 377 667 360 Q 604 348 513 332 L 452 322 Q 340 307 212 290 Q 191 289 207 271 Q 220 258 239 252 Q 261 246 276 251 Q 355 273 446 282 L 519 291 Z" fill="black"></path>
				<path d="M 513 332 Q 522 390 531 405 Q 538 412 532 423 Q 526 430 495 443 Q 461 461 444 454 Q 431 448 442 430 Q 458 378 452 322 L 446 282 Q 406 134 280 60 Q 237 38 169 7 Q 142 -6 174 -7 Q 252 -14 371 60 Q 393 78 415 103 Q 467 160 499 271 L 513 332 Z" fill="black"></path>
				<path d="M 499 271 Q 500 270 503 267 Q 591 140 705 4 Q 727 -18 760 -16 Q 875 -10 912 -3 Q 922 0 925 5 Q 925 11 909 19 Q 755 80 707 117 Q 620 187 519 291 C 498 312 480 295 499 271 Z" fill="red"></path>
				<path d="M 770 413 Q 833 350 846 349 Q 856 349 861 361 Q 865 374 860 401 Q 854 428 768 457 Q 755 461 748 459 Q 744 455 744 444 Q 747 434 770 413 Z" fill="lightgray"></path>
</g>
		<text x="40" y="140" font-size="128" fill="#999999">8</text></g>
		<g id="id1:id3:id3" transform="matrix(1.0,0,0,1.0,3072,0.0)">			<g stroke="lightgray" stroke-width="4" transform="scale(4, 4)"> <rect x="0" y="0" width="256" height="256" fill="white" stroke-width="4"/></g>
			<g transform="scale(0.92, -0.92) translate(60, -920)">					<path d="M 462 784 Q 496 762 533 735 Q 551 722 569 726 Q 581 727 584 744 Q 588 762 572 794 Q 562 815 525 827 Q 489 834 448 838 Q 430 839 424 835 Q 418 831 422 816 Q 429 804 462 784 Z" fill="black"></path>
				<path d="M 267 646 Q 257 665 248 673 Q 229 689 226 661 Q 226 618 177 574 Q 144 559 175 483 Q 190 455 213 483 Q 249 549 273 616 C 277 628 277 628 267 646 Z" fill="black"></path>
				<path d="M 273 616 Q 297 604 334 611 Q 460 650 688 671 Q 730 675 745 673 Q 761 664 759 657 Q 759 653 723 583 Q 714 570 721 565 Q 728 561 746 571 Q 804 605 850 616 Q 889 626 888 635 Q 887 645 816 702 Q 791 723 732 709 Q 648 702 381 660 Q 326 653 272 647 Q 268 647 267 646 C 237 642 244 625 273 616 Z" fill="black"></path>
				<path d="M 379 575 Q 386 551 334 485 Q 309 454 276 422 Q 269 415 265 411 Q 261 404 272 404 Q 281 404 301 417 Q 322 427 348 449 Q 376 470 409 504 Q 422 520 434 526 Q 441 533 440 543 Q 439 553 420 573 Q 404 589 390 591 Q 377 592 379 575 Z" fill="black"></path>
				<path d="M 585 547 Q 619 517 654 481 Q 664 469 679 469 Q 688 469 693 481 Q 697 494 691 519 Q 687 541 654 561 Q 581 597 564 591 Q 560 587 560 576 Q 563 566 585 547 Z" fill="black"></path>
				<path d="M 519 291 Q 591 298 762 299 Q 783 300 787 308 Q 793 320 776 334 Q 719 377 667 360 Q 604 348 513 332 L 452 322 Q 340 307 212 290 Q 191 289 207 271 Q 220 258 239 252 Q 261 246 276 251 Q 355 273 446 282 L 519 291 Z" fill="black"></path>
				<path d="M 513 332 Q 522 390 531 405 Q 538 412 532 423 Q 526 430 495 443 Q 461 461 444 454 Q 431 448 442 430 Q 458 378 452 322 L 446 282 Q 406 134 280 60 Q 237 38 169 7 Q 142 -6 174 -7 Q 252 -14 371 60 Q 393 78 415 103 Q 467 160 499 271 L 513 332 Z" fill="black"></path>
				<path d="M 499 271 Q 500 270 503 267 Q 591 140 705 4 Q 727 -18 760 -16 Q 875 -10 912 -3 Q 922 0 925 5 Q 925 11 909 19 Q 755 80 707 117 Q 620 187 519 291 C 498 312 480 295 499 271 Z" fill="black"></path>
				<path d="M 770 413 Q 833 350 846 349 Q 856 349 861 361 Q 865 374 860 401 Q 854 428 768 457 Q 755 461 748 459 Q 744 455 744 444 Q 747 434 770 413 Z" fill="red"></path>
</g>
		<text x="40" y="140" font-size="128" fill="#999999">9</text></g>
		<g id="id1:id4:id4" transform="matrix(1.0,0,0,1.0,4096,0.0)">			<g stroke="white" stroke-width="4" transform="scale(4, 4)"> <rect x="1" y="1" width="255" height="255" fill="white" stroke-width="0"/></g>
</g>
</g>
</svg>
