<?xml version="1.0" standalone="no"?>
<!DOCTYPE svg PUBLIC "-//W3C//DTD SVG 1.1//EN"
 "http://www.w3.org/Graphics/SVG/1.1/DTD/svg11.dtd">
<!-- generate by Handict dictionary app com.asnsami.handict -->

<svg xmlns="http://www.w3.org/2000/svg" xmlns:sodipodi="http://sodipodi.sourceforge.net/DTD/sodipodi-0.dtd" version="1.1" width="640" height="384" viewBox="0 0 5120 3072">
	<g id="id0:id0" transform="translate(0.0,0)">
		<g id="id0:id0:id0" transform="matrix(1.0,0,0,1.0,0,0.0)">			<g stroke="lightgray" stroke-width="4" transform="scale(4, 4)"> <rect x="0" y="0" width="256" height="256" fill="white" stroke-width="4"/></g>
			<g transform="scale(0.92, -0.92) translate(60, -920)">					<path d="M 455 792 Q 485 773 518 748 Q 534 736 550 740 Q 560 741 565 756 Q 568 772 554 802 Q 545 821 512 831 Q 433 849 420 839 Q 416 835 418 821 Q 424 811 455 792 Z" fill="red"></path>
				<path d="M 277 669 Q 268 697 255 708 Q 237 723 235 698 Q 235 656 175 595 Q 154 574 179 519 Q 192 494 212 518 L 273 647 C 280 661 280 661 277 669 Z" fill="lightgray"></path>
				<path d="M 273 647 Q 301 625 340 636 Q 464 675 681 695 Q 721 699 735 696 Q 751 686 749 679 Q 750 675 744 663 Q 717 597 721 593 Q 728 589 744 600 Q 798 634 841 645 Q 875 655 875 663 Q 874 673 804 726 Q 783 744 712 730 Q 606 718 384 683 Q 332 676 279 670 Q 278 670 277 669 C 247 664 247 662 273 647 Z" fill="lightgray"></path>
				<path d="M 353 610 Q 357 598 351 589 Q 327 543 257 476 Q 248 472 246 467 Q 242 460 252 459 Q 288 459 380 541 Q 393 554 403 560 Q 412 566 410 576 Q 409 586 393 605 Q 377 621 364 624 Q 351 625 353 610 Z" fill="lightgray"></path>
				<path d="M 589 601 Q 629 571 670 535 Q 680 525 693 526 Q 702 526 705 537 Q 709 547 702 571 Q 690 610 585 638 Q 572 641 568 639 Q 564 635 565 625 Q 568 618 589 601 Z" fill="lightgray"></path>
				<path d="M 393 481 Q 383 485 362 488 Q 352 491 348 486 Q 344 480 351 466 Q 372 426 386 359 Q 389 340 401 326 Q 417 307 422 321 Q 425 330 425 342 L 421 373 Q 412 436 412 455 C 411 475 411 475 393 481 Z" fill="lightgray"></path>
				<path d="M 611 393 Q 632 451 655 464 Q 668 480 656 496 Q 593 541 540 519 Q 470 494 393 481 C 363 476 382 453 412 455 Q 425 455 442 460 Q 565 487 571 480 Q 578 476 577 462 Q 573 428 566 398 C 559 369 600 365 611 393 Z" fill="lightgray"></path>
				<path d="M 495 349 Q 543 356 624 360 Q 634 361 635 369 Q 635 376 611 393 C 597 403 596 403 566 398 Q 565 398 564 398 Q 485 380 421 373 C 391 370 395 343 425 342 Q 434 341 444 343 Q 454 346 471 347 L 495 349 Z" fill="lightgray"></path>
				<path d="M 294 238 Q 273 254 250 259 Q 241 260 236 253 Q 232 247 240 238 Q 273 151 249 63 Q 243 39 248 21 Q 258 -10 269 -21 Q 279 -33 289 -20 Q 307 7 308 184 Q 308 193 309 198 C 312 225 312 225 294 238 Z" fill="lightgray"></path>
				<path d="M 518 244 Q 717 274 741 248 Q 748 241 744 225 Q 748 59 738 35 Q 735 25 722 28 Q 694 31 663 35 Q 636 36 656 20 Q 723 -26 751 -62 Q 761 -75 774 -64 Q 789 -48 796 -23 Q 805 2 802 148 Q 801 202 816 228 Q 831 249 824 256 Q 817 269 767 300 Q 748 315 713 300 Q 704 299 528 274 L 472 267 Q 414 261 381 253 Q 330 243 294 238 C 264 233 280 191 309 198 Q 319 198 329 202 Q 378 220 464 235 L 518 244 Z" fill="lightgray"></path>
				<path d="M 500 196 Q 507 218 518 244 L 528 274 Q 534 287 538 295 Q 547 311 531 323 Q 509 342 495 349 C 469 364 468 365 471 347 Q 470 343 474 333 Q 481 312 472 267 L 464 235 Q 427 124 360 89 Q 345 82 342 76 Q 339 70 349 69 Q 376 63 422 92 Q 468 120 499 193 L 500 196 Z" fill="lightgray"></path>
				<path d="M 499 193 Q 499 181 535 152 Q 569 127 610 91 Q 626 75 639 73 Q 646 73 653 82 Q 662 95 646 132 Q 634 165 570 183 Q 530 193 508 197 Q 502 200 500 196 L 499 193 Z" fill="lightgray"></path>
</g>
		<text x="40" y="140" font-size="128" fill="#999999">1</text></g>
		<g id="id0:id1:id1" transform="matrix(1.0,0,0,1.0,1024,0.0)">			<g stroke="lightgray" stroke-width="4" transform="scale(4, 4)"> <rect x="0" y="0" width="256" height="256" fill="white" stroke-width="4"/></g>
			<g transform="scale(0.92, -0.92) translate(60, -920)">					<path d="M 455 792 Q 485 773 518 748 Q 534 736 550 740 Q 560 741 565 756 Q 568 772 554 802 Q 545 821 512 831 Q 433 849 420 839 Q 416 835 418 821 Q 424 811 455 792 Z" fill="black"></path>
				<path d="M 277 669 Q 268 697 255 708 Q 237 723 235 698 Q 235 656 175 595 Q 154 574 179 519 Q 192 494 212 518 L 273 647 C 280 661 280 661 277 669 Z" fill="red"></path>
				<path d="M 273 647 Q 301 625 340 636 Q 464 675 681 695 Q 721 699 735 696 Q 751 686 749 679 Q 750 675 744 663 Q 717 597 721 593 Q 728 589 744 600 Q 798 634 841 645 Q 875 655 875 663 Q 874 673 804 726 Q 783 744 712 730 Q 606 718 384 683 Q 332 676 279 670 Q 278 670 277 669 C 247 664 247 662 273 647 Z" fill="lightgray"></path>
				<path d="M 353 610 Q 357 598 351 589 Q 327 543 257 476 Q 248 472 246 467 Q 242 460 252 459 Q 288 459 380 541 Q 393 554 403 560 Q 412 566 410 576 Q 409 586 393 605 Q 377 621 364 624 Q 351 625 353 610 Z" fill="lightgray"></path>
				<path d="M 589 601 Q 629 571 670 535 Q 680 525 693 526 Q 702 526 705 537 Q 709 547 702 571 Q 690 610 585 638 Q 572 641 568 639 Q 564 635 565 625 Q 568 618 589 601 Z" fill="lightgray"></path>
				<path d="M 393 481 Q 383 485 362 488 Q 352 491 348 486 Q 344 480 351 466 Q 372 426 386 359 Q 389 340 401 326 Q 417 307 422 321 Q 425 330 425 342 L 421 373 Q 412 436 412 455 C 411 475 411 475 393 481 Z" fill="lightgray"></path>
				<path d="M 611 393 Q 632 451 655 464 Q 668 480 656 496 Q 593 541 540 519 Q 470 494 393 481 C 363 476 382 453 412 455 Q 425 455 442 460 Q 565 487 571 480 Q 578 476 577 462 Q 573 428 566 398 C 559 369 600 365 611 393 Z" fill="lightgray"></path>
				<path d="M 495 349 Q 543 356 624 360 Q 634 361 635 369 Q 635 376 611 393 C 597 403 596 403 566 398 Q 565 398 564 398 Q 485 380 421 373 C 391 370 395 343 425 342 Q 434 341 444 343 Q 454 346 471 347 L 495 349 Z" fill="lightgray"></path>
				<path d="M 294 238 Q 273 254 250 259 Q 241 260 236 253 Q 232 247 240 238 Q 273 151 249 63 Q 243 39 248 21 Q 258 -10 269 -21 Q 279 -33 289 -20 Q 307 7 308 184 Q 308 193 309 198 C 312 225 312 225 294 238 Z" fill="lightgray"></path>
				<path d="M 518 244 Q 717 274 741 248 Q 748 241 744 225 Q 748 59 738 35 Q 735 25 722 28 Q 694 31 663 35 Q 636 36 656 20 Q 723 -26 751 -62 Q 761 -75 774 -64 Q 789 -48 796 -23 Q 805 2 802 148 Q 801 202 816 228 Q 831 249 824 256 Q 817 269 767 300 Q 748 315 713 300 Q 704 299 528 274 L 472 267 Q 414 261 381 253 Q 330 243 294 238 C 264 233 280 191 309 198 Q 319 198 329 202 Q 378 220 464 235 L 518 244 Z" fill="lightgray"></path>
				<path d="M 500 196 Q 507 218 518 244 L 528 274 Q 534 287 538 295 Q 547 311 531 323 Q 509 342 495 349 C 469 364 468 365 471 347 Q 470 343 474 333 Q 481 312 472 267 L 464 235 Q 427 124 360 89 Q 345 82 342 76 Q 339 70 349 69 Q 376 63 422 92 Q 468 120 499 193 L 500 196 Z" fill="lightgray"></path>
				<path d="M 499 193 Q 499 181 535 152 Q 569 127 610 91 Q 626 75 639 73 Q 646 73 653 82 Q 662 95 646 132 Q 634 165 570 183 Q 530 193 508 197 Q 502 200 500 196 L 499 193 Z" fill="lightgray"></path>
</g>
		<text x="40" y="140" font-size="128" fill="#999999">2</text></g>
		<g id="id0:id2:id2" transform="matrix(1.0,0,0,1.0,2048,0.0)">			<g stroke="lightgray" stroke-width="4" transform="scale(4, 4)"> <rect x="0" y="0" width="256" height="256" fill="white" stroke-width="4"/></g>
			<g transform="scale(0.92, -0.92) translate(60, -920)">					<path d="M 455 792 Q 485 773 518 748 Q 534 736 550 740 Q 560 741 565 756 Q 568 772 554 802 Q 545 821 512 831 Q 433 849 420 839 Q 416 835 418 821 Q 424 811 455 792 Z" fill="black"></path>
				<path d="M 277 669 Q 268 697 255 708 Q 237 723 235 698 Q 235 656 175 595 Q 154 574 179 519 Q 192 494 212 518 L 273 647 C 280 661 280 661 277 669 Z" fill="black"></path>
				<path d="M 273 647 Q 301 625 340 636 Q 464 675 681 695 Q 721 699 735 696 Q 751 686 749 679 Q 750 675 744 663 Q 717 597 721 593 Q 728 589 744 600 Q 798 634 841 645 Q 875 655 875 663 Q 874 673 804 726 Q 783 744 712 730 Q 606 718 384 683 Q 332 676 279 670 Q 278 670 277 669 C 247 664 247 662 273 647 Z" fill="red"></path>
				<path d="M 353 610 Q 357 598 351 589 Q 327 543 257 476 Q 248 472 246 467 Q 242 460 252 459 Q 288 459 380 541 Q 393 554 403 560 Q 412 566 410 576 Q 409 586 393 605 Q 377 621 364 624 Q 351 625 353 610 Z" fill="lightgray"></path>
				<path d="M 589 601 Q 629 571 670 535 Q 680 525 693 526 Q 702 526 705 537 Q 709 547 702 571 Q 690 610 585 638 Q 572 641 568 639 Q 564 635 565 625 Q 568 618 589 601 Z" fill="lightgray"></path>
				<path d="M 393 481 Q 383 485 362 488 Q 352 491 348 486 Q 344 480 351 466 Q 372 426 386 359 Q 389 340 401 326 Q 417 307 422 321 Q 425 330 425 342 L 421 373 Q 412 436 412 455 C 411 475 411 475 393 481 Z" fill="lightgray"></path>
				<path d="M 611 393 Q 632 451 655 464 Q 668 480 656 496 Q 593 541 540 519 Q 470 494 393 481 C 363 476 382 453 412 455 Q 425 455 442 460 Q 565 487 571 480 Q 578 476 577 462 Q 573 428 566 398 C 559 369 600 365 611 393 Z" fill="lightgray"></path>
				<path d="M 495 349 Q 543 356 624 360 Q 634 361 635 369 Q 635 376 611 393 C 597 403 596 403 566 398 Q 565 398 564 398 Q 485 380 421 373 C 391 370 395 343 425 342 Q 434 341 444 343 Q 454 346 471 347 L 495 349 Z" fill="lightgray"></path>
				<path d="M 294 238 Q 273 254 250 259 Q 241 260 236 253 Q 232 247 240 238 Q 273 151 249 63 Q 243 39 248 21 Q 258 -10 269 -21 Q 279 -33 289 -20 Q 307 7 308 184 Q 308 193 309 198 C 312 225 312 225 294 238 Z" fill="lightgray"></path>
				<path d="M 518 244 Q 717 274 741 248 Q 748 241 744 225 Q 748 59 738 35 Q 735 25 722 28 Q 694 31 663 35 Q 636 36 656 20 Q 723 -26 751 -62 Q 761 -75 774 -64 Q 789 -48 796 -23 Q 805 2 802 148 Q 801 202 816 228 Q 831 249 824 256 Q 817 269 767 300 Q 748 315 713 300 Q 704 299 528 274 L 472 267 Q 414 261 381 253 Q 330 243 294 238 C 264 233 280 191 309 198 Q 319 198 329 202 Q 378 220 464 235 L 518 244 Z" fill="lightgray"></path>
				<path d="M 500 196 Q 507 218 518 244 L 528 274 Q 534 287 538 295 Q 547 311 531 323 Q 509 342 495 349 C 469 364 468 365 471 347 Q 470 343 474 333 Q 481 312 472 267 L 464 235 Q 427 124 360 89 Q 345 82 342 76 Q 339 70 349 69 Q 376 63 422 92 Q 468 120 499 193 L 500 196 Z" fill="lightgray"></path>
				<path d="M 499 193 Q 499 181 535 152 Q 569 127 610 91 Q 626 75 639 73 Q 646 73 653 82 Q 662 95 646 132 Q 634 165 570 183 Q 530 193 508 197 Q 502 200 500 196 L 499 193 Z" fill="lightgray"></path>
</g>
		<text x="40" y="140" font-size="128" fill="#999999">3</text></g>
		<g id="id0:id3:id3" transform="matrix(1.0,0,0,1.0,3072,0.0)">			<g stroke="lightgray" stroke-width="4" transform="scale(4, 4)"> <rect x="0" y="0" width="256" height="256" fill="white" stroke-width="4"/></g>
			<g transform="scale(0.92, -0.92) translate(60, -920)">					<path d="M 455 792 Q 485 773 518 748 Q 534 736 550 740 Q 560 741 565 756 Q 568 772 554 802 Q 545 821 512 831 Q 433 849 420 839 Q 416 835 418 821 Q 424 811 455 792 Z" fill="black"></path>
				<path d="M 277 669 Q 268 697 255 708 Q 237 723 235 698 Q 235 656 175 595 Q 154 574 179 519 Q 192 494 212 518 L 273 647 C 280 661 280 661 277 669 Z" fill="black"></path>
				<path d="M 273 647 Q 301 625 340 636 Q 464 675 681 695 Q 721 699 735 696 Q 751 686 749 679 Q 750 675 744 663 Q 717 597 721 593 Q 728 589 744 600 Q 798 634 841 645 Q 875 655 875 663 Q 874 673 804 726 Q 783 744 712 730 Q 606 718 384 683 Q 332 676 279 670 Q 278 670 277 669 C 247 664 247 662 273 647 Z" fill="black"></path>
				<path d="M 353 610 Q 357 598 351 589 Q 327 543 257 476 Q 248 472 246 467 Q 242 460 252 459 Q 288 459 380 541 Q 393 554 403 560 Q 412 566 410 576 Q 409 586 393 605 Q 377 621 364 624 Q 351 625 353 610 Z" fill="red"></path>
				<path d="M 589 601 Q 629 571 670 535 Q 680 525 693 526 Q 702 526 705 537 Q 709 547 702 571 Q 690 610 585 638 Q 572 641 568 639 Q 564 635 565 625 Q 568 618 589 601 Z" fill="lightgray"></path>
				<path d="M 393 481 Q 383 485 362 488 Q 352 491 348 486 Q 344 480 351 466 Q 372 426 386 359 Q 389 340 401 326 Q 417 307 422 321 Q 425 330 425 342 L 421 373 Q 412 436 412 455 C 411 475 411 475 393 481 Z" fill="lightgray"></path>
				<path d="M 611 393 Q 632 451 655 464 Q 668 480 656 496 Q 593 541 540 519 Q 470 494 393 481 C 363 476 382 453 412 455 Q 425 455 442 460 Q 565 487 571 480 Q 578 476 577 462 Q 573 428 566 398 C 559 369 600 365 611 393 Z" fill="lightgray"></path>
				<path d="M 495 349 Q 543 356 624 360 Q 634 361 635 369 Q 635 376 611 393 C 597 403 596 403 566 398 Q 565 398 564 398 Q 485 380 421 373 C 391 370 395 343 425 342 Q 434 341 444 343 Q 454 346 471 347 L 495 349 Z" fill="lightgray"></path>
				<path d="M 294 238 Q 273 254 250 259 Q 241 260 236 253 Q 232 247 240 238 Q 273 151 249 63 Q 243 39 248 21 Q 258 -10 269 -21 Q 279 -33 289 -20 Q 307 7 308 184 Q 308 193 309 198 C 312 225 312 225 294 238 Z" fill="lightgray"></path>
				<path d="M 518 244 Q 717 274 741 248 Q 748 241 744 225 Q 748 59 738 35 Q 735 25 722 28 Q 694 31 663 35 Q 636 36 656 20 Q 723 -26 751 -62 Q 761 -75 774 -64 Q 789 -48 796 -23 Q 805 2 802 148 Q 801 202 816 228 Q 831 249 824 256 Q 817 269 767 300 Q 748 315 713 300 Q 704 299 528 274 L 472 267 Q 414 261 381 253 Q 330 243 294 238 C 264 233 280 191 309 198 Q 319 198 329 202 Q 378 220 464 235 L 518 244 Z" fill="lightgray"></path>
				<path d="M 500 196 Q 507 218 518 244 L 528 274 Q 534 287 538 295 Q 547 311 531 323 Q 509 342 495 349 C 469 364 468 365 471 347 Q 470 343 474 333 Q 481 312 472 267 L 464 235 Q 427 124 360 89 Q 345 82 342 76 Q 339 70 349 69 Q 376 63 422 92 Q 468 120 499 193 L 500 196 Z" fill="lightgray"></path>
				<path d="M 499 193 Q 499 181 535 152 Q 569 127 610 91 Q 626 75 639 73 Q 646 73 653 82 Q 662 95 646 132 Q 634 165 570 183 Q 530 193 508 197 Q 502 200 500 196 L 499 193 Z" fill="lightgray"></path>
</g>
		<text x="40" y="140" font-size="128" fill="#999999">4</text></g>
		<g id="id0:id4:id4" transform="matrix(1.0,0,0,1.0,4096,0.0)">			<g stroke="lightgray" stroke-width="4" transform="scale(4, 4)"> <rect x="0" y="0" width="256" height="256" fill="white" stroke-width="4"/></g>
			<g transform="scale(0.92, -0.92) translate(60, -920)">					<path d="M 455 792 Q 485 773 518 748 Q 534 736 550 740 Q 560 741 565 756 Q 568 772 554 802 Q 545 821 512 831 Q 433 849 420 839 Q 416 835 418 821 Q 424 811 455 792 Z" fill="black"></path>
				<path d="M 277 669 Q 268 697 255 708 Q 237 723 235 698 Q 235 656 175 595 Q 154 574 179 519 Q 192 494 212 518 L 273 647 C 280 661 280 661 277 669 Z" fill="black"></path>
				<path d="M 273 647 Q 301 625 340 636 Q 464 675 681 695 Q 721 699 735 696 Q 751 686 749 679 Q 750 675 744 663 Q 717 597 721 593 Q 728 589 744 600 Q 798 634 841 645 Q 875 655 875 663 Q 874 673 804 726 Q 783 744 712 730 Q 606 718 384 683 Q 332 676 279 670 Q 278 670 277 669 C 247 664 247 662 273 647 Z" fill="black"></path>
				<path d="M 353 610 Q 357 598 351 589 Q 327 543 257 476 Q 248 472 246 467 Q 242 460 252 459 Q 288 459 380 541 Q 393 554 403 560 Q 412 566 410 576 Q 409 586 393 605 Q 377 621 364 624 Q 351 625 353 610 Z" fill="black"></path>
				<path d="M 589 601 Q 629 571 670 535 Q 680 525 693 526 Q 702 526 705 537 Q 709 547 702 571 Q 690 610 585 638 Q 572 641 568 639 Q 564 635 565 625 Q 568 618 589 601 Z" fill="red"></path>
				<path d="M 393 481 Q 383 485 362 488 Q 352 491 348 486 Q 344 480 351 466 Q 372 426 386 359 Q 389 340 401 326 Q 417 307 422 321 Q 425 330 425 342 L 421 373 Q 412 436 412 455 C 411 475 411 475 393 481 Z" fill="lightgray"></path>
				<path d="M 611 393 Q 632 451 655 464 Q 668 480 656 496 Q 593 541 540 519 Q 470 494 393 481 C 363 476 382 453 412 455 Q 425 455 442 460 Q 565 487 571 480 Q 578 476 577 462 Q 573 428 566 398 C 559 369 600 365 611 393 Z" fill="lightgray"></path>
				<path d="M 495 349 Q 543 356 624 360 Q 634 361 635 369 Q 635 376 611 393 C 597 403 596 403 566 398 Q 565 398 564 398 Q 485 380 421 373 C 391 370 395 343 425 342 Q 434 341 444 343 Q 454 346 471 347 L 495 349 Z" fill="lightgray"></path>
				<path d="M 294 238 Q 273 254 250 259 Q 241 260 236 253 Q 232 247 240 238 Q 273 151 249 63 Q 243 39 248 21 Q 258 -10 269 -21 Q 279 -33 289 -20 Q 307 7 308 184 Q 308 193 309 198 C 312 225 312 225 294 238 Z" fill="lightgray"></path>
				<path d="M 518 244 Q 717 274 741 248 Q 748 241 744 225 Q 748 59 738 35 Q 735 25 722 28 Q 694 31 663 35 Q 636 36 656 20 Q 723 -26 751 -62 Q 761 -75 774 -64 Q 789 -48 796 -23 Q 805 2 802 148 Q 801 202 816 228 Q 831 249 824 256 Q 817 269 767 300 Q 748 315 713 300 Q 704 299 528 274 L 472 267 Q 414 261 381 253 Q 330 243 294 238 C 264 233 280 191 309 198 Q 319 198 329 202 Q 378 220 464 235 L 518 244 Z" fill="lightgray"></path>
				<path d="M 500 196 Q 507 218 518 244 L 528 274 Q 534 287 538 295 Q 547 311 531 323 Q 509 342 495 349 C 469 364 468 365 471 347 Q 470 343 474 333 Q 481 312 472 267 L 464 235 Q 427 124 360 89 Q 345 82 342 76 Q 339 70 349 69 Q 376 63 422 92 Q 468 120 499 193 L 500 196 Z" fill="lightgray"></path>
				<path d="M 499 193 Q 499 181 535 152 Q 569 127 610 91 Q 626 75 639 73 Q 646 73 653 82 Q 662 95 646 132 Q 634 165 570 183 Q 530 193 508 197 Q 502 200 500 196 L 499 193 Z" fill="lightgray"></path>
</g>
		<text x="40" y="140" font-size="128" fill="#999999">5</text></g>
</g>
	<g id="id1:id1" transform="translate(0.0,1024)">
		<g id="id1:id0:id0" transform="matrix(1.0,0,0,1.0,0,0.0)">			<g stroke="lightgray" stroke-width="4" transform="scale(4, 4)"> <rect x="0" y="0" width="256" height="256" fill="white" stroke-width="4"/></g>
			<g transform="scale(0.92, -0.92) translate(60, -920)">					<path d="M 455 792 Q 485 773 518 748 Q 534 736 550 740 Q 560 741 565 756 Q 568 772 554 802 Q 545 821 512 831 Q 433 849 420 839 Q 416 835 418 821 Q 424 811 455 792 Z" fill="black"></path>
				<path d="M 277 669 Q 268 697 255 708 Q 237 723 235 698 Q 235 656 175 595 Q 154 574 179 519 Q 192 494 212 518 L 273 647 C 280 661 280 661 277 669 Z" fill="black"></path>
				<path d="M 273 647 Q 301 625 340 636 Q 464 675 681 695 Q 721 699 735 696 Q 751 686 749 679 Q 750 675 744 663 Q 717 597 721 593 Q 728 589 744 600 Q 798 634 841 645 Q 875 655 875 663 Q 874 673 804 726 Q 783 744 712 730 Q 606 718 384 683 Q 332 676 279 670 Q 278 670 277 669 C 247 664 247 662 273 647 Z" fill="black"></path>
				<path d="M 353 610 Q 357 598 351 589 Q 327 543 257 476 Q 248 472 246 467 Q 242 460 252 459 Q 288 459 380 541 Q 393 554 403 560 Q 412 566 410 576 Q 409 586 393 605 Q 377 621 364 624 Q 351 625 353 610 Z" fill="black"></path>
				<path d="M 589 601 Q 629 571 670 535 Q 680 525 693 526 Q 702 526 705 537 Q 709 547 702 571 Q 690 610 585 638 Q 572 641 568 639 Q 564 635 565 625 Q 568 618 589 601 Z" fill="black"></path>
				<path d="M 393 481 Q 383 485 362 488 Q 352 491 348 486 Q 344 480 351 466 Q 372 426 386 359 Q 389 340 401 326 Q 417 307 422 321 Q 425 330 425 342 L 421 373 Q 412 436 412 455 C 411 475 411 475 393 481 Z" fill="red"></path>
				<path d="M 611 393 Q 632 451 655 464 Q 668 480 656 496 Q 593 541 540 519 Q 470 494 393 481 C 363 476 382 453 412 455 Q 425 455 442 460 Q 565 487 571 480 Q 578 476 577 462 Q 573 428 566 398 C 559 369 600 365 611 393 Z" fill="lightgray"></path>
				<path d="M 495 349 Q 543 356 624 360 Q 634 361 635 369 Q 635 376 611 393 C 597 403 596 403 566 398 Q 565 398 564 398 Q 485 380 421 373 C 391 370 395 343 425 342 Q 434 341 444 343 Q 454 346 471 347 L 495 349 Z" fill="lightgray"></path>
				<path d="M 294 238 Q 273 254 250 259 Q 241 260 236 253 Q 232 247 240 238 Q 273 151 249 63 Q 243 39 248 21 Q 258 -10 269 -21 Q 279 -33 289 -20 Q 307 7 308 184 Q 308 193 309 198 C 312 225 312 225 294 238 Z" fill="lightgray"></path>
				<path d="M 518 244 Q 717 274 741 248 Q 748 241 744 225 Q 748 59 738 35 Q 735 25 722 28 Q 694 31 663 35 Q 636 36 656 20 Q 723 -26 751 -62 Q 761 -75 774 -64 Q 789 -48 796 -23 Q 805 2 802 148 Q 801 202 816 228 Q 831 249 824 256 Q 817 269 767 300 Q 748 315 713 300 Q 704 299 528 274 L 472 267 Q 414 261 381 253 Q 330 243 294 238 C 264 233 280 191 309 198 Q 319 198 329 202 Q 378 220 464 235 L 518 244 Z" fill="lightgray"></path>
				<path d="M 500 196 Q 507 218 518 244 L 528 274 Q 534 287 538 295 Q 547 311 531 323 Q 509 342 495 349 C 469 364 468 365 471 347 Q 470 343 474 333 Q 481 312 472 267 L 464 235 Q 427 124 360 89 Q 345 82 342 76 Q 339 70 349 69 Q 376 63 422 92 Q 468 120 499 193 L 500 196 Z" fill="lightgray"></path>
				<path d="M 499 193 Q 499 181 535 152 Q 569 127 610 91 Q 626 75 639 73 Q 646 73 653 82 Q 662 95 646 132 Q 634 165 570 183 Q 530 193 508 197 Q 502 200 500 196 L 499 193 Z" fill="lightgray"></path>
</g>
		<text x="40" y="140" font-size="128" fill="#999999">6</text></g>
		<g id="id1:id1:id1" transform="matrix(1.0,0,0,1.0,1024,0.0)">			<g stroke="lightgray" stroke-width="4" transform="scale(4, 4)"> <rect x="0" y="0" width="256" height="256" fill="white" stroke-width="4"/></g>
			<g transform="scale(0.92, -0.92) translate(60, -920)">					<path d="M 455 792 Q 485 773 518 748 Q 534 736 550 740 Q 560 741 565 756 Q 568 772 554 802 Q 545 821 512 831 Q 433 849 420 839 Q 416 835 418 821 Q 424 811 455 792 Z" fill="black"></path>
				<path d="M 277 669 Q 268 697 255 708 Q 237 723 235 698 Q 235 656 175 595 Q 154 574 179 519 Q 192 494 212 518 L 273 647 C 280 661 280 661 277 669 Z" fill="black"></path>
				<path d="M 273 647 Q 301 625 340 636 Q 464 675 681 695 Q 721 699 735 696 Q 751 686 749 679 Q 750 675 744 663 Q 717 597 721 593 Q 728 589 744 600 Q 798 634 841 645 Q 875 655 875 663 Q 874 673 804 726 Q 783 744 712 730 Q 606 718 384 683 Q 332 676 279 670 Q 278 670 277 669 C 247 664 247 662 273 647 Z" fill="black"></path>
				<path d="M 353 610 Q 357 598 351 589 Q 327 543 257 476 Q 248 472 246 467 Q 242 460 252 459 Q 288 459 380 541 Q 393 554 403 560 Q 412 566 410 576 Q 409 586 393 605 Q 377 621 364 624 Q 351 625 353 610 Z" fill="black"></path>
				<path d="M 589 601 Q 629 571 670 535 Q 680 525 693 526 Q 702 526 705 537 Q 709 547 702 571 Q 690 610 585 638 Q 572 641 568 639 Q 564 635 565 625 Q 568 618 589 601 Z" fill="black"></path>
				<path d="M 393 481 Q 383 485 362 488 Q 352 491 348 486 Q 344 480 351 466 Q 372 426 386 359 Q 389 340 401 326 Q 417 307 422 321 Q 425 330 425 342 L 421 373 Q 412 436 412 455 C 411 475 411 475 393 481 Z" fill="black"></path>
				<path d="M 611 393 Q 632 451 655 464 Q 668 480 656 496 Q 593 541 540 519 Q 470 494 393 481 C 363 476 382 453 412 455 Q 425 455 442 460 Q 565 487 571 480 Q 578 476 577 462 Q 573 428 566 398 C 559 369 600 365 611 393 Z" fill="red"></path>
				<path d="M 495 349 Q 543 356 624 360 Q 634 361 635 369 Q 635 376 611 393 C 597 403 596 403 566 398 Q 565 398 564 398 Q 485 380 421 373 C 391 370 395 343 425 342 Q 434 341 444 343 Q 454 346 471 347 L 495 349 Z" fill="lightgray"></path>
				<path d="M 294 238 Q 273 254 250 259 Q 241 260 236 253 Q 232 247 240 238 Q 273 151 249 63 Q 243 39 248 21 Q 258 -10 269 -21 Q 279 -33 289 -20 Q 307 7 308 184 Q 308 193 309 198 C 312 225 312 225 294 238 Z" fill="lightgray"></path>
				<path d="M 518 244 Q 717 274 741 248 Q 748 241 744 225 Q 748 59 738 35 Q 735 25 722 28 Q 694 31 663 35 Q 636 36 656 20 Q 723 -26 751 -62 Q 761 -75 774 -64 Q 789 -48 796 -23 Q 805 2 802 148 Q 801 202 816 228 Q 831 249 824 256 Q 817 269 767 300 Q 748 315 713 300 Q 704 299 528 274 L 472 267 Q 414 261 381 253 Q 330 243 294 238 C 264 233 280 191 309 198 Q 319 198 329 202 Q 378 220 464 235 L 518 244 Z" fill="lightgray"></path>
				<path d="M 500 196 Q 507 218 518 244 L 528 274 Q 534 287 538 295 Q 547 311 531 323 Q 509 342 495 349 C 469 364 468 365 471 347 Q 470 343 474 333 Q 481 312 472 267 L 464 235 Q 427 124 360 89 Q 345 82 342 76 Q 339 70 349 69 Q 376 63 422 92 Q 468 120 499 193 L 500 196 Z" fill="lightgray"></path>
				<path d="M 499 193 Q 499 181 535 152 Q 569 127 610 91 Q 626 75 639 73 Q 646 73 653 82 Q 662 95 646 132 Q 634 165 570 183 Q 530 193 508 197 Q 502 200 500 196 L 499 193 Z" fill="lightgray"></path>
</g>
		<text x="40" y="140" font-size="128" fill="#999999">7</text></g>
		<g id="id1:id2:id2" transform="matrix(1.0,0,0,1.0,2048,0.0)">			<g stroke="lightgray" stroke-width="4" transform="scale(4, 4)"> <rect x="0" y="0" width="256" height="256" fill="white" stroke-width="4"/></g>
			<g transform="scale(0.92, -0.92) translate(60, -920)">					<path d="M 455 792 Q 485 773 518 748 Q 534 736 550 740 Q 560 741 565 756 Q 568 772 554 802 Q 545 821 512 831 Q 433 849 420 839 Q 416 835 418 821 Q 424 811 455 792 Z" fill="black"></path>
				<path d="M 277 669 Q 268 697 255 708 Q 237 723 235 698 Q 235 656 175 595 Q 154 574 179 519 Q 192 494 212 518 L 273 647 C 280 661 280 661 277 669 Z" fill="black"></path>
				<path d="M 273 647 Q 301 625 340 636 Q 464 675 681 695 Q 721 699 735 696 Q 751 686 749 679 Q 750 675 744 663 Q 717 597 721 593 Q 728 589 744 600 Q 798 634 841 645 Q 875 655 875 663 Q 874 673 804 726 Q 783 744 712 730 Q 606 718 384 683 Q 332 676 279 670 Q 278 670 277 669 C 247 664 247 662 273 647 Z" fill="black"></path>
				<path d="M 353 610 Q 357 598 351 589 Q 327 543 257 476 Q 248 472 246 467 Q 242 460 252 459 Q 288 459 380 541 Q 393 554 403 560 Q 412 566 410 576 Q 409 586 393 605 Q 377 621 364 624 Q 351 625 353 610 Z" fill="black"></path>
				<path d="M 589 601 Q 629 571 670 535 Q 680 525 693 526 Q 702 526 705 537 Q 709 547 702 571 Q 690 610 585 638 Q 572 641 568 639 Q 564 635 565 625 Q 568 618 589 601 Z" fill="black"></path>
				<path d="M 393 481 Q 383 485 362 488 Q 352 491 348 486 Q 344 480 351 466 Q 372 426 386 359 Q 389 340 401 326 Q 417 307 422 321 Q 425 330 425 342 L 421 373 Q 412 436 412 455 C 411 475 411 475 393 481 Z" fill="black"></path>
				<path d="M 611 393 Q 632 451 655 464 Q 668 480 656 496 Q 593 541 540 519 Q 470 494 393 481 C 363 476 382 453 412 455 Q 425 455 442 460 Q 565 487 571 480 Q 578 476 577 462 Q 573 428 566 398 C 559 369 600 365 611 393 Z" fill="black"></path>
				<path d="M 495 349 Q 543 356 624 360 Q 634 361 635 369 Q 635 376 611 393 C 597 403 596 403 566 398 Q 565 398 564 398 Q 485 380 421 373 C 391 370 395 343 425 342 Q 434 341 444 343 Q 454 346 471 347 L 495 349 Z" fill="red"></path>
				<path d="M 294 238 Q 273 254 250 259 Q 241 260 236 253 Q 232 247 240 238 Q 273 151 249 63 Q 243 39 248 21 Q 258 -10 269 -21 Q 279 -33 289 -20 Q 307 7 308 184 Q 308 193 309 198 C 312 225 312 225 294 238 Z" fill="lightgray"></path>
				<path d="M 518 244 Q 717 274 741 248 Q 748 241 744 225 Q 748 59 738 35 Q 735 25 722 28 Q 694 31 663 35 Q 636 36 656 20 Q 723 -26 751 -62 Q 761 -75 774 -64 Q 789 -48 796 -23 Q 805 2 802 148 Q 801 202 816 228 Q 831 249 824 256 Q 817 269 767 300 Q 748 315 713 300 Q 704 299 528 274 L 472 267 Q 414 261 381 253 Q 330 243 294 238 C 264 233 280 191 309 198 Q 319 198 329 202 Q 378 220 464 235 L 518 244 Z" fill="lightgray"></path>
				<path d="M 500 196 Q 507 218 518 244 L 528 274 Q 534 287 538 295 Q 547 311 531 323 Q 509 342 495 349 C 469 364 468 365 471 347 Q 470 343 474 333 Q 481 312 472 267 L 464 235 Q 427 124 360 89 Q 345 82 342 76 Q 339 70 349 69 Q 376 63 422 92 Q 468 120 499 193 L 500 196 Z" fill="lightgray"></path>
				<path d="M 499 193 Q 499 181 535 152 Q 569 127 610 91 Q 626 75 639 73 Q 646 73 653 82 Q 662 95 646 132 Q 634 165 570 183 Q 530 193 508 197 Q 502 200 500 196 L 499 193 Z" fill="lightgray"></path>
</g>
		<text x="40" y="140" font-size="128" fill="#999999">8</text></g>
		<g id="id1:id3:id3" transform="matrix(1.0,0,0,1.0,3072,0.0)">			<g stroke="lightgray" stroke-width="4" transform="scale(4, 4)"> <rect x="0" y="0" width="256" height="256" fill="white" stroke-width="4"/></g>
			<g transform="scale(0.92, -0.92) translate(60, -920)">					<path d="M 455 792 Q 485 773 518 748 Q 534 736 550 740 Q 560 741 565 756 Q 568 772 554 802 Q 545 821 512 831 Q 433 849 420 839 Q 416 835 418 821 Q 424 811 455 792 Z" fill="black"></path>
				<path d="M 277 669 Q 268 697 255 708 Q 237 723 235 698 Q 235 656 175 595 Q 154 574 179 519 Q 192 494 212 518 L 273 647 C 280 661 280 661 277 669 Z" fill="black"></path>
				<path d="M 273 647 Q 301 625 340 636 Q 464 675 681 695 Q 721 699 735 696 Q 751 686 749 679 Q 750 675 744 663 Q 717 597 721 593 Q 728 589 744 600 Q 798 634 841 645 Q 875 655 875 663 Q 874 673 804 726 Q 783 744 712 730 Q 606 718 384 683 Q 332 676 279 670 Q 278 670 277 669 C 247 664 247 662 273 647 Z" fill="black"></path>
				<path d="M 353 610 Q 357 598 351 589 Q 327 543 257 476 Q 248 472 246 467 Q 242 460 252 459 Q 288 459 380 541 Q 393 554 403 560 Q 412 566 410 576 Q 409 586 393 605 Q 377 621 364 624 Q 351 625 353 610 Z" fill="black"></path>
				<path d="M 589 601 Q 629 571 670 535 Q 680 525 693 526 Q 702 526 705 537 Q 709 547 702 571 Q 690 610 585 638 Q 572 641 568 639 Q 564 635 565 625 Q 568 618 589 601 Z" fill="black"></path>
				<path d="M 393 481 Q 383 485 362 488 Q 352 491 348 486 Q 344 480 351 466 Q 372 426 386 359 Q 389 340 401 326 Q 417 307 422 321 Q 425 330 425 342 L 421 373 Q 412 436 412 455 C 411 475 411 475 393 481 Z" fill="black"></path>
				<path d="M 611 393 Q 632 451 655 464 Q 668 480 656 496 Q 593 541 540 519 Q 470 494 393 481 C 363 476 382 453 412 455 Q 425 455 442 460 Q 565 487 571 480 Q 578 476 577 462 Q 573 428 566 398 C 559 369 600 365 611 393 Z" fill="black"></path>
				<path d="M 495 349 Q 543 356 624 360 Q 634 361 635 369 Q 635 376 611 393 C 597 403 596 403 566 398 Q 565 398 564 398 Q 485 380 421 373 C 391 370 395 343 425 342 Q 434 341 444 343 Q 454 346 471 347 L 495 349 Z" fill="black"></path>
				<path d="M 294 238 Q 273 254 250 259 Q 241 260 236 253 Q 232 247 240 238 Q 273 151 249 63 Q 243 39 248 21 Q 258 -10 269 -21 Q 279 -33 289 -20 Q 307 7 308 184 Q 308 193 309 198 C 312 225 312 225 294 238 Z" fill="red"></path>
				<path d="M 518 244 Q 717 274 741 248 Q 748 241 744 225 Q 748 59 738 35 Q 735 25 722 28 Q 694 31 663 35 Q 636 36 656 20 Q 723 -26 751 -62 Q 761 -75 774 -64 Q 789 -48 796 -23 Q 805 2 802 148 Q 801 202 816 228 Q 831 249 824 256 Q 817 269 767 300 Q 748 315 713 300 Q 704 299 528 274 L 472 267 Q 414 261 381 253 Q 330 243 294 238 C 264 233 280 191 309 198 Q 319 198 329 202 Q 378 220 464 235 L 518 244 Z" fill="lightgray"></path>
				<path d="M 500 196 Q 507 218 518 244 L 528 274 Q 534 287 538 295 Q 547 311 531 323 Q 509 342 495 349 C 469 364 468 365 471 347 Q 470 343 474 333 Q 481 312 472 267 L 464 235 Q 427 124 360 89 Q 345 82 342 76 Q 339 70 349 69 Q 376 63 422 92 Q 468 120 499 193 L 500 196 Z" fill="lightgray"></path>
				<path d="M 499 193 Q 499 181 535 152 Q 569 127 610 91 Q 626 75 639 73 Q 646 73 653 82 Q 662 95 646 132 Q 634 165 570 183 Q 530 193 508 197 Q 502 200 500 196 L 499 193 Z" fill="lightgray"></path>
</g>
		<text x="40" y="140" font-size="128" fill="#999999">9</text></g>
		<g id="id1:id4:id4" transform="matrix(1.0,0,0,1.0,4096,0.0)">			<g stroke="lightgray" stroke-width="4" transform="scale(4, 4)"> <rect x="0" y="0" width="256" height="256" fill="white" stroke-width="4"/></g>
			<g transform="scale(0.92, -0.92) translate(60, -920)">					<path d="M 455 792 Q 485 773 518 748 Q 534 736 550 740 Q 560 741 565 756 Q 568 772 554 802 Q 545 821 512 831 Q 433 849 420 839 Q 416 835 418 821 Q 424 811 455 792 Z" fill="black"></path>
				<path d="M 277 669 Q 268 697 255 708 Q 237 723 235 698 Q 235 656 175 595 Q 154 574 179 519 Q 192 494 212 518 L 273 647 C 280 661 280 661 277 669 Z" fill="black"></path>
				<path d="M 273 647 Q 301 625 340 636 Q 464 675 681 695 Q 721 699 735 696 Q 751 686 749 679 Q 750 675 744 663 Q 717 597 721 593 Q 728 589 744 600 Q 798 634 841 645 Q 875 655 875 663 Q 874 673 804 726 Q 783 744 712 730 Q 606 718 384 683 Q 332 676 279 670 Q 278 670 277 669 C 247 664 247 662 273 647 Z" fill="black"></path>
				<path d="M 353 610 Q 357 598 351 589 Q 327 543 257 476 Q 248 472 246 467 Q 242 460 252 459 Q 288 459 380 541 Q 393 554 403 560 Q 412 566 410 576 Q 409 586 393 605 Q 377 621 364 624 Q 351 625 353 610 Z" fill="black"></path>
				<path d="M 589 601 Q 629 571 670 535 Q 680 525 693 526 Q 702 526 705 537 Q 709 547 702 571 Q 690 610 585 638 Q 572 641 568 639 Q 564 635 565 625 Q 568 618 589 601 Z" fill="black"></path>
				<path d="M 393 481 Q 383 485 362 488 Q 352 491 348 486 Q 344 480 351 466 Q 372 426 386 359 Q 389 340 401 326 Q 417 307 422 321 Q 425 330 425 342 L 421 373 Q 412 436 412 455 C 411 475 411 475 393 481 Z" fill="black"></path>
				<path d="M 611 393 Q 632 451 655 464 Q 668 480 656 496 Q 593 541 540 519 Q 470 494 393 481 C 363 476 382 453 412 455 Q 425 455 442 460 Q 565 487 571 480 Q 578 476 577 462 Q 573 428 566 398 C 559 369 600 365 611 393 Z" fill="black"></path>
				<path d="M 495 349 Q 543 356 624 360 Q 634 361 635 369 Q 635 376 611 393 C 597 403 596 403 566 398 Q 565 398 564 398 Q 485 380 421 373 C 391 370 395 343 425 342 Q 434 341 444 343 Q 454 346 471 347 L 495 349 Z" fill="black"></path>
				<path d="M 294 238 Q 273 254 250 259 Q 241 260 236 253 Q 232 247 240 238 Q 273 151 249 63 Q 243 39 248 21 Q 258 -10 269 -21 Q 279 -33 289 -20 Q 307 7 308 184 Q 308 193 309 198 C 312 225 312 225 294 238 Z" fill="black"></path>
				<path d="M 518 244 Q 717 274 741 248 Q 748 241 744 225 Q 748 59 738 35 Q 735 25 722 28 Q 694 31 663 35 Q 636 36 656 20 Q 723 -26 751 -62 Q 761 -75 774 -64 Q 789 -48 796 -23 Q 805 2 802 148 Q 801 202 816 228 Q 831 249 824 256 Q 817 269 767 300 Q 748 315 713 300 Q 704 299 528 274 L 472 267 Q 414 261 381 253 Q 330 243 294 238 C 264 233 280 191 309 198 Q 319 198 329 202 Q 378 220 464 235 L 518 244 Z" fill="red"></path>
				<path d="M 500 196 Q 507 218 518 244 L 528 274 Q 534 287 538 295 Q 547 311 531 323 Q 509 342 495 349 C 469 364 468 365 471 347 Q 470 343 474 333 Q 481 312 472 267 L 464 235 Q 427 124 360 89 Q 345 82 342 76 Q 339 70 349 69 Q 376 63 422 92 Q 468 120 499 193 L 500 196 Z" fill="lightgray"></path>
				<path d="M 499 193 Q 499 181 535 152 Q 569 127 610 91 Q 626 75 639 73 Q 646 73 653 82 Q 662 95 646 132 Q 634 165 570 183 Q 530 193 508 197 Q 502 200 500 196 L 499 193 Z" fill="lightgray"></path>
</g>
		<text x="40" y="140" font-size="128" fill="#999999">10</text></g>
</g>
	<g id="id2:id2" transform="translate(0.0,2048)">
		<g id="id2:id0:id0" transform="matrix(1.0,0,0,1.0,0,0.0)">			<g stroke="lightgray" stroke-width="4" transform="scale(4, 4)"> <rect x="0" y="0" width="256" height="256" fill="white" stroke-width="4"/></g>
			<g transform="scale(0.92, -0.92) translate(60, -920)">					<path d="M 455 792 Q 485 773 518 748 Q 534 736 550 740 Q 560 741 565 756 Q 568 772 554 802 Q 545 821 512 831 Q 433 849 420 839 Q 416 835 418 821 Q 424 811 455 792 Z" fill="black"></path>
				<path d="M 277 669 Q 268 697 255 708 Q 237 723 235 698 Q 235 656 175 595 Q 154 574 179 519 Q 192 494 212 518 L 273 647 C 280 661 280 661 277 669 Z" fill="black"></path>
				<path d="M 273 647 Q 301 625 340 636 Q 464 675 681 695 Q 721 699 735 696 Q 751 686 749 679 Q 750 675 744 663 Q 717 597 721 593 Q 728 589 744 600 Q 798 634 841 645 Q 875 655 875 663 Q 874 673 804 726 Q 783 744 712 730 Q 606 718 384 683 Q 332 676 279 670 Q 278 670 277 669 C 247 664 247 662 273 647 Z" fill="black"></path>
				<path d="M 353 610 Q 357 598 351 589 Q 327 543 257 476 Q 248 472 246 467 Q 242 460 252 459 Q 288 459 380 541 Q 393 554 403 560 Q 412 566 410 576 Q 409 586 393 605 Q 377 621 364 624 Q 351 625 353 610 Z" fill="black"></path>
				<path d="M 589 601 Q 629 571 670 535 Q 680 525 693 526 Q 702 526 705 537 Q 709 547 702 571 Q 690 610 585 638 Q 572 641 568 639 Q 564 635 565 625 Q 568 618 589 601 Z" fill="black"></path>
				<path d="M 393 481 Q 383 485 362 488 Q 352 491 348 486 Q 344 480 351 466 Q 372 426 386 359 Q 389 340 401 326 Q 417 307 422 321 Q 425 330 425 342 L 421 373 Q 412 436 412 455 C 411 475 411 475 393 481 Z" fill="black"></path>
				<path d="M 611 393 Q 632 451 655 464 Q 668 480 656 496 Q 593 541 540 519 Q 470 494 393 481 C 363 476 382 453 412 455 Q 425 455 442 460 Q 565 487 571 480 Q 578 476 577 462 Q 573 428 566 398 C 559 369 600 365 611 393 Z" fill="black"></path>
				<path d="M 495 349 Q 543 356 624 360 Q 634 361 635 369 Q 635 376 611 393 C 597 403 596 403 566 398 Q 565 398 564 398 Q 485 380 421 373 C 391 370 395 343 425 342 Q 434 341 444 343 Q 454 346 471 347 L 495 349 Z" fill="black"></path>
				<path d="M 294 238 Q 273 254 250 259 Q 241 260 236 253 Q 232 247 240 238 Q 273 151 249 63 Q 243 39 248 21 Q 258 -10 269 -21 Q 279 -33 289 -20 Q 307 7 308 184 Q 308 193 309 198 C 312 225 312 225 294 238 Z" fill="black"></path>
				<path d="M 518 244 Q 717 274 741 248 Q 748 241 744 225 Q 748 59 738 35 Q 735 25 722 28 Q 694 31 663 35 Q 636 36 656 20 Q 723 -26 751 -62 Q 761 -75 774 -64 Q 789 -48 796 -23 Q 805 2 802 148 Q 801 202 816 228 Q 831 249 824 256 Q 817 269 767 300 Q 748 315 713 300 Q 704 299 528 274 L 472 267 Q 414 261 381 253 Q 330 243 294 238 C 264 233 280 191 309 198 Q 319 198 329 202 Q 378 220 464 235 L 518 244 Z" fill="black"></path>
				<path d="M 500 196 Q 507 218 518 244 L 528 274 Q 534 287 538 295 Q 547 311 531 323 Q 509 342 495 349 C 469 364 468 365 471 347 Q 470 343 474 333 Q 481 312 472 267 L 464 235 Q 427 124 360 89 Q 345 82 342 76 Q 339 70 349 69 Q 376 63 422 92 Q 468 120 499 193 L 500 196 Z" fill="red"></path>
				<path d="M 499 193 Q 499 181 535 152 Q 569 127 610 91 Q 626 75 639 73 Q 646 73 653 82 Q 662 95 646 132 Q 634 165 570 183 Q 530 193 508 197 Q 502 200 500 196 L 499 193 Z" fill="lightgray"></path>
</g>
		<text x="40" y="140" font-size="128" fill="#999999">11</text></g>
		<g id="id2:id1:id1" transform="matrix(1.0,0,0,1.0,1024,0.0)">			<g stroke="lightgray" stroke-width="4" transform="scale(4, 4)"> <rect x="0" y="0" width="256" height="256" fill="white" stroke-width="4"/></g>
			<g transform="scale(0.92, -0.92) translate(60, -920)">					<path d="M 455 792 Q 485 773 518 748 Q 534 736 550 740 Q 560 741 565 756 Q 568 772 554 802 Q 545 821 512 831 Q 433 849 420 839 Q 416 835 418 821 Q 424 811 455 792 Z" fill="black"></path>
				<path d="M 277 669 Q 268 697 255 708 Q 237 723 235 698 Q 235 656 175 595 Q 154 574 179 519 Q 192 494 212 518 L 273 647 C 280 661 280 661 277 669 Z" fill="black"></path>
				<path d="M 273 647 Q 301 625 340 636 Q 464 675 681 695 Q 721 699 735 696 Q 751 686 749 679 Q 750 675 744 663 Q 717 597 721 593 Q 728 589 744 600 Q 798 634 841 645 Q 875 655 875 663 Q 874 673 804 726 Q 783 744 712 730 Q 606 718 384 683 Q 332 676 279 670 Q 278 670 277 669 C 247 664 247 662 273 647 Z" fill="black"></path>
				<path d="M 353 610 Q 357 598 351 589 Q 327 543 257 476 Q 248 472 246 467 Q 242 460 252 459 Q 288 459 380 541 Q 393 554 403 560 Q 412 566 410 576 Q 409 586 393 605 Q 377 621 364 624 Q 351 625 353 610 Z" fill="black"></path>
				<path d="M 589 601 Q 629 571 670 535 Q 680 525 693 526 Q 702 526 705 537 Q 709 547 702 571 Q 690 610 585 638 Q 572 641 568 639 Q 564 635 565 625 Q 568 618 589 601 Z" fill="black"></path>
				<path d="M 393 481 Q 383 485 362 488 Q 352 491 348 486 Q 344 480 351 466 Q 372 426 386 359 Q 389 340 401 326 Q 417 307 422 321 Q 425 330 425 342 L 421 373 Q 412 436 412 455 C 411 475 411 475 393 481 Z" fill="black"></path>
				<path d="M 611 393 Q 632 451 655 464 Q 668 480 656 496 Q 593 541 540 519 Q 470 494 393 481 C 363 476 382 453 412 455 Q 425 455 442 460 Q 565 487 571 480 Q 578 476 577 462 Q 573 428 566 398 C 559 369 600 365 611 393 Z" fill="black"></path>
				<path d="M 495 349 Q 543 356 624 360 Q 634 361 635 369 Q 635 376 611 393 C 597 403 596 403 566 398 Q 565 398 564 398 Q 485 380 421 373 C 391 370 395 343 425 342 Q 434 341 444 343 Q 454 346 471 347 L 495 349 Z" fill="black"></path>
				<path d="M 294 238 Q 273 254 250 259 Q 241 260 236 253 Q 232 247 240 238 Q 273 151 249 63 Q 243 39 248 21 Q 258 -10 269 -21 Q 279 -33 289 -20 Q 307 7 308 184 Q 308 193 309 198 C 312 225 312 225 294 238 Z" fill="black"></path>
				<path d="M 518 244 Q 717 274 741 248 Q 748 241 744 225 Q 748 59 738 35 Q 735 25 722 28 Q 694 31 663 35 Q 636 36 656 20 Q 723 -26 751 -62 Q 761 -75 774 -64 Q 789 -48 796 -23 Q 805 2 802 148 Q 801 202 816 228 Q 831 249 824 256 Q 817 269 767 300 Q 748 315 713 300 Q 704 299 528 274 L 472 267 Q 414 261 381 253 Q 330 243 294 238 C 264 233 280 191 309 198 Q 319 198 329 202 Q 378 220 464 235 L 518 244 Z" fill="black"></path>
				<path d="M 500 196 Q 507 218 518 244 L 528 274 Q 534 287 538 295 Q 547 311 531 323 Q 509 342 495 349 C 469 364 468 365 471 347 Q 470 343 474 333 Q 481 312 472 267 L 464 235 Q 427 124 360 89 Q 345 82 342 76 Q 339 70 349 69 Q 376 63 422 92 Q 468 120 499 193 L 500 196 Z" fill="black"></path>
				<path d="M 499 193 Q 499 181 535 152 Q 569 127 610 91 Q 626 75 639 73 Q 646 73 653 82 Q 662 95 646 132 Q 634 165 570 183 Q 530 193 508 197 Q 502 200 500 196 L 499 193 Z" fill="red"></path>
</g>
		<text x="40" y="140" font-size="128" fill="#999999">12</text></g>
		<g id="id2:id2:id2" transform="matrix(1.0,0,0,1.0,2048,0.0)">			<g stroke="white" stroke-width="4" transform="scale(4, 4)"> <rect x="1" y="1" width="255" height="255" fill="white" stroke-width="0"/></g>
</g>
		<g id="id2:id3:id3" transform="matrix(1.0,0,0,1.0,3072,0.0)">			<g stroke="white" stroke-width="4" transform="scale(4, 4)"> <rect x="1" y="1" width="255" height="255" fill="white" stroke-width="0"/></g>
</g>
		<g id="id2:id4:id4" transform="matrix(1.0,0,0,1.0,4096,0.0)">			<g stroke="white" stroke-width="4" transform="scale(4, 4)"> <rect x="1" y="1" width="255" height="255" fill="white" stroke-width="0"/></g>
</g>
</g>
</svg>
