<?xml version="1.0" standalone="no"?>
<!DOCTYPE svg PUBLIC "-//W3C//DTD SVG 1.1//EN"
 "http://www.w3.org/Graphics/SVG/1.1/DTD/svg11.dtd">
<!-- generate by Handict dictionary app com.asnsami.handict -->

<svg xmlns="http://www.w3.org/2000/svg" xmlns:sodipodi="http://sodipodi.sourceforge.net/DTD/sodipodi-0.dtd" version="1.1" width="640" height="384" viewBox="0 0 5120 3072">
	<g id="id0:id0" transform="translate(0.0,0)">
		<g id="id0:id0:id0" transform="matrix(1.0,0,0,1.0,0,0.0)">			<g stroke="lightgray" stroke-width="4" transform="scale(4, 4)"> <rect x="0" y="0" width="256" height="256" fill="white" stroke-width="4"/></g>
			<g transform="scale(0.92, -0.92) translate(60, -920)">					<path d="M 476 812 Q 500 796 526 774 Q 539 764 553 767 Q 562 768 565 780 Q 568 793 557 818 Q 545 845 466 852 Q 453 853 448 851 Q 444 847 446 836 Q 450 827 476 812 Z" fill="red"></path>
				<path d="M 616 709 Q 709 727 713 729 Q 722 736 718 744 Q 712 757 684 765 Q 651 775 568 749 Q 427 725 344 723 Q 308 719 332 701 Q 365 679 446 687 Q 513 696 583 705 L 616 709 Z" fill="lightgray"></path>
				<path d="M 370 639 Q 406 570 427 565 Q 437 561 447 576 Q 451 586 446 606 Q 440 622 421 634 Q 393 656 379 661 Q 372 664 369 654 Q 366 648 370 639 Z" fill="lightgray"></path>
				<path d="M 575 561 Q 581 568 620 626 Q 627 639 642 656 Q 655 666 649 676 Q 642 692 616 709 C 591 726 575 734 583 705 Q 583 704 584 702 Q 591 675 550 575 Q 546 566 543 557 C 533 529 557 537 575 561 Z" fill="lightgray"></path>
				<path d="M 543 557 Q 527 557 509 554 Q 335 535 129 515 Q 107 514 123 495 Q 138 480 156 474 Q 178 468 195 473 Q 504 551 892 530 Q 893 531 896 530 Q 917 530 922 539 Q 929 551 911 565 Q 857 607 819 599 Q 725 581 575 561 L 543 557 Z" fill="lightgray"></path>
				<path d="M 352 457 Q 342 461 316 463 Q 304 466 301 460 Q 295 453 304 438 Q 335 386 357 298 Q 361 271 379 254 Q 398 235 402 250 Q 403 257 404 265 L 403 289 Q 397 322 391 346 L 385 369 Q 376 409 374 426 C 370 452 370 452 352 457 Z" fill="lightgray"></path>
				<path d="M 594 281 Q 607 262 621 254 Q 630 247 645 265 Q 657 281 684 375 Q 693 403 716 426 Q 729 436 718 450 Q 705 466 665 492 Q 650 501 590 489 Q 578 488 565 486 Q 421 465 352 457 C 322 453 345 419 374 426 Q 437 442 590 456 Q 618 459 628 449 Q 637 437 635 427 Q 617 330 601 312 C 588 289 588 289 594 281 Z" fill="lightgray"></path>
				<path d="M 391 346 Q 392 346 395 346 Q 495 359 568 368 Q 587 371 580 382 Q 573 394 551 399 Q 533 402 385 369 C 356 362 361 345 391 346 Z" fill="lightgray"></path>
				<path d="M 527 275 Q 561 279 594 281 C 624 283 628 299 601 312 Q 597 315 590 316 Q 574 319 403 289 C 373 284 374 268 404 265 Q 411 264 425 264 Q 450 268 477 270 L 527 275 Z" fill="lightgray"></path>
				<path d="M 526 155 Q 632 162 788 157 Q 860 154 866 163 Q 872 175 855 190 Q 801 232 763 225 Q 673 210 526 193 L 473 187 Q 341 177 190 162 Q 168 161 183 143 Q 198 128 216 122 Q 238 115 254 119 Q 354 143 468 151 Q 469 152 472 151 L 526 155 Z" fill="lightgray"></path>
				<path d="M 472 151 Q 469 -57 488 -78 Q 498 -88 509 -66 Q 525 -32 526 155 L 526 193 Q 526 233 527 275 C 528 305 478 300 477 270 Q 476 230 473 187 L 472 151 Z" fill="lightgray"></path>
</g>
		<text x="40" y="140" font-size="128" fill="#999999">1</text></g>
		<g id="id0:id1:id1" transform="matrix(1.0,0,0,1.0,1024,0.0)">			<g stroke="lightgray" stroke-width="4" transform="scale(4, 4)"> <rect x="0" y="0" width="256" height="256" fill="white" stroke-width="4"/></g>
			<g transform="scale(0.92, -0.92) translate(60, -920)">					<path d="M 476 812 Q 500 796 526 774 Q 539 764 553 767 Q 562 768 565 780 Q 568 793 557 818 Q 545 845 466 852 Q 453 853 448 851 Q 444 847 446 836 Q 450 827 476 812 Z" fill="black"></path>
				<path d="M 616 709 Q 709 727 713 729 Q 722 736 718 744 Q 712 757 684 765 Q 651 775 568 749 Q 427 725 344 723 Q 308 719 332 701 Q 365 679 446 687 Q 513 696 583 705 L 616 709 Z" fill="red"></path>
				<path d="M 370 639 Q 406 570 427 565 Q 437 561 447 576 Q 451 586 446 606 Q 440 622 421 634 Q 393 656 379 661 Q 372 664 369 654 Q 366 648 370 639 Z" fill="lightgray"></path>
				<path d="M 575 561 Q 581 568 620 626 Q 627 639 642 656 Q 655 666 649 676 Q 642 692 616 709 C 591 726 575 734 583 705 Q 583 704 584 702 Q 591 675 550 575 Q 546 566 543 557 C 533 529 557 537 575 561 Z" fill="lightgray"></path>
				<path d="M 543 557 Q 527 557 509 554 Q 335 535 129 515 Q 107 514 123 495 Q 138 480 156 474 Q 178 468 195 473 Q 504 551 892 530 Q 893 531 896 530 Q 917 530 922 539 Q 929 551 911 565 Q 857 607 819 599 Q 725 581 575 561 L 543 557 Z" fill="lightgray"></path>
				<path d="M 352 457 Q 342 461 316 463 Q 304 466 301 460 Q 295 453 304 438 Q 335 386 357 298 Q 361 271 379 254 Q 398 235 402 250 Q 403 257 404 265 L 403 289 Q 397 322 391 346 L 385 369 Q 376 409 374 426 C 370 452 370 452 352 457 Z" fill="lightgray"></path>
				<path d="M 594 281 Q 607 262 621 254 Q 630 247 645 265 Q 657 281 684 375 Q 693 403 716 426 Q 729 436 718 450 Q 705 466 665 492 Q 650 501 590 489 Q 578 488 565 486 Q 421 465 352 457 C 322 453 345 419 374 426 Q 437 442 590 456 Q 618 459 628 449 Q 637 437 635 427 Q 617 330 601 312 C 588 289 588 289 594 281 Z" fill="lightgray"></path>
				<path d="M 391 346 Q 392 346 395 346 Q 495 359 568 368 Q 587 371 580 382 Q 573 394 551 399 Q 533 402 385 369 C 356 362 361 345 391 346 Z" fill="lightgray"></path>
				<path d="M 527 275 Q 561 279 594 281 C 624 283 628 299 601 312 Q 597 315 590 316 Q 574 319 403 289 C 373 284 374 268 404 265 Q 411 264 425 264 Q 450 268 477 270 L 527 275 Z" fill="lightgray"></path>
				<path d="M 526 155 Q 632 162 788 157 Q 860 154 866 163 Q 872 175 855 190 Q 801 232 763 225 Q 673 210 526 193 L 473 187 Q 341 177 190 162 Q 168 161 183 143 Q 198 128 216 122 Q 238 115 254 119 Q 354 143 468 151 Q 469 152 472 151 L 526 155 Z" fill="lightgray"></path>
				<path d="M 472 151 Q 469 -57 488 -78 Q 498 -88 509 -66 Q 525 -32 526 155 L 526 193 Q 526 233 527 275 C 528 305 478 300 477 270 Q 476 230 473 187 L 472 151 Z" fill="lightgray"></path>
</g>
		<text x="40" y="140" font-size="128" fill="#999999">2</text></g>
		<g id="id0:id2:id2" transform="matrix(1.0,0,0,1.0,2048,0.0)">			<g stroke="lightgray" stroke-width="4" transform="scale(4, 4)"> <rect x="0" y="0" width="256" height="256" fill="white" stroke-width="4"/></g>
			<g transform="scale(0.92, -0.92) translate(60, -920)">					<path d="M 476 812 Q 500 796 526 774 Q 539 764 553 767 Q 562 768 565 780 Q 568 793 557 818 Q 545 845 466 852 Q 453 853 448 851 Q 444 847 446 836 Q 450 827 476 812 Z" fill="black"></path>
				<path d="M 616 709 Q 709 727 713 729 Q 722 736 718 744 Q 712 757 684 765 Q 651 775 568 749 Q 427 725 344 723 Q 308 719 332 701 Q 365 679 446 687 Q 513 696 583 705 L 616 709 Z" fill="black"></path>
				<path d="M 370 639 Q 406 570 427 565 Q 437 561 447 576 Q 451 586 446 606 Q 440 622 421 634 Q 393 656 379 661 Q 372 664 369 654 Q 366 648 370 639 Z" fill="red"></path>
				<path d="M 575 561 Q 581 568 620 626 Q 627 639 642 656 Q 655 666 649 676 Q 642 692 616 709 C 591 726 575 734 583 705 Q 583 704 584 702 Q 591 675 550 575 Q 546 566 543 557 C 533 529 557 537 575 561 Z" fill="lightgray"></path>
				<path d="M 543 557 Q 527 557 509 554 Q 335 535 129 515 Q 107 514 123 495 Q 138 480 156 474 Q 178 468 195 473 Q 504 551 892 530 Q 893 531 896 530 Q 917 530 922 539 Q 929 551 911 565 Q 857 607 819 599 Q 725 581 575 561 L 543 557 Z" fill="lightgray"></path>
				<path d="M 352 457 Q 342 461 316 463 Q 304 466 301 460 Q 295 453 304 438 Q 335 386 357 298 Q 361 271 379 254 Q 398 235 402 250 Q 403 257 404 265 L 403 289 Q 397 322 391 346 L 385 369 Q 376 409 374 426 C 370 452 370 452 352 457 Z" fill="lightgray"></path>
				<path d="M 594 281 Q 607 262 621 254 Q 630 247 645 265 Q 657 281 684 375 Q 693 403 716 426 Q 729 436 718 450 Q 705 466 665 492 Q 650 501 590 489 Q 578 488 565 486 Q 421 465 352 457 C 322 453 345 419 374 426 Q 437 442 590 456 Q 618 459 628 449 Q 637 437 635 427 Q 617 330 601 312 C 588 289 588 289 594 281 Z" fill="lightgray"></path>
				<path d="M 391 346 Q 392 346 395 346 Q 495 359 568 368 Q 587 371 580 382 Q 573 394 551 399 Q 533 402 385 369 C 356 362 361 345 391 346 Z" fill="lightgray"></path>
				<path d="M 527 275 Q 561 279 594 281 C 624 283 628 299 601 312 Q 597 315 590 316 Q 574 319 403 289 C 373 284 374 268 404 265 Q 411 264 425 264 Q 450 268 477 270 L 527 275 Z" fill="lightgray"></path>
				<path d="M 526 155 Q 632 162 788 157 Q 860 154 866 163 Q 872 175 855 190 Q 801 232 763 225 Q 673 210 526 193 L 473 187 Q 341 177 190 162 Q 168 161 183 143 Q 198 128 216 122 Q 238 115 254 119 Q 354 143 468 151 Q 469 152 472 151 L 526 155 Z" fill="lightgray"></path>
				<path d="M 472 151 Q 469 -57 488 -78 Q 498 -88 509 -66 Q 525 -32 526 155 L 526 193 Q 526 233 527 275 C 528 305 478 300 477 270 Q 476 230 473 187 L 472 151 Z" fill="lightgray"></path>
</g>
		<text x="40" y="140" font-size="128" fill="#999999">3</text></g>
		<g id="id0:id3:id3" transform="matrix(1.0,0,0,1.0,3072,0.0)">			<g stroke="lightgray" stroke-width="4" transform="scale(4, 4)"> <rect x="0" y="0" width="256" height="256" fill="white" stroke-width="4"/></g>
			<g transform="scale(0.92, -0.92) translate(60, -920)">					<path d="M 476 812 Q 500 796 526 774 Q 539 764 553 767 Q 562 768 565 780 Q 568 793 557 818 Q 545 845 466 852 Q 453 853 448 851 Q 444 847 446 836 Q 450 827 476 812 Z" fill="black"></path>
				<path d="M 616 709 Q 709 727 713 729 Q 722 736 718 744 Q 712 757 684 765 Q 651 775 568 749 Q 427 725 344 723 Q 308 719 332 701 Q 365 679 446 687 Q 513 696 583 705 L 616 709 Z" fill="black"></path>
				<path d="M 370 639 Q 406 570 427 565 Q 437 561 447 576 Q 451 586 446 606 Q 440 622 421 634 Q 393 656 379 661 Q 372 664 369 654 Q 366 648 370 639 Z" fill="black"></path>
				<path d="M 575 561 Q 581 568 620 626 Q 627 639 642 656 Q 655 666 649 676 Q 642 692 616 709 C 591 726 575 734 583 705 Q 583 704 584 702 Q 591 675 550 575 Q 546 566 543 557 C 533 529 557 537 575 561 Z" fill="red"></path>
				<path d="M 543 557 Q 527 557 509 554 Q 335 535 129 515 Q 107 514 123 495 Q 138 480 156 474 Q 178 468 195 473 Q 504 551 892 530 Q 893 531 896 530 Q 917 530 922 539 Q 929 551 911 565 Q 857 607 819 599 Q 725 581 575 561 L 543 557 Z" fill="lightgray"></path>
				<path d="M 352 457 Q 342 461 316 463 Q 304 466 301 460 Q 295 453 304 438 Q 335 386 357 298 Q 361 271 379 254 Q 398 235 402 250 Q 403 257 404 265 L 403 289 Q 397 322 391 346 L 385 369 Q 376 409 374 426 C 370 452 370 452 352 457 Z" fill="lightgray"></path>
				<path d="M 594 281 Q 607 262 621 254 Q 630 247 645 265 Q 657 281 684 375 Q 693 403 716 426 Q 729 436 718 450 Q 705 466 665 492 Q 650 501 590 489 Q 578 488 565 486 Q 421 465 352 457 C 322 453 345 419 374 426 Q 437 442 590 456 Q 618 459 628 449 Q 637 437 635 427 Q 617 330 601 312 C 588 289 588 289 594 281 Z" fill="lightgray"></path>
				<path d="M 391 346 Q 392 346 395 346 Q 495 359 568 368 Q 587 371 580 382 Q 573 394 551 399 Q 533 402 385 369 C 356 362 361 345 391 346 Z" fill="lightgray"></path>
				<path d="M 527 275 Q 561 279 594 281 C 624 283 628 299 601 312 Q 597 315 590 316 Q 574 319 403 289 C 373 284 374 268 404 265 Q 411 264 425 264 Q 450 268 477 270 L 527 275 Z" fill="lightgray"></path>
				<path d="M 526 155 Q 632 162 788 157 Q 860 154 866 163 Q 872 175 855 190 Q 801 232 763 225 Q 673 210 526 193 L 473 187 Q 341 177 190 162 Q 168 161 183 143 Q 198 128 216 122 Q 238 115 254 119 Q 354 143 468 151 Q 469 152 472 151 L 526 155 Z" fill="lightgray"></path>
				<path d="M 472 151 Q 469 -57 488 -78 Q 498 -88 509 -66 Q 525 -32 526 155 L 526 193 Q 526 233 527 275 C 528 305 478 300 477 270 Q 476 230 473 187 L 472 151 Z" fill="lightgray"></path>
</g>
		<text x="40" y="140" font-size="128" fill="#999999">4</text></g>
		<g id="id0:id4:id4" transform="matrix(1.0,0,0,1.0,4096,0.0)">			<g stroke="lightgray" stroke-width="4" transform="scale(4, 4)"> <rect x="0" y="0" width="256" height="256" fill="white" stroke-width="4"/></g>
			<g transform="scale(0.92, -0.92) translate(60, -920)">					<path d="M 476 812 Q 500 796 526 774 Q 539 764 553 767 Q 562 768 565 780 Q 568 793 557 818 Q 545 845 466 852 Q 453 853 448 851 Q 444 847 446 836 Q 450 827 476 812 Z" fill="black"></path>
				<path d="M 616 709 Q 709 727 713 729 Q 722 736 718 744 Q 712 757 684 765 Q 651 775 568 749 Q 427 725 344 723 Q 308 719 332 701 Q 365 679 446 687 Q 513 696 583 705 L 616 709 Z" fill="black"></path>
				<path d="M 370 639 Q 406 570 427 565 Q 437 561 447 576 Q 451 586 446 606 Q 440 622 421 634 Q 393 656 379 661 Q 372 664 369 654 Q 366 648 370 639 Z" fill="black"></path>
				<path d="M 575 561 Q 581 568 620 626 Q 627 639 642 656 Q 655 666 649 676 Q 642 692 616 709 C 591 726 575 734 583 705 Q 583 704 584 702 Q 591 675 550 575 Q 546 566 543 557 C 533 529 557 537 575 561 Z" fill="black"></path>
				<path d="M 543 557 Q 527 557 509 554 Q 335 535 129 515 Q 107 514 123 495 Q 138 480 156 474 Q 178 468 195 473 Q 504 551 892 530 Q 893 531 896 530 Q 917 530 922 539 Q 929 551 911 565 Q 857 607 819 599 Q 725 581 575 561 L 543 557 Z" fill="red"></path>
				<path d="M 352 457 Q 342 461 316 463 Q 304 466 301 460 Q 295 453 304 438 Q 335 386 357 298 Q 361 271 379 254 Q 398 235 402 250 Q 403 257 404 265 L 403 289 Q 397 322 391 346 L 385 369 Q 376 409 374 426 C 370 452 370 452 352 457 Z" fill="lightgray"></path>
				<path d="M 594 281 Q 607 262 621 254 Q 630 247 645 265 Q 657 281 684 375 Q 693 403 716 426 Q 729 436 718 450 Q 705 466 665 492 Q 650 501 590 489 Q 578 488 565 486 Q 421 465 352 457 C 322 453 345 419 374 426 Q 437 442 590 456 Q 618 459 628 449 Q 637 437 635 427 Q 617 330 601 312 C 588 289 588 289 594 281 Z" fill="lightgray"></path>
				<path d="M 391 346 Q 392 346 395 346 Q 495 359 568 368 Q 587 371 580 382 Q 573 394 551 399 Q 533 402 385 369 C 356 362 361 345 391 346 Z" fill="lightgray"></path>
				<path d="M 527 275 Q 561 279 594 281 C 624 283 628 299 601 312 Q 597 315 590 316 Q 574 319 403 289 C 373 284 374 268 404 265 Q 411 264 425 264 Q 450 268 477 270 L 527 275 Z" fill="lightgray"></path>
				<path d="M 526 155 Q 632 162 788 157 Q 860 154 866 163 Q 872 175 855 190 Q 801 232 763 225 Q 673 210 526 193 L 473 187 Q 341 177 190 162 Q 168 161 183 143 Q 198 128 216 122 Q 238 115 254 119 Q 354 143 468 151 Q 469 152 472 151 L 526 155 Z" fill="lightgray"></path>
				<path d="M 472 151 Q 469 -57 488 -78 Q 498 -88 509 -66 Q 525 -32 526 155 L 526 193 Q 526 233 527 275 C 528 305 478 300 477 270 Q 476 230 473 187 L 472 151 Z" fill="lightgray"></path>
</g>
		<text x="40" y="140" font-size="128" fill="#999999">5</text></g>
</g>
	<g id="id1:id1" transform="translate(0.0,1024)">
		<g id="id1:id0:id0" transform="matrix(1.0,0,0,1.0,0,0.0)">			<g stroke="lightgray" stroke-width="4" transform="scale(4, 4)"> <rect x="0" y="0" width="256" height="256" fill="white" stroke-width="4"/></g>
			<g transform="scale(0.92, -0.92) translate(60, -920)">					<path d="M 476 812 Q 500 796 526 774 Q 539 764 553 767 Q 562 768 565 780 Q 568 793 557 818 Q 545 845 466 852 Q 453 853 448 851 Q 444 847 446 836 Q 450 827 476 812 Z" fill="black"></path>
				<path d="M 616 709 Q 709 727 713 729 Q 722 736 718 744 Q 712 757 684 765 Q 651 775 568 749 Q 427 725 344 723 Q 308 719 332 701 Q 365 679 446 687 Q 513 696 583 705 L 616 709 Z" fill="black"></path>
				<path d="M 370 639 Q 406 570 427 565 Q 437 561 447 576 Q 451 586 446 606 Q 440 622 421 634 Q 393 656 379 661 Q 372 664 369 654 Q 366 648 370 639 Z" fill="black"></path>
				<path d="M 575 561 Q 581 568 620 626 Q 627 639 642 656 Q 655 666 649 676 Q 642 692 616 709 C 591 726 575 734 583 705 Q 583 704 584 702 Q 591 675 550 575 Q 546 566 543 557 C 533 529 557 537 575 561 Z" fill="black"></path>
				<path d="M 543 557 Q 527 557 509 554 Q 335 535 129 515 Q 107 514 123 495 Q 138 480 156 474 Q 178 468 195 473 Q 504 551 892 530 Q 893 531 896 530 Q 917 530 922 539 Q 929 551 911 565 Q 857 607 819 599 Q 725 581 575 561 L 543 557 Z" fill="black"></path>
				<path d="M 352 457 Q 342 461 316 463 Q 304 466 301 460 Q 295 453 304 438 Q 335 386 357 298 Q 361 271 379 254 Q 398 235 402 250 Q 403 257 404 265 L 403 289 Q 397 322 391 346 L 385 369 Q 376 409 374 426 C 370 452 370 452 352 457 Z" fill="red"></path>
				<path d="M 594 281 Q 607 262 621 254 Q 630 247 645 265 Q 657 281 684 375 Q 693 403 716 426 Q 729 436 718 450 Q 705 466 665 492 Q 650 501 590 489 Q 578 488 565 486 Q 421 465 352 457 C 322 453 345 419 374 426 Q 437 442 590 456 Q 618 459 628 449 Q 637 437 635 427 Q 617 330 601 312 C 588 289 588 289 594 281 Z" fill="lightgray"></path>
				<path d="M 391 346 Q 392 346 395 346 Q 495 359 568 368 Q 587 371 580 382 Q 573 394 551 399 Q 533 402 385 369 C 356 362 361 345 391 346 Z" fill="lightgray"></path>
				<path d="M 527 275 Q 561 279 594 281 C 624 283 628 299 601 312 Q 597 315 590 316 Q 574 319 403 289 C 373 284 374 268 404 265 Q 411 264 425 264 Q 450 268 477 270 L 527 275 Z" fill="lightgray"></path>
				<path d="M 526 155 Q 632 162 788 157 Q 860 154 866 163 Q 872 175 855 190 Q 801 232 763 225 Q 673 210 526 193 L 473 187 Q 341 177 190 162 Q 168 161 183 143 Q 198 128 216 122 Q 238 115 254 119 Q 354 143 468 151 Q 469 152 472 151 L 526 155 Z" fill="lightgray"></path>
				<path d="M 472 151 Q 469 -57 488 -78 Q 498 -88 509 -66 Q 525 -32 526 155 L 526 193 Q 526 233 527 275 C 528 305 478 300 477 270 Q 476 230 473 187 L 472 151 Z" fill="lightgray"></path>
</g>
		<text x="40" y="140" font-size="128" fill="#999999">6</text></g>
		<g id="id1:id1:id1" transform="matrix(1.0,0,0,1.0,1024,0.0)">			<g stroke="lightgray" stroke-width="4" transform="scale(4, 4)"> <rect x="0" y="0" width="256" height="256" fill="white" stroke-width="4"/></g>
			<g transform="scale(0.92, -0.92) translate(60, -920)">					<path d="M 476 812 Q 500 796 526 774 Q 539 764 553 767 Q 562 768 565 780 Q 568 793 557 818 Q 545 845 466 852 Q 453 853 448 851 Q 444 847 446 836 Q 450 827 476 812 Z" fill="black"></path>
				<path d="M 616 709 Q 709 727 713 729 Q 722 736 718 744 Q 712 757 684 765 Q 651 775 568 749 Q 427 725 344 723 Q 308 719 332 701 Q 365 679 446 687 Q 513 696 583 705 L 616 709 Z" fill="black"></path>
				<path d="M 370 639 Q 406 570 427 565 Q 437 561 447 576 Q 451 586 446 606 Q 440 622 421 634 Q 393 656 379 661 Q 372 664 369 654 Q 366 648 370 639 Z" fill="black"></path>
				<path d="M 575 561 Q 581 568 620 626 Q 627 639 642 656 Q 655 666 649 676 Q 642 692 616 709 C 591 726 575 734 583 705 Q 583 704 584 702 Q 591 675 550 575 Q 546 566 543 557 C 533 529 557 537 575 561 Z" fill="black"></path>
				<path d="M 543 557 Q 527 557 509 554 Q 335 535 129 515 Q 107 514 123 495 Q 138 480 156 474 Q 178 468 195 473 Q 504 551 892 530 Q 893 531 896 530 Q 917 530 922 539 Q 929 551 911 565 Q 857 607 819 599 Q 725 581 575 561 L 543 557 Z" fill="black"></path>
				<path d="M 352 457 Q 342 461 316 463 Q 304 466 301 460 Q 295 453 304 438 Q 335 386 357 298 Q 361 271 379 254 Q 398 235 402 250 Q 403 257 404 265 L 403 289 Q 397 322 391 346 L 385 369 Q 376 409 374 426 C 370 452 370 452 352 457 Z" fill="black"></path>
				<path d="M 594 281 Q 607 262 621 254 Q 630 247 645 265 Q 657 281 684 375 Q 693 403 716 426 Q 729 436 718 450 Q 705 466 665 492 Q 650 501 590 489 Q 578 488 565 486 Q 421 465 352 457 C 322 453 345 419 374 426 Q 437 442 590 456 Q 618 459 628 449 Q 637 437 635 427 Q 617 330 601 312 C 588 289 588 289 594 281 Z" fill="red"></path>
				<path d="M 391 346 Q 392 346 395 346 Q 495 359 568 368 Q 587 371 580 382 Q 573 394 551 399 Q 533 402 385 369 C 356 362 361 345 391 346 Z" fill="lightgray"></path>
				<path d="M 527 275 Q 561 279 594 281 C 624 283 628 299 601 312 Q 597 315 590 316 Q 574 319 403 289 C 373 284 374 268 404 265 Q 411 264 425 264 Q 450 268 477 270 L 527 275 Z" fill="lightgray"></path>
				<path d="M 526 155 Q 632 162 788 157 Q 860 154 866 163 Q 872 175 855 190 Q 801 232 763 225 Q 673 210 526 193 L 473 187 Q 341 177 190 162 Q 168 161 183 143 Q 198 128 216 122 Q 238 115 254 119 Q 354 143 468 151 Q 469 152 472 151 L 526 155 Z" fill="lightgray"></path>
				<path d="M 472 151 Q 469 -57 488 -78 Q 498 -88 509 -66 Q 525 -32 526 155 L 526 193 Q 526 233 527 275 C 528 305 478 300 477 270 Q 476 230 473 187 L 472 151 Z" fill="lightgray"></path>
</g>
		<text x="40" y="140" font-size="128" fill="#999999">7</text></g>
		<g id="id1:id2:id2" transform="matrix(1.0,0,0,1.0,2048,0.0)">			<g stroke="lightgray" stroke-width="4" transform="scale(4, 4)"> <rect x="0" y="0" width="256" height="256" fill="white" stroke-width="4"/></g>
			<g transform="scale(0.92, -0.92) translate(60, -920)">					<path d="M 476 812 Q 500 796 526 774 Q 539 764 553 767 Q 562 768 565 780 Q 568 793 557 818 Q 545 845 466 852 Q 453 853 448 851 Q 444 847 446 836 Q 450 827 476 812 Z" fill="black"></path>
				<path d="M 616 709 Q 709 727 713 729 Q 722 736 718 744 Q 712 757 684 765 Q 651 775 568 749 Q 427 725 344 723 Q 308 719 332 701 Q 365 679 446 687 Q 513 696 583 705 L 616 709 Z" fill="black"></path>
				<path d="M 370 639 Q 406 570 427 565 Q 437 561 447 576 Q 451 586 446 606 Q 440 622 421 634 Q 393 656 379 661 Q 372 664 369 654 Q 366 648 370 639 Z" fill="black"></path>
				<path d="M 575 561 Q 581 568 620 626 Q 627 639 642 656 Q 655 666 649 676 Q 642 692 616 709 C 591 726 575 734 583 705 Q 583 704 584 702 Q 591 675 550 575 Q 546 566 543 557 C 533 529 557 537 575 561 Z" fill="black"></path>
				<path d="M 543 557 Q 527 557 509 554 Q 335 535 129 515 Q 107 514 123 495 Q 138 480 156 474 Q 178 468 195 473 Q 504 551 892 530 Q 893 531 896 530 Q 917 530 922 539 Q 929 551 911 565 Q 857 607 819 599 Q 725 581 575 561 L 543 557 Z" fill="black"></path>
				<path d="M 352 457 Q 342 461 316 463 Q 304 466 301 460 Q 295 453 304 438 Q 335 386 357 298 Q 361 271 379 254 Q 398 235 402 250 Q 403 257 404 265 L 403 289 Q 397 322 391 346 L 385 369 Q 376 409 374 426 C 370 452 370 452 352 457 Z" fill="black"></path>
				<path d="M 594 281 Q 607 262 621 254 Q 630 247 645 265 Q 657 281 684 375 Q 693 403 716 426 Q 729 436 718 450 Q 705 466 665 492 Q 650 501 590 489 Q 578 488 565 486 Q 421 465 352 457 C 322 453 345 419 374 426 Q 437 442 590 456 Q 618 459 628 449 Q 637 437 635 427 Q 617 330 601 312 C 588 289 588 289 594 281 Z" fill="black"></path>
				<path d="M 391 346 Q 392 346 395 346 Q 495 359 568 368 Q 587 371 580 382 Q 573 394 551 399 Q 533 402 385 369 C 356 362 361 345 391 346 Z" fill="red"></path>
				<path d="M 527 275 Q 561 279 594 281 C 624 283 628 299 601 312 Q 597 315 590 316 Q 574 319 403 289 C 373 284 374 268 404 265 Q 411 264 425 264 Q 450 268 477 270 L 527 275 Z" fill="lightgray"></path>
				<path d="M 526 155 Q 632 162 788 157 Q 860 154 866 163 Q 872 175 855 190 Q 801 232 763 225 Q 673 210 526 193 L 473 187 Q 341 177 190 162 Q 168 161 183 143 Q 198 128 216 122 Q 238 115 254 119 Q 354 143 468 151 Q 469 152 472 151 L 526 155 Z" fill="lightgray"></path>
				<path d="M 472 151 Q 469 -57 488 -78 Q 498 -88 509 -66 Q 525 -32 526 155 L 526 193 Q 526 233 527 275 C 528 305 478 300 477 270 Q 476 230 473 187 L 472 151 Z" fill="lightgray"></path>
</g>
		<text x="40" y="140" font-size="128" fill="#999999">8</text></g>
		<g id="id1:id3:id3" transform="matrix(1.0,0,0,1.0,3072,0.0)">			<g stroke="lightgray" stroke-width="4" transform="scale(4, 4)"> <rect x="0" y="0" width="256" height="256" fill="white" stroke-width="4"/></g>
			<g transform="scale(0.92, -0.92) translate(60, -920)">					<path d="M 476 812 Q 500 796 526 774 Q 539 764 553 767 Q 562 768 565 780 Q 568 793 557 818 Q 545 845 466 852 Q 453 853 448 851 Q 444 847 446 836 Q 450 827 476 812 Z" fill="black"></path>
				<path d="M 616 709 Q 709 727 713 729 Q 722 736 718 744 Q 712 757 684 765 Q 651 775 568 749 Q 427 725 344 723 Q 308 719 332 701 Q 365 679 446 687 Q 513 696 583 705 L 616 709 Z" fill="black"></path>
				<path d="M 370 639 Q 406 570 427 565 Q 437 561 447 576 Q 451 586 446 606 Q 440 622 421 634 Q 393 656 379 661 Q 372 664 369 654 Q 366 648 370 639 Z" fill="black"></path>
				<path d="M 575 561 Q 581 568 620 626 Q 627 639 642 656 Q 655 666 649 676 Q 642 692 616 709 C 591 726 575 734 583 705 Q 583 704 584 702 Q 591 675 550 575 Q 546 566 543 557 C 533 529 557 537 575 561 Z" fill="black"></path>
				<path d="M 543 557 Q 527 557 509 554 Q 335 535 129 515 Q 107 514 123 495 Q 138 480 156 474 Q 178 468 195 473 Q 504 551 892 530 Q 893 531 896 530 Q 917 530 922 539 Q 929 551 911 565 Q 857 607 819 599 Q 725 581 575 561 L 543 557 Z" fill="black"></path>
				<path d="M 352 457 Q 342 461 316 463 Q 304 466 301 460 Q 295 453 304 438 Q 335 386 357 298 Q 361 271 379 254 Q 398 235 402 250 Q 403 257 404 265 L 403 289 Q 397 322 391 346 L 385 369 Q 376 409 374 426 C 370 452 370 452 352 457 Z" fill="black"></path>
				<path d="M 594 281 Q 607 262 621 254 Q 630 247 645 265 Q 657 281 684 375 Q 693 403 716 426 Q 729 436 718 450 Q 705 466 665 492 Q 650 501 590 489 Q 578 488 565 486 Q 421 465 352 457 C 322 453 345 419 374 426 Q 437 442 590 456 Q 618 459 628 449 Q 637 437 635 427 Q 617 330 601 312 C 588 289 588 289 594 281 Z" fill="black"></path>
				<path d="M 391 346 Q 392 346 395 346 Q 495 359 568 368 Q 587 371 580 382 Q 573 394 551 399 Q 533 402 385 369 C 356 362 361 345 391 346 Z" fill="black"></path>
				<path d="M 527 275 Q 561 279 594 281 C 624 283 628 299 601 312 Q 597 315 590 316 Q 574 319 403 289 C 373 284 374 268 404 265 Q 411 264 425 264 Q 450 268 477 270 L 527 275 Z" fill="red"></path>
				<path d="M 526 155 Q 632 162 788 157 Q 860 154 866 163 Q 872 175 855 190 Q 801 232 763 225 Q 673 210 526 193 L 473 187 Q 341 177 190 162 Q 168 161 183 143 Q 198 128 216 122 Q 238 115 254 119 Q 354 143 468 151 Q 469 152 472 151 L 526 155 Z" fill="lightgray"></path>
				<path d="M 472 151 Q 469 -57 488 -78 Q 498 -88 509 -66 Q 525 -32 526 155 L 526 193 Q 526 233 527 275 C 528 305 478 300 477 270 Q 476 230 473 187 L 472 151 Z" fill="lightgray"></path>
</g>
		<text x="40" y="140" font-size="128" fill="#999999">9</text></g>
		<g id="id1:id4:id4" transform="matrix(1.0,0,0,1.0,4096,0.0)">			<g stroke="lightgray" stroke-width="4" transform="scale(4, 4)"> <rect x="0" y="0" width="256" height="256" fill="white" stroke-width="4"/></g>
			<g transform="scale(0.92, -0.92) translate(60, -920)">					<path d="M 476 812 Q 500 796 526 774 Q 539 764 553 767 Q 562 768 565 780 Q 568 793 557 818 Q 545 845 466 852 Q 453 853 448 851 Q 444 847 446 836 Q 450 827 476 812 Z" fill="black"></path>
				<path d="M 616 709 Q 709 727 713 729 Q 722 736 718 744 Q 712 757 684 765 Q 651 775 568 749 Q 427 725 344 723 Q 308 719 332 701 Q 365 679 446 687 Q 513 696 583 705 L 616 709 Z" fill="black"></path>
				<path d="M 370 639 Q 406 570 427 565 Q 437 561 447 576 Q 451 586 446 606 Q 440 622 421 634 Q 393 656 379 661 Q 372 664 369 654 Q 366 648 370 639 Z" fill="black"></path>
				<path d="M 575 561 Q 581 568 620 626 Q 627 639 642 656 Q 655 666 649 676 Q 642 692 616 709 C 591 726 575 734 583 705 Q 583 704 584 702 Q 591 675 550 575 Q 546 566 543 557 C 533 529 557 537 575 561 Z" fill="black"></path>
				<path d="M 543 557 Q 527 557 509 554 Q 335 535 129 515 Q 107 514 123 495 Q 138 480 156 474 Q 178 468 195 473 Q 504 551 892 530 Q 893 531 896 530 Q 917 530 922 539 Q 929 551 911 565 Q 857 607 819 599 Q 725 581 575 561 L 543 557 Z" fill="black"></path>
				<path d="M 352 457 Q 342 461 316 463 Q 304 466 301 460 Q 295 453 304 438 Q 335 386 357 298 Q 361 271 379 254 Q 398 235 402 250 Q 403 257 404 265 L 403 289 Q 397 322 391 346 L 385 369 Q 376 409 374 426 C 370 452 370 452 352 457 Z" fill="black"></path>
				<path d="M 594 281 Q 607 262 621 254 Q 630 247 645 265 Q 657 281 684 375 Q 693 403 716 426 Q 729 436 718 450 Q 705 466 665 492 Q 650 501 590 489 Q 578 488 565 486 Q 421 465 352 457 C 322 453 345 419 374 426 Q 437 442 590 456 Q 618 459 628 449 Q 637 437 635 427 Q 617 330 601 312 C 588 289 588 289 594 281 Z" fill="black"></path>
				<path d="M 391 346 Q 392 346 395 346 Q 495 359 568 368 Q 587 371 580 382 Q 573 394 551 399 Q 533 402 385 369 C 356 362 361 345 391 346 Z" fill="black"></path>
				<path d="M 527 275 Q 561 279 594 281 C 624 283 628 299 601 312 Q 597 315 590 316 Q 574 319 403 289 C 373 284 374 268 404 265 Q 411 264 425 264 Q 450 268 477 270 L 527 275 Z" fill="black"></path>
				<path d="M 526 155 Q 632 162 788 157 Q 860 154 866 163 Q 872 175 855 190 Q 801 232 763 225 Q 673 210 526 193 L 473 187 Q 341 177 190 162 Q 168 161 183 143 Q 198 128 216 122 Q 238 115 254 119 Q 354 143 468 151 Q 469 152 472 151 L 526 155 Z" fill="red"></path>
				<path d="M 472 151 Q 469 -57 488 -78 Q 498 -88 509 -66 Q 525 -32 526 155 L 526 193 Q 526 233 527 275 C 528 305 478 300 477 270 Q 476 230 473 187 L 472 151 Z" fill="lightgray"></path>
</g>
		<text x="40" y="140" font-size="128" fill="#999999">10</text></g>
</g>
	<g id="id2:id2" transform="translate(0.0,2048)">
		<g id="id2:id0:id0" transform="matrix(1.0,0,0,1.0,0,0.0)">			<g stroke="lightgray" stroke-width="4" transform="scale(4, 4)"> <rect x="0" y="0" width="256" height="256" fill="white" stroke-width="4"/></g>
			<g transform="scale(0.92, -0.92) translate(60, -920)">					<path d="M 476 812 Q 500 796 526 774 Q 539 764 553 767 Q 562 768 565 780 Q 568 793 557 818 Q 545 845 466 852 Q 453 853 448 851 Q 444 847 446 836 Q 450 827 476 812 Z" fill="black"></path>
				<path d="M 616 709 Q 709 727 713 729 Q 722 736 718 744 Q 712 757 684 765 Q 651 775 568 749 Q 427 725 344 723 Q 308 719 332 701 Q 365 679 446 687 Q 513 696 583 705 L 616 709 Z" fill="black"></path>
				<path d="M 370 639 Q 406 570 427 565 Q 437 561 447 576 Q 451 586 446 606 Q 440 622 421 634 Q 393 656 379 661 Q 372 664 369 654 Q 366 648 370 639 Z" fill="black"></path>
				<path d="M 575 561 Q 581 568 620 626 Q 627 639 642 656 Q 655 666 649 676 Q 642 692 616 709 C 591 726 575 734 583 705 Q 583 704 584 702 Q 591 675 550 575 Q 546 566 543 557 C 533 529 557 537 575 561 Z" fill="black"></path>
				<path d="M 543 557 Q 527 557 509 554 Q 335 535 129 515 Q 107 514 123 495 Q 138 480 156 474 Q 178 468 195 473 Q 504 551 892 530 Q 893 531 896 530 Q 917 530 922 539 Q 929 551 911 565 Q 857 607 819 599 Q 725 581 575 561 L 543 557 Z" fill="black"></path>
				<path d="M 352 457 Q 342 461 316 463 Q 304 466 301 460 Q 295 453 304 438 Q 335 386 357 298 Q 361 271 379 254 Q 398 235 402 250 Q 403 257 404 265 L 403 289 Q 397 322 391 346 L 385 369 Q 376 409 374 426 C 370 452 370 452 352 457 Z" fill="black"></path>
				<path d="M 594 281 Q 607 262 621 254 Q 630 247 645 265 Q 657 281 684 375 Q 693 403 716 426 Q 729 436 718 450 Q 705 466 665 492 Q 650 501 590 489 Q 578 488 565 486 Q 421 465 352 457 C 322 453 345 419 374 426 Q 437 442 590 456 Q 618 459 628 449 Q 637 437 635 427 Q 617 330 601 312 C 588 289 588 289 594 281 Z" fill="black"></path>
				<path d="M 391 346 Q 392 346 395 346 Q 495 359 568 368 Q 587 371 580 382 Q 573 394 551 399 Q 533 402 385 369 C 356 362 361 345 391 346 Z" fill="black"></path>
				<path d="M 527 275 Q 561 279 594 281 C 624 283 628 299 601 312 Q 597 315 590 316 Q 574 319 403 289 C 373 284 374 268 404 265 Q 411 264 425 264 Q 450 268 477 270 L 527 275 Z" fill="black"></path>
				<path d="M 526 155 Q 632 162 788 157 Q 860 154 866 163 Q 872 175 855 190 Q 801 232 763 225 Q 673 210 526 193 L 473 187 Q 341 177 190 162 Q 168 161 183 143 Q 198 128 216 122 Q 238 115 254 119 Q 354 143 468 151 Q 469 152 472 151 L 526 155 Z" fill="black"></path>
				<path d="M 472 151 Q 469 -57 488 -78 Q 498 -88 509 -66 Q 525 -32 526 155 L 526 193 Q 526 233 527 275 C 528 305 478 300 477 270 Q 476 230 473 187 L 472 151 Z" fill="red"></path>
</g>
		<text x="40" y="140" font-size="128" fill="#999999">11</text></g>
		<g id="id2:id1:id1" transform="matrix(1.0,0,0,1.0,1024,0.0)">			<g stroke="white" stroke-width="4" transform="scale(4, 4)"> <rect x="1" y="1" width="255" height="255" fill="white" stroke-width="0"/></g>
</g>
		<g id="id2:id2:id2" transform="matrix(1.0,0,0,1.0,2048,0.0)">			<g stroke="white" stroke-width="4" transform="scale(4, 4)"> <rect x="1" y="1" width="255" height="255" fill="white" stroke-width="0"/></g>
</g>
		<g id="id2:id3:id3" transform="matrix(1.0,0,0,1.0,3072,0.0)">			<g stroke="white" stroke-width="4" transform="scale(4, 4)"> <rect x="1" y="1" width="255" height="255" fill="white" stroke-width="0"/></g>
</g>
		<g id="id2:id4:id4" transform="matrix(1.0,0,0,1.0,4096,0.0)">			<g stroke="white" stroke-width="4" transform="scale(4, 4)"> <rect x="1" y="1" width="255" height="255" fill="white" stroke-width="0"/></g>
</g>
</g>
</svg>
