<?xml version="1.0" standalone="no"?>
<!DOCTYPE svg PUBLIC "-//W3C//DTD SVG 1.1//EN"
 "http://www.w3.org/Graphics/SVG/1.1/DTD/svg11.dtd">
<!-- generate by Japanese dictionary app com.asnsami.kanjidictionary -->

<svg xmlns="http://www.w3.org/2000/svg" xmlns:sodipodi="http://sodipodi.sourceforge.net/DTD/sodipodi-0.dtd" version="1.1" width="640" height="384" viewBox="0 0 5120 3072">
	<g id="id0:id0" transform="translate(0.0,0)">
		<g id="id0:id0:id0" transform="matrix(1.0,0,0,1.0,0,0.0)">			<g stroke="lightgray" stroke-width="4" transform="scale(4, 4)"> <rect x="0" y="0" width="256" height="256" fill="white" stroke-width="4"/></g>
			<g transform="scale(0.92, -0.92) translate(60, -920)">					<path d="M 335 688 Q 351 716 368 738 Q 378 751 364 766 Q 316 799 293 795 Q 283 792 285 778 Q 298 690 204 577 Q 180 552 169 536 Q 162 520 176 526 Q 192 527 214 545 Q 280 597 318 659 L 335 688 Z" fill="red"></path>
				<path d="M 318 659 Q 351 650 437 668 Q 459 674 484 678 Q 505 682 508 686 Q 515 693 511 701 Q 504 711 477 718 Q 456 721 378 697 Q 354 693 335 688 C 306 681 289 665 318 659 Z" fill="lightgray"></path>
				<path d="M 325 586 Q 374 529 398 528 Q 411 527 416 546 Q 417 559 407 577 Q 397 592 376 598 Q 342 611 328 612 Q 319 613 318 602 Q 317 595 325 586 Z" fill="lightgray"></path>
				<path d="M 627 706 Q 627 707 628 708 Q 647 748 665 781 Q 674 794 657 808 Q 609 838 584 830 Q 574 826 577 811 Q 601 739 527 619 Q 515 613 496 572 Q 489 556 504 563 Q 555 578 613 679 L 627 706 Z" fill="lightgray"></path>
				<path d="M 613 679 Q 649 664 722 675 Q 843 699 851 703 Q 860 710 855 720 Q 848 732 818 739 Q 787 746 756 733 Q 728 723 695 716 Q 662 710 627 706 C 597 702 585 689 613 679 Z" fill="lightgray"></path>
				<path d="M 664 569 Q 686 551 710 529 Q 723 517 738 519 Q 748 520 753 532 Q 757 547 747 575 Q 735 602 657 615 Q 642 618 636 615 Q 632 611 633 599 Q 637 589 664 569 Z" fill="lightgray"></path>
				<path d="M 677 381 Q 626 380 520 363 Q 397 345 344 330 Q 340 329 341 333 Q 363 352 421 396 Q 511 463 527 470 Q 539 477 546 483 Q 555 496 536 520 Q 503 559 474 568 Q 458 572 449 566 Q 443 559 451 547 Q 463 516 411 454 L 405 448 Q 314 358 273 334 Q 230 316 236 272 Q 242 250 254 247 Q 260 248 277 256 Q 401 316 631 349 Q 643 350 699 356 C 729 359 707 382 677 381 Z" fill="lightgray"></path>
				<path d="M 699 356 Q 760 290 766 287 Q 773 286 781 294 Q 793 306 783 346 Q 773 401 625 467 Q 618 473 615 461 Q 614 449 623 439 Q 648 414 677 381 L 699 356 Z" fill="lightgray"></path>
				<path d="M 362 201 Q 349 207 314 213 Q 301 217 297 211 Q 290 204 300 186 Q 330 125 349 26 Q 353 -4 370 -23 Q 389 -48 396 -30 Q 400 -18 399 -1 L 395 38 Q 379 134 376 166 C 373 196 373 197 362 201 Z" fill="lightgray"></path>
				<path d="M 673 60 Q 701 151 736 178 Q 755 197 739 217 Q 721 232 665 259 Q 646 266 622 258 Q 523 219 362 201 C 332 198 347 160 376 166 Q 385 167 397 171 Q 500 189 597 206 Q 622 212 633 201 Q 643 192 641 173 Q 632 118 620 71 C 613 42 664 31 673 60 Z" fill="lightgray"></path>
				<path d="M 399 -1 Q 400 -1 405 -1 Q 493 15 684 22 Q 697 23 698 33 Q 699 40 673 60 L 620 71 Q 616 72 613 71 Q 493 49 395 38 C 365 35 369 -3 399 -1 Z" fill="lightgray"></path>
</g>
		<text x="40" y="140" font-size="128" fill="#999999">1</text></g>
		<g id="id0:id1:id1" transform="matrix(1.0,0,0,1.0,1024,0.0)">			<g stroke="lightgray" stroke-width="4" transform="scale(4, 4)"> <rect x="0" y="0" width="256" height="256" fill="white" stroke-width="4"/></g>
			<g transform="scale(0.92, -0.92) translate(60, -920)">					<path d="M 335 688 Q 351 716 368 738 Q 378 751 364 766 Q 316 799 293 795 Q 283 792 285 778 Q 298 690 204 577 Q 180 552 169 536 Q 162 520 176 526 Q 192 527 214 545 Q 280 597 318 659 L 335 688 Z" fill="black"></path>
				<path d="M 318 659 Q 351 650 437 668 Q 459 674 484 678 Q 505 682 508 686 Q 515 693 511 701 Q 504 711 477 718 Q 456 721 378 697 Q 354 693 335 688 C 306 681 289 665 318 659 Z" fill="red"></path>
				<path d="M 325 586 Q 374 529 398 528 Q 411 527 416 546 Q 417 559 407 577 Q 397 592 376 598 Q 342 611 328 612 Q 319 613 318 602 Q 317 595 325 586 Z" fill="lightgray"></path>
				<path d="M 627 706 Q 627 707 628 708 Q 647 748 665 781 Q 674 794 657 808 Q 609 838 584 830 Q 574 826 577 811 Q 601 739 527 619 Q 515 613 496 572 Q 489 556 504 563 Q 555 578 613 679 L 627 706 Z" fill="lightgray"></path>
				<path d="M 613 679 Q 649 664 722 675 Q 843 699 851 703 Q 860 710 855 720 Q 848 732 818 739 Q 787 746 756 733 Q 728 723 695 716 Q 662 710 627 706 C 597 702 585 689 613 679 Z" fill="lightgray"></path>
				<path d="M 664 569 Q 686 551 710 529 Q 723 517 738 519 Q 748 520 753 532 Q 757 547 747 575 Q 735 602 657 615 Q 642 618 636 615 Q 632 611 633 599 Q 637 589 664 569 Z" fill="lightgray"></path>
				<path d="M 677 381 Q 626 380 520 363 Q 397 345 344 330 Q 340 329 341 333 Q 363 352 421 396 Q 511 463 527 470 Q 539 477 546 483 Q 555 496 536 520 Q 503 559 474 568 Q 458 572 449 566 Q 443 559 451 547 Q 463 516 411 454 L 405 448 Q 314 358 273 334 Q 230 316 236 272 Q 242 250 254 247 Q 260 248 277 256 Q 401 316 631 349 Q 643 350 699 356 C 729 359 707 382 677 381 Z" fill="lightgray"></path>
				<path d="M 699 356 Q 760 290 766 287 Q 773 286 781 294 Q 793 306 783 346 Q 773 401 625 467 Q 618 473 615 461 Q 614 449 623 439 Q 648 414 677 381 L 699 356 Z" fill="lightgray"></path>
				<path d="M 362 201 Q 349 207 314 213 Q 301 217 297 211 Q 290 204 300 186 Q 330 125 349 26 Q 353 -4 370 -23 Q 389 -48 396 -30 Q 400 -18 399 -1 L 395 38 Q 379 134 376 166 C 373 196 373 197 362 201 Z" fill="lightgray"></path>
				<path d="M 673 60 Q 701 151 736 178 Q 755 197 739 217 Q 721 232 665 259 Q 646 266 622 258 Q 523 219 362 201 C 332 198 347 160 376 166 Q 385 167 397 171 Q 500 189 597 206 Q 622 212 633 201 Q 643 192 641 173 Q 632 118 620 71 C 613 42 664 31 673 60 Z" fill="lightgray"></path>
				<path d="M 399 -1 Q 400 -1 405 -1 Q 493 15 684 22 Q 697 23 698 33 Q 699 40 673 60 L 620 71 Q 616 72 613 71 Q 493 49 395 38 C 365 35 369 -3 399 -1 Z" fill="lightgray"></path>
</g>
		<text x="40" y="140" font-size="128" fill="#999999">2</text></g>
		<g id="id0:id2:id2" transform="matrix(1.0,0,0,1.0,2048,0.0)">			<g stroke="lightgray" stroke-width="4" transform="scale(4, 4)"> <rect x="0" y="0" width="256" height="256" fill="white" stroke-width="4"/></g>
			<g transform="scale(0.92, -0.92) translate(60, -920)">					<path d="M 335 688 Q 351 716 368 738 Q 378 751 364 766 Q 316 799 293 795 Q 283 792 285 778 Q 298 690 204 577 Q 180 552 169 536 Q 162 520 176 526 Q 192 527 214 545 Q 280 597 318 659 L 335 688 Z" fill="black"></path>
				<path d="M 318 659 Q 351 650 437 668 Q 459 674 484 678 Q 505 682 508 686 Q 515 693 511 701 Q 504 711 477 718 Q 456 721 378 697 Q 354 693 335 688 C 306 681 289 665 318 659 Z" fill="black"></path>
				<path d="M 325 586 Q 374 529 398 528 Q 411 527 416 546 Q 417 559 407 577 Q 397 592 376 598 Q 342 611 328 612 Q 319 613 318 602 Q 317 595 325 586 Z" fill="red"></path>
				<path d="M 627 706 Q 627 707 628 708 Q 647 748 665 781 Q 674 794 657 808 Q 609 838 584 830 Q 574 826 577 811 Q 601 739 527 619 Q 515 613 496 572 Q 489 556 504 563 Q 555 578 613 679 L 627 706 Z" fill="lightgray"></path>
				<path d="M 613 679 Q 649 664 722 675 Q 843 699 851 703 Q 860 710 855 720 Q 848 732 818 739 Q 787 746 756 733 Q 728 723 695 716 Q 662 710 627 706 C 597 702 585 689 613 679 Z" fill="lightgray"></path>
				<path d="M 664 569 Q 686 551 710 529 Q 723 517 738 519 Q 748 520 753 532 Q 757 547 747 575 Q 735 602 657 615 Q 642 618 636 615 Q 632 611 633 599 Q 637 589 664 569 Z" fill="lightgray"></path>
				<path d="M 677 381 Q 626 380 520 363 Q 397 345 344 330 Q 340 329 341 333 Q 363 352 421 396 Q 511 463 527 470 Q 539 477 546 483 Q 555 496 536 520 Q 503 559 474 568 Q 458 572 449 566 Q 443 559 451 547 Q 463 516 411 454 L 405 448 Q 314 358 273 334 Q 230 316 236 272 Q 242 250 254 247 Q 260 248 277 256 Q 401 316 631 349 Q 643 350 699 356 C 729 359 707 382 677 381 Z" fill="lightgray"></path>
				<path d="M 699 356 Q 760 290 766 287 Q 773 286 781 294 Q 793 306 783 346 Q 773 401 625 467 Q 618 473 615 461 Q 614 449 623 439 Q 648 414 677 381 L 699 356 Z" fill="lightgray"></path>
				<path d="M 362 201 Q 349 207 314 213 Q 301 217 297 211 Q 290 204 300 186 Q 330 125 349 26 Q 353 -4 370 -23 Q 389 -48 396 -30 Q 400 -18 399 -1 L 395 38 Q 379 134 376 166 C 373 196 373 197 362 201 Z" fill="lightgray"></path>
				<path d="M 673 60 Q 701 151 736 178 Q 755 197 739 217 Q 721 232 665 259 Q 646 266 622 258 Q 523 219 362 201 C 332 198 347 160 376 166 Q 385 167 397 171 Q 500 189 597 206 Q 622 212 633 201 Q 643 192 641 173 Q 632 118 620 71 C 613 42 664 31 673 60 Z" fill="lightgray"></path>
				<path d="M 399 -1 Q 400 -1 405 -1 Q 493 15 684 22 Q 697 23 698 33 Q 699 40 673 60 L 620 71 Q 616 72 613 71 Q 493 49 395 38 C 365 35 369 -3 399 -1 Z" fill="lightgray"></path>
</g>
		<text x="40" y="140" font-size="128" fill="#999999">3</text></g>
		<g id="id0:id3:id3" transform="matrix(1.0,0,0,1.0,3072,0.0)">			<g stroke="lightgray" stroke-width="4" transform="scale(4, 4)"> <rect x="0" y="0" width="256" height="256" fill="white" stroke-width="4"/></g>
			<g transform="scale(0.92, -0.92) translate(60, -920)">					<path d="M 335 688 Q 351 716 368 738 Q 378 751 364 766 Q 316 799 293 795 Q 283 792 285 778 Q 298 690 204 577 Q 180 552 169 536 Q 162 520 176 526 Q 192 527 214 545 Q 280 597 318 659 L 335 688 Z" fill="black"></path>
				<path d="M 318 659 Q 351 650 437 668 Q 459 674 484 678 Q 505 682 508 686 Q 515 693 511 701 Q 504 711 477 718 Q 456 721 378 697 Q 354 693 335 688 C 306 681 289 665 318 659 Z" fill="black"></path>
				<path d="M 325 586 Q 374 529 398 528 Q 411 527 416 546 Q 417 559 407 577 Q 397 592 376 598 Q 342 611 328 612 Q 319 613 318 602 Q 317 595 325 586 Z" fill="black"></path>
				<path d="M 627 706 Q 627 707 628 708 Q 647 748 665 781 Q 674 794 657 808 Q 609 838 584 830 Q 574 826 577 811 Q 601 739 527 619 Q 515 613 496 572 Q 489 556 504 563 Q 555 578 613 679 L 627 706 Z" fill="red"></path>
				<path d="M 613 679 Q 649 664 722 675 Q 843 699 851 703 Q 860 710 855 720 Q 848 732 818 739 Q 787 746 756 733 Q 728 723 695 716 Q 662 710 627 706 C 597 702 585 689 613 679 Z" fill="lightgray"></path>
				<path d="M 664 569 Q 686 551 710 529 Q 723 517 738 519 Q 748 520 753 532 Q 757 547 747 575 Q 735 602 657 615 Q 642 618 636 615 Q 632 611 633 599 Q 637 589 664 569 Z" fill="lightgray"></path>
				<path d="M 677 381 Q 626 380 520 363 Q 397 345 344 330 Q 340 329 341 333 Q 363 352 421 396 Q 511 463 527 470 Q 539 477 546 483 Q 555 496 536 520 Q 503 559 474 568 Q 458 572 449 566 Q 443 559 451 547 Q 463 516 411 454 L 405 448 Q 314 358 273 334 Q 230 316 236 272 Q 242 250 254 247 Q 260 248 277 256 Q 401 316 631 349 Q 643 350 699 356 C 729 359 707 382 677 381 Z" fill="lightgray"></path>
				<path d="M 699 356 Q 760 290 766 287 Q 773 286 781 294 Q 793 306 783 346 Q 773 401 625 467 Q 618 473 615 461 Q 614 449 623 439 Q 648 414 677 381 L 699 356 Z" fill="lightgray"></path>
				<path d="M 362 201 Q 349 207 314 213 Q 301 217 297 211 Q 290 204 300 186 Q 330 125 349 26 Q 353 -4 370 -23 Q 389 -48 396 -30 Q 400 -18 399 -1 L 395 38 Q 379 134 376 166 C 373 196 373 197 362 201 Z" fill="lightgray"></path>
				<path d="M 673 60 Q 701 151 736 178 Q 755 197 739 217 Q 721 232 665 259 Q 646 266 622 258 Q 523 219 362 201 C 332 198 347 160 376 166 Q 385 167 397 171 Q 500 189 597 206 Q 622 212 633 201 Q 643 192 641 173 Q 632 118 620 71 C 613 42 664 31 673 60 Z" fill="lightgray"></path>
				<path d="M 399 -1 Q 400 -1 405 -1 Q 493 15 684 22 Q 697 23 698 33 Q 699 40 673 60 L 620 71 Q 616 72 613 71 Q 493 49 395 38 C 365 35 369 -3 399 -1 Z" fill="lightgray"></path>
</g>
		<text x="40" y="140" font-size="128" fill="#999999">4</text></g>
		<g id="id0:id4:id4" transform="matrix(1.0,0,0,1.0,4096,0.0)">			<g stroke="lightgray" stroke-width="4" transform="scale(4, 4)"> <rect x="0" y="0" width="256" height="256" fill="white" stroke-width="4"/></g>
			<g transform="scale(0.92, -0.92) translate(60, -920)">					<path d="M 335 688 Q 351 716 368 738 Q 378 751 364 766 Q 316 799 293 795 Q 283 792 285 778 Q 298 690 204 577 Q 180 552 169 536 Q 162 520 176 526 Q 192 527 214 545 Q 280 597 318 659 L 335 688 Z" fill="black"></path>
				<path d="M 318 659 Q 351 650 437 668 Q 459 674 484 678 Q 505 682 508 686 Q 515 693 511 701 Q 504 711 477 718 Q 456 721 378 697 Q 354 693 335 688 C 306 681 289 665 318 659 Z" fill="black"></path>
				<path d="M 325 586 Q 374 529 398 528 Q 411 527 416 546 Q 417 559 407 577 Q 397 592 376 598 Q 342 611 328 612 Q 319 613 318 602 Q 317 595 325 586 Z" fill="black"></path>
				<path d="M 627 706 Q 627 707 628 708 Q 647 748 665 781 Q 674 794 657 808 Q 609 838 584 830 Q 574 826 577 811 Q 601 739 527 619 Q 515 613 496 572 Q 489 556 504 563 Q 555 578 613 679 L 627 706 Z" fill="black"></path>
				<path d="M 613 679 Q 649 664 722 675 Q 843 699 851 703 Q 860 710 855 720 Q 848 732 818 739 Q 787 746 756 733 Q 728 723 695 716 Q 662 710 627 706 C 597 702 585 689 613 679 Z" fill="red"></path>
				<path d="M 664 569 Q 686 551 710 529 Q 723 517 738 519 Q 748 520 753 532 Q 757 547 747 575 Q 735 602 657 615 Q 642 618 636 615 Q 632 611 633 599 Q 637 589 664 569 Z" fill="lightgray"></path>
				<path d="M 677 381 Q 626 380 520 363 Q 397 345 344 330 Q 340 329 341 333 Q 363 352 421 396 Q 511 463 527 470 Q 539 477 546 483 Q 555 496 536 520 Q 503 559 474 568 Q 458 572 449 566 Q 443 559 451 547 Q 463 516 411 454 L 405 448 Q 314 358 273 334 Q 230 316 236 272 Q 242 250 254 247 Q 260 248 277 256 Q 401 316 631 349 Q 643 350 699 356 C 729 359 707 382 677 381 Z" fill="lightgray"></path>
				<path d="M 699 356 Q 760 290 766 287 Q 773 286 781 294 Q 793 306 783 346 Q 773 401 625 467 Q 618 473 615 461 Q 614 449 623 439 Q 648 414 677 381 L 699 356 Z" fill="lightgray"></path>
				<path d="M 362 201 Q 349 207 314 213 Q 301 217 297 211 Q 290 204 300 186 Q 330 125 349 26 Q 353 -4 370 -23 Q 389 -48 396 -30 Q 400 -18 399 -1 L 395 38 Q 379 134 376 166 C 373 196 373 197 362 201 Z" fill="lightgray"></path>
				<path d="M 673 60 Q 701 151 736 178 Q 755 197 739 217 Q 721 232 665 259 Q 646 266 622 258 Q 523 219 362 201 C 332 198 347 160 376 166 Q 385 167 397 171 Q 500 189 597 206 Q 622 212 633 201 Q 643 192 641 173 Q 632 118 620 71 C 613 42 664 31 673 60 Z" fill="lightgray"></path>
				<path d="M 399 -1 Q 400 -1 405 -1 Q 493 15 684 22 Q 697 23 698 33 Q 699 40 673 60 L 620 71 Q 616 72 613 71 Q 493 49 395 38 C 365 35 369 -3 399 -1 Z" fill="lightgray"></path>
</g>
		<text x="40" y="140" font-size="128" fill="#999999">5</text></g>
</g>
	<g id="id1:id1" transform="translate(0.0,1024)">
		<g id="id1:id0:id0" transform="matrix(1.0,0,0,1.0,0,0.0)">			<g stroke="lightgray" stroke-width="4" transform="scale(4, 4)"> <rect x="0" y="0" width="256" height="256" fill="white" stroke-width="4"/></g>
			<g transform="scale(0.92, -0.92) translate(60, -920)">					<path d="M 335 688 Q 351 716 368 738 Q 378 751 364 766 Q 316 799 293 795 Q 283 792 285 778 Q 298 690 204 577 Q 180 552 169 536 Q 162 520 176 526 Q 192 527 214 545 Q 280 597 318 659 L 335 688 Z" fill="black"></path>
				<path d="M 318 659 Q 351 650 437 668 Q 459 674 484 678 Q 505 682 508 686 Q 515 693 511 701 Q 504 711 477 718 Q 456 721 378 697 Q 354 693 335 688 C 306 681 289 665 318 659 Z" fill="black"></path>
				<path d="M 325 586 Q 374 529 398 528 Q 411 527 416 546 Q 417 559 407 577 Q 397 592 376 598 Q 342 611 328 612 Q 319 613 318 602 Q 317 595 325 586 Z" fill="black"></path>
				<path d="M 627 706 Q 627 707 628 708 Q 647 748 665 781 Q 674 794 657 808 Q 609 838 584 830 Q 574 826 577 811 Q 601 739 527 619 Q 515 613 496 572 Q 489 556 504 563 Q 555 578 613 679 L 627 706 Z" fill="black"></path>
				<path d="M 613 679 Q 649 664 722 675 Q 843 699 851 703 Q 860 710 855 720 Q 848 732 818 739 Q 787 746 756 733 Q 728 723 695 716 Q 662 710 627 706 C 597 702 585 689 613 679 Z" fill="black"></path>
				<path d="M 664 569 Q 686 551 710 529 Q 723 517 738 519 Q 748 520 753 532 Q 757 547 747 575 Q 735 602 657 615 Q 642 618 636 615 Q 632 611 633 599 Q 637 589 664 569 Z" fill="red"></path>
				<path d="M 677 381 Q 626 380 520 363 Q 397 345 344 330 Q 340 329 341 333 Q 363 352 421 396 Q 511 463 527 470 Q 539 477 546 483 Q 555 496 536 520 Q 503 559 474 568 Q 458 572 449 566 Q 443 559 451 547 Q 463 516 411 454 L 405 448 Q 314 358 273 334 Q 230 316 236 272 Q 242 250 254 247 Q 260 248 277 256 Q 401 316 631 349 Q 643 350 699 356 C 729 359 707 382 677 381 Z" fill="lightgray"></path>
				<path d="M 699 356 Q 760 290 766 287 Q 773 286 781 294 Q 793 306 783 346 Q 773 401 625 467 Q 618 473 615 461 Q 614 449 623 439 Q 648 414 677 381 L 699 356 Z" fill="lightgray"></path>
				<path d="M 362 201 Q 349 207 314 213 Q 301 217 297 211 Q 290 204 300 186 Q 330 125 349 26 Q 353 -4 370 -23 Q 389 -48 396 -30 Q 400 -18 399 -1 L 395 38 Q 379 134 376 166 C 373 196 373 197 362 201 Z" fill="lightgray"></path>
				<path d="M 673 60 Q 701 151 736 178 Q 755 197 739 217 Q 721 232 665 259 Q 646 266 622 258 Q 523 219 362 201 C 332 198 347 160 376 166 Q 385 167 397 171 Q 500 189 597 206 Q 622 212 633 201 Q 643 192 641 173 Q 632 118 620 71 C 613 42 664 31 673 60 Z" fill="lightgray"></path>
				<path d="M 399 -1 Q 400 -1 405 -1 Q 493 15 684 22 Q 697 23 698 33 Q 699 40 673 60 L 620 71 Q 616 72 613 71 Q 493 49 395 38 C 365 35 369 -3 399 -1 Z" fill="lightgray"></path>
</g>
		<text x="40" y="140" font-size="128" fill="#999999">6</text></g>
		<g id="id1:id1:id1" transform="matrix(1.0,0,0,1.0,1024,0.0)">			<g stroke="lightgray" stroke-width="4" transform="scale(4, 4)"> <rect x="0" y="0" width="256" height="256" fill="white" stroke-width="4"/></g>
			<g transform="scale(0.92, -0.92) translate(60, -920)">					<path d="M 335 688 Q 351 716 368 738 Q 378 751 364 766 Q 316 799 293 795 Q 283 792 285 778 Q 298 690 204 577 Q 180 552 169 536 Q 162 520 176 526 Q 192 527 214 545 Q 280 597 318 659 L 335 688 Z" fill="black"></path>
				<path d="M 318 659 Q 351 650 437 668 Q 459 674 484 678 Q 505 682 508 686 Q 515 693 511 701 Q 504 711 477 718 Q 456 721 378 697 Q 354 693 335 688 C 306 681 289 665 318 659 Z" fill="black"></path>
				<path d="M 325 586 Q 374 529 398 528 Q 411 527 416 546 Q 417 559 407 577 Q 397 592 376 598 Q 342 611 328 612 Q 319 613 318 602 Q 317 595 325 586 Z" fill="black"></path>
				<path d="M 627 706 Q 627 707 628 708 Q 647 748 665 781 Q 674 794 657 808 Q 609 838 584 830 Q 574 826 577 811 Q 601 739 527 619 Q 515 613 496 572 Q 489 556 504 563 Q 555 578 613 679 L 627 706 Z" fill="black"></path>
				<path d="M 613 679 Q 649 664 722 675 Q 843 699 851 703 Q 860 710 855 720 Q 848 732 818 739 Q 787 746 756 733 Q 728 723 695 716 Q 662 710 627 706 C 597 702 585 689 613 679 Z" fill="black"></path>
				<path d="M 664 569 Q 686 551 710 529 Q 723 517 738 519 Q 748 520 753 532 Q 757 547 747 575 Q 735 602 657 615 Q 642 618 636 615 Q 632 611 633 599 Q 637 589 664 569 Z" fill="black"></path>
				<path d="M 677 381 Q 626 380 520 363 Q 397 345 344 330 Q 340 329 341 333 Q 363 352 421 396 Q 511 463 527 470 Q 539 477 546 483 Q 555 496 536 520 Q 503 559 474 568 Q 458 572 449 566 Q 443 559 451 547 Q 463 516 411 454 L 405 448 Q 314 358 273 334 Q 230 316 236 272 Q 242 250 254 247 Q 260 248 277 256 Q 401 316 631 349 Q 643 350 699 356 C 729 359 707 382 677 381 Z" fill="red"></path>
				<path d="M 699 356 Q 760 290 766 287 Q 773 286 781 294 Q 793 306 783 346 Q 773 401 625 467 Q 618 473 615 461 Q 614 449 623 439 Q 648 414 677 381 L 699 356 Z" fill="lightgray"></path>
				<path d="M 362 201 Q 349 207 314 213 Q 301 217 297 211 Q 290 204 300 186 Q 330 125 349 26 Q 353 -4 370 -23 Q 389 -48 396 -30 Q 400 -18 399 -1 L 395 38 Q 379 134 376 166 C 373 196 373 197 362 201 Z" fill="lightgray"></path>
				<path d="M 673 60 Q 701 151 736 178 Q 755 197 739 217 Q 721 232 665 259 Q 646 266 622 258 Q 523 219 362 201 C 332 198 347 160 376 166 Q 385 167 397 171 Q 500 189 597 206 Q 622 212 633 201 Q 643 192 641 173 Q 632 118 620 71 C 613 42 664 31 673 60 Z" fill="lightgray"></path>
				<path d="M 399 -1 Q 400 -1 405 -1 Q 493 15 684 22 Q 697 23 698 33 Q 699 40 673 60 L 620 71 Q 616 72 613 71 Q 493 49 395 38 C 365 35 369 -3 399 -1 Z" fill="lightgray"></path>
</g>
		<text x="40" y="140" font-size="128" fill="#999999">7</text></g>
		<g id="id1:id2:id2" transform="matrix(1.0,0,0,1.0,2048,0.0)">			<g stroke="lightgray" stroke-width="4" transform="scale(4, 4)"> <rect x="0" y="0" width="256" height="256" fill="white" stroke-width="4"/></g>
			<g transform="scale(0.92, -0.92) translate(60, -920)">					<path d="M 335 688 Q 351 716 368 738 Q 378 751 364 766 Q 316 799 293 795 Q 283 792 285 778 Q 298 690 204 577 Q 180 552 169 536 Q 162 520 176 526 Q 192 527 214 545 Q 280 597 318 659 L 335 688 Z" fill="black"></path>
				<path d="M 318 659 Q 351 650 437 668 Q 459 674 484 678 Q 505 682 508 686 Q 515 693 511 701 Q 504 711 477 718 Q 456 721 378 697 Q 354 693 335 688 C 306 681 289 665 318 659 Z" fill="black"></path>
				<path d="M 325 586 Q 374 529 398 528 Q 411 527 416 546 Q 417 559 407 577 Q 397 592 376 598 Q 342 611 328 612 Q 319 613 318 602 Q 317 595 325 586 Z" fill="black"></path>
				<path d="M 627 706 Q 627 707 628 708 Q 647 748 665 781 Q 674 794 657 808 Q 609 838 584 830 Q 574 826 577 811 Q 601 739 527 619 Q 515 613 496 572 Q 489 556 504 563 Q 555 578 613 679 L 627 706 Z" fill="black"></path>
				<path d="M 613 679 Q 649 664 722 675 Q 843 699 851 703 Q 860 710 855 720 Q 848 732 818 739 Q 787 746 756 733 Q 728 723 695 716 Q 662 710 627 706 C 597 702 585 689 613 679 Z" fill="black"></path>
				<path d="M 664 569 Q 686 551 710 529 Q 723 517 738 519 Q 748 520 753 532 Q 757 547 747 575 Q 735 602 657 615 Q 642 618 636 615 Q 632 611 633 599 Q 637 589 664 569 Z" fill="black"></path>
				<path d="M 677 381 Q 626 380 520 363 Q 397 345 344 330 Q 340 329 341 333 Q 363 352 421 396 Q 511 463 527 470 Q 539 477 546 483 Q 555 496 536 520 Q 503 559 474 568 Q 458 572 449 566 Q 443 559 451 547 Q 463 516 411 454 L 405 448 Q 314 358 273 334 Q 230 316 236 272 Q 242 250 254 247 Q 260 248 277 256 Q 401 316 631 349 Q 643 350 699 356 C 729 359 707 382 677 381 Z" fill="black"></path>
				<path d="M 699 356 Q 760 290 766 287 Q 773 286 781 294 Q 793 306 783 346 Q 773 401 625 467 Q 618 473 615 461 Q 614 449 623 439 Q 648 414 677 381 L 699 356 Z" fill="red"></path>
				<path d="M 362 201 Q 349 207 314 213 Q 301 217 297 211 Q 290 204 300 186 Q 330 125 349 26 Q 353 -4 370 -23 Q 389 -48 396 -30 Q 400 -18 399 -1 L 395 38 Q 379 134 376 166 C 373 196 373 197 362 201 Z" fill="lightgray"></path>
				<path d="M 673 60 Q 701 151 736 178 Q 755 197 739 217 Q 721 232 665 259 Q 646 266 622 258 Q 523 219 362 201 C 332 198 347 160 376 166 Q 385 167 397 171 Q 500 189 597 206 Q 622 212 633 201 Q 643 192 641 173 Q 632 118 620 71 C 613 42 664 31 673 60 Z" fill="lightgray"></path>
				<path d="M 399 -1 Q 400 -1 405 -1 Q 493 15 684 22 Q 697 23 698 33 Q 699 40 673 60 L 620 71 Q 616 72 613 71 Q 493 49 395 38 C 365 35 369 -3 399 -1 Z" fill="lightgray"></path>
</g>
		<text x="40" y="140" font-size="128" fill="#999999">8</text></g>
		<g id="id1:id3:id3" transform="matrix(1.0,0,0,1.0,3072,0.0)">			<g stroke="lightgray" stroke-width="4" transform="scale(4, 4)"> <rect x="0" y="0" width="256" height="256" fill="white" stroke-width="4"/></g>
			<g transform="scale(0.92, -0.92) translate(60, -920)">					<path d="M 335 688 Q 351 716 368 738 Q 378 751 364 766 Q 316 799 293 795 Q 283 792 285 778 Q 298 690 204 577 Q 180 552 169 536 Q 162 520 176 526 Q 192 527 214 545 Q 280 597 318 659 L 335 688 Z" fill="black"></path>
				<path d="M 318 659 Q 351 650 437 668 Q 459 674 484 678 Q 505 682 508 686 Q 515 693 511 701 Q 504 711 477 718 Q 456 721 378 697 Q 354 693 335 688 C 306 681 289 665 318 659 Z" fill="black"></path>
				<path d="M 325 586 Q 374 529 398 528 Q 411 527 416 546 Q 417 559 407 577 Q 397 592 376 598 Q 342 611 328 612 Q 319 613 318 602 Q 317 595 325 586 Z" fill="black"></path>
				<path d="M 627 706 Q 627 707 628 708 Q 647 748 665 781 Q 674 794 657 808 Q 609 838 584 830 Q 574 826 577 811 Q 601 739 527 619 Q 515 613 496 572 Q 489 556 504 563 Q 555 578 613 679 L 627 706 Z" fill="black"></path>
				<path d="M 613 679 Q 649 664 722 675 Q 843 699 851 703 Q 860 710 855 720 Q 848 732 818 739 Q 787 746 756 733 Q 728 723 695 716 Q 662 710 627 706 C 597 702 585 689 613 679 Z" fill="black"></path>
				<path d="M 664 569 Q 686 551 710 529 Q 723 517 738 519 Q 748 520 753 532 Q 757 547 747 575 Q 735 602 657 615 Q 642 618 636 615 Q 632 611 633 599 Q 637 589 664 569 Z" fill="black"></path>
				<path d="M 677 381 Q 626 380 520 363 Q 397 345 344 330 Q 340 329 341 333 Q 363 352 421 396 Q 511 463 527 470 Q 539 477 546 483 Q 555 496 536 520 Q 503 559 474 568 Q 458 572 449 566 Q 443 559 451 547 Q 463 516 411 454 L 405 448 Q 314 358 273 334 Q 230 316 236 272 Q 242 250 254 247 Q 260 248 277 256 Q 401 316 631 349 Q 643 350 699 356 C 729 359 707 382 677 381 Z" fill="black"></path>
				<path d="M 699 356 Q 760 290 766 287 Q 773 286 781 294 Q 793 306 783 346 Q 773 401 625 467 Q 618 473 615 461 Q 614 449 623 439 Q 648 414 677 381 L 699 356 Z" fill="black"></path>
				<path d="M 362 201 Q 349 207 314 213 Q 301 217 297 211 Q 290 204 300 186 Q 330 125 349 26 Q 353 -4 370 -23 Q 389 -48 396 -30 Q 400 -18 399 -1 L 395 38 Q 379 134 376 166 C 373 196 373 197 362 201 Z" fill="red"></path>
				<path d="M 673 60 Q 701 151 736 178 Q 755 197 739 217 Q 721 232 665 259 Q 646 266 622 258 Q 523 219 362 201 C 332 198 347 160 376 166 Q 385 167 397 171 Q 500 189 597 206 Q 622 212 633 201 Q 643 192 641 173 Q 632 118 620 71 C 613 42 664 31 673 60 Z" fill="lightgray"></path>
				<path d="M 399 -1 Q 400 -1 405 -1 Q 493 15 684 22 Q 697 23 698 33 Q 699 40 673 60 L 620 71 Q 616 72 613 71 Q 493 49 395 38 C 365 35 369 -3 399 -1 Z" fill="lightgray"></path>
</g>
		<text x="40" y="140" font-size="128" fill="#999999">9</text></g>
		<g id="id1:id4:id4" transform="matrix(1.0,0,0,1.0,4096,0.0)">			<g stroke="lightgray" stroke-width="4" transform="scale(4, 4)"> <rect x="0" y="0" width="256" height="256" fill="white" stroke-width="4"/></g>
			<g transform="scale(0.92, -0.92) translate(60, -920)">					<path d="M 335 688 Q 351 716 368 738 Q 378 751 364 766 Q 316 799 293 795 Q 283 792 285 778 Q 298 690 204 577 Q 180 552 169 536 Q 162 520 176 526 Q 192 527 214 545 Q 280 597 318 659 L 335 688 Z" fill="black"></path>
				<path d="M 318 659 Q 351 650 437 668 Q 459 674 484 678 Q 505 682 508 686 Q 515 693 511 701 Q 504 711 477 718 Q 456 721 378 697 Q 354 693 335 688 C 306 681 289 665 318 659 Z" fill="black"></path>
				<path d="M 325 586 Q 374 529 398 528 Q 411 527 416 546 Q 417 559 407 577 Q 397 592 376 598 Q 342 611 328 612 Q 319 613 318 602 Q 317 595 325 586 Z" fill="black"></path>
				<path d="M 627 706 Q 627 707 628 708 Q 647 748 665 781 Q 674 794 657 808 Q 609 838 584 830 Q 574 826 577 811 Q 601 739 527 619 Q 515 613 496 572 Q 489 556 504 563 Q 555 578 613 679 L 627 706 Z" fill="black"></path>
				<path d="M 613 679 Q 649 664 722 675 Q 843 699 851 703 Q 860 710 855 720 Q 848 732 818 739 Q 787 746 756 733 Q 728 723 695 716 Q 662 710 627 706 C 597 702 585 689 613 679 Z" fill="black"></path>
				<path d="M 664 569 Q 686 551 710 529 Q 723 517 738 519 Q 748 520 753 532 Q 757 547 747 575 Q 735 602 657 615 Q 642 618 636 615 Q 632 611 633 599 Q 637 589 664 569 Z" fill="black"></path>
				<path d="M 677 381 Q 626 380 520 363 Q 397 345 344 330 Q 340 329 341 333 Q 363 352 421 396 Q 511 463 527 470 Q 539 477 546 483 Q 555 496 536 520 Q 503 559 474 568 Q 458 572 449 566 Q 443 559 451 547 Q 463 516 411 454 L 405 448 Q 314 358 273 334 Q 230 316 236 272 Q 242 250 254 247 Q 260 248 277 256 Q 401 316 631 349 Q 643 350 699 356 C 729 359 707 382 677 381 Z" fill="black"></path>
				<path d="M 699 356 Q 760 290 766 287 Q 773 286 781 294 Q 793 306 783 346 Q 773 401 625 467 Q 618 473 615 461 Q 614 449 623 439 Q 648 414 677 381 L 699 356 Z" fill="black"></path>
				<path d="M 362 201 Q 349 207 314 213 Q 301 217 297 211 Q 290 204 300 186 Q 330 125 349 26 Q 353 -4 370 -23 Q 389 -48 396 -30 Q 400 -18 399 -1 L 395 38 Q 379 134 376 166 C 373 196 373 197 362 201 Z" fill="black"></path>
				<path d="M 673 60 Q 701 151 736 178 Q 755 197 739 217 Q 721 232 665 259 Q 646 266 622 258 Q 523 219 362 201 C 332 198 347 160 376 166 Q 385 167 397 171 Q 500 189 597 206 Q 622 212 633 201 Q 643 192 641 173 Q 632 118 620 71 C 613 42 664 31 673 60 Z" fill="red"></path>
				<path d="M 399 -1 Q 400 -1 405 -1 Q 493 15 684 22 Q 697 23 698 33 Q 699 40 673 60 L 620 71 Q 616 72 613 71 Q 493 49 395 38 C 365 35 369 -3 399 -1 Z" fill="lightgray"></path>
</g>
		<text x="40" y="140" font-size="128" fill="#999999">10</text></g>
</g>
	<g id="id2:id2" transform="translate(0.0,2048)">
		<g id="id2:id0:id0" transform="matrix(1.0,0,0,1.0,0,0.0)">			<g stroke="lightgray" stroke-width="4" transform="scale(4, 4)"> <rect x="0" y="0" width="256" height="256" fill="white" stroke-width="4"/></g>
			<g transform="scale(0.92, -0.92) translate(60, -920)">					<path d="M 335 688 Q 351 716 368 738 Q 378 751 364 766 Q 316 799 293 795 Q 283 792 285 778 Q 298 690 204 577 Q 180 552 169 536 Q 162 520 176 526 Q 192 527 214 545 Q 280 597 318 659 L 335 688 Z" fill="black"></path>
				<path d="M 318 659 Q 351 650 437 668 Q 459 674 484 678 Q 505 682 508 686 Q 515 693 511 701 Q 504 711 477 718 Q 456 721 378 697 Q 354 693 335 688 C 306 681 289 665 318 659 Z" fill="black"></path>
				<path d="M 325 586 Q 374 529 398 528 Q 411 527 416 546 Q 417 559 407 577 Q 397 592 376 598 Q 342 611 328 612 Q 319 613 318 602 Q 317 595 325 586 Z" fill="black"></path>
				<path d="M 627 706 Q 627 707 628 708 Q 647 748 665 781 Q 674 794 657 808 Q 609 838 584 830 Q 574 826 577 811 Q 601 739 527 619 Q 515 613 496 572 Q 489 556 504 563 Q 555 578 613 679 L 627 706 Z" fill="black"></path>
				<path d="M 613 679 Q 649 664 722 675 Q 843 699 851 703 Q 860 710 855 720 Q 848 732 818 739 Q 787 746 756 733 Q 728 723 695 716 Q 662 710 627 706 C 597 702 585 689 613 679 Z" fill="black"></path>
				<path d="M 664 569 Q 686 551 710 529 Q 723 517 738 519 Q 748 520 753 532 Q 757 547 747 575 Q 735 602 657 615 Q 642 618 636 615 Q 632 611 633 599 Q 637 589 664 569 Z" fill="black"></path>
				<path d="M 677 381 Q 626 380 520 363 Q 397 345 344 330 Q 340 329 341 333 Q 363 352 421 396 Q 511 463 527 470 Q 539 477 546 483 Q 555 496 536 520 Q 503 559 474 568 Q 458 572 449 566 Q 443 559 451 547 Q 463 516 411 454 L 405 448 Q 314 358 273 334 Q 230 316 236 272 Q 242 250 254 247 Q 260 248 277 256 Q 401 316 631 349 Q 643 350 699 356 C 729 359 707 382 677 381 Z" fill="black"></path>
				<path d="M 699 356 Q 760 290 766 287 Q 773 286 781 294 Q 793 306 783 346 Q 773 401 625 467 Q 618 473 615 461 Q 614 449 623 439 Q 648 414 677 381 L 699 356 Z" fill="black"></path>
				<path d="M 362 201 Q 349 207 314 213 Q 301 217 297 211 Q 290 204 300 186 Q 330 125 349 26 Q 353 -4 370 -23 Q 389 -48 396 -30 Q 400 -18 399 -1 L 395 38 Q 379 134 376 166 C 373 196 373 197 362 201 Z" fill="black"></path>
				<path d="M 673 60 Q 701 151 736 178 Q 755 197 739 217 Q 721 232 665 259 Q 646 266 622 258 Q 523 219 362 201 C 332 198 347 160 376 166 Q 385 167 397 171 Q 500 189 597 206 Q 622 212 633 201 Q 643 192 641 173 Q 632 118 620 71 C 613 42 664 31 673 60 Z" fill="black"></path>
				<path d="M 399 -1 Q 400 -1 405 -1 Q 493 15 684 22 Q 697 23 698 33 Q 699 40 673 60 L 620 71 Q 616 72 613 71 Q 493 49 395 38 C 365 35 369 -3 399 -1 Z" fill="red"></path>
</g>
		<text x="40" y="140" font-size="128" fill="#999999">11</text></g>
		<g id="id2:id1:id1" transform="matrix(1.0,0,0,1.0,1024,0.0)">			<g stroke="white" stroke-width="4" transform="scale(4, 4)"> <rect x="1" y="1" width="255" height="255" fill="white" stroke-width="0"/></g>
</g>
		<g id="id2:id2:id2" transform="matrix(1.0,0,0,1.0,2048,0.0)">			<g stroke="white" stroke-width="4" transform="scale(4, 4)"> <rect x="1" y="1" width="255" height="255" fill="white" stroke-width="0"/></g>
</g>
		<g id="id2:id3:id3" transform="matrix(1.0,0,0,1.0,3072,0.0)">			<g stroke="white" stroke-width="4" transform="scale(4, 4)"> <rect x="1" y="1" width="255" height="255" fill="white" stroke-width="0"/></g>
</g>
		<g id="id2:id4:id4" transform="matrix(1.0,0,0,1.0,4096,0.0)">			<g stroke="white" stroke-width="4" transform="scale(4, 4)"> <rect x="1" y="1" width="255" height="255" fill="white" stroke-width="0"/></g>
</g>
</g>
</svg>
