<?xml version="1.0" standalone="no"?>
<!DOCTYPE svg PUBLIC "-//W3C//DTD SVG 1.1//EN"
 "http://www.w3.org/Graphics/SVG/1.1/DTD/svg11.dtd">
<!-- generate by Handict dictionary app com.asnsami.handict -->

<svg xmlns="http://www.w3.org/2000/svg" xmlns:sodipodi="http://sodipodi.sourceforge.net/DTD/sodipodi-0.dtd" version="1.1" width="640" height="384" viewBox="0 0 5120 3072">
	<g id="id0:id0" transform="translate(0.0,0)">
		<g id="id0:id0:id0" transform="matrix(1.0,0,0,1.0,0,0.0)">			<g stroke="lightgray" stroke-width="4" transform="scale(4, 4)"> <rect x="0" y="0" width="256" height="256" fill="white" stroke-width="4"/></g>
			<g transform="scale(0.92, -0.92) translate(60, -920)">					<path d="M 346 725 Q 361 749 375 769 Q 385 781 370 795 Q 331 828 305 822 Q 295 821 296 806 Q 309 715 212 604 Q 188 579 177 564 Q 170 549 184 554 Q 236 563 312 669 Q 330 702 335 707 L 346 725 Z" fill="red"></path>
				<path d="M 335 707 Q 336 707 339 705 Q 372 689 444 699 Q 522 714 531 718 Q 538 725 535 733 Q 528 743 502 750 Q 474 756 447 744 Q 425 738 403 733 Q 378 729 348 726 Q 345 726 346 725 C 317 718 314 717 335 707 Z" fill="lightgray"></path>
				<path d="M 343 633 Q 391 582 408 581 Q 420 580 424 596 Q 425 606 417 623 Q 408 636 389 642 Q 359 654 346 656 Q 339 657 338 647 Q 337 640 343 633 Z" fill="lightgray"></path>
				<path d="M 627 742 Q 643 778 660 806 Q 667 818 654 829 Q 612 856 591 850 Q 581 846 585 834 Q 601 756 525 644 Q 510 629 492 599 Q 486 584 499 590 Q 514 594 533 612 Q 587 663 617 721 L 627 742 Z" fill="lightgray"></path>
				<path d="M 617 721 L 618 721 Q 660 700 708 715 Q 756 725 806 737 Q 828 743 832 746 Q 839 753 835 761 Q 828 771 801 777 Q 773 781 747 770 Q 722 761 694 754 Q 663 747 627 742 C 597 738 589 732 617 721 Z" fill="lightgray"></path>
				<path d="M 640 652 Q 697 592 715 593 Q 727 592 732 608 Q 733 620 724 637 Q 714 652 692 659 Q 658 674 643 676 Q 634 677 634 667 Q 633 660 640 652 Z" fill="lightgray"></path>
				<path d="M 483 411 Q 559 424 639 436 Q 706 449 717 457 Q 727 466 723 475 Q 716 488 685 498 Q 652 505 620 495 Q 559 477 495 461 L 431 448 Q 349 438 257 431 Q 217 427 244 407 Q 290 379 348 390 Q 384 396 421 401 L 483 411 Z" fill="lightgray"></path>
				<path d="M 421 401 Q 384 257 341 188 Q 272 92 182 36 Q 164 26 160 19 Q 156 12 169 10 Q 211 4 297 65 Q 393 135 440 271 Q 462 331 483 411 L 495 461 Q 501 486 513 515 Q 523 536 503 550 Q 457 586 441 586 Q 419 586 431 559 Q 444 520 431 448 L 421 401 Z" fill="lightgray"></path>
				<path d="M 513 88 Q 513 87 514 85 Q 524 48 553 27 Q 608 -15 810 -5 Q 901 1 936 21 Q 967 37 953 71 Q 934 114 920 192 Q 917 208 910 214 Q 901 218 898 198 Q 883 104 869 86 Q 838 49 704 44 Q 631 45 599 56 Q 563 74 559 117 L 557 166 Q 557 250 581 303 Q 594 334 575 352 Q 523 392 507 389 Q 491 383 498 365 Q 519 325 513 267 Q 509 176 509 127 L 513 88 Z" fill="lightgray"></path>
				<path d="M 509 127 Q 434 75 430 67 Q 424 57 438 56 Q 450 56 513 88 L 559 117 Q 568 124 579 131 Q 639 171 711 239 Q 742 270 766 284 Q 776 291 776 305 Q 775 318 754 346 Q 735 370 716 374 Q 698 377 701 355 Q 705 327 691 308 Q 643 244 582 188 Q 569 178 557 166 L 509 127 Z" fill="lightgray"></path>
				<path d="M 714 534 Q 739 515 766 492 Q 779 482 792 484 Q 802 485 805 496 Q 808 509 799 535 Q 787 563 707 575 Q 694 578 688 575 Q 684 571 686 560 Q 690 550 714 534 Z" fill="lightgray"></path>
</g>
		<text x="40" y="140" font-size="128" fill="#999999">1</text></g>
		<g id="id0:id1:id1" transform="matrix(1.0,0,0,1.0,1024,0.0)">			<g stroke="lightgray" stroke-width="4" transform="scale(4, 4)"> <rect x="0" y="0" width="256" height="256" fill="white" stroke-width="4"/></g>
			<g transform="scale(0.92, -0.92) translate(60, -920)">					<path d="M 346 725 Q 361 749 375 769 Q 385 781 370 795 Q 331 828 305 822 Q 295 821 296 806 Q 309 715 212 604 Q 188 579 177 564 Q 170 549 184 554 Q 236 563 312 669 Q 330 702 335 707 L 346 725 Z" fill="black"></path>
				<path d="M 335 707 Q 336 707 339 705 Q 372 689 444 699 Q 522 714 531 718 Q 538 725 535 733 Q 528 743 502 750 Q 474 756 447 744 Q 425 738 403 733 Q 378 729 348 726 Q 345 726 346 725 C 317 718 314 717 335 707 Z" fill="red"></path>
				<path d="M 343 633 Q 391 582 408 581 Q 420 580 424 596 Q 425 606 417 623 Q 408 636 389 642 Q 359 654 346 656 Q 339 657 338 647 Q 337 640 343 633 Z" fill="lightgray"></path>
				<path d="M 627 742 Q 643 778 660 806 Q 667 818 654 829 Q 612 856 591 850 Q 581 846 585 834 Q 601 756 525 644 Q 510 629 492 599 Q 486 584 499 590 Q 514 594 533 612 Q 587 663 617 721 L 627 742 Z" fill="lightgray"></path>
				<path d="M 617 721 L 618 721 Q 660 700 708 715 Q 756 725 806 737 Q 828 743 832 746 Q 839 753 835 761 Q 828 771 801 777 Q 773 781 747 770 Q 722 761 694 754 Q 663 747 627 742 C 597 738 589 732 617 721 Z" fill="lightgray"></path>
				<path d="M 640 652 Q 697 592 715 593 Q 727 592 732 608 Q 733 620 724 637 Q 714 652 692 659 Q 658 674 643 676 Q 634 677 634 667 Q 633 660 640 652 Z" fill="lightgray"></path>
				<path d="M 483 411 Q 559 424 639 436 Q 706 449 717 457 Q 727 466 723 475 Q 716 488 685 498 Q 652 505 620 495 Q 559 477 495 461 L 431 448 Q 349 438 257 431 Q 217 427 244 407 Q 290 379 348 390 Q 384 396 421 401 L 483 411 Z" fill="lightgray"></path>
				<path d="M 421 401 Q 384 257 341 188 Q 272 92 182 36 Q 164 26 160 19 Q 156 12 169 10 Q 211 4 297 65 Q 393 135 440 271 Q 462 331 483 411 L 495 461 Q 501 486 513 515 Q 523 536 503 550 Q 457 586 441 586 Q 419 586 431 559 Q 444 520 431 448 L 421 401 Z" fill="lightgray"></path>
				<path d="M 513 88 Q 513 87 514 85 Q 524 48 553 27 Q 608 -15 810 -5 Q 901 1 936 21 Q 967 37 953 71 Q 934 114 920 192 Q 917 208 910 214 Q 901 218 898 198 Q 883 104 869 86 Q 838 49 704 44 Q 631 45 599 56 Q 563 74 559 117 L 557 166 Q 557 250 581 303 Q 594 334 575 352 Q 523 392 507 389 Q 491 383 498 365 Q 519 325 513 267 Q 509 176 509 127 L 513 88 Z" fill="lightgray"></path>
				<path d="M 509 127 Q 434 75 430 67 Q 424 57 438 56 Q 450 56 513 88 L 559 117 Q 568 124 579 131 Q 639 171 711 239 Q 742 270 766 284 Q 776 291 776 305 Q 775 318 754 346 Q 735 370 716 374 Q 698 377 701 355 Q 705 327 691 308 Q 643 244 582 188 Q 569 178 557 166 L 509 127 Z" fill="lightgray"></path>
				<path d="M 714 534 Q 739 515 766 492 Q 779 482 792 484 Q 802 485 805 496 Q 808 509 799 535 Q 787 563 707 575 Q 694 578 688 575 Q 684 571 686 560 Q 690 550 714 534 Z" fill="lightgray"></path>
</g>
		<text x="40" y="140" font-size="128" fill="#999999">2</text></g>
		<g id="id0:id2:id2" transform="matrix(1.0,0,0,1.0,2048,0.0)">			<g stroke="lightgray" stroke-width="4" transform="scale(4, 4)"> <rect x="0" y="0" width="256" height="256" fill="white" stroke-width="4"/></g>
			<g transform="scale(0.92, -0.92) translate(60, -920)">					<path d="M 346 725 Q 361 749 375 769 Q 385 781 370 795 Q 331 828 305 822 Q 295 821 296 806 Q 309 715 212 604 Q 188 579 177 564 Q 170 549 184 554 Q 236 563 312 669 Q 330 702 335 707 L 346 725 Z" fill="black"></path>
				<path d="M 335 707 Q 336 707 339 705 Q 372 689 444 699 Q 522 714 531 718 Q 538 725 535 733 Q 528 743 502 750 Q 474 756 447 744 Q 425 738 403 733 Q 378 729 348 726 Q 345 726 346 725 C 317 718 314 717 335 707 Z" fill="black"></path>
				<path d="M 343 633 Q 391 582 408 581 Q 420 580 424 596 Q 425 606 417 623 Q 408 636 389 642 Q 359 654 346 656 Q 339 657 338 647 Q 337 640 343 633 Z" fill="red"></path>
				<path d="M 627 742 Q 643 778 660 806 Q 667 818 654 829 Q 612 856 591 850 Q 581 846 585 834 Q 601 756 525 644 Q 510 629 492 599 Q 486 584 499 590 Q 514 594 533 612 Q 587 663 617 721 L 627 742 Z" fill="lightgray"></path>
				<path d="M 617 721 L 618 721 Q 660 700 708 715 Q 756 725 806 737 Q 828 743 832 746 Q 839 753 835 761 Q 828 771 801 777 Q 773 781 747 770 Q 722 761 694 754 Q 663 747 627 742 C 597 738 589 732 617 721 Z" fill="lightgray"></path>
				<path d="M 640 652 Q 697 592 715 593 Q 727 592 732 608 Q 733 620 724 637 Q 714 652 692 659 Q 658 674 643 676 Q 634 677 634 667 Q 633 660 640 652 Z" fill="lightgray"></path>
				<path d="M 483 411 Q 559 424 639 436 Q 706 449 717 457 Q 727 466 723 475 Q 716 488 685 498 Q 652 505 620 495 Q 559 477 495 461 L 431 448 Q 349 438 257 431 Q 217 427 244 407 Q 290 379 348 390 Q 384 396 421 401 L 483 411 Z" fill="lightgray"></path>
				<path d="M 421 401 Q 384 257 341 188 Q 272 92 182 36 Q 164 26 160 19 Q 156 12 169 10 Q 211 4 297 65 Q 393 135 440 271 Q 462 331 483 411 L 495 461 Q 501 486 513 515 Q 523 536 503 550 Q 457 586 441 586 Q 419 586 431 559 Q 444 520 431 448 L 421 401 Z" fill="lightgray"></path>
				<path d="M 513 88 Q 513 87 514 85 Q 524 48 553 27 Q 608 -15 810 -5 Q 901 1 936 21 Q 967 37 953 71 Q 934 114 920 192 Q 917 208 910 214 Q 901 218 898 198 Q 883 104 869 86 Q 838 49 704 44 Q 631 45 599 56 Q 563 74 559 117 L 557 166 Q 557 250 581 303 Q 594 334 575 352 Q 523 392 507 389 Q 491 383 498 365 Q 519 325 513 267 Q 509 176 509 127 L 513 88 Z" fill="lightgray"></path>
				<path d="M 509 127 Q 434 75 430 67 Q 424 57 438 56 Q 450 56 513 88 L 559 117 Q 568 124 579 131 Q 639 171 711 239 Q 742 270 766 284 Q 776 291 776 305 Q 775 318 754 346 Q 735 370 716 374 Q 698 377 701 355 Q 705 327 691 308 Q 643 244 582 188 Q 569 178 557 166 L 509 127 Z" fill="lightgray"></path>
				<path d="M 714 534 Q 739 515 766 492 Q 779 482 792 484 Q 802 485 805 496 Q 808 509 799 535 Q 787 563 707 575 Q 694 578 688 575 Q 684 571 686 560 Q 690 550 714 534 Z" fill="lightgray"></path>
</g>
		<text x="40" y="140" font-size="128" fill="#999999">3</text></g>
		<g id="id0:id3:id3" transform="matrix(1.0,0,0,1.0,3072,0.0)">			<g stroke="lightgray" stroke-width="4" transform="scale(4, 4)"> <rect x="0" y="0" width="256" height="256" fill="white" stroke-width="4"/></g>
			<g transform="scale(0.92, -0.92) translate(60, -920)">					<path d="M 346 725 Q 361 749 375 769 Q 385 781 370 795 Q 331 828 305 822 Q 295 821 296 806 Q 309 715 212 604 Q 188 579 177 564 Q 170 549 184 554 Q 236 563 312 669 Q 330 702 335 707 L 346 725 Z" fill="black"></path>
				<path d="M 335 707 Q 336 707 339 705 Q 372 689 444 699 Q 522 714 531 718 Q 538 725 535 733 Q 528 743 502 750 Q 474 756 447 744 Q 425 738 403 733 Q 378 729 348 726 Q 345 726 346 725 C 317 718 314 717 335 707 Z" fill="black"></path>
				<path d="M 343 633 Q 391 582 408 581 Q 420 580 424 596 Q 425 606 417 623 Q 408 636 389 642 Q 359 654 346 656 Q 339 657 338 647 Q 337 640 343 633 Z" fill="black"></path>
				<path d="M 627 742 Q 643 778 660 806 Q 667 818 654 829 Q 612 856 591 850 Q 581 846 585 834 Q 601 756 525 644 Q 510 629 492 599 Q 486 584 499 590 Q 514 594 533 612 Q 587 663 617 721 L 627 742 Z" fill="red"></path>
				<path d="M 617 721 L 618 721 Q 660 700 708 715 Q 756 725 806 737 Q 828 743 832 746 Q 839 753 835 761 Q 828 771 801 777 Q 773 781 747 770 Q 722 761 694 754 Q 663 747 627 742 C 597 738 589 732 617 721 Z" fill="lightgray"></path>
				<path d="M 640 652 Q 697 592 715 593 Q 727 592 732 608 Q 733 620 724 637 Q 714 652 692 659 Q 658 674 643 676 Q 634 677 634 667 Q 633 660 640 652 Z" fill="lightgray"></path>
				<path d="M 483 411 Q 559 424 639 436 Q 706 449 717 457 Q 727 466 723 475 Q 716 488 685 498 Q 652 505 620 495 Q 559 477 495 461 L 431 448 Q 349 438 257 431 Q 217 427 244 407 Q 290 379 348 390 Q 384 396 421 401 L 483 411 Z" fill="lightgray"></path>
				<path d="M 421 401 Q 384 257 341 188 Q 272 92 182 36 Q 164 26 160 19 Q 156 12 169 10 Q 211 4 297 65 Q 393 135 440 271 Q 462 331 483 411 L 495 461 Q 501 486 513 515 Q 523 536 503 550 Q 457 586 441 586 Q 419 586 431 559 Q 444 520 431 448 L 421 401 Z" fill="lightgray"></path>
				<path d="M 513 88 Q 513 87 514 85 Q 524 48 553 27 Q 608 -15 810 -5 Q 901 1 936 21 Q 967 37 953 71 Q 934 114 920 192 Q 917 208 910 214 Q 901 218 898 198 Q 883 104 869 86 Q 838 49 704 44 Q 631 45 599 56 Q 563 74 559 117 L 557 166 Q 557 250 581 303 Q 594 334 575 352 Q 523 392 507 389 Q 491 383 498 365 Q 519 325 513 267 Q 509 176 509 127 L 513 88 Z" fill="lightgray"></path>
				<path d="M 509 127 Q 434 75 430 67 Q 424 57 438 56 Q 450 56 513 88 L 559 117 Q 568 124 579 131 Q 639 171 711 239 Q 742 270 766 284 Q 776 291 776 305 Q 775 318 754 346 Q 735 370 716 374 Q 698 377 701 355 Q 705 327 691 308 Q 643 244 582 188 Q 569 178 557 166 L 509 127 Z" fill="lightgray"></path>
				<path d="M 714 534 Q 739 515 766 492 Q 779 482 792 484 Q 802 485 805 496 Q 808 509 799 535 Q 787 563 707 575 Q 694 578 688 575 Q 684 571 686 560 Q 690 550 714 534 Z" fill="lightgray"></path>
</g>
		<text x="40" y="140" font-size="128" fill="#999999">4</text></g>
		<g id="id0:id4:id4" transform="matrix(1.0,0,0,1.0,4096,0.0)">			<g stroke="lightgray" stroke-width="4" transform="scale(4, 4)"> <rect x="0" y="0" width="256" height="256" fill="white" stroke-width="4"/></g>
			<g transform="scale(0.92, -0.92) translate(60, -920)">					<path d="M 346 725 Q 361 749 375 769 Q 385 781 370 795 Q 331 828 305 822 Q 295 821 296 806 Q 309 715 212 604 Q 188 579 177 564 Q 170 549 184 554 Q 236 563 312 669 Q 330 702 335 707 L 346 725 Z" fill="black"></path>
				<path d="M 335 707 Q 336 707 339 705 Q 372 689 444 699 Q 522 714 531 718 Q 538 725 535 733 Q 528 743 502 750 Q 474 756 447 744 Q 425 738 403 733 Q 378 729 348 726 Q 345 726 346 725 C 317 718 314 717 335 707 Z" fill="black"></path>
				<path d="M 343 633 Q 391 582 408 581 Q 420 580 424 596 Q 425 606 417 623 Q 408 636 389 642 Q 359 654 346 656 Q 339 657 338 647 Q 337 640 343 633 Z" fill="black"></path>
				<path d="M 627 742 Q 643 778 660 806 Q 667 818 654 829 Q 612 856 591 850 Q 581 846 585 834 Q 601 756 525 644 Q 510 629 492 599 Q 486 584 499 590 Q 514 594 533 612 Q 587 663 617 721 L 627 742 Z" fill="black"></path>
				<path d="M 617 721 L 618 721 Q 660 700 708 715 Q 756 725 806 737 Q 828 743 832 746 Q 839 753 835 761 Q 828 771 801 777 Q 773 781 747 770 Q 722 761 694 754 Q 663 747 627 742 C 597 738 589 732 617 721 Z" fill="red"></path>
				<path d="M 640 652 Q 697 592 715 593 Q 727 592 732 608 Q 733 620 724 637 Q 714 652 692 659 Q 658 674 643 676 Q 634 677 634 667 Q 633 660 640 652 Z" fill="lightgray"></path>
				<path d="M 483 411 Q 559 424 639 436 Q 706 449 717 457 Q 727 466 723 475 Q 716 488 685 498 Q 652 505 620 495 Q 559 477 495 461 L 431 448 Q 349 438 257 431 Q 217 427 244 407 Q 290 379 348 390 Q 384 396 421 401 L 483 411 Z" fill="lightgray"></path>
				<path d="M 421 401 Q 384 257 341 188 Q 272 92 182 36 Q 164 26 160 19 Q 156 12 169 10 Q 211 4 297 65 Q 393 135 440 271 Q 462 331 483 411 L 495 461 Q 501 486 513 515 Q 523 536 503 550 Q 457 586 441 586 Q 419 586 431 559 Q 444 520 431 448 L 421 401 Z" fill="lightgray"></path>
				<path d="M 513 88 Q 513 87 514 85 Q 524 48 553 27 Q 608 -15 810 -5 Q 901 1 936 21 Q 967 37 953 71 Q 934 114 920 192 Q 917 208 910 214 Q 901 218 898 198 Q 883 104 869 86 Q 838 49 704 44 Q 631 45 599 56 Q 563 74 559 117 L 557 166 Q 557 250 581 303 Q 594 334 575 352 Q 523 392 507 389 Q 491 383 498 365 Q 519 325 513 267 Q 509 176 509 127 L 513 88 Z" fill="lightgray"></path>
				<path d="M 509 127 Q 434 75 430 67 Q 424 57 438 56 Q 450 56 513 88 L 559 117 Q 568 124 579 131 Q 639 171 711 239 Q 742 270 766 284 Q 776 291 776 305 Q 775 318 754 346 Q 735 370 716 374 Q 698 377 701 355 Q 705 327 691 308 Q 643 244 582 188 Q 569 178 557 166 L 509 127 Z" fill="lightgray"></path>
				<path d="M 714 534 Q 739 515 766 492 Q 779 482 792 484 Q 802 485 805 496 Q 808 509 799 535 Q 787 563 707 575 Q 694 578 688 575 Q 684 571 686 560 Q 690 550 714 534 Z" fill="lightgray"></path>
</g>
		<text x="40" y="140" font-size="128" fill="#999999">5</text></g>
</g>
	<g id="id1:id1" transform="translate(0.0,1024)">
		<g id="id1:id0:id0" transform="matrix(1.0,0,0,1.0,0,0.0)">			<g stroke="lightgray" stroke-width="4" transform="scale(4, 4)"> <rect x="0" y="0" width="256" height="256" fill="white" stroke-width="4"/></g>
			<g transform="scale(0.92, -0.92) translate(60, -920)">					<path d="M 346 725 Q 361 749 375 769 Q 385 781 370 795 Q 331 828 305 822 Q 295 821 296 806 Q 309 715 212 604 Q 188 579 177 564 Q 170 549 184 554 Q 236 563 312 669 Q 330 702 335 707 L 346 725 Z" fill="black"></path>
				<path d="M 335 707 Q 336 707 339 705 Q 372 689 444 699 Q 522 714 531 718 Q 538 725 535 733 Q 528 743 502 750 Q 474 756 447 744 Q 425 738 403 733 Q 378 729 348 726 Q 345 726 346 725 C 317 718 314 717 335 707 Z" fill="black"></path>
				<path d="M 343 633 Q 391 582 408 581 Q 420 580 424 596 Q 425 606 417 623 Q 408 636 389 642 Q 359 654 346 656 Q 339 657 338 647 Q 337 640 343 633 Z" fill="black"></path>
				<path d="M 627 742 Q 643 778 660 806 Q 667 818 654 829 Q 612 856 591 850 Q 581 846 585 834 Q 601 756 525 644 Q 510 629 492 599 Q 486 584 499 590 Q 514 594 533 612 Q 587 663 617 721 L 627 742 Z" fill="black"></path>
				<path d="M 617 721 L 618 721 Q 660 700 708 715 Q 756 725 806 737 Q 828 743 832 746 Q 839 753 835 761 Q 828 771 801 777 Q 773 781 747 770 Q 722 761 694 754 Q 663 747 627 742 C 597 738 589 732 617 721 Z" fill="black"></path>
				<path d="M 640 652 Q 697 592 715 593 Q 727 592 732 608 Q 733 620 724 637 Q 714 652 692 659 Q 658 674 643 676 Q 634 677 634 667 Q 633 660 640 652 Z" fill="red"></path>
				<path d="M 483 411 Q 559 424 639 436 Q 706 449 717 457 Q 727 466 723 475 Q 716 488 685 498 Q 652 505 620 495 Q 559 477 495 461 L 431 448 Q 349 438 257 431 Q 217 427 244 407 Q 290 379 348 390 Q 384 396 421 401 L 483 411 Z" fill="lightgray"></path>
				<path d="M 421 401 Q 384 257 341 188 Q 272 92 182 36 Q 164 26 160 19 Q 156 12 169 10 Q 211 4 297 65 Q 393 135 440 271 Q 462 331 483 411 L 495 461 Q 501 486 513 515 Q 523 536 503 550 Q 457 586 441 586 Q 419 586 431 559 Q 444 520 431 448 L 421 401 Z" fill="lightgray"></path>
				<path d="M 513 88 Q 513 87 514 85 Q 524 48 553 27 Q 608 -15 810 -5 Q 901 1 936 21 Q 967 37 953 71 Q 934 114 920 192 Q 917 208 910 214 Q 901 218 898 198 Q 883 104 869 86 Q 838 49 704 44 Q 631 45 599 56 Q 563 74 559 117 L 557 166 Q 557 250 581 303 Q 594 334 575 352 Q 523 392 507 389 Q 491 383 498 365 Q 519 325 513 267 Q 509 176 509 127 L 513 88 Z" fill="lightgray"></path>
				<path d="M 509 127 Q 434 75 430 67 Q 424 57 438 56 Q 450 56 513 88 L 559 117 Q 568 124 579 131 Q 639 171 711 239 Q 742 270 766 284 Q 776 291 776 305 Q 775 318 754 346 Q 735 370 716 374 Q 698 377 701 355 Q 705 327 691 308 Q 643 244 582 188 Q 569 178 557 166 L 509 127 Z" fill="lightgray"></path>
				<path d="M 714 534 Q 739 515 766 492 Q 779 482 792 484 Q 802 485 805 496 Q 808 509 799 535 Q 787 563 707 575 Q 694 578 688 575 Q 684 571 686 560 Q 690 550 714 534 Z" fill="lightgray"></path>
</g>
		<text x="40" y="140" font-size="128" fill="#999999">6</text></g>
		<g id="id1:id1:id1" transform="matrix(1.0,0,0,1.0,1024,0.0)">			<g stroke="lightgray" stroke-width="4" transform="scale(4, 4)"> <rect x="0" y="0" width="256" height="256" fill="white" stroke-width="4"/></g>
			<g transform="scale(0.92, -0.92) translate(60, -920)">					<path d="M 346 725 Q 361 749 375 769 Q 385 781 370 795 Q 331 828 305 822 Q 295 821 296 806 Q 309 715 212 604 Q 188 579 177 564 Q 170 549 184 554 Q 236 563 312 669 Q 330 702 335 707 L 346 725 Z" fill="black"></path>
				<path d="M 335 707 Q 336 707 339 705 Q 372 689 444 699 Q 522 714 531 718 Q 538 725 535 733 Q 528 743 502 750 Q 474 756 447 744 Q 425 738 403 733 Q 378 729 348 726 Q 345 726 346 725 C 317 718 314 717 335 707 Z" fill="black"></path>
				<path d="M 343 633 Q 391 582 408 581 Q 420 580 424 596 Q 425 606 417 623 Q 408 636 389 642 Q 359 654 346 656 Q 339 657 338 647 Q 337 640 343 633 Z" fill="black"></path>
				<path d="M 627 742 Q 643 778 660 806 Q 667 818 654 829 Q 612 856 591 850 Q 581 846 585 834 Q 601 756 525 644 Q 510 629 492 599 Q 486 584 499 590 Q 514 594 533 612 Q 587 663 617 721 L 627 742 Z" fill="black"></path>
				<path d="M 617 721 L 618 721 Q 660 700 708 715 Q 756 725 806 737 Q 828 743 832 746 Q 839 753 835 761 Q 828 771 801 777 Q 773 781 747 770 Q 722 761 694 754 Q 663 747 627 742 C 597 738 589 732 617 721 Z" fill="black"></path>
				<path d="M 640 652 Q 697 592 715 593 Q 727 592 732 608 Q 733 620 724 637 Q 714 652 692 659 Q 658 674 643 676 Q 634 677 634 667 Q 633 660 640 652 Z" fill="black"></path>
				<path d="M 483 411 Q 559 424 639 436 Q 706 449 717 457 Q 727 466 723 475 Q 716 488 685 498 Q 652 505 620 495 Q 559 477 495 461 L 431 448 Q 349 438 257 431 Q 217 427 244 407 Q 290 379 348 390 Q 384 396 421 401 L 483 411 Z" fill="red"></path>
				<path d="M 421 401 Q 384 257 341 188 Q 272 92 182 36 Q 164 26 160 19 Q 156 12 169 10 Q 211 4 297 65 Q 393 135 440 271 Q 462 331 483 411 L 495 461 Q 501 486 513 515 Q 523 536 503 550 Q 457 586 441 586 Q 419 586 431 559 Q 444 520 431 448 L 421 401 Z" fill="lightgray"></path>
				<path d="M 513 88 Q 513 87 514 85 Q 524 48 553 27 Q 608 -15 810 -5 Q 901 1 936 21 Q 967 37 953 71 Q 934 114 920 192 Q 917 208 910 214 Q 901 218 898 198 Q 883 104 869 86 Q 838 49 704 44 Q 631 45 599 56 Q 563 74 559 117 L 557 166 Q 557 250 581 303 Q 594 334 575 352 Q 523 392 507 389 Q 491 383 498 365 Q 519 325 513 267 Q 509 176 509 127 L 513 88 Z" fill="lightgray"></path>
				<path d="M 509 127 Q 434 75 430 67 Q 424 57 438 56 Q 450 56 513 88 L 559 117 Q 568 124 579 131 Q 639 171 711 239 Q 742 270 766 284 Q 776 291 776 305 Q 775 318 754 346 Q 735 370 716 374 Q 698 377 701 355 Q 705 327 691 308 Q 643 244 582 188 Q 569 178 557 166 L 509 127 Z" fill="lightgray"></path>
				<path d="M 714 534 Q 739 515 766 492 Q 779 482 792 484 Q 802 485 805 496 Q 808 509 799 535 Q 787 563 707 575 Q 694 578 688 575 Q 684 571 686 560 Q 690 550 714 534 Z" fill="lightgray"></path>
</g>
		<text x="40" y="140" font-size="128" fill="#999999">7</text></g>
		<g id="id1:id2:id2" transform="matrix(1.0,0,0,1.0,2048,0.0)">			<g stroke="lightgray" stroke-width="4" transform="scale(4, 4)"> <rect x="0" y="0" width="256" height="256" fill="white" stroke-width="4"/></g>
			<g transform="scale(0.92, -0.92) translate(60, -920)">					<path d="M 346 725 Q 361 749 375 769 Q 385 781 370 795 Q 331 828 305 822 Q 295 821 296 806 Q 309 715 212 604 Q 188 579 177 564 Q 170 549 184 554 Q 236 563 312 669 Q 330 702 335 707 L 346 725 Z" fill="black"></path>
				<path d="M 335 707 Q 336 707 339 705 Q 372 689 444 699 Q 522 714 531 718 Q 538 725 535 733 Q 528 743 502 750 Q 474 756 447 744 Q 425 738 403 733 Q 378 729 348 726 Q 345 726 346 725 C 317 718 314 717 335 707 Z" fill="black"></path>
				<path d="M 343 633 Q 391 582 408 581 Q 420 580 424 596 Q 425 606 417 623 Q 408 636 389 642 Q 359 654 346 656 Q 339 657 338 647 Q 337 640 343 633 Z" fill="black"></path>
				<path d="M 627 742 Q 643 778 660 806 Q 667 818 654 829 Q 612 856 591 850 Q 581 846 585 834 Q 601 756 525 644 Q 510 629 492 599 Q 486 584 499 590 Q 514 594 533 612 Q 587 663 617 721 L 627 742 Z" fill="black"></path>
				<path d="M 617 721 L 618 721 Q 660 700 708 715 Q 756 725 806 737 Q 828 743 832 746 Q 839 753 835 761 Q 828 771 801 777 Q 773 781 747 770 Q 722 761 694 754 Q 663 747 627 742 C 597 738 589 732 617 721 Z" fill="black"></path>
				<path d="M 640 652 Q 697 592 715 593 Q 727 592 732 608 Q 733 620 724 637 Q 714 652 692 659 Q 658 674 643 676 Q 634 677 634 667 Q 633 660 640 652 Z" fill="black"></path>
				<path d="M 483 411 Q 559 424 639 436 Q 706 449 717 457 Q 727 466 723 475 Q 716 488 685 498 Q 652 505 620 495 Q 559 477 495 461 L 431 448 Q 349 438 257 431 Q 217 427 244 407 Q 290 379 348 390 Q 384 396 421 401 L 483 411 Z" fill="black"></path>
				<path d="M 421 401 Q 384 257 341 188 Q 272 92 182 36 Q 164 26 160 19 Q 156 12 169 10 Q 211 4 297 65 Q 393 135 440 271 Q 462 331 483 411 L 495 461 Q 501 486 513 515 Q 523 536 503 550 Q 457 586 441 586 Q 419 586 431 559 Q 444 520 431 448 L 421 401 Z" fill="red"></path>
				<path d="M 513 88 Q 513 87 514 85 Q 524 48 553 27 Q 608 -15 810 -5 Q 901 1 936 21 Q 967 37 953 71 Q 934 114 920 192 Q 917 208 910 214 Q 901 218 898 198 Q 883 104 869 86 Q 838 49 704 44 Q 631 45 599 56 Q 563 74 559 117 L 557 166 Q 557 250 581 303 Q 594 334 575 352 Q 523 392 507 389 Q 491 383 498 365 Q 519 325 513 267 Q 509 176 509 127 L 513 88 Z" fill="lightgray"></path>
				<path d="M 509 127 Q 434 75 430 67 Q 424 57 438 56 Q 450 56 513 88 L 559 117 Q 568 124 579 131 Q 639 171 711 239 Q 742 270 766 284 Q 776 291 776 305 Q 775 318 754 346 Q 735 370 716 374 Q 698 377 701 355 Q 705 327 691 308 Q 643 244 582 188 Q 569 178 557 166 L 509 127 Z" fill="lightgray"></path>
				<path d="M 714 534 Q 739 515 766 492 Q 779 482 792 484 Q 802 485 805 496 Q 808 509 799 535 Q 787 563 707 575 Q 694 578 688 575 Q 684 571 686 560 Q 690 550 714 534 Z" fill="lightgray"></path>
</g>
		<text x="40" y="140" font-size="128" fill="#999999">8</text></g>
		<g id="id1:id3:id3" transform="matrix(1.0,0,0,1.0,3072,0.0)">			<g stroke="lightgray" stroke-width="4" transform="scale(4, 4)"> <rect x="0" y="0" width="256" height="256" fill="white" stroke-width="4"/></g>
			<g transform="scale(0.92, -0.92) translate(60, -920)">					<path d="M 346 725 Q 361 749 375 769 Q 385 781 370 795 Q 331 828 305 822 Q 295 821 296 806 Q 309 715 212 604 Q 188 579 177 564 Q 170 549 184 554 Q 236 563 312 669 Q 330 702 335 707 L 346 725 Z" fill="black"></path>
				<path d="M 335 707 Q 336 707 339 705 Q 372 689 444 699 Q 522 714 531 718 Q 538 725 535 733 Q 528 743 502 750 Q 474 756 447 744 Q 425 738 403 733 Q 378 729 348 726 Q 345 726 346 725 C 317 718 314 717 335 707 Z" fill="black"></path>
				<path d="M 343 633 Q 391 582 408 581 Q 420 580 424 596 Q 425 606 417 623 Q 408 636 389 642 Q 359 654 346 656 Q 339 657 338 647 Q 337 640 343 633 Z" fill="black"></path>
				<path d="M 627 742 Q 643 778 660 806 Q 667 818 654 829 Q 612 856 591 850 Q 581 846 585 834 Q 601 756 525 644 Q 510 629 492 599 Q 486 584 499 590 Q 514 594 533 612 Q 587 663 617 721 L 627 742 Z" fill="black"></path>
				<path d="M 617 721 L 618 721 Q 660 700 708 715 Q 756 725 806 737 Q 828 743 832 746 Q 839 753 835 761 Q 828 771 801 777 Q 773 781 747 770 Q 722 761 694 754 Q 663 747 627 742 C 597 738 589 732 617 721 Z" fill="black"></path>
				<path d="M 640 652 Q 697 592 715 593 Q 727 592 732 608 Q 733 620 724 637 Q 714 652 692 659 Q 658 674 643 676 Q 634 677 634 667 Q 633 660 640 652 Z" fill="black"></path>
				<path d="M 483 411 Q 559 424 639 436 Q 706 449 717 457 Q 727 466 723 475 Q 716 488 685 498 Q 652 505 620 495 Q 559 477 495 461 L 431 448 Q 349 438 257 431 Q 217 427 244 407 Q 290 379 348 390 Q 384 396 421 401 L 483 411 Z" fill="black"></path>
				<path d="M 421 401 Q 384 257 341 188 Q 272 92 182 36 Q 164 26 160 19 Q 156 12 169 10 Q 211 4 297 65 Q 393 135 440 271 Q 462 331 483 411 L 495 461 Q 501 486 513 515 Q 523 536 503 550 Q 457 586 441 586 Q 419 586 431 559 Q 444 520 431 448 L 421 401 Z" fill="black"></path>
				<path d="M 513 88 Q 513 87 514 85 Q 524 48 553 27 Q 608 -15 810 -5 Q 901 1 936 21 Q 967 37 953 71 Q 934 114 920 192 Q 917 208 910 214 Q 901 218 898 198 Q 883 104 869 86 Q 838 49 704 44 Q 631 45 599 56 Q 563 74 559 117 L 557 166 Q 557 250 581 303 Q 594 334 575 352 Q 523 392 507 389 Q 491 383 498 365 Q 519 325 513 267 Q 509 176 509 127 L 513 88 Z" fill="red"></path>
				<path d="M 509 127 Q 434 75 430 67 Q 424 57 438 56 Q 450 56 513 88 L 559 117 Q 568 124 579 131 Q 639 171 711 239 Q 742 270 766 284 Q 776 291 776 305 Q 775 318 754 346 Q 735 370 716 374 Q 698 377 701 355 Q 705 327 691 308 Q 643 244 582 188 Q 569 178 557 166 L 509 127 Z" fill="lightgray"></path>
				<path d="M 714 534 Q 739 515 766 492 Q 779 482 792 484 Q 802 485 805 496 Q 808 509 799 535 Q 787 563 707 575 Q 694 578 688 575 Q 684 571 686 560 Q 690 550 714 534 Z" fill="lightgray"></path>
</g>
		<text x="40" y="140" font-size="128" fill="#999999">9</text></g>
		<g id="id1:id4:id4" transform="matrix(1.0,0,0,1.0,4096,0.0)">			<g stroke="lightgray" stroke-width="4" transform="scale(4, 4)"> <rect x="0" y="0" width="256" height="256" fill="white" stroke-width="4"/></g>
			<g transform="scale(0.92, -0.92) translate(60, -920)">					<path d="M 346 725 Q 361 749 375 769 Q 385 781 370 795 Q 331 828 305 822 Q 295 821 296 806 Q 309 715 212 604 Q 188 579 177 564 Q 170 549 184 554 Q 236 563 312 669 Q 330 702 335 707 L 346 725 Z" fill="black"></path>
				<path d="M 335 707 Q 336 707 339 705 Q 372 689 444 699 Q 522 714 531 718 Q 538 725 535 733 Q 528 743 502 750 Q 474 756 447 744 Q 425 738 403 733 Q 378 729 348 726 Q 345 726 346 725 C 317 718 314 717 335 707 Z" fill="black"></path>
				<path d="M 343 633 Q 391 582 408 581 Q 420 580 424 596 Q 425 606 417 623 Q 408 636 389 642 Q 359 654 346 656 Q 339 657 338 647 Q 337 640 343 633 Z" fill="black"></path>
				<path d="M 627 742 Q 643 778 660 806 Q 667 818 654 829 Q 612 856 591 850 Q 581 846 585 834 Q 601 756 525 644 Q 510 629 492 599 Q 486 584 499 590 Q 514 594 533 612 Q 587 663 617 721 L 627 742 Z" fill="black"></path>
				<path d="M 617 721 L 618 721 Q 660 700 708 715 Q 756 725 806 737 Q 828 743 832 746 Q 839 753 835 761 Q 828 771 801 777 Q 773 781 747 770 Q 722 761 694 754 Q 663 747 627 742 C 597 738 589 732 617 721 Z" fill="black"></path>
				<path d="M 640 652 Q 697 592 715 593 Q 727 592 732 608 Q 733 620 724 637 Q 714 652 692 659 Q 658 674 643 676 Q 634 677 634 667 Q 633 660 640 652 Z" fill="black"></path>
				<path d="M 483 411 Q 559 424 639 436 Q 706 449 717 457 Q 727 466 723 475 Q 716 488 685 498 Q 652 505 620 495 Q 559 477 495 461 L 431 448 Q 349 438 257 431 Q 217 427 244 407 Q 290 379 348 390 Q 384 396 421 401 L 483 411 Z" fill="black"></path>
				<path d="M 421 401 Q 384 257 341 188 Q 272 92 182 36 Q 164 26 160 19 Q 156 12 169 10 Q 211 4 297 65 Q 393 135 440 271 Q 462 331 483 411 L 495 461 Q 501 486 513 515 Q 523 536 503 550 Q 457 586 441 586 Q 419 586 431 559 Q 444 520 431 448 L 421 401 Z" fill="black"></path>
				<path d="M 513 88 Q 513 87 514 85 Q 524 48 553 27 Q 608 -15 810 -5 Q 901 1 936 21 Q 967 37 953 71 Q 934 114 920 192 Q 917 208 910 214 Q 901 218 898 198 Q 883 104 869 86 Q 838 49 704 44 Q 631 45 599 56 Q 563 74 559 117 L 557 166 Q 557 250 581 303 Q 594 334 575 352 Q 523 392 507 389 Q 491 383 498 365 Q 519 325 513 267 Q 509 176 509 127 L 513 88 Z" fill="black"></path>
				<path d="M 509 127 Q 434 75 430 67 Q 424 57 438 56 Q 450 56 513 88 L 559 117 Q 568 124 579 131 Q 639 171 711 239 Q 742 270 766 284 Q 776 291 776 305 Q 775 318 754 346 Q 735 370 716 374 Q 698 377 701 355 Q 705 327 691 308 Q 643 244 582 188 Q 569 178 557 166 L 509 127 Z" fill="red"></path>
				<path d="M 714 534 Q 739 515 766 492 Q 779 482 792 484 Q 802 485 805 496 Q 808 509 799 535 Q 787 563 707 575 Q 694 578 688 575 Q 684 571 686 560 Q 690 550 714 534 Z" fill="lightgray"></path>
</g>
		<text x="40" y="140" font-size="128" fill="#999999">10</text></g>
</g>
	<g id="id2:id2" transform="translate(0.0,2048)">
		<g id="id2:id0:id0" transform="matrix(1.0,0,0,1.0,0,0.0)">			<g stroke="lightgray" stroke-width="4" transform="scale(4, 4)"> <rect x="0" y="0" width="256" height="256" fill="white" stroke-width="4"/></g>
			<g transform="scale(0.92, -0.92) translate(60, -920)">					<path d="M 346 725 Q 361 749 375 769 Q 385 781 370 795 Q 331 828 305 822 Q 295 821 296 806 Q 309 715 212 604 Q 188 579 177 564 Q 170 549 184 554 Q 236 563 312 669 Q 330 702 335 707 L 346 725 Z" fill="black"></path>
				<path d="M 335 707 Q 336 707 339 705 Q 372 689 444 699 Q 522 714 531 718 Q 538 725 535 733 Q 528 743 502 750 Q 474 756 447 744 Q 425 738 403 733 Q 378 729 348 726 Q 345 726 346 725 C 317 718 314 717 335 707 Z" fill="black"></path>
				<path d="M 343 633 Q 391 582 408 581 Q 420 580 424 596 Q 425 606 417 623 Q 408 636 389 642 Q 359 654 346 656 Q 339 657 338 647 Q 337 640 343 633 Z" fill="black"></path>
				<path d="M 627 742 Q 643 778 660 806 Q 667 818 654 829 Q 612 856 591 850 Q 581 846 585 834 Q 601 756 525 644 Q 510 629 492 599 Q 486 584 499 590 Q 514 594 533 612 Q 587 663 617 721 L 627 742 Z" fill="black"></path>
				<path d="M 617 721 L 618 721 Q 660 700 708 715 Q 756 725 806 737 Q 828 743 832 746 Q 839 753 835 761 Q 828 771 801 777 Q 773 781 747 770 Q 722 761 694 754 Q 663 747 627 742 C 597 738 589 732 617 721 Z" fill="black"></path>
				<path d="M 640 652 Q 697 592 715 593 Q 727 592 732 608 Q 733 620 724 637 Q 714 652 692 659 Q 658 674 643 676 Q 634 677 634 667 Q 633 660 640 652 Z" fill="black"></path>
				<path d="M 483 411 Q 559 424 639 436 Q 706 449 717 457 Q 727 466 723 475 Q 716 488 685 498 Q 652 505 620 495 Q 559 477 495 461 L 431 448 Q 349 438 257 431 Q 217 427 244 407 Q 290 379 348 390 Q 384 396 421 401 L 483 411 Z" fill="black"></path>
				<path d="M 421 401 Q 384 257 341 188 Q 272 92 182 36 Q 164 26 160 19 Q 156 12 169 10 Q 211 4 297 65 Q 393 135 440 271 Q 462 331 483 411 L 495 461 Q 501 486 513 515 Q 523 536 503 550 Q 457 586 441 586 Q 419 586 431 559 Q 444 520 431 448 L 421 401 Z" fill="black"></path>
				<path d="M 513 88 Q 513 87 514 85 Q 524 48 553 27 Q 608 -15 810 -5 Q 901 1 936 21 Q 967 37 953 71 Q 934 114 920 192 Q 917 208 910 214 Q 901 218 898 198 Q 883 104 869 86 Q 838 49 704 44 Q 631 45 599 56 Q 563 74 559 117 L 557 166 Q 557 250 581 303 Q 594 334 575 352 Q 523 392 507 389 Q 491 383 498 365 Q 519 325 513 267 Q 509 176 509 127 L 513 88 Z" fill="black"></path>
				<path d="M 509 127 Q 434 75 430 67 Q 424 57 438 56 Q 450 56 513 88 L 559 117 Q 568 124 579 131 Q 639 171 711 239 Q 742 270 766 284 Q 776 291 776 305 Q 775 318 754 346 Q 735 370 716 374 Q 698 377 701 355 Q 705 327 691 308 Q 643 244 582 188 Q 569 178 557 166 L 509 127 Z" fill="black"></path>
				<path d="M 714 534 Q 739 515 766 492 Q 779 482 792 484 Q 802 485 805 496 Q 808 509 799 535 Q 787 563 707 575 Q 694 578 688 575 Q 684 571 686 560 Q 690 550 714 534 Z" fill="red"></path>
</g>
		<text x="40" y="140" font-size="128" fill="#999999">11</text></g>
		<g id="id2:id1:id1" transform="matrix(1.0,0,0,1.0,1024,0.0)">			<g stroke="white" stroke-width="4" transform="scale(4, 4)"> <rect x="1" y="1" width="255" height="255" fill="white" stroke-width="0"/></g>
</g>
		<g id="id2:id2:id2" transform="matrix(1.0,0,0,1.0,2048,0.0)">			<g stroke="white" stroke-width="4" transform="scale(4, 4)"> <rect x="1" y="1" width="255" height="255" fill="white" stroke-width="0"/></g>
</g>
		<g id="id2:id3:id3" transform="matrix(1.0,0,0,1.0,3072,0.0)">			<g stroke="white" stroke-width="4" transform="scale(4, 4)"> <rect x="1" y="1" width="255" height="255" fill="white" stroke-width="0"/></g>
</g>
		<g id="id2:id4:id4" transform="matrix(1.0,0,0,1.0,4096,0.0)">			<g stroke="white" stroke-width="4" transform="scale(4, 4)"> <rect x="1" y="1" width="255" height="255" fill="white" stroke-width="0"/></g>
</g>
</g>
</svg>
