<?xml version="1.0" standalone="no"?>
<!DOCTYPE svg PUBLIC "-//W3C//DTD SVG 1.1//EN"
 "http://www.w3.org/Graphics/SVG/1.1/DTD/svg11.dtd">
<!-- generate by Handict dictionary app com.asnsami.handict -->

<svg xmlns="http://www.w3.org/2000/svg" xmlns:sodipodi="http://sodipodi.sourceforge.net/DTD/sodipodi-0.dtd" version="1.1" width="640" height="512" viewBox="0 0 5120 4096">
	<g id="id0:id0" transform="translate(0.0,0)">
		<g id="id0:id0:id0" transform="matrix(1.0,0,0,1.0,0,0.0)">			<g stroke="lightgray" stroke-width="4" transform="scale(4, 4)"> <rect x="0" y="0" width="256" height="256" fill="white" stroke-width="4"/></g>
			<g transform="scale(0.92, -0.92) translate(60, -920)">					<path d="M 338 747 Q 350 766 362 782 Q 371 794 358 807 Q 322 837 294 834 Q 284 831 286 818 Q 301 737 212 636 Q 191 614 181 599 Q 174 586 187 590 Q 232 594 304 692 Q 316 716 322 721 L 338 747 Z" fill="red"></path>
				<path d="M 322 721 Q 409 712 491 737 Q 498 744 494 751 Q 488 760 465 766 Q 452 769 376 753 Q 355 750 338 747 C 308 742 292 724 322 721 Z" fill="lightgray"></path>
				<path d="M 333 645 Q 357 614 382 598 Q 392 595 400 605 Q 404 614 404 626 Q 400 644 387 653 Q 372 666 344 672 Q 332 676 325 674 Q 321 673 322 664 Q 323 655 333 645 Z" fill="lightgray"></path>
				<path d="M 616 766 Q 632 799 648 826 Q 655 838 642 849 Q 599 876 579 869 Q 569 866 573 853 Q 591 781 524 686 Q 508 664 500 651 Q 494 636 507 642 Q 550 657 602 740 L 616 766 Z" fill="lightgray"></path>
				<path d="M 602 740 Q 629 728 695 738 Q 741 747 793 757 Q 818 763 823 766 Q 830 773 827 781 Q 820 791 794 799 Q 766 803 739 793 Q 709 784 677 776 Q 649 772 616 766 C 586 761 574 750 602 740 Z" fill="lightgray"></path>
				<path d="M 648 666 Q 679 626 708 613 Q 720 610 728 621 Q 732 631 731 645 Q 727 664 712 675 Q 663 708 638 699 Q 637 700 637 699 Q 633 698 634 688 Q 635 678 648 666 Z" fill="lightgray"></path>
				<path d="M 530 571 Q 531 581 526 599 Q 520 617 461 630 Q 448 633 444 630 Q 440 627 441 617 Q 444 610 465 593 Q 478 580 493 564 C 514 542 529 541 530 571 Z" fill="lightgray"></path>
				<path d="M 493 564 Q 489 564 246 526 Q 228 525 242 511 Q 254 499 268 495 Q 286 491 299 496 Q 479 548 729 548 L 731 548 Q 747 548 751 556 Q 755 566 742 576 Q 697 607 644 594 Q 596 585 530 571 L 493 564 Z" fill="lightgray"></path>
				<path d="M 367 461 Q 355 465 331 467 Q 321 468 318 464 Q 314 458 322 446 Q 341 415 359 359 Q 363 343 374 333 Q 390 315 393 329 Q 394 333 395 340 L 392 369 Q 382 418 380 435 C 377 458 377 458 367 461 Z" fill="lightgray"></path>
				<path d="M 590 396 Q 608 426 629 439 Q 645 454 633 470 Q 620 482 576 504 Q 560 513 502 490 Q 421 471 367 461 C 338 455 351 429 380 435 Q 384 436 528 466 Q 544 470 552 463 Q 556 459 555 447 Q 548 422 540 398 C 531 369 574 371 590 396 Z" fill="lightgray"></path>
				<path d="M 395 340 Q 399 339 409 341 Q 470 354 601 366 Q 611 367 612 374 Q 612 381 590 396 C 576 406 569 405 540 398 Q 458 379 392 369 C 362 364 365 340 395 340 Z" fill="lightgray"></path>
				<path d="M 212 263 Q 182 275 165 273 Q 153 269 159 258 Q 201 192 181 61 Q 160 7 199 -30 Q 206 -42 216 -35 Q 243 -11 234 114 Q 230 193 229 222 C 228 252 228 257 212 263 Z" fill="lightgray"></path>
				<path d="M 229 222 Q 239 223 248 226 Q 435 292 740 300 Q 762 299 770 286 Q 777 277 772 263 Q 773 70 761 43 Q 757 33 743 35 Q 712 39 676 44 Q 648 45 669 27 Q 742 -25 773 -63 Q 786 -78 799 -66 Q 815 -48 825 -20 Q 835 10 834 173 Q 833 234 851 264 Q 867 286 860 294 Q 853 307 800 341 Q 781 356 765 349 Q 735 337 681 329 Q 423 304 327 283 Q 261 270 212 263 C 182 258 200 214 229 222 Z" fill="lightgray"></path>
				<path d="M 367 203 Q 357 207 330 212 Q 320 215 316 210 Q 312 204 319 190 Q 340 151 354 86 Q 358 67 369 54 Q 385 35 390 49 Q 391 53 392 59 L 391 89 Q 382 152 380 175 C 378 199 378 199 367 203 Z" fill="lightgray"></path>
				<path d="M 590 112 Q 614 169 635 180 Q 650 198 637 214 Q 564 268 520 241 Q 454 219 367 203 C 338 197 351 168 380 175 Q 387 176 398 180 Q 462 192 524 204 Q 540 208 547 201 Q 554 195 553 182 Q 549 145 541 115 C 534 86 578 84 590 112 Z" fill="lightgray"></path>
				<path d="M 392 59 Q 395 59 400 60 Q 464 73 601 82 Q 610 83 611 90 Q 611 97 590 112 C 577 122 570 121 541 115 Q 459 99 391 89 C 361 85 362 55 392 59 Z" fill="lightgray"></path>
</g>
		<text x="40" y="140" font-size="128" fill="#999999">1</text></g>
		<g id="id0:id1:id1" transform="matrix(1.0,0,0,1.0,1024,0.0)">			<g stroke="lightgray" stroke-width="4" transform="scale(4, 4)"> <rect x="0" y="0" width="256" height="256" fill="white" stroke-width="4"/></g>
			<g transform="scale(0.92, -0.92) translate(60, -920)">					<path d="M 338 747 Q 350 766 362 782 Q 371 794 358 807 Q 322 837 294 834 Q 284 831 286 818 Q 301 737 212 636 Q 191 614 181 599 Q 174 586 187 590 Q 232 594 304 692 Q 316 716 322 721 L 338 747 Z" fill="black"></path>
				<path d="M 322 721 Q 409 712 491 737 Q 498 744 494 751 Q 488 760 465 766 Q 452 769 376 753 Q 355 750 338 747 C 308 742 292 724 322 721 Z" fill="red"></path>
				<path d="M 333 645 Q 357 614 382 598 Q 392 595 400 605 Q 404 614 404 626 Q 400 644 387 653 Q 372 666 344 672 Q 332 676 325 674 Q 321 673 322 664 Q 323 655 333 645 Z" fill="lightgray"></path>
				<path d="M 616 766 Q 632 799 648 826 Q 655 838 642 849 Q 599 876 579 869 Q 569 866 573 853 Q 591 781 524 686 Q 508 664 500 651 Q 494 636 507 642 Q 550 657 602 740 L 616 766 Z" fill="lightgray"></path>
				<path d="M 602 740 Q 629 728 695 738 Q 741 747 793 757 Q 818 763 823 766 Q 830 773 827 781 Q 820 791 794 799 Q 766 803 739 793 Q 709 784 677 776 Q 649 772 616 766 C 586 761 574 750 602 740 Z" fill="lightgray"></path>
				<path d="M 648 666 Q 679 626 708 613 Q 720 610 728 621 Q 732 631 731 645 Q 727 664 712 675 Q 663 708 638 699 Q 637 700 637 699 Q 633 698 634 688 Q 635 678 648 666 Z" fill="lightgray"></path>
				<path d="M 530 571 Q 531 581 526 599 Q 520 617 461 630 Q 448 633 444 630 Q 440 627 441 617 Q 444 610 465 593 Q 478 580 493 564 C 514 542 529 541 530 571 Z" fill="lightgray"></path>
				<path d="M 493 564 Q 489 564 246 526 Q 228 525 242 511 Q 254 499 268 495 Q 286 491 299 496 Q 479 548 729 548 L 731 548 Q 747 548 751 556 Q 755 566 742 576 Q 697 607 644 594 Q 596 585 530 571 L 493 564 Z" fill="lightgray"></path>
				<path d="M 367 461 Q 355 465 331 467 Q 321 468 318 464 Q 314 458 322 446 Q 341 415 359 359 Q 363 343 374 333 Q 390 315 393 329 Q 394 333 395 340 L 392 369 Q 382 418 380 435 C 377 458 377 458 367 461 Z" fill="lightgray"></path>
				<path d="M 590 396 Q 608 426 629 439 Q 645 454 633 470 Q 620 482 576 504 Q 560 513 502 490 Q 421 471 367 461 C 338 455 351 429 380 435 Q 384 436 528 466 Q 544 470 552 463 Q 556 459 555 447 Q 548 422 540 398 C 531 369 574 371 590 396 Z" fill="lightgray"></path>
				<path d="M 395 340 Q 399 339 409 341 Q 470 354 601 366 Q 611 367 612 374 Q 612 381 590 396 C 576 406 569 405 540 398 Q 458 379 392 369 C 362 364 365 340 395 340 Z" fill="lightgray"></path>
				<path d="M 212 263 Q 182 275 165 273 Q 153 269 159 258 Q 201 192 181 61 Q 160 7 199 -30 Q 206 -42 216 -35 Q 243 -11 234 114 Q 230 193 229 222 C 228 252 228 257 212 263 Z" fill="lightgray"></path>
				<path d="M 229 222 Q 239 223 248 226 Q 435 292 740 300 Q 762 299 770 286 Q 777 277 772 263 Q 773 70 761 43 Q 757 33 743 35 Q 712 39 676 44 Q 648 45 669 27 Q 742 -25 773 -63 Q 786 -78 799 -66 Q 815 -48 825 -20 Q 835 10 834 173 Q 833 234 851 264 Q 867 286 860 294 Q 853 307 800 341 Q 781 356 765 349 Q 735 337 681 329 Q 423 304 327 283 Q 261 270 212 263 C 182 258 200 214 229 222 Z" fill="lightgray"></path>
				<path d="M 367 203 Q 357 207 330 212 Q 320 215 316 210 Q 312 204 319 190 Q 340 151 354 86 Q 358 67 369 54 Q 385 35 390 49 Q 391 53 392 59 L 391 89 Q 382 152 380 175 C 378 199 378 199 367 203 Z" fill="lightgray"></path>
				<path d="M 590 112 Q 614 169 635 180 Q 650 198 637 214 Q 564 268 520 241 Q 454 219 367 203 C 338 197 351 168 380 175 Q 387 176 398 180 Q 462 192 524 204 Q 540 208 547 201 Q 554 195 553 182 Q 549 145 541 115 C 534 86 578 84 590 112 Z" fill="lightgray"></path>
				<path d="M 392 59 Q 395 59 400 60 Q 464 73 601 82 Q 610 83 611 90 Q 611 97 590 112 C 577 122 570 121 541 115 Q 459 99 391 89 C 361 85 362 55 392 59 Z" fill="lightgray"></path>
</g>
		<text x="40" y="140" font-size="128" fill="#999999">2</text></g>
		<g id="id0:id2:id2" transform="matrix(1.0,0,0,1.0,2048,0.0)">			<g stroke="lightgray" stroke-width="4" transform="scale(4, 4)"> <rect x="0" y="0" width="256" height="256" fill="white" stroke-width="4"/></g>
			<g transform="scale(0.92, -0.92) translate(60, -920)">					<path d="M 338 747 Q 350 766 362 782 Q 371 794 358 807 Q 322 837 294 834 Q 284 831 286 818 Q 301 737 212 636 Q 191 614 181 599 Q 174 586 187 590 Q 232 594 304 692 Q 316 716 322 721 L 338 747 Z" fill="black"></path>
				<path d="M 322 721 Q 409 712 491 737 Q 498 744 494 751 Q 488 760 465 766 Q 452 769 376 753 Q 355 750 338 747 C 308 742 292 724 322 721 Z" fill="black"></path>
				<path d="M 333 645 Q 357 614 382 598 Q 392 595 400 605 Q 404 614 404 626 Q 400 644 387 653 Q 372 666 344 672 Q 332 676 325 674 Q 321 673 322 664 Q 323 655 333 645 Z" fill="red"></path>
				<path d="M 616 766 Q 632 799 648 826 Q 655 838 642 849 Q 599 876 579 869 Q 569 866 573 853 Q 591 781 524 686 Q 508 664 500 651 Q 494 636 507 642 Q 550 657 602 740 L 616 766 Z" fill="lightgray"></path>
				<path d="M 602 740 Q 629 728 695 738 Q 741 747 793 757 Q 818 763 823 766 Q 830 773 827 781 Q 820 791 794 799 Q 766 803 739 793 Q 709 784 677 776 Q 649 772 616 766 C 586 761 574 750 602 740 Z" fill="lightgray"></path>
				<path d="M 648 666 Q 679 626 708 613 Q 720 610 728 621 Q 732 631 731 645 Q 727 664 712 675 Q 663 708 638 699 Q 637 700 637 699 Q 633 698 634 688 Q 635 678 648 666 Z" fill="lightgray"></path>
				<path d="M 530 571 Q 531 581 526 599 Q 520 617 461 630 Q 448 633 444 630 Q 440 627 441 617 Q 444 610 465 593 Q 478 580 493 564 C 514 542 529 541 530 571 Z" fill="lightgray"></path>
				<path d="M 493 564 Q 489 564 246 526 Q 228 525 242 511 Q 254 499 268 495 Q 286 491 299 496 Q 479 548 729 548 L 731 548 Q 747 548 751 556 Q 755 566 742 576 Q 697 607 644 594 Q 596 585 530 571 L 493 564 Z" fill="lightgray"></path>
				<path d="M 367 461 Q 355 465 331 467 Q 321 468 318 464 Q 314 458 322 446 Q 341 415 359 359 Q 363 343 374 333 Q 390 315 393 329 Q 394 333 395 340 L 392 369 Q 382 418 380 435 C 377 458 377 458 367 461 Z" fill="lightgray"></path>
				<path d="M 590 396 Q 608 426 629 439 Q 645 454 633 470 Q 620 482 576 504 Q 560 513 502 490 Q 421 471 367 461 C 338 455 351 429 380 435 Q 384 436 528 466 Q 544 470 552 463 Q 556 459 555 447 Q 548 422 540 398 C 531 369 574 371 590 396 Z" fill="lightgray"></path>
				<path d="M 395 340 Q 399 339 409 341 Q 470 354 601 366 Q 611 367 612 374 Q 612 381 590 396 C 576 406 569 405 540 398 Q 458 379 392 369 C 362 364 365 340 395 340 Z" fill="lightgray"></path>
				<path d="M 212 263 Q 182 275 165 273 Q 153 269 159 258 Q 201 192 181 61 Q 160 7 199 -30 Q 206 -42 216 -35 Q 243 -11 234 114 Q 230 193 229 222 C 228 252 228 257 212 263 Z" fill="lightgray"></path>
				<path d="M 229 222 Q 239 223 248 226 Q 435 292 740 300 Q 762 299 770 286 Q 777 277 772 263 Q 773 70 761 43 Q 757 33 743 35 Q 712 39 676 44 Q 648 45 669 27 Q 742 -25 773 -63 Q 786 -78 799 -66 Q 815 -48 825 -20 Q 835 10 834 173 Q 833 234 851 264 Q 867 286 860 294 Q 853 307 800 341 Q 781 356 765 349 Q 735 337 681 329 Q 423 304 327 283 Q 261 270 212 263 C 182 258 200 214 229 222 Z" fill="lightgray"></path>
				<path d="M 367 203 Q 357 207 330 212 Q 320 215 316 210 Q 312 204 319 190 Q 340 151 354 86 Q 358 67 369 54 Q 385 35 390 49 Q 391 53 392 59 L 391 89 Q 382 152 380 175 C 378 199 378 199 367 203 Z" fill="lightgray"></path>
				<path d="M 590 112 Q 614 169 635 180 Q 650 198 637 214 Q 564 268 520 241 Q 454 219 367 203 C 338 197 351 168 380 175 Q 387 176 398 180 Q 462 192 524 204 Q 540 208 547 201 Q 554 195 553 182 Q 549 145 541 115 C 534 86 578 84 590 112 Z" fill="lightgray"></path>
				<path d="M 392 59 Q 395 59 400 60 Q 464 73 601 82 Q 610 83 611 90 Q 611 97 590 112 C 577 122 570 121 541 115 Q 459 99 391 89 C 361 85 362 55 392 59 Z" fill="lightgray"></path>
</g>
		<text x="40" y="140" font-size="128" fill="#999999">3</text></g>
		<g id="id0:id3:id3" transform="matrix(1.0,0,0,1.0,3072,0.0)">			<g stroke="lightgray" stroke-width="4" transform="scale(4, 4)"> <rect x="0" y="0" width="256" height="256" fill="white" stroke-width="4"/></g>
			<g transform="scale(0.92, -0.92) translate(60, -920)">					<path d="M 338 747 Q 350 766 362 782 Q 371 794 358 807 Q 322 837 294 834 Q 284 831 286 818 Q 301 737 212 636 Q 191 614 181 599 Q 174 586 187 590 Q 232 594 304 692 Q 316 716 322 721 L 338 747 Z" fill="black"></path>
				<path d="M 322 721 Q 409 712 491 737 Q 498 744 494 751 Q 488 760 465 766 Q 452 769 376 753 Q 355 750 338 747 C 308 742 292 724 322 721 Z" fill="black"></path>
				<path d="M 333 645 Q 357 614 382 598 Q 392 595 400 605 Q 404 614 404 626 Q 400 644 387 653 Q 372 666 344 672 Q 332 676 325 674 Q 321 673 322 664 Q 323 655 333 645 Z" fill="black"></path>
				<path d="M 616 766 Q 632 799 648 826 Q 655 838 642 849 Q 599 876 579 869 Q 569 866 573 853 Q 591 781 524 686 Q 508 664 500 651 Q 494 636 507 642 Q 550 657 602 740 L 616 766 Z" fill="red"></path>
				<path d="M 602 740 Q 629 728 695 738 Q 741 747 793 757 Q 818 763 823 766 Q 830 773 827 781 Q 820 791 794 799 Q 766 803 739 793 Q 709 784 677 776 Q 649 772 616 766 C 586 761 574 750 602 740 Z" fill="lightgray"></path>
				<path d="M 648 666 Q 679 626 708 613 Q 720 610 728 621 Q 732 631 731 645 Q 727 664 712 675 Q 663 708 638 699 Q 637 700 637 699 Q 633 698 634 688 Q 635 678 648 666 Z" fill="lightgray"></path>
				<path d="M 530 571 Q 531 581 526 599 Q 520 617 461 630 Q 448 633 444 630 Q 440 627 441 617 Q 444 610 465 593 Q 478 580 493 564 C 514 542 529 541 530 571 Z" fill="lightgray"></path>
				<path d="M 493 564 Q 489 564 246 526 Q 228 525 242 511 Q 254 499 268 495 Q 286 491 299 496 Q 479 548 729 548 L 731 548 Q 747 548 751 556 Q 755 566 742 576 Q 697 607 644 594 Q 596 585 530 571 L 493 564 Z" fill="lightgray"></path>
				<path d="M 367 461 Q 355 465 331 467 Q 321 468 318 464 Q 314 458 322 446 Q 341 415 359 359 Q 363 343 374 333 Q 390 315 393 329 Q 394 333 395 340 L 392 369 Q 382 418 380 435 C 377 458 377 458 367 461 Z" fill="lightgray"></path>
				<path d="M 590 396 Q 608 426 629 439 Q 645 454 633 470 Q 620 482 576 504 Q 560 513 502 490 Q 421 471 367 461 C 338 455 351 429 380 435 Q 384 436 528 466 Q 544 470 552 463 Q 556 459 555 447 Q 548 422 540 398 C 531 369 574 371 590 396 Z" fill="lightgray"></path>
				<path d="M 395 340 Q 399 339 409 341 Q 470 354 601 366 Q 611 367 612 374 Q 612 381 590 396 C 576 406 569 405 540 398 Q 458 379 392 369 C 362 364 365 340 395 340 Z" fill="lightgray"></path>
				<path d="M 212 263 Q 182 275 165 273 Q 153 269 159 258 Q 201 192 181 61 Q 160 7 199 -30 Q 206 -42 216 -35 Q 243 -11 234 114 Q 230 193 229 222 C 228 252 228 257 212 263 Z" fill="lightgray"></path>
				<path d="M 229 222 Q 239 223 248 226 Q 435 292 740 300 Q 762 299 770 286 Q 777 277 772 263 Q 773 70 761 43 Q 757 33 743 35 Q 712 39 676 44 Q 648 45 669 27 Q 742 -25 773 -63 Q 786 -78 799 -66 Q 815 -48 825 -20 Q 835 10 834 173 Q 833 234 851 264 Q 867 286 860 294 Q 853 307 800 341 Q 781 356 765 349 Q 735 337 681 329 Q 423 304 327 283 Q 261 270 212 263 C 182 258 200 214 229 222 Z" fill="lightgray"></path>
				<path d="M 367 203 Q 357 207 330 212 Q 320 215 316 210 Q 312 204 319 190 Q 340 151 354 86 Q 358 67 369 54 Q 385 35 390 49 Q 391 53 392 59 L 391 89 Q 382 152 380 175 C 378 199 378 199 367 203 Z" fill="lightgray"></path>
				<path d="M 590 112 Q 614 169 635 180 Q 650 198 637 214 Q 564 268 520 241 Q 454 219 367 203 C 338 197 351 168 380 175 Q 387 176 398 180 Q 462 192 524 204 Q 540 208 547 201 Q 554 195 553 182 Q 549 145 541 115 C 534 86 578 84 590 112 Z" fill="lightgray"></path>
				<path d="M 392 59 Q 395 59 400 60 Q 464 73 601 82 Q 610 83 611 90 Q 611 97 590 112 C 577 122 570 121 541 115 Q 459 99 391 89 C 361 85 362 55 392 59 Z" fill="lightgray"></path>
</g>
		<text x="40" y="140" font-size="128" fill="#999999">4</text></g>
		<g id="id0:id4:id4" transform="matrix(1.0,0,0,1.0,4096,0.0)">			<g stroke="lightgray" stroke-width="4" transform="scale(4, 4)"> <rect x="0" y="0" width="256" height="256" fill="white" stroke-width="4"/></g>
			<g transform="scale(0.92, -0.92) translate(60, -920)">					<path d="M 338 747 Q 350 766 362 782 Q 371 794 358 807 Q 322 837 294 834 Q 284 831 286 818 Q 301 737 212 636 Q 191 614 181 599 Q 174 586 187 590 Q 232 594 304 692 Q 316 716 322 721 L 338 747 Z" fill="black"></path>
				<path d="M 322 721 Q 409 712 491 737 Q 498 744 494 751 Q 488 760 465 766 Q 452 769 376 753 Q 355 750 338 747 C 308 742 292 724 322 721 Z" fill="black"></path>
				<path d="M 333 645 Q 357 614 382 598 Q 392 595 400 605 Q 404 614 404 626 Q 400 644 387 653 Q 372 666 344 672 Q 332 676 325 674 Q 321 673 322 664 Q 323 655 333 645 Z" fill="black"></path>
				<path d="M 616 766 Q 632 799 648 826 Q 655 838 642 849 Q 599 876 579 869 Q 569 866 573 853 Q 591 781 524 686 Q 508 664 500 651 Q 494 636 507 642 Q 550 657 602 740 L 616 766 Z" fill="black"></path>
				<path d="M 602 740 Q 629 728 695 738 Q 741 747 793 757 Q 818 763 823 766 Q 830 773 827 781 Q 820 791 794 799 Q 766 803 739 793 Q 709 784 677 776 Q 649 772 616 766 C 586 761 574 750 602 740 Z" fill="red"></path>
				<path d="M 648 666 Q 679 626 708 613 Q 720 610 728 621 Q 732 631 731 645 Q 727 664 712 675 Q 663 708 638 699 Q 637 700 637 699 Q 633 698 634 688 Q 635 678 648 666 Z" fill="lightgray"></path>
				<path d="M 530 571 Q 531 581 526 599 Q 520 617 461 630 Q 448 633 444 630 Q 440 627 441 617 Q 444 610 465 593 Q 478 580 493 564 C 514 542 529 541 530 571 Z" fill="lightgray"></path>
				<path d="M 493 564 Q 489 564 246 526 Q 228 525 242 511 Q 254 499 268 495 Q 286 491 299 496 Q 479 548 729 548 L 731 548 Q 747 548 751 556 Q 755 566 742 576 Q 697 607 644 594 Q 596 585 530 571 L 493 564 Z" fill="lightgray"></path>
				<path d="M 367 461 Q 355 465 331 467 Q 321 468 318 464 Q 314 458 322 446 Q 341 415 359 359 Q 363 343 374 333 Q 390 315 393 329 Q 394 333 395 340 L 392 369 Q 382 418 380 435 C 377 458 377 458 367 461 Z" fill="lightgray"></path>
				<path d="M 590 396 Q 608 426 629 439 Q 645 454 633 470 Q 620 482 576 504 Q 560 513 502 490 Q 421 471 367 461 C 338 455 351 429 380 435 Q 384 436 528 466 Q 544 470 552 463 Q 556 459 555 447 Q 548 422 540 398 C 531 369 574 371 590 396 Z" fill="lightgray"></path>
				<path d="M 395 340 Q 399 339 409 341 Q 470 354 601 366 Q 611 367 612 374 Q 612 381 590 396 C 576 406 569 405 540 398 Q 458 379 392 369 C 362 364 365 340 395 340 Z" fill="lightgray"></path>
				<path d="M 212 263 Q 182 275 165 273 Q 153 269 159 258 Q 201 192 181 61 Q 160 7 199 -30 Q 206 -42 216 -35 Q 243 -11 234 114 Q 230 193 229 222 C 228 252 228 257 212 263 Z" fill="lightgray"></path>
				<path d="M 229 222 Q 239 223 248 226 Q 435 292 740 300 Q 762 299 770 286 Q 777 277 772 263 Q 773 70 761 43 Q 757 33 743 35 Q 712 39 676 44 Q 648 45 669 27 Q 742 -25 773 -63 Q 786 -78 799 -66 Q 815 -48 825 -20 Q 835 10 834 173 Q 833 234 851 264 Q 867 286 860 294 Q 853 307 800 341 Q 781 356 765 349 Q 735 337 681 329 Q 423 304 327 283 Q 261 270 212 263 C 182 258 200 214 229 222 Z" fill="lightgray"></path>
				<path d="M 367 203 Q 357 207 330 212 Q 320 215 316 210 Q 312 204 319 190 Q 340 151 354 86 Q 358 67 369 54 Q 385 35 390 49 Q 391 53 392 59 L 391 89 Q 382 152 380 175 C 378 199 378 199 367 203 Z" fill="lightgray"></path>
				<path d="M 590 112 Q 614 169 635 180 Q 650 198 637 214 Q 564 268 520 241 Q 454 219 367 203 C 338 197 351 168 380 175 Q 387 176 398 180 Q 462 192 524 204 Q 540 208 547 201 Q 554 195 553 182 Q 549 145 541 115 C 534 86 578 84 590 112 Z" fill="lightgray"></path>
				<path d="M 392 59 Q 395 59 400 60 Q 464 73 601 82 Q 610 83 611 90 Q 611 97 590 112 C 577 122 570 121 541 115 Q 459 99 391 89 C 361 85 362 55 392 59 Z" fill="lightgray"></path>
</g>
		<text x="40" y="140" font-size="128" fill="#999999">5</text></g>
</g>
	<g id="id1:id1" transform="translate(0.0,1024)">
		<g id="id1:id0:id0" transform="matrix(1.0,0,0,1.0,0,0.0)">			<g stroke="lightgray" stroke-width="4" transform="scale(4, 4)"> <rect x="0" y="0" width="256" height="256" fill="white" stroke-width="4"/></g>
			<g transform="scale(0.92, -0.92) translate(60, -920)">					<path d="M 338 747 Q 350 766 362 782 Q 371 794 358 807 Q 322 837 294 834 Q 284 831 286 818 Q 301 737 212 636 Q 191 614 181 599 Q 174 586 187 590 Q 232 594 304 692 Q 316 716 322 721 L 338 747 Z" fill="black"></path>
				<path d="M 322 721 Q 409 712 491 737 Q 498 744 494 751 Q 488 760 465 766 Q 452 769 376 753 Q 355 750 338 747 C 308 742 292 724 322 721 Z" fill="black"></path>
				<path d="M 333 645 Q 357 614 382 598 Q 392 595 400 605 Q 404 614 404 626 Q 400 644 387 653 Q 372 666 344 672 Q 332 676 325 674 Q 321 673 322 664 Q 323 655 333 645 Z" fill="black"></path>
				<path d="M 616 766 Q 632 799 648 826 Q 655 838 642 849 Q 599 876 579 869 Q 569 866 573 853 Q 591 781 524 686 Q 508 664 500 651 Q 494 636 507 642 Q 550 657 602 740 L 616 766 Z" fill="black"></path>
				<path d="M 602 740 Q 629 728 695 738 Q 741 747 793 757 Q 818 763 823 766 Q 830 773 827 781 Q 820 791 794 799 Q 766 803 739 793 Q 709 784 677 776 Q 649 772 616 766 C 586 761 574 750 602 740 Z" fill="black"></path>
				<path d="M 648 666 Q 679 626 708 613 Q 720 610 728 621 Q 732 631 731 645 Q 727 664 712 675 Q 663 708 638 699 Q 637 700 637 699 Q 633 698 634 688 Q 635 678 648 666 Z" fill="red"></path>
				<path d="M 530 571 Q 531 581 526 599 Q 520 617 461 630 Q 448 633 444 630 Q 440 627 441 617 Q 444 610 465 593 Q 478 580 493 564 C 514 542 529 541 530 571 Z" fill="lightgray"></path>
				<path d="M 493 564 Q 489 564 246 526 Q 228 525 242 511 Q 254 499 268 495 Q 286 491 299 496 Q 479 548 729 548 L 731 548 Q 747 548 751 556 Q 755 566 742 576 Q 697 607 644 594 Q 596 585 530 571 L 493 564 Z" fill="lightgray"></path>
				<path d="M 367 461 Q 355 465 331 467 Q 321 468 318 464 Q 314 458 322 446 Q 341 415 359 359 Q 363 343 374 333 Q 390 315 393 329 Q 394 333 395 340 L 392 369 Q 382 418 380 435 C 377 458 377 458 367 461 Z" fill="lightgray"></path>
				<path d="M 590 396 Q 608 426 629 439 Q 645 454 633 470 Q 620 482 576 504 Q 560 513 502 490 Q 421 471 367 461 C 338 455 351 429 380 435 Q 384 436 528 466 Q 544 470 552 463 Q 556 459 555 447 Q 548 422 540 398 C 531 369 574 371 590 396 Z" fill="lightgray"></path>
				<path d="M 395 340 Q 399 339 409 341 Q 470 354 601 366 Q 611 367 612 374 Q 612 381 590 396 C 576 406 569 405 540 398 Q 458 379 392 369 C 362 364 365 340 395 340 Z" fill="lightgray"></path>
				<path d="M 212 263 Q 182 275 165 273 Q 153 269 159 258 Q 201 192 181 61 Q 160 7 199 -30 Q 206 -42 216 -35 Q 243 -11 234 114 Q 230 193 229 222 C 228 252 228 257 212 263 Z" fill="lightgray"></path>
				<path d="M 229 222 Q 239 223 248 226 Q 435 292 740 300 Q 762 299 770 286 Q 777 277 772 263 Q 773 70 761 43 Q 757 33 743 35 Q 712 39 676 44 Q 648 45 669 27 Q 742 -25 773 -63 Q 786 -78 799 -66 Q 815 -48 825 -20 Q 835 10 834 173 Q 833 234 851 264 Q 867 286 860 294 Q 853 307 800 341 Q 781 356 765 349 Q 735 337 681 329 Q 423 304 327 283 Q 261 270 212 263 C 182 258 200 214 229 222 Z" fill="lightgray"></path>
				<path d="M 367 203 Q 357 207 330 212 Q 320 215 316 210 Q 312 204 319 190 Q 340 151 354 86 Q 358 67 369 54 Q 385 35 390 49 Q 391 53 392 59 L 391 89 Q 382 152 380 175 C 378 199 378 199 367 203 Z" fill="lightgray"></path>
				<path d="M 590 112 Q 614 169 635 180 Q 650 198 637 214 Q 564 268 520 241 Q 454 219 367 203 C 338 197 351 168 380 175 Q 387 176 398 180 Q 462 192 524 204 Q 540 208 547 201 Q 554 195 553 182 Q 549 145 541 115 C 534 86 578 84 590 112 Z" fill="lightgray"></path>
				<path d="M 392 59 Q 395 59 400 60 Q 464 73 601 82 Q 610 83 611 90 Q 611 97 590 112 C 577 122 570 121 541 115 Q 459 99 391 89 C 361 85 362 55 392 59 Z" fill="lightgray"></path>
</g>
		<text x="40" y="140" font-size="128" fill="#999999">6</text></g>
		<g id="id1:id1:id1" transform="matrix(1.0,0,0,1.0,1024,0.0)">			<g stroke="lightgray" stroke-width="4" transform="scale(4, 4)"> <rect x="0" y="0" width="256" height="256" fill="white" stroke-width="4"/></g>
			<g transform="scale(0.92, -0.92) translate(60, -920)">					<path d="M 338 747 Q 350 766 362 782 Q 371 794 358 807 Q 322 837 294 834 Q 284 831 286 818 Q 301 737 212 636 Q 191 614 181 599 Q 174 586 187 590 Q 232 594 304 692 Q 316 716 322 721 L 338 747 Z" fill="black"></path>
				<path d="M 322 721 Q 409 712 491 737 Q 498 744 494 751 Q 488 760 465 766 Q 452 769 376 753 Q 355 750 338 747 C 308 742 292 724 322 721 Z" fill="black"></path>
				<path d="M 333 645 Q 357 614 382 598 Q 392 595 400 605 Q 404 614 404 626 Q 400 644 387 653 Q 372 666 344 672 Q 332 676 325 674 Q 321 673 322 664 Q 323 655 333 645 Z" fill="black"></path>
				<path d="M 616 766 Q 632 799 648 826 Q 655 838 642 849 Q 599 876 579 869 Q 569 866 573 853 Q 591 781 524 686 Q 508 664 500 651 Q 494 636 507 642 Q 550 657 602 740 L 616 766 Z" fill="black"></path>
				<path d="M 602 740 Q 629 728 695 738 Q 741 747 793 757 Q 818 763 823 766 Q 830 773 827 781 Q 820 791 794 799 Q 766 803 739 793 Q 709 784 677 776 Q 649 772 616 766 C 586 761 574 750 602 740 Z" fill="black"></path>
				<path d="M 648 666 Q 679 626 708 613 Q 720 610 728 621 Q 732 631 731 645 Q 727 664 712 675 Q 663 708 638 699 Q 637 700 637 699 Q 633 698 634 688 Q 635 678 648 666 Z" fill="black"></path>
				<path d="M 530 571 Q 531 581 526 599 Q 520 617 461 630 Q 448 633 444 630 Q 440 627 441 617 Q 444 610 465 593 Q 478 580 493 564 C 514 542 529 541 530 571 Z" fill="red"></path>
				<path d="M 493 564 Q 489 564 246 526 Q 228 525 242 511 Q 254 499 268 495 Q 286 491 299 496 Q 479 548 729 548 L 731 548 Q 747 548 751 556 Q 755 566 742 576 Q 697 607 644 594 Q 596 585 530 571 L 493 564 Z" fill="lightgray"></path>
				<path d="M 367 461 Q 355 465 331 467 Q 321 468 318 464 Q 314 458 322 446 Q 341 415 359 359 Q 363 343 374 333 Q 390 315 393 329 Q 394 333 395 340 L 392 369 Q 382 418 380 435 C 377 458 377 458 367 461 Z" fill="lightgray"></path>
				<path d="M 590 396 Q 608 426 629 439 Q 645 454 633 470 Q 620 482 576 504 Q 560 513 502 490 Q 421 471 367 461 C 338 455 351 429 380 435 Q 384 436 528 466 Q 544 470 552 463 Q 556 459 555 447 Q 548 422 540 398 C 531 369 574 371 590 396 Z" fill="lightgray"></path>
				<path d="M 395 340 Q 399 339 409 341 Q 470 354 601 366 Q 611 367 612 374 Q 612 381 590 396 C 576 406 569 405 540 398 Q 458 379 392 369 C 362 364 365 340 395 340 Z" fill="lightgray"></path>
				<path d="M 212 263 Q 182 275 165 273 Q 153 269 159 258 Q 201 192 181 61 Q 160 7 199 -30 Q 206 -42 216 -35 Q 243 -11 234 114 Q 230 193 229 222 C 228 252 228 257 212 263 Z" fill="lightgray"></path>
				<path d="M 229 222 Q 239 223 248 226 Q 435 292 740 300 Q 762 299 770 286 Q 777 277 772 263 Q 773 70 761 43 Q 757 33 743 35 Q 712 39 676 44 Q 648 45 669 27 Q 742 -25 773 -63 Q 786 -78 799 -66 Q 815 -48 825 -20 Q 835 10 834 173 Q 833 234 851 264 Q 867 286 860 294 Q 853 307 800 341 Q 781 356 765 349 Q 735 337 681 329 Q 423 304 327 283 Q 261 270 212 263 C 182 258 200 214 229 222 Z" fill="lightgray"></path>
				<path d="M 367 203 Q 357 207 330 212 Q 320 215 316 210 Q 312 204 319 190 Q 340 151 354 86 Q 358 67 369 54 Q 385 35 390 49 Q 391 53 392 59 L 391 89 Q 382 152 380 175 C 378 199 378 199 367 203 Z" fill="lightgray"></path>
				<path d="M 590 112 Q 614 169 635 180 Q 650 198 637 214 Q 564 268 520 241 Q 454 219 367 203 C 338 197 351 168 380 175 Q 387 176 398 180 Q 462 192 524 204 Q 540 208 547 201 Q 554 195 553 182 Q 549 145 541 115 C 534 86 578 84 590 112 Z" fill="lightgray"></path>
				<path d="M 392 59 Q 395 59 400 60 Q 464 73 601 82 Q 610 83 611 90 Q 611 97 590 112 C 577 122 570 121 541 115 Q 459 99 391 89 C 361 85 362 55 392 59 Z" fill="lightgray"></path>
</g>
		<text x="40" y="140" font-size="128" fill="#999999">7</text></g>
		<g id="id1:id2:id2" transform="matrix(1.0,0,0,1.0,2048,0.0)">			<g stroke="lightgray" stroke-width="4" transform="scale(4, 4)"> <rect x="0" y="0" width="256" height="256" fill="white" stroke-width="4"/></g>
			<g transform="scale(0.92, -0.92) translate(60, -920)">					<path d="M 338 747 Q 350 766 362 782 Q 371 794 358 807 Q 322 837 294 834 Q 284 831 286 818 Q 301 737 212 636 Q 191 614 181 599 Q 174 586 187 590 Q 232 594 304 692 Q 316 716 322 721 L 338 747 Z" fill="black"></path>
				<path d="M 322 721 Q 409 712 491 737 Q 498 744 494 751 Q 488 760 465 766 Q 452 769 376 753 Q 355 750 338 747 C 308 742 292 724 322 721 Z" fill="black"></path>
				<path d="M 333 645 Q 357 614 382 598 Q 392 595 400 605 Q 404 614 404 626 Q 400 644 387 653 Q 372 666 344 672 Q 332 676 325 674 Q 321 673 322 664 Q 323 655 333 645 Z" fill="black"></path>
				<path d="M 616 766 Q 632 799 648 826 Q 655 838 642 849 Q 599 876 579 869 Q 569 866 573 853 Q 591 781 524 686 Q 508 664 500 651 Q 494 636 507 642 Q 550 657 602 740 L 616 766 Z" fill="black"></path>
				<path d="M 602 740 Q 629 728 695 738 Q 741 747 793 757 Q 818 763 823 766 Q 830 773 827 781 Q 820 791 794 799 Q 766 803 739 793 Q 709 784 677 776 Q 649 772 616 766 C 586 761 574 750 602 740 Z" fill="black"></path>
				<path d="M 648 666 Q 679 626 708 613 Q 720 610 728 621 Q 732 631 731 645 Q 727 664 712 675 Q 663 708 638 699 Q 637 700 637 699 Q 633 698 634 688 Q 635 678 648 666 Z" fill="black"></path>
				<path d="M 530 571 Q 531 581 526 599 Q 520 617 461 630 Q 448 633 444 630 Q 440 627 441 617 Q 444 610 465 593 Q 478 580 493 564 C 514 542 529 541 530 571 Z" fill="black"></path>
				<path d="M 493 564 Q 489 564 246 526 Q 228 525 242 511 Q 254 499 268 495 Q 286 491 299 496 Q 479 548 729 548 L 731 548 Q 747 548 751 556 Q 755 566 742 576 Q 697 607 644 594 Q 596 585 530 571 L 493 564 Z" fill="red"></path>
				<path d="M 367 461 Q 355 465 331 467 Q 321 468 318 464 Q 314 458 322 446 Q 341 415 359 359 Q 363 343 374 333 Q 390 315 393 329 Q 394 333 395 340 L 392 369 Q 382 418 380 435 C 377 458 377 458 367 461 Z" fill="lightgray"></path>
				<path d="M 590 396 Q 608 426 629 439 Q 645 454 633 470 Q 620 482 576 504 Q 560 513 502 490 Q 421 471 367 461 C 338 455 351 429 380 435 Q 384 436 528 466 Q 544 470 552 463 Q 556 459 555 447 Q 548 422 540 398 C 531 369 574 371 590 396 Z" fill="lightgray"></path>
				<path d="M 395 340 Q 399 339 409 341 Q 470 354 601 366 Q 611 367 612 374 Q 612 381 590 396 C 576 406 569 405 540 398 Q 458 379 392 369 C 362 364 365 340 395 340 Z" fill="lightgray"></path>
				<path d="M 212 263 Q 182 275 165 273 Q 153 269 159 258 Q 201 192 181 61 Q 160 7 199 -30 Q 206 -42 216 -35 Q 243 -11 234 114 Q 230 193 229 222 C 228 252 228 257 212 263 Z" fill="lightgray"></path>
				<path d="M 229 222 Q 239 223 248 226 Q 435 292 740 300 Q 762 299 770 286 Q 777 277 772 263 Q 773 70 761 43 Q 757 33 743 35 Q 712 39 676 44 Q 648 45 669 27 Q 742 -25 773 -63 Q 786 -78 799 -66 Q 815 -48 825 -20 Q 835 10 834 173 Q 833 234 851 264 Q 867 286 860 294 Q 853 307 800 341 Q 781 356 765 349 Q 735 337 681 329 Q 423 304 327 283 Q 261 270 212 263 C 182 258 200 214 229 222 Z" fill="lightgray"></path>
				<path d="M 367 203 Q 357 207 330 212 Q 320 215 316 210 Q 312 204 319 190 Q 340 151 354 86 Q 358 67 369 54 Q 385 35 390 49 Q 391 53 392 59 L 391 89 Q 382 152 380 175 C 378 199 378 199 367 203 Z" fill="lightgray"></path>
				<path d="M 590 112 Q 614 169 635 180 Q 650 198 637 214 Q 564 268 520 241 Q 454 219 367 203 C 338 197 351 168 380 175 Q 387 176 398 180 Q 462 192 524 204 Q 540 208 547 201 Q 554 195 553 182 Q 549 145 541 115 C 534 86 578 84 590 112 Z" fill="lightgray"></path>
				<path d="M 392 59 Q 395 59 400 60 Q 464 73 601 82 Q 610 83 611 90 Q 611 97 590 112 C 577 122 570 121 541 115 Q 459 99 391 89 C 361 85 362 55 392 59 Z" fill="lightgray"></path>
</g>
		<text x="40" y="140" font-size="128" fill="#999999">8</text></g>
		<g id="id1:id3:id3" transform="matrix(1.0,0,0,1.0,3072,0.0)">			<g stroke="lightgray" stroke-width="4" transform="scale(4, 4)"> <rect x="0" y="0" width="256" height="256" fill="white" stroke-width="4"/></g>
			<g transform="scale(0.92, -0.92) translate(60, -920)">					<path d="M 338 747 Q 350 766 362 782 Q 371 794 358 807 Q 322 837 294 834 Q 284 831 286 818 Q 301 737 212 636 Q 191 614 181 599 Q 174 586 187 590 Q 232 594 304 692 Q 316 716 322 721 L 338 747 Z" fill="black"></path>
				<path d="M 322 721 Q 409 712 491 737 Q 498 744 494 751 Q 488 760 465 766 Q 452 769 376 753 Q 355 750 338 747 C 308 742 292 724 322 721 Z" fill="black"></path>
				<path d="M 333 645 Q 357 614 382 598 Q 392 595 400 605 Q 404 614 404 626 Q 400 644 387 653 Q 372 666 344 672 Q 332 676 325 674 Q 321 673 322 664 Q 323 655 333 645 Z" fill="black"></path>
				<path d="M 616 766 Q 632 799 648 826 Q 655 838 642 849 Q 599 876 579 869 Q 569 866 573 853 Q 591 781 524 686 Q 508 664 500 651 Q 494 636 507 642 Q 550 657 602 740 L 616 766 Z" fill="black"></path>
				<path d="M 602 740 Q 629 728 695 738 Q 741 747 793 757 Q 818 763 823 766 Q 830 773 827 781 Q 820 791 794 799 Q 766 803 739 793 Q 709 784 677 776 Q 649 772 616 766 C 586 761 574 750 602 740 Z" fill="black"></path>
				<path d="M 648 666 Q 679 626 708 613 Q 720 610 728 621 Q 732 631 731 645 Q 727 664 712 675 Q 663 708 638 699 Q 637 700 637 699 Q 633 698 634 688 Q 635 678 648 666 Z" fill="black"></path>
				<path d="M 530 571 Q 531 581 526 599 Q 520 617 461 630 Q 448 633 444 630 Q 440 627 441 617 Q 444 610 465 593 Q 478 580 493 564 C 514 542 529 541 530 571 Z" fill="black"></path>
				<path d="M 493 564 Q 489 564 246 526 Q 228 525 242 511 Q 254 499 268 495 Q 286 491 299 496 Q 479 548 729 548 L 731 548 Q 747 548 751 556 Q 755 566 742 576 Q 697 607 644 594 Q 596 585 530 571 L 493 564 Z" fill="black"></path>
				<path d="M 367 461 Q 355 465 331 467 Q 321 468 318 464 Q 314 458 322 446 Q 341 415 359 359 Q 363 343 374 333 Q 390 315 393 329 Q 394 333 395 340 L 392 369 Q 382 418 380 435 C 377 458 377 458 367 461 Z" fill="red"></path>
				<path d="M 590 396 Q 608 426 629 439 Q 645 454 633 470 Q 620 482 576 504 Q 560 513 502 490 Q 421 471 367 461 C 338 455 351 429 380 435 Q 384 436 528 466 Q 544 470 552 463 Q 556 459 555 447 Q 548 422 540 398 C 531 369 574 371 590 396 Z" fill="lightgray"></path>
				<path d="M 395 340 Q 399 339 409 341 Q 470 354 601 366 Q 611 367 612 374 Q 612 381 590 396 C 576 406 569 405 540 398 Q 458 379 392 369 C 362 364 365 340 395 340 Z" fill="lightgray"></path>
				<path d="M 212 263 Q 182 275 165 273 Q 153 269 159 258 Q 201 192 181 61 Q 160 7 199 -30 Q 206 -42 216 -35 Q 243 -11 234 114 Q 230 193 229 222 C 228 252 228 257 212 263 Z" fill="lightgray"></path>
				<path d="M 229 222 Q 239 223 248 226 Q 435 292 740 300 Q 762 299 770 286 Q 777 277 772 263 Q 773 70 761 43 Q 757 33 743 35 Q 712 39 676 44 Q 648 45 669 27 Q 742 -25 773 -63 Q 786 -78 799 -66 Q 815 -48 825 -20 Q 835 10 834 173 Q 833 234 851 264 Q 867 286 860 294 Q 853 307 800 341 Q 781 356 765 349 Q 735 337 681 329 Q 423 304 327 283 Q 261 270 212 263 C 182 258 200 214 229 222 Z" fill="lightgray"></path>
				<path d="M 367 203 Q 357 207 330 212 Q 320 215 316 210 Q 312 204 319 190 Q 340 151 354 86 Q 358 67 369 54 Q 385 35 390 49 Q 391 53 392 59 L 391 89 Q 382 152 380 175 C 378 199 378 199 367 203 Z" fill="lightgray"></path>
				<path d="M 590 112 Q 614 169 635 180 Q 650 198 637 214 Q 564 268 520 241 Q 454 219 367 203 C 338 197 351 168 380 175 Q 387 176 398 180 Q 462 192 524 204 Q 540 208 547 201 Q 554 195 553 182 Q 549 145 541 115 C 534 86 578 84 590 112 Z" fill="lightgray"></path>
				<path d="M 392 59 Q 395 59 400 60 Q 464 73 601 82 Q 610 83 611 90 Q 611 97 590 112 C 577 122 570 121 541 115 Q 459 99 391 89 C 361 85 362 55 392 59 Z" fill="lightgray"></path>
</g>
		<text x="40" y="140" font-size="128" fill="#999999">9</text></g>
		<g id="id1:id4:id4" transform="matrix(1.0,0,0,1.0,4096,0.0)">			<g stroke="lightgray" stroke-width="4" transform="scale(4, 4)"> <rect x="0" y="0" width="256" height="256" fill="white" stroke-width="4"/></g>
			<g transform="scale(0.92, -0.92) translate(60, -920)">					<path d="M 338 747 Q 350 766 362 782 Q 371 794 358 807 Q 322 837 294 834 Q 284 831 286 818 Q 301 737 212 636 Q 191 614 181 599 Q 174 586 187 590 Q 232 594 304 692 Q 316 716 322 721 L 338 747 Z" fill="black"></path>
				<path d="M 322 721 Q 409 712 491 737 Q 498 744 494 751 Q 488 760 465 766 Q 452 769 376 753 Q 355 750 338 747 C 308 742 292 724 322 721 Z" fill="black"></path>
				<path d="M 333 645 Q 357 614 382 598 Q 392 595 400 605 Q 404 614 404 626 Q 400 644 387 653 Q 372 666 344 672 Q 332 676 325 674 Q 321 673 322 664 Q 323 655 333 645 Z" fill="black"></path>
				<path d="M 616 766 Q 632 799 648 826 Q 655 838 642 849 Q 599 876 579 869 Q 569 866 573 853 Q 591 781 524 686 Q 508 664 500 651 Q 494 636 507 642 Q 550 657 602 740 L 616 766 Z" fill="black"></path>
				<path d="M 602 740 Q 629 728 695 738 Q 741 747 793 757 Q 818 763 823 766 Q 830 773 827 781 Q 820 791 794 799 Q 766 803 739 793 Q 709 784 677 776 Q 649 772 616 766 C 586 761 574 750 602 740 Z" fill="black"></path>
				<path d="M 648 666 Q 679 626 708 613 Q 720 610 728 621 Q 732 631 731 645 Q 727 664 712 675 Q 663 708 638 699 Q 637 700 637 699 Q 633 698 634 688 Q 635 678 648 666 Z" fill="black"></path>
				<path d="M 530 571 Q 531 581 526 599 Q 520 617 461 630 Q 448 633 444 630 Q 440 627 441 617 Q 444 610 465 593 Q 478 580 493 564 C 514 542 529 541 530 571 Z" fill="black"></path>
				<path d="M 493 564 Q 489 564 246 526 Q 228 525 242 511 Q 254 499 268 495 Q 286 491 299 496 Q 479 548 729 548 L 731 548 Q 747 548 751 556 Q 755 566 742 576 Q 697 607 644 594 Q 596 585 530 571 L 493 564 Z" fill="black"></path>
				<path d="M 367 461 Q 355 465 331 467 Q 321 468 318 464 Q 314 458 322 446 Q 341 415 359 359 Q 363 343 374 333 Q 390 315 393 329 Q 394 333 395 340 L 392 369 Q 382 418 380 435 C 377 458 377 458 367 461 Z" fill="black"></path>
				<path d="M 590 396 Q 608 426 629 439 Q 645 454 633 470 Q 620 482 576 504 Q 560 513 502 490 Q 421 471 367 461 C 338 455 351 429 380 435 Q 384 436 528 466 Q 544 470 552 463 Q 556 459 555 447 Q 548 422 540 398 C 531 369 574 371 590 396 Z" fill="red"></path>
				<path d="M 395 340 Q 399 339 409 341 Q 470 354 601 366 Q 611 367 612 374 Q 612 381 590 396 C 576 406 569 405 540 398 Q 458 379 392 369 C 362 364 365 340 395 340 Z" fill="lightgray"></path>
				<path d="M 212 263 Q 182 275 165 273 Q 153 269 159 258 Q 201 192 181 61 Q 160 7 199 -30 Q 206 -42 216 -35 Q 243 -11 234 114 Q 230 193 229 222 C 228 252 228 257 212 263 Z" fill="lightgray"></path>
				<path d="M 229 222 Q 239 223 248 226 Q 435 292 740 300 Q 762 299 770 286 Q 777 277 772 263 Q 773 70 761 43 Q 757 33 743 35 Q 712 39 676 44 Q 648 45 669 27 Q 742 -25 773 -63 Q 786 -78 799 -66 Q 815 -48 825 -20 Q 835 10 834 173 Q 833 234 851 264 Q 867 286 860 294 Q 853 307 800 341 Q 781 356 765 349 Q 735 337 681 329 Q 423 304 327 283 Q 261 270 212 263 C 182 258 200 214 229 222 Z" fill="lightgray"></path>
				<path d="M 367 203 Q 357 207 330 212 Q 320 215 316 210 Q 312 204 319 190 Q 340 151 354 86 Q 358 67 369 54 Q 385 35 390 49 Q 391 53 392 59 L 391 89 Q 382 152 380 175 C 378 199 378 199 367 203 Z" fill="lightgray"></path>
				<path d="M 590 112 Q 614 169 635 180 Q 650 198 637 214 Q 564 268 520 241 Q 454 219 367 203 C 338 197 351 168 380 175 Q 387 176 398 180 Q 462 192 524 204 Q 540 208 547 201 Q 554 195 553 182 Q 549 145 541 115 C 534 86 578 84 590 112 Z" fill="lightgray"></path>
				<path d="M 392 59 Q 395 59 400 60 Q 464 73 601 82 Q 610 83 611 90 Q 611 97 590 112 C 577 122 570 121 541 115 Q 459 99 391 89 C 361 85 362 55 392 59 Z" fill="lightgray"></path>
</g>
		<text x="40" y="140" font-size="128" fill="#999999">10</text></g>
</g>
	<g id="id2:id2" transform="translate(0.0,2048)">
		<g id="id2:id0:id0" transform="matrix(1.0,0,0,1.0,0,0.0)">			<g stroke="lightgray" stroke-width="4" transform="scale(4, 4)"> <rect x="0" y="0" width="256" height="256" fill="white" stroke-width="4"/></g>
			<g transform="scale(0.92, -0.92) translate(60, -920)">					<path d="M 338 747 Q 350 766 362 782 Q 371 794 358 807 Q 322 837 294 834 Q 284 831 286 818 Q 301 737 212 636 Q 191 614 181 599 Q 174 586 187 590 Q 232 594 304 692 Q 316 716 322 721 L 338 747 Z" fill="black"></path>
				<path d="M 322 721 Q 409 712 491 737 Q 498 744 494 751 Q 488 760 465 766 Q 452 769 376 753 Q 355 750 338 747 C 308 742 292 724 322 721 Z" fill="black"></path>
				<path d="M 333 645 Q 357 614 382 598 Q 392 595 400 605 Q 404 614 404 626 Q 400 644 387 653 Q 372 666 344 672 Q 332 676 325 674 Q 321 673 322 664 Q 323 655 333 645 Z" fill="black"></path>
				<path d="M 616 766 Q 632 799 648 826 Q 655 838 642 849 Q 599 876 579 869 Q 569 866 573 853 Q 591 781 524 686 Q 508 664 500 651 Q 494 636 507 642 Q 550 657 602 740 L 616 766 Z" fill="black"></path>
				<path d="M 602 740 Q 629 728 695 738 Q 741 747 793 757 Q 818 763 823 766 Q 830 773 827 781 Q 820 791 794 799 Q 766 803 739 793 Q 709 784 677 776 Q 649 772 616 766 C 586 761 574 750 602 740 Z" fill="black"></path>
				<path d="M 648 666 Q 679 626 708 613 Q 720 610 728 621 Q 732 631 731 645 Q 727 664 712 675 Q 663 708 638 699 Q 637 700 637 699 Q 633 698 634 688 Q 635 678 648 666 Z" fill="black"></path>
				<path d="M 530 571 Q 531 581 526 599 Q 520 617 461 630 Q 448 633 444 630 Q 440 627 441 617 Q 444 610 465 593 Q 478 580 493 564 C 514 542 529 541 530 571 Z" fill="black"></path>
				<path d="M 493 564 Q 489 564 246 526 Q 228 525 242 511 Q 254 499 268 495 Q 286 491 299 496 Q 479 548 729 548 L 731 548 Q 747 548 751 556 Q 755 566 742 576 Q 697 607 644 594 Q 596 585 530 571 L 493 564 Z" fill="black"></path>
				<path d="M 367 461 Q 355 465 331 467 Q 321 468 318 464 Q 314 458 322 446 Q 341 415 359 359 Q 363 343 374 333 Q 390 315 393 329 Q 394 333 395 340 L 392 369 Q 382 418 380 435 C 377 458 377 458 367 461 Z" fill="black"></path>
				<path d="M 590 396 Q 608 426 629 439 Q 645 454 633 470 Q 620 482 576 504 Q 560 513 502 490 Q 421 471 367 461 C 338 455 351 429 380 435 Q 384 436 528 466 Q 544 470 552 463 Q 556 459 555 447 Q 548 422 540 398 C 531 369 574 371 590 396 Z" fill="black"></path>
				<path d="M 395 340 Q 399 339 409 341 Q 470 354 601 366 Q 611 367 612 374 Q 612 381 590 396 C 576 406 569 405 540 398 Q 458 379 392 369 C 362 364 365 340 395 340 Z" fill="red"></path>
				<path d="M 212 263 Q 182 275 165 273 Q 153 269 159 258 Q 201 192 181 61 Q 160 7 199 -30 Q 206 -42 216 -35 Q 243 -11 234 114 Q 230 193 229 222 C 228 252 228 257 212 263 Z" fill="lightgray"></path>
				<path d="M 229 222 Q 239 223 248 226 Q 435 292 740 300 Q 762 299 770 286 Q 777 277 772 263 Q 773 70 761 43 Q 757 33 743 35 Q 712 39 676 44 Q 648 45 669 27 Q 742 -25 773 -63 Q 786 -78 799 -66 Q 815 -48 825 -20 Q 835 10 834 173 Q 833 234 851 264 Q 867 286 860 294 Q 853 307 800 341 Q 781 356 765 349 Q 735 337 681 329 Q 423 304 327 283 Q 261 270 212 263 C 182 258 200 214 229 222 Z" fill="lightgray"></path>
				<path d="M 367 203 Q 357 207 330 212 Q 320 215 316 210 Q 312 204 319 190 Q 340 151 354 86 Q 358 67 369 54 Q 385 35 390 49 Q 391 53 392 59 L 391 89 Q 382 152 380 175 C 378 199 378 199 367 203 Z" fill="lightgray"></path>
				<path d="M 590 112 Q 614 169 635 180 Q 650 198 637 214 Q 564 268 520 241 Q 454 219 367 203 C 338 197 351 168 380 175 Q 387 176 398 180 Q 462 192 524 204 Q 540 208 547 201 Q 554 195 553 182 Q 549 145 541 115 C 534 86 578 84 590 112 Z" fill="lightgray"></path>
				<path d="M 392 59 Q 395 59 400 60 Q 464 73 601 82 Q 610 83 611 90 Q 611 97 590 112 C 577 122 570 121 541 115 Q 459 99 391 89 C 361 85 362 55 392 59 Z" fill="lightgray"></path>
</g>
		<text x="40" y="140" font-size="128" fill="#999999">11</text></g>
		<g id="id2:id1:id1" transform="matrix(1.0,0,0,1.0,1024,0.0)">			<g stroke="lightgray" stroke-width="4" transform="scale(4, 4)"> <rect x="0" y="0" width="256" height="256" fill="white" stroke-width="4"/></g>
			<g transform="scale(0.92, -0.92) translate(60, -920)">					<path d="M 338 747 Q 350 766 362 782 Q 371 794 358 807 Q 322 837 294 834 Q 284 831 286 818 Q 301 737 212 636 Q 191 614 181 599 Q 174 586 187 590 Q 232 594 304 692 Q 316 716 322 721 L 338 747 Z" fill="black"></path>
				<path d="M 322 721 Q 409 712 491 737 Q 498 744 494 751 Q 488 760 465 766 Q 452 769 376 753 Q 355 750 338 747 C 308 742 292 724 322 721 Z" fill="black"></path>
				<path d="M 333 645 Q 357 614 382 598 Q 392 595 400 605 Q 404 614 404 626 Q 400 644 387 653 Q 372 666 344 672 Q 332 676 325 674 Q 321 673 322 664 Q 323 655 333 645 Z" fill="black"></path>
				<path d="M 616 766 Q 632 799 648 826 Q 655 838 642 849 Q 599 876 579 869 Q 569 866 573 853 Q 591 781 524 686 Q 508 664 500 651 Q 494 636 507 642 Q 550 657 602 740 L 616 766 Z" fill="black"></path>
				<path d="M 602 740 Q 629 728 695 738 Q 741 747 793 757 Q 818 763 823 766 Q 830 773 827 781 Q 820 791 794 799 Q 766 803 739 793 Q 709 784 677 776 Q 649 772 616 766 C 586 761 574 750 602 740 Z" fill="black"></path>
				<path d="M 648 666 Q 679 626 708 613 Q 720 610 728 621 Q 732 631 731 645 Q 727 664 712 675 Q 663 708 638 699 Q 637 700 637 699 Q 633 698 634 688 Q 635 678 648 666 Z" fill="black"></path>
				<path d="M 530 571 Q 531 581 526 599 Q 520 617 461 630 Q 448 633 444 630 Q 440 627 441 617 Q 444 610 465 593 Q 478 580 493 564 C 514 542 529 541 530 571 Z" fill="black"></path>
				<path d="M 493 564 Q 489 564 246 526 Q 228 525 242 511 Q 254 499 268 495 Q 286 491 299 496 Q 479 548 729 548 L 731 548 Q 747 548 751 556 Q 755 566 742 576 Q 697 607 644 594 Q 596 585 530 571 L 493 564 Z" fill="black"></path>
				<path d="M 367 461 Q 355 465 331 467 Q 321 468 318 464 Q 314 458 322 446 Q 341 415 359 359 Q 363 343 374 333 Q 390 315 393 329 Q 394 333 395 340 L 392 369 Q 382 418 380 435 C 377 458 377 458 367 461 Z" fill="black"></path>
				<path d="M 590 396 Q 608 426 629 439 Q 645 454 633 470 Q 620 482 576 504 Q 560 513 502 490 Q 421 471 367 461 C 338 455 351 429 380 435 Q 384 436 528 466 Q 544 470 552 463 Q 556 459 555 447 Q 548 422 540 398 C 531 369 574 371 590 396 Z" fill="black"></path>
				<path d="M 395 340 Q 399 339 409 341 Q 470 354 601 366 Q 611 367 612 374 Q 612 381 590 396 C 576 406 569 405 540 398 Q 458 379 392 369 C 362 364 365 340 395 340 Z" fill="black"></path>
				<path d="M 212 263 Q 182 275 165 273 Q 153 269 159 258 Q 201 192 181 61 Q 160 7 199 -30 Q 206 -42 216 -35 Q 243 -11 234 114 Q 230 193 229 222 C 228 252 228 257 212 263 Z" fill="red"></path>
				<path d="M 229 222 Q 239 223 248 226 Q 435 292 740 300 Q 762 299 770 286 Q 777 277 772 263 Q 773 70 761 43 Q 757 33 743 35 Q 712 39 676 44 Q 648 45 669 27 Q 742 -25 773 -63 Q 786 -78 799 -66 Q 815 -48 825 -20 Q 835 10 834 173 Q 833 234 851 264 Q 867 286 860 294 Q 853 307 800 341 Q 781 356 765 349 Q 735 337 681 329 Q 423 304 327 283 Q 261 270 212 263 C 182 258 200 214 229 222 Z" fill="lightgray"></path>
				<path d="M 367 203 Q 357 207 330 212 Q 320 215 316 210 Q 312 204 319 190 Q 340 151 354 86 Q 358 67 369 54 Q 385 35 390 49 Q 391 53 392 59 L 391 89 Q 382 152 380 175 C 378 199 378 199 367 203 Z" fill="lightgray"></path>
				<path d="M 590 112 Q 614 169 635 180 Q 650 198 637 214 Q 564 268 520 241 Q 454 219 367 203 C 338 197 351 168 380 175 Q 387 176 398 180 Q 462 192 524 204 Q 540 208 547 201 Q 554 195 553 182 Q 549 145 541 115 C 534 86 578 84 590 112 Z" fill="lightgray"></path>
				<path d="M 392 59 Q 395 59 400 60 Q 464 73 601 82 Q 610 83 611 90 Q 611 97 590 112 C 577 122 570 121 541 115 Q 459 99 391 89 C 361 85 362 55 392 59 Z" fill="lightgray"></path>
</g>
		<text x="40" y="140" font-size="128" fill="#999999">12</text></g>
		<g id="id2:id2:id2" transform="matrix(1.0,0,0,1.0,2048,0.0)">			<g stroke="lightgray" stroke-width="4" transform="scale(4, 4)"> <rect x="0" y="0" width="256" height="256" fill="white" stroke-width="4"/></g>
			<g transform="scale(0.92, -0.92) translate(60, -920)">					<path d="M 338 747 Q 350 766 362 782 Q 371 794 358 807 Q 322 837 294 834 Q 284 831 286 818 Q 301 737 212 636 Q 191 614 181 599 Q 174 586 187 590 Q 232 594 304 692 Q 316 716 322 721 L 338 747 Z" fill="black"></path>
				<path d="M 322 721 Q 409 712 491 737 Q 498 744 494 751 Q 488 760 465 766 Q 452 769 376 753 Q 355 750 338 747 C 308 742 292 724 322 721 Z" fill="black"></path>
				<path d="M 333 645 Q 357 614 382 598 Q 392 595 400 605 Q 404 614 404 626 Q 400 644 387 653 Q 372 666 344 672 Q 332 676 325 674 Q 321 673 322 664 Q 323 655 333 645 Z" fill="black"></path>
				<path d="M 616 766 Q 632 799 648 826 Q 655 838 642 849 Q 599 876 579 869 Q 569 866 573 853 Q 591 781 524 686 Q 508 664 500 651 Q 494 636 507 642 Q 550 657 602 740 L 616 766 Z" fill="black"></path>
				<path d="M 602 740 Q 629 728 695 738 Q 741 747 793 757 Q 818 763 823 766 Q 830 773 827 781 Q 820 791 794 799 Q 766 803 739 793 Q 709 784 677 776 Q 649 772 616 766 C 586 761 574 750 602 740 Z" fill="black"></path>
				<path d="M 648 666 Q 679 626 708 613 Q 720 610 728 621 Q 732 631 731 645 Q 727 664 712 675 Q 663 708 638 699 Q 637 700 637 699 Q 633 698 634 688 Q 635 678 648 666 Z" fill="black"></path>
				<path d="M 530 571 Q 531 581 526 599 Q 520 617 461 630 Q 448 633 444 630 Q 440 627 441 617 Q 444 610 465 593 Q 478 580 493 564 C 514 542 529 541 530 571 Z" fill="black"></path>
				<path d="M 493 564 Q 489 564 246 526 Q 228 525 242 511 Q 254 499 268 495 Q 286 491 299 496 Q 479 548 729 548 L 731 548 Q 747 548 751 556 Q 755 566 742 576 Q 697 607 644 594 Q 596 585 530 571 L 493 564 Z" fill="black"></path>
				<path d="M 367 461 Q 355 465 331 467 Q 321 468 318 464 Q 314 458 322 446 Q 341 415 359 359 Q 363 343 374 333 Q 390 315 393 329 Q 394 333 395 340 L 392 369 Q 382 418 380 435 C 377 458 377 458 367 461 Z" fill="black"></path>
				<path d="M 590 396 Q 608 426 629 439 Q 645 454 633 470 Q 620 482 576 504 Q 560 513 502 490 Q 421 471 367 461 C 338 455 351 429 380 435 Q 384 436 528 466 Q 544 470 552 463 Q 556 459 555 447 Q 548 422 540 398 C 531 369 574 371 590 396 Z" fill="black"></path>
				<path d="M 395 340 Q 399 339 409 341 Q 470 354 601 366 Q 611 367 612 374 Q 612 381 590 396 C 576 406 569 405 540 398 Q 458 379 392 369 C 362 364 365 340 395 340 Z" fill="black"></path>
				<path d="M 212 263 Q 182 275 165 273 Q 153 269 159 258 Q 201 192 181 61 Q 160 7 199 -30 Q 206 -42 216 -35 Q 243 -11 234 114 Q 230 193 229 222 C 228 252 228 257 212 263 Z" fill="black"></path>
				<path d="M 229 222 Q 239 223 248 226 Q 435 292 740 300 Q 762 299 770 286 Q 777 277 772 263 Q 773 70 761 43 Q 757 33 743 35 Q 712 39 676 44 Q 648 45 669 27 Q 742 -25 773 -63 Q 786 -78 799 -66 Q 815 -48 825 -20 Q 835 10 834 173 Q 833 234 851 264 Q 867 286 860 294 Q 853 307 800 341 Q 781 356 765 349 Q 735 337 681 329 Q 423 304 327 283 Q 261 270 212 263 C 182 258 200 214 229 222 Z" fill="red"></path>
				<path d="M 367 203 Q 357 207 330 212 Q 320 215 316 210 Q 312 204 319 190 Q 340 151 354 86 Q 358 67 369 54 Q 385 35 390 49 Q 391 53 392 59 L 391 89 Q 382 152 380 175 C 378 199 378 199 367 203 Z" fill="lightgray"></path>
				<path d="M 590 112 Q 614 169 635 180 Q 650 198 637 214 Q 564 268 520 241 Q 454 219 367 203 C 338 197 351 168 380 175 Q 387 176 398 180 Q 462 192 524 204 Q 540 208 547 201 Q 554 195 553 182 Q 549 145 541 115 C 534 86 578 84 590 112 Z" fill="lightgray"></path>
				<path d="M 392 59 Q 395 59 400 60 Q 464 73 601 82 Q 610 83 611 90 Q 611 97 590 112 C 577 122 570 121 541 115 Q 459 99 391 89 C 361 85 362 55 392 59 Z" fill="lightgray"></path>
</g>
		<text x="40" y="140" font-size="128" fill="#999999">13</text></g>
		<g id="id2:id3:id3" transform="matrix(1.0,0,0,1.0,3072,0.0)">			<g stroke="lightgray" stroke-width="4" transform="scale(4, 4)"> <rect x="0" y="0" width="256" height="256" fill="white" stroke-width="4"/></g>
			<g transform="scale(0.92, -0.92) translate(60, -920)">					<path d="M 338 747 Q 350 766 362 782 Q 371 794 358 807 Q 322 837 294 834 Q 284 831 286 818 Q 301 737 212 636 Q 191 614 181 599 Q 174 586 187 590 Q 232 594 304 692 Q 316 716 322 721 L 338 747 Z" fill="black"></path>
				<path d="M 322 721 Q 409 712 491 737 Q 498 744 494 751 Q 488 760 465 766 Q 452 769 376 753 Q 355 750 338 747 C 308 742 292 724 322 721 Z" fill="black"></path>
				<path d="M 333 645 Q 357 614 382 598 Q 392 595 400 605 Q 404 614 404 626 Q 400 644 387 653 Q 372 666 344 672 Q 332 676 325 674 Q 321 673 322 664 Q 323 655 333 645 Z" fill="black"></path>
				<path d="M 616 766 Q 632 799 648 826 Q 655 838 642 849 Q 599 876 579 869 Q 569 866 573 853 Q 591 781 524 686 Q 508 664 500 651 Q 494 636 507 642 Q 550 657 602 740 L 616 766 Z" fill="black"></path>
				<path d="M 602 740 Q 629 728 695 738 Q 741 747 793 757 Q 818 763 823 766 Q 830 773 827 781 Q 820 791 794 799 Q 766 803 739 793 Q 709 784 677 776 Q 649 772 616 766 C 586 761 574 750 602 740 Z" fill="black"></path>
				<path d="M 648 666 Q 679 626 708 613 Q 720 610 728 621 Q 732 631 731 645 Q 727 664 712 675 Q 663 708 638 699 Q 637 700 637 699 Q 633 698 634 688 Q 635 678 648 666 Z" fill="black"></path>
				<path d="M 530 571 Q 531 581 526 599 Q 520 617 461 630 Q 448 633 444 630 Q 440 627 441 617 Q 444 610 465 593 Q 478 580 493 564 C 514 542 529 541 530 571 Z" fill="black"></path>
				<path d="M 493 564 Q 489 564 246 526 Q 228 525 242 511 Q 254 499 268 495 Q 286 491 299 496 Q 479 548 729 548 L 731 548 Q 747 548 751 556 Q 755 566 742 576 Q 697 607 644 594 Q 596 585 530 571 L 493 564 Z" fill="black"></path>
				<path d="M 367 461 Q 355 465 331 467 Q 321 468 318 464 Q 314 458 322 446 Q 341 415 359 359 Q 363 343 374 333 Q 390 315 393 329 Q 394 333 395 340 L 392 369 Q 382 418 380 435 C 377 458 377 458 367 461 Z" fill="black"></path>
				<path d="M 590 396 Q 608 426 629 439 Q 645 454 633 470 Q 620 482 576 504 Q 560 513 502 490 Q 421 471 367 461 C 338 455 351 429 380 435 Q 384 436 528 466 Q 544 470 552 463 Q 556 459 555 447 Q 548 422 540 398 C 531 369 574 371 590 396 Z" fill="black"></path>
				<path d="M 395 340 Q 399 339 409 341 Q 470 354 601 366 Q 611 367 612 374 Q 612 381 590 396 C 576 406 569 405 540 398 Q 458 379 392 369 C 362 364 365 340 395 340 Z" fill="black"></path>
				<path d="M 212 263 Q 182 275 165 273 Q 153 269 159 258 Q 201 192 181 61 Q 160 7 199 -30 Q 206 -42 216 -35 Q 243 -11 234 114 Q 230 193 229 222 C 228 252 228 257 212 263 Z" fill="black"></path>
				<path d="M 229 222 Q 239 223 248 226 Q 435 292 740 300 Q 762 299 770 286 Q 777 277 772 263 Q 773 70 761 43 Q 757 33 743 35 Q 712 39 676 44 Q 648 45 669 27 Q 742 -25 773 -63 Q 786 -78 799 -66 Q 815 -48 825 -20 Q 835 10 834 173 Q 833 234 851 264 Q 867 286 860 294 Q 853 307 800 341 Q 781 356 765 349 Q 735 337 681 329 Q 423 304 327 283 Q 261 270 212 263 C 182 258 200 214 229 222 Z" fill="black"></path>
				<path d="M 367 203 Q 357 207 330 212 Q 320 215 316 210 Q 312 204 319 190 Q 340 151 354 86 Q 358 67 369 54 Q 385 35 390 49 Q 391 53 392 59 L 391 89 Q 382 152 380 175 C 378 199 378 199 367 203 Z" fill="red"></path>
				<path d="M 590 112 Q 614 169 635 180 Q 650 198 637 214 Q 564 268 520 241 Q 454 219 367 203 C 338 197 351 168 380 175 Q 387 176 398 180 Q 462 192 524 204 Q 540 208 547 201 Q 554 195 553 182 Q 549 145 541 115 C 534 86 578 84 590 112 Z" fill="lightgray"></path>
				<path d="M 392 59 Q 395 59 400 60 Q 464 73 601 82 Q 610 83 611 90 Q 611 97 590 112 C 577 122 570 121 541 115 Q 459 99 391 89 C 361 85 362 55 392 59 Z" fill="lightgray"></path>
</g>
		<text x="40" y="140" font-size="128" fill="#999999">14</text></g>
		<g id="id2:id4:id4" transform="matrix(1.0,0,0,1.0,4096,0.0)">			<g stroke="lightgray" stroke-width="4" transform="scale(4, 4)"> <rect x="0" y="0" width="256" height="256" fill="white" stroke-width="4"/></g>
			<g transform="scale(0.92, -0.92) translate(60, -920)">					<path d="M 338 747 Q 350 766 362 782 Q 371 794 358 807 Q 322 837 294 834 Q 284 831 286 818 Q 301 737 212 636 Q 191 614 181 599 Q 174 586 187 590 Q 232 594 304 692 Q 316 716 322 721 L 338 747 Z" fill="black"></path>
				<path d="M 322 721 Q 409 712 491 737 Q 498 744 494 751 Q 488 760 465 766 Q 452 769 376 753 Q 355 750 338 747 C 308 742 292 724 322 721 Z" fill="black"></path>
				<path d="M 333 645 Q 357 614 382 598 Q 392 595 400 605 Q 404 614 404 626 Q 400 644 387 653 Q 372 666 344 672 Q 332 676 325 674 Q 321 673 322 664 Q 323 655 333 645 Z" fill="black"></path>
				<path d="M 616 766 Q 632 799 648 826 Q 655 838 642 849 Q 599 876 579 869 Q 569 866 573 853 Q 591 781 524 686 Q 508 664 500 651 Q 494 636 507 642 Q 550 657 602 740 L 616 766 Z" fill="black"></path>
				<path d="M 602 740 Q 629 728 695 738 Q 741 747 793 757 Q 818 763 823 766 Q 830 773 827 781 Q 820 791 794 799 Q 766 803 739 793 Q 709 784 677 776 Q 649 772 616 766 C 586 761 574 750 602 740 Z" fill="black"></path>
				<path d="M 648 666 Q 679 626 708 613 Q 720 610 728 621 Q 732 631 731 645 Q 727 664 712 675 Q 663 708 638 699 Q 637 700 637 699 Q 633 698 634 688 Q 635 678 648 666 Z" fill="black"></path>
				<path d="M 530 571 Q 531 581 526 599 Q 520 617 461 630 Q 448 633 444 630 Q 440 627 441 617 Q 444 610 465 593 Q 478 580 493 564 C 514 542 529 541 530 571 Z" fill="black"></path>
				<path d="M 493 564 Q 489 564 246 526 Q 228 525 242 511 Q 254 499 268 495 Q 286 491 299 496 Q 479 548 729 548 L 731 548 Q 747 548 751 556 Q 755 566 742 576 Q 697 607 644 594 Q 596 585 530 571 L 493 564 Z" fill="black"></path>
				<path d="M 367 461 Q 355 465 331 467 Q 321 468 318 464 Q 314 458 322 446 Q 341 415 359 359 Q 363 343 374 333 Q 390 315 393 329 Q 394 333 395 340 L 392 369 Q 382 418 380 435 C 377 458 377 458 367 461 Z" fill="black"></path>
				<path d="M 590 396 Q 608 426 629 439 Q 645 454 633 470 Q 620 482 576 504 Q 560 513 502 490 Q 421 471 367 461 C 338 455 351 429 380 435 Q 384 436 528 466 Q 544 470 552 463 Q 556 459 555 447 Q 548 422 540 398 C 531 369 574 371 590 396 Z" fill="black"></path>
				<path d="M 395 340 Q 399 339 409 341 Q 470 354 601 366 Q 611 367 612 374 Q 612 381 590 396 C 576 406 569 405 540 398 Q 458 379 392 369 C 362 364 365 340 395 340 Z" fill="black"></path>
				<path d="M 212 263 Q 182 275 165 273 Q 153 269 159 258 Q 201 192 181 61 Q 160 7 199 -30 Q 206 -42 216 -35 Q 243 -11 234 114 Q 230 193 229 222 C 228 252 228 257 212 263 Z" fill="black"></path>
				<path d="M 229 222 Q 239 223 248 226 Q 435 292 740 300 Q 762 299 770 286 Q 777 277 772 263 Q 773 70 761 43 Q 757 33 743 35 Q 712 39 676 44 Q 648 45 669 27 Q 742 -25 773 -63 Q 786 -78 799 -66 Q 815 -48 825 -20 Q 835 10 834 173 Q 833 234 851 264 Q 867 286 860 294 Q 853 307 800 341 Q 781 356 765 349 Q 735 337 681 329 Q 423 304 327 283 Q 261 270 212 263 C 182 258 200 214 229 222 Z" fill="black"></path>
				<path d="M 367 203 Q 357 207 330 212 Q 320 215 316 210 Q 312 204 319 190 Q 340 151 354 86 Q 358 67 369 54 Q 385 35 390 49 Q 391 53 392 59 L 391 89 Q 382 152 380 175 C 378 199 378 199 367 203 Z" fill="black"></path>
				<path d="M 590 112 Q 614 169 635 180 Q 650 198 637 214 Q 564 268 520 241 Q 454 219 367 203 C 338 197 351 168 380 175 Q 387 176 398 180 Q 462 192 524 204 Q 540 208 547 201 Q 554 195 553 182 Q 549 145 541 115 C 534 86 578 84 590 112 Z" fill="red"></path>
				<path d="M 392 59 Q 395 59 400 60 Q 464 73 601 82 Q 610 83 611 90 Q 611 97 590 112 C 577 122 570 121 541 115 Q 459 99 391 89 C 361 85 362 55 392 59 Z" fill="lightgray"></path>
</g>
		<text x="40" y="140" font-size="128" fill="#999999">15</text></g>
</g>
	<g id="id3:id3" transform="translate(0.0,3072)">
		<g id="id3:id0:id0" transform="matrix(1.0,0,0,1.0,0,0.0)">			<g stroke="lightgray" stroke-width="4" transform="scale(4, 4)"> <rect x="0" y="0" width="256" height="256" fill="white" stroke-width="4"/></g>
			<g transform="scale(0.92, -0.92) translate(60, -920)">					<path d="M 338 747 Q 350 766 362 782 Q 371 794 358 807 Q 322 837 294 834 Q 284 831 286 818 Q 301 737 212 636 Q 191 614 181 599 Q 174 586 187 590 Q 232 594 304 692 Q 316 716 322 721 L 338 747 Z" fill="black"></path>
				<path d="M 322 721 Q 409 712 491 737 Q 498 744 494 751 Q 488 760 465 766 Q 452 769 376 753 Q 355 750 338 747 C 308 742 292 724 322 721 Z" fill="black"></path>
				<path d="M 333 645 Q 357 614 382 598 Q 392 595 400 605 Q 404 614 404 626 Q 400 644 387 653 Q 372 666 344 672 Q 332 676 325 674 Q 321 673 322 664 Q 323 655 333 645 Z" fill="black"></path>
				<path d="M 616 766 Q 632 799 648 826 Q 655 838 642 849 Q 599 876 579 869 Q 569 866 573 853 Q 591 781 524 686 Q 508 664 500 651 Q 494 636 507 642 Q 550 657 602 740 L 616 766 Z" fill="black"></path>
				<path d="M 602 740 Q 629 728 695 738 Q 741 747 793 757 Q 818 763 823 766 Q 830 773 827 781 Q 820 791 794 799 Q 766 803 739 793 Q 709 784 677 776 Q 649 772 616 766 C 586 761 574 750 602 740 Z" fill="black"></path>
				<path d="M 648 666 Q 679 626 708 613 Q 720 610 728 621 Q 732 631 731 645 Q 727 664 712 675 Q 663 708 638 699 Q 637 700 637 699 Q 633 698 634 688 Q 635 678 648 666 Z" fill="black"></path>
				<path d="M 530 571 Q 531 581 526 599 Q 520 617 461 630 Q 448 633 444 630 Q 440 627 441 617 Q 444 610 465 593 Q 478 580 493 564 C 514 542 529 541 530 571 Z" fill="black"></path>
				<path d="M 493 564 Q 489 564 246 526 Q 228 525 242 511 Q 254 499 268 495 Q 286 491 299 496 Q 479 548 729 548 L 731 548 Q 747 548 751 556 Q 755 566 742 576 Q 697 607 644 594 Q 596 585 530 571 L 493 564 Z" fill="black"></path>
				<path d="M 367 461 Q 355 465 331 467 Q 321 468 318 464 Q 314 458 322 446 Q 341 415 359 359 Q 363 343 374 333 Q 390 315 393 329 Q 394 333 395 340 L 392 369 Q 382 418 380 435 C 377 458 377 458 367 461 Z" fill="black"></path>
				<path d="M 590 396 Q 608 426 629 439 Q 645 454 633 470 Q 620 482 576 504 Q 560 513 502 490 Q 421 471 367 461 C 338 455 351 429 380 435 Q 384 436 528 466 Q 544 470 552 463 Q 556 459 555 447 Q 548 422 540 398 C 531 369 574 371 590 396 Z" fill="black"></path>
				<path d="M 395 340 Q 399 339 409 341 Q 470 354 601 366 Q 611 367 612 374 Q 612 381 590 396 C 576 406 569 405 540 398 Q 458 379 392 369 C 362 364 365 340 395 340 Z" fill="black"></path>
				<path d="M 212 263 Q 182 275 165 273 Q 153 269 159 258 Q 201 192 181 61 Q 160 7 199 -30 Q 206 -42 216 -35 Q 243 -11 234 114 Q 230 193 229 222 C 228 252 228 257 212 263 Z" fill="black"></path>
				<path d="M 229 222 Q 239 223 248 226 Q 435 292 740 300 Q 762 299 770 286 Q 777 277 772 263 Q 773 70 761 43 Q 757 33 743 35 Q 712 39 676 44 Q 648 45 669 27 Q 742 -25 773 -63 Q 786 -78 799 -66 Q 815 -48 825 -20 Q 835 10 834 173 Q 833 234 851 264 Q 867 286 860 294 Q 853 307 800 341 Q 781 356 765 349 Q 735 337 681 329 Q 423 304 327 283 Q 261 270 212 263 C 182 258 200 214 229 222 Z" fill="black"></path>
				<path d="M 367 203 Q 357 207 330 212 Q 320 215 316 210 Q 312 204 319 190 Q 340 151 354 86 Q 358 67 369 54 Q 385 35 390 49 Q 391 53 392 59 L 391 89 Q 382 152 380 175 C 378 199 378 199 367 203 Z" fill="black"></path>
				<path d="M 590 112 Q 614 169 635 180 Q 650 198 637 214 Q 564 268 520 241 Q 454 219 367 203 C 338 197 351 168 380 175 Q 387 176 398 180 Q 462 192 524 204 Q 540 208 547 201 Q 554 195 553 182 Q 549 145 541 115 C 534 86 578 84 590 112 Z" fill="black"></path>
				<path d="M 392 59 Q 395 59 400 60 Q 464 73 601 82 Q 610 83 611 90 Q 611 97 590 112 C 577 122 570 121 541 115 Q 459 99 391 89 C 361 85 362 55 392 59 Z" fill="red"></path>
</g>
		<text x="40" y="140" font-size="128" fill="#999999">16</text></g>
		<g id="id3:id1:id1" transform="matrix(1.0,0,0,1.0,1024,0.0)">			<g stroke="white" stroke-width="4" transform="scale(4, 4)"> <rect x="1" y="1" width="255" height="255" fill="white" stroke-width="0"/></g>
</g>
		<g id="id3:id2:id2" transform="matrix(1.0,0,0,1.0,2048,0.0)">			<g stroke="white" stroke-width="4" transform="scale(4, 4)"> <rect x="1" y="1" width="255" height="255" fill="white" stroke-width="0"/></g>
</g>
		<g id="id3:id3:id3" transform="matrix(1.0,0,0,1.0,3072,0.0)">			<g stroke="white" stroke-width="4" transform="scale(4, 4)"> <rect x="1" y="1" width="255" height="255" fill="white" stroke-width="0"/></g>
</g>
		<g id="id3:id4:id4" transform="matrix(1.0,0,0,1.0,4096,0.0)">			<g stroke="white" stroke-width="4" transform="scale(4, 4)"> <rect x="1" y="1" width="255" height="255" fill="white" stroke-width="0"/></g>
</g>
</g>
</svg>
