<?xml version="1.0" standalone="no"?>
<!DOCTYPE svg PUBLIC "-//W3C//DTD SVG 1.1//EN"
 "http://www.w3.org/Graphics/SVG/1.1/DTD/svg11.dtd">
<!-- generate by Handict dictionary app com.asnsami.handict -->

<svg xmlns="http://www.w3.org/2000/svg" xmlns:sodipodi="http://sodipodi.sourceforge.net/DTD/sodipodi-0.dtd" version="1.1" width="640" height="384" viewBox="0 0 5120 3072">
	<g id="id0:id0" transform="translate(0.0,0)">
		<g id="id0:id0:id0" transform="matrix(1.0,0,0,1.0,0,0.0)">			<g stroke="lightgray" stroke-width="4" transform="scale(4, 4)"> <rect x="0" y="0" width="256" height="256" fill="white" stroke-width="4"/></g>
			<g transform="scale(0.92, -0.92) translate(60, -920)">					<path d="M 152 591 Q 170 563 187 532 Q 196 516 211 513 Q 221 510 229 521 Q 238 534 237 563 Q 237 591 160 636 Q 147 643 141 643 Q 135 640 133 628 Q 133 618 152 591 Z" fill="red"></path>
				<path d="M 404 658 Q 389 625 358 572 Q 354 565 359 559 Q 366 558 373 564 Q 440 625 475 648 Q 491 655 486 665 Q 479 678 458 693 Q 437 708 416 707 Q 403 706 406 687 Q 410 674 404 658 Z" fill="lightgray"></path>
				<path d="M 322 426 Q 425 456 427 457 Q 436 464 431 473 Q 424 483 396 490 Q 369 496 322 477 L 281 464 Q 182 437 92 424 Q 58 417 83 402 Q 126 378 186 396 Q 216 405 250 410 L 322 426 Z" fill="lightgray"></path>
				<path d="M 320 339 Q 321 379 322 426 L 322 477 Q 326 702 345 766 Q 354 781 351 794 Q 344 804 290 837 Q 268 853 247 839 Q 243 835 249 819 Q 282 771 282 699 Q 282 500 281 464 L 278 361 Q 274 199 255 128 Q 237 77 264 10 Q 271 -8 279 -11 Q 285 -18 292 -9 Q 319 7 319 70 Q 318 104 320 313 L 320 339 Z" fill="lightgray"></path>
				<path d="M 250 410 Q 196 304 51 142 Q 45 132 56 130 Q 74 127 180 228 Q 231 280 278 361 C 317 428 270 448 250 410 Z" fill="lightgray"></path>
				<path d="M 320 313 Q 326 309 335 302 Q 363 283 395 257 Q 405 247 418 249 Q 425 250 429 260 Q 432 272 424 294 Q 412 324 329 339 Q 323 340 320 339 C 290 336 295 330 320 313 Z" fill="lightgray"></path>
				<path d="M 573 492 Q 588 513 691 670 Q 704 695 727 714 Q 746 733 728 748 Q 707 761 674 766 Q 643 772 631 764 Q 618 757 628 745 Q 644 714 600 607 Q 576 552 549 489 C 537 461 556 467 573 492 Z" fill="lightgray"></path>
				<path d="M 527 485 Q 506 501 483 511 Q 476 515 471 510 Q 462 506 471 493 Q 511 400 490 197 Q 484 139 517 105 Q 518 105 520 103 Q 535 96 540 123 L 543 154 Q 542 221 540 290 L 540 318 Q 540 390 546 452 C 548 470 548 470 527 485 Z" fill="lightgray"></path>
				<path d="M 725 140 Q 738 116 763 74 Q 773 58 783 61 Q 798 65 804 90 Q 835 168 830 267 Q 831 331 831 403 Q 832 449 853 478 Q 868 497 856 510 Q 834 529 789 546 Q 771 555 741 541 Q 684 517 573 492 L 549 489 Q 537 488 527 485 C 497 480 516 447 546 452 Q 550 452 557 453 Q 624 469 732 493 Q 750 497 759 488 Q 793 434 767 190 Q 766 171 760 165 C 751 136 710 166 725 140 Z" fill="lightgray"></path>
				<path d="M 540 290 Q 547 289 557 290 Q 651 306 721 314 Q 746 318 737 332 Q 727 348 699 352 Q 672 356 540 318 C 511 310 510 292 540 290 Z" fill="lightgray"></path>
				<path d="M 540 123 Q 543 123 547 123 Q 647 136 725 140 C 755 142 780 143 760 165 Q 750 178 728 183 Q 688 190 543 154 C 514 147 510 123 540 123 Z" fill="lightgray"></path>
</g>
		<text x="40" y="140" font-size="128" fill="#999999">1</text></g>
		<g id="id0:id1:id1" transform="matrix(1.0,0,0,1.0,1024,0.0)">			<g stroke="lightgray" stroke-width="4" transform="scale(4, 4)"> <rect x="0" y="0" width="256" height="256" fill="white" stroke-width="4"/></g>
			<g transform="scale(0.92, -0.92) translate(60, -920)">					<path d="M 152 591 Q 170 563 187 532 Q 196 516 211 513 Q 221 510 229 521 Q 238 534 237 563 Q 237 591 160 636 Q 147 643 141 643 Q 135 640 133 628 Q 133 618 152 591 Z" fill="black"></path>
				<path d="M 404 658 Q 389 625 358 572 Q 354 565 359 559 Q 366 558 373 564 Q 440 625 475 648 Q 491 655 486 665 Q 479 678 458 693 Q 437 708 416 707 Q 403 706 406 687 Q 410 674 404 658 Z" fill="red"></path>
				<path d="M 322 426 Q 425 456 427 457 Q 436 464 431 473 Q 424 483 396 490 Q 369 496 322 477 L 281 464 Q 182 437 92 424 Q 58 417 83 402 Q 126 378 186 396 Q 216 405 250 410 L 322 426 Z" fill="lightgray"></path>
				<path d="M 320 339 Q 321 379 322 426 L 322 477 Q 326 702 345 766 Q 354 781 351 794 Q 344 804 290 837 Q 268 853 247 839 Q 243 835 249 819 Q 282 771 282 699 Q 282 500 281 464 L 278 361 Q 274 199 255 128 Q 237 77 264 10 Q 271 -8 279 -11 Q 285 -18 292 -9 Q 319 7 319 70 Q 318 104 320 313 L 320 339 Z" fill="lightgray"></path>
				<path d="M 250 410 Q 196 304 51 142 Q 45 132 56 130 Q 74 127 180 228 Q 231 280 278 361 C 317 428 270 448 250 410 Z" fill="lightgray"></path>
				<path d="M 320 313 Q 326 309 335 302 Q 363 283 395 257 Q 405 247 418 249 Q 425 250 429 260 Q 432 272 424 294 Q 412 324 329 339 Q 323 340 320 339 C 290 336 295 330 320 313 Z" fill="lightgray"></path>
				<path d="M 573 492 Q 588 513 691 670 Q 704 695 727 714 Q 746 733 728 748 Q 707 761 674 766 Q 643 772 631 764 Q 618 757 628 745 Q 644 714 600 607 Q 576 552 549 489 C 537 461 556 467 573 492 Z" fill="lightgray"></path>
				<path d="M 527 485 Q 506 501 483 511 Q 476 515 471 510 Q 462 506 471 493 Q 511 400 490 197 Q 484 139 517 105 Q 518 105 520 103 Q 535 96 540 123 L 543 154 Q 542 221 540 290 L 540 318 Q 540 390 546 452 C 548 470 548 470 527 485 Z" fill="lightgray"></path>
				<path d="M 725 140 Q 738 116 763 74 Q 773 58 783 61 Q 798 65 804 90 Q 835 168 830 267 Q 831 331 831 403 Q 832 449 853 478 Q 868 497 856 510 Q 834 529 789 546 Q 771 555 741 541 Q 684 517 573 492 L 549 489 Q 537 488 527 485 C 497 480 516 447 546 452 Q 550 452 557 453 Q 624 469 732 493 Q 750 497 759 488 Q 793 434 767 190 Q 766 171 760 165 C 751 136 710 166 725 140 Z" fill="lightgray"></path>
				<path d="M 540 290 Q 547 289 557 290 Q 651 306 721 314 Q 746 318 737 332 Q 727 348 699 352 Q 672 356 540 318 C 511 310 510 292 540 290 Z" fill="lightgray"></path>
				<path d="M 540 123 Q 543 123 547 123 Q 647 136 725 140 C 755 142 780 143 760 165 Q 750 178 728 183 Q 688 190 543 154 C 514 147 510 123 540 123 Z" fill="lightgray"></path>
</g>
		<text x="40" y="140" font-size="128" fill="#999999">2</text></g>
		<g id="id0:id2:id2" transform="matrix(1.0,0,0,1.0,2048,0.0)">			<g stroke="lightgray" stroke-width="4" transform="scale(4, 4)"> <rect x="0" y="0" width="256" height="256" fill="white" stroke-width="4"/></g>
			<g transform="scale(0.92, -0.92) translate(60, -920)">					<path d="M 152 591 Q 170 563 187 532 Q 196 516 211 513 Q 221 510 229 521 Q 238 534 237 563 Q 237 591 160 636 Q 147 643 141 643 Q 135 640 133 628 Q 133 618 152 591 Z" fill="black"></path>
				<path d="M 404 658 Q 389 625 358 572 Q 354 565 359 559 Q 366 558 373 564 Q 440 625 475 648 Q 491 655 486 665 Q 479 678 458 693 Q 437 708 416 707 Q 403 706 406 687 Q 410 674 404 658 Z" fill="black"></path>
				<path d="M 322 426 Q 425 456 427 457 Q 436 464 431 473 Q 424 483 396 490 Q 369 496 322 477 L 281 464 Q 182 437 92 424 Q 58 417 83 402 Q 126 378 186 396 Q 216 405 250 410 L 322 426 Z" fill="red"></path>
				<path d="M 320 339 Q 321 379 322 426 L 322 477 Q 326 702 345 766 Q 354 781 351 794 Q 344 804 290 837 Q 268 853 247 839 Q 243 835 249 819 Q 282 771 282 699 Q 282 500 281 464 L 278 361 Q 274 199 255 128 Q 237 77 264 10 Q 271 -8 279 -11 Q 285 -18 292 -9 Q 319 7 319 70 Q 318 104 320 313 L 320 339 Z" fill="lightgray"></path>
				<path d="M 250 410 Q 196 304 51 142 Q 45 132 56 130 Q 74 127 180 228 Q 231 280 278 361 C 317 428 270 448 250 410 Z" fill="lightgray"></path>
				<path d="M 320 313 Q 326 309 335 302 Q 363 283 395 257 Q 405 247 418 249 Q 425 250 429 260 Q 432 272 424 294 Q 412 324 329 339 Q 323 340 320 339 C 290 336 295 330 320 313 Z" fill="lightgray"></path>
				<path d="M 573 492 Q 588 513 691 670 Q 704 695 727 714 Q 746 733 728 748 Q 707 761 674 766 Q 643 772 631 764 Q 618 757 628 745 Q 644 714 600 607 Q 576 552 549 489 C 537 461 556 467 573 492 Z" fill="lightgray"></path>
				<path d="M 527 485 Q 506 501 483 511 Q 476 515 471 510 Q 462 506 471 493 Q 511 400 490 197 Q 484 139 517 105 Q 518 105 520 103 Q 535 96 540 123 L 543 154 Q 542 221 540 290 L 540 318 Q 540 390 546 452 C 548 470 548 470 527 485 Z" fill="lightgray"></path>
				<path d="M 725 140 Q 738 116 763 74 Q 773 58 783 61 Q 798 65 804 90 Q 835 168 830 267 Q 831 331 831 403 Q 832 449 853 478 Q 868 497 856 510 Q 834 529 789 546 Q 771 555 741 541 Q 684 517 573 492 L 549 489 Q 537 488 527 485 C 497 480 516 447 546 452 Q 550 452 557 453 Q 624 469 732 493 Q 750 497 759 488 Q 793 434 767 190 Q 766 171 760 165 C 751 136 710 166 725 140 Z" fill="lightgray"></path>
				<path d="M 540 290 Q 547 289 557 290 Q 651 306 721 314 Q 746 318 737 332 Q 727 348 699 352 Q 672 356 540 318 C 511 310 510 292 540 290 Z" fill="lightgray"></path>
				<path d="M 540 123 Q 543 123 547 123 Q 647 136 725 140 C 755 142 780 143 760 165 Q 750 178 728 183 Q 688 190 543 154 C 514 147 510 123 540 123 Z" fill="lightgray"></path>
</g>
		<text x="40" y="140" font-size="128" fill="#999999">3</text></g>
		<g id="id0:id3:id3" transform="matrix(1.0,0,0,1.0,3072,0.0)">			<g stroke="lightgray" stroke-width="4" transform="scale(4, 4)"> <rect x="0" y="0" width="256" height="256" fill="white" stroke-width="4"/></g>
			<g transform="scale(0.92, -0.92) translate(60, -920)">					<path d="M 152 591 Q 170 563 187 532 Q 196 516 211 513 Q 221 510 229 521 Q 238 534 237 563 Q 237 591 160 636 Q 147 643 141 643 Q 135 640 133 628 Q 133 618 152 591 Z" fill="black"></path>
				<path d="M 404 658 Q 389 625 358 572 Q 354 565 359 559 Q 366 558 373 564 Q 440 625 475 648 Q 491 655 486 665 Q 479 678 458 693 Q 437 708 416 707 Q 403 706 406 687 Q 410 674 404 658 Z" fill="black"></path>
				<path d="M 322 426 Q 425 456 427 457 Q 436 464 431 473 Q 424 483 396 490 Q 369 496 322 477 L 281 464 Q 182 437 92 424 Q 58 417 83 402 Q 126 378 186 396 Q 216 405 250 410 L 322 426 Z" fill="black"></path>
				<path d="M 320 339 Q 321 379 322 426 L 322 477 Q 326 702 345 766 Q 354 781 351 794 Q 344 804 290 837 Q 268 853 247 839 Q 243 835 249 819 Q 282 771 282 699 Q 282 500 281 464 L 278 361 Q 274 199 255 128 Q 237 77 264 10 Q 271 -8 279 -11 Q 285 -18 292 -9 Q 319 7 319 70 Q 318 104 320 313 L 320 339 Z" fill="red"></path>
				<path d="M 250 410 Q 196 304 51 142 Q 45 132 56 130 Q 74 127 180 228 Q 231 280 278 361 C 317 428 270 448 250 410 Z" fill="lightgray"></path>
				<path d="M 320 313 Q 326 309 335 302 Q 363 283 395 257 Q 405 247 418 249 Q 425 250 429 260 Q 432 272 424 294 Q 412 324 329 339 Q 323 340 320 339 C 290 336 295 330 320 313 Z" fill="lightgray"></path>
				<path d="M 573 492 Q 588 513 691 670 Q 704 695 727 714 Q 746 733 728 748 Q 707 761 674 766 Q 643 772 631 764 Q 618 757 628 745 Q 644 714 600 607 Q 576 552 549 489 C 537 461 556 467 573 492 Z" fill="lightgray"></path>
				<path d="M 527 485 Q 506 501 483 511 Q 476 515 471 510 Q 462 506 471 493 Q 511 400 490 197 Q 484 139 517 105 Q 518 105 520 103 Q 535 96 540 123 L 543 154 Q 542 221 540 290 L 540 318 Q 540 390 546 452 C 548 470 548 470 527 485 Z" fill="lightgray"></path>
				<path d="M 725 140 Q 738 116 763 74 Q 773 58 783 61 Q 798 65 804 90 Q 835 168 830 267 Q 831 331 831 403 Q 832 449 853 478 Q 868 497 856 510 Q 834 529 789 546 Q 771 555 741 541 Q 684 517 573 492 L 549 489 Q 537 488 527 485 C 497 480 516 447 546 452 Q 550 452 557 453 Q 624 469 732 493 Q 750 497 759 488 Q 793 434 767 190 Q 766 171 760 165 C 751 136 710 166 725 140 Z" fill="lightgray"></path>
				<path d="M 540 290 Q 547 289 557 290 Q 651 306 721 314 Q 746 318 737 332 Q 727 348 699 352 Q 672 356 540 318 C 511 310 510 292 540 290 Z" fill="lightgray"></path>
				<path d="M 540 123 Q 543 123 547 123 Q 647 136 725 140 C 755 142 780 143 760 165 Q 750 178 728 183 Q 688 190 543 154 C 514 147 510 123 540 123 Z" fill="lightgray"></path>
</g>
		<text x="40" y="140" font-size="128" fill="#999999">4</text></g>
		<g id="id0:id4:id4" transform="matrix(1.0,0,0,1.0,4096,0.0)">			<g stroke="lightgray" stroke-width="4" transform="scale(4, 4)"> <rect x="0" y="0" width="256" height="256" fill="white" stroke-width="4"/></g>
			<g transform="scale(0.92, -0.92) translate(60, -920)">					<path d="M 152 591 Q 170 563 187 532 Q 196 516 211 513 Q 221 510 229 521 Q 238 534 237 563 Q 237 591 160 636 Q 147 643 141 643 Q 135 640 133 628 Q 133 618 152 591 Z" fill="black"></path>
				<path d="M 404 658 Q 389 625 358 572 Q 354 565 359 559 Q 366 558 373 564 Q 440 625 475 648 Q 491 655 486 665 Q 479 678 458 693 Q 437 708 416 707 Q 403 706 406 687 Q 410 674 404 658 Z" fill="black"></path>
				<path d="M 322 426 Q 425 456 427 457 Q 436 464 431 473 Q 424 483 396 490 Q 369 496 322 477 L 281 464 Q 182 437 92 424 Q 58 417 83 402 Q 126 378 186 396 Q 216 405 250 410 L 322 426 Z" fill="black"></path>
				<path d="M 320 339 Q 321 379 322 426 L 322 477 Q 326 702 345 766 Q 354 781 351 794 Q 344 804 290 837 Q 268 853 247 839 Q 243 835 249 819 Q 282 771 282 699 Q 282 500 281 464 L 278 361 Q 274 199 255 128 Q 237 77 264 10 Q 271 -8 279 -11 Q 285 -18 292 -9 Q 319 7 319 70 Q 318 104 320 313 L 320 339 Z" fill="black"></path>
				<path d="M 250 410 Q 196 304 51 142 Q 45 132 56 130 Q 74 127 180 228 Q 231 280 278 361 C 317 428 270 448 250 410 Z" fill="red"></path>
				<path d="M 320 313 Q 326 309 335 302 Q 363 283 395 257 Q 405 247 418 249 Q 425 250 429 260 Q 432 272 424 294 Q 412 324 329 339 Q 323 340 320 339 C 290 336 295 330 320 313 Z" fill="lightgray"></path>
				<path d="M 573 492 Q 588 513 691 670 Q 704 695 727 714 Q 746 733 728 748 Q 707 761 674 766 Q 643 772 631 764 Q 618 757 628 745 Q 644 714 600 607 Q 576 552 549 489 C 537 461 556 467 573 492 Z" fill="lightgray"></path>
				<path d="M 527 485 Q 506 501 483 511 Q 476 515 471 510 Q 462 506 471 493 Q 511 400 490 197 Q 484 139 517 105 Q 518 105 520 103 Q 535 96 540 123 L 543 154 Q 542 221 540 290 L 540 318 Q 540 390 546 452 C 548 470 548 470 527 485 Z" fill="lightgray"></path>
				<path d="M 725 140 Q 738 116 763 74 Q 773 58 783 61 Q 798 65 804 90 Q 835 168 830 267 Q 831 331 831 403 Q 832 449 853 478 Q 868 497 856 510 Q 834 529 789 546 Q 771 555 741 541 Q 684 517 573 492 L 549 489 Q 537 488 527 485 C 497 480 516 447 546 452 Q 550 452 557 453 Q 624 469 732 493 Q 750 497 759 488 Q 793 434 767 190 Q 766 171 760 165 C 751 136 710 166 725 140 Z" fill="lightgray"></path>
				<path d="M 540 290 Q 547 289 557 290 Q 651 306 721 314 Q 746 318 737 332 Q 727 348 699 352 Q 672 356 540 318 C 511 310 510 292 540 290 Z" fill="lightgray"></path>
				<path d="M 540 123 Q 543 123 547 123 Q 647 136 725 140 C 755 142 780 143 760 165 Q 750 178 728 183 Q 688 190 543 154 C 514 147 510 123 540 123 Z" fill="lightgray"></path>
</g>
		<text x="40" y="140" font-size="128" fill="#999999">5</text></g>
</g>
	<g id="id1:id1" transform="translate(0.0,1024)">
		<g id="id1:id0:id0" transform="matrix(1.0,0,0,1.0,0,0.0)">			<g stroke="lightgray" stroke-width="4" transform="scale(4, 4)"> <rect x="0" y="0" width="256" height="256" fill="white" stroke-width="4"/></g>
			<g transform="scale(0.92, -0.92) translate(60, -920)">					<path d="M 152 591 Q 170 563 187 532 Q 196 516 211 513 Q 221 510 229 521 Q 238 534 237 563 Q 237 591 160 636 Q 147 643 141 643 Q 135 640 133 628 Q 133 618 152 591 Z" fill="black"></path>
				<path d="M 404 658 Q 389 625 358 572 Q 354 565 359 559 Q 366 558 373 564 Q 440 625 475 648 Q 491 655 486 665 Q 479 678 458 693 Q 437 708 416 707 Q 403 706 406 687 Q 410 674 404 658 Z" fill="black"></path>
				<path d="M 322 426 Q 425 456 427 457 Q 436 464 431 473 Q 424 483 396 490 Q 369 496 322 477 L 281 464 Q 182 437 92 424 Q 58 417 83 402 Q 126 378 186 396 Q 216 405 250 410 L 322 426 Z" fill="black"></path>
				<path d="M 320 339 Q 321 379 322 426 L 322 477 Q 326 702 345 766 Q 354 781 351 794 Q 344 804 290 837 Q 268 853 247 839 Q 243 835 249 819 Q 282 771 282 699 Q 282 500 281 464 L 278 361 Q 274 199 255 128 Q 237 77 264 10 Q 271 -8 279 -11 Q 285 -18 292 -9 Q 319 7 319 70 Q 318 104 320 313 L 320 339 Z" fill="black"></path>
				<path d="M 250 410 Q 196 304 51 142 Q 45 132 56 130 Q 74 127 180 228 Q 231 280 278 361 C 317 428 270 448 250 410 Z" fill="black"></path>
				<path d="M 320 313 Q 326 309 335 302 Q 363 283 395 257 Q 405 247 418 249 Q 425 250 429 260 Q 432 272 424 294 Q 412 324 329 339 Q 323 340 320 339 C 290 336 295 330 320 313 Z" fill="red"></path>
				<path d="M 573 492 Q 588 513 691 670 Q 704 695 727 714 Q 746 733 728 748 Q 707 761 674 766 Q 643 772 631 764 Q 618 757 628 745 Q 644 714 600 607 Q 576 552 549 489 C 537 461 556 467 573 492 Z" fill="lightgray"></path>
				<path d="M 527 485 Q 506 501 483 511 Q 476 515 471 510 Q 462 506 471 493 Q 511 400 490 197 Q 484 139 517 105 Q 518 105 520 103 Q 535 96 540 123 L 543 154 Q 542 221 540 290 L 540 318 Q 540 390 546 452 C 548 470 548 470 527 485 Z" fill="lightgray"></path>
				<path d="M 725 140 Q 738 116 763 74 Q 773 58 783 61 Q 798 65 804 90 Q 835 168 830 267 Q 831 331 831 403 Q 832 449 853 478 Q 868 497 856 510 Q 834 529 789 546 Q 771 555 741 541 Q 684 517 573 492 L 549 489 Q 537 488 527 485 C 497 480 516 447 546 452 Q 550 452 557 453 Q 624 469 732 493 Q 750 497 759 488 Q 793 434 767 190 Q 766 171 760 165 C 751 136 710 166 725 140 Z" fill="lightgray"></path>
				<path d="M 540 290 Q 547 289 557 290 Q 651 306 721 314 Q 746 318 737 332 Q 727 348 699 352 Q 672 356 540 318 C 511 310 510 292 540 290 Z" fill="lightgray"></path>
				<path d="M 540 123 Q 543 123 547 123 Q 647 136 725 140 C 755 142 780 143 760 165 Q 750 178 728 183 Q 688 190 543 154 C 514 147 510 123 540 123 Z" fill="lightgray"></path>
</g>
		<text x="40" y="140" font-size="128" fill="#999999">6</text></g>
		<g id="id1:id1:id1" transform="matrix(1.0,0,0,1.0,1024,0.0)">			<g stroke="lightgray" stroke-width="4" transform="scale(4, 4)"> <rect x="0" y="0" width="256" height="256" fill="white" stroke-width="4"/></g>
			<g transform="scale(0.92, -0.92) translate(60, -920)">					<path d="M 152 591 Q 170 563 187 532 Q 196 516 211 513 Q 221 510 229 521 Q 238 534 237 563 Q 237 591 160 636 Q 147 643 141 643 Q 135 640 133 628 Q 133 618 152 591 Z" fill="black"></path>
				<path d="M 404 658 Q 389 625 358 572 Q 354 565 359 559 Q 366 558 373 564 Q 440 625 475 648 Q 491 655 486 665 Q 479 678 458 693 Q 437 708 416 707 Q 403 706 406 687 Q 410 674 404 658 Z" fill="black"></path>
				<path d="M 322 426 Q 425 456 427 457 Q 436 464 431 473 Q 424 483 396 490 Q 369 496 322 477 L 281 464 Q 182 437 92 424 Q 58 417 83 402 Q 126 378 186 396 Q 216 405 250 410 L 322 426 Z" fill="black"></path>
				<path d="M 320 339 Q 321 379 322 426 L 322 477 Q 326 702 345 766 Q 354 781 351 794 Q 344 804 290 837 Q 268 853 247 839 Q 243 835 249 819 Q 282 771 282 699 Q 282 500 281 464 L 278 361 Q 274 199 255 128 Q 237 77 264 10 Q 271 -8 279 -11 Q 285 -18 292 -9 Q 319 7 319 70 Q 318 104 320 313 L 320 339 Z" fill="black"></path>
				<path d="M 250 410 Q 196 304 51 142 Q 45 132 56 130 Q 74 127 180 228 Q 231 280 278 361 C 317 428 270 448 250 410 Z" fill="black"></path>
				<path d="M 320 313 Q 326 309 335 302 Q 363 283 395 257 Q 405 247 418 249 Q 425 250 429 260 Q 432 272 424 294 Q 412 324 329 339 Q 323 340 320 339 C 290 336 295 330 320 313 Z" fill="black"></path>
				<path d="M 573 492 Q 588 513 691 670 Q 704 695 727 714 Q 746 733 728 748 Q 707 761 674 766 Q 643 772 631 764 Q 618 757 628 745 Q 644 714 600 607 Q 576 552 549 489 C 537 461 556 467 573 492 Z" fill="red"></path>
				<path d="M 527 485 Q 506 501 483 511 Q 476 515 471 510 Q 462 506 471 493 Q 511 400 490 197 Q 484 139 517 105 Q 518 105 520 103 Q 535 96 540 123 L 543 154 Q 542 221 540 290 L 540 318 Q 540 390 546 452 C 548 470 548 470 527 485 Z" fill="lightgray"></path>
				<path d="M 725 140 Q 738 116 763 74 Q 773 58 783 61 Q 798 65 804 90 Q 835 168 830 267 Q 831 331 831 403 Q 832 449 853 478 Q 868 497 856 510 Q 834 529 789 546 Q 771 555 741 541 Q 684 517 573 492 L 549 489 Q 537 488 527 485 C 497 480 516 447 546 452 Q 550 452 557 453 Q 624 469 732 493 Q 750 497 759 488 Q 793 434 767 190 Q 766 171 760 165 C 751 136 710 166 725 140 Z" fill="lightgray"></path>
				<path d="M 540 290 Q 547 289 557 290 Q 651 306 721 314 Q 746 318 737 332 Q 727 348 699 352 Q 672 356 540 318 C 511 310 510 292 540 290 Z" fill="lightgray"></path>
				<path d="M 540 123 Q 543 123 547 123 Q 647 136 725 140 C 755 142 780 143 760 165 Q 750 178 728 183 Q 688 190 543 154 C 514 147 510 123 540 123 Z" fill="lightgray"></path>
</g>
		<text x="40" y="140" font-size="128" fill="#999999">7</text></g>
		<g id="id1:id2:id2" transform="matrix(1.0,0,0,1.0,2048,0.0)">			<g stroke="lightgray" stroke-width="4" transform="scale(4, 4)"> <rect x="0" y="0" width="256" height="256" fill="white" stroke-width="4"/></g>
			<g transform="scale(0.92, -0.92) translate(60, -920)">					<path d="M 152 591 Q 170 563 187 532 Q 196 516 211 513 Q 221 510 229 521 Q 238 534 237 563 Q 237 591 160 636 Q 147 643 141 643 Q 135 640 133 628 Q 133 618 152 591 Z" fill="black"></path>
				<path d="M 404 658 Q 389 625 358 572 Q 354 565 359 559 Q 366 558 373 564 Q 440 625 475 648 Q 491 655 486 665 Q 479 678 458 693 Q 437 708 416 707 Q 403 706 406 687 Q 410 674 404 658 Z" fill="black"></path>
				<path d="M 322 426 Q 425 456 427 457 Q 436 464 431 473 Q 424 483 396 490 Q 369 496 322 477 L 281 464 Q 182 437 92 424 Q 58 417 83 402 Q 126 378 186 396 Q 216 405 250 410 L 322 426 Z" fill="black"></path>
				<path d="M 320 339 Q 321 379 322 426 L 322 477 Q 326 702 345 766 Q 354 781 351 794 Q 344 804 290 837 Q 268 853 247 839 Q 243 835 249 819 Q 282 771 282 699 Q 282 500 281 464 L 278 361 Q 274 199 255 128 Q 237 77 264 10 Q 271 -8 279 -11 Q 285 -18 292 -9 Q 319 7 319 70 Q 318 104 320 313 L 320 339 Z" fill="black"></path>
				<path d="M 250 410 Q 196 304 51 142 Q 45 132 56 130 Q 74 127 180 228 Q 231 280 278 361 C 317 428 270 448 250 410 Z" fill="black"></path>
				<path d="M 320 313 Q 326 309 335 302 Q 363 283 395 257 Q 405 247 418 249 Q 425 250 429 260 Q 432 272 424 294 Q 412 324 329 339 Q 323 340 320 339 C 290 336 295 330 320 313 Z" fill="black"></path>
				<path d="M 573 492 Q 588 513 691 670 Q 704 695 727 714 Q 746 733 728 748 Q 707 761 674 766 Q 643 772 631 764 Q 618 757 628 745 Q 644 714 600 607 Q 576 552 549 489 C 537 461 556 467 573 492 Z" fill="black"></path>
				<path d="M 527 485 Q 506 501 483 511 Q 476 515 471 510 Q 462 506 471 493 Q 511 400 490 197 Q 484 139 517 105 Q 518 105 520 103 Q 535 96 540 123 L 543 154 Q 542 221 540 290 L 540 318 Q 540 390 546 452 C 548 470 548 470 527 485 Z" fill="red"></path>
				<path d="M 725 140 Q 738 116 763 74 Q 773 58 783 61 Q 798 65 804 90 Q 835 168 830 267 Q 831 331 831 403 Q 832 449 853 478 Q 868 497 856 510 Q 834 529 789 546 Q 771 555 741 541 Q 684 517 573 492 L 549 489 Q 537 488 527 485 C 497 480 516 447 546 452 Q 550 452 557 453 Q 624 469 732 493 Q 750 497 759 488 Q 793 434 767 190 Q 766 171 760 165 C 751 136 710 166 725 140 Z" fill="lightgray"></path>
				<path d="M 540 290 Q 547 289 557 290 Q 651 306 721 314 Q 746 318 737 332 Q 727 348 699 352 Q 672 356 540 318 C 511 310 510 292 540 290 Z" fill="lightgray"></path>
				<path d="M 540 123 Q 543 123 547 123 Q 647 136 725 140 C 755 142 780 143 760 165 Q 750 178 728 183 Q 688 190 543 154 C 514 147 510 123 540 123 Z" fill="lightgray"></path>
</g>
		<text x="40" y="140" font-size="128" fill="#999999">8</text></g>
		<g id="id1:id3:id3" transform="matrix(1.0,0,0,1.0,3072,0.0)">			<g stroke="lightgray" stroke-width="4" transform="scale(4, 4)"> <rect x="0" y="0" width="256" height="256" fill="white" stroke-width="4"/></g>
			<g transform="scale(0.92, -0.92) translate(60, -920)">					<path d="M 152 591 Q 170 563 187 532 Q 196 516 211 513 Q 221 510 229 521 Q 238 534 237 563 Q 237 591 160 636 Q 147 643 141 643 Q 135 640 133 628 Q 133 618 152 591 Z" fill="black"></path>
				<path d="M 404 658 Q 389 625 358 572 Q 354 565 359 559 Q 366 558 373 564 Q 440 625 475 648 Q 491 655 486 665 Q 479 678 458 693 Q 437 708 416 707 Q 403 706 406 687 Q 410 674 404 658 Z" fill="black"></path>
				<path d="M 322 426 Q 425 456 427 457 Q 436 464 431 473 Q 424 483 396 490 Q 369 496 322 477 L 281 464 Q 182 437 92 424 Q 58 417 83 402 Q 126 378 186 396 Q 216 405 250 410 L 322 426 Z" fill="black"></path>
				<path d="M 320 339 Q 321 379 322 426 L 322 477 Q 326 702 345 766 Q 354 781 351 794 Q 344 804 290 837 Q 268 853 247 839 Q 243 835 249 819 Q 282 771 282 699 Q 282 500 281 464 L 278 361 Q 274 199 255 128 Q 237 77 264 10 Q 271 -8 279 -11 Q 285 -18 292 -9 Q 319 7 319 70 Q 318 104 320 313 L 320 339 Z" fill="black"></path>
				<path d="M 250 410 Q 196 304 51 142 Q 45 132 56 130 Q 74 127 180 228 Q 231 280 278 361 C 317 428 270 448 250 410 Z" fill="black"></path>
				<path d="M 320 313 Q 326 309 335 302 Q 363 283 395 257 Q 405 247 418 249 Q 425 250 429 260 Q 432 272 424 294 Q 412 324 329 339 Q 323 340 320 339 C 290 336 295 330 320 313 Z" fill="black"></path>
				<path d="M 573 492 Q 588 513 691 670 Q 704 695 727 714 Q 746 733 728 748 Q 707 761 674 766 Q 643 772 631 764 Q 618 757 628 745 Q 644 714 600 607 Q 576 552 549 489 C 537 461 556 467 573 492 Z" fill="black"></path>
				<path d="M 527 485 Q 506 501 483 511 Q 476 515 471 510 Q 462 506 471 493 Q 511 400 490 197 Q 484 139 517 105 Q 518 105 520 103 Q 535 96 540 123 L 543 154 Q 542 221 540 290 L 540 318 Q 540 390 546 452 C 548 470 548 470 527 485 Z" fill="black"></path>
				<path d="M 725 140 Q 738 116 763 74 Q 773 58 783 61 Q 798 65 804 90 Q 835 168 830 267 Q 831 331 831 403 Q 832 449 853 478 Q 868 497 856 510 Q 834 529 789 546 Q 771 555 741 541 Q 684 517 573 492 L 549 489 Q 537 488 527 485 C 497 480 516 447 546 452 Q 550 452 557 453 Q 624 469 732 493 Q 750 497 759 488 Q 793 434 767 190 Q 766 171 760 165 C 751 136 710 166 725 140 Z" fill="red"></path>
				<path d="M 540 290 Q 547 289 557 290 Q 651 306 721 314 Q 746 318 737 332 Q 727 348 699 352 Q 672 356 540 318 C 511 310 510 292 540 290 Z" fill="lightgray"></path>
				<path d="M 540 123 Q 543 123 547 123 Q 647 136 725 140 C 755 142 780 143 760 165 Q 750 178 728 183 Q 688 190 543 154 C 514 147 510 123 540 123 Z" fill="lightgray"></path>
</g>
		<text x="40" y="140" font-size="128" fill="#999999">9</text></g>
		<g id="id1:id4:id4" transform="matrix(1.0,0,0,1.0,4096,0.0)">			<g stroke="lightgray" stroke-width="4" transform="scale(4, 4)"> <rect x="0" y="0" width="256" height="256" fill="white" stroke-width="4"/></g>
			<g transform="scale(0.92, -0.92) translate(60, -920)">					<path d="M 152 591 Q 170 563 187 532 Q 196 516 211 513 Q 221 510 229 521 Q 238 534 237 563 Q 237 591 160 636 Q 147 643 141 643 Q 135 640 133 628 Q 133 618 152 591 Z" fill="black"></path>
				<path d="M 404 658 Q 389 625 358 572 Q 354 565 359 559 Q 366 558 373 564 Q 440 625 475 648 Q 491 655 486 665 Q 479 678 458 693 Q 437 708 416 707 Q 403 706 406 687 Q 410 674 404 658 Z" fill="black"></path>
				<path d="M 322 426 Q 425 456 427 457 Q 436 464 431 473 Q 424 483 396 490 Q 369 496 322 477 L 281 464 Q 182 437 92 424 Q 58 417 83 402 Q 126 378 186 396 Q 216 405 250 410 L 322 426 Z" fill="black"></path>
				<path d="M 320 339 Q 321 379 322 426 L 322 477 Q 326 702 345 766 Q 354 781 351 794 Q 344 804 290 837 Q 268 853 247 839 Q 243 835 249 819 Q 282 771 282 699 Q 282 500 281 464 L 278 361 Q 274 199 255 128 Q 237 77 264 10 Q 271 -8 279 -11 Q 285 -18 292 -9 Q 319 7 319 70 Q 318 104 320 313 L 320 339 Z" fill="black"></path>
				<path d="M 250 410 Q 196 304 51 142 Q 45 132 56 130 Q 74 127 180 228 Q 231 280 278 361 C 317 428 270 448 250 410 Z" fill="black"></path>
				<path d="M 320 313 Q 326 309 335 302 Q 363 283 395 257 Q 405 247 418 249 Q 425 250 429 260 Q 432 272 424 294 Q 412 324 329 339 Q 323 340 320 339 C 290 336 295 330 320 313 Z" fill="black"></path>
				<path d="M 573 492 Q 588 513 691 670 Q 704 695 727 714 Q 746 733 728 748 Q 707 761 674 766 Q 643 772 631 764 Q 618 757 628 745 Q 644 714 600 607 Q 576 552 549 489 C 537 461 556 467 573 492 Z" fill="black"></path>
				<path d="M 527 485 Q 506 501 483 511 Q 476 515 471 510 Q 462 506 471 493 Q 511 400 490 197 Q 484 139 517 105 Q 518 105 520 103 Q 535 96 540 123 L 543 154 Q 542 221 540 290 L 540 318 Q 540 390 546 452 C 548 470 548 470 527 485 Z" fill="black"></path>
				<path d="M 725 140 Q 738 116 763 74 Q 773 58 783 61 Q 798 65 804 90 Q 835 168 830 267 Q 831 331 831 403 Q 832 449 853 478 Q 868 497 856 510 Q 834 529 789 546 Q 771 555 741 541 Q 684 517 573 492 L 549 489 Q 537 488 527 485 C 497 480 516 447 546 452 Q 550 452 557 453 Q 624 469 732 493 Q 750 497 759 488 Q 793 434 767 190 Q 766 171 760 165 C 751 136 710 166 725 140 Z" fill="black"></path>
				<path d="M 540 290 Q 547 289 557 290 Q 651 306 721 314 Q 746 318 737 332 Q 727 348 699 352 Q 672 356 540 318 C 511 310 510 292 540 290 Z" fill="red"></path>
				<path d="M 540 123 Q 543 123 547 123 Q 647 136 725 140 C 755 142 780 143 760 165 Q 750 178 728 183 Q 688 190 543 154 C 514 147 510 123 540 123 Z" fill="lightgray"></path>
</g>
		<text x="40" y="140" font-size="128" fill="#999999">10</text></g>
</g>
	<g id="id2:id2" transform="translate(0.0,2048)">
		<g id="id2:id0:id0" transform="matrix(1.0,0,0,1.0,0,0.0)">			<g stroke="lightgray" stroke-width="4" transform="scale(4, 4)"> <rect x="0" y="0" width="256" height="256" fill="white" stroke-width="4"/></g>
			<g transform="scale(0.92, -0.92) translate(60, -920)">					<path d="M 152 591 Q 170 563 187 532 Q 196 516 211 513 Q 221 510 229 521 Q 238 534 237 563 Q 237 591 160 636 Q 147 643 141 643 Q 135 640 133 628 Q 133 618 152 591 Z" fill="black"></path>
				<path d="M 404 658 Q 389 625 358 572 Q 354 565 359 559 Q 366 558 373 564 Q 440 625 475 648 Q 491 655 486 665 Q 479 678 458 693 Q 437 708 416 707 Q 403 706 406 687 Q 410 674 404 658 Z" fill="black"></path>
				<path d="M 322 426 Q 425 456 427 457 Q 436 464 431 473 Q 424 483 396 490 Q 369 496 322 477 L 281 464 Q 182 437 92 424 Q 58 417 83 402 Q 126 378 186 396 Q 216 405 250 410 L 322 426 Z" fill="black"></path>
				<path d="M 320 339 Q 321 379 322 426 L 322 477 Q 326 702 345 766 Q 354 781 351 794 Q 344 804 290 837 Q 268 853 247 839 Q 243 835 249 819 Q 282 771 282 699 Q 282 500 281 464 L 278 361 Q 274 199 255 128 Q 237 77 264 10 Q 271 -8 279 -11 Q 285 -18 292 -9 Q 319 7 319 70 Q 318 104 320 313 L 320 339 Z" fill="black"></path>
				<path d="M 250 410 Q 196 304 51 142 Q 45 132 56 130 Q 74 127 180 228 Q 231 280 278 361 C 317 428 270 448 250 410 Z" fill="black"></path>
				<path d="M 320 313 Q 326 309 335 302 Q 363 283 395 257 Q 405 247 418 249 Q 425 250 429 260 Q 432 272 424 294 Q 412 324 329 339 Q 323 340 320 339 C 290 336 295 330 320 313 Z" fill="black"></path>
				<path d="M 573 492 Q 588 513 691 670 Q 704 695 727 714 Q 746 733 728 748 Q 707 761 674 766 Q 643 772 631 764 Q 618 757 628 745 Q 644 714 600 607 Q 576 552 549 489 C 537 461 556 467 573 492 Z" fill="black"></path>
				<path d="M 527 485 Q 506 501 483 511 Q 476 515 471 510 Q 462 506 471 493 Q 511 400 490 197 Q 484 139 517 105 Q 518 105 520 103 Q 535 96 540 123 L 543 154 Q 542 221 540 290 L 540 318 Q 540 390 546 452 C 548 470 548 470 527 485 Z" fill="black"></path>
				<path d="M 725 140 Q 738 116 763 74 Q 773 58 783 61 Q 798 65 804 90 Q 835 168 830 267 Q 831 331 831 403 Q 832 449 853 478 Q 868 497 856 510 Q 834 529 789 546 Q 771 555 741 541 Q 684 517 573 492 L 549 489 Q 537 488 527 485 C 497 480 516 447 546 452 Q 550 452 557 453 Q 624 469 732 493 Q 750 497 759 488 Q 793 434 767 190 Q 766 171 760 165 C 751 136 710 166 725 140 Z" fill="black"></path>
				<path d="M 540 290 Q 547 289 557 290 Q 651 306 721 314 Q 746 318 737 332 Q 727 348 699 352 Q 672 356 540 318 C 511 310 510 292 540 290 Z" fill="black"></path>
				<path d="M 540 123 Q 543 123 547 123 Q 647 136 725 140 C 755 142 780 143 760 165 Q 750 178 728 183 Q 688 190 543 154 C 514 147 510 123 540 123 Z" fill="red"></path>
</g>
		<text x="40" y="140" font-size="128" fill="#999999">11</text></g>
		<g id="id2:id1:id1" transform="matrix(1.0,0,0,1.0,1024,0.0)">			<g stroke="white" stroke-width="4" transform="scale(4, 4)"> <rect x="1" y="1" width="255" height="255" fill="white" stroke-width="0"/></g>
</g>
		<g id="id2:id2:id2" transform="matrix(1.0,0,0,1.0,2048,0.0)">			<g stroke="white" stroke-width="4" transform="scale(4, 4)"> <rect x="1" y="1" width="255" height="255" fill="white" stroke-width="0"/></g>
</g>
		<g id="id2:id3:id3" transform="matrix(1.0,0,0,1.0,3072,0.0)">			<g stroke="white" stroke-width="4" transform="scale(4, 4)"> <rect x="1" y="1" width="255" height="255" fill="white" stroke-width="0"/></g>
</g>
		<g id="id2:id4:id4" transform="matrix(1.0,0,0,1.0,4096,0.0)">			<g stroke="white" stroke-width="4" transform="scale(4, 4)"> <rect x="1" y="1" width="255" height="255" fill="white" stroke-width="0"/></g>
</g>
</g>
</svg>
