<?xml version="1.0" standalone="no"?>
<!DOCTYPE svg PUBLIC "-//W3C//DTD SVG 1.1//EN"
 "http://www.w3.org/Graphics/SVG/1.1/DTD/svg11.dtd">
<!-- generate by Japanese dictionary app com.asnsami.kanjidictionary -->

<svg xmlns="http://www.w3.org/2000/svg" xmlns:sodipodi="http://sodipodi.sourceforge.net/DTD/sodipodi-0.dtd" version="1.1" width="640" height="384" viewBox="0 0 5120 3072">
	<g id="id0:id0" transform="translate(0.0,0)">
		<g id="id0:id0:id0" transform="matrix(1.0,0,0,1.0,0,0.0)">			<g stroke="lightgray" stroke-width="4" transform="scale(4, 4)"> <rect x="0" y="0" width="256" height="256" fill="white" stroke-width="4"/></g>
			<g transform="scale(0.92, -0.92) translate(60, -920)">					<path d="M 571 788 Q 703 813 705 814 Q 714 821 710 829 Q 704 841 678 849 Q 651 856 569 834 Q 424 804 315 801 Q 281 798 304 781 Q 337 757 411 767 Q 471 776 537 784 L 571 788 Z" fill="red"></path>
				<path d="M 284 670 Q 274 676 236 679 Q 223 680 221 676 Q 215 669 225 654 Q 255 605 277 522 Q 283 497 299 482 Q 318 463 322 478 Q 323 485 324 497 L 321 524 Q 306 569 296 636 C 291 666 291 667 284 670 Z" fill="lightgray"></path>
				<path d="M 650 540 Q 663 518 676 510 Q 686 503 701 521 Q 711 534 740 610 Q 750 640 773 662 Q 786 674 776 688 Q 761 704 721 731 Q 702 741 687 735 Q 651 728 607 720 L 548 711 Q 499 705 444 696 L 394 688 Q 333 678 284 670 C 254 665 267 628 296 636 Q 339 648 400 659 L 444 667 Q 490 676 546 683 L 598 690 Q 611 693 626 694 Q 672 701 687 684 Q 694 675 692 666 Q 673 576 659 569 C 645 548 645 548 650 540 Z" fill="lightgray"></path>
				<path d="M 444 696 Q 444 703 445 705 Q 446 724 435 733 Q 416 748 393 755 Q 381 759 374 754 Q 368 748 374 736 Q 387 714 394 688 L 400 659 Q 404 622 415 537 C 419 507 451 512 449 542 Q 443 615 444 667 L 444 696 Z" fill="lightgray"></path>
				<path d="M 607 720 Q 608 724 610 728 Q 614 737 617 744 Q 621 753 607 766 Q 586 781 571 788 C 544 802 533 807 537 784 Q 536 780 540 772 Q 550 751 548 711 L 546 683 Q 542 625 532 556 C 528 526 561 533 568 562 Q 583 629 598 690 L 607 720 Z" fill="lightgray"></path>
				<path d="M 324 497 Q 339 496 355 498 Q 524 525 650 540 C 680 544 688 562 659 569 Q 656 570 653 571 Q 638 574 568 562 L 532 556 Q 489 550 449 542 L 415 537 Q 364 531 321 524 C 291 519 294 498 324 497 Z" fill="lightgray"></path>
				<path d="M 318 404 Q 336 388 354 368 Q 366 356 379 357 Q 389 357 393 369 Q 397 382 390 407 Q 386 422 363 432 Q 306 450 296 447 Q 292 443 293 432 Q 296 422 318 404 Z" fill="lightgray"></path>
				<path d="M 625 462 Q 603 434 561 392 Q 554 386 559 379 Q 566 378 573 380 Q 652 420 691 434 Q 707 435 705 447 Q 702 463 686 482 Q 670 501 650 505 Q 637 506 634 489 Q 635 476 625 462 Z" fill="lightgray"></path>
				<path d="M 535 297 Q 566 300 779 300 Q 798 299 802 307 Q 808 317 792 331 Q 743 368 709 361 Q 637 348 522 333 L 476 327 Q 358 315 220 300 Q 201 299 215 283 Q 228 270 244 264 Q 263 258 278 262 Q 348 281 431 289 L 535 297 Z" fill="lightgray"></path>
				<path d="M 522 333 Q 523 412 530 445 Q 533 457 526 463 Q 504 482 484 492 Q 474 496 464 489 Q 458 485 465 476 Q 478 455 476 327 L 473 262 Q 466 108 454 71 Q 445 34 477 -16 Q 487 -34 496 -38 Q 506 -39 512 -27 Q 525 4 521 34 Q 520 164 520 273 L 522 333 Z" fill="lightgray"></path>
				<path d="M 431 289 Q 367 178 139 59 Q 121 49 136 45 Q 166 38 266 82 Q 344 131 391 172 Q 422 199 473 262 C 500 295 463 341 431 289 Z" fill="lightgray"></path>
				<path d="M 520 273 Q 605 167 699 70 Q 723 45 764 42 Q 839 36 917 50 Q 936 51 939 57 Q 940 64 925 71 Q 748 141 738 146 Q 648 194 540 293 Q 537 296 535 297 C 512 317 500 298 520 273 Z" fill="lightgray"></path>
</g>
		<text x="40" y="140" font-size="128" fill="#999999">1</text></g>
		<g id="id0:id1:id1" transform="matrix(1.0,0,0,1.0,1024,0.0)">			<g stroke="lightgray" stroke-width="4" transform="scale(4, 4)"> <rect x="0" y="0" width="256" height="256" fill="white" stroke-width="4"/></g>
			<g transform="scale(0.92, -0.92) translate(60, -920)">					<path d="M 571 788 Q 703 813 705 814 Q 714 821 710 829 Q 704 841 678 849 Q 651 856 569 834 Q 424 804 315 801 Q 281 798 304 781 Q 337 757 411 767 Q 471 776 537 784 L 571 788 Z" fill="black"></path>
				<path d="M 284 670 Q 274 676 236 679 Q 223 680 221 676 Q 215 669 225 654 Q 255 605 277 522 Q 283 497 299 482 Q 318 463 322 478 Q 323 485 324 497 L 321 524 Q 306 569 296 636 C 291 666 291 667 284 670 Z" fill="red"></path>
				<path d="M 650 540 Q 663 518 676 510 Q 686 503 701 521 Q 711 534 740 610 Q 750 640 773 662 Q 786 674 776 688 Q 761 704 721 731 Q 702 741 687 735 Q 651 728 607 720 L 548 711 Q 499 705 444 696 L 394 688 Q 333 678 284 670 C 254 665 267 628 296 636 Q 339 648 400 659 L 444 667 Q 490 676 546 683 L 598 690 Q 611 693 626 694 Q 672 701 687 684 Q 694 675 692 666 Q 673 576 659 569 C 645 548 645 548 650 540 Z" fill="lightgray"></path>
				<path d="M 444 696 Q 444 703 445 705 Q 446 724 435 733 Q 416 748 393 755 Q 381 759 374 754 Q 368 748 374 736 Q 387 714 394 688 L 400 659 Q 404 622 415 537 C 419 507 451 512 449 542 Q 443 615 444 667 L 444 696 Z" fill="lightgray"></path>
				<path d="M 607 720 Q 608 724 610 728 Q 614 737 617 744 Q 621 753 607 766 Q 586 781 571 788 C 544 802 533 807 537 784 Q 536 780 540 772 Q 550 751 548 711 L 546 683 Q 542 625 532 556 C 528 526 561 533 568 562 Q 583 629 598 690 L 607 720 Z" fill="lightgray"></path>
				<path d="M 324 497 Q 339 496 355 498 Q 524 525 650 540 C 680 544 688 562 659 569 Q 656 570 653 571 Q 638 574 568 562 L 532 556 Q 489 550 449 542 L 415 537 Q 364 531 321 524 C 291 519 294 498 324 497 Z" fill="lightgray"></path>
				<path d="M 318 404 Q 336 388 354 368 Q 366 356 379 357 Q 389 357 393 369 Q 397 382 390 407 Q 386 422 363 432 Q 306 450 296 447 Q 292 443 293 432 Q 296 422 318 404 Z" fill="lightgray"></path>
				<path d="M 625 462 Q 603 434 561 392 Q 554 386 559 379 Q 566 378 573 380 Q 652 420 691 434 Q 707 435 705 447 Q 702 463 686 482 Q 670 501 650 505 Q 637 506 634 489 Q 635 476 625 462 Z" fill="lightgray"></path>
				<path d="M 535 297 Q 566 300 779 300 Q 798 299 802 307 Q 808 317 792 331 Q 743 368 709 361 Q 637 348 522 333 L 476 327 Q 358 315 220 300 Q 201 299 215 283 Q 228 270 244 264 Q 263 258 278 262 Q 348 281 431 289 L 535 297 Z" fill="lightgray"></path>
				<path d="M 522 333 Q 523 412 530 445 Q 533 457 526 463 Q 504 482 484 492 Q 474 496 464 489 Q 458 485 465 476 Q 478 455 476 327 L 473 262 Q 466 108 454 71 Q 445 34 477 -16 Q 487 -34 496 -38 Q 506 -39 512 -27 Q 525 4 521 34 Q 520 164 520 273 L 522 333 Z" fill="lightgray"></path>
				<path d="M 431 289 Q 367 178 139 59 Q 121 49 136 45 Q 166 38 266 82 Q 344 131 391 172 Q 422 199 473 262 C 500 295 463 341 431 289 Z" fill="lightgray"></path>
				<path d="M 520 273 Q 605 167 699 70 Q 723 45 764 42 Q 839 36 917 50 Q 936 51 939 57 Q 940 64 925 71 Q 748 141 738 146 Q 648 194 540 293 Q 537 296 535 297 C 512 317 500 298 520 273 Z" fill="lightgray"></path>
</g>
		<text x="40" y="140" font-size="128" fill="#999999">2</text></g>
		<g id="id0:id2:id2" transform="matrix(1.0,0,0,1.0,2048,0.0)">			<g stroke="lightgray" stroke-width="4" transform="scale(4, 4)"> <rect x="0" y="0" width="256" height="256" fill="white" stroke-width="4"/></g>
			<g transform="scale(0.92, -0.92) translate(60, -920)">					<path d="M 571 788 Q 703 813 705 814 Q 714 821 710 829 Q 704 841 678 849 Q 651 856 569 834 Q 424 804 315 801 Q 281 798 304 781 Q 337 757 411 767 Q 471 776 537 784 L 571 788 Z" fill="black"></path>
				<path d="M 284 670 Q 274 676 236 679 Q 223 680 221 676 Q 215 669 225 654 Q 255 605 277 522 Q 283 497 299 482 Q 318 463 322 478 Q 323 485 324 497 L 321 524 Q 306 569 296 636 C 291 666 291 667 284 670 Z" fill="black"></path>
				<path d="M 650 540 Q 663 518 676 510 Q 686 503 701 521 Q 711 534 740 610 Q 750 640 773 662 Q 786 674 776 688 Q 761 704 721 731 Q 702 741 687 735 Q 651 728 607 720 L 548 711 Q 499 705 444 696 L 394 688 Q 333 678 284 670 C 254 665 267 628 296 636 Q 339 648 400 659 L 444 667 Q 490 676 546 683 L 598 690 Q 611 693 626 694 Q 672 701 687 684 Q 694 675 692 666 Q 673 576 659 569 C 645 548 645 548 650 540 Z" fill="red"></path>
				<path d="M 444 696 Q 444 703 445 705 Q 446 724 435 733 Q 416 748 393 755 Q 381 759 374 754 Q 368 748 374 736 Q 387 714 394 688 L 400 659 Q 404 622 415 537 C 419 507 451 512 449 542 Q 443 615 444 667 L 444 696 Z" fill="lightgray"></path>
				<path d="M 607 720 Q 608 724 610 728 Q 614 737 617 744 Q 621 753 607 766 Q 586 781 571 788 C 544 802 533 807 537 784 Q 536 780 540 772 Q 550 751 548 711 L 546 683 Q 542 625 532 556 C 528 526 561 533 568 562 Q 583 629 598 690 L 607 720 Z" fill="lightgray"></path>
				<path d="M 324 497 Q 339 496 355 498 Q 524 525 650 540 C 680 544 688 562 659 569 Q 656 570 653 571 Q 638 574 568 562 L 532 556 Q 489 550 449 542 L 415 537 Q 364 531 321 524 C 291 519 294 498 324 497 Z" fill="lightgray"></path>
				<path d="M 318 404 Q 336 388 354 368 Q 366 356 379 357 Q 389 357 393 369 Q 397 382 390 407 Q 386 422 363 432 Q 306 450 296 447 Q 292 443 293 432 Q 296 422 318 404 Z" fill="lightgray"></path>
				<path d="M 625 462 Q 603 434 561 392 Q 554 386 559 379 Q 566 378 573 380 Q 652 420 691 434 Q 707 435 705 447 Q 702 463 686 482 Q 670 501 650 505 Q 637 506 634 489 Q 635 476 625 462 Z" fill="lightgray"></path>
				<path d="M 535 297 Q 566 300 779 300 Q 798 299 802 307 Q 808 317 792 331 Q 743 368 709 361 Q 637 348 522 333 L 476 327 Q 358 315 220 300 Q 201 299 215 283 Q 228 270 244 264 Q 263 258 278 262 Q 348 281 431 289 L 535 297 Z" fill="lightgray"></path>
				<path d="M 522 333 Q 523 412 530 445 Q 533 457 526 463 Q 504 482 484 492 Q 474 496 464 489 Q 458 485 465 476 Q 478 455 476 327 L 473 262 Q 466 108 454 71 Q 445 34 477 -16 Q 487 -34 496 -38 Q 506 -39 512 -27 Q 525 4 521 34 Q 520 164 520 273 L 522 333 Z" fill="lightgray"></path>
				<path d="M 431 289 Q 367 178 139 59 Q 121 49 136 45 Q 166 38 266 82 Q 344 131 391 172 Q 422 199 473 262 C 500 295 463 341 431 289 Z" fill="lightgray"></path>
				<path d="M 520 273 Q 605 167 699 70 Q 723 45 764 42 Q 839 36 917 50 Q 936 51 939 57 Q 940 64 925 71 Q 748 141 738 146 Q 648 194 540 293 Q 537 296 535 297 C 512 317 500 298 520 273 Z" fill="lightgray"></path>
</g>
		<text x="40" y="140" font-size="128" fill="#999999">3</text></g>
		<g id="id0:id3:id3" transform="matrix(1.0,0,0,1.0,3072,0.0)">			<g stroke="lightgray" stroke-width="4" transform="scale(4, 4)"> <rect x="0" y="0" width="256" height="256" fill="white" stroke-width="4"/></g>
			<g transform="scale(0.92, -0.92) translate(60, -920)">					<path d="M 571 788 Q 703 813 705 814 Q 714 821 710 829 Q 704 841 678 849 Q 651 856 569 834 Q 424 804 315 801 Q 281 798 304 781 Q 337 757 411 767 Q 471 776 537 784 L 571 788 Z" fill="black"></path>
				<path d="M 284 670 Q 274 676 236 679 Q 223 680 221 676 Q 215 669 225 654 Q 255 605 277 522 Q 283 497 299 482 Q 318 463 322 478 Q 323 485 324 497 L 321 524 Q 306 569 296 636 C 291 666 291 667 284 670 Z" fill="black"></path>
				<path d="M 650 540 Q 663 518 676 510 Q 686 503 701 521 Q 711 534 740 610 Q 750 640 773 662 Q 786 674 776 688 Q 761 704 721 731 Q 702 741 687 735 Q 651 728 607 720 L 548 711 Q 499 705 444 696 L 394 688 Q 333 678 284 670 C 254 665 267 628 296 636 Q 339 648 400 659 L 444 667 Q 490 676 546 683 L 598 690 Q 611 693 626 694 Q 672 701 687 684 Q 694 675 692 666 Q 673 576 659 569 C 645 548 645 548 650 540 Z" fill="black"></path>
				<path d="M 444 696 Q 444 703 445 705 Q 446 724 435 733 Q 416 748 393 755 Q 381 759 374 754 Q 368 748 374 736 Q 387 714 394 688 L 400 659 Q 404 622 415 537 C 419 507 451 512 449 542 Q 443 615 444 667 L 444 696 Z" fill="red"></path>
				<path d="M 607 720 Q 608 724 610 728 Q 614 737 617 744 Q 621 753 607 766 Q 586 781 571 788 C 544 802 533 807 537 784 Q 536 780 540 772 Q 550 751 548 711 L 546 683 Q 542 625 532 556 C 528 526 561 533 568 562 Q 583 629 598 690 L 607 720 Z" fill="lightgray"></path>
				<path d="M 324 497 Q 339 496 355 498 Q 524 525 650 540 C 680 544 688 562 659 569 Q 656 570 653 571 Q 638 574 568 562 L 532 556 Q 489 550 449 542 L 415 537 Q 364 531 321 524 C 291 519 294 498 324 497 Z" fill="lightgray"></path>
				<path d="M 318 404 Q 336 388 354 368 Q 366 356 379 357 Q 389 357 393 369 Q 397 382 390 407 Q 386 422 363 432 Q 306 450 296 447 Q 292 443 293 432 Q 296 422 318 404 Z" fill="lightgray"></path>
				<path d="M 625 462 Q 603 434 561 392 Q 554 386 559 379 Q 566 378 573 380 Q 652 420 691 434 Q 707 435 705 447 Q 702 463 686 482 Q 670 501 650 505 Q 637 506 634 489 Q 635 476 625 462 Z" fill="lightgray"></path>
				<path d="M 535 297 Q 566 300 779 300 Q 798 299 802 307 Q 808 317 792 331 Q 743 368 709 361 Q 637 348 522 333 L 476 327 Q 358 315 220 300 Q 201 299 215 283 Q 228 270 244 264 Q 263 258 278 262 Q 348 281 431 289 L 535 297 Z" fill="lightgray"></path>
				<path d="M 522 333 Q 523 412 530 445 Q 533 457 526 463 Q 504 482 484 492 Q 474 496 464 489 Q 458 485 465 476 Q 478 455 476 327 L 473 262 Q 466 108 454 71 Q 445 34 477 -16 Q 487 -34 496 -38 Q 506 -39 512 -27 Q 525 4 521 34 Q 520 164 520 273 L 522 333 Z" fill="lightgray"></path>
				<path d="M 431 289 Q 367 178 139 59 Q 121 49 136 45 Q 166 38 266 82 Q 344 131 391 172 Q 422 199 473 262 C 500 295 463 341 431 289 Z" fill="lightgray"></path>
				<path d="M 520 273 Q 605 167 699 70 Q 723 45 764 42 Q 839 36 917 50 Q 936 51 939 57 Q 940 64 925 71 Q 748 141 738 146 Q 648 194 540 293 Q 537 296 535 297 C 512 317 500 298 520 273 Z" fill="lightgray"></path>
</g>
		<text x="40" y="140" font-size="128" fill="#999999">4</text></g>
		<g id="id0:id4:id4" transform="matrix(1.0,0,0,1.0,4096,0.0)">			<g stroke="lightgray" stroke-width="4" transform="scale(4, 4)"> <rect x="0" y="0" width="256" height="256" fill="white" stroke-width="4"/></g>
			<g transform="scale(0.92, -0.92) translate(60, -920)">					<path d="M 571 788 Q 703 813 705 814 Q 714 821 710 829 Q 704 841 678 849 Q 651 856 569 834 Q 424 804 315 801 Q 281 798 304 781 Q 337 757 411 767 Q 471 776 537 784 L 571 788 Z" fill="black"></path>
				<path d="M 284 670 Q 274 676 236 679 Q 223 680 221 676 Q 215 669 225 654 Q 255 605 277 522 Q 283 497 299 482 Q 318 463 322 478 Q 323 485 324 497 L 321 524 Q 306 569 296 636 C 291 666 291 667 284 670 Z" fill="black"></path>
				<path d="M 650 540 Q 663 518 676 510 Q 686 503 701 521 Q 711 534 740 610 Q 750 640 773 662 Q 786 674 776 688 Q 761 704 721 731 Q 702 741 687 735 Q 651 728 607 720 L 548 711 Q 499 705 444 696 L 394 688 Q 333 678 284 670 C 254 665 267 628 296 636 Q 339 648 400 659 L 444 667 Q 490 676 546 683 L 598 690 Q 611 693 626 694 Q 672 701 687 684 Q 694 675 692 666 Q 673 576 659 569 C 645 548 645 548 650 540 Z" fill="black"></path>
				<path d="M 444 696 Q 444 703 445 705 Q 446 724 435 733 Q 416 748 393 755 Q 381 759 374 754 Q 368 748 374 736 Q 387 714 394 688 L 400 659 Q 404 622 415 537 C 419 507 451 512 449 542 Q 443 615 444 667 L 444 696 Z" fill="black"></path>
				<path d="M 607 720 Q 608 724 610 728 Q 614 737 617 744 Q 621 753 607 766 Q 586 781 571 788 C 544 802 533 807 537 784 Q 536 780 540 772 Q 550 751 548 711 L 546 683 Q 542 625 532 556 C 528 526 561 533 568 562 Q 583 629 598 690 L 607 720 Z" fill="red"></path>
				<path d="M 324 497 Q 339 496 355 498 Q 524 525 650 540 C 680 544 688 562 659 569 Q 656 570 653 571 Q 638 574 568 562 L 532 556 Q 489 550 449 542 L 415 537 Q 364 531 321 524 C 291 519 294 498 324 497 Z" fill="lightgray"></path>
				<path d="M 318 404 Q 336 388 354 368 Q 366 356 379 357 Q 389 357 393 369 Q 397 382 390 407 Q 386 422 363 432 Q 306 450 296 447 Q 292 443 293 432 Q 296 422 318 404 Z" fill="lightgray"></path>
				<path d="M 625 462 Q 603 434 561 392 Q 554 386 559 379 Q 566 378 573 380 Q 652 420 691 434 Q 707 435 705 447 Q 702 463 686 482 Q 670 501 650 505 Q 637 506 634 489 Q 635 476 625 462 Z" fill="lightgray"></path>
				<path d="M 535 297 Q 566 300 779 300 Q 798 299 802 307 Q 808 317 792 331 Q 743 368 709 361 Q 637 348 522 333 L 476 327 Q 358 315 220 300 Q 201 299 215 283 Q 228 270 244 264 Q 263 258 278 262 Q 348 281 431 289 L 535 297 Z" fill="lightgray"></path>
				<path d="M 522 333 Q 523 412 530 445 Q 533 457 526 463 Q 504 482 484 492 Q 474 496 464 489 Q 458 485 465 476 Q 478 455 476 327 L 473 262 Q 466 108 454 71 Q 445 34 477 -16 Q 487 -34 496 -38 Q 506 -39 512 -27 Q 525 4 521 34 Q 520 164 520 273 L 522 333 Z" fill="lightgray"></path>
				<path d="M 431 289 Q 367 178 139 59 Q 121 49 136 45 Q 166 38 266 82 Q 344 131 391 172 Q 422 199 473 262 C 500 295 463 341 431 289 Z" fill="lightgray"></path>
				<path d="M 520 273 Q 605 167 699 70 Q 723 45 764 42 Q 839 36 917 50 Q 936 51 939 57 Q 940 64 925 71 Q 748 141 738 146 Q 648 194 540 293 Q 537 296 535 297 C 512 317 500 298 520 273 Z" fill="lightgray"></path>
</g>
		<text x="40" y="140" font-size="128" fill="#999999">5</text></g>
</g>
	<g id="id1:id1" transform="translate(0.0,1024)">
		<g id="id1:id0:id0" transform="matrix(1.0,0,0,1.0,0,0.0)">			<g stroke="lightgray" stroke-width="4" transform="scale(4, 4)"> <rect x="0" y="0" width="256" height="256" fill="white" stroke-width="4"/></g>
			<g transform="scale(0.92, -0.92) translate(60, -920)">					<path d="M 571 788 Q 703 813 705 814 Q 714 821 710 829 Q 704 841 678 849 Q 651 856 569 834 Q 424 804 315 801 Q 281 798 304 781 Q 337 757 411 767 Q 471 776 537 784 L 571 788 Z" fill="black"></path>
				<path d="M 284 670 Q 274 676 236 679 Q 223 680 221 676 Q 215 669 225 654 Q 255 605 277 522 Q 283 497 299 482 Q 318 463 322 478 Q 323 485 324 497 L 321 524 Q 306 569 296 636 C 291 666 291 667 284 670 Z" fill="black"></path>
				<path d="M 650 540 Q 663 518 676 510 Q 686 503 701 521 Q 711 534 740 610 Q 750 640 773 662 Q 786 674 776 688 Q 761 704 721 731 Q 702 741 687 735 Q 651 728 607 720 L 548 711 Q 499 705 444 696 L 394 688 Q 333 678 284 670 C 254 665 267 628 296 636 Q 339 648 400 659 L 444 667 Q 490 676 546 683 L 598 690 Q 611 693 626 694 Q 672 701 687 684 Q 694 675 692 666 Q 673 576 659 569 C 645 548 645 548 650 540 Z" fill="black"></path>
				<path d="M 444 696 Q 444 703 445 705 Q 446 724 435 733 Q 416 748 393 755 Q 381 759 374 754 Q 368 748 374 736 Q 387 714 394 688 L 400 659 Q 404 622 415 537 C 419 507 451 512 449 542 Q 443 615 444 667 L 444 696 Z" fill="black"></path>
				<path d="M 607 720 Q 608 724 610 728 Q 614 737 617 744 Q 621 753 607 766 Q 586 781 571 788 C 544 802 533 807 537 784 Q 536 780 540 772 Q 550 751 548 711 L 546 683 Q 542 625 532 556 C 528 526 561 533 568 562 Q 583 629 598 690 L 607 720 Z" fill="black"></path>
				<path d="M 324 497 Q 339 496 355 498 Q 524 525 650 540 C 680 544 688 562 659 569 Q 656 570 653 571 Q 638 574 568 562 L 532 556 Q 489 550 449 542 L 415 537 Q 364 531 321 524 C 291 519 294 498 324 497 Z" fill="red"></path>
				<path d="M 318 404 Q 336 388 354 368 Q 366 356 379 357 Q 389 357 393 369 Q 397 382 390 407 Q 386 422 363 432 Q 306 450 296 447 Q 292 443 293 432 Q 296 422 318 404 Z" fill="lightgray"></path>
				<path d="M 625 462 Q 603 434 561 392 Q 554 386 559 379 Q 566 378 573 380 Q 652 420 691 434 Q 707 435 705 447 Q 702 463 686 482 Q 670 501 650 505 Q 637 506 634 489 Q 635 476 625 462 Z" fill="lightgray"></path>
				<path d="M 535 297 Q 566 300 779 300 Q 798 299 802 307 Q 808 317 792 331 Q 743 368 709 361 Q 637 348 522 333 L 476 327 Q 358 315 220 300 Q 201 299 215 283 Q 228 270 244 264 Q 263 258 278 262 Q 348 281 431 289 L 535 297 Z" fill="lightgray"></path>
				<path d="M 522 333 Q 523 412 530 445 Q 533 457 526 463 Q 504 482 484 492 Q 474 496 464 489 Q 458 485 465 476 Q 478 455 476 327 L 473 262 Q 466 108 454 71 Q 445 34 477 -16 Q 487 -34 496 -38 Q 506 -39 512 -27 Q 525 4 521 34 Q 520 164 520 273 L 522 333 Z" fill="lightgray"></path>
				<path d="M 431 289 Q 367 178 139 59 Q 121 49 136 45 Q 166 38 266 82 Q 344 131 391 172 Q 422 199 473 262 C 500 295 463 341 431 289 Z" fill="lightgray"></path>
				<path d="M 520 273 Q 605 167 699 70 Q 723 45 764 42 Q 839 36 917 50 Q 936 51 939 57 Q 940 64 925 71 Q 748 141 738 146 Q 648 194 540 293 Q 537 296 535 297 C 512 317 500 298 520 273 Z" fill="lightgray"></path>
</g>
		<text x="40" y="140" font-size="128" fill="#999999">6</text></g>
		<g id="id1:id1:id1" transform="matrix(1.0,0,0,1.0,1024,0.0)">			<g stroke="lightgray" stroke-width="4" transform="scale(4, 4)"> <rect x="0" y="0" width="256" height="256" fill="white" stroke-width="4"/></g>
			<g transform="scale(0.92, -0.92) translate(60, -920)">					<path d="M 571 788 Q 703 813 705 814 Q 714 821 710 829 Q 704 841 678 849 Q 651 856 569 834 Q 424 804 315 801 Q 281 798 304 781 Q 337 757 411 767 Q 471 776 537 784 L 571 788 Z" fill="black"></path>
				<path d="M 284 670 Q 274 676 236 679 Q 223 680 221 676 Q 215 669 225 654 Q 255 605 277 522 Q 283 497 299 482 Q 318 463 322 478 Q 323 485 324 497 L 321 524 Q 306 569 296 636 C 291 666 291 667 284 670 Z" fill="black"></path>
				<path d="M 650 540 Q 663 518 676 510 Q 686 503 701 521 Q 711 534 740 610 Q 750 640 773 662 Q 786 674 776 688 Q 761 704 721 731 Q 702 741 687 735 Q 651 728 607 720 L 548 711 Q 499 705 444 696 L 394 688 Q 333 678 284 670 C 254 665 267 628 296 636 Q 339 648 400 659 L 444 667 Q 490 676 546 683 L 598 690 Q 611 693 626 694 Q 672 701 687 684 Q 694 675 692 666 Q 673 576 659 569 C 645 548 645 548 650 540 Z" fill="black"></path>
				<path d="M 444 696 Q 444 703 445 705 Q 446 724 435 733 Q 416 748 393 755 Q 381 759 374 754 Q 368 748 374 736 Q 387 714 394 688 L 400 659 Q 404 622 415 537 C 419 507 451 512 449 542 Q 443 615 444 667 L 444 696 Z" fill="black"></path>
				<path d="M 607 720 Q 608 724 610 728 Q 614 737 617 744 Q 621 753 607 766 Q 586 781 571 788 C 544 802 533 807 537 784 Q 536 780 540 772 Q 550 751 548 711 L 546 683 Q 542 625 532 556 C 528 526 561 533 568 562 Q 583 629 598 690 L 607 720 Z" fill="black"></path>
				<path d="M 324 497 Q 339 496 355 498 Q 524 525 650 540 C 680 544 688 562 659 569 Q 656 570 653 571 Q 638 574 568 562 L 532 556 Q 489 550 449 542 L 415 537 Q 364 531 321 524 C 291 519 294 498 324 497 Z" fill="black"></path>
				<path d="M 318 404 Q 336 388 354 368 Q 366 356 379 357 Q 389 357 393 369 Q 397 382 390 407 Q 386 422 363 432 Q 306 450 296 447 Q 292 443 293 432 Q 296 422 318 404 Z" fill="red"></path>
				<path d="M 625 462 Q 603 434 561 392 Q 554 386 559 379 Q 566 378 573 380 Q 652 420 691 434 Q 707 435 705 447 Q 702 463 686 482 Q 670 501 650 505 Q 637 506 634 489 Q 635 476 625 462 Z" fill="lightgray"></path>
				<path d="M 535 297 Q 566 300 779 300 Q 798 299 802 307 Q 808 317 792 331 Q 743 368 709 361 Q 637 348 522 333 L 476 327 Q 358 315 220 300 Q 201 299 215 283 Q 228 270 244 264 Q 263 258 278 262 Q 348 281 431 289 L 535 297 Z" fill="lightgray"></path>
				<path d="M 522 333 Q 523 412 530 445 Q 533 457 526 463 Q 504 482 484 492 Q 474 496 464 489 Q 458 485 465 476 Q 478 455 476 327 L 473 262 Q 466 108 454 71 Q 445 34 477 -16 Q 487 -34 496 -38 Q 506 -39 512 -27 Q 525 4 521 34 Q 520 164 520 273 L 522 333 Z" fill="lightgray"></path>
				<path d="M 431 289 Q 367 178 139 59 Q 121 49 136 45 Q 166 38 266 82 Q 344 131 391 172 Q 422 199 473 262 C 500 295 463 341 431 289 Z" fill="lightgray"></path>
				<path d="M 520 273 Q 605 167 699 70 Q 723 45 764 42 Q 839 36 917 50 Q 936 51 939 57 Q 940 64 925 71 Q 748 141 738 146 Q 648 194 540 293 Q 537 296 535 297 C 512 317 500 298 520 273 Z" fill="lightgray"></path>
</g>
		<text x="40" y="140" font-size="128" fill="#999999">7</text></g>
		<g id="id1:id2:id2" transform="matrix(1.0,0,0,1.0,2048,0.0)">			<g stroke="lightgray" stroke-width="4" transform="scale(4, 4)"> <rect x="0" y="0" width="256" height="256" fill="white" stroke-width="4"/></g>
			<g transform="scale(0.92, -0.92) translate(60, -920)">					<path d="M 571 788 Q 703 813 705 814 Q 714 821 710 829 Q 704 841 678 849 Q 651 856 569 834 Q 424 804 315 801 Q 281 798 304 781 Q 337 757 411 767 Q 471 776 537 784 L 571 788 Z" fill="black"></path>
				<path d="M 284 670 Q 274 676 236 679 Q 223 680 221 676 Q 215 669 225 654 Q 255 605 277 522 Q 283 497 299 482 Q 318 463 322 478 Q 323 485 324 497 L 321 524 Q 306 569 296 636 C 291 666 291 667 284 670 Z" fill="black"></path>
				<path d="M 650 540 Q 663 518 676 510 Q 686 503 701 521 Q 711 534 740 610 Q 750 640 773 662 Q 786 674 776 688 Q 761 704 721 731 Q 702 741 687 735 Q 651 728 607 720 L 548 711 Q 499 705 444 696 L 394 688 Q 333 678 284 670 C 254 665 267 628 296 636 Q 339 648 400 659 L 444 667 Q 490 676 546 683 L 598 690 Q 611 693 626 694 Q 672 701 687 684 Q 694 675 692 666 Q 673 576 659 569 C 645 548 645 548 650 540 Z" fill="black"></path>
				<path d="M 444 696 Q 444 703 445 705 Q 446 724 435 733 Q 416 748 393 755 Q 381 759 374 754 Q 368 748 374 736 Q 387 714 394 688 L 400 659 Q 404 622 415 537 C 419 507 451 512 449 542 Q 443 615 444 667 L 444 696 Z" fill="black"></path>
				<path d="M 607 720 Q 608 724 610 728 Q 614 737 617 744 Q 621 753 607 766 Q 586 781 571 788 C 544 802 533 807 537 784 Q 536 780 540 772 Q 550 751 548 711 L 546 683 Q 542 625 532 556 C 528 526 561 533 568 562 Q 583 629 598 690 L 607 720 Z" fill="black"></path>
				<path d="M 324 497 Q 339 496 355 498 Q 524 525 650 540 C 680 544 688 562 659 569 Q 656 570 653 571 Q 638 574 568 562 L 532 556 Q 489 550 449 542 L 415 537 Q 364 531 321 524 C 291 519 294 498 324 497 Z" fill="black"></path>
				<path d="M 318 404 Q 336 388 354 368 Q 366 356 379 357 Q 389 357 393 369 Q 397 382 390 407 Q 386 422 363 432 Q 306 450 296 447 Q 292 443 293 432 Q 296 422 318 404 Z" fill="black"></path>
				<path d="M 625 462 Q 603 434 561 392 Q 554 386 559 379 Q 566 378 573 380 Q 652 420 691 434 Q 707 435 705 447 Q 702 463 686 482 Q 670 501 650 505 Q 637 506 634 489 Q 635 476 625 462 Z" fill="red"></path>
				<path d="M 535 297 Q 566 300 779 300 Q 798 299 802 307 Q 808 317 792 331 Q 743 368 709 361 Q 637 348 522 333 L 476 327 Q 358 315 220 300 Q 201 299 215 283 Q 228 270 244 264 Q 263 258 278 262 Q 348 281 431 289 L 535 297 Z" fill="lightgray"></path>
				<path d="M 522 333 Q 523 412 530 445 Q 533 457 526 463 Q 504 482 484 492 Q 474 496 464 489 Q 458 485 465 476 Q 478 455 476 327 L 473 262 Q 466 108 454 71 Q 445 34 477 -16 Q 487 -34 496 -38 Q 506 -39 512 -27 Q 525 4 521 34 Q 520 164 520 273 L 522 333 Z" fill="lightgray"></path>
				<path d="M 431 289 Q 367 178 139 59 Q 121 49 136 45 Q 166 38 266 82 Q 344 131 391 172 Q 422 199 473 262 C 500 295 463 341 431 289 Z" fill="lightgray"></path>
				<path d="M 520 273 Q 605 167 699 70 Q 723 45 764 42 Q 839 36 917 50 Q 936 51 939 57 Q 940 64 925 71 Q 748 141 738 146 Q 648 194 540 293 Q 537 296 535 297 C 512 317 500 298 520 273 Z" fill="lightgray"></path>
</g>
		<text x="40" y="140" font-size="128" fill="#999999">8</text></g>
		<g id="id1:id3:id3" transform="matrix(1.0,0,0,1.0,3072,0.0)">			<g stroke="lightgray" stroke-width="4" transform="scale(4, 4)"> <rect x="0" y="0" width="256" height="256" fill="white" stroke-width="4"/></g>
			<g transform="scale(0.92, -0.92) translate(60, -920)">					<path d="M 571 788 Q 703 813 705 814 Q 714 821 710 829 Q 704 841 678 849 Q 651 856 569 834 Q 424 804 315 801 Q 281 798 304 781 Q 337 757 411 767 Q 471 776 537 784 L 571 788 Z" fill="black"></path>
				<path d="M 284 670 Q 274 676 236 679 Q 223 680 221 676 Q 215 669 225 654 Q 255 605 277 522 Q 283 497 299 482 Q 318 463 322 478 Q 323 485 324 497 L 321 524 Q 306 569 296 636 C 291 666 291 667 284 670 Z" fill="black"></path>
				<path d="M 650 540 Q 663 518 676 510 Q 686 503 701 521 Q 711 534 740 610 Q 750 640 773 662 Q 786 674 776 688 Q 761 704 721 731 Q 702 741 687 735 Q 651 728 607 720 L 548 711 Q 499 705 444 696 L 394 688 Q 333 678 284 670 C 254 665 267 628 296 636 Q 339 648 400 659 L 444 667 Q 490 676 546 683 L 598 690 Q 611 693 626 694 Q 672 701 687 684 Q 694 675 692 666 Q 673 576 659 569 C 645 548 645 548 650 540 Z" fill="black"></path>
				<path d="M 444 696 Q 444 703 445 705 Q 446 724 435 733 Q 416 748 393 755 Q 381 759 374 754 Q 368 748 374 736 Q 387 714 394 688 L 400 659 Q 404 622 415 537 C 419 507 451 512 449 542 Q 443 615 444 667 L 444 696 Z" fill="black"></path>
				<path d="M 607 720 Q 608 724 610 728 Q 614 737 617 744 Q 621 753 607 766 Q 586 781 571 788 C 544 802 533 807 537 784 Q 536 780 540 772 Q 550 751 548 711 L 546 683 Q 542 625 532 556 C 528 526 561 533 568 562 Q 583 629 598 690 L 607 720 Z" fill="black"></path>
				<path d="M 324 497 Q 339 496 355 498 Q 524 525 650 540 C 680 544 688 562 659 569 Q 656 570 653 571 Q 638 574 568 562 L 532 556 Q 489 550 449 542 L 415 537 Q 364 531 321 524 C 291 519 294 498 324 497 Z" fill="black"></path>
				<path d="M 318 404 Q 336 388 354 368 Q 366 356 379 357 Q 389 357 393 369 Q 397 382 390 407 Q 386 422 363 432 Q 306 450 296 447 Q 292 443 293 432 Q 296 422 318 404 Z" fill="black"></path>
				<path d="M 625 462 Q 603 434 561 392 Q 554 386 559 379 Q 566 378 573 380 Q 652 420 691 434 Q 707 435 705 447 Q 702 463 686 482 Q 670 501 650 505 Q 637 506 634 489 Q 635 476 625 462 Z" fill="black"></path>
				<path d="M 535 297 Q 566 300 779 300 Q 798 299 802 307 Q 808 317 792 331 Q 743 368 709 361 Q 637 348 522 333 L 476 327 Q 358 315 220 300 Q 201 299 215 283 Q 228 270 244 264 Q 263 258 278 262 Q 348 281 431 289 L 535 297 Z" fill="red"></path>
				<path d="M 522 333 Q 523 412 530 445 Q 533 457 526 463 Q 504 482 484 492 Q 474 496 464 489 Q 458 485 465 476 Q 478 455 476 327 L 473 262 Q 466 108 454 71 Q 445 34 477 -16 Q 487 -34 496 -38 Q 506 -39 512 -27 Q 525 4 521 34 Q 520 164 520 273 L 522 333 Z" fill="lightgray"></path>
				<path d="M 431 289 Q 367 178 139 59 Q 121 49 136 45 Q 166 38 266 82 Q 344 131 391 172 Q 422 199 473 262 C 500 295 463 341 431 289 Z" fill="lightgray"></path>
				<path d="M 520 273 Q 605 167 699 70 Q 723 45 764 42 Q 839 36 917 50 Q 936 51 939 57 Q 940 64 925 71 Q 748 141 738 146 Q 648 194 540 293 Q 537 296 535 297 C 512 317 500 298 520 273 Z" fill="lightgray"></path>
</g>
		<text x="40" y="140" font-size="128" fill="#999999">9</text></g>
		<g id="id1:id4:id4" transform="matrix(1.0,0,0,1.0,4096,0.0)">			<g stroke="lightgray" stroke-width="4" transform="scale(4, 4)"> <rect x="0" y="0" width="256" height="256" fill="white" stroke-width="4"/></g>
			<g transform="scale(0.92, -0.92) translate(60, -920)">					<path d="M 571 788 Q 703 813 705 814 Q 714 821 710 829 Q 704 841 678 849 Q 651 856 569 834 Q 424 804 315 801 Q 281 798 304 781 Q 337 757 411 767 Q 471 776 537 784 L 571 788 Z" fill="black"></path>
				<path d="M 284 670 Q 274 676 236 679 Q 223 680 221 676 Q 215 669 225 654 Q 255 605 277 522 Q 283 497 299 482 Q 318 463 322 478 Q 323 485 324 497 L 321 524 Q 306 569 296 636 C 291 666 291 667 284 670 Z" fill="black"></path>
				<path d="M 650 540 Q 663 518 676 510 Q 686 503 701 521 Q 711 534 740 610 Q 750 640 773 662 Q 786 674 776 688 Q 761 704 721 731 Q 702 741 687 735 Q 651 728 607 720 L 548 711 Q 499 705 444 696 L 394 688 Q 333 678 284 670 C 254 665 267 628 296 636 Q 339 648 400 659 L 444 667 Q 490 676 546 683 L 598 690 Q 611 693 626 694 Q 672 701 687 684 Q 694 675 692 666 Q 673 576 659 569 C 645 548 645 548 650 540 Z" fill="black"></path>
				<path d="M 444 696 Q 444 703 445 705 Q 446 724 435 733 Q 416 748 393 755 Q 381 759 374 754 Q 368 748 374 736 Q 387 714 394 688 L 400 659 Q 404 622 415 537 C 419 507 451 512 449 542 Q 443 615 444 667 L 444 696 Z" fill="black"></path>
				<path d="M 607 720 Q 608 724 610 728 Q 614 737 617 744 Q 621 753 607 766 Q 586 781 571 788 C 544 802 533 807 537 784 Q 536 780 540 772 Q 550 751 548 711 L 546 683 Q 542 625 532 556 C 528 526 561 533 568 562 Q 583 629 598 690 L 607 720 Z" fill="black"></path>
				<path d="M 324 497 Q 339 496 355 498 Q 524 525 650 540 C 680 544 688 562 659 569 Q 656 570 653 571 Q 638 574 568 562 L 532 556 Q 489 550 449 542 L 415 537 Q 364 531 321 524 C 291 519 294 498 324 497 Z" fill="black"></path>
				<path d="M 318 404 Q 336 388 354 368 Q 366 356 379 357 Q 389 357 393 369 Q 397 382 390 407 Q 386 422 363 432 Q 306 450 296 447 Q 292 443 293 432 Q 296 422 318 404 Z" fill="black"></path>
				<path d="M 625 462 Q 603 434 561 392 Q 554 386 559 379 Q 566 378 573 380 Q 652 420 691 434 Q 707 435 705 447 Q 702 463 686 482 Q 670 501 650 505 Q 637 506 634 489 Q 635 476 625 462 Z" fill="black"></path>
				<path d="M 535 297 Q 566 300 779 300 Q 798 299 802 307 Q 808 317 792 331 Q 743 368 709 361 Q 637 348 522 333 L 476 327 Q 358 315 220 300 Q 201 299 215 283 Q 228 270 244 264 Q 263 258 278 262 Q 348 281 431 289 L 535 297 Z" fill="black"></path>
				<path d="M 522 333 Q 523 412 530 445 Q 533 457 526 463 Q 504 482 484 492 Q 474 496 464 489 Q 458 485 465 476 Q 478 455 476 327 L 473 262 Q 466 108 454 71 Q 445 34 477 -16 Q 487 -34 496 -38 Q 506 -39 512 -27 Q 525 4 521 34 Q 520 164 520 273 L 522 333 Z" fill="red"></path>
				<path d="M 431 289 Q 367 178 139 59 Q 121 49 136 45 Q 166 38 266 82 Q 344 131 391 172 Q 422 199 473 262 C 500 295 463 341 431 289 Z" fill="lightgray"></path>
				<path d="M 520 273 Q 605 167 699 70 Q 723 45 764 42 Q 839 36 917 50 Q 936 51 939 57 Q 940 64 925 71 Q 748 141 738 146 Q 648 194 540 293 Q 537 296 535 297 C 512 317 500 298 520 273 Z" fill="lightgray"></path>
</g>
		<text x="40" y="140" font-size="128" fill="#999999">10</text></g>
</g>
	<g id="id2:id2" transform="translate(0.0,2048)">
		<g id="id2:id0:id0" transform="matrix(1.0,0,0,1.0,0,0.0)">			<g stroke="lightgray" stroke-width="4" transform="scale(4, 4)"> <rect x="0" y="0" width="256" height="256" fill="white" stroke-width="4"/></g>
			<g transform="scale(0.92, -0.92) translate(60, -920)">					<path d="M 571 788 Q 703 813 705 814 Q 714 821 710 829 Q 704 841 678 849 Q 651 856 569 834 Q 424 804 315 801 Q 281 798 304 781 Q 337 757 411 767 Q 471 776 537 784 L 571 788 Z" fill="black"></path>
				<path d="M 284 670 Q 274 676 236 679 Q 223 680 221 676 Q 215 669 225 654 Q 255 605 277 522 Q 283 497 299 482 Q 318 463 322 478 Q 323 485 324 497 L 321 524 Q 306 569 296 636 C 291 666 291 667 284 670 Z" fill="black"></path>
				<path d="M 650 540 Q 663 518 676 510 Q 686 503 701 521 Q 711 534 740 610 Q 750 640 773 662 Q 786 674 776 688 Q 761 704 721 731 Q 702 741 687 735 Q 651 728 607 720 L 548 711 Q 499 705 444 696 L 394 688 Q 333 678 284 670 C 254 665 267 628 296 636 Q 339 648 400 659 L 444 667 Q 490 676 546 683 L 598 690 Q 611 693 626 694 Q 672 701 687 684 Q 694 675 692 666 Q 673 576 659 569 C 645 548 645 548 650 540 Z" fill="black"></path>
				<path d="M 444 696 Q 444 703 445 705 Q 446 724 435 733 Q 416 748 393 755 Q 381 759 374 754 Q 368 748 374 736 Q 387 714 394 688 L 400 659 Q 404 622 415 537 C 419 507 451 512 449 542 Q 443 615 444 667 L 444 696 Z" fill="black"></path>
				<path d="M 607 720 Q 608 724 610 728 Q 614 737 617 744 Q 621 753 607 766 Q 586 781 571 788 C 544 802 533 807 537 784 Q 536 780 540 772 Q 550 751 548 711 L 546 683 Q 542 625 532 556 C 528 526 561 533 568 562 Q 583 629 598 690 L 607 720 Z" fill="black"></path>
				<path d="M 324 497 Q 339 496 355 498 Q 524 525 650 540 C 680 544 688 562 659 569 Q 656 570 653 571 Q 638 574 568 562 L 532 556 Q 489 550 449 542 L 415 537 Q 364 531 321 524 C 291 519 294 498 324 497 Z" fill="black"></path>
				<path d="M 318 404 Q 336 388 354 368 Q 366 356 379 357 Q 389 357 393 369 Q 397 382 390 407 Q 386 422 363 432 Q 306 450 296 447 Q 292 443 293 432 Q 296 422 318 404 Z" fill="black"></path>
				<path d="M 625 462 Q 603 434 561 392 Q 554 386 559 379 Q 566 378 573 380 Q 652 420 691 434 Q 707 435 705 447 Q 702 463 686 482 Q 670 501 650 505 Q 637 506 634 489 Q 635 476 625 462 Z" fill="black"></path>
				<path d="M 535 297 Q 566 300 779 300 Q 798 299 802 307 Q 808 317 792 331 Q 743 368 709 361 Q 637 348 522 333 L 476 327 Q 358 315 220 300 Q 201 299 215 283 Q 228 270 244 264 Q 263 258 278 262 Q 348 281 431 289 L 535 297 Z" fill="black"></path>
				<path d="M 522 333 Q 523 412 530 445 Q 533 457 526 463 Q 504 482 484 492 Q 474 496 464 489 Q 458 485 465 476 Q 478 455 476 327 L 473 262 Q 466 108 454 71 Q 445 34 477 -16 Q 487 -34 496 -38 Q 506 -39 512 -27 Q 525 4 521 34 Q 520 164 520 273 L 522 333 Z" fill="black"></path>
				<path d="M 431 289 Q 367 178 139 59 Q 121 49 136 45 Q 166 38 266 82 Q 344 131 391 172 Q 422 199 473 262 C 500 295 463 341 431 289 Z" fill="red"></path>
				<path d="M 520 273 Q 605 167 699 70 Q 723 45 764 42 Q 839 36 917 50 Q 936 51 939 57 Q 940 64 925 71 Q 748 141 738 146 Q 648 194 540 293 Q 537 296 535 297 C 512 317 500 298 520 273 Z" fill="lightgray"></path>
</g>
		<text x="40" y="140" font-size="128" fill="#999999">11</text></g>
		<g id="id2:id1:id1" transform="matrix(1.0,0,0,1.0,1024,0.0)">			<g stroke="lightgray" stroke-width="4" transform="scale(4, 4)"> <rect x="0" y="0" width="256" height="256" fill="white" stroke-width="4"/></g>
			<g transform="scale(0.92, -0.92) translate(60, -920)">					<path d="M 571 788 Q 703 813 705 814 Q 714 821 710 829 Q 704 841 678 849 Q 651 856 569 834 Q 424 804 315 801 Q 281 798 304 781 Q 337 757 411 767 Q 471 776 537 784 L 571 788 Z" fill="black"></path>
				<path d="M 284 670 Q 274 676 236 679 Q 223 680 221 676 Q 215 669 225 654 Q 255 605 277 522 Q 283 497 299 482 Q 318 463 322 478 Q 323 485 324 497 L 321 524 Q 306 569 296 636 C 291 666 291 667 284 670 Z" fill="black"></path>
				<path d="M 650 540 Q 663 518 676 510 Q 686 503 701 521 Q 711 534 740 610 Q 750 640 773 662 Q 786 674 776 688 Q 761 704 721 731 Q 702 741 687 735 Q 651 728 607 720 L 548 711 Q 499 705 444 696 L 394 688 Q 333 678 284 670 C 254 665 267 628 296 636 Q 339 648 400 659 L 444 667 Q 490 676 546 683 L 598 690 Q 611 693 626 694 Q 672 701 687 684 Q 694 675 692 666 Q 673 576 659 569 C 645 548 645 548 650 540 Z" fill="black"></path>
				<path d="M 444 696 Q 444 703 445 705 Q 446 724 435 733 Q 416 748 393 755 Q 381 759 374 754 Q 368 748 374 736 Q 387 714 394 688 L 400 659 Q 404 622 415 537 C 419 507 451 512 449 542 Q 443 615 444 667 L 444 696 Z" fill="black"></path>
				<path d="M 607 720 Q 608 724 610 728 Q 614 737 617 744 Q 621 753 607 766 Q 586 781 571 788 C 544 802 533 807 537 784 Q 536 780 540 772 Q 550 751 548 711 L 546 683 Q 542 625 532 556 C 528 526 561 533 568 562 Q 583 629 598 690 L 607 720 Z" fill="black"></path>
				<path d="M 324 497 Q 339 496 355 498 Q 524 525 650 540 C 680 544 688 562 659 569 Q 656 570 653 571 Q 638 574 568 562 L 532 556 Q 489 550 449 542 L 415 537 Q 364 531 321 524 C 291 519 294 498 324 497 Z" fill="black"></path>
				<path d="M 318 404 Q 336 388 354 368 Q 366 356 379 357 Q 389 357 393 369 Q 397 382 390 407 Q 386 422 363 432 Q 306 450 296 447 Q 292 443 293 432 Q 296 422 318 404 Z" fill="black"></path>
				<path d="M 625 462 Q 603 434 561 392 Q 554 386 559 379 Q 566 378 573 380 Q 652 420 691 434 Q 707 435 705 447 Q 702 463 686 482 Q 670 501 650 505 Q 637 506 634 489 Q 635 476 625 462 Z" fill="black"></path>
				<path d="M 535 297 Q 566 300 779 300 Q 798 299 802 307 Q 808 317 792 331 Q 743 368 709 361 Q 637 348 522 333 L 476 327 Q 358 315 220 300 Q 201 299 215 283 Q 228 270 244 264 Q 263 258 278 262 Q 348 281 431 289 L 535 297 Z" fill="black"></path>
				<path d="M 522 333 Q 523 412 530 445 Q 533 457 526 463 Q 504 482 484 492 Q 474 496 464 489 Q 458 485 465 476 Q 478 455 476 327 L 473 262 Q 466 108 454 71 Q 445 34 477 -16 Q 487 -34 496 -38 Q 506 -39 512 -27 Q 525 4 521 34 Q 520 164 520 273 L 522 333 Z" fill="black"></path>
				<path d="M 431 289 Q 367 178 139 59 Q 121 49 136 45 Q 166 38 266 82 Q 344 131 391 172 Q 422 199 473 262 C 500 295 463 341 431 289 Z" fill="black"></path>
				<path d="M 520 273 Q 605 167 699 70 Q 723 45 764 42 Q 839 36 917 50 Q 936 51 939 57 Q 940 64 925 71 Q 748 141 738 146 Q 648 194 540 293 Q 537 296 535 297 C 512 317 500 298 520 273 Z" fill="red"></path>
</g>
		<text x="40" y="140" font-size="128" fill="#999999">12</text></g>
		<g id="id2:id2:id2" transform="matrix(1.0,0,0,1.0,2048,0.0)">			<g stroke="white" stroke-width="4" transform="scale(4, 4)"> <rect x="1" y="1" width="255" height="255" fill="white" stroke-width="0"/></g>
</g>
		<g id="id2:id3:id3" transform="matrix(1.0,0,0,1.0,3072,0.0)">			<g stroke="white" stroke-width="4" transform="scale(4, 4)"> <rect x="1" y="1" width="255" height="255" fill="white" stroke-width="0"/></g>
</g>
		<g id="id2:id4:id4" transform="matrix(1.0,0,0,1.0,4096,0.0)">			<g stroke="white" stroke-width="4" transform="scale(4, 4)"> <rect x="1" y="1" width="255" height="255" fill="white" stroke-width="0"/></g>
</g>
</g>
</svg>
