<?xml version="1.0" standalone="no"?>
<!DOCTYPE svg PUBLIC "-//W3C//DTD SVG 1.1//EN"
 "http://www.w3.org/Graphics/SVG/1.1/DTD/svg11.dtd">
<!-- generate by Handict dictionary app com.asnsami.handict -->

<svg xmlns="http://www.w3.org/2000/svg" xmlns:sodipodi="http://sodipodi.sourceforge.net/DTD/sodipodi-0.dtd" version="1.1" width="640" height="256" viewBox="0 0 5120 2048">
	<g id="id0:id0" transform="translate(0.0,0)">
		<g id="id0:id0:id0" transform="matrix(1.0,0,0,1.0,0,0.0)">			<g stroke="lightgray" stroke-width="4" transform="scale(4, 4)"> <rect x="0" y="0" width="256" height="256" fill="white" stroke-width="4"/></g>
			<g transform="scale(0.92, -0.92) translate(60, -920)">					<path d="M 308 493 Q 259 493 217 493 Q 180 492 199 516 Q 266 636 331 725 Q 346 744 343 752 Q 339 768 297 800 Q 279 813 259 809 Q 247 805 255 789 Q 273 744 188 577 Q 169 538 129 501 Q 110 485 112 472 Q 116 453 132 433 Q 144 423 157 430 Q 205 457 291 467 C 321 471 338 493 308 493 Z" fill="red"></path>
				<path d="M 291 467 Q 195 331 171 318 Q 156 308 160 294 Q 161 281 189 261 Q 201 249 215 262 Q 278 310 386 350 Q 405 356 407 365 Q 410 375 389 371 Q 331 358 259 335 Q 234 325 249 347 Q 372 519 427 568 Q 440 578 433 588 Q 423 607 388 627 Q 372 636 361 633 Q 351 629 354 613 Q 357 576 308 493 L 291 467 Z" fill="lightgray"></path>
				<path d="M 104 139 Q 91 136 91 126 Q 90 113 100 105 Q 125 92 159 77 Q 169 76 181 85 Q 203 109 348 197 Q 367 209 382 223 Q 394 232 393 241 Q 387 245 268 195 Q 130 141 104 139 Z" fill="lightgray"></path>
				<path d="M 620 583 Q 627 653 632 734 Q 636 756 638 768 Q 645 790 623 801 Q 572 829 556 826 Q 534 823 551 799 Q 581 745 564 566 L 561 532 Q 543 415 526 365 L 513 329 Q 461 202 341 92 Q 317 79 310 61 Q 307 54 320 54 Q 338 54 360 68 Q 423 108 461 149 Q 536 228 556 287 L 574 336 Q 596 415 616 546 L 620 583 Z" fill="lightgray"></path>
				<path d="M 616 546 Q 641 555 670 563 Q 694 570 702 563 Q 708 556 702 536 Q 672 212 759 118 Q 808 54 886 28 Q 922 19 944 25 Q 965 29 958 55 Q 937 119 929 238 Q 928 254 923 255 Q 917 254 913 239 Q 907 208 901 163 Q 897 129 879 115 Q 872 108 846 121 Q 756 170 746 283 Q 737 358 760 475 Q 770 529 791 555 Q 816 574 813 586 Q 809 602 749 628 Q 730 638 711 622 Q 680 606 620 583 L 564 566 Q 485 547 438 545 Q 414 544 430 531 Q 445 518 468 515 Q 490 511 520 522 Q 539 526 561 532 L 616 546 Z" fill="lightgray"></path>
				<path d="M 526 365 Q 478 393 450 407 Q 443 411 442 402 Q 442 392 450 385 Q 480 360 513 329 L 556 287 Q 613 230 621 227 Q 627 227 633 234 Q 642 244 632 275 Q 625 303 574 336 L 526 365 Z" fill="lightgray"></path>
</g>
		<text x="40" y="140" font-size="128" fill="#999999">1</text></g>
		<g id="id0:id1:id1" transform="matrix(1.0,0,0,1.0,1024,0.0)">			<g stroke="lightgray" stroke-width="4" transform="scale(4, 4)"> <rect x="0" y="0" width="256" height="256" fill="white" stroke-width="4"/></g>
			<g transform="scale(0.92, -0.92) translate(60, -920)">					<path d="M 308 493 Q 259 493 217 493 Q 180 492 199 516 Q 266 636 331 725 Q 346 744 343 752 Q 339 768 297 800 Q 279 813 259 809 Q 247 805 255 789 Q 273 744 188 577 Q 169 538 129 501 Q 110 485 112 472 Q 116 453 132 433 Q 144 423 157 430 Q 205 457 291 467 C 321 471 338 493 308 493 Z" fill="black"></path>
				<path d="M 291 467 Q 195 331 171 318 Q 156 308 160 294 Q 161 281 189 261 Q 201 249 215 262 Q 278 310 386 350 Q 405 356 407 365 Q 410 375 389 371 Q 331 358 259 335 Q 234 325 249 347 Q 372 519 427 568 Q 440 578 433 588 Q 423 607 388 627 Q 372 636 361 633 Q 351 629 354 613 Q 357 576 308 493 L 291 467 Z" fill="red"></path>
				<path d="M 104 139 Q 91 136 91 126 Q 90 113 100 105 Q 125 92 159 77 Q 169 76 181 85 Q 203 109 348 197 Q 367 209 382 223 Q 394 232 393 241 Q 387 245 268 195 Q 130 141 104 139 Z" fill="lightgray"></path>
				<path d="M 620 583 Q 627 653 632 734 Q 636 756 638 768 Q 645 790 623 801 Q 572 829 556 826 Q 534 823 551 799 Q 581 745 564 566 L 561 532 Q 543 415 526 365 L 513 329 Q 461 202 341 92 Q 317 79 310 61 Q 307 54 320 54 Q 338 54 360 68 Q 423 108 461 149 Q 536 228 556 287 L 574 336 Q 596 415 616 546 L 620 583 Z" fill="lightgray"></path>
				<path d="M 616 546 Q 641 555 670 563 Q 694 570 702 563 Q 708 556 702 536 Q 672 212 759 118 Q 808 54 886 28 Q 922 19 944 25 Q 965 29 958 55 Q 937 119 929 238 Q 928 254 923 255 Q 917 254 913 239 Q 907 208 901 163 Q 897 129 879 115 Q 872 108 846 121 Q 756 170 746 283 Q 737 358 760 475 Q 770 529 791 555 Q 816 574 813 586 Q 809 602 749 628 Q 730 638 711 622 Q 680 606 620 583 L 564 566 Q 485 547 438 545 Q 414 544 430 531 Q 445 518 468 515 Q 490 511 520 522 Q 539 526 561 532 L 616 546 Z" fill="lightgray"></path>
				<path d="M 526 365 Q 478 393 450 407 Q 443 411 442 402 Q 442 392 450 385 Q 480 360 513 329 L 556 287 Q 613 230 621 227 Q 627 227 633 234 Q 642 244 632 275 Q 625 303 574 336 L 526 365 Z" fill="lightgray"></path>
</g>
		<text x="40" y="140" font-size="128" fill="#999999">2</text></g>
		<g id="id0:id2:id2" transform="matrix(1.0,0,0,1.0,2048,0.0)">			<g stroke="lightgray" stroke-width="4" transform="scale(4, 4)"> <rect x="0" y="0" width="256" height="256" fill="white" stroke-width="4"/></g>
			<g transform="scale(0.92, -0.92) translate(60, -920)">					<path d="M 308 493 Q 259 493 217 493 Q 180 492 199 516 Q 266 636 331 725 Q 346 744 343 752 Q 339 768 297 800 Q 279 813 259 809 Q 247 805 255 789 Q 273 744 188 577 Q 169 538 129 501 Q 110 485 112 472 Q 116 453 132 433 Q 144 423 157 430 Q 205 457 291 467 C 321 471 338 493 308 493 Z" fill="black"></path>
				<path d="M 291 467 Q 195 331 171 318 Q 156 308 160 294 Q 161 281 189 261 Q 201 249 215 262 Q 278 310 386 350 Q 405 356 407 365 Q 410 375 389 371 Q 331 358 259 335 Q 234 325 249 347 Q 372 519 427 568 Q 440 578 433 588 Q 423 607 388 627 Q 372 636 361 633 Q 351 629 354 613 Q 357 576 308 493 L 291 467 Z" fill="black"></path>
				<path d="M 104 139 Q 91 136 91 126 Q 90 113 100 105 Q 125 92 159 77 Q 169 76 181 85 Q 203 109 348 197 Q 367 209 382 223 Q 394 232 393 241 Q 387 245 268 195 Q 130 141 104 139 Z" fill="red"></path>
				<path d="M 620 583 Q 627 653 632 734 Q 636 756 638 768 Q 645 790 623 801 Q 572 829 556 826 Q 534 823 551 799 Q 581 745 564 566 L 561 532 Q 543 415 526 365 L 513 329 Q 461 202 341 92 Q 317 79 310 61 Q 307 54 320 54 Q 338 54 360 68 Q 423 108 461 149 Q 536 228 556 287 L 574 336 Q 596 415 616 546 L 620 583 Z" fill="lightgray"></path>
				<path d="M 616 546 Q 641 555 670 563 Q 694 570 702 563 Q 708 556 702 536 Q 672 212 759 118 Q 808 54 886 28 Q 922 19 944 25 Q 965 29 958 55 Q 937 119 929 238 Q 928 254 923 255 Q 917 254 913 239 Q 907 208 901 163 Q 897 129 879 115 Q 872 108 846 121 Q 756 170 746 283 Q 737 358 760 475 Q 770 529 791 555 Q 816 574 813 586 Q 809 602 749 628 Q 730 638 711 622 Q 680 606 620 583 L 564 566 Q 485 547 438 545 Q 414 544 430 531 Q 445 518 468 515 Q 490 511 520 522 Q 539 526 561 532 L 616 546 Z" fill="lightgray"></path>
				<path d="M 526 365 Q 478 393 450 407 Q 443 411 442 402 Q 442 392 450 385 Q 480 360 513 329 L 556 287 Q 613 230 621 227 Q 627 227 633 234 Q 642 244 632 275 Q 625 303 574 336 L 526 365 Z" fill="lightgray"></path>
</g>
		<text x="40" y="140" font-size="128" fill="#999999">3</text></g>
		<g id="id0:id3:id3" transform="matrix(1.0,0,0,1.0,3072,0.0)">			<g stroke="lightgray" stroke-width="4" transform="scale(4, 4)"> <rect x="0" y="0" width="256" height="256" fill="white" stroke-width="4"/></g>
			<g transform="scale(0.92, -0.92) translate(60, -920)">					<path d="M 308 493 Q 259 493 217 493 Q 180 492 199 516 Q 266 636 331 725 Q 346 744 343 752 Q 339 768 297 800 Q 279 813 259 809 Q 247 805 255 789 Q 273 744 188 577 Q 169 538 129 501 Q 110 485 112 472 Q 116 453 132 433 Q 144 423 157 430 Q 205 457 291 467 C 321 471 338 493 308 493 Z" fill="black"></path>
				<path d="M 291 467 Q 195 331 171 318 Q 156 308 160 294 Q 161 281 189 261 Q 201 249 215 262 Q 278 310 386 350 Q 405 356 407 365 Q 410 375 389 371 Q 331 358 259 335 Q 234 325 249 347 Q 372 519 427 568 Q 440 578 433 588 Q 423 607 388 627 Q 372 636 361 633 Q 351 629 354 613 Q 357 576 308 493 L 291 467 Z" fill="black"></path>
				<path d="M 104 139 Q 91 136 91 126 Q 90 113 100 105 Q 125 92 159 77 Q 169 76 181 85 Q 203 109 348 197 Q 367 209 382 223 Q 394 232 393 241 Q 387 245 268 195 Q 130 141 104 139 Z" fill="black"></path>
				<path d="M 620 583 Q 627 653 632 734 Q 636 756 638 768 Q 645 790 623 801 Q 572 829 556 826 Q 534 823 551 799 Q 581 745 564 566 L 561 532 Q 543 415 526 365 L 513 329 Q 461 202 341 92 Q 317 79 310 61 Q 307 54 320 54 Q 338 54 360 68 Q 423 108 461 149 Q 536 228 556 287 L 574 336 Q 596 415 616 546 L 620 583 Z" fill="red"></path>
				<path d="M 616 546 Q 641 555 670 563 Q 694 570 702 563 Q 708 556 702 536 Q 672 212 759 118 Q 808 54 886 28 Q 922 19 944 25 Q 965 29 958 55 Q 937 119 929 238 Q 928 254 923 255 Q 917 254 913 239 Q 907 208 901 163 Q 897 129 879 115 Q 872 108 846 121 Q 756 170 746 283 Q 737 358 760 475 Q 770 529 791 555 Q 816 574 813 586 Q 809 602 749 628 Q 730 638 711 622 Q 680 606 620 583 L 564 566 Q 485 547 438 545 Q 414 544 430 531 Q 445 518 468 515 Q 490 511 520 522 Q 539 526 561 532 L 616 546 Z" fill="lightgray"></path>
				<path d="M 526 365 Q 478 393 450 407 Q 443 411 442 402 Q 442 392 450 385 Q 480 360 513 329 L 556 287 Q 613 230 621 227 Q 627 227 633 234 Q 642 244 632 275 Q 625 303 574 336 L 526 365 Z" fill="lightgray"></path>
</g>
		<text x="40" y="140" font-size="128" fill="#999999">4</text></g>
		<g id="id0:id4:id4" transform="matrix(1.0,0,0,1.0,4096,0.0)">			<g stroke="lightgray" stroke-width="4" transform="scale(4, 4)"> <rect x="0" y="0" width="256" height="256" fill="white" stroke-width="4"/></g>
			<g transform="scale(0.92, -0.92) translate(60, -920)">					<path d="M 308 493 Q 259 493 217 493 Q 180 492 199 516 Q 266 636 331 725 Q 346 744 343 752 Q 339 768 297 800 Q 279 813 259 809 Q 247 805 255 789 Q 273 744 188 577 Q 169 538 129 501 Q 110 485 112 472 Q 116 453 132 433 Q 144 423 157 430 Q 205 457 291 467 C 321 471 338 493 308 493 Z" fill="black"></path>
				<path d="M 291 467 Q 195 331 171 318 Q 156 308 160 294 Q 161 281 189 261 Q 201 249 215 262 Q 278 310 386 350 Q 405 356 407 365 Q 410 375 389 371 Q 331 358 259 335 Q 234 325 249 347 Q 372 519 427 568 Q 440 578 433 588 Q 423 607 388 627 Q 372 636 361 633 Q 351 629 354 613 Q 357 576 308 493 L 291 467 Z" fill="black"></path>
				<path d="M 104 139 Q 91 136 91 126 Q 90 113 100 105 Q 125 92 159 77 Q 169 76 181 85 Q 203 109 348 197 Q 367 209 382 223 Q 394 232 393 241 Q 387 245 268 195 Q 130 141 104 139 Z" fill="black"></path>
				<path d="M 620 583 Q 627 653 632 734 Q 636 756 638 768 Q 645 790 623 801 Q 572 829 556 826 Q 534 823 551 799 Q 581 745 564 566 L 561 532 Q 543 415 526 365 L 513 329 Q 461 202 341 92 Q 317 79 310 61 Q 307 54 320 54 Q 338 54 360 68 Q 423 108 461 149 Q 536 228 556 287 L 574 336 Q 596 415 616 546 L 620 583 Z" fill="black"></path>
				<path d="M 616 546 Q 641 555 670 563 Q 694 570 702 563 Q 708 556 702 536 Q 672 212 759 118 Q 808 54 886 28 Q 922 19 944 25 Q 965 29 958 55 Q 937 119 929 238 Q 928 254 923 255 Q 917 254 913 239 Q 907 208 901 163 Q 897 129 879 115 Q 872 108 846 121 Q 756 170 746 283 Q 737 358 760 475 Q 770 529 791 555 Q 816 574 813 586 Q 809 602 749 628 Q 730 638 711 622 Q 680 606 620 583 L 564 566 Q 485 547 438 545 Q 414 544 430 531 Q 445 518 468 515 Q 490 511 520 522 Q 539 526 561 532 L 616 546 Z" fill="red"></path>
				<path d="M 526 365 Q 478 393 450 407 Q 443 411 442 402 Q 442 392 450 385 Q 480 360 513 329 L 556 287 Q 613 230 621 227 Q 627 227 633 234 Q 642 244 632 275 Q 625 303 574 336 L 526 365 Z" fill="lightgray"></path>
</g>
		<text x="40" y="140" font-size="128" fill="#999999">5</text></g>
</g>
	<g id="id1:id1" transform="translate(0.0,1024)">
		<g id="id1:id0:id0" transform="matrix(1.0,0,0,1.0,0,0.0)">			<g stroke="lightgray" stroke-width="4" transform="scale(4, 4)"> <rect x="0" y="0" width="256" height="256" fill="white" stroke-width="4"/></g>
			<g transform="scale(0.92, -0.92) translate(60, -920)">					<path d="M 308 493 Q 259 493 217 493 Q 180 492 199 516 Q 266 636 331 725 Q 346 744 343 752 Q 339 768 297 800 Q 279 813 259 809 Q 247 805 255 789 Q 273 744 188 577 Q 169 538 129 501 Q 110 485 112 472 Q 116 453 132 433 Q 144 423 157 430 Q 205 457 291 467 C 321 471 338 493 308 493 Z" fill="black"></path>
				<path d="M 291 467 Q 195 331 171 318 Q 156 308 160 294 Q 161 281 189 261 Q 201 249 215 262 Q 278 310 386 350 Q 405 356 407 365 Q 410 375 389 371 Q 331 358 259 335 Q 234 325 249 347 Q 372 519 427 568 Q 440 578 433 588 Q 423 607 388 627 Q 372 636 361 633 Q 351 629 354 613 Q 357 576 308 493 L 291 467 Z" fill="black"></path>
				<path d="M 104 139 Q 91 136 91 126 Q 90 113 100 105 Q 125 92 159 77 Q 169 76 181 85 Q 203 109 348 197 Q 367 209 382 223 Q 394 232 393 241 Q 387 245 268 195 Q 130 141 104 139 Z" fill="black"></path>
				<path d="M 620 583 Q 627 653 632 734 Q 636 756 638 768 Q 645 790 623 801 Q 572 829 556 826 Q 534 823 551 799 Q 581 745 564 566 L 561 532 Q 543 415 526 365 L 513 329 Q 461 202 341 92 Q 317 79 310 61 Q 307 54 320 54 Q 338 54 360 68 Q 423 108 461 149 Q 536 228 556 287 L 574 336 Q 596 415 616 546 L 620 583 Z" fill="black"></path>
				<path d="M 616 546 Q 641 555 670 563 Q 694 570 702 563 Q 708 556 702 536 Q 672 212 759 118 Q 808 54 886 28 Q 922 19 944 25 Q 965 29 958 55 Q 937 119 929 238 Q 928 254 923 255 Q 917 254 913 239 Q 907 208 901 163 Q 897 129 879 115 Q 872 108 846 121 Q 756 170 746 283 Q 737 358 760 475 Q 770 529 791 555 Q 816 574 813 586 Q 809 602 749 628 Q 730 638 711 622 Q 680 606 620 583 L 564 566 Q 485 547 438 545 Q 414 544 430 531 Q 445 518 468 515 Q 490 511 520 522 Q 539 526 561 532 L 616 546 Z" fill="black"></path>
				<path d="M 526 365 Q 478 393 450 407 Q 443 411 442 402 Q 442 392 450 385 Q 480 360 513 329 L 556 287 Q 613 230 621 227 Q 627 227 633 234 Q 642 244 632 275 Q 625 303 574 336 L 526 365 Z" fill="red"></path>
</g>
		<text x="40" y="140" font-size="128" fill="#999999">6</text></g>
		<g id="id1:id1:id1" transform="matrix(1.0,0,0,1.0,1024,0.0)">			<g stroke="white" stroke-width="4" transform="scale(4, 4)"> <rect x="1" y="1" width="255" height="255" fill="white" stroke-width="0"/></g>
</g>
		<g id="id1:id2:id2" transform="matrix(1.0,0,0,1.0,2048,0.0)">			<g stroke="white" stroke-width="4" transform="scale(4, 4)"> <rect x="1" y="1" width="255" height="255" fill="white" stroke-width="0"/></g>
</g>
		<g id="id1:id3:id3" transform="matrix(1.0,0,0,1.0,3072,0.0)">			<g stroke="white" stroke-width="4" transform="scale(4, 4)"> <rect x="1" y="1" width="255" height="255" fill="white" stroke-width="0"/></g>
</g>
		<g id="id1:id4:id4" transform="matrix(1.0,0,0,1.0,4096,0.0)">			<g stroke="white" stroke-width="4" transform="scale(4, 4)"> <rect x="1" y="1" width="255" height="255" fill="white" stroke-width="0"/></g>
</g>
</g>
</svg>
