<?xml version="1.0" standalone="no"?>
<!DOCTYPE svg PUBLIC "-//W3C//DTD SVG 1.1//EN"
 "http://www.w3.org/Graphics/SVG/1.1/DTD/svg11.dtd">
<!-- generate by Handict dictionary app com.asnsami.handict -->

<svg xmlns="http://www.w3.org/2000/svg" xmlns:sodipodi="http://sodipodi.sourceforge.net/DTD/sodipodi-0.dtd" version="1.1" width="640" height="256" viewBox="0 0 5120 2048">
	<g id="id0:id0" transform="translate(0.0,0)">
		<g id="id0:id0:id0" transform="matrix(1.0,0,0,1.0,0,0.0)">			<g stroke="lightgray" stroke-width="4" transform="scale(4, 4)"> <rect x="0" y="0" width="256" height="256" fill="white" stroke-width="4"/></g>
			<g transform="scale(0.92, -0.92) translate(60, -920)">					<path d="M 291 454 Q 243 455 204 455 Q 165 454 186 478 Q 256 602 326 695 Q 339 713 337 721 Q 334 736 294 767 Q 278 780 258 777 Q 246 773 253 758 Q 272 707 168 521 Q 149 493 119 464 Q 100 449 101 437 Q 105 418 120 399 Q 130 389 143 395 Q 173 410 268 425 Q 269 426 273 425 C 303 428 321 453 291 454 Z" fill="red"></path>
				<path d="M 273 425 Q 182 295 157 282 Q 144 272 146 258 Q 147 245 175 225 Q 187 212 202 225 Q 265 268 357 299 Q 376 303 379 313 Q 382 323 361 320 Q 312 313 249 296 Q 215 284 237 312 Q 271 361 354 462 Q 382 502 407 524 Q 420 534 413 545 Q 403 564 367 583 Q 351 592 341 589 Q 331 585 333 569 Q 337 536 291 454 L 273 425 Z" fill="lightgray"></path>
				<path d="M 92 103 Q 79 100 78 90 Q 78 77 88 69 Q 113 56 147 42 Q 157 41 169 50 Q 184 66 340 168 Q 359 181 374 195 Q 386 204 385 213 Q 379 217 258 164 Q 113 106 92 103 Z" fill="lightgray"></path>
				<path d="M 501 403 Q 502 403 509 405 Q 563 421 603 434 Q 625 441 615 453 Q 602 465 576 465 Q 530 464 502 435 C 481 414 472 396 501 403 Z" fill="lightgray"></path>
				<path d="M 502 435 Q 502 528 508 550 Q 512 563 503 575 Q 479 596 457 607 Q 439 614 430 608 Q 420 602 429 587 Q 472 491 445 252 Q 442 203 402 155 Q 390 140 397 118 Q 407 91 420 80 Q 433 73 445 89 Q 458 114 584 217 Q 603 229 608 238 Q 612 248 602 248 Q 593 248 503 206 Q 490 199 490 212 Q 499 315 501 403 L 502 435 Z" fill="lightgray"></path>
				<path d="M 693 418 Q 865 487 876 489 Q 900 495 893 516 Q 883 535 859 557 Q 837 576 824 576 Q 811 577 812 562 Q 809 532 710 456 Q 701 450 693 442 C 671 422 665 407 693 418 Z" fill="lightgray"></path>
				<path d="M 693 442 Q 693 443 694 446 Q 698 660 722 692 Q 729 714 711 726 Q 683 750 647 758 Q 628 762 620 753 Q 613 744 620 735 Q 641 714 645 653 Q 645 163 686 104 Q 716 53 818 44 Q 920 35 951 75 Q 967 88 952 116 Q 936 165 933 229 Q 933 239 926 247 Q 917 254 912 231 Q 882 140 870 124 Q 867 114 851 110 Q 788 92 746 119 Q 709 137 703 197 Q 693 299 693 418 L 693 442 Z" fill="lightgray"></path>
</g>
		<text x="40" y="140" font-size="128" fill="#999999">1</text></g>
		<g id="id0:id1:id1" transform="matrix(1.0,0,0,1.0,1024,0.0)">			<g stroke="lightgray" stroke-width="4" transform="scale(4, 4)"> <rect x="0" y="0" width="256" height="256" fill="white" stroke-width="4"/></g>
			<g transform="scale(0.92, -0.92) translate(60, -920)">					<path d="M 291 454 Q 243 455 204 455 Q 165 454 186 478 Q 256 602 326 695 Q 339 713 337 721 Q 334 736 294 767 Q 278 780 258 777 Q 246 773 253 758 Q 272 707 168 521 Q 149 493 119 464 Q 100 449 101 437 Q 105 418 120 399 Q 130 389 143 395 Q 173 410 268 425 Q 269 426 273 425 C 303 428 321 453 291 454 Z" fill="black"></path>
				<path d="M 273 425 Q 182 295 157 282 Q 144 272 146 258 Q 147 245 175 225 Q 187 212 202 225 Q 265 268 357 299 Q 376 303 379 313 Q 382 323 361 320 Q 312 313 249 296 Q 215 284 237 312 Q 271 361 354 462 Q 382 502 407 524 Q 420 534 413 545 Q 403 564 367 583 Q 351 592 341 589 Q 331 585 333 569 Q 337 536 291 454 L 273 425 Z" fill="red"></path>
				<path d="M 92 103 Q 79 100 78 90 Q 78 77 88 69 Q 113 56 147 42 Q 157 41 169 50 Q 184 66 340 168 Q 359 181 374 195 Q 386 204 385 213 Q 379 217 258 164 Q 113 106 92 103 Z" fill="lightgray"></path>
				<path d="M 501 403 Q 502 403 509 405 Q 563 421 603 434 Q 625 441 615 453 Q 602 465 576 465 Q 530 464 502 435 C 481 414 472 396 501 403 Z" fill="lightgray"></path>
				<path d="M 502 435 Q 502 528 508 550 Q 512 563 503 575 Q 479 596 457 607 Q 439 614 430 608 Q 420 602 429 587 Q 472 491 445 252 Q 442 203 402 155 Q 390 140 397 118 Q 407 91 420 80 Q 433 73 445 89 Q 458 114 584 217 Q 603 229 608 238 Q 612 248 602 248 Q 593 248 503 206 Q 490 199 490 212 Q 499 315 501 403 L 502 435 Z" fill="lightgray"></path>
				<path d="M 693 418 Q 865 487 876 489 Q 900 495 893 516 Q 883 535 859 557 Q 837 576 824 576 Q 811 577 812 562 Q 809 532 710 456 Q 701 450 693 442 C 671 422 665 407 693 418 Z" fill="lightgray"></path>
				<path d="M 693 442 Q 693 443 694 446 Q 698 660 722 692 Q 729 714 711 726 Q 683 750 647 758 Q 628 762 620 753 Q 613 744 620 735 Q 641 714 645 653 Q 645 163 686 104 Q 716 53 818 44 Q 920 35 951 75 Q 967 88 952 116 Q 936 165 933 229 Q 933 239 926 247 Q 917 254 912 231 Q 882 140 870 124 Q 867 114 851 110 Q 788 92 746 119 Q 709 137 703 197 Q 693 299 693 418 L 693 442 Z" fill="lightgray"></path>
</g>
		<text x="40" y="140" font-size="128" fill="#999999">2</text></g>
		<g id="id0:id2:id2" transform="matrix(1.0,0,0,1.0,2048,0.0)">			<g stroke="lightgray" stroke-width="4" transform="scale(4, 4)"> <rect x="0" y="0" width="256" height="256" fill="white" stroke-width="4"/></g>
			<g transform="scale(0.92, -0.92) translate(60, -920)">					<path d="M 291 454 Q 243 455 204 455 Q 165 454 186 478 Q 256 602 326 695 Q 339 713 337 721 Q 334 736 294 767 Q 278 780 258 777 Q 246 773 253 758 Q 272 707 168 521 Q 149 493 119 464 Q 100 449 101 437 Q 105 418 120 399 Q 130 389 143 395 Q 173 410 268 425 Q 269 426 273 425 C 303 428 321 453 291 454 Z" fill="black"></path>
				<path d="M 273 425 Q 182 295 157 282 Q 144 272 146 258 Q 147 245 175 225 Q 187 212 202 225 Q 265 268 357 299 Q 376 303 379 313 Q 382 323 361 320 Q 312 313 249 296 Q 215 284 237 312 Q 271 361 354 462 Q 382 502 407 524 Q 420 534 413 545 Q 403 564 367 583 Q 351 592 341 589 Q 331 585 333 569 Q 337 536 291 454 L 273 425 Z" fill="black"></path>
				<path d="M 92 103 Q 79 100 78 90 Q 78 77 88 69 Q 113 56 147 42 Q 157 41 169 50 Q 184 66 340 168 Q 359 181 374 195 Q 386 204 385 213 Q 379 217 258 164 Q 113 106 92 103 Z" fill="red"></path>
				<path d="M 501 403 Q 502 403 509 405 Q 563 421 603 434 Q 625 441 615 453 Q 602 465 576 465 Q 530 464 502 435 C 481 414 472 396 501 403 Z" fill="lightgray"></path>
				<path d="M 502 435 Q 502 528 508 550 Q 512 563 503 575 Q 479 596 457 607 Q 439 614 430 608 Q 420 602 429 587 Q 472 491 445 252 Q 442 203 402 155 Q 390 140 397 118 Q 407 91 420 80 Q 433 73 445 89 Q 458 114 584 217 Q 603 229 608 238 Q 612 248 602 248 Q 593 248 503 206 Q 490 199 490 212 Q 499 315 501 403 L 502 435 Z" fill="lightgray"></path>
				<path d="M 693 418 Q 865 487 876 489 Q 900 495 893 516 Q 883 535 859 557 Q 837 576 824 576 Q 811 577 812 562 Q 809 532 710 456 Q 701 450 693 442 C 671 422 665 407 693 418 Z" fill="lightgray"></path>
				<path d="M 693 442 Q 693 443 694 446 Q 698 660 722 692 Q 729 714 711 726 Q 683 750 647 758 Q 628 762 620 753 Q 613 744 620 735 Q 641 714 645 653 Q 645 163 686 104 Q 716 53 818 44 Q 920 35 951 75 Q 967 88 952 116 Q 936 165 933 229 Q 933 239 926 247 Q 917 254 912 231 Q 882 140 870 124 Q 867 114 851 110 Q 788 92 746 119 Q 709 137 703 197 Q 693 299 693 418 L 693 442 Z" fill="lightgray"></path>
</g>
		<text x="40" y="140" font-size="128" fill="#999999">3</text></g>
		<g id="id0:id3:id3" transform="matrix(1.0,0,0,1.0,3072,0.0)">			<g stroke="lightgray" stroke-width="4" transform="scale(4, 4)"> <rect x="0" y="0" width="256" height="256" fill="white" stroke-width="4"/></g>
			<g transform="scale(0.92, -0.92) translate(60, -920)">					<path d="M 291 454 Q 243 455 204 455 Q 165 454 186 478 Q 256 602 326 695 Q 339 713 337 721 Q 334 736 294 767 Q 278 780 258 777 Q 246 773 253 758 Q 272 707 168 521 Q 149 493 119 464 Q 100 449 101 437 Q 105 418 120 399 Q 130 389 143 395 Q 173 410 268 425 Q 269 426 273 425 C 303 428 321 453 291 454 Z" fill="black"></path>
				<path d="M 273 425 Q 182 295 157 282 Q 144 272 146 258 Q 147 245 175 225 Q 187 212 202 225 Q 265 268 357 299 Q 376 303 379 313 Q 382 323 361 320 Q 312 313 249 296 Q 215 284 237 312 Q 271 361 354 462 Q 382 502 407 524 Q 420 534 413 545 Q 403 564 367 583 Q 351 592 341 589 Q 331 585 333 569 Q 337 536 291 454 L 273 425 Z" fill="black"></path>
				<path d="M 92 103 Q 79 100 78 90 Q 78 77 88 69 Q 113 56 147 42 Q 157 41 169 50 Q 184 66 340 168 Q 359 181 374 195 Q 386 204 385 213 Q 379 217 258 164 Q 113 106 92 103 Z" fill="black"></path>
				<path d="M 501 403 Q 502 403 509 405 Q 563 421 603 434 Q 625 441 615 453 Q 602 465 576 465 Q 530 464 502 435 C 481 414 472 396 501 403 Z" fill="red"></path>
				<path d="M 502 435 Q 502 528 508 550 Q 512 563 503 575 Q 479 596 457 607 Q 439 614 430 608 Q 420 602 429 587 Q 472 491 445 252 Q 442 203 402 155 Q 390 140 397 118 Q 407 91 420 80 Q 433 73 445 89 Q 458 114 584 217 Q 603 229 608 238 Q 612 248 602 248 Q 593 248 503 206 Q 490 199 490 212 Q 499 315 501 403 L 502 435 Z" fill="lightgray"></path>
				<path d="M 693 418 Q 865 487 876 489 Q 900 495 893 516 Q 883 535 859 557 Q 837 576 824 576 Q 811 577 812 562 Q 809 532 710 456 Q 701 450 693 442 C 671 422 665 407 693 418 Z" fill="lightgray"></path>
				<path d="M 693 442 Q 693 443 694 446 Q 698 660 722 692 Q 729 714 711 726 Q 683 750 647 758 Q 628 762 620 753 Q 613 744 620 735 Q 641 714 645 653 Q 645 163 686 104 Q 716 53 818 44 Q 920 35 951 75 Q 967 88 952 116 Q 936 165 933 229 Q 933 239 926 247 Q 917 254 912 231 Q 882 140 870 124 Q 867 114 851 110 Q 788 92 746 119 Q 709 137 703 197 Q 693 299 693 418 L 693 442 Z" fill="lightgray"></path>
</g>
		<text x="40" y="140" font-size="128" fill="#999999">4</text></g>
		<g id="id0:id4:id4" transform="matrix(1.0,0,0,1.0,4096,0.0)">			<g stroke="lightgray" stroke-width="4" transform="scale(4, 4)"> <rect x="0" y="0" width="256" height="256" fill="white" stroke-width="4"/></g>
			<g transform="scale(0.92, -0.92) translate(60, -920)">					<path d="M 291 454 Q 243 455 204 455 Q 165 454 186 478 Q 256 602 326 695 Q 339 713 337 721 Q 334 736 294 767 Q 278 780 258 777 Q 246 773 253 758 Q 272 707 168 521 Q 149 493 119 464 Q 100 449 101 437 Q 105 418 120 399 Q 130 389 143 395 Q 173 410 268 425 Q 269 426 273 425 C 303 428 321 453 291 454 Z" fill="black"></path>
				<path d="M 273 425 Q 182 295 157 282 Q 144 272 146 258 Q 147 245 175 225 Q 187 212 202 225 Q 265 268 357 299 Q 376 303 379 313 Q 382 323 361 320 Q 312 313 249 296 Q 215 284 237 312 Q 271 361 354 462 Q 382 502 407 524 Q 420 534 413 545 Q 403 564 367 583 Q 351 592 341 589 Q 331 585 333 569 Q 337 536 291 454 L 273 425 Z" fill="black"></path>
				<path d="M 92 103 Q 79 100 78 90 Q 78 77 88 69 Q 113 56 147 42 Q 157 41 169 50 Q 184 66 340 168 Q 359 181 374 195 Q 386 204 385 213 Q 379 217 258 164 Q 113 106 92 103 Z" fill="black"></path>
				<path d="M 501 403 Q 502 403 509 405 Q 563 421 603 434 Q 625 441 615 453 Q 602 465 576 465 Q 530 464 502 435 C 481 414 472 396 501 403 Z" fill="black"></path>
				<path d="M 502 435 Q 502 528 508 550 Q 512 563 503 575 Q 479 596 457 607 Q 439 614 430 608 Q 420 602 429 587 Q 472 491 445 252 Q 442 203 402 155 Q 390 140 397 118 Q 407 91 420 80 Q 433 73 445 89 Q 458 114 584 217 Q 603 229 608 238 Q 612 248 602 248 Q 593 248 503 206 Q 490 199 490 212 Q 499 315 501 403 L 502 435 Z" fill="red"></path>
				<path d="M 693 418 Q 865 487 876 489 Q 900 495 893 516 Q 883 535 859 557 Q 837 576 824 576 Q 811 577 812 562 Q 809 532 710 456 Q 701 450 693 442 C 671 422 665 407 693 418 Z" fill="lightgray"></path>
				<path d="M 693 442 Q 693 443 694 446 Q 698 660 722 692 Q 729 714 711 726 Q 683 750 647 758 Q 628 762 620 753 Q 613 744 620 735 Q 641 714 645 653 Q 645 163 686 104 Q 716 53 818 44 Q 920 35 951 75 Q 967 88 952 116 Q 936 165 933 229 Q 933 239 926 247 Q 917 254 912 231 Q 882 140 870 124 Q 867 114 851 110 Q 788 92 746 119 Q 709 137 703 197 Q 693 299 693 418 L 693 442 Z" fill="lightgray"></path>
</g>
		<text x="40" y="140" font-size="128" fill="#999999">5</text></g>
</g>
	<g id="id1:id1" transform="translate(0.0,1024)">
		<g id="id1:id0:id0" transform="matrix(1.0,0,0,1.0,0,0.0)">			<g stroke="lightgray" stroke-width="4" transform="scale(4, 4)"> <rect x="0" y="0" width="256" height="256" fill="white" stroke-width="4"/></g>
			<g transform="scale(0.92, -0.92) translate(60, -920)">					<path d="M 291 454 Q 243 455 204 455 Q 165 454 186 478 Q 256 602 326 695 Q 339 713 337 721 Q 334 736 294 767 Q 278 780 258 777 Q 246 773 253 758 Q 272 707 168 521 Q 149 493 119 464 Q 100 449 101 437 Q 105 418 120 399 Q 130 389 143 395 Q 173 410 268 425 Q 269 426 273 425 C 303 428 321 453 291 454 Z" fill="black"></path>
				<path d="M 273 425 Q 182 295 157 282 Q 144 272 146 258 Q 147 245 175 225 Q 187 212 202 225 Q 265 268 357 299 Q 376 303 379 313 Q 382 323 361 320 Q 312 313 249 296 Q 215 284 237 312 Q 271 361 354 462 Q 382 502 407 524 Q 420 534 413 545 Q 403 564 367 583 Q 351 592 341 589 Q 331 585 333 569 Q 337 536 291 454 L 273 425 Z" fill="black"></path>
				<path d="M 92 103 Q 79 100 78 90 Q 78 77 88 69 Q 113 56 147 42 Q 157 41 169 50 Q 184 66 340 168 Q 359 181 374 195 Q 386 204 385 213 Q 379 217 258 164 Q 113 106 92 103 Z" fill="black"></path>
				<path d="M 501 403 Q 502 403 509 405 Q 563 421 603 434 Q 625 441 615 453 Q 602 465 576 465 Q 530 464 502 435 C 481 414 472 396 501 403 Z" fill="black"></path>
				<path d="M 502 435 Q 502 528 508 550 Q 512 563 503 575 Q 479 596 457 607 Q 439 614 430 608 Q 420 602 429 587 Q 472 491 445 252 Q 442 203 402 155 Q 390 140 397 118 Q 407 91 420 80 Q 433 73 445 89 Q 458 114 584 217 Q 603 229 608 238 Q 612 248 602 248 Q 593 248 503 206 Q 490 199 490 212 Q 499 315 501 403 L 502 435 Z" fill="black"></path>
				<path d="M 693 418 Q 865 487 876 489 Q 900 495 893 516 Q 883 535 859 557 Q 837 576 824 576 Q 811 577 812 562 Q 809 532 710 456 Q 701 450 693 442 C 671 422 665 407 693 418 Z" fill="red"></path>
				<path d="M 693 442 Q 693 443 694 446 Q 698 660 722 692 Q 729 714 711 726 Q 683 750 647 758 Q 628 762 620 753 Q 613 744 620 735 Q 641 714 645 653 Q 645 163 686 104 Q 716 53 818 44 Q 920 35 951 75 Q 967 88 952 116 Q 936 165 933 229 Q 933 239 926 247 Q 917 254 912 231 Q 882 140 870 124 Q 867 114 851 110 Q 788 92 746 119 Q 709 137 703 197 Q 693 299 693 418 L 693 442 Z" fill="lightgray"></path>
</g>
		<text x="40" y="140" font-size="128" fill="#999999">6</text></g>
		<g id="id1:id1:id1" transform="matrix(1.0,0,0,1.0,1024,0.0)">			<g stroke="lightgray" stroke-width="4" transform="scale(4, 4)"> <rect x="0" y="0" width="256" height="256" fill="white" stroke-width="4"/></g>
			<g transform="scale(0.92, -0.92) translate(60, -920)">					<path d="M 291 454 Q 243 455 204 455 Q 165 454 186 478 Q 256 602 326 695 Q 339 713 337 721 Q 334 736 294 767 Q 278 780 258 777 Q 246 773 253 758 Q 272 707 168 521 Q 149 493 119 464 Q 100 449 101 437 Q 105 418 120 399 Q 130 389 143 395 Q 173 410 268 425 Q 269 426 273 425 C 303 428 321 453 291 454 Z" fill="black"></path>
				<path d="M 273 425 Q 182 295 157 282 Q 144 272 146 258 Q 147 245 175 225 Q 187 212 202 225 Q 265 268 357 299 Q 376 303 379 313 Q 382 323 361 320 Q 312 313 249 296 Q 215 284 237 312 Q 271 361 354 462 Q 382 502 407 524 Q 420 534 413 545 Q 403 564 367 583 Q 351 592 341 589 Q 331 585 333 569 Q 337 536 291 454 L 273 425 Z" fill="black"></path>
				<path d="M 92 103 Q 79 100 78 90 Q 78 77 88 69 Q 113 56 147 42 Q 157 41 169 50 Q 184 66 340 168 Q 359 181 374 195 Q 386 204 385 213 Q 379 217 258 164 Q 113 106 92 103 Z" fill="black"></path>
				<path d="M 501 403 Q 502 403 509 405 Q 563 421 603 434 Q 625 441 615 453 Q 602 465 576 465 Q 530 464 502 435 C 481 414 472 396 501 403 Z" fill="black"></path>
				<path d="M 502 435 Q 502 528 508 550 Q 512 563 503 575 Q 479 596 457 607 Q 439 614 430 608 Q 420 602 429 587 Q 472 491 445 252 Q 442 203 402 155 Q 390 140 397 118 Q 407 91 420 80 Q 433 73 445 89 Q 458 114 584 217 Q 603 229 608 238 Q 612 248 602 248 Q 593 248 503 206 Q 490 199 490 212 Q 499 315 501 403 L 502 435 Z" fill="black"></path>
				<path d="M 693 418 Q 865 487 876 489 Q 900 495 893 516 Q 883 535 859 557 Q 837 576 824 576 Q 811 577 812 562 Q 809 532 710 456 Q 701 450 693 442 C 671 422 665 407 693 418 Z" fill="black"></path>
				<path d="M 693 442 Q 693 443 694 446 Q 698 660 722 692 Q 729 714 711 726 Q 683 750 647 758 Q 628 762 620 753 Q 613 744 620 735 Q 641 714 645 653 Q 645 163 686 104 Q 716 53 818 44 Q 920 35 951 75 Q 967 88 952 116 Q 936 165 933 229 Q 933 239 926 247 Q 917 254 912 231 Q 882 140 870 124 Q 867 114 851 110 Q 788 92 746 119 Q 709 137 703 197 Q 693 299 693 418 L 693 442 Z" fill="red"></path>
</g>
		<text x="40" y="140" font-size="128" fill="#999999">7</text></g>
		<g id="id1:id2:id2" transform="matrix(1.0,0,0,1.0,2048,0.0)">			<g stroke="white" stroke-width="4" transform="scale(4, 4)"> <rect x="1" y="1" width="255" height="255" fill="white" stroke-width="0"/></g>
</g>
		<g id="id1:id3:id3" transform="matrix(1.0,0,0,1.0,3072,0.0)">			<g stroke="white" stroke-width="4" transform="scale(4, 4)"> <rect x="1" y="1" width="255" height="255" fill="white" stroke-width="0"/></g>
</g>
		<g id="id1:id4:id4" transform="matrix(1.0,0,0,1.0,4096,0.0)">			<g stroke="white" stroke-width="4" transform="scale(4, 4)"> <rect x="1" y="1" width="255" height="255" fill="white" stroke-width="0"/></g>
</g>
</g>
</svg>
