<?xml version="1.0" standalone="no"?>
<!DOCTYPE svg PUBLIC "-//W3C//DTD SVG 1.1//EN"
 "http://www.w3.org/Graphics/SVG/1.1/DTD/svg11.dtd">
<!-- generate by Japanese dictionary app com.asnsami.kanjidictionary -->

<svg xmlns="http://www.w3.org/2000/svg" xmlns:sodipodi="http://sodipodi.sourceforge.net/DTD/sodipodi-0.dtd" version="1.1" width="640" height="256" viewBox="0 0 5120 2048">
	<g id="id0:id0" transform="translate(0.0,0)">
		<g id="id0:id0:id0" transform="matrix(1.0,0,0,1.0,0,0.0)">			<g stroke="lightgray" stroke-width="4" transform="scale(4, 4)"> <rect x="0" y="0" width="256" height="256" fill="white" stroke-width="4"/></g>
			<g transform="scale(0.92, -0.92) translate(60, -920)">					<path d="M 320 494 Q 268 494 224 495 Q 190 495 207 516 Q 277 625 343 706 Q 359 724 356 732 Q 355 747 314 780 Q 298 795 279 791 Q 267 788 273 772 Q 289 730 199 574 Q 180 538 140 505 Q 121 490 122 478 Q 126 459 140 440 Q 150 428 164 435 Q 206 457 301 468 C 331 472 350 494 320 494 Z" fill="red"></path>
				<path d="M 301 468 Q 196 327 176 317 Q 163 308 166 294 Q 167 281 194 263 Q 204 251 219 263 Q 279 311 387 351 Q 406 357 407 365 Q 410 375 390 371 Q 332 358 260 334 Q 238 325 252 345 Q 295 406 397 531 Q 425 568 450 589 Q 462 599 456 609 Q 446 628 413 646 Q 397 656 387 653 Q 377 649 380 634 Q 383 595 320 494 L 301 468 Z" fill="lightgray"></path>
				<path d="M 130 145 Q 118 141 118 132 Q 118 119 128 113 Q 152 101 185 88 Q 195 87 206 96 Q 236 129 390 225 Q 412 240 426 255 Q 438 264 437 273 Q 430 277 419 273 Q 313 218 177 157 Q 161 148 130 145 Z" fill="lightgray"></path>
				<path d="M 596 739 Q 627 717 661 689 Q 677 676 696 679 Q 708 680 712 696 Q 716 714 702 746 Q 693 768 658 779 Q 577 800 560 792 Q 554 786 558 772 Q 562 759 596 739 Z" fill="lightgray"></path>
				<path d="M 677 524 Q 713 531 849 552 Q 859 551 869 564 Q 870 577 846 587 Q 807 608 731 582 Q 572 546 444 526 Q 414 522 437 504 Q 476 479 502 486 Q 565 502 644 517 L 677 524 Z" fill="lightgray"></path>
				<path d="M 663 240 Q 706 309 722 425 Q 725 453 732 471 Q 736 484 727 492 Q 714 505 677 524 C 651 538 636 546 644 517 Q 644 516 645 512 Q 678 407 627 279 L 603 240 Q 567 170 374 99 Q 364 98 359 93 Q 353 89 363 84 Q 369 83 383 84 Q 480 97 550 135 Q 602 162 633 201 L 663 240 Z" fill="lightgray"></path>
				<path d="M 633 201 Q 679 143 753 69 Q 781 42 828 47 Q 889 53 934 56 Q 947 57 961 62 Q 970 69 957 79 Q 942 89 817 133 Q 741 163 663 240 L 627 279 Q 588 322 547 376 Q 528 403 492 411 Q 480 414 470 407 Q 466 400 474 393 Q 481 386 489 381 Q 517 365 603 240 L 633 201 Z" fill="lightgray"></path>
</g>
		<text x="40" y="140" font-size="128" fill="#999999">1</text></g>
		<g id="id0:id1:id1" transform="matrix(1.0,0,0,1.0,1024,0.0)">			<g stroke="lightgray" stroke-width="4" transform="scale(4, 4)"> <rect x="0" y="0" width="256" height="256" fill="white" stroke-width="4"/></g>
			<g transform="scale(0.92, -0.92) translate(60, -920)">					<path d="M 320 494 Q 268 494 224 495 Q 190 495 207 516 Q 277 625 343 706 Q 359 724 356 732 Q 355 747 314 780 Q 298 795 279 791 Q 267 788 273 772 Q 289 730 199 574 Q 180 538 140 505 Q 121 490 122 478 Q 126 459 140 440 Q 150 428 164 435 Q 206 457 301 468 C 331 472 350 494 320 494 Z" fill="black"></path>
				<path d="M 301 468 Q 196 327 176 317 Q 163 308 166 294 Q 167 281 194 263 Q 204 251 219 263 Q 279 311 387 351 Q 406 357 407 365 Q 410 375 390 371 Q 332 358 260 334 Q 238 325 252 345 Q 295 406 397 531 Q 425 568 450 589 Q 462 599 456 609 Q 446 628 413 646 Q 397 656 387 653 Q 377 649 380 634 Q 383 595 320 494 L 301 468 Z" fill="red"></path>
				<path d="M 130 145 Q 118 141 118 132 Q 118 119 128 113 Q 152 101 185 88 Q 195 87 206 96 Q 236 129 390 225 Q 412 240 426 255 Q 438 264 437 273 Q 430 277 419 273 Q 313 218 177 157 Q 161 148 130 145 Z" fill="lightgray"></path>
				<path d="M 596 739 Q 627 717 661 689 Q 677 676 696 679 Q 708 680 712 696 Q 716 714 702 746 Q 693 768 658 779 Q 577 800 560 792 Q 554 786 558 772 Q 562 759 596 739 Z" fill="lightgray"></path>
				<path d="M 677 524 Q 713 531 849 552 Q 859 551 869 564 Q 870 577 846 587 Q 807 608 731 582 Q 572 546 444 526 Q 414 522 437 504 Q 476 479 502 486 Q 565 502 644 517 L 677 524 Z" fill="lightgray"></path>
				<path d="M 663 240 Q 706 309 722 425 Q 725 453 732 471 Q 736 484 727 492 Q 714 505 677 524 C 651 538 636 546 644 517 Q 644 516 645 512 Q 678 407 627 279 L 603 240 Q 567 170 374 99 Q 364 98 359 93 Q 353 89 363 84 Q 369 83 383 84 Q 480 97 550 135 Q 602 162 633 201 L 663 240 Z" fill="lightgray"></path>
				<path d="M 633 201 Q 679 143 753 69 Q 781 42 828 47 Q 889 53 934 56 Q 947 57 961 62 Q 970 69 957 79 Q 942 89 817 133 Q 741 163 663 240 L 627 279 Q 588 322 547 376 Q 528 403 492 411 Q 480 414 470 407 Q 466 400 474 393 Q 481 386 489 381 Q 517 365 603 240 L 633 201 Z" fill="lightgray"></path>
</g>
		<text x="40" y="140" font-size="128" fill="#999999">2</text></g>
		<g id="id0:id2:id2" transform="matrix(1.0,0,0,1.0,2048,0.0)">			<g stroke="lightgray" stroke-width="4" transform="scale(4, 4)"> <rect x="0" y="0" width="256" height="256" fill="white" stroke-width="4"/></g>
			<g transform="scale(0.92, -0.92) translate(60, -920)">					<path d="M 320 494 Q 268 494 224 495 Q 190 495 207 516 Q 277 625 343 706 Q 359 724 356 732 Q 355 747 314 780 Q 298 795 279 791 Q 267 788 273 772 Q 289 730 199 574 Q 180 538 140 505 Q 121 490 122 478 Q 126 459 140 440 Q 150 428 164 435 Q 206 457 301 468 C 331 472 350 494 320 494 Z" fill="black"></path>
				<path d="M 301 468 Q 196 327 176 317 Q 163 308 166 294 Q 167 281 194 263 Q 204 251 219 263 Q 279 311 387 351 Q 406 357 407 365 Q 410 375 390 371 Q 332 358 260 334 Q 238 325 252 345 Q 295 406 397 531 Q 425 568 450 589 Q 462 599 456 609 Q 446 628 413 646 Q 397 656 387 653 Q 377 649 380 634 Q 383 595 320 494 L 301 468 Z" fill="black"></path>
				<path d="M 130 145 Q 118 141 118 132 Q 118 119 128 113 Q 152 101 185 88 Q 195 87 206 96 Q 236 129 390 225 Q 412 240 426 255 Q 438 264 437 273 Q 430 277 419 273 Q 313 218 177 157 Q 161 148 130 145 Z" fill="red"></path>
				<path d="M 596 739 Q 627 717 661 689 Q 677 676 696 679 Q 708 680 712 696 Q 716 714 702 746 Q 693 768 658 779 Q 577 800 560 792 Q 554 786 558 772 Q 562 759 596 739 Z" fill="lightgray"></path>
				<path d="M 677 524 Q 713 531 849 552 Q 859 551 869 564 Q 870 577 846 587 Q 807 608 731 582 Q 572 546 444 526 Q 414 522 437 504 Q 476 479 502 486 Q 565 502 644 517 L 677 524 Z" fill="lightgray"></path>
				<path d="M 663 240 Q 706 309 722 425 Q 725 453 732 471 Q 736 484 727 492 Q 714 505 677 524 C 651 538 636 546 644 517 Q 644 516 645 512 Q 678 407 627 279 L 603 240 Q 567 170 374 99 Q 364 98 359 93 Q 353 89 363 84 Q 369 83 383 84 Q 480 97 550 135 Q 602 162 633 201 L 663 240 Z" fill="lightgray"></path>
				<path d="M 633 201 Q 679 143 753 69 Q 781 42 828 47 Q 889 53 934 56 Q 947 57 961 62 Q 970 69 957 79 Q 942 89 817 133 Q 741 163 663 240 L 627 279 Q 588 322 547 376 Q 528 403 492 411 Q 480 414 470 407 Q 466 400 474 393 Q 481 386 489 381 Q 517 365 603 240 L 633 201 Z" fill="lightgray"></path>
</g>
		<text x="40" y="140" font-size="128" fill="#999999">3</text></g>
		<g id="id0:id3:id3" transform="matrix(1.0,0,0,1.0,3072,0.0)">			<g stroke="lightgray" stroke-width="4" transform="scale(4, 4)"> <rect x="0" y="0" width="256" height="256" fill="white" stroke-width="4"/></g>
			<g transform="scale(0.92, -0.92) translate(60, -920)">					<path d="M 320 494 Q 268 494 224 495 Q 190 495 207 516 Q 277 625 343 706 Q 359 724 356 732 Q 355 747 314 780 Q 298 795 279 791 Q 267 788 273 772 Q 289 730 199 574 Q 180 538 140 505 Q 121 490 122 478 Q 126 459 140 440 Q 150 428 164 435 Q 206 457 301 468 C 331 472 350 494 320 494 Z" fill="black"></path>
				<path d="M 301 468 Q 196 327 176 317 Q 163 308 166 294 Q 167 281 194 263 Q 204 251 219 263 Q 279 311 387 351 Q 406 357 407 365 Q 410 375 390 371 Q 332 358 260 334 Q 238 325 252 345 Q 295 406 397 531 Q 425 568 450 589 Q 462 599 456 609 Q 446 628 413 646 Q 397 656 387 653 Q 377 649 380 634 Q 383 595 320 494 L 301 468 Z" fill="black"></path>
				<path d="M 130 145 Q 118 141 118 132 Q 118 119 128 113 Q 152 101 185 88 Q 195 87 206 96 Q 236 129 390 225 Q 412 240 426 255 Q 438 264 437 273 Q 430 277 419 273 Q 313 218 177 157 Q 161 148 130 145 Z" fill="black"></path>
				<path d="M 596 739 Q 627 717 661 689 Q 677 676 696 679 Q 708 680 712 696 Q 716 714 702 746 Q 693 768 658 779 Q 577 800 560 792 Q 554 786 558 772 Q 562 759 596 739 Z" fill="red"></path>
				<path d="M 677 524 Q 713 531 849 552 Q 859 551 869 564 Q 870 577 846 587 Q 807 608 731 582 Q 572 546 444 526 Q 414 522 437 504 Q 476 479 502 486 Q 565 502 644 517 L 677 524 Z" fill="lightgray"></path>
				<path d="M 663 240 Q 706 309 722 425 Q 725 453 732 471 Q 736 484 727 492 Q 714 505 677 524 C 651 538 636 546 644 517 Q 644 516 645 512 Q 678 407 627 279 L 603 240 Q 567 170 374 99 Q 364 98 359 93 Q 353 89 363 84 Q 369 83 383 84 Q 480 97 550 135 Q 602 162 633 201 L 663 240 Z" fill="lightgray"></path>
				<path d="M 633 201 Q 679 143 753 69 Q 781 42 828 47 Q 889 53 934 56 Q 947 57 961 62 Q 970 69 957 79 Q 942 89 817 133 Q 741 163 663 240 L 627 279 Q 588 322 547 376 Q 528 403 492 411 Q 480 414 470 407 Q 466 400 474 393 Q 481 386 489 381 Q 517 365 603 240 L 633 201 Z" fill="lightgray"></path>
</g>
		<text x="40" y="140" font-size="128" fill="#999999">4</text></g>
		<g id="id0:id4:id4" transform="matrix(1.0,0,0,1.0,4096,0.0)">			<g stroke="lightgray" stroke-width="4" transform="scale(4, 4)"> <rect x="0" y="0" width="256" height="256" fill="white" stroke-width="4"/></g>
			<g transform="scale(0.92, -0.92) translate(60, -920)">					<path d="M 320 494 Q 268 494 224 495 Q 190 495 207 516 Q 277 625 343 706 Q 359 724 356 732 Q 355 747 314 780 Q 298 795 279 791 Q 267 788 273 772 Q 289 730 199 574 Q 180 538 140 505 Q 121 490 122 478 Q 126 459 140 440 Q 150 428 164 435 Q 206 457 301 468 C 331 472 350 494 320 494 Z" fill="black"></path>
				<path d="M 301 468 Q 196 327 176 317 Q 163 308 166 294 Q 167 281 194 263 Q 204 251 219 263 Q 279 311 387 351 Q 406 357 407 365 Q 410 375 390 371 Q 332 358 260 334 Q 238 325 252 345 Q 295 406 397 531 Q 425 568 450 589 Q 462 599 456 609 Q 446 628 413 646 Q 397 656 387 653 Q 377 649 380 634 Q 383 595 320 494 L 301 468 Z" fill="black"></path>
				<path d="M 130 145 Q 118 141 118 132 Q 118 119 128 113 Q 152 101 185 88 Q 195 87 206 96 Q 236 129 390 225 Q 412 240 426 255 Q 438 264 437 273 Q 430 277 419 273 Q 313 218 177 157 Q 161 148 130 145 Z" fill="black"></path>
				<path d="M 596 739 Q 627 717 661 689 Q 677 676 696 679 Q 708 680 712 696 Q 716 714 702 746 Q 693 768 658 779 Q 577 800 560 792 Q 554 786 558 772 Q 562 759 596 739 Z" fill="black"></path>
				<path d="M 677 524 Q 713 531 849 552 Q 859 551 869 564 Q 870 577 846 587 Q 807 608 731 582 Q 572 546 444 526 Q 414 522 437 504 Q 476 479 502 486 Q 565 502 644 517 L 677 524 Z" fill="red"></path>
				<path d="M 663 240 Q 706 309 722 425 Q 725 453 732 471 Q 736 484 727 492 Q 714 505 677 524 C 651 538 636 546 644 517 Q 644 516 645 512 Q 678 407 627 279 L 603 240 Q 567 170 374 99 Q 364 98 359 93 Q 353 89 363 84 Q 369 83 383 84 Q 480 97 550 135 Q 602 162 633 201 L 663 240 Z" fill="lightgray"></path>
				<path d="M 633 201 Q 679 143 753 69 Q 781 42 828 47 Q 889 53 934 56 Q 947 57 961 62 Q 970 69 957 79 Q 942 89 817 133 Q 741 163 663 240 L 627 279 Q 588 322 547 376 Q 528 403 492 411 Q 480 414 470 407 Q 466 400 474 393 Q 481 386 489 381 Q 517 365 603 240 L 633 201 Z" fill="lightgray"></path>
</g>
		<text x="40" y="140" font-size="128" fill="#999999">5</text></g>
</g>
	<g id="id1:id1" transform="translate(0.0,1024)">
		<g id="id1:id0:id0" transform="matrix(1.0,0,0,1.0,0,0.0)">			<g stroke="lightgray" stroke-width="4" transform="scale(4, 4)"> <rect x="0" y="0" width="256" height="256" fill="white" stroke-width="4"/></g>
			<g transform="scale(0.92, -0.92) translate(60, -920)">					<path d="M 320 494 Q 268 494 224 495 Q 190 495 207 516 Q 277 625 343 706 Q 359 724 356 732 Q 355 747 314 780 Q 298 795 279 791 Q 267 788 273 772 Q 289 730 199 574 Q 180 538 140 505 Q 121 490 122 478 Q 126 459 140 440 Q 150 428 164 435 Q 206 457 301 468 C 331 472 350 494 320 494 Z" fill="black"></path>
				<path d="M 301 468 Q 196 327 176 317 Q 163 308 166 294 Q 167 281 194 263 Q 204 251 219 263 Q 279 311 387 351 Q 406 357 407 365 Q 410 375 390 371 Q 332 358 260 334 Q 238 325 252 345 Q 295 406 397 531 Q 425 568 450 589 Q 462 599 456 609 Q 446 628 413 646 Q 397 656 387 653 Q 377 649 380 634 Q 383 595 320 494 L 301 468 Z" fill="black"></path>
				<path d="M 130 145 Q 118 141 118 132 Q 118 119 128 113 Q 152 101 185 88 Q 195 87 206 96 Q 236 129 390 225 Q 412 240 426 255 Q 438 264 437 273 Q 430 277 419 273 Q 313 218 177 157 Q 161 148 130 145 Z" fill="black"></path>
				<path d="M 596 739 Q 627 717 661 689 Q 677 676 696 679 Q 708 680 712 696 Q 716 714 702 746 Q 693 768 658 779 Q 577 800 560 792 Q 554 786 558 772 Q 562 759 596 739 Z" fill="black"></path>
				<path d="M 677 524 Q 713 531 849 552 Q 859 551 869 564 Q 870 577 846 587 Q 807 608 731 582 Q 572 546 444 526 Q 414 522 437 504 Q 476 479 502 486 Q 565 502 644 517 L 677 524 Z" fill="black"></path>
				<path d="M 663 240 Q 706 309 722 425 Q 725 453 732 471 Q 736 484 727 492 Q 714 505 677 524 C 651 538 636 546 644 517 Q 644 516 645 512 Q 678 407 627 279 L 603 240 Q 567 170 374 99 Q 364 98 359 93 Q 353 89 363 84 Q 369 83 383 84 Q 480 97 550 135 Q 602 162 633 201 L 663 240 Z" fill="red"></path>
				<path d="M 633 201 Q 679 143 753 69 Q 781 42 828 47 Q 889 53 934 56 Q 947 57 961 62 Q 970 69 957 79 Q 942 89 817 133 Q 741 163 663 240 L 627 279 Q 588 322 547 376 Q 528 403 492 411 Q 480 414 470 407 Q 466 400 474 393 Q 481 386 489 381 Q 517 365 603 240 L 633 201 Z" fill="lightgray"></path>
</g>
		<text x="40" y="140" font-size="128" fill="#999999">6</text></g>
		<g id="id1:id1:id1" transform="matrix(1.0,0,0,1.0,1024,0.0)">			<g stroke="lightgray" stroke-width="4" transform="scale(4, 4)"> <rect x="0" y="0" width="256" height="256" fill="white" stroke-width="4"/></g>
			<g transform="scale(0.92, -0.92) translate(60, -920)">					<path d="M 320 494 Q 268 494 224 495 Q 190 495 207 516 Q 277 625 343 706 Q 359 724 356 732 Q 355 747 314 780 Q 298 795 279 791 Q 267 788 273 772 Q 289 730 199 574 Q 180 538 140 505 Q 121 490 122 478 Q 126 459 140 440 Q 150 428 164 435 Q 206 457 301 468 C 331 472 350 494 320 494 Z" fill="black"></path>
				<path d="M 301 468 Q 196 327 176 317 Q 163 308 166 294 Q 167 281 194 263 Q 204 251 219 263 Q 279 311 387 351 Q 406 357 407 365 Q 410 375 390 371 Q 332 358 260 334 Q 238 325 252 345 Q 295 406 397 531 Q 425 568 450 589 Q 462 599 456 609 Q 446 628 413 646 Q 397 656 387 653 Q 377 649 380 634 Q 383 595 320 494 L 301 468 Z" fill="black"></path>
				<path d="M 130 145 Q 118 141 118 132 Q 118 119 128 113 Q 152 101 185 88 Q 195 87 206 96 Q 236 129 390 225 Q 412 240 426 255 Q 438 264 437 273 Q 430 277 419 273 Q 313 218 177 157 Q 161 148 130 145 Z" fill="black"></path>
				<path d="M 596 739 Q 627 717 661 689 Q 677 676 696 679 Q 708 680 712 696 Q 716 714 702 746 Q 693 768 658 779 Q 577 800 560 792 Q 554 786 558 772 Q 562 759 596 739 Z" fill="black"></path>
				<path d="M 677 524 Q 713 531 849 552 Q 859 551 869 564 Q 870 577 846 587 Q 807 608 731 582 Q 572 546 444 526 Q 414 522 437 504 Q 476 479 502 486 Q 565 502 644 517 L 677 524 Z" fill="black"></path>
				<path d="M 663 240 Q 706 309 722 425 Q 725 453 732 471 Q 736 484 727 492 Q 714 505 677 524 C 651 538 636 546 644 517 Q 644 516 645 512 Q 678 407 627 279 L 603 240 Q 567 170 374 99 Q 364 98 359 93 Q 353 89 363 84 Q 369 83 383 84 Q 480 97 550 135 Q 602 162 633 201 L 663 240 Z" fill="black"></path>
				<path d="M 633 201 Q 679 143 753 69 Q 781 42 828 47 Q 889 53 934 56 Q 947 57 961 62 Q 970 69 957 79 Q 942 89 817 133 Q 741 163 663 240 L 627 279 Q 588 322 547 376 Q 528 403 492 411 Q 480 414 470 407 Q 466 400 474 393 Q 481 386 489 381 Q 517 365 603 240 L 633 201 Z" fill="red"></path>
</g>
		<text x="40" y="140" font-size="128" fill="#999999">7</text></g>
		<g id="id1:id2:id2" transform="matrix(1.0,0,0,1.0,2048,0.0)">			<g stroke="white" stroke-width="4" transform="scale(4, 4)"> <rect x="1" y="1" width="255" height="255" fill="white" stroke-width="0"/></g>
</g>
		<g id="id1:id3:id3" transform="matrix(1.0,0,0,1.0,3072,0.0)">			<g stroke="white" stroke-width="4" transform="scale(4, 4)"> <rect x="1" y="1" width="255" height="255" fill="white" stroke-width="0"/></g>
</g>
		<g id="id1:id4:id4" transform="matrix(1.0,0,0,1.0,4096,0.0)">			<g stroke="white" stroke-width="4" transform="scale(4, 4)"> <rect x="1" y="1" width="255" height="255" fill="white" stroke-width="0"/></g>
</g>
</g>
</svg>
