<?xml version="1.0" standalone="no"?>
<!DOCTYPE svg PUBLIC "-//W3C//DTD SVG 1.1//EN"
 "http://www.w3.org/Graphics/SVG/1.1/DTD/svg11.dtd">
<!-- generate by Handict dictionary app com.asnsami.handict -->

<svg xmlns="http://www.w3.org/2000/svg" xmlns:sodipodi="http://sodipodi.sourceforge.net/DTD/sodipodi-0.dtd" version="1.1" width="640" height="384" viewBox="0 0 5120 3072">
	<g id="id0:id0" transform="translate(0.0,0)">
		<g id="id0:id0:id0" transform="matrix(1.0,0,0,1.0,0,0.0)">			<g stroke="lightgray" stroke-width="4" transform="scale(4, 4)"> <rect x="0" y="0" width="256" height="256" fill="white" stroke-width="4"/></g>
			<g transform="scale(0.92, -0.92) translate(60, -920)">					<path d="M 289 501 Q 288 502 286 501 Q 237 500 197 500 Q 166 499 181 519 Q 251 634 319 721 Q 334 737 331 745 Q 330 760 291 791 Q 275 804 256 801 Q 246 798 251 783 Q 267 744 177 580 Q 158 543 116 508 Q 98 493 100 481 Q 104 462 118 444 Q 128 434 141 441 Q 180 465 271 476 C 301 480 319 501 289 501 Z" fill="red"></path>
				<path d="M 271 476 Q 189 364 161 349 Q 148 340 150 327 Q 151 314 176 296 Q 186 284 200 296 Q 260 336 363 369 Q 381 373 383 381 Q 386 391 367 388 Q 312 379 244 361 Q 216 351 234 374 Q 268 420 349 512 Q 377 546 400 567 Q 412 576 406 586 Q 396 604 366 622 Q 350 631 342 629 Q 332 625 334 611 Q 337 578 289 501 L 271 476 Z" fill="lightgray"></path>
				<path d="M 121 165 Q 108 161 108 150 Q 108 137 119 130 Q 146 117 182 104 Q 194 103 204 114 Q 219 132 366 238 Q 385 251 398 266 Q 410 276 409 285 Q 402 289 390 285 Q 174 171 121 165 Z" fill="lightgray"></path>
				<path d="M 419 722 Q 437 683 426 593 Q 417 562 449 537 Q 459 530 461 538 Q 471 545 470 602 Q 469 665 472 688 Q 476 700 471 710 Q 446 735 428 738 Q 424 741 420 736 Q 416 732 419 722 Z" fill="lightgray"></path>
				<path d="M 506 785 Q 533 737 525 546 Q 526 524 531 510 Q 535 501 543 506 Q 555 519 566 698 Q 569 741 573 759 Q 580 774 570 783 Q 558 793 537 803 Q 521 810 504 802 Q 495 796 506 785 Z" fill="lightgray"></path>
				<path d="M 684 697 Q 697 724 712 755 Q 721 780 730 794 Q 736 803 730 813 Q 726 822 700 834 Q 678 844 664 841 Q 651 837 659 822 Q 687 783 600 600 Q 594 591 594 586 Q 593 577 603 581 Q 627 596 666 664 Q 669 670 672 675 L 684 697 Z" fill="lightgray"></path>
				<path d="M 672 675 Q 714 657 780 673 Q 871 697 877 701 Q 884 708 880 717 Q 873 727 843 733 Q 815 737 786 723 Q 764 714 740 708 Q 713 701 684 697 C 654 693 644 686 672 675 Z" fill="lightgray"></path>
				<path d="M 720 586 Q 748 561 776 533 Q 786 521 800 522 Q 809 522 813 533 Q 817 545 811 569 Q 807 588 778 603 Q 717 633 700 627 Q 696 623 697 613 Q 698 603 720 586 Z" fill="lightgray"></path>
				<path d="M 497 469 Q 479 482 458 489 Q 451 490 446 484 Q 445 480 450 471 Q 478 395 455 288 Q 436 249 468 210 Q 477 200 484 211 Q 502 229 503 355 Q 503 422 506 444 C 508 462 508 462 497 469 Z" fill="lightgray"></path>
				<path d="M 693 269 Q 686 250 698 231 Q 710 206 718 207 Q 731 208 744 236 Q 757 258 755 276 Q 736 415 763 456 Q 782 483 700 516 Q 687 520 666 513 Q 590 477 497 469 C 467 466 476 440 506 444 Q 515 444 601 463 Q 668 481 684 472 Q 691 456 695 416 Q 699 293 693 269 Z" fill="lightgray"></path>
				<path d="M 600 284 Q 609 341 623 365 Q 627 374 621 380 Q 609 393 583 408 Q 568 417 555 414 Q 539 410 550 395 Q 583 353 545 218 Q 515 101 386 45 Q 367 38 343 29 Q 333 28 330 24 Q 326 20 337 17 Q 410 8 506 72 Q 513 81 522 88 Q 567 137 592 246 L 600 284 Z" fill="lightgray"></path>
				<path d="M 947 58 Q 928 109 915 195 Q 912 210 905 214 Q 898 218 895 200 Q 888 91 874 69 Q 852 45 752 40 Q 698 40 675 49 Q 656 59 650 72 Q 632 129 654 198 Q 660 243 661 245 Q 639 275 600 284 C 580 291 584 275 592 246 Q 602 218 601 179 Q 600 86 607 68 Q 614 38 636 22 Q 681 -12 834 -5 Q 904 -1 932 14 Q 960 29 947 58 Z" fill="lightgray"></path>
</g>
		<text x="40" y="140" font-size="128" fill="#999999">1</text></g>
		<g id="id0:id1:id1" transform="matrix(1.0,0,0,1.0,1024,0.0)">			<g stroke="lightgray" stroke-width="4" transform="scale(4, 4)"> <rect x="0" y="0" width="256" height="256" fill="white" stroke-width="4"/></g>
			<g transform="scale(0.92, -0.92) translate(60, -920)">					<path d="M 289 501 Q 288 502 286 501 Q 237 500 197 500 Q 166 499 181 519 Q 251 634 319 721 Q 334 737 331 745 Q 330 760 291 791 Q 275 804 256 801 Q 246 798 251 783 Q 267 744 177 580 Q 158 543 116 508 Q 98 493 100 481 Q 104 462 118 444 Q 128 434 141 441 Q 180 465 271 476 C 301 480 319 501 289 501 Z" fill="black"></path>
				<path d="M 271 476 Q 189 364 161 349 Q 148 340 150 327 Q 151 314 176 296 Q 186 284 200 296 Q 260 336 363 369 Q 381 373 383 381 Q 386 391 367 388 Q 312 379 244 361 Q 216 351 234 374 Q 268 420 349 512 Q 377 546 400 567 Q 412 576 406 586 Q 396 604 366 622 Q 350 631 342 629 Q 332 625 334 611 Q 337 578 289 501 L 271 476 Z" fill="red"></path>
				<path d="M 121 165 Q 108 161 108 150 Q 108 137 119 130 Q 146 117 182 104 Q 194 103 204 114 Q 219 132 366 238 Q 385 251 398 266 Q 410 276 409 285 Q 402 289 390 285 Q 174 171 121 165 Z" fill="lightgray"></path>
				<path d="M 419 722 Q 437 683 426 593 Q 417 562 449 537 Q 459 530 461 538 Q 471 545 470 602 Q 469 665 472 688 Q 476 700 471 710 Q 446 735 428 738 Q 424 741 420 736 Q 416 732 419 722 Z" fill="lightgray"></path>
				<path d="M 506 785 Q 533 737 525 546 Q 526 524 531 510 Q 535 501 543 506 Q 555 519 566 698 Q 569 741 573 759 Q 580 774 570 783 Q 558 793 537 803 Q 521 810 504 802 Q 495 796 506 785 Z" fill="lightgray"></path>
				<path d="M 684 697 Q 697 724 712 755 Q 721 780 730 794 Q 736 803 730 813 Q 726 822 700 834 Q 678 844 664 841 Q 651 837 659 822 Q 687 783 600 600 Q 594 591 594 586 Q 593 577 603 581 Q 627 596 666 664 Q 669 670 672 675 L 684 697 Z" fill="lightgray"></path>
				<path d="M 672 675 Q 714 657 780 673 Q 871 697 877 701 Q 884 708 880 717 Q 873 727 843 733 Q 815 737 786 723 Q 764 714 740 708 Q 713 701 684 697 C 654 693 644 686 672 675 Z" fill="lightgray"></path>
				<path d="M 720 586 Q 748 561 776 533 Q 786 521 800 522 Q 809 522 813 533 Q 817 545 811 569 Q 807 588 778 603 Q 717 633 700 627 Q 696 623 697 613 Q 698 603 720 586 Z" fill="lightgray"></path>
				<path d="M 497 469 Q 479 482 458 489 Q 451 490 446 484 Q 445 480 450 471 Q 478 395 455 288 Q 436 249 468 210 Q 477 200 484 211 Q 502 229 503 355 Q 503 422 506 444 C 508 462 508 462 497 469 Z" fill="lightgray"></path>
				<path d="M 693 269 Q 686 250 698 231 Q 710 206 718 207 Q 731 208 744 236 Q 757 258 755 276 Q 736 415 763 456 Q 782 483 700 516 Q 687 520 666 513 Q 590 477 497 469 C 467 466 476 440 506 444 Q 515 444 601 463 Q 668 481 684 472 Q 691 456 695 416 Q 699 293 693 269 Z" fill="lightgray"></path>
				<path d="M 600 284 Q 609 341 623 365 Q 627 374 621 380 Q 609 393 583 408 Q 568 417 555 414 Q 539 410 550 395 Q 583 353 545 218 Q 515 101 386 45 Q 367 38 343 29 Q 333 28 330 24 Q 326 20 337 17 Q 410 8 506 72 Q 513 81 522 88 Q 567 137 592 246 L 600 284 Z" fill="lightgray"></path>
				<path d="M 947 58 Q 928 109 915 195 Q 912 210 905 214 Q 898 218 895 200 Q 888 91 874 69 Q 852 45 752 40 Q 698 40 675 49 Q 656 59 650 72 Q 632 129 654 198 Q 660 243 661 245 Q 639 275 600 284 C 580 291 584 275 592 246 Q 602 218 601 179 Q 600 86 607 68 Q 614 38 636 22 Q 681 -12 834 -5 Q 904 -1 932 14 Q 960 29 947 58 Z" fill="lightgray"></path>
</g>
		<text x="40" y="140" font-size="128" fill="#999999">2</text></g>
		<g id="id0:id2:id2" transform="matrix(1.0,0,0,1.0,2048,0.0)">			<g stroke="lightgray" stroke-width="4" transform="scale(4, 4)"> <rect x="0" y="0" width="256" height="256" fill="white" stroke-width="4"/></g>
			<g transform="scale(0.92, -0.92) translate(60, -920)">					<path d="M 289 501 Q 288 502 286 501 Q 237 500 197 500 Q 166 499 181 519 Q 251 634 319 721 Q 334 737 331 745 Q 330 760 291 791 Q 275 804 256 801 Q 246 798 251 783 Q 267 744 177 580 Q 158 543 116 508 Q 98 493 100 481 Q 104 462 118 444 Q 128 434 141 441 Q 180 465 271 476 C 301 480 319 501 289 501 Z" fill="black"></path>
				<path d="M 271 476 Q 189 364 161 349 Q 148 340 150 327 Q 151 314 176 296 Q 186 284 200 296 Q 260 336 363 369 Q 381 373 383 381 Q 386 391 367 388 Q 312 379 244 361 Q 216 351 234 374 Q 268 420 349 512 Q 377 546 400 567 Q 412 576 406 586 Q 396 604 366 622 Q 350 631 342 629 Q 332 625 334 611 Q 337 578 289 501 L 271 476 Z" fill="black"></path>
				<path d="M 121 165 Q 108 161 108 150 Q 108 137 119 130 Q 146 117 182 104 Q 194 103 204 114 Q 219 132 366 238 Q 385 251 398 266 Q 410 276 409 285 Q 402 289 390 285 Q 174 171 121 165 Z" fill="red"></path>
				<path d="M 419 722 Q 437 683 426 593 Q 417 562 449 537 Q 459 530 461 538 Q 471 545 470 602 Q 469 665 472 688 Q 476 700 471 710 Q 446 735 428 738 Q 424 741 420 736 Q 416 732 419 722 Z" fill="lightgray"></path>
				<path d="M 506 785 Q 533 737 525 546 Q 526 524 531 510 Q 535 501 543 506 Q 555 519 566 698 Q 569 741 573 759 Q 580 774 570 783 Q 558 793 537 803 Q 521 810 504 802 Q 495 796 506 785 Z" fill="lightgray"></path>
				<path d="M 684 697 Q 697 724 712 755 Q 721 780 730 794 Q 736 803 730 813 Q 726 822 700 834 Q 678 844 664 841 Q 651 837 659 822 Q 687 783 600 600 Q 594 591 594 586 Q 593 577 603 581 Q 627 596 666 664 Q 669 670 672 675 L 684 697 Z" fill="lightgray"></path>
				<path d="M 672 675 Q 714 657 780 673 Q 871 697 877 701 Q 884 708 880 717 Q 873 727 843 733 Q 815 737 786 723 Q 764 714 740 708 Q 713 701 684 697 C 654 693 644 686 672 675 Z" fill="lightgray"></path>
				<path d="M 720 586 Q 748 561 776 533 Q 786 521 800 522 Q 809 522 813 533 Q 817 545 811 569 Q 807 588 778 603 Q 717 633 700 627 Q 696 623 697 613 Q 698 603 720 586 Z" fill="lightgray"></path>
				<path d="M 497 469 Q 479 482 458 489 Q 451 490 446 484 Q 445 480 450 471 Q 478 395 455 288 Q 436 249 468 210 Q 477 200 484 211 Q 502 229 503 355 Q 503 422 506 444 C 508 462 508 462 497 469 Z" fill="lightgray"></path>
				<path d="M 693 269 Q 686 250 698 231 Q 710 206 718 207 Q 731 208 744 236 Q 757 258 755 276 Q 736 415 763 456 Q 782 483 700 516 Q 687 520 666 513 Q 590 477 497 469 C 467 466 476 440 506 444 Q 515 444 601 463 Q 668 481 684 472 Q 691 456 695 416 Q 699 293 693 269 Z" fill="lightgray"></path>
				<path d="M 600 284 Q 609 341 623 365 Q 627 374 621 380 Q 609 393 583 408 Q 568 417 555 414 Q 539 410 550 395 Q 583 353 545 218 Q 515 101 386 45 Q 367 38 343 29 Q 333 28 330 24 Q 326 20 337 17 Q 410 8 506 72 Q 513 81 522 88 Q 567 137 592 246 L 600 284 Z" fill="lightgray"></path>
				<path d="M 947 58 Q 928 109 915 195 Q 912 210 905 214 Q 898 218 895 200 Q 888 91 874 69 Q 852 45 752 40 Q 698 40 675 49 Q 656 59 650 72 Q 632 129 654 198 Q 660 243 661 245 Q 639 275 600 284 C 580 291 584 275 592 246 Q 602 218 601 179 Q 600 86 607 68 Q 614 38 636 22 Q 681 -12 834 -5 Q 904 -1 932 14 Q 960 29 947 58 Z" fill="lightgray"></path>
</g>
		<text x="40" y="140" font-size="128" fill="#999999">3</text></g>
		<g id="id0:id3:id3" transform="matrix(1.0,0,0,1.0,3072,0.0)">			<g stroke="lightgray" stroke-width="4" transform="scale(4, 4)"> <rect x="0" y="0" width="256" height="256" fill="white" stroke-width="4"/></g>
			<g transform="scale(0.92, -0.92) translate(60, -920)">					<path d="M 289 501 Q 288 502 286 501 Q 237 500 197 500 Q 166 499 181 519 Q 251 634 319 721 Q 334 737 331 745 Q 330 760 291 791 Q 275 804 256 801 Q 246 798 251 783 Q 267 744 177 580 Q 158 543 116 508 Q 98 493 100 481 Q 104 462 118 444 Q 128 434 141 441 Q 180 465 271 476 C 301 480 319 501 289 501 Z" fill="black"></path>
				<path d="M 271 476 Q 189 364 161 349 Q 148 340 150 327 Q 151 314 176 296 Q 186 284 200 296 Q 260 336 363 369 Q 381 373 383 381 Q 386 391 367 388 Q 312 379 244 361 Q 216 351 234 374 Q 268 420 349 512 Q 377 546 400 567 Q 412 576 406 586 Q 396 604 366 622 Q 350 631 342 629 Q 332 625 334 611 Q 337 578 289 501 L 271 476 Z" fill="black"></path>
				<path d="M 121 165 Q 108 161 108 150 Q 108 137 119 130 Q 146 117 182 104 Q 194 103 204 114 Q 219 132 366 238 Q 385 251 398 266 Q 410 276 409 285 Q 402 289 390 285 Q 174 171 121 165 Z" fill="black"></path>
				<path d="M 419 722 Q 437 683 426 593 Q 417 562 449 537 Q 459 530 461 538 Q 471 545 470 602 Q 469 665 472 688 Q 476 700 471 710 Q 446 735 428 738 Q 424 741 420 736 Q 416 732 419 722 Z" fill="red"></path>
				<path d="M 506 785 Q 533 737 525 546 Q 526 524 531 510 Q 535 501 543 506 Q 555 519 566 698 Q 569 741 573 759 Q 580 774 570 783 Q 558 793 537 803 Q 521 810 504 802 Q 495 796 506 785 Z" fill="lightgray"></path>
				<path d="M 684 697 Q 697 724 712 755 Q 721 780 730 794 Q 736 803 730 813 Q 726 822 700 834 Q 678 844 664 841 Q 651 837 659 822 Q 687 783 600 600 Q 594 591 594 586 Q 593 577 603 581 Q 627 596 666 664 Q 669 670 672 675 L 684 697 Z" fill="lightgray"></path>
				<path d="M 672 675 Q 714 657 780 673 Q 871 697 877 701 Q 884 708 880 717 Q 873 727 843 733 Q 815 737 786 723 Q 764 714 740 708 Q 713 701 684 697 C 654 693 644 686 672 675 Z" fill="lightgray"></path>
				<path d="M 720 586 Q 748 561 776 533 Q 786 521 800 522 Q 809 522 813 533 Q 817 545 811 569 Q 807 588 778 603 Q 717 633 700 627 Q 696 623 697 613 Q 698 603 720 586 Z" fill="lightgray"></path>
				<path d="M 497 469 Q 479 482 458 489 Q 451 490 446 484 Q 445 480 450 471 Q 478 395 455 288 Q 436 249 468 210 Q 477 200 484 211 Q 502 229 503 355 Q 503 422 506 444 C 508 462 508 462 497 469 Z" fill="lightgray"></path>
				<path d="M 693 269 Q 686 250 698 231 Q 710 206 718 207 Q 731 208 744 236 Q 757 258 755 276 Q 736 415 763 456 Q 782 483 700 516 Q 687 520 666 513 Q 590 477 497 469 C 467 466 476 440 506 444 Q 515 444 601 463 Q 668 481 684 472 Q 691 456 695 416 Q 699 293 693 269 Z" fill="lightgray"></path>
				<path d="M 600 284 Q 609 341 623 365 Q 627 374 621 380 Q 609 393 583 408 Q 568 417 555 414 Q 539 410 550 395 Q 583 353 545 218 Q 515 101 386 45 Q 367 38 343 29 Q 333 28 330 24 Q 326 20 337 17 Q 410 8 506 72 Q 513 81 522 88 Q 567 137 592 246 L 600 284 Z" fill="lightgray"></path>
				<path d="M 947 58 Q 928 109 915 195 Q 912 210 905 214 Q 898 218 895 200 Q 888 91 874 69 Q 852 45 752 40 Q 698 40 675 49 Q 656 59 650 72 Q 632 129 654 198 Q 660 243 661 245 Q 639 275 600 284 C 580 291 584 275 592 246 Q 602 218 601 179 Q 600 86 607 68 Q 614 38 636 22 Q 681 -12 834 -5 Q 904 -1 932 14 Q 960 29 947 58 Z" fill="lightgray"></path>
</g>
		<text x="40" y="140" font-size="128" fill="#999999">4</text></g>
		<g id="id0:id4:id4" transform="matrix(1.0,0,0,1.0,4096,0.0)">			<g stroke="lightgray" stroke-width="4" transform="scale(4, 4)"> <rect x="0" y="0" width="256" height="256" fill="white" stroke-width="4"/></g>
			<g transform="scale(0.92, -0.92) translate(60, -920)">					<path d="M 289 501 Q 288 502 286 501 Q 237 500 197 500 Q 166 499 181 519 Q 251 634 319 721 Q 334 737 331 745 Q 330 760 291 791 Q 275 804 256 801 Q 246 798 251 783 Q 267 744 177 580 Q 158 543 116 508 Q 98 493 100 481 Q 104 462 118 444 Q 128 434 141 441 Q 180 465 271 476 C 301 480 319 501 289 501 Z" fill="black"></path>
				<path d="M 271 476 Q 189 364 161 349 Q 148 340 150 327 Q 151 314 176 296 Q 186 284 200 296 Q 260 336 363 369 Q 381 373 383 381 Q 386 391 367 388 Q 312 379 244 361 Q 216 351 234 374 Q 268 420 349 512 Q 377 546 400 567 Q 412 576 406 586 Q 396 604 366 622 Q 350 631 342 629 Q 332 625 334 611 Q 337 578 289 501 L 271 476 Z" fill="black"></path>
				<path d="M 121 165 Q 108 161 108 150 Q 108 137 119 130 Q 146 117 182 104 Q 194 103 204 114 Q 219 132 366 238 Q 385 251 398 266 Q 410 276 409 285 Q 402 289 390 285 Q 174 171 121 165 Z" fill="black"></path>
				<path d="M 419 722 Q 437 683 426 593 Q 417 562 449 537 Q 459 530 461 538 Q 471 545 470 602 Q 469 665 472 688 Q 476 700 471 710 Q 446 735 428 738 Q 424 741 420 736 Q 416 732 419 722 Z" fill="black"></path>
				<path d="M 506 785 Q 533 737 525 546 Q 526 524 531 510 Q 535 501 543 506 Q 555 519 566 698 Q 569 741 573 759 Q 580 774 570 783 Q 558 793 537 803 Q 521 810 504 802 Q 495 796 506 785 Z" fill="red"></path>
				<path d="M 684 697 Q 697 724 712 755 Q 721 780 730 794 Q 736 803 730 813 Q 726 822 700 834 Q 678 844 664 841 Q 651 837 659 822 Q 687 783 600 600 Q 594 591 594 586 Q 593 577 603 581 Q 627 596 666 664 Q 669 670 672 675 L 684 697 Z" fill="lightgray"></path>
				<path d="M 672 675 Q 714 657 780 673 Q 871 697 877 701 Q 884 708 880 717 Q 873 727 843 733 Q 815 737 786 723 Q 764 714 740 708 Q 713 701 684 697 C 654 693 644 686 672 675 Z" fill="lightgray"></path>
				<path d="M 720 586 Q 748 561 776 533 Q 786 521 800 522 Q 809 522 813 533 Q 817 545 811 569 Q 807 588 778 603 Q 717 633 700 627 Q 696 623 697 613 Q 698 603 720 586 Z" fill="lightgray"></path>
				<path d="M 497 469 Q 479 482 458 489 Q 451 490 446 484 Q 445 480 450 471 Q 478 395 455 288 Q 436 249 468 210 Q 477 200 484 211 Q 502 229 503 355 Q 503 422 506 444 C 508 462 508 462 497 469 Z" fill="lightgray"></path>
				<path d="M 693 269 Q 686 250 698 231 Q 710 206 718 207 Q 731 208 744 236 Q 757 258 755 276 Q 736 415 763 456 Q 782 483 700 516 Q 687 520 666 513 Q 590 477 497 469 C 467 466 476 440 506 444 Q 515 444 601 463 Q 668 481 684 472 Q 691 456 695 416 Q 699 293 693 269 Z" fill="lightgray"></path>
				<path d="M 600 284 Q 609 341 623 365 Q 627 374 621 380 Q 609 393 583 408 Q 568 417 555 414 Q 539 410 550 395 Q 583 353 545 218 Q 515 101 386 45 Q 367 38 343 29 Q 333 28 330 24 Q 326 20 337 17 Q 410 8 506 72 Q 513 81 522 88 Q 567 137 592 246 L 600 284 Z" fill="lightgray"></path>
				<path d="M 947 58 Q 928 109 915 195 Q 912 210 905 214 Q 898 218 895 200 Q 888 91 874 69 Q 852 45 752 40 Q 698 40 675 49 Q 656 59 650 72 Q 632 129 654 198 Q 660 243 661 245 Q 639 275 600 284 C 580 291 584 275 592 246 Q 602 218 601 179 Q 600 86 607 68 Q 614 38 636 22 Q 681 -12 834 -5 Q 904 -1 932 14 Q 960 29 947 58 Z" fill="lightgray"></path>
</g>
		<text x="40" y="140" font-size="128" fill="#999999">5</text></g>
</g>
	<g id="id1:id1" transform="translate(0.0,1024)">
		<g id="id1:id0:id0" transform="matrix(1.0,0,0,1.0,0,0.0)">			<g stroke="lightgray" stroke-width="4" transform="scale(4, 4)"> <rect x="0" y="0" width="256" height="256" fill="white" stroke-width="4"/></g>
			<g transform="scale(0.92, -0.92) translate(60, -920)">					<path d="M 289 501 Q 288 502 286 501 Q 237 500 197 500 Q 166 499 181 519 Q 251 634 319 721 Q 334 737 331 745 Q 330 760 291 791 Q 275 804 256 801 Q 246 798 251 783 Q 267 744 177 580 Q 158 543 116 508 Q 98 493 100 481 Q 104 462 118 444 Q 128 434 141 441 Q 180 465 271 476 C 301 480 319 501 289 501 Z" fill="black"></path>
				<path d="M 271 476 Q 189 364 161 349 Q 148 340 150 327 Q 151 314 176 296 Q 186 284 200 296 Q 260 336 363 369 Q 381 373 383 381 Q 386 391 367 388 Q 312 379 244 361 Q 216 351 234 374 Q 268 420 349 512 Q 377 546 400 567 Q 412 576 406 586 Q 396 604 366 622 Q 350 631 342 629 Q 332 625 334 611 Q 337 578 289 501 L 271 476 Z" fill="black"></path>
				<path d="M 121 165 Q 108 161 108 150 Q 108 137 119 130 Q 146 117 182 104 Q 194 103 204 114 Q 219 132 366 238 Q 385 251 398 266 Q 410 276 409 285 Q 402 289 390 285 Q 174 171 121 165 Z" fill="black"></path>
				<path d="M 419 722 Q 437 683 426 593 Q 417 562 449 537 Q 459 530 461 538 Q 471 545 470 602 Q 469 665 472 688 Q 476 700 471 710 Q 446 735 428 738 Q 424 741 420 736 Q 416 732 419 722 Z" fill="black"></path>
				<path d="M 506 785 Q 533 737 525 546 Q 526 524 531 510 Q 535 501 543 506 Q 555 519 566 698 Q 569 741 573 759 Q 580 774 570 783 Q 558 793 537 803 Q 521 810 504 802 Q 495 796 506 785 Z" fill="black"></path>
				<path d="M 684 697 Q 697 724 712 755 Q 721 780 730 794 Q 736 803 730 813 Q 726 822 700 834 Q 678 844 664 841 Q 651 837 659 822 Q 687 783 600 600 Q 594 591 594 586 Q 593 577 603 581 Q 627 596 666 664 Q 669 670 672 675 L 684 697 Z" fill="red"></path>
				<path d="M 672 675 Q 714 657 780 673 Q 871 697 877 701 Q 884 708 880 717 Q 873 727 843 733 Q 815 737 786 723 Q 764 714 740 708 Q 713 701 684 697 C 654 693 644 686 672 675 Z" fill="lightgray"></path>
				<path d="M 720 586 Q 748 561 776 533 Q 786 521 800 522 Q 809 522 813 533 Q 817 545 811 569 Q 807 588 778 603 Q 717 633 700 627 Q 696 623 697 613 Q 698 603 720 586 Z" fill="lightgray"></path>
				<path d="M 497 469 Q 479 482 458 489 Q 451 490 446 484 Q 445 480 450 471 Q 478 395 455 288 Q 436 249 468 210 Q 477 200 484 211 Q 502 229 503 355 Q 503 422 506 444 C 508 462 508 462 497 469 Z" fill="lightgray"></path>
				<path d="M 693 269 Q 686 250 698 231 Q 710 206 718 207 Q 731 208 744 236 Q 757 258 755 276 Q 736 415 763 456 Q 782 483 700 516 Q 687 520 666 513 Q 590 477 497 469 C 467 466 476 440 506 444 Q 515 444 601 463 Q 668 481 684 472 Q 691 456 695 416 Q 699 293 693 269 Z" fill="lightgray"></path>
				<path d="M 600 284 Q 609 341 623 365 Q 627 374 621 380 Q 609 393 583 408 Q 568 417 555 414 Q 539 410 550 395 Q 583 353 545 218 Q 515 101 386 45 Q 367 38 343 29 Q 333 28 330 24 Q 326 20 337 17 Q 410 8 506 72 Q 513 81 522 88 Q 567 137 592 246 L 600 284 Z" fill="lightgray"></path>
				<path d="M 947 58 Q 928 109 915 195 Q 912 210 905 214 Q 898 218 895 200 Q 888 91 874 69 Q 852 45 752 40 Q 698 40 675 49 Q 656 59 650 72 Q 632 129 654 198 Q 660 243 661 245 Q 639 275 600 284 C 580 291 584 275 592 246 Q 602 218 601 179 Q 600 86 607 68 Q 614 38 636 22 Q 681 -12 834 -5 Q 904 -1 932 14 Q 960 29 947 58 Z" fill="lightgray"></path>
</g>
		<text x="40" y="140" font-size="128" fill="#999999">6</text></g>
		<g id="id1:id1:id1" transform="matrix(1.0,0,0,1.0,1024,0.0)">			<g stroke="lightgray" stroke-width="4" transform="scale(4, 4)"> <rect x="0" y="0" width="256" height="256" fill="white" stroke-width="4"/></g>
			<g transform="scale(0.92, -0.92) translate(60, -920)">					<path d="M 289 501 Q 288 502 286 501 Q 237 500 197 500 Q 166 499 181 519 Q 251 634 319 721 Q 334 737 331 745 Q 330 760 291 791 Q 275 804 256 801 Q 246 798 251 783 Q 267 744 177 580 Q 158 543 116 508 Q 98 493 100 481 Q 104 462 118 444 Q 128 434 141 441 Q 180 465 271 476 C 301 480 319 501 289 501 Z" fill="black"></path>
				<path d="M 271 476 Q 189 364 161 349 Q 148 340 150 327 Q 151 314 176 296 Q 186 284 200 296 Q 260 336 363 369 Q 381 373 383 381 Q 386 391 367 388 Q 312 379 244 361 Q 216 351 234 374 Q 268 420 349 512 Q 377 546 400 567 Q 412 576 406 586 Q 396 604 366 622 Q 350 631 342 629 Q 332 625 334 611 Q 337 578 289 501 L 271 476 Z" fill="black"></path>
				<path d="M 121 165 Q 108 161 108 150 Q 108 137 119 130 Q 146 117 182 104 Q 194 103 204 114 Q 219 132 366 238 Q 385 251 398 266 Q 410 276 409 285 Q 402 289 390 285 Q 174 171 121 165 Z" fill="black"></path>
				<path d="M 419 722 Q 437 683 426 593 Q 417 562 449 537 Q 459 530 461 538 Q 471 545 470 602 Q 469 665 472 688 Q 476 700 471 710 Q 446 735 428 738 Q 424 741 420 736 Q 416 732 419 722 Z" fill="black"></path>
				<path d="M 506 785 Q 533 737 525 546 Q 526 524 531 510 Q 535 501 543 506 Q 555 519 566 698 Q 569 741 573 759 Q 580 774 570 783 Q 558 793 537 803 Q 521 810 504 802 Q 495 796 506 785 Z" fill="black"></path>
				<path d="M 684 697 Q 697 724 712 755 Q 721 780 730 794 Q 736 803 730 813 Q 726 822 700 834 Q 678 844 664 841 Q 651 837 659 822 Q 687 783 600 600 Q 594 591 594 586 Q 593 577 603 581 Q 627 596 666 664 Q 669 670 672 675 L 684 697 Z" fill="black"></path>
				<path d="M 672 675 Q 714 657 780 673 Q 871 697 877 701 Q 884 708 880 717 Q 873 727 843 733 Q 815 737 786 723 Q 764 714 740 708 Q 713 701 684 697 C 654 693 644 686 672 675 Z" fill="red"></path>
				<path d="M 720 586 Q 748 561 776 533 Q 786 521 800 522 Q 809 522 813 533 Q 817 545 811 569 Q 807 588 778 603 Q 717 633 700 627 Q 696 623 697 613 Q 698 603 720 586 Z" fill="lightgray"></path>
				<path d="M 497 469 Q 479 482 458 489 Q 451 490 446 484 Q 445 480 450 471 Q 478 395 455 288 Q 436 249 468 210 Q 477 200 484 211 Q 502 229 503 355 Q 503 422 506 444 C 508 462 508 462 497 469 Z" fill="lightgray"></path>
				<path d="M 693 269 Q 686 250 698 231 Q 710 206 718 207 Q 731 208 744 236 Q 757 258 755 276 Q 736 415 763 456 Q 782 483 700 516 Q 687 520 666 513 Q 590 477 497 469 C 467 466 476 440 506 444 Q 515 444 601 463 Q 668 481 684 472 Q 691 456 695 416 Q 699 293 693 269 Z" fill="lightgray"></path>
				<path d="M 600 284 Q 609 341 623 365 Q 627 374 621 380 Q 609 393 583 408 Q 568 417 555 414 Q 539 410 550 395 Q 583 353 545 218 Q 515 101 386 45 Q 367 38 343 29 Q 333 28 330 24 Q 326 20 337 17 Q 410 8 506 72 Q 513 81 522 88 Q 567 137 592 246 L 600 284 Z" fill="lightgray"></path>
				<path d="M 947 58 Q 928 109 915 195 Q 912 210 905 214 Q 898 218 895 200 Q 888 91 874 69 Q 852 45 752 40 Q 698 40 675 49 Q 656 59 650 72 Q 632 129 654 198 Q 660 243 661 245 Q 639 275 600 284 C 580 291 584 275 592 246 Q 602 218 601 179 Q 600 86 607 68 Q 614 38 636 22 Q 681 -12 834 -5 Q 904 -1 932 14 Q 960 29 947 58 Z" fill="lightgray"></path>
</g>
		<text x="40" y="140" font-size="128" fill="#999999">7</text></g>
		<g id="id1:id2:id2" transform="matrix(1.0,0,0,1.0,2048,0.0)">			<g stroke="lightgray" stroke-width="4" transform="scale(4, 4)"> <rect x="0" y="0" width="256" height="256" fill="white" stroke-width="4"/></g>
			<g transform="scale(0.92, -0.92) translate(60, -920)">					<path d="M 289 501 Q 288 502 286 501 Q 237 500 197 500 Q 166 499 181 519 Q 251 634 319 721 Q 334 737 331 745 Q 330 760 291 791 Q 275 804 256 801 Q 246 798 251 783 Q 267 744 177 580 Q 158 543 116 508 Q 98 493 100 481 Q 104 462 118 444 Q 128 434 141 441 Q 180 465 271 476 C 301 480 319 501 289 501 Z" fill="black"></path>
				<path d="M 271 476 Q 189 364 161 349 Q 148 340 150 327 Q 151 314 176 296 Q 186 284 200 296 Q 260 336 363 369 Q 381 373 383 381 Q 386 391 367 388 Q 312 379 244 361 Q 216 351 234 374 Q 268 420 349 512 Q 377 546 400 567 Q 412 576 406 586 Q 396 604 366 622 Q 350 631 342 629 Q 332 625 334 611 Q 337 578 289 501 L 271 476 Z" fill="black"></path>
				<path d="M 121 165 Q 108 161 108 150 Q 108 137 119 130 Q 146 117 182 104 Q 194 103 204 114 Q 219 132 366 238 Q 385 251 398 266 Q 410 276 409 285 Q 402 289 390 285 Q 174 171 121 165 Z" fill="black"></path>
				<path d="M 419 722 Q 437 683 426 593 Q 417 562 449 537 Q 459 530 461 538 Q 471 545 470 602 Q 469 665 472 688 Q 476 700 471 710 Q 446 735 428 738 Q 424 741 420 736 Q 416 732 419 722 Z" fill="black"></path>
				<path d="M 506 785 Q 533 737 525 546 Q 526 524 531 510 Q 535 501 543 506 Q 555 519 566 698 Q 569 741 573 759 Q 580 774 570 783 Q 558 793 537 803 Q 521 810 504 802 Q 495 796 506 785 Z" fill="black"></path>
				<path d="M 684 697 Q 697 724 712 755 Q 721 780 730 794 Q 736 803 730 813 Q 726 822 700 834 Q 678 844 664 841 Q 651 837 659 822 Q 687 783 600 600 Q 594 591 594 586 Q 593 577 603 581 Q 627 596 666 664 Q 669 670 672 675 L 684 697 Z" fill="black"></path>
				<path d="M 672 675 Q 714 657 780 673 Q 871 697 877 701 Q 884 708 880 717 Q 873 727 843 733 Q 815 737 786 723 Q 764 714 740 708 Q 713 701 684 697 C 654 693 644 686 672 675 Z" fill="black"></path>
				<path d="M 720 586 Q 748 561 776 533 Q 786 521 800 522 Q 809 522 813 533 Q 817 545 811 569 Q 807 588 778 603 Q 717 633 700 627 Q 696 623 697 613 Q 698 603 720 586 Z" fill="red"></path>
				<path d="M 497 469 Q 479 482 458 489 Q 451 490 446 484 Q 445 480 450 471 Q 478 395 455 288 Q 436 249 468 210 Q 477 200 484 211 Q 502 229 503 355 Q 503 422 506 444 C 508 462 508 462 497 469 Z" fill="lightgray"></path>
				<path d="M 693 269 Q 686 250 698 231 Q 710 206 718 207 Q 731 208 744 236 Q 757 258 755 276 Q 736 415 763 456 Q 782 483 700 516 Q 687 520 666 513 Q 590 477 497 469 C 467 466 476 440 506 444 Q 515 444 601 463 Q 668 481 684 472 Q 691 456 695 416 Q 699 293 693 269 Z" fill="lightgray"></path>
				<path d="M 600 284 Q 609 341 623 365 Q 627 374 621 380 Q 609 393 583 408 Q 568 417 555 414 Q 539 410 550 395 Q 583 353 545 218 Q 515 101 386 45 Q 367 38 343 29 Q 333 28 330 24 Q 326 20 337 17 Q 410 8 506 72 Q 513 81 522 88 Q 567 137 592 246 L 600 284 Z" fill="lightgray"></path>
				<path d="M 947 58 Q 928 109 915 195 Q 912 210 905 214 Q 898 218 895 200 Q 888 91 874 69 Q 852 45 752 40 Q 698 40 675 49 Q 656 59 650 72 Q 632 129 654 198 Q 660 243 661 245 Q 639 275 600 284 C 580 291 584 275 592 246 Q 602 218 601 179 Q 600 86 607 68 Q 614 38 636 22 Q 681 -12 834 -5 Q 904 -1 932 14 Q 960 29 947 58 Z" fill="lightgray"></path>
</g>
		<text x="40" y="140" font-size="128" fill="#999999">8</text></g>
		<g id="id1:id3:id3" transform="matrix(1.0,0,0,1.0,3072,0.0)">			<g stroke="lightgray" stroke-width="4" transform="scale(4, 4)"> <rect x="0" y="0" width="256" height="256" fill="white" stroke-width="4"/></g>
			<g transform="scale(0.92, -0.92) translate(60, -920)">					<path d="M 289 501 Q 288 502 286 501 Q 237 500 197 500 Q 166 499 181 519 Q 251 634 319 721 Q 334 737 331 745 Q 330 760 291 791 Q 275 804 256 801 Q 246 798 251 783 Q 267 744 177 580 Q 158 543 116 508 Q 98 493 100 481 Q 104 462 118 444 Q 128 434 141 441 Q 180 465 271 476 C 301 480 319 501 289 501 Z" fill="black"></path>
				<path d="M 271 476 Q 189 364 161 349 Q 148 340 150 327 Q 151 314 176 296 Q 186 284 200 296 Q 260 336 363 369 Q 381 373 383 381 Q 386 391 367 388 Q 312 379 244 361 Q 216 351 234 374 Q 268 420 349 512 Q 377 546 400 567 Q 412 576 406 586 Q 396 604 366 622 Q 350 631 342 629 Q 332 625 334 611 Q 337 578 289 501 L 271 476 Z" fill="black"></path>
				<path d="M 121 165 Q 108 161 108 150 Q 108 137 119 130 Q 146 117 182 104 Q 194 103 204 114 Q 219 132 366 238 Q 385 251 398 266 Q 410 276 409 285 Q 402 289 390 285 Q 174 171 121 165 Z" fill="black"></path>
				<path d="M 419 722 Q 437 683 426 593 Q 417 562 449 537 Q 459 530 461 538 Q 471 545 470 602 Q 469 665 472 688 Q 476 700 471 710 Q 446 735 428 738 Q 424 741 420 736 Q 416 732 419 722 Z" fill="black"></path>
				<path d="M 506 785 Q 533 737 525 546 Q 526 524 531 510 Q 535 501 543 506 Q 555 519 566 698 Q 569 741 573 759 Q 580 774 570 783 Q 558 793 537 803 Q 521 810 504 802 Q 495 796 506 785 Z" fill="black"></path>
				<path d="M 684 697 Q 697 724 712 755 Q 721 780 730 794 Q 736 803 730 813 Q 726 822 700 834 Q 678 844 664 841 Q 651 837 659 822 Q 687 783 600 600 Q 594 591 594 586 Q 593 577 603 581 Q 627 596 666 664 Q 669 670 672 675 L 684 697 Z" fill="black"></path>
				<path d="M 672 675 Q 714 657 780 673 Q 871 697 877 701 Q 884 708 880 717 Q 873 727 843 733 Q 815 737 786 723 Q 764 714 740 708 Q 713 701 684 697 C 654 693 644 686 672 675 Z" fill="black"></path>
				<path d="M 720 586 Q 748 561 776 533 Q 786 521 800 522 Q 809 522 813 533 Q 817 545 811 569 Q 807 588 778 603 Q 717 633 700 627 Q 696 623 697 613 Q 698 603 720 586 Z" fill="black"></path>
				<path d="M 497 469 Q 479 482 458 489 Q 451 490 446 484 Q 445 480 450 471 Q 478 395 455 288 Q 436 249 468 210 Q 477 200 484 211 Q 502 229 503 355 Q 503 422 506 444 C 508 462 508 462 497 469 Z" fill="red"></path>
				<path d="M 693 269 Q 686 250 698 231 Q 710 206 718 207 Q 731 208 744 236 Q 757 258 755 276 Q 736 415 763 456 Q 782 483 700 516 Q 687 520 666 513 Q 590 477 497 469 C 467 466 476 440 506 444 Q 515 444 601 463 Q 668 481 684 472 Q 691 456 695 416 Q 699 293 693 269 Z" fill="lightgray"></path>
				<path d="M 600 284 Q 609 341 623 365 Q 627 374 621 380 Q 609 393 583 408 Q 568 417 555 414 Q 539 410 550 395 Q 583 353 545 218 Q 515 101 386 45 Q 367 38 343 29 Q 333 28 330 24 Q 326 20 337 17 Q 410 8 506 72 Q 513 81 522 88 Q 567 137 592 246 L 600 284 Z" fill="lightgray"></path>
				<path d="M 947 58 Q 928 109 915 195 Q 912 210 905 214 Q 898 218 895 200 Q 888 91 874 69 Q 852 45 752 40 Q 698 40 675 49 Q 656 59 650 72 Q 632 129 654 198 Q 660 243 661 245 Q 639 275 600 284 C 580 291 584 275 592 246 Q 602 218 601 179 Q 600 86 607 68 Q 614 38 636 22 Q 681 -12 834 -5 Q 904 -1 932 14 Q 960 29 947 58 Z" fill="lightgray"></path>
</g>
		<text x="40" y="140" font-size="128" fill="#999999">9</text></g>
		<g id="id1:id4:id4" transform="matrix(1.0,0,0,1.0,4096,0.0)">			<g stroke="lightgray" stroke-width="4" transform="scale(4, 4)"> <rect x="0" y="0" width="256" height="256" fill="white" stroke-width="4"/></g>
			<g transform="scale(0.92, -0.92) translate(60, -920)">					<path d="M 289 501 Q 288 502 286 501 Q 237 500 197 500 Q 166 499 181 519 Q 251 634 319 721 Q 334 737 331 745 Q 330 760 291 791 Q 275 804 256 801 Q 246 798 251 783 Q 267 744 177 580 Q 158 543 116 508 Q 98 493 100 481 Q 104 462 118 444 Q 128 434 141 441 Q 180 465 271 476 C 301 480 319 501 289 501 Z" fill="black"></path>
				<path d="M 271 476 Q 189 364 161 349 Q 148 340 150 327 Q 151 314 176 296 Q 186 284 200 296 Q 260 336 363 369 Q 381 373 383 381 Q 386 391 367 388 Q 312 379 244 361 Q 216 351 234 374 Q 268 420 349 512 Q 377 546 400 567 Q 412 576 406 586 Q 396 604 366 622 Q 350 631 342 629 Q 332 625 334 611 Q 337 578 289 501 L 271 476 Z" fill="black"></path>
				<path d="M 121 165 Q 108 161 108 150 Q 108 137 119 130 Q 146 117 182 104 Q 194 103 204 114 Q 219 132 366 238 Q 385 251 398 266 Q 410 276 409 285 Q 402 289 390 285 Q 174 171 121 165 Z" fill="black"></path>
				<path d="M 419 722 Q 437 683 426 593 Q 417 562 449 537 Q 459 530 461 538 Q 471 545 470 602 Q 469 665 472 688 Q 476 700 471 710 Q 446 735 428 738 Q 424 741 420 736 Q 416 732 419 722 Z" fill="black"></path>
				<path d="M 506 785 Q 533 737 525 546 Q 526 524 531 510 Q 535 501 543 506 Q 555 519 566 698 Q 569 741 573 759 Q 580 774 570 783 Q 558 793 537 803 Q 521 810 504 802 Q 495 796 506 785 Z" fill="black"></path>
				<path d="M 684 697 Q 697 724 712 755 Q 721 780 730 794 Q 736 803 730 813 Q 726 822 700 834 Q 678 844 664 841 Q 651 837 659 822 Q 687 783 600 600 Q 594 591 594 586 Q 593 577 603 581 Q 627 596 666 664 Q 669 670 672 675 L 684 697 Z" fill="black"></path>
				<path d="M 672 675 Q 714 657 780 673 Q 871 697 877 701 Q 884 708 880 717 Q 873 727 843 733 Q 815 737 786 723 Q 764 714 740 708 Q 713 701 684 697 C 654 693 644 686 672 675 Z" fill="black"></path>
				<path d="M 720 586 Q 748 561 776 533 Q 786 521 800 522 Q 809 522 813 533 Q 817 545 811 569 Q 807 588 778 603 Q 717 633 700 627 Q 696 623 697 613 Q 698 603 720 586 Z" fill="black"></path>
				<path d="M 497 469 Q 479 482 458 489 Q 451 490 446 484 Q 445 480 450 471 Q 478 395 455 288 Q 436 249 468 210 Q 477 200 484 211 Q 502 229 503 355 Q 503 422 506 444 C 508 462 508 462 497 469 Z" fill="black"></path>
				<path d="M 693 269 Q 686 250 698 231 Q 710 206 718 207 Q 731 208 744 236 Q 757 258 755 276 Q 736 415 763 456 Q 782 483 700 516 Q 687 520 666 513 Q 590 477 497 469 C 467 466 476 440 506 444 Q 515 444 601 463 Q 668 481 684 472 Q 691 456 695 416 Q 699 293 693 269 Z" fill="red"></path>
				<path d="M 600 284 Q 609 341 623 365 Q 627 374 621 380 Q 609 393 583 408 Q 568 417 555 414 Q 539 410 550 395 Q 583 353 545 218 Q 515 101 386 45 Q 367 38 343 29 Q 333 28 330 24 Q 326 20 337 17 Q 410 8 506 72 Q 513 81 522 88 Q 567 137 592 246 L 600 284 Z" fill="lightgray"></path>
				<path d="M 947 58 Q 928 109 915 195 Q 912 210 905 214 Q 898 218 895 200 Q 888 91 874 69 Q 852 45 752 40 Q 698 40 675 49 Q 656 59 650 72 Q 632 129 654 198 Q 660 243 661 245 Q 639 275 600 284 C 580 291 584 275 592 246 Q 602 218 601 179 Q 600 86 607 68 Q 614 38 636 22 Q 681 -12 834 -5 Q 904 -1 932 14 Q 960 29 947 58 Z" fill="lightgray"></path>
</g>
		<text x="40" y="140" font-size="128" fill="#999999">10</text></g>
</g>
	<g id="id2:id2" transform="translate(0.0,2048)">
		<g id="id2:id0:id0" transform="matrix(1.0,0,0,1.0,0,0.0)">			<g stroke="lightgray" stroke-width="4" transform="scale(4, 4)"> <rect x="0" y="0" width="256" height="256" fill="white" stroke-width="4"/></g>
			<g transform="scale(0.92, -0.92) translate(60, -920)">					<path d="M 289 501 Q 288 502 286 501 Q 237 500 197 500 Q 166 499 181 519 Q 251 634 319 721 Q 334 737 331 745 Q 330 760 291 791 Q 275 804 256 801 Q 246 798 251 783 Q 267 744 177 580 Q 158 543 116 508 Q 98 493 100 481 Q 104 462 118 444 Q 128 434 141 441 Q 180 465 271 476 C 301 480 319 501 289 501 Z" fill="black"></path>
				<path d="M 271 476 Q 189 364 161 349 Q 148 340 150 327 Q 151 314 176 296 Q 186 284 200 296 Q 260 336 363 369 Q 381 373 383 381 Q 386 391 367 388 Q 312 379 244 361 Q 216 351 234 374 Q 268 420 349 512 Q 377 546 400 567 Q 412 576 406 586 Q 396 604 366 622 Q 350 631 342 629 Q 332 625 334 611 Q 337 578 289 501 L 271 476 Z" fill="black"></path>
				<path d="M 121 165 Q 108 161 108 150 Q 108 137 119 130 Q 146 117 182 104 Q 194 103 204 114 Q 219 132 366 238 Q 385 251 398 266 Q 410 276 409 285 Q 402 289 390 285 Q 174 171 121 165 Z" fill="black"></path>
				<path d="M 419 722 Q 437 683 426 593 Q 417 562 449 537 Q 459 530 461 538 Q 471 545 470 602 Q 469 665 472 688 Q 476 700 471 710 Q 446 735 428 738 Q 424 741 420 736 Q 416 732 419 722 Z" fill="black"></path>
				<path d="M 506 785 Q 533 737 525 546 Q 526 524 531 510 Q 535 501 543 506 Q 555 519 566 698 Q 569 741 573 759 Q 580 774 570 783 Q 558 793 537 803 Q 521 810 504 802 Q 495 796 506 785 Z" fill="black"></path>
				<path d="M 684 697 Q 697 724 712 755 Q 721 780 730 794 Q 736 803 730 813 Q 726 822 700 834 Q 678 844 664 841 Q 651 837 659 822 Q 687 783 600 600 Q 594 591 594 586 Q 593 577 603 581 Q 627 596 666 664 Q 669 670 672 675 L 684 697 Z" fill="black"></path>
				<path d="M 672 675 Q 714 657 780 673 Q 871 697 877 701 Q 884 708 880 717 Q 873 727 843 733 Q 815 737 786 723 Q 764 714 740 708 Q 713 701 684 697 C 654 693 644 686 672 675 Z" fill="black"></path>
				<path d="M 720 586 Q 748 561 776 533 Q 786 521 800 522 Q 809 522 813 533 Q 817 545 811 569 Q 807 588 778 603 Q 717 633 700 627 Q 696 623 697 613 Q 698 603 720 586 Z" fill="black"></path>
				<path d="M 497 469 Q 479 482 458 489 Q 451 490 446 484 Q 445 480 450 471 Q 478 395 455 288 Q 436 249 468 210 Q 477 200 484 211 Q 502 229 503 355 Q 503 422 506 444 C 508 462 508 462 497 469 Z" fill="black"></path>
				<path d="M 693 269 Q 686 250 698 231 Q 710 206 718 207 Q 731 208 744 236 Q 757 258 755 276 Q 736 415 763 456 Q 782 483 700 516 Q 687 520 666 513 Q 590 477 497 469 C 467 466 476 440 506 444 Q 515 444 601 463 Q 668 481 684 472 Q 691 456 695 416 Q 699 293 693 269 Z" fill="black"></path>
				<path d="M 600 284 Q 609 341 623 365 Q 627 374 621 380 Q 609 393 583 408 Q 568 417 555 414 Q 539 410 550 395 Q 583 353 545 218 Q 515 101 386 45 Q 367 38 343 29 Q 333 28 330 24 Q 326 20 337 17 Q 410 8 506 72 Q 513 81 522 88 Q 567 137 592 246 L 600 284 Z" fill="red"></path>
				<path d="M 947 58 Q 928 109 915 195 Q 912 210 905 214 Q 898 218 895 200 Q 888 91 874 69 Q 852 45 752 40 Q 698 40 675 49 Q 656 59 650 72 Q 632 129 654 198 Q 660 243 661 245 Q 639 275 600 284 C 580 291 584 275 592 246 Q 602 218 601 179 Q 600 86 607 68 Q 614 38 636 22 Q 681 -12 834 -5 Q 904 -1 932 14 Q 960 29 947 58 Z" fill="lightgray"></path>
</g>
		<text x="40" y="140" font-size="128" fill="#999999">11</text></g>
		<g id="id2:id1:id1" transform="matrix(1.0,0,0,1.0,1024,0.0)">			<g stroke="lightgray" stroke-width="4" transform="scale(4, 4)"> <rect x="0" y="0" width="256" height="256" fill="white" stroke-width="4"/></g>
			<g transform="scale(0.92, -0.92) translate(60, -920)">					<path d="M 289 501 Q 288 502 286 501 Q 237 500 197 500 Q 166 499 181 519 Q 251 634 319 721 Q 334 737 331 745 Q 330 760 291 791 Q 275 804 256 801 Q 246 798 251 783 Q 267 744 177 580 Q 158 543 116 508 Q 98 493 100 481 Q 104 462 118 444 Q 128 434 141 441 Q 180 465 271 476 C 301 480 319 501 289 501 Z" fill="black"></path>
				<path d="M 271 476 Q 189 364 161 349 Q 148 340 150 327 Q 151 314 176 296 Q 186 284 200 296 Q 260 336 363 369 Q 381 373 383 381 Q 386 391 367 388 Q 312 379 244 361 Q 216 351 234 374 Q 268 420 349 512 Q 377 546 400 567 Q 412 576 406 586 Q 396 604 366 622 Q 350 631 342 629 Q 332 625 334 611 Q 337 578 289 501 L 271 476 Z" fill="black"></path>
				<path d="M 121 165 Q 108 161 108 150 Q 108 137 119 130 Q 146 117 182 104 Q 194 103 204 114 Q 219 132 366 238 Q 385 251 398 266 Q 410 276 409 285 Q 402 289 390 285 Q 174 171 121 165 Z" fill="black"></path>
				<path d="M 419 722 Q 437 683 426 593 Q 417 562 449 537 Q 459 530 461 538 Q 471 545 470 602 Q 469 665 472 688 Q 476 700 471 710 Q 446 735 428 738 Q 424 741 420 736 Q 416 732 419 722 Z" fill="black"></path>
				<path d="M 506 785 Q 533 737 525 546 Q 526 524 531 510 Q 535 501 543 506 Q 555 519 566 698 Q 569 741 573 759 Q 580 774 570 783 Q 558 793 537 803 Q 521 810 504 802 Q 495 796 506 785 Z" fill="black"></path>
				<path d="M 684 697 Q 697 724 712 755 Q 721 780 730 794 Q 736 803 730 813 Q 726 822 700 834 Q 678 844 664 841 Q 651 837 659 822 Q 687 783 600 600 Q 594 591 594 586 Q 593 577 603 581 Q 627 596 666 664 Q 669 670 672 675 L 684 697 Z" fill="black"></path>
				<path d="M 672 675 Q 714 657 780 673 Q 871 697 877 701 Q 884 708 880 717 Q 873 727 843 733 Q 815 737 786 723 Q 764 714 740 708 Q 713 701 684 697 C 654 693 644 686 672 675 Z" fill="black"></path>
				<path d="M 720 586 Q 748 561 776 533 Q 786 521 800 522 Q 809 522 813 533 Q 817 545 811 569 Q 807 588 778 603 Q 717 633 700 627 Q 696 623 697 613 Q 698 603 720 586 Z" fill="black"></path>
				<path d="M 497 469 Q 479 482 458 489 Q 451 490 446 484 Q 445 480 450 471 Q 478 395 455 288 Q 436 249 468 210 Q 477 200 484 211 Q 502 229 503 355 Q 503 422 506 444 C 508 462 508 462 497 469 Z" fill="black"></path>
				<path d="M 693 269 Q 686 250 698 231 Q 710 206 718 207 Q 731 208 744 236 Q 757 258 755 276 Q 736 415 763 456 Q 782 483 700 516 Q 687 520 666 513 Q 590 477 497 469 C 467 466 476 440 506 444 Q 515 444 601 463 Q 668 481 684 472 Q 691 456 695 416 Q 699 293 693 269 Z" fill="black"></path>
				<path d="M 600 284 Q 609 341 623 365 Q 627 374 621 380 Q 609 393 583 408 Q 568 417 555 414 Q 539 410 550 395 Q 583 353 545 218 Q 515 101 386 45 Q 367 38 343 29 Q 333 28 330 24 Q 326 20 337 17 Q 410 8 506 72 Q 513 81 522 88 Q 567 137 592 246 L 600 284 Z" fill="black"></path>
				<path d="M 947 58 Q 928 109 915 195 Q 912 210 905 214 Q 898 218 895 200 Q 888 91 874 69 Q 852 45 752 40 Q 698 40 675 49 Q 656 59 650 72 Q 632 129 654 198 Q 660 243 661 245 Q 639 275 600 284 C 580 291 584 275 592 246 Q 602 218 601 179 Q 600 86 607 68 Q 614 38 636 22 Q 681 -12 834 -5 Q 904 -1 932 14 Q 960 29 947 58 Z" fill="red"></path>
</g>
		<text x="40" y="140" font-size="128" fill="#999999">12</text></g>
		<g id="id2:id2:id2" transform="matrix(1.0,0,0,1.0,2048,0.0)">			<g stroke="white" stroke-width="4" transform="scale(4, 4)"> <rect x="1" y="1" width="255" height="255" fill="white" stroke-width="0"/></g>
</g>
		<g id="id2:id3:id3" transform="matrix(1.0,0,0,1.0,3072,0.0)">			<g stroke="white" stroke-width="4" transform="scale(4, 4)"> <rect x="1" y="1" width="255" height="255" fill="white" stroke-width="0"/></g>
</g>
		<g id="id2:id4:id4" transform="matrix(1.0,0,0,1.0,4096,0.0)">			<g stroke="white" stroke-width="4" transform="scale(4, 4)"> <rect x="1" y="1" width="255" height="255" fill="white" stroke-width="0"/></g>
</g>
</g>
</svg>
