<?xml version="1.0" standalone="no"?>
<!DOCTYPE svg PUBLIC "-//W3C//DTD SVG 1.1//EN"
 "http://www.w3.org/Graphics/SVG/1.1/DTD/svg11.dtd">
<!-- generate by Handict dictionary app com.asnsami.handict -->

<svg xmlns="http://www.w3.org/2000/svg" xmlns:sodipodi="http://sodipodi.sourceforge.net/DTD/sodipodi-0.dtd" version="1.1" width="640" height="384" viewBox="0 0 5120 3072">
	<g id="id0:id0" transform="translate(0.0,0)">
		<g id="id0:id0:id0" transform="matrix(1.0,0,0,1.0,0,0.0)">			<g stroke="lightgray" stroke-width="4" transform="scale(4, 4)"> <rect x="0" y="0" width="256" height="256" fill="white" stroke-width="4"/></g>
			<g transform="scale(0.92, -0.92) translate(60, -920)">					<path d="M 313 790 Q 303 797 268 799 Q 256 802 253 796 Q 247 789 257 774 Q 285 726 307 646 Q 311 621 327 606 Q 346 585 350 602 Q 351 609 352 617 L 350 643 Q 335 706 326 758 C 321 786 321 786 313 790 Z" fill="red"></path>
				<path d="M 669 652 Q 685 627 700 617 Q 710 610 726 629 Q 736 642 763 717 Q 773 748 797 771 Q 810 783 800 797 Q 785 813 745 841 Q 727 850 656 836 Q 611 833 452 809 Q 376 797 313 790 C 283 787 296 755 326 758 Q 330 757 342 759 Q 378 768 425 776 L 450 780 Q 502 790 570 798 L 609 802 Q 627 805 649 807 Q 692 811 706 796 Q 713 787 712 778 Q 694 691 680 679 C 666 656 666 656 669 652 Z" fill="lightgray"></path>
				<path d="M 473 659 Q 473 660 474 662 Q 478 692 456 762 Q 456 772 450 780 C 434 805 420 806 425 776 Q 428 761 429 733 Q 432 675 451 656 C 467 638 467 638 473 659 Z" fill="lightgray"></path>
				<path d="M 573 674 Q 576 681 580 687 Q 593 709 606 740 Q 612 753 623 770 Q 633 780 626 787 Q 620 794 609 802 C 585 820 562 827 570 798 Q 579 774 552 685 Q 549 678 548 670 C 543 640 560 647 573 674 Z" fill="lightgray"></path>
				<path d="M 352 617 Q 365 616 385 618 Q 545 640 669 652 C 699 655 708 668 680 679 Q 676 682 670 683 Q 646 689 573 674 L 548 670 Q 509 666 473 659 L 451 656 Q 397 652 350 643 C 320 638 322 618 352 617 Z" fill="lightgray"></path>
				<path d="M 536 501 Q 561 507 589 510 Q 628 517 634 522 Q 641 529 638 537 Q 632 547 606 556 Q 581 562 539 549 L 486 535 Q 473 534 459 530 Q 407 520 346 517 Q 312 513 335 497 Q 368 475 474 491 Q 480 492 487 493 L 536 501 Z" fill="lightgray"></path>
				<path d="M 529 411 Q 532 460 536 501 L 539 549 Q 540 556 541 561 Q 548 577 539 586 Q 520 608 499 618 Q 489 621 480 618 Q 473 614 475 605 Q 484 577 486 535 L 487 493 Q 487 459 488 406 C 489 376 527 381 529 411 Z" fill="lightgray"></path>
				<path d="M 563 371 Q 770 398 908 382 Q 948 382 952 387 Q 959 400 948 413 Q 881 474 815 453 Q 737 440 617 421 L 549 413 Q 539 413 529 411 L 488 406 Q 370 394 309 385 Q 237 373 129 372 Q 116 372 114 361 Q 114 348 133 334 Q 149 321 181 310 Q 191 306 209 314 Q 227 320 303 334 Q 391 355 500 366 L 563 371 Z" fill="lightgray"></path>
				<path d="M 449 269 Q 470 290 563 371 L 617 421 Q 743 538 756 543 Q 771 547 771 557 Q 771 564 760 571 Q 732 592 706 598 Q 690 601 682 586 Q 664 529 549 413 L 500 366 Q 457 327 406 282 L 377 257 Q 244 146 99 56 Q 92 52 93 49 Q 94 46 102 47 Q 213 75 386 216 L 449 269 Z" fill="lightgray"></path>
				<path d="M 406 282 Q 390 289 377 288 Q 364 284 370 273 Q 374 266 377 257 L 386 216 Q 386 89 371 60 Q 356 27 386 -14 L 388 -16 Q 395 -29 404 -23 Q 414 -16 422 10 L 430 42 Q 433 60 433 125 L 434 154 Q 435 215 437 237 L 406 282 Z" fill="lightgray"></path>
				<path d="M 594 19 Q 622 -18 642 -52 Q 649 -68 661 -68 Q 676 -67 691 -36 Q 704 -8 705 59 Q 687 218 712 247 Q 721 259 712 268 Q 696 287 646 310 Q 630 320 615 311 Q 579 296 449 269 C 410 261 407 235 437 237 Q 461 236 601 263 Q 622 267 632 259 Q 656 228 639 48 Q 633 29 616 38 C 586 37 580 37 594 19 Z" fill="lightgray"></path>
				<path d="M 433 125 Q 436 125 441 125 Q 529 135 593 140 Q 617 143 609 156 Q 599 172 574 177 Q 544 183 434 154 C 405 146 403 125 433 125 Z" fill="lightgray"></path>
				<path d="M 422 10 Q 428 9 435 10 Q 486 17 594 19 C 624 20 635 20 616 38 Q 606 48 592 57 Q 577 66 549 60 Q 485 48 430 42 C 400 39 392 12 422 10 Z" fill="lightgray"></path>
</g>
		<text x="40" y="140" font-size="128" fill="#999999">1</text></g>
		<g id="id0:id1:id1" transform="matrix(1.0,0,0,1.0,1024,0.0)">			<g stroke="lightgray" stroke-width="4" transform="scale(4, 4)"> <rect x="0" y="0" width="256" height="256" fill="white" stroke-width="4"/></g>
			<g transform="scale(0.92, -0.92) translate(60, -920)">					<path d="M 313 790 Q 303 797 268 799 Q 256 802 253 796 Q 247 789 257 774 Q 285 726 307 646 Q 311 621 327 606 Q 346 585 350 602 Q 351 609 352 617 L 350 643 Q 335 706 326 758 C 321 786 321 786 313 790 Z" fill="black"></path>
				<path d="M 669 652 Q 685 627 700 617 Q 710 610 726 629 Q 736 642 763 717 Q 773 748 797 771 Q 810 783 800 797 Q 785 813 745 841 Q 727 850 656 836 Q 611 833 452 809 Q 376 797 313 790 C 283 787 296 755 326 758 Q 330 757 342 759 Q 378 768 425 776 L 450 780 Q 502 790 570 798 L 609 802 Q 627 805 649 807 Q 692 811 706 796 Q 713 787 712 778 Q 694 691 680 679 C 666 656 666 656 669 652 Z" fill="red"></path>
				<path d="M 473 659 Q 473 660 474 662 Q 478 692 456 762 Q 456 772 450 780 C 434 805 420 806 425 776 Q 428 761 429 733 Q 432 675 451 656 C 467 638 467 638 473 659 Z" fill="lightgray"></path>
				<path d="M 573 674 Q 576 681 580 687 Q 593 709 606 740 Q 612 753 623 770 Q 633 780 626 787 Q 620 794 609 802 C 585 820 562 827 570 798 Q 579 774 552 685 Q 549 678 548 670 C 543 640 560 647 573 674 Z" fill="lightgray"></path>
				<path d="M 352 617 Q 365 616 385 618 Q 545 640 669 652 C 699 655 708 668 680 679 Q 676 682 670 683 Q 646 689 573 674 L 548 670 Q 509 666 473 659 L 451 656 Q 397 652 350 643 C 320 638 322 618 352 617 Z" fill="lightgray"></path>
				<path d="M 536 501 Q 561 507 589 510 Q 628 517 634 522 Q 641 529 638 537 Q 632 547 606 556 Q 581 562 539 549 L 486 535 Q 473 534 459 530 Q 407 520 346 517 Q 312 513 335 497 Q 368 475 474 491 Q 480 492 487 493 L 536 501 Z" fill="lightgray"></path>
				<path d="M 529 411 Q 532 460 536 501 L 539 549 Q 540 556 541 561 Q 548 577 539 586 Q 520 608 499 618 Q 489 621 480 618 Q 473 614 475 605 Q 484 577 486 535 L 487 493 Q 487 459 488 406 C 489 376 527 381 529 411 Z" fill="lightgray"></path>
				<path d="M 563 371 Q 770 398 908 382 Q 948 382 952 387 Q 959 400 948 413 Q 881 474 815 453 Q 737 440 617 421 L 549 413 Q 539 413 529 411 L 488 406 Q 370 394 309 385 Q 237 373 129 372 Q 116 372 114 361 Q 114 348 133 334 Q 149 321 181 310 Q 191 306 209 314 Q 227 320 303 334 Q 391 355 500 366 L 563 371 Z" fill="lightgray"></path>
				<path d="M 449 269 Q 470 290 563 371 L 617 421 Q 743 538 756 543 Q 771 547 771 557 Q 771 564 760 571 Q 732 592 706 598 Q 690 601 682 586 Q 664 529 549 413 L 500 366 Q 457 327 406 282 L 377 257 Q 244 146 99 56 Q 92 52 93 49 Q 94 46 102 47 Q 213 75 386 216 L 449 269 Z" fill="lightgray"></path>
				<path d="M 406 282 Q 390 289 377 288 Q 364 284 370 273 Q 374 266 377 257 L 386 216 Q 386 89 371 60 Q 356 27 386 -14 L 388 -16 Q 395 -29 404 -23 Q 414 -16 422 10 L 430 42 Q 433 60 433 125 L 434 154 Q 435 215 437 237 L 406 282 Z" fill="lightgray"></path>
				<path d="M 594 19 Q 622 -18 642 -52 Q 649 -68 661 -68 Q 676 -67 691 -36 Q 704 -8 705 59 Q 687 218 712 247 Q 721 259 712 268 Q 696 287 646 310 Q 630 320 615 311 Q 579 296 449 269 C 410 261 407 235 437 237 Q 461 236 601 263 Q 622 267 632 259 Q 656 228 639 48 Q 633 29 616 38 C 586 37 580 37 594 19 Z" fill="lightgray"></path>
				<path d="M 433 125 Q 436 125 441 125 Q 529 135 593 140 Q 617 143 609 156 Q 599 172 574 177 Q 544 183 434 154 C 405 146 403 125 433 125 Z" fill="lightgray"></path>
				<path d="M 422 10 Q 428 9 435 10 Q 486 17 594 19 C 624 20 635 20 616 38 Q 606 48 592 57 Q 577 66 549 60 Q 485 48 430 42 C 400 39 392 12 422 10 Z" fill="lightgray"></path>
</g>
		<text x="40" y="140" font-size="128" fill="#999999">2</text></g>
		<g id="id0:id2:id2" transform="matrix(1.0,0,0,1.0,2048,0.0)">			<g stroke="lightgray" stroke-width="4" transform="scale(4, 4)"> <rect x="0" y="0" width="256" height="256" fill="white" stroke-width="4"/></g>
			<g transform="scale(0.92, -0.92) translate(60, -920)">					<path d="M 313 790 Q 303 797 268 799 Q 256 802 253 796 Q 247 789 257 774 Q 285 726 307 646 Q 311 621 327 606 Q 346 585 350 602 Q 351 609 352 617 L 350 643 Q 335 706 326 758 C 321 786 321 786 313 790 Z" fill="black"></path>
				<path d="M 669 652 Q 685 627 700 617 Q 710 610 726 629 Q 736 642 763 717 Q 773 748 797 771 Q 810 783 800 797 Q 785 813 745 841 Q 727 850 656 836 Q 611 833 452 809 Q 376 797 313 790 C 283 787 296 755 326 758 Q 330 757 342 759 Q 378 768 425 776 L 450 780 Q 502 790 570 798 L 609 802 Q 627 805 649 807 Q 692 811 706 796 Q 713 787 712 778 Q 694 691 680 679 C 666 656 666 656 669 652 Z" fill="black"></path>
				<path d="M 473 659 Q 473 660 474 662 Q 478 692 456 762 Q 456 772 450 780 C 434 805 420 806 425 776 Q 428 761 429 733 Q 432 675 451 656 C 467 638 467 638 473 659 Z" fill="red"></path>
				<path d="M 573 674 Q 576 681 580 687 Q 593 709 606 740 Q 612 753 623 770 Q 633 780 626 787 Q 620 794 609 802 C 585 820 562 827 570 798 Q 579 774 552 685 Q 549 678 548 670 C 543 640 560 647 573 674 Z" fill="lightgray"></path>
				<path d="M 352 617 Q 365 616 385 618 Q 545 640 669 652 C 699 655 708 668 680 679 Q 676 682 670 683 Q 646 689 573 674 L 548 670 Q 509 666 473 659 L 451 656 Q 397 652 350 643 C 320 638 322 618 352 617 Z" fill="lightgray"></path>
				<path d="M 536 501 Q 561 507 589 510 Q 628 517 634 522 Q 641 529 638 537 Q 632 547 606 556 Q 581 562 539 549 L 486 535 Q 473 534 459 530 Q 407 520 346 517 Q 312 513 335 497 Q 368 475 474 491 Q 480 492 487 493 L 536 501 Z" fill="lightgray"></path>
				<path d="M 529 411 Q 532 460 536 501 L 539 549 Q 540 556 541 561 Q 548 577 539 586 Q 520 608 499 618 Q 489 621 480 618 Q 473 614 475 605 Q 484 577 486 535 L 487 493 Q 487 459 488 406 C 489 376 527 381 529 411 Z" fill="lightgray"></path>
				<path d="M 563 371 Q 770 398 908 382 Q 948 382 952 387 Q 959 400 948 413 Q 881 474 815 453 Q 737 440 617 421 L 549 413 Q 539 413 529 411 L 488 406 Q 370 394 309 385 Q 237 373 129 372 Q 116 372 114 361 Q 114 348 133 334 Q 149 321 181 310 Q 191 306 209 314 Q 227 320 303 334 Q 391 355 500 366 L 563 371 Z" fill="lightgray"></path>
				<path d="M 449 269 Q 470 290 563 371 L 617 421 Q 743 538 756 543 Q 771 547 771 557 Q 771 564 760 571 Q 732 592 706 598 Q 690 601 682 586 Q 664 529 549 413 L 500 366 Q 457 327 406 282 L 377 257 Q 244 146 99 56 Q 92 52 93 49 Q 94 46 102 47 Q 213 75 386 216 L 449 269 Z" fill="lightgray"></path>
				<path d="M 406 282 Q 390 289 377 288 Q 364 284 370 273 Q 374 266 377 257 L 386 216 Q 386 89 371 60 Q 356 27 386 -14 L 388 -16 Q 395 -29 404 -23 Q 414 -16 422 10 L 430 42 Q 433 60 433 125 L 434 154 Q 435 215 437 237 L 406 282 Z" fill="lightgray"></path>
				<path d="M 594 19 Q 622 -18 642 -52 Q 649 -68 661 -68 Q 676 -67 691 -36 Q 704 -8 705 59 Q 687 218 712 247 Q 721 259 712 268 Q 696 287 646 310 Q 630 320 615 311 Q 579 296 449 269 C 410 261 407 235 437 237 Q 461 236 601 263 Q 622 267 632 259 Q 656 228 639 48 Q 633 29 616 38 C 586 37 580 37 594 19 Z" fill="lightgray"></path>
				<path d="M 433 125 Q 436 125 441 125 Q 529 135 593 140 Q 617 143 609 156 Q 599 172 574 177 Q 544 183 434 154 C 405 146 403 125 433 125 Z" fill="lightgray"></path>
				<path d="M 422 10 Q 428 9 435 10 Q 486 17 594 19 C 624 20 635 20 616 38 Q 606 48 592 57 Q 577 66 549 60 Q 485 48 430 42 C 400 39 392 12 422 10 Z" fill="lightgray"></path>
</g>
		<text x="40" y="140" font-size="128" fill="#999999">3</text></g>
		<g id="id0:id3:id3" transform="matrix(1.0,0,0,1.0,3072,0.0)">			<g stroke="lightgray" stroke-width="4" transform="scale(4, 4)"> <rect x="0" y="0" width="256" height="256" fill="white" stroke-width="4"/></g>
			<g transform="scale(0.92, -0.92) translate(60, -920)">					<path d="M 313 790 Q 303 797 268 799 Q 256 802 253 796 Q 247 789 257 774 Q 285 726 307 646 Q 311 621 327 606 Q 346 585 350 602 Q 351 609 352 617 L 350 643 Q 335 706 326 758 C 321 786 321 786 313 790 Z" fill="black"></path>
				<path d="M 669 652 Q 685 627 700 617 Q 710 610 726 629 Q 736 642 763 717 Q 773 748 797 771 Q 810 783 800 797 Q 785 813 745 841 Q 727 850 656 836 Q 611 833 452 809 Q 376 797 313 790 C 283 787 296 755 326 758 Q 330 757 342 759 Q 378 768 425 776 L 450 780 Q 502 790 570 798 L 609 802 Q 627 805 649 807 Q 692 811 706 796 Q 713 787 712 778 Q 694 691 680 679 C 666 656 666 656 669 652 Z" fill="black"></path>
				<path d="M 473 659 Q 473 660 474 662 Q 478 692 456 762 Q 456 772 450 780 C 434 805 420 806 425 776 Q 428 761 429 733 Q 432 675 451 656 C 467 638 467 638 473 659 Z" fill="black"></path>
				<path d="M 573 674 Q 576 681 580 687 Q 593 709 606 740 Q 612 753 623 770 Q 633 780 626 787 Q 620 794 609 802 C 585 820 562 827 570 798 Q 579 774 552 685 Q 549 678 548 670 C 543 640 560 647 573 674 Z" fill="red"></path>
				<path d="M 352 617 Q 365 616 385 618 Q 545 640 669 652 C 699 655 708 668 680 679 Q 676 682 670 683 Q 646 689 573 674 L 548 670 Q 509 666 473 659 L 451 656 Q 397 652 350 643 C 320 638 322 618 352 617 Z" fill="lightgray"></path>
				<path d="M 536 501 Q 561 507 589 510 Q 628 517 634 522 Q 641 529 638 537 Q 632 547 606 556 Q 581 562 539 549 L 486 535 Q 473 534 459 530 Q 407 520 346 517 Q 312 513 335 497 Q 368 475 474 491 Q 480 492 487 493 L 536 501 Z" fill="lightgray"></path>
				<path d="M 529 411 Q 532 460 536 501 L 539 549 Q 540 556 541 561 Q 548 577 539 586 Q 520 608 499 618 Q 489 621 480 618 Q 473 614 475 605 Q 484 577 486 535 L 487 493 Q 487 459 488 406 C 489 376 527 381 529 411 Z" fill="lightgray"></path>
				<path d="M 563 371 Q 770 398 908 382 Q 948 382 952 387 Q 959 400 948 413 Q 881 474 815 453 Q 737 440 617 421 L 549 413 Q 539 413 529 411 L 488 406 Q 370 394 309 385 Q 237 373 129 372 Q 116 372 114 361 Q 114 348 133 334 Q 149 321 181 310 Q 191 306 209 314 Q 227 320 303 334 Q 391 355 500 366 L 563 371 Z" fill="lightgray"></path>
				<path d="M 449 269 Q 470 290 563 371 L 617 421 Q 743 538 756 543 Q 771 547 771 557 Q 771 564 760 571 Q 732 592 706 598 Q 690 601 682 586 Q 664 529 549 413 L 500 366 Q 457 327 406 282 L 377 257 Q 244 146 99 56 Q 92 52 93 49 Q 94 46 102 47 Q 213 75 386 216 L 449 269 Z" fill="lightgray"></path>
				<path d="M 406 282 Q 390 289 377 288 Q 364 284 370 273 Q 374 266 377 257 L 386 216 Q 386 89 371 60 Q 356 27 386 -14 L 388 -16 Q 395 -29 404 -23 Q 414 -16 422 10 L 430 42 Q 433 60 433 125 L 434 154 Q 435 215 437 237 L 406 282 Z" fill="lightgray"></path>
				<path d="M 594 19 Q 622 -18 642 -52 Q 649 -68 661 -68 Q 676 -67 691 -36 Q 704 -8 705 59 Q 687 218 712 247 Q 721 259 712 268 Q 696 287 646 310 Q 630 320 615 311 Q 579 296 449 269 C 410 261 407 235 437 237 Q 461 236 601 263 Q 622 267 632 259 Q 656 228 639 48 Q 633 29 616 38 C 586 37 580 37 594 19 Z" fill="lightgray"></path>
				<path d="M 433 125 Q 436 125 441 125 Q 529 135 593 140 Q 617 143 609 156 Q 599 172 574 177 Q 544 183 434 154 C 405 146 403 125 433 125 Z" fill="lightgray"></path>
				<path d="M 422 10 Q 428 9 435 10 Q 486 17 594 19 C 624 20 635 20 616 38 Q 606 48 592 57 Q 577 66 549 60 Q 485 48 430 42 C 400 39 392 12 422 10 Z" fill="lightgray"></path>
</g>
		<text x="40" y="140" font-size="128" fill="#999999">4</text></g>
		<g id="id0:id4:id4" transform="matrix(1.0,0,0,1.0,4096,0.0)">			<g stroke="lightgray" stroke-width="4" transform="scale(4, 4)"> <rect x="0" y="0" width="256" height="256" fill="white" stroke-width="4"/></g>
			<g transform="scale(0.92, -0.92) translate(60, -920)">					<path d="M 313 790 Q 303 797 268 799 Q 256 802 253 796 Q 247 789 257 774 Q 285 726 307 646 Q 311 621 327 606 Q 346 585 350 602 Q 351 609 352 617 L 350 643 Q 335 706 326 758 C 321 786 321 786 313 790 Z" fill="black"></path>
				<path d="M 669 652 Q 685 627 700 617 Q 710 610 726 629 Q 736 642 763 717 Q 773 748 797 771 Q 810 783 800 797 Q 785 813 745 841 Q 727 850 656 836 Q 611 833 452 809 Q 376 797 313 790 C 283 787 296 755 326 758 Q 330 757 342 759 Q 378 768 425 776 L 450 780 Q 502 790 570 798 L 609 802 Q 627 805 649 807 Q 692 811 706 796 Q 713 787 712 778 Q 694 691 680 679 C 666 656 666 656 669 652 Z" fill="black"></path>
				<path d="M 473 659 Q 473 660 474 662 Q 478 692 456 762 Q 456 772 450 780 C 434 805 420 806 425 776 Q 428 761 429 733 Q 432 675 451 656 C 467 638 467 638 473 659 Z" fill="black"></path>
				<path d="M 573 674 Q 576 681 580 687 Q 593 709 606 740 Q 612 753 623 770 Q 633 780 626 787 Q 620 794 609 802 C 585 820 562 827 570 798 Q 579 774 552 685 Q 549 678 548 670 C 543 640 560 647 573 674 Z" fill="black"></path>
				<path d="M 352 617 Q 365 616 385 618 Q 545 640 669 652 C 699 655 708 668 680 679 Q 676 682 670 683 Q 646 689 573 674 L 548 670 Q 509 666 473 659 L 451 656 Q 397 652 350 643 C 320 638 322 618 352 617 Z" fill="red"></path>
				<path d="M 536 501 Q 561 507 589 510 Q 628 517 634 522 Q 641 529 638 537 Q 632 547 606 556 Q 581 562 539 549 L 486 535 Q 473 534 459 530 Q 407 520 346 517 Q 312 513 335 497 Q 368 475 474 491 Q 480 492 487 493 L 536 501 Z" fill="lightgray"></path>
				<path d="M 529 411 Q 532 460 536 501 L 539 549 Q 540 556 541 561 Q 548 577 539 586 Q 520 608 499 618 Q 489 621 480 618 Q 473 614 475 605 Q 484 577 486 535 L 487 493 Q 487 459 488 406 C 489 376 527 381 529 411 Z" fill="lightgray"></path>
				<path d="M 563 371 Q 770 398 908 382 Q 948 382 952 387 Q 959 400 948 413 Q 881 474 815 453 Q 737 440 617 421 L 549 413 Q 539 413 529 411 L 488 406 Q 370 394 309 385 Q 237 373 129 372 Q 116 372 114 361 Q 114 348 133 334 Q 149 321 181 310 Q 191 306 209 314 Q 227 320 303 334 Q 391 355 500 366 L 563 371 Z" fill="lightgray"></path>
				<path d="M 449 269 Q 470 290 563 371 L 617 421 Q 743 538 756 543 Q 771 547 771 557 Q 771 564 760 571 Q 732 592 706 598 Q 690 601 682 586 Q 664 529 549 413 L 500 366 Q 457 327 406 282 L 377 257 Q 244 146 99 56 Q 92 52 93 49 Q 94 46 102 47 Q 213 75 386 216 L 449 269 Z" fill="lightgray"></path>
				<path d="M 406 282 Q 390 289 377 288 Q 364 284 370 273 Q 374 266 377 257 L 386 216 Q 386 89 371 60 Q 356 27 386 -14 L 388 -16 Q 395 -29 404 -23 Q 414 -16 422 10 L 430 42 Q 433 60 433 125 L 434 154 Q 435 215 437 237 L 406 282 Z" fill="lightgray"></path>
				<path d="M 594 19 Q 622 -18 642 -52 Q 649 -68 661 -68 Q 676 -67 691 -36 Q 704 -8 705 59 Q 687 218 712 247 Q 721 259 712 268 Q 696 287 646 310 Q 630 320 615 311 Q 579 296 449 269 C 410 261 407 235 437 237 Q 461 236 601 263 Q 622 267 632 259 Q 656 228 639 48 Q 633 29 616 38 C 586 37 580 37 594 19 Z" fill="lightgray"></path>
				<path d="M 433 125 Q 436 125 441 125 Q 529 135 593 140 Q 617 143 609 156 Q 599 172 574 177 Q 544 183 434 154 C 405 146 403 125 433 125 Z" fill="lightgray"></path>
				<path d="M 422 10 Q 428 9 435 10 Q 486 17 594 19 C 624 20 635 20 616 38 Q 606 48 592 57 Q 577 66 549 60 Q 485 48 430 42 C 400 39 392 12 422 10 Z" fill="lightgray"></path>
</g>
		<text x="40" y="140" font-size="128" fill="#999999">5</text></g>
</g>
	<g id="id1:id1" transform="translate(0.0,1024)">
		<g id="id1:id0:id0" transform="matrix(1.0,0,0,1.0,0,0.0)">			<g stroke="lightgray" stroke-width="4" transform="scale(4, 4)"> <rect x="0" y="0" width="256" height="256" fill="white" stroke-width="4"/></g>
			<g transform="scale(0.92, -0.92) translate(60, -920)">					<path d="M 313 790 Q 303 797 268 799 Q 256 802 253 796 Q 247 789 257 774 Q 285 726 307 646 Q 311 621 327 606 Q 346 585 350 602 Q 351 609 352 617 L 350 643 Q 335 706 326 758 C 321 786 321 786 313 790 Z" fill="black"></path>
				<path d="M 669 652 Q 685 627 700 617 Q 710 610 726 629 Q 736 642 763 717 Q 773 748 797 771 Q 810 783 800 797 Q 785 813 745 841 Q 727 850 656 836 Q 611 833 452 809 Q 376 797 313 790 C 283 787 296 755 326 758 Q 330 757 342 759 Q 378 768 425 776 L 450 780 Q 502 790 570 798 L 609 802 Q 627 805 649 807 Q 692 811 706 796 Q 713 787 712 778 Q 694 691 680 679 C 666 656 666 656 669 652 Z" fill="black"></path>
				<path d="M 473 659 Q 473 660 474 662 Q 478 692 456 762 Q 456 772 450 780 C 434 805 420 806 425 776 Q 428 761 429 733 Q 432 675 451 656 C 467 638 467 638 473 659 Z" fill="black"></path>
				<path d="M 573 674 Q 576 681 580 687 Q 593 709 606 740 Q 612 753 623 770 Q 633 780 626 787 Q 620 794 609 802 C 585 820 562 827 570 798 Q 579 774 552 685 Q 549 678 548 670 C 543 640 560 647 573 674 Z" fill="black"></path>
				<path d="M 352 617 Q 365 616 385 618 Q 545 640 669 652 C 699 655 708 668 680 679 Q 676 682 670 683 Q 646 689 573 674 L 548 670 Q 509 666 473 659 L 451 656 Q 397 652 350 643 C 320 638 322 618 352 617 Z" fill="black"></path>
				<path d="M 536 501 Q 561 507 589 510 Q 628 517 634 522 Q 641 529 638 537 Q 632 547 606 556 Q 581 562 539 549 L 486 535 Q 473 534 459 530 Q 407 520 346 517 Q 312 513 335 497 Q 368 475 474 491 Q 480 492 487 493 L 536 501 Z" fill="red"></path>
				<path d="M 529 411 Q 532 460 536 501 L 539 549 Q 540 556 541 561 Q 548 577 539 586 Q 520 608 499 618 Q 489 621 480 618 Q 473 614 475 605 Q 484 577 486 535 L 487 493 Q 487 459 488 406 C 489 376 527 381 529 411 Z" fill="lightgray"></path>
				<path d="M 563 371 Q 770 398 908 382 Q 948 382 952 387 Q 959 400 948 413 Q 881 474 815 453 Q 737 440 617 421 L 549 413 Q 539 413 529 411 L 488 406 Q 370 394 309 385 Q 237 373 129 372 Q 116 372 114 361 Q 114 348 133 334 Q 149 321 181 310 Q 191 306 209 314 Q 227 320 303 334 Q 391 355 500 366 L 563 371 Z" fill="lightgray"></path>
				<path d="M 449 269 Q 470 290 563 371 L 617 421 Q 743 538 756 543 Q 771 547 771 557 Q 771 564 760 571 Q 732 592 706 598 Q 690 601 682 586 Q 664 529 549 413 L 500 366 Q 457 327 406 282 L 377 257 Q 244 146 99 56 Q 92 52 93 49 Q 94 46 102 47 Q 213 75 386 216 L 449 269 Z" fill="lightgray"></path>
				<path d="M 406 282 Q 390 289 377 288 Q 364 284 370 273 Q 374 266 377 257 L 386 216 Q 386 89 371 60 Q 356 27 386 -14 L 388 -16 Q 395 -29 404 -23 Q 414 -16 422 10 L 430 42 Q 433 60 433 125 L 434 154 Q 435 215 437 237 L 406 282 Z" fill="lightgray"></path>
				<path d="M 594 19 Q 622 -18 642 -52 Q 649 -68 661 -68 Q 676 -67 691 -36 Q 704 -8 705 59 Q 687 218 712 247 Q 721 259 712 268 Q 696 287 646 310 Q 630 320 615 311 Q 579 296 449 269 C 410 261 407 235 437 237 Q 461 236 601 263 Q 622 267 632 259 Q 656 228 639 48 Q 633 29 616 38 C 586 37 580 37 594 19 Z" fill="lightgray"></path>
				<path d="M 433 125 Q 436 125 441 125 Q 529 135 593 140 Q 617 143 609 156 Q 599 172 574 177 Q 544 183 434 154 C 405 146 403 125 433 125 Z" fill="lightgray"></path>
				<path d="M 422 10 Q 428 9 435 10 Q 486 17 594 19 C 624 20 635 20 616 38 Q 606 48 592 57 Q 577 66 549 60 Q 485 48 430 42 C 400 39 392 12 422 10 Z" fill="lightgray"></path>
</g>
		<text x="40" y="140" font-size="128" fill="#999999">6</text></g>
		<g id="id1:id1:id1" transform="matrix(1.0,0,0,1.0,1024,0.0)">			<g stroke="lightgray" stroke-width="4" transform="scale(4, 4)"> <rect x="0" y="0" width="256" height="256" fill="white" stroke-width="4"/></g>
			<g transform="scale(0.92, -0.92) translate(60, -920)">					<path d="M 313 790 Q 303 797 268 799 Q 256 802 253 796 Q 247 789 257 774 Q 285 726 307 646 Q 311 621 327 606 Q 346 585 350 602 Q 351 609 352 617 L 350 643 Q 335 706 326 758 C 321 786 321 786 313 790 Z" fill="black"></path>
				<path d="M 669 652 Q 685 627 700 617 Q 710 610 726 629 Q 736 642 763 717 Q 773 748 797 771 Q 810 783 800 797 Q 785 813 745 841 Q 727 850 656 836 Q 611 833 452 809 Q 376 797 313 790 C 283 787 296 755 326 758 Q 330 757 342 759 Q 378 768 425 776 L 450 780 Q 502 790 570 798 L 609 802 Q 627 805 649 807 Q 692 811 706 796 Q 713 787 712 778 Q 694 691 680 679 C 666 656 666 656 669 652 Z" fill="black"></path>
				<path d="M 473 659 Q 473 660 474 662 Q 478 692 456 762 Q 456 772 450 780 C 434 805 420 806 425 776 Q 428 761 429 733 Q 432 675 451 656 C 467 638 467 638 473 659 Z" fill="black"></path>
				<path d="M 573 674 Q 576 681 580 687 Q 593 709 606 740 Q 612 753 623 770 Q 633 780 626 787 Q 620 794 609 802 C 585 820 562 827 570 798 Q 579 774 552 685 Q 549 678 548 670 C 543 640 560 647 573 674 Z" fill="black"></path>
				<path d="M 352 617 Q 365 616 385 618 Q 545 640 669 652 C 699 655 708 668 680 679 Q 676 682 670 683 Q 646 689 573 674 L 548 670 Q 509 666 473 659 L 451 656 Q 397 652 350 643 C 320 638 322 618 352 617 Z" fill="black"></path>
				<path d="M 536 501 Q 561 507 589 510 Q 628 517 634 522 Q 641 529 638 537 Q 632 547 606 556 Q 581 562 539 549 L 486 535 Q 473 534 459 530 Q 407 520 346 517 Q 312 513 335 497 Q 368 475 474 491 Q 480 492 487 493 L 536 501 Z" fill="black"></path>
				<path d="M 529 411 Q 532 460 536 501 L 539 549 Q 540 556 541 561 Q 548 577 539 586 Q 520 608 499 618 Q 489 621 480 618 Q 473 614 475 605 Q 484 577 486 535 L 487 493 Q 487 459 488 406 C 489 376 527 381 529 411 Z" fill="red"></path>
				<path d="M 563 371 Q 770 398 908 382 Q 948 382 952 387 Q 959 400 948 413 Q 881 474 815 453 Q 737 440 617 421 L 549 413 Q 539 413 529 411 L 488 406 Q 370 394 309 385 Q 237 373 129 372 Q 116 372 114 361 Q 114 348 133 334 Q 149 321 181 310 Q 191 306 209 314 Q 227 320 303 334 Q 391 355 500 366 L 563 371 Z" fill="lightgray"></path>
				<path d="M 449 269 Q 470 290 563 371 L 617 421 Q 743 538 756 543 Q 771 547 771 557 Q 771 564 760 571 Q 732 592 706 598 Q 690 601 682 586 Q 664 529 549 413 L 500 366 Q 457 327 406 282 L 377 257 Q 244 146 99 56 Q 92 52 93 49 Q 94 46 102 47 Q 213 75 386 216 L 449 269 Z" fill="lightgray"></path>
				<path d="M 406 282 Q 390 289 377 288 Q 364 284 370 273 Q 374 266 377 257 L 386 216 Q 386 89 371 60 Q 356 27 386 -14 L 388 -16 Q 395 -29 404 -23 Q 414 -16 422 10 L 430 42 Q 433 60 433 125 L 434 154 Q 435 215 437 237 L 406 282 Z" fill="lightgray"></path>
				<path d="M 594 19 Q 622 -18 642 -52 Q 649 -68 661 -68 Q 676 -67 691 -36 Q 704 -8 705 59 Q 687 218 712 247 Q 721 259 712 268 Q 696 287 646 310 Q 630 320 615 311 Q 579 296 449 269 C 410 261 407 235 437 237 Q 461 236 601 263 Q 622 267 632 259 Q 656 228 639 48 Q 633 29 616 38 C 586 37 580 37 594 19 Z" fill="lightgray"></path>
				<path d="M 433 125 Q 436 125 441 125 Q 529 135 593 140 Q 617 143 609 156 Q 599 172 574 177 Q 544 183 434 154 C 405 146 403 125 433 125 Z" fill="lightgray"></path>
				<path d="M 422 10 Q 428 9 435 10 Q 486 17 594 19 C 624 20 635 20 616 38 Q 606 48 592 57 Q 577 66 549 60 Q 485 48 430 42 C 400 39 392 12 422 10 Z" fill="lightgray"></path>
</g>
		<text x="40" y="140" font-size="128" fill="#999999">7</text></g>
		<g id="id1:id2:id2" transform="matrix(1.0,0,0,1.0,2048,0.0)">			<g stroke="lightgray" stroke-width="4" transform="scale(4, 4)"> <rect x="0" y="0" width="256" height="256" fill="white" stroke-width="4"/></g>
			<g transform="scale(0.92, -0.92) translate(60, -920)">					<path d="M 313 790 Q 303 797 268 799 Q 256 802 253 796 Q 247 789 257 774 Q 285 726 307 646 Q 311 621 327 606 Q 346 585 350 602 Q 351 609 352 617 L 350 643 Q 335 706 326 758 C 321 786 321 786 313 790 Z" fill="black"></path>
				<path d="M 669 652 Q 685 627 700 617 Q 710 610 726 629 Q 736 642 763 717 Q 773 748 797 771 Q 810 783 800 797 Q 785 813 745 841 Q 727 850 656 836 Q 611 833 452 809 Q 376 797 313 790 C 283 787 296 755 326 758 Q 330 757 342 759 Q 378 768 425 776 L 450 780 Q 502 790 570 798 L 609 802 Q 627 805 649 807 Q 692 811 706 796 Q 713 787 712 778 Q 694 691 680 679 C 666 656 666 656 669 652 Z" fill="black"></path>
				<path d="M 473 659 Q 473 660 474 662 Q 478 692 456 762 Q 456 772 450 780 C 434 805 420 806 425 776 Q 428 761 429 733 Q 432 675 451 656 C 467 638 467 638 473 659 Z" fill="black"></path>
				<path d="M 573 674 Q 576 681 580 687 Q 593 709 606 740 Q 612 753 623 770 Q 633 780 626 787 Q 620 794 609 802 C 585 820 562 827 570 798 Q 579 774 552 685 Q 549 678 548 670 C 543 640 560 647 573 674 Z" fill="black"></path>
				<path d="M 352 617 Q 365 616 385 618 Q 545 640 669 652 C 699 655 708 668 680 679 Q 676 682 670 683 Q 646 689 573 674 L 548 670 Q 509 666 473 659 L 451 656 Q 397 652 350 643 C 320 638 322 618 352 617 Z" fill="black"></path>
				<path d="M 536 501 Q 561 507 589 510 Q 628 517 634 522 Q 641 529 638 537 Q 632 547 606 556 Q 581 562 539 549 L 486 535 Q 473 534 459 530 Q 407 520 346 517 Q 312 513 335 497 Q 368 475 474 491 Q 480 492 487 493 L 536 501 Z" fill="black"></path>
				<path d="M 529 411 Q 532 460 536 501 L 539 549 Q 540 556 541 561 Q 548 577 539 586 Q 520 608 499 618 Q 489 621 480 618 Q 473 614 475 605 Q 484 577 486 535 L 487 493 Q 487 459 488 406 C 489 376 527 381 529 411 Z" fill="black"></path>
				<path d="M 563 371 Q 770 398 908 382 Q 948 382 952 387 Q 959 400 948 413 Q 881 474 815 453 Q 737 440 617 421 L 549 413 Q 539 413 529 411 L 488 406 Q 370 394 309 385 Q 237 373 129 372 Q 116 372 114 361 Q 114 348 133 334 Q 149 321 181 310 Q 191 306 209 314 Q 227 320 303 334 Q 391 355 500 366 L 563 371 Z" fill="red"></path>
				<path d="M 449 269 Q 470 290 563 371 L 617 421 Q 743 538 756 543 Q 771 547 771 557 Q 771 564 760 571 Q 732 592 706 598 Q 690 601 682 586 Q 664 529 549 413 L 500 366 Q 457 327 406 282 L 377 257 Q 244 146 99 56 Q 92 52 93 49 Q 94 46 102 47 Q 213 75 386 216 L 449 269 Z" fill="lightgray"></path>
				<path d="M 406 282 Q 390 289 377 288 Q 364 284 370 273 Q 374 266 377 257 L 386 216 Q 386 89 371 60 Q 356 27 386 -14 L 388 -16 Q 395 -29 404 -23 Q 414 -16 422 10 L 430 42 Q 433 60 433 125 L 434 154 Q 435 215 437 237 L 406 282 Z" fill="lightgray"></path>
				<path d="M 594 19 Q 622 -18 642 -52 Q 649 -68 661 -68 Q 676 -67 691 -36 Q 704 -8 705 59 Q 687 218 712 247 Q 721 259 712 268 Q 696 287 646 310 Q 630 320 615 311 Q 579 296 449 269 C 410 261 407 235 437 237 Q 461 236 601 263 Q 622 267 632 259 Q 656 228 639 48 Q 633 29 616 38 C 586 37 580 37 594 19 Z" fill="lightgray"></path>
				<path d="M 433 125 Q 436 125 441 125 Q 529 135 593 140 Q 617 143 609 156 Q 599 172 574 177 Q 544 183 434 154 C 405 146 403 125 433 125 Z" fill="lightgray"></path>
				<path d="M 422 10 Q 428 9 435 10 Q 486 17 594 19 C 624 20 635 20 616 38 Q 606 48 592 57 Q 577 66 549 60 Q 485 48 430 42 C 400 39 392 12 422 10 Z" fill="lightgray"></path>
</g>
		<text x="40" y="140" font-size="128" fill="#999999">8</text></g>
		<g id="id1:id3:id3" transform="matrix(1.0,0,0,1.0,3072,0.0)">			<g stroke="lightgray" stroke-width="4" transform="scale(4, 4)"> <rect x="0" y="0" width="256" height="256" fill="white" stroke-width="4"/></g>
			<g transform="scale(0.92, -0.92) translate(60, -920)">					<path d="M 313 790 Q 303 797 268 799 Q 256 802 253 796 Q 247 789 257 774 Q 285 726 307 646 Q 311 621 327 606 Q 346 585 350 602 Q 351 609 352 617 L 350 643 Q 335 706 326 758 C 321 786 321 786 313 790 Z" fill="black"></path>
				<path d="M 669 652 Q 685 627 700 617 Q 710 610 726 629 Q 736 642 763 717 Q 773 748 797 771 Q 810 783 800 797 Q 785 813 745 841 Q 727 850 656 836 Q 611 833 452 809 Q 376 797 313 790 C 283 787 296 755 326 758 Q 330 757 342 759 Q 378 768 425 776 L 450 780 Q 502 790 570 798 L 609 802 Q 627 805 649 807 Q 692 811 706 796 Q 713 787 712 778 Q 694 691 680 679 C 666 656 666 656 669 652 Z" fill="black"></path>
				<path d="M 473 659 Q 473 660 474 662 Q 478 692 456 762 Q 456 772 450 780 C 434 805 420 806 425 776 Q 428 761 429 733 Q 432 675 451 656 C 467 638 467 638 473 659 Z" fill="black"></path>
				<path d="M 573 674 Q 576 681 580 687 Q 593 709 606 740 Q 612 753 623 770 Q 633 780 626 787 Q 620 794 609 802 C 585 820 562 827 570 798 Q 579 774 552 685 Q 549 678 548 670 C 543 640 560 647 573 674 Z" fill="black"></path>
				<path d="M 352 617 Q 365 616 385 618 Q 545 640 669 652 C 699 655 708 668 680 679 Q 676 682 670 683 Q 646 689 573 674 L 548 670 Q 509 666 473 659 L 451 656 Q 397 652 350 643 C 320 638 322 618 352 617 Z" fill="black"></path>
				<path d="M 536 501 Q 561 507 589 510 Q 628 517 634 522 Q 641 529 638 537 Q 632 547 606 556 Q 581 562 539 549 L 486 535 Q 473 534 459 530 Q 407 520 346 517 Q 312 513 335 497 Q 368 475 474 491 Q 480 492 487 493 L 536 501 Z" fill="black"></path>
				<path d="M 529 411 Q 532 460 536 501 L 539 549 Q 540 556 541 561 Q 548 577 539 586 Q 520 608 499 618 Q 489 621 480 618 Q 473 614 475 605 Q 484 577 486 535 L 487 493 Q 487 459 488 406 C 489 376 527 381 529 411 Z" fill="black"></path>
				<path d="M 563 371 Q 770 398 908 382 Q 948 382 952 387 Q 959 400 948 413 Q 881 474 815 453 Q 737 440 617 421 L 549 413 Q 539 413 529 411 L 488 406 Q 370 394 309 385 Q 237 373 129 372 Q 116 372 114 361 Q 114 348 133 334 Q 149 321 181 310 Q 191 306 209 314 Q 227 320 303 334 Q 391 355 500 366 L 563 371 Z" fill="black"></path>
				<path d="M 449 269 Q 470 290 563 371 L 617 421 Q 743 538 756 543 Q 771 547 771 557 Q 771 564 760 571 Q 732 592 706 598 Q 690 601 682 586 Q 664 529 549 413 L 500 366 Q 457 327 406 282 L 377 257 Q 244 146 99 56 Q 92 52 93 49 Q 94 46 102 47 Q 213 75 386 216 L 449 269 Z" fill="red"></path>
				<path d="M 406 282 Q 390 289 377 288 Q 364 284 370 273 Q 374 266 377 257 L 386 216 Q 386 89 371 60 Q 356 27 386 -14 L 388 -16 Q 395 -29 404 -23 Q 414 -16 422 10 L 430 42 Q 433 60 433 125 L 434 154 Q 435 215 437 237 L 406 282 Z" fill="lightgray"></path>
				<path d="M 594 19 Q 622 -18 642 -52 Q 649 -68 661 -68 Q 676 -67 691 -36 Q 704 -8 705 59 Q 687 218 712 247 Q 721 259 712 268 Q 696 287 646 310 Q 630 320 615 311 Q 579 296 449 269 C 410 261 407 235 437 237 Q 461 236 601 263 Q 622 267 632 259 Q 656 228 639 48 Q 633 29 616 38 C 586 37 580 37 594 19 Z" fill="lightgray"></path>
				<path d="M 433 125 Q 436 125 441 125 Q 529 135 593 140 Q 617 143 609 156 Q 599 172 574 177 Q 544 183 434 154 C 405 146 403 125 433 125 Z" fill="lightgray"></path>
				<path d="M 422 10 Q 428 9 435 10 Q 486 17 594 19 C 624 20 635 20 616 38 Q 606 48 592 57 Q 577 66 549 60 Q 485 48 430 42 C 400 39 392 12 422 10 Z" fill="lightgray"></path>
</g>
		<text x="40" y="140" font-size="128" fill="#999999">9</text></g>
		<g id="id1:id4:id4" transform="matrix(1.0,0,0,1.0,4096,0.0)">			<g stroke="lightgray" stroke-width="4" transform="scale(4, 4)"> <rect x="0" y="0" width="256" height="256" fill="white" stroke-width="4"/></g>
			<g transform="scale(0.92, -0.92) translate(60, -920)">					<path d="M 313 790 Q 303 797 268 799 Q 256 802 253 796 Q 247 789 257 774 Q 285 726 307 646 Q 311 621 327 606 Q 346 585 350 602 Q 351 609 352 617 L 350 643 Q 335 706 326 758 C 321 786 321 786 313 790 Z" fill="black"></path>
				<path d="M 669 652 Q 685 627 700 617 Q 710 610 726 629 Q 736 642 763 717 Q 773 748 797 771 Q 810 783 800 797 Q 785 813 745 841 Q 727 850 656 836 Q 611 833 452 809 Q 376 797 313 790 C 283 787 296 755 326 758 Q 330 757 342 759 Q 378 768 425 776 L 450 780 Q 502 790 570 798 L 609 802 Q 627 805 649 807 Q 692 811 706 796 Q 713 787 712 778 Q 694 691 680 679 C 666 656 666 656 669 652 Z" fill="black"></path>
				<path d="M 473 659 Q 473 660 474 662 Q 478 692 456 762 Q 456 772 450 780 C 434 805 420 806 425 776 Q 428 761 429 733 Q 432 675 451 656 C 467 638 467 638 473 659 Z" fill="black"></path>
				<path d="M 573 674 Q 576 681 580 687 Q 593 709 606 740 Q 612 753 623 770 Q 633 780 626 787 Q 620 794 609 802 C 585 820 562 827 570 798 Q 579 774 552 685 Q 549 678 548 670 C 543 640 560 647 573 674 Z" fill="black"></path>
				<path d="M 352 617 Q 365 616 385 618 Q 545 640 669 652 C 699 655 708 668 680 679 Q 676 682 670 683 Q 646 689 573 674 L 548 670 Q 509 666 473 659 L 451 656 Q 397 652 350 643 C 320 638 322 618 352 617 Z" fill="black"></path>
				<path d="M 536 501 Q 561 507 589 510 Q 628 517 634 522 Q 641 529 638 537 Q 632 547 606 556 Q 581 562 539 549 L 486 535 Q 473 534 459 530 Q 407 520 346 517 Q 312 513 335 497 Q 368 475 474 491 Q 480 492 487 493 L 536 501 Z" fill="black"></path>
				<path d="M 529 411 Q 532 460 536 501 L 539 549 Q 540 556 541 561 Q 548 577 539 586 Q 520 608 499 618 Q 489 621 480 618 Q 473 614 475 605 Q 484 577 486 535 L 487 493 Q 487 459 488 406 C 489 376 527 381 529 411 Z" fill="black"></path>
				<path d="M 563 371 Q 770 398 908 382 Q 948 382 952 387 Q 959 400 948 413 Q 881 474 815 453 Q 737 440 617 421 L 549 413 Q 539 413 529 411 L 488 406 Q 370 394 309 385 Q 237 373 129 372 Q 116 372 114 361 Q 114 348 133 334 Q 149 321 181 310 Q 191 306 209 314 Q 227 320 303 334 Q 391 355 500 366 L 563 371 Z" fill="black"></path>
				<path d="M 449 269 Q 470 290 563 371 L 617 421 Q 743 538 756 543 Q 771 547 771 557 Q 771 564 760 571 Q 732 592 706 598 Q 690 601 682 586 Q 664 529 549 413 L 500 366 Q 457 327 406 282 L 377 257 Q 244 146 99 56 Q 92 52 93 49 Q 94 46 102 47 Q 213 75 386 216 L 449 269 Z" fill="black"></path>
				<path d="M 406 282 Q 390 289 377 288 Q 364 284 370 273 Q 374 266 377 257 L 386 216 Q 386 89 371 60 Q 356 27 386 -14 L 388 -16 Q 395 -29 404 -23 Q 414 -16 422 10 L 430 42 Q 433 60 433 125 L 434 154 Q 435 215 437 237 L 406 282 Z" fill="red"></path>
				<path d="M 594 19 Q 622 -18 642 -52 Q 649 -68 661 -68 Q 676 -67 691 -36 Q 704 -8 705 59 Q 687 218 712 247 Q 721 259 712 268 Q 696 287 646 310 Q 630 320 615 311 Q 579 296 449 269 C 410 261 407 235 437 237 Q 461 236 601 263 Q 622 267 632 259 Q 656 228 639 48 Q 633 29 616 38 C 586 37 580 37 594 19 Z" fill="lightgray"></path>
				<path d="M 433 125 Q 436 125 441 125 Q 529 135 593 140 Q 617 143 609 156 Q 599 172 574 177 Q 544 183 434 154 C 405 146 403 125 433 125 Z" fill="lightgray"></path>
				<path d="M 422 10 Q 428 9 435 10 Q 486 17 594 19 C 624 20 635 20 616 38 Q 606 48 592 57 Q 577 66 549 60 Q 485 48 430 42 C 400 39 392 12 422 10 Z" fill="lightgray"></path>
</g>
		<text x="40" y="140" font-size="128" fill="#999999">10</text></g>
</g>
	<g id="id2:id2" transform="translate(0.0,2048)">
		<g id="id2:id0:id0" transform="matrix(1.0,0,0,1.0,0,0.0)">			<g stroke="lightgray" stroke-width="4" transform="scale(4, 4)"> <rect x="0" y="0" width="256" height="256" fill="white" stroke-width="4"/></g>
			<g transform="scale(0.92, -0.92) translate(60, -920)">					<path d="M 313 790 Q 303 797 268 799 Q 256 802 253 796 Q 247 789 257 774 Q 285 726 307 646 Q 311 621 327 606 Q 346 585 350 602 Q 351 609 352 617 L 350 643 Q 335 706 326 758 C 321 786 321 786 313 790 Z" fill="black"></path>
				<path d="M 669 652 Q 685 627 700 617 Q 710 610 726 629 Q 736 642 763 717 Q 773 748 797 771 Q 810 783 800 797 Q 785 813 745 841 Q 727 850 656 836 Q 611 833 452 809 Q 376 797 313 790 C 283 787 296 755 326 758 Q 330 757 342 759 Q 378 768 425 776 L 450 780 Q 502 790 570 798 L 609 802 Q 627 805 649 807 Q 692 811 706 796 Q 713 787 712 778 Q 694 691 680 679 C 666 656 666 656 669 652 Z" fill="black"></path>
				<path d="M 473 659 Q 473 660 474 662 Q 478 692 456 762 Q 456 772 450 780 C 434 805 420 806 425 776 Q 428 761 429 733 Q 432 675 451 656 C 467 638 467 638 473 659 Z" fill="black"></path>
				<path d="M 573 674 Q 576 681 580 687 Q 593 709 606 740 Q 612 753 623 770 Q 633 780 626 787 Q 620 794 609 802 C 585 820 562 827 570 798 Q 579 774 552 685 Q 549 678 548 670 C 543 640 560 647 573 674 Z" fill="black"></path>
				<path d="M 352 617 Q 365 616 385 618 Q 545 640 669 652 C 699 655 708 668 680 679 Q 676 682 670 683 Q 646 689 573 674 L 548 670 Q 509 666 473 659 L 451 656 Q 397 652 350 643 C 320 638 322 618 352 617 Z" fill="black"></path>
				<path d="M 536 501 Q 561 507 589 510 Q 628 517 634 522 Q 641 529 638 537 Q 632 547 606 556 Q 581 562 539 549 L 486 535 Q 473 534 459 530 Q 407 520 346 517 Q 312 513 335 497 Q 368 475 474 491 Q 480 492 487 493 L 536 501 Z" fill="black"></path>
				<path d="M 529 411 Q 532 460 536 501 L 539 549 Q 540 556 541 561 Q 548 577 539 586 Q 520 608 499 618 Q 489 621 480 618 Q 473 614 475 605 Q 484 577 486 535 L 487 493 Q 487 459 488 406 C 489 376 527 381 529 411 Z" fill="black"></path>
				<path d="M 563 371 Q 770 398 908 382 Q 948 382 952 387 Q 959 400 948 413 Q 881 474 815 453 Q 737 440 617 421 L 549 413 Q 539 413 529 411 L 488 406 Q 370 394 309 385 Q 237 373 129 372 Q 116 372 114 361 Q 114 348 133 334 Q 149 321 181 310 Q 191 306 209 314 Q 227 320 303 334 Q 391 355 500 366 L 563 371 Z" fill="black"></path>
				<path d="M 449 269 Q 470 290 563 371 L 617 421 Q 743 538 756 543 Q 771 547 771 557 Q 771 564 760 571 Q 732 592 706 598 Q 690 601 682 586 Q 664 529 549 413 L 500 366 Q 457 327 406 282 L 377 257 Q 244 146 99 56 Q 92 52 93 49 Q 94 46 102 47 Q 213 75 386 216 L 449 269 Z" fill="black"></path>
				<path d="M 406 282 Q 390 289 377 288 Q 364 284 370 273 Q 374 266 377 257 L 386 216 Q 386 89 371 60 Q 356 27 386 -14 L 388 -16 Q 395 -29 404 -23 Q 414 -16 422 10 L 430 42 Q 433 60 433 125 L 434 154 Q 435 215 437 237 L 406 282 Z" fill="black"></path>
				<path d="M 594 19 Q 622 -18 642 -52 Q 649 -68 661 -68 Q 676 -67 691 -36 Q 704 -8 705 59 Q 687 218 712 247 Q 721 259 712 268 Q 696 287 646 310 Q 630 320 615 311 Q 579 296 449 269 C 410 261 407 235 437 237 Q 461 236 601 263 Q 622 267 632 259 Q 656 228 639 48 Q 633 29 616 38 C 586 37 580 37 594 19 Z" fill="red"></path>
				<path d="M 433 125 Q 436 125 441 125 Q 529 135 593 140 Q 617 143 609 156 Q 599 172 574 177 Q 544 183 434 154 C 405 146 403 125 433 125 Z" fill="lightgray"></path>
				<path d="M 422 10 Q 428 9 435 10 Q 486 17 594 19 C 624 20 635 20 616 38 Q 606 48 592 57 Q 577 66 549 60 Q 485 48 430 42 C 400 39 392 12 422 10 Z" fill="lightgray"></path>
</g>
		<text x="40" y="140" font-size="128" fill="#999999">11</text></g>
		<g id="id2:id1:id1" transform="matrix(1.0,0,0,1.0,1024,0.0)">			<g stroke="lightgray" stroke-width="4" transform="scale(4, 4)"> <rect x="0" y="0" width="256" height="256" fill="white" stroke-width="4"/></g>
			<g transform="scale(0.92, -0.92) translate(60, -920)">					<path d="M 313 790 Q 303 797 268 799 Q 256 802 253 796 Q 247 789 257 774 Q 285 726 307 646 Q 311 621 327 606 Q 346 585 350 602 Q 351 609 352 617 L 350 643 Q 335 706 326 758 C 321 786 321 786 313 790 Z" fill="black"></path>
				<path d="M 669 652 Q 685 627 700 617 Q 710 610 726 629 Q 736 642 763 717 Q 773 748 797 771 Q 810 783 800 797 Q 785 813 745 841 Q 727 850 656 836 Q 611 833 452 809 Q 376 797 313 790 C 283 787 296 755 326 758 Q 330 757 342 759 Q 378 768 425 776 L 450 780 Q 502 790 570 798 L 609 802 Q 627 805 649 807 Q 692 811 706 796 Q 713 787 712 778 Q 694 691 680 679 C 666 656 666 656 669 652 Z" fill="black"></path>
				<path d="M 473 659 Q 473 660 474 662 Q 478 692 456 762 Q 456 772 450 780 C 434 805 420 806 425 776 Q 428 761 429 733 Q 432 675 451 656 C 467 638 467 638 473 659 Z" fill="black"></path>
				<path d="M 573 674 Q 576 681 580 687 Q 593 709 606 740 Q 612 753 623 770 Q 633 780 626 787 Q 620 794 609 802 C 585 820 562 827 570 798 Q 579 774 552 685 Q 549 678 548 670 C 543 640 560 647 573 674 Z" fill="black"></path>
				<path d="M 352 617 Q 365 616 385 618 Q 545 640 669 652 C 699 655 708 668 680 679 Q 676 682 670 683 Q 646 689 573 674 L 548 670 Q 509 666 473 659 L 451 656 Q 397 652 350 643 C 320 638 322 618 352 617 Z" fill="black"></path>
				<path d="M 536 501 Q 561 507 589 510 Q 628 517 634 522 Q 641 529 638 537 Q 632 547 606 556 Q 581 562 539 549 L 486 535 Q 473 534 459 530 Q 407 520 346 517 Q 312 513 335 497 Q 368 475 474 491 Q 480 492 487 493 L 536 501 Z" fill="black"></path>
				<path d="M 529 411 Q 532 460 536 501 L 539 549 Q 540 556 541 561 Q 548 577 539 586 Q 520 608 499 618 Q 489 621 480 618 Q 473 614 475 605 Q 484 577 486 535 L 487 493 Q 487 459 488 406 C 489 376 527 381 529 411 Z" fill="black"></path>
				<path d="M 563 371 Q 770 398 908 382 Q 948 382 952 387 Q 959 400 948 413 Q 881 474 815 453 Q 737 440 617 421 L 549 413 Q 539 413 529 411 L 488 406 Q 370 394 309 385 Q 237 373 129 372 Q 116 372 114 361 Q 114 348 133 334 Q 149 321 181 310 Q 191 306 209 314 Q 227 320 303 334 Q 391 355 500 366 L 563 371 Z" fill="black"></path>
				<path d="M 449 269 Q 470 290 563 371 L 617 421 Q 743 538 756 543 Q 771 547 771 557 Q 771 564 760 571 Q 732 592 706 598 Q 690 601 682 586 Q 664 529 549 413 L 500 366 Q 457 327 406 282 L 377 257 Q 244 146 99 56 Q 92 52 93 49 Q 94 46 102 47 Q 213 75 386 216 L 449 269 Z" fill="black"></path>
				<path d="M 406 282 Q 390 289 377 288 Q 364 284 370 273 Q 374 266 377 257 L 386 216 Q 386 89 371 60 Q 356 27 386 -14 L 388 -16 Q 395 -29 404 -23 Q 414 -16 422 10 L 430 42 Q 433 60 433 125 L 434 154 Q 435 215 437 237 L 406 282 Z" fill="black"></path>
				<path d="M 594 19 Q 622 -18 642 -52 Q 649 -68 661 -68 Q 676 -67 691 -36 Q 704 -8 705 59 Q 687 218 712 247 Q 721 259 712 268 Q 696 287 646 310 Q 630 320 615 311 Q 579 296 449 269 C 410 261 407 235 437 237 Q 461 236 601 263 Q 622 267 632 259 Q 656 228 639 48 Q 633 29 616 38 C 586 37 580 37 594 19 Z" fill="black"></path>
				<path d="M 433 125 Q 436 125 441 125 Q 529 135 593 140 Q 617 143 609 156 Q 599 172 574 177 Q 544 183 434 154 C 405 146 403 125 433 125 Z" fill="red"></path>
				<path d="M 422 10 Q 428 9 435 10 Q 486 17 594 19 C 624 20 635 20 616 38 Q 606 48 592 57 Q 577 66 549 60 Q 485 48 430 42 C 400 39 392 12 422 10 Z" fill="lightgray"></path>
</g>
		<text x="40" y="140" font-size="128" fill="#999999">12</text></g>
		<g id="id2:id2:id2" transform="matrix(1.0,0,0,1.0,2048,0.0)">			<g stroke="lightgray" stroke-width="4" transform="scale(4, 4)"> <rect x="0" y="0" width="256" height="256" fill="white" stroke-width="4"/></g>
			<g transform="scale(0.92, -0.92) translate(60, -920)">					<path d="M 313 790 Q 303 797 268 799 Q 256 802 253 796 Q 247 789 257 774 Q 285 726 307 646 Q 311 621 327 606 Q 346 585 350 602 Q 351 609 352 617 L 350 643 Q 335 706 326 758 C 321 786 321 786 313 790 Z" fill="black"></path>
				<path d="M 669 652 Q 685 627 700 617 Q 710 610 726 629 Q 736 642 763 717 Q 773 748 797 771 Q 810 783 800 797 Q 785 813 745 841 Q 727 850 656 836 Q 611 833 452 809 Q 376 797 313 790 C 283 787 296 755 326 758 Q 330 757 342 759 Q 378 768 425 776 L 450 780 Q 502 790 570 798 L 609 802 Q 627 805 649 807 Q 692 811 706 796 Q 713 787 712 778 Q 694 691 680 679 C 666 656 666 656 669 652 Z" fill="black"></path>
				<path d="M 473 659 Q 473 660 474 662 Q 478 692 456 762 Q 456 772 450 780 C 434 805 420 806 425 776 Q 428 761 429 733 Q 432 675 451 656 C 467 638 467 638 473 659 Z" fill="black"></path>
				<path d="M 573 674 Q 576 681 580 687 Q 593 709 606 740 Q 612 753 623 770 Q 633 780 626 787 Q 620 794 609 802 C 585 820 562 827 570 798 Q 579 774 552 685 Q 549 678 548 670 C 543 640 560 647 573 674 Z" fill="black"></path>
				<path d="M 352 617 Q 365 616 385 618 Q 545 640 669 652 C 699 655 708 668 680 679 Q 676 682 670 683 Q 646 689 573 674 L 548 670 Q 509 666 473 659 L 451 656 Q 397 652 350 643 C 320 638 322 618 352 617 Z" fill="black"></path>
				<path d="M 536 501 Q 561 507 589 510 Q 628 517 634 522 Q 641 529 638 537 Q 632 547 606 556 Q 581 562 539 549 L 486 535 Q 473 534 459 530 Q 407 520 346 517 Q 312 513 335 497 Q 368 475 474 491 Q 480 492 487 493 L 536 501 Z" fill="black"></path>
				<path d="M 529 411 Q 532 460 536 501 L 539 549 Q 540 556 541 561 Q 548 577 539 586 Q 520 608 499 618 Q 489 621 480 618 Q 473 614 475 605 Q 484 577 486 535 L 487 493 Q 487 459 488 406 C 489 376 527 381 529 411 Z" fill="black"></path>
				<path d="M 563 371 Q 770 398 908 382 Q 948 382 952 387 Q 959 400 948 413 Q 881 474 815 453 Q 737 440 617 421 L 549 413 Q 539 413 529 411 L 488 406 Q 370 394 309 385 Q 237 373 129 372 Q 116 372 114 361 Q 114 348 133 334 Q 149 321 181 310 Q 191 306 209 314 Q 227 320 303 334 Q 391 355 500 366 L 563 371 Z" fill="black"></path>
				<path d="M 449 269 Q 470 290 563 371 L 617 421 Q 743 538 756 543 Q 771 547 771 557 Q 771 564 760 571 Q 732 592 706 598 Q 690 601 682 586 Q 664 529 549 413 L 500 366 Q 457 327 406 282 L 377 257 Q 244 146 99 56 Q 92 52 93 49 Q 94 46 102 47 Q 213 75 386 216 L 449 269 Z" fill="black"></path>
				<path d="M 406 282 Q 390 289 377 288 Q 364 284 370 273 Q 374 266 377 257 L 386 216 Q 386 89 371 60 Q 356 27 386 -14 L 388 -16 Q 395 -29 404 -23 Q 414 -16 422 10 L 430 42 Q 433 60 433 125 L 434 154 Q 435 215 437 237 L 406 282 Z" fill="black"></path>
				<path d="M 594 19 Q 622 -18 642 -52 Q 649 -68 661 -68 Q 676 -67 691 -36 Q 704 -8 705 59 Q 687 218 712 247 Q 721 259 712 268 Q 696 287 646 310 Q 630 320 615 311 Q 579 296 449 269 C 410 261 407 235 437 237 Q 461 236 601 263 Q 622 267 632 259 Q 656 228 639 48 Q 633 29 616 38 C 586 37 580 37 594 19 Z" fill="black"></path>
				<path d="M 433 125 Q 436 125 441 125 Q 529 135 593 140 Q 617 143 609 156 Q 599 172 574 177 Q 544 183 434 154 C 405 146 403 125 433 125 Z" fill="black"></path>
				<path d="M 422 10 Q 428 9 435 10 Q 486 17 594 19 C 624 20 635 20 616 38 Q 606 48 592 57 Q 577 66 549 60 Q 485 48 430 42 C 400 39 392 12 422 10 Z" fill="red"></path>
</g>
		<text x="40" y="140" font-size="128" fill="#999999">13</text></g>
		<g id="id2:id3:id3" transform="matrix(1.0,0,0,1.0,3072,0.0)">			<g stroke="white" stroke-width="4" transform="scale(4, 4)"> <rect x="1" y="1" width="255" height="255" fill="white" stroke-width="0"/></g>
</g>
		<g id="id2:id4:id4" transform="matrix(1.0,0,0,1.0,4096,0.0)">			<g stroke="white" stroke-width="4" transform="scale(4, 4)"> <rect x="1" y="1" width="255" height="255" fill="white" stroke-width="0"/></g>
</g>
</g>
</svg>
