<?xml version="1.0" standalone="no"?>
<!DOCTYPE svg PUBLIC "-//W3C//DTD SVG 1.1//EN"
 "http://www.w3.org/Graphics/SVG/1.1/DTD/svg11.dtd">
<!-- generate by Japanese dictionary app com.asnsami.kanjidictionary -->

<svg xmlns="http://www.w3.org/2000/svg" xmlns:sodipodi="http://sodipodi.sourceforge.net/DTD/sodipodi-0.dtd" version="1.1" width="640" height="256" viewBox="0 0 5120 2048">
	<g id="id0:id0" transform="translate(0.0,0)">
		<g id="id0:id0:id0" transform="matrix(1.0,0,0,1.0,0,0.0)">			<g stroke="lightgray" stroke-width="4" transform="scale(4, 4)"> <rect x="0" y="0" width="256" height="256" fill="white" stroke-width="4"/></g>
			<g transform="scale(0.92, -0.92) translate(60, -920)">					<path d="M 366 769 Q 391 745 419 716 Q 432 703 448 703 Q 458 703 465 717 Q 469 732 462 761 Q 453 791 362 818 Q 346 822 340 819 Q 336 815 336 802 Q 339 792 366 769 Z" fill="red"></path>
				<path d="M 637 819 Q 624 797 551 711 Q 541 693 558 697 Q 609 724 637 743 Q 707 791 726 798 Q 748 808 738 827 Q 725 846 697 861 Q 672 876 659 874 Q 646 873 649 858 Q 653 839 637 819 Z" fill="lightgray"></path>
				<path d="M 539 604 Q 731 640 737 645 Q 747 654 743 663 Q 736 676 705 685 Q 671 692 583 665 Q 441 632 316 623 Q 276 619 304 599 Q 349 572 409 583 Q 445 589 482 595 L 539 604 Z" fill="lightgray"></path>
				<path d="M 539 445 Q 584 455 631 463 Q 679 473 686 479 Q 696 486 691 496 Q 684 508 654 516 Q 623 523 593 512 Q 565 503 539 495 L 480 481 Q 414 468 339 461 Q 302 457 328 438 Q 364 416 444 428 Q 460 431 479 434 L 539 445 Z" fill="lightgray"></path>
				<path d="M 539 289 Q 746 313 903 296 Q 936 296 941 300 Q 941 301 942 301 Q 949 314 937 327 Q 864 393 799 371 Q 715 356 539 336 L 478 329 Q 354 317 290 309 Q 217 299 109 298 Q 96 298 94 286 Q 93 273 112 258 Q 130 245 162 233 Q 174 229 192 237 Q 210 243 286 255 Q 373 274 478 285 L 539 289 Z" fill="lightgray"></path>
				<path d="M 478 285 Q 478 -40 499 -62 Q 511 -74 522 -49 Q 538 -10 539 195 Q 539 243 539 289 L 539 336 Q 539 391 539 445 L 539 495 Q 539 550 539 604 C 539 634 483 625 482 595 Q 481 540 480 481 L 479 434 Q 478 382 478 329 L 478 285 Z" fill="lightgray"></path>
</g>
		<text x="40" y="140" font-size="128" fill="#999999">1</text></g>
		<g id="id0:id1:id1" transform="matrix(1.0,0,0,1.0,1024,0.0)">			<g stroke="lightgray" stroke-width="4" transform="scale(4, 4)"> <rect x="0" y="0" width="256" height="256" fill="white" stroke-width="4"/></g>
			<g transform="scale(0.92, -0.92) translate(60, -920)">					<path d="M 366 769 Q 391 745 419 716 Q 432 703 448 703 Q 458 703 465 717 Q 469 732 462 761 Q 453 791 362 818 Q 346 822 340 819 Q 336 815 336 802 Q 339 792 366 769 Z" fill="black"></path>
				<path d="M 637 819 Q 624 797 551 711 Q 541 693 558 697 Q 609 724 637 743 Q 707 791 726 798 Q 748 808 738 827 Q 725 846 697 861 Q 672 876 659 874 Q 646 873 649 858 Q 653 839 637 819 Z" fill="red"></path>
				<path d="M 539 604 Q 731 640 737 645 Q 747 654 743 663 Q 736 676 705 685 Q 671 692 583 665 Q 441 632 316 623 Q 276 619 304 599 Q 349 572 409 583 Q 445 589 482 595 L 539 604 Z" fill="lightgray"></path>
				<path d="M 539 445 Q 584 455 631 463 Q 679 473 686 479 Q 696 486 691 496 Q 684 508 654 516 Q 623 523 593 512 Q 565 503 539 495 L 480 481 Q 414 468 339 461 Q 302 457 328 438 Q 364 416 444 428 Q 460 431 479 434 L 539 445 Z" fill="lightgray"></path>
				<path d="M 539 289 Q 746 313 903 296 Q 936 296 941 300 Q 941 301 942 301 Q 949 314 937 327 Q 864 393 799 371 Q 715 356 539 336 L 478 329 Q 354 317 290 309 Q 217 299 109 298 Q 96 298 94 286 Q 93 273 112 258 Q 130 245 162 233 Q 174 229 192 237 Q 210 243 286 255 Q 373 274 478 285 L 539 289 Z" fill="lightgray"></path>
				<path d="M 478 285 Q 478 -40 499 -62 Q 511 -74 522 -49 Q 538 -10 539 195 Q 539 243 539 289 L 539 336 Q 539 391 539 445 L 539 495 Q 539 550 539 604 C 539 634 483 625 482 595 Q 481 540 480 481 L 479 434 Q 478 382 478 329 L 478 285 Z" fill="lightgray"></path>
</g>
		<text x="40" y="140" font-size="128" fill="#999999">2</text></g>
		<g id="id0:id2:id2" transform="matrix(1.0,0,0,1.0,2048,0.0)">			<g stroke="lightgray" stroke-width="4" transform="scale(4, 4)"> <rect x="0" y="0" width="256" height="256" fill="white" stroke-width="4"/></g>
			<g transform="scale(0.92, -0.92) translate(60, -920)">					<path d="M 366 769 Q 391 745 419 716 Q 432 703 448 703 Q 458 703 465 717 Q 469 732 462 761 Q 453 791 362 818 Q 346 822 340 819 Q 336 815 336 802 Q 339 792 366 769 Z" fill="black"></path>
				<path d="M 637 819 Q 624 797 551 711 Q 541 693 558 697 Q 609 724 637 743 Q 707 791 726 798 Q 748 808 738 827 Q 725 846 697 861 Q 672 876 659 874 Q 646 873 649 858 Q 653 839 637 819 Z" fill="black"></path>
				<path d="M 539 604 Q 731 640 737 645 Q 747 654 743 663 Q 736 676 705 685 Q 671 692 583 665 Q 441 632 316 623 Q 276 619 304 599 Q 349 572 409 583 Q 445 589 482 595 L 539 604 Z" fill="red"></path>
				<path d="M 539 445 Q 584 455 631 463 Q 679 473 686 479 Q 696 486 691 496 Q 684 508 654 516 Q 623 523 593 512 Q 565 503 539 495 L 480 481 Q 414 468 339 461 Q 302 457 328 438 Q 364 416 444 428 Q 460 431 479 434 L 539 445 Z" fill="lightgray"></path>
				<path d="M 539 289 Q 746 313 903 296 Q 936 296 941 300 Q 941 301 942 301 Q 949 314 937 327 Q 864 393 799 371 Q 715 356 539 336 L 478 329 Q 354 317 290 309 Q 217 299 109 298 Q 96 298 94 286 Q 93 273 112 258 Q 130 245 162 233 Q 174 229 192 237 Q 210 243 286 255 Q 373 274 478 285 L 539 289 Z" fill="lightgray"></path>
				<path d="M 478 285 Q 478 -40 499 -62 Q 511 -74 522 -49 Q 538 -10 539 195 Q 539 243 539 289 L 539 336 Q 539 391 539 445 L 539 495 Q 539 550 539 604 C 539 634 483 625 482 595 Q 481 540 480 481 L 479 434 Q 478 382 478 329 L 478 285 Z" fill="lightgray"></path>
</g>
		<text x="40" y="140" font-size="128" fill="#999999">3</text></g>
		<g id="id0:id3:id3" transform="matrix(1.0,0,0,1.0,3072,0.0)">			<g stroke="lightgray" stroke-width="4" transform="scale(4, 4)"> <rect x="0" y="0" width="256" height="256" fill="white" stroke-width="4"/></g>
			<g transform="scale(0.92, -0.92) translate(60, -920)">					<path d="M 366 769 Q 391 745 419 716 Q 432 703 448 703 Q 458 703 465 717 Q 469 732 462 761 Q 453 791 362 818 Q 346 822 340 819 Q 336 815 336 802 Q 339 792 366 769 Z" fill="black"></path>
				<path d="M 637 819 Q 624 797 551 711 Q 541 693 558 697 Q 609 724 637 743 Q 707 791 726 798 Q 748 808 738 827 Q 725 846 697 861 Q 672 876 659 874 Q 646 873 649 858 Q 653 839 637 819 Z" fill="black"></path>
				<path d="M 539 604 Q 731 640 737 645 Q 747 654 743 663 Q 736 676 705 685 Q 671 692 583 665 Q 441 632 316 623 Q 276 619 304 599 Q 349 572 409 583 Q 445 589 482 595 L 539 604 Z" fill="black"></path>
				<path d="M 539 445 Q 584 455 631 463 Q 679 473 686 479 Q 696 486 691 496 Q 684 508 654 516 Q 623 523 593 512 Q 565 503 539 495 L 480 481 Q 414 468 339 461 Q 302 457 328 438 Q 364 416 444 428 Q 460 431 479 434 L 539 445 Z" fill="red"></path>
				<path d="M 539 289 Q 746 313 903 296 Q 936 296 941 300 Q 941 301 942 301 Q 949 314 937 327 Q 864 393 799 371 Q 715 356 539 336 L 478 329 Q 354 317 290 309 Q 217 299 109 298 Q 96 298 94 286 Q 93 273 112 258 Q 130 245 162 233 Q 174 229 192 237 Q 210 243 286 255 Q 373 274 478 285 L 539 289 Z" fill="lightgray"></path>
				<path d="M 478 285 Q 478 -40 499 -62 Q 511 -74 522 -49 Q 538 -10 539 195 Q 539 243 539 289 L 539 336 Q 539 391 539 445 L 539 495 Q 539 550 539 604 C 539 634 483 625 482 595 Q 481 540 480 481 L 479 434 Q 478 382 478 329 L 478 285 Z" fill="lightgray"></path>
</g>
		<text x="40" y="140" font-size="128" fill="#999999">4</text></g>
		<g id="id0:id4:id4" transform="matrix(1.0,0,0,1.0,4096,0.0)">			<g stroke="lightgray" stroke-width="4" transform="scale(4, 4)"> <rect x="0" y="0" width="256" height="256" fill="white" stroke-width="4"/></g>
			<g transform="scale(0.92, -0.92) translate(60, -920)">					<path d="M 366 769 Q 391 745 419 716 Q 432 703 448 703 Q 458 703 465 717 Q 469 732 462 761 Q 453 791 362 818 Q 346 822 340 819 Q 336 815 336 802 Q 339 792 366 769 Z" fill="black"></path>
				<path d="M 637 819 Q 624 797 551 711 Q 541 693 558 697 Q 609 724 637 743 Q 707 791 726 798 Q 748 808 738 827 Q 725 846 697 861 Q 672 876 659 874 Q 646 873 649 858 Q 653 839 637 819 Z" fill="black"></path>
				<path d="M 539 604 Q 731 640 737 645 Q 747 654 743 663 Q 736 676 705 685 Q 671 692 583 665 Q 441 632 316 623 Q 276 619 304 599 Q 349 572 409 583 Q 445 589 482 595 L 539 604 Z" fill="black"></path>
				<path d="M 539 445 Q 584 455 631 463 Q 679 473 686 479 Q 696 486 691 496 Q 684 508 654 516 Q 623 523 593 512 Q 565 503 539 495 L 480 481 Q 414 468 339 461 Q 302 457 328 438 Q 364 416 444 428 Q 460 431 479 434 L 539 445 Z" fill="black"></path>
				<path d="M 539 289 Q 746 313 903 296 Q 936 296 941 300 Q 941 301 942 301 Q 949 314 937 327 Q 864 393 799 371 Q 715 356 539 336 L 478 329 Q 354 317 290 309 Q 217 299 109 298 Q 96 298 94 286 Q 93 273 112 258 Q 130 245 162 233 Q 174 229 192 237 Q 210 243 286 255 Q 373 274 478 285 L 539 289 Z" fill="red"></path>
				<path d="M 478 285 Q 478 -40 499 -62 Q 511 -74 522 -49 Q 538 -10 539 195 Q 539 243 539 289 L 539 336 Q 539 391 539 445 L 539 495 Q 539 550 539 604 C 539 634 483 625 482 595 Q 481 540 480 481 L 479 434 Q 478 382 478 329 L 478 285 Z" fill="lightgray"></path>
</g>
		<text x="40" y="140" font-size="128" fill="#999999">5</text></g>
</g>
	<g id="id1:id1" transform="translate(0.0,1024)">
		<g id="id1:id0:id0" transform="matrix(1.0,0,0,1.0,0,0.0)">			<g stroke="lightgray" stroke-width="4" transform="scale(4, 4)"> <rect x="0" y="0" width="256" height="256" fill="white" stroke-width="4"/></g>
			<g transform="scale(0.92, -0.92) translate(60, -920)">					<path d="M 366 769 Q 391 745 419 716 Q 432 703 448 703 Q 458 703 465 717 Q 469 732 462 761 Q 453 791 362 818 Q 346 822 340 819 Q 336 815 336 802 Q 339 792 366 769 Z" fill="black"></path>
				<path d="M 637 819 Q 624 797 551 711 Q 541 693 558 697 Q 609 724 637 743 Q 707 791 726 798 Q 748 808 738 827 Q 725 846 697 861 Q 672 876 659 874 Q 646 873 649 858 Q 653 839 637 819 Z" fill="black"></path>
				<path d="M 539 604 Q 731 640 737 645 Q 747 654 743 663 Q 736 676 705 685 Q 671 692 583 665 Q 441 632 316 623 Q 276 619 304 599 Q 349 572 409 583 Q 445 589 482 595 L 539 604 Z" fill="black"></path>
				<path d="M 539 445 Q 584 455 631 463 Q 679 473 686 479 Q 696 486 691 496 Q 684 508 654 516 Q 623 523 593 512 Q 565 503 539 495 L 480 481 Q 414 468 339 461 Q 302 457 328 438 Q 364 416 444 428 Q 460 431 479 434 L 539 445 Z" fill="black"></path>
				<path d="M 539 289 Q 746 313 903 296 Q 936 296 941 300 Q 941 301 942 301 Q 949 314 937 327 Q 864 393 799 371 Q 715 356 539 336 L 478 329 Q 354 317 290 309 Q 217 299 109 298 Q 96 298 94 286 Q 93 273 112 258 Q 130 245 162 233 Q 174 229 192 237 Q 210 243 286 255 Q 373 274 478 285 L 539 289 Z" fill="black"></path>
				<path d="M 478 285 Q 478 -40 499 -62 Q 511 -74 522 -49 Q 538 -10 539 195 Q 539 243 539 289 L 539 336 Q 539 391 539 445 L 539 495 Q 539 550 539 604 C 539 634 483 625 482 595 Q 481 540 480 481 L 479 434 Q 478 382 478 329 L 478 285 Z" fill="red"></path>
</g>
		<text x="40" y="140" font-size="128" fill="#999999">6</text></g>
		<g id="id1:id1:id1" transform="matrix(1.0,0,0,1.0,1024,0.0)">			<g stroke="white" stroke-width="4" transform="scale(4, 4)"> <rect x="1" y="1" width="255" height="255" fill="white" stroke-width="0"/></g>
</g>
		<g id="id1:id2:id2" transform="matrix(1.0,0,0,1.0,2048,0.0)">			<g stroke="white" stroke-width="4" transform="scale(4, 4)"> <rect x="1" y="1" width="255" height="255" fill="white" stroke-width="0"/></g>
</g>
		<g id="id1:id3:id3" transform="matrix(1.0,0,0,1.0,3072,0.0)">			<g stroke="white" stroke-width="4" transform="scale(4, 4)"> <rect x="1" y="1" width="255" height="255" fill="white" stroke-width="0"/></g>
</g>
		<g id="id1:id4:id4" transform="matrix(1.0,0,0,1.0,4096,0.0)">			<g stroke="white" stroke-width="4" transform="scale(4, 4)"> <rect x="1" y="1" width="255" height="255" fill="white" stroke-width="0"/></g>
</g>
</g>
</svg>
