<?xml version="1.0" standalone="no"?>
<!DOCTYPE svg PUBLIC "-//W3C//DTD SVG 1.1//EN"
 "http://www.w3.org/Graphics/SVG/1.1/DTD/svg11.dtd">
<!-- generate by Japanese dictionary app com.asnsami.kanjidictionary -->

<svg xmlns="http://www.w3.org/2000/svg" xmlns:sodipodi="http://sodipodi.sourceforge.net/DTD/sodipodi-0.dtd" version="1.1" width="640" height="256" viewBox="0 0 5120 2048">
	<g id="id0:id0" transform="translate(0.0,0)">
		<g id="id0:id0:id0" transform="matrix(1.0,0,0,1.0,0,0.0)">			<g stroke="lightgray" stroke-width="4" transform="scale(4, 4)"> <rect x="0" y="0" width="256" height="256" fill="white" stroke-width="4"/></g>
			<g transform="scale(0.92, -0.92) translate(60, -920)">					<path d="M 375 746 Q 394 728 415 707 Q 428 694 445 695 Q 455 695 461 709 Q 465 724 456 753 Q 450 769 425 780 Q 361 801 348 795 Q 344 791 344 778 Q 348 768 375 746 Z" fill="red"></path>
				<path d="M 587 794 Q 572 766 518 687 Q 508 669 526 674 Q 571 702 595 722 Q 652 771 674 781 Q 696 793 683 810 Q 668 826 641 839 Q 616 852 603 848 Q 590 845 596 832 Q 600 813 587 794 Z" fill="lightgray"></path>
				<path d="M 505 601 Q 572 614 647 625 Q 711 638 722 646 Q 729 653 726 661 Q 720 673 694 680 Q 667 687 568 657 Q 390 620 290 613 Q 256 609 279 593 Q 318 568 368 579 Q 414 586 461 594 L 505 601 Z" fill="lightgray"></path>
				<path d="M 524 482 Q 651 510 654 512 Q 661 519 658 526 Q 652 536 628 543 Q 601 549 527 523 L 472 510 Q 418 500 356 496 Q 325 492 347 476 Q 380 458 461 471 Q 467 472 473 473 L 524 482 Z" fill="lightgray"></path>
				<path d="M 519 403 Q 520 446 524 482 L 527 523 Q 528 530 529 536 Q 535 572 529 579 Q 517 592 505 601 C 481 620 450 622 461 594 Q 468 584 472 510 L 473 473 Q 473 442 474 397 C 475 367 518 373 519 403 Z" fill="lightgray"></path>
				<path d="M 469 359 Q 604 380 782 394 Q 792 391 803 405 Q 804 417 782 429 Q 743 453 674 434 Q 530 407 519 403 L 474 397 Q 437 394 214 374 Q 184 371 206 352 Q 239 322 269 329 Q 342 342 429 354 L 469 359 Z" fill="lightgray"></path>
				<path d="M 508 230 Q 572 239 739 239 Q 758 240 764 248 Q 768 260 752 274 Q 692 317 646 299 Q 591 289 511 274 L 445 264 Q 360 252 264 238 Q 243 237 259 219 Q 286 194 343 204 Q 388 216 440 222 L 508 230 Z" fill="lightgray"></path>
				<path d="M 511 274 Q 512 277 513 280 Q 517 302 523 313 Q 530 320 524 331 Q 517 340 469 359 C 441 370 421 379 429 354 Q 429 351 441 320 Q 444 313 445 264 L 440 222 Q 413 102 312 34 Q 270 9 190 -25 Q 162 -37 194 -40 Q 272 -43 376 18 Q 397 33 416 54 Q 470 112 495 205 L 511 274 Z" fill="lightgray"></path>
				<path d="M 495 205 Q 589 90 708 -32 Q 730 -51 763 -48 Q 878 -35 913 -24 Q 923 -20 924 -15 Q 924 -9 909 -2 Q 759 43 701 80 Q 613 141 508 230 C 485 249 473 232 495 205 Z" fill="lightgray"></path>
</g>
		<text x="40" y="140" font-size="128" fill="#999999">1</text></g>
		<g id="id0:id1:id1" transform="matrix(1.0,0,0,1.0,1024,0.0)">			<g stroke="lightgray" stroke-width="4" transform="scale(4, 4)"> <rect x="0" y="0" width="256" height="256" fill="white" stroke-width="4"/></g>
			<g transform="scale(0.92, -0.92) translate(60, -920)">					<path d="M 375 746 Q 394 728 415 707 Q 428 694 445 695 Q 455 695 461 709 Q 465 724 456 753 Q 450 769 425 780 Q 361 801 348 795 Q 344 791 344 778 Q 348 768 375 746 Z" fill="black"></path>
				<path d="M 587 794 Q 572 766 518 687 Q 508 669 526 674 Q 571 702 595 722 Q 652 771 674 781 Q 696 793 683 810 Q 668 826 641 839 Q 616 852 603 848 Q 590 845 596 832 Q 600 813 587 794 Z" fill="red"></path>
				<path d="M 505 601 Q 572 614 647 625 Q 711 638 722 646 Q 729 653 726 661 Q 720 673 694 680 Q 667 687 568 657 Q 390 620 290 613 Q 256 609 279 593 Q 318 568 368 579 Q 414 586 461 594 L 505 601 Z" fill="lightgray"></path>
				<path d="M 524 482 Q 651 510 654 512 Q 661 519 658 526 Q 652 536 628 543 Q 601 549 527 523 L 472 510 Q 418 500 356 496 Q 325 492 347 476 Q 380 458 461 471 Q 467 472 473 473 L 524 482 Z" fill="lightgray"></path>
				<path d="M 519 403 Q 520 446 524 482 L 527 523 Q 528 530 529 536 Q 535 572 529 579 Q 517 592 505 601 C 481 620 450 622 461 594 Q 468 584 472 510 L 473 473 Q 473 442 474 397 C 475 367 518 373 519 403 Z" fill="lightgray"></path>
				<path d="M 469 359 Q 604 380 782 394 Q 792 391 803 405 Q 804 417 782 429 Q 743 453 674 434 Q 530 407 519 403 L 474 397 Q 437 394 214 374 Q 184 371 206 352 Q 239 322 269 329 Q 342 342 429 354 L 469 359 Z" fill="lightgray"></path>
				<path d="M 508 230 Q 572 239 739 239 Q 758 240 764 248 Q 768 260 752 274 Q 692 317 646 299 Q 591 289 511 274 L 445 264 Q 360 252 264 238 Q 243 237 259 219 Q 286 194 343 204 Q 388 216 440 222 L 508 230 Z" fill="lightgray"></path>
				<path d="M 511 274 Q 512 277 513 280 Q 517 302 523 313 Q 530 320 524 331 Q 517 340 469 359 C 441 370 421 379 429 354 Q 429 351 441 320 Q 444 313 445 264 L 440 222 Q 413 102 312 34 Q 270 9 190 -25 Q 162 -37 194 -40 Q 272 -43 376 18 Q 397 33 416 54 Q 470 112 495 205 L 511 274 Z" fill="lightgray"></path>
				<path d="M 495 205 Q 589 90 708 -32 Q 730 -51 763 -48 Q 878 -35 913 -24 Q 923 -20 924 -15 Q 924 -9 909 -2 Q 759 43 701 80 Q 613 141 508 230 C 485 249 473 232 495 205 Z" fill="lightgray"></path>
</g>
		<text x="40" y="140" font-size="128" fill="#999999">2</text></g>
		<g id="id0:id2:id2" transform="matrix(1.0,0,0,1.0,2048,0.0)">			<g stroke="lightgray" stroke-width="4" transform="scale(4, 4)"> <rect x="0" y="0" width="256" height="256" fill="white" stroke-width="4"/></g>
			<g transform="scale(0.92, -0.92) translate(60, -920)">					<path d="M 375 746 Q 394 728 415 707 Q 428 694 445 695 Q 455 695 461 709 Q 465 724 456 753 Q 450 769 425 780 Q 361 801 348 795 Q 344 791 344 778 Q 348 768 375 746 Z" fill="black"></path>
				<path d="M 587 794 Q 572 766 518 687 Q 508 669 526 674 Q 571 702 595 722 Q 652 771 674 781 Q 696 793 683 810 Q 668 826 641 839 Q 616 852 603 848 Q 590 845 596 832 Q 600 813 587 794 Z" fill="black"></path>
				<path d="M 505 601 Q 572 614 647 625 Q 711 638 722 646 Q 729 653 726 661 Q 720 673 694 680 Q 667 687 568 657 Q 390 620 290 613 Q 256 609 279 593 Q 318 568 368 579 Q 414 586 461 594 L 505 601 Z" fill="red"></path>
				<path d="M 524 482 Q 651 510 654 512 Q 661 519 658 526 Q 652 536 628 543 Q 601 549 527 523 L 472 510 Q 418 500 356 496 Q 325 492 347 476 Q 380 458 461 471 Q 467 472 473 473 L 524 482 Z" fill="lightgray"></path>
				<path d="M 519 403 Q 520 446 524 482 L 527 523 Q 528 530 529 536 Q 535 572 529 579 Q 517 592 505 601 C 481 620 450 622 461 594 Q 468 584 472 510 L 473 473 Q 473 442 474 397 C 475 367 518 373 519 403 Z" fill="lightgray"></path>
				<path d="M 469 359 Q 604 380 782 394 Q 792 391 803 405 Q 804 417 782 429 Q 743 453 674 434 Q 530 407 519 403 L 474 397 Q 437 394 214 374 Q 184 371 206 352 Q 239 322 269 329 Q 342 342 429 354 L 469 359 Z" fill="lightgray"></path>
				<path d="M 508 230 Q 572 239 739 239 Q 758 240 764 248 Q 768 260 752 274 Q 692 317 646 299 Q 591 289 511 274 L 445 264 Q 360 252 264 238 Q 243 237 259 219 Q 286 194 343 204 Q 388 216 440 222 L 508 230 Z" fill="lightgray"></path>
				<path d="M 511 274 Q 512 277 513 280 Q 517 302 523 313 Q 530 320 524 331 Q 517 340 469 359 C 441 370 421 379 429 354 Q 429 351 441 320 Q 444 313 445 264 L 440 222 Q 413 102 312 34 Q 270 9 190 -25 Q 162 -37 194 -40 Q 272 -43 376 18 Q 397 33 416 54 Q 470 112 495 205 L 511 274 Z" fill="lightgray"></path>
				<path d="M 495 205 Q 589 90 708 -32 Q 730 -51 763 -48 Q 878 -35 913 -24 Q 923 -20 924 -15 Q 924 -9 909 -2 Q 759 43 701 80 Q 613 141 508 230 C 485 249 473 232 495 205 Z" fill="lightgray"></path>
</g>
		<text x="40" y="140" font-size="128" fill="#999999">3</text></g>
		<g id="id0:id3:id3" transform="matrix(1.0,0,0,1.0,3072,0.0)">			<g stroke="lightgray" stroke-width="4" transform="scale(4, 4)"> <rect x="0" y="0" width="256" height="256" fill="white" stroke-width="4"/></g>
			<g transform="scale(0.92, -0.92) translate(60, -920)">					<path d="M 375 746 Q 394 728 415 707 Q 428 694 445 695 Q 455 695 461 709 Q 465 724 456 753 Q 450 769 425 780 Q 361 801 348 795 Q 344 791 344 778 Q 348 768 375 746 Z" fill="black"></path>
				<path d="M 587 794 Q 572 766 518 687 Q 508 669 526 674 Q 571 702 595 722 Q 652 771 674 781 Q 696 793 683 810 Q 668 826 641 839 Q 616 852 603 848 Q 590 845 596 832 Q 600 813 587 794 Z" fill="black"></path>
				<path d="M 505 601 Q 572 614 647 625 Q 711 638 722 646 Q 729 653 726 661 Q 720 673 694 680 Q 667 687 568 657 Q 390 620 290 613 Q 256 609 279 593 Q 318 568 368 579 Q 414 586 461 594 L 505 601 Z" fill="black"></path>
				<path d="M 524 482 Q 651 510 654 512 Q 661 519 658 526 Q 652 536 628 543 Q 601 549 527 523 L 472 510 Q 418 500 356 496 Q 325 492 347 476 Q 380 458 461 471 Q 467 472 473 473 L 524 482 Z" fill="red"></path>
				<path d="M 519 403 Q 520 446 524 482 L 527 523 Q 528 530 529 536 Q 535 572 529 579 Q 517 592 505 601 C 481 620 450 622 461 594 Q 468 584 472 510 L 473 473 Q 473 442 474 397 C 475 367 518 373 519 403 Z" fill="lightgray"></path>
				<path d="M 469 359 Q 604 380 782 394 Q 792 391 803 405 Q 804 417 782 429 Q 743 453 674 434 Q 530 407 519 403 L 474 397 Q 437 394 214 374 Q 184 371 206 352 Q 239 322 269 329 Q 342 342 429 354 L 469 359 Z" fill="lightgray"></path>
				<path d="M 508 230 Q 572 239 739 239 Q 758 240 764 248 Q 768 260 752 274 Q 692 317 646 299 Q 591 289 511 274 L 445 264 Q 360 252 264 238 Q 243 237 259 219 Q 286 194 343 204 Q 388 216 440 222 L 508 230 Z" fill="lightgray"></path>
				<path d="M 511 274 Q 512 277 513 280 Q 517 302 523 313 Q 530 320 524 331 Q 517 340 469 359 C 441 370 421 379 429 354 Q 429 351 441 320 Q 444 313 445 264 L 440 222 Q 413 102 312 34 Q 270 9 190 -25 Q 162 -37 194 -40 Q 272 -43 376 18 Q 397 33 416 54 Q 470 112 495 205 L 511 274 Z" fill="lightgray"></path>
				<path d="M 495 205 Q 589 90 708 -32 Q 730 -51 763 -48 Q 878 -35 913 -24 Q 923 -20 924 -15 Q 924 -9 909 -2 Q 759 43 701 80 Q 613 141 508 230 C 485 249 473 232 495 205 Z" fill="lightgray"></path>
</g>
		<text x="40" y="140" font-size="128" fill="#999999">4</text></g>
		<g id="id0:id4:id4" transform="matrix(1.0,0,0,1.0,4096,0.0)">			<g stroke="lightgray" stroke-width="4" transform="scale(4, 4)"> <rect x="0" y="0" width="256" height="256" fill="white" stroke-width="4"/></g>
			<g transform="scale(0.92, -0.92) translate(60, -920)">					<path d="M 375 746 Q 394 728 415 707 Q 428 694 445 695 Q 455 695 461 709 Q 465 724 456 753 Q 450 769 425 780 Q 361 801 348 795 Q 344 791 344 778 Q 348 768 375 746 Z" fill="black"></path>
				<path d="M 587 794 Q 572 766 518 687 Q 508 669 526 674 Q 571 702 595 722 Q 652 771 674 781 Q 696 793 683 810 Q 668 826 641 839 Q 616 852 603 848 Q 590 845 596 832 Q 600 813 587 794 Z" fill="black"></path>
				<path d="M 505 601 Q 572 614 647 625 Q 711 638 722 646 Q 729 653 726 661 Q 720 673 694 680 Q 667 687 568 657 Q 390 620 290 613 Q 256 609 279 593 Q 318 568 368 579 Q 414 586 461 594 L 505 601 Z" fill="black"></path>
				<path d="M 524 482 Q 651 510 654 512 Q 661 519 658 526 Q 652 536 628 543 Q 601 549 527 523 L 472 510 Q 418 500 356 496 Q 325 492 347 476 Q 380 458 461 471 Q 467 472 473 473 L 524 482 Z" fill="black"></path>
				<path d="M 519 403 Q 520 446 524 482 L 527 523 Q 528 530 529 536 Q 535 572 529 579 Q 517 592 505 601 C 481 620 450 622 461 594 Q 468 584 472 510 L 473 473 Q 473 442 474 397 C 475 367 518 373 519 403 Z" fill="red"></path>
				<path d="M 469 359 Q 604 380 782 394 Q 792 391 803 405 Q 804 417 782 429 Q 743 453 674 434 Q 530 407 519 403 L 474 397 Q 437 394 214 374 Q 184 371 206 352 Q 239 322 269 329 Q 342 342 429 354 L 469 359 Z" fill="lightgray"></path>
				<path d="M 508 230 Q 572 239 739 239 Q 758 240 764 248 Q 768 260 752 274 Q 692 317 646 299 Q 591 289 511 274 L 445 264 Q 360 252 264 238 Q 243 237 259 219 Q 286 194 343 204 Q 388 216 440 222 L 508 230 Z" fill="lightgray"></path>
				<path d="M 511 274 Q 512 277 513 280 Q 517 302 523 313 Q 530 320 524 331 Q 517 340 469 359 C 441 370 421 379 429 354 Q 429 351 441 320 Q 444 313 445 264 L 440 222 Q 413 102 312 34 Q 270 9 190 -25 Q 162 -37 194 -40 Q 272 -43 376 18 Q 397 33 416 54 Q 470 112 495 205 L 511 274 Z" fill="lightgray"></path>
				<path d="M 495 205 Q 589 90 708 -32 Q 730 -51 763 -48 Q 878 -35 913 -24 Q 923 -20 924 -15 Q 924 -9 909 -2 Q 759 43 701 80 Q 613 141 508 230 C 485 249 473 232 495 205 Z" fill="lightgray"></path>
</g>
		<text x="40" y="140" font-size="128" fill="#999999">5</text></g>
</g>
	<g id="id1:id1" transform="translate(0.0,1024)">
		<g id="id1:id0:id0" transform="matrix(1.0,0,0,1.0,0,0.0)">			<g stroke="lightgray" stroke-width="4" transform="scale(4, 4)"> <rect x="0" y="0" width="256" height="256" fill="white" stroke-width="4"/></g>
			<g transform="scale(0.92, -0.92) translate(60, -920)">					<path d="M 375 746 Q 394 728 415 707 Q 428 694 445 695 Q 455 695 461 709 Q 465 724 456 753 Q 450 769 425 780 Q 361 801 348 795 Q 344 791 344 778 Q 348 768 375 746 Z" fill="black"></path>
				<path d="M 587 794 Q 572 766 518 687 Q 508 669 526 674 Q 571 702 595 722 Q 652 771 674 781 Q 696 793 683 810 Q 668 826 641 839 Q 616 852 603 848 Q 590 845 596 832 Q 600 813 587 794 Z" fill="black"></path>
				<path d="M 505 601 Q 572 614 647 625 Q 711 638 722 646 Q 729 653 726 661 Q 720 673 694 680 Q 667 687 568 657 Q 390 620 290 613 Q 256 609 279 593 Q 318 568 368 579 Q 414 586 461 594 L 505 601 Z" fill="black"></path>
				<path d="M 524 482 Q 651 510 654 512 Q 661 519 658 526 Q 652 536 628 543 Q 601 549 527 523 L 472 510 Q 418 500 356 496 Q 325 492 347 476 Q 380 458 461 471 Q 467 472 473 473 L 524 482 Z" fill="black"></path>
				<path d="M 519 403 Q 520 446 524 482 L 527 523 Q 528 530 529 536 Q 535 572 529 579 Q 517 592 505 601 C 481 620 450 622 461 594 Q 468 584 472 510 L 473 473 Q 473 442 474 397 C 475 367 518 373 519 403 Z" fill="black"></path>
				<path d="M 469 359 Q 604 380 782 394 Q 792 391 803 405 Q 804 417 782 429 Q 743 453 674 434 Q 530 407 519 403 L 474 397 Q 437 394 214 374 Q 184 371 206 352 Q 239 322 269 329 Q 342 342 429 354 L 469 359 Z" fill="red"></path>
				<path d="M 508 230 Q 572 239 739 239 Q 758 240 764 248 Q 768 260 752 274 Q 692 317 646 299 Q 591 289 511 274 L 445 264 Q 360 252 264 238 Q 243 237 259 219 Q 286 194 343 204 Q 388 216 440 222 L 508 230 Z" fill="lightgray"></path>
				<path d="M 511 274 Q 512 277 513 280 Q 517 302 523 313 Q 530 320 524 331 Q 517 340 469 359 C 441 370 421 379 429 354 Q 429 351 441 320 Q 444 313 445 264 L 440 222 Q 413 102 312 34 Q 270 9 190 -25 Q 162 -37 194 -40 Q 272 -43 376 18 Q 397 33 416 54 Q 470 112 495 205 L 511 274 Z" fill="lightgray"></path>
				<path d="M 495 205 Q 589 90 708 -32 Q 730 -51 763 -48 Q 878 -35 913 -24 Q 923 -20 924 -15 Q 924 -9 909 -2 Q 759 43 701 80 Q 613 141 508 230 C 485 249 473 232 495 205 Z" fill="lightgray"></path>
</g>
		<text x="40" y="140" font-size="128" fill="#999999">6</text></g>
		<g id="id1:id1:id1" transform="matrix(1.0,0,0,1.0,1024,0.0)">			<g stroke="lightgray" stroke-width="4" transform="scale(4, 4)"> <rect x="0" y="0" width="256" height="256" fill="white" stroke-width="4"/></g>
			<g transform="scale(0.92, -0.92) translate(60, -920)">					<path d="M 375 746 Q 394 728 415 707 Q 428 694 445 695 Q 455 695 461 709 Q 465 724 456 753 Q 450 769 425 780 Q 361 801 348 795 Q 344 791 344 778 Q 348 768 375 746 Z" fill="black"></path>
				<path d="M 587 794 Q 572 766 518 687 Q 508 669 526 674 Q 571 702 595 722 Q 652 771 674 781 Q 696 793 683 810 Q 668 826 641 839 Q 616 852 603 848 Q 590 845 596 832 Q 600 813 587 794 Z" fill="black"></path>
				<path d="M 505 601 Q 572 614 647 625 Q 711 638 722 646 Q 729 653 726 661 Q 720 673 694 680 Q 667 687 568 657 Q 390 620 290 613 Q 256 609 279 593 Q 318 568 368 579 Q 414 586 461 594 L 505 601 Z" fill="black"></path>
				<path d="M 524 482 Q 651 510 654 512 Q 661 519 658 526 Q 652 536 628 543 Q 601 549 527 523 L 472 510 Q 418 500 356 496 Q 325 492 347 476 Q 380 458 461 471 Q 467 472 473 473 L 524 482 Z" fill="black"></path>
				<path d="M 519 403 Q 520 446 524 482 L 527 523 Q 528 530 529 536 Q 535 572 529 579 Q 517 592 505 601 C 481 620 450 622 461 594 Q 468 584 472 510 L 473 473 Q 473 442 474 397 C 475 367 518 373 519 403 Z" fill="black"></path>
				<path d="M 469 359 Q 604 380 782 394 Q 792 391 803 405 Q 804 417 782 429 Q 743 453 674 434 Q 530 407 519 403 L 474 397 Q 437 394 214 374 Q 184 371 206 352 Q 239 322 269 329 Q 342 342 429 354 L 469 359 Z" fill="black"></path>
				<path d="M 508 230 Q 572 239 739 239 Q 758 240 764 248 Q 768 260 752 274 Q 692 317 646 299 Q 591 289 511 274 L 445 264 Q 360 252 264 238 Q 243 237 259 219 Q 286 194 343 204 Q 388 216 440 222 L 508 230 Z" fill="red"></path>
				<path d="M 511 274 Q 512 277 513 280 Q 517 302 523 313 Q 530 320 524 331 Q 517 340 469 359 C 441 370 421 379 429 354 Q 429 351 441 320 Q 444 313 445 264 L 440 222 Q 413 102 312 34 Q 270 9 190 -25 Q 162 -37 194 -40 Q 272 -43 376 18 Q 397 33 416 54 Q 470 112 495 205 L 511 274 Z" fill="lightgray"></path>
				<path d="M 495 205 Q 589 90 708 -32 Q 730 -51 763 -48 Q 878 -35 913 -24 Q 923 -20 924 -15 Q 924 -9 909 -2 Q 759 43 701 80 Q 613 141 508 230 C 485 249 473 232 495 205 Z" fill="lightgray"></path>
</g>
		<text x="40" y="140" font-size="128" fill="#999999">7</text></g>
		<g id="id1:id2:id2" transform="matrix(1.0,0,0,1.0,2048,0.0)">			<g stroke="lightgray" stroke-width="4" transform="scale(4, 4)"> <rect x="0" y="0" width="256" height="256" fill="white" stroke-width="4"/></g>
			<g transform="scale(0.92, -0.92) translate(60, -920)">					<path d="M 375 746 Q 394 728 415 707 Q 428 694 445 695 Q 455 695 461 709 Q 465 724 456 753 Q 450 769 425 780 Q 361 801 348 795 Q 344 791 344 778 Q 348 768 375 746 Z" fill="black"></path>
				<path d="M 587 794 Q 572 766 518 687 Q 508 669 526 674 Q 571 702 595 722 Q 652 771 674 781 Q 696 793 683 810 Q 668 826 641 839 Q 616 852 603 848 Q 590 845 596 832 Q 600 813 587 794 Z" fill="black"></path>
				<path d="M 505 601 Q 572 614 647 625 Q 711 638 722 646 Q 729 653 726 661 Q 720 673 694 680 Q 667 687 568 657 Q 390 620 290 613 Q 256 609 279 593 Q 318 568 368 579 Q 414 586 461 594 L 505 601 Z" fill="black"></path>
				<path d="M 524 482 Q 651 510 654 512 Q 661 519 658 526 Q 652 536 628 543 Q 601 549 527 523 L 472 510 Q 418 500 356 496 Q 325 492 347 476 Q 380 458 461 471 Q 467 472 473 473 L 524 482 Z" fill="black"></path>
				<path d="M 519 403 Q 520 446 524 482 L 527 523 Q 528 530 529 536 Q 535 572 529 579 Q 517 592 505 601 C 481 620 450 622 461 594 Q 468 584 472 510 L 473 473 Q 473 442 474 397 C 475 367 518 373 519 403 Z" fill="black"></path>
				<path d="M 469 359 Q 604 380 782 394 Q 792 391 803 405 Q 804 417 782 429 Q 743 453 674 434 Q 530 407 519 403 L 474 397 Q 437 394 214 374 Q 184 371 206 352 Q 239 322 269 329 Q 342 342 429 354 L 469 359 Z" fill="black"></path>
				<path d="M 508 230 Q 572 239 739 239 Q 758 240 764 248 Q 768 260 752 274 Q 692 317 646 299 Q 591 289 511 274 L 445 264 Q 360 252 264 238 Q 243 237 259 219 Q 286 194 343 204 Q 388 216 440 222 L 508 230 Z" fill="black"></path>
				<path d="M 511 274 Q 512 277 513 280 Q 517 302 523 313 Q 530 320 524 331 Q 517 340 469 359 C 441 370 421 379 429 354 Q 429 351 441 320 Q 444 313 445 264 L 440 222 Q 413 102 312 34 Q 270 9 190 -25 Q 162 -37 194 -40 Q 272 -43 376 18 Q 397 33 416 54 Q 470 112 495 205 L 511 274 Z" fill="red"></path>
				<path d="M 495 205 Q 589 90 708 -32 Q 730 -51 763 -48 Q 878 -35 913 -24 Q 923 -20 924 -15 Q 924 -9 909 -2 Q 759 43 701 80 Q 613 141 508 230 C 485 249 473 232 495 205 Z" fill="lightgray"></path>
</g>
		<text x="40" y="140" font-size="128" fill="#999999">8</text></g>
		<g id="id1:id3:id3" transform="matrix(1.0,0,0,1.0,3072,0.0)">			<g stroke="lightgray" stroke-width="4" transform="scale(4, 4)"> <rect x="0" y="0" width="256" height="256" fill="white" stroke-width="4"/></g>
			<g transform="scale(0.92, -0.92) translate(60, -920)">					<path d="M 375 746 Q 394 728 415 707 Q 428 694 445 695 Q 455 695 461 709 Q 465 724 456 753 Q 450 769 425 780 Q 361 801 348 795 Q 344 791 344 778 Q 348 768 375 746 Z" fill="black"></path>
				<path d="M 587 794 Q 572 766 518 687 Q 508 669 526 674 Q 571 702 595 722 Q 652 771 674 781 Q 696 793 683 810 Q 668 826 641 839 Q 616 852 603 848 Q 590 845 596 832 Q 600 813 587 794 Z" fill="black"></path>
				<path d="M 505 601 Q 572 614 647 625 Q 711 638 722 646 Q 729 653 726 661 Q 720 673 694 680 Q 667 687 568 657 Q 390 620 290 613 Q 256 609 279 593 Q 318 568 368 579 Q 414 586 461 594 L 505 601 Z" fill="black"></path>
				<path d="M 524 482 Q 651 510 654 512 Q 661 519 658 526 Q 652 536 628 543 Q 601 549 527 523 L 472 510 Q 418 500 356 496 Q 325 492 347 476 Q 380 458 461 471 Q 467 472 473 473 L 524 482 Z" fill="black"></path>
				<path d="M 519 403 Q 520 446 524 482 L 527 523 Q 528 530 529 536 Q 535 572 529 579 Q 517 592 505 601 C 481 620 450 622 461 594 Q 468 584 472 510 L 473 473 Q 473 442 474 397 C 475 367 518 373 519 403 Z" fill="black"></path>
				<path d="M 469 359 Q 604 380 782 394 Q 792 391 803 405 Q 804 417 782 429 Q 743 453 674 434 Q 530 407 519 403 L 474 397 Q 437 394 214 374 Q 184 371 206 352 Q 239 322 269 329 Q 342 342 429 354 L 469 359 Z" fill="black"></path>
				<path d="M 508 230 Q 572 239 739 239 Q 758 240 764 248 Q 768 260 752 274 Q 692 317 646 299 Q 591 289 511 274 L 445 264 Q 360 252 264 238 Q 243 237 259 219 Q 286 194 343 204 Q 388 216 440 222 L 508 230 Z" fill="black"></path>
				<path d="M 511 274 Q 512 277 513 280 Q 517 302 523 313 Q 530 320 524 331 Q 517 340 469 359 C 441 370 421 379 429 354 Q 429 351 441 320 Q 444 313 445 264 L 440 222 Q 413 102 312 34 Q 270 9 190 -25 Q 162 -37 194 -40 Q 272 -43 376 18 Q 397 33 416 54 Q 470 112 495 205 L 511 274 Z" fill="black"></path>
				<path d="M 495 205 Q 589 90 708 -32 Q 730 -51 763 -48 Q 878 -35 913 -24 Q 923 -20 924 -15 Q 924 -9 909 -2 Q 759 43 701 80 Q 613 141 508 230 C 485 249 473 232 495 205 Z" fill="red"></path>
</g>
		<text x="40" y="140" font-size="128" fill="#999999">9</text></g>
		<g id="id1:id4:id4" transform="matrix(1.0,0,0,1.0,4096,0.0)">			<g stroke="white" stroke-width="4" transform="scale(4, 4)"> <rect x="1" y="1" width="255" height="255" fill="white" stroke-width="0"/></g>
</g>
</g>
</svg>
