<?xml version="1.0" standalone="no"?>
<!DOCTYPE svg PUBLIC "-//W3C//DTD SVG 1.1//EN"
 "http://www.w3.org/Graphics/SVG/1.1/DTD/svg11.dtd">
<!-- generate by Handict dictionary app com.asnsami.handict -->

<svg xmlns="http://www.w3.org/2000/svg" xmlns:sodipodi="http://sodipodi.sourceforge.net/DTD/sodipodi-0.dtd" version="1.1" width="640" height="256" viewBox="0 0 5120 2048">
	<g id="id0:id0" transform="translate(0.0,0)">
		<g id="id0:id0:id0" transform="matrix(1.0,0,0,1.0,0,0.0)">			<g stroke="lightgray" stroke-width="4" transform="scale(4, 4)"> <rect x="0" y="0" width="256" height="256" fill="white" stroke-width="4"/></g>
			<g transform="scale(0.92, -0.92) translate(60, -920)">					<path d="M 526 615 Q 643 639 650 643 Q 660 650 655 660 Q 648 672 618 680 Q 588 686 529 667 L 473 652 Q 376 637 335 633 Q 298 629 324 610 Q 360 589 439 600 Q 455 603 475 606 L 526 615 Z" fill="red"></path>
				<path d="M 518 490 Q 522 554 526 615 L 529 667 Q 530 736 549 805 Q 552 815 531 831 Q 494 850 469 855 Q 453 858 444 849 Q 437 842 445 826 Q 467 796 467 776 Q 471 716 473 652 L 475 606 Q 475 548 474 484 C 474 454 516 460 518 490 Z" fill="lightgray"></path>
				<path d="M 610 466 Q 694 472 920 472 Q 942 472 947 481 Q 953 494 935 509 Q 881 551 839 542 Q 761 529 649 509 L 580 498 Q 549 497 518 490 L 474 484 Q 308 465 118 444 Q 96 441 112 423 Q 127 408 146 402 Q 168 396 186 401 Q 339 443 547 461 L 610 466 Z" fill="lightgray"></path>
				<path d="M 476 333 Q 549 403 610 466 L 649 509 Q 725 609 778 657 Q 788 669 783 687 Q 759 750 723 759 Q 704 762 706 738 Q 706 692 694 665 Q 637 563 580 498 L 547 461 Q 492 403 412 333 L 382 308 Q 249 199 87 98 Q 78 94 77 86 Q 76 80 82 79 Q 104 79 213 136 Q 294 181 390 258 L 476 333 Z" fill="lightgray"></path>
				<path d="M 412 333 Q 402 340 387 345 Q 378 346 373 339 Q 370 333 377 324 Q 380 317 382 308 L 390 258 Q 394 137 378 73 Q 363 24 394 -9 Q 404 -21 413 -8 Q 423 4 428 29 L 433 64 Q 436 94 436 162 L 437 191 Q 438 269 442 293 L 412 333 Z" fill="lightgray"></path>
				<path d="M 586 41 Q 616 4 637 -32 Q 646 -50 657 -49 Q 672 -48 687 -16 Q 703 21 700 65 Q 676 279 700 312 Q 709 324 700 333 Q 682 352 633 373 Q 617 382 602 373 Q 559 352 476 333 C 406 316 412 289 442 293 Q 458 294 483 301 Q 609 331 621 322 Q 633 310 634 94 Q 633 78 632 67 Q 629 58 622 55 C 605 30 572 59 586 41 Z" fill="lightgray"></path>
				<path d="M 436 162 Q 439 162 444 162 Q 523 172 581 178 Q 606 182 597 196 Q 587 212 559 217 Q 523 221 437 191 C 409 181 406 162 436 162 Z" fill="lightgray"></path>
				<path d="M 428 29 Q 432 29 439 30 Q 487 39 586 41 C 616 42 630 42 622 55 Q 619 64 594 81 Q 578 91 547 84 Q 484 71 433 64 C 403 60 398 27 428 29 Z" fill="lightgray"></path>
</g>
		<text x="40" y="140" font-size="128" fill="#999999">1</text></g>
		<g id="id0:id1:id1" transform="matrix(1.0,0,0,1.0,1024,0.0)">			<g stroke="lightgray" stroke-width="4" transform="scale(4, 4)"> <rect x="0" y="0" width="256" height="256" fill="white" stroke-width="4"/></g>
			<g transform="scale(0.92, -0.92) translate(60, -920)">					<path d="M 526 615 Q 643 639 650 643 Q 660 650 655 660 Q 648 672 618 680 Q 588 686 529 667 L 473 652 Q 376 637 335 633 Q 298 629 324 610 Q 360 589 439 600 Q 455 603 475 606 L 526 615 Z" fill="black"></path>
				<path d="M 518 490 Q 522 554 526 615 L 529 667 Q 530 736 549 805 Q 552 815 531 831 Q 494 850 469 855 Q 453 858 444 849 Q 437 842 445 826 Q 467 796 467 776 Q 471 716 473 652 L 475 606 Q 475 548 474 484 C 474 454 516 460 518 490 Z" fill="red"></path>
				<path d="M 610 466 Q 694 472 920 472 Q 942 472 947 481 Q 953 494 935 509 Q 881 551 839 542 Q 761 529 649 509 L 580 498 Q 549 497 518 490 L 474 484 Q 308 465 118 444 Q 96 441 112 423 Q 127 408 146 402 Q 168 396 186 401 Q 339 443 547 461 L 610 466 Z" fill="lightgray"></path>
				<path d="M 476 333 Q 549 403 610 466 L 649 509 Q 725 609 778 657 Q 788 669 783 687 Q 759 750 723 759 Q 704 762 706 738 Q 706 692 694 665 Q 637 563 580 498 L 547 461 Q 492 403 412 333 L 382 308 Q 249 199 87 98 Q 78 94 77 86 Q 76 80 82 79 Q 104 79 213 136 Q 294 181 390 258 L 476 333 Z" fill="lightgray"></path>
				<path d="M 412 333 Q 402 340 387 345 Q 378 346 373 339 Q 370 333 377 324 Q 380 317 382 308 L 390 258 Q 394 137 378 73 Q 363 24 394 -9 Q 404 -21 413 -8 Q 423 4 428 29 L 433 64 Q 436 94 436 162 L 437 191 Q 438 269 442 293 L 412 333 Z" fill="lightgray"></path>
				<path d="M 586 41 Q 616 4 637 -32 Q 646 -50 657 -49 Q 672 -48 687 -16 Q 703 21 700 65 Q 676 279 700 312 Q 709 324 700 333 Q 682 352 633 373 Q 617 382 602 373 Q 559 352 476 333 C 406 316 412 289 442 293 Q 458 294 483 301 Q 609 331 621 322 Q 633 310 634 94 Q 633 78 632 67 Q 629 58 622 55 C 605 30 572 59 586 41 Z" fill="lightgray"></path>
				<path d="M 436 162 Q 439 162 444 162 Q 523 172 581 178 Q 606 182 597 196 Q 587 212 559 217 Q 523 221 437 191 C 409 181 406 162 436 162 Z" fill="lightgray"></path>
				<path d="M 428 29 Q 432 29 439 30 Q 487 39 586 41 C 616 42 630 42 622 55 Q 619 64 594 81 Q 578 91 547 84 Q 484 71 433 64 C 403 60 398 27 428 29 Z" fill="lightgray"></path>
</g>
		<text x="40" y="140" font-size="128" fill="#999999">2</text></g>
		<g id="id0:id2:id2" transform="matrix(1.0,0,0,1.0,2048,0.0)">			<g stroke="lightgray" stroke-width="4" transform="scale(4, 4)"> <rect x="0" y="0" width="256" height="256" fill="white" stroke-width="4"/></g>
			<g transform="scale(0.92, -0.92) translate(60, -920)">					<path d="M 526 615 Q 643 639 650 643 Q 660 650 655 660 Q 648 672 618 680 Q 588 686 529 667 L 473 652 Q 376 637 335 633 Q 298 629 324 610 Q 360 589 439 600 Q 455 603 475 606 L 526 615 Z" fill="black"></path>
				<path d="M 518 490 Q 522 554 526 615 L 529 667 Q 530 736 549 805 Q 552 815 531 831 Q 494 850 469 855 Q 453 858 444 849 Q 437 842 445 826 Q 467 796 467 776 Q 471 716 473 652 L 475 606 Q 475 548 474 484 C 474 454 516 460 518 490 Z" fill="black"></path>
				<path d="M 610 466 Q 694 472 920 472 Q 942 472 947 481 Q 953 494 935 509 Q 881 551 839 542 Q 761 529 649 509 L 580 498 Q 549 497 518 490 L 474 484 Q 308 465 118 444 Q 96 441 112 423 Q 127 408 146 402 Q 168 396 186 401 Q 339 443 547 461 L 610 466 Z" fill="red"></path>
				<path d="M 476 333 Q 549 403 610 466 L 649 509 Q 725 609 778 657 Q 788 669 783 687 Q 759 750 723 759 Q 704 762 706 738 Q 706 692 694 665 Q 637 563 580 498 L 547 461 Q 492 403 412 333 L 382 308 Q 249 199 87 98 Q 78 94 77 86 Q 76 80 82 79 Q 104 79 213 136 Q 294 181 390 258 L 476 333 Z" fill="lightgray"></path>
				<path d="M 412 333 Q 402 340 387 345 Q 378 346 373 339 Q 370 333 377 324 Q 380 317 382 308 L 390 258 Q 394 137 378 73 Q 363 24 394 -9 Q 404 -21 413 -8 Q 423 4 428 29 L 433 64 Q 436 94 436 162 L 437 191 Q 438 269 442 293 L 412 333 Z" fill="lightgray"></path>
				<path d="M 586 41 Q 616 4 637 -32 Q 646 -50 657 -49 Q 672 -48 687 -16 Q 703 21 700 65 Q 676 279 700 312 Q 709 324 700 333 Q 682 352 633 373 Q 617 382 602 373 Q 559 352 476 333 C 406 316 412 289 442 293 Q 458 294 483 301 Q 609 331 621 322 Q 633 310 634 94 Q 633 78 632 67 Q 629 58 622 55 C 605 30 572 59 586 41 Z" fill="lightgray"></path>
				<path d="M 436 162 Q 439 162 444 162 Q 523 172 581 178 Q 606 182 597 196 Q 587 212 559 217 Q 523 221 437 191 C 409 181 406 162 436 162 Z" fill="lightgray"></path>
				<path d="M 428 29 Q 432 29 439 30 Q 487 39 586 41 C 616 42 630 42 622 55 Q 619 64 594 81 Q 578 91 547 84 Q 484 71 433 64 C 403 60 398 27 428 29 Z" fill="lightgray"></path>
</g>
		<text x="40" y="140" font-size="128" fill="#999999">3</text></g>
		<g id="id0:id3:id3" transform="matrix(1.0,0,0,1.0,3072,0.0)">			<g stroke="lightgray" stroke-width="4" transform="scale(4, 4)"> <rect x="0" y="0" width="256" height="256" fill="white" stroke-width="4"/></g>
			<g transform="scale(0.92, -0.92) translate(60, -920)">					<path d="M 526 615 Q 643 639 650 643 Q 660 650 655 660 Q 648 672 618 680 Q 588 686 529 667 L 473 652 Q 376 637 335 633 Q 298 629 324 610 Q 360 589 439 600 Q 455 603 475 606 L 526 615 Z" fill="black"></path>
				<path d="M 518 490 Q 522 554 526 615 L 529 667 Q 530 736 549 805 Q 552 815 531 831 Q 494 850 469 855 Q 453 858 444 849 Q 437 842 445 826 Q 467 796 467 776 Q 471 716 473 652 L 475 606 Q 475 548 474 484 C 474 454 516 460 518 490 Z" fill="black"></path>
				<path d="M 610 466 Q 694 472 920 472 Q 942 472 947 481 Q 953 494 935 509 Q 881 551 839 542 Q 761 529 649 509 L 580 498 Q 549 497 518 490 L 474 484 Q 308 465 118 444 Q 96 441 112 423 Q 127 408 146 402 Q 168 396 186 401 Q 339 443 547 461 L 610 466 Z" fill="black"></path>
				<path d="M 476 333 Q 549 403 610 466 L 649 509 Q 725 609 778 657 Q 788 669 783 687 Q 759 750 723 759 Q 704 762 706 738 Q 706 692 694 665 Q 637 563 580 498 L 547 461 Q 492 403 412 333 L 382 308 Q 249 199 87 98 Q 78 94 77 86 Q 76 80 82 79 Q 104 79 213 136 Q 294 181 390 258 L 476 333 Z" fill="red"></path>
				<path d="M 412 333 Q 402 340 387 345 Q 378 346 373 339 Q 370 333 377 324 Q 380 317 382 308 L 390 258 Q 394 137 378 73 Q 363 24 394 -9 Q 404 -21 413 -8 Q 423 4 428 29 L 433 64 Q 436 94 436 162 L 437 191 Q 438 269 442 293 L 412 333 Z" fill="lightgray"></path>
				<path d="M 586 41 Q 616 4 637 -32 Q 646 -50 657 -49 Q 672 -48 687 -16 Q 703 21 700 65 Q 676 279 700 312 Q 709 324 700 333 Q 682 352 633 373 Q 617 382 602 373 Q 559 352 476 333 C 406 316 412 289 442 293 Q 458 294 483 301 Q 609 331 621 322 Q 633 310 634 94 Q 633 78 632 67 Q 629 58 622 55 C 605 30 572 59 586 41 Z" fill="lightgray"></path>
				<path d="M 436 162 Q 439 162 444 162 Q 523 172 581 178 Q 606 182 597 196 Q 587 212 559 217 Q 523 221 437 191 C 409 181 406 162 436 162 Z" fill="lightgray"></path>
				<path d="M 428 29 Q 432 29 439 30 Q 487 39 586 41 C 616 42 630 42 622 55 Q 619 64 594 81 Q 578 91 547 84 Q 484 71 433 64 C 403 60 398 27 428 29 Z" fill="lightgray"></path>
</g>
		<text x="40" y="140" font-size="128" fill="#999999">4</text></g>
		<g id="id0:id4:id4" transform="matrix(1.0,0,0,1.0,4096,0.0)">			<g stroke="lightgray" stroke-width="4" transform="scale(4, 4)"> <rect x="0" y="0" width="256" height="256" fill="white" stroke-width="4"/></g>
			<g transform="scale(0.92, -0.92) translate(60, -920)">					<path d="M 526 615 Q 643 639 650 643 Q 660 650 655 660 Q 648 672 618 680 Q 588 686 529 667 L 473 652 Q 376 637 335 633 Q 298 629 324 610 Q 360 589 439 600 Q 455 603 475 606 L 526 615 Z" fill="black"></path>
				<path d="M 518 490 Q 522 554 526 615 L 529 667 Q 530 736 549 805 Q 552 815 531 831 Q 494 850 469 855 Q 453 858 444 849 Q 437 842 445 826 Q 467 796 467 776 Q 471 716 473 652 L 475 606 Q 475 548 474 484 C 474 454 516 460 518 490 Z" fill="black"></path>
				<path d="M 610 466 Q 694 472 920 472 Q 942 472 947 481 Q 953 494 935 509 Q 881 551 839 542 Q 761 529 649 509 L 580 498 Q 549 497 518 490 L 474 484 Q 308 465 118 444 Q 96 441 112 423 Q 127 408 146 402 Q 168 396 186 401 Q 339 443 547 461 L 610 466 Z" fill="black"></path>
				<path d="M 476 333 Q 549 403 610 466 L 649 509 Q 725 609 778 657 Q 788 669 783 687 Q 759 750 723 759 Q 704 762 706 738 Q 706 692 694 665 Q 637 563 580 498 L 547 461 Q 492 403 412 333 L 382 308 Q 249 199 87 98 Q 78 94 77 86 Q 76 80 82 79 Q 104 79 213 136 Q 294 181 390 258 L 476 333 Z" fill="black"></path>
				<path d="M 412 333 Q 402 340 387 345 Q 378 346 373 339 Q 370 333 377 324 Q 380 317 382 308 L 390 258 Q 394 137 378 73 Q 363 24 394 -9 Q 404 -21 413 -8 Q 423 4 428 29 L 433 64 Q 436 94 436 162 L 437 191 Q 438 269 442 293 L 412 333 Z" fill="red"></path>
				<path d="M 586 41 Q 616 4 637 -32 Q 646 -50 657 -49 Q 672 -48 687 -16 Q 703 21 700 65 Q 676 279 700 312 Q 709 324 700 333 Q 682 352 633 373 Q 617 382 602 373 Q 559 352 476 333 C 406 316 412 289 442 293 Q 458 294 483 301 Q 609 331 621 322 Q 633 310 634 94 Q 633 78 632 67 Q 629 58 622 55 C 605 30 572 59 586 41 Z" fill="lightgray"></path>
				<path d="M 436 162 Q 439 162 444 162 Q 523 172 581 178 Q 606 182 597 196 Q 587 212 559 217 Q 523 221 437 191 C 409 181 406 162 436 162 Z" fill="lightgray"></path>
				<path d="M 428 29 Q 432 29 439 30 Q 487 39 586 41 C 616 42 630 42 622 55 Q 619 64 594 81 Q 578 91 547 84 Q 484 71 433 64 C 403 60 398 27 428 29 Z" fill="lightgray"></path>
</g>
		<text x="40" y="140" font-size="128" fill="#999999">5</text></g>
</g>
	<g id="id1:id1" transform="translate(0.0,1024)">
		<g id="id1:id0:id0" transform="matrix(1.0,0,0,1.0,0,0.0)">			<g stroke="lightgray" stroke-width="4" transform="scale(4, 4)"> <rect x="0" y="0" width="256" height="256" fill="white" stroke-width="4"/></g>
			<g transform="scale(0.92, -0.92) translate(60, -920)">					<path d="M 526 615 Q 643 639 650 643 Q 660 650 655 660 Q 648 672 618 680 Q 588 686 529 667 L 473 652 Q 376 637 335 633 Q 298 629 324 610 Q 360 589 439 600 Q 455 603 475 606 L 526 615 Z" fill="black"></path>
				<path d="M 518 490 Q 522 554 526 615 L 529 667 Q 530 736 549 805 Q 552 815 531 831 Q 494 850 469 855 Q 453 858 444 849 Q 437 842 445 826 Q 467 796 467 776 Q 471 716 473 652 L 475 606 Q 475 548 474 484 C 474 454 516 460 518 490 Z" fill="black"></path>
				<path d="M 610 466 Q 694 472 920 472 Q 942 472 947 481 Q 953 494 935 509 Q 881 551 839 542 Q 761 529 649 509 L 580 498 Q 549 497 518 490 L 474 484 Q 308 465 118 444 Q 96 441 112 423 Q 127 408 146 402 Q 168 396 186 401 Q 339 443 547 461 L 610 466 Z" fill="black"></path>
				<path d="M 476 333 Q 549 403 610 466 L 649 509 Q 725 609 778 657 Q 788 669 783 687 Q 759 750 723 759 Q 704 762 706 738 Q 706 692 694 665 Q 637 563 580 498 L 547 461 Q 492 403 412 333 L 382 308 Q 249 199 87 98 Q 78 94 77 86 Q 76 80 82 79 Q 104 79 213 136 Q 294 181 390 258 L 476 333 Z" fill="black"></path>
				<path d="M 412 333 Q 402 340 387 345 Q 378 346 373 339 Q 370 333 377 324 Q 380 317 382 308 L 390 258 Q 394 137 378 73 Q 363 24 394 -9 Q 404 -21 413 -8 Q 423 4 428 29 L 433 64 Q 436 94 436 162 L 437 191 Q 438 269 442 293 L 412 333 Z" fill="black"></path>
				<path d="M 586 41 Q 616 4 637 -32 Q 646 -50 657 -49 Q 672 -48 687 -16 Q 703 21 700 65 Q 676 279 700 312 Q 709 324 700 333 Q 682 352 633 373 Q 617 382 602 373 Q 559 352 476 333 C 406 316 412 289 442 293 Q 458 294 483 301 Q 609 331 621 322 Q 633 310 634 94 Q 633 78 632 67 Q 629 58 622 55 C 605 30 572 59 586 41 Z" fill="red"></path>
				<path d="M 436 162 Q 439 162 444 162 Q 523 172 581 178 Q 606 182 597 196 Q 587 212 559 217 Q 523 221 437 191 C 409 181 406 162 436 162 Z" fill="lightgray"></path>
				<path d="M 428 29 Q 432 29 439 30 Q 487 39 586 41 C 616 42 630 42 622 55 Q 619 64 594 81 Q 578 91 547 84 Q 484 71 433 64 C 403 60 398 27 428 29 Z" fill="lightgray"></path>
</g>
		<text x="40" y="140" font-size="128" fill="#999999">6</text></g>
		<g id="id1:id1:id1" transform="matrix(1.0,0,0,1.0,1024,0.0)">			<g stroke="lightgray" stroke-width="4" transform="scale(4, 4)"> <rect x="0" y="0" width="256" height="256" fill="white" stroke-width="4"/></g>
			<g transform="scale(0.92, -0.92) translate(60, -920)">					<path d="M 526 615 Q 643 639 650 643 Q 660 650 655 660 Q 648 672 618 680 Q 588 686 529 667 L 473 652 Q 376 637 335 633 Q 298 629 324 610 Q 360 589 439 600 Q 455 603 475 606 L 526 615 Z" fill="black"></path>
				<path d="M 518 490 Q 522 554 526 615 L 529 667 Q 530 736 549 805 Q 552 815 531 831 Q 494 850 469 855 Q 453 858 444 849 Q 437 842 445 826 Q 467 796 467 776 Q 471 716 473 652 L 475 606 Q 475 548 474 484 C 474 454 516 460 518 490 Z" fill="black"></path>
				<path d="M 610 466 Q 694 472 920 472 Q 942 472 947 481 Q 953 494 935 509 Q 881 551 839 542 Q 761 529 649 509 L 580 498 Q 549 497 518 490 L 474 484 Q 308 465 118 444 Q 96 441 112 423 Q 127 408 146 402 Q 168 396 186 401 Q 339 443 547 461 L 610 466 Z" fill="black"></path>
				<path d="M 476 333 Q 549 403 610 466 L 649 509 Q 725 609 778 657 Q 788 669 783 687 Q 759 750 723 759 Q 704 762 706 738 Q 706 692 694 665 Q 637 563 580 498 L 547 461 Q 492 403 412 333 L 382 308 Q 249 199 87 98 Q 78 94 77 86 Q 76 80 82 79 Q 104 79 213 136 Q 294 181 390 258 L 476 333 Z" fill="black"></path>
				<path d="M 412 333 Q 402 340 387 345 Q 378 346 373 339 Q 370 333 377 324 Q 380 317 382 308 L 390 258 Q 394 137 378 73 Q 363 24 394 -9 Q 404 -21 413 -8 Q 423 4 428 29 L 433 64 Q 436 94 436 162 L 437 191 Q 438 269 442 293 L 412 333 Z" fill="black"></path>
				<path d="M 586 41 Q 616 4 637 -32 Q 646 -50 657 -49 Q 672 -48 687 -16 Q 703 21 700 65 Q 676 279 700 312 Q 709 324 700 333 Q 682 352 633 373 Q 617 382 602 373 Q 559 352 476 333 C 406 316 412 289 442 293 Q 458 294 483 301 Q 609 331 621 322 Q 633 310 634 94 Q 633 78 632 67 Q 629 58 622 55 C 605 30 572 59 586 41 Z" fill="black"></path>
				<path d="M 436 162 Q 439 162 444 162 Q 523 172 581 178 Q 606 182 597 196 Q 587 212 559 217 Q 523 221 437 191 C 409 181 406 162 436 162 Z" fill="red"></path>
				<path d="M 428 29 Q 432 29 439 30 Q 487 39 586 41 C 616 42 630 42 622 55 Q 619 64 594 81 Q 578 91 547 84 Q 484 71 433 64 C 403 60 398 27 428 29 Z" fill="lightgray"></path>
</g>
		<text x="40" y="140" font-size="128" fill="#999999">7</text></g>
		<g id="id1:id2:id2" transform="matrix(1.0,0,0,1.0,2048,0.0)">			<g stroke="lightgray" stroke-width="4" transform="scale(4, 4)"> <rect x="0" y="0" width="256" height="256" fill="white" stroke-width="4"/></g>
			<g transform="scale(0.92, -0.92) translate(60, -920)">					<path d="M 526 615 Q 643 639 650 643 Q 660 650 655 660 Q 648 672 618 680 Q 588 686 529 667 L 473 652 Q 376 637 335 633 Q 298 629 324 610 Q 360 589 439 600 Q 455 603 475 606 L 526 615 Z" fill="black"></path>
				<path d="M 518 490 Q 522 554 526 615 L 529 667 Q 530 736 549 805 Q 552 815 531 831 Q 494 850 469 855 Q 453 858 444 849 Q 437 842 445 826 Q 467 796 467 776 Q 471 716 473 652 L 475 606 Q 475 548 474 484 C 474 454 516 460 518 490 Z" fill="black"></path>
				<path d="M 610 466 Q 694 472 920 472 Q 942 472 947 481 Q 953 494 935 509 Q 881 551 839 542 Q 761 529 649 509 L 580 498 Q 549 497 518 490 L 474 484 Q 308 465 118 444 Q 96 441 112 423 Q 127 408 146 402 Q 168 396 186 401 Q 339 443 547 461 L 610 466 Z" fill="black"></path>
				<path d="M 476 333 Q 549 403 610 466 L 649 509 Q 725 609 778 657 Q 788 669 783 687 Q 759 750 723 759 Q 704 762 706 738 Q 706 692 694 665 Q 637 563 580 498 L 547 461 Q 492 403 412 333 L 382 308 Q 249 199 87 98 Q 78 94 77 86 Q 76 80 82 79 Q 104 79 213 136 Q 294 181 390 258 L 476 333 Z" fill="black"></path>
				<path d="M 412 333 Q 402 340 387 345 Q 378 346 373 339 Q 370 333 377 324 Q 380 317 382 308 L 390 258 Q 394 137 378 73 Q 363 24 394 -9 Q 404 -21 413 -8 Q 423 4 428 29 L 433 64 Q 436 94 436 162 L 437 191 Q 438 269 442 293 L 412 333 Z" fill="black"></path>
				<path d="M 586 41 Q 616 4 637 -32 Q 646 -50 657 -49 Q 672 -48 687 -16 Q 703 21 700 65 Q 676 279 700 312 Q 709 324 700 333 Q 682 352 633 373 Q 617 382 602 373 Q 559 352 476 333 C 406 316 412 289 442 293 Q 458 294 483 301 Q 609 331 621 322 Q 633 310 634 94 Q 633 78 632 67 Q 629 58 622 55 C 605 30 572 59 586 41 Z" fill="black"></path>
				<path d="M 436 162 Q 439 162 444 162 Q 523 172 581 178 Q 606 182 597 196 Q 587 212 559 217 Q 523 221 437 191 C 409 181 406 162 436 162 Z" fill="black"></path>
				<path d="M 428 29 Q 432 29 439 30 Q 487 39 586 41 C 616 42 630 42 622 55 Q 619 64 594 81 Q 578 91 547 84 Q 484 71 433 64 C 403 60 398 27 428 29 Z" fill="red"></path>
</g>
		<text x="40" y="140" font-size="128" fill="#999999">8</text></g>
		<g id="id1:id3:id3" transform="matrix(1.0,0,0,1.0,3072,0.0)">			<g stroke="white" stroke-width="4" transform="scale(4, 4)"> <rect x="1" y="1" width="255" height="255" fill="white" stroke-width="0"/></g>
</g>
		<g id="id1:id4:id4" transform="matrix(1.0,0,0,1.0,4096,0.0)">			<g stroke="white" stroke-width="4" transform="scale(4, 4)"> <rect x="1" y="1" width="255" height="255" fill="white" stroke-width="0"/></g>
</g>
</g>
</svg>
