<?xml version="1.0" standalone="no"?>
<!DOCTYPE svg PUBLIC "-//W3C//DTD SVG 1.1//EN"
 "http://www.w3.org/Graphics/SVG/1.1/DTD/svg11.dtd">
<!-- generate by Handict dictionary app com.asnsami.handict -->

<svg xmlns="http://www.w3.org/2000/svg" xmlns:sodipodi="http://sodipodi.sourceforge.net/DTD/sodipodi-0.dtd" version="1.1" width="640" height="384" viewBox="0 0 5120 3072">
	<g id="id0:id0" transform="translate(0.0,0)">
		<g id="id0:id0:id0" transform="matrix(1.0,0,0,1.0,0,0.0)">			<g stroke="lightgray" stroke-width="4" transform="scale(4, 4)"> <rect x="0" y="0" width="256" height="256" fill="white" stroke-width="4"/></g>
			<g transform="scale(0.92, -0.92) translate(60, -920)">					<path d="M 361 721 Q 397 727 431 732 Q 441 731 449 743 Q 450 753 429 763 Q 398 782 314 756 Q 299 753 285 749 Q 257 743 115 719 Q 88 715 110 699 Q 138 680 158 680 L 200 690 Q 257 703 329 716 L 361 721 Z" fill="red"></path>
				<path d="M 158 680 Q 176 650 176 611 Q 177 577 176 278 C 176 248 218 258 218 288 Q 219 352 221 410 L 222 444 Q 222 493 225 538 L 225 572 Q 226 590 227 606 Q 228 625 229 640 Q 236 659 226 668 Q 213 681 200 690 C 176 708 144 707 158 680 Z" fill="lightgray"></path>
				<path d="M 389 333 Q 390 457 390 591 Q 389 673 392 686 Q 395 698 386 705 Q 377 712 361 721 C 335 737 322 745 329 716 Q 347 677 340 320 L 339 284 Q 339 170 329 74 Q 326 32 351 -1 Q 364 -16 373 2 Q 400 54 393 99 Q 390 141 389 304 L 389 333 Z" fill="lightgray"></path>
				<path d="M 225 538 Q 274 550 310 556 Q 331 562 322 573 Q 310 586 286 587 Q 264 588 226 573 Q 225 573 225 572 C 199 557 196 531 225 538 Z" fill="lightgray"></path>
				<path d="M 221 410 Q 267 420 301 424 Q 323 430 314 441 Q 302 454 278 456 Q 256 457 222 444 C 194 433 192 404 221 410 Z" fill="lightgray"></path>
				<path d="M 389 304 Q 408 313 424 324 Q 437 331 438 340 Q 434 344 421 343 Q 403 339 389 333 L 340 320 Q 282 305 218 288 L 176 278 Q 95 266 84 266 Q 71 265 69 255 Q 66 242 75 234 Q 97 216 129 197 Q 139 193 151 201 Q 202 235 339 284 L 389 304 Z" fill="lightgray"></path>
				<path d="M 625 682 Q 625 683 626 683 Q 645 729 665 753 Q 672 765 667 778 Q 661 791 630 810 Q 600 826 582 824 Q 563 820 574 798 Q 604 746 515 574 Q 475 493 415 404 Q 406 392 405 386 Q 402 374 417 378 Q 474 402 609 650 Q 612 656 615 661 L 625 682 Z" fill="lightgray"></path>
				<path d="M 615 661 Q 688 558 771 461 Q 792 437 829 433 Q 896 424 969 432 Q 987 433 989 438 Q 992 444 978 451 Q 800 529 715 597 Q 694 615 674 634 Q 641 668 625 682 C 603 702 598 685 615 661 Z" fill="lightgray"></path>
				<path d="M 572 446 Q 597 425 624 399 Q 637 387 651 388 Q 661 388 665 401 Q 669 414 661 441 Q 652 471 568 490 Q 553 493 548 491 Q 544 487 545 475 Q 548 465 572 446 Z" fill="lightgray"></path>
				<path d="M 636 114 Q 750 249 791 270 Q 812 279 804 295 Q 800 311 728 346 Q 707 355 684 345 Q 629 323 545 296 Q 523 289 470 289 Q 445 289 454 268 Q 463 255 483 243 Q 516 225 553 248 Q 664 311 689 292 Q 702 282 695 267 Q 659 201 618 126 C 604 100 617 91 636 114 Z" fill="lightgray"></path>
				<path d="M 618 126 Q 569 160 541 174 Q 534 180 530 169 Q 529 157 537 146 Q 592 86 655 1 Q 668 -18 681 -24 Q 688 -25 697 -18 Q 710 -8 702 34 Q 699 70 636 114 L 618 126 Z" fill="lightgray"></path>
</g>
		<text x="40" y="140" font-size="128" fill="#999999">1</text></g>
		<g id="id0:id1:id1" transform="matrix(1.0,0,0,1.0,1024,0.0)">			<g stroke="lightgray" stroke-width="4" transform="scale(4, 4)"> <rect x="0" y="0" width="256" height="256" fill="white" stroke-width="4"/></g>
			<g transform="scale(0.92, -0.92) translate(60, -920)">					<path d="M 361 721 Q 397 727 431 732 Q 441 731 449 743 Q 450 753 429 763 Q 398 782 314 756 Q 299 753 285 749 Q 257 743 115 719 Q 88 715 110 699 Q 138 680 158 680 L 200 690 Q 257 703 329 716 L 361 721 Z" fill="black"></path>
				<path d="M 158 680 Q 176 650 176 611 Q 177 577 176 278 C 176 248 218 258 218 288 Q 219 352 221 410 L 222 444 Q 222 493 225 538 L 225 572 Q 226 590 227 606 Q 228 625 229 640 Q 236 659 226 668 Q 213 681 200 690 C 176 708 144 707 158 680 Z" fill="red"></path>
				<path d="M 389 333 Q 390 457 390 591 Q 389 673 392 686 Q 395 698 386 705 Q 377 712 361 721 C 335 737 322 745 329 716 Q 347 677 340 320 L 339 284 Q 339 170 329 74 Q 326 32 351 -1 Q 364 -16 373 2 Q 400 54 393 99 Q 390 141 389 304 L 389 333 Z" fill="lightgray"></path>
				<path d="M 225 538 Q 274 550 310 556 Q 331 562 322 573 Q 310 586 286 587 Q 264 588 226 573 Q 225 573 225 572 C 199 557 196 531 225 538 Z" fill="lightgray"></path>
				<path d="M 221 410 Q 267 420 301 424 Q 323 430 314 441 Q 302 454 278 456 Q 256 457 222 444 C 194 433 192 404 221 410 Z" fill="lightgray"></path>
				<path d="M 389 304 Q 408 313 424 324 Q 437 331 438 340 Q 434 344 421 343 Q 403 339 389 333 L 340 320 Q 282 305 218 288 L 176 278 Q 95 266 84 266 Q 71 265 69 255 Q 66 242 75 234 Q 97 216 129 197 Q 139 193 151 201 Q 202 235 339 284 L 389 304 Z" fill="lightgray"></path>
				<path d="M 625 682 Q 625 683 626 683 Q 645 729 665 753 Q 672 765 667 778 Q 661 791 630 810 Q 600 826 582 824 Q 563 820 574 798 Q 604 746 515 574 Q 475 493 415 404 Q 406 392 405 386 Q 402 374 417 378 Q 474 402 609 650 Q 612 656 615 661 L 625 682 Z" fill="lightgray"></path>
				<path d="M 615 661 Q 688 558 771 461 Q 792 437 829 433 Q 896 424 969 432 Q 987 433 989 438 Q 992 444 978 451 Q 800 529 715 597 Q 694 615 674 634 Q 641 668 625 682 C 603 702 598 685 615 661 Z" fill="lightgray"></path>
				<path d="M 572 446 Q 597 425 624 399 Q 637 387 651 388 Q 661 388 665 401 Q 669 414 661 441 Q 652 471 568 490 Q 553 493 548 491 Q 544 487 545 475 Q 548 465 572 446 Z" fill="lightgray"></path>
				<path d="M 636 114 Q 750 249 791 270 Q 812 279 804 295 Q 800 311 728 346 Q 707 355 684 345 Q 629 323 545 296 Q 523 289 470 289 Q 445 289 454 268 Q 463 255 483 243 Q 516 225 553 248 Q 664 311 689 292 Q 702 282 695 267 Q 659 201 618 126 C 604 100 617 91 636 114 Z" fill="lightgray"></path>
				<path d="M 618 126 Q 569 160 541 174 Q 534 180 530 169 Q 529 157 537 146 Q 592 86 655 1 Q 668 -18 681 -24 Q 688 -25 697 -18 Q 710 -8 702 34 Q 699 70 636 114 L 618 126 Z" fill="lightgray"></path>
</g>
		<text x="40" y="140" font-size="128" fill="#999999">2</text></g>
		<g id="id0:id2:id2" transform="matrix(1.0,0,0,1.0,2048,0.0)">			<g stroke="lightgray" stroke-width="4" transform="scale(4, 4)"> <rect x="0" y="0" width="256" height="256" fill="white" stroke-width="4"/></g>
			<g transform="scale(0.92, -0.92) translate(60, -920)">					<path d="M 361 721 Q 397 727 431 732 Q 441 731 449 743 Q 450 753 429 763 Q 398 782 314 756 Q 299 753 285 749 Q 257 743 115 719 Q 88 715 110 699 Q 138 680 158 680 L 200 690 Q 257 703 329 716 L 361 721 Z" fill="black"></path>
				<path d="M 158 680 Q 176 650 176 611 Q 177 577 176 278 C 176 248 218 258 218 288 Q 219 352 221 410 L 222 444 Q 222 493 225 538 L 225 572 Q 226 590 227 606 Q 228 625 229 640 Q 236 659 226 668 Q 213 681 200 690 C 176 708 144 707 158 680 Z" fill="black"></path>
				<path d="M 389 333 Q 390 457 390 591 Q 389 673 392 686 Q 395 698 386 705 Q 377 712 361 721 C 335 737 322 745 329 716 Q 347 677 340 320 L 339 284 Q 339 170 329 74 Q 326 32 351 -1 Q 364 -16 373 2 Q 400 54 393 99 Q 390 141 389 304 L 389 333 Z" fill="red"></path>
				<path d="M 225 538 Q 274 550 310 556 Q 331 562 322 573 Q 310 586 286 587 Q 264 588 226 573 Q 225 573 225 572 C 199 557 196 531 225 538 Z" fill="lightgray"></path>
				<path d="M 221 410 Q 267 420 301 424 Q 323 430 314 441 Q 302 454 278 456 Q 256 457 222 444 C 194 433 192 404 221 410 Z" fill="lightgray"></path>
				<path d="M 389 304 Q 408 313 424 324 Q 437 331 438 340 Q 434 344 421 343 Q 403 339 389 333 L 340 320 Q 282 305 218 288 L 176 278 Q 95 266 84 266 Q 71 265 69 255 Q 66 242 75 234 Q 97 216 129 197 Q 139 193 151 201 Q 202 235 339 284 L 389 304 Z" fill="lightgray"></path>
				<path d="M 625 682 Q 625 683 626 683 Q 645 729 665 753 Q 672 765 667 778 Q 661 791 630 810 Q 600 826 582 824 Q 563 820 574 798 Q 604 746 515 574 Q 475 493 415 404 Q 406 392 405 386 Q 402 374 417 378 Q 474 402 609 650 Q 612 656 615 661 L 625 682 Z" fill="lightgray"></path>
				<path d="M 615 661 Q 688 558 771 461 Q 792 437 829 433 Q 896 424 969 432 Q 987 433 989 438 Q 992 444 978 451 Q 800 529 715 597 Q 694 615 674 634 Q 641 668 625 682 C 603 702 598 685 615 661 Z" fill="lightgray"></path>
				<path d="M 572 446 Q 597 425 624 399 Q 637 387 651 388 Q 661 388 665 401 Q 669 414 661 441 Q 652 471 568 490 Q 553 493 548 491 Q 544 487 545 475 Q 548 465 572 446 Z" fill="lightgray"></path>
				<path d="M 636 114 Q 750 249 791 270 Q 812 279 804 295 Q 800 311 728 346 Q 707 355 684 345 Q 629 323 545 296 Q 523 289 470 289 Q 445 289 454 268 Q 463 255 483 243 Q 516 225 553 248 Q 664 311 689 292 Q 702 282 695 267 Q 659 201 618 126 C 604 100 617 91 636 114 Z" fill="lightgray"></path>
				<path d="M 618 126 Q 569 160 541 174 Q 534 180 530 169 Q 529 157 537 146 Q 592 86 655 1 Q 668 -18 681 -24 Q 688 -25 697 -18 Q 710 -8 702 34 Q 699 70 636 114 L 618 126 Z" fill="lightgray"></path>
</g>
		<text x="40" y="140" font-size="128" fill="#999999">3</text></g>
		<g id="id0:id3:id3" transform="matrix(1.0,0,0,1.0,3072,0.0)">			<g stroke="lightgray" stroke-width="4" transform="scale(4, 4)"> <rect x="0" y="0" width="256" height="256" fill="white" stroke-width="4"/></g>
			<g transform="scale(0.92, -0.92) translate(60, -920)">					<path d="M 361 721 Q 397 727 431 732 Q 441 731 449 743 Q 450 753 429 763 Q 398 782 314 756 Q 299 753 285 749 Q 257 743 115 719 Q 88 715 110 699 Q 138 680 158 680 L 200 690 Q 257 703 329 716 L 361 721 Z" fill="black"></path>
				<path d="M 158 680 Q 176 650 176 611 Q 177 577 176 278 C 176 248 218 258 218 288 Q 219 352 221 410 L 222 444 Q 222 493 225 538 L 225 572 Q 226 590 227 606 Q 228 625 229 640 Q 236 659 226 668 Q 213 681 200 690 C 176 708 144 707 158 680 Z" fill="black"></path>
				<path d="M 389 333 Q 390 457 390 591 Q 389 673 392 686 Q 395 698 386 705 Q 377 712 361 721 C 335 737 322 745 329 716 Q 347 677 340 320 L 339 284 Q 339 170 329 74 Q 326 32 351 -1 Q 364 -16 373 2 Q 400 54 393 99 Q 390 141 389 304 L 389 333 Z" fill="black"></path>
				<path d="M 225 538 Q 274 550 310 556 Q 331 562 322 573 Q 310 586 286 587 Q 264 588 226 573 Q 225 573 225 572 C 199 557 196 531 225 538 Z" fill="red"></path>
				<path d="M 221 410 Q 267 420 301 424 Q 323 430 314 441 Q 302 454 278 456 Q 256 457 222 444 C 194 433 192 404 221 410 Z" fill="lightgray"></path>
				<path d="M 389 304 Q 408 313 424 324 Q 437 331 438 340 Q 434 344 421 343 Q 403 339 389 333 L 340 320 Q 282 305 218 288 L 176 278 Q 95 266 84 266 Q 71 265 69 255 Q 66 242 75 234 Q 97 216 129 197 Q 139 193 151 201 Q 202 235 339 284 L 389 304 Z" fill="lightgray"></path>
				<path d="M 625 682 Q 625 683 626 683 Q 645 729 665 753 Q 672 765 667 778 Q 661 791 630 810 Q 600 826 582 824 Q 563 820 574 798 Q 604 746 515 574 Q 475 493 415 404 Q 406 392 405 386 Q 402 374 417 378 Q 474 402 609 650 Q 612 656 615 661 L 625 682 Z" fill="lightgray"></path>
				<path d="M 615 661 Q 688 558 771 461 Q 792 437 829 433 Q 896 424 969 432 Q 987 433 989 438 Q 992 444 978 451 Q 800 529 715 597 Q 694 615 674 634 Q 641 668 625 682 C 603 702 598 685 615 661 Z" fill="lightgray"></path>
				<path d="M 572 446 Q 597 425 624 399 Q 637 387 651 388 Q 661 388 665 401 Q 669 414 661 441 Q 652 471 568 490 Q 553 493 548 491 Q 544 487 545 475 Q 548 465 572 446 Z" fill="lightgray"></path>
				<path d="M 636 114 Q 750 249 791 270 Q 812 279 804 295 Q 800 311 728 346 Q 707 355 684 345 Q 629 323 545 296 Q 523 289 470 289 Q 445 289 454 268 Q 463 255 483 243 Q 516 225 553 248 Q 664 311 689 292 Q 702 282 695 267 Q 659 201 618 126 C 604 100 617 91 636 114 Z" fill="lightgray"></path>
				<path d="M 618 126 Q 569 160 541 174 Q 534 180 530 169 Q 529 157 537 146 Q 592 86 655 1 Q 668 -18 681 -24 Q 688 -25 697 -18 Q 710 -8 702 34 Q 699 70 636 114 L 618 126 Z" fill="lightgray"></path>
</g>
		<text x="40" y="140" font-size="128" fill="#999999">4</text></g>
		<g id="id0:id4:id4" transform="matrix(1.0,0,0,1.0,4096,0.0)">			<g stroke="lightgray" stroke-width="4" transform="scale(4, 4)"> <rect x="0" y="0" width="256" height="256" fill="white" stroke-width="4"/></g>
			<g transform="scale(0.92, -0.92) translate(60, -920)">					<path d="M 361 721 Q 397 727 431 732 Q 441 731 449 743 Q 450 753 429 763 Q 398 782 314 756 Q 299 753 285 749 Q 257 743 115 719 Q 88 715 110 699 Q 138 680 158 680 L 200 690 Q 257 703 329 716 L 361 721 Z" fill="black"></path>
				<path d="M 158 680 Q 176 650 176 611 Q 177 577 176 278 C 176 248 218 258 218 288 Q 219 352 221 410 L 222 444 Q 222 493 225 538 L 225 572 Q 226 590 227 606 Q 228 625 229 640 Q 236 659 226 668 Q 213 681 200 690 C 176 708 144 707 158 680 Z" fill="black"></path>
				<path d="M 389 333 Q 390 457 390 591 Q 389 673 392 686 Q 395 698 386 705 Q 377 712 361 721 C 335 737 322 745 329 716 Q 347 677 340 320 L 339 284 Q 339 170 329 74 Q 326 32 351 -1 Q 364 -16 373 2 Q 400 54 393 99 Q 390 141 389 304 L 389 333 Z" fill="black"></path>
				<path d="M 225 538 Q 274 550 310 556 Q 331 562 322 573 Q 310 586 286 587 Q 264 588 226 573 Q 225 573 225 572 C 199 557 196 531 225 538 Z" fill="black"></path>
				<path d="M 221 410 Q 267 420 301 424 Q 323 430 314 441 Q 302 454 278 456 Q 256 457 222 444 C 194 433 192 404 221 410 Z" fill="red"></path>
				<path d="M 389 304 Q 408 313 424 324 Q 437 331 438 340 Q 434 344 421 343 Q 403 339 389 333 L 340 320 Q 282 305 218 288 L 176 278 Q 95 266 84 266 Q 71 265 69 255 Q 66 242 75 234 Q 97 216 129 197 Q 139 193 151 201 Q 202 235 339 284 L 389 304 Z" fill="lightgray"></path>
				<path d="M 625 682 Q 625 683 626 683 Q 645 729 665 753 Q 672 765 667 778 Q 661 791 630 810 Q 600 826 582 824 Q 563 820 574 798 Q 604 746 515 574 Q 475 493 415 404 Q 406 392 405 386 Q 402 374 417 378 Q 474 402 609 650 Q 612 656 615 661 L 625 682 Z" fill="lightgray"></path>
				<path d="M 615 661 Q 688 558 771 461 Q 792 437 829 433 Q 896 424 969 432 Q 987 433 989 438 Q 992 444 978 451 Q 800 529 715 597 Q 694 615 674 634 Q 641 668 625 682 C 603 702 598 685 615 661 Z" fill="lightgray"></path>
				<path d="M 572 446 Q 597 425 624 399 Q 637 387 651 388 Q 661 388 665 401 Q 669 414 661 441 Q 652 471 568 490 Q 553 493 548 491 Q 544 487 545 475 Q 548 465 572 446 Z" fill="lightgray"></path>
				<path d="M 636 114 Q 750 249 791 270 Q 812 279 804 295 Q 800 311 728 346 Q 707 355 684 345 Q 629 323 545 296 Q 523 289 470 289 Q 445 289 454 268 Q 463 255 483 243 Q 516 225 553 248 Q 664 311 689 292 Q 702 282 695 267 Q 659 201 618 126 C 604 100 617 91 636 114 Z" fill="lightgray"></path>
				<path d="M 618 126 Q 569 160 541 174 Q 534 180 530 169 Q 529 157 537 146 Q 592 86 655 1 Q 668 -18 681 -24 Q 688 -25 697 -18 Q 710 -8 702 34 Q 699 70 636 114 L 618 126 Z" fill="lightgray"></path>
</g>
		<text x="40" y="140" font-size="128" fill="#999999">5</text></g>
</g>
	<g id="id1:id1" transform="translate(0.0,1024)">
		<g id="id1:id0:id0" transform="matrix(1.0,0,0,1.0,0,0.0)">			<g stroke="lightgray" stroke-width="4" transform="scale(4, 4)"> <rect x="0" y="0" width="256" height="256" fill="white" stroke-width="4"/></g>
			<g transform="scale(0.92, -0.92) translate(60, -920)">					<path d="M 361 721 Q 397 727 431 732 Q 441 731 449 743 Q 450 753 429 763 Q 398 782 314 756 Q 299 753 285 749 Q 257 743 115 719 Q 88 715 110 699 Q 138 680 158 680 L 200 690 Q 257 703 329 716 L 361 721 Z" fill="black"></path>
				<path d="M 158 680 Q 176 650 176 611 Q 177 577 176 278 C 176 248 218 258 218 288 Q 219 352 221 410 L 222 444 Q 222 493 225 538 L 225 572 Q 226 590 227 606 Q 228 625 229 640 Q 236 659 226 668 Q 213 681 200 690 C 176 708 144 707 158 680 Z" fill="black"></path>
				<path d="M 389 333 Q 390 457 390 591 Q 389 673 392 686 Q 395 698 386 705 Q 377 712 361 721 C 335 737 322 745 329 716 Q 347 677 340 320 L 339 284 Q 339 170 329 74 Q 326 32 351 -1 Q 364 -16 373 2 Q 400 54 393 99 Q 390 141 389 304 L 389 333 Z" fill="black"></path>
				<path d="M 225 538 Q 274 550 310 556 Q 331 562 322 573 Q 310 586 286 587 Q 264 588 226 573 Q 225 573 225 572 C 199 557 196 531 225 538 Z" fill="black"></path>
				<path d="M 221 410 Q 267 420 301 424 Q 323 430 314 441 Q 302 454 278 456 Q 256 457 222 444 C 194 433 192 404 221 410 Z" fill="black"></path>
				<path d="M 389 304 Q 408 313 424 324 Q 437 331 438 340 Q 434 344 421 343 Q 403 339 389 333 L 340 320 Q 282 305 218 288 L 176 278 Q 95 266 84 266 Q 71 265 69 255 Q 66 242 75 234 Q 97 216 129 197 Q 139 193 151 201 Q 202 235 339 284 L 389 304 Z" fill="red"></path>
				<path d="M 625 682 Q 625 683 626 683 Q 645 729 665 753 Q 672 765 667 778 Q 661 791 630 810 Q 600 826 582 824 Q 563 820 574 798 Q 604 746 515 574 Q 475 493 415 404 Q 406 392 405 386 Q 402 374 417 378 Q 474 402 609 650 Q 612 656 615 661 L 625 682 Z" fill="lightgray"></path>
				<path d="M 615 661 Q 688 558 771 461 Q 792 437 829 433 Q 896 424 969 432 Q 987 433 989 438 Q 992 444 978 451 Q 800 529 715 597 Q 694 615 674 634 Q 641 668 625 682 C 603 702 598 685 615 661 Z" fill="lightgray"></path>
				<path d="M 572 446 Q 597 425 624 399 Q 637 387 651 388 Q 661 388 665 401 Q 669 414 661 441 Q 652 471 568 490 Q 553 493 548 491 Q 544 487 545 475 Q 548 465 572 446 Z" fill="lightgray"></path>
				<path d="M 636 114 Q 750 249 791 270 Q 812 279 804 295 Q 800 311 728 346 Q 707 355 684 345 Q 629 323 545 296 Q 523 289 470 289 Q 445 289 454 268 Q 463 255 483 243 Q 516 225 553 248 Q 664 311 689 292 Q 702 282 695 267 Q 659 201 618 126 C 604 100 617 91 636 114 Z" fill="lightgray"></path>
				<path d="M 618 126 Q 569 160 541 174 Q 534 180 530 169 Q 529 157 537 146 Q 592 86 655 1 Q 668 -18 681 -24 Q 688 -25 697 -18 Q 710 -8 702 34 Q 699 70 636 114 L 618 126 Z" fill="lightgray"></path>
</g>
		<text x="40" y="140" font-size="128" fill="#999999">6</text></g>
		<g id="id1:id1:id1" transform="matrix(1.0,0,0,1.0,1024,0.0)">			<g stroke="lightgray" stroke-width="4" transform="scale(4, 4)"> <rect x="0" y="0" width="256" height="256" fill="white" stroke-width="4"/></g>
			<g transform="scale(0.92, -0.92) translate(60, -920)">					<path d="M 361 721 Q 397 727 431 732 Q 441 731 449 743 Q 450 753 429 763 Q 398 782 314 756 Q 299 753 285 749 Q 257 743 115 719 Q 88 715 110 699 Q 138 680 158 680 L 200 690 Q 257 703 329 716 L 361 721 Z" fill="black"></path>
				<path d="M 158 680 Q 176 650 176 611 Q 177 577 176 278 C 176 248 218 258 218 288 Q 219 352 221 410 L 222 444 Q 222 493 225 538 L 225 572 Q 226 590 227 606 Q 228 625 229 640 Q 236 659 226 668 Q 213 681 200 690 C 176 708 144 707 158 680 Z" fill="black"></path>
				<path d="M 389 333 Q 390 457 390 591 Q 389 673 392 686 Q 395 698 386 705 Q 377 712 361 721 C 335 737 322 745 329 716 Q 347 677 340 320 L 339 284 Q 339 170 329 74 Q 326 32 351 -1 Q 364 -16 373 2 Q 400 54 393 99 Q 390 141 389 304 L 389 333 Z" fill="black"></path>
				<path d="M 225 538 Q 274 550 310 556 Q 331 562 322 573 Q 310 586 286 587 Q 264 588 226 573 Q 225 573 225 572 C 199 557 196 531 225 538 Z" fill="black"></path>
				<path d="M 221 410 Q 267 420 301 424 Q 323 430 314 441 Q 302 454 278 456 Q 256 457 222 444 C 194 433 192 404 221 410 Z" fill="black"></path>
				<path d="M 389 304 Q 408 313 424 324 Q 437 331 438 340 Q 434 344 421 343 Q 403 339 389 333 L 340 320 Q 282 305 218 288 L 176 278 Q 95 266 84 266 Q 71 265 69 255 Q 66 242 75 234 Q 97 216 129 197 Q 139 193 151 201 Q 202 235 339 284 L 389 304 Z" fill="black"></path>
				<path d="M 625 682 Q 625 683 626 683 Q 645 729 665 753 Q 672 765 667 778 Q 661 791 630 810 Q 600 826 582 824 Q 563 820 574 798 Q 604 746 515 574 Q 475 493 415 404 Q 406 392 405 386 Q 402 374 417 378 Q 474 402 609 650 Q 612 656 615 661 L 625 682 Z" fill="red"></path>
				<path d="M 615 661 Q 688 558 771 461 Q 792 437 829 433 Q 896 424 969 432 Q 987 433 989 438 Q 992 444 978 451 Q 800 529 715 597 Q 694 615 674 634 Q 641 668 625 682 C 603 702 598 685 615 661 Z" fill="lightgray"></path>
				<path d="M 572 446 Q 597 425 624 399 Q 637 387 651 388 Q 661 388 665 401 Q 669 414 661 441 Q 652 471 568 490 Q 553 493 548 491 Q 544 487 545 475 Q 548 465 572 446 Z" fill="lightgray"></path>
				<path d="M 636 114 Q 750 249 791 270 Q 812 279 804 295 Q 800 311 728 346 Q 707 355 684 345 Q 629 323 545 296 Q 523 289 470 289 Q 445 289 454 268 Q 463 255 483 243 Q 516 225 553 248 Q 664 311 689 292 Q 702 282 695 267 Q 659 201 618 126 C 604 100 617 91 636 114 Z" fill="lightgray"></path>
				<path d="M 618 126 Q 569 160 541 174 Q 534 180 530 169 Q 529 157 537 146 Q 592 86 655 1 Q 668 -18 681 -24 Q 688 -25 697 -18 Q 710 -8 702 34 Q 699 70 636 114 L 618 126 Z" fill="lightgray"></path>
</g>
		<text x="40" y="140" font-size="128" fill="#999999">7</text></g>
		<g id="id1:id2:id2" transform="matrix(1.0,0,0,1.0,2048,0.0)">			<g stroke="lightgray" stroke-width="4" transform="scale(4, 4)"> <rect x="0" y="0" width="256" height="256" fill="white" stroke-width="4"/></g>
			<g transform="scale(0.92, -0.92) translate(60, -920)">					<path d="M 361 721 Q 397 727 431 732 Q 441 731 449 743 Q 450 753 429 763 Q 398 782 314 756 Q 299 753 285 749 Q 257 743 115 719 Q 88 715 110 699 Q 138 680 158 680 L 200 690 Q 257 703 329 716 L 361 721 Z" fill="black"></path>
				<path d="M 158 680 Q 176 650 176 611 Q 177 577 176 278 C 176 248 218 258 218 288 Q 219 352 221 410 L 222 444 Q 222 493 225 538 L 225 572 Q 226 590 227 606 Q 228 625 229 640 Q 236 659 226 668 Q 213 681 200 690 C 176 708 144 707 158 680 Z" fill="black"></path>
				<path d="M 389 333 Q 390 457 390 591 Q 389 673 392 686 Q 395 698 386 705 Q 377 712 361 721 C 335 737 322 745 329 716 Q 347 677 340 320 L 339 284 Q 339 170 329 74 Q 326 32 351 -1 Q 364 -16 373 2 Q 400 54 393 99 Q 390 141 389 304 L 389 333 Z" fill="black"></path>
				<path d="M 225 538 Q 274 550 310 556 Q 331 562 322 573 Q 310 586 286 587 Q 264 588 226 573 Q 225 573 225 572 C 199 557 196 531 225 538 Z" fill="black"></path>
				<path d="M 221 410 Q 267 420 301 424 Q 323 430 314 441 Q 302 454 278 456 Q 256 457 222 444 C 194 433 192 404 221 410 Z" fill="black"></path>
				<path d="M 389 304 Q 408 313 424 324 Q 437 331 438 340 Q 434 344 421 343 Q 403 339 389 333 L 340 320 Q 282 305 218 288 L 176 278 Q 95 266 84 266 Q 71 265 69 255 Q 66 242 75 234 Q 97 216 129 197 Q 139 193 151 201 Q 202 235 339 284 L 389 304 Z" fill="black"></path>
				<path d="M 625 682 Q 625 683 626 683 Q 645 729 665 753 Q 672 765 667 778 Q 661 791 630 810 Q 600 826 582 824 Q 563 820 574 798 Q 604 746 515 574 Q 475 493 415 404 Q 406 392 405 386 Q 402 374 417 378 Q 474 402 609 650 Q 612 656 615 661 L 625 682 Z" fill="black"></path>
				<path d="M 615 661 Q 688 558 771 461 Q 792 437 829 433 Q 896 424 969 432 Q 987 433 989 438 Q 992 444 978 451 Q 800 529 715 597 Q 694 615 674 634 Q 641 668 625 682 C 603 702 598 685 615 661 Z" fill="red"></path>
				<path d="M 572 446 Q 597 425 624 399 Q 637 387 651 388 Q 661 388 665 401 Q 669 414 661 441 Q 652 471 568 490 Q 553 493 548 491 Q 544 487 545 475 Q 548 465 572 446 Z" fill="lightgray"></path>
				<path d="M 636 114 Q 750 249 791 270 Q 812 279 804 295 Q 800 311 728 346 Q 707 355 684 345 Q 629 323 545 296 Q 523 289 470 289 Q 445 289 454 268 Q 463 255 483 243 Q 516 225 553 248 Q 664 311 689 292 Q 702 282 695 267 Q 659 201 618 126 C 604 100 617 91 636 114 Z" fill="lightgray"></path>
				<path d="M 618 126 Q 569 160 541 174 Q 534 180 530 169 Q 529 157 537 146 Q 592 86 655 1 Q 668 -18 681 -24 Q 688 -25 697 -18 Q 710 -8 702 34 Q 699 70 636 114 L 618 126 Z" fill="lightgray"></path>
</g>
		<text x="40" y="140" font-size="128" fill="#999999">8</text></g>
		<g id="id1:id3:id3" transform="matrix(1.0,0,0,1.0,3072,0.0)">			<g stroke="lightgray" stroke-width="4" transform="scale(4, 4)"> <rect x="0" y="0" width="256" height="256" fill="white" stroke-width="4"/></g>
			<g transform="scale(0.92, -0.92) translate(60, -920)">					<path d="M 361 721 Q 397 727 431 732 Q 441 731 449 743 Q 450 753 429 763 Q 398 782 314 756 Q 299 753 285 749 Q 257 743 115 719 Q 88 715 110 699 Q 138 680 158 680 L 200 690 Q 257 703 329 716 L 361 721 Z" fill="black"></path>
				<path d="M 158 680 Q 176 650 176 611 Q 177 577 176 278 C 176 248 218 258 218 288 Q 219 352 221 410 L 222 444 Q 222 493 225 538 L 225 572 Q 226 590 227 606 Q 228 625 229 640 Q 236 659 226 668 Q 213 681 200 690 C 176 708 144 707 158 680 Z" fill="black"></path>
				<path d="M 389 333 Q 390 457 390 591 Q 389 673 392 686 Q 395 698 386 705 Q 377 712 361 721 C 335 737 322 745 329 716 Q 347 677 340 320 L 339 284 Q 339 170 329 74 Q 326 32 351 -1 Q 364 -16 373 2 Q 400 54 393 99 Q 390 141 389 304 L 389 333 Z" fill="black"></path>
				<path d="M 225 538 Q 274 550 310 556 Q 331 562 322 573 Q 310 586 286 587 Q 264 588 226 573 Q 225 573 225 572 C 199 557 196 531 225 538 Z" fill="black"></path>
				<path d="M 221 410 Q 267 420 301 424 Q 323 430 314 441 Q 302 454 278 456 Q 256 457 222 444 C 194 433 192 404 221 410 Z" fill="black"></path>
				<path d="M 389 304 Q 408 313 424 324 Q 437 331 438 340 Q 434 344 421 343 Q 403 339 389 333 L 340 320 Q 282 305 218 288 L 176 278 Q 95 266 84 266 Q 71 265 69 255 Q 66 242 75 234 Q 97 216 129 197 Q 139 193 151 201 Q 202 235 339 284 L 389 304 Z" fill="black"></path>
				<path d="M 625 682 Q 625 683 626 683 Q 645 729 665 753 Q 672 765 667 778 Q 661 791 630 810 Q 600 826 582 824 Q 563 820 574 798 Q 604 746 515 574 Q 475 493 415 404 Q 406 392 405 386 Q 402 374 417 378 Q 474 402 609 650 Q 612 656 615 661 L 625 682 Z" fill="black"></path>
				<path d="M 615 661 Q 688 558 771 461 Q 792 437 829 433 Q 896 424 969 432 Q 987 433 989 438 Q 992 444 978 451 Q 800 529 715 597 Q 694 615 674 634 Q 641 668 625 682 C 603 702 598 685 615 661 Z" fill="black"></path>
				<path d="M 572 446 Q 597 425 624 399 Q 637 387 651 388 Q 661 388 665 401 Q 669 414 661 441 Q 652 471 568 490 Q 553 493 548 491 Q 544 487 545 475 Q 548 465 572 446 Z" fill="red"></path>
				<path d="M 636 114 Q 750 249 791 270 Q 812 279 804 295 Q 800 311 728 346 Q 707 355 684 345 Q 629 323 545 296 Q 523 289 470 289 Q 445 289 454 268 Q 463 255 483 243 Q 516 225 553 248 Q 664 311 689 292 Q 702 282 695 267 Q 659 201 618 126 C 604 100 617 91 636 114 Z" fill="lightgray"></path>
				<path d="M 618 126 Q 569 160 541 174 Q 534 180 530 169 Q 529 157 537 146 Q 592 86 655 1 Q 668 -18 681 -24 Q 688 -25 697 -18 Q 710 -8 702 34 Q 699 70 636 114 L 618 126 Z" fill="lightgray"></path>
</g>
		<text x="40" y="140" font-size="128" fill="#999999">9</text></g>
		<g id="id1:id4:id4" transform="matrix(1.0,0,0,1.0,4096,0.0)">			<g stroke="lightgray" stroke-width="4" transform="scale(4, 4)"> <rect x="0" y="0" width="256" height="256" fill="white" stroke-width="4"/></g>
			<g transform="scale(0.92, -0.92) translate(60, -920)">					<path d="M 361 721 Q 397 727 431 732 Q 441 731 449 743 Q 450 753 429 763 Q 398 782 314 756 Q 299 753 285 749 Q 257 743 115 719 Q 88 715 110 699 Q 138 680 158 680 L 200 690 Q 257 703 329 716 L 361 721 Z" fill="black"></path>
				<path d="M 158 680 Q 176 650 176 611 Q 177 577 176 278 C 176 248 218 258 218 288 Q 219 352 221 410 L 222 444 Q 222 493 225 538 L 225 572 Q 226 590 227 606 Q 228 625 229 640 Q 236 659 226 668 Q 213 681 200 690 C 176 708 144 707 158 680 Z" fill="black"></path>
				<path d="M 389 333 Q 390 457 390 591 Q 389 673 392 686 Q 395 698 386 705 Q 377 712 361 721 C 335 737 322 745 329 716 Q 347 677 340 320 L 339 284 Q 339 170 329 74 Q 326 32 351 -1 Q 364 -16 373 2 Q 400 54 393 99 Q 390 141 389 304 L 389 333 Z" fill="black"></path>
				<path d="M 225 538 Q 274 550 310 556 Q 331 562 322 573 Q 310 586 286 587 Q 264 588 226 573 Q 225 573 225 572 C 199 557 196 531 225 538 Z" fill="black"></path>
				<path d="M 221 410 Q 267 420 301 424 Q 323 430 314 441 Q 302 454 278 456 Q 256 457 222 444 C 194 433 192 404 221 410 Z" fill="black"></path>
				<path d="M 389 304 Q 408 313 424 324 Q 437 331 438 340 Q 434 344 421 343 Q 403 339 389 333 L 340 320 Q 282 305 218 288 L 176 278 Q 95 266 84 266 Q 71 265 69 255 Q 66 242 75 234 Q 97 216 129 197 Q 139 193 151 201 Q 202 235 339 284 L 389 304 Z" fill="black"></path>
				<path d="M 625 682 Q 625 683 626 683 Q 645 729 665 753 Q 672 765 667 778 Q 661 791 630 810 Q 600 826 582 824 Q 563 820 574 798 Q 604 746 515 574 Q 475 493 415 404 Q 406 392 405 386 Q 402 374 417 378 Q 474 402 609 650 Q 612 656 615 661 L 625 682 Z" fill="black"></path>
				<path d="M 615 661 Q 688 558 771 461 Q 792 437 829 433 Q 896 424 969 432 Q 987 433 989 438 Q 992 444 978 451 Q 800 529 715 597 Q 694 615 674 634 Q 641 668 625 682 C 603 702 598 685 615 661 Z" fill="black"></path>
				<path d="M 572 446 Q 597 425 624 399 Q 637 387 651 388 Q 661 388 665 401 Q 669 414 661 441 Q 652 471 568 490 Q 553 493 548 491 Q 544 487 545 475 Q 548 465 572 446 Z" fill="black"></path>
				<path d="M 636 114 Q 750 249 791 270 Q 812 279 804 295 Q 800 311 728 346 Q 707 355 684 345 Q 629 323 545 296 Q 523 289 470 289 Q 445 289 454 268 Q 463 255 483 243 Q 516 225 553 248 Q 664 311 689 292 Q 702 282 695 267 Q 659 201 618 126 C 604 100 617 91 636 114 Z" fill="red"></path>
				<path d="M 618 126 Q 569 160 541 174 Q 534 180 530 169 Q 529 157 537 146 Q 592 86 655 1 Q 668 -18 681 -24 Q 688 -25 697 -18 Q 710 -8 702 34 Q 699 70 636 114 L 618 126 Z" fill="lightgray"></path>
</g>
		<text x="40" y="140" font-size="128" fill="#999999">10</text></g>
</g>
	<g id="id2:id2" transform="translate(0.0,2048)">
		<g id="id2:id0:id0" transform="matrix(1.0,0,0,1.0,0,0.0)">			<g stroke="lightgray" stroke-width="4" transform="scale(4, 4)"> <rect x="0" y="0" width="256" height="256" fill="white" stroke-width="4"/></g>
			<g transform="scale(0.92, -0.92) translate(60, -920)">					<path d="M 361 721 Q 397 727 431 732 Q 441 731 449 743 Q 450 753 429 763 Q 398 782 314 756 Q 299 753 285 749 Q 257 743 115 719 Q 88 715 110 699 Q 138 680 158 680 L 200 690 Q 257 703 329 716 L 361 721 Z" fill="black"></path>
				<path d="M 158 680 Q 176 650 176 611 Q 177 577 176 278 C 176 248 218 258 218 288 Q 219 352 221 410 L 222 444 Q 222 493 225 538 L 225 572 Q 226 590 227 606 Q 228 625 229 640 Q 236 659 226 668 Q 213 681 200 690 C 176 708 144 707 158 680 Z" fill="black"></path>
				<path d="M 389 333 Q 390 457 390 591 Q 389 673 392 686 Q 395 698 386 705 Q 377 712 361 721 C 335 737 322 745 329 716 Q 347 677 340 320 L 339 284 Q 339 170 329 74 Q 326 32 351 -1 Q 364 -16 373 2 Q 400 54 393 99 Q 390 141 389 304 L 389 333 Z" fill="black"></path>
				<path d="M 225 538 Q 274 550 310 556 Q 331 562 322 573 Q 310 586 286 587 Q 264 588 226 573 Q 225 573 225 572 C 199 557 196 531 225 538 Z" fill="black"></path>
				<path d="M 221 410 Q 267 420 301 424 Q 323 430 314 441 Q 302 454 278 456 Q 256 457 222 444 C 194 433 192 404 221 410 Z" fill="black"></path>
				<path d="M 389 304 Q 408 313 424 324 Q 437 331 438 340 Q 434 344 421 343 Q 403 339 389 333 L 340 320 Q 282 305 218 288 L 176 278 Q 95 266 84 266 Q 71 265 69 255 Q 66 242 75 234 Q 97 216 129 197 Q 139 193 151 201 Q 202 235 339 284 L 389 304 Z" fill="black"></path>
				<path d="M 625 682 Q 625 683 626 683 Q 645 729 665 753 Q 672 765 667 778 Q 661 791 630 810 Q 600 826 582 824 Q 563 820 574 798 Q 604 746 515 574 Q 475 493 415 404 Q 406 392 405 386 Q 402 374 417 378 Q 474 402 609 650 Q 612 656 615 661 L 625 682 Z" fill="black"></path>
				<path d="M 615 661 Q 688 558 771 461 Q 792 437 829 433 Q 896 424 969 432 Q 987 433 989 438 Q 992 444 978 451 Q 800 529 715 597 Q 694 615 674 634 Q 641 668 625 682 C 603 702 598 685 615 661 Z" fill="black"></path>
				<path d="M 572 446 Q 597 425 624 399 Q 637 387 651 388 Q 661 388 665 401 Q 669 414 661 441 Q 652 471 568 490 Q 553 493 548 491 Q 544 487 545 475 Q 548 465 572 446 Z" fill="black"></path>
				<path d="M 636 114 Q 750 249 791 270 Q 812 279 804 295 Q 800 311 728 346 Q 707 355 684 345 Q 629 323 545 296 Q 523 289 470 289 Q 445 289 454 268 Q 463 255 483 243 Q 516 225 553 248 Q 664 311 689 292 Q 702 282 695 267 Q 659 201 618 126 C 604 100 617 91 636 114 Z" fill="black"></path>
				<path d="M 618 126 Q 569 160 541 174 Q 534 180 530 169 Q 529 157 537 146 Q 592 86 655 1 Q 668 -18 681 -24 Q 688 -25 697 -18 Q 710 -8 702 34 Q 699 70 636 114 L 618 126 Z" fill="red"></path>
</g>
		<text x="40" y="140" font-size="128" fill="#999999">11</text></g>
		<g id="id2:id1:id1" transform="matrix(1.0,0,0,1.0,1024,0.0)">			<g stroke="white" stroke-width="4" transform="scale(4, 4)"> <rect x="1" y="1" width="255" height="255" fill="white" stroke-width="0"/></g>
</g>
		<g id="id2:id2:id2" transform="matrix(1.0,0,0,1.0,2048,0.0)">			<g stroke="white" stroke-width="4" transform="scale(4, 4)"> <rect x="1" y="1" width="255" height="255" fill="white" stroke-width="0"/></g>
</g>
		<g id="id2:id3:id3" transform="matrix(1.0,0,0,1.0,3072,0.0)">			<g stroke="white" stroke-width="4" transform="scale(4, 4)"> <rect x="1" y="1" width="255" height="255" fill="white" stroke-width="0"/></g>
</g>
		<g id="id2:id4:id4" transform="matrix(1.0,0,0,1.0,4096,0.0)">			<g stroke="white" stroke-width="4" transform="scale(4, 4)"> <rect x="1" y="1" width="255" height="255" fill="white" stroke-width="0"/></g>
</g>
</g>
</svg>
