<?xml version="1.0" standalone="no"?>
<!DOCTYPE svg PUBLIC "-//W3C//DTD SVG 1.1//EN"
 "http://www.w3.org/Graphics/SVG/1.1/DTD/svg11.dtd">
<!-- generate by Handict dictionary app com.asnsami.handict -->

<svg xmlns="http://www.w3.org/2000/svg" xmlns:sodipodi="http://sodipodi.sourceforge.net/DTD/sodipodi-0.dtd" version="1.1" width="640" height="256" viewBox="0 0 5120 2048">
	<g id="id0:id0" transform="translate(0.0,0)">
		<g id="id0:id0:id0" transform="matrix(1.0,0,0,1.0,0,0.0)">			<g stroke="lightgray" stroke-width="4" transform="scale(4, 4)"> <rect x="0" y="0" width="256" height="256" fill="white" stroke-width="4"/></g>
			<g transform="scale(0.92, -0.92) translate(60, -920)">					<path d="M 361 693 Q 380 699 401 702 Q 447 712 455 719 Q 464 726 459 736 Q 452 748 422 756 Q 400 760 288 728 Q 195 706 114 698 Q 77 692 103 674 Q 119 665 142 660 Q 146 660 151 658 C 177 652 177 652 201 661 Q 201 662 203 663 Q 264 676 329 687 L 361 693 Z" fill="red"></path>
				<path d="M 151 658 Q 172 622 172 577 Q 173 540 171 216 C 171 186 215 202 215 232 Q 216 298 218 358 L 219 393 Q 220 448 222 500 L 222 535 Q 223 556 224 575 Q 227 636 224 641 Q 214 651 201 661 C 178 680 137 685 151 658 Z" fill="lightgray"></path>
				<path d="M 389 298 Q 390 428 390 568 Q 389 647 392 658 Q 395 670 386 677 Q 377 684 361 693 C 335 709 322 716 329 687 Q 347 651 339 278 L 337 241 Q 328 46 339 22 Q 343 13 351 3 Q 364 -12 373 6 Q 400 58 393 103 Q 390 142 389 265 L 389 298 Z" fill="lightgray"></path>
				<path d="M 222 500 Q 268 510 305 516 Q 327 522 318 533 Q 306 546 282 548 Q 260 549 222 535 C 194 525 193 494 222 500 Z" fill="lightgray"></path>
				<path d="M 218 358 Q 267 368 305 374 Q 327 381 318 393 Q 306 406 280 408 Q 256 409 219 393 C 191 381 189 352 218 358 Z" fill="lightgray"></path>
				<path d="M 389 265 Q 456 296 458 316 Q 452 322 440 318 Q 415 309 389 298 L 339 278 Q 278 256 215 232 L 171 216 Q 83 189 56 187 Q 43 186 41 175 Q 40 162 50 154 Q 72 138 107 122 Q 117 119 128 128 Q 173 164 337 241 L 389 265 Z" fill="lightgray"></path>
				<path d="M 449 492 Q 468 417 488 393 Q 498 384 512 391 Q 522 398 528 413 Q 535 458 477 517 Q 465 529 456 530 Q 450 531 447 520 Q 443 510 449 492 Z" fill="lightgray"></path>
				<path d="M 745 572 Q 733 551 687 491 Q 677 473 694 477 Q 727 492 788 524 Q 807 540 834 550 Q 856 560 846 579 Q 833 598 805 614 Q 780 629 767 626 Q 754 625 758 611 Q 761 592 745 572 Z" fill="lightgray"></path>
				<path d="M 625 411 Q 626 429 628 446 Q 643 690 663 741 Q 670 756 659 768 Q 637 787 595 799 Q 568 806 560 798 Q 550 791 558 778 Q 613 690 570 363 Q 546 260 498 198 Q 465 164 413 128 Q 400 119 400 115 Q 401 111 414 111 Q 427 107 459 121 Q 568 160 605 297 Q 614 330 620 368 L 625 411 Z" fill="lightgray"></path>
				<path d="M 620 368 Q 687 239 778 100 Q 794 76 828 74 Q 940 64 975 67 Q 985 68 989 73 Q 989 79 976 88 Q 844 155 793 207 Q 717 288 631 403 Q 628 407 625 411 C 607 435 606 395 620 368 Z" fill="lightgray"></path>
</g>
		<text x="40" y="140" font-size="128" fill="#999999">1</text></g>
		<g id="id0:id1:id1" transform="matrix(1.0,0,0,1.0,1024,0.0)">			<g stroke="lightgray" stroke-width="4" transform="scale(4, 4)"> <rect x="0" y="0" width="256" height="256" fill="white" stroke-width="4"/></g>
			<g transform="scale(0.92, -0.92) translate(60, -920)">					<path d="M 361 693 Q 380 699 401 702 Q 447 712 455 719 Q 464 726 459 736 Q 452 748 422 756 Q 400 760 288 728 Q 195 706 114 698 Q 77 692 103 674 Q 119 665 142 660 Q 146 660 151 658 C 177 652 177 652 201 661 Q 201 662 203 663 Q 264 676 329 687 L 361 693 Z" fill="black"></path>
				<path d="M 151 658 Q 172 622 172 577 Q 173 540 171 216 C 171 186 215 202 215 232 Q 216 298 218 358 L 219 393 Q 220 448 222 500 L 222 535 Q 223 556 224 575 Q 227 636 224 641 Q 214 651 201 661 C 178 680 137 685 151 658 Z" fill="red"></path>
				<path d="M 389 298 Q 390 428 390 568 Q 389 647 392 658 Q 395 670 386 677 Q 377 684 361 693 C 335 709 322 716 329 687 Q 347 651 339 278 L 337 241 Q 328 46 339 22 Q 343 13 351 3 Q 364 -12 373 6 Q 400 58 393 103 Q 390 142 389 265 L 389 298 Z" fill="lightgray"></path>
				<path d="M 222 500 Q 268 510 305 516 Q 327 522 318 533 Q 306 546 282 548 Q 260 549 222 535 C 194 525 193 494 222 500 Z" fill="lightgray"></path>
				<path d="M 218 358 Q 267 368 305 374 Q 327 381 318 393 Q 306 406 280 408 Q 256 409 219 393 C 191 381 189 352 218 358 Z" fill="lightgray"></path>
				<path d="M 389 265 Q 456 296 458 316 Q 452 322 440 318 Q 415 309 389 298 L 339 278 Q 278 256 215 232 L 171 216 Q 83 189 56 187 Q 43 186 41 175 Q 40 162 50 154 Q 72 138 107 122 Q 117 119 128 128 Q 173 164 337 241 L 389 265 Z" fill="lightgray"></path>
				<path d="M 449 492 Q 468 417 488 393 Q 498 384 512 391 Q 522 398 528 413 Q 535 458 477 517 Q 465 529 456 530 Q 450 531 447 520 Q 443 510 449 492 Z" fill="lightgray"></path>
				<path d="M 745 572 Q 733 551 687 491 Q 677 473 694 477 Q 727 492 788 524 Q 807 540 834 550 Q 856 560 846 579 Q 833 598 805 614 Q 780 629 767 626 Q 754 625 758 611 Q 761 592 745 572 Z" fill="lightgray"></path>
				<path d="M 625 411 Q 626 429 628 446 Q 643 690 663 741 Q 670 756 659 768 Q 637 787 595 799 Q 568 806 560 798 Q 550 791 558 778 Q 613 690 570 363 Q 546 260 498 198 Q 465 164 413 128 Q 400 119 400 115 Q 401 111 414 111 Q 427 107 459 121 Q 568 160 605 297 Q 614 330 620 368 L 625 411 Z" fill="lightgray"></path>
				<path d="M 620 368 Q 687 239 778 100 Q 794 76 828 74 Q 940 64 975 67 Q 985 68 989 73 Q 989 79 976 88 Q 844 155 793 207 Q 717 288 631 403 Q 628 407 625 411 C 607 435 606 395 620 368 Z" fill="lightgray"></path>
</g>
		<text x="40" y="140" font-size="128" fill="#999999">2</text></g>
		<g id="id0:id2:id2" transform="matrix(1.0,0,0,1.0,2048,0.0)">			<g stroke="lightgray" stroke-width="4" transform="scale(4, 4)"> <rect x="0" y="0" width="256" height="256" fill="white" stroke-width="4"/></g>
			<g transform="scale(0.92, -0.92) translate(60, -920)">					<path d="M 361 693 Q 380 699 401 702 Q 447 712 455 719 Q 464 726 459 736 Q 452 748 422 756 Q 400 760 288 728 Q 195 706 114 698 Q 77 692 103 674 Q 119 665 142 660 Q 146 660 151 658 C 177 652 177 652 201 661 Q 201 662 203 663 Q 264 676 329 687 L 361 693 Z" fill="black"></path>
				<path d="M 151 658 Q 172 622 172 577 Q 173 540 171 216 C 171 186 215 202 215 232 Q 216 298 218 358 L 219 393 Q 220 448 222 500 L 222 535 Q 223 556 224 575 Q 227 636 224 641 Q 214 651 201 661 C 178 680 137 685 151 658 Z" fill="black"></path>
				<path d="M 389 298 Q 390 428 390 568 Q 389 647 392 658 Q 395 670 386 677 Q 377 684 361 693 C 335 709 322 716 329 687 Q 347 651 339 278 L 337 241 Q 328 46 339 22 Q 343 13 351 3 Q 364 -12 373 6 Q 400 58 393 103 Q 390 142 389 265 L 389 298 Z" fill="red"></path>
				<path d="M 222 500 Q 268 510 305 516 Q 327 522 318 533 Q 306 546 282 548 Q 260 549 222 535 C 194 525 193 494 222 500 Z" fill="lightgray"></path>
				<path d="M 218 358 Q 267 368 305 374 Q 327 381 318 393 Q 306 406 280 408 Q 256 409 219 393 C 191 381 189 352 218 358 Z" fill="lightgray"></path>
				<path d="M 389 265 Q 456 296 458 316 Q 452 322 440 318 Q 415 309 389 298 L 339 278 Q 278 256 215 232 L 171 216 Q 83 189 56 187 Q 43 186 41 175 Q 40 162 50 154 Q 72 138 107 122 Q 117 119 128 128 Q 173 164 337 241 L 389 265 Z" fill="lightgray"></path>
				<path d="M 449 492 Q 468 417 488 393 Q 498 384 512 391 Q 522 398 528 413 Q 535 458 477 517 Q 465 529 456 530 Q 450 531 447 520 Q 443 510 449 492 Z" fill="lightgray"></path>
				<path d="M 745 572 Q 733 551 687 491 Q 677 473 694 477 Q 727 492 788 524 Q 807 540 834 550 Q 856 560 846 579 Q 833 598 805 614 Q 780 629 767 626 Q 754 625 758 611 Q 761 592 745 572 Z" fill="lightgray"></path>
				<path d="M 625 411 Q 626 429 628 446 Q 643 690 663 741 Q 670 756 659 768 Q 637 787 595 799 Q 568 806 560 798 Q 550 791 558 778 Q 613 690 570 363 Q 546 260 498 198 Q 465 164 413 128 Q 400 119 400 115 Q 401 111 414 111 Q 427 107 459 121 Q 568 160 605 297 Q 614 330 620 368 L 625 411 Z" fill="lightgray"></path>
				<path d="M 620 368 Q 687 239 778 100 Q 794 76 828 74 Q 940 64 975 67 Q 985 68 989 73 Q 989 79 976 88 Q 844 155 793 207 Q 717 288 631 403 Q 628 407 625 411 C 607 435 606 395 620 368 Z" fill="lightgray"></path>
</g>
		<text x="40" y="140" font-size="128" fill="#999999">3</text></g>
		<g id="id0:id3:id3" transform="matrix(1.0,0,0,1.0,3072,0.0)">			<g stroke="lightgray" stroke-width="4" transform="scale(4, 4)"> <rect x="0" y="0" width="256" height="256" fill="white" stroke-width="4"/></g>
			<g transform="scale(0.92, -0.92) translate(60, -920)">					<path d="M 361 693 Q 380 699 401 702 Q 447 712 455 719 Q 464 726 459 736 Q 452 748 422 756 Q 400 760 288 728 Q 195 706 114 698 Q 77 692 103 674 Q 119 665 142 660 Q 146 660 151 658 C 177 652 177 652 201 661 Q 201 662 203 663 Q 264 676 329 687 L 361 693 Z" fill="black"></path>
				<path d="M 151 658 Q 172 622 172 577 Q 173 540 171 216 C 171 186 215 202 215 232 Q 216 298 218 358 L 219 393 Q 220 448 222 500 L 222 535 Q 223 556 224 575 Q 227 636 224 641 Q 214 651 201 661 C 178 680 137 685 151 658 Z" fill="black"></path>
				<path d="M 389 298 Q 390 428 390 568 Q 389 647 392 658 Q 395 670 386 677 Q 377 684 361 693 C 335 709 322 716 329 687 Q 347 651 339 278 L 337 241 Q 328 46 339 22 Q 343 13 351 3 Q 364 -12 373 6 Q 400 58 393 103 Q 390 142 389 265 L 389 298 Z" fill="black"></path>
				<path d="M 222 500 Q 268 510 305 516 Q 327 522 318 533 Q 306 546 282 548 Q 260 549 222 535 C 194 525 193 494 222 500 Z" fill="red"></path>
				<path d="M 218 358 Q 267 368 305 374 Q 327 381 318 393 Q 306 406 280 408 Q 256 409 219 393 C 191 381 189 352 218 358 Z" fill="lightgray"></path>
				<path d="M 389 265 Q 456 296 458 316 Q 452 322 440 318 Q 415 309 389 298 L 339 278 Q 278 256 215 232 L 171 216 Q 83 189 56 187 Q 43 186 41 175 Q 40 162 50 154 Q 72 138 107 122 Q 117 119 128 128 Q 173 164 337 241 L 389 265 Z" fill="lightgray"></path>
				<path d="M 449 492 Q 468 417 488 393 Q 498 384 512 391 Q 522 398 528 413 Q 535 458 477 517 Q 465 529 456 530 Q 450 531 447 520 Q 443 510 449 492 Z" fill="lightgray"></path>
				<path d="M 745 572 Q 733 551 687 491 Q 677 473 694 477 Q 727 492 788 524 Q 807 540 834 550 Q 856 560 846 579 Q 833 598 805 614 Q 780 629 767 626 Q 754 625 758 611 Q 761 592 745 572 Z" fill="lightgray"></path>
				<path d="M 625 411 Q 626 429 628 446 Q 643 690 663 741 Q 670 756 659 768 Q 637 787 595 799 Q 568 806 560 798 Q 550 791 558 778 Q 613 690 570 363 Q 546 260 498 198 Q 465 164 413 128 Q 400 119 400 115 Q 401 111 414 111 Q 427 107 459 121 Q 568 160 605 297 Q 614 330 620 368 L 625 411 Z" fill="lightgray"></path>
				<path d="M 620 368 Q 687 239 778 100 Q 794 76 828 74 Q 940 64 975 67 Q 985 68 989 73 Q 989 79 976 88 Q 844 155 793 207 Q 717 288 631 403 Q 628 407 625 411 C 607 435 606 395 620 368 Z" fill="lightgray"></path>
</g>
		<text x="40" y="140" font-size="128" fill="#999999">4</text></g>
		<g id="id0:id4:id4" transform="matrix(1.0,0,0,1.0,4096,0.0)">			<g stroke="lightgray" stroke-width="4" transform="scale(4, 4)"> <rect x="0" y="0" width="256" height="256" fill="white" stroke-width="4"/></g>
			<g transform="scale(0.92, -0.92) translate(60, -920)">					<path d="M 361 693 Q 380 699 401 702 Q 447 712 455 719 Q 464 726 459 736 Q 452 748 422 756 Q 400 760 288 728 Q 195 706 114 698 Q 77 692 103 674 Q 119 665 142 660 Q 146 660 151 658 C 177 652 177 652 201 661 Q 201 662 203 663 Q 264 676 329 687 L 361 693 Z" fill="black"></path>
				<path d="M 151 658 Q 172 622 172 577 Q 173 540 171 216 C 171 186 215 202 215 232 Q 216 298 218 358 L 219 393 Q 220 448 222 500 L 222 535 Q 223 556 224 575 Q 227 636 224 641 Q 214 651 201 661 C 178 680 137 685 151 658 Z" fill="black"></path>
				<path d="M 389 298 Q 390 428 390 568 Q 389 647 392 658 Q 395 670 386 677 Q 377 684 361 693 C 335 709 322 716 329 687 Q 347 651 339 278 L 337 241 Q 328 46 339 22 Q 343 13 351 3 Q 364 -12 373 6 Q 400 58 393 103 Q 390 142 389 265 L 389 298 Z" fill="black"></path>
				<path d="M 222 500 Q 268 510 305 516 Q 327 522 318 533 Q 306 546 282 548 Q 260 549 222 535 C 194 525 193 494 222 500 Z" fill="black"></path>
				<path d="M 218 358 Q 267 368 305 374 Q 327 381 318 393 Q 306 406 280 408 Q 256 409 219 393 C 191 381 189 352 218 358 Z" fill="red"></path>
				<path d="M 389 265 Q 456 296 458 316 Q 452 322 440 318 Q 415 309 389 298 L 339 278 Q 278 256 215 232 L 171 216 Q 83 189 56 187 Q 43 186 41 175 Q 40 162 50 154 Q 72 138 107 122 Q 117 119 128 128 Q 173 164 337 241 L 389 265 Z" fill="lightgray"></path>
				<path d="M 449 492 Q 468 417 488 393 Q 498 384 512 391 Q 522 398 528 413 Q 535 458 477 517 Q 465 529 456 530 Q 450 531 447 520 Q 443 510 449 492 Z" fill="lightgray"></path>
				<path d="M 745 572 Q 733 551 687 491 Q 677 473 694 477 Q 727 492 788 524 Q 807 540 834 550 Q 856 560 846 579 Q 833 598 805 614 Q 780 629 767 626 Q 754 625 758 611 Q 761 592 745 572 Z" fill="lightgray"></path>
				<path d="M 625 411 Q 626 429 628 446 Q 643 690 663 741 Q 670 756 659 768 Q 637 787 595 799 Q 568 806 560 798 Q 550 791 558 778 Q 613 690 570 363 Q 546 260 498 198 Q 465 164 413 128 Q 400 119 400 115 Q 401 111 414 111 Q 427 107 459 121 Q 568 160 605 297 Q 614 330 620 368 L 625 411 Z" fill="lightgray"></path>
				<path d="M 620 368 Q 687 239 778 100 Q 794 76 828 74 Q 940 64 975 67 Q 985 68 989 73 Q 989 79 976 88 Q 844 155 793 207 Q 717 288 631 403 Q 628 407 625 411 C 607 435 606 395 620 368 Z" fill="lightgray"></path>
</g>
		<text x="40" y="140" font-size="128" fill="#999999">5</text></g>
</g>
	<g id="id1:id1" transform="translate(0.0,1024)">
		<g id="id1:id0:id0" transform="matrix(1.0,0,0,1.0,0,0.0)">			<g stroke="lightgray" stroke-width="4" transform="scale(4, 4)"> <rect x="0" y="0" width="256" height="256" fill="white" stroke-width="4"/></g>
			<g transform="scale(0.92, -0.92) translate(60, -920)">					<path d="M 361 693 Q 380 699 401 702 Q 447 712 455 719 Q 464 726 459 736 Q 452 748 422 756 Q 400 760 288 728 Q 195 706 114 698 Q 77 692 103 674 Q 119 665 142 660 Q 146 660 151 658 C 177 652 177 652 201 661 Q 201 662 203 663 Q 264 676 329 687 L 361 693 Z" fill="black"></path>
				<path d="M 151 658 Q 172 622 172 577 Q 173 540 171 216 C 171 186 215 202 215 232 Q 216 298 218 358 L 219 393 Q 220 448 222 500 L 222 535 Q 223 556 224 575 Q 227 636 224 641 Q 214 651 201 661 C 178 680 137 685 151 658 Z" fill="black"></path>
				<path d="M 389 298 Q 390 428 390 568 Q 389 647 392 658 Q 395 670 386 677 Q 377 684 361 693 C 335 709 322 716 329 687 Q 347 651 339 278 L 337 241 Q 328 46 339 22 Q 343 13 351 3 Q 364 -12 373 6 Q 400 58 393 103 Q 390 142 389 265 L 389 298 Z" fill="black"></path>
				<path d="M 222 500 Q 268 510 305 516 Q 327 522 318 533 Q 306 546 282 548 Q 260 549 222 535 C 194 525 193 494 222 500 Z" fill="black"></path>
				<path d="M 218 358 Q 267 368 305 374 Q 327 381 318 393 Q 306 406 280 408 Q 256 409 219 393 C 191 381 189 352 218 358 Z" fill="black"></path>
				<path d="M 389 265 Q 456 296 458 316 Q 452 322 440 318 Q 415 309 389 298 L 339 278 Q 278 256 215 232 L 171 216 Q 83 189 56 187 Q 43 186 41 175 Q 40 162 50 154 Q 72 138 107 122 Q 117 119 128 128 Q 173 164 337 241 L 389 265 Z" fill="red"></path>
				<path d="M 449 492 Q 468 417 488 393 Q 498 384 512 391 Q 522 398 528 413 Q 535 458 477 517 Q 465 529 456 530 Q 450 531 447 520 Q 443 510 449 492 Z" fill="lightgray"></path>
				<path d="M 745 572 Q 733 551 687 491 Q 677 473 694 477 Q 727 492 788 524 Q 807 540 834 550 Q 856 560 846 579 Q 833 598 805 614 Q 780 629 767 626 Q 754 625 758 611 Q 761 592 745 572 Z" fill="lightgray"></path>
				<path d="M 625 411 Q 626 429 628 446 Q 643 690 663 741 Q 670 756 659 768 Q 637 787 595 799 Q 568 806 560 798 Q 550 791 558 778 Q 613 690 570 363 Q 546 260 498 198 Q 465 164 413 128 Q 400 119 400 115 Q 401 111 414 111 Q 427 107 459 121 Q 568 160 605 297 Q 614 330 620 368 L 625 411 Z" fill="lightgray"></path>
				<path d="M 620 368 Q 687 239 778 100 Q 794 76 828 74 Q 940 64 975 67 Q 985 68 989 73 Q 989 79 976 88 Q 844 155 793 207 Q 717 288 631 403 Q 628 407 625 411 C 607 435 606 395 620 368 Z" fill="lightgray"></path>
</g>
		<text x="40" y="140" font-size="128" fill="#999999">6</text></g>
		<g id="id1:id1:id1" transform="matrix(1.0,0,0,1.0,1024,0.0)">			<g stroke="lightgray" stroke-width="4" transform="scale(4, 4)"> <rect x="0" y="0" width="256" height="256" fill="white" stroke-width="4"/></g>
			<g transform="scale(0.92, -0.92) translate(60, -920)">					<path d="M 361 693 Q 380 699 401 702 Q 447 712 455 719 Q 464 726 459 736 Q 452 748 422 756 Q 400 760 288 728 Q 195 706 114 698 Q 77 692 103 674 Q 119 665 142 660 Q 146 660 151 658 C 177 652 177 652 201 661 Q 201 662 203 663 Q 264 676 329 687 L 361 693 Z" fill="black"></path>
				<path d="M 151 658 Q 172 622 172 577 Q 173 540 171 216 C 171 186 215 202 215 232 Q 216 298 218 358 L 219 393 Q 220 448 222 500 L 222 535 Q 223 556 224 575 Q 227 636 224 641 Q 214 651 201 661 C 178 680 137 685 151 658 Z" fill="black"></path>
				<path d="M 389 298 Q 390 428 390 568 Q 389 647 392 658 Q 395 670 386 677 Q 377 684 361 693 C 335 709 322 716 329 687 Q 347 651 339 278 L 337 241 Q 328 46 339 22 Q 343 13 351 3 Q 364 -12 373 6 Q 400 58 393 103 Q 390 142 389 265 L 389 298 Z" fill="black"></path>
				<path d="M 222 500 Q 268 510 305 516 Q 327 522 318 533 Q 306 546 282 548 Q 260 549 222 535 C 194 525 193 494 222 500 Z" fill="black"></path>
				<path d="M 218 358 Q 267 368 305 374 Q 327 381 318 393 Q 306 406 280 408 Q 256 409 219 393 C 191 381 189 352 218 358 Z" fill="black"></path>
				<path d="M 389 265 Q 456 296 458 316 Q 452 322 440 318 Q 415 309 389 298 L 339 278 Q 278 256 215 232 L 171 216 Q 83 189 56 187 Q 43 186 41 175 Q 40 162 50 154 Q 72 138 107 122 Q 117 119 128 128 Q 173 164 337 241 L 389 265 Z" fill="black"></path>
				<path d="M 449 492 Q 468 417 488 393 Q 498 384 512 391 Q 522 398 528 413 Q 535 458 477 517 Q 465 529 456 530 Q 450 531 447 520 Q 443 510 449 492 Z" fill="red"></path>
				<path d="M 745 572 Q 733 551 687 491 Q 677 473 694 477 Q 727 492 788 524 Q 807 540 834 550 Q 856 560 846 579 Q 833 598 805 614 Q 780 629 767 626 Q 754 625 758 611 Q 761 592 745 572 Z" fill="lightgray"></path>
				<path d="M 625 411 Q 626 429 628 446 Q 643 690 663 741 Q 670 756 659 768 Q 637 787 595 799 Q 568 806 560 798 Q 550 791 558 778 Q 613 690 570 363 Q 546 260 498 198 Q 465 164 413 128 Q 400 119 400 115 Q 401 111 414 111 Q 427 107 459 121 Q 568 160 605 297 Q 614 330 620 368 L 625 411 Z" fill="lightgray"></path>
				<path d="M 620 368 Q 687 239 778 100 Q 794 76 828 74 Q 940 64 975 67 Q 985 68 989 73 Q 989 79 976 88 Q 844 155 793 207 Q 717 288 631 403 Q 628 407 625 411 C 607 435 606 395 620 368 Z" fill="lightgray"></path>
</g>
		<text x="40" y="140" font-size="128" fill="#999999">7</text></g>
		<g id="id1:id2:id2" transform="matrix(1.0,0,0,1.0,2048,0.0)">			<g stroke="lightgray" stroke-width="4" transform="scale(4, 4)"> <rect x="0" y="0" width="256" height="256" fill="white" stroke-width="4"/></g>
			<g transform="scale(0.92, -0.92) translate(60, -920)">					<path d="M 361 693 Q 380 699 401 702 Q 447 712 455 719 Q 464 726 459 736 Q 452 748 422 756 Q 400 760 288 728 Q 195 706 114 698 Q 77 692 103 674 Q 119 665 142 660 Q 146 660 151 658 C 177 652 177 652 201 661 Q 201 662 203 663 Q 264 676 329 687 L 361 693 Z" fill="black"></path>
				<path d="M 151 658 Q 172 622 172 577 Q 173 540 171 216 C 171 186 215 202 215 232 Q 216 298 218 358 L 219 393 Q 220 448 222 500 L 222 535 Q 223 556 224 575 Q 227 636 224 641 Q 214 651 201 661 C 178 680 137 685 151 658 Z" fill="black"></path>
				<path d="M 389 298 Q 390 428 390 568 Q 389 647 392 658 Q 395 670 386 677 Q 377 684 361 693 C 335 709 322 716 329 687 Q 347 651 339 278 L 337 241 Q 328 46 339 22 Q 343 13 351 3 Q 364 -12 373 6 Q 400 58 393 103 Q 390 142 389 265 L 389 298 Z" fill="black"></path>
				<path d="M 222 500 Q 268 510 305 516 Q 327 522 318 533 Q 306 546 282 548 Q 260 549 222 535 C 194 525 193 494 222 500 Z" fill="black"></path>
				<path d="M 218 358 Q 267 368 305 374 Q 327 381 318 393 Q 306 406 280 408 Q 256 409 219 393 C 191 381 189 352 218 358 Z" fill="black"></path>
				<path d="M 389 265 Q 456 296 458 316 Q 452 322 440 318 Q 415 309 389 298 L 339 278 Q 278 256 215 232 L 171 216 Q 83 189 56 187 Q 43 186 41 175 Q 40 162 50 154 Q 72 138 107 122 Q 117 119 128 128 Q 173 164 337 241 L 389 265 Z" fill="black"></path>
				<path d="M 449 492 Q 468 417 488 393 Q 498 384 512 391 Q 522 398 528 413 Q 535 458 477 517 Q 465 529 456 530 Q 450 531 447 520 Q 443 510 449 492 Z" fill="black"></path>
				<path d="M 745 572 Q 733 551 687 491 Q 677 473 694 477 Q 727 492 788 524 Q 807 540 834 550 Q 856 560 846 579 Q 833 598 805 614 Q 780 629 767 626 Q 754 625 758 611 Q 761 592 745 572 Z" fill="red"></path>
				<path d="M 625 411 Q 626 429 628 446 Q 643 690 663 741 Q 670 756 659 768 Q 637 787 595 799 Q 568 806 560 798 Q 550 791 558 778 Q 613 690 570 363 Q 546 260 498 198 Q 465 164 413 128 Q 400 119 400 115 Q 401 111 414 111 Q 427 107 459 121 Q 568 160 605 297 Q 614 330 620 368 L 625 411 Z" fill="lightgray"></path>
				<path d="M 620 368 Q 687 239 778 100 Q 794 76 828 74 Q 940 64 975 67 Q 985 68 989 73 Q 989 79 976 88 Q 844 155 793 207 Q 717 288 631 403 Q 628 407 625 411 C 607 435 606 395 620 368 Z" fill="lightgray"></path>
</g>
		<text x="40" y="140" font-size="128" fill="#999999">8</text></g>
		<g id="id1:id3:id3" transform="matrix(1.0,0,0,1.0,3072,0.0)">			<g stroke="lightgray" stroke-width="4" transform="scale(4, 4)"> <rect x="0" y="0" width="256" height="256" fill="white" stroke-width="4"/></g>
			<g transform="scale(0.92, -0.92) translate(60, -920)">					<path d="M 361 693 Q 380 699 401 702 Q 447 712 455 719 Q 464 726 459 736 Q 452 748 422 756 Q 400 760 288 728 Q 195 706 114 698 Q 77 692 103 674 Q 119 665 142 660 Q 146 660 151 658 C 177 652 177 652 201 661 Q 201 662 203 663 Q 264 676 329 687 L 361 693 Z" fill="black"></path>
				<path d="M 151 658 Q 172 622 172 577 Q 173 540 171 216 C 171 186 215 202 215 232 Q 216 298 218 358 L 219 393 Q 220 448 222 500 L 222 535 Q 223 556 224 575 Q 227 636 224 641 Q 214 651 201 661 C 178 680 137 685 151 658 Z" fill="black"></path>
				<path d="M 389 298 Q 390 428 390 568 Q 389 647 392 658 Q 395 670 386 677 Q 377 684 361 693 C 335 709 322 716 329 687 Q 347 651 339 278 L 337 241 Q 328 46 339 22 Q 343 13 351 3 Q 364 -12 373 6 Q 400 58 393 103 Q 390 142 389 265 L 389 298 Z" fill="black"></path>
				<path d="M 222 500 Q 268 510 305 516 Q 327 522 318 533 Q 306 546 282 548 Q 260 549 222 535 C 194 525 193 494 222 500 Z" fill="black"></path>
				<path d="M 218 358 Q 267 368 305 374 Q 327 381 318 393 Q 306 406 280 408 Q 256 409 219 393 C 191 381 189 352 218 358 Z" fill="black"></path>
				<path d="M 389 265 Q 456 296 458 316 Q 452 322 440 318 Q 415 309 389 298 L 339 278 Q 278 256 215 232 L 171 216 Q 83 189 56 187 Q 43 186 41 175 Q 40 162 50 154 Q 72 138 107 122 Q 117 119 128 128 Q 173 164 337 241 L 389 265 Z" fill="black"></path>
				<path d="M 449 492 Q 468 417 488 393 Q 498 384 512 391 Q 522 398 528 413 Q 535 458 477 517 Q 465 529 456 530 Q 450 531 447 520 Q 443 510 449 492 Z" fill="black"></path>
				<path d="M 745 572 Q 733 551 687 491 Q 677 473 694 477 Q 727 492 788 524 Q 807 540 834 550 Q 856 560 846 579 Q 833 598 805 614 Q 780 629 767 626 Q 754 625 758 611 Q 761 592 745 572 Z" fill="black"></path>
				<path d="M 625 411 Q 626 429 628 446 Q 643 690 663 741 Q 670 756 659 768 Q 637 787 595 799 Q 568 806 560 798 Q 550 791 558 778 Q 613 690 570 363 Q 546 260 498 198 Q 465 164 413 128 Q 400 119 400 115 Q 401 111 414 111 Q 427 107 459 121 Q 568 160 605 297 Q 614 330 620 368 L 625 411 Z" fill="red"></path>
				<path d="M 620 368 Q 687 239 778 100 Q 794 76 828 74 Q 940 64 975 67 Q 985 68 989 73 Q 989 79 976 88 Q 844 155 793 207 Q 717 288 631 403 Q 628 407 625 411 C 607 435 606 395 620 368 Z" fill="lightgray"></path>
</g>
		<text x="40" y="140" font-size="128" fill="#999999">9</text></g>
		<g id="id1:id4:id4" transform="matrix(1.0,0,0,1.0,4096,0.0)">			<g stroke="lightgray" stroke-width="4" transform="scale(4, 4)"> <rect x="0" y="0" width="256" height="256" fill="white" stroke-width="4"/></g>
			<g transform="scale(0.92, -0.92) translate(60, -920)">					<path d="M 361 693 Q 380 699 401 702 Q 447 712 455 719 Q 464 726 459 736 Q 452 748 422 756 Q 400 760 288 728 Q 195 706 114 698 Q 77 692 103 674 Q 119 665 142 660 Q 146 660 151 658 C 177 652 177 652 201 661 Q 201 662 203 663 Q 264 676 329 687 L 361 693 Z" fill="black"></path>
				<path d="M 151 658 Q 172 622 172 577 Q 173 540 171 216 C 171 186 215 202 215 232 Q 216 298 218 358 L 219 393 Q 220 448 222 500 L 222 535 Q 223 556 224 575 Q 227 636 224 641 Q 214 651 201 661 C 178 680 137 685 151 658 Z" fill="black"></path>
				<path d="M 389 298 Q 390 428 390 568 Q 389 647 392 658 Q 395 670 386 677 Q 377 684 361 693 C 335 709 322 716 329 687 Q 347 651 339 278 L 337 241 Q 328 46 339 22 Q 343 13 351 3 Q 364 -12 373 6 Q 400 58 393 103 Q 390 142 389 265 L 389 298 Z" fill="black"></path>
				<path d="M 222 500 Q 268 510 305 516 Q 327 522 318 533 Q 306 546 282 548 Q 260 549 222 535 C 194 525 193 494 222 500 Z" fill="black"></path>
				<path d="M 218 358 Q 267 368 305 374 Q 327 381 318 393 Q 306 406 280 408 Q 256 409 219 393 C 191 381 189 352 218 358 Z" fill="black"></path>
				<path d="M 389 265 Q 456 296 458 316 Q 452 322 440 318 Q 415 309 389 298 L 339 278 Q 278 256 215 232 L 171 216 Q 83 189 56 187 Q 43 186 41 175 Q 40 162 50 154 Q 72 138 107 122 Q 117 119 128 128 Q 173 164 337 241 L 389 265 Z" fill="black"></path>
				<path d="M 449 492 Q 468 417 488 393 Q 498 384 512 391 Q 522 398 528 413 Q 535 458 477 517 Q 465 529 456 530 Q 450 531 447 520 Q 443 510 449 492 Z" fill="black"></path>
				<path d="M 745 572 Q 733 551 687 491 Q 677 473 694 477 Q 727 492 788 524 Q 807 540 834 550 Q 856 560 846 579 Q 833 598 805 614 Q 780 629 767 626 Q 754 625 758 611 Q 761 592 745 572 Z" fill="black"></path>
				<path d="M 625 411 Q 626 429 628 446 Q 643 690 663 741 Q 670 756 659 768 Q 637 787 595 799 Q 568 806 560 798 Q 550 791 558 778 Q 613 690 570 363 Q 546 260 498 198 Q 465 164 413 128 Q 400 119 400 115 Q 401 111 414 111 Q 427 107 459 121 Q 568 160 605 297 Q 614 330 620 368 L 625 411 Z" fill="black"></path>
				<path d="M 620 368 Q 687 239 778 100 Q 794 76 828 74 Q 940 64 975 67 Q 985 68 989 73 Q 989 79 976 88 Q 844 155 793 207 Q 717 288 631 403 Q 628 407 625 411 C 607 435 606 395 620 368 Z" fill="red"></path>
</g>
		<text x="40" y="140" font-size="128" fill="#999999">10</text></g>
</g>
</svg>
