<?xml version="1.0" standalone="no"?>
<!DOCTYPE svg PUBLIC "-//W3C//DTD SVG 1.1//EN"
 "http://www.w3.org/Graphics/SVG/1.1/DTD/svg11.dtd">
<!-- generate by Handict dictionary app com.asnsami.handict -->

<svg xmlns="http://www.w3.org/2000/svg" xmlns:sodipodi="http://sodipodi.sourceforge.net/DTD/sodipodi-0.dtd" version="1.1" width="640" height="256" viewBox="0 0 5120 2048">
	<g id="id0:id0" transform="translate(0.0,0)">
		<g id="id0:id0:id0" transform="matrix(1.0,0,0,1.0,0,0.0)">			<g stroke="lightgray" stroke-width="4" transform="scale(4, 4)"> <rect x="0" y="0" width="256" height="256" fill="white" stroke-width="4"/></g>
			<g transform="scale(0.92, -0.92) translate(60, -920)">					<path d="M 274 630 Q 250 649 225 657 Q 215 658 208 650 Q 204 644 212 632 Q 263 488 214 215 Q 207 181 195 146 Q 185 118 190 97 Q 199 60 211 45 Q 224 30 234 45 Q 271 84 272 232 Q 278 502 290 586 C 294 616 294 616 274 630 Z" fill="red"></path>
				<path d="M 525 629 Q 705 662 724 642 Q 737 635 743 572 Q 759 362 749 124 Q 748 90 735 79 Q 722 69 650 82 Q 632 85 634 75 Q 635 68 649 61 Q 713 16 747 -19 Q 769 -38 783 -36 Q 796 -32 807 -3 Q 823 45 821 114 Q 802 436 803 555 Q 802 597 815 622 Q 827 644 816 657 Q 804 673 754 698 Q 733 708 713 703 Q 655 685 531 661 L 479 653 Q 377 640 274 630 C 244 627 260 581 290 586 Q 297 586 307 588 Q 383 606 473 620 L 525 629 Z" fill="lightgray"></path>
				<path d="M 506 564 Q 509 571 525 629 L 531 661 Q 541 748 556 786 Q 562 796 554 805 Q 538 821 503 837 Q 484 847 467 842 Q 448 835 463 818 Q 488 790 487 760 Q 487 697 479 653 L 473 620 Q 448 509 344 435 Q 332 429 330 426 Q 326 420 341 419 Q 368 415 433 459 Q 472 486 498 542 L 506 564 Z" fill="lightgray"></path>
				<path d="M 498 542 Q 552 505 619 449 Q 632 436 645 434 Q 652 434 656 442 Q 665 454 650 485 Q 635 524 506 564 C 477 573 473 559 498 542 Z" fill="lightgray"></path>
				<path d="M 493 339 Q 514 367 533 390 Q 543 400 532 414 Q 495 447 474 445 Q 464 444 464 431 Q 467 344 369 250 Q 357 243 322 207 Q 313 194 327 197 Q 343 198 366 213 Q 436 259 479 320 L 493 339 Z" fill="lightgray"></path>
				<path d="M 479 320 Q 539 275 612 208 Q 639 178 653 198 Q 662 211 648 246 Q 633 297 493 339 C 464 348 455 338 479 320 Z" fill="lightgray"></path>
</g>
		<text x="40" y="140" font-size="128" fill="#999999">1</text></g>
		<g id="id0:id1:id1" transform="matrix(1.0,0,0,1.0,1024,0.0)">			<g stroke="lightgray" stroke-width="4" transform="scale(4, 4)"> <rect x="0" y="0" width="256" height="256" fill="white" stroke-width="4"/></g>
			<g transform="scale(0.92, -0.92) translate(60, -920)">					<path d="M 274 630 Q 250 649 225 657 Q 215 658 208 650 Q 204 644 212 632 Q 263 488 214 215 Q 207 181 195 146 Q 185 118 190 97 Q 199 60 211 45 Q 224 30 234 45 Q 271 84 272 232 Q 278 502 290 586 C 294 616 294 616 274 630 Z" fill="black"></path>
				<path d="M 525 629 Q 705 662 724 642 Q 737 635 743 572 Q 759 362 749 124 Q 748 90 735 79 Q 722 69 650 82 Q 632 85 634 75 Q 635 68 649 61 Q 713 16 747 -19 Q 769 -38 783 -36 Q 796 -32 807 -3 Q 823 45 821 114 Q 802 436 803 555 Q 802 597 815 622 Q 827 644 816 657 Q 804 673 754 698 Q 733 708 713 703 Q 655 685 531 661 L 479 653 Q 377 640 274 630 C 244 627 260 581 290 586 Q 297 586 307 588 Q 383 606 473 620 L 525 629 Z" fill="red"></path>
				<path d="M 506 564 Q 509 571 525 629 L 531 661 Q 541 748 556 786 Q 562 796 554 805 Q 538 821 503 837 Q 484 847 467 842 Q 448 835 463 818 Q 488 790 487 760 Q 487 697 479 653 L 473 620 Q 448 509 344 435 Q 332 429 330 426 Q 326 420 341 419 Q 368 415 433 459 Q 472 486 498 542 L 506 564 Z" fill="lightgray"></path>
				<path d="M 498 542 Q 552 505 619 449 Q 632 436 645 434 Q 652 434 656 442 Q 665 454 650 485 Q 635 524 506 564 C 477 573 473 559 498 542 Z" fill="lightgray"></path>
				<path d="M 493 339 Q 514 367 533 390 Q 543 400 532 414 Q 495 447 474 445 Q 464 444 464 431 Q 467 344 369 250 Q 357 243 322 207 Q 313 194 327 197 Q 343 198 366 213 Q 436 259 479 320 L 493 339 Z" fill="lightgray"></path>
				<path d="M 479 320 Q 539 275 612 208 Q 639 178 653 198 Q 662 211 648 246 Q 633 297 493 339 C 464 348 455 338 479 320 Z" fill="lightgray"></path>
</g>
		<text x="40" y="140" font-size="128" fill="#999999">2</text></g>
		<g id="id0:id2:id2" transform="matrix(1.0,0,0,1.0,2048,0.0)">			<g stroke="lightgray" stroke-width="4" transform="scale(4, 4)"> <rect x="0" y="0" width="256" height="256" fill="white" stroke-width="4"/></g>
			<g transform="scale(0.92, -0.92) translate(60, -920)">					<path d="M 274 630 Q 250 649 225 657 Q 215 658 208 650 Q 204 644 212 632 Q 263 488 214 215 Q 207 181 195 146 Q 185 118 190 97 Q 199 60 211 45 Q 224 30 234 45 Q 271 84 272 232 Q 278 502 290 586 C 294 616 294 616 274 630 Z" fill="black"></path>
				<path d="M 525 629 Q 705 662 724 642 Q 737 635 743 572 Q 759 362 749 124 Q 748 90 735 79 Q 722 69 650 82 Q 632 85 634 75 Q 635 68 649 61 Q 713 16 747 -19 Q 769 -38 783 -36 Q 796 -32 807 -3 Q 823 45 821 114 Q 802 436 803 555 Q 802 597 815 622 Q 827 644 816 657 Q 804 673 754 698 Q 733 708 713 703 Q 655 685 531 661 L 479 653 Q 377 640 274 630 C 244 627 260 581 290 586 Q 297 586 307 588 Q 383 606 473 620 L 525 629 Z" fill="black"></path>
				<path d="M 506 564 Q 509 571 525 629 L 531 661 Q 541 748 556 786 Q 562 796 554 805 Q 538 821 503 837 Q 484 847 467 842 Q 448 835 463 818 Q 488 790 487 760 Q 487 697 479 653 L 473 620 Q 448 509 344 435 Q 332 429 330 426 Q 326 420 341 419 Q 368 415 433 459 Q 472 486 498 542 L 506 564 Z" fill="red"></path>
				<path d="M 498 542 Q 552 505 619 449 Q 632 436 645 434 Q 652 434 656 442 Q 665 454 650 485 Q 635 524 506 564 C 477 573 473 559 498 542 Z" fill="lightgray"></path>
				<path d="M 493 339 Q 514 367 533 390 Q 543 400 532 414 Q 495 447 474 445 Q 464 444 464 431 Q 467 344 369 250 Q 357 243 322 207 Q 313 194 327 197 Q 343 198 366 213 Q 436 259 479 320 L 493 339 Z" fill="lightgray"></path>
				<path d="M 479 320 Q 539 275 612 208 Q 639 178 653 198 Q 662 211 648 246 Q 633 297 493 339 C 464 348 455 338 479 320 Z" fill="lightgray"></path>
</g>
		<text x="40" y="140" font-size="128" fill="#999999">3</text></g>
		<g id="id0:id3:id3" transform="matrix(1.0,0,0,1.0,3072,0.0)">			<g stroke="lightgray" stroke-width="4" transform="scale(4, 4)"> <rect x="0" y="0" width="256" height="256" fill="white" stroke-width="4"/></g>
			<g transform="scale(0.92, -0.92) translate(60, -920)">					<path d="M 274 630 Q 250 649 225 657 Q 215 658 208 650 Q 204 644 212 632 Q 263 488 214 215 Q 207 181 195 146 Q 185 118 190 97 Q 199 60 211 45 Q 224 30 234 45 Q 271 84 272 232 Q 278 502 290 586 C 294 616 294 616 274 630 Z" fill="black"></path>
				<path d="M 525 629 Q 705 662 724 642 Q 737 635 743 572 Q 759 362 749 124 Q 748 90 735 79 Q 722 69 650 82 Q 632 85 634 75 Q 635 68 649 61 Q 713 16 747 -19 Q 769 -38 783 -36 Q 796 -32 807 -3 Q 823 45 821 114 Q 802 436 803 555 Q 802 597 815 622 Q 827 644 816 657 Q 804 673 754 698 Q 733 708 713 703 Q 655 685 531 661 L 479 653 Q 377 640 274 630 C 244 627 260 581 290 586 Q 297 586 307 588 Q 383 606 473 620 L 525 629 Z" fill="black"></path>
				<path d="M 506 564 Q 509 571 525 629 L 531 661 Q 541 748 556 786 Q 562 796 554 805 Q 538 821 503 837 Q 484 847 467 842 Q 448 835 463 818 Q 488 790 487 760 Q 487 697 479 653 L 473 620 Q 448 509 344 435 Q 332 429 330 426 Q 326 420 341 419 Q 368 415 433 459 Q 472 486 498 542 L 506 564 Z" fill="black"></path>
				<path d="M 498 542 Q 552 505 619 449 Q 632 436 645 434 Q 652 434 656 442 Q 665 454 650 485 Q 635 524 506 564 C 477 573 473 559 498 542 Z" fill="red"></path>
				<path d="M 493 339 Q 514 367 533 390 Q 543 400 532 414 Q 495 447 474 445 Q 464 444 464 431 Q 467 344 369 250 Q 357 243 322 207 Q 313 194 327 197 Q 343 198 366 213 Q 436 259 479 320 L 493 339 Z" fill="lightgray"></path>
				<path d="M 479 320 Q 539 275 612 208 Q 639 178 653 198 Q 662 211 648 246 Q 633 297 493 339 C 464 348 455 338 479 320 Z" fill="lightgray"></path>
</g>
		<text x="40" y="140" font-size="128" fill="#999999">4</text></g>
		<g id="id0:id4:id4" transform="matrix(1.0,0,0,1.0,4096,0.0)">			<g stroke="lightgray" stroke-width="4" transform="scale(4, 4)"> <rect x="0" y="0" width="256" height="256" fill="white" stroke-width="4"/></g>
			<g transform="scale(0.92, -0.92) translate(60, -920)">					<path d="M 274 630 Q 250 649 225 657 Q 215 658 208 650 Q 204 644 212 632 Q 263 488 214 215 Q 207 181 195 146 Q 185 118 190 97 Q 199 60 211 45 Q 224 30 234 45 Q 271 84 272 232 Q 278 502 290 586 C 294 616 294 616 274 630 Z" fill="black"></path>
				<path d="M 525 629 Q 705 662 724 642 Q 737 635 743 572 Q 759 362 749 124 Q 748 90 735 79 Q 722 69 650 82 Q 632 85 634 75 Q 635 68 649 61 Q 713 16 747 -19 Q 769 -38 783 -36 Q 796 -32 807 -3 Q 823 45 821 114 Q 802 436 803 555 Q 802 597 815 622 Q 827 644 816 657 Q 804 673 754 698 Q 733 708 713 703 Q 655 685 531 661 L 479 653 Q 377 640 274 630 C 244 627 260 581 290 586 Q 297 586 307 588 Q 383 606 473 620 L 525 629 Z" fill="black"></path>
				<path d="M 506 564 Q 509 571 525 629 L 531 661 Q 541 748 556 786 Q 562 796 554 805 Q 538 821 503 837 Q 484 847 467 842 Q 448 835 463 818 Q 488 790 487 760 Q 487 697 479 653 L 473 620 Q 448 509 344 435 Q 332 429 330 426 Q 326 420 341 419 Q 368 415 433 459 Q 472 486 498 542 L 506 564 Z" fill="black"></path>
				<path d="M 498 542 Q 552 505 619 449 Q 632 436 645 434 Q 652 434 656 442 Q 665 454 650 485 Q 635 524 506 564 C 477 573 473 559 498 542 Z" fill="black"></path>
				<path d="M 493 339 Q 514 367 533 390 Q 543 400 532 414 Q 495 447 474 445 Q 464 444 464 431 Q 467 344 369 250 Q 357 243 322 207 Q 313 194 327 197 Q 343 198 366 213 Q 436 259 479 320 L 493 339 Z" fill="red"></path>
				<path d="M 479 320 Q 539 275 612 208 Q 639 178 653 198 Q 662 211 648 246 Q 633 297 493 339 C 464 348 455 338 479 320 Z" fill="lightgray"></path>
</g>
		<text x="40" y="140" font-size="128" fill="#999999">5</text></g>
</g>
	<g id="id1:id1" transform="translate(0.0,1024)">
		<g id="id1:id0:id0" transform="matrix(1.0,0,0,1.0,0,0.0)">			<g stroke="lightgray" stroke-width="4" transform="scale(4, 4)"> <rect x="0" y="0" width="256" height="256" fill="white" stroke-width="4"/></g>
			<g transform="scale(0.92, -0.92) translate(60, -920)">					<path d="M 274 630 Q 250 649 225 657 Q 215 658 208 650 Q 204 644 212 632 Q 263 488 214 215 Q 207 181 195 146 Q 185 118 190 97 Q 199 60 211 45 Q 224 30 234 45 Q 271 84 272 232 Q 278 502 290 586 C 294 616 294 616 274 630 Z" fill="black"></path>
				<path d="M 525 629 Q 705 662 724 642 Q 737 635 743 572 Q 759 362 749 124 Q 748 90 735 79 Q 722 69 650 82 Q 632 85 634 75 Q 635 68 649 61 Q 713 16 747 -19 Q 769 -38 783 -36 Q 796 -32 807 -3 Q 823 45 821 114 Q 802 436 803 555 Q 802 597 815 622 Q 827 644 816 657 Q 804 673 754 698 Q 733 708 713 703 Q 655 685 531 661 L 479 653 Q 377 640 274 630 C 244 627 260 581 290 586 Q 297 586 307 588 Q 383 606 473 620 L 525 629 Z" fill="black"></path>
				<path d="M 506 564 Q 509 571 525 629 L 531 661 Q 541 748 556 786 Q 562 796 554 805 Q 538 821 503 837 Q 484 847 467 842 Q 448 835 463 818 Q 488 790 487 760 Q 487 697 479 653 L 473 620 Q 448 509 344 435 Q 332 429 330 426 Q 326 420 341 419 Q 368 415 433 459 Q 472 486 498 542 L 506 564 Z" fill="black"></path>
				<path d="M 498 542 Q 552 505 619 449 Q 632 436 645 434 Q 652 434 656 442 Q 665 454 650 485 Q 635 524 506 564 C 477 573 473 559 498 542 Z" fill="black"></path>
				<path d="M 493 339 Q 514 367 533 390 Q 543 400 532 414 Q 495 447 474 445 Q 464 444 464 431 Q 467 344 369 250 Q 357 243 322 207 Q 313 194 327 197 Q 343 198 366 213 Q 436 259 479 320 L 493 339 Z" fill="black"></path>
				<path d="M 479 320 Q 539 275 612 208 Q 639 178 653 198 Q 662 211 648 246 Q 633 297 493 339 C 464 348 455 338 479 320 Z" fill="red"></path>
</g>
		<text x="40" y="140" font-size="128" fill="#999999">6</text></g>
		<g id="id1:id1:id1" transform="matrix(1.0,0,0,1.0,1024,0.0)">			<g stroke="white" stroke-width="4" transform="scale(4, 4)"> <rect x="1" y="1" width="255" height="255" fill="white" stroke-width="0"/></g>
</g>
		<g id="id1:id2:id2" transform="matrix(1.0,0,0,1.0,2048,0.0)">			<g stroke="white" stroke-width="4" transform="scale(4, 4)"> <rect x="1" y="1" width="255" height="255" fill="white" stroke-width="0"/></g>
</g>
		<g id="id1:id3:id3" transform="matrix(1.0,0,0,1.0,3072,0.0)">			<g stroke="white" stroke-width="4" transform="scale(4, 4)"> <rect x="1" y="1" width="255" height="255" fill="white" stroke-width="0"/></g>
</g>
		<g id="id1:id4:id4" transform="matrix(1.0,0,0,1.0,4096,0.0)">			<g stroke="white" stroke-width="4" transform="scale(4, 4)"> <rect x="1" y="1" width="255" height="255" fill="white" stroke-width="0"/></g>
</g>
</g>
</svg>
