<?xml version="1.0" standalone="no"?>
<!DOCTYPE svg PUBLIC "-//W3C//DTD SVG 1.1//EN"
 "http://www.w3.org/Graphics/SVG/1.1/DTD/svg11.dtd">
<!-- generate by Japanese dictionary app com.asnsami.kanjidictionary -->

<svg xmlns="http://www.w3.org/2000/svg" xmlns:sodipodi="http://sodipodi.sourceforge.net/DTD/sodipodi-0.dtd" version="1.1" width="640" height="256" viewBox="0 0 5120 2048">
	<g id="id0:id0" transform="translate(0.0,0)">
		<g id="id0:id0:id0" transform="matrix(1.0,0,0,1.0,0,0.0)">			<g stroke="lightgray" stroke-width="4" transform="scale(4, 4)"> <rect x="0" y="0" width="256" height="256" fill="white" stroke-width="4"/></g>
			<g transform="scale(0.92, -0.92) translate(60, -920)">					<path d="M 195 377 Q 202 431 206 504 L 207 539 Q 207 647 209 668 C 210 696 210 696 204 700 Q 188 713 160 722 Q 141 729 129 724 Q 119 715 127 703 Q 181 649 146 365 Q 142 334 135 305 Q 113 215 48 78 Q 44 71 42 65 Q 41 55 51 58 Q 85 68 149 205 Q 156 226 164 246 Q 179 292 188 341 L 195 377 Z" fill="red"></path>
				<path d="M 209 668 Q 215 668 284 687 Q 303 691 309 681 Q 316 662 318 631 Q 325 339 310 161 Q 309 133 300 121 Q 294 114 274 120 Q 247 124 219 131 Q 200 137 201 127 Q 259 81 292 44 Q 305 25 321 20 Q 330 16 338 26 Q 380 74 378 130 Q 357 616 384 664 Q 384 667 386 668 Q 398 687 386 698 Q 365 717 328 732 Q 310 739 295 733 Q 267 717 250 711 Q 234 707 204 700 C 175 693 180 661 209 668 Z" fill="lightgray"></path>
				<path d="M 206 504 Q 249 514 282 520 Q 304 526 294 537 Q 282 550 258 551 Q 237 551 207 539 C 179 528 177 497 206 504 Z" fill="lightgray"></path>
				<path d="M 188 341 Q 239 350 276 355 Q 300 361 290 372 Q 278 385 252 389 Q 230 390 195 377 C 167 367 158 336 188 341 Z" fill="lightgray"></path>
				<path d="M 622 550 Q 766 589 772 595 Q 781 604 776 612 Q 769 624 738 630 Q 705 634 624 601 L 575 586 Q 520 573 456 562 Q 419 555 447 539 Q 486 518 556 535 Q 563 538 574 538 L 622 550 Z" fill="lightgray"></path>
				<path d="M 618 315 Q 690 339 719 341 C 749 345 761 384 732 378 Q 671 366 618 351 L 567 336 Q 521 323 485 308 Q 470 304 474 322 Q 486 409 477 423 Q 464 439 441 451 Q 431 457 422 455 Q 412 451 419 433 Q 438 390 430 347 Q 426 307 408 288 Q 392 272 400 259 Q 410 246 427 236 Q 440 230 448 238 Q 466 263 566 296 L 618 315 Z" fill="lightgray"></path>
				<path d="M 719 341 Q 719 320 732 285 Q 739 269 752 280 Q 779 301 787 384 Q 808 454 814 461 Q 823 474 814 489 Q 796 505 766 526 Q 754 533 742 529 Q 735 526 736 513 Q 758 470 732 378 L 719 341 Z" fill="lightgray"></path>
				<path d="M 951 81 Q 929 129 914 212 Q 910 227 905 232 Q 896 239 893 223 Q 869 118 842 100 Q 818 81 713 89 Q 653 101 641 131 Q 617 179 618 315 L 618 351 Q 618 466 622 550 L 624 601 Q 628 703 641 751 Q 648 772 619 793 Q 594 809 574 820 Q 555 832 539 821 Q 527 815 548 788 Q 572 754 573 709 Q 574 669 575 586 L 574 538 Q 571 385 567 336 L 566 296 Q 563 139 618 73 Q 658 25 808 24 Q 875 23 928 42 Q 964 52 951 81 Z" fill="lightgray"></path>
</g>
		<text x="40" y="140" font-size="128" fill="#999999">1</text></g>
		<g id="id0:id1:id1" transform="matrix(1.0,0,0,1.0,1024,0.0)">			<g stroke="lightgray" stroke-width="4" transform="scale(4, 4)"> <rect x="0" y="0" width="256" height="256" fill="white" stroke-width="4"/></g>
			<g transform="scale(0.92, -0.92) translate(60, -920)">					<path d="M 195 377 Q 202 431 206 504 L 207 539 Q 207 647 209 668 C 210 696 210 696 204 700 Q 188 713 160 722 Q 141 729 129 724 Q 119 715 127 703 Q 181 649 146 365 Q 142 334 135 305 Q 113 215 48 78 Q 44 71 42 65 Q 41 55 51 58 Q 85 68 149 205 Q 156 226 164 246 Q 179 292 188 341 L 195 377 Z" fill="black"></path>
				<path d="M 209 668 Q 215 668 284 687 Q 303 691 309 681 Q 316 662 318 631 Q 325 339 310 161 Q 309 133 300 121 Q 294 114 274 120 Q 247 124 219 131 Q 200 137 201 127 Q 259 81 292 44 Q 305 25 321 20 Q 330 16 338 26 Q 380 74 378 130 Q 357 616 384 664 Q 384 667 386 668 Q 398 687 386 698 Q 365 717 328 732 Q 310 739 295 733 Q 267 717 250 711 Q 234 707 204 700 C 175 693 180 661 209 668 Z" fill="red"></path>
				<path d="M 206 504 Q 249 514 282 520 Q 304 526 294 537 Q 282 550 258 551 Q 237 551 207 539 C 179 528 177 497 206 504 Z" fill="lightgray"></path>
				<path d="M 188 341 Q 239 350 276 355 Q 300 361 290 372 Q 278 385 252 389 Q 230 390 195 377 C 167 367 158 336 188 341 Z" fill="lightgray"></path>
				<path d="M 622 550 Q 766 589 772 595 Q 781 604 776 612 Q 769 624 738 630 Q 705 634 624 601 L 575 586 Q 520 573 456 562 Q 419 555 447 539 Q 486 518 556 535 Q 563 538 574 538 L 622 550 Z" fill="lightgray"></path>
				<path d="M 618 315 Q 690 339 719 341 C 749 345 761 384 732 378 Q 671 366 618 351 L 567 336 Q 521 323 485 308 Q 470 304 474 322 Q 486 409 477 423 Q 464 439 441 451 Q 431 457 422 455 Q 412 451 419 433 Q 438 390 430 347 Q 426 307 408 288 Q 392 272 400 259 Q 410 246 427 236 Q 440 230 448 238 Q 466 263 566 296 L 618 315 Z" fill="lightgray"></path>
				<path d="M 719 341 Q 719 320 732 285 Q 739 269 752 280 Q 779 301 787 384 Q 808 454 814 461 Q 823 474 814 489 Q 796 505 766 526 Q 754 533 742 529 Q 735 526 736 513 Q 758 470 732 378 L 719 341 Z" fill="lightgray"></path>
				<path d="M 951 81 Q 929 129 914 212 Q 910 227 905 232 Q 896 239 893 223 Q 869 118 842 100 Q 818 81 713 89 Q 653 101 641 131 Q 617 179 618 315 L 618 351 Q 618 466 622 550 L 624 601 Q 628 703 641 751 Q 648 772 619 793 Q 594 809 574 820 Q 555 832 539 821 Q 527 815 548 788 Q 572 754 573 709 Q 574 669 575 586 L 574 538 Q 571 385 567 336 L 566 296 Q 563 139 618 73 Q 658 25 808 24 Q 875 23 928 42 Q 964 52 951 81 Z" fill="lightgray"></path>
</g>
		<text x="40" y="140" font-size="128" fill="#999999">2</text></g>
		<g id="id0:id2:id2" transform="matrix(1.0,0,0,1.0,2048,0.0)">			<g stroke="lightgray" stroke-width="4" transform="scale(4, 4)"> <rect x="0" y="0" width="256" height="256" fill="white" stroke-width="4"/></g>
			<g transform="scale(0.92, -0.92) translate(60, -920)">					<path d="M 195 377 Q 202 431 206 504 L 207 539 Q 207 647 209 668 C 210 696 210 696 204 700 Q 188 713 160 722 Q 141 729 129 724 Q 119 715 127 703 Q 181 649 146 365 Q 142 334 135 305 Q 113 215 48 78 Q 44 71 42 65 Q 41 55 51 58 Q 85 68 149 205 Q 156 226 164 246 Q 179 292 188 341 L 195 377 Z" fill="black"></path>
				<path d="M 209 668 Q 215 668 284 687 Q 303 691 309 681 Q 316 662 318 631 Q 325 339 310 161 Q 309 133 300 121 Q 294 114 274 120 Q 247 124 219 131 Q 200 137 201 127 Q 259 81 292 44 Q 305 25 321 20 Q 330 16 338 26 Q 380 74 378 130 Q 357 616 384 664 Q 384 667 386 668 Q 398 687 386 698 Q 365 717 328 732 Q 310 739 295 733 Q 267 717 250 711 Q 234 707 204 700 C 175 693 180 661 209 668 Z" fill="black"></path>
				<path d="M 206 504 Q 249 514 282 520 Q 304 526 294 537 Q 282 550 258 551 Q 237 551 207 539 C 179 528 177 497 206 504 Z" fill="red"></path>
				<path d="M 188 341 Q 239 350 276 355 Q 300 361 290 372 Q 278 385 252 389 Q 230 390 195 377 C 167 367 158 336 188 341 Z" fill="lightgray"></path>
				<path d="M 622 550 Q 766 589 772 595 Q 781 604 776 612 Q 769 624 738 630 Q 705 634 624 601 L 575 586 Q 520 573 456 562 Q 419 555 447 539 Q 486 518 556 535 Q 563 538 574 538 L 622 550 Z" fill="lightgray"></path>
				<path d="M 618 315 Q 690 339 719 341 C 749 345 761 384 732 378 Q 671 366 618 351 L 567 336 Q 521 323 485 308 Q 470 304 474 322 Q 486 409 477 423 Q 464 439 441 451 Q 431 457 422 455 Q 412 451 419 433 Q 438 390 430 347 Q 426 307 408 288 Q 392 272 400 259 Q 410 246 427 236 Q 440 230 448 238 Q 466 263 566 296 L 618 315 Z" fill="lightgray"></path>
				<path d="M 719 341 Q 719 320 732 285 Q 739 269 752 280 Q 779 301 787 384 Q 808 454 814 461 Q 823 474 814 489 Q 796 505 766 526 Q 754 533 742 529 Q 735 526 736 513 Q 758 470 732 378 L 719 341 Z" fill="lightgray"></path>
				<path d="M 951 81 Q 929 129 914 212 Q 910 227 905 232 Q 896 239 893 223 Q 869 118 842 100 Q 818 81 713 89 Q 653 101 641 131 Q 617 179 618 315 L 618 351 Q 618 466 622 550 L 624 601 Q 628 703 641 751 Q 648 772 619 793 Q 594 809 574 820 Q 555 832 539 821 Q 527 815 548 788 Q 572 754 573 709 Q 574 669 575 586 L 574 538 Q 571 385 567 336 L 566 296 Q 563 139 618 73 Q 658 25 808 24 Q 875 23 928 42 Q 964 52 951 81 Z" fill="lightgray"></path>
</g>
		<text x="40" y="140" font-size="128" fill="#999999">3</text></g>
		<g id="id0:id3:id3" transform="matrix(1.0,0,0,1.0,3072,0.0)">			<g stroke="lightgray" stroke-width="4" transform="scale(4, 4)"> <rect x="0" y="0" width="256" height="256" fill="white" stroke-width="4"/></g>
			<g transform="scale(0.92, -0.92) translate(60, -920)">					<path d="M 195 377 Q 202 431 206 504 L 207 539 Q 207 647 209 668 C 210 696 210 696 204 700 Q 188 713 160 722 Q 141 729 129 724 Q 119 715 127 703 Q 181 649 146 365 Q 142 334 135 305 Q 113 215 48 78 Q 44 71 42 65 Q 41 55 51 58 Q 85 68 149 205 Q 156 226 164 246 Q 179 292 188 341 L 195 377 Z" fill="black"></path>
				<path d="M 209 668 Q 215 668 284 687 Q 303 691 309 681 Q 316 662 318 631 Q 325 339 310 161 Q 309 133 300 121 Q 294 114 274 120 Q 247 124 219 131 Q 200 137 201 127 Q 259 81 292 44 Q 305 25 321 20 Q 330 16 338 26 Q 380 74 378 130 Q 357 616 384 664 Q 384 667 386 668 Q 398 687 386 698 Q 365 717 328 732 Q 310 739 295 733 Q 267 717 250 711 Q 234 707 204 700 C 175 693 180 661 209 668 Z" fill="black"></path>
				<path d="M 206 504 Q 249 514 282 520 Q 304 526 294 537 Q 282 550 258 551 Q 237 551 207 539 C 179 528 177 497 206 504 Z" fill="black"></path>
				<path d="M 188 341 Q 239 350 276 355 Q 300 361 290 372 Q 278 385 252 389 Q 230 390 195 377 C 167 367 158 336 188 341 Z" fill="red"></path>
				<path d="M 622 550 Q 766 589 772 595 Q 781 604 776 612 Q 769 624 738 630 Q 705 634 624 601 L 575 586 Q 520 573 456 562 Q 419 555 447 539 Q 486 518 556 535 Q 563 538 574 538 L 622 550 Z" fill="lightgray"></path>
				<path d="M 618 315 Q 690 339 719 341 C 749 345 761 384 732 378 Q 671 366 618 351 L 567 336 Q 521 323 485 308 Q 470 304 474 322 Q 486 409 477 423 Q 464 439 441 451 Q 431 457 422 455 Q 412 451 419 433 Q 438 390 430 347 Q 426 307 408 288 Q 392 272 400 259 Q 410 246 427 236 Q 440 230 448 238 Q 466 263 566 296 L 618 315 Z" fill="lightgray"></path>
				<path d="M 719 341 Q 719 320 732 285 Q 739 269 752 280 Q 779 301 787 384 Q 808 454 814 461 Q 823 474 814 489 Q 796 505 766 526 Q 754 533 742 529 Q 735 526 736 513 Q 758 470 732 378 L 719 341 Z" fill="lightgray"></path>
				<path d="M 951 81 Q 929 129 914 212 Q 910 227 905 232 Q 896 239 893 223 Q 869 118 842 100 Q 818 81 713 89 Q 653 101 641 131 Q 617 179 618 315 L 618 351 Q 618 466 622 550 L 624 601 Q 628 703 641 751 Q 648 772 619 793 Q 594 809 574 820 Q 555 832 539 821 Q 527 815 548 788 Q 572 754 573 709 Q 574 669 575 586 L 574 538 Q 571 385 567 336 L 566 296 Q 563 139 618 73 Q 658 25 808 24 Q 875 23 928 42 Q 964 52 951 81 Z" fill="lightgray"></path>
</g>
		<text x="40" y="140" font-size="128" fill="#999999">4</text></g>
		<g id="id0:id4:id4" transform="matrix(1.0,0,0,1.0,4096,0.0)">			<g stroke="lightgray" stroke-width="4" transform="scale(4, 4)"> <rect x="0" y="0" width="256" height="256" fill="white" stroke-width="4"/></g>
			<g transform="scale(0.92, -0.92) translate(60, -920)">					<path d="M 195 377 Q 202 431 206 504 L 207 539 Q 207 647 209 668 C 210 696 210 696 204 700 Q 188 713 160 722 Q 141 729 129 724 Q 119 715 127 703 Q 181 649 146 365 Q 142 334 135 305 Q 113 215 48 78 Q 44 71 42 65 Q 41 55 51 58 Q 85 68 149 205 Q 156 226 164 246 Q 179 292 188 341 L 195 377 Z" fill="black"></path>
				<path d="M 209 668 Q 215 668 284 687 Q 303 691 309 681 Q 316 662 318 631 Q 325 339 310 161 Q 309 133 300 121 Q 294 114 274 120 Q 247 124 219 131 Q 200 137 201 127 Q 259 81 292 44 Q 305 25 321 20 Q 330 16 338 26 Q 380 74 378 130 Q 357 616 384 664 Q 384 667 386 668 Q 398 687 386 698 Q 365 717 328 732 Q 310 739 295 733 Q 267 717 250 711 Q 234 707 204 700 C 175 693 180 661 209 668 Z" fill="black"></path>
				<path d="M 206 504 Q 249 514 282 520 Q 304 526 294 537 Q 282 550 258 551 Q 237 551 207 539 C 179 528 177 497 206 504 Z" fill="black"></path>
				<path d="M 188 341 Q 239 350 276 355 Q 300 361 290 372 Q 278 385 252 389 Q 230 390 195 377 C 167 367 158 336 188 341 Z" fill="black"></path>
				<path d="M 622 550 Q 766 589 772 595 Q 781 604 776 612 Q 769 624 738 630 Q 705 634 624 601 L 575 586 Q 520 573 456 562 Q 419 555 447 539 Q 486 518 556 535 Q 563 538 574 538 L 622 550 Z" fill="red"></path>
				<path d="M 618 315 Q 690 339 719 341 C 749 345 761 384 732 378 Q 671 366 618 351 L 567 336 Q 521 323 485 308 Q 470 304 474 322 Q 486 409 477 423 Q 464 439 441 451 Q 431 457 422 455 Q 412 451 419 433 Q 438 390 430 347 Q 426 307 408 288 Q 392 272 400 259 Q 410 246 427 236 Q 440 230 448 238 Q 466 263 566 296 L 618 315 Z" fill="lightgray"></path>
				<path d="M 719 341 Q 719 320 732 285 Q 739 269 752 280 Q 779 301 787 384 Q 808 454 814 461 Q 823 474 814 489 Q 796 505 766 526 Q 754 533 742 529 Q 735 526 736 513 Q 758 470 732 378 L 719 341 Z" fill="lightgray"></path>
				<path d="M 951 81 Q 929 129 914 212 Q 910 227 905 232 Q 896 239 893 223 Q 869 118 842 100 Q 818 81 713 89 Q 653 101 641 131 Q 617 179 618 315 L 618 351 Q 618 466 622 550 L 624 601 Q 628 703 641 751 Q 648 772 619 793 Q 594 809 574 820 Q 555 832 539 821 Q 527 815 548 788 Q 572 754 573 709 Q 574 669 575 586 L 574 538 Q 571 385 567 336 L 566 296 Q 563 139 618 73 Q 658 25 808 24 Q 875 23 928 42 Q 964 52 951 81 Z" fill="lightgray"></path>
</g>
		<text x="40" y="140" font-size="128" fill="#999999">5</text></g>
</g>
	<g id="id1:id1" transform="translate(0.0,1024)">
		<g id="id1:id0:id0" transform="matrix(1.0,0,0,1.0,0,0.0)">			<g stroke="lightgray" stroke-width="4" transform="scale(4, 4)"> <rect x="0" y="0" width="256" height="256" fill="white" stroke-width="4"/></g>
			<g transform="scale(0.92, -0.92) translate(60, -920)">					<path d="M 195 377 Q 202 431 206 504 L 207 539 Q 207 647 209 668 C 210 696 210 696 204 700 Q 188 713 160 722 Q 141 729 129 724 Q 119 715 127 703 Q 181 649 146 365 Q 142 334 135 305 Q 113 215 48 78 Q 44 71 42 65 Q 41 55 51 58 Q 85 68 149 205 Q 156 226 164 246 Q 179 292 188 341 L 195 377 Z" fill="black"></path>
				<path d="M 209 668 Q 215 668 284 687 Q 303 691 309 681 Q 316 662 318 631 Q 325 339 310 161 Q 309 133 300 121 Q 294 114 274 120 Q 247 124 219 131 Q 200 137 201 127 Q 259 81 292 44 Q 305 25 321 20 Q 330 16 338 26 Q 380 74 378 130 Q 357 616 384 664 Q 384 667 386 668 Q 398 687 386 698 Q 365 717 328 732 Q 310 739 295 733 Q 267 717 250 711 Q 234 707 204 700 C 175 693 180 661 209 668 Z" fill="black"></path>
				<path d="M 206 504 Q 249 514 282 520 Q 304 526 294 537 Q 282 550 258 551 Q 237 551 207 539 C 179 528 177 497 206 504 Z" fill="black"></path>
				<path d="M 188 341 Q 239 350 276 355 Q 300 361 290 372 Q 278 385 252 389 Q 230 390 195 377 C 167 367 158 336 188 341 Z" fill="black"></path>
				<path d="M 622 550 Q 766 589 772 595 Q 781 604 776 612 Q 769 624 738 630 Q 705 634 624 601 L 575 586 Q 520 573 456 562 Q 419 555 447 539 Q 486 518 556 535 Q 563 538 574 538 L 622 550 Z" fill="black"></path>
				<path d="M 618 315 Q 690 339 719 341 C 749 345 761 384 732 378 Q 671 366 618 351 L 567 336 Q 521 323 485 308 Q 470 304 474 322 Q 486 409 477 423 Q 464 439 441 451 Q 431 457 422 455 Q 412 451 419 433 Q 438 390 430 347 Q 426 307 408 288 Q 392 272 400 259 Q 410 246 427 236 Q 440 230 448 238 Q 466 263 566 296 L 618 315 Z" fill="red"></path>
				<path d="M 719 341 Q 719 320 732 285 Q 739 269 752 280 Q 779 301 787 384 Q 808 454 814 461 Q 823 474 814 489 Q 796 505 766 526 Q 754 533 742 529 Q 735 526 736 513 Q 758 470 732 378 L 719 341 Z" fill="lightgray"></path>
				<path d="M 951 81 Q 929 129 914 212 Q 910 227 905 232 Q 896 239 893 223 Q 869 118 842 100 Q 818 81 713 89 Q 653 101 641 131 Q 617 179 618 315 L 618 351 Q 618 466 622 550 L 624 601 Q 628 703 641 751 Q 648 772 619 793 Q 594 809 574 820 Q 555 832 539 821 Q 527 815 548 788 Q 572 754 573 709 Q 574 669 575 586 L 574 538 Q 571 385 567 336 L 566 296 Q 563 139 618 73 Q 658 25 808 24 Q 875 23 928 42 Q 964 52 951 81 Z" fill="lightgray"></path>
</g>
		<text x="40" y="140" font-size="128" fill="#999999">6</text></g>
		<g id="id1:id1:id1" transform="matrix(1.0,0,0,1.0,1024,0.0)">			<g stroke="lightgray" stroke-width="4" transform="scale(4, 4)"> <rect x="0" y="0" width="256" height="256" fill="white" stroke-width="4"/></g>
			<g transform="scale(0.92, -0.92) translate(60, -920)">					<path d="M 195 377 Q 202 431 206 504 L 207 539 Q 207 647 209 668 C 210 696 210 696 204 700 Q 188 713 160 722 Q 141 729 129 724 Q 119 715 127 703 Q 181 649 146 365 Q 142 334 135 305 Q 113 215 48 78 Q 44 71 42 65 Q 41 55 51 58 Q 85 68 149 205 Q 156 226 164 246 Q 179 292 188 341 L 195 377 Z" fill="black"></path>
				<path d="M 209 668 Q 215 668 284 687 Q 303 691 309 681 Q 316 662 318 631 Q 325 339 310 161 Q 309 133 300 121 Q 294 114 274 120 Q 247 124 219 131 Q 200 137 201 127 Q 259 81 292 44 Q 305 25 321 20 Q 330 16 338 26 Q 380 74 378 130 Q 357 616 384 664 Q 384 667 386 668 Q 398 687 386 698 Q 365 717 328 732 Q 310 739 295 733 Q 267 717 250 711 Q 234 707 204 700 C 175 693 180 661 209 668 Z" fill="black"></path>
				<path d="M 206 504 Q 249 514 282 520 Q 304 526 294 537 Q 282 550 258 551 Q 237 551 207 539 C 179 528 177 497 206 504 Z" fill="black"></path>
				<path d="M 188 341 Q 239 350 276 355 Q 300 361 290 372 Q 278 385 252 389 Q 230 390 195 377 C 167 367 158 336 188 341 Z" fill="black"></path>
				<path d="M 622 550 Q 766 589 772 595 Q 781 604 776 612 Q 769 624 738 630 Q 705 634 624 601 L 575 586 Q 520 573 456 562 Q 419 555 447 539 Q 486 518 556 535 Q 563 538 574 538 L 622 550 Z" fill="black"></path>
				<path d="M 618 315 Q 690 339 719 341 C 749 345 761 384 732 378 Q 671 366 618 351 L 567 336 Q 521 323 485 308 Q 470 304 474 322 Q 486 409 477 423 Q 464 439 441 451 Q 431 457 422 455 Q 412 451 419 433 Q 438 390 430 347 Q 426 307 408 288 Q 392 272 400 259 Q 410 246 427 236 Q 440 230 448 238 Q 466 263 566 296 L 618 315 Z" fill="black"></path>
				<path d="M 719 341 Q 719 320 732 285 Q 739 269 752 280 Q 779 301 787 384 Q 808 454 814 461 Q 823 474 814 489 Q 796 505 766 526 Q 754 533 742 529 Q 735 526 736 513 Q 758 470 732 378 L 719 341 Z" fill="red"></path>
				<path d="M 951 81 Q 929 129 914 212 Q 910 227 905 232 Q 896 239 893 223 Q 869 118 842 100 Q 818 81 713 89 Q 653 101 641 131 Q 617 179 618 315 L 618 351 Q 618 466 622 550 L 624 601 Q 628 703 641 751 Q 648 772 619 793 Q 594 809 574 820 Q 555 832 539 821 Q 527 815 548 788 Q 572 754 573 709 Q 574 669 575 586 L 574 538 Q 571 385 567 336 L 566 296 Q 563 139 618 73 Q 658 25 808 24 Q 875 23 928 42 Q 964 52 951 81 Z" fill="lightgray"></path>
</g>
		<text x="40" y="140" font-size="128" fill="#999999">7</text></g>
		<g id="id1:id2:id2" transform="matrix(1.0,0,0,1.0,2048,0.0)">			<g stroke="lightgray" stroke-width="4" transform="scale(4, 4)"> <rect x="0" y="0" width="256" height="256" fill="white" stroke-width="4"/></g>
			<g transform="scale(0.92, -0.92) translate(60, -920)">					<path d="M 195 377 Q 202 431 206 504 L 207 539 Q 207 647 209 668 C 210 696 210 696 204 700 Q 188 713 160 722 Q 141 729 129 724 Q 119 715 127 703 Q 181 649 146 365 Q 142 334 135 305 Q 113 215 48 78 Q 44 71 42 65 Q 41 55 51 58 Q 85 68 149 205 Q 156 226 164 246 Q 179 292 188 341 L 195 377 Z" fill="black"></path>
				<path d="M 209 668 Q 215 668 284 687 Q 303 691 309 681 Q 316 662 318 631 Q 325 339 310 161 Q 309 133 300 121 Q 294 114 274 120 Q 247 124 219 131 Q 200 137 201 127 Q 259 81 292 44 Q 305 25 321 20 Q 330 16 338 26 Q 380 74 378 130 Q 357 616 384 664 Q 384 667 386 668 Q 398 687 386 698 Q 365 717 328 732 Q 310 739 295 733 Q 267 717 250 711 Q 234 707 204 700 C 175 693 180 661 209 668 Z" fill="black"></path>
				<path d="M 206 504 Q 249 514 282 520 Q 304 526 294 537 Q 282 550 258 551 Q 237 551 207 539 C 179 528 177 497 206 504 Z" fill="black"></path>
				<path d="M 188 341 Q 239 350 276 355 Q 300 361 290 372 Q 278 385 252 389 Q 230 390 195 377 C 167 367 158 336 188 341 Z" fill="black"></path>
				<path d="M 622 550 Q 766 589 772 595 Q 781 604 776 612 Q 769 624 738 630 Q 705 634 624 601 L 575 586 Q 520 573 456 562 Q 419 555 447 539 Q 486 518 556 535 Q 563 538 574 538 L 622 550 Z" fill="black"></path>
				<path d="M 618 315 Q 690 339 719 341 C 749 345 761 384 732 378 Q 671 366 618 351 L 567 336 Q 521 323 485 308 Q 470 304 474 322 Q 486 409 477 423 Q 464 439 441 451 Q 431 457 422 455 Q 412 451 419 433 Q 438 390 430 347 Q 426 307 408 288 Q 392 272 400 259 Q 410 246 427 236 Q 440 230 448 238 Q 466 263 566 296 L 618 315 Z" fill="black"></path>
				<path d="M 719 341 Q 719 320 732 285 Q 739 269 752 280 Q 779 301 787 384 Q 808 454 814 461 Q 823 474 814 489 Q 796 505 766 526 Q 754 533 742 529 Q 735 526 736 513 Q 758 470 732 378 L 719 341 Z" fill="black"></path>
				<path d="M 951 81 Q 929 129 914 212 Q 910 227 905 232 Q 896 239 893 223 Q 869 118 842 100 Q 818 81 713 89 Q 653 101 641 131 Q 617 179 618 315 L 618 351 Q 618 466 622 550 L 624 601 Q 628 703 641 751 Q 648 772 619 793 Q 594 809 574 820 Q 555 832 539 821 Q 527 815 548 788 Q 572 754 573 709 Q 574 669 575 586 L 574 538 Q 571 385 567 336 L 566 296 Q 563 139 618 73 Q 658 25 808 24 Q 875 23 928 42 Q 964 52 951 81 Z" fill="red"></path>
</g>
		<text x="40" y="140" font-size="128" fill="#999999">8</text></g>
		<g id="id1:id3:id3" transform="matrix(1.0,0,0,1.0,3072,0.0)">			<g stroke="white" stroke-width="4" transform="scale(4, 4)"> <rect x="1" y="1" width="255" height="255" fill="white" stroke-width="0"/></g>
</g>
		<g id="id1:id4:id4" transform="matrix(1.0,0,0,1.0,4096,0.0)">			<g stroke="white" stroke-width="4" transform="scale(4, 4)"> <rect x="1" y="1" width="255" height="255" fill="white" stroke-width="0"/></g>
</g>
</g>
</svg>
