<?xml version="1.0" standalone="no"?>
<!DOCTYPE svg PUBLIC "-//W3C//DTD SVG 1.1//EN"
 "http://www.w3.org/Graphics/SVG/1.1/DTD/svg11.dtd">
<!-- generate by Handict dictionary app com.asnsami.handict -->

<svg xmlns="http://www.w3.org/2000/svg" xmlns:sodipodi="http://sodipodi.sourceforge.net/DTD/sodipodi-0.dtd" version="1.1" width="640" height="256" viewBox="0 0 5120 2048">
	<g id="id0:id0" transform="translate(0.0,0)">
		<g id="id0:id0:id0" transform="matrix(1.0,0,0,1.0,0,0.0)">			<g stroke="lightgray" stroke-width="4" transform="scale(4, 4)"> <rect x="0" y="0" width="256" height="256" fill="white" stroke-width="4"/></g>
			<g transform="scale(0.92, -0.92) translate(60, -920)">					<path d="M 231 357 Q 238 382 242 479 L 244 514 Q 244 668 250 674 C 253 692 253 692 235 702 Q 222 711 201 718 Q 182 725 171 720 Q 161 713 168 701 Q 187 674 194 619 Q 194 409 182 329 Q 176 296 169 264 Q 139 156 68 17 Q 64 10 62 5 Q 61 -5 71 -2 Q 89 1 118 54 Q 185 142 225 321 L 231 357 Z" fill="red"></path>
				<path d="M 250 674 Q 259 675 328 696 Q 346 703 352 693 Q 364 660 369 364 Q 366 133 354 114 Q 350 108 332 113 Q 304 120 274 130 Q 255 137 256 128 Q 313 77 344 40 Q 357 21 371 17 Q 380 13 388 23 Q 427 68 426 120 Q 404 519 414 648 Q 417 670 424 682 Q 434 701 423 710 Q 404 728 368 741 Q 349 750 307 724 Q 283 712 235 702 C 206 695 221 667 250 674 Z" fill="lightgray"></path>
				<path d="M 242 479 Q 288 489 325 496 Q 347 502 338 513 Q 326 526 302 528 Q 280 529 244 514 C 216 503 213 473 242 479 Z" fill="lightgray"></path>
				<path d="M 225 321 Q 279 327 319 333 Q 344 339 334 352 Q 321 367 295 370 Q 270 371 231 357 C 203 347 195 318 225 321 Z" fill="lightgray"></path>
				<path d="M 796 502 Q 688 487 573 460 Q 560 456 556 459 Q 552 463 560 478 Q 684 683 712 719 Q 725 729 717 743 Q 710 756 658 777 Q 639 784 630 780 Q 617 773 624 751 Q 645 691 536 517 Q 514 478 462 441 Q 447 428 452 416 Q 459 398 486 378 Q 499 368 512 379 Q 569 421 816 476 C 845 483 826 506 796 502 Z" fill="lightgray"></path>
				<path d="M 816 476 Q 858 422 869 420 Q 879 419 885 429 Q 892 441 890 467 Q 887 518 767 586 Q 754 592 748 591 Q 744 588 742 577 L 796 502 L 816 476 Z" fill="lightgray"></path>
				<path d="M 532 303 Q 522 309 497 313 Q 484 317 481 312 Q 474 306 482 290 Q 510 220 524 109 Q 525 75 544 52 Q 560 30 567 45 Q 571 58 572 78 L 570 115 Q 555 235 550 270 C 546 297 546 297 532 303 Z" fill="lightgray"></path>
				<path d="M 796 147 Q 821 243 859 272 Q 877 291 861 311 Q 782 371 726 344 Q 645 319 532 303 C 502 299 520 266 550 270 Q 559 270 731 298 Q 750 302 757 293 Q 773 277 744 149 C 737 120 788 118 796 147 Z" fill="lightgray"></path>
				<path d="M 572 78 Q 578 78 586 79 Q 659 95 815 108 Q 825 109 828 118 Q 828 127 796 147 C 780 157 773 156 744 149 Q 647 127 570 115 C 540 110 542 77 572 78 Z" fill="lightgray"></path>
</g>
		<text x="40" y="140" font-size="128" fill="#999999">1</text></g>
		<g id="id0:id1:id1" transform="matrix(1.0,0,0,1.0,1024,0.0)">			<g stroke="lightgray" stroke-width="4" transform="scale(4, 4)"> <rect x="0" y="0" width="256" height="256" fill="white" stroke-width="4"/></g>
			<g transform="scale(0.92, -0.92) translate(60, -920)">					<path d="M 231 357 Q 238 382 242 479 L 244 514 Q 244 668 250 674 C 253 692 253 692 235 702 Q 222 711 201 718 Q 182 725 171 720 Q 161 713 168 701 Q 187 674 194 619 Q 194 409 182 329 Q 176 296 169 264 Q 139 156 68 17 Q 64 10 62 5 Q 61 -5 71 -2 Q 89 1 118 54 Q 185 142 225 321 L 231 357 Z" fill="black"></path>
				<path d="M 250 674 Q 259 675 328 696 Q 346 703 352 693 Q 364 660 369 364 Q 366 133 354 114 Q 350 108 332 113 Q 304 120 274 130 Q 255 137 256 128 Q 313 77 344 40 Q 357 21 371 17 Q 380 13 388 23 Q 427 68 426 120 Q 404 519 414 648 Q 417 670 424 682 Q 434 701 423 710 Q 404 728 368 741 Q 349 750 307 724 Q 283 712 235 702 C 206 695 221 667 250 674 Z" fill="red"></path>
				<path d="M 242 479 Q 288 489 325 496 Q 347 502 338 513 Q 326 526 302 528 Q 280 529 244 514 C 216 503 213 473 242 479 Z" fill="lightgray"></path>
				<path d="M 225 321 Q 279 327 319 333 Q 344 339 334 352 Q 321 367 295 370 Q 270 371 231 357 C 203 347 195 318 225 321 Z" fill="lightgray"></path>
				<path d="M 796 502 Q 688 487 573 460 Q 560 456 556 459 Q 552 463 560 478 Q 684 683 712 719 Q 725 729 717 743 Q 710 756 658 777 Q 639 784 630 780 Q 617 773 624 751 Q 645 691 536 517 Q 514 478 462 441 Q 447 428 452 416 Q 459 398 486 378 Q 499 368 512 379 Q 569 421 816 476 C 845 483 826 506 796 502 Z" fill="lightgray"></path>
				<path d="M 816 476 Q 858 422 869 420 Q 879 419 885 429 Q 892 441 890 467 Q 887 518 767 586 Q 754 592 748 591 Q 744 588 742 577 L 796 502 L 816 476 Z" fill="lightgray"></path>
				<path d="M 532 303 Q 522 309 497 313 Q 484 317 481 312 Q 474 306 482 290 Q 510 220 524 109 Q 525 75 544 52 Q 560 30 567 45 Q 571 58 572 78 L 570 115 Q 555 235 550 270 C 546 297 546 297 532 303 Z" fill="lightgray"></path>
				<path d="M 796 147 Q 821 243 859 272 Q 877 291 861 311 Q 782 371 726 344 Q 645 319 532 303 C 502 299 520 266 550 270 Q 559 270 731 298 Q 750 302 757 293 Q 773 277 744 149 C 737 120 788 118 796 147 Z" fill="lightgray"></path>
				<path d="M 572 78 Q 578 78 586 79 Q 659 95 815 108 Q 825 109 828 118 Q 828 127 796 147 C 780 157 773 156 744 149 Q 647 127 570 115 C 540 110 542 77 572 78 Z" fill="lightgray"></path>
</g>
		<text x="40" y="140" font-size="128" fill="#999999">2</text></g>
		<g id="id0:id2:id2" transform="matrix(1.0,0,0,1.0,2048,0.0)">			<g stroke="lightgray" stroke-width="4" transform="scale(4, 4)"> <rect x="0" y="0" width="256" height="256" fill="white" stroke-width="4"/></g>
			<g transform="scale(0.92, -0.92) translate(60, -920)">					<path d="M 231 357 Q 238 382 242 479 L 244 514 Q 244 668 250 674 C 253 692 253 692 235 702 Q 222 711 201 718 Q 182 725 171 720 Q 161 713 168 701 Q 187 674 194 619 Q 194 409 182 329 Q 176 296 169 264 Q 139 156 68 17 Q 64 10 62 5 Q 61 -5 71 -2 Q 89 1 118 54 Q 185 142 225 321 L 231 357 Z" fill="black"></path>
				<path d="M 250 674 Q 259 675 328 696 Q 346 703 352 693 Q 364 660 369 364 Q 366 133 354 114 Q 350 108 332 113 Q 304 120 274 130 Q 255 137 256 128 Q 313 77 344 40 Q 357 21 371 17 Q 380 13 388 23 Q 427 68 426 120 Q 404 519 414 648 Q 417 670 424 682 Q 434 701 423 710 Q 404 728 368 741 Q 349 750 307 724 Q 283 712 235 702 C 206 695 221 667 250 674 Z" fill="black"></path>
				<path d="M 242 479 Q 288 489 325 496 Q 347 502 338 513 Q 326 526 302 528 Q 280 529 244 514 C 216 503 213 473 242 479 Z" fill="red"></path>
				<path d="M 225 321 Q 279 327 319 333 Q 344 339 334 352 Q 321 367 295 370 Q 270 371 231 357 C 203 347 195 318 225 321 Z" fill="lightgray"></path>
				<path d="M 796 502 Q 688 487 573 460 Q 560 456 556 459 Q 552 463 560 478 Q 684 683 712 719 Q 725 729 717 743 Q 710 756 658 777 Q 639 784 630 780 Q 617 773 624 751 Q 645 691 536 517 Q 514 478 462 441 Q 447 428 452 416 Q 459 398 486 378 Q 499 368 512 379 Q 569 421 816 476 C 845 483 826 506 796 502 Z" fill="lightgray"></path>
				<path d="M 816 476 Q 858 422 869 420 Q 879 419 885 429 Q 892 441 890 467 Q 887 518 767 586 Q 754 592 748 591 Q 744 588 742 577 L 796 502 L 816 476 Z" fill="lightgray"></path>
				<path d="M 532 303 Q 522 309 497 313 Q 484 317 481 312 Q 474 306 482 290 Q 510 220 524 109 Q 525 75 544 52 Q 560 30 567 45 Q 571 58 572 78 L 570 115 Q 555 235 550 270 C 546 297 546 297 532 303 Z" fill="lightgray"></path>
				<path d="M 796 147 Q 821 243 859 272 Q 877 291 861 311 Q 782 371 726 344 Q 645 319 532 303 C 502 299 520 266 550 270 Q 559 270 731 298 Q 750 302 757 293 Q 773 277 744 149 C 737 120 788 118 796 147 Z" fill="lightgray"></path>
				<path d="M 572 78 Q 578 78 586 79 Q 659 95 815 108 Q 825 109 828 118 Q 828 127 796 147 C 780 157 773 156 744 149 Q 647 127 570 115 C 540 110 542 77 572 78 Z" fill="lightgray"></path>
</g>
		<text x="40" y="140" font-size="128" fill="#999999">3</text></g>
		<g id="id0:id3:id3" transform="matrix(1.0,0,0,1.0,3072,0.0)">			<g stroke="lightgray" stroke-width="4" transform="scale(4, 4)"> <rect x="0" y="0" width="256" height="256" fill="white" stroke-width="4"/></g>
			<g transform="scale(0.92, -0.92) translate(60, -920)">					<path d="M 231 357 Q 238 382 242 479 L 244 514 Q 244 668 250 674 C 253 692 253 692 235 702 Q 222 711 201 718 Q 182 725 171 720 Q 161 713 168 701 Q 187 674 194 619 Q 194 409 182 329 Q 176 296 169 264 Q 139 156 68 17 Q 64 10 62 5 Q 61 -5 71 -2 Q 89 1 118 54 Q 185 142 225 321 L 231 357 Z" fill="black"></path>
				<path d="M 250 674 Q 259 675 328 696 Q 346 703 352 693 Q 364 660 369 364 Q 366 133 354 114 Q 350 108 332 113 Q 304 120 274 130 Q 255 137 256 128 Q 313 77 344 40 Q 357 21 371 17 Q 380 13 388 23 Q 427 68 426 120 Q 404 519 414 648 Q 417 670 424 682 Q 434 701 423 710 Q 404 728 368 741 Q 349 750 307 724 Q 283 712 235 702 C 206 695 221 667 250 674 Z" fill="black"></path>
				<path d="M 242 479 Q 288 489 325 496 Q 347 502 338 513 Q 326 526 302 528 Q 280 529 244 514 C 216 503 213 473 242 479 Z" fill="black"></path>
				<path d="M 225 321 Q 279 327 319 333 Q 344 339 334 352 Q 321 367 295 370 Q 270 371 231 357 C 203 347 195 318 225 321 Z" fill="red"></path>
				<path d="M 796 502 Q 688 487 573 460 Q 560 456 556 459 Q 552 463 560 478 Q 684 683 712 719 Q 725 729 717 743 Q 710 756 658 777 Q 639 784 630 780 Q 617 773 624 751 Q 645 691 536 517 Q 514 478 462 441 Q 447 428 452 416 Q 459 398 486 378 Q 499 368 512 379 Q 569 421 816 476 C 845 483 826 506 796 502 Z" fill="lightgray"></path>
				<path d="M 816 476 Q 858 422 869 420 Q 879 419 885 429 Q 892 441 890 467 Q 887 518 767 586 Q 754 592 748 591 Q 744 588 742 577 L 796 502 L 816 476 Z" fill="lightgray"></path>
				<path d="M 532 303 Q 522 309 497 313 Q 484 317 481 312 Q 474 306 482 290 Q 510 220 524 109 Q 525 75 544 52 Q 560 30 567 45 Q 571 58 572 78 L 570 115 Q 555 235 550 270 C 546 297 546 297 532 303 Z" fill="lightgray"></path>
				<path d="M 796 147 Q 821 243 859 272 Q 877 291 861 311 Q 782 371 726 344 Q 645 319 532 303 C 502 299 520 266 550 270 Q 559 270 731 298 Q 750 302 757 293 Q 773 277 744 149 C 737 120 788 118 796 147 Z" fill="lightgray"></path>
				<path d="M 572 78 Q 578 78 586 79 Q 659 95 815 108 Q 825 109 828 118 Q 828 127 796 147 C 780 157 773 156 744 149 Q 647 127 570 115 C 540 110 542 77 572 78 Z" fill="lightgray"></path>
</g>
		<text x="40" y="140" font-size="128" fill="#999999">4</text></g>
		<g id="id0:id4:id4" transform="matrix(1.0,0,0,1.0,4096,0.0)">			<g stroke="lightgray" stroke-width="4" transform="scale(4, 4)"> <rect x="0" y="0" width="256" height="256" fill="white" stroke-width="4"/></g>
			<g transform="scale(0.92, -0.92) translate(60, -920)">					<path d="M 231 357 Q 238 382 242 479 L 244 514 Q 244 668 250 674 C 253 692 253 692 235 702 Q 222 711 201 718 Q 182 725 171 720 Q 161 713 168 701 Q 187 674 194 619 Q 194 409 182 329 Q 176 296 169 264 Q 139 156 68 17 Q 64 10 62 5 Q 61 -5 71 -2 Q 89 1 118 54 Q 185 142 225 321 L 231 357 Z" fill="black"></path>
				<path d="M 250 674 Q 259 675 328 696 Q 346 703 352 693 Q 364 660 369 364 Q 366 133 354 114 Q 350 108 332 113 Q 304 120 274 130 Q 255 137 256 128 Q 313 77 344 40 Q 357 21 371 17 Q 380 13 388 23 Q 427 68 426 120 Q 404 519 414 648 Q 417 670 424 682 Q 434 701 423 710 Q 404 728 368 741 Q 349 750 307 724 Q 283 712 235 702 C 206 695 221 667 250 674 Z" fill="black"></path>
				<path d="M 242 479 Q 288 489 325 496 Q 347 502 338 513 Q 326 526 302 528 Q 280 529 244 514 C 216 503 213 473 242 479 Z" fill="black"></path>
				<path d="M 225 321 Q 279 327 319 333 Q 344 339 334 352 Q 321 367 295 370 Q 270 371 231 357 C 203 347 195 318 225 321 Z" fill="black"></path>
				<path d="M 796 502 Q 688 487 573 460 Q 560 456 556 459 Q 552 463 560 478 Q 684 683 712 719 Q 725 729 717 743 Q 710 756 658 777 Q 639 784 630 780 Q 617 773 624 751 Q 645 691 536 517 Q 514 478 462 441 Q 447 428 452 416 Q 459 398 486 378 Q 499 368 512 379 Q 569 421 816 476 C 845 483 826 506 796 502 Z" fill="red"></path>
				<path d="M 816 476 Q 858 422 869 420 Q 879 419 885 429 Q 892 441 890 467 Q 887 518 767 586 Q 754 592 748 591 Q 744 588 742 577 L 796 502 L 816 476 Z" fill="lightgray"></path>
				<path d="M 532 303 Q 522 309 497 313 Q 484 317 481 312 Q 474 306 482 290 Q 510 220 524 109 Q 525 75 544 52 Q 560 30 567 45 Q 571 58 572 78 L 570 115 Q 555 235 550 270 C 546 297 546 297 532 303 Z" fill="lightgray"></path>
				<path d="M 796 147 Q 821 243 859 272 Q 877 291 861 311 Q 782 371 726 344 Q 645 319 532 303 C 502 299 520 266 550 270 Q 559 270 731 298 Q 750 302 757 293 Q 773 277 744 149 C 737 120 788 118 796 147 Z" fill="lightgray"></path>
				<path d="M 572 78 Q 578 78 586 79 Q 659 95 815 108 Q 825 109 828 118 Q 828 127 796 147 C 780 157 773 156 744 149 Q 647 127 570 115 C 540 110 542 77 572 78 Z" fill="lightgray"></path>
</g>
		<text x="40" y="140" font-size="128" fill="#999999">5</text></g>
</g>
	<g id="id1:id1" transform="translate(0.0,1024)">
		<g id="id1:id0:id0" transform="matrix(1.0,0,0,1.0,0,0.0)">			<g stroke="lightgray" stroke-width="4" transform="scale(4, 4)"> <rect x="0" y="0" width="256" height="256" fill="white" stroke-width="4"/></g>
			<g transform="scale(0.92, -0.92) translate(60, -920)">					<path d="M 231 357 Q 238 382 242 479 L 244 514 Q 244 668 250 674 C 253 692 253 692 235 702 Q 222 711 201 718 Q 182 725 171 720 Q 161 713 168 701 Q 187 674 194 619 Q 194 409 182 329 Q 176 296 169 264 Q 139 156 68 17 Q 64 10 62 5 Q 61 -5 71 -2 Q 89 1 118 54 Q 185 142 225 321 L 231 357 Z" fill="black"></path>
				<path d="M 250 674 Q 259 675 328 696 Q 346 703 352 693 Q 364 660 369 364 Q 366 133 354 114 Q 350 108 332 113 Q 304 120 274 130 Q 255 137 256 128 Q 313 77 344 40 Q 357 21 371 17 Q 380 13 388 23 Q 427 68 426 120 Q 404 519 414 648 Q 417 670 424 682 Q 434 701 423 710 Q 404 728 368 741 Q 349 750 307 724 Q 283 712 235 702 C 206 695 221 667 250 674 Z" fill="black"></path>
				<path d="M 242 479 Q 288 489 325 496 Q 347 502 338 513 Q 326 526 302 528 Q 280 529 244 514 C 216 503 213 473 242 479 Z" fill="black"></path>
				<path d="M 225 321 Q 279 327 319 333 Q 344 339 334 352 Q 321 367 295 370 Q 270 371 231 357 C 203 347 195 318 225 321 Z" fill="black"></path>
				<path d="M 796 502 Q 688 487 573 460 Q 560 456 556 459 Q 552 463 560 478 Q 684 683 712 719 Q 725 729 717 743 Q 710 756 658 777 Q 639 784 630 780 Q 617 773 624 751 Q 645 691 536 517 Q 514 478 462 441 Q 447 428 452 416 Q 459 398 486 378 Q 499 368 512 379 Q 569 421 816 476 C 845 483 826 506 796 502 Z" fill="black"></path>
				<path d="M 816 476 Q 858 422 869 420 Q 879 419 885 429 Q 892 441 890 467 Q 887 518 767 586 Q 754 592 748 591 Q 744 588 742 577 L 796 502 L 816 476 Z" fill="red"></path>
				<path d="M 532 303 Q 522 309 497 313 Q 484 317 481 312 Q 474 306 482 290 Q 510 220 524 109 Q 525 75 544 52 Q 560 30 567 45 Q 571 58 572 78 L 570 115 Q 555 235 550 270 C 546 297 546 297 532 303 Z" fill="lightgray"></path>
				<path d="M 796 147 Q 821 243 859 272 Q 877 291 861 311 Q 782 371 726 344 Q 645 319 532 303 C 502 299 520 266 550 270 Q 559 270 731 298 Q 750 302 757 293 Q 773 277 744 149 C 737 120 788 118 796 147 Z" fill="lightgray"></path>
				<path d="M 572 78 Q 578 78 586 79 Q 659 95 815 108 Q 825 109 828 118 Q 828 127 796 147 C 780 157 773 156 744 149 Q 647 127 570 115 C 540 110 542 77 572 78 Z" fill="lightgray"></path>
</g>
		<text x="40" y="140" font-size="128" fill="#999999">6</text></g>
		<g id="id1:id1:id1" transform="matrix(1.0,0,0,1.0,1024,0.0)">			<g stroke="lightgray" stroke-width="4" transform="scale(4, 4)"> <rect x="0" y="0" width="256" height="256" fill="white" stroke-width="4"/></g>
			<g transform="scale(0.92, -0.92) translate(60, -920)">					<path d="M 231 357 Q 238 382 242 479 L 244 514 Q 244 668 250 674 C 253 692 253 692 235 702 Q 222 711 201 718 Q 182 725 171 720 Q 161 713 168 701 Q 187 674 194 619 Q 194 409 182 329 Q 176 296 169 264 Q 139 156 68 17 Q 64 10 62 5 Q 61 -5 71 -2 Q 89 1 118 54 Q 185 142 225 321 L 231 357 Z" fill="black"></path>
				<path d="M 250 674 Q 259 675 328 696 Q 346 703 352 693 Q 364 660 369 364 Q 366 133 354 114 Q 350 108 332 113 Q 304 120 274 130 Q 255 137 256 128 Q 313 77 344 40 Q 357 21 371 17 Q 380 13 388 23 Q 427 68 426 120 Q 404 519 414 648 Q 417 670 424 682 Q 434 701 423 710 Q 404 728 368 741 Q 349 750 307 724 Q 283 712 235 702 C 206 695 221 667 250 674 Z" fill="black"></path>
				<path d="M 242 479 Q 288 489 325 496 Q 347 502 338 513 Q 326 526 302 528 Q 280 529 244 514 C 216 503 213 473 242 479 Z" fill="black"></path>
				<path d="M 225 321 Q 279 327 319 333 Q 344 339 334 352 Q 321 367 295 370 Q 270 371 231 357 C 203 347 195 318 225 321 Z" fill="black"></path>
				<path d="M 796 502 Q 688 487 573 460 Q 560 456 556 459 Q 552 463 560 478 Q 684 683 712 719 Q 725 729 717 743 Q 710 756 658 777 Q 639 784 630 780 Q 617 773 624 751 Q 645 691 536 517 Q 514 478 462 441 Q 447 428 452 416 Q 459 398 486 378 Q 499 368 512 379 Q 569 421 816 476 C 845 483 826 506 796 502 Z" fill="black"></path>
				<path d="M 816 476 Q 858 422 869 420 Q 879 419 885 429 Q 892 441 890 467 Q 887 518 767 586 Q 754 592 748 591 Q 744 588 742 577 L 796 502 L 816 476 Z" fill="black"></path>
				<path d="M 532 303 Q 522 309 497 313 Q 484 317 481 312 Q 474 306 482 290 Q 510 220 524 109 Q 525 75 544 52 Q 560 30 567 45 Q 571 58 572 78 L 570 115 Q 555 235 550 270 C 546 297 546 297 532 303 Z" fill="red"></path>
				<path d="M 796 147 Q 821 243 859 272 Q 877 291 861 311 Q 782 371 726 344 Q 645 319 532 303 C 502 299 520 266 550 270 Q 559 270 731 298 Q 750 302 757 293 Q 773 277 744 149 C 737 120 788 118 796 147 Z" fill="lightgray"></path>
				<path d="M 572 78 Q 578 78 586 79 Q 659 95 815 108 Q 825 109 828 118 Q 828 127 796 147 C 780 157 773 156 744 149 Q 647 127 570 115 C 540 110 542 77 572 78 Z" fill="lightgray"></path>
</g>
		<text x="40" y="140" font-size="128" fill="#999999">7</text></g>
		<g id="id1:id2:id2" transform="matrix(1.0,0,0,1.0,2048,0.0)">			<g stroke="lightgray" stroke-width="4" transform="scale(4, 4)"> <rect x="0" y="0" width="256" height="256" fill="white" stroke-width="4"/></g>
			<g transform="scale(0.92, -0.92) translate(60, -920)">					<path d="M 231 357 Q 238 382 242 479 L 244 514 Q 244 668 250 674 C 253 692 253 692 235 702 Q 222 711 201 718 Q 182 725 171 720 Q 161 713 168 701 Q 187 674 194 619 Q 194 409 182 329 Q 176 296 169 264 Q 139 156 68 17 Q 64 10 62 5 Q 61 -5 71 -2 Q 89 1 118 54 Q 185 142 225 321 L 231 357 Z" fill="black"></path>
				<path d="M 250 674 Q 259 675 328 696 Q 346 703 352 693 Q 364 660 369 364 Q 366 133 354 114 Q 350 108 332 113 Q 304 120 274 130 Q 255 137 256 128 Q 313 77 344 40 Q 357 21 371 17 Q 380 13 388 23 Q 427 68 426 120 Q 404 519 414 648 Q 417 670 424 682 Q 434 701 423 710 Q 404 728 368 741 Q 349 750 307 724 Q 283 712 235 702 C 206 695 221 667 250 674 Z" fill="black"></path>
				<path d="M 242 479 Q 288 489 325 496 Q 347 502 338 513 Q 326 526 302 528 Q 280 529 244 514 C 216 503 213 473 242 479 Z" fill="black"></path>
				<path d="M 225 321 Q 279 327 319 333 Q 344 339 334 352 Q 321 367 295 370 Q 270 371 231 357 C 203 347 195 318 225 321 Z" fill="black"></path>
				<path d="M 796 502 Q 688 487 573 460 Q 560 456 556 459 Q 552 463 560 478 Q 684 683 712 719 Q 725 729 717 743 Q 710 756 658 777 Q 639 784 630 780 Q 617 773 624 751 Q 645 691 536 517 Q 514 478 462 441 Q 447 428 452 416 Q 459 398 486 378 Q 499 368 512 379 Q 569 421 816 476 C 845 483 826 506 796 502 Z" fill="black"></path>
				<path d="M 816 476 Q 858 422 869 420 Q 879 419 885 429 Q 892 441 890 467 Q 887 518 767 586 Q 754 592 748 591 Q 744 588 742 577 L 796 502 L 816 476 Z" fill="black"></path>
				<path d="M 532 303 Q 522 309 497 313 Q 484 317 481 312 Q 474 306 482 290 Q 510 220 524 109 Q 525 75 544 52 Q 560 30 567 45 Q 571 58 572 78 L 570 115 Q 555 235 550 270 C 546 297 546 297 532 303 Z" fill="black"></path>
				<path d="M 796 147 Q 821 243 859 272 Q 877 291 861 311 Q 782 371 726 344 Q 645 319 532 303 C 502 299 520 266 550 270 Q 559 270 731 298 Q 750 302 757 293 Q 773 277 744 149 C 737 120 788 118 796 147 Z" fill="red"></path>
				<path d="M 572 78 Q 578 78 586 79 Q 659 95 815 108 Q 825 109 828 118 Q 828 127 796 147 C 780 157 773 156 744 149 Q 647 127 570 115 C 540 110 542 77 572 78 Z" fill="lightgray"></path>
</g>
		<text x="40" y="140" font-size="128" fill="#999999">8</text></g>
		<g id="id1:id3:id3" transform="matrix(1.0,0,0,1.0,3072,0.0)">			<g stroke="lightgray" stroke-width="4" transform="scale(4, 4)"> <rect x="0" y="0" width="256" height="256" fill="white" stroke-width="4"/></g>
			<g transform="scale(0.92, -0.92) translate(60, -920)">					<path d="M 231 357 Q 238 382 242 479 L 244 514 Q 244 668 250 674 C 253 692 253 692 235 702 Q 222 711 201 718 Q 182 725 171 720 Q 161 713 168 701 Q 187 674 194 619 Q 194 409 182 329 Q 176 296 169 264 Q 139 156 68 17 Q 64 10 62 5 Q 61 -5 71 -2 Q 89 1 118 54 Q 185 142 225 321 L 231 357 Z" fill="black"></path>
				<path d="M 250 674 Q 259 675 328 696 Q 346 703 352 693 Q 364 660 369 364 Q 366 133 354 114 Q 350 108 332 113 Q 304 120 274 130 Q 255 137 256 128 Q 313 77 344 40 Q 357 21 371 17 Q 380 13 388 23 Q 427 68 426 120 Q 404 519 414 648 Q 417 670 424 682 Q 434 701 423 710 Q 404 728 368 741 Q 349 750 307 724 Q 283 712 235 702 C 206 695 221 667 250 674 Z" fill="black"></path>
				<path d="M 242 479 Q 288 489 325 496 Q 347 502 338 513 Q 326 526 302 528 Q 280 529 244 514 C 216 503 213 473 242 479 Z" fill="black"></path>
				<path d="M 225 321 Q 279 327 319 333 Q 344 339 334 352 Q 321 367 295 370 Q 270 371 231 357 C 203 347 195 318 225 321 Z" fill="black"></path>
				<path d="M 796 502 Q 688 487 573 460 Q 560 456 556 459 Q 552 463 560 478 Q 684 683 712 719 Q 725 729 717 743 Q 710 756 658 777 Q 639 784 630 780 Q 617 773 624 751 Q 645 691 536 517 Q 514 478 462 441 Q 447 428 452 416 Q 459 398 486 378 Q 499 368 512 379 Q 569 421 816 476 C 845 483 826 506 796 502 Z" fill="black"></path>
				<path d="M 816 476 Q 858 422 869 420 Q 879 419 885 429 Q 892 441 890 467 Q 887 518 767 586 Q 754 592 748 591 Q 744 588 742 577 L 796 502 L 816 476 Z" fill="black"></path>
				<path d="M 532 303 Q 522 309 497 313 Q 484 317 481 312 Q 474 306 482 290 Q 510 220 524 109 Q 525 75 544 52 Q 560 30 567 45 Q 571 58 572 78 L 570 115 Q 555 235 550 270 C 546 297 546 297 532 303 Z" fill="black"></path>
				<path d="M 796 147 Q 821 243 859 272 Q 877 291 861 311 Q 782 371 726 344 Q 645 319 532 303 C 502 299 520 266 550 270 Q 559 270 731 298 Q 750 302 757 293 Q 773 277 744 149 C 737 120 788 118 796 147 Z" fill="black"></path>
				<path d="M 572 78 Q 578 78 586 79 Q 659 95 815 108 Q 825 109 828 118 Q 828 127 796 147 C 780 157 773 156 744 149 Q 647 127 570 115 C 540 110 542 77 572 78 Z" fill="red"></path>
</g>
		<text x="40" y="140" font-size="128" fill="#999999">9</text></g>
		<g id="id1:id4:id4" transform="matrix(1.0,0,0,1.0,4096,0.0)">			<g stroke="white" stroke-width="4" transform="scale(4, 4)"> <rect x="1" y="1" width="255" height="255" fill="white" stroke-width="0"/></g>
</g>
</g>
</svg>
