<?xml version="1.0" standalone="no"?>
<!DOCTYPE svg PUBLIC "-//W3C//DTD SVG 1.1//EN"
 "http://www.w3.org/Graphics/SVG/1.1/DTD/svg11.dtd">
<!-- generate by Handict dictionary app com.asnsami.handict -->

<svg xmlns="http://www.w3.org/2000/svg" xmlns:sodipodi="http://sodipodi.sourceforge.net/DTD/sodipodi-0.dtd" version="1.1" width="640" height="256" viewBox="0 0 5120 2048">
	<g id="id0:id0" transform="translate(0.0,0)">
		<g id="id0:id0:id0" transform="matrix(1.0,0,0,1.0,0,0.0)">			<g stroke="lightgray" stroke-width="4" transform="scale(4, 4)"> <rect x="0" y="0" width="256" height="256" fill="white" stroke-width="4"/></g>
			<g transform="scale(0.92, -0.92) translate(60, -920)">					<path d="M 483 718 Q 601 740 738 751 Q 750 750 760 763 Q 761 776 737 788 Q 698 813 611 787 Q 479 762 282 739 Q 251 736 274 717 Q 310 686 340 694 Q 382 703 429 709 L 483 718 Z" fill="red"></path>
				<path d="M 656 528 Q 610 527 529 515 Q 417 500 369 487 Q 345 483 359 501 Q 375 520 423 568 Q 496 640 511 647 Q 521 654 528 662 Q 534 677 513 696 Q 497 709 483 718 C 458 735 420 738 429 709 Q 435 699 436 680 Q 429 628 303 501 Q 249 471 254 431 Q 254 428 256 424 Q 263 400 277 399 Q 283 400 300 410 Q 390 467 614 497 Q 651 503 676 503 C 706 504 686 529 656 528 Z" fill="lightgray"></path>
				<path d="M 676 503 Q 715 452 728 447 Q 737 446 745 455 Q 758 467 750 513 Q 744 555 674 592 Q 628 616 603 627 Q 594 633 591 621 Q 590 608 599 595 Q 626 567 656 528 L 676 503 Z" fill="lightgray"></path>
				<path d="M 530 265 Q 587 275 648 284 Q 705 294 713 301 Q 723 310 719 319 Q 712 332 681 342 Q 648 349 616 339 Q 576 327 534 316 L 474 303 Q 398 291 313 287 Q 273 283 300 263 Q 346 235 404 246 Q 438 252 475 257 L 530 265 Z" fill="lightgray"></path>
				<path d="M 518 122 Q 524 197 530 265 L 534 316 Q 534 334 551 394 Q 554 404 534 420 Q 498 439 474 443 Q 458 447 450 438 Q 443 431 451 416 Q 470 389 470 370 Q 471 339 474 303 L 475 257 Q 476 191 475 118 C 475 88 516 92 518 122 Z" fill="lightgray"></path>
				<path d="M 475 118 Q 321 105 144 89 Q 119 88 136 67 Q 172 31 217 40 Q 481 103 884 80 Q 885 81 888 80 Q 912 79 918 89 Q 925 102 906 120 Q 843 169 786 158 Q 683 142 518 122 L 475 118 Z" fill="lightgray"></path>
</g>
		<text x="40" y="140" font-size="128" fill="#999999">1</text></g>
		<g id="id0:id1:id1" transform="matrix(1.0,0,0,1.0,1024,0.0)">			<g stroke="lightgray" stroke-width="4" transform="scale(4, 4)"> <rect x="0" y="0" width="256" height="256" fill="white" stroke-width="4"/></g>
			<g transform="scale(0.92, -0.92) translate(60, -920)">					<path d="M 483 718 Q 601 740 738 751 Q 750 750 760 763 Q 761 776 737 788 Q 698 813 611 787 Q 479 762 282 739 Q 251 736 274 717 Q 310 686 340 694 Q 382 703 429 709 L 483 718 Z" fill="black"></path>
				<path d="M 656 528 Q 610 527 529 515 Q 417 500 369 487 Q 345 483 359 501 Q 375 520 423 568 Q 496 640 511 647 Q 521 654 528 662 Q 534 677 513 696 Q 497 709 483 718 C 458 735 420 738 429 709 Q 435 699 436 680 Q 429 628 303 501 Q 249 471 254 431 Q 254 428 256 424 Q 263 400 277 399 Q 283 400 300 410 Q 390 467 614 497 Q 651 503 676 503 C 706 504 686 529 656 528 Z" fill="red"></path>
				<path d="M 676 503 Q 715 452 728 447 Q 737 446 745 455 Q 758 467 750 513 Q 744 555 674 592 Q 628 616 603 627 Q 594 633 591 621 Q 590 608 599 595 Q 626 567 656 528 L 676 503 Z" fill="lightgray"></path>
				<path d="M 530 265 Q 587 275 648 284 Q 705 294 713 301 Q 723 310 719 319 Q 712 332 681 342 Q 648 349 616 339 Q 576 327 534 316 L 474 303 Q 398 291 313 287 Q 273 283 300 263 Q 346 235 404 246 Q 438 252 475 257 L 530 265 Z" fill="lightgray"></path>
				<path d="M 518 122 Q 524 197 530 265 L 534 316 Q 534 334 551 394 Q 554 404 534 420 Q 498 439 474 443 Q 458 447 450 438 Q 443 431 451 416 Q 470 389 470 370 Q 471 339 474 303 L 475 257 Q 476 191 475 118 C 475 88 516 92 518 122 Z" fill="lightgray"></path>
				<path d="M 475 118 Q 321 105 144 89 Q 119 88 136 67 Q 172 31 217 40 Q 481 103 884 80 Q 885 81 888 80 Q 912 79 918 89 Q 925 102 906 120 Q 843 169 786 158 Q 683 142 518 122 L 475 118 Z" fill="lightgray"></path>
</g>
		<text x="40" y="140" font-size="128" fill="#999999">2</text></g>
		<g id="id0:id2:id2" transform="matrix(1.0,0,0,1.0,2048,0.0)">			<g stroke="lightgray" stroke-width="4" transform="scale(4, 4)"> <rect x="0" y="0" width="256" height="256" fill="white" stroke-width="4"/></g>
			<g transform="scale(0.92, -0.92) translate(60, -920)">					<path d="M 483 718 Q 601 740 738 751 Q 750 750 760 763 Q 761 776 737 788 Q 698 813 611 787 Q 479 762 282 739 Q 251 736 274 717 Q 310 686 340 694 Q 382 703 429 709 L 483 718 Z" fill="black"></path>
				<path d="M 656 528 Q 610 527 529 515 Q 417 500 369 487 Q 345 483 359 501 Q 375 520 423 568 Q 496 640 511 647 Q 521 654 528 662 Q 534 677 513 696 Q 497 709 483 718 C 458 735 420 738 429 709 Q 435 699 436 680 Q 429 628 303 501 Q 249 471 254 431 Q 254 428 256 424 Q 263 400 277 399 Q 283 400 300 410 Q 390 467 614 497 Q 651 503 676 503 C 706 504 686 529 656 528 Z" fill="black"></path>
				<path d="M 676 503 Q 715 452 728 447 Q 737 446 745 455 Q 758 467 750 513 Q 744 555 674 592 Q 628 616 603 627 Q 594 633 591 621 Q 590 608 599 595 Q 626 567 656 528 L 676 503 Z" fill="red"></path>
				<path d="M 530 265 Q 587 275 648 284 Q 705 294 713 301 Q 723 310 719 319 Q 712 332 681 342 Q 648 349 616 339 Q 576 327 534 316 L 474 303 Q 398 291 313 287 Q 273 283 300 263 Q 346 235 404 246 Q 438 252 475 257 L 530 265 Z" fill="lightgray"></path>
				<path d="M 518 122 Q 524 197 530 265 L 534 316 Q 534 334 551 394 Q 554 404 534 420 Q 498 439 474 443 Q 458 447 450 438 Q 443 431 451 416 Q 470 389 470 370 Q 471 339 474 303 L 475 257 Q 476 191 475 118 C 475 88 516 92 518 122 Z" fill="lightgray"></path>
				<path d="M 475 118 Q 321 105 144 89 Q 119 88 136 67 Q 172 31 217 40 Q 481 103 884 80 Q 885 81 888 80 Q 912 79 918 89 Q 925 102 906 120 Q 843 169 786 158 Q 683 142 518 122 L 475 118 Z" fill="lightgray"></path>
</g>
		<text x="40" y="140" font-size="128" fill="#999999">3</text></g>
		<g id="id0:id3:id3" transform="matrix(1.0,0,0,1.0,3072,0.0)">			<g stroke="lightgray" stroke-width="4" transform="scale(4, 4)"> <rect x="0" y="0" width="256" height="256" fill="white" stroke-width="4"/></g>
			<g transform="scale(0.92, -0.92) translate(60, -920)">					<path d="M 483 718 Q 601 740 738 751 Q 750 750 760 763 Q 761 776 737 788 Q 698 813 611 787 Q 479 762 282 739 Q 251 736 274 717 Q 310 686 340 694 Q 382 703 429 709 L 483 718 Z" fill="black"></path>
				<path d="M 656 528 Q 610 527 529 515 Q 417 500 369 487 Q 345 483 359 501 Q 375 520 423 568 Q 496 640 511 647 Q 521 654 528 662 Q 534 677 513 696 Q 497 709 483 718 C 458 735 420 738 429 709 Q 435 699 436 680 Q 429 628 303 501 Q 249 471 254 431 Q 254 428 256 424 Q 263 400 277 399 Q 283 400 300 410 Q 390 467 614 497 Q 651 503 676 503 C 706 504 686 529 656 528 Z" fill="black"></path>
				<path d="M 676 503 Q 715 452 728 447 Q 737 446 745 455 Q 758 467 750 513 Q 744 555 674 592 Q 628 616 603 627 Q 594 633 591 621 Q 590 608 599 595 Q 626 567 656 528 L 676 503 Z" fill="black"></path>
				<path d="M 530 265 Q 587 275 648 284 Q 705 294 713 301 Q 723 310 719 319 Q 712 332 681 342 Q 648 349 616 339 Q 576 327 534 316 L 474 303 Q 398 291 313 287 Q 273 283 300 263 Q 346 235 404 246 Q 438 252 475 257 L 530 265 Z" fill="red"></path>
				<path d="M 518 122 Q 524 197 530 265 L 534 316 Q 534 334 551 394 Q 554 404 534 420 Q 498 439 474 443 Q 458 447 450 438 Q 443 431 451 416 Q 470 389 470 370 Q 471 339 474 303 L 475 257 Q 476 191 475 118 C 475 88 516 92 518 122 Z" fill="lightgray"></path>
				<path d="M 475 118 Q 321 105 144 89 Q 119 88 136 67 Q 172 31 217 40 Q 481 103 884 80 Q 885 81 888 80 Q 912 79 918 89 Q 925 102 906 120 Q 843 169 786 158 Q 683 142 518 122 L 475 118 Z" fill="lightgray"></path>
</g>
		<text x="40" y="140" font-size="128" fill="#999999">4</text></g>
		<g id="id0:id4:id4" transform="matrix(1.0,0,0,1.0,4096,0.0)">			<g stroke="lightgray" stroke-width="4" transform="scale(4, 4)"> <rect x="0" y="0" width="256" height="256" fill="white" stroke-width="4"/></g>
			<g transform="scale(0.92, -0.92) translate(60, -920)">					<path d="M 483 718 Q 601 740 738 751 Q 750 750 760 763 Q 761 776 737 788 Q 698 813 611 787 Q 479 762 282 739 Q 251 736 274 717 Q 310 686 340 694 Q 382 703 429 709 L 483 718 Z" fill="black"></path>
				<path d="M 656 528 Q 610 527 529 515 Q 417 500 369 487 Q 345 483 359 501 Q 375 520 423 568 Q 496 640 511 647 Q 521 654 528 662 Q 534 677 513 696 Q 497 709 483 718 C 458 735 420 738 429 709 Q 435 699 436 680 Q 429 628 303 501 Q 249 471 254 431 Q 254 428 256 424 Q 263 400 277 399 Q 283 400 300 410 Q 390 467 614 497 Q 651 503 676 503 C 706 504 686 529 656 528 Z" fill="black"></path>
				<path d="M 676 503 Q 715 452 728 447 Q 737 446 745 455 Q 758 467 750 513 Q 744 555 674 592 Q 628 616 603 627 Q 594 633 591 621 Q 590 608 599 595 Q 626 567 656 528 L 676 503 Z" fill="black"></path>
				<path d="M 530 265 Q 587 275 648 284 Q 705 294 713 301 Q 723 310 719 319 Q 712 332 681 342 Q 648 349 616 339 Q 576 327 534 316 L 474 303 Q 398 291 313 287 Q 273 283 300 263 Q 346 235 404 246 Q 438 252 475 257 L 530 265 Z" fill="black"></path>
				<path d="M 518 122 Q 524 197 530 265 L 534 316 Q 534 334 551 394 Q 554 404 534 420 Q 498 439 474 443 Q 458 447 450 438 Q 443 431 451 416 Q 470 389 470 370 Q 471 339 474 303 L 475 257 Q 476 191 475 118 C 475 88 516 92 518 122 Z" fill="red"></path>
				<path d="M 475 118 Q 321 105 144 89 Q 119 88 136 67 Q 172 31 217 40 Q 481 103 884 80 Q 885 81 888 80 Q 912 79 918 89 Q 925 102 906 120 Q 843 169 786 158 Q 683 142 518 122 L 475 118 Z" fill="lightgray"></path>
</g>
		<text x="40" y="140" font-size="128" fill="#999999">5</text></g>
</g>
	<g id="id1:id1" transform="translate(0.0,1024)">
		<g id="id1:id0:id0" transform="matrix(1.0,0,0,1.0,0,0.0)">			<g stroke="lightgray" stroke-width="4" transform="scale(4, 4)"> <rect x="0" y="0" width="256" height="256" fill="white" stroke-width="4"/></g>
			<g transform="scale(0.92, -0.92) translate(60, -920)">					<path d="M 483 718 Q 601 740 738 751 Q 750 750 760 763 Q 761 776 737 788 Q 698 813 611 787 Q 479 762 282 739 Q 251 736 274 717 Q 310 686 340 694 Q 382 703 429 709 L 483 718 Z" fill="black"></path>
				<path d="M 656 528 Q 610 527 529 515 Q 417 500 369 487 Q 345 483 359 501 Q 375 520 423 568 Q 496 640 511 647 Q 521 654 528 662 Q 534 677 513 696 Q 497 709 483 718 C 458 735 420 738 429 709 Q 435 699 436 680 Q 429 628 303 501 Q 249 471 254 431 Q 254 428 256 424 Q 263 400 277 399 Q 283 400 300 410 Q 390 467 614 497 Q 651 503 676 503 C 706 504 686 529 656 528 Z" fill="black"></path>
				<path d="M 676 503 Q 715 452 728 447 Q 737 446 745 455 Q 758 467 750 513 Q 744 555 674 592 Q 628 616 603 627 Q 594 633 591 621 Q 590 608 599 595 Q 626 567 656 528 L 676 503 Z" fill="black"></path>
				<path d="M 530 265 Q 587 275 648 284 Q 705 294 713 301 Q 723 310 719 319 Q 712 332 681 342 Q 648 349 616 339 Q 576 327 534 316 L 474 303 Q 398 291 313 287 Q 273 283 300 263 Q 346 235 404 246 Q 438 252 475 257 L 530 265 Z" fill="black"></path>
				<path d="M 518 122 Q 524 197 530 265 L 534 316 Q 534 334 551 394 Q 554 404 534 420 Q 498 439 474 443 Q 458 447 450 438 Q 443 431 451 416 Q 470 389 470 370 Q 471 339 474 303 L 475 257 Q 476 191 475 118 C 475 88 516 92 518 122 Z" fill="black"></path>
				<path d="M 475 118 Q 321 105 144 89 Q 119 88 136 67 Q 172 31 217 40 Q 481 103 884 80 Q 885 81 888 80 Q 912 79 918 89 Q 925 102 906 120 Q 843 169 786 158 Q 683 142 518 122 L 475 118 Z" fill="red"></path>
</g>
		<text x="40" y="140" font-size="128" fill="#999999">6</text></g>
		<g id="id1:id1:id1" transform="matrix(1.0,0,0,1.0,1024,0.0)">			<g stroke="white" stroke-width="4" transform="scale(4, 4)"> <rect x="1" y="1" width="255" height="255" fill="white" stroke-width="0"/></g>
</g>
		<g id="id1:id2:id2" transform="matrix(1.0,0,0,1.0,2048,0.0)">			<g stroke="white" stroke-width="4" transform="scale(4, 4)"> <rect x="1" y="1" width="255" height="255" fill="white" stroke-width="0"/></g>
</g>
		<g id="id1:id3:id3" transform="matrix(1.0,0,0,1.0,3072,0.0)">			<g stroke="white" stroke-width="4" transform="scale(4, 4)"> <rect x="1" y="1" width="255" height="255" fill="white" stroke-width="0"/></g>
</g>
		<g id="id1:id4:id4" transform="matrix(1.0,0,0,1.0,4096,0.0)">			<g stroke="white" stroke-width="4" transform="scale(4, 4)"> <rect x="1" y="1" width="255" height="255" fill="white" stroke-width="0"/></g>
</g>
</g>
</svg>
