<?xml version="1.0" standalone="no"?>
<!DOCTYPE svg PUBLIC "-//W3C//DTD SVG 1.1//EN"
 "http://www.w3.org/Graphics/SVG/1.1/DTD/svg11.dtd">
<!-- generate by Handict dictionary app com.asnsami.handict -->

<svg xmlns="http://www.w3.org/2000/svg" xmlns:sodipodi="http://sodipodi.sourceforge.net/DTD/sodipodi-0.dtd" version="1.1" width="640" height="256" viewBox="0 0 5120 2048">
	<g id="id0:id0" transform="translate(0.0,0)">
		<g id="id0:id0:id0" transform="matrix(1.0,0,0,1.0,0,0.0)">			<g stroke="lightgray" stroke-width="4" transform="scale(4, 4)"> <rect x="0" y="0" width="256" height="256" fill="white" stroke-width="4"/></g>
			<g transform="scale(0.92, -0.92) translate(60, -920)">					<path d="M 533 797 Q 466 746 294 689 Q 287 679 294 676 Q 328 667 526 727 Q 559 746 640 755 Q 658 755 663 763 Q 667 773 656 787 Q 635 806 590 828 Q 574 838 560 837 Q 551 834 550 822 Q 549 806 533 797 Z" fill="red"></path>
				<path d="M 263 569 Q 288 544 313 512 Q 326 497 343 496 Q 353 495 361 509 Q 367 524 361 556 Q 355 589 263 620 Q 247 624 240 623 Q 234 619 235 606 Q 238 594 263 569 Z" fill="lightgray"></path>
				<path d="M 435 625 Q 483 537 506 529 Q 521 525 532 543 Q 536 556 531 581 Q 516 620 446 653 Q 436 657 433 645 Q 429 636 435 625 Z" fill="lightgray"></path>
				<path d="M 710 654 Q 683 617 588 524 Q 575 506 595 508 Q 634 529 753 600 Q 775 616 804 626 Q 829 636 818 656 Q 805 677 776 695 Q 751 713 736 710 Q 721 710 725 694 Q 728 673 710 654 Z" fill="lightgray"></path>
				<path d="M 266 327 Q 428 408 432 409 Q 454 416 445 435 Q 435 454 411 471 Q 390 487 377 486 Q 364 486 367 473 Q 367 449 277 366 Q 265 357 253 345 C 231 324 239 314 266 327 Z" fill="lightgray"></path>
				<path d="M 308 68 Q 305 84 300 100 Q 293 140 284 191 L 283 192 L 279 220 Q 272 274 268 317 Q 268 323 266 327 L 253 345 Q 222 364 188 372 Q 181 375 175 369 Q 166 362 178 350 Q 227 275 245 92 Q 249 23 293 -4 L 295 -5 Q 314 -9 314 24 Q 314 27 313 29 L 308 68 Z" fill="lightgray"></path>
				<path d="M 283 192 Q 287 191 294 192 Q 376 207 438 216 Q 463 222 454 235 Q 441 251 413 255 Q 368 259 279 220 C 251 208 253 194 283 192 Z" fill="lightgray"></path>
				<path d="M 672 50 Q 687 28 704 -14 Q 714 -35 733 -23 Q 769 -5 790 132 Q 824 334 841 358 Q 841 361 843 362 Q 856 384 839 399 Q 775 459 734 442 Q 658 423 558 419 Q 548 419 547 407 Q 548 397 564 388 Q 588 376 632 383 Q 737 408 755 398 Q 765 391 764 365 Q 760 317 752 268 L 748 239 Q 735 166 718 89 Q 715 77 697 79 C 669 70 662 67 672 50 Z" fill="lightgray"></path>
				<path d="M 752 268 Q 719 292 588 262 Q 566 258 545 253 Q 527 252 547 233 Q 557 226 577 227 Q 674 236 748 239 C 778 240 778 253 752 268 Z" fill="lightgray"></path>
				<path d="M 697 79 Q 667 109 626 102 Q 449 74 308 68 C 278 67 283 27 313 29 Q 320 29 329 30 Q 438 48 672 50 C 702 50 720 59 697 79 Z" fill="lightgray"></path>
</g>
		<text x="40" y="140" font-size="128" fill="#999999">1</text></g>
		<g id="id0:id1:id1" transform="matrix(1.0,0,0,1.0,1024,0.0)">			<g stroke="lightgray" stroke-width="4" transform="scale(4, 4)"> <rect x="0" y="0" width="256" height="256" fill="white" stroke-width="4"/></g>
			<g transform="scale(0.92, -0.92) translate(60, -920)">					<path d="M 533 797 Q 466 746 294 689 Q 287 679 294 676 Q 328 667 526 727 Q 559 746 640 755 Q 658 755 663 763 Q 667 773 656 787 Q 635 806 590 828 Q 574 838 560 837 Q 551 834 550 822 Q 549 806 533 797 Z" fill="black"></path>
				<path d="M 263 569 Q 288 544 313 512 Q 326 497 343 496 Q 353 495 361 509 Q 367 524 361 556 Q 355 589 263 620 Q 247 624 240 623 Q 234 619 235 606 Q 238 594 263 569 Z" fill="red"></path>
				<path d="M 435 625 Q 483 537 506 529 Q 521 525 532 543 Q 536 556 531 581 Q 516 620 446 653 Q 436 657 433 645 Q 429 636 435 625 Z" fill="lightgray"></path>
				<path d="M 710 654 Q 683 617 588 524 Q 575 506 595 508 Q 634 529 753 600 Q 775 616 804 626 Q 829 636 818 656 Q 805 677 776 695 Q 751 713 736 710 Q 721 710 725 694 Q 728 673 710 654 Z" fill="lightgray"></path>
				<path d="M 266 327 Q 428 408 432 409 Q 454 416 445 435 Q 435 454 411 471 Q 390 487 377 486 Q 364 486 367 473 Q 367 449 277 366 Q 265 357 253 345 C 231 324 239 314 266 327 Z" fill="lightgray"></path>
				<path d="M 308 68 Q 305 84 300 100 Q 293 140 284 191 L 283 192 L 279 220 Q 272 274 268 317 Q 268 323 266 327 L 253 345 Q 222 364 188 372 Q 181 375 175 369 Q 166 362 178 350 Q 227 275 245 92 Q 249 23 293 -4 L 295 -5 Q 314 -9 314 24 Q 314 27 313 29 L 308 68 Z" fill="lightgray"></path>
				<path d="M 283 192 Q 287 191 294 192 Q 376 207 438 216 Q 463 222 454 235 Q 441 251 413 255 Q 368 259 279 220 C 251 208 253 194 283 192 Z" fill="lightgray"></path>
				<path d="M 672 50 Q 687 28 704 -14 Q 714 -35 733 -23 Q 769 -5 790 132 Q 824 334 841 358 Q 841 361 843 362 Q 856 384 839 399 Q 775 459 734 442 Q 658 423 558 419 Q 548 419 547 407 Q 548 397 564 388 Q 588 376 632 383 Q 737 408 755 398 Q 765 391 764 365 Q 760 317 752 268 L 748 239 Q 735 166 718 89 Q 715 77 697 79 C 669 70 662 67 672 50 Z" fill="lightgray"></path>
				<path d="M 752 268 Q 719 292 588 262 Q 566 258 545 253 Q 527 252 547 233 Q 557 226 577 227 Q 674 236 748 239 C 778 240 778 253 752 268 Z" fill="lightgray"></path>
				<path d="M 697 79 Q 667 109 626 102 Q 449 74 308 68 C 278 67 283 27 313 29 Q 320 29 329 30 Q 438 48 672 50 C 702 50 720 59 697 79 Z" fill="lightgray"></path>
</g>
		<text x="40" y="140" font-size="128" fill="#999999">2</text></g>
		<g id="id0:id2:id2" transform="matrix(1.0,0,0,1.0,2048,0.0)">			<g stroke="lightgray" stroke-width="4" transform="scale(4, 4)"> <rect x="0" y="0" width="256" height="256" fill="white" stroke-width="4"/></g>
			<g transform="scale(0.92, -0.92) translate(60, -920)">					<path d="M 533 797 Q 466 746 294 689 Q 287 679 294 676 Q 328 667 526 727 Q 559 746 640 755 Q 658 755 663 763 Q 667 773 656 787 Q 635 806 590 828 Q 574 838 560 837 Q 551 834 550 822 Q 549 806 533 797 Z" fill="black"></path>
				<path d="M 263 569 Q 288 544 313 512 Q 326 497 343 496 Q 353 495 361 509 Q 367 524 361 556 Q 355 589 263 620 Q 247 624 240 623 Q 234 619 235 606 Q 238 594 263 569 Z" fill="black"></path>
				<path d="M 435 625 Q 483 537 506 529 Q 521 525 532 543 Q 536 556 531 581 Q 516 620 446 653 Q 436 657 433 645 Q 429 636 435 625 Z" fill="red"></path>
				<path d="M 710 654 Q 683 617 588 524 Q 575 506 595 508 Q 634 529 753 600 Q 775 616 804 626 Q 829 636 818 656 Q 805 677 776 695 Q 751 713 736 710 Q 721 710 725 694 Q 728 673 710 654 Z" fill="lightgray"></path>
				<path d="M 266 327 Q 428 408 432 409 Q 454 416 445 435 Q 435 454 411 471 Q 390 487 377 486 Q 364 486 367 473 Q 367 449 277 366 Q 265 357 253 345 C 231 324 239 314 266 327 Z" fill="lightgray"></path>
				<path d="M 308 68 Q 305 84 300 100 Q 293 140 284 191 L 283 192 L 279 220 Q 272 274 268 317 Q 268 323 266 327 L 253 345 Q 222 364 188 372 Q 181 375 175 369 Q 166 362 178 350 Q 227 275 245 92 Q 249 23 293 -4 L 295 -5 Q 314 -9 314 24 Q 314 27 313 29 L 308 68 Z" fill="lightgray"></path>
				<path d="M 283 192 Q 287 191 294 192 Q 376 207 438 216 Q 463 222 454 235 Q 441 251 413 255 Q 368 259 279 220 C 251 208 253 194 283 192 Z" fill="lightgray"></path>
				<path d="M 672 50 Q 687 28 704 -14 Q 714 -35 733 -23 Q 769 -5 790 132 Q 824 334 841 358 Q 841 361 843 362 Q 856 384 839 399 Q 775 459 734 442 Q 658 423 558 419 Q 548 419 547 407 Q 548 397 564 388 Q 588 376 632 383 Q 737 408 755 398 Q 765 391 764 365 Q 760 317 752 268 L 748 239 Q 735 166 718 89 Q 715 77 697 79 C 669 70 662 67 672 50 Z" fill="lightgray"></path>
				<path d="M 752 268 Q 719 292 588 262 Q 566 258 545 253 Q 527 252 547 233 Q 557 226 577 227 Q 674 236 748 239 C 778 240 778 253 752 268 Z" fill="lightgray"></path>
				<path d="M 697 79 Q 667 109 626 102 Q 449 74 308 68 C 278 67 283 27 313 29 Q 320 29 329 30 Q 438 48 672 50 C 702 50 720 59 697 79 Z" fill="lightgray"></path>
</g>
		<text x="40" y="140" font-size="128" fill="#999999">3</text></g>
		<g id="id0:id3:id3" transform="matrix(1.0,0,0,1.0,3072,0.0)">			<g stroke="lightgray" stroke-width="4" transform="scale(4, 4)"> <rect x="0" y="0" width="256" height="256" fill="white" stroke-width="4"/></g>
			<g transform="scale(0.92, -0.92) translate(60, -920)">					<path d="M 533 797 Q 466 746 294 689 Q 287 679 294 676 Q 328 667 526 727 Q 559 746 640 755 Q 658 755 663 763 Q 667 773 656 787 Q 635 806 590 828 Q 574 838 560 837 Q 551 834 550 822 Q 549 806 533 797 Z" fill="black"></path>
				<path d="M 263 569 Q 288 544 313 512 Q 326 497 343 496 Q 353 495 361 509 Q 367 524 361 556 Q 355 589 263 620 Q 247 624 240 623 Q 234 619 235 606 Q 238 594 263 569 Z" fill="black"></path>
				<path d="M 435 625 Q 483 537 506 529 Q 521 525 532 543 Q 536 556 531 581 Q 516 620 446 653 Q 436 657 433 645 Q 429 636 435 625 Z" fill="black"></path>
				<path d="M 710 654 Q 683 617 588 524 Q 575 506 595 508 Q 634 529 753 600 Q 775 616 804 626 Q 829 636 818 656 Q 805 677 776 695 Q 751 713 736 710 Q 721 710 725 694 Q 728 673 710 654 Z" fill="red"></path>
				<path d="M 266 327 Q 428 408 432 409 Q 454 416 445 435 Q 435 454 411 471 Q 390 487 377 486 Q 364 486 367 473 Q 367 449 277 366 Q 265 357 253 345 C 231 324 239 314 266 327 Z" fill="lightgray"></path>
				<path d="M 308 68 Q 305 84 300 100 Q 293 140 284 191 L 283 192 L 279 220 Q 272 274 268 317 Q 268 323 266 327 L 253 345 Q 222 364 188 372 Q 181 375 175 369 Q 166 362 178 350 Q 227 275 245 92 Q 249 23 293 -4 L 295 -5 Q 314 -9 314 24 Q 314 27 313 29 L 308 68 Z" fill="lightgray"></path>
				<path d="M 283 192 Q 287 191 294 192 Q 376 207 438 216 Q 463 222 454 235 Q 441 251 413 255 Q 368 259 279 220 C 251 208 253 194 283 192 Z" fill="lightgray"></path>
				<path d="M 672 50 Q 687 28 704 -14 Q 714 -35 733 -23 Q 769 -5 790 132 Q 824 334 841 358 Q 841 361 843 362 Q 856 384 839 399 Q 775 459 734 442 Q 658 423 558 419 Q 548 419 547 407 Q 548 397 564 388 Q 588 376 632 383 Q 737 408 755 398 Q 765 391 764 365 Q 760 317 752 268 L 748 239 Q 735 166 718 89 Q 715 77 697 79 C 669 70 662 67 672 50 Z" fill="lightgray"></path>
				<path d="M 752 268 Q 719 292 588 262 Q 566 258 545 253 Q 527 252 547 233 Q 557 226 577 227 Q 674 236 748 239 C 778 240 778 253 752 268 Z" fill="lightgray"></path>
				<path d="M 697 79 Q 667 109 626 102 Q 449 74 308 68 C 278 67 283 27 313 29 Q 320 29 329 30 Q 438 48 672 50 C 702 50 720 59 697 79 Z" fill="lightgray"></path>
</g>
		<text x="40" y="140" font-size="128" fill="#999999">4</text></g>
		<g id="id0:id4:id4" transform="matrix(1.0,0,0,1.0,4096,0.0)">			<g stroke="lightgray" stroke-width="4" transform="scale(4, 4)"> <rect x="0" y="0" width="256" height="256" fill="white" stroke-width="4"/></g>
			<g transform="scale(0.92, -0.92) translate(60, -920)">					<path d="M 533 797 Q 466 746 294 689 Q 287 679 294 676 Q 328 667 526 727 Q 559 746 640 755 Q 658 755 663 763 Q 667 773 656 787 Q 635 806 590 828 Q 574 838 560 837 Q 551 834 550 822 Q 549 806 533 797 Z" fill="black"></path>
				<path d="M 263 569 Q 288 544 313 512 Q 326 497 343 496 Q 353 495 361 509 Q 367 524 361 556 Q 355 589 263 620 Q 247 624 240 623 Q 234 619 235 606 Q 238 594 263 569 Z" fill="black"></path>
				<path d="M 435 625 Q 483 537 506 529 Q 521 525 532 543 Q 536 556 531 581 Q 516 620 446 653 Q 436 657 433 645 Q 429 636 435 625 Z" fill="black"></path>
				<path d="M 710 654 Q 683 617 588 524 Q 575 506 595 508 Q 634 529 753 600 Q 775 616 804 626 Q 829 636 818 656 Q 805 677 776 695 Q 751 713 736 710 Q 721 710 725 694 Q 728 673 710 654 Z" fill="black"></path>
				<path d="M 266 327 Q 428 408 432 409 Q 454 416 445 435 Q 435 454 411 471 Q 390 487 377 486 Q 364 486 367 473 Q 367 449 277 366 Q 265 357 253 345 C 231 324 239 314 266 327 Z" fill="red"></path>
				<path d="M 308 68 Q 305 84 300 100 Q 293 140 284 191 L 283 192 L 279 220 Q 272 274 268 317 Q 268 323 266 327 L 253 345 Q 222 364 188 372 Q 181 375 175 369 Q 166 362 178 350 Q 227 275 245 92 Q 249 23 293 -4 L 295 -5 Q 314 -9 314 24 Q 314 27 313 29 L 308 68 Z" fill="lightgray"></path>
				<path d="M 283 192 Q 287 191 294 192 Q 376 207 438 216 Q 463 222 454 235 Q 441 251 413 255 Q 368 259 279 220 C 251 208 253 194 283 192 Z" fill="lightgray"></path>
				<path d="M 672 50 Q 687 28 704 -14 Q 714 -35 733 -23 Q 769 -5 790 132 Q 824 334 841 358 Q 841 361 843 362 Q 856 384 839 399 Q 775 459 734 442 Q 658 423 558 419 Q 548 419 547 407 Q 548 397 564 388 Q 588 376 632 383 Q 737 408 755 398 Q 765 391 764 365 Q 760 317 752 268 L 748 239 Q 735 166 718 89 Q 715 77 697 79 C 669 70 662 67 672 50 Z" fill="lightgray"></path>
				<path d="M 752 268 Q 719 292 588 262 Q 566 258 545 253 Q 527 252 547 233 Q 557 226 577 227 Q 674 236 748 239 C 778 240 778 253 752 268 Z" fill="lightgray"></path>
				<path d="M 697 79 Q 667 109 626 102 Q 449 74 308 68 C 278 67 283 27 313 29 Q 320 29 329 30 Q 438 48 672 50 C 702 50 720 59 697 79 Z" fill="lightgray"></path>
</g>
		<text x="40" y="140" font-size="128" fill="#999999">5</text></g>
</g>
	<g id="id1:id1" transform="translate(0.0,1024)">
		<g id="id1:id0:id0" transform="matrix(1.0,0,0,1.0,0,0.0)">			<g stroke="lightgray" stroke-width="4" transform="scale(4, 4)"> <rect x="0" y="0" width="256" height="256" fill="white" stroke-width="4"/></g>
			<g transform="scale(0.92, -0.92) translate(60, -920)">					<path d="M 533 797 Q 466 746 294 689 Q 287 679 294 676 Q 328 667 526 727 Q 559 746 640 755 Q 658 755 663 763 Q 667 773 656 787 Q 635 806 590 828 Q 574 838 560 837 Q 551 834 550 822 Q 549 806 533 797 Z" fill="black"></path>
				<path d="M 263 569 Q 288 544 313 512 Q 326 497 343 496 Q 353 495 361 509 Q 367 524 361 556 Q 355 589 263 620 Q 247 624 240 623 Q 234 619 235 606 Q 238 594 263 569 Z" fill="black"></path>
				<path d="M 435 625 Q 483 537 506 529 Q 521 525 532 543 Q 536 556 531 581 Q 516 620 446 653 Q 436 657 433 645 Q 429 636 435 625 Z" fill="black"></path>
				<path d="M 710 654 Q 683 617 588 524 Q 575 506 595 508 Q 634 529 753 600 Q 775 616 804 626 Q 829 636 818 656 Q 805 677 776 695 Q 751 713 736 710 Q 721 710 725 694 Q 728 673 710 654 Z" fill="black"></path>
				<path d="M 266 327 Q 428 408 432 409 Q 454 416 445 435 Q 435 454 411 471 Q 390 487 377 486 Q 364 486 367 473 Q 367 449 277 366 Q 265 357 253 345 C 231 324 239 314 266 327 Z" fill="black"></path>
				<path d="M 308 68 Q 305 84 300 100 Q 293 140 284 191 L 283 192 L 279 220 Q 272 274 268 317 Q 268 323 266 327 L 253 345 Q 222 364 188 372 Q 181 375 175 369 Q 166 362 178 350 Q 227 275 245 92 Q 249 23 293 -4 L 295 -5 Q 314 -9 314 24 Q 314 27 313 29 L 308 68 Z" fill="red"></path>
				<path d="M 283 192 Q 287 191 294 192 Q 376 207 438 216 Q 463 222 454 235 Q 441 251 413 255 Q 368 259 279 220 C 251 208 253 194 283 192 Z" fill="lightgray"></path>
				<path d="M 672 50 Q 687 28 704 -14 Q 714 -35 733 -23 Q 769 -5 790 132 Q 824 334 841 358 Q 841 361 843 362 Q 856 384 839 399 Q 775 459 734 442 Q 658 423 558 419 Q 548 419 547 407 Q 548 397 564 388 Q 588 376 632 383 Q 737 408 755 398 Q 765 391 764 365 Q 760 317 752 268 L 748 239 Q 735 166 718 89 Q 715 77 697 79 C 669 70 662 67 672 50 Z" fill="lightgray"></path>
				<path d="M 752 268 Q 719 292 588 262 Q 566 258 545 253 Q 527 252 547 233 Q 557 226 577 227 Q 674 236 748 239 C 778 240 778 253 752 268 Z" fill="lightgray"></path>
				<path d="M 697 79 Q 667 109 626 102 Q 449 74 308 68 C 278 67 283 27 313 29 Q 320 29 329 30 Q 438 48 672 50 C 702 50 720 59 697 79 Z" fill="lightgray"></path>
</g>
		<text x="40" y="140" font-size="128" fill="#999999">6</text></g>
		<g id="id1:id1:id1" transform="matrix(1.0,0,0,1.0,1024,0.0)">			<g stroke="lightgray" stroke-width="4" transform="scale(4, 4)"> <rect x="0" y="0" width="256" height="256" fill="white" stroke-width="4"/></g>
			<g transform="scale(0.92, -0.92) translate(60, -920)">					<path d="M 533 797 Q 466 746 294 689 Q 287 679 294 676 Q 328 667 526 727 Q 559 746 640 755 Q 658 755 663 763 Q 667 773 656 787 Q 635 806 590 828 Q 574 838 560 837 Q 551 834 550 822 Q 549 806 533 797 Z" fill="black"></path>
				<path d="M 263 569 Q 288 544 313 512 Q 326 497 343 496 Q 353 495 361 509 Q 367 524 361 556 Q 355 589 263 620 Q 247 624 240 623 Q 234 619 235 606 Q 238 594 263 569 Z" fill="black"></path>
				<path d="M 435 625 Q 483 537 506 529 Q 521 525 532 543 Q 536 556 531 581 Q 516 620 446 653 Q 436 657 433 645 Q 429 636 435 625 Z" fill="black"></path>
				<path d="M 710 654 Q 683 617 588 524 Q 575 506 595 508 Q 634 529 753 600 Q 775 616 804 626 Q 829 636 818 656 Q 805 677 776 695 Q 751 713 736 710 Q 721 710 725 694 Q 728 673 710 654 Z" fill="black"></path>
				<path d="M 266 327 Q 428 408 432 409 Q 454 416 445 435 Q 435 454 411 471 Q 390 487 377 486 Q 364 486 367 473 Q 367 449 277 366 Q 265 357 253 345 C 231 324 239 314 266 327 Z" fill="black"></path>
				<path d="M 308 68 Q 305 84 300 100 Q 293 140 284 191 L 283 192 L 279 220 Q 272 274 268 317 Q 268 323 266 327 L 253 345 Q 222 364 188 372 Q 181 375 175 369 Q 166 362 178 350 Q 227 275 245 92 Q 249 23 293 -4 L 295 -5 Q 314 -9 314 24 Q 314 27 313 29 L 308 68 Z" fill="black"></path>
				<path d="M 283 192 Q 287 191 294 192 Q 376 207 438 216 Q 463 222 454 235 Q 441 251 413 255 Q 368 259 279 220 C 251 208 253 194 283 192 Z" fill="red"></path>
				<path d="M 672 50 Q 687 28 704 -14 Q 714 -35 733 -23 Q 769 -5 790 132 Q 824 334 841 358 Q 841 361 843 362 Q 856 384 839 399 Q 775 459 734 442 Q 658 423 558 419 Q 548 419 547 407 Q 548 397 564 388 Q 588 376 632 383 Q 737 408 755 398 Q 765 391 764 365 Q 760 317 752 268 L 748 239 Q 735 166 718 89 Q 715 77 697 79 C 669 70 662 67 672 50 Z" fill="lightgray"></path>
				<path d="M 752 268 Q 719 292 588 262 Q 566 258 545 253 Q 527 252 547 233 Q 557 226 577 227 Q 674 236 748 239 C 778 240 778 253 752 268 Z" fill="lightgray"></path>
				<path d="M 697 79 Q 667 109 626 102 Q 449 74 308 68 C 278 67 283 27 313 29 Q 320 29 329 30 Q 438 48 672 50 C 702 50 720 59 697 79 Z" fill="lightgray"></path>
</g>
		<text x="40" y="140" font-size="128" fill="#999999">7</text></g>
		<g id="id1:id2:id2" transform="matrix(1.0,0,0,1.0,2048,0.0)">			<g stroke="lightgray" stroke-width="4" transform="scale(4, 4)"> <rect x="0" y="0" width="256" height="256" fill="white" stroke-width="4"/></g>
			<g transform="scale(0.92, -0.92) translate(60, -920)">					<path d="M 533 797 Q 466 746 294 689 Q 287 679 294 676 Q 328 667 526 727 Q 559 746 640 755 Q 658 755 663 763 Q 667 773 656 787 Q 635 806 590 828 Q 574 838 560 837 Q 551 834 550 822 Q 549 806 533 797 Z" fill="black"></path>
				<path d="M 263 569 Q 288 544 313 512 Q 326 497 343 496 Q 353 495 361 509 Q 367 524 361 556 Q 355 589 263 620 Q 247 624 240 623 Q 234 619 235 606 Q 238 594 263 569 Z" fill="black"></path>
				<path d="M 435 625 Q 483 537 506 529 Q 521 525 532 543 Q 536 556 531 581 Q 516 620 446 653 Q 436 657 433 645 Q 429 636 435 625 Z" fill="black"></path>
				<path d="M 710 654 Q 683 617 588 524 Q 575 506 595 508 Q 634 529 753 600 Q 775 616 804 626 Q 829 636 818 656 Q 805 677 776 695 Q 751 713 736 710 Q 721 710 725 694 Q 728 673 710 654 Z" fill="black"></path>
				<path d="M 266 327 Q 428 408 432 409 Q 454 416 445 435 Q 435 454 411 471 Q 390 487 377 486 Q 364 486 367 473 Q 367 449 277 366 Q 265 357 253 345 C 231 324 239 314 266 327 Z" fill="black"></path>
				<path d="M 308 68 Q 305 84 300 100 Q 293 140 284 191 L 283 192 L 279 220 Q 272 274 268 317 Q 268 323 266 327 L 253 345 Q 222 364 188 372 Q 181 375 175 369 Q 166 362 178 350 Q 227 275 245 92 Q 249 23 293 -4 L 295 -5 Q 314 -9 314 24 Q 314 27 313 29 L 308 68 Z" fill="black"></path>
				<path d="M 283 192 Q 287 191 294 192 Q 376 207 438 216 Q 463 222 454 235 Q 441 251 413 255 Q 368 259 279 220 C 251 208 253 194 283 192 Z" fill="black"></path>
				<path d="M 672 50 Q 687 28 704 -14 Q 714 -35 733 -23 Q 769 -5 790 132 Q 824 334 841 358 Q 841 361 843 362 Q 856 384 839 399 Q 775 459 734 442 Q 658 423 558 419 Q 548 419 547 407 Q 548 397 564 388 Q 588 376 632 383 Q 737 408 755 398 Q 765 391 764 365 Q 760 317 752 268 L 748 239 Q 735 166 718 89 Q 715 77 697 79 C 669 70 662 67 672 50 Z" fill="red"></path>
				<path d="M 752 268 Q 719 292 588 262 Q 566 258 545 253 Q 527 252 547 233 Q 557 226 577 227 Q 674 236 748 239 C 778 240 778 253 752 268 Z" fill="lightgray"></path>
				<path d="M 697 79 Q 667 109 626 102 Q 449 74 308 68 C 278 67 283 27 313 29 Q 320 29 329 30 Q 438 48 672 50 C 702 50 720 59 697 79 Z" fill="lightgray"></path>
</g>
		<text x="40" y="140" font-size="128" fill="#999999">8</text></g>
		<g id="id1:id3:id3" transform="matrix(1.0,0,0,1.0,3072,0.0)">			<g stroke="lightgray" stroke-width="4" transform="scale(4, 4)"> <rect x="0" y="0" width="256" height="256" fill="white" stroke-width="4"/></g>
			<g transform="scale(0.92, -0.92) translate(60, -920)">					<path d="M 533 797 Q 466 746 294 689 Q 287 679 294 676 Q 328 667 526 727 Q 559 746 640 755 Q 658 755 663 763 Q 667 773 656 787 Q 635 806 590 828 Q 574 838 560 837 Q 551 834 550 822 Q 549 806 533 797 Z" fill="black"></path>
				<path d="M 263 569 Q 288 544 313 512 Q 326 497 343 496 Q 353 495 361 509 Q 367 524 361 556 Q 355 589 263 620 Q 247 624 240 623 Q 234 619 235 606 Q 238 594 263 569 Z" fill="black"></path>
				<path d="M 435 625 Q 483 537 506 529 Q 521 525 532 543 Q 536 556 531 581 Q 516 620 446 653 Q 436 657 433 645 Q 429 636 435 625 Z" fill="black"></path>
				<path d="M 710 654 Q 683 617 588 524 Q 575 506 595 508 Q 634 529 753 600 Q 775 616 804 626 Q 829 636 818 656 Q 805 677 776 695 Q 751 713 736 710 Q 721 710 725 694 Q 728 673 710 654 Z" fill="black"></path>
				<path d="M 266 327 Q 428 408 432 409 Q 454 416 445 435 Q 435 454 411 471 Q 390 487 377 486 Q 364 486 367 473 Q 367 449 277 366 Q 265 357 253 345 C 231 324 239 314 266 327 Z" fill="black"></path>
				<path d="M 308 68 Q 305 84 300 100 Q 293 140 284 191 L 283 192 L 279 220 Q 272 274 268 317 Q 268 323 266 327 L 253 345 Q 222 364 188 372 Q 181 375 175 369 Q 166 362 178 350 Q 227 275 245 92 Q 249 23 293 -4 L 295 -5 Q 314 -9 314 24 Q 314 27 313 29 L 308 68 Z" fill="black"></path>
				<path d="M 283 192 Q 287 191 294 192 Q 376 207 438 216 Q 463 222 454 235 Q 441 251 413 255 Q 368 259 279 220 C 251 208 253 194 283 192 Z" fill="black"></path>
				<path d="M 672 50 Q 687 28 704 -14 Q 714 -35 733 -23 Q 769 -5 790 132 Q 824 334 841 358 Q 841 361 843 362 Q 856 384 839 399 Q 775 459 734 442 Q 658 423 558 419 Q 548 419 547 407 Q 548 397 564 388 Q 588 376 632 383 Q 737 408 755 398 Q 765 391 764 365 Q 760 317 752 268 L 748 239 Q 735 166 718 89 Q 715 77 697 79 C 669 70 662 67 672 50 Z" fill="black"></path>
				<path d="M 752 268 Q 719 292 588 262 Q 566 258 545 253 Q 527 252 547 233 Q 557 226 577 227 Q 674 236 748 239 C 778 240 778 253 752 268 Z" fill="red"></path>
				<path d="M 697 79 Q 667 109 626 102 Q 449 74 308 68 C 278 67 283 27 313 29 Q 320 29 329 30 Q 438 48 672 50 C 702 50 720 59 697 79 Z" fill="lightgray"></path>
</g>
		<text x="40" y="140" font-size="128" fill="#999999">9</text></g>
		<g id="id1:id4:id4" transform="matrix(1.0,0,0,1.0,4096,0.0)">			<g stroke="lightgray" stroke-width="4" transform="scale(4, 4)"> <rect x="0" y="0" width="256" height="256" fill="white" stroke-width="4"/></g>
			<g transform="scale(0.92, -0.92) translate(60, -920)">					<path d="M 533 797 Q 466 746 294 689 Q 287 679 294 676 Q 328 667 526 727 Q 559 746 640 755 Q 658 755 663 763 Q 667 773 656 787 Q 635 806 590 828 Q 574 838 560 837 Q 551 834 550 822 Q 549 806 533 797 Z" fill="black"></path>
				<path d="M 263 569 Q 288 544 313 512 Q 326 497 343 496 Q 353 495 361 509 Q 367 524 361 556 Q 355 589 263 620 Q 247 624 240 623 Q 234 619 235 606 Q 238 594 263 569 Z" fill="black"></path>
				<path d="M 435 625 Q 483 537 506 529 Q 521 525 532 543 Q 536 556 531 581 Q 516 620 446 653 Q 436 657 433 645 Q 429 636 435 625 Z" fill="black"></path>
				<path d="M 710 654 Q 683 617 588 524 Q 575 506 595 508 Q 634 529 753 600 Q 775 616 804 626 Q 829 636 818 656 Q 805 677 776 695 Q 751 713 736 710 Q 721 710 725 694 Q 728 673 710 654 Z" fill="black"></path>
				<path d="M 266 327 Q 428 408 432 409 Q 454 416 445 435 Q 435 454 411 471 Q 390 487 377 486 Q 364 486 367 473 Q 367 449 277 366 Q 265 357 253 345 C 231 324 239 314 266 327 Z" fill="black"></path>
				<path d="M 308 68 Q 305 84 300 100 Q 293 140 284 191 L 283 192 L 279 220 Q 272 274 268 317 Q 268 323 266 327 L 253 345 Q 222 364 188 372 Q 181 375 175 369 Q 166 362 178 350 Q 227 275 245 92 Q 249 23 293 -4 L 295 -5 Q 314 -9 314 24 Q 314 27 313 29 L 308 68 Z" fill="black"></path>
				<path d="M 283 192 Q 287 191 294 192 Q 376 207 438 216 Q 463 222 454 235 Q 441 251 413 255 Q 368 259 279 220 C 251 208 253 194 283 192 Z" fill="black"></path>
				<path d="M 672 50 Q 687 28 704 -14 Q 714 -35 733 -23 Q 769 -5 790 132 Q 824 334 841 358 Q 841 361 843 362 Q 856 384 839 399 Q 775 459 734 442 Q 658 423 558 419 Q 548 419 547 407 Q 548 397 564 388 Q 588 376 632 383 Q 737 408 755 398 Q 765 391 764 365 Q 760 317 752 268 L 748 239 Q 735 166 718 89 Q 715 77 697 79 C 669 70 662 67 672 50 Z" fill="black"></path>
				<path d="M 752 268 Q 719 292 588 262 Q 566 258 545 253 Q 527 252 547 233 Q 557 226 577 227 Q 674 236 748 239 C 778 240 778 253 752 268 Z" fill="black"></path>
				<path d="M 697 79 Q 667 109 626 102 Q 449 74 308 68 C 278 67 283 27 313 29 Q 320 29 329 30 Q 438 48 672 50 C 702 50 720 59 697 79 Z" fill="red"></path>
</g>
		<text x="40" y="140" font-size="128" fill="#999999">10</text></g>
</g>
</svg>
