<?xml version="1.0" standalone="no"?>
<!DOCTYPE svg PUBLIC "-//W3C//DTD SVG 1.1//EN"
 "http://www.w3.org/Graphics/SVG/1.1/DTD/svg11.dtd">
<!-- generate by Handict dictionary app com.asnsami.handict -->

<svg xmlns="http://www.w3.org/2000/svg" xmlns:sodipodi="http://sodipodi.sourceforge.net/DTD/sodipodi-0.dtd" version="1.1" width="640" height="256" viewBox="0 0 5120 2048">
	<g id="id0:id0" transform="translate(0.0,0)">
		<g id="id0:id0:id0" transform="matrix(1.0,0,0,1.0,0,0.0)">			<g stroke="lightgray" stroke-width="4" transform="scale(4, 4)"> <rect x="0" y="0" width="256" height="256" fill="white" stroke-width="4"/></g>
			<g transform="scale(0.92, -0.92) translate(60, -920)">					<path d="M 419 643 Q 548 781 565 792 Q 584 805 570 821 Q 554 836 524 845 Q 499 854 486 849 Q 473 845 480 832 Q 489 805 418 682 Q 409 667 400 650 C 386 624 399 621 419 643 Z" fill="red"></path>
				<path d="M 400 650 Q 363 666 351 664 Q 330 660 347 638 Q 378 584 367 389 L 364 354 Q 342 150 187 8 Q 174 -5 170 -12 Q 169 -19 180 -18 Q 219 -18 301 70 Q 392 179 413 359 L 417 393 Q 424 475 426 581 Q 430 600 431 613 C 437 658 428 639 400 650 Z" fill="lightgray"></path>
				<path d="M 431 613 L 584 642 Q 606 646 612 634 Q 619 615 623 583 Q 627 495 632 416 L 633 374 Q 642 88 625 53 Q 619 46 597 51 Q 563 57 528 64 Q 506 68 509 59 Q 579 10 620 -27 Q 635 -46 651 -51 Q 661 -55 670 -44 Q 709 13 706 67 Q 696 194 687 375 L 685 423 Q 684 478 682 536 Q 679 597 694 624 Q 707 646 694 656 Q 672 675 632 691 Q 613 698 596 691 Q 523 655 419 643 C 389 639 402 607 431 613 Z" fill="lightgray"></path>
				<path d="M 470 527 Q 524 458 546 454 Q 559 453 565 469 Q 566 481 559 500 Q 541 531 476 551 Q 467 552 466 542 Q 465 535 470 527 Z" fill="lightgray"></path>
				<path d="M 413 359 Q 497 372 633 374 L 687 375 Q 795 378 918 371 Q 940 370 946 380 Q 953 393 935 409 Q 871 457 800 440 Q 748 434 685 423 L 632 416 Q 575 412 512 403 Q 466 399 417 393 L 367 389 Q 246 380 115 368 Q 91 367 108 347 Q 123 331 143 324 Q 165 317 184 322 Q 269 343 364 354 L 413 359 Z" fill="lightgray"></path>
				<path d="M 480 272 Q 504 248 528 219 Q 538 206 554 206 Q 564 205 569 217 Q 575 230 569 258 Q 562 288 480 316 Q 467 320 460 319 Q 456 315 455 304 Q 458 294 480 272 Z" fill="lightgray"></path>
</g>
		<text x="40" y="140" font-size="128" fill="#999999">1</text></g>
		<g id="id0:id1:id1" transform="matrix(1.0,0,0,1.0,1024,0.0)">			<g stroke="lightgray" stroke-width="4" transform="scale(4, 4)"> <rect x="0" y="0" width="256" height="256" fill="white" stroke-width="4"/></g>
			<g transform="scale(0.92, -0.92) translate(60, -920)">					<path d="M 419 643 Q 548 781 565 792 Q 584 805 570 821 Q 554 836 524 845 Q 499 854 486 849 Q 473 845 480 832 Q 489 805 418 682 Q 409 667 400 650 C 386 624 399 621 419 643 Z" fill="black"></path>
				<path d="M 400 650 Q 363 666 351 664 Q 330 660 347 638 Q 378 584 367 389 L 364 354 Q 342 150 187 8 Q 174 -5 170 -12 Q 169 -19 180 -18 Q 219 -18 301 70 Q 392 179 413 359 L 417 393 Q 424 475 426 581 Q 430 600 431 613 C 437 658 428 639 400 650 Z" fill="red"></path>
				<path d="M 431 613 L 584 642 Q 606 646 612 634 Q 619 615 623 583 Q 627 495 632 416 L 633 374 Q 642 88 625 53 Q 619 46 597 51 Q 563 57 528 64 Q 506 68 509 59 Q 579 10 620 -27 Q 635 -46 651 -51 Q 661 -55 670 -44 Q 709 13 706 67 Q 696 194 687 375 L 685 423 Q 684 478 682 536 Q 679 597 694 624 Q 707 646 694 656 Q 672 675 632 691 Q 613 698 596 691 Q 523 655 419 643 C 389 639 402 607 431 613 Z" fill="lightgray"></path>
				<path d="M 470 527 Q 524 458 546 454 Q 559 453 565 469 Q 566 481 559 500 Q 541 531 476 551 Q 467 552 466 542 Q 465 535 470 527 Z" fill="lightgray"></path>
				<path d="M 413 359 Q 497 372 633 374 L 687 375 Q 795 378 918 371 Q 940 370 946 380 Q 953 393 935 409 Q 871 457 800 440 Q 748 434 685 423 L 632 416 Q 575 412 512 403 Q 466 399 417 393 L 367 389 Q 246 380 115 368 Q 91 367 108 347 Q 123 331 143 324 Q 165 317 184 322 Q 269 343 364 354 L 413 359 Z" fill="lightgray"></path>
				<path d="M 480 272 Q 504 248 528 219 Q 538 206 554 206 Q 564 205 569 217 Q 575 230 569 258 Q 562 288 480 316 Q 467 320 460 319 Q 456 315 455 304 Q 458 294 480 272 Z" fill="lightgray"></path>
</g>
		<text x="40" y="140" font-size="128" fill="#999999">2</text></g>
		<g id="id0:id2:id2" transform="matrix(1.0,0,0,1.0,2048,0.0)">			<g stroke="lightgray" stroke-width="4" transform="scale(4, 4)"> <rect x="0" y="0" width="256" height="256" fill="white" stroke-width="4"/></g>
			<g transform="scale(0.92, -0.92) translate(60, -920)">					<path d="M 419 643 Q 548 781 565 792 Q 584 805 570 821 Q 554 836 524 845 Q 499 854 486 849 Q 473 845 480 832 Q 489 805 418 682 Q 409 667 400 650 C 386 624 399 621 419 643 Z" fill="black"></path>
				<path d="M 400 650 Q 363 666 351 664 Q 330 660 347 638 Q 378 584 367 389 L 364 354 Q 342 150 187 8 Q 174 -5 170 -12 Q 169 -19 180 -18 Q 219 -18 301 70 Q 392 179 413 359 L 417 393 Q 424 475 426 581 Q 430 600 431 613 C 437 658 428 639 400 650 Z" fill="black"></path>
				<path d="M 431 613 L 584 642 Q 606 646 612 634 Q 619 615 623 583 Q 627 495 632 416 L 633 374 Q 642 88 625 53 Q 619 46 597 51 Q 563 57 528 64 Q 506 68 509 59 Q 579 10 620 -27 Q 635 -46 651 -51 Q 661 -55 670 -44 Q 709 13 706 67 Q 696 194 687 375 L 685 423 Q 684 478 682 536 Q 679 597 694 624 Q 707 646 694 656 Q 672 675 632 691 Q 613 698 596 691 Q 523 655 419 643 C 389 639 402 607 431 613 Z" fill="red"></path>
				<path d="M 470 527 Q 524 458 546 454 Q 559 453 565 469 Q 566 481 559 500 Q 541 531 476 551 Q 467 552 466 542 Q 465 535 470 527 Z" fill="lightgray"></path>
				<path d="M 413 359 Q 497 372 633 374 L 687 375 Q 795 378 918 371 Q 940 370 946 380 Q 953 393 935 409 Q 871 457 800 440 Q 748 434 685 423 L 632 416 Q 575 412 512 403 Q 466 399 417 393 L 367 389 Q 246 380 115 368 Q 91 367 108 347 Q 123 331 143 324 Q 165 317 184 322 Q 269 343 364 354 L 413 359 Z" fill="lightgray"></path>
				<path d="M 480 272 Q 504 248 528 219 Q 538 206 554 206 Q 564 205 569 217 Q 575 230 569 258 Q 562 288 480 316 Q 467 320 460 319 Q 456 315 455 304 Q 458 294 480 272 Z" fill="lightgray"></path>
</g>
		<text x="40" y="140" font-size="128" fill="#999999">3</text></g>
		<g id="id0:id3:id3" transform="matrix(1.0,0,0,1.0,3072,0.0)">			<g stroke="lightgray" stroke-width="4" transform="scale(4, 4)"> <rect x="0" y="0" width="256" height="256" fill="white" stroke-width="4"/></g>
			<g transform="scale(0.92, -0.92) translate(60, -920)">					<path d="M 419 643 Q 548 781 565 792 Q 584 805 570 821 Q 554 836 524 845 Q 499 854 486 849 Q 473 845 480 832 Q 489 805 418 682 Q 409 667 400 650 C 386 624 399 621 419 643 Z" fill="black"></path>
				<path d="M 400 650 Q 363 666 351 664 Q 330 660 347 638 Q 378 584 367 389 L 364 354 Q 342 150 187 8 Q 174 -5 170 -12 Q 169 -19 180 -18 Q 219 -18 301 70 Q 392 179 413 359 L 417 393 Q 424 475 426 581 Q 430 600 431 613 C 437 658 428 639 400 650 Z" fill="black"></path>
				<path d="M 431 613 L 584 642 Q 606 646 612 634 Q 619 615 623 583 Q 627 495 632 416 L 633 374 Q 642 88 625 53 Q 619 46 597 51 Q 563 57 528 64 Q 506 68 509 59 Q 579 10 620 -27 Q 635 -46 651 -51 Q 661 -55 670 -44 Q 709 13 706 67 Q 696 194 687 375 L 685 423 Q 684 478 682 536 Q 679 597 694 624 Q 707 646 694 656 Q 672 675 632 691 Q 613 698 596 691 Q 523 655 419 643 C 389 639 402 607 431 613 Z" fill="black"></path>
				<path d="M 470 527 Q 524 458 546 454 Q 559 453 565 469 Q 566 481 559 500 Q 541 531 476 551 Q 467 552 466 542 Q 465 535 470 527 Z" fill="red"></path>
				<path d="M 413 359 Q 497 372 633 374 L 687 375 Q 795 378 918 371 Q 940 370 946 380 Q 953 393 935 409 Q 871 457 800 440 Q 748 434 685 423 L 632 416 Q 575 412 512 403 Q 466 399 417 393 L 367 389 Q 246 380 115 368 Q 91 367 108 347 Q 123 331 143 324 Q 165 317 184 322 Q 269 343 364 354 L 413 359 Z" fill="lightgray"></path>
				<path d="M 480 272 Q 504 248 528 219 Q 538 206 554 206 Q 564 205 569 217 Q 575 230 569 258 Q 562 288 480 316 Q 467 320 460 319 Q 456 315 455 304 Q 458 294 480 272 Z" fill="lightgray"></path>
</g>
		<text x="40" y="140" font-size="128" fill="#999999">4</text></g>
		<g id="id0:id4:id4" transform="matrix(1.0,0,0,1.0,4096,0.0)">			<g stroke="lightgray" stroke-width="4" transform="scale(4, 4)"> <rect x="0" y="0" width="256" height="256" fill="white" stroke-width="4"/></g>
			<g transform="scale(0.92, -0.92) translate(60, -920)">					<path d="M 419 643 Q 548 781 565 792 Q 584 805 570 821 Q 554 836 524 845 Q 499 854 486 849 Q 473 845 480 832 Q 489 805 418 682 Q 409 667 400 650 C 386 624 399 621 419 643 Z" fill="black"></path>
				<path d="M 400 650 Q 363 666 351 664 Q 330 660 347 638 Q 378 584 367 389 L 364 354 Q 342 150 187 8 Q 174 -5 170 -12 Q 169 -19 180 -18 Q 219 -18 301 70 Q 392 179 413 359 L 417 393 Q 424 475 426 581 Q 430 600 431 613 C 437 658 428 639 400 650 Z" fill="black"></path>
				<path d="M 431 613 L 584 642 Q 606 646 612 634 Q 619 615 623 583 Q 627 495 632 416 L 633 374 Q 642 88 625 53 Q 619 46 597 51 Q 563 57 528 64 Q 506 68 509 59 Q 579 10 620 -27 Q 635 -46 651 -51 Q 661 -55 670 -44 Q 709 13 706 67 Q 696 194 687 375 L 685 423 Q 684 478 682 536 Q 679 597 694 624 Q 707 646 694 656 Q 672 675 632 691 Q 613 698 596 691 Q 523 655 419 643 C 389 639 402 607 431 613 Z" fill="black"></path>
				<path d="M 470 527 Q 524 458 546 454 Q 559 453 565 469 Q 566 481 559 500 Q 541 531 476 551 Q 467 552 466 542 Q 465 535 470 527 Z" fill="black"></path>
				<path d="M 413 359 Q 497 372 633 374 L 687 375 Q 795 378 918 371 Q 940 370 946 380 Q 953 393 935 409 Q 871 457 800 440 Q 748 434 685 423 L 632 416 Q 575 412 512 403 Q 466 399 417 393 L 367 389 Q 246 380 115 368 Q 91 367 108 347 Q 123 331 143 324 Q 165 317 184 322 Q 269 343 364 354 L 413 359 Z" fill="red"></path>
				<path d="M 480 272 Q 504 248 528 219 Q 538 206 554 206 Q 564 205 569 217 Q 575 230 569 258 Q 562 288 480 316 Q 467 320 460 319 Q 456 315 455 304 Q 458 294 480 272 Z" fill="lightgray"></path>
</g>
		<text x="40" y="140" font-size="128" fill="#999999">5</text></g>
</g>
	<g id="id1:id1" transform="translate(0.0,1024)">
		<g id="id1:id0:id0" transform="matrix(1.0,0,0,1.0,0,0.0)">			<g stroke="lightgray" stroke-width="4" transform="scale(4, 4)"> <rect x="0" y="0" width="256" height="256" fill="white" stroke-width="4"/></g>
			<g transform="scale(0.92, -0.92) translate(60, -920)">					<path d="M 419 643 Q 548 781 565 792 Q 584 805 570 821 Q 554 836 524 845 Q 499 854 486 849 Q 473 845 480 832 Q 489 805 418 682 Q 409 667 400 650 C 386 624 399 621 419 643 Z" fill="black"></path>
				<path d="M 400 650 Q 363 666 351 664 Q 330 660 347 638 Q 378 584 367 389 L 364 354 Q 342 150 187 8 Q 174 -5 170 -12 Q 169 -19 180 -18 Q 219 -18 301 70 Q 392 179 413 359 L 417 393 Q 424 475 426 581 Q 430 600 431 613 C 437 658 428 639 400 650 Z" fill="black"></path>
				<path d="M 431 613 L 584 642 Q 606 646 612 634 Q 619 615 623 583 Q 627 495 632 416 L 633 374 Q 642 88 625 53 Q 619 46 597 51 Q 563 57 528 64 Q 506 68 509 59 Q 579 10 620 -27 Q 635 -46 651 -51 Q 661 -55 670 -44 Q 709 13 706 67 Q 696 194 687 375 L 685 423 Q 684 478 682 536 Q 679 597 694 624 Q 707 646 694 656 Q 672 675 632 691 Q 613 698 596 691 Q 523 655 419 643 C 389 639 402 607 431 613 Z" fill="black"></path>
				<path d="M 470 527 Q 524 458 546 454 Q 559 453 565 469 Q 566 481 559 500 Q 541 531 476 551 Q 467 552 466 542 Q 465 535 470 527 Z" fill="black"></path>
				<path d="M 413 359 Q 497 372 633 374 L 687 375 Q 795 378 918 371 Q 940 370 946 380 Q 953 393 935 409 Q 871 457 800 440 Q 748 434 685 423 L 632 416 Q 575 412 512 403 Q 466 399 417 393 L 367 389 Q 246 380 115 368 Q 91 367 108 347 Q 123 331 143 324 Q 165 317 184 322 Q 269 343 364 354 L 413 359 Z" fill="black"></path>
				<path d="M 480 272 Q 504 248 528 219 Q 538 206 554 206 Q 564 205 569 217 Q 575 230 569 258 Q 562 288 480 316 Q 467 320 460 319 Q 456 315 455 304 Q 458 294 480 272 Z" fill="red"></path>
</g>
		<text x="40" y="140" font-size="128" fill="#999999">6</text></g>
		<g id="id1:id1:id1" transform="matrix(1.0,0,0,1.0,1024,0.0)">			<g stroke="white" stroke-width="4" transform="scale(4, 4)"> <rect x="1" y="1" width="255" height="255" fill="white" stroke-width="0"/></g>
</g>
		<g id="id1:id2:id2" transform="matrix(1.0,0,0,1.0,2048,0.0)">			<g stroke="white" stroke-width="4" transform="scale(4, 4)"> <rect x="1" y="1" width="255" height="255" fill="white" stroke-width="0"/></g>
</g>
		<g id="id1:id3:id3" transform="matrix(1.0,0,0,1.0,3072,0.0)">			<g stroke="white" stroke-width="4" transform="scale(4, 4)"> <rect x="1" y="1" width="255" height="255" fill="white" stroke-width="0"/></g>
</g>
		<g id="id1:id4:id4" transform="matrix(1.0,0,0,1.0,4096,0.0)">			<g stroke="white" stroke-width="4" transform="scale(4, 4)"> <rect x="1" y="1" width="255" height="255" fill="white" stroke-width="0"/></g>
</g>
</g>
</svg>
