<?xml version="1.0" standalone="no"?>
<!DOCTYPE svg PUBLIC "-//W3C//DTD SVG 1.1//EN"
 "http://www.w3.org/Graphics/SVG/1.1/DTD/svg11.dtd">
<!-- generate by Handict dictionary app com.asnsami.handict -->

<svg xmlns="http://www.w3.org/2000/svg" xmlns:sodipodi="http://sodipodi.sourceforge.net/DTD/sodipodi-0.dtd" version="1.1" width="640" height="128" viewBox="0 0 5120 1024">
	<g id="id0:id0" transform="translate(0.0,0)">
		<g id="id0:id0:id0" transform="matrix(1.0,0,0,1.0,0,0.0)">			<g stroke="lightgray" stroke-width="4" transform="scale(4, 4)"> <rect x="0" y="0" width="256" height="256" fill="white" stroke-width="4"/></g>
			<g transform="scale(0.92, -0.92) translate(60, -920)">					<path d="M 604 624 Q 689 636 821 627 Q 837 626 843 635 Q 847 647 834 662 Q 786 705 698 684 Q 661 678 622 670 L 566 661 Q 487 651 401 639 L 353 633 Q 262 626 164 614 Q 133 611 155 595 Q 200 568 269 581 Q 315 593 360 599 L 405 607 Q 409 613 555 621 L 604 624 Z" fill="red"></path>
				<path d="M 401 639 Q 397 685 394 721 Q 395 743 374 748 Q 332 769 307 760 Q 288 750 305 730 Q 341 685 353 633 L 360 599 Q 375 524 391 508 Q 404 498 410 510 Q 417 531 411 555 Q 407 583 405 607 L 401 639 Z" fill="lightgray"></path>
				<path d="M 555 621 Q 537 557 538 536 Q 539 520 556 534 Q 580 555 604 624 L 622 670 Q 652 748 668 779 Q 684 795 672 807 Q 659 825 620 843 Q 601 853 582 843 Q 572 836 580 824 Q 592 797 588 764 Q 581 719 566 661 L 555 621 Z" fill="lightgray"></path>
				<path d="M 537 201 Q 579 274 604 376 Q 611 410 621 430 Q 628 443 619 453 Q 598 478 574 491 Q 550 504 539 502 Q 529 498 530 485 Q 554 367 493 243 L 470 200 Q 395 92 157 34 Q 145 34 140 29 Q 133 25 143 19 Q 150 16 165 17 Q 282 21 367 58 Q 440 85 505 157 L 537 201 Z" fill="lightgray"></path>
				<path d="M 505 157 Q 569 78 655 -1 Q 677 -26 713 -27 Q 822 -33 911 -23 Q 957 -19 954 -6 Q 953 1 907 16 Q 690 70 572 171 Q 554 187 537 201 L 493 243 Q 438 298 381 364 Q 341 410 300 413 Q 281 414 276 409 Q 273 402 291 388 Q 354 346 470 200 L 505 157 Z" fill="lightgray"></path>
</g>
		<text x="40" y="140" font-size="128" fill="#999999">1</text></g>
		<g id="id0:id1:id1" transform="matrix(1.0,0,0,1.0,1024,0.0)">			<g stroke="lightgray" stroke-width="4" transform="scale(4, 4)"> <rect x="0" y="0" width="256" height="256" fill="white" stroke-width="4"/></g>
			<g transform="scale(0.92, -0.92) translate(60, -920)">					<path d="M 604 624 Q 689 636 821 627 Q 837 626 843 635 Q 847 647 834 662 Q 786 705 698 684 Q 661 678 622 670 L 566 661 Q 487 651 401 639 L 353 633 Q 262 626 164 614 Q 133 611 155 595 Q 200 568 269 581 Q 315 593 360 599 L 405 607 Q 409 613 555 621 L 604 624 Z" fill="black"></path>
				<path d="M 401 639 Q 397 685 394 721 Q 395 743 374 748 Q 332 769 307 760 Q 288 750 305 730 Q 341 685 353 633 L 360 599 Q 375 524 391 508 Q 404 498 410 510 Q 417 531 411 555 Q 407 583 405 607 L 401 639 Z" fill="red"></path>
				<path d="M 555 621 Q 537 557 538 536 Q 539 520 556 534 Q 580 555 604 624 L 622 670 Q 652 748 668 779 Q 684 795 672 807 Q 659 825 620 843 Q 601 853 582 843 Q 572 836 580 824 Q 592 797 588 764 Q 581 719 566 661 L 555 621 Z" fill="lightgray"></path>
				<path d="M 537 201 Q 579 274 604 376 Q 611 410 621 430 Q 628 443 619 453 Q 598 478 574 491 Q 550 504 539 502 Q 529 498 530 485 Q 554 367 493 243 L 470 200 Q 395 92 157 34 Q 145 34 140 29 Q 133 25 143 19 Q 150 16 165 17 Q 282 21 367 58 Q 440 85 505 157 L 537 201 Z" fill="lightgray"></path>
				<path d="M 505 157 Q 569 78 655 -1 Q 677 -26 713 -27 Q 822 -33 911 -23 Q 957 -19 954 -6 Q 953 1 907 16 Q 690 70 572 171 Q 554 187 537 201 L 493 243 Q 438 298 381 364 Q 341 410 300 413 Q 281 414 276 409 Q 273 402 291 388 Q 354 346 470 200 L 505 157 Z" fill="lightgray"></path>
</g>
		<text x="40" y="140" font-size="128" fill="#999999">2</text></g>
		<g id="id0:id2:id2" transform="matrix(1.0,0,0,1.0,2048,0.0)">			<g stroke="lightgray" stroke-width="4" transform="scale(4, 4)"> <rect x="0" y="0" width="256" height="256" fill="white" stroke-width="4"/></g>
			<g transform="scale(0.92, -0.92) translate(60, -920)">					<path d="M 604 624 Q 689 636 821 627 Q 837 626 843 635 Q 847 647 834 662 Q 786 705 698 684 Q 661 678 622 670 L 566 661 Q 487 651 401 639 L 353 633 Q 262 626 164 614 Q 133 611 155 595 Q 200 568 269 581 Q 315 593 360 599 L 405 607 Q 409 613 555 621 L 604 624 Z" fill="black"></path>
				<path d="M 401 639 Q 397 685 394 721 Q 395 743 374 748 Q 332 769 307 760 Q 288 750 305 730 Q 341 685 353 633 L 360 599 Q 375 524 391 508 Q 404 498 410 510 Q 417 531 411 555 Q 407 583 405 607 L 401 639 Z" fill="black"></path>
				<path d="M 555 621 Q 537 557 538 536 Q 539 520 556 534 Q 580 555 604 624 L 622 670 Q 652 748 668 779 Q 684 795 672 807 Q 659 825 620 843 Q 601 853 582 843 Q 572 836 580 824 Q 592 797 588 764 Q 581 719 566 661 L 555 621 Z" fill="red"></path>
				<path d="M 537 201 Q 579 274 604 376 Q 611 410 621 430 Q 628 443 619 453 Q 598 478 574 491 Q 550 504 539 502 Q 529 498 530 485 Q 554 367 493 243 L 470 200 Q 395 92 157 34 Q 145 34 140 29 Q 133 25 143 19 Q 150 16 165 17 Q 282 21 367 58 Q 440 85 505 157 L 537 201 Z" fill="lightgray"></path>
				<path d="M 505 157 Q 569 78 655 -1 Q 677 -26 713 -27 Q 822 -33 911 -23 Q 957 -19 954 -6 Q 953 1 907 16 Q 690 70 572 171 Q 554 187 537 201 L 493 243 Q 438 298 381 364 Q 341 410 300 413 Q 281 414 276 409 Q 273 402 291 388 Q 354 346 470 200 L 505 157 Z" fill="lightgray"></path>
</g>
		<text x="40" y="140" font-size="128" fill="#999999">3</text></g>
		<g id="id0:id3:id3" transform="matrix(1.0,0,0,1.0,3072,0.0)">			<g stroke="lightgray" stroke-width="4" transform="scale(4, 4)"> <rect x="0" y="0" width="256" height="256" fill="white" stroke-width="4"/></g>
			<g transform="scale(0.92, -0.92) translate(60, -920)">					<path d="M 604 624 Q 689 636 821 627 Q 837 626 843 635 Q 847 647 834 662 Q 786 705 698 684 Q 661 678 622 670 L 566 661 Q 487 651 401 639 L 353 633 Q 262 626 164 614 Q 133 611 155 595 Q 200 568 269 581 Q 315 593 360 599 L 405 607 Q 409 613 555 621 L 604 624 Z" fill="black"></path>
				<path d="M 401 639 Q 397 685 394 721 Q 395 743 374 748 Q 332 769 307 760 Q 288 750 305 730 Q 341 685 353 633 L 360 599 Q 375 524 391 508 Q 404 498 410 510 Q 417 531 411 555 Q 407 583 405 607 L 401 639 Z" fill="black"></path>
				<path d="M 555 621 Q 537 557 538 536 Q 539 520 556 534 Q 580 555 604 624 L 622 670 Q 652 748 668 779 Q 684 795 672 807 Q 659 825 620 843 Q 601 853 582 843 Q 572 836 580 824 Q 592 797 588 764 Q 581 719 566 661 L 555 621 Z" fill="black"></path>
				<path d="M 537 201 Q 579 274 604 376 Q 611 410 621 430 Q 628 443 619 453 Q 598 478 574 491 Q 550 504 539 502 Q 529 498 530 485 Q 554 367 493 243 L 470 200 Q 395 92 157 34 Q 145 34 140 29 Q 133 25 143 19 Q 150 16 165 17 Q 282 21 367 58 Q 440 85 505 157 L 537 201 Z" fill="red"></path>
				<path d="M 505 157 Q 569 78 655 -1 Q 677 -26 713 -27 Q 822 -33 911 -23 Q 957 -19 954 -6 Q 953 1 907 16 Q 690 70 572 171 Q 554 187 537 201 L 493 243 Q 438 298 381 364 Q 341 410 300 413 Q 281 414 276 409 Q 273 402 291 388 Q 354 346 470 200 L 505 157 Z" fill="lightgray"></path>
</g>
		<text x="40" y="140" font-size="128" fill="#999999">4</text></g>
		<g id="id0:id4:id4" transform="matrix(1.0,0,0,1.0,4096,0.0)">			<g stroke="lightgray" stroke-width="4" transform="scale(4, 4)"> <rect x="0" y="0" width="256" height="256" fill="white" stroke-width="4"/></g>
			<g transform="scale(0.92, -0.92) translate(60, -920)">					<path d="M 604 624 Q 689 636 821 627 Q 837 626 843 635 Q 847 647 834 662 Q 786 705 698 684 Q 661 678 622 670 L 566 661 Q 487 651 401 639 L 353 633 Q 262 626 164 614 Q 133 611 155 595 Q 200 568 269 581 Q 315 593 360 599 L 405 607 Q 409 613 555 621 L 604 624 Z" fill="black"></path>
				<path d="M 401 639 Q 397 685 394 721 Q 395 743 374 748 Q 332 769 307 760 Q 288 750 305 730 Q 341 685 353 633 L 360 599 Q 375 524 391 508 Q 404 498 410 510 Q 417 531 411 555 Q 407 583 405 607 L 401 639 Z" fill="black"></path>
				<path d="M 555 621 Q 537 557 538 536 Q 539 520 556 534 Q 580 555 604 624 L 622 670 Q 652 748 668 779 Q 684 795 672 807 Q 659 825 620 843 Q 601 853 582 843 Q 572 836 580 824 Q 592 797 588 764 Q 581 719 566 661 L 555 621 Z" fill="black"></path>
				<path d="M 537 201 Q 579 274 604 376 Q 611 410 621 430 Q 628 443 619 453 Q 598 478 574 491 Q 550 504 539 502 Q 529 498 530 485 Q 554 367 493 243 L 470 200 Q 395 92 157 34 Q 145 34 140 29 Q 133 25 143 19 Q 150 16 165 17 Q 282 21 367 58 Q 440 85 505 157 L 537 201 Z" fill="black"></path>
				<path d="M 505 157 Q 569 78 655 -1 Q 677 -26 713 -27 Q 822 -33 911 -23 Q 957 -19 954 -6 Q 953 1 907 16 Q 690 70 572 171 Q 554 187 537 201 L 493 243 Q 438 298 381 364 Q 341 410 300 413 Q 281 414 276 409 Q 273 402 291 388 Q 354 346 470 200 L 505 157 Z" fill="red"></path>
</g>
		<text x="40" y="140" font-size="128" fill="#999999">5</text></g>
</g>
</svg>
