<?xml version="1.0" standalone="no"?>
<!DOCTYPE svg PUBLIC "-//W3C//DTD SVG 1.1//EN"
 "http://www.w3.org/Graphics/SVG/1.1/DTD/svg11.dtd">
<!-- generate by Handict dictionary app com.asnsami.handict -->

<svg xmlns="http://www.w3.org/2000/svg" xmlns:sodipodi="http://sodipodi.sourceforge.net/DTD/sodipodi-0.dtd" version="1.1" width="640" height="256" viewBox="0 0 5120 2048">
	<g id="id0:id0" transform="translate(0.0,0)">
		<g id="id0:id0:id0" transform="matrix(1.0,0,0,1.0,0,0.0)">			<g stroke="lightgray" stroke-width="4" transform="scale(4, 4)"> <rect x="0" y="0" width="256" height="256" fill="white" stroke-width="4"/></g>
			<g transform="scale(0.92, -0.92) translate(60, -920)">					<path d="M 630 686 Q 696 695 808 685 Q 824 684 830 694 Q 836 706 822 721 Q 764 769 658 742 Q 655 742 654 741 L 596 732 Q 512 720 418 708 L 365 703 Q 286 696 197 687 Q 166 684 187 667 Q 229 640 308 651 Q 342 660 377 665 L 423 672 Q 450 681 585 684 L 630 686 Z" fill="red"></path>
				<path d="M 418 708 Q 412 744 409 772 Q 409 793 387 797 Q 342 815 320 805 Q 301 795 319 775 Q 350 744 365 703 L 377 665 Q 398 608 410 596 Q 425 586 429 598 Q 429 605 423 672 L 418 708 Z" fill="lightgray"></path>
				<path d="M 654 741 Q 654 742 655 743 Q 662 762 678 788 Q 691 804 681 814 Q 669 830 634 848 Q 618 857 600 848 Q 590 842 598 831 Q 608 807 596 732 L 585 684 Q 573 641 574 623 Q 575 610 591 621 Q 606 633 630 686 L 654 741 Z" fill="lightgray"></path>
				<path d="M 492 484 Q 576 517 629 523 Q 647 523 651 530 Q 655 540 644 552 Q 625 570 582 590 Q 567 599 554 598 Q 547 595 545 584 Q 539 541 288 449 Q 281 448 274 444 Q 268 435 274 432 Q 290 428 408 460 Q 429 466 451 471 L 492 484 Z" fill="lightgray"></path>
				<path d="M 535 323 Q 655 332 824 326 Q 855 325 885 324 Q 907 323 914 333 Q 921 346 902 363 Q 836 414 783 401 Q 686 385 536 365 L 475 358 Q 315 342 128 326 Q 103 325 120 303 Q 156 267 202 277 Q 370 319 474 318 L 476 318 L 535 323 Z" fill="lightgray"></path>
				<path d="M 481 -10 Q 487 -35 494 -45 Q 500 -52 507 -50 Q 520 -41 529 19 Q 535 77 534 134 Q 533 177 535 323 L 536 365 Q 536 368 537 371 Q 537 398 545 434 Q 548 452 534 461 Q 507 479 492 484 C 465 496 438 498 451 471 Q 451 468 463 448 Q 469 438 475 358 L 476 318 Q 476 30 481 -10 Z" fill="lightgray"></path>
</g>
		<text x="40" y="140" font-size="128" fill="#999999">1</text></g>
		<g id="id0:id1:id1" transform="matrix(1.0,0,0,1.0,1024,0.0)">			<g stroke="lightgray" stroke-width="4" transform="scale(4, 4)"> <rect x="0" y="0" width="256" height="256" fill="white" stroke-width="4"/></g>
			<g transform="scale(0.92, -0.92) translate(60, -920)">					<path d="M 630 686 Q 696 695 808 685 Q 824 684 830 694 Q 836 706 822 721 Q 764 769 658 742 Q 655 742 654 741 L 596 732 Q 512 720 418 708 L 365 703 Q 286 696 197 687 Q 166 684 187 667 Q 229 640 308 651 Q 342 660 377 665 L 423 672 Q 450 681 585 684 L 630 686 Z" fill="black"></path>
				<path d="M 418 708 Q 412 744 409 772 Q 409 793 387 797 Q 342 815 320 805 Q 301 795 319 775 Q 350 744 365 703 L 377 665 Q 398 608 410 596 Q 425 586 429 598 Q 429 605 423 672 L 418 708 Z" fill="red"></path>
				<path d="M 654 741 Q 654 742 655 743 Q 662 762 678 788 Q 691 804 681 814 Q 669 830 634 848 Q 618 857 600 848 Q 590 842 598 831 Q 608 807 596 732 L 585 684 Q 573 641 574 623 Q 575 610 591 621 Q 606 633 630 686 L 654 741 Z" fill="lightgray"></path>
				<path d="M 492 484 Q 576 517 629 523 Q 647 523 651 530 Q 655 540 644 552 Q 625 570 582 590 Q 567 599 554 598 Q 547 595 545 584 Q 539 541 288 449 Q 281 448 274 444 Q 268 435 274 432 Q 290 428 408 460 Q 429 466 451 471 L 492 484 Z" fill="lightgray"></path>
				<path d="M 535 323 Q 655 332 824 326 Q 855 325 885 324 Q 907 323 914 333 Q 921 346 902 363 Q 836 414 783 401 Q 686 385 536 365 L 475 358 Q 315 342 128 326 Q 103 325 120 303 Q 156 267 202 277 Q 370 319 474 318 L 476 318 L 535 323 Z" fill="lightgray"></path>
				<path d="M 481 -10 Q 487 -35 494 -45 Q 500 -52 507 -50 Q 520 -41 529 19 Q 535 77 534 134 Q 533 177 535 323 L 536 365 Q 536 368 537 371 Q 537 398 545 434 Q 548 452 534 461 Q 507 479 492 484 C 465 496 438 498 451 471 Q 451 468 463 448 Q 469 438 475 358 L 476 318 Q 476 30 481 -10 Z" fill="lightgray"></path>
</g>
		<text x="40" y="140" font-size="128" fill="#999999">2</text></g>
		<g id="id0:id2:id2" transform="matrix(1.0,0,0,1.0,2048,0.0)">			<g stroke="lightgray" stroke-width="4" transform="scale(4, 4)"> <rect x="0" y="0" width="256" height="256" fill="white" stroke-width="4"/></g>
			<g transform="scale(0.92, -0.92) translate(60, -920)">					<path d="M 630 686 Q 696 695 808 685 Q 824 684 830 694 Q 836 706 822 721 Q 764 769 658 742 Q 655 742 654 741 L 596 732 Q 512 720 418 708 L 365 703 Q 286 696 197 687 Q 166 684 187 667 Q 229 640 308 651 Q 342 660 377 665 L 423 672 Q 450 681 585 684 L 630 686 Z" fill="black"></path>
				<path d="M 418 708 Q 412 744 409 772 Q 409 793 387 797 Q 342 815 320 805 Q 301 795 319 775 Q 350 744 365 703 L 377 665 Q 398 608 410 596 Q 425 586 429 598 Q 429 605 423 672 L 418 708 Z" fill="black"></path>
				<path d="M 654 741 Q 654 742 655 743 Q 662 762 678 788 Q 691 804 681 814 Q 669 830 634 848 Q 618 857 600 848 Q 590 842 598 831 Q 608 807 596 732 L 585 684 Q 573 641 574 623 Q 575 610 591 621 Q 606 633 630 686 L 654 741 Z" fill="red"></path>
				<path d="M 492 484 Q 576 517 629 523 Q 647 523 651 530 Q 655 540 644 552 Q 625 570 582 590 Q 567 599 554 598 Q 547 595 545 584 Q 539 541 288 449 Q 281 448 274 444 Q 268 435 274 432 Q 290 428 408 460 Q 429 466 451 471 L 492 484 Z" fill="lightgray"></path>
				<path d="M 535 323 Q 655 332 824 326 Q 855 325 885 324 Q 907 323 914 333 Q 921 346 902 363 Q 836 414 783 401 Q 686 385 536 365 L 475 358 Q 315 342 128 326 Q 103 325 120 303 Q 156 267 202 277 Q 370 319 474 318 L 476 318 L 535 323 Z" fill="lightgray"></path>
				<path d="M 481 -10 Q 487 -35 494 -45 Q 500 -52 507 -50 Q 520 -41 529 19 Q 535 77 534 134 Q 533 177 535 323 L 536 365 Q 536 368 537 371 Q 537 398 545 434 Q 548 452 534 461 Q 507 479 492 484 C 465 496 438 498 451 471 Q 451 468 463 448 Q 469 438 475 358 L 476 318 Q 476 30 481 -10 Z" fill="lightgray"></path>
</g>
		<text x="40" y="140" font-size="128" fill="#999999">3</text></g>
		<g id="id0:id3:id3" transform="matrix(1.0,0,0,1.0,3072,0.0)">			<g stroke="lightgray" stroke-width="4" transform="scale(4, 4)"> <rect x="0" y="0" width="256" height="256" fill="white" stroke-width="4"/></g>
			<g transform="scale(0.92, -0.92) translate(60, -920)">					<path d="M 630 686 Q 696 695 808 685 Q 824 684 830 694 Q 836 706 822 721 Q 764 769 658 742 Q 655 742 654 741 L 596 732 Q 512 720 418 708 L 365 703 Q 286 696 197 687 Q 166 684 187 667 Q 229 640 308 651 Q 342 660 377 665 L 423 672 Q 450 681 585 684 L 630 686 Z" fill="black"></path>
				<path d="M 418 708 Q 412 744 409 772 Q 409 793 387 797 Q 342 815 320 805 Q 301 795 319 775 Q 350 744 365 703 L 377 665 Q 398 608 410 596 Q 425 586 429 598 Q 429 605 423 672 L 418 708 Z" fill="black"></path>
				<path d="M 654 741 Q 654 742 655 743 Q 662 762 678 788 Q 691 804 681 814 Q 669 830 634 848 Q 618 857 600 848 Q 590 842 598 831 Q 608 807 596 732 L 585 684 Q 573 641 574 623 Q 575 610 591 621 Q 606 633 630 686 L 654 741 Z" fill="black"></path>
				<path d="M 492 484 Q 576 517 629 523 Q 647 523 651 530 Q 655 540 644 552 Q 625 570 582 590 Q 567 599 554 598 Q 547 595 545 584 Q 539 541 288 449 Q 281 448 274 444 Q 268 435 274 432 Q 290 428 408 460 Q 429 466 451 471 L 492 484 Z" fill="red"></path>
				<path d="M 535 323 Q 655 332 824 326 Q 855 325 885 324 Q 907 323 914 333 Q 921 346 902 363 Q 836 414 783 401 Q 686 385 536 365 L 475 358 Q 315 342 128 326 Q 103 325 120 303 Q 156 267 202 277 Q 370 319 474 318 L 476 318 L 535 323 Z" fill="lightgray"></path>
				<path d="M 481 -10 Q 487 -35 494 -45 Q 500 -52 507 -50 Q 520 -41 529 19 Q 535 77 534 134 Q 533 177 535 323 L 536 365 Q 536 368 537 371 Q 537 398 545 434 Q 548 452 534 461 Q 507 479 492 484 C 465 496 438 498 451 471 Q 451 468 463 448 Q 469 438 475 358 L 476 318 Q 476 30 481 -10 Z" fill="lightgray"></path>
</g>
		<text x="40" y="140" font-size="128" fill="#999999">4</text></g>
		<g id="id0:id4:id4" transform="matrix(1.0,0,0,1.0,4096,0.0)">			<g stroke="lightgray" stroke-width="4" transform="scale(4, 4)"> <rect x="0" y="0" width="256" height="256" fill="white" stroke-width="4"/></g>
			<g transform="scale(0.92, -0.92) translate(60, -920)">					<path d="M 630 686 Q 696 695 808 685 Q 824 684 830 694 Q 836 706 822 721 Q 764 769 658 742 Q 655 742 654 741 L 596 732 Q 512 720 418 708 L 365 703 Q 286 696 197 687 Q 166 684 187 667 Q 229 640 308 651 Q 342 660 377 665 L 423 672 Q 450 681 585 684 L 630 686 Z" fill="black"></path>
				<path d="M 418 708 Q 412 744 409 772 Q 409 793 387 797 Q 342 815 320 805 Q 301 795 319 775 Q 350 744 365 703 L 377 665 Q 398 608 410 596 Q 425 586 429 598 Q 429 605 423 672 L 418 708 Z" fill="black"></path>
				<path d="M 654 741 Q 654 742 655 743 Q 662 762 678 788 Q 691 804 681 814 Q 669 830 634 848 Q 618 857 600 848 Q 590 842 598 831 Q 608 807 596 732 L 585 684 Q 573 641 574 623 Q 575 610 591 621 Q 606 633 630 686 L 654 741 Z" fill="black"></path>
				<path d="M 492 484 Q 576 517 629 523 Q 647 523 651 530 Q 655 540 644 552 Q 625 570 582 590 Q 567 599 554 598 Q 547 595 545 584 Q 539 541 288 449 Q 281 448 274 444 Q 268 435 274 432 Q 290 428 408 460 Q 429 466 451 471 L 492 484 Z" fill="black"></path>
				<path d="M 535 323 Q 655 332 824 326 Q 855 325 885 324 Q 907 323 914 333 Q 921 346 902 363 Q 836 414 783 401 Q 686 385 536 365 L 475 358 Q 315 342 128 326 Q 103 325 120 303 Q 156 267 202 277 Q 370 319 474 318 L 476 318 L 535 323 Z" fill="red"></path>
				<path d="M 481 -10 Q 487 -35 494 -45 Q 500 -52 507 -50 Q 520 -41 529 19 Q 535 77 534 134 Q 533 177 535 323 L 536 365 Q 536 368 537 371 Q 537 398 545 434 Q 548 452 534 461 Q 507 479 492 484 C 465 496 438 498 451 471 Q 451 468 463 448 Q 469 438 475 358 L 476 318 Q 476 30 481 -10 Z" fill="lightgray"></path>
</g>
		<text x="40" y="140" font-size="128" fill="#999999">5</text></g>
</g>
	<g id="id1:id1" transform="translate(0.0,1024)">
		<g id="id1:id0:id0" transform="matrix(1.0,0,0,1.0,0,0.0)">			<g stroke="lightgray" stroke-width="4" transform="scale(4, 4)"> <rect x="0" y="0" width="256" height="256" fill="white" stroke-width="4"/></g>
			<g transform="scale(0.92, -0.92) translate(60, -920)">					<path d="M 630 686 Q 696 695 808 685 Q 824 684 830 694 Q 836 706 822 721 Q 764 769 658 742 Q 655 742 654 741 L 596 732 Q 512 720 418 708 L 365 703 Q 286 696 197 687 Q 166 684 187 667 Q 229 640 308 651 Q 342 660 377 665 L 423 672 Q 450 681 585 684 L 630 686 Z" fill="black"></path>
				<path d="M 418 708 Q 412 744 409 772 Q 409 793 387 797 Q 342 815 320 805 Q 301 795 319 775 Q 350 744 365 703 L 377 665 Q 398 608 410 596 Q 425 586 429 598 Q 429 605 423 672 L 418 708 Z" fill="black"></path>
				<path d="M 654 741 Q 654 742 655 743 Q 662 762 678 788 Q 691 804 681 814 Q 669 830 634 848 Q 618 857 600 848 Q 590 842 598 831 Q 608 807 596 732 L 585 684 Q 573 641 574 623 Q 575 610 591 621 Q 606 633 630 686 L 654 741 Z" fill="black"></path>
				<path d="M 492 484 Q 576 517 629 523 Q 647 523 651 530 Q 655 540 644 552 Q 625 570 582 590 Q 567 599 554 598 Q 547 595 545 584 Q 539 541 288 449 Q 281 448 274 444 Q 268 435 274 432 Q 290 428 408 460 Q 429 466 451 471 L 492 484 Z" fill="black"></path>
				<path d="M 535 323 Q 655 332 824 326 Q 855 325 885 324 Q 907 323 914 333 Q 921 346 902 363 Q 836 414 783 401 Q 686 385 536 365 L 475 358 Q 315 342 128 326 Q 103 325 120 303 Q 156 267 202 277 Q 370 319 474 318 L 476 318 L 535 323 Z" fill="black"></path>
				<path d="M 481 -10 Q 487 -35 494 -45 Q 500 -52 507 -50 Q 520 -41 529 19 Q 535 77 534 134 Q 533 177 535 323 L 536 365 Q 536 368 537 371 Q 537 398 545 434 Q 548 452 534 461 Q 507 479 492 484 C 465 496 438 498 451 471 Q 451 468 463 448 Q 469 438 475 358 L 476 318 Q 476 30 481 -10 Z" fill="red"></path>
</g>
		<text x="40" y="140" font-size="128" fill="#999999">6</text></g>
		<g id="id1:id1:id1" transform="matrix(1.0,0,0,1.0,1024,0.0)">			<g stroke="white" stroke-width="4" transform="scale(4, 4)"> <rect x="1" y="1" width="255" height="255" fill="white" stroke-width="0"/></g>
</g>
		<g id="id1:id2:id2" transform="matrix(1.0,0,0,1.0,2048,0.0)">			<g stroke="white" stroke-width="4" transform="scale(4, 4)"> <rect x="1" y="1" width="255" height="255" fill="white" stroke-width="0"/></g>
</g>
		<g id="id1:id3:id3" transform="matrix(1.0,0,0,1.0,3072,0.0)">			<g stroke="white" stroke-width="4" transform="scale(4, 4)"> <rect x="1" y="1" width="255" height="255" fill="white" stroke-width="0"/></g>
</g>
		<g id="id1:id4:id4" transform="matrix(1.0,0,0,1.0,4096,0.0)">			<g stroke="white" stroke-width="4" transform="scale(4, 4)"> <rect x="1" y="1" width="255" height="255" fill="white" stroke-width="0"/></g>
</g>
</g>
</svg>
