<?xml version="1.0" standalone="no"?>
<!DOCTYPE svg PUBLIC "-//W3C//DTD SVG 1.1//EN"
 "http://www.w3.org/Graphics/SVG/1.1/DTD/svg11.dtd">
<!-- generate by Handict dictionary app com.asnsami.handict -->

<svg xmlns="http://www.w3.org/2000/svg" xmlns:sodipodi="http://sodipodi.sourceforge.net/DTD/sodipodi-0.dtd" version="1.1" width="640" height="256" viewBox="0 0 5120 2048">
	<g id="id0:id0" transform="translate(0.0,0)">
		<g id="id0:id0:id0" transform="matrix(1.0,0,0,1.0,0,0.0)">			<g stroke="lightgray" stroke-width="4" transform="scale(4, 4)"> <rect x="0" y="0" width="256" height="256" fill="white" stroke-width="4"/></g>
			<g transform="scale(0.92, -0.92) translate(60, -920)">					<path d="M 653 631 Q 722 643 838 635 Q 854 634 859 643 Q 863 655 850 670 Q 799 713 704 688 Q 688 687 672 682 L 613 672 Q 526 660 429 645 L 377 638 Q 290 629 195 618 Q 165 615 186 599 Q 234 572 313 589 Q 347 598 384 604 L 431 611 Q 438 620 601 628 L 653 631 Z" fill="red"></path>
				<path d="M 429 645 Q 426 688 425 722 Q 428 744 405 751 Q 360 773 337 766 Q 318 756 334 735 Q 367 692 376 643 Q 376 642 377 638 L 384 604 Q 396 538 411 521 Q 426 508 430 522 Q 436 538 431 611 L 429 645 Z" fill="lightgray"></path>
				<path d="M 672 682 Q 693 734 711 767 Q 727 783 716 794 Q 703 813 664 832 Q 645 842 626 832 Q 616 825 624 813 Q 639 774 613 672 L 601 628 Q 577 550 578 528 Q 579 512 597 525 Q 609 535 653 631 L 672 682 Z" fill="lightgray"></path>
				<path d="M 464 463 Q 513 406 549 393 Q 565 390 575 405 Q 581 418 578 436 Q 566 481 477 504 Q 459 508 449 505 Q 442 504 446 490 Q 447 477 464 463 Z" fill="lightgray"></path>
				<path d="M 368 309 Q 518 337 875 338 Q 897 338 903 348 Q 910 361 891 376 Q 828 424 761 405 Q 539 368 134 320 Q 112 319 128 299 Q 161 266 205 276 Q 250 289 299 297 L 368 309 Z" fill="lightgray"></path>
				<path d="M 299 297 Q 300 293 307 287 Q 349 220 323 84 Q 317 65 297 41 Q 273 11 317 -16 Q 336 -25 349 -8 Q 490 61 791 39 Q 819 38 830 52 Q 839 64 813 80 Q 741 134 671 110 Q 521 88 418 63 Q 366 45 380 92 Q 381 218 395 269 Q 405 284 396 295 Q 389 302 368 309 C 341 321 282 322 299 297 Z" fill="lightgray"></path>
</g>
		<text x="40" y="140" font-size="128" fill="#999999">1</text></g>
		<g id="id0:id1:id1" transform="matrix(1.0,0,0,1.0,1024,0.0)">			<g stroke="lightgray" stroke-width="4" transform="scale(4, 4)"> <rect x="0" y="0" width="256" height="256" fill="white" stroke-width="4"/></g>
			<g transform="scale(0.92, -0.92) translate(60, -920)">					<path d="M 653 631 Q 722 643 838 635 Q 854 634 859 643 Q 863 655 850 670 Q 799 713 704 688 Q 688 687 672 682 L 613 672 Q 526 660 429 645 L 377 638 Q 290 629 195 618 Q 165 615 186 599 Q 234 572 313 589 Q 347 598 384 604 L 431 611 Q 438 620 601 628 L 653 631 Z" fill="black"></path>
				<path d="M 429 645 Q 426 688 425 722 Q 428 744 405 751 Q 360 773 337 766 Q 318 756 334 735 Q 367 692 376 643 Q 376 642 377 638 L 384 604 Q 396 538 411 521 Q 426 508 430 522 Q 436 538 431 611 L 429 645 Z" fill="red"></path>
				<path d="M 672 682 Q 693 734 711 767 Q 727 783 716 794 Q 703 813 664 832 Q 645 842 626 832 Q 616 825 624 813 Q 639 774 613 672 L 601 628 Q 577 550 578 528 Q 579 512 597 525 Q 609 535 653 631 L 672 682 Z" fill="lightgray"></path>
				<path d="M 464 463 Q 513 406 549 393 Q 565 390 575 405 Q 581 418 578 436 Q 566 481 477 504 Q 459 508 449 505 Q 442 504 446 490 Q 447 477 464 463 Z" fill="lightgray"></path>
				<path d="M 368 309 Q 518 337 875 338 Q 897 338 903 348 Q 910 361 891 376 Q 828 424 761 405 Q 539 368 134 320 Q 112 319 128 299 Q 161 266 205 276 Q 250 289 299 297 L 368 309 Z" fill="lightgray"></path>
				<path d="M 299 297 Q 300 293 307 287 Q 349 220 323 84 Q 317 65 297 41 Q 273 11 317 -16 Q 336 -25 349 -8 Q 490 61 791 39 Q 819 38 830 52 Q 839 64 813 80 Q 741 134 671 110 Q 521 88 418 63 Q 366 45 380 92 Q 381 218 395 269 Q 405 284 396 295 Q 389 302 368 309 C 341 321 282 322 299 297 Z" fill="lightgray"></path>
</g>
		<text x="40" y="140" font-size="128" fill="#999999">2</text></g>
		<g id="id0:id2:id2" transform="matrix(1.0,0,0,1.0,2048,0.0)">			<g stroke="lightgray" stroke-width="4" transform="scale(4, 4)"> <rect x="0" y="0" width="256" height="256" fill="white" stroke-width="4"/></g>
			<g transform="scale(0.92, -0.92) translate(60, -920)">					<path d="M 653 631 Q 722 643 838 635 Q 854 634 859 643 Q 863 655 850 670 Q 799 713 704 688 Q 688 687 672 682 L 613 672 Q 526 660 429 645 L 377 638 Q 290 629 195 618 Q 165 615 186 599 Q 234 572 313 589 Q 347 598 384 604 L 431 611 Q 438 620 601 628 L 653 631 Z" fill="black"></path>
				<path d="M 429 645 Q 426 688 425 722 Q 428 744 405 751 Q 360 773 337 766 Q 318 756 334 735 Q 367 692 376 643 Q 376 642 377 638 L 384 604 Q 396 538 411 521 Q 426 508 430 522 Q 436 538 431 611 L 429 645 Z" fill="black"></path>
				<path d="M 672 682 Q 693 734 711 767 Q 727 783 716 794 Q 703 813 664 832 Q 645 842 626 832 Q 616 825 624 813 Q 639 774 613 672 L 601 628 Q 577 550 578 528 Q 579 512 597 525 Q 609 535 653 631 L 672 682 Z" fill="red"></path>
				<path d="M 464 463 Q 513 406 549 393 Q 565 390 575 405 Q 581 418 578 436 Q 566 481 477 504 Q 459 508 449 505 Q 442 504 446 490 Q 447 477 464 463 Z" fill="lightgray"></path>
				<path d="M 368 309 Q 518 337 875 338 Q 897 338 903 348 Q 910 361 891 376 Q 828 424 761 405 Q 539 368 134 320 Q 112 319 128 299 Q 161 266 205 276 Q 250 289 299 297 L 368 309 Z" fill="lightgray"></path>
				<path d="M 299 297 Q 300 293 307 287 Q 349 220 323 84 Q 317 65 297 41 Q 273 11 317 -16 Q 336 -25 349 -8 Q 490 61 791 39 Q 819 38 830 52 Q 839 64 813 80 Q 741 134 671 110 Q 521 88 418 63 Q 366 45 380 92 Q 381 218 395 269 Q 405 284 396 295 Q 389 302 368 309 C 341 321 282 322 299 297 Z" fill="lightgray"></path>
</g>
		<text x="40" y="140" font-size="128" fill="#999999">3</text></g>
		<g id="id0:id3:id3" transform="matrix(1.0,0,0,1.0,3072,0.0)">			<g stroke="lightgray" stroke-width="4" transform="scale(4, 4)"> <rect x="0" y="0" width="256" height="256" fill="white" stroke-width="4"/></g>
			<g transform="scale(0.92, -0.92) translate(60, -920)">					<path d="M 653 631 Q 722 643 838 635 Q 854 634 859 643 Q 863 655 850 670 Q 799 713 704 688 Q 688 687 672 682 L 613 672 Q 526 660 429 645 L 377 638 Q 290 629 195 618 Q 165 615 186 599 Q 234 572 313 589 Q 347 598 384 604 L 431 611 Q 438 620 601 628 L 653 631 Z" fill="black"></path>
				<path d="M 429 645 Q 426 688 425 722 Q 428 744 405 751 Q 360 773 337 766 Q 318 756 334 735 Q 367 692 376 643 Q 376 642 377 638 L 384 604 Q 396 538 411 521 Q 426 508 430 522 Q 436 538 431 611 L 429 645 Z" fill="black"></path>
				<path d="M 672 682 Q 693 734 711 767 Q 727 783 716 794 Q 703 813 664 832 Q 645 842 626 832 Q 616 825 624 813 Q 639 774 613 672 L 601 628 Q 577 550 578 528 Q 579 512 597 525 Q 609 535 653 631 L 672 682 Z" fill="black"></path>
				<path d="M 464 463 Q 513 406 549 393 Q 565 390 575 405 Q 581 418 578 436 Q 566 481 477 504 Q 459 508 449 505 Q 442 504 446 490 Q 447 477 464 463 Z" fill="red"></path>
				<path d="M 368 309 Q 518 337 875 338 Q 897 338 903 348 Q 910 361 891 376 Q 828 424 761 405 Q 539 368 134 320 Q 112 319 128 299 Q 161 266 205 276 Q 250 289 299 297 L 368 309 Z" fill="lightgray"></path>
				<path d="M 299 297 Q 300 293 307 287 Q 349 220 323 84 Q 317 65 297 41 Q 273 11 317 -16 Q 336 -25 349 -8 Q 490 61 791 39 Q 819 38 830 52 Q 839 64 813 80 Q 741 134 671 110 Q 521 88 418 63 Q 366 45 380 92 Q 381 218 395 269 Q 405 284 396 295 Q 389 302 368 309 C 341 321 282 322 299 297 Z" fill="lightgray"></path>
</g>
		<text x="40" y="140" font-size="128" fill="#999999">4</text></g>
		<g id="id0:id4:id4" transform="matrix(1.0,0,0,1.0,4096,0.0)">			<g stroke="lightgray" stroke-width="4" transform="scale(4, 4)"> <rect x="0" y="0" width="256" height="256" fill="white" stroke-width="4"/></g>
			<g transform="scale(0.92, -0.92) translate(60, -920)">					<path d="M 653 631 Q 722 643 838 635 Q 854 634 859 643 Q 863 655 850 670 Q 799 713 704 688 Q 688 687 672 682 L 613 672 Q 526 660 429 645 L 377 638 Q 290 629 195 618 Q 165 615 186 599 Q 234 572 313 589 Q 347 598 384 604 L 431 611 Q 438 620 601 628 L 653 631 Z" fill="black"></path>
				<path d="M 429 645 Q 426 688 425 722 Q 428 744 405 751 Q 360 773 337 766 Q 318 756 334 735 Q 367 692 376 643 Q 376 642 377 638 L 384 604 Q 396 538 411 521 Q 426 508 430 522 Q 436 538 431 611 L 429 645 Z" fill="black"></path>
				<path d="M 672 682 Q 693 734 711 767 Q 727 783 716 794 Q 703 813 664 832 Q 645 842 626 832 Q 616 825 624 813 Q 639 774 613 672 L 601 628 Q 577 550 578 528 Q 579 512 597 525 Q 609 535 653 631 L 672 682 Z" fill="black"></path>
				<path d="M 464 463 Q 513 406 549 393 Q 565 390 575 405 Q 581 418 578 436 Q 566 481 477 504 Q 459 508 449 505 Q 442 504 446 490 Q 447 477 464 463 Z" fill="black"></path>
				<path d="M 368 309 Q 518 337 875 338 Q 897 338 903 348 Q 910 361 891 376 Q 828 424 761 405 Q 539 368 134 320 Q 112 319 128 299 Q 161 266 205 276 Q 250 289 299 297 L 368 309 Z" fill="red"></path>
				<path d="M 299 297 Q 300 293 307 287 Q 349 220 323 84 Q 317 65 297 41 Q 273 11 317 -16 Q 336 -25 349 -8 Q 490 61 791 39 Q 819 38 830 52 Q 839 64 813 80 Q 741 134 671 110 Q 521 88 418 63 Q 366 45 380 92 Q 381 218 395 269 Q 405 284 396 295 Q 389 302 368 309 C 341 321 282 322 299 297 Z" fill="lightgray"></path>
</g>
		<text x="40" y="140" font-size="128" fill="#999999">5</text></g>
</g>
	<g id="id1:id1" transform="translate(0.0,1024)">
		<g id="id1:id0:id0" transform="matrix(1.0,0,0,1.0,0,0.0)">			<g stroke="lightgray" stroke-width="4" transform="scale(4, 4)"> <rect x="0" y="0" width="256" height="256" fill="white" stroke-width="4"/></g>
			<g transform="scale(0.92, -0.92) translate(60, -920)">					<path d="M 653 631 Q 722 643 838 635 Q 854 634 859 643 Q 863 655 850 670 Q 799 713 704 688 Q 688 687 672 682 L 613 672 Q 526 660 429 645 L 377 638 Q 290 629 195 618 Q 165 615 186 599 Q 234 572 313 589 Q 347 598 384 604 L 431 611 Q 438 620 601 628 L 653 631 Z" fill="black"></path>
				<path d="M 429 645 Q 426 688 425 722 Q 428 744 405 751 Q 360 773 337 766 Q 318 756 334 735 Q 367 692 376 643 Q 376 642 377 638 L 384 604 Q 396 538 411 521 Q 426 508 430 522 Q 436 538 431 611 L 429 645 Z" fill="black"></path>
				<path d="M 672 682 Q 693 734 711 767 Q 727 783 716 794 Q 703 813 664 832 Q 645 842 626 832 Q 616 825 624 813 Q 639 774 613 672 L 601 628 Q 577 550 578 528 Q 579 512 597 525 Q 609 535 653 631 L 672 682 Z" fill="black"></path>
				<path d="M 464 463 Q 513 406 549 393 Q 565 390 575 405 Q 581 418 578 436 Q 566 481 477 504 Q 459 508 449 505 Q 442 504 446 490 Q 447 477 464 463 Z" fill="black"></path>
				<path d="M 368 309 Q 518 337 875 338 Q 897 338 903 348 Q 910 361 891 376 Q 828 424 761 405 Q 539 368 134 320 Q 112 319 128 299 Q 161 266 205 276 Q 250 289 299 297 L 368 309 Z" fill="black"></path>
				<path d="M 299 297 Q 300 293 307 287 Q 349 220 323 84 Q 317 65 297 41 Q 273 11 317 -16 Q 336 -25 349 -8 Q 490 61 791 39 Q 819 38 830 52 Q 839 64 813 80 Q 741 134 671 110 Q 521 88 418 63 Q 366 45 380 92 Q 381 218 395 269 Q 405 284 396 295 Q 389 302 368 309 C 341 321 282 322 299 297 Z" fill="red"></path>
</g>
		<text x="40" y="140" font-size="128" fill="#999999">6</text></g>
		<g id="id1:id1:id1" transform="matrix(1.0,0,0,1.0,1024,0.0)">			<g stroke="white" stroke-width="4" transform="scale(4, 4)"> <rect x="1" y="1" width="255" height="255" fill="white" stroke-width="0"/></g>
</g>
		<g id="id1:id2:id2" transform="matrix(1.0,0,0,1.0,2048,0.0)">			<g stroke="white" stroke-width="4" transform="scale(4, 4)"> <rect x="1" y="1" width="255" height="255" fill="white" stroke-width="0"/></g>
</g>
		<g id="id1:id3:id3" transform="matrix(1.0,0,0,1.0,3072,0.0)">			<g stroke="white" stroke-width="4" transform="scale(4, 4)"> <rect x="1" y="1" width="255" height="255" fill="white" stroke-width="0"/></g>
</g>
		<g id="id1:id4:id4" transform="matrix(1.0,0,0,1.0,4096,0.0)">			<g stroke="white" stroke-width="4" transform="scale(4, 4)"> <rect x="1" y="1" width="255" height="255" fill="white" stroke-width="0"/></g>
</g>
</g>
</svg>
