<?xml version="1.0" standalone="no"?>
<!DOCTYPE svg PUBLIC "-//W3C//DTD SVG 1.1//EN"
 "http://www.w3.org/Graphics/SVG/1.1/DTD/svg11.dtd">
<!-- generate by Japanese dictionary app com.asnsami.kanjidictionary -->

<svg xmlns="http://www.w3.org/2000/svg" xmlns:sodipodi="http://sodipodi.sourceforge.net/DTD/sodipodi-0.dtd" version="1.1" width="640" height="256" viewBox="0 0 5120 2048">
	<g id="id0:id0" transform="translate(0.0,0)">
		<g id="id0:id0:id0" transform="matrix(1.0,0,0,1.0,0,0.0)">			<g stroke="lightgray" stroke-width="4" transform="scale(4, 4)"> <rect x="0" y="0" width="256" height="256" fill="white" stroke-width="4"/></g>
			<g transform="scale(0.92, -0.92) translate(60, -920)">					<path d="M 646 688 Q 722 700 819 692 Q 835 691 839 701 Q 843 711 831 726 Q 783 765 697 744 Q 681 741 665 737 L 603 726 Q 521 713 429 699 L 381 693 Q 305 684 222 674 Q 194 670 214 655 Q 256 630 337 646 Q 362 653 389 657 L 432 666 Q 492 678 594 684 L 646 688 Z" fill="red"></path>
				<path d="M 429 699 Q 428 733 426 760 Q 427 779 408 785 Q 369 806 347 798 Q 328 789 343 770 Q 371 736 381 693 L 389 657 Q 401 597 415 580 Q 428 570 433 581 Q 436 593 432 666 L 429 699 Z" fill="lightgray"></path>
				<path d="M 665 737 Q 674 761 691 789 Q 707 805 695 816 Q 682 834 645 852 Q 627 862 608 852 Q 598 845 606 833 Q 619 803 603 726 L 594 684 Q 572 609 574 588 Q 575 572 592 585 Q 610 600 646 688 L 665 737 Z" fill="lightgray"></path>
				<path d="M 338 466 Q 314 481 287 488 Q 274 491 265 484 Q 258 478 266 464 Q 284 440 294 414 Q 303 389 326 288 C 333 259 370 262 366 292 Q 351 403 351 433 C 350 459 350 459 338 466 Z" fill="lightgray"></path>
				<path d="M 709 334 Q 739 418 775 441 Q 794 460 779 479 Q 763 495 709 523 Q 690 532 667 525 Q 600 503 539 490 L 478 480 Q 408 471 338 466 C 308 464 321 430 351 433 Q 364 433 381 437 Q 427 444 477 451 L 535 460 Q 583 467 632 475 Q 663 481 676 467 Q 691 449 651 326 C 642 297 698 306 709 334 Z" fill="lightgray"></path>
				<path d="M 523 278 Q 599 284 916 285 Q 937 284 942 293 Q 949 306 931 321 Q 867 369 804 350 Q 761 344 709 334 L 651 326 Q 587 319 514 308 L 467 302 Q 416 301 366 292 L 326 288 Q 223 279 110 267 Q 88 266 104 247 Q 119 232 138 226 Q 160 219 177 224 Q 304 255 446 270 Q 453 271 463 272 L 523 278 Z" fill="lightgray"></path>
				<path d="M 463 272 Q 445 157 369 103 Q 308 58 177 20 Q 164 16 162 11 Q 163 7 174 4 Q 193 0 244 8 Q 329 21 391 66 Q 475 124 505 254 L 514 308 Q 515 312 516 317 Q 525 390 535 460 L 539 490 Q 542 506 556 529 Q 563 544 553 555 Q 531 574 492 588 Q 467 595 457 589 Q 448 582 455 569 Q 477 532 478 480 L 477 451 Q 476 375 467 302 L 463 272 Z" fill="lightgray"></path>
				<path d="M 505 254 Q 599 130 719 -1 Q 741 -23 777 -21 Q 898 -12 936 -4 Q 946 0 949 5 Q 948 11 837 53 Q 756 83 714 114 Q 626 181 523 278 C 501 299 486 279 505 254 Z" fill="lightgray"></path>
</g>
		<text x="40" y="140" font-size="128" fill="#999999">1</text></g>
		<g id="id0:id1:id1" transform="matrix(1.0,0,0,1.0,1024,0.0)">			<g stroke="lightgray" stroke-width="4" transform="scale(4, 4)"> <rect x="0" y="0" width="256" height="256" fill="white" stroke-width="4"/></g>
			<g transform="scale(0.92, -0.92) translate(60, -920)">					<path d="M 646 688 Q 722 700 819 692 Q 835 691 839 701 Q 843 711 831 726 Q 783 765 697 744 Q 681 741 665 737 L 603 726 Q 521 713 429 699 L 381 693 Q 305 684 222 674 Q 194 670 214 655 Q 256 630 337 646 Q 362 653 389 657 L 432 666 Q 492 678 594 684 L 646 688 Z" fill="black"></path>
				<path d="M 429 699 Q 428 733 426 760 Q 427 779 408 785 Q 369 806 347 798 Q 328 789 343 770 Q 371 736 381 693 L 389 657 Q 401 597 415 580 Q 428 570 433 581 Q 436 593 432 666 L 429 699 Z" fill="red"></path>
				<path d="M 665 737 Q 674 761 691 789 Q 707 805 695 816 Q 682 834 645 852 Q 627 862 608 852 Q 598 845 606 833 Q 619 803 603 726 L 594 684 Q 572 609 574 588 Q 575 572 592 585 Q 610 600 646 688 L 665 737 Z" fill="lightgray"></path>
				<path d="M 338 466 Q 314 481 287 488 Q 274 491 265 484 Q 258 478 266 464 Q 284 440 294 414 Q 303 389 326 288 C 333 259 370 262 366 292 Q 351 403 351 433 C 350 459 350 459 338 466 Z" fill="lightgray"></path>
				<path d="M 709 334 Q 739 418 775 441 Q 794 460 779 479 Q 763 495 709 523 Q 690 532 667 525 Q 600 503 539 490 L 478 480 Q 408 471 338 466 C 308 464 321 430 351 433 Q 364 433 381 437 Q 427 444 477 451 L 535 460 Q 583 467 632 475 Q 663 481 676 467 Q 691 449 651 326 C 642 297 698 306 709 334 Z" fill="lightgray"></path>
				<path d="M 523 278 Q 599 284 916 285 Q 937 284 942 293 Q 949 306 931 321 Q 867 369 804 350 Q 761 344 709 334 L 651 326 Q 587 319 514 308 L 467 302 Q 416 301 366 292 L 326 288 Q 223 279 110 267 Q 88 266 104 247 Q 119 232 138 226 Q 160 219 177 224 Q 304 255 446 270 Q 453 271 463 272 L 523 278 Z" fill="lightgray"></path>
				<path d="M 463 272 Q 445 157 369 103 Q 308 58 177 20 Q 164 16 162 11 Q 163 7 174 4 Q 193 0 244 8 Q 329 21 391 66 Q 475 124 505 254 L 514 308 Q 515 312 516 317 Q 525 390 535 460 L 539 490 Q 542 506 556 529 Q 563 544 553 555 Q 531 574 492 588 Q 467 595 457 589 Q 448 582 455 569 Q 477 532 478 480 L 477 451 Q 476 375 467 302 L 463 272 Z" fill="lightgray"></path>
				<path d="M 505 254 Q 599 130 719 -1 Q 741 -23 777 -21 Q 898 -12 936 -4 Q 946 0 949 5 Q 948 11 837 53 Q 756 83 714 114 Q 626 181 523 278 C 501 299 486 279 505 254 Z" fill="lightgray"></path>
</g>
		<text x="40" y="140" font-size="128" fill="#999999">2</text></g>
		<g id="id0:id2:id2" transform="matrix(1.0,0,0,1.0,2048,0.0)">			<g stroke="lightgray" stroke-width="4" transform="scale(4, 4)"> <rect x="0" y="0" width="256" height="256" fill="white" stroke-width="4"/></g>
			<g transform="scale(0.92, -0.92) translate(60, -920)">					<path d="M 646 688 Q 722 700 819 692 Q 835 691 839 701 Q 843 711 831 726 Q 783 765 697 744 Q 681 741 665 737 L 603 726 Q 521 713 429 699 L 381 693 Q 305 684 222 674 Q 194 670 214 655 Q 256 630 337 646 Q 362 653 389 657 L 432 666 Q 492 678 594 684 L 646 688 Z" fill="black"></path>
				<path d="M 429 699 Q 428 733 426 760 Q 427 779 408 785 Q 369 806 347 798 Q 328 789 343 770 Q 371 736 381 693 L 389 657 Q 401 597 415 580 Q 428 570 433 581 Q 436 593 432 666 L 429 699 Z" fill="black"></path>
				<path d="M 665 737 Q 674 761 691 789 Q 707 805 695 816 Q 682 834 645 852 Q 627 862 608 852 Q 598 845 606 833 Q 619 803 603 726 L 594 684 Q 572 609 574 588 Q 575 572 592 585 Q 610 600 646 688 L 665 737 Z" fill="red"></path>
				<path d="M 338 466 Q 314 481 287 488 Q 274 491 265 484 Q 258 478 266 464 Q 284 440 294 414 Q 303 389 326 288 C 333 259 370 262 366 292 Q 351 403 351 433 C 350 459 350 459 338 466 Z" fill="lightgray"></path>
				<path d="M 709 334 Q 739 418 775 441 Q 794 460 779 479 Q 763 495 709 523 Q 690 532 667 525 Q 600 503 539 490 L 478 480 Q 408 471 338 466 C 308 464 321 430 351 433 Q 364 433 381 437 Q 427 444 477 451 L 535 460 Q 583 467 632 475 Q 663 481 676 467 Q 691 449 651 326 C 642 297 698 306 709 334 Z" fill="lightgray"></path>
				<path d="M 523 278 Q 599 284 916 285 Q 937 284 942 293 Q 949 306 931 321 Q 867 369 804 350 Q 761 344 709 334 L 651 326 Q 587 319 514 308 L 467 302 Q 416 301 366 292 L 326 288 Q 223 279 110 267 Q 88 266 104 247 Q 119 232 138 226 Q 160 219 177 224 Q 304 255 446 270 Q 453 271 463 272 L 523 278 Z" fill="lightgray"></path>
				<path d="M 463 272 Q 445 157 369 103 Q 308 58 177 20 Q 164 16 162 11 Q 163 7 174 4 Q 193 0 244 8 Q 329 21 391 66 Q 475 124 505 254 L 514 308 Q 515 312 516 317 Q 525 390 535 460 L 539 490 Q 542 506 556 529 Q 563 544 553 555 Q 531 574 492 588 Q 467 595 457 589 Q 448 582 455 569 Q 477 532 478 480 L 477 451 Q 476 375 467 302 L 463 272 Z" fill="lightgray"></path>
				<path d="M 505 254 Q 599 130 719 -1 Q 741 -23 777 -21 Q 898 -12 936 -4 Q 946 0 949 5 Q 948 11 837 53 Q 756 83 714 114 Q 626 181 523 278 C 501 299 486 279 505 254 Z" fill="lightgray"></path>
</g>
		<text x="40" y="140" font-size="128" fill="#999999">3</text></g>
		<g id="id0:id3:id3" transform="matrix(1.0,0,0,1.0,3072,0.0)">			<g stroke="lightgray" stroke-width="4" transform="scale(4, 4)"> <rect x="0" y="0" width="256" height="256" fill="white" stroke-width="4"/></g>
			<g transform="scale(0.92, -0.92) translate(60, -920)">					<path d="M 646 688 Q 722 700 819 692 Q 835 691 839 701 Q 843 711 831 726 Q 783 765 697 744 Q 681 741 665 737 L 603 726 Q 521 713 429 699 L 381 693 Q 305 684 222 674 Q 194 670 214 655 Q 256 630 337 646 Q 362 653 389 657 L 432 666 Q 492 678 594 684 L 646 688 Z" fill="black"></path>
				<path d="M 429 699 Q 428 733 426 760 Q 427 779 408 785 Q 369 806 347 798 Q 328 789 343 770 Q 371 736 381 693 L 389 657 Q 401 597 415 580 Q 428 570 433 581 Q 436 593 432 666 L 429 699 Z" fill="black"></path>
				<path d="M 665 737 Q 674 761 691 789 Q 707 805 695 816 Q 682 834 645 852 Q 627 862 608 852 Q 598 845 606 833 Q 619 803 603 726 L 594 684 Q 572 609 574 588 Q 575 572 592 585 Q 610 600 646 688 L 665 737 Z" fill="black"></path>
				<path d="M 338 466 Q 314 481 287 488 Q 274 491 265 484 Q 258 478 266 464 Q 284 440 294 414 Q 303 389 326 288 C 333 259 370 262 366 292 Q 351 403 351 433 C 350 459 350 459 338 466 Z" fill="red"></path>
				<path d="M 709 334 Q 739 418 775 441 Q 794 460 779 479 Q 763 495 709 523 Q 690 532 667 525 Q 600 503 539 490 L 478 480 Q 408 471 338 466 C 308 464 321 430 351 433 Q 364 433 381 437 Q 427 444 477 451 L 535 460 Q 583 467 632 475 Q 663 481 676 467 Q 691 449 651 326 C 642 297 698 306 709 334 Z" fill="lightgray"></path>
				<path d="M 523 278 Q 599 284 916 285 Q 937 284 942 293 Q 949 306 931 321 Q 867 369 804 350 Q 761 344 709 334 L 651 326 Q 587 319 514 308 L 467 302 Q 416 301 366 292 L 326 288 Q 223 279 110 267 Q 88 266 104 247 Q 119 232 138 226 Q 160 219 177 224 Q 304 255 446 270 Q 453 271 463 272 L 523 278 Z" fill="lightgray"></path>
				<path d="M 463 272 Q 445 157 369 103 Q 308 58 177 20 Q 164 16 162 11 Q 163 7 174 4 Q 193 0 244 8 Q 329 21 391 66 Q 475 124 505 254 L 514 308 Q 515 312 516 317 Q 525 390 535 460 L 539 490 Q 542 506 556 529 Q 563 544 553 555 Q 531 574 492 588 Q 467 595 457 589 Q 448 582 455 569 Q 477 532 478 480 L 477 451 Q 476 375 467 302 L 463 272 Z" fill="lightgray"></path>
				<path d="M 505 254 Q 599 130 719 -1 Q 741 -23 777 -21 Q 898 -12 936 -4 Q 946 0 949 5 Q 948 11 837 53 Q 756 83 714 114 Q 626 181 523 278 C 501 299 486 279 505 254 Z" fill="lightgray"></path>
</g>
		<text x="40" y="140" font-size="128" fill="#999999">4</text></g>
		<g id="id0:id4:id4" transform="matrix(1.0,0,0,1.0,4096,0.0)">			<g stroke="lightgray" stroke-width="4" transform="scale(4, 4)"> <rect x="0" y="0" width="256" height="256" fill="white" stroke-width="4"/></g>
			<g transform="scale(0.92, -0.92) translate(60, -920)">					<path d="M 646 688 Q 722 700 819 692 Q 835 691 839 701 Q 843 711 831 726 Q 783 765 697 744 Q 681 741 665 737 L 603 726 Q 521 713 429 699 L 381 693 Q 305 684 222 674 Q 194 670 214 655 Q 256 630 337 646 Q 362 653 389 657 L 432 666 Q 492 678 594 684 L 646 688 Z" fill="black"></path>
				<path d="M 429 699 Q 428 733 426 760 Q 427 779 408 785 Q 369 806 347 798 Q 328 789 343 770 Q 371 736 381 693 L 389 657 Q 401 597 415 580 Q 428 570 433 581 Q 436 593 432 666 L 429 699 Z" fill="black"></path>
				<path d="M 665 737 Q 674 761 691 789 Q 707 805 695 816 Q 682 834 645 852 Q 627 862 608 852 Q 598 845 606 833 Q 619 803 603 726 L 594 684 Q 572 609 574 588 Q 575 572 592 585 Q 610 600 646 688 L 665 737 Z" fill="black"></path>
				<path d="M 338 466 Q 314 481 287 488 Q 274 491 265 484 Q 258 478 266 464 Q 284 440 294 414 Q 303 389 326 288 C 333 259 370 262 366 292 Q 351 403 351 433 C 350 459 350 459 338 466 Z" fill="black"></path>
				<path d="M 709 334 Q 739 418 775 441 Q 794 460 779 479 Q 763 495 709 523 Q 690 532 667 525 Q 600 503 539 490 L 478 480 Q 408 471 338 466 C 308 464 321 430 351 433 Q 364 433 381 437 Q 427 444 477 451 L 535 460 Q 583 467 632 475 Q 663 481 676 467 Q 691 449 651 326 C 642 297 698 306 709 334 Z" fill="red"></path>
				<path d="M 523 278 Q 599 284 916 285 Q 937 284 942 293 Q 949 306 931 321 Q 867 369 804 350 Q 761 344 709 334 L 651 326 Q 587 319 514 308 L 467 302 Q 416 301 366 292 L 326 288 Q 223 279 110 267 Q 88 266 104 247 Q 119 232 138 226 Q 160 219 177 224 Q 304 255 446 270 Q 453 271 463 272 L 523 278 Z" fill="lightgray"></path>
				<path d="M 463 272 Q 445 157 369 103 Q 308 58 177 20 Q 164 16 162 11 Q 163 7 174 4 Q 193 0 244 8 Q 329 21 391 66 Q 475 124 505 254 L 514 308 Q 515 312 516 317 Q 525 390 535 460 L 539 490 Q 542 506 556 529 Q 563 544 553 555 Q 531 574 492 588 Q 467 595 457 589 Q 448 582 455 569 Q 477 532 478 480 L 477 451 Q 476 375 467 302 L 463 272 Z" fill="lightgray"></path>
				<path d="M 505 254 Q 599 130 719 -1 Q 741 -23 777 -21 Q 898 -12 936 -4 Q 946 0 949 5 Q 948 11 837 53 Q 756 83 714 114 Q 626 181 523 278 C 501 299 486 279 505 254 Z" fill="lightgray"></path>
</g>
		<text x="40" y="140" font-size="128" fill="#999999">5</text></g>
</g>
	<g id="id1:id1" transform="translate(0.0,1024)">
		<g id="id1:id0:id0" transform="matrix(1.0,0,0,1.0,0,0.0)">			<g stroke="lightgray" stroke-width="4" transform="scale(4, 4)"> <rect x="0" y="0" width="256" height="256" fill="white" stroke-width="4"/></g>
			<g transform="scale(0.92, -0.92) translate(60, -920)">					<path d="M 646 688 Q 722 700 819 692 Q 835 691 839 701 Q 843 711 831 726 Q 783 765 697 744 Q 681 741 665 737 L 603 726 Q 521 713 429 699 L 381 693 Q 305 684 222 674 Q 194 670 214 655 Q 256 630 337 646 Q 362 653 389 657 L 432 666 Q 492 678 594 684 L 646 688 Z" fill="black"></path>
				<path d="M 429 699 Q 428 733 426 760 Q 427 779 408 785 Q 369 806 347 798 Q 328 789 343 770 Q 371 736 381 693 L 389 657 Q 401 597 415 580 Q 428 570 433 581 Q 436 593 432 666 L 429 699 Z" fill="black"></path>
				<path d="M 665 737 Q 674 761 691 789 Q 707 805 695 816 Q 682 834 645 852 Q 627 862 608 852 Q 598 845 606 833 Q 619 803 603 726 L 594 684 Q 572 609 574 588 Q 575 572 592 585 Q 610 600 646 688 L 665 737 Z" fill="black"></path>
				<path d="M 338 466 Q 314 481 287 488 Q 274 491 265 484 Q 258 478 266 464 Q 284 440 294 414 Q 303 389 326 288 C 333 259 370 262 366 292 Q 351 403 351 433 C 350 459 350 459 338 466 Z" fill="black"></path>
				<path d="M 709 334 Q 739 418 775 441 Q 794 460 779 479 Q 763 495 709 523 Q 690 532 667 525 Q 600 503 539 490 L 478 480 Q 408 471 338 466 C 308 464 321 430 351 433 Q 364 433 381 437 Q 427 444 477 451 L 535 460 Q 583 467 632 475 Q 663 481 676 467 Q 691 449 651 326 C 642 297 698 306 709 334 Z" fill="black"></path>
				<path d="M 523 278 Q 599 284 916 285 Q 937 284 942 293 Q 949 306 931 321 Q 867 369 804 350 Q 761 344 709 334 L 651 326 Q 587 319 514 308 L 467 302 Q 416 301 366 292 L 326 288 Q 223 279 110 267 Q 88 266 104 247 Q 119 232 138 226 Q 160 219 177 224 Q 304 255 446 270 Q 453 271 463 272 L 523 278 Z" fill="red"></path>
				<path d="M 463 272 Q 445 157 369 103 Q 308 58 177 20 Q 164 16 162 11 Q 163 7 174 4 Q 193 0 244 8 Q 329 21 391 66 Q 475 124 505 254 L 514 308 Q 515 312 516 317 Q 525 390 535 460 L 539 490 Q 542 506 556 529 Q 563 544 553 555 Q 531 574 492 588 Q 467 595 457 589 Q 448 582 455 569 Q 477 532 478 480 L 477 451 Q 476 375 467 302 L 463 272 Z" fill="lightgray"></path>
				<path d="M 505 254 Q 599 130 719 -1 Q 741 -23 777 -21 Q 898 -12 936 -4 Q 946 0 949 5 Q 948 11 837 53 Q 756 83 714 114 Q 626 181 523 278 C 501 299 486 279 505 254 Z" fill="lightgray"></path>
</g>
		<text x="40" y="140" font-size="128" fill="#999999">6</text></g>
		<g id="id1:id1:id1" transform="matrix(1.0,0,0,1.0,1024,0.0)">			<g stroke="lightgray" stroke-width="4" transform="scale(4, 4)"> <rect x="0" y="0" width="256" height="256" fill="white" stroke-width="4"/></g>
			<g transform="scale(0.92, -0.92) translate(60, -920)">					<path d="M 646 688 Q 722 700 819 692 Q 835 691 839 701 Q 843 711 831 726 Q 783 765 697 744 Q 681 741 665 737 L 603 726 Q 521 713 429 699 L 381 693 Q 305 684 222 674 Q 194 670 214 655 Q 256 630 337 646 Q 362 653 389 657 L 432 666 Q 492 678 594 684 L 646 688 Z" fill="black"></path>
				<path d="M 429 699 Q 428 733 426 760 Q 427 779 408 785 Q 369 806 347 798 Q 328 789 343 770 Q 371 736 381 693 L 389 657 Q 401 597 415 580 Q 428 570 433 581 Q 436 593 432 666 L 429 699 Z" fill="black"></path>
				<path d="M 665 737 Q 674 761 691 789 Q 707 805 695 816 Q 682 834 645 852 Q 627 862 608 852 Q 598 845 606 833 Q 619 803 603 726 L 594 684 Q 572 609 574 588 Q 575 572 592 585 Q 610 600 646 688 L 665 737 Z" fill="black"></path>
				<path d="M 338 466 Q 314 481 287 488 Q 274 491 265 484 Q 258 478 266 464 Q 284 440 294 414 Q 303 389 326 288 C 333 259 370 262 366 292 Q 351 403 351 433 C 350 459 350 459 338 466 Z" fill="black"></path>
				<path d="M 709 334 Q 739 418 775 441 Q 794 460 779 479 Q 763 495 709 523 Q 690 532 667 525 Q 600 503 539 490 L 478 480 Q 408 471 338 466 C 308 464 321 430 351 433 Q 364 433 381 437 Q 427 444 477 451 L 535 460 Q 583 467 632 475 Q 663 481 676 467 Q 691 449 651 326 C 642 297 698 306 709 334 Z" fill="black"></path>
				<path d="M 523 278 Q 599 284 916 285 Q 937 284 942 293 Q 949 306 931 321 Q 867 369 804 350 Q 761 344 709 334 L 651 326 Q 587 319 514 308 L 467 302 Q 416 301 366 292 L 326 288 Q 223 279 110 267 Q 88 266 104 247 Q 119 232 138 226 Q 160 219 177 224 Q 304 255 446 270 Q 453 271 463 272 L 523 278 Z" fill="black"></path>
				<path d="M 463 272 Q 445 157 369 103 Q 308 58 177 20 Q 164 16 162 11 Q 163 7 174 4 Q 193 0 244 8 Q 329 21 391 66 Q 475 124 505 254 L 514 308 Q 515 312 516 317 Q 525 390 535 460 L 539 490 Q 542 506 556 529 Q 563 544 553 555 Q 531 574 492 588 Q 467 595 457 589 Q 448 582 455 569 Q 477 532 478 480 L 477 451 Q 476 375 467 302 L 463 272 Z" fill="red"></path>
				<path d="M 505 254 Q 599 130 719 -1 Q 741 -23 777 -21 Q 898 -12 936 -4 Q 946 0 949 5 Q 948 11 837 53 Q 756 83 714 114 Q 626 181 523 278 C 501 299 486 279 505 254 Z" fill="lightgray"></path>
</g>
		<text x="40" y="140" font-size="128" fill="#999999">7</text></g>
		<g id="id1:id2:id2" transform="matrix(1.0,0,0,1.0,2048,0.0)">			<g stroke="lightgray" stroke-width="4" transform="scale(4, 4)"> <rect x="0" y="0" width="256" height="256" fill="white" stroke-width="4"/></g>
			<g transform="scale(0.92, -0.92) translate(60, -920)">					<path d="M 646 688 Q 722 700 819 692 Q 835 691 839 701 Q 843 711 831 726 Q 783 765 697 744 Q 681 741 665 737 L 603 726 Q 521 713 429 699 L 381 693 Q 305 684 222 674 Q 194 670 214 655 Q 256 630 337 646 Q 362 653 389 657 L 432 666 Q 492 678 594 684 L 646 688 Z" fill="black"></path>
				<path d="M 429 699 Q 428 733 426 760 Q 427 779 408 785 Q 369 806 347 798 Q 328 789 343 770 Q 371 736 381 693 L 389 657 Q 401 597 415 580 Q 428 570 433 581 Q 436 593 432 666 L 429 699 Z" fill="black"></path>
				<path d="M 665 737 Q 674 761 691 789 Q 707 805 695 816 Q 682 834 645 852 Q 627 862 608 852 Q 598 845 606 833 Q 619 803 603 726 L 594 684 Q 572 609 574 588 Q 575 572 592 585 Q 610 600 646 688 L 665 737 Z" fill="black"></path>
				<path d="M 338 466 Q 314 481 287 488 Q 274 491 265 484 Q 258 478 266 464 Q 284 440 294 414 Q 303 389 326 288 C 333 259 370 262 366 292 Q 351 403 351 433 C 350 459 350 459 338 466 Z" fill="black"></path>
				<path d="M 709 334 Q 739 418 775 441 Q 794 460 779 479 Q 763 495 709 523 Q 690 532 667 525 Q 600 503 539 490 L 478 480 Q 408 471 338 466 C 308 464 321 430 351 433 Q 364 433 381 437 Q 427 444 477 451 L 535 460 Q 583 467 632 475 Q 663 481 676 467 Q 691 449 651 326 C 642 297 698 306 709 334 Z" fill="black"></path>
				<path d="M 523 278 Q 599 284 916 285 Q 937 284 942 293 Q 949 306 931 321 Q 867 369 804 350 Q 761 344 709 334 L 651 326 Q 587 319 514 308 L 467 302 Q 416 301 366 292 L 326 288 Q 223 279 110 267 Q 88 266 104 247 Q 119 232 138 226 Q 160 219 177 224 Q 304 255 446 270 Q 453 271 463 272 L 523 278 Z" fill="black"></path>
				<path d="M 463 272 Q 445 157 369 103 Q 308 58 177 20 Q 164 16 162 11 Q 163 7 174 4 Q 193 0 244 8 Q 329 21 391 66 Q 475 124 505 254 L 514 308 Q 515 312 516 317 Q 525 390 535 460 L 539 490 Q 542 506 556 529 Q 563 544 553 555 Q 531 574 492 588 Q 467 595 457 589 Q 448 582 455 569 Q 477 532 478 480 L 477 451 Q 476 375 467 302 L 463 272 Z" fill="black"></path>
				<path d="M 505 254 Q 599 130 719 -1 Q 741 -23 777 -21 Q 898 -12 936 -4 Q 946 0 949 5 Q 948 11 837 53 Q 756 83 714 114 Q 626 181 523 278 C 501 299 486 279 505 254 Z" fill="red"></path>
</g>
		<text x="40" y="140" font-size="128" fill="#999999">8</text></g>
		<g id="id1:id3:id3" transform="matrix(1.0,0,0,1.0,3072,0.0)">			<g stroke="white" stroke-width="4" transform="scale(4, 4)"> <rect x="1" y="1" width="255" height="255" fill="white" stroke-width="0"/></g>
</g>
		<g id="id1:id4:id4" transform="matrix(1.0,0,0,1.0,4096,0.0)">			<g stroke="white" stroke-width="4" transform="scale(4, 4)"> <rect x="1" y="1" width="255" height="255" fill="white" stroke-width="0"/></g>
</g>
</g>
</svg>
