<?xml version="1.0" standalone="no"?>
<!DOCTYPE svg PUBLIC "-//W3C//DTD SVG 1.1//EN"
 "http://www.w3.org/Graphics/SVG/1.1/DTD/svg11.dtd">
<!-- generate by Handict dictionary app com.asnsami.handict -->

<svg xmlns="http://www.w3.org/2000/svg" xmlns:sodipodi="http://sodipodi.sourceforge.net/DTD/sodipodi-0.dtd" version="1.1" width="640" height="256" viewBox="0 0 5120 2048">
	<g id="id0:id0" transform="translate(0.0,0)">
		<g id="id0:id0:id0" transform="matrix(1.0,0,0,1.0,0,0.0)">			<g stroke="lightgray" stroke-width="4" transform="scale(4, 4)"> <rect x="0" y="0" width="256" height="256" fill="white" stroke-width="4"/></g>
			<g transform="scale(0.92, -0.92) translate(60, -920)">					<path d="M 617 704 Q 695 713 797 703 Q 813 702 818 711 Q 824 723 810 738 Q 761 783 660 759 Q 650 758 641 755 L 588 747 Q 509 737 420 726 L 373 721 Q 292 714 204 706 Q 174 703 195 687 Q 237 660 312 672 Q 346 679 382 685 L 424 692 Q 440 698 577 703 L 617 704 Z" fill="red"></path>
				<path d="M 420 726 Q 419 754 417 778 Q 418 797 399 802 Q 362 820 340 813 Q 324 806 338 786 Q 363 758 373 721 L 382 685 Q 397 631 408 619 Q 421 609 425 620 Q 429 636 424 692 L 420 726 Z" fill="lightgray"></path>
				<path d="M 641 755 Q 647 774 664 800 Q 677 813 668 824 Q 656 840 624 856 Q 609 865 593 856 Q 583 850 590 840 Q 599 818 588 747 L 577 703 Q 568 679 571 659 Q 572 646 587 656 Q 605 671 617 704 L 641 755 Z" fill="lightgray"></path>
				<path d="M 486 553 Q 546 577 604 579 Q 620 578 624 585 Q 628 594 619 606 Q 568 652 538 653 Q 531 650 529 640 Q 523 597 290 531 Q 284 524 289 520 Q 301 517 406 536 Q 421 539 437 541 L 486 553 Z" fill="lightgray"></path>
				<path d="M 445 412 Q 445 413 447 413 Q 495 419 560 422 L 595 426 Q 631 427 840 428 Q 862 428 867 437 Q 873 450 855 465 Q 789 516 745 495 Q 648 479 487 455 Q 478 454 469 452 L 405 444 Q 287 431 154 416 Q 132 413 148 395 Q 163 380 182 374 Q 204 368 222 373 Q 297 392 380 404 L 445 412 Z" fill="lightgray"></path>
				<path d="M 366 310 Q 370 316 376 321 Q 410 357 445 412 L 469 452 Q 478 473 508 506 Q 517 515 513 525 Q 509 535 486 553 C 463 572 441 571 437 541 Q 434 496 405 444 L 380 404 Q 286 293 177 223 Q 153 210 126 193 Q 117 187 124 183 Q 131 179 142 182 Q 259 212 350 294 L 366 310 Z" fill="lightgray"></path>
				<path d="M 560 422 Q 728 227 774 218 Q 840 208 940 229 Q 959 232 961 237 Q 962 244 947 250 Q 761 310 677 364 Q 662 374 595 426 C 571 444 540 445 560 422 Z" fill="lightgray"></path>
				<path d="M 350 294 Q 368 276 361 171 Q 355 90 269 3 Q 265 0 263 -4 Q 262 -11 272 -11 Q 302 -11 345 27 Q 402 81 428 259 Q 435 278 416 288 Q 382 307 366 310 C 337 318 335 319 350 294 Z" fill="lightgray"></path>
				<path d="M 579 -40 Q 583 -64 590 -73 Q 596 -80 603 -78 Q 627 -62 628 69 Q 627 105 632 240 Q 635 274 639 285 Q 642 301 628 311 Q 597 332 583 334 Q 571 338 556 330 Q 547 323 554 313 Q 569 283 570 270 Q 573 191 574 64 Q 575 -14 579 -40 Z" fill="lightgray"></path>
</g>
		<text x="40" y="140" font-size="128" fill="#999999">1</text></g>
		<g id="id0:id1:id1" transform="matrix(1.0,0,0,1.0,1024,0.0)">			<g stroke="lightgray" stroke-width="4" transform="scale(4, 4)"> <rect x="0" y="0" width="256" height="256" fill="white" stroke-width="4"/></g>
			<g transform="scale(0.92, -0.92) translate(60, -920)">					<path d="M 617 704 Q 695 713 797 703 Q 813 702 818 711 Q 824 723 810 738 Q 761 783 660 759 Q 650 758 641 755 L 588 747 Q 509 737 420 726 L 373 721 Q 292 714 204 706 Q 174 703 195 687 Q 237 660 312 672 Q 346 679 382 685 L 424 692 Q 440 698 577 703 L 617 704 Z" fill="black"></path>
				<path d="M 420 726 Q 419 754 417 778 Q 418 797 399 802 Q 362 820 340 813 Q 324 806 338 786 Q 363 758 373 721 L 382 685 Q 397 631 408 619 Q 421 609 425 620 Q 429 636 424 692 L 420 726 Z" fill="red"></path>
				<path d="M 641 755 Q 647 774 664 800 Q 677 813 668 824 Q 656 840 624 856 Q 609 865 593 856 Q 583 850 590 840 Q 599 818 588 747 L 577 703 Q 568 679 571 659 Q 572 646 587 656 Q 605 671 617 704 L 641 755 Z" fill="lightgray"></path>
				<path d="M 486 553 Q 546 577 604 579 Q 620 578 624 585 Q 628 594 619 606 Q 568 652 538 653 Q 531 650 529 640 Q 523 597 290 531 Q 284 524 289 520 Q 301 517 406 536 Q 421 539 437 541 L 486 553 Z" fill="lightgray"></path>
				<path d="M 445 412 Q 445 413 447 413 Q 495 419 560 422 L 595 426 Q 631 427 840 428 Q 862 428 867 437 Q 873 450 855 465 Q 789 516 745 495 Q 648 479 487 455 Q 478 454 469 452 L 405 444 Q 287 431 154 416 Q 132 413 148 395 Q 163 380 182 374 Q 204 368 222 373 Q 297 392 380 404 L 445 412 Z" fill="lightgray"></path>
				<path d="M 366 310 Q 370 316 376 321 Q 410 357 445 412 L 469 452 Q 478 473 508 506 Q 517 515 513 525 Q 509 535 486 553 C 463 572 441 571 437 541 Q 434 496 405 444 L 380 404 Q 286 293 177 223 Q 153 210 126 193 Q 117 187 124 183 Q 131 179 142 182 Q 259 212 350 294 L 366 310 Z" fill="lightgray"></path>
				<path d="M 560 422 Q 728 227 774 218 Q 840 208 940 229 Q 959 232 961 237 Q 962 244 947 250 Q 761 310 677 364 Q 662 374 595 426 C 571 444 540 445 560 422 Z" fill="lightgray"></path>
				<path d="M 350 294 Q 368 276 361 171 Q 355 90 269 3 Q 265 0 263 -4 Q 262 -11 272 -11 Q 302 -11 345 27 Q 402 81 428 259 Q 435 278 416 288 Q 382 307 366 310 C 337 318 335 319 350 294 Z" fill="lightgray"></path>
				<path d="M 579 -40 Q 583 -64 590 -73 Q 596 -80 603 -78 Q 627 -62 628 69 Q 627 105 632 240 Q 635 274 639 285 Q 642 301 628 311 Q 597 332 583 334 Q 571 338 556 330 Q 547 323 554 313 Q 569 283 570 270 Q 573 191 574 64 Q 575 -14 579 -40 Z" fill="lightgray"></path>
</g>
		<text x="40" y="140" font-size="128" fill="#999999">2</text></g>
		<g id="id0:id2:id2" transform="matrix(1.0,0,0,1.0,2048,0.0)">			<g stroke="lightgray" stroke-width="4" transform="scale(4, 4)"> <rect x="0" y="0" width="256" height="256" fill="white" stroke-width="4"/></g>
			<g transform="scale(0.92, -0.92) translate(60, -920)">					<path d="M 617 704 Q 695 713 797 703 Q 813 702 818 711 Q 824 723 810 738 Q 761 783 660 759 Q 650 758 641 755 L 588 747 Q 509 737 420 726 L 373 721 Q 292 714 204 706 Q 174 703 195 687 Q 237 660 312 672 Q 346 679 382 685 L 424 692 Q 440 698 577 703 L 617 704 Z" fill="black"></path>
				<path d="M 420 726 Q 419 754 417 778 Q 418 797 399 802 Q 362 820 340 813 Q 324 806 338 786 Q 363 758 373 721 L 382 685 Q 397 631 408 619 Q 421 609 425 620 Q 429 636 424 692 L 420 726 Z" fill="black"></path>
				<path d="M 641 755 Q 647 774 664 800 Q 677 813 668 824 Q 656 840 624 856 Q 609 865 593 856 Q 583 850 590 840 Q 599 818 588 747 L 577 703 Q 568 679 571 659 Q 572 646 587 656 Q 605 671 617 704 L 641 755 Z" fill="red"></path>
				<path d="M 486 553 Q 546 577 604 579 Q 620 578 624 585 Q 628 594 619 606 Q 568 652 538 653 Q 531 650 529 640 Q 523 597 290 531 Q 284 524 289 520 Q 301 517 406 536 Q 421 539 437 541 L 486 553 Z" fill="lightgray"></path>
				<path d="M 445 412 Q 445 413 447 413 Q 495 419 560 422 L 595 426 Q 631 427 840 428 Q 862 428 867 437 Q 873 450 855 465 Q 789 516 745 495 Q 648 479 487 455 Q 478 454 469 452 L 405 444 Q 287 431 154 416 Q 132 413 148 395 Q 163 380 182 374 Q 204 368 222 373 Q 297 392 380 404 L 445 412 Z" fill="lightgray"></path>
				<path d="M 366 310 Q 370 316 376 321 Q 410 357 445 412 L 469 452 Q 478 473 508 506 Q 517 515 513 525 Q 509 535 486 553 C 463 572 441 571 437 541 Q 434 496 405 444 L 380 404 Q 286 293 177 223 Q 153 210 126 193 Q 117 187 124 183 Q 131 179 142 182 Q 259 212 350 294 L 366 310 Z" fill="lightgray"></path>
				<path d="M 560 422 Q 728 227 774 218 Q 840 208 940 229 Q 959 232 961 237 Q 962 244 947 250 Q 761 310 677 364 Q 662 374 595 426 C 571 444 540 445 560 422 Z" fill="lightgray"></path>
				<path d="M 350 294 Q 368 276 361 171 Q 355 90 269 3 Q 265 0 263 -4 Q 262 -11 272 -11 Q 302 -11 345 27 Q 402 81 428 259 Q 435 278 416 288 Q 382 307 366 310 C 337 318 335 319 350 294 Z" fill="lightgray"></path>
				<path d="M 579 -40 Q 583 -64 590 -73 Q 596 -80 603 -78 Q 627 -62 628 69 Q 627 105 632 240 Q 635 274 639 285 Q 642 301 628 311 Q 597 332 583 334 Q 571 338 556 330 Q 547 323 554 313 Q 569 283 570 270 Q 573 191 574 64 Q 575 -14 579 -40 Z" fill="lightgray"></path>
</g>
		<text x="40" y="140" font-size="128" fill="#999999">3</text></g>
		<g id="id0:id3:id3" transform="matrix(1.0,0,0,1.0,3072,0.0)">			<g stroke="lightgray" stroke-width="4" transform="scale(4, 4)"> <rect x="0" y="0" width="256" height="256" fill="white" stroke-width="4"/></g>
			<g transform="scale(0.92, -0.92) translate(60, -920)">					<path d="M 617 704 Q 695 713 797 703 Q 813 702 818 711 Q 824 723 810 738 Q 761 783 660 759 Q 650 758 641 755 L 588 747 Q 509 737 420 726 L 373 721 Q 292 714 204 706 Q 174 703 195 687 Q 237 660 312 672 Q 346 679 382 685 L 424 692 Q 440 698 577 703 L 617 704 Z" fill="black"></path>
				<path d="M 420 726 Q 419 754 417 778 Q 418 797 399 802 Q 362 820 340 813 Q 324 806 338 786 Q 363 758 373 721 L 382 685 Q 397 631 408 619 Q 421 609 425 620 Q 429 636 424 692 L 420 726 Z" fill="black"></path>
				<path d="M 641 755 Q 647 774 664 800 Q 677 813 668 824 Q 656 840 624 856 Q 609 865 593 856 Q 583 850 590 840 Q 599 818 588 747 L 577 703 Q 568 679 571 659 Q 572 646 587 656 Q 605 671 617 704 L 641 755 Z" fill="black"></path>
				<path d="M 486 553 Q 546 577 604 579 Q 620 578 624 585 Q 628 594 619 606 Q 568 652 538 653 Q 531 650 529 640 Q 523 597 290 531 Q 284 524 289 520 Q 301 517 406 536 Q 421 539 437 541 L 486 553 Z" fill="red"></path>
				<path d="M 445 412 Q 445 413 447 413 Q 495 419 560 422 L 595 426 Q 631 427 840 428 Q 862 428 867 437 Q 873 450 855 465 Q 789 516 745 495 Q 648 479 487 455 Q 478 454 469 452 L 405 444 Q 287 431 154 416 Q 132 413 148 395 Q 163 380 182 374 Q 204 368 222 373 Q 297 392 380 404 L 445 412 Z" fill="lightgray"></path>
				<path d="M 366 310 Q 370 316 376 321 Q 410 357 445 412 L 469 452 Q 478 473 508 506 Q 517 515 513 525 Q 509 535 486 553 C 463 572 441 571 437 541 Q 434 496 405 444 L 380 404 Q 286 293 177 223 Q 153 210 126 193 Q 117 187 124 183 Q 131 179 142 182 Q 259 212 350 294 L 366 310 Z" fill="lightgray"></path>
				<path d="M 560 422 Q 728 227 774 218 Q 840 208 940 229 Q 959 232 961 237 Q 962 244 947 250 Q 761 310 677 364 Q 662 374 595 426 C 571 444 540 445 560 422 Z" fill="lightgray"></path>
				<path d="M 350 294 Q 368 276 361 171 Q 355 90 269 3 Q 265 0 263 -4 Q 262 -11 272 -11 Q 302 -11 345 27 Q 402 81 428 259 Q 435 278 416 288 Q 382 307 366 310 C 337 318 335 319 350 294 Z" fill="lightgray"></path>
				<path d="M 579 -40 Q 583 -64 590 -73 Q 596 -80 603 -78 Q 627 -62 628 69 Q 627 105 632 240 Q 635 274 639 285 Q 642 301 628 311 Q 597 332 583 334 Q 571 338 556 330 Q 547 323 554 313 Q 569 283 570 270 Q 573 191 574 64 Q 575 -14 579 -40 Z" fill="lightgray"></path>
</g>
		<text x="40" y="140" font-size="128" fill="#999999">4</text></g>
		<g id="id0:id4:id4" transform="matrix(1.0,0,0,1.0,4096,0.0)">			<g stroke="lightgray" stroke-width="4" transform="scale(4, 4)"> <rect x="0" y="0" width="256" height="256" fill="white" stroke-width="4"/></g>
			<g transform="scale(0.92, -0.92) translate(60, -920)">					<path d="M 617 704 Q 695 713 797 703 Q 813 702 818 711 Q 824 723 810 738 Q 761 783 660 759 Q 650 758 641 755 L 588 747 Q 509 737 420 726 L 373 721 Q 292 714 204 706 Q 174 703 195 687 Q 237 660 312 672 Q 346 679 382 685 L 424 692 Q 440 698 577 703 L 617 704 Z" fill="black"></path>
				<path d="M 420 726 Q 419 754 417 778 Q 418 797 399 802 Q 362 820 340 813 Q 324 806 338 786 Q 363 758 373 721 L 382 685 Q 397 631 408 619 Q 421 609 425 620 Q 429 636 424 692 L 420 726 Z" fill="black"></path>
				<path d="M 641 755 Q 647 774 664 800 Q 677 813 668 824 Q 656 840 624 856 Q 609 865 593 856 Q 583 850 590 840 Q 599 818 588 747 L 577 703 Q 568 679 571 659 Q 572 646 587 656 Q 605 671 617 704 L 641 755 Z" fill="black"></path>
				<path d="M 486 553 Q 546 577 604 579 Q 620 578 624 585 Q 628 594 619 606 Q 568 652 538 653 Q 531 650 529 640 Q 523 597 290 531 Q 284 524 289 520 Q 301 517 406 536 Q 421 539 437 541 L 486 553 Z" fill="black"></path>
				<path d="M 445 412 Q 445 413 447 413 Q 495 419 560 422 L 595 426 Q 631 427 840 428 Q 862 428 867 437 Q 873 450 855 465 Q 789 516 745 495 Q 648 479 487 455 Q 478 454 469 452 L 405 444 Q 287 431 154 416 Q 132 413 148 395 Q 163 380 182 374 Q 204 368 222 373 Q 297 392 380 404 L 445 412 Z" fill="red"></path>
				<path d="M 366 310 Q 370 316 376 321 Q 410 357 445 412 L 469 452 Q 478 473 508 506 Q 517 515 513 525 Q 509 535 486 553 C 463 572 441 571 437 541 Q 434 496 405 444 L 380 404 Q 286 293 177 223 Q 153 210 126 193 Q 117 187 124 183 Q 131 179 142 182 Q 259 212 350 294 L 366 310 Z" fill="lightgray"></path>
				<path d="M 560 422 Q 728 227 774 218 Q 840 208 940 229 Q 959 232 961 237 Q 962 244 947 250 Q 761 310 677 364 Q 662 374 595 426 C 571 444 540 445 560 422 Z" fill="lightgray"></path>
				<path d="M 350 294 Q 368 276 361 171 Q 355 90 269 3 Q 265 0 263 -4 Q 262 -11 272 -11 Q 302 -11 345 27 Q 402 81 428 259 Q 435 278 416 288 Q 382 307 366 310 C 337 318 335 319 350 294 Z" fill="lightgray"></path>
				<path d="M 579 -40 Q 583 -64 590 -73 Q 596 -80 603 -78 Q 627 -62 628 69 Q 627 105 632 240 Q 635 274 639 285 Q 642 301 628 311 Q 597 332 583 334 Q 571 338 556 330 Q 547 323 554 313 Q 569 283 570 270 Q 573 191 574 64 Q 575 -14 579 -40 Z" fill="lightgray"></path>
</g>
		<text x="40" y="140" font-size="128" fill="#999999">5</text></g>
</g>
	<g id="id1:id1" transform="translate(0.0,1024)">
		<g id="id1:id0:id0" transform="matrix(1.0,0,0,1.0,0,0.0)">			<g stroke="lightgray" stroke-width="4" transform="scale(4, 4)"> <rect x="0" y="0" width="256" height="256" fill="white" stroke-width="4"/></g>
			<g transform="scale(0.92, -0.92) translate(60, -920)">					<path d="M 617 704 Q 695 713 797 703 Q 813 702 818 711 Q 824 723 810 738 Q 761 783 660 759 Q 650 758 641 755 L 588 747 Q 509 737 420 726 L 373 721 Q 292 714 204 706 Q 174 703 195 687 Q 237 660 312 672 Q 346 679 382 685 L 424 692 Q 440 698 577 703 L 617 704 Z" fill="black"></path>
				<path d="M 420 726 Q 419 754 417 778 Q 418 797 399 802 Q 362 820 340 813 Q 324 806 338 786 Q 363 758 373 721 L 382 685 Q 397 631 408 619 Q 421 609 425 620 Q 429 636 424 692 L 420 726 Z" fill="black"></path>
				<path d="M 641 755 Q 647 774 664 800 Q 677 813 668 824 Q 656 840 624 856 Q 609 865 593 856 Q 583 850 590 840 Q 599 818 588 747 L 577 703 Q 568 679 571 659 Q 572 646 587 656 Q 605 671 617 704 L 641 755 Z" fill="black"></path>
				<path d="M 486 553 Q 546 577 604 579 Q 620 578 624 585 Q 628 594 619 606 Q 568 652 538 653 Q 531 650 529 640 Q 523 597 290 531 Q 284 524 289 520 Q 301 517 406 536 Q 421 539 437 541 L 486 553 Z" fill="black"></path>
				<path d="M 445 412 Q 445 413 447 413 Q 495 419 560 422 L 595 426 Q 631 427 840 428 Q 862 428 867 437 Q 873 450 855 465 Q 789 516 745 495 Q 648 479 487 455 Q 478 454 469 452 L 405 444 Q 287 431 154 416 Q 132 413 148 395 Q 163 380 182 374 Q 204 368 222 373 Q 297 392 380 404 L 445 412 Z" fill="black"></path>
				<path d="M 366 310 Q 370 316 376 321 Q 410 357 445 412 L 469 452 Q 478 473 508 506 Q 517 515 513 525 Q 509 535 486 553 C 463 572 441 571 437 541 Q 434 496 405 444 L 380 404 Q 286 293 177 223 Q 153 210 126 193 Q 117 187 124 183 Q 131 179 142 182 Q 259 212 350 294 L 366 310 Z" fill="red"></path>
				<path d="M 560 422 Q 728 227 774 218 Q 840 208 940 229 Q 959 232 961 237 Q 962 244 947 250 Q 761 310 677 364 Q 662 374 595 426 C 571 444 540 445 560 422 Z" fill="lightgray"></path>
				<path d="M 350 294 Q 368 276 361 171 Q 355 90 269 3 Q 265 0 263 -4 Q 262 -11 272 -11 Q 302 -11 345 27 Q 402 81 428 259 Q 435 278 416 288 Q 382 307 366 310 C 337 318 335 319 350 294 Z" fill="lightgray"></path>
				<path d="M 579 -40 Q 583 -64 590 -73 Q 596 -80 603 -78 Q 627 -62 628 69 Q 627 105 632 240 Q 635 274 639 285 Q 642 301 628 311 Q 597 332 583 334 Q 571 338 556 330 Q 547 323 554 313 Q 569 283 570 270 Q 573 191 574 64 Q 575 -14 579 -40 Z" fill="lightgray"></path>
</g>
		<text x="40" y="140" font-size="128" fill="#999999">6</text></g>
		<g id="id1:id1:id1" transform="matrix(1.0,0,0,1.0,1024,0.0)">			<g stroke="lightgray" stroke-width="4" transform="scale(4, 4)"> <rect x="0" y="0" width="256" height="256" fill="white" stroke-width="4"/></g>
			<g transform="scale(0.92, -0.92) translate(60, -920)">					<path d="M 617 704 Q 695 713 797 703 Q 813 702 818 711 Q 824 723 810 738 Q 761 783 660 759 Q 650 758 641 755 L 588 747 Q 509 737 420 726 L 373 721 Q 292 714 204 706 Q 174 703 195 687 Q 237 660 312 672 Q 346 679 382 685 L 424 692 Q 440 698 577 703 L 617 704 Z" fill="black"></path>
				<path d="M 420 726 Q 419 754 417 778 Q 418 797 399 802 Q 362 820 340 813 Q 324 806 338 786 Q 363 758 373 721 L 382 685 Q 397 631 408 619 Q 421 609 425 620 Q 429 636 424 692 L 420 726 Z" fill="black"></path>
				<path d="M 641 755 Q 647 774 664 800 Q 677 813 668 824 Q 656 840 624 856 Q 609 865 593 856 Q 583 850 590 840 Q 599 818 588 747 L 577 703 Q 568 679 571 659 Q 572 646 587 656 Q 605 671 617 704 L 641 755 Z" fill="black"></path>
				<path d="M 486 553 Q 546 577 604 579 Q 620 578 624 585 Q 628 594 619 606 Q 568 652 538 653 Q 531 650 529 640 Q 523 597 290 531 Q 284 524 289 520 Q 301 517 406 536 Q 421 539 437 541 L 486 553 Z" fill="black"></path>
				<path d="M 445 412 Q 445 413 447 413 Q 495 419 560 422 L 595 426 Q 631 427 840 428 Q 862 428 867 437 Q 873 450 855 465 Q 789 516 745 495 Q 648 479 487 455 Q 478 454 469 452 L 405 444 Q 287 431 154 416 Q 132 413 148 395 Q 163 380 182 374 Q 204 368 222 373 Q 297 392 380 404 L 445 412 Z" fill="black"></path>
				<path d="M 366 310 Q 370 316 376 321 Q 410 357 445 412 L 469 452 Q 478 473 508 506 Q 517 515 513 525 Q 509 535 486 553 C 463 572 441 571 437 541 Q 434 496 405 444 L 380 404 Q 286 293 177 223 Q 153 210 126 193 Q 117 187 124 183 Q 131 179 142 182 Q 259 212 350 294 L 366 310 Z" fill="black"></path>
				<path d="M 560 422 Q 728 227 774 218 Q 840 208 940 229 Q 959 232 961 237 Q 962 244 947 250 Q 761 310 677 364 Q 662 374 595 426 C 571 444 540 445 560 422 Z" fill="red"></path>
				<path d="M 350 294 Q 368 276 361 171 Q 355 90 269 3 Q 265 0 263 -4 Q 262 -11 272 -11 Q 302 -11 345 27 Q 402 81 428 259 Q 435 278 416 288 Q 382 307 366 310 C 337 318 335 319 350 294 Z" fill="lightgray"></path>
				<path d="M 579 -40 Q 583 -64 590 -73 Q 596 -80 603 -78 Q 627 -62 628 69 Q 627 105 632 240 Q 635 274 639 285 Q 642 301 628 311 Q 597 332 583 334 Q 571 338 556 330 Q 547 323 554 313 Q 569 283 570 270 Q 573 191 574 64 Q 575 -14 579 -40 Z" fill="lightgray"></path>
</g>
		<text x="40" y="140" font-size="128" fill="#999999">7</text></g>
		<g id="id1:id2:id2" transform="matrix(1.0,0,0,1.0,2048,0.0)">			<g stroke="lightgray" stroke-width="4" transform="scale(4, 4)"> <rect x="0" y="0" width="256" height="256" fill="white" stroke-width="4"/></g>
			<g transform="scale(0.92, -0.92) translate(60, -920)">					<path d="M 617 704 Q 695 713 797 703 Q 813 702 818 711 Q 824 723 810 738 Q 761 783 660 759 Q 650 758 641 755 L 588 747 Q 509 737 420 726 L 373 721 Q 292 714 204 706 Q 174 703 195 687 Q 237 660 312 672 Q 346 679 382 685 L 424 692 Q 440 698 577 703 L 617 704 Z" fill="black"></path>
				<path d="M 420 726 Q 419 754 417 778 Q 418 797 399 802 Q 362 820 340 813 Q 324 806 338 786 Q 363 758 373 721 L 382 685 Q 397 631 408 619 Q 421 609 425 620 Q 429 636 424 692 L 420 726 Z" fill="black"></path>
				<path d="M 641 755 Q 647 774 664 800 Q 677 813 668 824 Q 656 840 624 856 Q 609 865 593 856 Q 583 850 590 840 Q 599 818 588 747 L 577 703 Q 568 679 571 659 Q 572 646 587 656 Q 605 671 617 704 L 641 755 Z" fill="black"></path>
				<path d="M 486 553 Q 546 577 604 579 Q 620 578 624 585 Q 628 594 619 606 Q 568 652 538 653 Q 531 650 529 640 Q 523 597 290 531 Q 284 524 289 520 Q 301 517 406 536 Q 421 539 437 541 L 486 553 Z" fill="black"></path>
				<path d="M 445 412 Q 445 413 447 413 Q 495 419 560 422 L 595 426 Q 631 427 840 428 Q 862 428 867 437 Q 873 450 855 465 Q 789 516 745 495 Q 648 479 487 455 Q 478 454 469 452 L 405 444 Q 287 431 154 416 Q 132 413 148 395 Q 163 380 182 374 Q 204 368 222 373 Q 297 392 380 404 L 445 412 Z" fill="black"></path>
				<path d="M 366 310 Q 370 316 376 321 Q 410 357 445 412 L 469 452 Q 478 473 508 506 Q 517 515 513 525 Q 509 535 486 553 C 463 572 441 571 437 541 Q 434 496 405 444 L 380 404 Q 286 293 177 223 Q 153 210 126 193 Q 117 187 124 183 Q 131 179 142 182 Q 259 212 350 294 L 366 310 Z" fill="black"></path>
				<path d="M 560 422 Q 728 227 774 218 Q 840 208 940 229 Q 959 232 961 237 Q 962 244 947 250 Q 761 310 677 364 Q 662 374 595 426 C 571 444 540 445 560 422 Z" fill="black"></path>
				<path d="M 350 294 Q 368 276 361 171 Q 355 90 269 3 Q 265 0 263 -4 Q 262 -11 272 -11 Q 302 -11 345 27 Q 402 81 428 259 Q 435 278 416 288 Q 382 307 366 310 C 337 318 335 319 350 294 Z" fill="red"></path>
				<path d="M 579 -40 Q 583 -64 590 -73 Q 596 -80 603 -78 Q 627 -62 628 69 Q 627 105 632 240 Q 635 274 639 285 Q 642 301 628 311 Q 597 332 583 334 Q 571 338 556 330 Q 547 323 554 313 Q 569 283 570 270 Q 573 191 574 64 Q 575 -14 579 -40 Z" fill="lightgray"></path>
</g>
		<text x="40" y="140" font-size="128" fill="#999999">8</text></g>
		<g id="id1:id3:id3" transform="matrix(1.0,0,0,1.0,3072,0.0)">			<g stroke="lightgray" stroke-width="4" transform="scale(4, 4)"> <rect x="0" y="0" width="256" height="256" fill="white" stroke-width="4"/></g>
			<g transform="scale(0.92, -0.92) translate(60, -920)">					<path d="M 617 704 Q 695 713 797 703 Q 813 702 818 711 Q 824 723 810 738 Q 761 783 660 759 Q 650 758 641 755 L 588 747 Q 509 737 420 726 L 373 721 Q 292 714 204 706 Q 174 703 195 687 Q 237 660 312 672 Q 346 679 382 685 L 424 692 Q 440 698 577 703 L 617 704 Z" fill="black"></path>
				<path d="M 420 726 Q 419 754 417 778 Q 418 797 399 802 Q 362 820 340 813 Q 324 806 338 786 Q 363 758 373 721 L 382 685 Q 397 631 408 619 Q 421 609 425 620 Q 429 636 424 692 L 420 726 Z" fill="black"></path>
				<path d="M 641 755 Q 647 774 664 800 Q 677 813 668 824 Q 656 840 624 856 Q 609 865 593 856 Q 583 850 590 840 Q 599 818 588 747 L 577 703 Q 568 679 571 659 Q 572 646 587 656 Q 605 671 617 704 L 641 755 Z" fill="black"></path>
				<path d="M 486 553 Q 546 577 604 579 Q 620 578 624 585 Q 628 594 619 606 Q 568 652 538 653 Q 531 650 529 640 Q 523 597 290 531 Q 284 524 289 520 Q 301 517 406 536 Q 421 539 437 541 L 486 553 Z" fill="black"></path>
				<path d="M 445 412 Q 445 413 447 413 Q 495 419 560 422 L 595 426 Q 631 427 840 428 Q 862 428 867 437 Q 873 450 855 465 Q 789 516 745 495 Q 648 479 487 455 Q 478 454 469 452 L 405 444 Q 287 431 154 416 Q 132 413 148 395 Q 163 380 182 374 Q 204 368 222 373 Q 297 392 380 404 L 445 412 Z" fill="black"></path>
				<path d="M 366 310 Q 370 316 376 321 Q 410 357 445 412 L 469 452 Q 478 473 508 506 Q 517 515 513 525 Q 509 535 486 553 C 463 572 441 571 437 541 Q 434 496 405 444 L 380 404 Q 286 293 177 223 Q 153 210 126 193 Q 117 187 124 183 Q 131 179 142 182 Q 259 212 350 294 L 366 310 Z" fill="black"></path>
				<path d="M 560 422 Q 728 227 774 218 Q 840 208 940 229 Q 959 232 961 237 Q 962 244 947 250 Q 761 310 677 364 Q 662 374 595 426 C 571 444 540 445 560 422 Z" fill="black"></path>
				<path d="M 350 294 Q 368 276 361 171 Q 355 90 269 3 Q 265 0 263 -4 Q 262 -11 272 -11 Q 302 -11 345 27 Q 402 81 428 259 Q 435 278 416 288 Q 382 307 366 310 C 337 318 335 319 350 294 Z" fill="black"></path>
				<path d="M 579 -40 Q 583 -64 590 -73 Q 596 -80 603 -78 Q 627 -62 628 69 Q 627 105 632 240 Q 635 274 639 285 Q 642 301 628 311 Q 597 332 583 334 Q 571 338 556 330 Q 547 323 554 313 Q 569 283 570 270 Q 573 191 574 64 Q 575 -14 579 -40 Z" fill="red"></path>
</g>
		<text x="40" y="140" font-size="128" fill="#999999">9</text></g>
		<g id="id1:id4:id4" transform="matrix(1.0,0,0,1.0,4096,0.0)">			<g stroke="white" stroke-width="4" transform="scale(4, 4)"> <rect x="1" y="1" width="255" height="255" fill="white" stroke-width="0"/></g>
</g>
</g>
</svg>
