<?xml version="1.0" standalone="no"?>
<!DOCTYPE svg PUBLIC "-//W3C//DTD SVG 1.1//EN"
 "http://www.w3.org/Graphics/SVG/1.1/DTD/svg11.dtd">
<!-- generate by Japanese dictionary app com.asnsami.kanjidictionary -->

<svg xmlns="http://www.w3.org/2000/svg" xmlns:sodipodi="http://sodipodi.sourceforge.net/DTD/sodipodi-0.dtd" version="1.1" width="640" height="256" viewBox="0 0 5120 2048">
	<g id="id0:id0" transform="translate(0.0,0)">
		<g id="id0:id0:id0" transform="matrix(1.0,0,0,1.0,0,0.0)">			<g stroke="lightgray" stroke-width="4" transform="scale(4, 4)"> <rect x="0" y="0" width="256" height="256" fill="white" stroke-width="4"/></g>
			<g transform="scale(0.92, -0.92) translate(60, -920)">					<path d="M 627 680 Q 720 687 816 681 Q 832 680 839 690 Q 843 702 830 717 Q 776 763 691 740 Q 669 737 649 733 L 593 724 Q 514 714 430 702 L 378 696 Q 299 689 213 679 Q 182 676 203 659 Q 245 632 323 644 Q 354 651 388 657 L 433 665 Q 464 674 583 678 L 627 680 Z" fill="red"></path>
				<path d="M 430 702 Q 429 729 428 750 Q 429 771 409 777 Q 364 795 345 789 Q 326 780 342 760 Q 367 732 378 696 L 388 657 Q 403 600 415 588 Q 428 578 433 589 Q 437 605 433 665 L 430 702 Z" fill="lightgray"></path>
				<path d="M 649 733 Q 649 734 650 734 Q 657 756 673 782 Q 686 797 677 807 Q 664 823 631 839 Q 615 849 598 840 Q 588 833 596 823 Q 608 795 593 724 L 583 678 Q 568 632 571 611 Q 572 598 587 608 Q 593 614 627 680 L 649 733 Z" fill="lightgray"></path>
				<path d="M 653 434 Q 677 491 703 509 Q 719 527 706 545 Q 645 594 605 585 Q 602 585 599 583 Q 511 549 383 530 C 353 525 364 492 393 498 Q 486 516 580 535 Q 602 539 610 531 Q 617 524 616 510 Q 609 471 601 439 C 594 410 641 407 653 434 Z" fill="lightgray"></path>
				<path d="M 583 392 Q 620 396 667 398 Q 677 399 679 408 Q 679 415 653 434 C 637 446 630 445 601 439 Q 471 412 369 402 C 339 399 334 379 364 374 Q 376 370 417 374 Q 463 383 535 388 L 583 392 Z" fill="lightgray"></path>
				<path d="M 383 530 Q 368 542 356 546 Q 334 559 316 552 Q 303 548 309 533 Q 343 470 299 315 Q 254 189 115 91 Q 103 82 115 80 Q 172 80 249 153 Q 292 190 313 232 Q 355 325 364 374 L 369 402 Q 373 423 378 442 Q 379 472 393 498 C 402 517 402 517 383 530 Z" fill="lightgray"></path>
				<path d="M 535 388 Q 574 354 640 260 Q 731 134 774 128 Q 855 122 922 126 Q 956 127 954 137 Q 954 141 922 155 Q 742 231 686 283 Q 641 325 595 379 Q 588 386 583 392 C 563 414 513 408 535 388 Z" fill="lightgray"></path>
				<path d="M 438 271 Q 526 183 551 184 Q 566 183 572 204 Q 573 217 561 240 Q 548 262 515 274 Q 463 298 442 301 Q 432 302 431 290 Q 430 280 438 271 Z" fill="lightgray"></path>
				<path d="M 430 108 Q 487 63 555 -2 Q 571 -20 586 -23 Q 593 -24 601 -13 Q 611 0 597 40 Q 579 97 429 137 Q 420 141 419 129 Q 419 116 430 108 Z" fill="lightgray"></path>
</g>
		<text x="40" y="140" font-size="128" fill="#999999">1</text></g>
		<g id="id0:id1:id1" transform="matrix(1.0,0,0,1.0,1024,0.0)">			<g stroke="lightgray" stroke-width="4" transform="scale(4, 4)"> <rect x="0" y="0" width="256" height="256" fill="white" stroke-width="4"/></g>
			<g transform="scale(0.92, -0.92) translate(60, -920)">					<path d="M 627 680 Q 720 687 816 681 Q 832 680 839 690 Q 843 702 830 717 Q 776 763 691 740 Q 669 737 649 733 L 593 724 Q 514 714 430 702 L 378 696 Q 299 689 213 679 Q 182 676 203 659 Q 245 632 323 644 Q 354 651 388 657 L 433 665 Q 464 674 583 678 L 627 680 Z" fill="black"></path>
				<path d="M 430 702 Q 429 729 428 750 Q 429 771 409 777 Q 364 795 345 789 Q 326 780 342 760 Q 367 732 378 696 L 388 657 Q 403 600 415 588 Q 428 578 433 589 Q 437 605 433 665 L 430 702 Z" fill="red"></path>
				<path d="M 649 733 Q 649 734 650 734 Q 657 756 673 782 Q 686 797 677 807 Q 664 823 631 839 Q 615 849 598 840 Q 588 833 596 823 Q 608 795 593 724 L 583 678 Q 568 632 571 611 Q 572 598 587 608 Q 593 614 627 680 L 649 733 Z" fill="lightgray"></path>
				<path d="M 653 434 Q 677 491 703 509 Q 719 527 706 545 Q 645 594 605 585 Q 602 585 599 583 Q 511 549 383 530 C 353 525 364 492 393 498 Q 486 516 580 535 Q 602 539 610 531 Q 617 524 616 510 Q 609 471 601 439 C 594 410 641 407 653 434 Z" fill="lightgray"></path>
				<path d="M 583 392 Q 620 396 667 398 Q 677 399 679 408 Q 679 415 653 434 C 637 446 630 445 601 439 Q 471 412 369 402 C 339 399 334 379 364 374 Q 376 370 417 374 Q 463 383 535 388 L 583 392 Z" fill="lightgray"></path>
				<path d="M 383 530 Q 368 542 356 546 Q 334 559 316 552 Q 303 548 309 533 Q 343 470 299 315 Q 254 189 115 91 Q 103 82 115 80 Q 172 80 249 153 Q 292 190 313 232 Q 355 325 364 374 L 369 402 Q 373 423 378 442 Q 379 472 393 498 C 402 517 402 517 383 530 Z" fill="lightgray"></path>
				<path d="M 535 388 Q 574 354 640 260 Q 731 134 774 128 Q 855 122 922 126 Q 956 127 954 137 Q 954 141 922 155 Q 742 231 686 283 Q 641 325 595 379 Q 588 386 583 392 C 563 414 513 408 535 388 Z" fill="lightgray"></path>
				<path d="M 438 271 Q 526 183 551 184 Q 566 183 572 204 Q 573 217 561 240 Q 548 262 515 274 Q 463 298 442 301 Q 432 302 431 290 Q 430 280 438 271 Z" fill="lightgray"></path>
				<path d="M 430 108 Q 487 63 555 -2 Q 571 -20 586 -23 Q 593 -24 601 -13 Q 611 0 597 40 Q 579 97 429 137 Q 420 141 419 129 Q 419 116 430 108 Z" fill="lightgray"></path>
</g>
		<text x="40" y="140" font-size="128" fill="#999999">2</text></g>
		<g id="id0:id2:id2" transform="matrix(1.0,0,0,1.0,2048,0.0)">			<g stroke="lightgray" stroke-width="4" transform="scale(4, 4)"> <rect x="0" y="0" width="256" height="256" fill="white" stroke-width="4"/></g>
			<g transform="scale(0.92, -0.92) translate(60, -920)">					<path d="M 627 680 Q 720 687 816 681 Q 832 680 839 690 Q 843 702 830 717 Q 776 763 691 740 Q 669 737 649 733 L 593 724 Q 514 714 430 702 L 378 696 Q 299 689 213 679 Q 182 676 203 659 Q 245 632 323 644 Q 354 651 388 657 L 433 665 Q 464 674 583 678 L 627 680 Z" fill="black"></path>
				<path d="M 430 702 Q 429 729 428 750 Q 429 771 409 777 Q 364 795 345 789 Q 326 780 342 760 Q 367 732 378 696 L 388 657 Q 403 600 415 588 Q 428 578 433 589 Q 437 605 433 665 L 430 702 Z" fill="black"></path>
				<path d="M 649 733 Q 649 734 650 734 Q 657 756 673 782 Q 686 797 677 807 Q 664 823 631 839 Q 615 849 598 840 Q 588 833 596 823 Q 608 795 593 724 L 583 678 Q 568 632 571 611 Q 572 598 587 608 Q 593 614 627 680 L 649 733 Z" fill="red"></path>
				<path d="M 653 434 Q 677 491 703 509 Q 719 527 706 545 Q 645 594 605 585 Q 602 585 599 583 Q 511 549 383 530 C 353 525 364 492 393 498 Q 486 516 580 535 Q 602 539 610 531 Q 617 524 616 510 Q 609 471 601 439 C 594 410 641 407 653 434 Z" fill="lightgray"></path>
				<path d="M 583 392 Q 620 396 667 398 Q 677 399 679 408 Q 679 415 653 434 C 637 446 630 445 601 439 Q 471 412 369 402 C 339 399 334 379 364 374 Q 376 370 417 374 Q 463 383 535 388 L 583 392 Z" fill="lightgray"></path>
				<path d="M 383 530 Q 368 542 356 546 Q 334 559 316 552 Q 303 548 309 533 Q 343 470 299 315 Q 254 189 115 91 Q 103 82 115 80 Q 172 80 249 153 Q 292 190 313 232 Q 355 325 364 374 L 369 402 Q 373 423 378 442 Q 379 472 393 498 C 402 517 402 517 383 530 Z" fill="lightgray"></path>
				<path d="M 535 388 Q 574 354 640 260 Q 731 134 774 128 Q 855 122 922 126 Q 956 127 954 137 Q 954 141 922 155 Q 742 231 686 283 Q 641 325 595 379 Q 588 386 583 392 C 563 414 513 408 535 388 Z" fill="lightgray"></path>
				<path d="M 438 271 Q 526 183 551 184 Q 566 183 572 204 Q 573 217 561 240 Q 548 262 515 274 Q 463 298 442 301 Q 432 302 431 290 Q 430 280 438 271 Z" fill="lightgray"></path>
				<path d="M 430 108 Q 487 63 555 -2 Q 571 -20 586 -23 Q 593 -24 601 -13 Q 611 0 597 40 Q 579 97 429 137 Q 420 141 419 129 Q 419 116 430 108 Z" fill="lightgray"></path>
</g>
		<text x="40" y="140" font-size="128" fill="#999999">3</text></g>
		<g id="id0:id3:id3" transform="matrix(1.0,0,0,1.0,3072,0.0)">			<g stroke="lightgray" stroke-width="4" transform="scale(4, 4)"> <rect x="0" y="0" width="256" height="256" fill="white" stroke-width="4"/></g>
			<g transform="scale(0.92, -0.92) translate(60, -920)">					<path d="M 627 680 Q 720 687 816 681 Q 832 680 839 690 Q 843 702 830 717 Q 776 763 691 740 Q 669 737 649 733 L 593 724 Q 514 714 430 702 L 378 696 Q 299 689 213 679 Q 182 676 203 659 Q 245 632 323 644 Q 354 651 388 657 L 433 665 Q 464 674 583 678 L 627 680 Z" fill="black"></path>
				<path d="M 430 702 Q 429 729 428 750 Q 429 771 409 777 Q 364 795 345 789 Q 326 780 342 760 Q 367 732 378 696 L 388 657 Q 403 600 415 588 Q 428 578 433 589 Q 437 605 433 665 L 430 702 Z" fill="black"></path>
				<path d="M 649 733 Q 649 734 650 734 Q 657 756 673 782 Q 686 797 677 807 Q 664 823 631 839 Q 615 849 598 840 Q 588 833 596 823 Q 608 795 593 724 L 583 678 Q 568 632 571 611 Q 572 598 587 608 Q 593 614 627 680 L 649 733 Z" fill="black"></path>
				<path d="M 653 434 Q 677 491 703 509 Q 719 527 706 545 Q 645 594 605 585 Q 602 585 599 583 Q 511 549 383 530 C 353 525 364 492 393 498 Q 486 516 580 535 Q 602 539 610 531 Q 617 524 616 510 Q 609 471 601 439 C 594 410 641 407 653 434 Z" fill="red"></path>
				<path d="M 583 392 Q 620 396 667 398 Q 677 399 679 408 Q 679 415 653 434 C 637 446 630 445 601 439 Q 471 412 369 402 C 339 399 334 379 364 374 Q 376 370 417 374 Q 463 383 535 388 L 583 392 Z" fill="lightgray"></path>
				<path d="M 383 530 Q 368 542 356 546 Q 334 559 316 552 Q 303 548 309 533 Q 343 470 299 315 Q 254 189 115 91 Q 103 82 115 80 Q 172 80 249 153 Q 292 190 313 232 Q 355 325 364 374 L 369 402 Q 373 423 378 442 Q 379 472 393 498 C 402 517 402 517 383 530 Z" fill="lightgray"></path>
				<path d="M 535 388 Q 574 354 640 260 Q 731 134 774 128 Q 855 122 922 126 Q 956 127 954 137 Q 954 141 922 155 Q 742 231 686 283 Q 641 325 595 379 Q 588 386 583 392 C 563 414 513 408 535 388 Z" fill="lightgray"></path>
				<path d="M 438 271 Q 526 183 551 184 Q 566 183 572 204 Q 573 217 561 240 Q 548 262 515 274 Q 463 298 442 301 Q 432 302 431 290 Q 430 280 438 271 Z" fill="lightgray"></path>
				<path d="M 430 108 Q 487 63 555 -2 Q 571 -20 586 -23 Q 593 -24 601 -13 Q 611 0 597 40 Q 579 97 429 137 Q 420 141 419 129 Q 419 116 430 108 Z" fill="lightgray"></path>
</g>
		<text x="40" y="140" font-size="128" fill="#999999">4</text></g>
		<g id="id0:id4:id4" transform="matrix(1.0,0,0,1.0,4096,0.0)">			<g stroke="lightgray" stroke-width="4" transform="scale(4, 4)"> <rect x="0" y="0" width="256" height="256" fill="white" stroke-width="4"/></g>
			<g transform="scale(0.92, -0.92) translate(60, -920)">					<path d="M 627 680 Q 720 687 816 681 Q 832 680 839 690 Q 843 702 830 717 Q 776 763 691 740 Q 669 737 649 733 L 593 724 Q 514 714 430 702 L 378 696 Q 299 689 213 679 Q 182 676 203 659 Q 245 632 323 644 Q 354 651 388 657 L 433 665 Q 464 674 583 678 L 627 680 Z" fill="black"></path>
				<path d="M 430 702 Q 429 729 428 750 Q 429 771 409 777 Q 364 795 345 789 Q 326 780 342 760 Q 367 732 378 696 L 388 657 Q 403 600 415 588 Q 428 578 433 589 Q 437 605 433 665 L 430 702 Z" fill="black"></path>
				<path d="M 649 733 Q 649 734 650 734 Q 657 756 673 782 Q 686 797 677 807 Q 664 823 631 839 Q 615 849 598 840 Q 588 833 596 823 Q 608 795 593 724 L 583 678 Q 568 632 571 611 Q 572 598 587 608 Q 593 614 627 680 L 649 733 Z" fill="black"></path>
				<path d="M 653 434 Q 677 491 703 509 Q 719 527 706 545 Q 645 594 605 585 Q 602 585 599 583 Q 511 549 383 530 C 353 525 364 492 393 498 Q 486 516 580 535 Q 602 539 610 531 Q 617 524 616 510 Q 609 471 601 439 C 594 410 641 407 653 434 Z" fill="black"></path>
				<path d="M 583 392 Q 620 396 667 398 Q 677 399 679 408 Q 679 415 653 434 C 637 446 630 445 601 439 Q 471 412 369 402 C 339 399 334 379 364 374 Q 376 370 417 374 Q 463 383 535 388 L 583 392 Z" fill="red"></path>
				<path d="M 383 530 Q 368 542 356 546 Q 334 559 316 552 Q 303 548 309 533 Q 343 470 299 315 Q 254 189 115 91 Q 103 82 115 80 Q 172 80 249 153 Q 292 190 313 232 Q 355 325 364 374 L 369 402 Q 373 423 378 442 Q 379 472 393 498 C 402 517 402 517 383 530 Z" fill="lightgray"></path>
				<path d="M 535 388 Q 574 354 640 260 Q 731 134 774 128 Q 855 122 922 126 Q 956 127 954 137 Q 954 141 922 155 Q 742 231 686 283 Q 641 325 595 379 Q 588 386 583 392 C 563 414 513 408 535 388 Z" fill="lightgray"></path>
				<path d="M 438 271 Q 526 183 551 184 Q 566 183 572 204 Q 573 217 561 240 Q 548 262 515 274 Q 463 298 442 301 Q 432 302 431 290 Q 430 280 438 271 Z" fill="lightgray"></path>
				<path d="M 430 108 Q 487 63 555 -2 Q 571 -20 586 -23 Q 593 -24 601 -13 Q 611 0 597 40 Q 579 97 429 137 Q 420 141 419 129 Q 419 116 430 108 Z" fill="lightgray"></path>
</g>
		<text x="40" y="140" font-size="128" fill="#999999">5</text></g>
</g>
	<g id="id1:id1" transform="translate(0.0,1024)">
		<g id="id1:id0:id0" transform="matrix(1.0,0,0,1.0,0,0.0)">			<g stroke="lightgray" stroke-width="4" transform="scale(4, 4)"> <rect x="0" y="0" width="256" height="256" fill="white" stroke-width="4"/></g>
			<g transform="scale(0.92, -0.92) translate(60, -920)">					<path d="M 627 680 Q 720 687 816 681 Q 832 680 839 690 Q 843 702 830 717 Q 776 763 691 740 Q 669 737 649 733 L 593 724 Q 514 714 430 702 L 378 696 Q 299 689 213 679 Q 182 676 203 659 Q 245 632 323 644 Q 354 651 388 657 L 433 665 Q 464 674 583 678 L 627 680 Z" fill="black"></path>
				<path d="M 430 702 Q 429 729 428 750 Q 429 771 409 777 Q 364 795 345 789 Q 326 780 342 760 Q 367 732 378 696 L 388 657 Q 403 600 415 588 Q 428 578 433 589 Q 437 605 433 665 L 430 702 Z" fill="black"></path>
				<path d="M 649 733 Q 649 734 650 734 Q 657 756 673 782 Q 686 797 677 807 Q 664 823 631 839 Q 615 849 598 840 Q 588 833 596 823 Q 608 795 593 724 L 583 678 Q 568 632 571 611 Q 572 598 587 608 Q 593 614 627 680 L 649 733 Z" fill="black"></path>
				<path d="M 653 434 Q 677 491 703 509 Q 719 527 706 545 Q 645 594 605 585 Q 602 585 599 583 Q 511 549 383 530 C 353 525 364 492 393 498 Q 486 516 580 535 Q 602 539 610 531 Q 617 524 616 510 Q 609 471 601 439 C 594 410 641 407 653 434 Z" fill="black"></path>
				<path d="M 583 392 Q 620 396 667 398 Q 677 399 679 408 Q 679 415 653 434 C 637 446 630 445 601 439 Q 471 412 369 402 C 339 399 334 379 364 374 Q 376 370 417 374 Q 463 383 535 388 L 583 392 Z" fill="black"></path>
				<path d="M 383 530 Q 368 542 356 546 Q 334 559 316 552 Q 303 548 309 533 Q 343 470 299 315 Q 254 189 115 91 Q 103 82 115 80 Q 172 80 249 153 Q 292 190 313 232 Q 355 325 364 374 L 369 402 Q 373 423 378 442 Q 379 472 393 498 C 402 517 402 517 383 530 Z" fill="red"></path>
				<path d="M 535 388 Q 574 354 640 260 Q 731 134 774 128 Q 855 122 922 126 Q 956 127 954 137 Q 954 141 922 155 Q 742 231 686 283 Q 641 325 595 379 Q 588 386 583 392 C 563 414 513 408 535 388 Z" fill="lightgray"></path>
				<path d="M 438 271 Q 526 183 551 184 Q 566 183 572 204 Q 573 217 561 240 Q 548 262 515 274 Q 463 298 442 301 Q 432 302 431 290 Q 430 280 438 271 Z" fill="lightgray"></path>
				<path d="M 430 108 Q 487 63 555 -2 Q 571 -20 586 -23 Q 593 -24 601 -13 Q 611 0 597 40 Q 579 97 429 137 Q 420 141 419 129 Q 419 116 430 108 Z" fill="lightgray"></path>
</g>
		<text x="40" y="140" font-size="128" fill="#999999">6</text></g>
		<g id="id1:id1:id1" transform="matrix(1.0,0,0,1.0,1024,0.0)">			<g stroke="lightgray" stroke-width="4" transform="scale(4, 4)"> <rect x="0" y="0" width="256" height="256" fill="white" stroke-width="4"/></g>
			<g transform="scale(0.92, -0.92) translate(60, -920)">					<path d="M 627 680 Q 720 687 816 681 Q 832 680 839 690 Q 843 702 830 717 Q 776 763 691 740 Q 669 737 649 733 L 593 724 Q 514 714 430 702 L 378 696 Q 299 689 213 679 Q 182 676 203 659 Q 245 632 323 644 Q 354 651 388 657 L 433 665 Q 464 674 583 678 L 627 680 Z" fill="black"></path>
				<path d="M 430 702 Q 429 729 428 750 Q 429 771 409 777 Q 364 795 345 789 Q 326 780 342 760 Q 367 732 378 696 L 388 657 Q 403 600 415 588 Q 428 578 433 589 Q 437 605 433 665 L 430 702 Z" fill="black"></path>
				<path d="M 649 733 Q 649 734 650 734 Q 657 756 673 782 Q 686 797 677 807 Q 664 823 631 839 Q 615 849 598 840 Q 588 833 596 823 Q 608 795 593 724 L 583 678 Q 568 632 571 611 Q 572 598 587 608 Q 593 614 627 680 L 649 733 Z" fill="black"></path>
				<path d="M 653 434 Q 677 491 703 509 Q 719 527 706 545 Q 645 594 605 585 Q 602 585 599 583 Q 511 549 383 530 C 353 525 364 492 393 498 Q 486 516 580 535 Q 602 539 610 531 Q 617 524 616 510 Q 609 471 601 439 C 594 410 641 407 653 434 Z" fill="black"></path>
				<path d="M 583 392 Q 620 396 667 398 Q 677 399 679 408 Q 679 415 653 434 C 637 446 630 445 601 439 Q 471 412 369 402 C 339 399 334 379 364 374 Q 376 370 417 374 Q 463 383 535 388 L 583 392 Z" fill="black"></path>
				<path d="M 383 530 Q 368 542 356 546 Q 334 559 316 552 Q 303 548 309 533 Q 343 470 299 315 Q 254 189 115 91 Q 103 82 115 80 Q 172 80 249 153 Q 292 190 313 232 Q 355 325 364 374 L 369 402 Q 373 423 378 442 Q 379 472 393 498 C 402 517 402 517 383 530 Z" fill="black"></path>
				<path d="M 535 388 Q 574 354 640 260 Q 731 134 774 128 Q 855 122 922 126 Q 956 127 954 137 Q 954 141 922 155 Q 742 231 686 283 Q 641 325 595 379 Q 588 386 583 392 C 563 414 513 408 535 388 Z" fill="red"></path>
				<path d="M 438 271 Q 526 183 551 184 Q 566 183 572 204 Q 573 217 561 240 Q 548 262 515 274 Q 463 298 442 301 Q 432 302 431 290 Q 430 280 438 271 Z" fill="lightgray"></path>
				<path d="M 430 108 Q 487 63 555 -2 Q 571 -20 586 -23 Q 593 -24 601 -13 Q 611 0 597 40 Q 579 97 429 137 Q 420 141 419 129 Q 419 116 430 108 Z" fill="lightgray"></path>
</g>
		<text x="40" y="140" font-size="128" fill="#999999">7</text></g>
		<g id="id1:id2:id2" transform="matrix(1.0,0,0,1.0,2048,0.0)">			<g stroke="lightgray" stroke-width="4" transform="scale(4, 4)"> <rect x="0" y="0" width="256" height="256" fill="white" stroke-width="4"/></g>
			<g transform="scale(0.92, -0.92) translate(60, -920)">					<path d="M 627 680 Q 720 687 816 681 Q 832 680 839 690 Q 843 702 830 717 Q 776 763 691 740 Q 669 737 649 733 L 593 724 Q 514 714 430 702 L 378 696 Q 299 689 213 679 Q 182 676 203 659 Q 245 632 323 644 Q 354 651 388 657 L 433 665 Q 464 674 583 678 L 627 680 Z" fill="black"></path>
				<path d="M 430 702 Q 429 729 428 750 Q 429 771 409 777 Q 364 795 345 789 Q 326 780 342 760 Q 367 732 378 696 L 388 657 Q 403 600 415 588 Q 428 578 433 589 Q 437 605 433 665 L 430 702 Z" fill="black"></path>
				<path d="M 649 733 Q 649 734 650 734 Q 657 756 673 782 Q 686 797 677 807 Q 664 823 631 839 Q 615 849 598 840 Q 588 833 596 823 Q 608 795 593 724 L 583 678 Q 568 632 571 611 Q 572 598 587 608 Q 593 614 627 680 L 649 733 Z" fill="black"></path>
				<path d="M 653 434 Q 677 491 703 509 Q 719 527 706 545 Q 645 594 605 585 Q 602 585 599 583 Q 511 549 383 530 C 353 525 364 492 393 498 Q 486 516 580 535 Q 602 539 610 531 Q 617 524 616 510 Q 609 471 601 439 C 594 410 641 407 653 434 Z" fill="black"></path>
				<path d="M 583 392 Q 620 396 667 398 Q 677 399 679 408 Q 679 415 653 434 C 637 446 630 445 601 439 Q 471 412 369 402 C 339 399 334 379 364 374 Q 376 370 417 374 Q 463 383 535 388 L 583 392 Z" fill="black"></path>
				<path d="M 383 530 Q 368 542 356 546 Q 334 559 316 552 Q 303 548 309 533 Q 343 470 299 315 Q 254 189 115 91 Q 103 82 115 80 Q 172 80 249 153 Q 292 190 313 232 Q 355 325 364 374 L 369 402 Q 373 423 378 442 Q 379 472 393 498 C 402 517 402 517 383 530 Z" fill="black"></path>
				<path d="M 535 388 Q 574 354 640 260 Q 731 134 774 128 Q 855 122 922 126 Q 956 127 954 137 Q 954 141 922 155 Q 742 231 686 283 Q 641 325 595 379 Q 588 386 583 392 C 563 414 513 408 535 388 Z" fill="black"></path>
				<path d="M 438 271 Q 526 183 551 184 Q 566 183 572 204 Q 573 217 561 240 Q 548 262 515 274 Q 463 298 442 301 Q 432 302 431 290 Q 430 280 438 271 Z" fill="red"></path>
				<path d="M 430 108 Q 487 63 555 -2 Q 571 -20 586 -23 Q 593 -24 601 -13 Q 611 0 597 40 Q 579 97 429 137 Q 420 141 419 129 Q 419 116 430 108 Z" fill="lightgray"></path>
</g>
		<text x="40" y="140" font-size="128" fill="#999999">8</text></g>
		<g id="id1:id3:id3" transform="matrix(1.0,0,0,1.0,3072,0.0)">			<g stroke="lightgray" stroke-width="4" transform="scale(4, 4)"> <rect x="0" y="0" width="256" height="256" fill="white" stroke-width="4"/></g>
			<g transform="scale(0.92, -0.92) translate(60, -920)">					<path d="M 627 680 Q 720 687 816 681 Q 832 680 839 690 Q 843 702 830 717 Q 776 763 691 740 Q 669 737 649 733 L 593 724 Q 514 714 430 702 L 378 696 Q 299 689 213 679 Q 182 676 203 659 Q 245 632 323 644 Q 354 651 388 657 L 433 665 Q 464 674 583 678 L 627 680 Z" fill="black"></path>
				<path d="M 430 702 Q 429 729 428 750 Q 429 771 409 777 Q 364 795 345 789 Q 326 780 342 760 Q 367 732 378 696 L 388 657 Q 403 600 415 588 Q 428 578 433 589 Q 437 605 433 665 L 430 702 Z" fill="black"></path>
				<path d="M 649 733 Q 649 734 650 734 Q 657 756 673 782 Q 686 797 677 807 Q 664 823 631 839 Q 615 849 598 840 Q 588 833 596 823 Q 608 795 593 724 L 583 678 Q 568 632 571 611 Q 572 598 587 608 Q 593 614 627 680 L 649 733 Z" fill="black"></path>
				<path d="M 653 434 Q 677 491 703 509 Q 719 527 706 545 Q 645 594 605 585 Q 602 585 599 583 Q 511 549 383 530 C 353 525 364 492 393 498 Q 486 516 580 535 Q 602 539 610 531 Q 617 524 616 510 Q 609 471 601 439 C 594 410 641 407 653 434 Z" fill="black"></path>
				<path d="M 583 392 Q 620 396 667 398 Q 677 399 679 408 Q 679 415 653 434 C 637 446 630 445 601 439 Q 471 412 369 402 C 339 399 334 379 364 374 Q 376 370 417 374 Q 463 383 535 388 L 583 392 Z" fill="black"></path>
				<path d="M 383 530 Q 368 542 356 546 Q 334 559 316 552 Q 303 548 309 533 Q 343 470 299 315 Q 254 189 115 91 Q 103 82 115 80 Q 172 80 249 153 Q 292 190 313 232 Q 355 325 364 374 L 369 402 Q 373 423 378 442 Q 379 472 393 498 C 402 517 402 517 383 530 Z" fill="black"></path>
				<path d="M 535 388 Q 574 354 640 260 Q 731 134 774 128 Q 855 122 922 126 Q 956 127 954 137 Q 954 141 922 155 Q 742 231 686 283 Q 641 325 595 379 Q 588 386 583 392 C 563 414 513 408 535 388 Z" fill="black"></path>
				<path d="M 438 271 Q 526 183 551 184 Q 566 183 572 204 Q 573 217 561 240 Q 548 262 515 274 Q 463 298 442 301 Q 432 302 431 290 Q 430 280 438 271 Z" fill="black"></path>
				<path d="M 430 108 Q 487 63 555 -2 Q 571 -20 586 -23 Q 593 -24 601 -13 Q 611 0 597 40 Q 579 97 429 137 Q 420 141 419 129 Q 419 116 430 108 Z" fill="red"></path>
</g>
		<text x="40" y="140" font-size="128" fill="#999999">9</text></g>
		<g id="id1:id4:id4" transform="matrix(1.0,0,0,1.0,4096,0.0)">			<g stroke="white" stroke-width="4" transform="scale(4, 4)"> <rect x="1" y="1" width="255" height="255" fill="white" stroke-width="0"/></g>
</g>
</g>
</svg>
