<?xml version="1.0" standalone="no"?>
<!DOCTYPE svg PUBLIC "-//W3C//DTD SVG 1.1//EN"
 "http://www.w3.org/Graphics/SVG/1.1/DTD/svg11.dtd">
<!-- generate by Japanese dictionary app com.asnsami.kanjidictionary -->

<svg xmlns="http://www.w3.org/2000/svg" xmlns:sodipodi="http://sodipodi.sourceforge.net/DTD/sodipodi-0.dtd" version="1.1" width="640" height="512" viewBox="0 0 5120 4096">
	<g id="id0:id0" transform="translate(0.0,0)">
		<g id="id0:id0:id0" transform="matrix(1.0,0,0,1.0,0,0.0)">			<g stroke="lightgray" stroke-width="4" transform="scale(4, 4)"> <rect x="0" y="0" width="256" height="256" fill="white" stroke-width="4"/></g>
			<g transform="scale(0.92, -0.92) translate(60, -920)">					<path d="M 623 727 Q 656 739 776 729 Q 789 728 795 736 Q 799 746 787 759 Q 738 798 652 776 Q 648 776 644 774 L 591 766 Q 510 756 421 743 L 379 739 Q 301 732 217 723 Q 192 720 209 706 Q 246 681 297 690 Q 343 702 386 708 L 424 714 Q 430 721 581 727 L 623 727 Z" fill="red"></path>
				<path d="M 421 743 Q 420 774 418 797 Q 419 815 402 820 Q 366 838 348 830 Q 332 823 345 805 Q 369 775 379 739 L 386 708 Q 395 668 408 650 Q 420 641 424 651 Q 430 669 426 689 Q 425 702 424 714 L 421 743 Z" fill="lightgray"></path>
				<path d="M 580 657 Q 592 667 623 727 L 644 774 Q 651 792 666 814 Q 679 827 670 836 Q 660 852 629 868 Q 614 877 599 869 Q 589 865 596 854 Q 605 833 591 766 L 581 727 Q 568 681 567 658 C 566 642 566 642 580 657 Z" fill="lightgray"></path>
				<path d="M 228 581 Q 215 591 194 598 Q 178 605 168 601 Q 158 595 165 584 Q 210 532 172 299 Q 166 269 159 240 Q 138 164 76 46 Q 72 40 71 36 Q 70 26 78 29 Q 103 35 164 145 Q 173 166 182 188 Q 197 228 207 274 L 213 304 Q 222 352 226 398 L 228 430 Q 229 449 230 467 Q 233 542 236 554 C 239 575 239 575 228 581 Z" fill="lightgray"></path>
				<path d="M 372 249 Q 368 531 378 554 Q 390 572 380 582 Q 362 598 331 610 Q 315 617 302 610 Q 281 597 268 592 Q 255 588 228 581 C 199 573 207 548 236 554 Q 258 557 295 571 Q 311 575 316 568 Q 338 484 322 156 Q 313 107 312 103 Q 308 100 245 115 Q 229 121 229 112 Q 277 69 304 38 Q 316 22 328 17 Q 335 14 343 22 Q 376 67 377 125 Q 373 177 372 237 L 372 249 Z" fill="lightgray"></path>
				<path d="M 226 398 Q 263 407 294 411 Q 313 415 305 426 Q 295 436 274 439 Q 255 440 228 430 C 200 420 197 391 226 398 Z" fill="lightgray"></path>
				<path d="M 207 274 Q 211 274 216 274 Q 261 284 294 289 Q 315 295 306 305 Q 296 317 272 319 Q 251 319 213 304 C 185 293 177 274 207 274 Z" fill="lightgray"></path>
				<path d="M 456 594 Q 489 539 509 535 Q 519 534 526 547 Q 527 557 523 573 Q 508 601 462 614 Q 455 615 453 607 Q 452 601 456 594 Z" fill="lightgray"></path>
				<path d="M 699 642 Q 689 623 667 589 Q 663 585 667 579 Q 673 578 678 582 Q 727 616 752 630 Q 765 634 761 642 Q 757 652 742 665 Q 729 678 712 678 Q 702 677 703 664 Q 704 654 699 642 Z" fill="lightgray"></path>
				<path d="M 590 480 Q 743 516 747 517 Q 754 524 750 531 Q 744 540 721 546 Q 697 550 673 542 Q 637 532 602 520 L 553 508 Q 511 502 467 498 Q 437 494 458 479 Q 491 461 537 470 Q 538 471 544 471 L 590 480 Z" fill="lightgray"></path>
				<path d="M 671 404 Q 720 407 838 408 Q 854 409 859 415 Q 863 425 849 436 Q 803 472 750 455 Q 593 431 572 425 L 526 419 Q 466 412 402 402 Q 386 401 398 386 Q 425 362 475 376 Q 490 380 507 382 L 559 392 Q 583 398 643 402 L 671 404 Z" fill="lightgray"></path>
				<path d="M 572 425 Q 581 452 590 480 L 602 520 Q 614 572 627 606 Q 634 621 620 632 Q 593 653 580 657 C 569 663 569 663 567 658 Q 557 657 565 640 Q 577 603 553 508 L 544 471 Q 543 470 543 467 Q 537 445 526 419 L 507 382 Q 455 304 383 256 Q 376 253 372 249 C 354 238 354 238 372 237 Q 421 228 508 312 Q 518 325 530 338 Q 545 362 559 392 L 572 425 Z" fill="lightgray"></path>
				<path d="M 643 402 Q 658 372 788 242 Q 824 203 968 231 Q 984 232 985 237 Q 986 243 974 248 Q 803 308 748 345 Q 729 360 671 404 C 647 422 627 427 643 402 Z" fill="lightgray"></path>
				<path d="M 551 48 Q 526 52 501 59 Q 491 60 491 55 Q 492 49 501 42 Q 556 -10 576 -41 Q 588 -56 601 -44 Q 634 -13 630 80 Q 624 233 638 269 Q 645 285 631 296 Q 609 315 584 324 Q 568 330 562 323 Q 556 319 566 305 Q 593 254 581 72 Q 575 41 551 48 Z" fill="lightgray"></path>
				<path d="M 479 213 Q 518 179 527 179 Q 534 179 538 188 Q 541 198 534 219 Q 528 234 475 246 Q 465 247 460 246 Q 456 243 458 235 Q 459 228 479 213 Z" fill="lightgray"></path>
				<path d="M 398 76 Q 389 72 390 65 Q 391 55 399 52 Q 418 46 444 40 Q 451 40 457 48 Q 469 66 527 124 Q 536 133 541 141 Q 548 148 546 155 Q 543 155 420 84 Q 413 80 398 76 Z" fill="lightgray"></path>
				<path d="M 690 252 Q 680 233 655 202 Q 651 196 655 192 Q 661 191 666 194 Q 718 225 742 238 Q 755 241 752 249 Q 748 259 734 273 Q 721 286 705 288 Q 695 287 695 274 Q 696 264 690 252 Z" fill="lightgray"></path>
				<path d="M 665 135 Q 717 95 780 36 Q 795 20 808 18 Q 815 17 821 26 Q 830 38 816 74 Q 804 119 664 161 Q 655 165 655 154 Q 655 142 665 135 Z" fill="lightgray"></path>
</g>
		<text x="40" y="140" font-size="128" fill="#999999">1</text></g>
		<g id="id0:id1:id1" transform="matrix(1.0,0,0,1.0,1024,0.0)">			<g stroke="lightgray" stroke-width="4" transform="scale(4, 4)"> <rect x="0" y="0" width="256" height="256" fill="white" stroke-width="4"/></g>
			<g transform="scale(0.92, -0.92) translate(60, -920)">					<path d="M 623 727 Q 656 739 776 729 Q 789 728 795 736 Q 799 746 787 759 Q 738 798 652 776 Q 648 776 644 774 L 591 766 Q 510 756 421 743 L 379 739 Q 301 732 217 723 Q 192 720 209 706 Q 246 681 297 690 Q 343 702 386 708 L 424 714 Q 430 721 581 727 L 623 727 Z" fill="black"></path>
				<path d="M 421 743 Q 420 774 418 797 Q 419 815 402 820 Q 366 838 348 830 Q 332 823 345 805 Q 369 775 379 739 L 386 708 Q 395 668 408 650 Q 420 641 424 651 Q 430 669 426 689 Q 425 702 424 714 L 421 743 Z" fill="red"></path>
				<path d="M 580 657 Q 592 667 623 727 L 644 774 Q 651 792 666 814 Q 679 827 670 836 Q 660 852 629 868 Q 614 877 599 869 Q 589 865 596 854 Q 605 833 591 766 L 581 727 Q 568 681 567 658 C 566 642 566 642 580 657 Z" fill="lightgray"></path>
				<path d="M 228 581 Q 215 591 194 598 Q 178 605 168 601 Q 158 595 165 584 Q 210 532 172 299 Q 166 269 159 240 Q 138 164 76 46 Q 72 40 71 36 Q 70 26 78 29 Q 103 35 164 145 Q 173 166 182 188 Q 197 228 207 274 L 213 304 Q 222 352 226 398 L 228 430 Q 229 449 230 467 Q 233 542 236 554 C 239 575 239 575 228 581 Z" fill="lightgray"></path>
				<path d="M 372 249 Q 368 531 378 554 Q 390 572 380 582 Q 362 598 331 610 Q 315 617 302 610 Q 281 597 268 592 Q 255 588 228 581 C 199 573 207 548 236 554 Q 258 557 295 571 Q 311 575 316 568 Q 338 484 322 156 Q 313 107 312 103 Q 308 100 245 115 Q 229 121 229 112 Q 277 69 304 38 Q 316 22 328 17 Q 335 14 343 22 Q 376 67 377 125 Q 373 177 372 237 L 372 249 Z" fill="lightgray"></path>
				<path d="M 226 398 Q 263 407 294 411 Q 313 415 305 426 Q 295 436 274 439 Q 255 440 228 430 C 200 420 197 391 226 398 Z" fill="lightgray"></path>
				<path d="M 207 274 Q 211 274 216 274 Q 261 284 294 289 Q 315 295 306 305 Q 296 317 272 319 Q 251 319 213 304 C 185 293 177 274 207 274 Z" fill="lightgray"></path>
				<path d="M 456 594 Q 489 539 509 535 Q 519 534 526 547 Q 527 557 523 573 Q 508 601 462 614 Q 455 615 453 607 Q 452 601 456 594 Z" fill="lightgray"></path>
				<path d="M 699 642 Q 689 623 667 589 Q 663 585 667 579 Q 673 578 678 582 Q 727 616 752 630 Q 765 634 761 642 Q 757 652 742 665 Q 729 678 712 678 Q 702 677 703 664 Q 704 654 699 642 Z" fill="lightgray"></path>
				<path d="M 590 480 Q 743 516 747 517 Q 754 524 750 531 Q 744 540 721 546 Q 697 550 673 542 Q 637 532 602 520 L 553 508 Q 511 502 467 498 Q 437 494 458 479 Q 491 461 537 470 Q 538 471 544 471 L 590 480 Z" fill="lightgray"></path>
				<path d="M 671 404 Q 720 407 838 408 Q 854 409 859 415 Q 863 425 849 436 Q 803 472 750 455 Q 593 431 572 425 L 526 419 Q 466 412 402 402 Q 386 401 398 386 Q 425 362 475 376 Q 490 380 507 382 L 559 392 Q 583 398 643 402 L 671 404 Z" fill="lightgray"></path>
				<path d="M 572 425 Q 581 452 590 480 L 602 520 Q 614 572 627 606 Q 634 621 620 632 Q 593 653 580 657 C 569 663 569 663 567 658 Q 557 657 565 640 Q 577 603 553 508 L 544 471 Q 543 470 543 467 Q 537 445 526 419 L 507 382 Q 455 304 383 256 Q 376 253 372 249 C 354 238 354 238 372 237 Q 421 228 508 312 Q 518 325 530 338 Q 545 362 559 392 L 572 425 Z" fill="lightgray"></path>
				<path d="M 643 402 Q 658 372 788 242 Q 824 203 968 231 Q 984 232 985 237 Q 986 243 974 248 Q 803 308 748 345 Q 729 360 671 404 C 647 422 627 427 643 402 Z" fill="lightgray"></path>
				<path d="M 551 48 Q 526 52 501 59 Q 491 60 491 55 Q 492 49 501 42 Q 556 -10 576 -41 Q 588 -56 601 -44 Q 634 -13 630 80 Q 624 233 638 269 Q 645 285 631 296 Q 609 315 584 324 Q 568 330 562 323 Q 556 319 566 305 Q 593 254 581 72 Q 575 41 551 48 Z" fill="lightgray"></path>
				<path d="M 479 213 Q 518 179 527 179 Q 534 179 538 188 Q 541 198 534 219 Q 528 234 475 246 Q 465 247 460 246 Q 456 243 458 235 Q 459 228 479 213 Z" fill="lightgray"></path>
				<path d="M 398 76 Q 389 72 390 65 Q 391 55 399 52 Q 418 46 444 40 Q 451 40 457 48 Q 469 66 527 124 Q 536 133 541 141 Q 548 148 546 155 Q 543 155 420 84 Q 413 80 398 76 Z" fill="lightgray"></path>
				<path d="M 690 252 Q 680 233 655 202 Q 651 196 655 192 Q 661 191 666 194 Q 718 225 742 238 Q 755 241 752 249 Q 748 259 734 273 Q 721 286 705 288 Q 695 287 695 274 Q 696 264 690 252 Z" fill="lightgray"></path>
				<path d="M 665 135 Q 717 95 780 36 Q 795 20 808 18 Q 815 17 821 26 Q 830 38 816 74 Q 804 119 664 161 Q 655 165 655 154 Q 655 142 665 135 Z" fill="lightgray"></path>
</g>
		<text x="40" y="140" font-size="128" fill="#999999">2</text></g>
		<g id="id0:id2:id2" transform="matrix(1.0,0,0,1.0,2048,0.0)">			<g stroke="lightgray" stroke-width="4" transform="scale(4, 4)"> <rect x="0" y="0" width="256" height="256" fill="white" stroke-width="4"/></g>
			<g transform="scale(0.92, -0.92) translate(60, -920)">					<path d="M 623 727 Q 656 739 776 729 Q 789 728 795 736 Q 799 746 787 759 Q 738 798 652 776 Q 648 776 644 774 L 591 766 Q 510 756 421 743 L 379 739 Q 301 732 217 723 Q 192 720 209 706 Q 246 681 297 690 Q 343 702 386 708 L 424 714 Q 430 721 581 727 L 623 727 Z" fill="black"></path>
				<path d="M 421 743 Q 420 774 418 797 Q 419 815 402 820 Q 366 838 348 830 Q 332 823 345 805 Q 369 775 379 739 L 386 708 Q 395 668 408 650 Q 420 641 424 651 Q 430 669 426 689 Q 425 702 424 714 L 421 743 Z" fill="black"></path>
				<path d="M 580 657 Q 592 667 623 727 L 644 774 Q 651 792 666 814 Q 679 827 670 836 Q 660 852 629 868 Q 614 877 599 869 Q 589 865 596 854 Q 605 833 591 766 L 581 727 Q 568 681 567 658 C 566 642 566 642 580 657 Z" fill="red"></path>
				<path d="M 228 581 Q 215 591 194 598 Q 178 605 168 601 Q 158 595 165 584 Q 210 532 172 299 Q 166 269 159 240 Q 138 164 76 46 Q 72 40 71 36 Q 70 26 78 29 Q 103 35 164 145 Q 173 166 182 188 Q 197 228 207 274 L 213 304 Q 222 352 226 398 L 228 430 Q 229 449 230 467 Q 233 542 236 554 C 239 575 239 575 228 581 Z" fill="lightgray"></path>
				<path d="M 372 249 Q 368 531 378 554 Q 390 572 380 582 Q 362 598 331 610 Q 315 617 302 610 Q 281 597 268 592 Q 255 588 228 581 C 199 573 207 548 236 554 Q 258 557 295 571 Q 311 575 316 568 Q 338 484 322 156 Q 313 107 312 103 Q 308 100 245 115 Q 229 121 229 112 Q 277 69 304 38 Q 316 22 328 17 Q 335 14 343 22 Q 376 67 377 125 Q 373 177 372 237 L 372 249 Z" fill="lightgray"></path>
				<path d="M 226 398 Q 263 407 294 411 Q 313 415 305 426 Q 295 436 274 439 Q 255 440 228 430 C 200 420 197 391 226 398 Z" fill="lightgray"></path>
				<path d="M 207 274 Q 211 274 216 274 Q 261 284 294 289 Q 315 295 306 305 Q 296 317 272 319 Q 251 319 213 304 C 185 293 177 274 207 274 Z" fill="lightgray"></path>
				<path d="M 456 594 Q 489 539 509 535 Q 519 534 526 547 Q 527 557 523 573 Q 508 601 462 614 Q 455 615 453 607 Q 452 601 456 594 Z" fill="lightgray"></path>
				<path d="M 699 642 Q 689 623 667 589 Q 663 585 667 579 Q 673 578 678 582 Q 727 616 752 630 Q 765 634 761 642 Q 757 652 742 665 Q 729 678 712 678 Q 702 677 703 664 Q 704 654 699 642 Z" fill="lightgray"></path>
				<path d="M 590 480 Q 743 516 747 517 Q 754 524 750 531 Q 744 540 721 546 Q 697 550 673 542 Q 637 532 602 520 L 553 508 Q 511 502 467 498 Q 437 494 458 479 Q 491 461 537 470 Q 538 471 544 471 L 590 480 Z" fill="lightgray"></path>
				<path d="M 671 404 Q 720 407 838 408 Q 854 409 859 415 Q 863 425 849 436 Q 803 472 750 455 Q 593 431 572 425 L 526 419 Q 466 412 402 402 Q 386 401 398 386 Q 425 362 475 376 Q 490 380 507 382 L 559 392 Q 583 398 643 402 L 671 404 Z" fill="lightgray"></path>
				<path d="M 572 425 Q 581 452 590 480 L 602 520 Q 614 572 627 606 Q 634 621 620 632 Q 593 653 580 657 C 569 663 569 663 567 658 Q 557 657 565 640 Q 577 603 553 508 L 544 471 Q 543 470 543 467 Q 537 445 526 419 L 507 382 Q 455 304 383 256 Q 376 253 372 249 C 354 238 354 238 372 237 Q 421 228 508 312 Q 518 325 530 338 Q 545 362 559 392 L 572 425 Z" fill="lightgray"></path>
				<path d="M 643 402 Q 658 372 788 242 Q 824 203 968 231 Q 984 232 985 237 Q 986 243 974 248 Q 803 308 748 345 Q 729 360 671 404 C 647 422 627 427 643 402 Z" fill="lightgray"></path>
				<path d="M 551 48 Q 526 52 501 59 Q 491 60 491 55 Q 492 49 501 42 Q 556 -10 576 -41 Q 588 -56 601 -44 Q 634 -13 630 80 Q 624 233 638 269 Q 645 285 631 296 Q 609 315 584 324 Q 568 330 562 323 Q 556 319 566 305 Q 593 254 581 72 Q 575 41 551 48 Z" fill="lightgray"></path>
				<path d="M 479 213 Q 518 179 527 179 Q 534 179 538 188 Q 541 198 534 219 Q 528 234 475 246 Q 465 247 460 246 Q 456 243 458 235 Q 459 228 479 213 Z" fill="lightgray"></path>
				<path d="M 398 76 Q 389 72 390 65 Q 391 55 399 52 Q 418 46 444 40 Q 451 40 457 48 Q 469 66 527 124 Q 536 133 541 141 Q 548 148 546 155 Q 543 155 420 84 Q 413 80 398 76 Z" fill="lightgray"></path>
				<path d="M 690 252 Q 680 233 655 202 Q 651 196 655 192 Q 661 191 666 194 Q 718 225 742 238 Q 755 241 752 249 Q 748 259 734 273 Q 721 286 705 288 Q 695 287 695 274 Q 696 264 690 252 Z" fill="lightgray"></path>
				<path d="M 665 135 Q 717 95 780 36 Q 795 20 808 18 Q 815 17 821 26 Q 830 38 816 74 Q 804 119 664 161 Q 655 165 655 154 Q 655 142 665 135 Z" fill="lightgray"></path>
</g>
		<text x="40" y="140" font-size="128" fill="#999999">3</text></g>
		<g id="id0:id3:id3" transform="matrix(1.0,0,0,1.0,3072,0.0)">			<g stroke="lightgray" stroke-width="4" transform="scale(4, 4)"> <rect x="0" y="0" width="256" height="256" fill="white" stroke-width="4"/></g>
			<g transform="scale(0.92, -0.92) translate(60, -920)">					<path d="M 623 727 Q 656 739 776 729 Q 789 728 795 736 Q 799 746 787 759 Q 738 798 652 776 Q 648 776 644 774 L 591 766 Q 510 756 421 743 L 379 739 Q 301 732 217 723 Q 192 720 209 706 Q 246 681 297 690 Q 343 702 386 708 L 424 714 Q 430 721 581 727 L 623 727 Z" fill="black"></path>
				<path d="M 421 743 Q 420 774 418 797 Q 419 815 402 820 Q 366 838 348 830 Q 332 823 345 805 Q 369 775 379 739 L 386 708 Q 395 668 408 650 Q 420 641 424 651 Q 430 669 426 689 Q 425 702 424 714 L 421 743 Z" fill="black"></path>
				<path d="M 580 657 Q 592 667 623 727 L 644 774 Q 651 792 666 814 Q 679 827 670 836 Q 660 852 629 868 Q 614 877 599 869 Q 589 865 596 854 Q 605 833 591 766 L 581 727 Q 568 681 567 658 C 566 642 566 642 580 657 Z" fill="black"></path>
				<path d="M 228 581 Q 215 591 194 598 Q 178 605 168 601 Q 158 595 165 584 Q 210 532 172 299 Q 166 269 159 240 Q 138 164 76 46 Q 72 40 71 36 Q 70 26 78 29 Q 103 35 164 145 Q 173 166 182 188 Q 197 228 207 274 L 213 304 Q 222 352 226 398 L 228 430 Q 229 449 230 467 Q 233 542 236 554 C 239 575 239 575 228 581 Z" fill="red"></path>
				<path d="M 372 249 Q 368 531 378 554 Q 390 572 380 582 Q 362 598 331 610 Q 315 617 302 610 Q 281 597 268 592 Q 255 588 228 581 C 199 573 207 548 236 554 Q 258 557 295 571 Q 311 575 316 568 Q 338 484 322 156 Q 313 107 312 103 Q 308 100 245 115 Q 229 121 229 112 Q 277 69 304 38 Q 316 22 328 17 Q 335 14 343 22 Q 376 67 377 125 Q 373 177 372 237 L 372 249 Z" fill="lightgray"></path>
				<path d="M 226 398 Q 263 407 294 411 Q 313 415 305 426 Q 295 436 274 439 Q 255 440 228 430 C 200 420 197 391 226 398 Z" fill="lightgray"></path>
				<path d="M 207 274 Q 211 274 216 274 Q 261 284 294 289 Q 315 295 306 305 Q 296 317 272 319 Q 251 319 213 304 C 185 293 177 274 207 274 Z" fill="lightgray"></path>
				<path d="M 456 594 Q 489 539 509 535 Q 519 534 526 547 Q 527 557 523 573 Q 508 601 462 614 Q 455 615 453 607 Q 452 601 456 594 Z" fill="lightgray"></path>
				<path d="M 699 642 Q 689 623 667 589 Q 663 585 667 579 Q 673 578 678 582 Q 727 616 752 630 Q 765 634 761 642 Q 757 652 742 665 Q 729 678 712 678 Q 702 677 703 664 Q 704 654 699 642 Z" fill="lightgray"></path>
				<path d="M 590 480 Q 743 516 747 517 Q 754 524 750 531 Q 744 540 721 546 Q 697 550 673 542 Q 637 532 602 520 L 553 508 Q 511 502 467 498 Q 437 494 458 479 Q 491 461 537 470 Q 538 471 544 471 L 590 480 Z" fill="lightgray"></path>
				<path d="M 671 404 Q 720 407 838 408 Q 854 409 859 415 Q 863 425 849 436 Q 803 472 750 455 Q 593 431 572 425 L 526 419 Q 466 412 402 402 Q 386 401 398 386 Q 425 362 475 376 Q 490 380 507 382 L 559 392 Q 583 398 643 402 L 671 404 Z" fill="lightgray"></path>
				<path d="M 572 425 Q 581 452 590 480 L 602 520 Q 614 572 627 606 Q 634 621 620 632 Q 593 653 580 657 C 569 663 569 663 567 658 Q 557 657 565 640 Q 577 603 553 508 L 544 471 Q 543 470 543 467 Q 537 445 526 419 L 507 382 Q 455 304 383 256 Q 376 253 372 249 C 354 238 354 238 372 237 Q 421 228 508 312 Q 518 325 530 338 Q 545 362 559 392 L 572 425 Z" fill="lightgray"></path>
				<path d="M 643 402 Q 658 372 788 242 Q 824 203 968 231 Q 984 232 985 237 Q 986 243 974 248 Q 803 308 748 345 Q 729 360 671 404 C 647 422 627 427 643 402 Z" fill="lightgray"></path>
				<path d="M 551 48 Q 526 52 501 59 Q 491 60 491 55 Q 492 49 501 42 Q 556 -10 576 -41 Q 588 -56 601 -44 Q 634 -13 630 80 Q 624 233 638 269 Q 645 285 631 296 Q 609 315 584 324 Q 568 330 562 323 Q 556 319 566 305 Q 593 254 581 72 Q 575 41 551 48 Z" fill="lightgray"></path>
				<path d="M 479 213 Q 518 179 527 179 Q 534 179 538 188 Q 541 198 534 219 Q 528 234 475 246 Q 465 247 460 246 Q 456 243 458 235 Q 459 228 479 213 Z" fill="lightgray"></path>
				<path d="M 398 76 Q 389 72 390 65 Q 391 55 399 52 Q 418 46 444 40 Q 451 40 457 48 Q 469 66 527 124 Q 536 133 541 141 Q 548 148 546 155 Q 543 155 420 84 Q 413 80 398 76 Z" fill="lightgray"></path>
				<path d="M 690 252 Q 680 233 655 202 Q 651 196 655 192 Q 661 191 666 194 Q 718 225 742 238 Q 755 241 752 249 Q 748 259 734 273 Q 721 286 705 288 Q 695 287 695 274 Q 696 264 690 252 Z" fill="lightgray"></path>
				<path d="M 665 135 Q 717 95 780 36 Q 795 20 808 18 Q 815 17 821 26 Q 830 38 816 74 Q 804 119 664 161 Q 655 165 655 154 Q 655 142 665 135 Z" fill="lightgray"></path>
</g>
		<text x="40" y="140" font-size="128" fill="#999999">4</text></g>
		<g id="id0:id4:id4" transform="matrix(1.0,0,0,1.0,4096,0.0)">			<g stroke="lightgray" stroke-width="4" transform="scale(4, 4)"> <rect x="0" y="0" width="256" height="256" fill="white" stroke-width="4"/></g>
			<g transform="scale(0.92, -0.92) translate(60, -920)">					<path d="M 623 727 Q 656 739 776 729 Q 789 728 795 736 Q 799 746 787 759 Q 738 798 652 776 Q 648 776 644 774 L 591 766 Q 510 756 421 743 L 379 739 Q 301 732 217 723 Q 192 720 209 706 Q 246 681 297 690 Q 343 702 386 708 L 424 714 Q 430 721 581 727 L 623 727 Z" fill="black"></path>
				<path d="M 421 743 Q 420 774 418 797 Q 419 815 402 820 Q 366 838 348 830 Q 332 823 345 805 Q 369 775 379 739 L 386 708 Q 395 668 408 650 Q 420 641 424 651 Q 430 669 426 689 Q 425 702 424 714 L 421 743 Z" fill="black"></path>
				<path d="M 580 657 Q 592 667 623 727 L 644 774 Q 651 792 666 814 Q 679 827 670 836 Q 660 852 629 868 Q 614 877 599 869 Q 589 865 596 854 Q 605 833 591 766 L 581 727 Q 568 681 567 658 C 566 642 566 642 580 657 Z" fill="black"></path>
				<path d="M 228 581 Q 215 591 194 598 Q 178 605 168 601 Q 158 595 165 584 Q 210 532 172 299 Q 166 269 159 240 Q 138 164 76 46 Q 72 40 71 36 Q 70 26 78 29 Q 103 35 164 145 Q 173 166 182 188 Q 197 228 207 274 L 213 304 Q 222 352 226 398 L 228 430 Q 229 449 230 467 Q 233 542 236 554 C 239 575 239 575 228 581 Z" fill="black"></path>
				<path d="M 372 249 Q 368 531 378 554 Q 390 572 380 582 Q 362 598 331 610 Q 315 617 302 610 Q 281 597 268 592 Q 255 588 228 581 C 199 573 207 548 236 554 Q 258 557 295 571 Q 311 575 316 568 Q 338 484 322 156 Q 313 107 312 103 Q 308 100 245 115 Q 229 121 229 112 Q 277 69 304 38 Q 316 22 328 17 Q 335 14 343 22 Q 376 67 377 125 Q 373 177 372 237 L 372 249 Z" fill="red"></path>
				<path d="M 226 398 Q 263 407 294 411 Q 313 415 305 426 Q 295 436 274 439 Q 255 440 228 430 C 200 420 197 391 226 398 Z" fill="lightgray"></path>
				<path d="M 207 274 Q 211 274 216 274 Q 261 284 294 289 Q 315 295 306 305 Q 296 317 272 319 Q 251 319 213 304 C 185 293 177 274 207 274 Z" fill="lightgray"></path>
				<path d="M 456 594 Q 489 539 509 535 Q 519 534 526 547 Q 527 557 523 573 Q 508 601 462 614 Q 455 615 453 607 Q 452 601 456 594 Z" fill="lightgray"></path>
				<path d="M 699 642 Q 689 623 667 589 Q 663 585 667 579 Q 673 578 678 582 Q 727 616 752 630 Q 765 634 761 642 Q 757 652 742 665 Q 729 678 712 678 Q 702 677 703 664 Q 704 654 699 642 Z" fill="lightgray"></path>
				<path d="M 590 480 Q 743 516 747 517 Q 754 524 750 531 Q 744 540 721 546 Q 697 550 673 542 Q 637 532 602 520 L 553 508 Q 511 502 467 498 Q 437 494 458 479 Q 491 461 537 470 Q 538 471 544 471 L 590 480 Z" fill="lightgray"></path>
				<path d="M 671 404 Q 720 407 838 408 Q 854 409 859 415 Q 863 425 849 436 Q 803 472 750 455 Q 593 431 572 425 L 526 419 Q 466 412 402 402 Q 386 401 398 386 Q 425 362 475 376 Q 490 380 507 382 L 559 392 Q 583 398 643 402 L 671 404 Z" fill="lightgray"></path>
				<path d="M 572 425 Q 581 452 590 480 L 602 520 Q 614 572 627 606 Q 634 621 620 632 Q 593 653 580 657 C 569 663 569 663 567 658 Q 557 657 565 640 Q 577 603 553 508 L 544 471 Q 543 470 543 467 Q 537 445 526 419 L 507 382 Q 455 304 383 256 Q 376 253 372 249 C 354 238 354 238 372 237 Q 421 228 508 312 Q 518 325 530 338 Q 545 362 559 392 L 572 425 Z" fill="lightgray"></path>
				<path d="M 643 402 Q 658 372 788 242 Q 824 203 968 231 Q 984 232 985 237 Q 986 243 974 248 Q 803 308 748 345 Q 729 360 671 404 C 647 422 627 427 643 402 Z" fill="lightgray"></path>
				<path d="M 551 48 Q 526 52 501 59 Q 491 60 491 55 Q 492 49 501 42 Q 556 -10 576 -41 Q 588 -56 601 -44 Q 634 -13 630 80 Q 624 233 638 269 Q 645 285 631 296 Q 609 315 584 324 Q 568 330 562 323 Q 556 319 566 305 Q 593 254 581 72 Q 575 41 551 48 Z" fill="lightgray"></path>
				<path d="M 479 213 Q 518 179 527 179 Q 534 179 538 188 Q 541 198 534 219 Q 528 234 475 246 Q 465 247 460 246 Q 456 243 458 235 Q 459 228 479 213 Z" fill="lightgray"></path>
				<path d="M 398 76 Q 389 72 390 65 Q 391 55 399 52 Q 418 46 444 40 Q 451 40 457 48 Q 469 66 527 124 Q 536 133 541 141 Q 548 148 546 155 Q 543 155 420 84 Q 413 80 398 76 Z" fill="lightgray"></path>
				<path d="M 690 252 Q 680 233 655 202 Q 651 196 655 192 Q 661 191 666 194 Q 718 225 742 238 Q 755 241 752 249 Q 748 259 734 273 Q 721 286 705 288 Q 695 287 695 274 Q 696 264 690 252 Z" fill="lightgray"></path>
				<path d="M 665 135 Q 717 95 780 36 Q 795 20 808 18 Q 815 17 821 26 Q 830 38 816 74 Q 804 119 664 161 Q 655 165 655 154 Q 655 142 665 135 Z" fill="lightgray"></path>
</g>
		<text x="40" y="140" font-size="128" fill="#999999">5</text></g>
</g>
	<g id="id1:id1" transform="translate(0.0,1024)">
		<g id="id1:id0:id0" transform="matrix(1.0,0,0,1.0,0,0.0)">			<g stroke="lightgray" stroke-width="4" transform="scale(4, 4)"> <rect x="0" y="0" width="256" height="256" fill="white" stroke-width="4"/></g>
			<g transform="scale(0.92, -0.92) translate(60, -920)">					<path d="M 623 727 Q 656 739 776 729 Q 789 728 795 736 Q 799 746 787 759 Q 738 798 652 776 Q 648 776 644 774 L 591 766 Q 510 756 421 743 L 379 739 Q 301 732 217 723 Q 192 720 209 706 Q 246 681 297 690 Q 343 702 386 708 L 424 714 Q 430 721 581 727 L 623 727 Z" fill="black"></path>
				<path d="M 421 743 Q 420 774 418 797 Q 419 815 402 820 Q 366 838 348 830 Q 332 823 345 805 Q 369 775 379 739 L 386 708 Q 395 668 408 650 Q 420 641 424 651 Q 430 669 426 689 Q 425 702 424 714 L 421 743 Z" fill="black"></path>
				<path d="M 580 657 Q 592 667 623 727 L 644 774 Q 651 792 666 814 Q 679 827 670 836 Q 660 852 629 868 Q 614 877 599 869 Q 589 865 596 854 Q 605 833 591 766 L 581 727 Q 568 681 567 658 C 566 642 566 642 580 657 Z" fill="black"></path>
				<path d="M 228 581 Q 215 591 194 598 Q 178 605 168 601 Q 158 595 165 584 Q 210 532 172 299 Q 166 269 159 240 Q 138 164 76 46 Q 72 40 71 36 Q 70 26 78 29 Q 103 35 164 145 Q 173 166 182 188 Q 197 228 207 274 L 213 304 Q 222 352 226 398 L 228 430 Q 229 449 230 467 Q 233 542 236 554 C 239 575 239 575 228 581 Z" fill="black"></path>
				<path d="M 372 249 Q 368 531 378 554 Q 390 572 380 582 Q 362 598 331 610 Q 315 617 302 610 Q 281 597 268 592 Q 255 588 228 581 C 199 573 207 548 236 554 Q 258 557 295 571 Q 311 575 316 568 Q 338 484 322 156 Q 313 107 312 103 Q 308 100 245 115 Q 229 121 229 112 Q 277 69 304 38 Q 316 22 328 17 Q 335 14 343 22 Q 376 67 377 125 Q 373 177 372 237 L 372 249 Z" fill="black"></path>
				<path d="M 226 398 Q 263 407 294 411 Q 313 415 305 426 Q 295 436 274 439 Q 255 440 228 430 C 200 420 197 391 226 398 Z" fill="red"></path>
				<path d="M 207 274 Q 211 274 216 274 Q 261 284 294 289 Q 315 295 306 305 Q 296 317 272 319 Q 251 319 213 304 C 185 293 177 274 207 274 Z" fill="lightgray"></path>
				<path d="M 456 594 Q 489 539 509 535 Q 519 534 526 547 Q 527 557 523 573 Q 508 601 462 614 Q 455 615 453 607 Q 452 601 456 594 Z" fill="lightgray"></path>
				<path d="M 699 642 Q 689 623 667 589 Q 663 585 667 579 Q 673 578 678 582 Q 727 616 752 630 Q 765 634 761 642 Q 757 652 742 665 Q 729 678 712 678 Q 702 677 703 664 Q 704 654 699 642 Z" fill="lightgray"></path>
				<path d="M 590 480 Q 743 516 747 517 Q 754 524 750 531 Q 744 540 721 546 Q 697 550 673 542 Q 637 532 602 520 L 553 508 Q 511 502 467 498 Q 437 494 458 479 Q 491 461 537 470 Q 538 471 544 471 L 590 480 Z" fill="lightgray"></path>
				<path d="M 671 404 Q 720 407 838 408 Q 854 409 859 415 Q 863 425 849 436 Q 803 472 750 455 Q 593 431 572 425 L 526 419 Q 466 412 402 402 Q 386 401 398 386 Q 425 362 475 376 Q 490 380 507 382 L 559 392 Q 583 398 643 402 L 671 404 Z" fill="lightgray"></path>
				<path d="M 572 425 Q 581 452 590 480 L 602 520 Q 614 572 627 606 Q 634 621 620 632 Q 593 653 580 657 C 569 663 569 663 567 658 Q 557 657 565 640 Q 577 603 553 508 L 544 471 Q 543 470 543 467 Q 537 445 526 419 L 507 382 Q 455 304 383 256 Q 376 253 372 249 C 354 238 354 238 372 237 Q 421 228 508 312 Q 518 325 530 338 Q 545 362 559 392 L 572 425 Z" fill="lightgray"></path>
				<path d="M 643 402 Q 658 372 788 242 Q 824 203 968 231 Q 984 232 985 237 Q 986 243 974 248 Q 803 308 748 345 Q 729 360 671 404 C 647 422 627 427 643 402 Z" fill="lightgray"></path>
				<path d="M 551 48 Q 526 52 501 59 Q 491 60 491 55 Q 492 49 501 42 Q 556 -10 576 -41 Q 588 -56 601 -44 Q 634 -13 630 80 Q 624 233 638 269 Q 645 285 631 296 Q 609 315 584 324 Q 568 330 562 323 Q 556 319 566 305 Q 593 254 581 72 Q 575 41 551 48 Z" fill="lightgray"></path>
				<path d="M 479 213 Q 518 179 527 179 Q 534 179 538 188 Q 541 198 534 219 Q 528 234 475 246 Q 465 247 460 246 Q 456 243 458 235 Q 459 228 479 213 Z" fill="lightgray"></path>
				<path d="M 398 76 Q 389 72 390 65 Q 391 55 399 52 Q 418 46 444 40 Q 451 40 457 48 Q 469 66 527 124 Q 536 133 541 141 Q 548 148 546 155 Q 543 155 420 84 Q 413 80 398 76 Z" fill="lightgray"></path>
				<path d="M 690 252 Q 680 233 655 202 Q 651 196 655 192 Q 661 191 666 194 Q 718 225 742 238 Q 755 241 752 249 Q 748 259 734 273 Q 721 286 705 288 Q 695 287 695 274 Q 696 264 690 252 Z" fill="lightgray"></path>
				<path d="M 665 135 Q 717 95 780 36 Q 795 20 808 18 Q 815 17 821 26 Q 830 38 816 74 Q 804 119 664 161 Q 655 165 655 154 Q 655 142 665 135 Z" fill="lightgray"></path>
</g>
		<text x="40" y="140" font-size="128" fill="#999999">6</text></g>
		<g id="id1:id1:id1" transform="matrix(1.0,0,0,1.0,1024,0.0)">			<g stroke="lightgray" stroke-width="4" transform="scale(4, 4)"> <rect x="0" y="0" width="256" height="256" fill="white" stroke-width="4"/></g>
			<g transform="scale(0.92, -0.92) translate(60, -920)">					<path d="M 623 727 Q 656 739 776 729 Q 789 728 795 736 Q 799 746 787 759 Q 738 798 652 776 Q 648 776 644 774 L 591 766 Q 510 756 421 743 L 379 739 Q 301 732 217 723 Q 192 720 209 706 Q 246 681 297 690 Q 343 702 386 708 L 424 714 Q 430 721 581 727 L 623 727 Z" fill="black"></path>
				<path d="M 421 743 Q 420 774 418 797 Q 419 815 402 820 Q 366 838 348 830 Q 332 823 345 805 Q 369 775 379 739 L 386 708 Q 395 668 408 650 Q 420 641 424 651 Q 430 669 426 689 Q 425 702 424 714 L 421 743 Z" fill="black"></path>
				<path d="M 580 657 Q 592 667 623 727 L 644 774 Q 651 792 666 814 Q 679 827 670 836 Q 660 852 629 868 Q 614 877 599 869 Q 589 865 596 854 Q 605 833 591 766 L 581 727 Q 568 681 567 658 C 566 642 566 642 580 657 Z" fill="black"></path>
				<path d="M 228 581 Q 215 591 194 598 Q 178 605 168 601 Q 158 595 165 584 Q 210 532 172 299 Q 166 269 159 240 Q 138 164 76 46 Q 72 40 71 36 Q 70 26 78 29 Q 103 35 164 145 Q 173 166 182 188 Q 197 228 207 274 L 213 304 Q 222 352 226 398 L 228 430 Q 229 449 230 467 Q 233 542 236 554 C 239 575 239 575 228 581 Z" fill="black"></path>
				<path d="M 372 249 Q 368 531 378 554 Q 390 572 380 582 Q 362 598 331 610 Q 315 617 302 610 Q 281 597 268 592 Q 255 588 228 581 C 199 573 207 548 236 554 Q 258 557 295 571 Q 311 575 316 568 Q 338 484 322 156 Q 313 107 312 103 Q 308 100 245 115 Q 229 121 229 112 Q 277 69 304 38 Q 316 22 328 17 Q 335 14 343 22 Q 376 67 377 125 Q 373 177 372 237 L 372 249 Z" fill="black"></path>
				<path d="M 226 398 Q 263 407 294 411 Q 313 415 305 426 Q 295 436 274 439 Q 255 440 228 430 C 200 420 197 391 226 398 Z" fill="black"></path>
				<path d="M 207 274 Q 211 274 216 274 Q 261 284 294 289 Q 315 295 306 305 Q 296 317 272 319 Q 251 319 213 304 C 185 293 177 274 207 274 Z" fill="red"></path>
				<path d="M 456 594 Q 489 539 509 535 Q 519 534 526 547 Q 527 557 523 573 Q 508 601 462 614 Q 455 615 453 607 Q 452 601 456 594 Z" fill="lightgray"></path>
				<path d="M 699 642 Q 689 623 667 589 Q 663 585 667 579 Q 673 578 678 582 Q 727 616 752 630 Q 765 634 761 642 Q 757 652 742 665 Q 729 678 712 678 Q 702 677 703 664 Q 704 654 699 642 Z" fill="lightgray"></path>
				<path d="M 590 480 Q 743 516 747 517 Q 754 524 750 531 Q 744 540 721 546 Q 697 550 673 542 Q 637 532 602 520 L 553 508 Q 511 502 467 498 Q 437 494 458 479 Q 491 461 537 470 Q 538 471 544 471 L 590 480 Z" fill="lightgray"></path>
				<path d="M 671 404 Q 720 407 838 408 Q 854 409 859 415 Q 863 425 849 436 Q 803 472 750 455 Q 593 431 572 425 L 526 419 Q 466 412 402 402 Q 386 401 398 386 Q 425 362 475 376 Q 490 380 507 382 L 559 392 Q 583 398 643 402 L 671 404 Z" fill="lightgray"></path>
				<path d="M 572 425 Q 581 452 590 480 L 602 520 Q 614 572 627 606 Q 634 621 620 632 Q 593 653 580 657 C 569 663 569 663 567 658 Q 557 657 565 640 Q 577 603 553 508 L 544 471 Q 543 470 543 467 Q 537 445 526 419 L 507 382 Q 455 304 383 256 Q 376 253 372 249 C 354 238 354 238 372 237 Q 421 228 508 312 Q 518 325 530 338 Q 545 362 559 392 L 572 425 Z" fill="lightgray"></path>
				<path d="M 643 402 Q 658 372 788 242 Q 824 203 968 231 Q 984 232 985 237 Q 986 243 974 248 Q 803 308 748 345 Q 729 360 671 404 C 647 422 627 427 643 402 Z" fill="lightgray"></path>
				<path d="M 551 48 Q 526 52 501 59 Q 491 60 491 55 Q 492 49 501 42 Q 556 -10 576 -41 Q 588 -56 601 -44 Q 634 -13 630 80 Q 624 233 638 269 Q 645 285 631 296 Q 609 315 584 324 Q 568 330 562 323 Q 556 319 566 305 Q 593 254 581 72 Q 575 41 551 48 Z" fill="lightgray"></path>
				<path d="M 479 213 Q 518 179 527 179 Q 534 179 538 188 Q 541 198 534 219 Q 528 234 475 246 Q 465 247 460 246 Q 456 243 458 235 Q 459 228 479 213 Z" fill="lightgray"></path>
				<path d="M 398 76 Q 389 72 390 65 Q 391 55 399 52 Q 418 46 444 40 Q 451 40 457 48 Q 469 66 527 124 Q 536 133 541 141 Q 548 148 546 155 Q 543 155 420 84 Q 413 80 398 76 Z" fill="lightgray"></path>
				<path d="M 690 252 Q 680 233 655 202 Q 651 196 655 192 Q 661 191 666 194 Q 718 225 742 238 Q 755 241 752 249 Q 748 259 734 273 Q 721 286 705 288 Q 695 287 695 274 Q 696 264 690 252 Z" fill="lightgray"></path>
				<path d="M 665 135 Q 717 95 780 36 Q 795 20 808 18 Q 815 17 821 26 Q 830 38 816 74 Q 804 119 664 161 Q 655 165 655 154 Q 655 142 665 135 Z" fill="lightgray"></path>
</g>
		<text x="40" y="140" font-size="128" fill="#999999">7</text></g>
		<g id="id1:id2:id2" transform="matrix(1.0,0,0,1.0,2048,0.0)">			<g stroke="lightgray" stroke-width="4" transform="scale(4, 4)"> <rect x="0" y="0" width="256" height="256" fill="white" stroke-width="4"/></g>
			<g transform="scale(0.92, -0.92) translate(60, -920)">					<path d="M 623 727 Q 656 739 776 729 Q 789 728 795 736 Q 799 746 787 759 Q 738 798 652 776 Q 648 776 644 774 L 591 766 Q 510 756 421 743 L 379 739 Q 301 732 217 723 Q 192 720 209 706 Q 246 681 297 690 Q 343 702 386 708 L 424 714 Q 430 721 581 727 L 623 727 Z" fill="black"></path>
				<path d="M 421 743 Q 420 774 418 797 Q 419 815 402 820 Q 366 838 348 830 Q 332 823 345 805 Q 369 775 379 739 L 386 708 Q 395 668 408 650 Q 420 641 424 651 Q 430 669 426 689 Q 425 702 424 714 L 421 743 Z" fill="black"></path>
				<path d="M 580 657 Q 592 667 623 727 L 644 774 Q 651 792 666 814 Q 679 827 670 836 Q 660 852 629 868 Q 614 877 599 869 Q 589 865 596 854 Q 605 833 591 766 L 581 727 Q 568 681 567 658 C 566 642 566 642 580 657 Z" fill="black"></path>
				<path d="M 228 581 Q 215 591 194 598 Q 178 605 168 601 Q 158 595 165 584 Q 210 532 172 299 Q 166 269 159 240 Q 138 164 76 46 Q 72 40 71 36 Q 70 26 78 29 Q 103 35 164 145 Q 173 166 182 188 Q 197 228 207 274 L 213 304 Q 222 352 226 398 L 228 430 Q 229 449 230 467 Q 233 542 236 554 C 239 575 239 575 228 581 Z" fill="black"></path>
				<path d="M 372 249 Q 368 531 378 554 Q 390 572 380 582 Q 362 598 331 610 Q 315 617 302 610 Q 281 597 268 592 Q 255 588 228 581 C 199 573 207 548 236 554 Q 258 557 295 571 Q 311 575 316 568 Q 338 484 322 156 Q 313 107 312 103 Q 308 100 245 115 Q 229 121 229 112 Q 277 69 304 38 Q 316 22 328 17 Q 335 14 343 22 Q 376 67 377 125 Q 373 177 372 237 L 372 249 Z" fill="black"></path>
				<path d="M 226 398 Q 263 407 294 411 Q 313 415 305 426 Q 295 436 274 439 Q 255 440 228 430 C 200 420 197 391 226 398 Z" fill="black"></path>
				<path d="M 207 274 Q 211 274 216 274 Q 261 284 294 289 Q 315 295 306 305 Q 296 317 272 319 Q 251 319 213 304 C 185 293 177 274 207 274 Z" fill="black"></path>
				<path d="M 456 594 Q 489 539 509 535 Q 519 534 526 547 Q 527 557 523 573 Q 508 601 462 614 Q 455 615 453 607 Q 452 601 456 594 Z" fill="red"></path>
				<path d="M 699 642 Q 689 623 667 589 Q 663 585 667 579 Q 673 578 678 582 Q 727 616 752 630 Q 765 634 761 642 Q 757 652 742 665 Q 729 678 712 678 Q 702 677 703 664 Q 704 654 699 642 Z" fill="lightgray"></path>
				<path d="M 590 480 Q 743 516 747 517 Q 754 524 750 531 Q 744 540 721 546 Q 697 550 673 542 Q 637 532 602 520 L 553 508 Q 511 502 467 498 Q 437 494 458 479 Q 491 461 537 470 Q 538 471 544 471 L 590 480 Z" fill="lightgray"></path>
				<path d="M 671 404 Q 720 407 838 408 Q 854 409 859 415 Q 863 425 849 436 Q 803 472 750 455 Q 593 431 572 425 L 526 419 Q 466 412 402 402 Q 386 401 398 386 Q 425 362 475 376 Q 490 380 507 382 L 559 392 Q 583 398 643 402 L 671 404 Z" fill="lightgray"></path>
				<path d="M 572 425 Q 581 452 590 480 L 602 520 Q 614 572 627 606 Q 634 621 620 632 Q 593 653 580 657 C 569 663 569 663 567 658 Q 557 657 565 640 Q 577 603 553 508 L 544 471 Q 543 470 543 467 Q 537 445 526 419 L 507 382 Q 455 304 383 256 Q 376 253 372 249 C 354 238 354 238 372 237 Q 421 228 508 312 Q 518 325 530 338 Q 545 362 559 392 L 572 425 Z" fill="lightgray"></path>
				<path d="M 643 402 Q 658 372 788 242 Q 824 203 968 231 Q 984 232 985 237 Q 986 243 974 248 Q 803 308 748 345 Q 729 360 671 404 C 647 422 627 427 643 402 Z" fill="lightgray"></path>
				<path d="M 551 48 Q 526 52 501 59 Q 491 60 491 55 Q 492 49 501 42 Q 556 -10 576 -41 Q 588 -56 601 -44 Q 634 -13 630 80 Q 624 233 638 269 Q 645 285 631 296 Q 609 315 584 324 Q 568 330 562 323 Q 556 319 566 305 Q 593 254 581 72 Q 575 41 551 48 Z" fill="lightgray"></path>
				<path d="M 479 213 Q 518 179 527 179 Q 534 179 538 188 Q 541 198 534 219 Q 528 234 475 246 Q 465 247 460 246 Q 456 243 458 235 Q 459 228 479 213 Z" fill="lightgray"></path>
				<path d="M 398 76 Q 389 72 390 65 Q 391 55 399 52 Q 418 46 444 40 Q 451 40 457 48 Q 469 66 527 124 Q 536 133 541 141 Q 548 148 546 155 Q 543 155 420 84 Q 413 80 398 76 Z" fill="lightgray"></path>
				<path d="M 690 252 Q 680 233 655 202 Q 651 196 655 192 Q 661 191 666 194 Q 718 225 742 238 Q 755 241 752 249 Q 748 259 734 273 Q 721 286 705 288 Q 695 287 695 274 Q 696 264 690 252 Z" fill="lightgray"></path>
				<path d="M 665 135 Q 717 95 780 36 Q 795 20 808 18 Q 815 17 821 26 Q 830 38 816 74 Q 804 119 664 161 Q 655 165 655 154 Q 655 142 665 135 Z" fill="lightgray"></path>
</g>
		<text x="40" y="140" font-size="128" fill="#999999">8</text></g>
		<g id="id1:id3:id3" transform="matrix(1.0,0,0,1.0,3072,0.0)">			<g stroke="lightgray" stroke-width="4" transform="scale(4, 4)"> <rect x="0" y="0" width="256" height="256" fill="white" stroke-width="4"/></g>
			<g transform="scale(0.92, -0.92) translate(60, -920)">					<path d="M 623 727 Q 656 739 776 729 Q 789 728 795 736 Q 799 746 787 759 Q 738 798 652 776 Q 648 776 644 774 L 591 766 Q 510 756 421 743 L 379 739 Q 301 732 217 723 Q 192 720 209 706 Q 246 681 297 690 Q 343 702 386 708 L 424 714 Q 430 721 581 727 L 623 727 Z" fill="black"></path>
				<path d="M 421 743 Q 420 774 418 797 Q 419 815 402 820 Q 366 838 348 830 Q 332 823 345 805 Q 369 775 379 739 L 386 708 Q 395 668 408 650 Q 420 641 424 651 Q 430 669 426 689 Q 425 702 424 714 L 421 743 Z" fill="black"></path>
				<path d="M 580 657 Q 592 667 623 727 L 644 774 Q 651 792 666 814 Q 679 827 670 836 Q 660 852 629 868 Q 614 877 599 869 Q 589 865 596 854 Q 605 833 591 766 L 581 727 Q 568 681 567 658 C 566 642 566 642 580 657 Z" fill="black"></path>
				<path d="M 228 581 Q 215 591 194 598 Q 178 605 168 601 Q 158 595 165 584 Q 210 532 172 299 Q 166 269 159 240 Q 138 164 76 46 Q 72 40 71 36 Q 70 26 78 29 Q 103 35 164 145 Q 173 166 182 188 Q 197 228 207 274 L 213 304 Q 222 352 226 398 L 228 430 Q 229 449 230 467 Q 233 542 236 554 C 239 575 239 575 228 581 Z" fill="black"></path>
				<path d="M 372 249 Q 368 531 378 554 Q 390 572 380 582 Q 362 598 331 610 Q 315 617 302 610 Q 281 597 268 592 Q 255 588 228 581 C 199 573 207 548 236 554 Q 258 557 295 571 Q 311 575 316 568 Q 338 484 322 156 Q 313 107 312 103 Q 308 100 245 115 Q 229 121 229 112 Q 277 69 304 38 Q 316 22 328 17 Q 335 14 343 22 Q 376 67 377 125 Q 373 177 372 237 L 372 249 Z" fill="black"></path>
				<path d="M 226 398 Q 263 407 294 411 Q 313 415 305 426 Q 295 436 274 439 Q 255 440 228 430 C 200 420 197 391 226 398 Z" fill="black"></path>
				<path d="M 207 274 Q 211 274 216 274 Q 261 284 294 289 Q 315 295 306 305 Q 296 317 272 319 Q 251 319 213 304 C 185 293 177 274 207 274 Z" fill="black"></path>
				<path d="M 456 594 Q 489 539 509 535 Q 519 534 526 547 Q 527 557 523 573 Q 508 601 462 614 Q 455 615 453 607 Q 452 601 456 594 Z" fill="black"></path>
				<path d="M 699 642 Q 689 623 667 589 Q 663 585 667 579 Q 673 578 678 582 Q 727 616 752 630 Q 765 634 761 642 Q 757 652 742 665 Q 729 678 712 678 Q 702 677 703 664 Q 704 654 699 642 Z" fill="red"></path>
				<path d="M 590 480 Q 743 516 747 517 Q 754 524 750 531 Q 744 540 721 546 Q 697 550 673 542 Q 637 532 602 520 L 553 508 Q 511 502 467 498 Q 437 494 458 479 Q 491 461 537 470 Q 538 471 544 471 L 590 480 Z" fill="lightgray"></path>
				<path d="M 671 404 Q 720 407 838 408 Q 854 409 859 415 Q 863 425 849 436 Q 803 472 750 455 Q 593 431 572 425 L 526 419 Q 466 412 402 402 Q 386 401 398 386 Q 425 362 475 376 Q 490 380 507 382 L 559 392 Q 583 398 643 402 L 671 404 Z" fill="lightgray"></path>
				<path d="M 572 425 Q 581 452 590 480 L 602 520 Q 614 572 627 606 Q 634 621 620 632 Q 593 653 580 657 C 569 663 569 663 567 658 Q 557 657 565 640 Q 577 603 553 508 L 544 471 Q 543 470 543 467 Q 537 445 526 419 L 507 382 Q 455 304 383 256 Q 376 253 372 249 C 354 238 354 238 372 237 Q 421 228 508 312 Q 518 325 530 338 Q 545 362 559 392 L 572 425 Z" fill="lightgray"></path>
				<path d="M 643 402 Q 658 372 788 242 Q 824 203 968 231 Q 984 232 985 237 Q 986 243 974 248 Q 803 308 748 345 Q 729 360 671 404 C 647 422 627 427 643 402 Z" fill="lightgray"></path>
				<path d="M 551 48 Q 526 52 501 59 Q 491 60 491 55 Q 492 49 501 42 Q 556 -10 576 -41 Q 588 -56 601 -44 Q 634 -13 630 80 Q 624 233 638 269 Q 645 285 631 296 Q 609 315 584 324 Q 568 330 562 323 Q 556 319 566 305 Q 593 254 581 72 Q 575 41 551 48 Z" fill="lightgray"></path>
				<path d="M 479 213 Q 518 179 527 179 Q 534 179 538 188 Q 541 198 534 219 Q 528 234 475 246 Q 465 247 460 246 Q 456 243 458 235 Q 459 228 479 213 Z" fill="lightgray"></path>
				<path d="M 398 76 Q 389 72 390 65 Q 391 55 399 52 Q 418 46 444 40 Q 451 40 457 48 Q 469 66 527 124 Q 536 133 541 141 Q 548 148 546 155 Q 543 155 420 84 Q 413 80 398 76 Z" fill="lightgray"></path>
				<path d="M 690 252 Q 680 233 655 202 Q 651 196 655 192 Q 661 191 666 194 Q 718 225 742 238 Q 755 241 752 249 Q 748 259 734 273 Q 721 286 705 288 Q 695 287 695 274 Q 696 264 690 252 Z" fill="lightgray"></path>
				<path d="M 665 135 Q 717 95 780 36 Q 795 20 808 18 Q 815 17 821 26 Q 830 38 816 74 Q 804 119 664 161 Q 655 165 655 154 Q 655 142 665 135 Z" fill="lightgray"></path>
</g>
		<text x="40" y="140" font-size="128" fill="#999999">9</text></g>
		<g id="id1:id4:id4" transform="matrix(1.0,0,0,1.0,4096,0.0)">			<g stroke="lightgray" stroke-width="4" transform="scale(4, 4)"> <rect x="0" y="0" width="256" height="256" fill="white" stroke-width="4"/></g>
			<g transform="scale(0.92, -0.92) translate(60, -920)">					<path d="M 623 727 Q 656 739 776 729 Q 789 728 795 736 Q 799 746 787 759 Q 738 798 652 776 Q 648 776 644 774 L 591 766 Q 510 756 421 743 L 379 739 Q 301 732 217 723 Q 192 720 209 706 Q 246 681 297 690 Q 343 702 386 708 L 424 714 Q 430 721 581 727 L 623 727 Z" fill="black"></path>
				<path d="M 421 743 Q 420 774 418 797 Q 419 815 402 820 Q 366 838 348 830 Q 332 823 345 805 Q 369 775 379 739 L 386 708 Q 395 668 408 650 Q 420 641 424 651 Q 430 669 426 689 Q 425 702 424 714 L 421 743 Z" fill="black"></path>
				<path d="M 580 657 Q 592 667 623 727 L 644 774 Q 651 792 666 814 Q 679 827 670 836 Q 660 852 629 868 Q 614 877 599 869 Q 589 865 596 854 Q 605 833 591 766 L 581 727 Q 568 681 567 658 C 566 642 566 642 580 657 Z" fill="black"></path>
				<path d="M 228 581 Q 215 591 194 598 Q 178 605 168 601 Q 158 595 165 584 Q 210 532 172 299 Q 166 269 159 240 Q 138 164 76 46 Q 72 40 71 36 Q 70 26 78 29 Q 103 35 164 145 Q 173 166 182 188 Q 197 228 207 274 L 213 304 Q 222 352 226 398 L 228 430 Q 229 449 230 467 Q 233 542 236 554 C 239 575 239 575 228 581 Z" fill="black"></path>
				<path d="M 372 249 Q 368 531 378 554 Q 390 572 380 582 Q 362 598 331 610 Q 315 617 302 610 Q 281 597 268 592 Q 255 588 228 581 C 199 573 207 548 236 554 Q 258 557 295 571 Q 311 575 316 568 Q 338 484 322 156 Q 313 107 312 103 Q 308 100 245 115 Q 229 121 229 112 Q 277 69 304 38 Q 316 22 328 17 Q 335 14 343 22 Q 376 67 377 125 Q 373 177 372 237 L 372 249 Z" fill="black"></path>
				<path d="M 226 398 Q 263 407 294 411 Q 313 415 305 426 Q 295 436 274 439 Q 255 440 228 430 C 200 420 197 391 226 398 Z" fill="black"></path>
				<path d="M 207 274 Q 211 274 216 274 Q 261 284 294 289 Q 315 295 306 305 Q 296 317 272 319 Q 251 319 213 304 C 185 293 177 274 207 274 Z" fill="black"></path>
				<path d="M 456 594 Q 489 539 509 535 Q 519 534 526 547 Q 527 557 523 573 Q 508 601 462 614 Q 455 615 453 607 Q 452 601 456 594 Z" fill="black"></path>
				<path d="M 699 642 Q 689 623 667 589 Q 663 585 667 579 Q 673 578 678 582 Q 727 616 752 630 Q 765 634 761 642 Q 757 652 742 665 Q 729 678 712 678 Q 702 677 703 664 Q 704 654 699 642 Z" fill="black"></path>
				<path d="M 590 480 Q 743 516 747 517 Q 754 524 750 531 Q 744 540 721 546 Q 697 550 673 542 Q 637 532 602 520 L 553 508 Q 511 502 467 498 Q 437 494 458 479 Q 491 461 537 470 Q 538 471 544 471 L 590 480 Z" fill="red"></path>
				<path d="M 671 404 Q 720 407 838 408 Q 854 409 859 415 Q 863 425 849 436 Q 803 472 750 455 Q 593 431 572 425 L 526 419 Q 466 412 402 402 Q 386 401 398 386 Q 425 362 475 376 Q 490 380 507 382 L 559 392 Q 583 398 643 402 L 671 404 Z" fill="lightgray"></path>
				<path d="M 572 425 Q 581 452 590 480 L 602 520 Q 614 572 627 606 Q 634 621 620 632 Q 593 653 580 657 C 569 663 569 663 567 658 Q 557 657 565 640 Q 577 603 553 508 L 544 471 Q 543 470 543 467 Q 537 445 526 419 L 507 382 Q 455 304 383 256 Q 376 253 372 249 C 354 238 354 238 372 237 Q 421 228 508 312 Q 518 325 530 338 Q 545 362 559 392 L 572 425 Z" fill="lightgray"></path>
				<path d="M 643 402 Q 658 372 788 242 Q 824 203 968 231 Q 984 232 985 237 Q 986 243 974 248 Q 803 308 748 345 Q 729 360 671 404 C 647 422 627 427 643 402 Z" fill="lightgray"></path>
				<path d="M 551 48 Q 526 52 501 59 Q 491 60 491 55 Q 492 49 501 42 Q 556 -10 576 -41 Q 588 -56 601 -44 Q 634 -13 630 80 Q 624 233 638 269 Q 645 285 631 296 Q 609 315 584 324 Q 568 330 562 323 Q 556 319 566 305 Q 593 254 581 72 Q 575 41 551 48 Z" fill="lightgray"></path>
				<path d="M 479 213 Q 518 179 527 179 Q 534 179 538 188 Q 541 198 534 219 Q 528 234 475 246 Q 465 247 460 246 Q 456 243 458 235 Q 459 228 479 213 Z" fill="lightgray"></path>
				<path d="M 398 76 Q 389 72 390 65 Q 391 55 399 52 Q 418 46 444 40 Q 451 40 457 48 Q 469 66 527 124 Q 536 133 541 141 Q 548 148 546 155 Q 543 155 420 84 Q 413 80 398 76 Z" fill="lightgray"></path>
				<path d="M 690 252 Q 680 233 655 202 Q 651 196 655 192 Q 661 191 666 194 Q 718 225 742 238 Q 755 241 752 249 Q 748 259 734 273 Q 721 286 705 288 Q 695 287 695 274 Q 696 264 690 252 Z" fill="lightgray"></path>
				<path d="M 665 135 Q 717 95 780 36 Q 795 20 808 18 Q 815 17 821 26 Q 830 38 816 74 Q 804 119 664 161 Q 655 165 655 154 Q 655 142 665 135 Z" fill="lightgray"></path>
</g>
		<text x="40" y="140" font-size="128" fill="#999999">10</text></g>
</g>
	<g id="id2:id2" transform="translate(0.0,2048)">
		<g id="id2:id0:id0" transform="matrix(1.0,0,0,1.0,0,0.0)">			<g stroke="lightgray" stroke-width="4" transform="scale(4, 4)"> <rect x="0" y="0" width="256" height="256" fill="white" stroke-width="4"/></g>
			<g transform="scale(0.92, -0.92) translate(60, -920)">					<path d="M 623 727 Q 656 739 776 729 Q 789 728 795 736 Q 799 746 787 759 Q 738 798 652 776 Q 648 776 644 774 L 591 766 Q 510 756 421 743 L 379 739 Q 301 732 217 723 Q 192 720 209 706 Q 246 681 297 690 Q 343 702 386 708 L 424 714 Q 430 721 581 727 L 623 727 Z" fill="black"></path>
				<path d="M 421 743 Q 420 774 418 797 Q 419 815 402 820 Q 366 838 348 830 Q 332 823 345 805 Q 369 775 379 739 L 386 708 Q 395 668 408 650 Q 420 641 424 651 Q 430 669 426 689 Q 425 702 424 714 L 421 743 Z" fill="black"></path>
				<path d="M 580 657 Q 592 667 623 727 L 644 774 Q 651 792 666 814 Q 679 827 670 836 Q 660 852 629 868 Q 614 877 599 869 Q 589 865 596 854 Q 605 833 591 766 L 581 727 Q 568 681 567 658 C 566 642 566 642 580 657 Z" fill="black"></path>
				<path d="M 228 581 Q 215 591 194 598 Q 178 605 168 601 Q 158 595 165 584 Q 210 532 172 299 Q 166 269 159 240 Q 138 164 76 46 Q 72 40 71 36 Q 70 26 78 29 Q 103 35 164 145 Q 173 166 182 188 Q 197 228 207 274 L 213 304 Q 222 352 226 398 L 228 430 Q 229 449 230 467 Q 233 542 236 554 C 239 575 239 575 228 581 Z" fill="black"></path>
				<path d="M 372 249 Q 368 531 378 554 Q 390 572 380 582 Q 362 598 331 610 Q 315 617 302 610 Q 281 597 268 592 Q 255 588 228 581 C 199 573 207 548 236 554 Q 258 557 295 571 Q 311 575 316 568 Q 338 484 322 156 Q 313 107 312 103 Q 308 100 245 115 Q 229 121 229 112 Q 277 69 304 38 Q 316 22 328 17 Q 335 14 343 22 Q 376 67 377 125 Q 373 177 372 237 L 372 249 Z" fill="black"></path>
				<path d="M 226 398 Q 263 407 294 411 Q 313 415 305 426 Q 295 436 274 439 Q 255 440 228 430 C 200 420 197 391 226 398 Z" fill="black"></path>
				<path d="M 207 274 Q 211 274 216 274 Q 261 284 294 289 Q 315 295 306 305 Q 296 317 272 319 Q 251 319 213 304 C 185 293 177 274 207 274 Z" fill="black"></path>
				<path d="M 456 594 Q 489 539 509 535 Q 519 534 526 547 Q 527 557 523 573 Q 508 601 462 614 Q 455 615 453 607 Q 452 601 456 594 Z" fill="black"></path>
				<path d="M 699 642 Q 689 623 667 589 Q 663 585 667 579 Q 673 578 678 582 Q 727 616 752 630 Q 765 634 761 642 Q 757 652 742 665 Q 729 678 712 678 Q 702 677 703 664 Q 704 654 699 642 Z" fill="black"></path>
				<path d="M 590 480 Q 743 516 747 517 Q 754 524 750 531 Q 744 540 721 546 Q 697 550 673 542 Q 637 532 602 520 L 553 508 Q 511 502 467 498 Q 437 494 458 479 Q 491 461 537 470 Q 538 471 544 471 L 590 480 Z" fill="black"></path>
				<path d="M 671 404 Q 720 407 838 408 Q 854 409 859 415 Q 863 425 849 436 Q 803 472 750 455 Q 593 431 572 425 L 526 419 Q 466 412 402 402 Q 386 401 398 386 Q 425 362 475 376 Q 490 380 507 382 L 559 392 Q 583 398 643 402 L 671 404 Z" fill="red"></path>
				<path d="M 572 425 Q 581 452 590 480 L 602 520 Q 614 572 627 606 Q 634 621 620 632 Q 593 653 580 657 C 569 663 569 663 567 658 Q 557 657 565 640 Q 577 603 553 508 L 544 471 Q 543 470 543 467 Q 537 445 526 419 L 507 382 Q 455 304 383 256 Q 376 253 372 249 C 354 238 354 238 372 237 Q 421 228 508 312 Q 518 325 530 338 Q 545 362 559 392 L 572 425 Z" fill="lightgray"></path>
				<path d="M 643 402 Q 658 372 788 242 Q 824 203 968 231 Q 984 232 985 237 Q 986 243 974 248 Q 803 308 748 345 Q 729 360 671 404 C 647 422 627 427 643 402 Z" fill="lightgray"></path>
				<path d="M 551 48 Q 526 52 501 59 Q 491 60 491 55 Q 492 49 501 42 Q 556 -10 576 -41 Q 588 -56 601 -44 Q 634 -13 630 80 Q 624 233 638 269 Q 645 285 631 296 Q 609 315 584 324 Q 568 330 562 323 Q 556 319 566 305 Q 593 254 581 72 Q 575 41 551 48 Z" fill="lightgray"></path>
				<path d="M 479 213 Q 518 179 527 179 Q 534 179 538 188 Q 541 198 534 219 Q 528 234 475 246 Q 465 247 460 246 Q 456 243 458 235 Q 459 228 479 213 Z" fill="lightgray"></path>
				<path d="M 398 76 Q 389 72 390 65 Q 391 55 399 52 Q 418 46 444 40 Q 451 40 457 48 Q 469 66 527 124 Q 536 133 541 141 Q 548 148 546 155 Q 543 155 420 84 Q 413 80 398 76 Z" fill="lightgray"></path>
				<path d="M 690 252 Q 680 233 655 202 Q 651 196 655 192 Q 661 191 666 194 Q 718 225 742 238 Q 755 241 752 249 Q 748 259 734 273 Q 721 286 705 288 Q 695 287 695 274 Q 696 264 690 252 Z" fill="lightgray"></path>
				<path d="M 665 135 Q 717 95 780 36 Q 795 20 808 18 Q 815 17 821 26 Q 830 38 816 74 Q 804 119 664 161 Q 655 165 655 154 Q 655 142 665 135 Z" fill="lightgray"></path>
</g>
		<text x="40" y="140" font-size="128" fill="#999999">11</text></g>
		<g id="id2:id1:id1" transform="matrix(1.0,0,0,1.0,1024,0.0)">			<g stroke="lightgray" stroke-width="4" transform="scale(4, 4)"> <rect x="0" y="0" width="256" height="256" fill="white" stroke-width="4"/></g>
			<g transform="scale(0.92, -0.92) translate(60, -920)">					<path d="M 623 727 Q 656 739 776 729 Q 789 728 795 736 Q 799 746 787 759 Q 738 798 652 776 Q 648 776 644 774 L 591 766 Q 510 756 421 743 L 379 739 Q 301 732 217 723 Q 192 720 209 706 Q 246 681 297 690 Q 343 702 386 708 L 424 714 Q 430 721 581 727 L 623 727 Z" fill="black"></path>
				<path d="M 421 743 Q 420 774 418 797 Q 419 815 402 820 Q 366 838 348 830 Q 332 823 345 805 Q 369 775 379 739 L 386 708 Q 395 668 408 650 Q 420 641 424 651 Q 430 669 426 689 Q 425 702 424 714 L 421 743 Z" fill="black"></path>
				<path d="M 580 657 Q 592 667 623 727 L 644 774 Q 651 792 666 814 Q 679 827 670 836 Q 660 852 629 868 Q 614 877 599 869 Q 589 865 596 854 Q 605 833 591 766 L 581 727 Q 568 681 567 658 C 566 642 566 642 580 657 Z" fill="black"></path>
				<path d="M 228 581 Q 215 591 194 598 Q 178 605 168 601 Q 158 595 165 584 Q 210 532 172 299 Q 166 269 159 240 Q 138 164 76 46 Q 72 40 71 36 Q 70 26 78 29 Q 103 35 164 145 Q 173 166 182 188 Q 197 228 207 274 L 213 304 Q 222 352 226 398 L 228 430 Q 229 449 230 467 Q 233 542 236 554 C 239 575 239 575 228 581 Z" fill="black"></path>
				<path d="M 372 249 Q 368 531 378 554 Q 390 572 380 582 Q 362 598 331 610 Q 315 617 302 610 Q 281 597 268 592 Q 255 588 228 581 C 199 573 207 548 236 554 Q 258 557 295 571 Q 311 575 316 568 Q 338 484 322 156 Q 313 107 312 103 Q 308 100 245 115 Q 229 121 229 112 Q 277 69 304 38 Q 316 22 328 17 Q 335 14 343 22 Q 376 67 377 125 Q 373 177 372 237 L 372 249 Z" fill="black"></path>
				<path d="M 226 398 Q 263 407 294 411 Q 313 415 305 426 Q 295 436 274 439 Q 255 440 228 430 C 200 420 197 391 226 398 Z" fill="black"></path>
				<path d="M 207 274 Q 211 274 216 274 Q 261 284 294 289 Q 315 295 306 305 Q 296 317 272 319 Q 251 319 213 304 C 185 293 177 274 207 274 Z" fill="black"></path>
				<path d="M 456 594 Q 489 539 509 535 Q 519 534 526 547 Q 527 557 523 573 Q 508 601 462 614 Q 455 615 453 607 Q 452 601 456 594 Z" fill="black"></path>
				<path d="M 699 642 Q 689 623 667 589 Q 663 585 667 579 Q 673 578 678 582 Q 727 616 752 630 Q 765 634 761 642 Q 757 652 742 665 Q 729 678 712 678 Q 702 677 703 664 Q 704 654 699 642 Z" fill="black"></path>
				<path d="M 590 480 Q 743 516 747 517 Q 754 524 750 531 Q 744 540 721 546 Q 697 550 673 542 Q 637 532 602 520 L 553 508 Q 511 502 467 498 Q 437 494 458 479 Q 491 461 537 470 Q 538 471 544 471 L 590 480 Z" fill="black"></path>
				<path d="M 671 404 Q 720 407 838 408 Q 854 409 859 415 Q 863 425 849 436 Q 803 472 750 455 Q 593 431 572 425 L 526 419 Q 466 412 402 402 Q 386 401 398 386 Q 425 362 475 376 Q 490 380 507 382 L 559 392 Q 583 398 643 402 L 671 404 Z" fill="black"></path>
				<path d="M 572 425 Q 581 452 590 480 L 602 520 Q 614 572 627 606 Q 634 621 620 632 Q 593 653 580 657 C 569 663 569 663 567 658 Q 557 657 565 640 Q 577 603 553 508 L 544 471 Q 543 470 543 467 Q 537 445 526 419 L 507 382 Q 455 304 383 256 Q 376 253 372 249 C 354 238 354 238 372 237 Q 421 228 508 312 Q 518 325 530 338 Q 545 362 559 392 L 572 425 Z" fill="red"></path>
				<path d="M 643 402 Q 658 372 788 242 Q 824 203 968 231 Q 984 232 985 237 Q 986 243 974 248 Q 803 308 748 345 Q 729 360 671 404 C 647 422 627 427 643 402 Z" fill="lightgray"></path>
				<path d="M 551 48 Q 526 52 501 59 Q 491 60 491 55 Q 492 49 501 42 Q 556 -10 576 -41 Q 588 -56 601 -44 Q 634 -13 630 80 Q 624 233 638 269 Q 645 285 631 296 Q 609 315 584 324 Q 568 330 562 323 Q 556 319 566 305 Q 593 254 581 72 Q 575 41 551 48 Z" fill="lightgray"></path>
				<path d="M 479 213 Q 518 179 527 179 Q 534 179 538 188 Q 541 198 534 219 Q 528 234 475 246 Q 465 247 460 246 Q 456 243 458 235 Q 459 228 479 213 Z" fill="lightgray"></path>
				<path d="M 398 76 Q 389 72 390 65 Q 391 55 399 52 Q 418 46 444 40 Q 451 40 457 48 Q 469 66 527 124 Q 536 133 541 141 Q 548 148 546 155 Q 543 155 420 84 Q 413 80 398 76 Z" fill="lightgray"></path>
				<path d="M 690 252 Q 680 233 655 202 Q 651 196 655 192 Q 661 191 666 194 Q 718 225 742 238 Q 755 241 752 249 Q 748 259 734 273 Q 721 286 705 288 Q 695 287 695 274 Q 696 264 690 252 Z" fill="lightgray"></path>
				<path d="M 665 135 Q 717 95 780 36 Q 795 20 808 18 Q 815 17 821 26 Q 830 38 816 74 Q 804 119 664 161 Q 655 165 655 154 Q 655 142 665 135 Z" fill="lightgray"></path>
</g>
		<text x="40" y="140" font-size="128" fill="#999999">12</text></g>
		<g id="id2:id2:id2" transform="matrix(1.0,0,0,1.0,2048,0.0)">			<g stroke="lightgray" stroke-width="4" transform="scale(4, 4)"> <rect x="0" y="0" width="256" height="256" fill="white" stroke-width="4"/></g>
			<g transform="scale(0.92, -0.92) translate(60, -920)">					<path d="M 623 727 Q 656 739 776 729 Q 789 728 795 736 Q 799 746 787 759 Q 738 798 652 776 Q 648 776 644 774 L 591 766 Q 510 756 421 743 L 379 739 Q 301 732 217 723 Q 192 720 209 706 Q 246 681 297 690 Q 343 702 386 708 L 424 714 Q 430 721 581 727 L 623 727 Z" fill="black"></path>
				<path d="M 421 743 Q 420 774 418 797 Q 419 815 402 820 Q 366 838 348 830 Q 332 823 345 805 Q 369 775 379 739 L 386 708 Q 395 668 408 650 Q 420 641 424 651 Q 430 669 426 689 Q 425 702 424 714 L 421 743 Z" fill="black"></path>
				<path d="M 580 657 Q 592 667 623 727 L 644 774 Q 651 792 666 814 Q 679 827 670 836 Q 660 852 629 868 Q 614 877 599 869 Q 589 865 596 854 Q 605 833 591 766 L 581 727 Q 568 681 567 658 C 566 642 566 642 580 657 Z" fill="black"></path>
				<path d="M 228 581 Q 215 591 194 598 Q 178 605 168 601 Q 158 595 165 584 Q 210 532 172 299 Q 166 269 159 240 Q 138 164 76 46 Q 72 40 71 36 Q 70 26 78 29 Q 103 35 164 145 Q 173 166 182 188 Q 197 228 207 274 L 213 304 Q 222 352 226 398 L 228 430 Q 229 449 230 467 Q 233 542 236 554 C 239 575 239 575 228 581 Z" fill="black"></path>
				<path d="M 372 249 Q 368 531 378 554 Q 390 572 380 582 Q 362 598 331 610 Q 315 617 302 610 Q 281 597 268 592 Q 255 588 228 581 C 199 573 207 548 236 554 Q 258 557 295 571 Q 311 575 316 568 Q 338 484 322 156 Q 313 107 312 103 Q 308 100 245 115 Q 229 121 229 112 Q 277 69 304 38 Q 316 22 328 17 Q 335 14 343 22 Q 376 67 377 125 Q 373 177 372 237 L 372 249 Z" fill="black"></path>
				<path d="M 226 398 Q 263 407 294 411 Q 313 415 305 426 Q 295 436 274 439 Q 255 440 228 430 C 200 420 197 391 226 398 Z" fill="black"></path>
				<path d="M 207 274 Q 211 274 216 274 Q 261 284 294 289 Q 315 295 306 305 Q 296 317 272 319 Q 251 319 213 304 C 185 293 177 274 207 274 Z" fill="black"></path>
				<path d="M 456 594 Q 489 539 509 535 Q 519 534 526 547 Q 527 557 523 573 Q 508 601 462 614 Q 455 615 453 607 Q 452 601 456 594 Z" fill="black"></path>
				<path d="M 699 642 Q 689 623 667 589 Q 663 585 667 579 Q 673 578 678 582 Q 727 616 752 630 Q 765 634 761 642 Q 757 652 742 665 Q 729 678 712 678 Q 702 677 703 664 Q 704 654 699 642 Z" fill="black"></path>
				<path d="M 590 480 Q 743 516 747 517 Q 754 524 750 531 Q 744 540 721 546 Q 697 550 673 542 Q 637 532 602 520 L 553 508 Q 511 502 467 498 Q 437 494 458 479 Q 491 461 537 470 Q 538 471 544 471 L 590 480 Z" fill="black"></path>
				<path d="M 671 404 Q 720 407 838 408 Q 854 409 859 415 Q 863 425 849 436 Q 803 472 750 455 Q 593 431 572 425 L 526 419 Q 466 412 402 402 Q 386 401 398 386 Q 425 362 475 376 Q 490 380 507 382 L 559 392 Q 583 398 643 402 L 671 404 Z" fill="black"></path>
				<path d="M 572 425 Q 581 452 590 480 L 602 520 Q 614 572 627 606 Q 634 621 620 632 Q 593 653 580 657 C 569 663 569 663 567 658 Q 557 657 565 640 Q 577 603 553 508 L 544 471 Q 543 470 543 467 Q 537 445 526 419 L 507 382 Q 455 304 383 256 Q 376 253 372 249 C 354 238 354 238 372 237 Q 421 228 508 312 Q 518 325 530 338 Q 545 362 559 392 L 572 425 Z" fill="black"></path>
				<path d="M 643 402 Q 658 372 788 242 Q 824 203 968 231 Q 984 232 985 237 Q 986 243 974 248 Q 803 308 748 345 Q 729 360 671 404 C 647 422 627 427 643 402 Z" fill="red"></path>
				<path d="M 551 48 Q 526 52 501 59 Q 491 60 491 55 Q 492 49 501 42 Q 556 -10 576 -41 Q 588 -56 601 -44 Q 634 -13 630 80 Q 624 233 638 269 Q 645 285 631 296 Q 609 315 584 324 Q 568 330 562 323 Q 556 319 566 305 Q 593 254 581 72 Q 575 41 551 48 Z" fill="lightgray"></path>
				<path d="M 479 213 Q 518 179 527 179 Q 534 179 538 188 Q 541 198 534 219 Q 528 234 475 246 Q 465 247 460 246 Q 456 243 458 235 Q 459 228 479 213 Z" fill="lightgray"></path>
				<path d="M 398 76 Q 389 72 390 65 Q 391 55 399 52 Q 418 46 444 40 Q 451 40 457 48 Q 469 66 527 124 Q 536 133 541 141 Q 548 148 546 155 Q 543 155 420 84 Q 413 80 398 76 Z" fill="lightgray"></path>
				<path d="M 690 252 Q 680 233 655 202 Q 651 196 655 192 Q 661 191 666 194 Q 718 225 742 238 Q 755 241 752 249 Q 748 259 734 273 Q 721 286 705 288 Q 695 287 695 274 Q 696 264 690 252 Z" fill="lightgray"></path>
				<path d="M 665 135 Q 717 95 780 36 Q 795 20 808 18 Q 815 17 821 26 Q 830 38 816 74 Q 804 119 664 161 Q 655 165 655 154 Q 655 142 665 135 Z" fill="lightgray"></path>
</g>
		<text x="40" y="140" font-size="128" fill="#999999">13</text></g>
		<g id="id2:id3:id3" transform="matrix(1.0,0,0,1.0,3072,0.0)">			<g stroke="lightgray" stroke-width="4" transform="scale(4, 4)"> <rect x="0" y="0" width="256" height="256" fill="white" stroke-width="4"/></g>
			<g transform="scale(0.92, -0.92) translate(60, -920)">					<path d="M 623 727 Q 656 739 776 729 Q 789 728 795 736 Q 799 746 787 759 Q 738 798 652 776 Q 648 776 644 774 L 591 766 Q 510 756 421 743 L 379 739 Q 301 732 217 723 Q 192 720 209 706 Q 246 681 297 690 Q 343 702 386 708 L 424 714 Q 430 721 581 727 L 623 727 Z" fill="black"></path>
				<path d="M 421 743 Q 420 774 418 797 Q 419 815 402 820 Q 366 838 348 830 Q 332 823 345 805 Q 369 775 379 739 L 386 708 Q 395 668 408 650 Q 420 641 424 651 Q 430 669 426 689 Q 425 702 424 714 L 421 743 Z" fill="black"></path>
				<path d="M 580 657 Q 592 667 623 727 L 644 774 Q 651 792 666 814 Q 679 827 670 836 Q 660 852 629 868 Q 614 877 599 869 Q 589 865 596 854 Q 605 833 591 766 L 581 727 Q 568 681 567 658 C 566 642 566 642 580 657 Z" fill="black"></path>
				<path d="M 228 581 Q 215 591 194 598 Q 178 605 168 601 Q 158 595 165 584 Q 210 532 172 299 Q 166 269 159 240 Q 138 164 76 46 Q 72 40 71 36 Q 70 26 78 29 Q 103 35 164 145 Q 173 166 182 188 Q 197 228 207 274 L 213 304 Q 222 352 226 398 L 228 430 Q 229 449 230 467 Q 233 542 236 554 C 239 575 239 575 228 581 Z" fill="black"></path>
				<path d="M 372 249 Q 368 531 378 554 Q 390 572 380 582 Q 362 598 331 610 Q 315 617 302 610 Q 281 597 268 592 Q 255 588 228 581 C 199 573 207 548 236 554 Q 258 557 295 571 Q 311 575 316 568 Q 338 484 322 156 Q 313 107 312 103 Q 308 100 245 115 Q 229 121 229 112 Q 277 69 304 38 Q 316 22 328 17 Q 335 14 343 22 Q 376 67 377 125 Q 373 177 372 237 L 372 249 Z" fill="black"></path>
				<path d="M 226 398 Q 263 407 294 411 Q 313 415 305 426 Q 295 436 274 439 Q 255 440 228 430 C 200 420 197 391 226 398 Z" fill="black"></path>
				<path d="M 207 274 Q 211 274 216 274 Q 261 284 294 289 Q 315 295 306 305 Q 296 317 272 319 Q 251 319 213 304 C 185 293 177 274 207 274 Z" fill="black"></path>
				<path d="M 456 594 Q 489 539 509 535 Q 519 534 526 547 Q 527 557 523 573 Q 508 601 462 614 Q 455 615 453 607 Q 452 601 456 594 Z" fill="black"></path>
				<path d="M 699 642 Q 689 623 667 589 Q 663 585 667 579 Q 673 578 678 582 Q 727 616 752 630 Q 765 634 761 642 Q 757 652 742 665 Q 729 678 712 678 Q 702 677 703 664 Q 704 654 699 642 Z" fill="black"></path>
				<path d="M 590 480 Q 743 516 747 517 Q 754 524 750 531 Q 744 540 721 546 Q 697 550 673 542 Q 637 532 602 520 L 553 508 Q 511 502 467 498 Q 437 494 458 479 Q 491 461 537 470 Q 538 471 544 471 L 590 480 Z" fill="black"></path>
				<path d="M 671 404 Q 720 407 838 408 Q 854 409 859 415 Q 863 425 849 436 Q 803 472 750 455 Q 593 431 572 425 L 526 419 Q 466 412 402 402 Q 386 401 398 386 Q 425 362 475 376 Q 490 380 507 382 L 559 392 Q 583 398 643 402 L 671 404 Z" fill="black"></path>
				<path d="M 572 425 Q 581 452 590 480 L 602 520 Q 614 572 627 606 Q 634 621 620 632 Q 593 653 580 657 C 569 663 569 663 567 658 Q 557 657 565 640 Q 577 603 553 508 L 544 471 Q 543 470 543 467 Q 537 445 526 419 L 507 382 Q 455 304 383 256 Q 376 253 372 249 C 354 238 354 238 372 237 Q 421 228 508 312 Q 518 325 530 338 Q 545 362 559 392 L 572 425 Z" fill="black"></path>
				<path d="M 643 402 Q 658 372 788 242 Q 824 203 968 231 Q 984 232 985 237 Q 986 243 974 248 Q 803 308 748 345 Q 729 360 671 404 C 647 422 627 427 643 402 Z" fill="black"></path>
				<path d="M 551 48 Q 526 52 501 59 Q 491 60 491 55 Q 492 49 501 42 Q 556 -10 576 -41 Q 588 -56 601 -44 Q 634 -13 630 80 Q 624 233 638 269 Q 645 285 631 296 Q 609 315 584 324 Q 568 330 562 323 Q 556 319 566 305 Q 593 254 581 72 Q 575 41 551 48 Z" fill="red"></path>
				<path d="M 479 213 Q 518 179 527 179 Q 534 179 538 188 Q 541 198 534 219 Q 528 234 475 246 Q 465 247 460 246 Q 456 243 458 235 Q 459 228 479 213 Z" fill="lightgray"></path>
				<path d="M 398 76 Q 389 72 390 65 Q 391 55 399 52 Q 418 46 444 40 Q 451 40 457 48 Q 469 66 527 124 Q 536 133 541 141 Q 548 148 546 155 Q 543 155 420 84 Q 413 80 398 76 Z" fill="lightgray"></path>
				<path d="M 690 252 Q 680 233 655 202 Q 651 196 655 192 Q 661 191 666 194 Q 718 225 742 238 Q 755 241 752 249 Q 748 259 734 273 Q 721 286 705 288 Q 695 287 695 274 Q 696 264 690 252 Z" fill="lightgray"></path>
				<path d="M 665 135 Q 717 95 780 36 Q 795 20 808 18 Q 815 17 821 26 Q 830 38 816 74 Q 804 119 664 161 Q 655 165 655 154 Q 655 142 665 135 Z" fill="lightgray"></path>
</g>
		<text x="40" y="140" font-size="128" fill="#999999">14</text></g>
		<g id="id2:id4:id4" transform="matrix(1.0,0,0,1.0,4096,0.0)">			<g stroke="lightgray" stroke-width="4" transform="scale(4, 4)"> <rect x="0" y="0" width="256" height="256" fill="white" stroke-width="4"/></g>
			<g transform="scale(0.92, -0.92) translate(60, -920)">					<path d="M 623 727 Q 656 739 776 729 Q 789 728 795 736 Q 799 746 787 759 Q 738 798 652 776 Q 648 776 644 774 L 591 766 Q 510 756 421 743 L 379 739 Q 301 732 217 723 Q 192 720 209 706 Q 246 681 297 690 Q 343 702 386 708 L 424 714 Q 430 721 581 727 L 623 727 Z" fill="black"></path>
				<path d="M 421 743 Q 420 774 418 797 Q 419 815 402 820 Q 366 838 348 830 Q 332 823 345 805 Q 369 775 379 739 L 386 708 Q 395 668 408 650 Q 420 641 424 651 Q 430 669 426 689 Q 425 702 424 714 L 421 743 Z" fill="black"></path>
				<path d="M 580 657 Q 592 667 623 727 L 644 774 Q 651 792 666 814 Q 679 827 670 836 Q 660 852 629 868 Q 614 877 599 869 Q 589 865 596 854 Q 605 833 591 766 L 581 727 Q 568 681 567 658 C 566 642 566 642 580 657 Z" fill="black"></path>
				<path d="M 228 581 Q 215 591 194 598 Q 178 605 168 601 Q 158 595 165 584 Q 210 532 172 299 Q 166 269 159 240 Q 138 164 76 46 Q 72 40 71 36 Q 70 26 78 29 Q 103 35 164 145 Q 173 166 182 188 Q 197 228 207 274 L 213 304 Q 222 352 226 398 L 228 430 Q 229 449 230 467 Q 233 542 236 554 C 239 575 239 575 228 581 Z" fill="black"></path>
				<path d="M 372 249 Q 368 531 378 554 Q 390 572 380 582 Q 362 598 331 610 Q 315 617 302 610 Q 281 597 268 592 Q 255 588 228 581 C 199 573 207 548 236 554 Q 258 557 295 571 Q 311 575 316 568 Q 338 484 322 156 Q 313 107 312 103 Q 308 100 245 115 Q 229 121 229 112 Q 277 69 304 38 Q 316 22 328 17 Q 335 14 343 22 Q 376 67 377 125 Q 373 177 372 237 L 372 249 Z" fill="black"></path>
				<path d="M 226 398 Q 263 407 294 411 Q 313 415 305 426 Q 295 436 274 439 Q 255 440 228 430 C 200 420 197 391 226 398 Z" fill="black"></path>
				<path d="M 207 274 Q 211 274 216 274 Q 261 284 294 289 Q 315 295 306 305 Q 296 317 272 319 Q 251 319 213 304 C 185 293 177 274 207 274 Z" fill="black"></path>
				<path d="M 456 594 Q 489 539 509 535 Q 519 534 526 547 Q 527 557 523 573 Q 508 601 462 614 Q 455 615 453 607 Q 452 601 456 594 Z" fill="black"></path>
				<path d="M 699 642 Q 689 623 667 589 Q 663 585 667 579 Q 673 578 678 582 Q 727 616 752 630 Q 765 634 761 642 Q 757 652 742 665 Q 729 678 712 678 Q 702 677 703 664 Q 704 654 699 642 Z" fill="black"></path>
				<path d="M 590 480 Q 743 516 747 517 Q 754 524 750 531 Q 744 540 721 546 Q 697 550 673 542 Q 637 532 602 520 L 553 508 Q 511 502 467 498 Q 437 494 458 479 Q 491 461 537 470 Q 538 471 544 471 L 590 480 Z" fill="black"></path>
				<path d="M 671 404 Q 720 407 838 408 Q 854 409 859 415 Q 863 425 849 436 Q 803 472 750 455 Q 593 431 572 425 L 526 419 Q 466 412 402 402 Q 386 401 398 386 Q 425 362 475 376 Q 490 380 507 382 L 559 392 Q 583 398 643 402 L 671 404 Z" fill="black"></path>
				<path d="M 572 425 Q 581 452 590 480 L 602 520 Q 614 572 627 606 Q 634 621 620 632 Q 593 653 580 657 C 569 663 569 663 567 658 Q 557 657 565 640 Q 577 603 553 508 L 544 471 Q 543 470 543 467 Q 537 445 526 419 L 507 382 Q 455 304 383 256 Q 376 253 372 249 C 354 238 354 238 372 237 Q 421 228 508 312 Q 518 325 530 338 Q 545 362 559 392 L 572 425 Z" fill="black"></path>
				<path d="M 643 402 Q 658 372 788 242 Q 824 203 968 231 Q 984 232 985 237 Q 986 243 974 248 Q 803 308 748 345 Q 729 360 671 404 C 647 422 627 427 643 402 Z" fill="black"></path>
				<path d="M 551 48 Q 526 52 501 59 Q 491 60 491 55 Q 492 49 501 42 Q 556 -10 576 -41 Q 588 -56 601 -44 Q 634 -13 630 80 Q 624 233 638 269 Q 645 285 631 296 Q 609 315 584 324 Q 568 330 562 323 Q 556 319 566 305 Q 593 254 581 72 Q 575 41 551 48 Z" fill="black"></path>
				<path d="M 479 213 Q 518 179 527 179 Q 534 179 538 188 Q 541 198 534 219 Q 528 234 475 246 Q 465 247 460 246 Q 456 243 458 235 Q 459 228 479 213 Z" fill="red"></path>
				<path d="M 398 76 Q 389 72 390 65 Q 391 55 399 52 Q 418 46 444 40 Q 451 40 457 48 Q 469 66 527 124 Q 536 133 541 141 Q 548 148 546 155 Q 543 155 420 84 Q 413 80 398 76 Z" fill="lightgray"></path>
				<path d="M 690 252 Q 680 233 655 202 Q 651 196 655 192 Q 661 191 666 194 Q 718 225 742 238 Q 755 241 752 249 Q 748 259 734 273 Q 721 286 705 288 Q 695 287 695 274 Q 696 264 690 252 Z" fill="lightgray"></path>
				<path d="M 665 135 Q 717 95 780 36 Q 795 20 808 18 Q 815 17 821 26 Q 830 38 816 74 Q 804 119 664 161 Q 655 165 655 154 Q 655 142 665 135 Z" fill="lightgray"></path>
</g>
		<text x="40" y="140" font-size="128" fill="#999999">15</text></g>
</g>
	<g id="id3:id3" transform="translate(0.0,3072)">
		<g id="id3:id0:id0" transform="matrix(1.0,0,0,1.0,0,0.0)">			<g stroke="lightgray" stroke-width="4" transform="scale(4, 4)"> <rect x="0" y="0" width="256" height="256" fill="white" stroke-width="4"/></g>
			<g transform="scale(0.92, -0.92) translate(60, -920)">					<path d="M 623 727 Q 656 739 776 729 Q 789 728 795 736 Q 799 746 787 759 Q 738 798 652 776 Q 648 776 644 774 L 591 766 Q 510 756 421 743 L 379 739 Q 301 732 217 723 Q 192 720 209 706 Q 246 681 297 690 Q 343 702 386 708 L 424 714 Q 430 721 581 727 L 623 727 Z" fill="black"></path>
				<path d="M 421 743 Q 420 774 418 797 Q 419 815 402 820 Q 366 838 348 830 Q 332 823 345 805 Q 369 775 379 739 L 386 708 Q 395 668 408 650 Q 420 641 424 651 Q 430 669 426 689 Q 425 702 424 714 L 421 743 Z" fill="black"></path>
				<path d="M 580 657 Q 592 667 623 727 L 644 774 Q 651 792 666 814 Q 679 827 670 836 Q 660 852 629 868 Q 614 877 599 869 Q 589 865 596 854 Q 605 833 591 766 L 581 727 Q 568 681 567 658 C 566 642 566 642 580 657 Z" fill="black"></path>
				<path d="M 228 581 Q 215 591 194 598 Q 178 605 168 601 Q 158 595 165 584 Q 210 532 172 299 Q 166 269 159 240 Q 138 164 76 46 Q 72 40 71 36 Q 70 26 78 29 Q 103 35 164 145 Q 173 166 182 188 Q 197 228 207 274 L 213 304 Q 222 352 226 398 L 228 430 Q 229 449 230 467 Q 233 542 236 554 C 239 575 239 575 228 581 Z" fill="black"></path>
				<path d="M 372 249 Q 368 531 378 554 Q 390 572 380 582 Q 362 598 331 610 Q 315 617 302 610 Q 281 597 268 592 Q 255 588 228 581 C 199 573 207 548 236 554 Q 258 557 295 571 Q 311 575 316 568 Q 338 484 322 156 Q 313 107 312 103 Q 308 100 245 115 Q 229 121 229 112 Q 277 69 304 38 Q 316 22 328 17 Q 335 14 343 22 Q 376 67 377 125 Q 373 177 372 237 L 372 249 Z" fill="black"></path>
				<path d="M 226 398 Q 263 407 294 411 Q 313 415 305 426 Q 295 436 274 439 Q 255 440 228 430 C 200 420 197 391 226 398 Z" fill="black"></path>
				<path d="M 207 274 Q 211 274 216 274 Q 261 284 294 289 Q 315 295 306 305 Q 296 317 272 319 Q 251 319 213 304 C 185 293 177 274 207 274 Z" fill="black"></path>
				<path d="M 456 594 Q 489 539 509 535 Q 519 534 526 547 Q 527 557 523 573 Q 508 601 462 614 Q 455 615 453 607 Q 452 601 456 594 Z" fill="black"></path>
				<path d="M 699 642 Q 689 623 667 589 Q 663 585 667 579 Q 673 578 678 582 Q 727 616 752 630 Q 765 634 761 642 Q 757 652 742 665 Q 729 678 712 678 Q 702 677 703 664 Q 704 654 699 642 Z" fill="black"></path>
				<path d="M 590 480 Q 743 516 747 517 Q 754 524 750 531 Q 744 540 721 546 Q 697 550 673 542 Q 637 532 602 520 L 553 508 Q 511 502 467 498 Q 437 494 458 479 Q 491 461 537 470 Q 538 471 544 471 L 590 480 Z" fill="black"></path>
				<path d="M 671 404 Q 720 407 838 408 Q 854 409 859 415 Q 863 425 849 436 Q 803 472 750 455 Q 593 431 572 425 L 526 419 Q 466 412 402 402 Q 386 401 398 386 Q 425 362 475 376 Q 490 380 507 382 L 559 392 Q 583 398 643 402 L 671 404 Z" fill="black"></path>
				<path d="M 572 425 Q 581 452 590 480 L 602 520 Q 614 572 627 606 Q 634 621 620 632 Q 593 653 580 657 C 569 663 569 663 567 658 Q 557 657 565 640 Q 577 603 553 508 L 544 471 Q 543 470 543 467 Q 537 445 526 419 L 507 382 Q 455 304 383 256 Q 376 253 372 249 C 354 238 354 238 372 237 Q 421 228 508 312 Q 518 325 530 338 Q 545 362 559 392 L 572 425 Z" fill="black"></path>
				<path d="M 643 402 Q 658 372 788 242 Q 824 203 968 231 Q 984 232 985 237 Q 986 243 974 248 Q 803 308 748 345 Q 729 360 671 404 C 647 422 627 427 643 402 Z" fill="black"></path>
				<path d="M 551 48 Q 526 52 501 59 Q 491 60 491 55 Q 492 49 501 42 Q 556 -10 576 -41 Q 588 -56 601 -44 Q 634 -13 630 80 Q 624 233 638 269 Q 645 285 631 296 Q 609 315 584 324 Q 568 330 562 323 Q 556 319 566 305 Q 593 254 581 72 Q 575 41 551 48 Z" fill="black"></path>
				<path d="M 479 213 Q 518 179 527 179 Q 534 179 538 188 Q 541 198 534 219 Q 528 234 475 246 Q 465 247 460 246 Q 456 243 458 235 Q 459 228 479 213 Z" fill="black"></path>
				<path d="M 398 76 Q 389 72 390 65 Q 391 55 399 52 Q 418 46 444 40 Q 451 40 457 48 Q 469 66 527 124 Q 536 133 541 141 Q 548 148 546 155 Q 543 155 420 84 Q 413 80 398 76 Z" fill="red"></path>
				<path d="M 690 252 Q 680 233 655 202 Q 651 196 655 192 Q 661 191 666 194 Q 718 225 742 238 Q 755 241 752 249 Q 748 259 734 273 Q 721 286 705 288 Q 695 287 695 274 Q 696 264 690 252 Z" fill="lightgray"></path>
				<path d="M 665 135 Q 717 95 780 36 Q 795 20 808 18 Q 815 17 821 26 Q 830 38 816 74 Q 804 119 664 161 Q 655 165 655 154 Q 655 142 665 135 Z" fill="lightgray"></path>
</g>
		<text x="40" y="140" font-size="128" fill="#999999">16</text></g>
		<g id="id3:id1:id1" transform="matrix(1.0,0,0,1.0,1024,0.0)">			<g stroke="lightgray" stroke-width="4" transform="scale(4, 4)"> <rect x="0" y="0" width="256" height="256" fill="white" stroke-width="4"/></g>
			<g transform="scale(0.92, -0.92) translate(60, -920)">					<path d="M 623 727 Q 656 739 776 729 Q 789 728 795 736 Q 799 746 787 759 Q 738 798 652 776 Q 648 776 644 774 L 591 766 Q 510 756 421 743 L 379 739 Q 301 732 217 723 Q 192 720 209 706 Q 246 681 297 690 Q 343 702 386 708 L 424 714 Q 430 721 581 727 L 623 727 Z" fill="black"></path>
				<path d="M 421 743 Q 420 774 418 797 Q 419 815 402 820 Q 366 838 348 830 Q 332 823 345 805 Q 369 775 379 739 L 386 708 Q 395 668 408 650 Q 420 641 424 651 Q 430 669 426 689 Q 425 702 424 714 L 421 743 Z" fill="black"></path>
				<path d="M 580 657 Q 592 667 623 727 L 644 774 Q 651 792 666 814 Q 679 827 670 836 Q 660 852 629 868 Q 614 877 599 869 Q 589 865 596 854 Q 605 833 591 766 L 581 727 Q 568 681 567 658 C 566 642 566 642 580 657 Z" fill="black"></path>
				<path d="M 228 581 Q 215 591 194 598 Q 178 605 168 601 Q 158 595 165 584 Q 210 532 172 299 Q 166 269 159 240 Q 138 164 76 46 Q 72 40 71 36 Q 70 26 78 29 Q 103 35 164 145 Q 173 166 182 188 Q 197 228 207 274 L 213 304 Q 222 352 226 398 L 228 430 Q 229 449 230 467 Q 233 542 236 554 C 239 575 239 575 228 581 Z" fill="black"></path>
				<path d="M 372 249 Q 368 531 378 554 Q 390 572 380 582 Q 362 598 331 610 Q 315 617 302 610 Q 281 597 268 592 Q 255 588 228 581 C 199 573 207 548 236 554 Q 258 557 295 571 Q 311 575 316 568 Q 338 484 322 156 Q 313 107 312 103 Q 308 100 245 115 Q 229 121 229 112 Q 277 69 304 38 Q 316 22 328 17 Q 335 14 343 22 Q 376 67 377 125 Q 373 177 372 237 L 372 249 Z" fill="black"></path>
				<path d="M 226 398 Q 263 407 294 411 Q 313 415 305 426 Q 295 436 274 439 Q 255 440 228 430 C 200 420 197 391 226 398 Z" fill="black"></path>
				<path d="M 207 274 Q 211 274 216 274 Q 261 284 294 289 Q 315 295 306 305 Q 296 317 272 319 Q 251 319 213 304 C 185 293 177 274 207 274 Z" fill="black"></path>
				<path d="M 456 594 Q 489 539 509 535 Q 519 534 526 547 Q 527 557 523 573 Q 508 601 462 614 Q 455 615 453 607 Q 452 601 456 594 Z" fill="black"></path>
				<path d="M 699 642 Q 689 623 667 589 Q 663 585 667 579 Q 673 578 678 582 Q 727 616 752 630 Q 765 634 761 642 Q 757 652 742 665 Q 729 678 712 678 Q 702 677 703 664 Q 704 654 699 642 Z" fill="black"></path>
				<path d="M 590 480 Q 743 516 747 517 Q 754 524 750 531 Q 744 540 721 546 Q 697 550 673 542 Q 637 532 602 520 L 553 508 Q 511 502 467 498 Q 437 494 458 479 Q 491 461 537 470 Q 538 471 544 471 L 590 480 Z" fill="black"></path>
				<path d="M 671 404 Q 720 407 838 408 Q 854 409 859 415 Q 863 425 849 436 Q 803 472 750 455 Q 593 431 572 425 L 526 419 Q 466 412 402 402 Q 386 401 398 386 Q 425 362 475 376 Q 490 380 507 382 L 559 392 Q 583 398 643 402 L 671 404 Z" fill="black"></path>
				<path d="M 572 425 Q 581 452 590 480 L 602 520 Q 614 572 627 606 Q 634 621 620 632 Q 593 653 580 657 C 569 663 569 663 567 658 Q 557 657 565 640 Q 577 603 553 508 L 544 471 Q 543 470 543 467 Q 537 445 526 419 L 507 382 Q 455 304 383 256 Q 376 253 372 249 C 354 238 354 238 372 237 Q 421 228 508 312 Q 518 325 530 338 Q 545 362 559 392 L 572 425 Z" fill="black"></path>
				<path d="M 643 402 Q 658 372 788 242 Q 824 203 968 231 Q 984 232 985 237 Q 986 243 974 248 Q 803 308 748 345 Q 729 360 671 404 C 647 422 627 427 643 402 Z" fill="black"></path>
				<path d="M 551 48 Q 526 52 501 59 Q 491 60 491 55 Q 492 49 501 42 Q 556 -10 576 -41 Q 588 -56 601 -44 Q 634 -13 630 80 Q 624 233 638 269 Q 645 285 631 296 Q 609 315 584 324 Q 568 330 562 323 Q 556 319 566 305 Q 593 254 581 72 Q 575 41 551 48 Z" fill="black"></path>
				<path d="M 479 213 Q 518 179 527 179 Q 534 179 538 188 Q 541 198 534 219 Q 528 234 475 246 Q 465 247 460 246 Q 456 243 458 235 Q 459 228 479 213 Z" fill="black"></path>
				<path d="M 398 76 Q 389 72 390 65 Q 391 55 399 52 Q 418 46 444 40 Q 451 40 457 48 Q 469 66 527 124 Q 536 133 541 141 Q 548 148 546 155 Q 543 155 420 84 Q 413 80 398 76 Z" fill="black"></path>
				<path d="M 690 252 Q 680 233 655 202 Q 651 196 655 192 Q 661 191 666 194 Q 718 225 742 238 Q 755 241 752 249 Q 748 259 734 273 Q 721 286 705 288 Q 695 287 695 274 Q 696 264 690 252 Z" fill="red"></path>
				<path d="M 665 135 Q 717 95 780 36 Q 795 20 808 18 Q 815 17 821 26 Q 830 38 816 74 Q 804 119 664 161 Q 655 165 655 154 Q 655 142 665 135 Z" fill="lightgray"></path>
</g>
		<text x="40" y="140" font-size="128" fill="#999999">17</text></g>
		<g id="id3:id2:id2" transform="matrix(1.0,0,0,1.0,2048,0.0)">			<g stroke="lightgray" stroke-width="4" transform="scale(4, 4)"> <rect x="0" y="0" width="256" height="256" fill="white" stroke-width="4"/></g>
			<g transform="scale(0.92, -0.92) translate(60, -920)">					<path d="M 623 727 Q 656 739 776 729 Q 789 728 795 736 Q 799 746 787 759 Q 738 798 652 776 Q 648 776 644 774 L 591 766 Q 510 756 421 743 L 379 739 Q 301 732 217 723 Q 192 720 209 706 Q 246 681 297 690 Q 343 702 386 708 L 424 714 Q 430 721 581 727 L 623 727 Z" fill="black"></path>
				<path d="M 421 743 Q 420 774 418 797 Q 419 815 402 820 Q 366 838 348 830 Q 332 823 345 805 Q 369 775 379 739 L 386 708 Q 395 668 408 650 Q 420 641 424 651 Q 430 669 426 689 Q 425 702 424 714 L 421 743 Z" fill="black"></path>
				<path d="M 580 657 Q 592 667 623 727 L 644 774 Q 651 792 666 814 Q 679 827 670 836 Q 660 852 629 868 Q 614 877 599 869 Q 589 865 596 854 Q 605 833 591 766 L 581 727 Q 568 681 567 658 C 566 642 566 642 580 657 Z" fill="black"></path>
				<path d="M 228 581 Q 215 591 194 598 Q 178 605 168 601 Q 158 595 165 584 Q 210 532 172 299 Q 166 269 159 240 Q 138 164 76 46 Q 72 40 71 36 Q 70 26 78 29 Q 103 35 164 145 Q 173 166 182 188 Q 197 228 207 274 L 213 304 Q 222 352 226 398 L 228 430 Q 229 449 230 467 Q 233 542 236 554 C 239 575 239 575 228 581 Z" fill="black"></path>
				<path d="M 372 249 Q 368 531 378 554 Q 390 572 380 582 Q 362 598 331 610 Q 315 617 302 610 Q 281 597 268 592 Q 255 588 228 581 C 199 573 207 548 236 554 Q 258 557 295 571 Q 311 575 316 568 Q 338 484 322 156 Q 313 107 312 103 Q 308 100 245 115 Q 229 121 229 112 Q 277 69 304 38 Q 316 22 328 17 Q 335 14 343 22 Q 376 67 377 125 Q 373 177 372 237 L 372 249 Z" fill="black"></path>
				<path d="M 226 398 Q 263 407 294 411 Q 313 415 305 426 Q 295 436 274 439 Q 255 440 228 430 C 200 420 197 391 226 398 Z" fill="black"></path>
				<path d="M 207 274 Q 211 274 216 274 Q 261 284 294 289 Q 315 295 306 305 Q 296 317 272 319 Q 251 319 213 304 C 185 293 177 274 207 274 Z" fill="black"></path>
				<path d="M 456 594 Q 489 539 509 535 Q 519 534 526 547 Q 527 557 523 573 Q 508 601 462 614 Q 455 615 453 607 Q 452 601 456 594 Z" fill="black"></path>
				<path d="M 699 642 Q 689 623 667 589 Q 663 585 667 579 Q 673 578 678 582 Q 727 616 752 630 Q 765 634 761 642 Q 757 652 742 665 Q 729 678 712 678 Q 702 677 703 664 Q 704 654 699 642 Z" fill="black"></path>
				<path d="M 590 480 Q 743 516 747 517 Q 754 524 750 531 Q 744 540 721 546 Q 697 550 673 542 Q 637 532 602 520 L 553 508 Q 511 502 467 498 Q 437 494 458 479 Q 491 461 537 470 Q 538 471 544 471 L 590 480 Z" fill="black"></path>
				<path d="M 671 404 Q 720 407 838 408 Q 854 409 859 415 Q 863 425 849 436 Q 803 472 750 455 Q 593 431 572 425 L 526 419 Q 466 412 402 402 Q 386 401 398 386 Q 425 362 475 376 Q 490 380 507 382 L 559 392 Q 583 398 643 402 L 671 404 Z" fill="black"></path>
				<path d="M 572 425 Q 581 452 590 480 L 602 520 Q 614 572 627 606 Q 634 621 620 632 Q 593 653 580 657 C 569 663 569 663 567 658 Q 557 657 565 640 Q 577 603 553 508 L 544 471 Q 543 470 543 467 Q 537 445 526 419 L 507 382 Q 455 304 383 256 Q 376 253 372 249 C 354 238 354 238 372 237 Q 421 228 508 312 Q 518 325 530 338 Q 545 362 559 392 L 572 425 Z" fill="black"></path>
				<path d="M 643 402 Q 658 372 788 242 Q 824 203 968 231 Q 984 232 985 237 Q 986 243 974 248 Q 803 308 748 345 Q 729 360 671 404 C 647 422 627 427 643 402 Z" fill="black"></path>
				<path d="M 551 48 Q 526 52 501 59 Q 491 60 491 55 Q 492 49 501 42 Q 556 -10 576 -41 Q 588 -56 601 -44 Q 634 -13 630 80 Q 624 233 638 269 Q 645 285 631 296 Q 609 315 584 324 Q 568 330 562 323 Q 556 319 566 305 Q 593 254 581 72 Q 575 41 551 48 Z" fill="black"></path>
				<path d="M 479 213 Q 518 179 527 179 Q 534 179 538 188 Q 541 198 534 219 Q 528 234 475 246 Q 465 247 460 246 Q 456 243 458 235 Q 459 228 479 213 Z" fill="black"></path>
				<path d="M 398 76 Q 389 72 390 65 Q 391 55 399 52 Q 418 46 444 40 Q 451 40 457 48 Q 469 66 527 124 Q 536 133 541 141 Q 548 148 546 155 Q 543 155 420 84 Q 413 80 398 76 Z" fill="black"></path>
				<path d="M 690 252 Q 680 233 655 202 Q 651 196 655 192 Q 661 191 666 194 Q 718 225 742 238 Q 755 241 752 249 Q 748 259 734 273 Q 721 286 705 288 Q 695 287 695 274 Q 696 264 690 252 Z" fill="black"></path>
				<path d="M 665 135 Q 717 95 780 36 Q 795 20 808 18 Q 815 17 821 26 Q 830 38 816 74 Q 804 119 664 161 Q 655 165 655 154 Q 655 142 665 135 Z" fill="red"></path>
</g>
		<text x="40" y="140" font-size="128" fill="#999999">18</text></g>
		<g id="id3:id3:id3" transform="matrix(1.0,0,0,1.0,3072,0.0)">			<g stroke="white" stroke-width="4" transform="scale(4, 4)"> <rect x="1" y="1" width="255" height="255" fill="white" stroke-width="0"/></g>
</g>
		<g id="id3:id4:id4" transform="matrix(1.0,0,0,1.0,4096,0.0)">			<g stroke="white" stroke-width="4" transform="scale(4, 4)"> <rect x="1" y="1" width="255" height="255" fill="white" stroke-width="0"/></g>
</g>
</g>
</svg>
