<?xml version="1.0" standalone="no"?>
<!DOCTYPE svg PUBLIC "-//W3C//DTD SVG 1.1//EN"
 "http://www.w3.org/Graphics/SVG/1.1/DTD/svg11.dtd">
<!-- generate by Handict dictionary app com.asnsami.handict -->

<svg xmlns="http://www.w3.org/2000/svg" xmlns:sodipodi="http://sodipodi.sourceforge.net/DTD/sodipodi-0.dtd" version="1.1" width="640" height="384" viewBox="0 0 5120 3072">
	<g id="id0:id0" transform="translate(0.0,0)">
		<g id="id0:id0:id0" transform="matrix(1.0,0,0,1.0,0,0.0)">			<g stroke="lightgray" stroke-width="4" transform="scale(4, 4)"> <rect x="0" y="0" width="256" height="256" fill="white" stroke-width="4"/></g>
			<g transform="scale(0.92, -0.92) translate(60, -920)">					<path d="M 106 538 Q 96 542 78 544 Q 68 545 64 541 Q 60 537 67 522 Q 92 473 111 390 Q 114 366 129 350 Q 145 331 150 345 Q 151 354 152 366 L 149 398 Q 131 486 128 512 C 125 532 125 532 106 538 Z" fill="red"></path>
				<path d="M 329 431 Q 345 507 378 535 Q 391 551 378 566 Q 315 609 266 585 Q 253 581 241 574 L 200 561 Q 154 549 106 538 C 77 531 99 506 128 512 Q 138 513 149 518 Q 173 525 201 530 L 240 539 Q 256 545 274 548 Q 290 552 296 547 Q 305 540 303 523 Q 297 477 288 437 C 282 408 322 402 329 431 Z" fill="lightgray"></path>
				<path d="M 236 384 Q 276 394 339 403 Q 349 404 349 413 Q 349 420 329 431 C 312 441 312 441 288 437 Q 260 433 237 421 L 200 410 Q 173 404 149 398 C 120 391 122 361 152 366 Q 155 366 199 376 L 236 384 Z" fill="lightgray"></path>
				<path d="M 232 262 Q 233 325 236 384 L 237 421 Q 238 482 240 539 L 241 574 Q 241 653 261 734 Q 264 744 245 758 Q 211 774 189 779 Q 173 782 166 774 Q 159 767 167 752 Q 197 709 197 679 Q 198 622 200 561 L 201 530 Q 201 472 200 410 L 199 376 Q 198 315 193 247 C 191 217 231 232 232 262 Z" fill="lightgray"></path>
				<path d="M 295 287 Q 264 275 232 262 L 193 247 Q 141 229 88 210 Q 72 203 46 203 Q 34 200 33 191 Q 32 179 41 172 Q 63 159 94 144 Q 104 143 114 151 Q 141 175 280 252 Q 293 259 304 268 C 328 286 323 298 295 287 Z" fill="lightgray"></path>
				<path d="M 304 268 Q 331 210 340 205 Q 347 202 354 209 Q 361 216 364 238 Q 367 268 302 327 Q 293 334 288 334 Q 284 333 281 325 Q 281 316 291 296 Q 292 292 295 287 L 304 268 Z" fill="lightgray"></path>
				<path d="M 711 645 Q 804 699 836 710 Q 852 713 854 720 Q 855 730 844 739 Q 784 770 753 763 Q 747 759 748 749 Q 749 709 575 599 Q 571 590 577 588 Q 622 603 672 627 L 673 627 L 711 645 Z" fill="lightgray"></path>
				<path d="M 730 300 Q 734 379 739 453 L 740 484 Q 743 562 757 610 Q 760 620 743 632 Q 725 642 711 645 C 682 654 657 652 673 627 Q 692 599 693 579 Q 700 447 695 293 C 694 263 728 270 730 300 Z" fill="lightgray"></path>
				<path d="M 739 453 Q 739 454 741 454 Q 810 469 860 479 Q 884 485 874 496 Q 862 509 836 513 Q 797 516 740 484 C 714 469 711 443 739 453 Z" fill="lightgray"></path>
				<path d="M 695 293 Q 638 287 635 288 Q 625 292 627 306 Q 631 370 641 439 Q 645 461 629 478 Q 601 505 580 504 Q 562 504 571 486 Q 599 440 594 394 Q 588 303 578 287 Q 568 271 576 257 Q 589 235 602 235 Q 609 235 629 244 Q 743 277 857 274 Q 876 273 877 283 Q 878 293 846 311 Q 821 324 807 318 Q 792 314 775 309 Q 753 305 730 300 L 695 293 Z" fill="lightgray"></path>
				<path d="M 500 259 Q 546 389 564 401 Q 571 407 565 420 Q 558 429 525 445 Q 516 451 462 437 Q 452 434 447 438 Q 443 445 456 485 Q 478 542 502 586 Q 520 614 537 625 Q 555 638 540 653 Q 512 674 485 677 Q 469 681 453 664 Q 440 654 407 641 Q 370 628 355 630 Q 345 631 340 625 Q 337 618 347 613 Q 384 589 443 617 Q 453 624 457 621 Q 466 609 415 470 Q 411 451 394 433 Q 382 423 387 412 Q 391 402 397 397 Q 409 387 424 398 Q 479 428 494 410 Q 504 388 468 282 L 455 248 Q 410 149 290 60 Q 280 50 288 47 Q 298 46 324 60 Q 436 126 485 224 L 500 259 Z" fill="lightgray"></path>
				<path d="M 485 224 Q 635 74 739 21 Q 779 2 955 36 Q 967 40 970 49 Q 973 58 952 59 Q 894 72 830 83 Q 674 111 502 258 Q 501 259 500 259 L 468 282 Q 419 324 361 308 Q 351 304 356 294 Q 363 287 374 286 Q 410 283 455 248 L 485 224 Z" fill="lightgray"></path>
</g>
		<text x="40" y="140" font-size="128" fill="#999999">1</text></g>
		<g id="id0:id1:id1" transform="matrix(1.0,0,0,1.0,1024,0.0)">			<g stroke="lightgray" stroke-width="4" transform="scale(4, 4)"> <rect x="0" y="0" width="256" height="256" fill="white" stroke-width="4"/></g>
			<g transform="scale(0.92, -0.92) translate(60, -920)">					<path d="M 106 538 Q 96 542 78 544 Q 68 545 64 541 Q 60 537 67 522 Q 92 473 111 390 Q 114 366 129 350 Q 145 331 150 345 Q 151 354 152 366 L 149 398 Q 131 486 128 512 C 125 532 125 532 106 538 Z" fill="black"></path>
				<path d="M 329 431 Q 345 507 378 535 Q 391 551 378 566 Q 315 609 266 585 Q 253 581 241 574 L 200 561 Q 154 549 106 538 C 77 531 99 506 128 512 Q 138 513 149 518 Q 173 525 201 530 L 240 539 Q 256 545 274 548 Q 290 552 296 547 Q 305 540 303 523 Q 297 477 288 437 C 282 408 322 402 329 431 Z" fill="red"></path>
				<path d="M 236 384 Q 276 394 339 403 Q 349 404 349 413 Q 349 420 329 431 C 312 441 312 441 288 437 Q 260 433 237 421 L 200 410 Q 173 404 149 398 C 120 391 122 361 152 366 Q 155 366 199 376 L 236 384 Z" fill="lightgray"></path>
				<path d="M 232 262 Q 233 325 236 384 L 237 421 Q 238 482 240 539 L 241 574 Q 241 653 261 734 Q 264 744 245 758 Q 211 774 189 779 Q 173 782 166 774 Q 159 767 167 752 Q 197 709 197 679 Q 198 622 200 561 L 201 530 Q 201 472 200 410 L 199 376 Q 198 315 193 247 C 191 217 231 232 232 262 Z" fill="lightgray"></path>
				<path d="M 295 287 Q 264 275 232 262 L 193 247 Q 141 229 88 210 Q 72 203 46 203 Q 34 200 33 191 Q 32 179 41 172 Q 63 159 94 144 Q 104 143 114 151 Q 141 175 280 252 Q 293 259 304 268 C 328 286 323 298 295 287 Z" fill="lightgray"></path>
				<path d="M 304 268 Q 331 210 340 205 Q 347 202 354 209 Q 361 216 364 238 Q 367 268 302 327 Q 293 334 288 334 Q 284 333 281 325 Q 281 316 291 296 Q 292 292 295 287 L 304 268 Z" fill="lightgray"></path>
				<path d="M 711 645 Q 804 699 836 710 Q 852 713 854 720 Q 855 730 844 739 Q 784 770 753 763 Q 747 759 748 749 Q 749 709 575 599 Q 571 590 577 588 Q 622 603 672 627 L 673 627 L 711 645 Z" fill="lightgray"></path>
				<path d="M 730 300 Q 734 379 739 453 L 740 484 Q 743 562 757 610 Q 760 620 743 632 Q 725 642 711 645 C 682 654 657 652 673 627 Q 692 599 693 579 Q 700 447 695 293 C 694 263 728 270 730 300 Z" fill="lightgray"></path>
				<path d="M 739 453 Q 739 454 741 454 Q 810 469 860 479 Q 884 485 874 496 Q 862 509 836 513 Q 797 516 740 484 C 714 469 711 443 739 453 Z" fill="lightgray"></path>
				<path d="M 695 293 Q 638 287 635 288 Q 625 292 627 306 Q 631 370 641 439 Q 645 461 629 478 Q 601 505 580 504 Q 562 504 571 486 Q 599 440 594 394 Q 588 303 578 287 Q 568 271 576 257 Q 589 235 602 235 Q 609 235 629 244 Q 743 277 857 274 Q 876 273 877 283 Q 878 293 846 311 Q 821 324 807 318 Q 792 314 775 309 Q 753 305 730 300 L 695 293 Z" fill="lightgray"></path>
				<path d="M 500 259 Q 546 389 564 401 Q 571 407 565 420 Q 558 429 525 445 Q 516 451 462 437 Q 452 434 447 438 Q 443 445 456 485 Q 478 542 502 586 Q 520 614 537 625 Q 555 638 540 653 Q 512 674 485 677 Q 469 681 453 664 Q 440 654 407 641 Q 370 628 355 630 Q 345 631 340 625 Q 337 618 347 613 Q 384 589 443 617 Q 453 624 457 621 Q 466 609 415 470 Q 411 451 394 433 Q 382 423 387 412 Q 391 402 397 397 Q 409 387 424 398 Q 479 428 494 410 Q 504 388 468 282 L 455 248 Q 410 149 290 60 Q 280 50 288 47 Q 298 46 324 60 Q 436 126 485 224 L 500 259 Z" fill="lightgray"></path>
				<path d="M 485 224 Q 635 74 739 21 Q 779 2 955 36 Q 967 40 970 49 Q 973 58 952 59 Q 894 72 830 83 Q 674 111 502 258 Q 501 259 500 259 L 468 282 Q 419 324 361 308 Q 351 304 356 294 Q 363 287 374 286 Q 410 283 455 248 L 485 224 Z" fill="lightgray"></path>
</g>
		<text x="40" y="140" font-size="128" fill="#999999">2</text></g>
		<g id="id0:id2:id2" transform="matrix(1.0,0,0,1.0,2048,0.0)">			<g stroke="lightgray" stroke-width="4" transform="scale(4, 4)"> <rect x="0" y="0" width="256" height="256" fill="white" stroke-width="4"/></g>
			<g transform="scale(0.92, -0.92) translate(60, -920)">					<path d="M 106 538 Q 96 542 78 544 Q 68 545 64 541 Q 60 537 67 522 Q 92 473 111 390 Q 114 366 129 350 Q 145 331 150 345 Q 151 354 152 366 L 149 398 Q 131 486 128 512 C 125 532 125 532 106 538 Z" fill="black"></path>
				<path d="M 329 431 Q 345 507 378 535 Q 391 551 378 566 Q 315 609 266 585 Q 253 581 241 574 L 200 561 Q 154 549 106 538 C 77 531 99 506 128 512 Q 138 513 149 518 Q 173 525 201 530 L 240 539 Q 256 545 274 548 Q 290 552 296 547 Q 305 540 303 523 Q 297 477 288 437 C 282 408 322 402 329 431 Z" fill="black"></path>
				<path d="M 236 384 Q 276 394 339 403 Q 349 404 349 413 Q 349 420 329 431 C 312 441 312 441 288 437 Q 260 433 237 421 L 200 410 Q 173 404 149 398 C 120 391 122 361 152 366 Q 155 366 199 376 L 236 384 Z" fill="red"></path>
				<path d="M 232 262 Q 233 325 236 384 L 237 421 Q 238 482 240 539 L 241 574 Q 241 653 261 734 Q 264 744 245 758 Q 211 774 189 779 Q 173 782 166 774 Q 159 767 167 752 Q 197 709 197 679 Q 198 622 200 561 L 201 530 Q 201 472 200 410 L 199 376 Q 198 315 193 247 C 191 217 231 232 232 262 Z" fill="lightgray"></path>
				<path d="M 295 287 Q 264 275 232 262 L 193 247 Q 141 229 88 210 Q 72 203 46 203 Q 34 200 33 191 Q 32 179 41 172 Q 63 159 94 144 Q 104 143 114 151 Q 141 175 280 252 Q 293 259 304 268 C 328 286 323 298 295 287 Z" fill="lightgray"></path>
				<path d="M 304 268 Q 331 210 340 205 Q 347 202 354 209 Q 361 216 364 238 Q 367 268 302 327 Q 293 334 288 334 Q 284 333 281 325 Q 281 316 291 296 Q 292 292 295 287 L 304 268 Z" fill="lightgray"></path>
				<path d="M 711 645 Q 804 699 836 710 Q 852 713 854 720 Q 855 730 844 739 Q 784 770 753 763 Q 747 759 748 749 Q 749 709 575 599 Q 571 590 577 588 Q 622 603 672 627 L 673 627 L 711 645 Z" fill="lightgray"></path>
				<path d="M 730 300 Q 734 379 739 453 L 740 484 Q 743 562 757 610 Q 760 620 743 632 Q 725 642 711 645 C 682 654 657 652 673 627 Q 692 599 693 579 Q 700 447 695 293 C 694 263 728 270 730 300 Z" fill="lightgray"></path>
				<path d="M 739 453 Q 739 454 741 454 Q 810 469 860 479 Q 884 485 874 496 Q 862 509 836 513 Q 797 516 740 484 C 714 469 711 443 739 453 Z" fill="lightgray"></path>
				<path d="M 695 293 Q 638 287 635 288 Q 625 292 627 306 Q 631 370 641 439 Q 645 461 629 478 Q 601 505 580 504 Q 562 504 571 486 Q 599 440 594 394 Q 588 303 578 287 Q 568 271 576 257 Q 589 235 602 235 Q 609 235 629 244 Q 743 277 857 274 Q 876 273 877 283 Q 878 293 846 311 Q 821 324 807 318 Q 792 314 775 309 Q 753 305 730 300 L 695 293 Z" fill="lightgray"></path>
				<path d="M 500 259 Q 546 389 564 401 Q 571 407 565 420 Q 558 429 525 445 Q 516 451 462 437 Q 452 434 447 438 Q 443 445 456 485 Q 478 542 502 586 Q 520 614 537 625 Q 555 638 540 653 Q 512 674 485 677 Q 469 681 453 664 Q 440 654 407 641 Q 370 628 355 630 Q 345 631 340 625 Q 337 618 347 613 Q 384 589 443 617 Q 453 624 457 621 Q 466 609 415 470 Q 411 451 394 433 Q 382 423 387 412 Q 391 402 397 397 Q 409 387 424 398 Q 479 428 494 410 Q 504 388 468 282 L 455 248 Q 410 149 290 60 Q 280 50 288 47 Q 298 46 324 60 Q 436 126 485 224 L 500 259 Z" fill="lightgray"></path>
				<path d="M 485 224 Q 635 74 739 21 Q 779 2 955 36 Q 967 40 970 49 Q 973 58 952 59 Q 894 72 830 83 Q 674 111 502 258 Q 501 259 500 259 L 468 282 Q 419 324 361 308 Q 351 304 356 294 Q 363 287 374 286 Q 410 283 455 248 L 485 224 Z" fill="lightgray"></path>
</g>
		<text x="40" y="140" font-size="128" fill="#999999">3</text></g>
		<g id="id0:id3:id3" transform="matrix(1.0,0,0,1.0,3072,0.0)">			<g stroke="lightgray" stroke-width="4" transform="scale(4, 4)"> <rect x="0" y="0" width="256" height="256" fill="white" stroke-width="4"/></g>
			<g transform="scale(0.92, -0.92) translate(60, -920)">					<path d="M 106 538 Q 96 542 78 544 Q 68 545 64 541 Q 60 537 67 522 Q 92 473 111 390 Q 114 366 129 350 Q 145 331 150 345 Q 151 354 152 366 L 149 398 Q 131 486 128 512 C 125 532 125 532 106 538 Z" fill="black"></path>
				<path d="M 329 431 Q 345 507 378 535 Q 391 551 378 566 Q 315 609 266 585 Q 253 581 241 574 L 200 561 Q 154 549 106 538 C 77 531 99 506 128 512 Q 138 513 149 518 Q 173 525 201 530 L 240 539 Q 256 545 274 548 Q 290 552 296 547 Q 305 540 303 523 Q 297 477 288 437 C 282 408 322 402 329 431 Z" fill="black"></path>
				<path d="M 236 384 Q 276 394 339 403 Q 349 404 349 413 Q 349 420 329 431 C 312 441 312 441 288 437 Q 260 433 237 421 L 200 410 Q 173 404 149 398 C 120 391 122 361 152 366 Q 155 366 199 376 L 236 384 Z" fill="black"></path>
				<path d="M 232 262 Q 233 325 236 384 L 237 421 Q 238 482 240 539 L 241 574 Q 241 653 261 734 Q 264 744 245 758 Q 211 774 189 779 Q 173 782 166 774 Q 159 767 167 752 Q 197 709 197 679 Q 198 622 200 561 L 201 530 Q 201 472 200 410 L 199 376 Q 198 315 193 247 C 191 217 231 232 232 262 Z" fill="red"></path>
				<path d="M 295 287 Q 264 275 232 262 L 193 247 Q 141 229 88 210 Q 72 203 46 203 Q 34 200 33 191 Q 32 179 41 172 Q 63 159 94 144 Q 104 143 114 151 Q 141 175 280 252 Q 293 259 304 268 C 328 286 323 298 295 287 Z" fill="lightgray"></path>
				<path d="M 304 268 Q 331 210 340 205 Q 347 202 354 209 Q 361 216 364 238 Q 367 268 302 327 Q 293 334 288 334 Q 284 333 281 325 Q 281 316 291 296 Q 292 292 295 287 L 304 268 Z" fill="lightgray"></path>
				<path d="M 711 645 Q 804 699 836 710 Q 852 713 854 720 Q 855 730 844 739 Q 784 770 753 763 Q 747 759 748 749 Q 749 709 575 599 Q 571 590 577 588 Q 622 603 672 627 L 673 627 L 711 645 Z" fill="lightgray"></path>
				<path d="M 730 300 Q 734 379 739 453 L 740 484 Q 743 562 757 610 Q 760 620 743 632 Q 725 642 711 645 C 682 654 657 652 673 627 Q 692 599 693 579 Q 700 447 695 293 C 694 263 728 270 730 300 Z" fill="lightgray"></path>
				<path d="M 739 453 Q 739 454 741 454 Q 810 469 860 479 Q 884 485 874 496 Q 862 509 836 513 Q 797 516 740 484 C 714 469 711 443 739 453 Z" fill="lightgray"></path>
				<path d="M 695 293 Q 638 287 635 288 Q 625 292 627 306 Q 631 370 641 439 Q 645 461 629 478 Q 601 505 580 504 Q 562 504 571 486 Q 599 440 594 394 Q 588 303 578 287 Q 568 271 576 257 Q 589 235 602 235 Q 609 235 629 244 Q 743 277 857 274 Q 876 273 877 283 Q 878 293 846 311 Q 821 324 807 318 Q 792 314 775 309 Q 753 305 730 300 L 695 293 Z" fill="lightgray"></path>
				<path d="M 500 259 Q 546 389 564 401 Q 571 407 565 420 Q 558 429 525 445 Q 516 451 462 437 Q 452 434 447 438 Q 443 445 456 485 Q 478 542 502 586 Q 520 614 537 625 Q 555 638 540 653 Q 512 674 485 677 Q 469 681 453 664 Q 440 654 407 641 Q 370 628 355 630 Q 345 631 340 625 Q 337 618 347 613 Q 384 589 443 617 Q 453 624 457 621 Q 466 609 415 470 Q 411 451 394 433 Q 382 423 387 412 Q 391 402 397 397 Q 409 387 424 398 Q 479 428 494 410 Q 504 388 468 282 L 455 248 Q 410 149 290 60 Q 280 50 288 47 Q 298 46 324 60 Q 436 126 485 224 L 500 259 Z" fill="lightgray"></path>
				<path d="M 485 224 Q 635 74 739 21 Q 779 2 955 36 Q 967 40 970 49 Q 973 58 952 59 Q 894 72 830 83 Q 674 111 502 258 Q 501 259 500 259 L 468 282 Q 419 324 361 308 Q 351 304 356 294 Q 363 287 374 286 Q 410 283 455 248 L 485 224 Z" fill="lightgray"></path>
</g>
		<text x="40" y="140" font-size="128" fill="#999999">4</text></g>
		<g id="id0:id4:id4" transform="matrix(1.0,0,0,1.0,4096,0.0)">			<g stroke="lightgray" stroke-width="4" transform="scale(4, 4)"> <rect x="0" y="0" width="256" height="256" fill="white" stroke-width="4"/></g>
			<g transform="scale(0.92, -0.92) translate(60, -920)">					<path d="M 106 538 Q 96 542 78 544 Q 68 545 64 541 Q 60 537 67 522 Q 92 473 111 390 Q 114 366 129 350 Q 145 331 150 345 Q 151 354 152 366 L 149 398 Q 131 486 128 512 C 125 532 125 532 106 538 Z" fill="black"></path>
				<path d="M 329 431 Q 345 507 378 535 Q 391 551 378 566 Q 315 609 266 585 Q 253 581 241 574 L 200 561 Q 154 549 106 538 C 77 531 99 506 128 512 Q 138 513 149 518 Q 173 525 201 530 L 240 539 Q 256 545 274 548 Q 290 552 296 547 Q 305 540 303 523 Q 297 477 288 437 C 282 408 322 402 329 431 Z" fill="black"></path>
				<path d="M 236 384 Q 276 394 339 403 Q 349 404 349 413 Q 349 420 329 431 C 312 441 312 441 288 437 Q 260 433 237 421 L 200 410 Q 173 404 149 398 C 120 391 122 361 152 366 Q 155 366 199 376 L 236 384 Z" fill="black"></path>
				<path d="M 232 262 Q 233 325 236 384 L 237 421 Q 238 482 240 539 L 241 574 Q 241 653 261 734 Q 264 744 245 758 Q 211 774 189 779 Q 173 782 166 774 Q 159 767 167 752 Q 197 709 197 679 Q 198 622 200 561 L 201 530 Q 201 472 200 410 L 199 376 Q 198 315 193 247 C 191 217 231 232 232 262 Z" fill="black"></path>
				<path d="M 295 287 Q 264 275 232 262 L 193 247 Q 141 229 88 210 Q 72 203 46 203 Q 34 200 33 191 Q 32 179 41 172 Q 63 159 94 144 Q 104 143 114 151 Q 141 175 280 252 Q 293 259 304 268 C 328 286 323 298 295 287 Z" fill="red"></path>
				<path d="M 304 268 Q 331 210 340 205 Q 347 202 354 209 Q 361 216 364 238 Q 367 268 302 327 Q 293 334 288 334 Q 284 333 281 325 Q 281 316 291 296 Q 292 292 295 287 L 304 268 Z" fill="lightgray"></path>
				<path d="M 711 645 Q 804 699 836 710 Q 852 713 854 720 Q 855 730 844 739 Q 784 770 753 763 Q 747 759 748 749 Q 749 709 575 599 Q 571 590 577 588 Q 622 603 672 627 L 673 627 L 711 645 Z" fill="lightgray"></path>
				<path d="M 730 300 Q 734 379 739 453 L 740 484 Q 743 562 757 610 Q 760 620 743 632 Q 725 642 711 645 C 682 654 657 652 673 627 Q 692 599 693 579 Q 700 447 695 293 C 694 263 728 270 730 300 Z" fill="lightgray"></path>
				<path d="M 739 453 Q 739 454 741 454 Q 810 469 860 479 Q 884 485 874 496 Q 862 509 836 513 Q 797 516 740 484 C 714 469 711 443 739 453 Z" fill="lightgray"></path>
				<path d="M 695 293 Q 638 287 635 288 Q 625 292 627 306 Q 631 370 641 439 Q 645 461 629 478 Q 601 505 580 504 Q 562 504 571 486 Q 599 440 594 394 Q 588 303 578 287 Q 568 271 576 257 Q 589 235 602 235 Q 609 235 629 244 Q 743 277 857 274 Q 876 273 877 283 Q 878 293 846 311 Q 821 324 807 318 Q 792 314 775 309 Q 753 305 730 300 L 695 293 Z" fill="lightgray"></path>
				<path d="M 500 259 Q 546 389 564 401 Q 571 407 565 420 Q 558 429 525 445 Q 516 451 462 437 Q 452 434 447 438 Q 443 445 456 485 Q 478 542 502 586 Q 520 614 537 625 Q 555 638 540 653 Q 512 674 485 677 Q 469 681 453 664 Q 440 654 407 641 Q 370 628 355 630 Q 345 631 340 625 Q 337 618 347 613 Q 384 589 443 617 Q 453 624 457 621 Q 466 609 415 470 Q 411 451 394 433 Q 382 423 387 412 Q 391 402 397 397 Q 409 387 424 398 Q 479 428 494 410 Q 504 388 468 282 L 455 248 Q 410 149 290 60 Q 280 50 288 47 Q 298 46 324 60 Q 436 126 485 224 L 500 259 Z" fill="lightgray"></path>
				<path d="M 485 224 Q 635 74 739 21 Q 779 2 955 36 Q 967 40 970 49 Q 973 58 952 59 Q 894 72 830 83 Q 674 111 502 258 Q 501 259 500 259 L 468 282 Q 419 324 361 308 Q 351 304 356 294 Q 363 287 374 286 Q 410 283 455 248 L 485 224 Z" fill="lightgray"></path>
</g>
		<text x="40" y="140" font-size="128" fill="#999999">5</text></g>
</g>
	<g id="id1:id1" transform="translate(0.0,1024)">
		<g id="id1:id0:id0" transform="matrix(1.0,0,0,1.0,0,0.0)">			<g stroke="lightgray" stroke-width="4" transform="scale(4, 4)"> <rect x="0" y="0" width="256" height="256" fill="white" stroke-width="4"/></g>
			<g transform="scale(0.92, -0.92) translate(60, -920)">					<path d="M 106 538 Q 96 542 78 544 Q 68 545 64 541 Q 60 537 67 522 Q 92 473 111 390 Q 114 366 129 350 Q 145 331 150 345 Q 151 354 152 366 L 149 398 Q 131 486 128 512 C 125 532 125 532 106 538 Z" fill="black"></path>
				<path d="M 329 431 Q 345 507 378 535 Q 391 551 378 566 Q 315 609 266 585 Q 253 581 241 574 L 200 561 Q 154 549 106 538 C 77 531 99 506 128 512 Q 138 513 149 518 Q 173 525 201 530 L 240 539 Q 256 545 274 548 Q 290 552 296 547 Q 305 540 303 523 Q 297 477 288 437 C 282 408 322 402 329 431 Z" fill="black"></path>
				<path d="M 236 384 Q 276 394 339 403 Q 349 404 349 413 Q 349 420 329 431 C 312 441 312 441 288 437 Q 260 433 237 421 L 200 410 Q 173 404 149 398 C 120 391 122 361 152 366 Q 155 366 199 376 L 236 384 Z" fill="black"></path>
				<path d="M 232 262 Q 233 325 236 384 L 237 421 Q 238 482 240 539 L 241 574 Q 241 653 261 734 Q 264 744 245 758 Q 211 774 189 779 Q 173 782 166 774 Q 159 767 167 752 Q 197 709 197 679 Q 198 622 200 561 L 201 530 Q 201 472 200 410 L 199 376 Q 198 315 193 247 C 191 217 231 232 232 262 Z" fill="black"></path>
				<path d="M 295 287 Q 264 275 232 262 L 193 247 Q 141 229 88 210 Q 72 203 46 203 Q 34 200 33 191 Q 32 179 41 172 Q 63 159 94 144 Q 104 143 114 151 Q 141 175 280 252 Q 293 259 304 268 C 328 286 323 298 295 287 Z" fill="black"></path>
				<path d="M 304 268 Q 331 210 340 205 Q 347 202 354 209 Q 361 216 364 238 Q 367 268 302 327 Q 293 334 288 334 Q 284 333 281 325 Q 281 316 291 296 Q 292 292 295 287 L 304 268 Z" fill="red"></path>
				<path d="M 711 645 Q 804 699 836 710 Q 852 713 854 720 Q 855 730 844 739 Q 784 770 753 763 Q 747 759 748 749 Q 749 709 575 599 Q 571 590 577 588 Q 622 603 672 627 L 673 627 L 711 645 Z" fill="lightgray"></path>
				<path d="M 730 300 Q 734 379 739 453 L 740 484 Q 743 562 757 610 Q 760 620 743 632 Q 725 642 711 645 C 682 654 657 652 673 627 Q 692 599 693 579 Q 700 447 695 293 C 694 263 728 270 730 300 Z" fill="lightgray"></path>
				<path d="M 739 453 Q 739 454 741 454 Q 810 469 860 479 Q 884 485 874 496 Q 862 509 836 513 Q 797 516 740 484 C 714 469 711 443 739 453 Z" fill="lightgray"></path>
				<path d="M 695 293 Q 638 287 635 288 Q 625 292 627 306 Q 631 370 641 439 Q 645 461 629 478 Q 601 505 580 504 Q 562 504 571 486 Q 599 440 594 394 Q 588 303 578 287 Q 568 271 576 257 Q 589 235 602 235 Q 609 235 629 244 Q 743 277 857 274 Q 876 273 877 283 Q 878 293 846 311 Q 821 324 807 318 Q 792 314 775 309 Q 753 305 730 300 L 695 293 Z" fill="lightgray"></path>
				<path d="M 500 259 Q 546 389 564 401 Q 571 407 565 420 Q 558 429 525 445 Q 516 451 462 437 Q 452 434 447 438 Q 443 445 456 485 Q 478 542 502 586 Q 520 614 537 625 Q 555 638 540 653 Q 512 674 485 677 Q 469 681 453 664 Q 440 654 407 641 Q 370 628 355 630 Q 345 631 340 625 Q 337 618 347 613 Q 384 589 443 617 Q 453 624 457 621 Q 466 609 415 470 Q 411 451 394 433 Q 382 423 387 412 Q 391 402 397 397 Q 409 387 424 398 Q 479 428 494 410 Q 504 388 468 282 L 455 248 Q 410 149 290 60 Q 280 50 288 47 Q 298 46 324 60 Q 436 126 485 224 L 500 259 Z" fill="lightgray"></path>
				<path d="M 485 224 Q 635 74 739 21 Q 779 2 955 36 Q 967 40 970 49 Q 973 58 952 59 Q 894 72 830 83 Q 674 111 502 258 Q 501 259 500 259 L 468 282 Q 419 324 361 308 Q 351 304 356 294 Q 363 287 374 286 Q 410 283 455 248 L 485 224 Z" fill="lightgray"></path>
</g>
		<text x="40" y="140" font-size="128" fill="#999999">6</text></g>
		<g id="id1:id1:id1" transform="matrix(1.0,0,0,1.0,1024,0.0)">			<g stroke="lightgray" stroke-width="4" transform="scale(4, 4)"> <rect x="0" y="0" width="256" height="256" fill="white" stroke-width="4"/></g>
			<g transform="scale(0.92, -0.92) translate(60, -920)">					<path d="M 106 538 Q 96 542 78 544 Q 68 545 64 541 Q 60 537 67 522 Q 92 473 111 390 Q 114 366 129 350 Q 145 331 150 345 Q 151 354 152 366 L 149 398 Q 131 486 128 512 C 125 532 125 532 106 538 Z" fill="black"></path>
				<path d="M 329 431 Q 345 507 378 535 Q 391 551 378 566 Q 315 609 266 585 Q 253 581 241 574 L 200 561 Q 154 549 106 538 C 77 531 99 506 128 512 Q 138 513 149 518 Q 173 525 201 530 L 240 539 Q 256 545 274 548 Q 290 552 296 547 Q 305 540 303 523 Q 297 477 288 437 C 282 408 322 402 329 431 Z" fill="black"></path>
				<path d="M 236 384 Q 276 394 339 403 Q 349 404 349 413 Q 349 420 329 431 C 312 441 312 441 288 437 Q 260 433 237 421 L 200 410 Q 173 404 149 398 C 120 391 122 361 152 366 Q 155 366 199 376 L 236 384 Z" fill="black"></path>
				<path d="M 232 262 Q 233 325 236 384 L 237 421 Q 238 482 240 539 L 241 574 Q 241 653 261 734 Q 264 744 245 758 Q 211 774 189 779 Q 173 782 166 774 Q 159 767 167 752 Q 197 709 197 679 Q 198 622 200 561 L 201 530 Q 201 472 200 410 L 199 376 Q 198 315 193 247 C 191 217 231 232 232 262 Z" fill="black"></path>
				<path d="M 295 287 Q 264 275 232 262 L 193 247 Q 141 229 88 210 Q 72 203 46 203 Q 34 200 33 191 Q 32 179 41 172 Q 63 159 94 144 Q 104 143 114 151 Q 141 175 280 252 Q 293 259 304 268 C 328 286 323 298 295 287 Z" fill="black"></path>
				<path d="M 304 268 Q 331 210 340 205 Q 347 202 354 209 Q 361 216 364 238 Q 367 268 302 327 Q 293 334 288 334 Q 284 333 281 325 Q 281 316 291 296 Q 292 292 295 287 L 304 268 Z" fill="black"></path>
				<path d="M 711 645 Q 804 699 836 710 Q 852 713 854 720 Q 855 730 844 739 Q 784 770 753 763 Q 747 759 748 749 Q 749 709 575 599 Q 571 590 577 588 Q 622 603 672 627 L 673 627 L 711 645 Z" fill="red"></path>
				<path d="M 730 300 Q 734 379 739 453 L 740 484 Q 743 562 757 610 Q 760 620 743 632 Q 725 642 711 645 C 682 654 657 652 673 627 Q 692 599 693 579 Q 700 447 695 293 C 694 263 728 270 730 300 Z" fill="lightgray"></path>
				<path d="M 739 453 Q 739 454 741 454 Q 810 469 860 479 Q 884 485 874 496 Q 862 509 836 513 Q 797 516 740 484 C 714 469 711 443 739 453 Z" fill="lightgray"></path>
				<path d="M 695 293 Q 638 287 635 288 Q 625 292 627 306 Q 631 370 641 439 Q 645 461 629 478 Q 601 505 580 504 Q 562 504 571 486 Q 599 440 594 394 Q 588 303 578 287 Q 568 271 576 257 Q 589 235 602 235 Q 609 235 629 244 Q 743 277 857 274 Q 876 273 877 283 Q 878 293 846 311 Q 821 324 807 318 Q 792 314 775 309 Q 753 305 730 300 L 695 293 Z" fill="lightgray"></path>
				<path d="M 500 259 Q 546 389 564 401 Q 571 407 565 420 Q 558 429 525 445 Q 516 451 462 437 Q 452 434 447 438 Q 443 445 456 485 Q 478 542 502 586 Q 520 614 537 625 Q 555 638 540 653 Q 512 674 485 677 Q 469 681 453 664 Q 440 654 407 641 Q 370 628 355 630 Q 345 631 340 625 Q 337 618 347 613 Q 384 589 443 617 Q 453 624 457 621 Q 466 609 415 470 Q 411 451 394 433 Q 382 423 387 412 Q 391 402 397 397 Q 409 387 424 398 Q 479 428 494 410 Q 504 388 468 282 L 455 248 Q 410 149 290 60 Q 280 50 288 47 Q 298 46 324 60 Q 436 126 485 224 L 500 259 Z" fill="lightgray"></path>
				<path d="M 485 224 Q 635 74 739 21 Q 779 2 955 36 Q 967 40 970 49 Q 973 58 952 59 Q 894 72 830 83 Q 674 111 502 258 Q 501 259 500 259 L 468 282 Q 419 324 361 308 Q 351 304 356 294 Q 363 287 374 286 Q 410 283 455 248 L 485 224 Z" fill="lightgray"></path>
</g>
		<text x="40" y="140" font-size="128" fill="#999999">7</text></g>
		<g id="id1:id2:id2" transform="matrix(1.0,0,0,1.0,2048,0.0)">			<g stroke="lightgray" stroke-width="4" transform="scale(4, 4)"> <rect x="0" y="0" width="256" height="256" fill="white" stroke-width="4"/></g>
			<g transform="scale(0.92, -0.92) translate(60, -920)">					<path d="M 106 538 Q 96 542 78 544 Q 68 545 64 541 Q 60 537 67 522 Q 92 473 111 390 Q 114 366 129 350 Q 145 331 150 345 Q 151 354 152 366 L 149 398 Q 131 486 128 512 C 125 532 125 532 106 538 Z" fill="black"></path>
				<path d="M 329 431 Q 345 507 378 535 Q 391 551 378 566 Q 315 609 266 585 Q 253 581 241 574 L 200 561 Q 154 549 106 538 C 77 531 99 506 128 512 Q 138 513 149 518 Q 173 525 201 530 L 240 539 Q 256 545 274 548 Q 290 552 296 547 Q 305 540 303 523 Q 297 477 288 437 C 282 408 322 402 329 431 Z" fill="black"></path>
				<path d="M 236 384 Q 276 394 339 403 Q 349 404 349 413 Q 349 420 329 431 C 312 441 312 441 288 437 Q 260 433 237 421 L 200 410 Q 173 404 149 398 C 120 391 122 361 152 366 Q 155 366 199 376 L 236 384 Z" fill="black"></path>
				<path d="M 232 262 Q 233 325 236 384 L 237 421 Q 238 482 240 539 L 241 574 Q 241 653 261 734 Q 264 744 245 758 Q 211 774 189 779 Q 173 782 166 774 Q 159 767 167 752 Q 197 709 197 679 Q 198 622 200 561 L 201 530 Q 201 472 200 410 L 199 376 Q 198 315 193 247 C 191 217 231 232 232 262 Z" fill="black"></path>
				<path d="M 295 287 Q 264 275 232 262 L 193 247 Q 141 229 88 210 Q 72 203 46 203 Q 34 200 33 191 Q 32 179 41 172 Q 63 159 94 144 Q 104 143 114 151 Q 141 175 280 252 Q 293 259 304 268 C 328 286 323 298 295 287 Z" fill="black"></path>
				<path d="M 304 268 Q 331 210 340 205 Q 347 202 354 209 Q 361 216 364 238 Q 367 268 302 327 Q 293 334 288 334 Q 284 333 281 325 Q 281 316 291 296 Q 292 292 295 287 L 304 268 Z" fill="black"></path>
				<path d="M 711 645 Q 804 699 836 710 Q 852 713 854 720 Q 855 730 844 739 Q 784 770 753 763 Q 747 759 748 749 Q 749 709 575 599 Q 571 590 577 588 Q 622 603 672 627 L 673 627 L 711 645 Z" fill="black"></path>
				<path d="M 730 300 Q 734 379 739 453 L 740 484 Q 743 562 757 610 Q 760 620 743 632 Q 725 642 711 645 C 682 654 657 652 673 627 Q 692 599 693 579 Q 700 447 695 293 C 694 263 728 270 730 300 Z" fill="red"></path>
				<path d="M 739 453 Q 739 454 741 454 Q 810 469 860 479 Q 884 485 874 496 Q 862 509 836 513 Q 797 516 740 484 C 714 469 711 443 739 453 Z" fill="lightgray"></path>
				<path d="M 695 293 Q 638 287 635 288 Q 625 292 627 306 Q 631 370 641 439 Q 645 461 629 478 Q 601 505 580 504 Q 562 504 571 486 Q 599 440 594 394 Q 588 303 578 287 Q 568 271 576 257 Q 589 235 602 235 Q 609 235 629 244 Q 743 277 857 274 Q 876 273 877 283 Q 878 293 846 311 Q 821 324 807 318 Q 792 314 775 309 Q 753 305 730 300 L 695 293 Z" fill="lightgray"></path>
				<path d="M 500 259 Q 546 389 564 401 Q 571 407 565 420 Q 558 429 525 445 Q 516 451 462 437 Q 452 434 447 438 Q 443 445 456 485 Q 478 542 502 586 Q 520 614 537 625 Q 555 638 540 653 Q 512 674 485 677 Q 469 681 453 664 Q 440 654 407 641 Q 370 628 355 630 Q 345 631 340 625 Q 337 618 347 613 Q 384 589 443 617 Q 453 624 457 621 Q 466 609 415 470 Q 411 451 394 433 Q 382 423 387 412 Q 391 402 397 397 Q 409 387 424 398 Q 479 428 494 410 Q 504 388 468 282 L 455 248 Q 410 149 290 60 Q 280 50 288 47 Q 298 46 324 60 Q 436 126 485 224 L 500 259 Z" fill="lightgray"></path>
				<path d="M 485 224 Q 635 74 739 21 Q 779 2 955 36 Q 967 40 970 49 Q 973 58 952 59 Q 894 72 830 83 Q 674 111 502 258 Q 501 259 500 259 L 468 282 Q 419 324 361 308 Q 351 304 356 294 Q 363 287 374 286 Q 410 283 455 248 L 485 224 Z" fill="lightgray"></path>
</g>
		<text x="40" y="140" font-size="128" fill="#999999">8</text></g>
		<g id="id1:id3:id3" transform="matrix(1.0,0,0,1.0,3072,0.0)">			<g stroke="lightgray" stroke-width="4" transform="scale(4, 4)"> <rect x="0" y="0" width="256" height="256" fill="white" stroke-width="4"/></g>
			<g transform="scale(0.92, -0.92) translate(60, -920)">					<path d="M 106 538 Q 96 542 78 544 Q 68 545 64 541 Q 60 537 67 522 Q 92 473 111 390 Q 114 366 129 350 Q 145 331 150 345 Q 151 354 152 366 L 149 398 Q 131 486 128 512 C 125 532 125 532 106 538 Z" fill="black"></path>
				<path d="M 329 431 Q 345 507 378 535 Q 391 551 378 566 Q 315 609 266 585 Q 253 581 241 574 L 200 561 Q 154 549 106 538 C 77 531 99 506 128 512 Q 138 513 149 518 Q 173 525 201 530 L 240 539 Q 256 545 274 548 Q 290 552 296 547 Q 305 540 303 523 Q 297 477 288 437 C 282 408 322 402 329 431 Z" fill="black"></path>
				<path d="M 236 384 Q 276 394 339 403 Q 349 404 349 413 Q 349 420 329 431 C 312 441 312 441 288 437 Q 260 433 237 421 L 200 410 Q 173 404 149 398 C 120 391 122 361 152 366 Q 155 366 199 376 L 236 384 Z" fill="black"></path>
				<path d="M 232 262 Q 233 325 236 384 L 237 421 Q 238 482 240 539 L 241 574 Q 241 653 261 734 Q 264 744 245 758 Q 211 774 189 779 Q 173 782 166 774 Q 159 767 167 752 Q 197 709 197 679 Q 198 622 200 561 L 201 530 Q 201 472 200 410 L 199 376 Q 198 315 193 247 C 191 217 231 232 232 262 Z" fill="black"></path>
				<path d="M 295 287 Q 264 275 232 262 L 193 247 Q 141 229 88 210 Q 72 203 46 203 Q 34 200 33 191 Q 32 179 41 172 Q 63 159 94 144 Q 104 143 114 151 Q 141 175 280 252 Q 293 259 304 268 C 328 286 323 298 295 287 Z" fill="black"></path>
				<path d="M 304 268 Q 331 210 340 205 Q 347 202 354 209 Q 361 216 364 238 Q 367 268 302 327 Q 293 334 288 334 Q 284 333 281 325 Q 281 316 291 296 Q 292 292 295 287 L 304 268 Z" fill="black"></path>
				<path d="M 711 645 Q 804 699 836 710 Q 852 713 854 720 Q 855 730 844 739 Q 784 770 753 763 Q 747 759 748 749 Q 749 709 575 599 Q 571 590 577 588 Q 622 603 672 627 L 673 627 L 711 645 Z" fill="black"></path>
				<path d="M 730 300 Q 734 379 739 453 L 740 484 Q 743 562 757 610 Q 760 620 743 632 Q 725 642 711 645 C 682 654 657 652 673 627 Q 692 599 693 579 Q 700 447 695 293 C 694 263 728 270 730 300 Z" fill="black"></path>
				<path d="M 739 453 Q 739 454 741 454 Q 810 469 860 479 Q 884 485 874 496 Q 862 509 836 513 Q 797 516 740 484 C 714 469 711 443 739 453 Z" fill="red"></path>
				<path d="M 695 293 Q 638 287 635 288 Q 625 292 627 306 Q 631 370 641 439 Q 645 461 629 478 Q 601 505 580 504 Q 562 504 571 486 Q 599 440 594 394 Q 588 303 578 287 Q 568 271 576 257 Q 589 235 602 235 Q 609 235 629 244 Q 743 277 857 274 Q 876 273 877 283 Q 878 293 846 311 Q 821 324 807 318 Q 792 314 775 309 Q 753 305 730 300 L 695 293 Z" fill="lightgray"></path>
				<path d="M 500 259 Q 546 389 564 401 Q 571 407 565 420 Q 558 429 525 445 Q 516 451 462 437 Q 452 434 447 438 Q 443 445 456 485 Q 478 542 502 586 Q 520 614 537 625 Q 555 638 540 653 Q 512 674 485 677 Q 469 681 453 664 Q 440 654 407 641 Q 370 628 355 630 Q 345 631 340 625 Q 337 618 347 613 Q 384 589 443 617 Q 453 624 457 621 Q 466 609 415 470 Q 411 451 394 433 Q 382 423 387 412 Q 391 402 397 397 Q 409 387 424 398 Q 479 428 494 410 Q 504 388 468 282 L 455 248 Q 410 149 290 60 Q 280 50 288 47 Q 298 46 324 60 Q 436 126 485 224 L 500 259 Z" fill="lightgray"></path>
				<path d="M 485 224 Q 635 74 739 21 Q 779 2 955 36 Q 967 40 970 49 Q 973 58 952 59 Q 894 72 830 83 Q 674 111 502 258 Q 501 259 500 259 L 468 282 Q 419 324 361 308 Q 351 304 356 294 Q 363 287 374 286 Q 410 283 455 248 L 485 224 Z" fill="lightgray"></path>
</g>
		<text x="40" y="140" font-size="128" fill="#999999">9</text></g>
		<g id="id1:id4:id4" transform="matrix(1.0,0,0,1.0,4096,0.0)">			<g stroke="lightgray" stroke-width="4" transform="scale(4, 4)"> <rect x="0" y="0" width="256" height="256" fill="white" stroke-width="4"/></g>
			<g transform="scale(0.92, -0.92) translate(60, -920)">					<path d="M 106 538 Q 96 542 78 544 Q 68 545 64 541 Q 60 537 67 522 Q 92 473 111 390 Q 114 366 129 350 Q 145 331 150 345 Q 151 354 152 366 L 149 398 Q 131 486 128 512 C 125 532 125 532 106 538 Z" fill="black"></path>
				<path d="M 329 431 Q 345 507 378 535 Q 391 551 378 566 Q 315 609 266 585 Q 253 581 241 574 L 200 561 Q 154 549 106 538 C 77 531 99 506 128 512 Q 138 513 149 518 Q 173 525 201 530 L 240 539 Q 256 545 274 548 Q 290 552 296 547 Q 305 540 303 523 Q 297 477 288 437 C 282 408 322 402 329 431 Z" fill="black"></path>
				<path d="M 236 384 Q 276 394 339 403 Q 349 404 349 413 Q 349 420 329 431 C 312 441 312 441 288 437 Q 260 433 237 421 L 200 410 Q 173 404 149 398 C 120 391 122 361 152 366 Q 155 366 199 376 L 236 384 Z" fill="black"></path>
				<path d="M 232 262 Q 233 325 236 384 L 237 421 Q 238 482 240 539 L 241 574 Q 241 653 261 734 Q 264 744 245 758 Q 211 774 189 779 Q 173 782 166 774 Q 159 767 167 752 Q 197 709 197 679 Q 198 622 200 561 L 201 530 Q 201 472 200 410 L 199 376 Q 198 315 193 247 C 191 217 231 232 232 262 Z" fill="black"></path>
				<path d="M 295 287 Q 264 275 232 262 L 193 247 Q 141 229 88 210 Q 72 203 46 203 Q 34 200 33 191 Q 32 179 41 172 Q 63 159 94 144 Q 104 143 114 151 Q 141 175 280 252 Q 293 259 304 268 C 328 286 323 298 295 287 Z" fill="black"></path>
				<path d="M 304 268 Q 331 210 340 205 Q 347 202 354 209 Q 361 216 364 238 Q 367 268 302 327 Q 293 334 288 334 Q 284 333 281 325 Q 281 316 291 296 Q 292 292 295 287 L 304 268 Z" fill="black"></path>
				<path d="M 711 645 Q 804 699 836 710 Q 852 713 854 720 Q 855 730 844 739 Q 784 770 753 763 Q 747 759 748 749 Q 749 709 575 599 Q 571 590 577 588 Q 622 603 672 627 L 673 627 L 711 645 Z" fill="black"></path>
				<path d="M 730 300 Q 734 379 739 453 L 740 484 Q 743 562 757 610 Q 760 620 743 632 Q 725 642 711 645 C 682 654 657 652 673 627 Q 692 599 693 579 Q 700 447 695 293 C 694 263 728 270 730 300 Z" fill="black"></path>
				<path d="M 739 453 Q 739 454 741 454 Q 810 469 860 479 Q 884 485 874 496 Q 862 509 836 513 Q 797 516 740 484 C 714 469 711 443 739 453 Z" fill="black"></path>
				<path d="M 695 293 Q 638 287 635 288 Q 625 292 627 306 Q 631 370 641 439 Q 645 461 629 478 Q 601 505 580 504 Q 562 504 571 486 Q 599 440 594 394 Q 588 303 578 287 Q 568 271 576 257 Q 589 235 602 235 Q 609 235 629 244 Q 743 277 857 274 Q 876 273 877 283 Q 878 293 846 311 Q 821 324 807 318 Q 792 314 775 309 Q 753 305 730 300 L 695 293 Z" fill="red"></path>
				<path d="M 500 259 Q 546 389 564 401 Q 571 407 565 420 Q 558 429 525 445 Q 516 451 462 437 Q 452 434 447 438 Q 443 445 456 485 Q 478 542 502 586 Q 520 614 537 625 Q 555 638 540 653 Q 512 674 485 677 Q 469 681 453 664 Q 440 654 407 641 Q 370 628 355 630 Q 345 631 340 625 Q 337 618 347 613 Q 384 589 443 617 Q 453 624 457 621 Q 466 609 415 470 Q 411 451 394 433 Q 382 423 387 412 Q 391 402 397 397 Q 409 387 424 398 Q 479 428 494 410 Q 504 388 468 282 L 455 248 Q 410 149 290 60 Q 280 50 288 47 Q 298 46 324 60 Q 436 126 485 224 L 500 259 Z" fill="lightgray"></path>
				<path d="M 485 224 Q 635 74 739 21 Q 779 2 955 36 Q 967 40 970 49 Q 973 58 952 59 Q 894 72 830 83 Q 674 111 502 258 Q 501 259 500 259 L 468 282 Q 419 324 361 308 Q 351 304 356 294 Q 363 287 374 286 Q 410 283 455 248 L 485 224 Z" fill="lightgray"></path>
</g>
		<text x="40" y="140" font-size="128" fill="#999999">10</text></g>
</g>
	<g id="id2:id2" transform="translate(0.0,2048)">
		<g id="id2:id0:id0" transform="matrix(1.0,0,0,1.0,0,0.0)">			<g stroke="lightgray" stroke-width="4" transform="scale(4, 4)"> <rect x="0" y="0" width="256" height="256" fill="white" stroke-width="4"/></g>
			<g transform="scale(0.92, -0.92) translate(60, -920)">					<path d="M 106 538 Q 96 542 78 544 Q 68 545 64 541 Q 60 537 67 522 Q 92 473 111 390 Q 114 366 129 350 Q 145 331 150 345 Q 151 354 152 366 L 149 398 Q 131 486 128 512 C 125 532 125 532 106 538 Z" fill="black"></path>
				<path d="M 329 431 Q 345 507 378 535 Q 391 551 378 566 Q 315 609 266 585 Q 253 581 241 574 L 200 561 Q 154 549 106 538 C 77 531 99 506 128 512 Q 138 513 149 518 Q 173 525 201 530 L 240 539 Q 256 545 274 548 Q 290 552 296 547 Q 305 540 303 523 Q 297 477 288 437 C 282 408 322 402 329 431 Z" fill="black"></path>
				<path d="M 236 384 Q 276 394 339 403 Q 349 404 349 413 Q 349 420 329 431 C 312 441 312 441 288 437 Q 260 433 237 421 L 200 410 Q 173 404 149 398 C 120 391 122 361 152 366 Q 155 366 199 376 L 236 384 Z" fill="black"></path>
				<path d="M 232 262 Q 233 325 236 384 L 237 421 Q 238 482 240 539 L 241 574 Q 241 653 261 734 Q 264 744 245 758 Q 211 774 189 779 Q 173 782 166 774 Q 159 767 167 752 Q 197 709 197 679 Q 198 622 200 561 L 201 530 Q 201 472 200 410 L 199 376 Q 198 315 193 247 C 191 217 231 232 232 262 Z" fill="black"></path>
				<path d="M 295 287 Q 264 275 232 262 L 193 247 Q 141 229 88 210 Q 72 203 46 203 Q 34 200 33 191 Q 32 179 41 172 Q 63 159 94 144 Q 104 143 114 151 Q 141 175 280 252 Q 293 259 304 268 C 328 286 323 298 295 287 Z" fill="black"></path>
				<path d="M 304 268 Q 331 210 340 205 Q 347 202 354 209 Q 361 216 364 238 Q 367 268 302 327 Q 293 334 288 334 Q 284 333 281 325 Q 281 316 291 296 Q 292 292 295 287 L 304 268 Z" fill="black"></path>
				<path d="M 711 645 Q 804 699 836 710 Q 852 713 854 720 Q 855 730 844 739 Q 784 770 753 763 Q 747 759 748 749 Q 749 709 575 599 Q 571 590 577 588 Q 622 603 672 627 L 673 627 L 711 645 Z" fill="black"></path>
				<path d="M 730 300 Q 734 379 739 453 L 740 484 Q 743 562 757 610 Q 760 620 743 632 Q 725 642 711 645 C 682 654 657 652 673 627 Q 692 599 693 579 Q 700 447 695 293 C 694 263 728 270 730 300 Z" fill="black"></path>
				<path d="M 739 453 Q 739 454 741 454 Q 810 469 860 479 Q 884 485 874 496 Q 862 509 836 513 Q 797 516 740 484 C 714 469 711 443 739 453 Z" fill="black"></path>
				<path d="M 695 293 Q 638 287 635 288 Q 625 292 627 306 Q 631 370 641 439 Q 645 461 629 478 Q 601 505 580 504 Q 562 504 571 486 Q 599 440 594 394 Q 588 303 578 287 Q 568 271 576 257 Q 589 235 602 235 Q 609 235 629 244 Q 743 277 857 274 Q 876 273 877 283 Q 878 293 846 311 Q 821 324 807 318 Q 792 314 775 309 Q 753 305 730 300 L 695 293 Z" fill="black"></path>
				<path d="M 500 259 Q 546 389 564 401 Q 571 407 565 420 Q 558 429 525 445 Q 516 451 462 437 Q 452 434 447 438 Q 443 445 456 485 Q 478 542 502 586 Q 520 614 537 625 Q 555 638 540 653 Q 512 674 485 677 Q 469 681 453 664 Q 440 654 407 641 Q 370 628 355 630 Q 345 631 340 625 Q 337 618 347 613 Q 384 589 443 617 Q 453 624 457 621 Q 466 609 415 470 Q 411 451 394 433 Q 382 423 387 412 Q 391 402 397 397 Q 409 387 424 398 Q 479 428 494 410 Q 504 388 468 282 L 455 248 Q 410 149 290 60 Q 280 50 288 47 Q 298 46 324 60 Q 436 126 485 224 L 500 259 Z" fill="red"></path>
				<path d="M 485 224 Q 635 74 739 21 Q 779 2 955 36 Q 967 40 970 49 Q 973 58 952 59 Q 894 72 830 83 Q 674 111 502 258 Q 501 259 500 259 L 468 282 Q 419 324 361 308 Q 351 304 356 294 Q 363 287 374 286 Q 410 283 455 248 L 485 224 Z" fill="lightgray"></path>
</g>
		<text x="40" y="140" font-size="128" fill="#999999">11</text></g>
		<g id="id2:id1:id1" transform="matrix(1.0,0,0,1.0,1024,0.0)">			<g stroke="lightgray" stroke-width="4" transform="scale(4, 4)"> <rect x="0" y="0" width="256" height="256" fill="white" stroke-width="4"/></g>
			<g transform="scale(0.92, -0.92) translate(60, -920)">					<path d="M 106 538 Q 96 542 78 544 Q 68 545 64 541 Q 60 537 67 522 Q 92 473 111 390 Q 114 366 129 350 Q 145 331 150 345 Q 151 354 152 366 L 149 398 Q 131 486 128 512 C 125 532 125 532 106 538 Z" fill="black"></path>
				<path d="M 329 431 Q 345 507 378 535 Q 391 551 378 566 Q 315 609 266 585 Q 253 581 241 574 L 200 561 Q 154 549 106 538 C 77 531 99 506 128 512 Q 138 513 149 518 Q 173 525 201 530 L 240 539 Q 256 545 274 548 Q 290 552 296 547 Q 305 540 303 523 Q 297 477 288 437 C 282 408 322 402 329 431 Z" fill="black"></path>
				<path d="M 236 384 Q 276 394 339 403 Q 349 404 349 413 Q 349 420 329 431 C 312 441 312 441 288 437 Q 260 433 237 421 L 200 410 Q 173 404 149 398 C 120 391 122 361 152 366 Q 155 366 199 376 L 236 384 Z" fill="black"></path>
				<path d="M 232 262 Q 233 325 236 384 L 237 421 Q 238 482 240 539 L 241 574 Q 241 653 261 734 Q 264 744 245 758 Q 211 774 189 779 Q 173 782 166 774 Q 159 767 167 752 Q 197 709 197 679 Q 198 622 200 561 L 201 530 Q 201 472 200 410 L 199 376 Q 198 315 193 247 C 191 217 231 232 232 262 Z" fill="black"></path>
				<path d="M 295 287 Q 264 275 232 262 L 193 247 Q 141 229 88 210 Q 72 203 46 203 Q 34 200 33 191 Q 32 179 41 172 Q 63 159 94 144 Q 104 143 114 151 Q 141 175 280 252 Q 293 259 304 268 C 328 286 323 298 295 287 Z" fill="black"></path>
				<path d="M 304 268 Q 331 210 340 205 Q 347 202 354 209 Q 361 216 364 238 Q 367 268 302 327 Q 293 334 288 334 Q 284 333 281 325 Q 281 316 291 296 Q 292 292 295 287 L 304 268 Z" fill="black"></path>
				<path d="M 711 645 Q 804 699 836 710 Q 852 713 854 720 Q 855 730 844 739 Q 784 770 753 763 Q 747 759 748 749 Q 749 709 575 599 Q 571 590 577 588 Q 622 603 672 627 L 673 627 L 711 645 Z" fill="black"></path>
				<path d="M 730 300 Q 734 379 739 453 L 740 484 Q 743 562 757 610 Q 760 620 743 632 Q 725 642 711 645 C 682 654 657 652 673 627 Q 692 599 693 579 Q 700 447 695 293 C 694 263 728 270 730 300 Z" fill="black"></path>
				<path d="M 739 453 Q 739 454 741 454 Q 810 469 860 479 Q 884 485 874 496 Q 862 509 836 513 Q 797 516 740 484 C 714 469 711 443 739 453 Z" fill="black"></path>
				<path d="M 695 293 Q 638 287 635 288 Q 625 292 627 306 Q 631 370 641 439 Q 645 461 629 478 Q 601 505 580 504 Q 562 504 571 486 Q 599 440 594 394 Q 588 303 578 287 Q 568 271 576 257 Q 589 235 602 235 Q 609 235 629 244 Q 743 277 857 274 Q 876 273 877 283 Q 878 293 846 311 Q 821 324 807 318 Q 792 314 775 309 Q 753 305 730 300 L 695 293 Z" fill="black"></path>
				<path d="M 500 259 Q 546 389 564 401 Q 571 407 565 420 Q 558 429 525 445 Q 516 451 462 437 Q 452 434 447 438 Q 443 445 456 485 Q 478 542 502 586 Q 520 614 537 625 Q 555 638 540 653 Q 512 674 485 677 Q 469 681 453 664 Q 440 654 407 641 Q 370 628 355 630 Q 345 631 340 625 Q 337 618 347 613 Q 384 589 443 617 Q 453 624 457 621 Q 466 609 415 470 Q 411 451 394 433 Q 382 423 387 412 Q 391 402 397 397 Q 409 387 424 398 Q 479 428 494 410 Q 504 388 468 282 L 455 248 Q 410 149 290 60 Q 280 50 288 47 Q 298 46 324 60 Q 436 126 485 224 L 500 259 Z" fill="black"></path>
				<path d="M 485 224 Q 635 74 739 21 Q 779 2 955 36 Q 967 40 970 49 Q 973 58 952 59 Q 894 72 830 83 Q 674 111 502 258 Q 501 259 500 259 L 468 282 Q 419 324 361 308 Q 351 304 356 294 Q 363 287 374 286 Q 410 283 455 248 L 485 224 Z" fill="red"></path>
</g>
		<text x="40" y="140" font-size="128" fill="#999999">12</text></g>
		<g id="id2:id2:id2" transform="matrix(1.0,0,0,1.0,2048,0.0)">			<g stroke="white" stroke-width="4" transform="scale(4, 4)"> <rect x="1" y="1" width="255" height="255" fill="white" stroke-width="0"/></g>
</g>
		<g id="id2:id3:id3" transform="matrix(1.0,0,0,1.0,3072,0.0)">			<g stroke="white" stroke-width="4" transform="scale(4, 4)"> <rect x="1" y="1" width="255" height="255" fill="white" stroke-width="0"/></g>
</g>
		<g id="id2:id4:id4" transform="matrix(1.0,0,0,1.0,4096,0.0)">			<g stroke="white" stroke-width="4" transform="scale(4, 4)"> <rect x="1" y="1" width="255" height="255" fill="white" stroke-width="0"/></g>
</g>
</g>
</svg>
