<?xml version="1.0" standalone="no"?>
<!DOCTYPE svg PUBLIC "-//W3C//DTD SVG 1.1//EN"
 "http://www.w3.org/Graphics/SVG/1.1/DTD/svg11.dtd">
<!-- generate by Handict dictionary app com.asnsami.handict -->

<svg xmlns="http://www.w3.org/2000/svg" xmlns:sodipodi="http://sodipodi.sourceforge.net/DTD/sodipodi-0.dtd" version="1.1" width="640" height="256" viewBox="0 0 5120 2048">
	<g id="id0:id0" transform="translate(0.0,0)">
		<g id="id0:id0:id0" transform="matrix(1.0,0,0,1.0,0,0.0)">			<g stroke="lightgray" stroke-width="4" transform="scale(4, 4)"> <rect x="0" y="0" width="256" height="256" fill="white" stroke-width="4"/></g>
			<g transform="scale(0.92, -0.92) translate(60, -920)">					<path d="M 325 766 Q 355 741 387 710 Q 403 694 422 696 Q 435 697 440 713 Q 446 731 434 765 Q 427 787 392 803 Q 311 831 292 824 Q 286 820 288 803 Q 292 790 325 766 Z" fill="red"></path>
				<path d="M 311 374 Q 341 416 374 465 Q 411 526 464 564 Q 480 577 467 592 Q 448 608 416 619 Q 394 629 375 617 Q 285 551 116 537 Q 103 538 100 530 Q 97 518 113 508 Q 155 481 187 486 Q 202 490 332 549 Q 351 556 356 549 Q 362 539 347 514 Q 262 352 68 171 Q 53 161 56 157 Q 59 154 72 159 Q 172 207 284 340 L 311 374 Z" fill="lightgray"></path>
				<path d="M 284 340 Q 314 277 284 102 Q 266 51 303 2 Q 304 2 306 -1 Q 322 -16 334 9 Q 347 48 347 91 Q 343 263 347 303 Q 354 328 345 338 Q 335 350 311 374 C 290 395 273 368 284 340 Z" fill="lightgray"></path>
				<path d="M 445 366 Q 499 417 528 437 Q 541 441 537 450 Q 510 486 481 484 Q 471 483 472 468 Q 476 458 471 445 Q 456 417 429 371 C 414 345 423 345 445 366 Z" fill="lightgray"></path>
				<path d="M 429 371 Q 396 381 388 379 Q 384 375 385 365 Q 388 358 409 341 Q 434 320 462 295 Q 472 285 485 286 Q 494 286 497 297 Q 501 307 494 331 Q 485 358 445 366 L 429 371 Z" fill="lightgray"></path>
				<path d="M 753 789 Q 763 734 663 613 Q 660 612 659 609 Q 631 578 558 516 Q 549 512 560 508 Q 614 508 720 605 Q 721 608 725 610 Q 779 673 833 737 Q 840 741 840 753 Q 839 763 826 776 Q 793 809 761 804 Q 752 803 753 789 Z" fill="lightgray"></path>
				<path d="M 761 556 Q 765 466 573 310 Q 563 304 554 295 Q 545 291 556 287 Q 605 287 717 377 Q 718 380 722 382 Q 759 416 820 490 Q 829 500 834 504 Q 841 508 841 518 Q 838 545 799 562 Q 780 569 769 569 Q 760 568 761 556 Z" fill="lightgray"></path>
				<path d="M 790 341 Q 793 251 643 98 Q 633 91 624 81 Q 576 36 459 -47 Q 449 -51 460 -56 Q 518 -56 654 42 Q 748 121 856 257 Q 869 272 876 278 Q 886 282 885 295 Q 881 328 835 348 Q 813 358 799 357 Q 789 356 790 341 Z" fill="lightgray"></path>
</g>
		<text x="40" y="140" font-size="128" fill="#999999">1</text></g>
		<g id="id0:id1:id1" transform="matrix(1.0,0,0,1.0,1024,0.0)">			<g stroke="lightgray" stroke-width="4" transform="scale(4, 4)"> <rect x="0" y="0" width="256" height="256" fill="white" stroke-width="4"/></g>
			<g transform="scale(0.92, -0.92) translate(60, -920)">					<path d="M 325 766 Q 355 741 387 710 Q 403 694 422 696 Q 435 697 440 713 Q 446 731 434 765 Q 427 787 392 803 Q 311 831 292 824 Q 286 820 288 803 Q 292 790 325 766 Z" fill="black"></path>
				<path d="M 311 374 Q 341 416 374 465 Q 411 526 464 564 Q 480 577 467 592 Q 448 608 416 619 Q 394 629 375 617 Q 285 551 116 537 Q 103 538 100 530 Q 97 518 113 508 Q 155 481 187 486 Q 202 490 332 549 Q 351 556 356 549 Q 362 539 347 514 Q 262 352 68 171 Q 53 161 56 157 Q 59 154 72 159 Q 172 207 284 340 L 311 374 Z" fill="red"></path>
				<path d="M 284 340 Q 314 277 284 102 Q 266 51 303 2 Q 304 2 306 -1 Q 322 -16 334 9 Q 347 48 347 91 Q 343 263 347 303 Q 354 328 345 338 Q 335 350 311 374 C 290 395 273 368 284 340 Z" fill="lightgray"></path>
				<path d="M 445 366 Q 499 417 528 437 Q 541 441 537 450 Q 510 486 481 484 Q 471 483 472 468 Q 476 458 471 445 Q 456 417 429 371 C 414 345 423 345 445 366 Z" fill="lightgray"></path>
				<path d="M 429 371 Q 396 381 388 379 Q 384 375 385 365 Q 388 358 409 341 Q 434 320 462 295 Q 472 285 485 286 Q 494 286 497 297 Q 501 307 494 331 Q 485 358 445 366 L 429 371 Z" fill="lightgray"></path>
				<path d="M 753 789 Q 763 734 663 613 Q 660 612 659 609 Q 631 578 558 516 Q 549 512 560 508 Q 614 508 720 605 Q 721 608 725 610 Q 779 673 833 737 Q 840 741 840 753 Q 839 763 826 776 Q 793 809 761 804 Q 752 803 753 789 Z" fill="lightgray"></path>
				<path d="M 761 556 Q 765 466 573 310 Q 563 304 554 295 Q 545 291 556 287 Q 605 287 717 377 Q 718 380 722 382 Q 759 416 820 490 Q 829 500 834 504 Q 841 508 841 518 Q 838 545 799 562 Q 780 569 769 569 Q 760 568 761 556 Z" fill="lightgray"></path>
				<path d="M 790 341 Q 793 251 643 98 Q 633 91 624 81 Q 576 36 459 -47 Q 449 -51 460 -56 Q 518 -56 654 42 Q 748 121 856 257 Q 869 272 876 278 Q 886 282 885 295 Q 881 328 835 348 Q 813 358 799 357 Q 789 356 790 341 Z" fill="lightgray"></path>
</g>
		<text x="40" y="140" font-size="128" fill="#999999">2</text></g>
		<g id="id0:id2:id2" transform="matrix(1.0,0,0,1.0,2048,0.0)">			<g stroke="lightgray" stroke-width="4" transform="scale(4, 4)"> <rect x="0" y="0" width="256" height="256" fill="white" stroke-width="4"/></g>
			<g transform="scale(0.92, -0.92) translate(60, -920)">					<path d="M 325 766 Q 355 741 387 710 Q 403 694 422 696 Q 435 697 440 713 Q 446 731 434 765 Q 427 787 392 803 Q 311 831 292 824 Q 286 820 288 803 Q 292 790 325 766 Z" fill="black"></path>
				<path d="M 311 374 Q 341 416 374 465 Q 411 526 464 564 Q 480 577 467 592 Q 448 608 416 619 Q 394 629 375 617 Q 285 551 116 537 Q 103 538 100 530 Q 97 518 113 508 Q 155 481 187 486 Q 202 490 332 549 Q 351 556 356 549 Q 362 539 347 514 Q 262 352 68 171 Q 53 161 56 157 Q 59 154 72 159 Q 172 207 284 340 L 311 374 Z" fill="black"></path>
				<path d="M 284 340 Q 314 277 284 102 Q 266 51 303 2 Q 304 2 306 -1 Q 322 -16 334 9 Q 347 48 347 91 Q 343 263 347 303 Q 354 328 345 338 Q 335 350 311 374 C 290 395 273 368 284 340 Z" fill="red"></path>
				<path d="M 445 366 Q 499 417 528 437 Q 541 441 537 450 Q 510 486 481 484 Q 471 483 472 468 Q 476 458 471 445 Q 456 417 429 371 C 414 345 423 345 445 366 Z" fill="lightgray"></path>
				<path d="M 429 371 Q 396 381 388 379 Q 384 375 385 365 Q 388 358 409 341 Q 434 320 462 295 Q 472 285 485 286 Q 494 286 497 297 Q 501 307 494 331 Q 485 358 445 366 L 429 371 Z" fill="lightgray"></path>
				<path d="M 753 789 Q 763 734 663 613 Q 660 612 659 609 Q 631 578 558 516 Q 549 512 560 508 Q 614 508 720 605 Q 721 608 725 610 Q 779 673 833 737 Q 840 741 840 753 Q 839 763 826 776 Q 793 809 761 804 Q 752 803 753 789 Z" fill="lightgray"></path>
				<path d="M 761 556 Q 765 466 573 310 Q 563 304 554 295 Q 545 291 556 287 Q 605 287 717 377 Q 718 380 722 382 Q 759 416 820 490 Q 829 500 834 504 Q 841 508 841 518 Q 838 545 799 562 Q 780 569 769 569 Q 760 568 761 556 Z" fill="lightgray"></path>
				<path d="M 790 341 Q 793 251 643 98 Q 633 91 624 81 Q 576 36 459 -47 Q 449 -51 460 -56 Q 518 -56 654 42 Q 748 121 856 257 Q 869 272 876 278 Q 886 282 885 295 Q 881 328 835 348 Q 813 358 799 357 Q 789 356 790 341 Z" fill="lightgray"></path>
</g>
		<text x="40" y="140" font-size="128" fill="#999999">3</text></g>
		<g id="id0:id3:id3" transform="matrix(1.0,0,0,1.0,3072,0.0)">			<g stroke="lightgray" stroke-width="4" transform="scale(4, 4)"> <rect x="0" y="0" width="256" height="256" fill="white" stroke-width="4"/></g>
			<g transform="scale(0.92, -0.92) translate(60, -920)">					<path d="M 325 766 Q 355 741 387 710 Q 403 694 422 696 Q 435 697 440 713 Q 446 731 434 765 Q 427 787 392 803 Q 311 831 292 824 Q 286 820 288 803 Q 292 790 325 766 Z" fill="black"></path>
				<path d="M 311 374 Q 341 416 374 465 Q 411 526 464 564 Q 480 577 467 592 Q 448 608 416 619 Q 394 629 375 617 Q 285 551 116 537 Q 103 538 100 530 Q 97 518 113 508 Q 155 481 187 486 Q 202 490 332 549 Q 351 556 356 549 Q 362 539 347 514 Q 262 352 68 171 Q 53 161 56 157 Q 59 154 72 159 Q 172 207 284 340 L 311 374 Z" fill="black"></path>
				<path d="M 284 340 Q 314 277 284 102 Q 266 51 303 2 Q 304 2 306 -1 Q 322 -16 334 9 Q 347 48 347 91 Q 343 263 347 303 Q 354 328 345 338 Q 335 350 311 374 C 290 395 273 368 284 340 Z" fill="black"></path>
				<path d="M 445 366 Q 499 417 528 437 Q 541 441 537 450 Q 510 486 481 484 Q 471 483 472 468 Q 476 458 471 445 Q 456 417 429 371 C 414 345 423 345 445 366 Z" fill="red"></path>
				<path d="M 429 371 Q 396 381 388 379 Q 384 375 385 365 Q 388 358 409 341 Q 434 320 462 295 Q 472 285 485 286 Q 494 286 497 297 Q 501 307 494 331 Q 485 358 445 366 L 429 371 Z" fill="lightgray"></path>
				<path d="M 753 789 Q 763 734 663 613 Q 660 612 659 609 Q 631 578 558 516 Q 549 512 560 508 Q 614 508 720 605 Q 721 608 725 610 Q 779 673 833 737 Q 840 741 840 753 Q 839 763 826 776 Q 793 809 761 804 Q 752 803 753 789 Z" fill="lightgray"></path>
				<path d="M 761 556 Q 765 466 573 310 Q 563 304 554 295 Q 545 291 556 287 Q 605 287 717 377 Q 718 380 722 382 Q 759 416 820 490 Q 829 500 834 504 Q 841 508 841 518 Q 838 545 799 562 Q 780 569 769 569 Q 760 568 761 556 Z" fill="lightgray"></path>
				<path d="M 790 341 Q 793 251 643 98 Q 633 91 624 81 Q 576 36 459 -47 Q 449 -51 460 -56 Q 518 -56 654 42 Q 748 121 856 257 Q 869 272 876 278 Q 886 282 885 295 Q 881 328 835 348 Q 813 358 799 357 Q 789 356 790 341 Z" fill="lightgray"></path>
</g>
		<text x="40" y="140" font-size="128" fill="#999999">4</text></g>
		<g id="id0:id4:id4" transform="matrix(1.0,0,0,1.0,4096,0.0)">			<g stroke="lightgray" stroke-width="4" transform="scale(4, 4)"> <rect x="0" y="0" width="256" height="256" fill="white" stroke-width="4"/></g>
			<g transform="scale(0.92, -0.92) translate(60, -920)">					<path d="M 325 766 Q 355 741 387 710 Q 403 694 422 696 Q 435 697 440 713 Q 446 731 434 765 Q 427 787 392 803 Q 311 831 292 824 Q 286 820 288 803 Q 292 790 325 766 Z" fill="black"></path>
				<path d="M 311 374 Q 341 416 374 465 Q 411 526 464 564 Q 480 577 467 592 Q 448 608 416 619 Q 394 629 375 617 Q 285 551 116 537 Q 103 538 100 530 Q 97 518 113 508 Q 155 481 187 486 Q 202 490 332 549 Q 351 556 356 549 Q 362 539 347 514 Q 262 352 68 171 Q 53 161 56 157 Q 59 154 72 159 Q 172 207 284 340 L 311 374 Z" fill="black"></path>
				<path d="M 284 340 Q 314 277 284 102 Q 266 51 303 2 Q 304 2 306 -1 Q 322 -16 334 9 Q 347 48 347 91 Q 343 263 347 303 Q 354 328 345 338 Q 335 350 311 374 C 290 395 273 368 284 340 Z" fill="black"></path>
				<path d="M 445 366 Q 499 417 528 437 Q 541 441 537 450 Q 510 486 481 484 Q 471 483 472 468 Q 476 458 471 445 Q 456 417 429 371 C 414 345 423 345 445 366 Z" fill="black"></path>
				<path d="M 429 371 Q 396 381 388 379 Q 384 375 385 365 Q 388 358 409 341 Q 434 320 462 295 Q 472 285 485 286 Q 494 286 497 297 Q 501 307 494 331 Q 485 358 445 366 L 429 371 Z" fill="red"></path>
				<path d="M 753 789 Q 763 734 663 613 Q 660 612 659 609 Q 631 578 558 516 Q 549 512 560 508 Q 614 508 720 605 Q 721 608 725 610 Q 779 673 833 737 Q 840 741 840 753 Q 839 763 826 776 Q 793 809 761 804 Q 752 803 753 789 Z" fill="lightgray"></path>
				<path d="M 761 556 Q 765 466 573 310 Q 563 304 554 295 Q 545 291 556 287 Q 605 287 717 377 Q 718 380 722 382 Q 759 416 820 490 Q 829 500 834 504 Q 841 508 841 518 Q 838 545 799 562 Q 780 569 769 569 Q 760 568 761 556 Z" fill="lightgray"></path>
				<path d="M 790 341 Q 793 251 643 98 Q 633 91 624 81 Q 576 36 459 -47 Q 449 -51 460 -56 Q 518 -56 654 42 Q 748 121 856 257 Q 869 272 876 278 Q 886 282 885 295 Q 881 328 835 348 Q 813 358 799 357 Q 789 356 790 341 Z" fill="lightgray"></path>
</g>
		<text x="40" y="140" font-size="128" fill="#999999">5</text></g>
</g>
	<g id="id1:id1" transform="translate(0.0,1024)">
		<g id="id1:id0:id0" transform="matrix(1.0,0,0,1.0,0,0.0)">			<g stroke="lightgray" stroke-width="4" transform="scale(4, 4)"> <rect x="0" y="0" width="256" height="256" fill="white" stroke-width="4"/></g>
			<g transform="scale(0.92, -0.92) translate(60, -920)">					<path d="M 325 766 Q 355 741 387 710 Q 403 694 422 696 Q 435 697 440 713 Q 446 731 434 765 Q 427 787 392 803 Q 311 831 292 824 Q 286 820 288 803 Q 292 790 325 766 Z" fill="black"></path>
				<path d="M 311 374 Q 341 416 374 465 Q 411 526 464 564 Q 480 577 467 592 Q 448 608 416 619 Q 394 629 375 617 Q 285 551 116 537 Q 103 538 100 530 Q 97 518 113 508 Q 155 481 187 486 Q 202 490 332 549 Q 351 556 356 549 Q 362 539 347 514 Q 262 352 68 171 Q 53 161 56 157 Q 59 154 72 159 Q 172 207 284 340 L 311 374 Z" fill="black"></path>
				<path d="M 284 340 Q 314 277 284 102 Q 266 51 303 2 Q 304 2 306 -1 Q 322 -16 334 9 Q 347 48 347 91 Q 343 263 347 303 Q 354 328 345 338 Q 335 350 311 374 C 290 395 273 368 284 340 Z" fill="black"></path>
				<path d="M 445 366 Q 499 417 528 437 Q 541 441 537 450 Q 510 486 481 484 Q 471 483 472 468 Q 476 458 471 445 Q 456 417 429 371 C 414 345 423 345 445 366 Z" fill="black"></path>
				<path d="M 429 371 Q 396 381 388 379 Q 384 375 385 365 Q 388 358 409 341 Q 434 320 462 295 Q 472 285 485 286 Q 494 286 497 297 Q 501 307 494 331 Q 485 358 445 366 L 429 371 Z" fill="black"></path>
				<path d="M 753 789 Q 763 734 663 613 Q 660 612 659 609 Q 631 578 558 516 Q 549 512 560 508 Q 614 508 720 605 Q 721 608 725 610 Q 779 673 833 737 Q 840 741 840 753 Q 839 763 826 776 Q 793 809 761 804 Q 752 803 753 789 Z" fill="red"></path>
				<path d="M 761 556 Q 765 466 573 310 Q 563 304 554 295 Q 545 291 556 287 Q 605 287 717 377 Q 718 380 722 382 Q 759 416 820 490 Q 829 500 834 504 Q 841 508 841 518 Q 838 545 799 562 Q 780 569 769 569 Q 760 568 761 556 Z" fill="lightgray"></path>
				<path d="M 790 341 Q 793 251 643 98 Q 633 91 624 81 Q 576 36 459 -47 Q 449 -51 460 -56 Q 518 -56 654 42 Q 748 121 856 257 Q 869 272 876 278 Q 886 282 885 295 Q 881 328 835 348 Q 813 358 799 357 Q 789 356 790 341 Z" fill="lightgray"></path>
</g>
		<text x="40" y="140" font-size="128" fill="#999999">6</text></g>
		<g id="id1:id1:id1" transform="matrix(1.0,0,0,1.0,1024,0.0)">			<g stroke="lightgray" stroke-width="4" transform="scale(4, 4)"> <rect x="0" y="0" width="256" height="256" fill="white" stroke-width="4"/></g>
			<g transform="scale(0.92, -0.92) translate(60, -920)">					<path d="M 325 766 Q 355 741 387 710 Q 403 694 422 696 Q 435 697 440 713 Q 446 731 434 765 Q 427 787 392 803 Q 311 831 292 824 Q 286 820 288 803 Q 292 790 325 766 Z" fill="black"></path>
				<path d="M 311 374 Q 341 416 374 465 Q 411 526 464 564 Q 480 577 467 592 Q 448 608 416 619 Q 394 629 375 617 Q 285 551 116 537 Q 103 538 100 530 Q 97 518 113 508 Q 155 481 187 486 Q 202 490 332 549 Q 351 556 356 549 Q 362 539 347 514 Q 262 352 68 171 Q 53 161 56 157 Q 59 154 72 159 Q 172 207 284 340 L 311 374 Z" fill="black"></path>
				<path d="M 284 340 Q 314 277 284 102 Q 266 51 303 2 Q 304 2 306 -1 Q 322 -16 334 9 Q 347 48 347 91 Q 343 263 347 303 Q 354 328 345 338 Q 335 350 311 374 C 290 395 273 368 284 340 Z" fill="black"></path>
				<path d="M 445 366 Q 499 417 528 437 Q 541 441 537 450 Q 510 486 481 484 Q 471 483 472 468 Q 476 458 471 445 Q 456 417 429 371 C 414 345 423 345 445 366 Z" fill="black"></path>
				<path d="M 429 371 Q 396 381 388 379 Q 384 375 385 365 Q 388 358 409 341 Q 434 320 462 295 Q 472 285 485 286 Q 494 286 497 297 Q 501 307 494 331 Q 485 358 445 366 L 429 371 Z" fill="black"></path>
				<path d="M 753 789 Q 763 734 663 613 Q 660 612 659 609 Q 631 578 558 516 Q 549 512 560 508 Q 614 508 720 605 Q 721 608 725 610 Q 779 673 833 737 Q 840 741 840 753 Q 839 763 826 776 Q 793 809 761 804 Q 752 803 753 789 Z" fill="black"></path>
				<path d="M 761 556 Q 765 466 573 310 Q 563 304 554 295 Q 545 291 556 287 Q 605 287 717 377 Q 718 380 722 382 Q 759 416 820 490 Q 829 500 834 504 Q 841 508 841 518 Q 838 545 799 562 Q 780 569 769 569 Q 760 568 761 556 Z" fill="red"></path>
				<path d="M 790 341 Q 793 251 643 98 Q 633 91 624 81 Q 576 36 459 -47 Q 449 -51 460 -56 Q 518 -56 654 42 Q 748 121 856 257 Q 869 272 876 278 Q 886 282 885 295 Q 881 328 835 348 Q 813 358 799 357 Q 789 356 790 341 Z" fill="lightgray"></path>
</g>
		<text x="40" y="140" font-size="128" fill="#999999">7</text></g>
		<g id="id1:id2:id2" transform="matrix(1.0,0,0,1.0,2048,0.0)">			<g stroke="lightgray" stroke-width="4" transform="scale(4, 4)"> <rect x="0" y="0" width="256" height="256" fill="white" stroke-width="4"/></g>
			<g transform="scale(0.92, -0.92) translate(60, -920)">					<path d="M 325 766 Q 355 741 387 710 Q 403 694 422 696 Q 435 697 440 713 Q 446 731 434 765 Q 427 787 392 803 Q 311 831 292 824 Q 286 820 288 803 Q 292 790 325 766 Z" fill="black"></path>
				<path d="M 311 374 Q 341 416 374 465 Q 411 526 464 564 Q 480 577 467 592 Q 448 608 416 619 Q 394 629 375 617 Q 285 551 116 537 Q 103 538 100 530 Q 97 518 113 508 Q 155 481 187 486 Q 202 490 332 549 Q 351 556 356 549 Q 362 539 347 514 Q 262 352 68 171 Q 53 161 56 157 Q 59 154 72 159 Q 172 207 284 340 L 311 374 Z" fill="black"></path>
				<path d="M 284 340 Q 314 277 284 102 Q 266 51 303 2 Q 304 2 306 -1 Q 322 -16 334 9 Q 347 48 347 91 Q 343 263 347 303 Q 354 328 345 338 Q 335 350 311 374 C 290 395 273 368 284 340 Z" fill="black"></path>
				<path d="M 445 366 Q 499 417 528 437 Q 541 441 537 450 Q 510 486 481 484 Q 471 483 472 468 Q 476 458 471 445 Q 456 417 429 371 C 414 345 423 345 445 366 Z" fill="black"></path>
				<path d="M 429 371 Q 396 381 388 379 Q 384 375 385 365 Q 388 358 409 341 Q 434 320 462 295 Q 472 285 485 286 Q 494 286 497 297 Q 501 307 494 331 Q 485 358 445 366 L 429 371 Z" fill="black"></path>
				<path d="M 753 789 Q 763 734 663 613 Q 660 612 659 609 Q 631 578 558 516 Q 549 512 560 508 Q 614 508 720 605 Q 721 608 725 610 Q 779 673 833 737 Q 840 741 840 753 Q 839 763 826 776 Q 793 809 761 804 Q 752 803 753 789 Z" fill="black"></path>
				<path d="M 761 556 Q 765 466 573 310 Q 563 304 554 295 Q 545 291 556 287 Q 605 287 717 377 Q 718 380 722 382 Q 759 416 820 490 Q 829 500 834 504 Q 841 508 841 518 Q 838 545 799 562 Q 780 569 769 569 Q 760 568 761 556 Z" fill="black"></path>
				<path d="M 790 341 Q 793 251 643 98 Q 633 91 624 81 Q 576 36 459 -47 Q 449 -51 460 -56 Q 518 -56 654 42 Q 748 121 856 257 Q 869 272 876 278 Q 886 282 885 295 Q 881 328 835 348 Q 813 358 799 357 Q 789 356 790 341 Z" fill="red"></path>
</g>
		<text x="40" y="140" font-size="128" fill="#999999">8</text></g>
		<g id="id1:id3:id3" transform="matrix(1.0,0,0,1.0,3072,0.0)">			<g stroke="white" stroke-width="4" transform="scale(4, 4)"> <rect x="1" y="1" width="255" height="255" fill="white" stroke-width="0"/></g>
</g>
		<g id="id1:id4:id4" transform="matrix(1.0,0,0,1.0,4096,0.0)">			<g stroke="white" stroke-width="4" transform="scale(4, 4)"> <rect x="1" y="1" width="255" height="255" fill="white" stroke-width="0"/></g>
</g>
</g>
</svg>
