<?xml version="1.0" standalone="no"?>
<!DOCTYPE svg PUBLIC "-//W3C//DTD SVG 1.1//EN"
 "http://www.w3.org/Graphics/SVG/1.1/DTD/svg11.dtd">
<!-- generate by Handict dictionary app com.asnsami.handict -->

<svg xmlns="http://www.w3.org/2000/svg" xmlns:sodipodi="http://sodipodi.sourceforge.net/DTD/sodipodi-0.dtd" version="1.1" width="640" height="256" viewBox="0 0 5120 2048">
	<g id="id0:id0" transform="translate(0.0,0)">
		<g id="id0:id0:id0" transform="matrix(1.0,0,0,1.0,0,0.0)">			<g stroke="lightgray" stroke-width="4" transform="scale(4, 4)"> <rect x="0" y="0" width="256" height="256" fill="white" stroke-width="4"/></g>
			<g transform="scale(0.92, -0.92) translate(60, -920)">					<path d="M 269 758 Q 294 734 321 705 Q 336 689 354 690 Q 366 690 372 705 Q 379 721 369 756 Q 360 789 265 813 Q 247 817 240 815 Q 234 811 235 796 Q 239 783 269 758 Z" fill="red"></path>
				<path d="M 260 378 Q 287 417 316 464 Q 346 516 389 551 Q 402 563 390 576 Q 371 589 342 598 Q 320 605 304 593 Q 238 542 109 523 Q 97 524 95 516 Q 94 507 107 498 Q 146 474 183 487 Q 286 539 290 537 L 291 536 Q 297 527 286 506 Q 217 364 67 208 Q 54 196 56 193 Q 59 190 71 196 Q 146 233 235 343 L 260 378 Z" fill="lightgray"></path>
				<path d="M 235 343 Q 263 277 229 105 Q 208 77 243 13 Q 246 9 250 3 Q 266 -12 278 13 Q 291 52 291 95 Q 292 264 299 303 Q 306 328 297 338 Q 267 374 260 378 C 238 398 225 371 235 343 Z" fill="lightgray"></path>
				<path d="M 359 376 Q 408 419 432 437 Q 445 443 441 450 Q 434 462 418 473 Q 402 485 385 484 Q 373 483 377 467 Q 380 455 345 384 C 332 357 336 356 359 376 Z" fill="lightgray"></path>
				<path d="M 345 384 Q 315 400 308 398 Q 304 397 304 387 L 371 304 Q 378 294 390 293 Q 397 292 402 301 Q 406 311 403 331 Q 402 350 377 367 Q 368 373 359 376 L 345 384 Z" fill="lightgray"></path>
				<path d="M 774 405 Q 801 486 835 513 Q 853 532 837 550 Q 762 611 700 580 Q 664 568 629 559 L 584 549 Q 532 540 480 534 Q 462 533 464 523 Q 467 514 486 507 Q 511 497 549 507 Q 565 511 582 513 L 627 521 Q 726 543 737 533 Q 747 523 744 505 Q 734 444 719 395 C 711 366 764 377 774 405 Z" fill="lightgray"></path>
				<path d="M 615 347 Q 687 365 918 366 Q 934 367 939 374 Q 943 384 929 396 Q 880 432 823 415 Q 799 411 774 405 L 719 395 Q 677 392 618 379 L 571 373 Q 507 366 438 355 Q 420 354 434 339 Q 446 327 462 322 Q 480 318 493 322 Q 527 332 566 339 L 615 347 Z" fill="lightgray"></path>
				<path d="M 614 343 Q 614 346 615 347 L 618 379 Q 619 404 622 429 Q 623 475 627 521 L 629 559 Q 632 703 656 751 Q 663 766 653 778 Q 631 796 592 807 Q 567 813 559 806 Q 550 799 558 787 Q 580 751 583 705 Q 586 626 584 549 L 582 513 Q 582 501 571 373 L 566 339 Q 541 210 463 136 Q 426 103 372 70 Q 360 63 360 59 Q 361 55 373 55 Q 389 51 427 66 Q 568 115 608 307 L 614 343 Z" fill="lightgray"></path>
				<path d="M 608 307 Q 681 193 777 71 Q 795 50 826 50 Q 932 50 965 54 Q 975 55 976 61 Q 977 65 963 74 Q 828 134 761 191 Q 692 255 614 343 C 594 365 592 332 608 307 Z" fill="lightgray"></path>
</g>
		<text x="40" y="140" font-size="128" fill="#999999">1</text></g>
		<g id="id0:id1:id1" transform="matrix(1.0,0,0,1.0,1024,0.0)">			<g stroke="lightgray" stroke-width="4" transform="scale(4, 4)"> <rect x="0" y="0" width="256" height="256" fill="white" stroke-width="4"/></g>
			<g transform="scale(0.92, -0.92) translate(60, -920)">					<path d="M 269 758 Q 294 734 321 705 Q 336 689 354 690 Q 366 690 372 705 Q 379 721 369 756 Q 360 789 265 813 Q 247 817 240 815 Q 234 811 235 796 Q 239 783 269 758 Z" fill="black"></path>
				<path d="M 260 378 Q 287 417 316 464 Q 346 516 389 551 Q 402 563 390 576 Q 371 589 342 598 Q 320 605 304 593 Q 238 542 109 523 Q 97 524 95 516 Q 94 507 107 498 Q 146 474 183 487 Q 286 539 290 537 L 291 536 Q 297 527 286 506 Q 217 364 67 208 Q 54 196 56 193 Q 59 190 71 196 Q 146 233 235 343 L 260 378 Z" fill="red"></path>
				<path d="M 235 343 Q 263 277 229 105 Q 208 77 243 13 Q 246 9 250 3 Q 266 -12 278 13 Q 291 52 291 95 Q 292 264 299 303 Q 306 328 297 338 Q 267 374 260 378 C 238 398 225 371 235 343 Z" fill="lightgray"></path>
				<path d="M 359 376 Q 408 419 432 437 Q 445 443 441 450 Q 434 462 418 473 Q 402 485 385 484 Q 373 483 377 467 Q 380 455 345 384 C 332 357 336 356 359 376 Z" fill="lightgray"></path>
				<path d="M 345 384 Q 315 400 308 398 Q 304 397 304 387 L 371 304 Q 378 294 390 293 Q 397 292 402 301 Q 406 311 403 331 Q 402 350 377 367 Q 368 373 359 376 L 345 384 Z" fill="lightgray"></path>
				<path d="M 774 405 Q 801 486 835 513 Q 853 532 837 550 Q 762 611 700 580 Q 664 568 629 559 L 584 549 Q 532 540 480 534 Q 462 533 464 523 Q 467 514 486 507 Q 511 497 549 507 Q 565 511 582 513 L 627 521 Q 726 543 737 533 Q 747 523 744 505 Q 734 444 719 395 C 711 366 764 377 774 405 Z" fill="lightgray"></path>
				<path d="M 615 347 Q 687 365 918 366 Q 934 367 939 374 Q 943 384 929 396 Q 880 432 823 415 Q 799 411 774 405 L 719 395 Q 677 392 618 379 L 571 373 Q 507 366 438 355 Q 420 354 434 339 Q 446 327 462 322 Q 480 318 493 322 Q 527 332 566 339 L 615 347 Z" fill="lightgray"></path>
				<path d="M 614 343 Q 614 346 615 347 L 618 379 Q 619 404 622 429 Q 623 475 627 521 L 629 559 Q 632 703 656 751 Q 663 766 653 778 Q 631 796 592 807 Q 567 813 559 806 Q 550 799 558 787 Q 580 751 583 705 Q 586 626 584 549 L 582 513 Q 582 501 571 373 L 566 339 Q 541 210 463 136 Q 426 103 372 70 Q 360 63 360 59 Q 361 55 373 55 Q 389 51 427 66 Q 568 115 608 307 L 614 343 Z" fill="lightgray"></path>
				<path d="M 608 307 Q 681 193 777 71 Q 795 50 826 50 Q 932 50 965 54 Q 975 55 976 61 Q 977 65 963 74 Q 828 134 761 191 Q 692 255 614 343 C 594 365 592 332 608 307 Z" fill="lightgray"></path>
</g>
		<text x="40" y="140" font-size="128" fill="#999999">2</text></g>
		<g id="id0:id2:id2" transform="matrix(1.0,0,0,1.0,2048,0.0)">			<g stroke="lightgray" stroke-width="4" transform="scale(4, 4)"> <rect x="0" y="0" width="256" height="256" fill="white" stroke-width="4"/></g>
			<g transform="scale(0.92, -0.92) translate(60, -920)">					<path d="M 269 758 Q 294 734 321 705 Q 336 689 354 690 Q 366 690 372 705 Q 379 721 369 756 Q 360 789 265 813 Q 247 817 240 815 Q 234 811 235 796 Q 239 783 269 758 Z" fill="black"></path>
				<path d="M 260 378 Q 287 417 316 464 Q 346 516 389 551 Q 402 563 390 576 Q 371 589 342 598 Q 320 605 304 593 Q 238 542 109 523 Q 97 524 95 516 Q 94 507 107 498 Q 146 474 183 487 Q 286 539 290 537 L 291 536 Q 297 527 286 506 Q 217 364 67 208 Q 54 196 56 193 Q 59 190 71 196 Q 146 233 235 343 L 260 378 Z" fill="black"></path>
				<path d="M 235 343 Q 263 277 229 105 Q 208 77 243 13 Q 246 9 250 3 Q 266 -12 278 13 Q 291 52 291 95 Q 292 264 299 303 Q 306 328 297 338 Q 267 374 260 378 C 238 398 225 371 235 343 Z" fill="red"></path>
				<path d="M 359 376 Q 408 419 432 437 Q 445 443 441 450 Q 434 462 418 473 Q 402 485 385 484 Q 373 483 377 467 Q 380 455 345 384 C 332 357 336 356 359 376 Z" fill="lightgray"></path>
				<path d="M 345 384 Q 315 400 308 398 Q 304 397 304 387 L 371 304 Q 378 294 390 293 Q 397 292 402 301 Q 406 311 403 331 Q 402 350 377 367 Q 368 373 359 376 L 345 384 Z" fill="lightgray"></path>
				<path d="M 774 405 Q 801 486 835 513 Q 853 532 837 550 Q 762 611 700 580 Q 664 568 629 559 L 584 549 Q 532 540 480 534 Q 462 533 464 523 Q 467 514 486 507 Q 511 497 549 507 Q 565 511 582 513 L 627 521 Q 726 543 737 533 Q 747 523 744 505 Q 734 444 719 395 C 711 366 764 377 774 405 Z" fill="lightgray"></path>
				<path d="M 615 347 Q 687 365 918 366 Q 934 367 939 374 Q 943 384 929 396 Q 880 432 823 415 Q 799 411 774 405 L 719 395 Q 677 392 618 379 L 571 373 Q 507 366 438 355 Q 420 354 434 339 Q 446 327 462 322 Q 480 318 493 322 Q 527 332 566 339 L 615 347 Z" fill="lightgray"></path>
				<path d="M 614 343 Q 614 346 615 347 L 618 379 Q 619 404 622 429 Q 623 475 627 521 L 629 559 Q 632 703 656 751 Q 663 766 653 778 Q 631 796 592 807 Q 567 813 559 806 Q 550 799 558 787 Q 580 751 583 705 Q 586 626 584 549 L 582 513 Q 582 501 571 373 L 566 339 Q 541 210 463 136 Q 426 103 372 70 Q 360 63 360 59 Q 361 55 373 55 Q 389 51 427 66 Q 568 115 608 307 L 614 343 Z" fill="lightgray"></path>
				<path d="M 608 307 Q 681 193 777 71 Q 795 50 826 50 Q 932 50 965 54 Q 975 55 976 61 Q 977 65 963 74 Q 828 134 761 191 Q 692 255 614 343 C 594 365 592 332 608 307 Z" fill="lightgray"></path>
</g>
		<text x="40" y="140" font-size="128" fill="#999999">3</text></g>
		<g id="id0:id3:id3" transform="matrix(1.0,0,0,1.0,3072,0.0)">			<g stroke="lightgray" stroke-width="4" transform="scale(4, 4)"> <rect x="0" y="0" width="256" height="256" fill="white" stroke-width="4"/></g>
			<g transform="scale(0.92, -0.92) translate(60, -920)">					<path d="M 269 758 Q 294 734 321 705 Q 336 689 354 690 Q 366 690 372 705 Q 379 721 369 756 Q 360 789 265 813 Q 247 817 240 815 Q 234 811 235 796 Q 239 783 269 758 Z" fill="black"></path>
				<path d="M 260 378 Q 287 417 316 464 Q 346 516 389 551 Q 402 563 390 576 Q 371 589 342 598 Q 320 605 304 593 Q 238 542 109 523 Q 97 524 95 516 Q 94 507 107 498 Q 146 474 183 487 Q 286 539 290 537 L 291 536 Q 297 527 286 506 Q 217 364 67 208 Q 54 196 56 193 Q 59 190 71 196 Q 146 233 235 343 L 260 378 Z" fill="black"></path>
				<path d="M 235 343 Q 263 277 229 105 Q 208 77 243 13 Q 246 9 250 3 Q 266 -12 278 13 Q 291 52 291 95 Q 292 264 299 303 Q 306 328 297 338 Q 267 374 260 378 C 238 398 225 371 235 343 Z" fill="black"></path>
				<path d="M 359 376 Q 408 419 432 437 Q 445 443 441 450 Q 434 462 418 473 Q 402 485 385 484 Q 373 483 377 467 Q 380 455 345 384 C 332 357 336 356 359 376 Z" fill="red"></path>
				<path d="M 345 384 Q 315 400 308 398 Q 304 397 304 387 L 371 304 Q 378 294 390 293 Q 397 292 402 301 Q 406 311 403 331 Q 402 350 377 367 Q 368 373 359 376 L 345 384 Z" fill="lightgray"></path>
				<path d="M 774 405 Q 801 486 835 513 Q 853 532 837 550 Q 762 611 700 580 Q 664 568 629 559 L 584 549 Q 532 540 480 534 Q 462 533 464 523 Q 467 514 486 507 Q 511 497 549 507 Q 565 511 582 513 L 627 521 Q 726 543 737 533 Q 747 523 744 505 Q 734 444 719 395 C 711 366 764 377 774 405 Z" fill="lightgray"></path>
				<path d="M 615 347 Q 687 365 918 366 Q 934 367 939 374 Q 943 384 929 396 Q 880 432 823 415 Q 799 411 774 405 L 719 395 Q 677 392 618 379 L 571 373 Q 507 366 438 355 Q 420 354 434 339 Q 446 327 462 322 Q 480 318 493 322 Q 527 332 566 339 L 615 347 Z" fill="lightgray"></path>
				<path d="M 614 343 Q 614 346 615 347 L 618 379 Q 619 404 622 429 Q 623 475 627 521 L 629 559 Q 632 703 656 751 Q 663 766 653 778 Q 631 796 592 807 Q 567 813 559 806 Q 550 799 558 787 Q 580 751 583 705 Q 586 626 584 549 L 582 513 Q 582 501 571 373 L 566 339 Q 541 210 463 136 Q 426 103 372 70 Q 360 63 360 59 Q 361 55 373 55 Q 389 51 427 66 Q 568 115 608 307 L 614 343 Z" fill="lightgray"></path>
				<path d="M 608 307 Q 681 193 777 71 Q 795 50 826 50 Q 932 50 965 54 Q 975 55 976 61 Q 977 65 963 74 Q 828 134 761 191 Q 692 255 614 343 C 594 365 592 332 608 307 Z" fill="lightgray"></path>
</g>
		<text x="40" y="140" font-size="128" fill="#999999">4</text></g>
		<g id="id0:id4:id4" transform="matrix(1.0,0,0,1.0,4096,0.0)">			<g stroke="lightgray" stroke-width="4" transform="scale(4, 4)"> <rect x="0" y="0" width="256" height="256" fill="white" stroke-width="4"/></g>
			<g transform="scale(0.92, -0.92) translate(60, -920)">					<path d="M 269 758 Q 294 734 321 705 Q 336 689 354 690 Q 366 690 372 705 Q 379 721 369 756 Q 360 789 265 813 Q 247 817 240 815 Q 234 811 235 796 Q 239 783 269 758 Z" fill="black"></path>
				<path d="M 260 378 Q 287 417 316 464 Q 346 516 389 551 Q 402 563 390 576 Q 371 589 342 598 Q 320 605 304 593 Q 238 542 109 523 Q 97 524 95 516 Q 94 507 107 498 Q 146 474 183 487 Q 286 539 290 537 L 291 536 Q 297 527 286 506 Q 217 364 67 208 Q 54 196 56 193 Q 59 190 71 196 Q 146 233 235 343 L 260 378 Z" fill="black"></path>
				<path d="M 235 343 Q 263 277 229 105 Q 208 77 243 13 Q 246 9 250 3 Q 266 -12 278 13 Q 291 52 291 95 Q 292 264 299 303 Q 306 328 297 338 Q 267 374 260 378 C 238 398 225 371 235 343 Z" fill="black"></path>
				<path d="M 359 376 Q 408 419 432 437 Q 445 443 441 450 Q 434 462 418 473 Q 402 485 385 484 Q 373 483 377 467 Q 380 455 345 384 C 332 357 336 356 359 376 Z" fill="black"></path>
				<path d="M 345 384 Q 315 400 308 398 Q 304 397 304 387 L 371 304 Q 378 294 390 293 Q 397 292 402 301 Q 406 311 403 331 Q 402 350 377 367 Q 368 373 359 376 L 345 384 Z" fill="red"></path>
				<path d="M 774 405 Q 801 486 835 513 Q 853 532 837 550 Q 762 611 700 580 Q 664 568 629 559 L 584 549 Q 532 540 480 534 Q 462 533 464 523 Q 467 514 486 507 Q 511 497 549 507 Q 565 511 582 513 L 627 521 Q 726 543 737 533 Q 747 523 744 505 Q 734 444 719 395 C 711 366 764 377 774 405 Z" fill="lightgray"></path>
				<path d="M 615 347 Q 687 365 918 366 Q 934 367 939 374 Q 943 384 929 396 Q 880 432 823 415 Q 799 411 774 405 L 719 395 Q 677 392 618 379 L 571 373 Q 507 366 438 355 Q 420 354 434 339 Q 446 327 462 322 Q 480 318 493 322 Q 527 332 566 339 L 615 347 Z" fill="lightgray"></path>
				<path d="M 614 343 Q 614 346 615 347 L 618 379 Q 619 404 622 429 Q 623 475 627 521 L 629 559 Q 632 703 656 751 Q 663 766 653 778 Q 631 796 592 807 Q 567 813 559 806 Q 550 799 558 787 Q 580 751 583 705 Q 586 626 584 549 L 582 513 Q 582 501 571 373 L 566 339 Q 541 210 463 136 Q 426 103 372 70 Q 360 63 360 59 Q 361 55 373 55 Q 389 51 427 66 Q 568 115 608 307 L 614 343 Z" fill="lightgray"></path>
				<path d="M 608 307 Q 681 193 777 71 Q 795 50 826 50 Q 932 50 965 54 Q 975 55 976 61 Q 977 65 963 74 Q 828 134 761 191 Q 692 255 614 343 C 594 365 592 332 608 307 Z" fill="lightgray"></path>
</g>
		<text x="40" y="140" font-size="128" fill="#999999">5</text></g>
</g>
	<g id="id1:id1" transform="translate(0.0,1024)">
		<g id="id1:id0:id0" transform="matrix(1.0,0,0,1.0,0,0.0)">			<g stroke="lightgray" stroke-width="4" transform="scale(4, 4)"> <rect x="0" y="0" width="256" height="256" fill="white" stroke-width="4"/></g>
			<g transform="scale(0.92, -0.92) translate(60, -920)">					<path d="M 269 758 Q 294 734 321 705 Q 336 689 354 690 Q 366 690 372 705 Q 379 721 369 756 Q 360 789 265 813 Q 247 817 240 815 Q 234 811 235 796 Q 239 783 269 758 Z" fill="black"></path>
				<path d="M 260 378 Q 287 417 316 464 Q 346 516 389 551 Q 402 563 390 576 Q 371 589 342 598 Q 320 605 304 593 Q 238 542 109 523 Q 97 524 95 516 Q 94 507 107 498 Q 146 474 183 487 Q 286 539 290 537 L 291 536 Q 297 527 286 506 Q 217 364 67 208 Q 54 196 56 193 Q 59 190 71 196 Q 146 233 235 343 L 260 378 Z" fill="black"></path>
				<path d="M 235 343 Q 263 277 229 105 Q 208 77 243 13 Q 246 9 250 3 Q 266 -12 278 13 Q 291 52 291 95 Q 292 264 299 303 Q 306 328 297 338 Q 267 374 260 378 C 238 398 225 371 235 343 Z" fill="black"></path>
				<path d="M 359 376 Q 408 419 432 437 Q 445 443 441 450 Q 434 462 418 473 Q 402 485 385 484 Q 373 483 377 467 Q 380 455 345 384 C 332 357 336 356 359 376 Z" fill="black"></path>
				<path d="M 345 384 Q 315 400 308 398 Q 304 397 304 387 L 371 304 Q 378 294 390 293 Q 397 292 402 301 Q 406 311 403 331 Q 402 350 377 367 Q 368 373 359 376 L 345 384 Z" fill="black"></path>
				<path d="M 774 405 Q 801 486 835 513 Q 853 532 837 550 Q 762 611 700 580 Q 664 568 629 559 L 584 549 Q 532 540 480 534 Q 462 533 464 523 Q 467 514 486 507 Q 511 497 549 507 Q 565 511 582 513 L 627 521 Q 726 543 737 533 Q 747 523 744 505 Q 734 444 719 395 C 711 366 764 377 774 405 Z" fill="red"></path>
				<path d="M 615 347 Q 687 365 918 366 Q 934 367 939 374 Q 943 384 929 396 Q 880 432 823 415 Q 799 411 774 405 L 719 395 Q 677 392 618 379 L 571 373 Q 507 366 438 355 Q 420 354 434 339 Q 446 327 462 322 Q 480 318 493 322 Q 527 332 566 339 L 615 347 Z" fill="lightgray"></path>
				<path d="M 614 343 Q 614 346 615 347 L 618 379 Q 619 404 622 429 Q 623 475 627 521 L 629 559 Q 632 703 656 751 Q 663 766 653 778 Q 631 796 592 807 Q 567 813 559 806 Q 550 799 558 787 Q 580 751 583 705 Q 586 626 584 549 L 582 513 Q 582 501 571 373 L 566 339 Q 541 210 463 136 Q 426 103 372 70 Q 360 63 360 59 Q 361 55 373 55 Q 389 51 427 66 Q 568 115 608 307 L 614 343 Z" fill="lightgray"></path>
				<path d="M 608 307 Q 681 193 777 71 Q 795 50 826 50 Q 932 50 965 54 Q 975 55 976 61 Q 977 65 963 74 Q 828 134 761 191 Q 692 255 614 343 C 594 365 592 332 608 307 Z" fill="lightgray"></path>
</g>
		<text x="40" y="140" font-size="128" fill="#999999">6</text></g>
		<g id="id1:id1:id1" transform="matrix(1.0,0,0,1.0,1024,0.0)">			<g stroke="lightgray" stroke-width="4" transform="scale(4, 4)"> <rect x="0" y="0" width="256" height="256" fill="white" stroke-width="4"/></g>
			<g transform="scale(0.92, -0.92) translate(60, -920)">					<path d="M 269 758 Q 294 734 321 705 Q 336 689 354 690 Q 366 690 372 705 Q 379 721 369 756 Q 360 789 265 813 Q 247 817 240 815 Q 234 811 235 796 Q 239 783 269 758 Z" fill="black"></path>
				<path d="M 260 378 Q 287 417 316 464 Q 346 516 389 551 Q 402 563 390 576 Q 371 589 342 598 Q 320 605 304 593 Q 238 542 109 523 Q 97 524 95 516 Q 94 507 107 498 Q 146 474 183 487 Q 286 539 290 537 L 291 536 Q 297 527 286 506 Q 217 364 67 208 Q 54 196 56 193 Q 59 190 71 196 Q 146 233 235 343 L 260 378 Z" fill="black"></path>
				<path d="M 235 343 Q 263 277 229 105 Q 208 77 243 13 Q 246 9 250 3 Q 266 -12 278 13 Q 291 52 291 95 Q 292 264 299 303 Q 306 328 297 338 Q 267 374 260 378 C 238 398 225 371 235 343 Z" fill="black"></path>
				<path d="M 359 376 Q 408 419 432 437 Q 445 443 441 450 Q 434 462 418 473 Q 402 485 385 484 Q 373 483 377 467 Q 380 455 345 384 C 332 357 336 356 359 376 Z" fill="black"></path>
				<path d="M 345 384 Q 315 400 308 398 Q 304 397 304 387 L 371 304 Q 378 294 390 293 Q 397 292 402 301 Q 406 311 403 331 Q 402 350 377 367 Q 368 373 359 376 L 345 384 Z" fill="black"></path>
				<path d="M 774 405 Q 801 486 835 513 Q 853 532 837 550 Q 762 611 700 580 Q 664 568 629 559 L 584 549 Q 532 540 480 534 Q 462 533 464 523 Q 467 514 486 507 Q 511 497 549 507 Q 565 511 582 513 L 627 521 Q 726 543 737 533 Q 747 523 744 505 Q 734 444 719 395 C 711 366 764 377 774 405 Z" fill="black"></path>
				<path d="M 615 347 Q 687 365 918 366 Q 934 367 939 374 Q 943 384 929 396 Q 880 432 823 415 Q 799 411 774 405 L 719 395 Q 677 392 618 379 L 571 373 Q 507 366 438 355 Q 420 354 434 339 Q 446 327 462 322 Q 480 318 493 322 Q 527 332 566 339 L 615 347 Z" fill="red"></path>
				<path d="M 614 343 Q 614 346 615 347 L 618 379 Q 619 404 622 429 Q 623 475 627 521 L 629 559 Q 632 703 656 751 Q 663 766 653 778 Q 631 796 592 807 Q 567 813 559 806 Q 550 799 558 787 Q 580 751 583 705 Q 586 626 584 549 L 582 513 Q 582 501 571 373 L 566 339 Q 541 210 463 136 Q 426 103 372 70 Q 360 63 360 59 Q 361 55 373 55 Q 389 51 427 66 Q 568 115 608 307 L 614 343 Z" fill="lightgray"></path>
				<path d="M 608 307 Q 681 193 777 71 Q 795 50 826 50 Q 932 50 965 54 Q 975 55 976 61 Q 977 65 963 74 Q 828 134 761 191 Q 692 255 614 343 C 594 365 592 332 608 307 Z" fill="lightgray"></path>
</g>
		<text x="40" y="140" font-size="128" fill="#999999">7</text></g>
		<g id="id1:id2:id2" transform="matrix(1.0,0,0,1.0,2048,0.0)">			<g stroke="lightgray" stroke-width="4" transform="scale(4, 4)"> <rect x="0" y="0" width="256" height="256" fill="white" stroke-width="4"/></g>
			<g transform="scale(0.92, -0.92) translate(60, -920)">					<path d="M 269 758 Q 294 734 321 705 Q 336 689 354 690 Q 366 690 372 705 Q 379 721 369 756 Q 360 789 265 813 Q 247 817 240 815 Q 234 811 235 796 Q 239 783 269 758 Z" fill="black"></path>
				<path d="M 260 378 Q 287 417 316 464 Q 346 516 389 551 Q 402 563 390 576 Q 371 589 342 598 Q 320 605 304 593 Q 238 542 109 523 Q 97 524 95 516 Q 94 507 107 498 Q 146 474 183 487 Q 286 539 290 537 L 291 536 Q 297 527 286 506 Q 217 364 67 208 Q 54 196 56 193 Q 59 190 71 196 Q 146 233 235 343 L 260 378 Z" fill="black"></path>
				<path d="M 235 343 Q 263 277 229 105 Q 208 77 243 13 Q 246 9 250 3 Q 266 -12 278 13 Q 291 52 291 95 Q 292 264 299 303 Q 306 328 297 338 Q 267 374 260 378 C 238 398 225 371 235 343 Z" fill="black"></path>
				<path d="M 359 376 Q 408 419 432 437 Q 445 443 441 450 Q 434 462 418 473 Q 402 485 385 484 Q 373 483 377 467 Q 380 455 345 384 C 332 357 336 356 359 376 Z" fill="black"></path>
				<path d="M 345 384 Q 315 400 308 398 Q 304 397 304 387 L 371 304 Q 378 294 390 293 Q 397 292 402 301 Q 406 311 403 331 Q 402 350 377 367 Q 368 373 359 376 L 345 384 Z" fill="black"></path>
				<path d="M 774 405 Q 801 486 835 513 Q 853 532 837 550 Q 762 611 700 580 Q 664 568 629 559 L 584 549 Q 532 540 480 534 Q 462 533 464 523 Q 467 514 486 507 Q 511 497 549 507 Q 565 511 582 513 L 627 521 Q 726 543 737 533 Q 747 523 744 505 Q 734 444 719 395 C 711 366 764 377 774 405 Z" fill="black"></path>
				<path d="M 615 347 Q 687 365 918 366 Q 934 367 939 374 Q 943 384 929 396 Q 880 432 823 415 Q 799 411 774 405 L 719 395 Q 677 392 618 379 L 571 373 Q 507 366 438 355 Q 420 354 434 339 Q 446 327 462 322 Q 480 318 493 322 Q 527 332 566 339 L 615 347 Z" fill="black"></path>
				<path d="M 614 343 Q 614 346 615 347 L 618 379 Q 619 404 622 429 Q 623 475 627 521 L 629 559 Q 632 703 656 751 Q 663 766 653 778 Q 631 796 592 807 Q 567 813 559 806 Q 550 799 558 787 Q 580 751 583 705 Q 586 626 584 549 L 582 513 Q 582 501 571 373 L 566 339 Q 541 210 463 136 Q 426 103 372 70 Q 360 63 360 59 Q 361 55 373 55 Q 389 51 427 66 Q 568 115 608 307 L 614 343 Z" fill="red"></path>
				<path d="M 608 307 Q 681 193 777 71 Q 795 50 826 50 Q 932 50 965 54 Q 975 55 976 61 Q 977 65 963 74 Q 828 134 761 191 Q 692 255 614 343 C 594 365 592 332 608 307 Z" fill="lightgray"></path>
</g>
		<text x="40" y="140" font-size="128" fill="#999999">8</text></g>
		<g id="id1:id3:id3" transform="matrix(1.0,0,0,1.0,3072,0.0)">			<g stroke="lightgray" stroke-width="4" transform="scale(4, 4)"> <rect x="0" y="0" width="256" height="256" fill="white" stroke-width="4"/></g>
			<g transform="scale(0.92, -0.92) translate(60, -920)">					<path d="M 269 758 Q 294 734 321 705 Q 336 689 354 690 Q 366 690 372 705 Q 379 721 369 756 Q 360 789 265 813 Q 247 817 240 815 Q 234 811 235 796 Q 239 783 269 758 Z" fill="black"></path>
				<path d="M 260 378 Q 287 417 316 464 Q 346 516 389 551 Q 402 563 390 576 Q 371 589 342 598 Q 320 605 304 593 Q 238 542 109 523 Q 97 524 95 516 Q 94 507 107 498 Q 146 474 183 487 Q 286 539 290 537 L 291 536 Q 297 527 286 506 Q 217 364 67 208 Q 54 196 56 193 Q 59 190 71 196 Q 146 233 235 343 L 260 378 Z" fill="black"></path>
				<path d="M 235 343 Q 263 277 229 105 Q 208 77 243 13 Q 246 9 250 3 Q 266 -12 278 13 Q 291 52 291 95 Q 292 264 299 303 Q 306 328 297 338 Q 267 374 260 378 C 238 398 225 371 235 343 Z" fill="black"></path>
				<path d="M 359 376 Q 408 419 432 437 Q 445 443 441 450 Q 434 462 418 473 Q 402 485 385 484 Q 373 483 377 467 Q 380 455 345 384 C 332 357 336 356 359 376 Z" fill="black"></path>
				<path d="M 345 384 Q 315 400 308 398 Q 304 397 304 387 L 371 304 Q 378 294 390 293 Q 397 292 402 301 Q 406 311 403 331 Q 402 350 377 367 Q 368 373 359 376 L 345 384 Z" fill="black"></path>
				<path d="M 774 405 Q 801 486 835 513 Q 853 532 837 550 Q 762 611 700 580 Q 664 568 629 559 L 584 549 Q 532 540 480 534 Q 462 533 464 523 Q 467 514 486 507 Q 511 497 549 507 Q 565 511 582 513 L 627 521 Q 726 543 737 533 Q 747 523 744 505 Q 734 444 719 395 C 711 366 764 377 774 405 Z" fill="black"></path>
				<path d="M 615 347 Q 687 365 918 366 Q 934 367 939 374 Q 943 384 929 396 Q 880 432 823 415 Q 799 411 774 405 L 719 395 Q 677 392 618 379 L 571 373 Q 507 366 438 355 Q 420 354 434 339 Q 446 327 462 322 Q 480 318 493 322 Q 527 332 566 339 L 615 347 Z" fill="black"></path>
				<path d="M 614 343 Q 614 346 615 347 L 618 379 Q 619 404 622 429 Q 623 475 627 521 L 629 559 Q 632 703 656 751 Q 663 766 653 778 Q 631 796 592 807 Q 567 813 559 806 Q 550 799 558 787 Q 580 751 583 705 Q 586 626 584 549 L 582 513 Q 582 501 571 373 L 566 339 Q 541 210 463 136 Q 426 103 372 70 Q 360 63 360 59 Q 361 55 373 55 Q 389 51 427 66 Q 568 115 608 307 L 614 343 Z" fill="black"></path>
				<path d="M 608 307 Q 681 193 777 71 Q 795 50 826 50 Q 932 50 965 54 Q 975 55 976 61 Q 977 65 963 74 Q 828 134 761 191 Q 692 255 614 343 C 594 365 592 332 608 307 Z" fill="red"></path>
</g>
		<text x="40" y="140" font-size="128" fill="#999999">9</text></g>
		<g id="id1:id4:id4" transform="matrix(1.0,0,0,1.0,4096,0.0)">			<g stroke="white" stroke-width="4" transform="scale(4, 4)"> <rect x="1" y="1" width="255" height="255" fill="white" stroke-width="0"/></g>
</g>
</g>
</svg>
