<?xml version="1.0" standalone="no"?>
<!DOCTYPE svg PUBLIC "-//W3C//DTD SVG 1.1//EN"
 "http://www.w3.org/Graphics/SVG/1.1/DTD/svg11.dtd">
<!-- generate by Japanese dictionary app com.asnsami.kanjidictionary -->

<svg xmlns="http://www.w3.org/2000/svg" xmlns:sodipodi="http://sodipodi.sourceforge.net/DTD/sodipodi-0.dtd" version="1.1" width="640" height="384" viewBox="0 0 5120 3072">
	<g id="id0:id0" transform="translate(0.0,0)">
		<g id="id0:id0:id0" transform="matrix(1.0,0,0,1.0,0,0.0)">			<g stroke="lightgray" stroke-width="4" transform="scale(4, 4)"> <rect x="0" y="0" width="256" height="256" fill="white" stroke-width="4"/></g>
			<g transform="scale(0.92, -0.92) translate(60, -920)">					<path d="M 249 679 Q 270 660 292 638 Q 305 628 319 628 Q 329 628 333 640 Q 337 653 329 681 Q 323 697 298 708 Q 241 729 224 723 Q 220 719 221 707 Q 224 697 249 679 Z" fill="red"></path>
				<path d="M 383 593 Q 188 509 156 505 Q 144 502 144 493 Q 144 481 153 475 Q 174 465 204 451 Q 214 450 223 458 Q 253 488 360 553 Q 363 557 382 568 C 408 583 411 605 383 593 Z" fill="lightgray"></path>
				<path d="M 382 568 Q 376 483 379 475 Q 383 465 390 454 Q 399 439 412 447 Q 424 457 421 542 Q 418 716 447 771 Q 453 780 442 792 Q 394 829 368 821 Q 355 817 361 804 Q 388 764 383 593 L 382 568 Z" fill="lightgray"></path>
				<path d="M 665 647 Q 731 659 814 668 Q 824 667 833 679 Q 834 689 812 700 Q 782 722 686 693 Q 677 692 669 689 L 619 678 Q 565 671 472 659 Q 445 656 466 639 Q 496 614 524 621 Q 567 631 619 639 L 665 647 Z" fill="lightgray"></path>
				<path d="M 656 553 Q 660 602 665 647 L 669 689 Q 670 723 679 759 Q 689 789 671 803 Q 640 819 619 824 Q 606 827 598 819 Q 591 813 598 800 Q 614 778 615 761 Q 616 721 619 678 L 619 639 Q 619 596 618 546 C 617 516 654 523 656 553 Z" fill="lightgray"></path>
				<path d="M 618 546 Q 572 539 520 528 Q 505 527 517 514 Q 527 505 540 502 Q 555 498 567 502 Q 642 524 778 525 Q 791 526 795 532 Q 799 541 787 550 Q 745 577 691 562 Q 675 559 656 553 L 618 546 Z" fill="lightgray"></path>
				<path d="M 533 426 Q 537 438 532 459 Q 525 481 465 497 Q 453 500 448 499 Q 444 496 444 486 Q 447 477 467 460 Q 501 423 507 418 C 526 400 526 400 533 426 Z" fill="lightgray"></path>
				<path d="M 437 360 Q 507 373 579 386 Q 637 399 646 406 Q 655 413 650 421 Q 644 431 618 440 Q 591 446 533 426 L 507 418 Q 363 384 249 373 Q 215 369 239 353 Q 272 332 345 343 Q 361 346 381 349 L 437 360 Z" fill="lightgray"></path>
				<path d="M 453 338 Q 450 350 437 360 C 416 381 393 376 381 349 Q 332 231 108 97 Q 101 94 95 90 Q 86 87 96 83 Q 147 77 275 159 Q 338 208 358 226 L 392 259 Q 437 304 445 310 C 460 324 460 324 453 338 Z" fill="lightgray"></path>
				<path d="M 358 226 Q 385 136 346 62 Q 315 34 349 -20 Q 353 -27 361 -33 Q 371 -40 385 -22 Q 418 15 526 108 Q 545 123 546 130 Q 547 143 527 133 Q 419 82 412 84 Q 405 90 405 111 Q 415 234 415 237 Q 409 244 392 259 C 370 279 350 255 358 226 Z" fill="lightgray"></path>
				<path d="M 576 237 Q 685 303 731 318 Q 731 319 734 319 Q 755 326 746 345 Q 736 361 712 378 Q 690 393 678 391 Q 666 391 669 378 Q 670 351 619 301 Q 595 277 566 247 C 545 225 550 221 576 237 Z" fill="lightgray"></path>
				<path d="M 566 247 Q 535 275 506 304 Q 478 332 453 338 C 425 349 421 328 445 310 Q 494 277 587 169 Q 713 37 753 33 Q 840 33 915 46 Q 951 52 948 61 Q 945 68 773 114 Q 676 150 576 237 L 566 247 Z" fill="lightgray"></path>
</g>
		<text x="40" y="140" font-size="128" fill="#999999">1</text></g>
		<g id="id0:id1:id1" transform="matrix(1.0,0,0,1.0,1024,0.0)">			<g stroke="lightgray" stroke-width="4" transform="scale(4, 4)"> <rect x="0" y="0" width="256" height="256" fill="white" stroke-width="4"/></g>
			<g transform="scale(0.92, -0.92) translate(60, -920)">					<path d="M 249 679 Q 270 660 292 638 Q 305 628 319 628 Q 329 628 333 640 Q 337 653 329 681 Q 323 697 298 708 Q 241 729 224 723 Q 220 719 221 707 Q 224 697 249 679 Z" fill="black"></path>
				<path d="M 383 593 Q 188 509 156 505 Q 144 502 144 493 Q 144 481 153 475 Q 174 465 204 451 Q 214 450 223 458 Q 253 488 360 553 Q 363 557 382 568 C 408 583 411 605 383 593 Z" fill="red"></path>
				<path d="M 382 568 Q 376 483 379 475 Q 383 465 390 454 Q 399 439 412 447 Q 424 457 421 542 Q 418 716 447 771 Q 453 780 442 792 Q 394 829 368 821 Q 355 817 361 804 Q 388 764 383 593 L 382 568 Z" fill="lightgray"></path>
				<path d="M 665 647 Q 731 659 814 668 Q 824 667 833 679 Q 834 689 812 700 Q 782 722 686 693 Q 677 692 669 689 L 619 678 Q 565 671 472 659 Q 445 656 466 639 Q 496 614 524 621 Q 567 631 619 639 L 665 647 Z" fill="lightgray"></path>
				<path d="M 656 553 Q 660 602 665 647 L 669 689 Q 670 723 679 759 Q 689 789 671 803 Q 640 819 619 824 Q 606 827 598 819 Q 591 813 598 800 Q 614 778 615 761 Q 616 721 619 678 L 619 639 Q 619 596 618 546 C 617 516 654 523 656 553 Z" fill="lightgray"></path>
				<path d="M 618 546 Q 572 539 520 528 Q 505 527 517 514 Q 527 505 540 502 Q 555 498 567 502 Q 642 524 778 525 Q 791 526 795 532 Q 799 541 787 550 Q 745 577 691 562 Q 675 559 656 553 L 618 546 Z" fill="lightgray"></path>
				<path d="M 533 426 Q 537 438 532 459 Q 525 481 465 497 Q 453 500 448 499 Q 444 496 444 486 Q 447 477 467 460 Q 501 423 507 418 C 526 400 526 400 533 426 Z" fill="lightgray"></path>
				<path d="M 437 360 Q 507 373 579 386 Q 637 399 646 406 Q 655 413 650 421 Q 644 431 618 440 Q 591 446 533 426 L 507 418 Q 363 384 249 373 Q 215 369 239 353 Q 272 332 345 343 Q 361 346 381 349 L 437 360 Z" fill="lightgray"></path>
				<path d="M 453 338 Q 450 350 437 360 C 416 381 393 376 381 349 Q 332 231 108 97 Q 101 94 95 90 Q 86 87 96 83 Q 147 77 275 159 Q 338 208 358 226 L 392 259 Q 437 304 445 310 C 460 324 460 324 453 338 Z" fill="lightgray"></path>
				<path d="M 358 226 Q 385 136 346 62 Q 315 34 349 -20 Q 353 -27 361 -33 Q 371 -40 385 -22 Q 418 15 526 108 Q 545 123 546 130 Q 547 143 527 133 Q 419 82 412 84 Q 405 90 405 111 Q 415 234 415 237 Q 409 244 392 259 C 370 279 350 255 358 226 Z" fill="lightgray"></path>
				<path d="M 576 237 Q 685 303 731 318 Q 731 319 734 319 Q 755 326 746 345 Q 736 361 712 378 Q 690 393 678 391 Q 666 391 669 378 Q 670 351 619 301 Q 595 277 566 247 C 545 225 550 221 576 237 Z" fill="lightgray"></path>
				<path d="M 566 247 Q 535 275 506 304 Q 478 332 453 338 C 425 349 421 328 445 310 Q 494 277 587 169 Q 713 37 753 33 Q 840 33 915 46 Q 951 52 948 61 Q 945 68 773 114 Q 676 150 576 237 L 566 247 Z" fill="lightgray"></path>
</g>
		<text x="40" y="140" font-size="128" fill="#999999">2</text></g>
		<g id="id0:id2:id2" transform="matrix(1.0,0,0,1.0,2048,0.0)">			<g stroke="lightgray" stroke-width="4" transform="scale(4, 4)"> <rect x="0" y="0" width="256" height="256" fill="white" stroke-width="4"/></g>
			<g transform="scale(0.92, -0.92) translate(60, -920)">					<path d="M 249 679 Q 270 660 292 638 Q 305 628 319 628 Q 329 628 333 640 Q 337 653 329 681 Q 323 697 298 708 Q 241 729 224 723 Q 220 719 221 707 Q 224 697 249 679 Z" fill="black"></path>
				<path d="M 383 593 Q 188 509 156 505 Q 144 502 144 493 Q 144 481 153 475 Q 174 465 204 451 Q 214 450 223 458 Q 253 488 360 553 Q 363 557 382 568 C 408 583 411 605 383 593 Z" fill="black"></path>
				<path d="M 382 568 Q 376 483 379 475 Q 383 465 390 454 Q 399 439 412 447 Q 424 457 421 542 Q 418 716 447 771 Q 453 780 442 792 Q 394 829 368 821 Q 355 817 361 804 Q 388 764 383 593 L 382 568 Z" fill="red"></path>
				<path d="M 665 647 Q 731 659 814 668 Q 824 667 833 679 Q 834 689 812 700 Q 782 722 686 693 Q 677 692 669 689 L 619 678 Q 565 671 472 659 Q 445 656 466 639 Q 496 614 524 621 Q 567 631 619 639 L 665 647 Z" fill="lightgray"></path>
				<path d="M 656 553 Q 660 602 665 647 L 669 689 Q 670 723 679 759 Q 689 789 671 803 Q 640 819 619 824 Q 606 827 598 819 Q 591 813 598 800 Q 614 778 615 761 Q 616 721 619 678 L 619 639 Q 619 596 618 546 C 617 516 654 523 656 553 Z" fill="lightgray"></path>
				<path d="M 618 546 Q 572 539 520 528 Q 505 527 517 514 Q 527 505 540 502 Q 555 498 567 502 Q 642 524 778 525 Q 791 526 795 532 Q 799 541 787 550 Q 745 577 691 562 Q 675 559 656 553 L 618 546 Z" fill="lightgray"></path>
				<path d="M 533 426 Q 537 438 532 459 Q 525 481 465 497 Q 453 500 448 499 Q 444 496 444 486 Q 447 477 467 460 Q 501 423 507 418 C 526 400 526 400 533 426 Z" fill="lightgray"></path>
				<path d="M 437 360 Q 507 373 579 386 Q 637 399 646 406 Q 655 413 650 421 Q 644 431 618 440 Q 591 446 533 426 L 507 418 Q 363 384 249 373 Q 215 369 239 353 Q 272 332 345 343 Q 361 346 381 349 L 437 360 Z" fill="lightgray"></path>
				<path d="M 453 338 Q 450 350 437 360 C 416 381 393 376 381 349 Q 332 231 108 97 Q 101 94 95 90 Q 86 87 96 83 Q 147 77 275 159 Q 338 208 358 226 L 392 259 Q 437 304 445 310 C 460 324 460 324 453 338 Z" fill="lightgray"></path>
				<path d="M 358 226 Q 385 136 346 62 Q 315 34 349 -20 Q 353 -27 361 -33 Q 371 -40 385 -22 Q 418 15 526 108 Q 545 123 546 130 Q 547 143 527 133 Q 419 82 412 84 Q 405 90 405 111 Q 415 234 415 237 Q 409 244 392 259 C 370 279 350 255 358 226 Z" fill="lightgray"></path>
				<path d="M 576 237 Q 685 303 731 318 Q 731 319 734 319 Q 755 326 746 345 Q 736 361 712 378 Q 690 393 678 391 Q 666 391 669 378 Q 670 351 619 301 Q 595 277 566 247 C 545 225 550 221 576 237 Z" fill="lightgray"></path>
				<path d="M 566 247 Q 535 275 506 304 Q 478 332 453 338 C 425 349 421 328 445 310 Q 494 277 587 169 Q 713 37 753 33 Q 840 33 915 46 Q 951 52 948 61 Q 945 68 773 114 Q 676 150 576 237 L 566 247 Z" fill="lightgray"></path>
</g>
		<text x="40" y="140" font-size="128" fill="#999999">3</text></g>
		<g id="id0:id3:id3" transform="matrix(1.0,0,0,1.0,3072,0.0)">			<g stroke="lightgray" stroke-width="4" transform="scale(4, 4)"> <rect x="0" y="0" width="256" height="256" fill="white" stroke-width="4"/></g>
			<g transform="scale(0.92, -0.92) translate(60, -920)">					<path d="M 249 679 Q 270 660 292 638 Q 305 628 319 628 Q 329 628 333 640 Q 337 653 329 681 Q 323 697 298 708 Q 241 729 224 723 Q 220 719 221 707 Q 224 697 249 679 Z" fill="black"></path>
				<path d="M 383 593 Q 188 509 156 505 Q 144 502 144 493 Q 144 481 153 475 Q 174 465 204 451 Q 214 450 223 458 Q 253 488 360 553 Q 363 557 382 568 C 408 583 411 605 383 593 Z" fill="black"></path>
				<path d="M 382 568 Q 376 483 379 475 Q 383 465 390 454 Q 399 439 412 447 Q 424 457 421 542 Q 418 716 447 771 Q 453 780 442 792 Q 394 829 368 821 Q 355 817 361 804 Q 388 764 383 593 L 382 568 Z" fill="black"></path>
				<path d="M 665 647 Q 731 659 814 668 Q 824 667 833 679 Q 834 689 812 700 Q 782 722 686 693 Q 677 692 669 689 L 619 678 Q 565 671 472 659 Q 445 656 466 639 Q 496 614 524 621 Q 567 631 619 639 L 665 647 Z" fill="red"></path>
				<path d="M 656 553 Q 660 602 665 647 L 669 689 Q 670 723 679 759 Q 689 789 671 803 Q 640 819 619 824 Q 606 827 598 819 Q 591 813 598 800 Q 614 778 615 761 Q 616 721 619 678 L 619 639 Q 619 596 618 546 C 617 516 654 523 656 553 Z" fill="lightgray"></path>
				<path d="M 618 546 Q 572 539 520 528 Q 505 527 517 514 Q 527 505 540 502 Q 555 498 567 502 Q 642 524 778 525 Q 791 526 795 532 Q 799 541 787 550 Q 745 577 691 562 Q 675 559 656 553 L 618 546 Z" fill="lightgray"></path>
				<path d="M 533 426 Q 537 438 532 459 Q 525 481 465 497 Q 453 500 448 499 Q 444 496 444 486 Q 447 477 467 460 Q 501 423 507 418 C 526 400 526 400 533 426 Z" fill="lightgray"></path>
				<path d="M 437 360 Q 507 373 579 386 Q 637 399 646 406 Q 655 413 650 421 Q 644 431 618 440 Q 591 446 533 426 L 507 418 Q 363 384 249 373 Q 215 369 239 353 Q 272 332 345 343 Q 361 346 381 349 L 437 360 Z" fill="lightgray"></path>
				<path d="M 453 338 Q 450 350 437 360 C 416 381 393 376 381 349 Q 332 231 108 97 Q 101 94 95 90 Q 86 87 96 83 Q 147 77 275 159 Q 338 208 358 226 L 392 259 Q 437 304 445 310 C 460 324 460 324 453 338 Z" fill="lightgray"></path>
				<path d="M 358 226 Q 385 136 346 62 Q 315 34 349 -20 Q 353 -27 361 -33 Q 371 -40 385 -22 Q 418 15 526 108 Q 545 123 546 130 Q 547 143 527 133 Q 419 82 412 84 Q 405 90 405 111 Q 415 234 415 237 Q 409 244 392 259 C 370 279 350 255 358 226 Z" fill="lightgray"></path>
				<path d="M 576 237 Q 685 303 731 318 Q 731 319 734 319 Q 755 326 746 345 Q 736 361 712 378 Q 690 393 678 391 Q 666 391 669 378 Q 670 351 619 301 Q 595 277 566 247 C 545 225 550 221 576 237 Z" fill="lightgray"></path>
				<path d="M 566 247 Q 535 275 506 304 Q 478 332 453 338 C 425 349 421 328 445 310 Q 494 277 587 169 Q 713 37 753 33 Q 840 33 915 46 Q 951 52 948 61 Q 945 68 773 114 Q 676 150 576 237 L 566 247 Z" fill="lightgray"></path>
</g>
		<text x="40" y="140" font-size="128" fill="#999999">4</text></g>
		<g id="id0:id4:id4" transform="matrix(1.0,0,0,1.0,4096,0.0)">			<g stroke="lightgray" stroke-width="4" transform="scale(4, 4)"> <rect x="0" y="0" width="256" height="256" fill="white" stroke-width="4"/></g>
			<g transform="scale(0.92, -0.92) translate(60, -920)">					<path d="M 249 679 Q 270 660 292 638 Q 305 628 319 628 Q 329 628 333 640 Q 337 653 329 681 Q 323 697 298 708 Q 241 729 224 723 Q 220 719 221 707 Q 224 697 249 679 Z" fill="black"></path>
				<path d="M 383 593 Q 188 509 156 505 Q 144 502 144 493 Q 144 481 153 475 Q 174 465 204 451 Q 214 450 223 458 Q 253 488 360 553 Q 363 557 382 568 C 408 583 411 605 383 593 Z" fill="black"></path>
				<path d="M 382 568 Q 376 483 379 475 Q 383 465 390 454 Q 399 439 412 447 Q 424 457 421 542 Q 418 716 447 771 Q 453 780 442 792 Q 394 829 368 821 Q 355 817 361 804 Q 388 764 383 593 L 382 568 Z" fill="black"></path>
				<path d="M 665 647 Q 731 659 814 668 Q 824 667 833 679 Q 834 689 812 700 Q 782 722 686 693 Q 677 692 669 689 L 619 678 Q 565 671 472 659 Q 445 656 466 639 Q 496 614 524 621 Q 567 631 619 639 L 665 647 Z" fill="black"></path>
				<path d="M 656 553 Q 660 602 665 647 L 669 689 Q 670 723 679 759 Q 689 789 671 803 Q 640 819 619 824 Q 606 827 598 819 Q 591 813 598 800 Q 614 778 615 761 Q 616 721 619 678 L 619 639 Q 619 596 618 546 C 617 516 654 523 656 553 Z" fill="red"></path>
				<path d="M 618 546 Q 572 539 520 528 Q 505 527 517 514 Q 527 505 540 502 Q 555 498 567 502 Q 642 524 778 525 Q 791 526 795 532 Q 799 541 787 550 Q 745 577 691 562 Q 675 559 656 553 L 618 546 Z" fill="lightgray"></path>
				<path d="M 533 426 Q 537 438 532 459 Q 525 481 465 497 Q 453 500 448 499 Q 444 496 444 486 Q 447 477 467 460 Q 501 423 507 418 C 526 400 526 400 533 426 Z" fill="lightgray"></path>
				<path d="M 437 360 Q 507 373 579 386 Q 637 399 646 406 Q 655 413 650 421 Q 644 431 618 440 Q 591 446 533 426 L 507 418 Q 363 384 249 373 Q 215 369 239 353 Q 272 332 345 343 Q 361 346 381 349 L 437 360 Z" fill="lightgray"></path>
				<path d="M 453 338 Q 450 350 437 360 C 416 381 393 376 381 349 Q 332 231 108 97 Q 101 94 95 90 Q 86 87 96 83 Q 147 77 275 159 Q 338 208 358 226 L 392 259 Q 437 304 445 310 C 460 324 460 324 453 338 Z" fill="lightgray"></path>
				<path d="M 358 226 Q 385 136 346 62 Q 315 34 349 -20 Q 353 -27 361 -33 Q 371 -40 385 -22 Q 418 15 526 108 Q 545 123 546 130 Q 547 143 527 133 Q 419 82 412 84 Q 405 90 405 111 Q 415 234 415 237 Q 409 244 392 259 C 370 279 350 255 358 226 Z" fill="lightgray"></path>
				<path d="M 576 237 Q 685 303 731 318 Q 731 319 734 319 Q 755 326 746 345 Q 736 361 712 378 Q 690 393 678 391 Q 666 391 669 378 Q 670 351 619 301 Q 595 277 566 247 C 545 225 550 221 576 237 Z" fill="lightgray"></path>
				<path d="M 566 247 Q 535 275 506 304 Q 478 332 453 338 C 425 349 421 328 445 310 Q 494 277 587 169 Q 713 37 753 33 Q 840 33 915 46 Q 951 52 948 61 Q 945 68 773 114 Q 676 150 576 237 L 566 247 Z" fill="lightgray"></path>
</g>
		<text x="40" y="140" font-size="128" fill="#999999">5</text></g>
</g>
	<g id="id1:id1" transform="translate(0.0,1024)">
		<g id="id1:id0:id0" transform="matrix(1.0,0,0,1.0,0,0.0)">			<g stroke="lightgray" stroke-width="4" transform="scale(4, 4)"> <rect x="0" y="0" width="256" height="256" fill="white" stroke-width="4"/></g>
			<g transform="scale(0.92, -0.92) translate(60, -920)">					<path d="M 249 679 Q 270 660 292 638 Q 305 628 319 628 Q 329 628 333 640 Q 337 653 329 681 Q 323 697 298 708 Q 241 729 224 723 Q 220 719 221 707 Q 224 697 249 679 Z" fill="black"></path>
				<path d="M 383 593 Q 188 509 156 505 Q 144 502 144 493 Q 144 481 153 475 Q 174 465 204 451 Q 214 450 223 458 Q 253 488 360 553 Q 363 557 382 568 C 408 583 411 605 383 593 Z" fill="black"></path>
				<path d="M 382 568 Q 376 483 379 475 Q 383 465 390 454 Q 399 439 412 447 Q 424 457 421 542 Q 418 716 447 771 Q 453 780 442 792 Q 394 829 368 821 Q 355 817 361 804 Q 388 764 383 593 L 382 568 Z" fill="black"></path>
				<path d="M 665 647 Q 731 659 814 668 Q 824 667 833 679 Q 834 689 812 700 Q 782 722 686 693 Q 677 692 669 689 L 619 678 Q 565 671 472 659 Q 445 656 466 639 Q 496 614 524 621 Q 567 631 619 639 L 665 647 Z" fill="black"></path>
				<path d="M 656 553 Q 660 602 665 647 L 669 689 Q 670 723 679 759 Q 689 789 671 803 Q 640 819 619 824 Q 606 827 598 819 Q 591 813 598 800 Q 614 778 615 761 Q 616 721 619 678 L 619 639 Q 619 596 618 546 C 617 516 654 523 656 553 Z" fill="black"></path>
				<path d="M 618 546 Q 572 539 520 528 Q 505 527 517 514 Q 527 505 540 502 Q 555 498 567 502 Q 642 524 778 525 Q 791 526 795 532 Q 799 541 787 550 Q 745 577 691 562 Q 675 559 656 553 L 618 546 Z" fill="red"></path>
				<path d="M 533 426 Q 537 438 532 459 Q 525 481 465 497 Q 453 500 448 499 Q 444 496 444 486 Q 447 477 467 460 Q 501 423 507 418 C 526 400 526 400 533 426 Z" fill="lightgray"></path>
				<path d="M 437 360 Q 507 373 579 386 Q 637 399 646 406 Q 655 413 650 421 Q 644 431 618 440 Q 591 446 533 426 L 507 418 Q 363 384 249 373 Q 215 369 239 353 Q 272 332 345 343 Q 361 346 381 349 L 437 360 Z" fill="lightgray"></path>
				<path d="M 453 338 Q 450 350 437 360 C 416 381 393 376 381 349 Q 332 231 108 97 Q 101 94 95 90 Q 86 87 96 83 Q 147 77 275 159 Q 338 208 358 226 L 392 259 Q 437 304 445 310 C 460 324 460 324 453 338 Z" fill="lightgray"></path>
				<path d="M 358 226 Q 385 136 346 62 Q 315 34 349 -20 Q 353 -27 361 -33 Q 371 -40 385 -22 Q 418 15 526 108 Q 545 123 546 130 Q 547 143 527 133 Q 419 82 412 84 Q 405 90 405 111 Q 415 234 415 237 Q 409 244 392 259 C 370 279 350 255 358 226 Z" fill="lightgray"></path>
				<path d="M 576 237 Q 685 303 731 318 Q 731 319 734 319 Q 755 326 746 345 Q 736 361 712 378 Q 690 393 678 391 Q 666 391 669 378 Q 670 351 619 301 Q 595 277 566 247 C 545 225 550 221 576 237 Z" fill="lightgray"></path>
				<path d="M 566 247 Q 535 275 506 304 Q 478 332 453 338 C 425 349 421 328 445 310 Q 494 277 587 169 Q 713 37 753 33 Q 840 33 915 46 Q 951 52 948 61 Q 945 68 773 114 Q 676 150 576 237 L 566 247 Z" fill="lightgray"></path>
</g>
		<text x="40" y="140" font-size="128" fill="#999999">6</text></g>
		<g id="id1:id1:id1" transform="matrix(1.0,0,0,1.0,1024,0.0)">			<g stroke="lightgray" stroke-width="4" transform="scale(4, 4)"> <rect x="0" y="0" width="256" height="256" fill="white" stroke-width="4"/></g>
			<g transform="scale(0.92, -0.92) translate(60, -920)">					<path d="M 249 679 Q 270 660 292 638 Q 305 628 319 628 Q 329 628 333 640 Q 337 653 329 681 Q 323 697 298 708 Q 241 729 224 723 Q 220 719 221 707 Q 224 697 249 679 Z" fill="black"></path>
				<path d="M 383 593 Q 188 509 156 505 Q 144 502 144 493 Q 144 481 153 475 Q 174 465 204 451 Q 214 450 223 458 Q 253 488 360 553 Q 363 557 382 568 C 408 583 411 605 383 593 Z" fill="black"></path>
				<path d="M 382 568 Q 376 483 379 475 Q 383 465 390 454 Q 399 439 412 447 Q 424 457 421 542 Q 418 716 447 771 Q 453 780 442 792 Q 394 829 368 821 Q 355 817 361 804 Q 388 764 383 593 L 382 568 Z" fill="black"></path>
				<path d="M 665 647 Q 731 659 814 668 Q 824 667 833 679 Q 834 689 812 700 Q 782 722 686 693 Q 677 692 669 689 L 619 678 Q 565 671 472 659 Q 445 656 466 639 Q 496 614 524 621 Q 567 631 619 639 L 665 647 Z" fill="black"></path>
				<path d="M 656 553 Q 660 602 665 647 L 669 689 Q 670 723 679 759 Q 689 789 671 803 Q 640 819 619 824 Q 606 827 598 819 Q 591 813 598 800 Q 614 778 615 761 Q 616 721 619 678 L 619 639 Q 619 596 618 546 C 617 516 654 523 656 553 Z" fill="black"></path>
				<path d="M 618 546 Q 572 539 520 528 Q 505 527 517 514 Q 527 505 540 502 Q 555 498 567 502 Q 642 524 778 525 Q 791 526 795 532 Q 799 541 787 550 Q 745 577 691 562 Q 675 559 656 553 L 618 546 Z" fill="black"></path>
				<path d="M 533 426 Q 537 438 532 459 Q 525 481 465 497 Q 453 500 448 499 Q 444 496 444 486 Q 447 477 467 460 Q 501 423 507 418 C 526 400 526 400 533 426 Z" fill="red"></path>
				<path d="M 437 360 Q 507 373 579 386 Q 637 399 646 406 Q 655 413 650 421 Q 644 431 618 440 Q 591 446 533 426 L 507 418 Q 363 384 249 373 Q 215 369 239 353 Q 272 332 345 343 Q 361 346 381 349 L 437 360 Z" fill="lightgray"></path>
				<path d="M 453 338 Q 450 350 437 360 C 416 381 393 376 381 349 Q 332 231 108 97 Q 101 94 95 90 Q 86 87 96 83 Q 147 77 275 159 Q 338 208 358 226 L 392 259 Q 437 304 445 310 C 460 324 460 324 453 338 Z" fill="lightgray"></path>
				<path d="M 358 226 Q 385 136 346 62 Q 315 34 349 -20 Q 353 -27 361 -33 Q 371 -40 385 -22 Q 418 15 526 108 Q 545 123 546 130 Q 547 143 527 133 Q 419 82 412 84 Q 405 90 405 111 Q 415 234 415 237 Q 409 244 392 259 C 370 279 350 255 358 226 Z" fill="lightgray"></path>
				<path d="M 576 237 Q 685 303 731 318 Q 731 319 734 319 Q 755 326 746 345 Q 736 361 712 378 Q 690 393 678 391 Q 666 391 669 378 Q 670 351 619 301 Q 595 277 566 247 C 545 225 550 221 576 237 Z" fill="lightgray"></path>
				<path d="M 566 247 Q 535 275 506 304 Q 478 332 453 338 C 425 349 421 328 445 310 Q 494 277 587 169 Q 713 37 753 33 Q 840 33 915 46 Q 951 52 948 61 Q 945 68 773 114 Q 676 150 576 237 L 566 247 Z" fill="lightgray"></path>
</g>
		<text x="40" y="140" font-size="128" fill="#999999">7</text></g>
		<g id="id1:id2:id2" transform="matrix(1.0,0,0,1.0,2048,0.0)">			<g stroke="lightgray" stroke-width="4" transform="scale(4, 4)"> <rect x="0" y="0" width="256" height="256" fill="white" stroke-width="4"/></g>
			<g transform="scale(0.92, -0.92) translate(60, -920)">					<path d="M 249 679 Q 270 660 292 638 Q 305 628 319 628 Q 329 628 333 640 Q 337 653 329 681 Q 323 697 298 708 Q 241 729 224 723 Q 220 719 221 707 Q 224 697 249 679 Z" fill="black"></path>
				<path d="M 383 593 Q 188 509 156 505 Q 144 502 144 493 Q 144 481 153 475 Q 174 465 204 451 Q 214 450 223 458 Q 253 488 360 553 Q 363 557 382 568 C 408 583 411 605 383 593 Z" fill="black"></path>
				<path d="M 382 568 Q 376 483 379 475 Q 383 465 390 454 Q 399 439 412 447 Q 424 457 421 542 Q 418 716 447 771 Q 453 780 442 792 Q 394 829 368 821 Q 355 817 361 804 Q 388 764 383 593 L 382 568 Z" fill="black"></path>
				<path d="M 665 647 Q 731 659 814 668 Q 824 667 833 679 Q 834 689 812 700 Q 782 722 686 693 Q 677 692 669 689 L 619 678 Q 565 671 472 659 Q 445 656 466 639 Q 496 614 524 621 Q 567 631 619 639 L 665 647 Z" fill="black"></path>
				<path d="M 656 553 Q 660 602 665 647 L 669 689 Q 670 723 679 759 Q 689 789 671 803 Q 640 819 619 824 Q 606 827 598 819 Q 591 813 598 800 Q 614 778 615 761 Q 616 721 619 678 L 619 639 Q 619 596 618 546 C 617 516 654 523 656 553 Z" fill="black"></path>
				<path d="M 618 546 Q 572 539 520 528 Q 505 527 517 514 Q 527 505 540 502 Q 555 498 567 502 Q 642 524 778 525 Q 791 526 795 532 Q 799 541 787 550 Q 745 577 691 562 Q 675 559 656 553 L 618 546 Z" fill="black"></path>
				<path d="M 533 426 Q 537 438 532 459 Q 525 481 465 497 Q 453 500 448 499 Q 444 496 444 486 Q 447 477 467 460 Q 501 423 507 418 C 526 400 526 400 533 426 Z" fill="black"></path>
				<path d="M 437 360 Q 507 373 579 386 Q 637 399 646 406 Q 655 413 650 421 Q 644 431 618 440 Q 591 446 533 426 L 507 418 Q 363 384 249 373 Q 215 369 239 353 Q 272 332 345 343 Q 361 346 381 349 L 437 360 Z" fill="red"></path>
				<path d="M 453 338 Q 450 350 437 360 C 416 381 393 376 381 349 Q 332 231 108 97 Q 101 94 95 90 Q 86 87 96 83 Q 147 77 275 159 Q 338 208 358 226 L 392 259 Q 437 304 445 310 C 460 324 460 324 453 338 Z" fill="lightgray"></path>
				<path d="M 358 226 Q 385 136 346 62 Q 315 34 349 -20 Q 353 -27 361 -33 Q 371 -40 385 -22 Q 418 15 526 108 Q 545 123 546 130 Q 547 143 527 133 Q 419 82 412 84 Q 405 90 405 111 Q 415 234 415 237 Q 409 244 392 259 C 370 279 350 255 358 226 Z" fill="lightgray"></path>
				<path d="M 576 237 Q 685 303 731 318 Q 731 319 734 319 Q 755 326 746 345 Q 736 361 712 378 Q 690 393 678 391 Q 666 391 669 378 Q 670 351 619 301 Q 595 277 566 247 C 545 225 550 221 576 237 Z" fill="lightgray"></path>
				<path d="M 566 247 Q 535 275 506 304 Q 478 332 453 338 C 425 349 421 328 445 310 Q 494 277 587 169 Q 713 37 753 33 Q 840 33 915 46 Q 951 52 948 61 Q 945 68 773 114 Q 676 150 576 237 L 566 247 Z" fill="lightgray"></path>
</g>
		<text x="40" y="140" font-size="128" fill="#999999">8</text></g>
		<g id="id1:id3:id3" transform="matrix(1.0,0,0,1.0,3072,0.0)">			<g stroke="lightgray" stroke-width="4" transform="scale(4, 4)"> <rect x="0" y="0" width="256" height="256" fill="white" stroke-width="4"/></g>
			<g transform="scale(0.92, -0.92) translate(60, -920)">					<path d="M 249 679 Q 270 660 292 638 Q 305 628 319 628 Q 329 628 333 640 Q 337 653 329 681 Q 323 697 298 708 Q 241 729 224 723 Q 220 719 221 707 Q 224 697 249 679 Z" fill="black"></path>
				<path d="M 383 593 Q 188 509 156 505 Q 144 502 144 493 Q 144 481 153 475 Q 174 465 204 451 Q 214 450 223 458 Q 253 488 360 553 Q 363 557 382 568 C 408 583 411 605 383 593 Z" fill="black"></path>
				<path d="M 382 568 Q 376 483 379 475 Q 383 465 390 454 Q 399 439 412 447 Q 424 457 421 542 Q 418 716 447 771 Q 453 780 442 792 Q 394 829 368 821 Q 355 817 361 804 Q 388 764 383 593 L 382 568 Z" fill="black"></path>
				<path d="M 665 647 Q 731 659 814 668 Q 824 667 833 679 Q 834 689 812 700 Q 782 722 686 693 Q 677 692 669 689 L 619 678 Q 565 671 472 659 Q 445 656 466 639 Q 496 614 524 621 Q 567 631 619 639 L 665 647 Z" fill="black"></path>
				<path d="M 656 553 Q 660 602 665 647 L 669 689 Q 670 723 679 759 Q 689 789 671 803 Q 640 819 619 824 Q 606 827 598 819 Q 591 813 598 800 Q 614 778 615 761 Q 616 721 619 678 L 619 639 Q 619 596 618 546 C 617 516 654 523 656 553 Z" fill="black"></path>
				<path d="M 618 546 Q 572 539 520 528 Q 505 527 517 514 Q 527 505 540 502 Q 555 498 567 502 Q 642 524 778 525 Q 791 526 795 532 Q 799 541 787 550 Q 745 577 691 562 Q 675 559 656 553 L 618 546 Z" fill="black"></path>
				<path d="M 533 426 Q 537 438 532 459 Q 525 481 465 497 Q 453 500 448 499 Q 444 496 444 486 Q 447 477 467 460 Q 501 423 507 418 C 526 400 526 400 533 426 Z" fill="black"></path>
				<path d="M 437 360 Q 507 373 579 386 Q 637 399 646 406 Q 655 413 650 421 Q 644 431 618 440 Q 591 446 533 426 L 507 418 Q 363 384 249 373 Q 215 369 239 353 Q 272 332 345 343 Q 361 346 381 349 L 437 360 Z" fill="black"></path>
				<path d="M 453 338 Q 450 350 437 360 C 416 381 393 376 381 349 Q 332 231 108 97 Q 101 94 95 90 Q 86 87 96 83 Q 147 77 275 159 Q 338 208 358 226 L 392 259 Q 437 304 445 310 C 460 324 460 324 453 338 Z" fill="red"></path>
				<path d="M 358 226 Q 385 136 346 62 Q 315 34 349 -20 Q 353 -27 361 -33 Q 371 -40 385 -22 Q 418 15 526 108 Q 545 123 546 130 Q 547 143 527 133 Q 419 82 412 84 Q 405 90 405 111 Q 415 234 415 237 Q 409 244 392 259 C 370 279 350 255 358 226 Z" fill="lightgray"></path>
				<path d="M 576 237 Q 685 303 731 318 Q 731 319 734 319 Q 755 326 746 345 Q 736 361 712 378 Q 690 393 678 391 Q 666 391 669 378 Q 670 351 619 301 Q 595 277 566 247 C 545 225 550 221 576 237 Z" fill="lightgray"></path>
				<path d="M 566 247 Q 535 275 506 304 Q 478 332 453 338 C 425 349 421 328 445 310 Q 494 277 587 169 Q 713 37 753 33 Q 840 33 915 46 Q 951 52 948 61 Q 945 68 773 114 Q 676 150 576 237 L 566 247 Z" fill="lightgray"></path>
</g>
		<text x="40" y="140" font-size="128" fill="#999999">9</text></g>
		<g id="id1:id4:id4" transform="matrix(1.0,0,0,1.0,4096,0.0)">			<g stroke="lightgray" stroke-width="4" transform="scale(4, 4)"> <rect x="0" y="0" width="256" height="256" fill="white" stroke-width="4"/></g>
			<g transform="scale(0.92, -0.92) translate(60, -920)">					<path d="M 249 679 Q 270 660 292 638 Q 305 628 319 628 Q 329 628 333 640 Q 337 653 329 681 Q 323 697 298 708 Q 241 729 224 723 Q 220 719 221 707 Q 224 697 249 679 Z" fill="black"></path>
				<path d="M 383 593 Q 188 509 156 505 Q 144 502 144 493 Q 144 481 153 475 Q 174 465 204 451 Q 214 450 223 458 Q 253 488 360 553 Q 363 557 382 568 C 408 583 411 605 383 593 Z" fill="black"></path>
				<path d="M 382 568 Q 376 483 379 475 Q 383 465 390 454 Q 399 439 412 447 Q 424 457 421 542 Q 418 716 447 771 Q 453 780 442 792 Q 394 829 368 821 Q 355 817 361 804 Q 388 764 383 593 L 382 568 Z" fill="black"></path>
				<path d="M 665 647 Q 731 659 814 668 Q 824 667 833 679 Q 834 689 812 700 Q 782 722 686 693 Q 677 692 669 689 L 619 678 Q 565 671 472 659 Q 445 656 466 639 Q 496 614 524 621 Q 567 631 619 639 L 665 647 Z" fill="black"></path>
				<path d="M 656 553 Q 660 602 665 647 L 669 689 Q 670 723 679 759 Q 689 789 671 803 Q 640 819 619 824 Q 606 827 598 819 Q 591 813 598 800 Q 614 778 615 761 Q 616 721 619 678 L 619 639 Q 619 596 618 546 C 617 516 654 523 656 553 Z" fill="black"></path>
				<path d="M 618 546 Q 572 539 520 528 Q 505 527 517 514 Q 527 505 540 502 Q 555 498 567 502 Q 642 524 778 525 Q 791 526 795 532 Q 799 541 787 550 Q 745 577 691 562 Q 675 559 656 553 L 618 546 Z" fill="black"></path>
				<path d="M 533 426 Q 537 438 532 459 Q 525 481 465 497 Q 453 500 448 499 Q 444 496 444 486 Q 447 477 467 460 Q 501 423 507 418 C 526 400 526 400 533 426 Z" fill="black"></path>
				<path d="M 437 360 Q 507 373 579 386 Q 637 399 646 406 Q 655 413 650 421 Q 644 431 618 440 Q 591 446 533 426 L 507 418 Q 363 384 249 373 Q 215 369 239 353 Q 272 332 345 343 Q 361 346 381 349 L 437 360 Z" fill="black"></path>
				<path d="M 453 338 Q 450 350 437 360 C 416 381 393 376 381 349 Q 332 231 108 97 Q 101 94 95 90 Q 86 87 96 83 Q 147 77 275 159 Q 338 208 358 226 L 392 259 Q 437 304 445 310 C 460 324 460 324 453 338 Z" fill="black"></path>
				<path d="M 358 226 Q 385 136 346 62 Q 315 34 349 -20 Q 353 -27 361 -33 Q 371 -40 385 -22 Q 418 15 526 108 Q 545 123 546 130 Q 547 143 527 133 Q 419 82 412 84 Q 405 90 405 111 Q 415 234 415 237 Q 409 244 392 259 C 370 279 350 255 358 226 Z" fill="red"></path>
				<path d="M 576 237 Q 685 303 731 318 Q 731 319 734 319 Q 755 326 746 345 Q 736 361 712 378 Q 690 393 678 391 Q 666 391 669 378 Q 670 351 619 301 Q 595 277 566 247 C 545 225 550 221 576 237 Z" fill="lightgray"></path>
				<path d="M 566 247 Q 535 275 506 304 Q 478 332 453 338 C 425 349 421 328 445 310 Q 494 277 587 169 Q 713 37 753 33 Q 840 33 915 46 Q 951 52 948 61 Q 945 68 773 114 Q 676 150 576 237 L 566 247 Z" fill="lightgray"></path>
</g>
		<text x="40" y="140" font-size="128" fill="#999999">10</text></g>
</g>
	<g id="id2:id2" transform="translate(0.0,2048)">
		<g id="id2:id0:id0" transform="matrix(1.0,0,0,1.0,0,0.0)">			<g stroke="lightgray" stroke-width="4" transform="scale(4, 4)"> <rect x="0" y="0" width="256" height="256" fill="white" stroke-width="4"/></g>
			<g transform="scale(0.92, -0.92) translate(60, -920)">					<path d="M 249 679 Q 270 660 292 638 Q 305 628 319 628 Q 329 628 333 640 Q 337 653 329 681 Q 323 697 298 708 Q 241 729 224 723 Q 220 719 221 707 Q 224 697 249 679 Z" fill="black"></path>
				<path d="M 383 593 Q 188 509 156 505 Q 144 502 144 493 Q 144 481 153 475 Q 174 465 204 451 Q 214 450 223 458 Q 253 488 360 553 Q 363 557 382 568 C 408 583 411 605 383 593 Z" fill="black"></path>
				<path d="M 382 568 Q 376 483 379 475 Q 383 465 390 454 Q 399 439 412 447 Q 424 457 421 542 Q 418 716 447 771 Q 453 780 442 792 Q 394 829 368 821 Q 355 817 361 804 Q 388 764 383 593 L 382 568 Z" fill="black"></path>
				<path d="M 665 647 Q 731 659 814 668 Q 824 667 833 679 Q 834 689 812 700 Q 782 722 686 693 Q 677 692 669 689 L 619 678 Q 565 671 472 659 Q 445 656 466 639 Q 496 614 524 621 Q 567 631 619 639 L 665 647 Z" fill="black"></path>
				<path d="M 656 553 Q 660 602 665 647 L 669 689 Q 670 723 679 759 Q 689 789 671 803 Q 640 819 619 824 Q 606 827 598 819 Q 591 813 598 800 Q 614 778 615 761 Q 616 721 619 678 L 619 639 Q 619 596 618 546 C 617 516 654 523 656 553 Z" fill="black"></path>
				<path d="M 618 546 Q 572 539 520 528 Q 505 527 517 514 Q 527 505 540 502 Q 555 498 567 502 Q 642 524 778 525 Q 791 526 795 532 Q 799 541 787 550 Q 745 577 691 562 Q 675 559 656 553 L 618 546 Z" fill="black"></path>
				<path d="M 533 426 Q 537 438 532 459 Q 525 481 465 497 Q 453 500 448 499 Q 444 496 444 486 Q 447 477 467 460 Q 501 423 507 418 C 526 400 526 400 533 426 Z" fill="black"></path>
				<path d="M 437 360 Q 507 373 579 386 Q 637 399 646 406 Q 655 413 650 421 Q 644 431 618 440 Q 591 446 533 426 L 507 418 Q 363 384 249 373 Q 215 369 239 353 Q 272 332 345 343 Q 361 346 381 349 L 437 360 Z" fill="black"></path>
				<path d="M 453 338 Q 450 350 437 360 C 416 381 393 376 381 349 Q 332 231 108 97 Q 101 94 95 90 Q 86 87 96 83 Q 147 77 275 159 Q 338 208 358 226 L 392 259 Q 437 304 445 310 C 460 324 460 324 453 338 Z" fill="black"></path>
				<path d="M 358 226 Q 385 136 346 62 Q 315 34 349 -20 Q 353 -27 361 -33 Q 371 -40 385 -22 Q 418 15 526 108 Q 545 123 546 130 Q 547 143 527 133 Q 419 82 412 84 Q 405 90 405 111 Q 415 234 415 237 Q 409 244 392 259 C 370 279 350 255 358 226 Z" fill="black"></path>
				<path d="M 576 237 Q 685 303 731 318 Q 731 319 734 319 Q 755 326 746 345 Q 736 361 712 378 Q 690 393 678 391 Q 666 391 669 378 Q 670 351 619 301 Q 595 277 566 247 C 545 225 550 221 576 237 Z" fill="red"></path>
				<path d="M 566 247 Q 535 275 506 304 Q 478 332 453 338 C 425 349 421 328 445 310 Q 494 277 587 169 Q 713 37 753 33 Q 840 33 915 46 Q 951 52 948 61 Q 945 68 773 114 Q 676 150 576 237 L 566 247 Z" fill="lightgray"></path>
</g>
		<text x="40" y="140" font-size="128" fill="#999999">11</text></g>
		<g id="id2:id1:id1" transform="matrix(1.0,0,0,1.0,1024,0.0)">			<g stroke="lightgray" stroke-width="4" transform="scale(4, 4)"> <rect x="0" y="0" width="256" height="256" fill="white" stroke-width="4"/></g>
			<g transform="scale(0.92, -0.92) translate(60, -920)">					<path d="M 249 679 Q 270 660 292 638 Q 305 628 319 628 Q 329 628 333 640 Q 337 653 329 681 Q 323 697 298 708 Q 241 729 224 723 Q 220 719 221 707 Q 224 697 249 679 Z" fill="black"></path>
				<path d="M 383 593 Q 188 509 156 505 Q 144 502 144 493 Q 144 481 153 475 Q 174 465 204 451 Q 214 450 223 458 Q 253 488 360 553 Q 363 557 382 568 C 408 583 411 605 383 593 Z" fill="black"></path>
				<path d="M 382 568 Q 376 483 379 475 Q 383 465 390 454 Q 399 439 412 447 Q 424 457 421 542 Q 418 716 447 771 Q 453 780 442 792 Q 394 829 368 821 Q 355 817 361 804 Q 388 764 383 593 L 382 568 Z" fill="black"></path>
				<path d="M 665 647 Q 731 659 814 668 Q 824 667 833 679 Q 834 689 812 700 Q 782 722 686 693 Q 677 692 669 689 L 619 678 Q 565 671 472 659 Q 445 656 466 639 Q 496 614 524 621 Q 567 631 619 639 L 665 647 Z" fill="black"></path>
				<path d="M 656 553 Q 660 602 665 647 L 669 689 Q 670 723 679 759 Q 689 789 671 803 Q 640 819 619 824 Q 606 827 598 819 Q 591 813 598 800 Q 614 778 615 761 Q 616 721 619 678 L 619 639 Q 619 596 618 546 C 617 516 654 523 656 553 Z" fill="black"></path>
				<path d="M 618 546 Q 572 539 520 528 Q 505 527 517 514 Q 527 505 540 502 Q 555 498 567 502 Q 642 524 778 525 Q 791 526 795 532 Q 799 541 787 550 Q 745 577 691 562 Q 675 559 656 553 L 618 546 Z" fill="black"></path>
				<path d="M 533 426 Q 537 438 532 459 Q 525 481 465 497 Q 453 500 448 499 Q 444 496 444 486 Q 447 477 467 460 Q 501 423 507 418 C 526 400 526 400 533 426 Z" fill="black"></path>
				<path d="M 437 360 Q 507 373 579 386 Q 637 399 646 406 Q 655 413 650 421 Q 644 431 618 440 Q 591 446 533 426 L 507 418 Q 363 384 249 373 Q 215 369 239 353 Q 272 332 345 343 Q 361 346 381 349 L 437 360 Z" fill="black"></path>
				<path d="M 453 338 Q 450 350 437 360 C 416 381 393 376 381 349 Q 332 231 108 97 Q 101 94 95 90 Q 86 87 96 83 Q 147 77 275 159 Q 338 208 358 226 L 392 259 Q 437 304 445 310 C 460 324 460 324 453 338 Z" fill="black"></path>
				<path d="M 358 226 Q 385 136 346 62 Q 315 34 349 -20 Q 353 -27 361 -33 Q 371 -40 385 -22 Q 418 15 526 108 Q 545 123 546 130 Q 547 143 527 133 Q 419 82 412 84 Q 405 90 405 111 Q 415 234 415 237 Q 409 244 392 259 C 370 279 350 255 358 226 Z" fill="black"></path>
				<path d="M 576 237 Q 685 303 731 318 Q 731 319 734 319 Q 755 326 746 345 Q 736 361 712 378 Q 690 393 678 391 Q 666 391 669 378 Q 670 351 619 301 Q 595 277 566 247 C 545 225 550 221 576 237 Z" fill="black"></path>
				<path d="M 566 247 Q 535 275 506 304 Q 478 332 453 338 C 425 349 421 328 445 310 Q 494 277 587 169 Q 713 37 753 33 Q 840 33 915 46 Q 951 52 948 61 Q 945 68 773 114 Q 676 150 576 237 L 566 247 Z" fill="red"></path>
</g>
		<text x="40" y="140" font-size="128" fill="#999999">12</text></g>
		<g id="id2:id2:id2" transform="matrix(1.0,0,0,1.0,2048,0.0)">			<g stroke="white" stroke-width="4" transform="scale(4, 4)"> <rect x="1" y="1" width="255" height="255" fill="white" stroke-width="0"/></g>
</g>
		<g id="id2:id3:id3" transform="matrix(1.0,0,0,1.0,3072,0.0)">			<g stroke="white" stroke-width="4" transform="scale(4, 4)"> <rect x="1" y="1" width="255" height="255" fill="white" stroke-width="0"/></g>
</g>
		<g id="id2:id4:id4" transform="matrix(1.0,0,0,1.0,4096,0.0)">			<g stroke="white" stroke-width="4" transform="scale(4, 4)"> <rect x="1" y="1" width="255" height="255" fill="white" stroke-width="0"/></g>
</g>
</g>
</svg>
