<?xml version="1.0" standalone="no"?>
<!DOCTYPE svg PUBLIC "-//W3C//DTD SVG 1.1//EN"
 "http://www.w3.org/Graphics/SVG/1.1/DTD/svg11.dtd">
<!-- generate by Handict dictionary app com.asnsami.handict -->

<svg xmlns="http://www.w3.org/2000/svg" xmlns:sodipodi="http://sodipodi.sourceforge.net/DTD/sodipodi-0.dtd" version="1.1" width="640" height="128" viewBox="0 0 5120 1024">
	<g id="id0:id0" transform="translate(0.0,0)">
		<g id="id0:id0:id0" transform="matrix(1.0,0,0,1.0,0,0.0)">			<g stroke="lightgray" stroke-width="4" transform="scale(4, 4)"> <rect x="0" y="0" width="256" height="256" fill="white" stroke-width="4"/></g>
			<g transform="scale(0.92, -0.92) translate(60, -920)">					<path d="M 337 772 Q 368 748 403 719 Q 419 706 436 708 Q 448 709 452 724 Q 456 740 444 773 Q 437 794 401 808 Q 317 833 304 823 Q 298 819 301 805 Q 305 792 337 772 Z" fill="red"></path>
				<path d="M 148 522 Q 94 504 65 502 Q 49 503 47 494 Q 43 485 55 477 Q 100 450 127 463 Q 200 493 268 525 Q 296 540 306 532 Q 318 525 311 495 Q 312 453 310 410 Q 311 286 279 174 Q 263 140 310 87 Q 322 74 332 82 Q 339 89 351 116 Q 397 180 496 290 Q 509 303 506 310 Q 503 319 492 308 Q 440 268 387 223 Q 344 184 349 241 Q 348 311 369 489 Q 373 514 397 540 Q 410 550 399 565 Q 387 581 345 599 Q 332 606 314 594 Q 208 539 148 522 Z" fill="lightgray"></path>
				<path d="M 667 575 Q 667 689 686 755 Q 699 782 673 802 Q 657 814 624 833 Q 599 851 577 833 Q 571 829 578 811 Q 614 760 614 701 Q 630 238 592 88 Q 580 49 609 -21 Q 616 -40 625 -43 Q 632 -50 639 -41 Q 648 -37 659 -14 Q 669 13 668 47 Q 667 98 667 548 L 667 575 Z" fill="lightgray"></path>
				<path d="M 667 548 Q 668 547 671 546 Q 768 497 887 418 Q 908 403 923 403 Q 932 403 936 415 Q 945 431 922 469 Q 891 530 667 575 C 638 581 640 562 667 548 Z" fill="lightgray"></path>
</g>
		<text x="40" y="140" font-size="128" fill="#999999">1</text></g>
		<g id="id0:id1:id1" transform="matrix(1.0,0,0,1.0,1024,0.0)">			<g stroke="lightgray" stroke-width="4" transform="scale(4, 4)"> <rect x="0" y="0" width="256" height="256" fill="white" stroke-width="4"/></g>
			<g transform="scale(0.92, -0.92) translate(60, -920)">					<path d="M 337 772 Q 368 748 403 719 Q 419 706 436 708 Q 448 709 452 724 Q 456 740 444 773 Q 437 794 401 808 Q 317 833 304 823 Q 298 819 301 805 Q 305 792 337 772 Z" fill="black"></path>
				<path d="M 148 522 Q 94 504 65 502 Q 49 503 47 494 Q 43 485 55 477 Q 100 450 127 463 Q 200 493 268 525 Q 296 540 306 532 Q 318 525 311 495 Q 312 453 310 410 Q 311 286 279 174 Q 263 140 310 87 Q 322 74 332 82 Q 339 89 351 116 Q 397 180 496 290 Q 509 303 506 310 Q 503 319 492 308 Q 440 268 387 223 Q 344 184 349 241 Q 348 311 369 489 Q 373 514 397 540 Q 410 550 399 565 Q 387 581 345 599 Q 332 606 314 594 Q 208 539 148 522 Z" fill="red"></path>
				<path d="M 667 575 Q 667 689 686 755 Q 699 782 673 802 Q 657 814 624 833 Q 599 851 577 833 Q 571 829 578 811 Q 614 760 614 701 Q 630 238 592 88 Q 580 49 609 -21 Q 616 -40 625 -43 Q 632 -50 639 -41 Q 648 -37 659 -14 Q 669 13 668 47 Q 667 98 667 548 L 667 575 Z" fill="lightgray"></path>
				<path d="M 667 548 Q 668 547 671 546 Q 768 497 887 418 Q 908 403 923 403 Q 932 403 936 415 Q 945 431 922 469 Q 891 530 667 575 C 638 581 640 562 667 548 Z" fill="lightgray"></path>
</g>
		<text x="40" y="140" font-size="128" fill="#999999">2</text></g>
		<g id="id0:id2:id2" transform="matrix(1.0,0,0,1.0,2048,0.0)">			<g stroke="lightgray" stroke-width="4" transform="scale(4, 4)"> <rect x="0" y="0" width="256" height="256" fill="white" stroke-width="4"/></g>
			<g transform="scale(0.92, -0.92) translate(60, -920)">					<path d="M 337 772 Q 368 748 403 719 Q 419 706 436 708 Q 448 709 452 724 Q 456 740 444 773 Q 437 794 401 808 Q 317 833 304 823 Q 298 819 301 805 Q 305 792 337 772 Z" fill="black"></path>
				<path d="M 148 522 Q 94 504 65 502 Q 49 503 47 494 Q 43 485 55 477 Q 100 450 127 463 Q 200 493 268 525 Q 296 540 306 532 Q 318 525 311 495 Q 312 453 310 410 Q 311 286 279 174 Q 263 140 310 87 Q 322 74 332 82 Q 339 89 351 116 Q 397 180 496 290 Q 509 303 506 310 Q 503 319 492 308 Q 440 268 387 223 Q 344 184 349 241 Q 348 311 369 489 Q 373 514 397 540 Q 410 550 399 565 Q 387 581 345 599 Q 332 606 314 594 Q 208 539 148 522 Z" fill="black"></path>
				<path d="M 667 575 Q 667 689 686 755 Q 699 782 673 802 Q 657 814 624 833 Q 599 851 577 833 Q 571 829 578 811 Q 614 760 614 701 Q 630 238 592 88 Q 580 49 609 -21 Q 616 -40 625 -43 Q 632 -50 639 -41 Q 648 -37 659 -14 Q 669 13 668 47 Q 667 98 667 548 L 667 575 Z" fill="red"></path>
				<path d="M 667 548 Q 668 547 671 546 Q 768 497 887 418 Q 908 403 923 403 Q 932 403 936 415 Q 945 431 922 469 Q 891 530 667 575 C 638 581 640 562 667 548 Z" fill="lightgray"></path>
</g>
		<text x="40" y="140" font-size="128" fill="#999999">3</text></g>
		<g id="id0:id3:id3" transform="matrix(1.0,0,0,1.0,3072,0.0)">			<g stroke="lightgray" stroke-width="4" transform="scale(4, 4)"> <rect x="0" y="0" width="256" height="256" fill="white" stroke-width="4"/></g>
			<g transform="scale(0.92, -0.92) translate(60, -920)">					<path d="M 337 772 Q 368 748 403 719 Q 419 706 436 708 Q 448 709 452 724 Q 456 740 444 773 Q 437 794 401 808 Q 317 833 304 823 Q 298 819 301 805 Q 305 792 337 772 Z" fill="black"></path>
				<path d="M 148 522 Q 94 504 65 502 Q 49 503 47 494 Q 43 485 55 477 Q 100 450 127 463 Q 200 493 268 525 Q 296 540 306 532 Q 318 525 311 495 Q 312 453 310 410 Q 311 286 279 174 Q 263 140 310 87 Q 322 74 332 82 Q 339 89 351 116 Q 397 180 496 290 Q 509 303 506 310 Q 503 319 492 308 Q 440 268 387 223 Q 344 184 349 241 Q 348 311 369 489 Q 373 514 397 540 Q 410 550 399 565 Q 387 581 345 599 Q 332 606 314 594 Q 208 539 148 522 Z" fill="black"></path>
				<path d="M 667 575 Q 667 689 686 755 Q 699 782 673 802 Q 657 814 624 833 Q 599 851 577 833 Q 571 829 578 811 Q 614 760 614 701 Q 630 238 592 88 Q 580 49 609 -21 Q 616 -40 625 -43 Q 632 -50 639 -41 Q 648 -37 659 -14 Q 669 13 668 47 Q 667 98 667 548 L 667 575 Z" fill="black"></path>
				<path d="M 667 548 Q 668 547 671 546 Q 768 497 887 418 Q 908 403 923 403 Q 932 403 936 415 Q 945 431 922 469 Q 891 530 667 575 C 638 581 640 562 667 548 Z" fill="red"></path>
</g>
		<text x="40" y="140" font-size="128" fill="#999999">4</text></g>
		<g id="id0:id4:id4" transform="matrix(1.0,0,0,1.0,4096,0.0)">			<g stroke="white" stroke-width="4" transform="scale(4, 4)"> <rect x="1" y="1" width="255" height="255" fill="white" stroke-width="0"/></g>
</g>
</g>
</svg>
