<?xml version="1.0" standalone="no"?>
<!DOCTYPE svg PUBLIC "-//W3C//DTD SVG 1.1//EN"
 "http://www.w3.org/Graphics/SVG/1.1/DTD/svg11.dtd">
<!-- generate by Handict dictionary app com.asnsami.handict -->

<svg xmlns="http://www.w3.org/2000/svg" xmlns:sodipodi="http://sodipodi.sourceforge.net/DTD/sodipodi-0.dtd" version="1.1" width="640" height="128" viewBox="0 0 5120 1024">
	<g id="id0:id0" transform="translate(0.0,0)">
		<g id="id0:id0:id0" transform="matrix(1.0,0,0,1.0,0,0.0)">			<g stroke="lightgray" stroke-width="4" transform="scale(4, 4)"> <rect x="0" y="0" width="256" height="256" fill="white" stroke-width="4"/></g>
			<g transform="scale(0.92, -0.92) translate(60, -920)">					<path d="M 283 735 Q 314 707 349 672 Q 362 659 380 659 Q 390 659 397 673 Q 401 688 393 720 Q 387 742 353 760 Q 275 794 256 787 Q 250 783 252 770 Q 256 758 283 735 Z" fill="red"></path>
				<path d="M 152 504 Q 101 488 73 485 Q 58 485 56 477 Q 52 468 63 461 Q 102 437 146 454 Q 248 505 257 502 Q 258 502 261 500 Q 271 493 266 468 Q 260 278 219 154 Q 201 124 245 70 Q 255 57 266 64 Q 273 71 286 96 Q 317 142 385 223 Q 397 235 394 242 Q 393 251 381 240 Q 351 221 322 199 Q 282 166 289 215 Q 290 285 321 459 Q 325 483 348 507 Q 361 517 351 530 Q 341 546 301 565 Q 289 571 272 560 Q 196 518 152 504 Z" fill="lightgray"></path>
				<path d="M 671 231 Q 684 427 692 606 Q 698 663 714 725 Q 718 737 696 753 Q 657 775 631 779 Q 613 783 604 774 Q 595 765 605 749 Q 635 703 634 673 Q 641 465 625 223 C 623 193 669 201 671 231 Z" fill="lightgray"></path>
				<path d="M 837 251 Q 749 244 671 231 L 625 223 Q 562 213 509 198 Q 485 191 491 220 Q 495 283 499 348 Q 503 373 492 386 Q 476 404 451 416 Q 439 422 429 419 Q 419 415 427 395 Q 457 332 449 268 Q 445 207 420 180 Q 401 162 409 148 Q 421 132 438 121 Q 451 114 462 122 Q 499 165 759 209 Q 805 216 829 213 C 859 212 867 254 837 251 Z" fill="lightgray"></path>
				<path d="M 829 213 Q 817 168 837 124 Q 837 123 838 121 Q 848 105 860 116 Q 884 141 888 227 Q 888 308 902 379 Q 906 403 917 425 Q 924 440 914 454 Q 895 470 861 489 Q 848 496 836 490 Q 829 486 831 472 Q 855 427 838 261 Q 837 257 837 251 L 829 213 Z" fill="lightgray"></path>
</g>
		<text x="40" y="140" font-size="128" fill="#999999">1</text></g>
		<g id="id0:id1:id1" transform="matrix(1.0,0,0,1.0,1024,0.0)">			<g stroke="lightgray" stroke-width="4" transform="scale(4, 4)"> <rect x="0" y="0" width="256" height="256" fill="white" stroke-width="4"/></g>
			<g transform="scale(0.92, -0.92) translate(60, -920)">					<path d="M 283 735 Q 314 707 349 672 Q 362 659 380 659 Q 390 659 397 673 Q 401 688 393 720 Q 387 742 353 760 Q 275 794 256 787 Q 250 783 252 770 Q 256 758 283 735 Z" fill="black"></path>
				<path d="M 152 504 Q 101 488 73 485 Q 58 485 56 477 Q 52 468 63 461 Q 102 437 146 454 Q 248 505 257 502 Q 258 502 261 500 Q 271 493 266 468 Q 260 278 219 154 Q 201 124 245 70 Q 255 57 266 64 Q 273 71 286 96 Q 317 142 385 223 Q 397 235 394 242 Q 393 251 381 240 Q 351 221 322 199 Q 282 166 289 215 Q 290 285 321 459 Q 325 483 348 507 Q 361 517 351 530 Q 341 546 301 565 Q 289 571 272 560 Q 196 518 152 504 Z" fill="red"></path>
				<path d="M 671 231 Q 684 427 692 606 Q 698 663 714 725 Q 718 737 696 753 Q 657 775 631 779 Q 613 783 604 774 Q 595 765 605 749 Q 635 703 634 673 Q 641 465 625 223 C 623 193 669 201 671 231 Z" fill="lightgray"></path>
				<path d="M 837 251 Q 749 244 671 231 L 625 223 Q 562 213 509 198 Q 485 191 491 220 Q 495 283 499 348 Q 503 373 492 386 Q 476 404 451 416 Q 439 422 429 419 Q 419 415 427 395 Q 457 332 449 268 Q 445 207 420 180 Q 401 162 409 148 Q 421 132 438 121 Q 451 114 462 122 Q 499 165 759 209 Q 805 216 829 213 C 859 212 867 254 837 251 Z" fill="lightgray"></path>
				<path d="M 829 213 Q 817 168 837 124 Q 837 123 838 121 Q 848 105 860 116 Q 884 141 888 227 Q 888 308 902 379 Q 906 403 917 425 Q 924 440 914 454 Q 895 470 861 489 Q 848 496 836 490 Q 829 486 831 472 Q 855 427 838 261 Q 837 257 837 251 L 829 213 Z" fill="lightgray"></path>
</g>
		<text x="40" y="140" font-size="128" fill="#999999">2</text></g>
		<g id="id0:id2:id2" transform="matrix(1.0,0,0,1.0,2048,0.0)">			<g stroke="lightgray" stroke-width="4" transform="scale(4, 4)"> <rect x="0" y="0" width="256" height="256" fill="white" stroke-width="4"/></g>
			<g transform="scale(0.92, -0.92) translate(60, -920)">					<path d="M 283 735 Q 314 707 349 672 Q 362 659 380 659 Q 390 659 397 673 Q 401 688 393 720 Q 387 742 353 760 Q 275 794 256 787 Q 250 783 252 770 Q 256 758 283 735 Z" fill="black"></path>
				<path d="M 152 504 Q 101 488 73 485 Q 58 485 56 477 Q 52 468 63 461 Q 102 437 146 454 Q 248 505 257 502 Q 258 502 261 500 Q 271 493 266 468 Q 260 278 219 154 Q 201 124 245 70 Q 255 57 266 64 Q 273 71 286 96 Q 317 142 385 223 Q 397 235 394 242 Q 393 251 381 240 Q 351 221 322 199 Q 282 166 289 215 Q 290 285 321 459 Q 325 483 348 507 Q 361 517 351 530 Q 341 546 301 565 Q 289 571 272 560 Q 196 518 152 504 Z" fill="black"></path>
				<path d="M 671 231 Q 684 427 692 606 Q 698 663 714 725 Q 718 737 696 753 Q 657 775 631 779 Q 613 783 604 774 Q 595 765 605 749 Q 635 703 634 673 Q 641 465 625 223 C 623 193 669 201 671 231 Z" fill="red"></path>
				<path d="M 837 251 Q 749 244 671 231 L 625 223 Q 562 213 509 198 Q 485 191 491 220 Q 495 283 499 348 Q 503 373 492 386 Q 476 404 451 416 Q 439 422 429 419 Q 419 415 427 395 Q 457 332 449 268 Q 445 207 420 180 Q 401 162 409 148 Q 421 132 438 121 Q 451 114 462 122 Q 499 165 759 209 Q 805 216 829 213 C 859 212 867 254 837 251 Z" fill="lightgray"></path>
				<path d="M 829 213 Q 817 168 837 124 Q 837 123 838 121 Q 848 105 860 116 Q 884 141 888 227 Q 888 308 902 379 Q 906 403 917 425 Q 924 440 914 454 Q 895 470 861 489 Q 848 496 836 490 Q 829 486 831 472 Q 855 427 838 261 Q 837 257 837 251 L 829 213 Z" fill="lightgray"></path>
</g>
		<text x="40" y="140" font-size="128" fill="#999999">3</text></g>
		<g id="id0:id3:id3" transform="matrix(1.0,0,0,1.0,3072,0.0)">			<g stroke="lightgray" stroke-width="4" transform="scale(4, 4)"> <rect x="0" y="0" width="256" height="256" fill="white" stroke-width="4"/></g>
			<g transform="scale(0.92, -0.92) translate(60, -920)">					<path d="M 283 735 Q 314 707 349 672 Q 362 659 380 659 Q 390 659 397 673 Q 401 688 393 720 Q 387 742 353 760 Q 275 794 256 787 Q 250 783 252 770 Q 256 758 283 735 Z" fill="black"></path>
				<path d="M 152 504 Q 101 488 73 485 Q 58 485 56 477 Q 52 468 63 461 Q 102 437 146 454 Q 248 505 257 502 Q 258 502 261 500 Q 271 493 266 468 Q 260 278 219 154 Q 201 124 245 70 Q 255 57 266 64 Q 273 71 286 96 Q 317 142 385 223 Q 397 235 394 242 Q 393 251 381 240 Q 351 221 322 199 Q 282 166 289 215 Q 290 285 321 459 Q 325 483 348 507 Q 361 517 351 530 Q 341 546 301 565 Q 289 571 272 560 Q 196 518 152 504 Z" fill="black"></path>
				<path d="M 671 231 Q 684 427 692 606 Q 698 663 714 725 Q 718 737 696 753 Q 657 775 631 779 Q 613 783 604 774 Q 595 765 605 749 Q 635 703 634 673 Q 641 465 625 223 C 623 193 669 201 671 231 Z" fill="black"></path>
				<path d="M 837 251 Q 749 244 671 231 L 625 223 Q 562 213 509 198 Q 485 191 491 220 Q 495 283 499 348 Q 503 373 492 386 Q 476 404 451 416 Q 439 422 429 419 Q 419 415 427 395 Q 457 332 449 268 Q 445 207 420 180 Q 401 162 409 148 Q 421 132 438 121 Q 451 114 462 122 Q 499 165 759 209 Q 805 216 829 213 C 859 212 867 254 837 251 Z" fill="red"></path>
				<path d="M 829 213 Q 817 168 837 124 Q 837 123 838 121 Q 848 105 860 116 Q 884 141 888 227 Q 888 308 902 379 Q 906 403 917 425 Q 924 440 914 454 Q 895 470 861 489 Q 848 496 836 490 Q 829 486 831 472 Q 855 427 838 261 Q 837 257 837 251 L 829 213 Z" fill="lightgray"></path>
</g>
		<text x="40" y="140" font-size="128" fill="#999999">4</text></g>
		<g id="id0:id4:id4" transform="matrix(1.0,0,0,1.0,4096,0.0)">			<g stroke="lightgray" stroke-width="4" transform="scale(4, 4)"> <rect x="0" y="0" width="256" height="256" fill="white" stroke-width="4"/></g>
			<g transform="scale(0.92, -0.92) translate(60, -920)">					<path d="M 283 735 Q 314 707 349 672 Q 362 659 380 659 Q 390 659 397 673 Q 401 688 393 720 Q 387 742 353 760 Q 275 794 256 787 Q 250 783 252 770 Q 256 758 283 735 Z" fill="black"></path>
				<path d="M 152 504 Q 101 488 73 485 Q 58 485 56 477 Q 52 468 63 461 Q 102 437 146 454 Q 248 505 257 502 Q 258 502 261 500 Q 271 493 266 468 Q 260 278 219 154 Q 201 124 245 70 Q 255 57 266 64 Q 273 71 286 96 Q 317 142 385 223 Q 397 235 394 242 Q 393 251 381 240 Q 351 221 322 199 Q 282 166 289 215 Q 290 285 321 459 Q 325 483 348 507 Q 361 517 351 530 Q 341 546 301 565 Q 289 571 272 560 Q 196 518 152 504 Z" fill="black"></path>
				<path d="M 671 231 Q 684 427 692 606 Q 698 663 714 725 Q 718 737 696 753 Q 657 775 631 779 Q 613 783 604 774 Q 595 765 605 749 Q 635 703 634 673 Q 641 465 625 223 C 623 193 669 201 671 231 Z" fill="black"></path>
				<path d="M 837 251 Q 749 244 671 231 L 625 223 Q 562 213 509 198 Q 485 191 491 220 Q 495 283 499 348 Q 503 373 492 386 Q 476 404 451 416 Q 439 422 429 419 Q 419 415 427 395 Q 457 332 449 268 Q 445 207 420 180 Q 401 162 409 148 Q 421 132 438 121 Q 451 114 462 122 Q 499 165 759 209 Q 805 216 829 213 C 859 212 867 254 837 251 Z" fill="black"></path>
				<path d="M 829 213 Q 817 168 837 124 Q 837 123 838 121 Q 848 105 860 116 Q 884 141 888 227 Q 888 308 902 379 Q 906 403 917 425 Q 924 440 914 454 Q 895 470 861 489 Q 848 496 836 490 Q 829 486 831 472 Q 855 427 838 261 Q 837 257 837 251 L 829 213 Z" fill="red"></path>
</g>
		<text x="40" y="140" font-size="128" fill="#999999">5</text></g>
</g>
</svg>
