<?xml version="1.0" standalone="no"?>
<!DOCTYPE svg PUBLIC "-//W3C//DTD SVG 1.1//EN"
 "http://www.w3.org/Graphics/SVG/1.1/DTD/svg11.dtd">
<!-- generate by Handict dictionary app com.asnsami.handict -->

<svg xmlns="http://www.w3.org/2000/svg" xmlns:sodipodi="http://sodipodi.sourceforge.net/DTD/sodipodi-0.dtd" version="1.1" width="640" height="256" viewBox="0 0 5120 2048">
	<g id="id0:id0" transform="translate(0.0,0)">
		<g id="id0:id0:id0" transform="matrix(1.0,0,0,1.0,0,0.0)">			<g stroke="lightgray" stroke-width="4" transform="scale(4, 4)"> <rect x="0" y="0" width="256" height="256" fill="white" stroke-width="4"/></g>
			<g transform="scale(0.92, -0.92) translate(60, -920)">					<path d="M 273 720 Q 307 692 345 658 Q 360 645 376 646 Q 388 646 393 660 Q 397 676 387 707 Q 375 743 267 771 Q 251 774 244 771 Q 238 767 240 753 Q 244 743 273 720 Z" fill="red"></path>
				<path d="M 148 472 Q 97 456 69 453 Q 54 453 52 445 Q 48 436 59 429 Q 104 405 141 422 Q 243 473 252 470 Q 253 470 255 468 Q 264 462 257 359 Q 256 251 225 153 Q 210 123 254 69 Q 264 57 275 64 Q 282 71 294 96 Q 333 151 417 247 Q 429 259 426 266 Q 425 275 413 264 Q 370 233 329 199 Q 287 163 294 216 Q 293 277 315 427 Q 319 452 342 476 Q 354 486 344 500 Q 332 516 293 533 Q 281 540 263 528 Q 190 486 148 472 Z" fill="lightgray"></path>
				<path d="M 666 523 Q 876 568 882 573 Q 892 582 887 591 Q 880 604 848 612 Q 817 619 784 607 Q 726 588 668 572 L 618 560 Q 533 544 439 535 Q 400 529 428 511 Q 473 484 532 498 Q 572 505 618 514 L 666 523 Z" fill="lightgray"></path>
				<path d="M 658 388 Q 662 458 666 523 L 668 572 Q 672 693 692 776 Q 696 788 675 803 Q 638 822 613 827 Q 597 831 588 822 Q 581 813 589 798 Q 614 762 614 738 Q 618 653 618 560 L 618 514 Q 617 450 614 379 C 613 349 656 358 658 388 Z" fill="lightgray"></path>
				<path d="M 614 379 Q 583 375 555 371 Q 524 368 488 363 Q 461 360 482 343 Q 512 318 540 325 Q 640 346 790 364 Q 800 363 809 375 Q 810 385 788 396 Q 758 420 663 389 Q 660 389 658 388 L 614 379 Z" fill="lightgray"></path>
				<path d="M 514 243 Q 502 247 475 253 Q 462 257 459 251 Q 452 244 461 227 Q 492 163 510 57 Q 513 26 531 4 Q 550 -18 555 -2 Q 561 14 558 45 L 553 81 Q 537 178 533 210 C 529 238 529 238 514 243 Z" fill="lightgray"></path>
				<path d="M 784 109 Q 808 190 841 214 Q 859 233 843 253 Q 762 313 708 285 Q 629 258 514 243 C 484 239 503 205 533 210 Q 557 214 711 242 Q 732 246 739 238 Q 749 229 747 210 Q 740 155 728 110 C 721 81 775 80 784 109 Z" fill="lightgray"></path>
				<path d="M 558 45 Q 562 45 570 45 Q 643 60 802 68 Q 812 69 815 78 Q 816 87 784 109 C 771 118 757 116 728 110 Q 631 91 553 81 C 523 77 528 45 558 45 Z" fill="lightgray"></path>
</g>
		<text x="40" y="140" font-size="128" fill="#999999">1</text></g>
		<g id="id0:id1:id1" transform="matrix(1.0,0,0,1.0,1024,0.0)">			<g stroke="lightgray" stroke-width="4" transform="scale(4, 4)"> <rect x="0" y="0" width="256" height="256" fill="white" stroke-width="4"/></g>
			<g transform="scale(0.92, -0.92) translate(60, -920)">					<path d="M 273 720 Q 307 692 345 658 Q 360 645 376 646 Q 388 646 393 660 Q 397 676 387 707 Q 375 743 267 771 Q 251 774 244 771 Q 238 767 240 753 Q 244 743 273 720 Z" fill="black"></path>
				<path d="M 148 472 Q 97 456 69 453 Q 54 453 52 445 Q 48 436 59 429 Q 104 405 141 422 Q 243 473 252 470 Q 253 470 255 468 Q 264 462 257 359 Q 256 251 225 153 Q 210 123 254 69 Q 264 57 275 64 Q 282 71 294 96 Q 333 151 417 247 Q 429 259 426 266 Q 425 275 413 264 Q 370 233 329 199 Q 287 163 294 216 Q 293 277 315 427 Q 319 452 342 476 Q 354 486 344 500 Q 332 516 293 533 Q 281 540 263 528 Q 190 486 148 472 Z" fill="red"></path>
				<path d="M 666 523 Q 876 568 882 573 Q 892 582 887 591 Q 880 604 848 612 Q 817 619 784 607 Q 726 588 668 572 L 618 560 Q 533 544 439 535 Q 400 529 428 511 Q 473 484 532 498 Q 572 505 618 514 L 666 523 Z" fill="lightgray"></path>
				<path d="M 658 388 Q 662 458 666 523 L 668 572 Q 672 693 692 776 Q 696 788 675 803 Q 638 822 613 827 Q 597 831 588 822 Q 581 813 589 798 Q 614 762 614 738 Q 618 653 618 560 L 618 514 Q 617 450 614 379 C 613 349 656 358 658 388 Z" fill="lightgray"></path>
				<path d="M 614 379 Q 583 375 555 371 Q 524 368 488 363 Q 461 360 482 343 Q 512 318 540 325 Q 640 346 790 364 Q 800 363 809 375 Q 810 385 788 396 Q 758 420 663 389 Q 660 389 658 388 L 614 379 Z" fill="lightgray"></path>
				<path d="M 514 243 Q 502 247 475 253 Q 462 257 459 251 Q 452 244 461 227 Q 492 163 510 57 Q 513 26 531 4 Q 550 -18 555 -2 Q 561 14 558 45 L 553 81 Q 537 178 533 210 C 529 238 529 238 514 243 Z" fill="lightgray"></path>
				<path d="M 784 109 Q 808 190 841 214 Q 859 233 843 253 Q 762 313 708 285 Q 629 258 514 243 C 484 239 503 205 533 210 Q 557 214 711 242 Q 732 246 739 238 Q 749 229 747 210 Q 740 155 728 110 C 721 81 775 80 784 109 Z" fill="lightgray"></path>
				<path d="M 558 45 Q 562 45 570 45 Q 643 60 802 68 Q 812 69 815 78 Q 816 87 784 109 C 771 118 757 116 728 110 Q 631 91 553 81 C 523 77 528 45 558 45 Z" fill="lightgray"></path>
</g>
		<text x="40" y="140" font-size="128" fill="#999999">2</text></g>
		<g id="id0:id2:id2" transform="matrix(1.0,0,0,1.0,2048,0.0)">			<g stroke="lightgray" stroke-width="4" transform="scale(4, 4)"> <rect x="0" y="0" width="256" height="256" fill="white" stroke-width="4"/></g>
			<g transform="scale(0.92, -0.92) translate(60, -920)">					<path d="M 273 720 Q 307 692 345 658 Q 360 645 376 646 Q 388 646 393 660 Q 397 676 387 707 Q 375 743 267 771 Q 251 774 244 771 Q 238 767 240 753 Q 244 743 273 720 Z" fill="black"></path>
				<path d="M 148 472 Q 97 456 69 453 Q 54 453 52 445 Q 48 436 59 429 Q 104 405 141 422 Q 243 473 252 470 Q 253 470 255 468 Q 264 462 257 359 Q 256 251 225 153 Q 210 123 254 69 Q 264 57 275 64 Q 282 71 294 96 Q 333 151 417 247 Q 429 259 426 266 Q 425 275 413 264 Q 370 233 329 199 Q 287 163 294 216 Q 293 277 315 427 Q 319 452 342 476 Q 354 486 344 500 Q 332 516 293 533 Q 281 540 263 528 Q 190 486 148 472 Z" fill="black"></path>
				<path d="M 666 523 Q 876 568 882 573 Q 892 582 887 591 Q 880 604 848 612 Q 817 619 784 607 Q 726 588 668 572 L 618 560 Q 533 544 439 535 Q 400 529 428 511 Q 473 484 532 498 Q 572 505 618 514 L 666 523 Z" fill="red"></path>
				<path d="M 658 388 Q 662 458 666 523 L 668 572 Q 672 693 692 776 Q 696 788 675 803 Q 638 822 613 827 Q 597 831 588 822 Q 581 813 589 798 Q 614 762 614 738 Q 618 653 618 560 L 618 514 Q 617 450 614 379 C 613 349 656 358 658 388 Z" fill="lightgray"></path>
				<path d="M 614 379 Q 583 375 555 371 Q 524 368 488 363 Q 461 360 482 343 Q 512 318 540 325 Q 640 346 790 364 Q 800 363 809 375 Q 810 385 788 396 Q 758 420 663 389 Q 660 389 658 388 L 614 379 Z" fill="lightgray"></path>
				<path d="M 514 243 Q 502 247 475 253 Q 462 257 459 251 Q 452 244 461 227 Q 492 163 510 57 Q 513 26 531 4 Q 550 -18 555 -2 Q 561 14 558 45 L 553 81 Q 537 178 533 210 C 529 238 529 238 514 243 Z" fill="lightgray"></path>
				<path d="M 784 109 Q 808 190 841 214 Q 859 233 843 253 Q 762 313 708 285 Q 629 258 514 243 C 484 239 503 205 533 210 Q 557 214 711 242 Q 732 246 739 238 Q 749 229 747 210 Q 740 155 728 110 C 721 81 775 80 784 109 Z" fill="lightgray"></path>
				<path d="M 558 45 Q 562 45 570 45 Q 643 60 802 68 Q 812 69 815 78 Q 816 87 784 109 C 771 118 757 116 728 110 Q 631 91 553 81 C 523 77 528 45 558 45 Z" fill="lightgray"></path>
</g>
		<text x="40" y="140" font-size="128" fill="#999999">3</text></g>
		<g id="id0:id3:id3" transform="matrix(1.0,0,0,1.0,3072,0.0)">			<g stroke="lightgray" stroke-width="4" transform="scale(4, 4)"> <rect x="0" y="0" width="256" height="256" fill="white" stroke-width="4"/></g>
			<g transform="scale(0.92, -0.92) translate(60, -920)">					<path d="M 273 720 Q 307 692 345 658 Q 360 645 376 646 Q 388 646 393 660 Q 397 676 387 707 Q 375 743 267 771 Q 251 774 244 771 Q 238 767 240 753 Q 244 743 273 720 Z" fill="black"></path>
				<path d="M 148 472 Q 97 456 69 453 Q 54 453 52 445 Q 48 436 59 429 Q 104 405 141 422 Q 243 473 252 470 Q 253 470 255 468 Q 264 462 257 359 Q 256 251 225 153 Q 210 123 254 69 Q 264 57 275 64 Q 282 71 294 96 Q 333 151 417 247 Q 429 259 426 266 Q 425 275 413 264 Q 370 233 329 199 Q 287 163 294 216 Q 293 277 315 427 Q 319 452 342 476 Q 354 486 344 500 Q 332 516 293 533 Q 281 540 263 528 Q 190 486 148 472 Z" fill="black"></path>
				<path d="M 666 523 Q 876 568 882 573 Q 892 582 887 591 Q 880 604 848 612 Q 817 619 784 607 Q 726 588 668 572 L 618 560 Q 533 544 439 535 Q 400 529 428 511 Q 473 484 532 498 Q 572 505 618 514 L 666 523 Z" fill="black"></path>
				<path d="M 658 388 Q 662 458 666 523 L 668 572 Q 672 693 692 776 Q 696 788 675 803 Q 638 822 613 827 Q 597 831 588 822 Q 581 813 589 798 Q 614 762 614 738 Q 618 653 618 560 L 618 514 Q 617 450 614 379 C 613 349 656 358 658 388 Z" fill="red"></path>
				<path d="M 614 379 Q 583 375 555 371 Q 524 368 488 363 Q 461 360 482 343 Q 512 318 540 325 Q 640 346 790 364 Q 800 363 809 375 Q 810 385 788 396 Q 758 420 663 389 Q 660 389 658 388 L 614 379 Z" fill="lightgray"></path>
				<path d="M 514 243 Q 502 247 475 253 Q 462 257 459 251 Q 452 244 461 227 Q 492 163 510 57 Q 513 26 531 4 Q 550 -18 555 -2 Q 561 14 558 45 L 553 81 Q 537 178 533 210 C 529 238 529 238 514 243 Z" fill="lightgray"></path>
				<path d="M 784 109 Q 808 190 841 214 Q 859 233 843 253 Q 762 313 708 285 Q 629 258 514 243 C 484 239 503 205 533 210 Q 557 214 711 242 Q 732 246 739 238 Q 749 229 747 210 Q 740 155 728 110 C 721 81 775 80 784 109 Z" fill="lightgray"></path>
				<path d="M 558 45 Q 562 45 570 45 Q 643 60 802 68 Q 812 69 815 78 Q 816 87 784 109 C 771 118 757 116 728 110 Q 631 91 553 81 C 523 77 528 45 558 45 Z" fill="lightgray"></path>
</g>
		<text x="40" y="140" font-size="128" fill="#999999">4</text></g>
		<g id="id0:id4:id4" transform="matrix(1.0,0,0,1.0,4096,0.0)">			<g stroke="lightgray" stroke-width="4" transform="scale(4, 4)"> <rect x="0" y="0" width="256" height="256" fill="white" stroke-width="4"/></g>
			<g transform="scale(0.92, -0.92) translate(60, -920)">					<path d="M 273 720 Q 307 692 345 658 Q 360 645 376 646 Q 388 646 393 660 Q 397 676 387 707 Q 375 743 267 771 Q 251 774 244 771 Q 238 767 240 753 Q 244 743 273 720 Z" fill="black"></path>
				<path d="M 148 472 Q 97 456 69 453 Q 54 453 52 445 Q 48 436 59 429 Q 104 405 141 422 Q 243 473 252 470 Q 253 470 255 468 Q 264 462 257 359 Q 256 251 225 153 Q 210 123 254 69 Q 264 57 275 64 Q 282 71 294 96 Q 333 151 417 247 Q 429 259 426 266 Q 425 275 413 264 Q 370 233 329 199 Q 287 163 294 216 Q 293 277 315 427 Q 319 452 342 476 Q 354 486 344 500 Q 332 516 293 533 Q 281 540 263 528 Q 190 486 148 472 Z" fill="black"></path>
				<path d="M 666 523 Q 876 568 882 573 Q 892 582 887 591 Q 880 604 848 612 Q 817 619 784 607 Q 726 588 668 572 L 618 560 Q 533 544 439 535 Q 400 529 428 511 Q 473 484 532 498 Q 572 505 618 514 L 666 523 Z" fill="black"></path>
				<path d="M 658 388 Q 662 458 666 523 L 668 572 Q 672 693 692 776 Q 696 788 675 803 Q 638 822 613 827 Q 597 831 588 822 Q 581 813 589 798 Q 614 762 614 738 Q 618 653 618 560 L 618 514 Q 617 450 614 379 C 613 349 656 358 658 388 Z" fill="black"></path>
				<path d="M 614 379 Q 583 375 555 371 Q 524 368 488 363 Q 461 360 482 343 Q 512 318 540 325 Q 640 346 790 364 Q 800 363 809 375 Q 810 385 788 396 Q 758 420 663 389 Q 660 389 658 388 L 614 379 Z" fill="red"></path>
				<path d="M 514 243 Q 502 247 475 253 Q 462 257 459 251 Q 452 244 461 227 Q 492 163 510 57 Q 513 26 531 4 Q 550 -18 555 -2 Q 561 14 558 45 L 553 81 Q 537 178 533 210 C 529 238 529 238 514 243 Z" fill="lightgray"></path>
				<path d="M 784 109 Q 808 190 841 214 Q 859 233 843 253 Q 762 313 708 285 Q 629 258 514 243 C 484 239 503 205 533 210 Q 557 214 711 242 Q 732 246 739 238 Q 749 229 747 210 Q 740 155 728 110 C 721 81 775 80 784 109 Z" fill="lightgray"></path>
				<path d="M 558 45 Q 562 45 570 45 Q 643 60 802 68 Q 812 69 815 78 Q 816 87 784 109 C 771 118 757 116 728 110 Q 631 91 553 81 C 523 77 528 45 558 45 Z" fill="lightgray"></path>
</g>
		<text x="40" y="140" font-size="128" fill="#999999">5</text></g>
</g>
	<g id="id1:id1" transform="translate(0.0,1024)">
		<g id="id1:id0:id0" transform="matrix(1.0,0,0,1.0,0,0.0)">			<g stroke="lightgray" stroke-width="4" transform="scale(4, 4)"> <rect x="0" y="0" width="256" height="256" fill="white" stroke-width="4"/></g>
			<g transform="scale(0.92, -0.92) translate(60, -920)">					<path d="M 273 720 Q 307 692 345 658 Q 360 645 376 646 Q 388 646 393 660 Q 397 676 387 707 Q 375 743 267 771 Q 251 774 244 771 Q 238 767 240 753 Q 244 743 273 720 Z" fill="black"></path>
				<path d="M 148 472 Q 97 456 69 453 Q 54 453 52 445 Q 48 436 59 429 Q 104 405 141 422 Q 243 473 252 470 Q 253 470 255 468 Q 264 462 257 359 Q 256 251 225 153 Q 210 123 254 69 Q 264 57 275 64 Q 282 71 294 96 Q 333 151 417 247 Q 429 259 426 266 Q 425 275 413 264 Q 370 233 329 199 Q 287 163 294 216 Q 293 277 315 427 Q 319 452 342 476 Q 354 486 344 500 Q 332 516 293 533 Q 281 540 263 528 Q 190 486 148 472 Z" fill="black"></path>
				<path d="M 666 523 Q 876 568 882 573 Q 892 582 887 591 Q 880 604 848 612 Q 817 619 784 607 Q 726 588 668 572 L 618 560 Q 533 544 439 535 Q 400 529 428 511 Q 473 484 532 498 Q 572 505 618 514 L 666 523 Z" fill="black"></path>
				<path d="M 658 388 Q 662 458 666 523 L 668 572 Q 672 693 692 776 Q 696 788 675 803 Q 638 822 613 827 Q 597 831 588 822 Q 581 813 589 798 Q 614 762 614 738 Q 618 653 618 560 L 618 514 Q 617 450 614 379 C 613 349 656 358 658 388 Z" fill="black"></path>
				<path d="M 614 379 Q 583 375 555 371 Q 524 368 488 363 Q 461 360 482 343 Q 512 318 540 325 Q 640 346 790 364 Q 800 363 809 375 Q 810 385 788 396 Q 758 420 663 389 Q 660 389 658 388 L 614 379 Z" fill="black"></path>
				<path d="M 514 243 Q 502 247 475 253 Q 462 257 459 251 Q 452 244 461 227 Q 492 163 510 57 Q 513 26 531 4 Q 550 -18 555 -2 Q 561 14 558 45 L 553 81 Q 537 178 533 210 C 529 238 529 238 514 243 Z" fill="red"></path>
				<path d="M 784 109 Q 808 190 841 214 Q 859 233 843 253 Q 762 313 708 285 Q 629 258 514 243 C 484 239 503 205 533 210 Q 557 214 711 242 Q 732 246 739 238 Q 749 229 747 210 Q 740 155 728 110 C 721 81 775 80 784 109 Z" fill="lightgray"></path>
				<path d="M 558 45 Q 562 45 570 45 Q 643 60 802 68 Q 812 69 815 78 Q 816 87 784 109 C 771 118 757 116 728 110 Q 631 91 553 81 C 523 77 528 45 558 45 Z" fill="lightgray"></path>
</g>
		<text x="40" y="140" font-size="128" fill="#999999">6</text></g>
		<g id="id1:id1:id1" transform="matrix(1.0,0,0,1.0,1024,0.0)">			<g stroke="lightgray" stroke-width="4" transform="scale(4, 4)"> <rect x="0" y="0" width="256" height="256" fill="white" stroke-width="4"/></g>
			<g transform="scale(0.92, -0.92) translate(60, -920)">					<path d="M 273 720 Q 307 692 345 658 Q 360 645 376 646 Q 388 646 393 660 Q 397 676 387 707 Q 375 743 267 771 Q 251 774 244 771 Q 238 767 240 753 Q 244 743 273 720 Z" fill="black"></path>
				<path d="M 148 472 Q 97 456 69 453 Q 54 453 52 445 Q 48 436 59 429 Q 104 405 141 422 Q 243 473 252 470 Q 253 470 255 468 Q 264 462 257 359 Q 256 251 225 153 Q 210 123 254 69 Q 264 57 275 64 Q 282 71 294 96 Q 333 151 417 247 Q 429 259 426 266 Q 425 275 413 264 Q 370 233 329 199 Q 287 163 294 216 Q 293 277 315 427 Q 319 452 342 476 Q 354 486 344 500 Q 332 516 293 533 Q 281 540 263 528 Q 190 486 148 472 Z" fill="black"></path>
				<path d="M 666 523 Q 876 568 882 573 Q 892 582 887 591 Q 880 604 848 612 Q 817 619 784 607 Q 726 588 668 572 L 618 560 Q 533 544 439 535 Q 400 529 428 511 Q 473 484 532 498 Q 572 505 618 514 L 666 523 Z" fill="black"></path>
				<path d="M 658 388 Q 662 458 666 523 L 668 572 Q 672 693 692 776 Q 696 788 675 803 Q 638 822 613 827 Q 597 831 588 822 Q 581 813 589 798 Q 614 762 614 738 Q 618 653 618 560 L 618 514 Q 617 450 614 379 C 613 349 656 358 658 388 Z" fill="black"></path>
				<path d="M 614 379 Q 583 375 555 371 Q 524 368 488 363 Q 461 360 482 343 Q 512 318 540 325 Q 640 346 790 364 Q 800 363 809 375 Q 810 385 788 396 Q 758 420 663 389 Q 660 389 658 388 L 614 379 Z" fill="black"></path>
				<path d="M 514 243 Q 502 247 475 253 Q 462 257 459 251 Q 452 244 461 227 Q 492 163 510 57 Q 513 26 531 4 Q 550 -18 555 -2 Q 561 14 558 45 L 553 81 Q 537 178 533 210 C 529 238 529 238 514 243 Z" fill="black"></path>
				<path d="M 784 109 Q 808 190 841 214 Q 859 233 843 253 Q 762 313 708 285 Q 629 258 514 243 C 484 239 503 205 533 210 Q 557 214 711 242 Q 732 246 739 238 Q 749 229 747 210 Q 740 155 728 110 C 721 81 775 80 784 109 Z" fill="red"></path>
				<path d="M 558 45 Q 562 45 570 45 Q 643 60 802 68 Q 812 69 815 78 Q 816 87 784 109 C 771 118 757 116 728 110 Q 631 91 553 81 C 523 77 528 45 558 45 Z" fill="lightgray"></path>
</g>
		<text x="40" y="140" font-size="128" fill="#999999">7</text></g>
		<g id="id1:id2:id2" transform="matrix(1.0,0,0,1.0,2048,0.0)">			<g stroke="lightgray" stroke-width="4" transform="scale(4, 4)"> <rect x="0" y="0" width="256" height="256" fill="white" stroke-width="4"/></g>
			<g transform="scale(0.92, -0.92) translate(60, -920)">					<path d="M 273 720 Q 307 692 345 658 Q 360 645 376 646 Q 388 646 393 660 Q 397 676 387 707 Q 375 743 267 771 Q 251 774 244 771 Q 238 767 240 753 Q 244 743 273 720 Z" fill="black"></path>
				<path d="M 148 472 Q 97 456 69 453 Q 54 453 52 445 Q 48 436 59 429 Q 104 405 141 422 Q 243 473 252 470 Q 253 470 255 468 Q 264 462 257 359 Q 256 251 225 153 Q 210 123 254 69 Q 264 57 275 64 Q 282 71 294 96 Q 333 151 417 247 Q 429 259 426 266 Q 425 275 413 264 Q 370 233 329 199 Q 287 163 294 216 Q 293 277 315 427 Q 319 452 342 476 Q 354 486 344 500 Q 332 516 293 533 Q 281 540 263 528 Q 190 486 148 472 Z" fill="black"></path>
				<path d="M 666 523 Q 876 568 882 573 Q 892 582 887 591 Q 880 604 848 612 Q 817 619 784 607 Q 726 588 668 572 L 618 560 Q 533 544 439 535 Q 400 529 428 511 Q 473 484 532 498 Q 572 505 618 514 L 666 523 Z" fill="black"></path>
				<path d="M 658 388 Q 662 458 666 523 L 668 572 Q 672 693 692 776 Q 696 788 675 803 Q 638 822 613 827 Q 597 831 588 822 Q 581 813 589 798 Q 614 762 614 738 Q 618 653 618 560 L 618 514 Q 617 450 614 379 C 613 349 656 358 658 388 Z" fill="black"></path>
				<path d="M 614 379 Q 583 375 555 371 Q 524 368 488 363 Q 461 360 482 343 Q 512 318 540 325 Q 640 346 790 364 Q 800 363 809 375 Q 810 385 788 396 Q 758 420 663 389 Q 660 389 658 388 L 614 379 Z" fill="black"></path>
				<path d="M 514 243 Q 502 247 475 253 Q 462 257 459 251 Q 452 244 461 227 Q 492 163 510 57 Q 513 26 531 4 Q 550 -18 555 -2 Q 561 14 558 45 L 553 81 Q 537 178 533 210 C 529 238 529 238 514 243 Z" fill="black"></path>
				<path d="M 784 109 Q 808 190 841 214 Q 859 233 843 253 Q 762 313 708 285 Q 629 258 514 243 C 484 239 503 205 533 210 Q 557 214 711 242 Q 732 246 739 238 Q 749 229 747 210 Q 740 155 728 110 C 721 81 775 80 784 109 Z" fill="black"></path>
				<path d="M 558 45 Q 562 45 570 45 Q 643 60 802 68 Q 812 69 815 78 Q 816 87 784 109 C 771 118 757 116 728 110 Q 631 91 553 81 C 523 77 528 45 558 45 Z" fill="red"></path>
</g>
		<text x="40" y="140" font-size="128" fill="#999999">8</text></g>
		<g id="id1:id3:id3" transform="matrix(1.0,0,0,1.0,3072,0.0)">			<g stroke="white" stroke-width="4" transform="scale(4, 4)"> <rect x="1" y="1" width="255" height="255" fill="white" stroke-width="0"/></g>
</g>
		<g id="id1:id4:id4" transform="matrix(1.0,0,0,1.0,4096,0.0)">			<g stroke="white" stroke-width="4" transform="scale(4, 4)"> <rect x="1" y="1" width="255" height="255" fill="white" stroke-width="0"/></g>
</g>
</g>
</svg>
