<?xml version="1.0" standalone="no"?>
<!DOCTYPE svg PUBLIC "-//W3C//DTD SVG 1.1//EN"
 "http://www.w3.org/Graphics/SVG/1.1/DTD/svg11.dtd">
<!-- generate by Handict dictionary app com.asnsami.handict -->

<svg xmlns="http://www.w3.org/2000/svg" xmlns:sodipodi="http://sodipodi.sourceforge.net/DTD/sodipodi-0.dtd" version="1.1" width="640" height="256" viewBox="0 0 5120 2048">
	<g id="id0:id0" transform="translate(0.0,0)">
		<g id="id0:id0:id0" transform="matrix(1.0,0,0,1.0,0,0.0)">			<g stroke="lightgray" stroke-width="4" transform="scale(4, 4)"> <rect x="0" y="0" width="256" height="256" fill="white" stroke-width="4"/></g>
			<g transform="scale(0.92, -0.92) translate(60, -920)">					<path d="M 292 732 Q 320 708 349 679 Q 364 666 380 666 Q 392 667 397 681 Q 401 696 392 727 Q 386 748 354 762 Q 279 790 264 783 Q 258 779 260 765 Q 264 755 292 732 Z" fill="red"></path>
				<path d="M 157 474 Q 108 458 81 455 Q 68 455 65 448 Q 61 439 72 432 Q 94 419 110 417 Q 117 416 161 430 Q 272 484 280 477 Q 290 471 285 446 Q 285 272 247 147 Q 229 116 273 67 Q 283 54 293 61 Q 300 68 312 91 Q 349 140 429 224 Q 441 234 438 242 Q 437 249 426 241 Q 387 216 350 189 Q 305 152 313 207 Q 313 274 338 438 Q 342 462 363 485 Q 375 495 366 507 Q 356 523 317 539 Q 305 546 289 535 Q 204 489 157 474 Z" fill="lightgray"></path>
				<path d="M 675 633 Q 772 717 808 727 Q 827 734 821 750 Q 817 765 754 800 Q 735 810 714 801 Q 659 780 576 756 Q 555 749 502 750 Q 480 750 488 731 Q 495 719 514 708 Q 544 692 575 711 Q 594 718 690 757 Q 703 761 714 755 Q 726 748 720 735 Q 690 692 656 642 C 639 617 652 613 675 633 Z" fill="lightgray"></path>
				<path d="M 656 642 Q 601 664 584 659 Q 580 655 581 644 Q 584 634 607 617 Q 632 596 658 571 Q 670 561 684 560 Q 693 561 697 573 Q 701 586 693 611 Q 689 624 675 633 L 656 642 Z" fill="lightgray"></path>
				<path d="M 506 517 Q 505 518 504 519 Q 476 535 458 534 Q 445 530 450 518 Q 451 514 454 508 Q 453 507 455 503 Q 455 502 457 499 Q 496 385 447 186 Q 440 161 429 142 Q 413 115 434 71 Q 437 65 443 58 Q 450 45 460 50 Q 497 74 504 205 Q 514 428 521 479 C 524 506 524 506 506 517 Z" fill="lightgray"></path>
				<path d="M 661 511 Q 716 524 780 533 Q 802 539 813 527 Q 823 521 827 474 Q 839 314 830 132 Q 829 105 819 98 Q 804 88 732 106 Q 716 107 718 99 Q 719 92 731 87 Q 795 44 830 9 Q 849 -10 862 -7 Q 874 -4 884 23 Q 899 66 897 129 Q 884 361 883 448 Q 883 485 894 507 Q 904 528 895 539 Q 885 552 840 575 Q 822 584 753 564 Q 627 534 506 517 C 476 513 492 471 521 479 Q 561 491 611 500 L 661 511 Z" fill="lightgray"></path>
				<path d="M 678 369 Q 709 378 746 386 Q 771 393 776 397 Q 783 404 779 411 Q 772 420 749 425 Q 725 429 679 409 L 629 394 Q 595 387 561 382 Q 533 376 554 364 Q 584 348 629 358 L 678 369 Z" fill="lightgray"></path>
				<path d="M 677 255 Q 711 265 749 273 Q 780 280 784 285 Q 791 292 787 299 Q 780 308 757 313 Q 735 316 677 294 L 629 280 Q 590 273 550 266 Q 520 260 542 248 Q 575 230 623 243 Q 624 243 629 243 L 677 255 Z" fill="lightgray"></path>
				<path d="M 632 53 Q 636 31 643 22 Q 647 16 655 18 Q 676 36 677 214 Q 677 232 677 255 L 677 294 Q 677 328 678 369 L 679 409 Q 679 416 683 448 Q 690 493 679 501 Q 669 508 661 511 C 634 525 598 527 611 500 Q 629 473 629 398 Q 629 397 629 394 L 629 358 Q 629 322 629 280 L 629 243 Q 629 75 632 53 Z" fill="lightgray"></path>
</g>
		<text x="40" y="140" font-size="128" fill="#999999">1</text></g>
		<g id="id0:id1:id1" transform="matrix(1.0,0,0,1.0,1024,0.0)">			<g stroke="lightgray" stroke-width="4" transform="scale(4, 4)"> <rect x="0" y="0" width="256" height="256" fill="white" stroke-width="4"/></g>
			<g transform="scale(0.92, -0.92) translate(60, -920)">					<path d="M 292 732 Q 320 708 349 679 Q 364 666 380 666 Q 392 667 397 681 Q 401 696 392 727 Q 386 748 354 762 Q 279 790 264 783 Q 258 779 260 765 Q 264 755 292 732 Z" fill="black"></path>
				<path d="M 157 474 Q 108 458 81 455 Q 68 455 65 448 Q 61 439 72 432 Q 94 419 110 417 Q 117 416 161 430 Q 272 484 280 477 Q 290 471 285 446 Q 285 272 247 147 Q 229 116 273 67 Q 283 54 293 61 Q 300 68 312 91 Q 349 140 429 224 Q 441 234 438 242 Q 437 249 426 241 Q 387 216 350 189 Q 305 152 313 207 Q 313 274 338 438 Q 342 462 363 485 Q 375 495 366 507 Q 356 523 317 539 Q 305 546 289 535 Q 204 489 157 474 Z" fill="red"></path>
				<path d="M 675 633 Q 772 717 808 727 Q 827 734 821 750 Q 817 765 754 800 Q 735 810 714 801 Q 659 780 576 756 Q 555 749 502 750 Q 480 750 488 731 Q 495 719 514 708 Q 544 692 575 711 Q 594 718 690 757 Q 703 761 714 755 Q 726 748 720 735 Q 690 692 656 642 C 639 617 652 613 675 633 Z" fill="lightgray"></path>
				<path d="M 656 642 Q 601 664 584 659 Q 580 655 581 644 Q 584 634 607 617 Q 632 596 658 571 Q 670 561 684 560 Q 693 561 697 573 Q 701 586 693 611 Q 689 624 675 633 L 656 642 Z" fill="lightgray"></path>
				<path d="M 506 517 Q 505 518 504 519 Q 476 535 458 534 Q 445 530 450 518 Q 451 514 454 508 Q 453 507 455 503 Q 455 502 457 499 Q 496 385 447 186 Q 440 161 429 142 Q 413 115 434 71 Q 437 65 443 58 Q 450 45 460 50 Q 497 74 504 205 Q 514 428 521 479 C 524 506 524 506 506 517 Z" fill="lightgray"></path>
				<path d="M 661 511 Q 716 524 780 533 Q 802 539 813 527 Q 823 521 827 474 Q 839 314 830 132 Q 829 105 819 98 Q 804 88 732 106 Q 716 107 718 99 Q 719 92 731 87 Q 795 44 830 9 Q 849 -10 862 -7 Q 874 -4 884 23 Q 899 66 897 129 Q 884 361 883 448 Q 883 485 894 507 Q 904 528 895 539 Q 885 552 840 575 Q 822 584 753 564 Q 627 534 506 517 C 476 513 492 471 521 479 Q 561 491 611 500 L 661 511 Z" fill="lightgray"></path>
				<path d="M 678 369 Q 709 378 746 386 Q 771 393 776 397 Q 783 404 779 411 Q 772 420 749 425 Q 725 429 679 409 L 629 394 Q 595 387 561 382 Q 533 376 554 364 Q 584 348 629 358 L 678 369 Z" fill="lightgray"></path>
				<path d="M 677 255 Q 711 265 749 273 Q 780 280 784 285 Q 791 292 787 299 Q 780 308 757 313 Q 735 316 677 294 L 629 280 Q 590 273 550 266 Q 520 260 542 248 Q 575 230 623 243 Q 624 243 629 243 L 677 255 Z" fill="lightgray"></path>
				<path d="M 632 53 Q 636 31 643 22 Q 647 16 655 18 Q 676 36 677 214 Q 677 232 677 255 L 677 294 Q 677 328 678 369 L 679 409 Q 679 416 683 448 Q 690 493 679 501 Q 669 508 661 511 C 634 525 598 527 611 500 Q 629 473 629 398 Q 629 397 629 394 L 629 358 Q 629 322 629 280 L 629 243 Q 629 75 632 53 Z" fill="lightgray"></path>
</g>
		<text x="40" y="140" font-size="128" fill="#999999">2</text></g>
		<g id="id0:id2:id2" transform="matrix(1.0,0,0,1.0,2048,0.0)">			<g stroke="lightgray" stroke-width="4" transform="scale(4, 4)"> <rect x="0" y="0" width="256" height="256" fill="white" stroke-width="4"/></g>
			<g transform="scale(0.92, -0.92) translate(60, -920)">					<path d="M 292 732 Q 320 708 349 679 Q 364 666 380 666 Q 392 667 397 681 Q 401 696 392 727 Q 386 748 354 762 Q 279 790 264 783 Q 258 779 260 765 Q 264 755 292 732 Z" fill="black"></path>
				<path d="M 157 474 Q 108 458 81 455 Q 68 455 65 448 Q 61 439 72 432 Q 94 419 110 417 Q 117 416 161 430 Q 272 484 280 477 Q 290 471 285 446 Q 285 272 247 147 Q 229 116 273 67 Q 283 54 293 61 Q 300 68 312 91 Q 349 140 429 224 Q 441 234 438 242 Q 437 249 426 241 Q 387 216 350 189 Q 305 152 313 207 Q 313 274 338 438 Q 342 462 363 485 Q 375 495 366 507 Q 356 523 317 539 Q 305 546 289 535 Q 204 489 157 474 Z" fill="black"></path>
				<path d="M 675 633 Q 772 717 808 727 Q 827 734 821 750 Q 817 765 754 800 Q 735 810 714 801 Q 659 780 576 756 Q 555 749 502 750 Q 480 750 488 731 Q 495 719 514 708 Q 544 692 575 711 Q 594 718 690 757 Q 703 761 714 755 Q 726 748 720 735 Q 690 692 656 642 C 639 617 652 613 675 633 Z" fill="red"></path>
				<path d="M 656 642 Q 601 664 584 659 Q 580 655 581 644 Q 584 634 607 617 Q 632 596 658 571 Q 670 561 684 560 Q 693 561 697 573 Q 701 586 693 611 Q 689 624 675 633 L 656 642 Z" fill="lightgray"></path>
				<path d="M 506 517 Q 505 518 504 519 Q 476 535 458 534 Q 445 530 450 518 Q 451 514 454 508 Q 453 507 455 503 Q 455 502 457 499 Q 496 385 447 186 Q 440 161 429 142 Q 413 115 434 71 Q 437 65 443 58 Q 450 45 460 50 Q 497 74 504 205 Q 514 428 521 479 C 524 506 524 506 506 517 Z" fill="lightgray"></path>
				<path d="M 661 511 Q 716 524 780 533 Q 802 539 813 527 Q 823 521 827 474 Q 839 314 830 132 Q 829 105 819 98 Q 804 88 732 106 Q 716 107 718 99 Q 719 92 731 87 Q 795 44 830 9 Q 849 -10 862 -7 Q 874 -4 884 23 Q 899 66 897 129 Q 884 361 883 448 Q 883 485 894 507 Q 904 528 895 539 Q 885 552 840 575 Q 822 584 753 564 Q 627 534 506 517 C 476 513 492 471 521 479 Q 561 491 611 500 L 661 511 Z" fill="lightgray"></path>
				<path d="M 678 369 Q 709 378 746 386 Q 771 393 776 397 Q 783 404 779 411 Q 772 420 749 425 Q 725 429 679 409 L 629 394 Q 595 387 561 382 Q 533 376 554 364 Q 584 348 629 358 L 678 369 Z" fill="lightgray"></path>
				<path d="M 677 255 Q 711 265 749 273 Q 780 280 784 285 Q 791 292 787 299 Q 780 308 757 313 Q 735 316 677 294 L 629 280 Q 590 273 550 266 Q 520 260 542 248 Q 575 230 623 243 Q 624 243 629 243 L 677 255 Z" fill="lightgray"></path>
				<path d="M 632 53 Q 636 31 643 22 Q 647 16 655 18 Q 676 36 677 214 Q 677 232 677 255 L 677 294 Q 677 328 678 369 L 679 409 Q 679 416 683 448 Q 690 493 679 501 Q 669 508 661 511 C 634 525 598 527 611 500 Q 629 473 629 398 Q 629 397 629 394 L 629 358 Q 629 322 629 280 L 629 243 Q 629 75 632 53 Z" fill="lightgray"></path>
</g>
		<text x="40" y="140" font-size="128" fill="#999999">3</text></g>
		<g id="id0:id3:id3" transform="matrix(1.0,0,0,1.0,3072,0.0)">			<g stroke="lightgray" stroke-width="4" transform="scale(4, 4)"> <rect x="0" y="0" width="256" height="256" fill="white" stroke-width="4"/></g>
			<g transform="scale(0.92, -0.92) translate(60, -920)">					<path d="M 292 732 Q 320 708 349 679 Q 364 666 380 666 Q 392 667 397 681 Q 401 696 392 727 Q 386 748 354 762 Q 279 790 264 783 Q 258 779 260 765 Q 264 755 292 732 Z" fill="black"></path>
				<path d="M 157 474 Q 108 458 81 455 Q 68 455 65 448 Q 61 439 72 432 Q 94 419 110 417 Q 117 416 161 430 Q 272 484 280 477 Q 290 471 285 446 Q 285 272 247 147 Q 229 116 273 67 Q 283 54 293 61 Q 300 68 312 91 Q 349 140 429 224 Q 441 234 438 242 Q 437 249 426 241 Q 387 216 350 189 Q 305 152 313 207 Q 313 274 338 438 Q 342 462 363 485 Q 375 495 366 507 Q 356 523 317 539 Q 305 546 289 535 Q 204 489 157 474 Z" fill="black"></path>
				<path d="M 675 633 Q 772 717 808 727 Q 827 734 821 750 Q 817 765 754 800 Q 735 810 714 801 Q 659 780 576 756 Q 555 749 502 750 Q 480 750 488 731 Q 495 719 514 708 Q 544 692 575 711 Q 594 718 690 757 Q 703 761 714 755 Q 726 748 720 735 Q 690 692 656 642 C 639 617 652 613 675 633 Z" fill="black"></path>
				<path d="M 656 642 Q 601 664 584 659 Q 580 655 581 644 Q 584 634 607 617 Q 632 596 658 571 Q 670 561 684 560 Q 693 561 697 573 Q 701 586 693 611 Q 689 624 675 633 L 656 642 Z" fill="red"></path>
				<path d="M 506 517 Q 505 518 504 519 Q 476 535 458 534 Q 445 530 450 518 Q 451 514 454 508 Q 453 507 455 503 Q 455 502 457 499 Q 496 385 447 186 Q 440 161 429 142 Q 413 115 434 71 Q 437 65 443 58 Q 450 45 460 50 Q 497 74 504 205 Q 514 428 521 479 C 524 506 524 506 506 517 Z" fill="lightgray"></path>
				<path d="M 661 511 Q 716 524 780 533 Q 802 539 813 527 Q 823 521 827 474 Q 839 314 830 132 Q 829 105 819 98 Q 804 88 732 106 Q 716 107 718 99 Q 719 92 731 87 Q 795 44 830 9 Q 849 -10 862 -7 Q 874 -4 884 23 Q 899 66 897 129 Q 884 361 883 448 Q 883 485 894 507 Q 904 528 895 539 Q 885 552 840 575 Q 822 584 753 564 Q 627 534 506 517 C 476 513 492 471 521 479 Q 561 491 611 500 L 661 511 Z" fill="lightgray"></path>
				<path d="M 678 369 Q 709 378 746 386 Q 771 393 776 397 Q 783 404 779 411 Q 772 420 749 425 Q 725 429 679 409 L 629 394 Q 595 387 561 382 Q 533 376 554 364 Q 584 348 629 358 L 678 369 Z" fill="lightgray"></path>
				<path d="M 677 255 Q 711 265 749 273 Q 780 280 784 285 Q 791 292 787 299 Q 780 308 757 313 Q 735 316 677 294 L 629 280 Q 590 273 550 266 Q 520 260 542 248 Q 575 230 623 243 Q 624 243 629 243 L 677 255 Z" fill="lightgray"></path>
				<path d="M 632 53 Q 636 31 643 22 Q 647 16 655 18 Q 676 36 677 214 Q 677 232 677 255 L 677 294 Q 677 328 678 369 L 679 409 Q 679 416 683 448 Q 690 493 679 501 Q 669 508 661 511 C 634 525 598 527 611 500 Q 629 473 629 398 Q 629 397 629 394 L 629 358 Q 629 322 629 280 L 629 243 Q 629 75 632 53 Z" fill="lightgray"></path>
</g>
		<text x="40" y="140" font-size="128" fill="#999999">4</text></g>
		<g id="id0:id4:id4" transform="matrix(1.0,0,0,1.0,4096,0.0)">			<g stroke="lightgray" stroke-width="4" transform="scale(4, 4)"> <rect x="0" y="0" width="256" height="256" fill="white" stroke-width="4"/></g>
			<g transform="scale(0.92, -0.92) translate(60, -920)">					<path d="M 292 732 Q 320 708 349 679 Q 364 666 380 666 Q 392 667 397 681 Q 401 696 392 727 Q 386 748 354 762 Q 279 790 264 783 Q 258 779 260 765 Q 264 755 292 732 Z" fill="black"></path>
				<path d="M 157 474 Q 108 458 81 455 Q 68 455 65 448 Q 61 439 72 432 Q 94 419 110 417 Q 117 416 161 430 Q 272 484 280 477 Q 290 471 285 446 Q 285 272 247 147 Q 229 116 273 67 Q 283 54 293 61 Q 300 68 312 91 Q 349 140 429 224 Q 441 234 438 242 Q 437 249 426 241 Q 387 216 350 189 Q 305 152 313 207 Q 313 274 338 438 Q 342 462 363 485 Q 375 495 366 507 Q 356 523 317 539 Q 305 546 289 535 Q 204 489 157 474 Z" fill="black"></path>
				<path d="M 675 633 Q 772 717 808 727 Q 827 734 821 750 Q 817 765 754 800 Q 735 810 714 801 Q 659 780 576 756 Q 555 749 502 750 Q 480 750 488 731 Q 495 719 514 708 Q 544 692 575 711 Q 594 718 690 757 Q 703 761 714 755 Q 726 748 720 735 Q 690 692 656 642 C 639 617 652 613 675 633 Z" fill="black"></path>
				<path d="M 656 642 Q 601 664 584 659 Q 580 655 581 644 Q 584 634 607 617 Q 632 596 658 571 Q 670 561 684 560 Q 693 561 697 573 Q 701 586 693 611 Q 689 624 675 633 L 656 642 Z" fill="black"></path>
				<path d="M 506 517 Q 505 518 504 519 Q 476 535 458 534 Q 445 530 450 518 Q 451 514 454 508 Q 453 507 455 503 Q 455 502 457 499 Q 496 385 447 186 Q 440 161 429 142 Q 413 115 434 71 Q 437 65 443 58 Q 450 45 460 50 Q 497 74 504 205 Q 514 428 521 479 C 524 506 524 506 506 517 Z" fill="red"></path>
				<path d="M 661 511 Q 716 524 780 533 Q 802 539 813 527 Q 823 521 827 474 Q 839 314 830 132 Q 829 105 819 98 Q 804 88 732 106 Q 716 107 718 99 Q 719 92 731 87 Q 795 44 830 9 Q 849 -10 862 -7 Q 874 -4 884 23 Q 899 66 897 129 Q 884 361 883 448 Q 883 485 894 507 Q 904 528 895 539 Q 885 552 840 575 Q 822 584 753 564 Q 627 534 506 517 C 476 513 492 471 521 479 Q 561 491 611 500 L 661 511 Z" fill="lightgray"></path>
				<path d="M 678 369 Q 709 378 746 386 Q 771 393 776 397 Q 783 404 779 411 Q 772 420 749 425 Q 725 429 679 409 L 629 394 Q 595 387 561 382 Q 533 376 554 364 Q 584 348 629 358 L 678 369 Z" fill="lightgray"></path>
				<path d="M 677 255 Q 711 265 749 273 Q 780 280 784 285 Q 791 292 787 299 Q 780 308 757 313 Q 735 316 677 294 L 629 280 Q 590 273 550 266 Q 520 260 542 248 Q 575 230 623 243 Q 624 243 629 243 L 677 255 Z" fill="lightgray"></path>
				<path d="M 632 53 Q 636 31 643 22 Q 647 16 655 18 Q 676 36 677 214 Q 677 232 677 255 L 677 294 Q 677 328 678 369 L 679 409 Q 679 416 683 448 Q 690 493 679 501 Q 669 508 661 511 C 634 525 598 527 611 500 Q 629 473 629 398 Q 629 397 629 394 L 629 358 Q 629 322 629 280 L 629 243 Q 629 75 632 53 Z" fill="lightgray"></path>
</g>
		<text x="40" y="140" font-size="128" fill="#999999">5</text></g>
</g>
	<g id="id1:id1" transform="translate(0.0,1024)">
		<g id="id1:id0:id0" transform="matrix(1.0,0,0,1.0,0,0.0)">			<g stroke="lightgray" stroke-width="4" transform="scale(4, 4)"> <rect x="0" y="0" width="256" height="256" fill="white" stroke-width="4"/></g>
			<g transform="scale(0.92, -0.92) translate(60, -920)">					<path d="M 292 732 Q 320 708 349 679 Q 364 666 380 666 Q 392 667 397 681 Q 401 696 392 727 Q 386 748 354 762 Q 279 790 264 783 Q 258 779 260 765 Q 264 755 292 732 Z" fill="black"></path>
				<path d="M 157 474 Q 108 458 81 455 Q 68 455 65 448 Q 61 439 72 432 Q 94 419 110 417 Q 117 416 161 430 Q 272 484 280 477 Q 290 471 285 446 Q 285 272 247 147 Q 229 116 273 67 Q 283 54 293 61 Q 300 68 312 91 Q 349 140 429 224 Q 441 234 438 242 Q 437 249 426 241 Q 387 216 350 189 Q 305 152 313 207 Q 313 274 338 438 Q 342 462 363 485 Q 375 495 366 507 Q 356 523 317 539 Q 305 546 289 535 Q 204 489 157 474 Z" fill="black"></path>
				<path d="M 675 633 Q 772 717 808 727 Q 827 734 821 750 Q 817 765 754 800 Q 735 810 714 801 Q 659 780 576 756 Q 555 749 502 750 Q 480 750 488 731 Q 495 719 514 708 Q 544 692 575 711 Q 594 718 690 757 Q 703 761 714 755 Q 726 748 720 735 Q 690 692 656 642 C 639 617 652 613 675 633 Z" fill="black"></path>
				<path d="M 656 642 Q 601 664 584 659 Q 580 655 581 644 Q 584 634 607 617 Q 632 596 658 571 Q 670 561 684 560 Q 693 561 697 573 Q 701 586 693 611 Q 689 624 675 633 L 656 642 Z" fill="black"></path>
				<path d="M 506 517 Q 505 518 504 519 Q 476 535 458 534 Q 445 530 450 518 Q 451 514 454 508 Q 453 507 455 503 Q 455 502 457 499 Q 496 385 447 186 Q 440 161 429 142 Q 413 115 434 71 Q 437 65 443 58 Q 450 45 460 50 Q 497 74 504 205 Q 514 428 521 479 C 524 506 524 506 506 517 Z" fill="black"></path>
				<path d="M 661 511 Q 716 524 780 533 Q 802 539 813 527 Q 823 521 827 474 Q 839 314 830 132 Q 829 105 819 98 Q 804 88 732 106 Q 716 107 718 99 Q 719 92 731 87 Q 795 44 830 9 Q 849 -10 862 -7 Q 874 -4 884 23 Q 899 66 897 129 Q 884 361 883 448 Q 883 485 894 507 Q 904 528 895 539 Q 885 552 840 575 Q 822 584 753 564 Q 627 534 506 517 C 476 513 492 471 521 479 Q 561 491 611 500 L 661 511 Z" fill="red"></path>
				<path d="M 678 369 Q 709 378 746 386 Q 771 393 776 397 Q 783 404 779 411 Q 772 420 749 425 Q 725 429 679 409 L 629 394 Q 595 387 561 382 Q 533 376 554 364 Q 584 348 629 358 L 678 369 Z" fill="lightgray"></path>
				<path d="M 677 255 Q 711 265 749 273 Q 780 280 784 285 Q 791 292 787 299 Q 780 308 757 313 Q 735 316 677 294 L 629 280 Q 590 273 550 266 Q 520 260 542 248 Q 575 230 623 243 Q 624 243 629 243 L 677 255 Z" fill="lightgray"></path>
				<path d="M 632 53 Q 636 31 643 22 Q 647 16 655 18 Q 676 36 677 214 Q 677 232 677 255 L 677 294 Q 677 328 678 369 L 679 409 Q 679 416 683 448 Q 690 493 679 501 Q 669 508 661 511 C 634 525 598 527 611 500 Q 629 473 629 398 Q 629 397 629 394 L 629 358 Q 629 322 629 280 L 629 243 Q 629 75 632 53 Z" fill="lightgray"></path>
</g>
		<text x="40" y="140" font-size="128" fill="#999999">6</text></g>
		<g id="id1:id1:id1" transform="matrix(1.0,0,0,1.0,1024,0.0)">			<g stroke="lightgray" stroke-width="4" transform="scale(4, 4)"> <rect x="0" y="0" width="256" height="256" fill="white" stroke-width="4"/></g>
			<g transform="scale(0.92, -0.92) translate(60, -920)">					<path d="M 292 732 Q 320 708 349 679 Q 364 666 380 666 Q 392 667 397 681 Q 401 696 392 727 Q 386 748 354 762 Q 279 790 264 783 Q 258 779 260 765 Q 264 755 292 732 Z" fill="black"></path>
				<path d="M 157 474 Q 108 458 81 455 Q 68 455 65 448 Q 61 439 72 432 Q 94 419 110 417 Q 117 416 161 430 Q 272 484 280 477 Q 290 471 285 446 Q 285 272 247 147 Q 229 116 273 67 Q 283 54 293 61 Q 300 68 312 91 Q 349 140 429 224 Q 441 234 438 242 Q 437 249 426 241 Q 387 216 350 189 Q 305 152 313 207 Q 313 274 338 438 Q 342 462 363 485 Q 375 495 366 507 Q 356 523 317 539 Q 305 546 289 535 Q 204 489 157 474 Z" fill="black"></path>
				<path d="M 675 633 Q 772 717 808 727 Q 827 734 821 750 Q 817 765 754 800 Q 735 810 714 801 Q 659 780 576 756 Q 555 749 502 750 Q 480 750 488 731 Q 495 719 514 708 Q 544 692 575 711 Q 594 718 690 757 Q 703 761 714 755 Q 726 748 720 735 Q 690 692 656 642 C 639 617 652 613 675 633 Z" fill="black"></path>
				<path d="M 656 642 Q 601 664 584 659 Q 580 655 581 644 Q 584 634 607 617 Q 632 596 658 571 Q 670 561 684 560 Q 693 561 697 573 Q 701 586 693 611 Q 689 624 675 633 L 656 642 Z" fill="black"></path>
				<path d="M 506 517 Q 505 518 504 519 Q 476 535 458 534 Q 445 530 450 518 Q 451 514 454 508 Q 453 507 455 503 Q 455 502 457 499 Q 496 385 447 186 Q 440 161 429 142 Q 413 115 434 71 Q 437 65 443 58 Q 450 45 460 50 Q 497 74 504 205 Q 514 428 521 479 C 524 506 524 506 506 517 Z" fill="black"></path>
				<path d="M 661 511 Q 716 524 780 533 Q 802 539 813 527 Q 823 521 827 474 Q 839 314 830 132 Q 829 105 819 98 Q 804 88 732 106 Q 716 107 718 99 Q 719 92 731 87 Q 795 44 830 9 Q 849 -10 862 -7 Q 874 -4 884 23 Q 899 66 897 129 Q 884 361 883 448 Q 883 485 894 507 Q 904 528 895 539 Q 885 552 840 575 Q 822 584 753 564 Q 627 534 506 517 C 476 513 492 471 521 479 Q 561 491 611 500 L 661 511 Z" fill="black"></path>
				<path d="M 678 369 Q 709 378 746 386 Q 771 393 776 397 Q 783 404 779 411 Q 772 420 749 425 Q 725 429 679 409 L 629 394 Q 595 387 561 382 Q 533 376 554 364 Q 584 348 629 358 L 678 369 Z" fill="red"></path>
				<path d="M 677 255 Q 711 265 749 273 Q 780 280 784 285 Q 791 292 787 299 Q 780 308 757 313 Q 735 316 677 294 L 629 280 Q 590 273 550 266 Q 520 260 542 248 Q 575 230 623 243 Q 624 243 629 243 L 677 255 Z" fill="lightgray"></path>
				<path d="M 632 53 Q 636 31 643 22 Q 647 16 655 18 Q 676 36 677 214 Q 677 232 677 255 L 677 294 Q 677 328 678 369 L 679 409 Q 679 416 683 448 Q 690 493 679 501 Q 669 508 661 511 C 634 525 598 527 611 500 Q 629 473 629 398 Q 629 397 629 394 L 629 358 Q 629 322 629 280 L 629 243 Q 629 75 632 53 Z" fill="lightgray"></path>
</g>
		<text x="40" y="140" font-size="128" fill="#999999">7</text></g>
		<g id="id1:id2:id2" transform="matrix(1.0,0,0,1.0,2048,0.0)">			<g stroke="lightgray" stroke-width="4" transform="scale(4, 4)"> <rect x="0" y="0" width="256" height="256" fill="white" stroke-width="4"/></g>
			<g transform="scale(0.92, -0.92) translate(60, -920)">					<path d="M 292 732 Q 320 708 349 679 Q 364 666 380 666 Q 392 667 397 681 Q 401 696 392 727 Q 386 748 354 762 Q 279 790 264 783 Q 258 779 260 765 Q 264 755 292 732 Z" fill="black"></path>
				<path d="M 157 474 Q 108 458 81 455 Q 68 455 65 448 Q 61 439 72 432 Q 94 419 110 417 Q 117 416 161 430 Q 272 484 280 477 Q 290 471 285 446 Q 285 272 247 147 Q 229 116 273 67 Q 283 54 293 61 Q 300 68 312 91 Q 349 140 429 224 Q 441 234 438 242 Q 437 249 426 241 Q 387 216 350 189 Q 305 152 313 207 Q 313 274 338 438 Q 342 462 363 485 Q 375 495 366 507 Q 356 523 317 539 Q 305 546 289 535 Q 204 489 157 474 Z" fill="black"></path>
				<path d="M 675 633 Q 772 717 808 727 Q 827 734 821 750 Q 817 765 754 800 Q 735 810 714 801 Q 659 780 576 756 Q 555 749 502 750 Q 480 750 488 731 Q 495 719 514 708 Q 544 692 575 711 Q 594 718 690 757 Q 703 761 714 755 Q 726 748 720 735 Q 690 692 656 642 C 639 617 652 613 675 633 Z" fill="black"></path>
				<path d="M 656 642 Q 601 664 584 659 Q 580 655 581 644 Q 584 634 607 617 Q 632 596 658 571 Q 670 561 684 560 Q 693 561 697 573 Q 701 586 693 611 Q 689 624 675 633 L 656 642 Z" fill="black"></path>
				<path d="M 506 517 Q 505 518 504 519 Q 476 535 458 534 Q 445 530 450 518 Q 451 514 454 508 Q 453 507 455 503 Q 455 502 457 499 Q 496 385 447 186 Q 440 161 429 142 Q 413 115 434 71 Q 437 65 443 58 Q 450 45 460 50 Q 497 74 504 205 Q 514 428 521 479 C 524 506 524 506 506 517 Z" fill="black"></path>
				<path d="M 661 511 Q 716 524 780 533 Q 802 539 813 527 Q 823 521 827 474 Q 839 314 830 132 Q 829 105 819 98 Q 804 88 732 106 Q 716 107 718 99 Q 719 92 731 87 Q 795 44 830 9 Q 849 -10 862 -7 Q 874 -4 884 23 Q 899 66 897 129 Q 884 361 883 448 Q 883 485 894 507 Q 904 528 895 539 Q 885 552 840 575 Q 822 584 753 564 Q 627 534 506 517 C 476 513 492 471 521 479 Q 561 491 611 500 L 661 511 Z" fill="black"></path>
				<path d="M 678 369 Q 709 378 746 386 Q 771 393 776 397 Q 783 404 779 411 Q 772 420 749 425 Q 725 429 679 409 L 629 394 Q 595 387 561 382 Q 533 376 554 364 Q 584 348 629 358 L 678 369 Z" fill="black"></path>
				<path d="M 677 255 Q 711 265 749 273 Q 780 280 784 285 Q 791 292 787 299 Q 780 308 757 313 Q 735 316 677 294 L 629 280 Q 590 273 550 266 Q 520 260 542 248 Q 575 230 623 243 Q 624 243 629 243 L 677 255 Z" fill="red"></path>
				<path d="M 632 53 Q 636 31 643 22 Q 647 16 655 18 Q 676 36 677 214 Q 677 232 677 255 L 677 294 Q 677 328 678 369 L 679 409 Q 679 416 683 448 Q 690 493 679 501 Q 669 508 661 511 C 634 525 598 527 611 500 Q 629 473 629 398 Q 629 397 629 394 L 629 358 Q 629 322 629 280 L 629 243 Q 629 75 632 53 Z" fill="lightgray"></path>
</g>
		<text x="40" y="140" font-size="128" fill="#999999">8</text></g>
		<g id="id1:id3:id3" transform="matrix(1.0,0,0,1.0,3072,0.0)">			<g stroke="lightgray" stroke-width="4" transform="scale(4, 4)"> <rect x="0" y="0" width="256" height="256" fill="white" stroke-width="4"/></g>
			<g transform="scale(0.92, -0.92) translate(60, -920)">					<path d="M 292 732 Q 320 708 349 679 Q 364 666 380 666 Q 392 667 397 681 Q 401 696 392 727 Q 386 748 354 762 Q 279 790 264 783 Q 258 779 260 765 Q 264 755 292 732 Z" fill="black"></path>
				<path d="M 157 474 Q 108 458 81 455 Q 68 455 65 448 Q 61 439 72 432 Q 94 419 110 417 Q 117 416 161 430 Q 272 484 280 477 Q 290 471 285 446 Q 285 272 247 147 Q 229 116 273 67 Q 283 54 293 61 Q 300 68 312 91 Q 349 140 429 224 Q 441 234 438 242 Q 437 249 426 241 Q 387 216 350 189 Q 305 152 313 207 Q 313 274 338 438 Q 342 462 363 485 Q 375 495 366 507 Q 356 523 317 539 Q 305 546 289 535 Q 204 489 157 474 Z" fill="black"></path>
				<path d="M 675 633 Q 772 717 808 727 Q 827 734 821 750 Q 817 765 754 800 Q 735 810 714 801 Q 659 780 576 756 Q 555 749 502 750 Q 480 750 488 731 Q 495 719 514 708 Q 544 692 575 711 Q 594 718 690 757 Q 703 761 714 755 Q 726 748 720 735 Q 690 692 656 642 C 639 617 652 613 675 633 Z" fill="black"></path>
				<path d="M 656 642 Q 601 664 584 659 Q 580 655 581 644 Q 584 634 607 617 Q 632 596 658 571 Q 670 561 684 560 Q 693 561 697 573 Q 701 586 693 611 Q 689 624 675 633 L 656 642 Z" fill="black"></path>
				<path d="M 506 517 Q 505 518 504 519 Q 476 535 458 534 Q 445 530 450 518 Q 451 514 454 508 Q 453 507 455 503 Q 455 502 457 499 Q 496 385 447 186 Q 440 161 429 142 Q 413 115 434 71 Q 437 65 443 58 Q 450 45 460 50 Q 497 74 504 205 Q 514 428 521 479 C 524 506 524 506 506 517 Z" fill="black"></path>
				<path d="M 661 511 Q 716 524 780 533 Q 802 539 813 527 Q 823 521 827 474 Q 839 314 830 132 Q 829 105 819 98 Q 804 88 732 106 Q 716 107 718 99 Q 719 92 731 87 Q 795 44 830 9 Q 849 -10 862 -7 Q 874 -4 884 23 Q 899 66 897 129 Q 884 361 883 448 Q 883 485 894 507 Q 904 528 895 539 Q 885 552 840 575 Q 822 584 753 564 Q 627 534 506 517 C 476 513 492 471 521 479 Q 561 491 611 500 L 661 511 Z" fill="black"></path>
				<path d="M 678 369 Q 709 378 746 386 Q 771 393 776 397 Q 783 404 779 411 Q 772 420 749 425 Q 725 429 679 409 L 629 394 Q 595 387 561 382 Q 533 376 554 364 Q 584 348 629 358 L 678 369 Z" fill="black"></path>
				<path d="M 677 255 Q 711 265 749 273 Q 780 280 784 285 Q 791 292 787 299 Q 780 308 757 313 Q 735 316 677 294 L 629 280 Q 590 273 550 266 Q 520 260 542 248 Q 575 230 623 243 Q 624 243 629 243 L 677 255 Z" fill="black"></path>
				<path d="M 632 53 Q 636 31 643 22 Q 647 16 655 18 Q 676 36 677 214 Q 677 232 677 255 L 677 294 Q 677 328 678 369 L 679 409 Q 679 416 683 448 Q 690 493 679 501 Q 669 508 661 511 C 634 525 598 527 611 500 Q 629 473 629 398 Q 629 397 629 394 L 629 358 Q 629 322 629 280 L 629 243 Q 629 75 632 53 Z" fill="red"></path>
</g>
		<text x="40" y="140" font-size="128" fill="#999999">9</text></g>
		<g id="id1:id4:id4" transform="matrix(1.0,0,0,1.0,4096,0.0)">			<g stroke="white" stroke-width="4" transform="scale(4, 4)"> <rect x="1" y="1" width="255" height="255" fill="white" stroke-width="0"/></g>
</g>
</g>
</svg>
