<?xml version="1.0" standalone="no"?>
<!DOCTYPE svg PUBLIC "-//W3C//DTD SVG 1.1//EN"
 "http://www.w3.org/Graphics/SVG/1.1/DTD/svg11.dtd">
<!-- generate by Handict dictionary app com.asnsami.handict -->

<svg xmlns="http://www.w3.org/2000/svg" xmlns:sodipodi="http://sodipodi.sourceforge.net/DTD/sodipodi-0.dtd" version="1.1" width="640" height="256" viewBox="0 0 5120 2048">
	<g id="id0:id0" transform="translate(0.0,0)">
		<g id="id0:id0:id0" transform="matrix(1.0,0,0,1.0,0,0.0)">			<g stroke="lightgray" stroke-width="4" transform="scale(4, 4)"> <rect x="0" y="0" width="256" height="256" fill="white" stroke-width="4"/></g>
			<g transform="scale(0.92, -0.92) translate(60, -920)">					<path d="M 537 675 Q 651 705 652 705 Q 659 712 655 721 Q 648 731 620 738 Q 578 744 544 724 L 493 709 Q 454 702 412 696 Q 376 689 403 674 Q 437 653 494 664 L 537 675 Z" fill="red"></path>
				<path d="M 494 664 Q 495 655 495 648 Q 495 594 503 586 Q 513 574 521 590 Q 524 597 537 675 L 544 724 Q 553 790 562 801 Q 568 814 553 826 Q 534 842 501 852 Q 486 856 476 846 Q 467 839 477 830 Q 492 818 493 709 L 494 664 Z" fill="lightgray"></path>
				<path d="M 657 524 Q 738 530 900 530 Q 922 530 928 540 Q 934 553 915 568 Q 852 613 792 596 Q 744 587 686 576 L 629 566 Q 451 542 403 533 L 355 526 Q 256 516 150 501 Q 126 498 144 479 Q 181 446 230 460 Q 296 479 368 490 L 409 497 Q 490 515 613 521 L 657 524 Z" fill="lightgray"></path>
				<path d="M 403 533 Q 397 567 395 592 Q 395 611 374 615 Q 335 633 312 621 Q 294 611 311 593 Q 341 566 355 526 L 368 490 Q 377 463 394 447 Q 409 437 412 450 Q 416 469 410 492 Q 409 495 409 497 L 403 533 Z" fill="lightgray"></path>
				<path d="M 604 442 Q 638 491 657 524 L 686 576 Q 707 612 724 630 Q 740 646 724 659 Q 705 669 677 673 Q 650 677 639 670 Q 629 663 637 653 Q 649 634 629 566 L 613 521 Q 598 482 582 438 C 572 410 587 417 604 442 Z" fill="lightgray"></path>
				<path d="M 367 392 Q 357 398 347 400 Q 338 401 333 394 Q 330 390 337 380 Q 367 274 341 184 Q 334 162 339 144 Q 348 114 358 103 Q 368 91 377 104 Q 398 131 398 240 Q 399 300 403 361 C 404 373 394 378 367 392 Z" fill="lightgray"></path>
				<path d="M 610 177 Q 603 155 616 133 Q 629 105 638 106 Q 651 107 667 139 Q 682 164 681 183 Q 662 324 692 368 Q 704 387 683 404 Q 656 423 619 440 Q 612 443 604 442 L 582 438 Q 480 396 367 392 C 337 391 374 355 403 361 L 501 380 Q 583 399 602 386 Q 609 371 613 329 Q 617 202 610 177 Z" fill="lightgray"></path>
				<path d="M 475 266 Q 484 137 446 79 Q 428 51 394 26 Q 361 1 287 -32 Q 274 -36 271 -39 Q 265 -43 280 -48 Q 353 -54 454 11 Q 463 20 473 30 Q 518 82 530 218 Q 534 273 542 297 Q 548 307 539 315 Q 521 331 487 344 Q 466 353 451 347 Q 432 340 447 323 Q 474 295 475 266 Z" fill="lightgray"></path>
				<path d="M 559 58 Q 611 16 675 -45 Q 693 -64 709 -67 Q 718 -68 725 -57 Q 737 -44 720 1 Q 702 55 558 89 Q 548 93 547 81 Q 548 68 559 58 Z" fill="lightgray"></path>
</g>
		<text x="40" y="140" font-size="128" fill="#999999">1</text></g>
		<g id="id0:id1:id1" transform="matrix(1.0,0,0,1.0,1024,0.0)">			<g stroke="lightgray" stroke-width="4" transform="scale(4, 4)"> <rect x="0" y="0" width="256" height="256" fill="white" stroke-width="4"/></g>
			<g transform="scale(0.92, -0.92) translate(60, -920)">					<path d="M 537 675 Q 651 705 652 705 Q 659 712 655 721 Q 648 731 620 738 Q 578 744 544 724 L 493 709 Q 454 702 412 696 Q 376 689 403 674 Q 437 653 494 664 L 537 675 Z" fill="black"></path>
				<path d="M 494 664 Q 495 655 495 648 Q 495 594 503 586 Q 513 574 521 590 Q 524 597 537 675 L 544 724 Q 553 790 562 801 Q 568 814 553 826 Q 534 842 501 852 Q 486 856 476 846 Q 467 839 477 830 Q 492 818 493 709 L 494 664 Z" fill="red"></path>
				<path d="M 657 524 Q 738 530 900 530 Q 922 530 928 540 Q 934 553 915 568 Q 852 613 792 596 Q 744 587 686 576 L 629 566 Q 451 542 403 533 L 355 526 Q 256 516 150 501 Q 126 498 144 479 Q 181 446 230 460 Q 296 479 368 490 L 409 497 Q 490 515 613 521 L 657 524 Z" fill="lightgray"></path>
				<path d="M 403 533 Q 397 567 395 592 Q 395 611 374 615 Q 335 633 312 621 Q 294 611 311 593 Q 341 566 355 526 L 368 490 Q 377 463 394 447 Q 409 437 412 450 Q 416 469 410 492 Q 409 495 409 497 L 403 533 Z" fill="lightgray"></path>
				<path d="M 604 442 Q 638 491 657 524 L 686 576 Q 707 612 724 630 Q 740 646 724 659 Q 705 669 677 673 Q 650 677 639 670 Q 629 663 637 653 Q 649 634 629 566 L 613 521 Q 598 482 582 438 C 572 410 587 417 604 442 Z" fill="lightgray"></path>
				<path d="M 367 392 Q 357 398 347 400 Q 338 401 333 394 Q 330 390 337 380 Q 367 274 341 184 Q 334 162 339 144 Q 348 114 358 103 Q 368 91 377 104 Q 398 131 398 240 Q 399 300 403 361 C 404 373 394 378 367 392 Z" fill="lightgray"></path>
				<path d="M 610 177 Q 603 155 616 133 Q 629 105 638 106 Q 651 107 667 139 Q 682 164 681 183 Q 662 324 692 368 Q 704 387 683 404 Q 656 423 619 440 Q 612 443 604 442 L 582 438 Q 480 396 367 392 C 337 391 374 355 403 361 L 501 380 Q 583 399 602 386 Q 609 371 613 329 Q 617 202 610 177 Z" fill="lightgray"></path>
				<path d="M 475 266 Q 484 137 446 79 Q 428 51 394 26 Q 361 1 287 -32 Q 274 -36 271 -39 Q 265 -43 280 -48 Q 353 -54 454 11 Q 463 20 473 30 Q 518 82 530 218 Q 534 273 542 297 Q 548 307 539 315 Q 521 331 487 344 Q 466 353 451 347 Q 432 340 447 323 Q 474 295 475 266 Z" fill="lightgray"></path>
				<path d="M 559 58 Q 611 16 675 -45 Q 693 -64 709 -67 Q 718 -68 725 -57 Q 737 -44 720 1 Q 702 55 558 89 Q 548 93 547 81 Q 548 68 559 58 Z" fill="lightgray"></path>
</g>
		<text x="40" y="140" font-size="128" fill="#999999">2</text></g>
		<g id="id0:id2:id2" transform="matrix(1.0,0,0,1.0,2048,0.0)">			<g stroke="lightgray" stroke-width="4" transform="scale(4, 4)"> <rect x="0" y="0" width="256" height="256" fill="white" stroke-width="4"/></g>
			<g transform="scale(0.92, -0.92) translate(60, -920)">					<path d="M 537 675 Q 651 705 652 705 Q 659 712 655 721 Q 648 731 620 738 Q 578 744 544 724 L 493 709 Q 454 702 412 696 Q 376 689 403 674 Q 437 653 494 664 L 537 675 Z" fill="black"></path>
				<path d="M 494 664 Q 495 655 495 648 Q 495 594 503 586 Q 513 574 521 590 Q 524 597 537 675 L 544 724 Q 553 790 562 801 Q 568 814 553 826 Q 534 842 501 852 Q 486 856 476 846 Q 467 839 477 830 Q 492 818 493 709 L 494 664 Z" fill="black"></path>
				<path d="M 657 524 Q 738 530 900 530 Q 922 530 928 540 Q 934 553 915 568 Q 852 613 792 596 Q 744 587 686 576 L 629 566 Q 451 542 403 533 L 355 526 Q 256 516 150 501 Q 126 498 144 479 Q 181 446 230 460 Q 296 479 368 490 L 409 497 Q 490 515 613 521 L 657 524 Z" fill="red"></path>
				<path d="M 403 533 Q 397 567 395 592 Q 395 611 374 615 Q 335 633 312 621 Q 294 611 311 593 Q 341 566 355 526 L 368 490 Q 377 463 394 447 Q 409 437 412 450 Q 416 469 410 492 Q 409 495 409 497 L 403 533 Z" fill="lightgray"></path>
				<path d="M 604 442 Q 638 491 657 524 L 686 576 Q 707 612 724 630 Q 740 646 724 659 Q 705 669 677 673 Q 650 677 639 670 Q 629 663 637 653 Q 649 634 629 566 L 613 521 Q 598 482 582 438 C 572 410 587 417 604 442 Z" fill="lightgray"></path>
				<path d="M 367 392 Q 357 398 347 400 Q 338 401 333 394 Q 330 390 337 380 Q 367 274 341 184 Q 334 162 339 144 Q 348 114 358 103 Q 368 91 377 104 Q 398 131 398 240 Q 399 300 403 361 C 404 373 394 378 367 392 Z" fill="lightgray"></path>
				<path d="M 610 177 Q 603 155 616 133 Q 629 105 638 106 Q 651 107 667 139 Q 682 164 681 183 Q 662 324 692 368 Q 704 387 683 404 Q 656 423 619 440 Q 612 443 604 442 L 582 438 Q 480 396 367 392 C 337 391 374 355 403 361 L 501 380 Q 583 399 602 386 Q 609 371 613 329 Q 617 202 610 177 Z" fill="lightgray"></path>
				<path d="M 475 266 Q 484 137 446 79 Q 428 51 394 26 Q 361 1 287 -32 Q 274 -36 271 -39 Q 265 -43 280 -48 Q 353 -54 454 11 Q 463 20 473 30 Q 518 82 530 218 Q 534 273 542 297 Q 548 307 539 315 Q 521 331 487 344 Q 466 353 451 347 Q 432 340 447 323 Q 474 295 475 266 Z" fill="lightgray"></path>
				<path d="M 559 58 Q 611 16 675 -45 Q 693 -64 709 -67 Q 718 -68 725 -57 Q 737 -44 720 1 Q 702 55 558 89 Q 548 93 547 81 Q 548 68 559 58 Z" fill="lightgray"></path>
</g>
		<text x="40" y="140" font-size="128" fill="#999999">3</text></g>
		<g id="id0:id3:id3" transform="matrix(1.0,0,0,1.0,3072,0.0)">			<g stroke="lightgray" stroke-width="4" transform="scale(4, 4)"> <rect x="0" y="0" width="256" height="256" fill="white" stroke-width="4"/></g>
			<g transform="scale(0.92, -0.92) translate(60, -920)">					<path d="M 537 675 Q 651 705 652 705 Q 659 712 655 721 Q 648 731 620 738 Q 578 744 544 724 L 493 709 Q 454 702 412 696 Q 376 689 403 674 Q 437 653 494 664 L 537 675 Z" fill="black"></path>
				<path d="M 494 664 Q 495 655 495 648 Q 495 594 503 586 Q 513 574 521 590 Q 524 597 537 675 L 544 724 Q 553 790 562 801 Q 568 814 553 826 Q 534 842 501 852 Q 486 856 476 846 Q 467 839 477 830 Q 492 818 493 709 L 494 664 Z" fill="black"></path>
				<path d="M 657 524 Q 738 530 900 530 Q 922 530 928 540 Q 934 553 915 568 Q 852 613 792 596 Q 744 587 686 576 L 629 566 Q 451 542 403 533 L 355 526 Q 256 516 150 501 Q 126 498 144 479 Q 181 446 230 460 Q 296 479 368 490 L 409 497 Q 490 515 613 521 L 657 524 Z" fill="black"></path>
				<path d="M 403 533 Q 397 567 395 592 Q 395 611 374 615 Q 335 633 312 621 Q 294 611 311 593 Q 341 566 355 526 L 368 490 Q 377 463 394 447 Q 409 437 412 450 Q 416 469 410 492 Q 409 495 409 497 L 403 533 Z" fill="red"></path>
				<path d="M 604 442 Q 638 491 657 524 L 686 576 Q 707 612 724 630 Q 740 646 724 659 Q 705 669 677 673 Q 650 677 639 670 Q 629 663 637 653 Q 649 634 629 566 L 613 521 Q 598 482 582 438 C 572 410 587 417 604 442 Z" fill="lightgray"></path>
				<path d="M 367 392 Q 357 398 347 400 Q 338 401 333 394 Q 330 390 337 380 Q 367 274 341 184 Q 334 162 339 144 Q 348 114 358 103 Q 368 91 377 104 Q 398 131 398 240 Q 399 300 403 361 C 404 373 394 378 367 392 Z" fill="lightgray"></path>
				<path d="M 610 177 Q 603 155 616 133 Q 629 105 638 106 Q 651 107 667 139 Q 682 164 681 183 Q 662 324 692 368 Q 704 387 683 404 Q 656 423 619 440 Q 612 443 604 442 L 582 438 Q 480 396 367 392 C 337 391 374 355 403 361 L 501 380 Q 583 399 602 386 Q 609 371 613 329 Q 617 202 610 177 Z" fill="lightgray"></path>
				<path d="M 475 266 Q 484 137 446 79 Q 428 51 394 26 Q 361 1 287 -32 Q 274 -36 271 -39 Q 265 -43 280 -48 Q 353 -54 454 11 Q 463 20 473 30 Q 518 82 530 218 Q 534 273 542 297 Q 548 307 539 315 Q 521 331 487 344 Q 466 353 451 347 Q 432 340 447 323 Q 474 295 475 266 Z" fill="lightgray"></path>
				<path d="M 559 58 Q 611 16 675 -45 Q 693 -64 709 -67 Q 718 -68 725 -57 Q 737 -44 720 1 Q 702 55 558 89 Q 548 93 547 81 Q 548 68 559 58 Z" fill="lightgray"></path>
</g>
		<text x="40" y="140" font-size="128" fill="#999999">4</text></g>
		<g id="id0:id4:id4" transform="matrix(1.0,0,0,1.0,4096,0.0)">			<g stroke="lightgray" stroke-width="4" transform="scale(4, 4)"> <rect x="0" y="0" width="256" height="256" fill="white" stroke-width="4"/></g>
			<g transform="scale(0.92, -0.92) translate(60, -920)">					<path d="M 537 675 Q 651 705 652 705 Q 659 712 655 721 Q 648 731 620 738 Q 578 744 544 724 L 493 709 Q 454 702 412 696 Q 376 689 403 674 Q 437 653 494 664 L 537 675 Z" fill="black"></path>
				<path d="M 494 664 Q 495 655 495 648 Q 495 594 503 586 Q 513 574 521 590 Q 524 597 537 675 L 544 724 Q 553 790 562 801 Q 568 814 553 826 Q 534 842 501 852 Q 486 856 476 846 Q 467 839 477 830 Q 492 818 493 709 L 494 664 Z" fill="black"></path>
				<path d="M 657 524 Q 738 530 900 530 Q 922 530 928 540 Q 934 553 915 568 Q 852 613 792 596 Q 744 587 686 576 L 629 566 Q 451 542 403 533 L 355 526 Q 256 516 150 501 Q 126 498 144 479 Q 181 446 230 460 Q 296 479 368 490 L 409 497 Q 490 515 613 521 L 657 524 Z" fill="black"></path>
				<path d="M 403 533 Q 397 567 395 592 Q 395 611 374 615 Q 335 633 312 621 Q 294 611 311 593 Q 341 566 355 526 L 368 490 Q 377 463 394 447 Q 409 437 412 450 Q 416 469 410 492 Q 409 495 409 497 L 403 533 Z" fill="black"></path>
				<path d="M 604 442 Q 638 491 657 524 L 686 576 Q 707 612 724 630 Q 740 646 724 659 Q 705 669 677 673 Q 650 677 639 670 Q 629 663 637 653 Q 649 634 629 566 L 613 521 Q 598 482 582 438 C 572 410 587 417 604 442 Z" fill="red"></path>
				<path d="M 367 392 Q 357 398 347 400 Q 338 401 333 394 Q 330 390 337 380 Q 367 274 341 184 Q 334 162 339 144 Q 348 114 358 103 Q 368 91 377 104 Q 398 131 398 240 Q 399 300 403 361 C 404 373 394 378 367 392 Z" fill="lightgray"></path>
				<path d="M 610 177 Q 603 155 616 133 Q 629 105 638 106 Q 651 107 667 139 Q 682 164 681 183 Q 662 324 692 368 Q 704 387 683 404 Q 656 423 619 440 Q 612 443 604 442 L 582 438 Q 480 396 367 392 C 337 391 374 355 403 361 L 501 380 Q 583 399 602 386 Q 609 371 613 329 Q 617 202 610 177 Z" fill="lightgray"></path>
				<path d="M 475 266 Q 484 137 446 79 Q 428 51 394 26 Q 361 1 287 -32 Q 274 -36 271 -39 Q 265 -43 280 -48 Q 353 -54 454 11 Q 463 20 473 30 Q 518 82 530 218 Q 534 273 542 297 Q 548 307 539 315 Q 521 331 487 344 Q 466 353 451 347 Q 432 340 447 323 Q 474 295 475 266 Z" fill="lightgray"></path>
				<path d="M 559 58 Q 611 16 675 -45 Q 693 -64 709 -67 Q 718 -68 725 -57 Q 737 -44 720 1 Q 702 55 558 89 Q 548 93 547 81 Q 548 68 559 58 Z" fill="lightgray"></path>
</g>
		<text x="40" y="140" font-size="128" fill="#999999">5</text></g>
</g>
	<g id="id1:id1" transform="translate(0.0,1024)">
		<g id="id1:id0:id0" transform="matrix(1.0,0,0,1.0,0,0.0)">			<g stroke="lightgray" stroke-width="4" transform="scale(4, 4)"> <rect x="0" y="0" width="256" height="256" fill="white" stroke-width="4"/></g>
			<g transform="scale(0.92, -0.92) translate(60, -920)">					<path d="M 537 675 Q 651 705 652 705 Q 659 712 655 721 Q 648 731 620 738 Q 578 744 544 724 L 493 709 Q 454 702 412 696 Q 376 689 403 674 Q 437 653 494 664 L 537 675 Z" fill="black"></path>
				<path d="M 494 664 Q 495 655 495 648 Q 495 594 503 586 Q 513 574 521 590 Q 524 597 537 675 L 544 724 Q 553 790 562 801 Q 568 814 553 826 Q 534 842 501 852 Q 486 856 476 846 Q 467 839 477 830 Q 492 818 493 709 L 494 664 Z" fill="black"></path>
				<path d="M 657 524 Q 738 530 900 530 Q 922 530 928 540 Q 934 553 915 568 Q 852 613 792 596 Q 744 587 686 576 L 629 566 Q 451 542 403 533 L 355 526 Q 256 516 150 501 Q 126 498 144 479 Q 181 446 230 460 Q 296 479 368 490 L 409 497 Q 490 515 613 521 L 657 524 Z" fill="black"></path>
				<path d="M 403 533 Q 397 567 395 592 Q 395 611 374 615 Q 335 633 312 621 Q 294 611 311 593 Q 341 566 355 526 L 368 490 Q 377 463 394 447 Q 409 437 412 450 Q 416 469 410 492 Q 409 495 409 497 L 403 533 Z" fill="black"></path>
				<path d="M 604 442 Q 638 491 657 524 L 686 576 Q 707 612 724 630 Q 740 646 724 659 Q 705 669 677 673 Q 650 677 639 670 Q 629 663 637 653 Q 649 634 629 566 L 613 521 Q 598 482 582 438 C 572 410 587 417 604 442 Z" fill="black"></path>
				<path d="M 367 392 Q 357 398 347 400 Q 338 401 333 394 Q 330 390 337 380 Q 367 274 341 184 Q 334 162 339 144 Q 348 114 358 103 Q 368 91 377 104 Q 398 131 398 240 Q 399 300 403 361 C 404 373 394 378 367 392 Z" fill="red"></path>
				<path d="M 610 177 Q 603 155 616 133 Q 629 105 638 106 Q 651 107 667 139 Q 682 164 681 183 Q 662 324 692 368 Q 704 387 683 404 Q 656 423 619 440 Q 612 443 604 442 L 582 438 Q 480 396 367 392 C 337 391 374 355 403 361 L 501 380 Q 583 399 602 386 Q 609 371 613 329 Q 617 202 610 177 Z" fill="lightgray"></path>
				<path d="M 475 266 Q 484 137 446 79 Q 428 51 394 26 Q 361 1 287 -32 Q 274 -36 271 -39 Q 265 -43 280 -48 Q 353 -54 454 11 Q 463 20 473 30 Q 518 82 530 218 Q 534 273 542 297 Q 548 307 539 315 Q 521 331 487 344 Q 466 353 451 347 Q 432 340 447 323 Q 474 295 475 266 Z" fill="lightgray"></path>
				<path d="M 559 58 Q 611 16 675 -45 Q 693 -64 709 -67 Q 718 -68 725 -57 Q 737 -44 720 1 Q 702 55 558 89 Q 548 93 547 81 Q 548 68 559 58 Z" fill="lightgray"></path>
</g>
		<text x="40" y="140" font-size="128" fill="#999999">6</text></g>
		<g id="id1:id1:id1" transform="matrix(1.0,0,0,1.0,1024,0.0)">			<g stroke="lightgray" stroke-width="4" transform="scale(4, 4)"> <rect x="0" y="0" width="256" height="256" fill="white" stroke-width="4"/></g>
			<g transform="scale(0.92, -0.92) translate(60, -920)">					<path d="M 537 675 Q 651 705 652 705 Q 659 712 655 721 Q 648 731 620 738 Q 578 744 544 724 L 493 709 Q 454 702 412 696 Q 376 689 403 674 Q 437 653 494 664 L 537 675 Z" fill="black"></path>
				<path d="M 494 664 Q 495 655 495 648 Q 495 594 503 586 Q 513 574 521 590 Q 524 597 537 675 L 544 724 Q 553 790 562 801 Q 568 814 553 826 Q 534 842 501 852 Q 486 856 476 846 Q 467 839 477 830 Q 492 818 493 709 L 494 664 Z" fill="black"></path>
				<path d="M 657 524 Q 738 530 900 530 Q 922 530 928 540 Q 934 553 915 568 Q 852 613 792 596 Q 744 587 686 576 L 629 566 Q 451 542 403 533 L 355 526 Q 256 516 150 501 Q 126 498 144 479 Q 181 446 230 460 Q 296 479 368 490 L 409 497 Q 490 515 613 521 L 657 524 Z" fill="black"></path>
				<path d="M 403 533 Q 397 567 395 592 Q 395 611 374 615 Q 335 633 312 621 Q 294 611 311 593 Q 341 566 355 526 L 368 490 Q 377 463 394 447 Q 409 437 412 450 Q 416 469 410 492 Q 409 495 409 497 L 403 533 Z" fill="black"></path>
				<path d="M 604 442 Q 638 491 657 524 L 686 576 Q 707 612 724 630 Q 740 646 724 659 Q 705 669 677 673 Q 650 677 639 670 Q 629 663 637 653 Q 649 634 629 566 L 613 521 Q 598 482 582 438 C 572 410 587 417 604 442 Z" fill="black"></path>
				<path d="M 367 392 Q 357 398 347 400 Q 338 401 333 394 Q 330 390 337 380 Q 367 274 341 184 Q 334 162 339 144 Q 348 114 358 103 Q 368 91 377 104 Q 398 131 398 240 Q 399 300 403 361 C 404 373 394 378 367 392 Z" fill="black"></path>
				<path d="M 610 177 Q 603 155 616 133 Q 629 105 638 106 Q 651 107 667 139 Q 682 164 681 183 Q 662 324 692 368 Q 704 387 683 404 Q 656 423 619 440 Q 612 443 604 442 L 582 438 Q 480 396 367 392 C 337 391 374 355 403 361 L 501 380 Q 583 399 602 386 Q 609 371 613 329 Q 617 202 610 177 Z" fill="red"></path>
				<path d="M 475 266 Q 484 137 446 79 Q 428 51 394 26 Q 361 1 287 -32 Q 274 -36 271 -39 Q 265 -43 280 -48 Q 353 -54 454 11 Q 463 20 473 30 Q 518 82 530 218 Q 534 273 542 297 Q 548 307 539 315 Q 521 331 487 344 Q 466 353 451 347 Q 432 340 447 323 Q 474 295 475 266 Z" fill="lightgray"></path>
				<path d="M 559 58 Q 611 16 675 -45 Q 693 -64 709 -67 Q 718 -68 725 -57 Q 737 -44 720 1 Q 702 55 558 89 Q 548 93 547 81 Q 548 68 559 58 Z" fill="lightgray"></path>
</g>
		<text x="40" y="140" font-size="128" fill="#999999">7</text></g>
		<g id="id1:id2:id2" transform="matrix(1.0,0,0,1.0,2048,0.0)">			<g stroke="lightgray" stroke-width="4" transform="scale(4, 4)"> <rect x="0" y="0" width="256" height="256" fill="white" stroke-width="4"/></g>
			<g transform="scale(0.92, -0.92) translate(60, -920)">					<path d="M 537 675 Q 651 705 652 705 Q 659 712 655 721 Q 648 731 620 738 Q 578 744 544 724 L 493 709 Q 454 702 412 696 Q 376 689 403 674 Q 437 653 494 664 L 537 675 Z" fill="black"></path>
				<path d="M 494 664 Q 495 655 495 648 Q 495 594 503 586 Q 513 574 521 590 Q 524 597 537 675 L 544 724 Q 553 790 562 801 Q 568 814 553 826 Q 534 842 501 852 Q 486 856 476 846 Q 467 839 477 830 Q 492 818 493 709 L 494 664 Z" fill="black"></path>
				<path d="M 657 524 Q 738 530 900 530 Q 922 530 928 540 Q 934 553 915 568 Q 852 613 792 596 Q 744 587 686 576 L 629 566 Q 451 542 403 533 L 355 526 Q 256 516 150 501 Q 126 498 144 479 Q 181 446 230 460 Q 296 479 368 490 L 409 497 Q 490 515 613 521 L 657 524 Z" fill="black"></path>
				<path d="M 403 533 Q 397 567 395 592 Q 395 611 374 615 Q 335 633 312 621 Q 294 611 311 593 Q 341 566 355 526 L 368 490 Q 377 463 394 447 Q 409 437 412 450 Q 416 469 410 492 Q 409 495 409 497 L 403 533 Z" fill="black"></path>
				<path d="M 604 442 Q 638 491 657 524 L 686 576 Q 707 612 724 630 Q 740 646 724 659 Q 705 669 677 673 Q 650 677 639 670 Q 629 663 637 653 Q 649 634 629 566 L 613 521 Q 598 482 582 438 C 572 410 587 417 604 442 Z" fill="black"></path>
				<path d="M 367 392 Q 357 398 347 400 Q 338 401 333 394 Q 330 390 337 380 Q 367 274 341 184 Q 334 162 339 144 Q 348 114 358 103 Q 368 91 377 104 Q 398 131 398 240 Q 399 300 403 361 C 404 373 394 378 367 392 Z" fill="black"></path>
				<path d="M 610 177 Q 603 155 616 133 Q 629 105 638 106 Q 651 107 667 139 Q 682 164 681 183 Q 662 324 692 368 Q 704 387 683 404 Q 656 423 619 440 Q 612 443 604 442 L 582 438 Q 480 396 367 392 C 337 391 374 355 403 361 L 501 380 Q 583 399 602 386 Q 609 371 613 329 Q 617 202 610 177 Z" fill="black"></path>
				<path d="M 475 266 Q 484 137 446 79 Q 428 51 394 26 Q 361 1 287 -32 Q 274 -36 271 -39 Q 265 -43 280 -48 Q 353 -54 454 11 Q 463 20 473 30 Q 518 82 530 218 Q 534 273 542 297 Q 548 307 539 315 Q 521 331 487 344 Q 466 353 451 347 Q 432 340 447 323 Q 474 295 475 266 Z" fill="red"></path>
				<path d="M 559 58 Q 611 16 675 -45 Q 693 -64 709 -67 Q 718 -68 725 -57 Q 737 -44 720 1 Q 702 55 558 89 Q 548 93 547 81 Q 548 68 559 58 Z" fill="lightgray"></path>
</g>
		<text x="40" y="140" font-size="128" fill="#999999">8</text></g>
		<g id="id1:id3:id3" transform="matrix(1.0,0,0,1.0,3072,0.0)">			<g stroke="lightgray" stroke-width="4" transform="scale(4, 4)"> <rect x="0" y="0" width="256" height="256" fill="white" stroke-width="4"/></g>
			<g transform="scale(0.92, -0.92) translate(60, -920)">					<path d="M 537 675 Q 651 705 652 705 Q 659 712 655 721 Q 648 731 620 738 Q 578 744 544 724 L 493 709 Q 454 702 412 696 Q 376 689 403 674 Q 437 653 494 664 L 537 675 Z" fill="black"></path>
				<path d="M 494 664 Q 495 655 495 648 Q 495 594 503 586 Q 513 574 521 590 Q 524 597 537 675 L 544 724 Q 553 790 562 801 Q 568 814 553 826 Q 534 842 501 852 Q 486 856 476 846 Q 467 839 477 830 Q 492 818 493 709 L 494 664 Z" fill="black"></path>
				<path d="M 657 524 Q 738 530 900 530 Q 922 530 928 540 Q 934 553 915 568 Q 852 613 792 596 Q 744 587 686 576 L 629 566 Q 451 542 403 533 L 355 526 Q 256 516 150 501 Q 126 498 144 479 Q 181 446 230 460 Q 296 479 368 490 L 409 497 Q 490 515 613 521 L 657 524 Z" fill="black"></path>
				<path d="M 403 533 Q 397 567 395 592 Q 395 611 374 615 Q 335 633 312 621 Q 294 611 311 593 Q 341 566 355 526 L 368 490 Q 377 463 394 447 Q 409 437 412 450 Q 416 469 410 492 Q 409 495 409 497 L 403 533 Z" fill="black"></path>
				<path d="M 604 442 Q 638 491 657 524 L 686 576 Q 707 612 724 630 Q 740 646 724 659 Q 705 669 677 673 Q 650 677 639 670 Q 629 663 637 653 Q 649 634 629 566 L 613 521 Q 598 482 582 438 C 572 410 587 417 604 442 Z" fill="black"></path>
				<path d="M 367 392 Q 357 398 347 400 Q 338 401 333 394 Q 330 390 337 380 Q 367 274 341 184 Q 334 162 339 144 Q 348 114 358 103 Q 368 91 377 104 Q 398 131 398 240 Q 399 300 403 361 C 404 373 394 378 367 392 Z" fill="black"></path>
				<path d="M 610 177 Q 603 155 616 133 Q 629 105 638 106 Q 651 107 667 139 Q 682 164 681 183 Q 662 324 692 368 Q 704 387 683 404 Q 656 423 619 440 Q 612 443 604 442 L 582 438 Q 480 396 367 392 C 337 391 374 355 403 361 L 501 380 Q 583 399 602 386 Q 609 371 613 329 Q 617 202 610 177 Z" fill="black"></path>
				<path d="M 475 266 Q 484 137 446 79 Q 428 51 394 26 Q 361 1 287 -32 Q 274 -36 271 -39 Q 265 -43 280 -48 Q 353 -54 454 11 Q 463 20 473 30 Q 518 82 530 218 Q 534 273 542 297 Q 548 307 539 315 Q 521 331 487 344 Q 466 353 451 347 Q 432 340 447 323 Q 474 295 475 266 Z" fill="black"></path>
				<path d="M 559 58 Q 611 16 675 -45 Q 693 -64 709 -67 Q 718 -68 725 -57 Q 737 -44 720 1 Q 702 55 558 89 Q 548 93 547 81 Q 548 68 559 58 Z" fill="red"></path>
</g>
		<text x="40" y="140" font-size="128" fill="#999999">9</text></g>
		<g id="id1:id4:id4" transform="matrix(1.0,0,0,1.0,4096,0.0)">			<g stroke="white" stroke-width="4" transform="scale(4, 4)"> <rect x="1" y="1" width="255" height="255" fill="white" stroke-width="0"/></g>
</g>
</g>
</svg>
