<?xml version="1.0" standalone="no"?>
<!DOCTYPE svg PUBLIC "-//W3C//DTD SVG 1.1//EN"
 "http://www.w3.org/Graphics/SVG/1.1/DTD/svg11.dtd">
<!-- generate by Japanese dictionary app com.asnsami.kanjidictionary -->

<svg xmlns="http://www.w3.org/2000/svg" xmlns:sodipodi="http://sodipodi.sourceforge.net/DTD/sodipodi-0.dtd" version="1.1" width="640" height="256" viewBox="0 0 5120 2048">
	<g id="id0:id0" transform="translate(0.0,0)">
		<g id="id0:id0:id0" transform="matrix(1.0,0,0,1.0,0,0.0)">			<g stroke="lightgray" stroke-width="4" transform="scale(4, 4)"> <rect x="0" y="0" width="256" height="256" fill="white" stroke-width="4"/></g>
			<g transform="scale(0.92, -0.92) translate(60, -920)">					<path d="M 355 713 Q 343 719 312 725 Q 300 728 297 723 Q 290 717 299 701 Q 324 652 339 572 Q 342 547 356 532 Q 374 510 379 525 Q 382 535 383 550 L 380 581 Q 370 656 367 682 C 364 709 364 709 355 713 Z" fill="red"></path>
				<path d="M 696 624 Q 717 675 745 695 Q 761 711 748 730 Q 685 781 647 770 Q 593 752 546 739 L 490 729 Q 423 720 355 713 C 325 710 337 680 367 682 Q 380 682 395 686 Q 443 695 491 701 L 544 710 Q 578 717 614 722 Q 642 729 653 717 Q 662 708 645 624 C 639 595 684 597 696 624 Z" fill="lightgray"></path>
				<path d="M 536 571 Q 609 581 712 588 Q 722 589 723 597 Q 724 604 696 624 C 686 631 675 629 645 624 Q 588 614 538 603 L 494 596 Q 433 587 380 581 C 350 578 353 550 383 550 Q 390 549 400 551 Q 437 560 494 566 L 536 571 Z" fill="lightgray"></path>
				<path d="M 532 515 Q 533 543 536 571 L 538 603 Q 541 658 544 710 L 546 739 Q 553 784 561 809 Q 564 819 545 834 Q 511 852 489 855 Q 473 858 466 850 Q 459 843 467 829 Q 486 801 487 781 Q 488 756 490 729 L 491 701 Q 492 652 494 596 L 494 566 Q 494 539 493 509 C 492 479 531 485 532 515 Z" fill="lightgray"></path>
				<path d="M 493 509 Q 316 487 109 460 Q 87 457 104 439 Q 119 424 138 419 Q 160 413 178 418 Q 469 499 917 500 Q 918 500 921 500 Q 943 500 948 509 Q 954 522 936 537 Q 879 577 823 566 Q 711 544 532 515 L 493 509 Z" fill="lightgray"></path>
				<path d="M 384 396 Q 371 403 357 408 Q 350 409 343 402 Q 340 398 347 387 Q 377 287 349 185 Q 342 160 346 143 Q 355 112 365 100 Q 375 87 385 100 Q 407 127 408 206 Q 411 285 416 366 C 417 379 411 382 384 396 Z" fill="lightgray"></path>
				<path d="M 591 181 Q 584 159 596 138 Q 609 110 618 110 Q 631 111 648 142 Q 663 167 662 187 Q 647 328 675 372 Q 685 388 678 397 Q 650 422 603 443 Q 588 449 513 420 Q 420 399 384 396 C 354 393 387 360 416 366 Q 419 367 422 367 Q 573 398 586 391 Q 593 375 596 333 Q 597 206 591 181 Z" fill="lightgray"></path>
				<path d="M 474 265 Q 481 97 387 26 Q 353 1 278 -32 Q 265 -36 262 -39 Q 258 -43 272 -47 Q 353 -54 449 18 Q 456 25 465 34 Q 516 97 526 219 Q 529 267 540 293 Q 544 303 537 311 Q 489 354 453 344 Q 434 337 449 321 Q 474 293 474 265 Z" fill="lightgray"></path>
				<path d="M 563 58 Q 617 15 681 -49 Q 697 -68 713 -71 Q 722 -72 729 -61 Q 739 -48 725 -5 Q 712 46 562 89 Q 552 93 551 81 Q 551 68 563 58 Z" fill="lightgray"></path>
</g>
		<text x="40" y="140" font-size="128" fill="#999999">1</text></g>
		<g id="id0:id1:id1" transform="matrix(1.0,0,0,1.0,1024,0.0)">			<g stroke="lightgray" stroke-width="4" transform="scale(4, 4)"> <rect x="0" y="0" width="256" height="256" fill="white" stroke-width="4"/></g>
			<g transform="scale(0.92, -0.92) translate(60, -920)">					<path d="M 355 713 Q 343 719 312 725 Q 300 728 297 723 Q 290 717 299 701 Q 324 652 339 572 Q 342 547 356 532 Q 374 510 379 525 Q 382 535 383 550 L 380 581 Q 370 656 367 682 C 364 709 364 709 355 713 Z" fill="black"></path>
				<path d="M 696 624 Q 717 675 745 695 Q 761 711 748 730 Q 685 781 647 770 Q 593 752 546 739 L 490 729 Q 423 720 355 713 C 325 710 337 680 367 682 Q 380 682 395 686 Q 443 695 491 701 L 544 710 Q 578 717 614 722 Q 642 729 653 717 Q 662 708 645 624 C 639 595 684 597 696 624 Z" fill="red"></path>
				<path d="M 536 571 Q 609 581 712 588 Q 722 589 723 597 Q 724 604 696 624 C 686 631 675 629 645 624 Q 588 614 538 603 L 494 596 Q 433 587 380 581 C 350 578 353 550 383 550 Q 390 549 400 551 Q 437 560 494 566 L 536 571 Z" fill="lightgray"></path>
				<path d="M 532 515 Q 533 543 536 571 L 538 603 Q 541 658 544 710 L 546 739 Q 553 784 561 809 Q 564 819 545 834 Q 511 852 489 855 Q 473 858 466 850 Q 459 843 467 829 Q 486 801 487 781 Q 488 756 490 729 L 491 701 Q 492 652 494 596 L 494 566 Q 494 539 493 509 C 492 479 531 485 532 515 Z" fill="lightgray"></path>
				<path d="M 493 509 Q 316 487 109 460 Q 87 457 104 439 Q 119 424 138 419 Q 160 413 178 418 Q 469 499 917 500 Q 918 500 921 500 Q 943 500 948 509 Q 954 522 936 537 Q 879 577 823 566 Q 711 544 532 515 L 493 509 Z" fill="lightgray"></path>
				<path d="M 384 396 Q 371 403 357 408 Q 350 409 343 402 Q 340 398 347 387 Q 377 287 349 185 Q 342 160 346 143 Q 355 112 365 100 Q 375 87 385 100 Q 407 127 408 206 Q 411 285 416 366 C 417 379 411 382 384 396 Z" fill="lightgray"></path>
				<path d="M 591 181 Q 584 159 596 138 Q 609 110 618 110 Q 631 111 648 142 Q 663 167 662 187 Q 647 328 675 372 Q 685 388 678 397 Q 650 422 603 443 Q 588 449 513 420 Q 420 399 384 396 C 354 393 387 360 416 366 Q 419 367 422 367 Q 573 398 586 391 Q 593 375 596 333 Q 597 206 591 181 Z" fill="lightgray"></path>
				<path d="M 474 265 Q 481 97 387 26 Q 353 1 278 -32 Q 265 -36 262 -39 Q 258 -43 272 -47 Q 353 -54 449 18 Q 456 25 465 34 Q 516 97 526 219 Q 529 267 540 293 Q 544 303 537 311 Q 489 354 453 344 Q 434 337 449 321 Q 474 293 474 265 Z" fill="lightgray"></path>
				<path d="M 563 58 Q 617 15 681 -49 Q 697 -68 713 -71 Q 722 -72 729 -61 Q 739 -48 725 -5 Q 712 46 562 89 Q 552 93 551 81 Q 551 68 563 58 Z" fill="lightgray"></path>
</g>
		<text x="40" y="140" font-size="128" fill="#999999">2</text></g>
		<g id="id0:id2:id2" transform="matrix(1.0,0,0,1.0,2048,0.0)">			<g stroke="lightgray" stroke-width="4" transform="scale(4, 4)"> <rect x="0" y="0" width="256" height="256" fill="white" stroke-width="4"/></g>
			<g transform="scale(0.92, -0.92) translate(60, -920)">					<path d="M 355 713 Q 343 719 312 725 Q 300 728 297 723 Q 290 717 299 701 Q 324 652 339 572 Q 342 547 356 532 Q 374 510 379 525 Q 382 535 383 550 L 380 581 Q 370 656 367 682 C 364 709 364 709 355 713 Z" fill="black"></path>
				<path d="M 696 624 Q 717 675 745 695 Q 761 711 748 730 Q 685 781 647 770 Q 593 752 546 739 L 490 729 Q 423 720 355 713 C 325 710 337 680 367 682 Q 380 682 395 686 Q 443 695 491 701 L 544 710 Q 578 717 614 722 Q 642 729 653 717 Q 662 708 645 624 C 639 595 684 597 696 624 Z" fill="black"></path>
				<path d="M 536 571 Q 609 581 712 588 Q 722 589 723 597 Q 724 604 696 624 C 686 631 675 629 645 624 Q 588 614 538 603 L 494 596 Q 433 587 380 581 C 350 578 353 550 383 550 Q 390 549 400 551 Q 437 560 494 566 L 536 571 Z" fill="red"></path>
				<path d="M 532 515 Q 533 543 536 571 L 538 603 Q 541 658 544 710 L 546 739 Q 553 784 561 809 Q 564 819 545 834 Q 511 852 489 855 Q 473 858 466 850 Q 459 843 467 829 Q 486 801 487 781 Q 488 756 490 729 L 491 701 Q 492 652 494 596 L 494 566 Q 494 539 493 509 C 492 479 531 485 532 515 Z" fill="lightgray"></path>
				<path d="M 493 509 Q 316 487 109 460 Q 87 457 104 439 Q 119 424 138 419 Q 160 413 178 418 Q 469 499 917 500 Q 918 500 921 500 Q 943 500 948 509 Q 954 522 936 537 Q 879 577 823 566 Q 711 544 532 515 L 493 509 Z" fill="lightgray"></path>
				<path d="M 384 396 Q 371 403 357 408 Q 350 409 343 402 Q 340 398 347 387 Q 377 287 349 185 Q 342 160 346 143 Q 355 112 365 100 Q 375 87 385 100 Q 407 127 408 206 Q 411 285 416 366 C 417 379 411 382 384 396 Z" fill="lightgray"></path>
				<path d="M 591 181 Q 584 159 596 138 Q 609 110 618 110 Q 631 111 648 142 Q 663 167 662 187 Q 647 328 675 372 Q 685 388 678 397 Q 650 422 603 443 Q 588 449 513 420 Q 420 399 384 396 C 354 393 387 360 416 366 Q 419 367 422 367 Q 573 398 586 391 Q 593 375 596 333 Q 597 206 591 181 Z" fill="lightgray"></path>
				<path d="M 474 265 Q 481 97 387 26 Q 353 1 278 -32 Q 265 -36 262 -39 Q 258 -43 272 -47 Q 353 -54 449 18 Q 456 25 465 34 Q 516 97 526 219 Q 529 267 540 293 Q 544 303 537 311 Q 489 354 453 344 Q 434 337 449 321 Q 474 293 474 265 Z" fill="lightgray"></path>
				<path d="M 563 58 Q 617 15 681 -49 Q 697 -68 713 -71 Q 722 -72 729 -61 Q 739 -48 725 -5 Q 712 46 562 89 Q 552 93 551 81 Q 551 68 563 58 Z" fill="lightgray"></path>
</g>
		<text x="40" y="140" font-size="128" fill="#999999">3</text></g>
		<g id="id0:id3:id3" transform="matrix(1.0,0,0,1.0,3072,0.0)">			<g stroke="lightgray" stroke-width="4" transform="scale(4, 4)"> <rect x="0" y="0" width="256" height="256" fill="white" stroke-width="4"/></g>
			<g transform="scale(0.92, -0.92) translate(60, -920)">					<path d="M 355 713 Q 343 719 312 725 Q 300 728 297 723 Q 290 717 299 701 Q 324 652 339 572 Q 342 547 356 532 Q 374 510 379 525 Q 382 535 383 550 L 380 581 Q 370 656 367 682 C 364 709 364 709 355 713 Z" fill="black"></path>
				<path d="M 696 624 Q 717 675 745 695 Q 761 711 748 730 Q 685 781 647 770 Q 593 752 546 739 L 490 729 Q 423 720 355 713 C 325 710 337 680 367 682 Q 380 682 395 686 Q 443 695 491 701 L 544 710 Q 578 717 614 722 Q 642 729 653 717 Q 662 708 645 624 C 639 595 684 597 696 624 Z" fill="black"></path>
				<path d="M 536 571 Q 609 581 712 588 Q 722 589 723 597 Q 724 604 696 624 C 686 631 675 629 645 624 Q 588 614 538 603 L 494 596 Q 433 587 380 581 C 350 578 353 550 383 550 Q 390 549 400 551 Q 437 560 494 566 L 536 571 Z" fill="black"></path>
				<path d="M 532 515 Q 533 543 536 571 L 538 603 Q 541 658 544 710 L 546 739 Q 553 784 561 809 Q 564 819 545 834 Q 511 852 489 855 Q 473 858 466 850 Q 459 843 467 829 Q 486 801 487 781 Q 488 756 490 729 L 491 701 Q 492 652 494 596 L 494 566 Q 494 539 493 509 C 492 479 531 485 532 515 Z" fill="red"></path>
				<path d="M 493 509 Q 316 487 109 460 Q 87 457 104 439 Q 119 424 138 419 Q 160 413 178 418 Q 469 499 917 500 Q 918 500 921 500 Q 943 500 948 509 Q 954 522 936 537 Q 879 577 823 566 Q 711 544 532 515 L 493 509 Z" fill="lightgray"></path>
				<path d="M 384 396 Q 371 403 357 408 Q 350 409 343 402 Q 340 398 347 387 Q 377 287 349 185 Q 342 160 346 143 Q 355 112 365 100 Q 375 87 385 100 Q 407 127 408 206 Q 411 285 416 366 C 417 379 411 382 384 396 Z" fill="lightgray"></path>
				<path d="M 591 181 Q 584 159 596 138 Q 609 110 618 110 Q 631 111 648 142 Q 663 167 662 187 Q 647 328 675 372 Q 685 388 678 397 Q 650 422 603 443 Q 588 449 513 420 Q 420 399 384 396 C 354 393 387 360 416 366 Q 419 367 422 367 Q 573 398 586 391 Q 593 375 596 333 Q 597 206 591 181 Z" fill="lightgray"></path>
				<path d="M 474 265 Q 481 97 387 26 Q 353 1 278 -32 Q 265 -36 262 -39 Q 258 -43 272 -47 Q 353 -54 449 18 Q 456 25 465 34 Q 516 97 526 219 Q 529 267 540 293 Q 544 303 537 311 Q 489 354 453 344 Q 434 337 449 321 Q 474 293 474 265 Z" fill="lightgray"></path>
				<path d="M 563 58 Q 617 15 681 -49 Q 697 -68 713 -71 Q 722 -72 729 -61 Q 739 -48 725 -5 Q 712 46 562 89 Q 552 93 551 81 Q 551 68 563 58 Z" fill="lightgray"></path>
</g>
		<text x="40" y="140" font-size="128" fill="#999999">4</text></g>
		<g id="id0:id4:id4" transform="matrix(1.0,0,0,1.0,4096,0.0)">			<g stroke="lightgray" stroke-width="4" transform="scale(4, 4)"> <rect x="0" y="0" width="256" height="256" fill="white" stroke-width="4"/></g>
			<g transform="scale(0.92, -0.92) translate(60, -920)">					<path d="M 355 713 Q 343 719 312 725 Q 300 728 297 723 Q 290 717 299 701 Q 324 652 339 572 Q 342 547 356 532 Q 374 510 379 525 Q 382 535 383 550 L 380 581 Q 370 656 367 682 C 364 709 364 709 355 713 Z" fill="black"></path>
				<path d="M 696 624 Q 717 675 745 695 Q 761 711 748 730 Q 685 781 647 770 Q 593 752 546 739 L 490 729 Q 423 720 355 713 C 325 710 337 680 367 682 Q 380 682 395 686 Q 443 695 491 701 L 544 710 Q 578 717 614 722 Q 642 729 653 717 Q 662 708 645 624 C 639 595 684 597 696 624 Z" fill="black"></path>
				<path d="M 536 571 Q 609 581 712 588 Q 722 589 723 597 Q 724 604 696 624 C 686 631 675 629 645 624 Q 588 614 538 603 L 494 596 Q 433 587 380 581 C 350 578 353 550 383 550 Q 390 549 400 551 Q 437 560 494 566 L 536 571 Z" fill="black"></path>
				<path d="M 532 515 Q 533 543 536 571 L 538 603 Q 541 658 544 710 L 546 739 Q 553 784 561 809 Q 564 819 545 834 Q 511 852 489 855 Q 473 858 466 850 Q 459 843 467 829 Q 486 801 487 781 Q 488 756 490 729 L 491 701 Q 492 652 494 596 L 494 566 Q 494 539 493 509 C 492 479 531 485 532 515 Z" fill="black"></path>
				<path d="M 493 509 Q 316 487 109 460 Q 87 457 104 439 Q 119 424 138 419 Q 160 413 178 418 Q 469 499 917 500 Q 918 500 921 500 Q 943 500 948 509 Q 954 522 936 537 Q 879 577 823 566 Q 711 544 532 515 L 493 509 Z" fill="red"></path>
				<path d="M 384 396 Q 371 403 357 408 Q 350 409 343 402 Q 340 398 347 387 Q 377 287 349 185 Q 342 160 346 143 Q 355 112 365 100 Q 375 87 385 100 Q 407 127 408 206 Q 411 285 416 366 C 417 379 411 382 384 396 Z" fill="lightgray"></path>
				<path d="M 591 181 Q 584 159 596 138 Q 609 110 618 110 Q 631 111 648 142 Q 663 167 662 187 Q 647 328 675 372 Q 685 388 678 397 Q 650 422 603 443 Q 588 449 513 420 Q 420 399 384 396 C 354 393 387 360 416 366 Q 419 367 422 367 Q 573 398 586 391 Q 593 375 596 333 Q 597 206 591 181 Z" fill="lightgray"></path>
				<path d="M 474 265 Q 481 97 387 26 Q 353 1 278 -32 Q 265 -36 262 -39 Q 258 -43 272 -47 Q 353 -54 449 18 Q 456 25 465 34 Q 516 97 526 219 Q 529 267 540 293 Q 544 303 537 311 Q 489 354 453 344 Q 434 337 449 321 Q 474 293 474 265 Z" fill="lightgray"></path>
				<path d="M 563 58 Q 617 15 681 -49 Q 697 -68 713 -71 Q 722 -72 729 -61 Q 739 -48 725 -5 Q 712 46 562 89 Q 552 93 551 81 Q 551 68 563 58 Z" fill="lightgray"></path>
</g>
		<text x="40" y="140" font-size="128" fill="#999999">5</text></g>
</g>
	<g id="id1:id1" transform="translate(0.0,1024)">
		<g id="id1:id0:id0" transform="matrix(1.0,0,0,1.0,0,0.0)">			<g stroke="lightgray" stroke-width="4" transform="scale(4, 4)"> <rect x="0" y="0" width="256" height="256" fill="white" stroke-width="4"/></g>
			<g transform="scale(0.92, -0.92) translate(60, -920)">					<path d="M 355 713 Q 343 719 312 725 Q 300 728 297 723 Q 290 717 299 701 Q 324 652 339 572 Q 342 547 356 532 Q 374 510 379 525 Q 382 535 383 550 L 380 581 Q 370 656 367 682 C 364 709 364 709 355 713 Z" fill="black"></path>
				<path d="M 696 624 Q 717 675 745 695 Q 761 711 748 730 Q 685 781 647 770 Q 593 752 546 739 L 490 729 Q 423 720 355 713 C 325 710 337 680 367 682 Q 380 682 395 686 Q 443 695 491 701 L 544 710 Q 578 717 614 722 Q 642 729 653 717 Q 662 708 645 624 C 639 595 684 597 696 624 Z" fill="black"></path>
				<path d="M 536 571 Q 609 581 712 588 Q 722 589 723 597 Q 724 604 696 624 C 686 631 675 629 645 624 Q 588 614 538 603 L 494 596 Q 433 587 380 581 C 350 578 353 550 383 550 Q 390 549 400 551 Q 437 560 494 566 L 536 571 Z" fill="black"></path>
				<path d="M 532 515 Q 533 543 536 571 L 538 603 Q 541 658 544 710 L 546 739 Q 553 784 561 809 Q 564 819 545 834 Q 511 852 489 855 Q 473 858 466 850 Q 459 843 467 829 Q 486 801 487 781 Q 488 756 490 729 L 491 701 Q 492 652 494 596 L 494 566 Q 494 539 493 509 C 492 479 531 485 532 515 Z" fill="black"></path>
				<path d="M 493 509 Q 316 487 109 460 Q 87 457 104 439 Q 119 424 138 419 Q 160 413 178 418 Q 469 499 917 500 Q 918 500 921 500 Q 943 500 948 509 Q 954 522 936 537 Q 879 577 823 566 Q 711 544 532 515 L 493 509 Z" fill="black"></path>
				<path d="M 384 396 Q 371 403 357 408 Q 350 409 343 402 Q 340 398 347 387 Q 377 287 349 185 Q 342 160 346 143 Q 355 112 365 100 Q 375 87 385 100 Q 407 127 408 206 Q 411 285 416 366 C 417 379 411 382 384 396 Z" fill="red"></path>
				<path d="M 591 181 Q 584 159 596 138 Q 609 110 618 110 Q 631 111 648 142 Q 663 167 662 187 Q 647 328 675 372 Q 685 388 678 397 Q 650 422 603 443 Q 588 449 513 420 Q 420 399 384 396 C 354 393 387 360 416 366 Q 419 367 422 367 Q 573 398 586 391 Q 593 375 596 333 Q 597 206 591 181 Z" fill="lightgray"></path>
				<path d="M 474 265 Q 481 97 387 26 Q 353 1 278 -32 Q 265 -36 262 -39 Q 258 -43 272 -47 Q 353 -54 449 18 Q 456 25 465 34 Q 516 97 526 219 Q 529 267 540 293 Q 544 303 537 311 Q 489 354 453 344 Q 434 337 449 321 Q 474 293 474 265 Z" fill="lightgray"></path>
				<path d="M 563 58 Q 617 15 681 -49 Q 697 -68 713 -71 Q 722 -72 729 -61 Q 739 -48 725 -5 Q 712 46 562 89 Q 552 93 551 81 Q 551 68 563 58 Z" fill="lightgray"></path>
</g>
		<text x="40" y="140" font-size="128" fill="#999999">6</text></g>
		<g id="id1:id1:id1" transform="matrix(1.0,0,0,1.0,1024,0.0)">			<g stroke="lightgray" stroke-width="4" transform="scale(4, 4)"> <rect x="0" y="0" width="256" height="256" fill="white" stroke-width="4"/></g>
			<g transform="scale(0.92, -0.92) translate(60, -920)">					<path d="M 355 713 Q 343 719 312 725 Q 300 728 297 723 Q 290 717 299 701 Q 324 652 339 572 Q 342 547 356 532 Q 374 510 379 525 Q 382 535 383 550 L 380 581 Q 370 656 367 682 C 364 709 364 709 355 713 Z" fill="black"></path>
				<path d="M 696 624 Q 717 675 745 695 Q 761 711 748 730 Q 685 781 647 770 Q 593 752 546 739 L 490 729 Q 423 720 355 713 C 325 710 337 680 367 682 Q 380 682 395 686 Q 443 695 491 701 L 544 710 Q 578 717 614 722 Q 642 729 653 717 Q 662 708 645 624 C 639 595 684 597 696 624 Z" fill="black"></path>
				<path d="M 536 571 Q 609 581 712 588 Q 722 589 723 597 Q 724 604 696 624 C 686 631 675 629 645 624 Q 588 614 538 603 L 494 596 Q 433 587 380 581 C 350 578 353 550 383 550 Q 390 549 400 551 Q 437 560 494 566 L 536 571 Z" fill="black"></path>
				<path d="M 532 515 Q 533 543 536 571 L 538 603 Q 541 658 544 710 L 546 739 Q 553 784 561 809 Q 564 819 545 834 Q 511 852 489 855 Q 473 858 466 850 Q 459 843 467 829 Q 486 801 487 781 Q 488 756 490 729 L 491 701 Q 492 652 494 596 L 494 566 Q 494 539 493 509 C 492 479 531 485 532 515 Z" fill="black"></path>
				<path d="M 493 509 Q 316 487 109 460 Q 87 457 104 439 Q 119 424 138 419 Q 160 413 178 418 Q 469 499 917 500 Q 918 500 921 500 Q 943 500 948 509 Q 954 522 936 537 Q 879 577 823 566 Q 711 544 532 515 L 493 509 Z" fill="black"></path>
				<path d="M 384 396 Q 371 403 357 408 Q 350 409 343 402 Q 340 398 347 387 Q 377 287 349 185 Q 342 160 346 143 Q 355 112 365 100 Q 375 87 385 100 Q 407 127 408 206 Q 411 285 416 366 C 417 379 411 382 384 396 Z" fill="black"></path>
				<path d="M 591 181 Q 584 159 596 138 Q 609 110 618 110 Q 631 111 648 142 Q 663 167 662 187 Q 647 328 675 372 Q 685 388 678 397 Q 650 422 603 443 Q 588 449 513 420 Q 420 399 384 396 C 354 393 387 360 416 366 Q 419 367 422 367 Q 573 398 586 391 Q 593 375 596 333 Q 597 206 591 181 Z" fill="red"></path>
				<path d="M 474 265 Q 481 97 387 26 Q 353 1 278 -32 Q 265 -36 262 -39 Q 258 -43 272 -47 Q 353 -54 449 18 Q 456 25 465 34 Q 516 97 526 219 Q 529 267 540 293 Q 544 303 537 311 Q 489 354 453 344 Q 434 337 449 321 Q 474 293 474 265 Z" fill="lightgray"></path>
				<path d="M 563 58 Q 617 15 681 -49 Q 697 -68 713 -71 Q 722 -72 729 -61 Q 739 -48 725 -5 Q 712 46 562 89 Q 552 93 551 81 Q 551 68 563 58 Z" fill="lightgray"></path>
</g>
		<text x="40" y="140" font-size="128" fill="#999999">7</text></g>
		<g id="id1:id2:id2" transform="matrix(1.0,0,0,1.0,2048,0.0)">			<g stroke="lightgray" stroke-width="4" transform="scale(4, 4)"> <rect x="0" y="0" width="256" height="256" fill="white" stroke-width="4"/></g>
			<g transform="scale(0.92, -0.92) translate(60, -920)">					<path d="M 355 713 Q 343 719 312 725 Q 300 728 297 723 Q 290 717 299 701 Q 324 652 339 572 Q 342 547 356 532 Q 374 510 379 525 Q 382 535 383 550 L 380 581 Q 370 656 367 682 C 364 709 364 709 355 713 Z" fill="black"></path>
				<path d="M 696 624 Q 717 675 745 695 Q 761 711 748 730 Q 685 781 647 770 Q 593 752 546 739 L 490 729 Q 423 720 355 713 C 325 710 337 680 367 682 Q 380 682 395 686 Q 443 695 491 701 L 544 710 Q 578 717 614 722 Q 642 729 653 717 Q 662 708 645 624 C 639 595 684 597 696 624 Z" fill="black"></path>
				<path d="M 536 571 Q 609 581 712 588 Q 722 589 723 597 Q 724 604 696 624 C 686 631 675 629 645 624 Q 588 614 538 603 L 494 596 Q 433 587 380 581 C 350 578 353 550 383 550 Q 390 549 400 551 Q 437 560 494 566 L 536 571 Z" fill="black"></path>
				<path d="M 532 515 Q 533 543 536 571 L 538 603 Q 541 658 544 710 L 546 739 Q 553 784 561 809 Q 564 819 545 834 Q 511 852 489 855 Q 473 858 466 850 Q 459 843 467 829 Q 486 801 487 781 Q 488 756 490 729 L 491 701 Q 492 652 494 596 L 494 566 Q 494 539 493 509 C 492 479 531 485 532 515 Z" fill="black"></path>
				<path d="M 493 509 Q 316 487 109 460 Q 87 457 104 439 Q 119 424 138 419 Q 160 413 178 418 Q 469 499 917 500 Q 918 500 921 500 Q 943 500 948 509 Q 954 522 936 537 Q 879 577 823 566 Q 711 544 532 515 L 493 509 Z" fill="black"></path>
				<path d="M 384 396 Q 371 403 357 408 Q 350 409 343 402 Q 340 398 347 387 Q 377 287 349 185 Q 342 160 346 143 Q 355 112 365 100 Q 375 87 385 100 Q 407 127 408 206 Q 411 285 416 366 C 417 379 411 382 384 396 Z" fill="black"></path>
				<path d="M 591 181 Q 584 159 596 138 Q 609 110 618 110 Q 631 111 648 142 Q 663 167 662 187 Q 647 328 675 372 Q 685 388 678 397 Q 650 422 603 443 Q 588 449 513 420 Q 420 399 384 396 C 354 393 387 360 416 366 Q 419 367 422 367 Q 573 398 586 391 Q 593 375 596 333 Q 597 206 591 181 Z" fill="black"></path>
				<path d="M 474 265 Q 481 97 387 26 Q 353 1 278 -32 Q 265 -36 262 -39 Q 258 -43 272 -47 Q 353 -54 449 18 Q 456 25 465 34 Q 516 97 526 219 Q 529 267 540 293 Q 544 303 537 311 Q 489 354 453 344 Q 434 337 449 321 Q 474 293 474 265 Z" fill="red"></path>
				<path d="M 563 58 Q 617 15 681 -49 Q 697 -68 713 -71 Q 722 -72 729 -61 Q 739 -48 725 -5 Q 712 46 562 89 Q 552 93 551 81 Q 551 68 563 58 Z" fill="lightgray"></path>
</g>
		<text x="40" y="140" font-size="128" fill="#999999">8</text></g>
		<g id="id1:id3:id3" transform="matrix(1.0,0,0,1.0,3072,0.0)">			<g stroke="lightgray" stroke-width="4" transform="scale(4, 4)"> <rect x="0" y="0" width="256" height="256" fill="white" stroke-width="4"/></g>
			<g transform="scale(0.92, -0.92) translate(60, -920)">					<path d="M 355 713 Q 343 719 312 725 Q 300 728 297 723 Q 290 717 299 701 Q 324 652 339 572 Q 342 547 356 532 Q 374 510 379 525 Q 382 535 383 550 L 380 581 Q 370 656 367 682 C 364 709 364 709 355 713 Z" fill="black"></path>
				<path d="M 696 624 Q 717 675 745 695 Q 761 711 748 730 Q 685 781 647 770 Q 593 752 546 739 L 490 729 Q 423 720 355 713 C 325 710 337 680 367 682 Q 380 682 395 686 Q 443 695 491 701 L 544 710 Q 578 717 614 722 Q 642 729 653 717 Q 662 708 645 624 C 639 595 684 597 696 624 Z" fill="black"></path>
				<path d="M 536 571 Q 609 581 712 588 Q 722 589 723 597 Q 724 604 696 624 C 686 631 675 629 645 624 Q 588 614 538 603 L 494 596 Q 433 587 380 581 C 350 578 353 550 383 550 Q 390 549 400 551 Q 437 560 494 566 L 536 571 Z" fill="black"></path>
				<path d="M 532 515 Q 533 543 536 571 L 538 603 Q 541 658 544 710 L 546 739 Q 553 784 561 809 Q 564 819 545 834 Q 511 852 489 855 Q 473 858 466 850 Q 459 843 467 829 Q 486 801 487 781 Q 488 756 490 729 L 491 701 Q 492 652 494 596 L 494 566 Q 494 539 493 509 C 492 479 531 485 532 515 Z" fill="black"></path>
				<path d="M 493 509 Q 316 487 109 460 Q 87 457 104 439 Q 119 424 138 419 Q 160 413 178 418 Q 469 499 917 500 Q 918 500 921 500 Q 943 500 948 509 Q 954 522 936 537 Q 879 577 823 566 Q 711 544 532 515 L 493 509 Z" fill="black"></path>
				<path d="M 384 396 Q 371 403 357 408 Q 350 409 343 402 Q 340 398 347 387 Q 377 287 349 185 Q 342 160 346 143 Q 355 112 365 100 Q 375 87 385 100 Q 407 127 408 206 Q 411 285 416 366 C 417 379 411 382 384 396 Z" fill="black"></path>
				<path d="M 591 181 Q 584 159 596 138 Q 609 110 618 110 Q 631 111 648 142 Q 663 167 662 187 Q 647 328 675 372 Q 685 388 678 397 Q 650 422 603 443 Q 588 449 513 420 Q 420 399 384 396 C 354 393 387 360 416 366 Q 419 367 422 367 Q 573 398 586 391 Q 593 375 596 333 Q 597 206 591 181 Z" fill="black"></path>
				<path d="M 474 265 Q 481 97 387 26 Q 353 1 278 -32 Q 265 -36 262 -39 Q 258 -43 272 -47 Q 353 -54 449 18 Q 456 25 465 34 Q 516 97 526 219 Q 529 267 540 293 Q 544 303 537 311 Q 489 354 453 344 Q 434 337 449 321 Q 474 293 474 265 Z" fill="black"></path>
				<path d="M 563 58 Q 617 15 681 -49 Q 697 -68 713 -71 Q 722 -72 729 -61 Q 739 -48 725 -5 Q 712 46 562 89 Q 552 93 551 81 Q 551 68 563 58 Z" fill="red"></path>
</g>
		<text x="40" y="140" font-size="128" fill="#999999">9</text></g>
		<g id="id1:id4:id4" transform="matrix(1.0,0,0,1.0,4096,0.0)">			<g stroke="white" stroke-width="4" transform="scale(4, 4)"> <rect x="1" y="1" width="255" height="255" fill="white" stroke-width="0"/></g>
</g>
</g>
</svg>
