<?xml version="1.0" standalone="no"?>
<!DOCTYPE svg PUBLIC "-//W3C//DTD SVG 1.1//EN"
 "http://www.w3.org/Graphics/SVG/1.1/DTD/svg11.dtd">
<!-- generate by Handict dictionary app com.asnsami.handict -->

<svg xmlns="http://www.w3.org/2000/svg" xmlns:sodipodi="http://sodipodi.sourceforge.net/DTD/sodipodi-0.dtd" version="1.1" width="640" height="256" viewBox="0 0 5120 2048">
	<g id="id0:id0" transform="translate(0.0,0)">
		<g id="id0:id0:id0" transform="matrix(1.0,0,0,1.0,0,0.0)">			<g stroke="lightgray" stroke-width="4" transform="scale(4, 4)"> <rect x="0" y="0" width="256" height="256" fill="white" stroke-width="4"/></g>
			<g transform="scale(0.92, -0.92) translate(60, -920)">					<path d="M 404 683 Q 506 786 545 808 Q 564 821 552 837 Q 536 852 509 862 Q 484 872 472 868 Q 460 864 466 852 Q 472 831 412 730 Q 399 711 385 687 C 370 661 383 662 404 683 Z" fill="red"></path>
				<path d="M 385 687 Q 366 703 349 712 Q 337 716 328 711 Q 319 707 322 696 Q 338 666 343 581 Q 343 509 346 331 C 347 301 390 308 391 338 Q 392 387 393 431 L 393 457 Q 394 497 395 535 L 396 561 Q 396 624 399 652 C 401 674 401 674 385 687 Z" fill="lightgray"></path>
				<path d="M 617 295 Q 614 64 598 38 Q 592 32 496 55 Q 474 61 476 51 Q 549 -3 591 -42 Q 604 -61 621 -67 Q 631 -71 640 -60 Q 677 -12 679 67 Q 672 185 671 342 L 670 406 Q 670 488 671 579 Q 670 640 684 667 Q 697 686 684 698 Q 662 717 623 733 Q 604 740 587 733 Q 514 694 404 683 C 374 679 347 645 399 652 Q 411 651 577 685 Q 598 691 603 680 Q 618 635 618 378 L 617 295 Z" fill="lightgray"></path>
				<path d="M 395 535 Q 399 535 405 536 Q 492 552 555 561 Q 577 565 569 577 Q 559 590 535 594 Q 507 597 396 561 C 367 552 365 533 395 535 Z" fill="lightgray"></path>
				<path d="M 393 431 Q 397 431 405 432 Q 492 448 555 457 Q 577 461 569 473 Q 559 486 535 490 Q 508 493 393 457 C 364 448 363 429 393 431 Z" fill="lightgray"></path>
				<path d="M 346 331 Q 291 324 237 315 Q 209 311 163 317 Q 148 318 145 307 Q 141 294 149 283 Q 171 262 203 237 Q 213 233 227 239 Q 294 272 364 288 Q 472 313 579 338 Q 592 342 610 346 C 639 353 651 384 618 378 Q 512 359 391 338 L 346 331 Z" fill="lightgray"></path>
				<path d="M 610 346 Q 432 186 153 45 Q 144 41 142 34 Q 141 28 146 27 Q 179 24 321 91 Q 334 100 348 106 Q 465 169 617 295 L 671 342 Q 711 379 746 414 Q 803 474 836 500 Q 848 510 844 528 Q 823 594 791 602 Q 775 608 774 584 Q 765 536 765 533 Q 743 490 670 406 L 610 346 Z" fill="lightgray"></path>
</g>
		<text x="40" y="140" font-size="128" fill="#999999">1</text></g>
		<g id="id0:id1:id1" transform="matrix(1.0,0,0,1.0,1024,0.0)">			<g stroke="lightgray" stroke-width="4" transform="scale(4, 4)"> <rect x="0" y="0" width="256" height="256" fill="white" stroke-width="4"/></g>
			<g transform="scale(0.92, -0.92) translate(60, -920)">					<path d="M 404 683 Q 506 786 545 808 Q 564 821 552 837 Q 536 852 509 862 Q 484 872 472 868 Q 460 864 466 852 Q 472 831 412 730 Q 399 711 385 687 C 370 661 383 662 404 683 Z" fill="black"></path>
				<path d="M 385 687 Q 366 703 349 712 Q 337 716 328 711 Q 319 707 322 696 Q 338 666 343 581 Q 343 509 346 331 C 347 301 390 308 391 338 Q 392 387 393 431 L 393 457 Q 394 497 395 535 L 396 561 Q 396 624 399 652 C 401 674 401 674 385 687 Z" fill="red"></path>
				<path d="M 617 295 Q 614 64 598 38 Q 592 32 496 55 Q 474 61 476 51 Q 549 -3 591 -42 Q 604 -61 621 -67 Q 631 -71 640 -60 Q 677 -12 679 67 Q 672 185 671 342 L 670 406 Q 670 488 671 579 Q 670 640 684 667 Q 697 686 684 698 Q 662 717 623 733 Q 604 740 587 733 Q 514 694 404 683 C 374 679 347 645 399 652 Q 411 651 577 685 Q 598 691 603 680 Q 618 635 618 378 L 617 295 Z" fill="lightgray"></path>
				<path d="M 395 535 Q 399 535 405 536 Q 492 552 555 561 Q 577 565 569 577 Q 559 590 535 594 Q 507 597 396 561 C 367 552 365 533 395 535 Z" fill="lightgray"></path>
				<path d="M 393 431 Q 397 431 405 432 Q 492 448 555 457 Q 577 461 569 473 Q 559 486 535 490 Q 508 493 393 457 C 364 448 363 429 393 431 Z" fill="lightgray"></path>
				<path d="M 346 331 Q 291 324 237 315 Q 209 311 163 317 Q 148 318 145 307 Q 141 294 149 283 Q 171 262 203 237 Q 213 233 227 239 Q 294 272 364 288 Q 472 313 579 338 Q 592 342 610 346 C 639 353 651 384 618 378 Q 512 359 391 338 L 346 331 Z" fill="lightgray"></path>
				<path d="M 610 346 Q 432 186 153 45 Q 144 41 142 34 Q 141 28 146 27 Q 179 24 321 91 Q 334 100 348 106 Q 465 169 617 295 L 671 342 Q 711 379 746 414 Q 803 474 836 500 Q 848 510 844 528 Q 823 594 791 602 Q 775 608 774 584 Q 765 536 765 533 Q 743 490 670 406 L 610 346 Z" fill="lightgray"></path>
</g>
		<text x="40" y="140" font-size="128" fill="#999999">2</text></g>
		<g id="id0:id2:id2" transform="matrix(1.0,0,0,1.0,2048,0.0)">			<g stroke="lightgray" stroke-width="4" transform="scale(4, 4)"> <rect x="0" y="0" width="256" height="256" fill="white" stroke-width="4"/></g>
			<g transform="scale(0.92, -0.92) translate(60, -920)">					<path d="M 404 683 Q 506 786 545 808 Q 564 821 552 837 Q 536 852 509 862 Q 484 872 472 868 Q 460 864 466 852 Q 472 831 412 730 Q 399 711 385 687 C 370 661 383 662 404 683 Z" fill="black"></path>
				<path d="M 385 687 Q 366 703 349 712 Q 337 716 328 711 Q 319 707 322 696 Q 338 666 343 581 Q 343 509 346 331 C 347 301 390 308 391 338 Q 392 387 393 431 L 393 457 Q 394 497 395 535 L 396 561 Q 396 624 399 652 C 401 674 401 674 385 687 Z" fill="black"></path>
				<path d="M 617 295 Q 614 64 598 38 Q 592 32 496 55 Q 474 61 476 51 Q 549 -3 591 -42 Q 604 -61 621 -67 Q 631 -71 640 -60 Q 677 -12 679 67 Q 672 185 671 342 L 670 406 Q 670 488 671 579 Q 670 640 684 667 Q 697 686 684 698 Q 662 717 623 733 Q 604 740 587 733 Q 514 694 404 683 C 374 679 347 645 399 652 Q 411 651 577 685 Q 598 691 603 680 Q 618 635 618 378 L 617 295 Z" fill="red"></path>
				<path d="M 395 535 Q 399 535 405 536 Q 492 552 555 561 Q 577 565 569 577 Q 559 590 535 594 Q 507 597 396 561 C 367 552 365 533 395 535 Z" fill="lightgray"></path>
				<path d="M 393 431 Q 397 431 405 432 Q 492 448 555 457 Q 577 461 569 473 Q 559 486 535 490 Q 508 493 393 457 C 364 448 363 429 393 431 Z" fill="lightgray"></path>
				<path d="M 346 331 Q 291 324 237 315 Q 209 311 163 317 Q 148 318 145 307 Q 141 294 149 283 Q 171 262 203 237 Q 213 233 227 239 Q 294 272 364 288 Q 472 313 579 338 Q 592 342 610 346 C 639 353 651 384 618 378 Q 512 359 391 338 L 346 331 Z" fill="lightgray"></path>
				<path d="M 610 346 Q 432 186 153 45 Q 144 41 142 34 Q 141 28 146 27 Q 179 24 321 91 Q 334 100 348 106 Q 465 169 617 295 L 671 342 Q 711 379 746 414 Q 803 474 836 500 Q 848 510 844 528 Q 823 594 791 602 Q 775 608 774 584 Q 765 536 765 533 Q 743 490 670 406 L 610 346 Z" fill="lightgray"></path>
</g>
		<text x="40" y="140" font-size="128" fill="#999999">3</text></g>
		<g id="id0:id3:id3" transform="matrix(1.0,0,0,1.0,3072,0.0)">			<g stroke="lightgray" stroke-width="4" transform="scale(4, 4)"> <rect x="0" y="0" width="256" height="256" fill="white" stroke-width="4"/></g>
			<g transform="scale(0.92, -0.92) translate(60, -920)">					<path d="M 404 683 Q 506 786 545 808 Q 564 821 552 837 Q 536 852 509 862 Q 484 872 472 868 Q 460 864 466 852 Q 472 831 412 730 Q 399 711 385 687 C 370 661 383 662 404 683 Z" fill="black"></path>
				<path d="M 385 687 Q 366 703 349 712 Q 337 716 328 711 Q 319 707 322 696 Q 338 666 343 581 Q 343 509 346 331 C 347 301 390 308 391 338 Q 392 387 393 431 L 393 457 Q 394 497 395 535 L 396 561 Q 396 624 399 652 C 401 674 401 674 385 687 Z" fill="black"></path>
				<path d="M 617 295 Q 614 64 598 38 Q 592 32 496 55 Q 474 61 476 51 Q 549 -3 591 -42 Q 604 -61 621 -67 Q 631 -71 640 -60 Q 677 -12 679 67 Q 672 185 671 342 L 670 406 Q 670 488 671 579 Q 670 640 684 667 Q 697 686 684 698 Q 662 717 623 733 Q 604 740 587 733 Q 514 694 404 683 C 374 679 347 645 399 652 Q 411 651 577 685 Q 598 691 603 680 Q 618 635 618 378 L 617 295 Z" fill="black"></path>
				<path d="M 395 535 Q 399 535 405 536 Q 492 552 555 561 Q 577 565 569 577 Q 559 590 535 594 Q 507 597 396 561 C 367 552 365 533 395 535 Z" fill="red"></path>
				<path d="M 393 431 Q 397 431 405 432 Q 492 448 555 457 Q 577 461 569 473 Q 559 486 535 490 Q 508 493 393 457 C 364 448 363 429 393 431 Z" fill="lightgray"></path>
				<path d="M 346 331 Q 291 324 237 315 Q 209 311 163 317 Q 148 318 145 307 Q 141 294 149 283 Q 171 262 203 237 Q 213 233 227 239 Q 294 272 364 288 Q 472 313 579 338 Q 592 342 610 346 C 639 353 651 384 618 378 Q 512 359 391 338 L 346 331 Z" fill="lightgray"></path>
				<path d="M 610 346 Q 432 186 153 45 Q 144 41 142 34 Q 141 28 146 27 Q 179 24 321 91 Q 334 100 348 106 Q 465 169 617 295 L 671 342 Q 711 379 746 414 Q 803 474 836 500 Q 848 510 844 528 Q 823 594 791 602 Q 775 608 774 584 Q 765 536 765 533 Q 743 490 670 406 L 610 346 Z" fill="lightgray"></path>
</g>
		<text x="40" y="140" font-size="128" fill="#999999">4</text></g>
		<g id="id0:id4:id4" transform="matrix(1.0,0,0,1.0,4096,0.0)">			<g stroke="lightgray" stroke-width="4" transform="scale(4, 4)"> <rect x="0" y="0" width="256" height="256" fill="white" stroke-width="4"/></g>
			<g transform="scale(0.92, -0.92) translate(60, -920)">					<path d="M 404 683 Q 506 786 545 808 Q 564 821 552 837 Q 536 852 509 862 Q 484 872 472 868 Q 460 864 466 852 Q 472 831 412 730 Q 399 711 385 687 C 370 661 383 662 404 683 Z" fill="black"></path>
				<path d="M 385 687 Q 366 703 349 712 Q 337 716 328 711 Q 319 707 322 696 Q 338 666 343 581 Q 343 509 346 331 C 347 301 390 308 391 338 Q 392 387 393 431 L 393 457 Q 394 497 395 535 L 396 561 Q 396 624 399 652 C 401 674 401 674 385 687 Z" fill="black"></path>
				<path d="M 617 295 Q 614 64 598 38 Q 592 32 496 55 Q 474 61 476 51 Q 549 -3 591 -42 Q 604 -61 621 -67 Q 631 -71 640 -60 Q 677 -12 679 67 Q 672 185 671 342 L 670 406 Q 670 488 671 579 Q 670 640 684 667 Q 697 686 684 698 Q 662 717 623 733 Q 604 740 587 733 Q 514 694 404 683 C 374 679 347 645 399 652 Q 411 651 577 685 Q 598 691 603 680 Q 618 635 618 378 L 617 295 Z" fill="black"></path>
				<path d="M 395 535 Q 399 535 405 536 Q 492 552 555 561 Q 577 565 569 577 Q 559 590 535 594 Q 507 597 396 561 C 367 552 365 533 395 535 Z" fill="black"></path>
				<path d="M 393 431 Q 397 431 405 432 Q 492 448 555 457 Q 577 461 569 473 Q 559 486 535 490 Q 508 493 393 457 C 364 448 363 429 393 431 Z" fill="red"></path>
				<path d="M 346 331 Q 291 324 237 315 Q 209 311 163 317 Q 148 318 145 307 Q 141 294 149 283 Q 171 262 203 237 Q 213 233 227 239 Q 294 272 364 288 Q 472 313 579 338 Q 592 342 610 346 C 639 353 651 384 618 378 Q 512 359 391 338 L 346 331 Z" fill="lightgray"></path>
				<path d="M 610 346 Q 432 186 153 45 Q 144 41 142 34 Q 141 28 146 27 Q 179 24 321 91 Q 334 100 348 106 Q 465 169 617 295 L 671 342 Q 711 379 746 414 Q 803 474 836 500 Q 848 510 844 528 Q 823 594 791 602 Q 775 608 774 584 Q 765 536 765 533 Q 743 490 670 406 L 610 346 Z" fill="lightgray"></path>
</g>
		<text x="40" y="140" font-size="128" fill="#999999">5</text></g>
</g>
	<g id="id1:id1" transform="translate(0.0,1024)">
		<g id="id1:id0:id0" transform="matrix(1.0,0,0,1.0,0,0.0)">			<g stroke="lightgray" stroke-width="4" transform="scale(4, 4)"> <rect x="0" y="0" width="256" height="256" fill="white" stroke-width="4"/></g>
			<g transform="scale(0.92, -0.92) translate(60, -920)">					<path d="M 404 683 Q 506 786 545 808 Q 564 821 552 837 Q 536 852 509 862 Q 484 872 472 868 Q 460 864 466 852 Q 472 831 412 730 Q 399 711 385 687 C 370 661 383 662 404 683 Z" fill="black"></path>
				<path d="M 385 687 Q 366 703 349 712 Q 337 716 328 711 Q 319 707 322 696 Q 338 666 343 581 Q 343 509 346 331 C 347 301 390 308 391 338 Q 392 387 393 431 L 393 457 Q 394 497 395 535 L 396 561 Q 396 624 399 652 C 401 674 401 674 385 687 Z" fill="black"></path>
				<path d="M 617 295 Q 614 64 598 38 Q 592 32 496 55 Q 474 61 476 51 Q 549 -3 591 -42 Q 604 -61 621 -67 Q 631 -71 640 -60 Q 677 -12 679 67 Q 672 185 671 342 L 670 406 Q 670 488 671 579 Q 670 640 684 667 Q 697 686 684 698 Q 662 717 623 733 Q 604 740 587 733 Q 514 694 404 683 C 374 679 347 645 399 652 Q 411 651 577 685 Q 598 691 603 680 Q 618 635 618 378 L 617 295 Z" fill="black"></path>
				<path d="M 395 535 Q 399 535 405 536 Q 492 552 555 561 Q 577 565 569 577 Q 559 590 535 594 Q 507 597 396 561 C 367 552 365 533 395 535 Z" fill="black"></path>
				<path d="M 393 431 Q 397 431 405 432 Q 492 448 555 457 Q 577 461 569 473 Q 559 486 535 490 Q 508 493 393 457 C 364 448 363 429 393 431 Z" fill="black"></path>
				<path d="M 346 331 Q 291 324 237 315 Q 209 311 163 317 Q 148 318 145 307 Q 141 294 149 283 Q 171 262 203 237 Q 213 233 227 239 Q 294 272 364 288 Q 472 313 579 338 Q 592 342 610 346 C 639 353 651 384 618 378 Q 512 359 391 338 L 346 331 Z" fill="red"></path>
				<path d="M 610 346 Q 432 186 153 45 Q 144 41 142 34 Q 141 28 146 27 Q 179 24 321 91 Q 334 100 348 106 Q 465 169 617 295 L 671 342 Q 711 379 746 414 Q 803 474 836 500 Q 848 510 844 528 Q 823 594 791 602 Q 775 608 774 584 Q 765 536 765 533 Q 743 490 670 406 L 610 346 Z" fill="lightgray"></path>
</g>
		<text x="40" y="140" font-size="128" fill="#999999">6</text></g>
		<g id="id1:id1:id1" transform="matrix(1.0,0,0,1.0,1024,0.0)">			<g stroke="lightgray" stroke-width="4" transform="scale(4, 4)"> <rect x="0" y="0" width="256" height="256" fill="white" stroke-width="4"/></g>
			<g transform="scale(0.92, -0.92) translate(60, -920)">					<path d="M 404 683 Q 506 786 545 808 Q 564 821 552 837 Q 536 852 509 862 Q 484 872 472 868 Q 460 864 466 852 Q 472 831 412 730 Q 399 711 385 687 C 370 661 383 662 404 683 Z" fill="black"></path>
				<path d="M 385 687 Q 366 703 349 712 Q 337 716 328 711 Q 319 707 322 696 Q 338 666 343 581 Q 343 509 346 331 C 347 301 390 308 391 338 Q 392 387 393 431 L 393 457 Q 394 497 395 535 L 396 561 Q 396 624 399 652 C 401 674 401 674 385 687 Z" fill="black"></path>
				<path d="M 617 295 Q 614 64 598 38 Q 592 32 496 55 Q 474 61 476 51 Q 549 -3 591 -42 Q 604 -61 621 -67 Q 631 -71 640 -60 Q 677 -12 679 67 Q 672 185 671 342 L 670 406 Q 670 488 671 579 Q 670 640 684 667 Q 697 686 684 698 Q 662 717 623 733 Q 604 740 587 733 Q 514 694 404 683 C 374 679 347 645 399 652 Q 411 651 577 685 Q 598 691 603 680 Q 618 635 618 378 L 617 295 Z" fill="black"></path>
				<path d="M 395 535 Q 399 535 405 536 Q 492 552 555 561 Q 577 565 569 577 Q 559 590 535 594 Q 507 597 396 561 C 367 552 365 533 395 535 Z" fill="black"></path>
				<path d="M 393 431 Q 397 431 405 432 Q 492 448 555 457 Q 577 461 569 473 Q 559 486 535 490 Q 508 493 393 457 C 364 448 363 429 393 431 Z" fill="black"></path>
				<path d="M 346 331 Q 291 324 237 315 Q 209 311 163 317 Q 148 318 145 307 Q 141 294 149 283 Q 171 262 203 237 Q 213 233 227 239 Q 294 272 364 288 Q 472 313 579 338 Q 592 342 610 346 C 639 353 651 384 618 378 Q 512 359 391 338 L 346 331 Z" fill="black"></path>
				<path d="M 610 346 Q 432 186 153 45 Q 144 41 142 34 Q 141 28 146 27 Q 179 24 321 91 Q 334 100 348 106 Q 465 169 617 295 L 671 342 Q 711 379 746 414 Q 803 474 836 500 Q 848 510 844 528 Q 823 594 791 602 Q 775 608 774 584 Q 765 536 765 533 Q 743 490 670 406 L 610 346 Z" fill="red"></path>
</g>
		<text x="40" y="140" font-size="128" fill="#999999">7</text></g>
		<g id="id1:id2:id2" transform="matrix(1.0,0,0,1.0,2048,0.0)">			<g stroke="white" stroke-width="4" transform="scale(4, 4)"> <rect x="1" y="1" width="255" height="255" fill="white" stroke-width="0"/></g>
</g>
		<g id="id1:id3:id3" transform="matrix(1.0,0,0,1.0,3072,0.0)">			<g stroke="white" stroke-width="4" transform="scale(4, 4)"> <rect x="1" y="1" width="255" height="255" fill="white" stroke-width="0"/></g>
</g>
		<g id="id1:id4:id4" transform="matrix(1.0,0,0,1.0,4096,0.0)">			<g stroke="white" stroke-width="4" transform="scale(4, 4)"> <rect x="1" y="1" width="255" height="255" fill="white" stroke-width="0"/></g>
</g>
</g>
</svg>
