<?xml version="1.0" standalone="no"?>
<!DOCTYPE svg PUBLIC "-//W3C//DTD SVG 1.1//EN"
 "http://www.w3.org/Graphics/SVG/1.1/DTD/svg11.dtd">
<!-- generate by Japanese dictionary app com.asnsami.kanjidictionary -->

<svg xmlns="http://www.w3.org/2000/svg" xmlns:sodipodi="http://sodipodi.sourceforge.net/DTD/sodipodi-0.dtd" version="1.1" width="640" height="128" viewBox="0 0 5120 1024">
	<g id="id0:id0" transform="translate(0.0,0)">
		<g id="id0:id0:id0" transform="matrix(1.0,0,0,1.0,0,0.0)">			<g stroke="lightgray" stroke-width="4" transform="scale(4, 4)"> <rect x="0" y="0" width="256" height="256" fill="white" stroke-width="4"/></g>
			<g transform="scale(0.92, -0.92) translate(60, -920)">					<path d="M 452 611 Q 558 627 670 641 Q 737 651 748 660 Q 758 667 754 678 Q 747 693 715 703 Q 681 713 647 702 Q 569 680 486 666 Q 482 666 477 664 L 424 657 Q 357 651 286 648 Q 244 645 273 624 Q 318 591 384 603 Q 391 604 401 605 L 452 611 Z" fill="red"></path>
				<path d="M 491 421 Q 433 414 370 405 Q 354 404 352 407 Q 351 410 358 423 Q 394 490 452 611 L 477 664 Q 510 742 539 762 Q 558 775 548 788 Q 497 842 471 841 Q 461 841 466 818 Q 473 776 424 657 L 401 605 Q 340 461 286 417 Q 264 401 276 352 Q 280 336 298 342 Q 370 366 492 379 L 538 385 Q 580 394 712 400 Q 754 401 756 414 Q 757 429 728 447 Q 704 462 638 447 Q 593 438 539 428 L 491 421 Z" fill="lightgray"></path>
				<path d="M 491 255 Q 460 255 287 234 Q 220 224 117 224 Q 102 224 100 212 Q 100 199 120 183 Q 138 170 172 156 Q 184 152 203 160 Q 219 166 292 177 Q 380 196 489 205 L 538 209 Q 754 227 853 215 Q 910 215 914 217 Q 914 218 915 218 Q 924 233 911 246 Q 833 316 770 291 Q 709 282 538 260 L 491 255 Z" fill="lightgray"></path>
				<path d="M 539 428 Q 540 461 544 480 Q 547 492 539 498 Q 515 519 496 528 Q 483 532 474 524 Q 468 520 476 510 Q 485 495 491 421 L 492 379 Q 493 330 492 268 Q 491 262 491 255 L 489 205 Q 480 69 474 51 Q 465 12 500 -39 Q 512 -58 520 -62 Q 532 -63 537 -50 Q 549 -17 545 13 Q 541 116 538 209 L 538 260 Q 538 323 538 385 L 539 428 Z" fill="lightgray"></path>
</g>
		<text x="40" y="140" font-size="128" fill="#999999">1</text></g>
		<g id="id0:id1:id1" transform="matrix(1.0,0,0,1.0,1024,0.0)">			<g stroke="lightgray" stroke-width="4" transform="scale(4, 4)"> <rect x="0" y="0" width="256" height="256" fill="white" stroke-width="4"/></g>
			<g transform="scale(0.92, -0.92) translate(60, -920)">					<path d="M 452 611 Q 558 627 670 641 Q 737 651 748 660 Q 758 667 754 678 Q 747 693 715 703 Q 681 713 647 702 Q 569 680 486 666 Q 482 666 477 664 L 424 657 Q 357 651 286 648 Q 244 645 273 624 Q 318 591 384 603 Q 391 604 401 605 L 452 611 Z" fill="black"></path>
				<path d="M 491 421 Q 433 414 370 405 Q 354 404 352 407 Q 351 410 358 423 Q 394 490 452 611 L 477 664 Q 510 742 539 762 Q 558 775 548 788 Q 497 842 471 841 Q 461 841 466 818 Q 473 776 424 657 L 401 605 Q 340 461 286 417 Q 264 401 276 352 Q 280 336 298 342 Q 370 366 492 379 L 538 385 Q 580 394 712 400 Q 754 401 756 414 Q 757 429 728 447 Q 704 462 638 447 Q 593 438 539 428 L 491 421 Z" fill="red"></path>
				<path d="M 491 255 Q 460 255 287 234 Q 220 224 117 224 Q 102 224 100 212 Q 100 199 120 183 Q 138 170 172 156 Q 184 152 203 160 Q 219 166 292 177 Q 380 196 489 205 L 538 209 Q 754 227 853 215 Q 910 215 914 217 Q 914 218 915 218 Q 924 233 911 246 Q 833 316 770 291 Q 709 282 538 260 L 491 255 Z" fill="lightgray"></path>
				<path d="M 539 428 Q 540 461 544 480 Q 547 492 539 498 Q 515 519 496 528 Q 483 532 474 524 Q 468 520 476 510 Q 485 495 491 421 L 492 379 Q 493 330 492 268 Q 491 262 491 255 L 489 205 Q 480 69 474 51 Q 465 12 500 -39 Q 512 -58 520 -62 Q 532 -63 537 -50 Q 549 -17 545 13 Q 541 116 538 209 L 538 260 Q 538 323 538 385 L 539 428 Z" fill="lightgray"></path>
</g>
		<text x="40" y="140" font-size="128" fill="#999999">2</text></g>
		<g id="id0:id2:id2" transform="matrix(1.0,0,0,1.0,2048,0.0)">			<g stroke="lightgray" stroke-width="4" transform="scale(4, 4)"> <rect x="0" y="0" width="256" height="256" fill="white" stroke-width="4"/></g>
			<g transform="scale(0.92, -0.92) translate(60, -920)">					<path d="M 452 611 Q 558 627 670 641 Q 737 651 748 660 Q 758 667 754 678 Q 747 693 715 703 Q 681 713 647 702 Q 569 680 486 666 Q 482 666 477 664 L 424 657 Q 357 651 286 648 Q 244 645 273 624 Q 318 591 384 603 Q 391 604 401 605 L 452 611 Z" fill="black"></path>
				<path d="M 491 421 Q 433 414 370 405 Q 354 404 352 407 Q 351 410 358 423 Q 394 490 452 611 L 477 664 Q 510 742 539 762 Q 558 775 548 788 Q 497 842 471 841 Q 461 841 466 818 Q 473 776 424 657 L 401 605 Q 340 461 286 417 Q 264 401 276 352 Q 280 336 298 342 Q 370 366 492 379 L 538 385 Q 580 394 712 400 Q 754 401 756 414 Q 757 429 728 447 Q 704 462 638 447 Q 593 438 539 428 L 491 421 Z" fill="black"></path>
				<path d="M 491 255 Q 460 255 287 234 Q 220 224 117 224 Q 102 224 100 212 Q 100 199 120 183 Q 138 170 172 156 Q 184 152 203 160 Q 219 166 292 177 Q 380 196 489 205 L 538 209 Q 754 227 853 215 Q 910 215 914 217 Q 914 218 915 218 Q 924 233 911 246 Q 833 316 770 291 Q 709 282 538 260 L 491 255 Z" fill="red"></path>
				<path d="M 539 428 Q 540 461 544 480 Q 547 492 539 498 Q 515 519 496 528 Q 483 532 474 524 Q 468 520 476 510 Q 485 495 491 421 L 492 379 Q 493 330 492 268 Q 491 262 491 255 L 489 205 Q 480 69 474 51 Q 465 12 500 -39 Q 512 -58 520 -62 Q 532 -63 537 -50 Q 549 -17 545 13 Q 541 116 538 209 L 538 260 Q 538 323 538 385 L 539 428 Z" fill="lightgray"></path>
</g>
		<text x="40" y="140" font-size="128" fill="#999999">3</text></g>
		<g id="id0:id3:id3" transform="matrix(1.0,0,0,1.0,3072,0.0)">			<g stroke="lightgray" stroke-width="4" transform="scale(4, 4)"> <rect x="0" y="0" width="256" height="256" fill="white" stroke-width="4"/></g>
			<g transform="scale(0.92, -0.92) translate(60, -920)">					<path d="M 452 611 Q 558 627 670 641 Q 737 651 748 660 Q 758 667 754 678 Q 747 693 715 703 Q 681 713 647 702 Q 569 680 486 666 Q 482 666 477 664 L 424 657 Q 357 651 286 648 Q 244 645 273 624 Q 318 591 384 603 Q 391 604 401 605 L 452 611 Z" fill="black"></path>
				<path d="M 491 421 Q 433 414 370 405 Q 354 404 352 407 Q 351 410 358 423 Q 394 490 452 611 L 477 664 Q 510 742 539 762 Q 558 775 548 788 Q 497 842 471 841 Q 461 841 466 818 Q 473 776 424 657 L 401 605 Q 340 461 286 417 Q 264 401 276 352 Q 280 336 298 342 Q 370 366 492 379 L 538 385 Q 580 394 712 400 Q 754 401 756 414 Q 757 429 728 447 Q 704 462 638 447 Q 593 438 539 428 L 491 421 Z" fill="black"></path>
				<path d="M 491 255 Q 460 255 287 234 Q 220 224 117 224 Q 102 224 100 212 Q 100 199 120 183 Q 138 170 172 156 Q 184 152 203 160 Q 219 166 292 177 Q 380 196 489 205 L 538 209 Q 754 227 853 215 Q 910 215 914 217 Q 914 218 915 218 Q 924 233 911 246 Q 833 316 770 291 Q 709 282 538 260 L 491 255 Z" fill="black"></path>
				<path d="M 539 428 Q 540 461 544 480 Q 547 492 539 498 Q 515 519 496 528 Q 483 532 474 524 Q 468 520 476 510 Q 485 495 491 421 L 492 379 Q 493 330 492 268 Q 491 262 491 255 L 489 205 Q 480 69 474 51 Q 465 12 500 -39 Q 512 -58 520 -62 Q 532 -63 537 -50 Q 549 -17 545 13 Q 541 116 538 209 L 538 260 Q 538 323 538 385 L 539 428 Z" fill="red"></path>
</g>
		<text x="40" y="140" font-size="128" fill="#999999">4</text></g>
		<g id="id0:id4:id4" transform="matrix(1.0,0,0,1.0,4096,0.0)">			<g stroke="white" stroke-width="4" transform="scale(4, 4)"> <rect x="1" y="1" width="255" height="255" fill="white" stroke-width="0"/></g>
</g>
</g>
</svg>
