<?xml version="1.0" standalone="no"?>
<!DOCTYPE svg PUBLIC "-//W3C//DTD SVG 1.1//EN"
 "http://www.w3.org/Graphics/SVG/1.1/DTD/svg11.dtd">
<!-- generate by Japanese dictionary app com.asnsami.kanjidictionary -->

<svg xmlns="http://www.w3.org/2000/svg" xmlns:sodipodi="http://sodipodi.sourceforge.net/DTD/sodipodi-0.dtd" version="1.1" width="640" height="256" viewBox="0 0 5120 2048">
	<g id="id0:id0" transform="translate(0.0,0)">
		<g id="id0:id0:id0" transform="matrix(1.0,0,0,1.0,0,0.0)">			<g stroke="lightgray" stroke-width="4" transform="scale(4, 4)"> <rect x="0" y="0" width="256" height="256" fill="white" stroke-width="4"/></g>
			<g transform="scale(0.92, -0.92) translate(60, -920)">					<path d="M 467 814 Q 492 795 517 771 Q 533 759 549 761 Q 561 762 565 776 Q 569 792 557 823 Q 545 851 459 864 Q 443 867 436 863 Q 430 859 433 845 Q 437 835 467 814 Z" fill="red"></path>
				<path d="M 307 697 Q 270 693 296 674 Q 332 650 412 662 Q 533 683 659 703 Q 720 715 730 723 Q 739 730 735 740 Q 728 753 698 761 Q 670 768 580 740 Q 427 706 307 697 Z" fill="lightgray"></path>
				<path d="M 343 588 Q 391 506 412 501 Q 425 497 435 514 Q 439 527 434 548 Q 427 567 404 582 Q 370 607 353 613 Q 344 617 341 606 Q 338 597 343 588 Z" fill="lightgray"></path>
				<path d="M 562 481 Q 580 500 627 570 Q 637 588 658 610 Q 674 620 666 632 Q 657 650 629 672 Q 616 684 598 679 Q 588 675 593 663 Q 600 627 540 504 Q 531 488 529 476 C 522 447 542 459 562 481 Z" fill="lightgray"></path>
				<path d="M 529 440 Q 653 453 836 451 Q 870 450 899 451 Q 921 450 927 460 Q 934 473 915 488 Q 846 542 803 520 Q 709 504 562 481 L 529 476 Q 516 476 501 473 Q 323 451 114 428 Q 92 427 108 407 Q 124 391 143 385 Q 167 379 184 384 Q 307 417 445 431 Q 449 432 458 432 L 529 440 Z" fill="lightgray"></path>
				<path d="M 534 269 Q 619 278 743 278 Q 803 275 811 287 Q 817 299 800 313 Q 740 358 668 336 Q 611 327 536 312 L 475 302 Q 364 289 237 271 Q 215 270 231 251 Q 262 223 314 234 Q 389 255 476 262 L 534 269 Z" fill="lightgray"></path>
				<path d="M 481 -38 Q 487 -63 494 -73 Q 500 -80 507 -78 Q 520 -69 529 -9 Q 529 9 534 269 L 536 312 Q 536 369 545 410 Q 548 438 530 439 L 529 440 C 504 456 450 461 458 432 Q 470 392 475 341 Q 475 323 475 302 L 476 262 Q 476 3 481 -38 Z" fill="lightgray"></path>
</g>
		<text x="40" y="140" font-size="128" fill="#999999">1</text></g>
		<g id="id0:id1:id1" transform="matrix(1.0,0,0,1.0,1024,0.0)">			<g stroke="lightgray" stroke-width="4" transform="scale(4, 4)"> <rect x="0" y="0" width="256" height="256" fill="white" stroke-width="4"/></g>
			<g transform="scale(0.92, -0.92) translate(60, -920)">					<path d="M 467 814 Q 492 795 517 771 Q 533 759 549 761 Q 561 762 565 776 Q 569 792 557 823 Q 545 851 459 864 Q 443 867 436 863 Q 430 859 433 845 Q 437 835 467 814 Z" fill="black"></path>
				<path d="M 307 697 Q 270 693 296 674 Q 332 650 412 662 Q 533 683 659 703 Q 720 715 730 723 Q 739 730 735 740 Q 728 753 698 761 Q 670 768 580 740 Q 427 706 307 697 Z" fill="red"></path>
				<path d="M 343 588 Q 391 506 412 501 Q 425 497 435 514 Q 439 527 434 548 Q 427 567 404 582 Q 370 607 353 613 Q 344 617 341 606 Q 338 597 343 588 Z" fill="lightgray"></path>
				<path d="M 562 481 Q 580 500 627 570 Q 637 588 658 610 Q 674 620 666 632 Q 657 650 629 672 Q 616 684 598 679 Q 588 675 593 663 Q 600 627 540 504 Q 531 488 529 476 C 522 447 542 459 562 481 Z" fill="lightgray"></path>
				<path d="M 529 440 Q 653 453 836 451 Q 870 450 899 451 Q 921 450 927 460 Q 934 473 915 488 Q 846 542 803 520 Q 709 504 562 481 L 529 476 Q 516 476 501 473 Q 323 451 114 428 Q 92 427 108 407 Q 124 391 143 385 Q 167 379 184 384 Q 307 417 445 431 Q 449 432 458 432 L 529 440 Z" fill="lightgray"></path>
				<path d="M 534 269 Q 619 278 743 278 Q 803 275 811 287 Q 817 299 800 313 Q 740 358 668 336 Q 611 327 536 312 L 475 302 Q 364 289 237 271 Q 215 270 231 251 Q 262 223 314 234 Q 389 255 476 262 L 534 269 Z" fill="lightgray"></path>
				<path d="M 481 -38 Q 487 -63 494 -73 Q 500 -80 507 -78 Q 520 -69 529 -9 Q 529 9 534 269 L 536 312 Q 536 369 545 410 Q 548 438 530 439 L 529 440 C 504 456 450 461 458 432 Q 470 392 475 341 Q 475 323 475 302 L 476 262 Q 476 3 481 -38 Z" fill="lightgray"></path>
</g>
		<text x="40" y="140" font-size="128" fill="#999999">2</text></g>
		<g id="id0:id2:id2" transform="matrix(1.0,0,0,1.0,2048,0.0)">			<g stroke="lightgray" stroke-width="4" transform="scale(4, 4)"> <rect x="0" y="0" width="256" height="256" fill="white" stroke-width="4"/></g>
			<g transform="scale(0.92, -0.92) translate(60, -920)">					<path d="M 467 814 Q 492 795 517 771 Q 533 759 549 761 Q 561 762 565 776 Q 569 792 557 823 Q 545 851 459 864 Q 443 867 436 863 Q 430 859 433 845 Q 437 835 467 814 Z" fill="black"></path>
				<path d="M 307 697 Q 270 693 296 674 Q 332 650 412 662 Q 533 683 659 703 Q 720 715 730 723 Q 739 730 735 740 Q 728 753 698 761 Q 670 768 580 740 Q 427 706 307 697 Z" fill="black"></path>
				<path d="M 343 588 Q 391 506 412 501 Q 425 497 435 514 Q 439 527 434 548 Q 427 567 404 582 Q 370 607 353 613 Q 344 617 341 606 Q 338 597 343 588 Z" fill="red"></path>
				<path d="M 562 481 Q 580 500 627 570 Q 637 588 658 610 Q 674 620 666 632 Q 657 650 629 672 Q 616 684 598 679 Q 588 675 593 663 Q 600 627 540 504 Q 531 488 529 476 C 522 447 542 459 562 481 Z" fill="lightgray"></path>
				<path d="M 529 440 Q 653 453 836 451 Q 870 450 899 451 Q 921 450 927 460 Q 934 473 915 488 Q 846 542 803 520 Q 709 504 562 481 L 529 476 Q 516 476 501 473 Q 323 451 114 428 Q 92 427 108 407 Q 124 391 143 385 Q 167 379 184 384 Q 307 417 445 431 Q 449 432 458 432 L 529 440 Z" fill="lightgray"></path>
				<path d="M 534 269 Q 619 278 743 278 Q 803 275 811 287 Q 817 299 800 313 Q 740 358 668 336 Q 611 327 536 312 L 475 302 Q 364 289 237 271 Q 215 270 231 251 Q 262 223 314 234 Q 389 255 476 262 L 534 269 Z" fill="lightgray"></path>
				<path d="M 481 -38 Q 487 -63 494 -73 Q 500 -80 507 -78 Q 520 -69 529 -9 Q 529 9 534 269 L 536 312 Q 536 369 545 410 Q 548 438 530 439 L 529 440 C 504 456 450 461 458 432 Q 470 392 475 341 Q 475 323 475 302 L 476 262 Q 476 3 481 -38 Z" fill="lightgray"></path>
</g>
		<text x="40" y="140" font-size="128" fill="#999999">3</text></g>
		<g id="id0:id3:id3" transform="matrix(1.0,0,0,1.0,3072,0.0)">			<g stroke="lightgray" stroke-width="4" transform="scale(4, 4)"> <rect x="0" y="0" width="256" height="256" fill="white" stroke-width="4"/></g>
			<g transform="scale(0.92, -0.92) translate(60, -920)">					<path d="M 467 814 Q 492 795 517 771 Q 533 759 549 761 Q 561 762 565 776 Q 569 792 557 823 Q 545 851 459 864 Q 443 867 436 863 Q 430 859 433 845 Q 437 835 467 814 Z" fill="black"></path>
				<path d="M 307 697 Q 270 693 296 674 Q 332 650 412 662 Q 533 683 659 703 Q 720 715 730 723 Q 739 730 735 740 Q 728 753 698 761 Q 670 768 580 740 Q 427 706 307 697 Z" fill="black"></path>
				<path d="M 343 588 Q 391 506 412 501 Q 425 497 435 514 Q 439 527 434 548 Q 427 567 404 582 Q 370 607 353 613 Q 344 617 341 606 Q 338 597 343 588 Z" fill="black"></path>
				<path d="M 562 481 Q 580 500 627 570 Q 637 588 658 610 Q 674 620 666 632 Q 657 650 629 672 Q 616 684 598 679 Q 588 675 593 663 Q 600 627 540 504 Q 531 488 529 476 C 522 447 542 459 562 481 Z" fill="red"></path>
				<path d="M 529 440 Q 653 453 836 451 Q 870 450 899 451 Q 921 450 927 460 Q 934 473 915 488 Q 846 542 803 520 Q 709 504 562 481 L 529 476 Q 516 476 501 473 Q 323 451 114 428 Q 92 427 108 407 Q 124 391 143 385 Q 167 379 184 384 Q 307 417 445 431 Q 449 432 458 432 L 529 440 Z" fill="lightgray"></path>
				<path d="M 534 269 Q 619 278 743 278 Q 803 275 811 287 Q 817 299 800 313 Q 740 358 668 336 Q 611 327 536 312 L 475 302 Q 364 289 237 271 Q 215 270 231 251 Q 262 223 314 234 Q 389 255 476 262 L 534 269 Z" fill="lightgray"></path>
				<path d="M 481 -38 Q 487 -63 494 -73 Q 500 -80 507 -78 Q 520 -69 529 -9 Q 529 9 534 269 L 536 312 Q 536 369 545 410 Q 548 438 530 439 L 529 440 C 504 456 450 461 458 432 Q 470 392 475 341 Q 475 323 475 302 L 476 262 Q 476 3 481 -38 Z" fill="lightgray"></path>
</g>
		<text x="40" y="140" font-size="128" fill="#999999">4</text></g>
		<g id="id0:id4:id4" transform="matrix(1.0,0,0,1.0,4096,0.0)">			<g stroke="lightgray" stroke-width="4" transform="scale(4, 4)"> <rect x="0" y="0" width="256" height="256" fill="white" stroke-width="4"/></g>
			<g transform="scale(0.92, -0.92) translate(60, -920)">					<path d="M 467 814 Q 492 795 517 771 Q 533 759 549 761 Q 561 762 565 776 Q 569 792 557 823 Q 545 851 459 864 Q 443 867 436 863 Q 430 859 433 845 Q 437 835 467 814 Z" fill="black"></path>
				<path d="M 307 697 Q 270 693 296 674 Q 332 650 412 662 Q 533 683 659 703 Q 720 715 730 723 Q 739 730 735 740 Q 728 753 698 761 Q 670 768 580 740 Q 427 706 307 697 Z" fill="black"></path>
				<path d="M 343 588 Q 391 506 412 501 Q 425 497 435 514 Q 439 527 434 548 Q 427 567 404 582 Q 370 607 353 613 Q 344 617 341 606 Q 338 597 343 588 Z" fill="black"></path>
				<path d="M 562 481 Q 580 500 627 570 Q 637 588 658 610 Q 674 620 666 632 Q 657 650 629 672 Q 616 684 598 679 Q 588 675 593 663 Q 600 627 540 504 Q 531 488 529 476 C 522 447 542 459 562 481 Z" fill="black"></path>
				<path d="M 529 440 Q 653 453 836 451 Q 870 450 899 451 Q 921 450 927 460 Q 934 473 915 488 Q 846 542 803 520 Q 709 504 562 481 L 529 476 Q 516 476 501 473 Q 323 451 114 428 Q 92 427 108 407 Q 124 391 143 385 Q 167 379 184 384 Q 307 417 445 431 Q 449 432 458 432 L 529 440 Z" fill="red"></path>
				<path d="M 534 269 Q 619 278 743 278 Q 803 275 811 287 Q 817 299 800 313 Q 740 358 668 336 Q 611 327 536 312 L 475 302 Q 364 289 237 271 Q 215 270 231 251 Q 262 223 314 234 Q 389 255 476 262 L 534 269 Z" fill="lightgray"></path>
				<path d="M 481 -38 Q 487 -63 494 -73 Q 500 -80 507 -78 Q 520 -69 529 -9 Q 529 9 534 269 L 536 312 Q 536 369 545 410 Q 548 438 530 439 L 529 440 C 504 456 450 461 458 432 Q 470 392 475 341 Q 475 323 475 302 L 476 262 Q 476 3 481 -38 Z" fill="lightgray"></path>
</g>
		<text x="40" y="140" font-size="128" fill="#999999">5</text></g>
</g>
	<g id="id1:id1" transform="translate(0.0,1024)">
		<g id="id1:id0:id0" transform="matrix(1.0,0,0,1.0,0,0.0)">			<g stroke="lightgray" stroke-width="4" transform="scale(4, 4)"> <rect x="0" y="0" width="256" height="256" fill="white" stroke-width="4"/></g>
			<g transform="scale(0.92, -0.92) translate(60, -920)">					<path d="M 467 814 Q 492 795 517 771 Q 533 759 549 761 Q 561 762 565 776 Q 569 792 557 823 Q 545 851 459 864 Q 443 867 436 863 Q 430 859 433 845 Q 437 835 467 814 Z" fill="black"></path>
				<path d="M 307 697 Q 270 693 296 674 Q 332 650 412 662 Q 533 683 659 703 Q 720 715 730 723 Q 739 730 735 740 Q 728 753 698 761 Q 670 768 580 740 Q 427 706 307 697 Z" fill="black"></path>
				<path d="M 343 588 Q 391 506 412 501 Q 425 497 435 514 Q 439 527 434 548 Q 427 567 404 582 Q 370 607 353 613 Q 344 617 341 606 Q 338 597 343 588 Z" fill="black"></path>
				<path d="M 562 481 Q 580 500 627 570 Q 637 588 658 610 Q 674 620 666 632 Q 657 650 629 672 Q 616 684 598 679 Q 588 675 593 663 Q 600 627 540 504 Q 531 488 529 476 C 522 447 542 459 562 481 Z" fill="black"></path>
				<path d="M 529 440 Q 653 453 836 451 Q 870 450 899 451 Q 921 450 927 460 Q 934 473 915 488 Q 846 542 803 520 Q 709 504 562 481 L 529 476 Q 516 476 501 473 Q 323 451 114 428 Q 92 427 108 407 Q 124 391 143 385 Q 167 379 184 384 Q 307 417 445 431 Q 449 432 458 432 L 529 440 Z" fill="black"></path>
				<path d="M 534 269 Q 619 278 743 278 Q 803 275 811 287 Q 817 299 800 313 Q 740 358 668 336 Q 611 327 536 312 L 475 302 Q 364 289 237 271 Q 215 270 231 251 Q 262 223 314 234 Q 389 255 476 262 L 534 269 Z" fill="red"></path>
				<path d="M 481 -38 Q 487 -63 494 -73 Q 500 -80 507 -78 Q 520 -69 529 -9 Q 529 9 534 269 L 536 312 Q 536 369 545 410 Q 548 438 530 439 L 529 440 C 504 456 450 461 458 432 Q 470 392 475 341 Q 475 323 475 302 L 476 262 Q 476 3 481 -38 Z" fill="lightgray"></path>
</g>
		<text x="40" y="140" font-size="128" fill="#999999">6</text></g>
		<g id="id1:id1:id1" transform="matrix(1.0,0,0,1.0,1024,0.0)">			<g stroke="lightgray" stroke-width="4" transform="scale(4, 4)"> <rect x="0" y="0" width="256" height="256" fill="white" stroke-width="4"/></g>
			<g transform="scale(0.92, -0.92) translate(60, -920)">					<path d="M 467 814 Q 492 795 517 771 Q 533 759 549 761 Q 561 762 565 776 Q 569 792 557 823 Q 545 851 459 864 Q 443 867 436 863 Q 430 859 433 845 Q 437 835 467 814 Z" fill="black"></path>
				<path d="M 307 697 Q 270 693 296 674 Q 332 650 412 662 Q 533 683 659 703 Q 720 715 730 723 Q 739 730 735 740 Q 728 753 698 761 Q 670 768 580 740 Q 427 706 307 697 Z" fill="black"></path>
				<path d="M 343 588 Q 391 506 412 501 Q 425 497 435 514 Q 439 527 434 548 Q 427 567 404 582 Q 370 607 353 613 Q 344 617 341 606 Q 338 597 343 588 Z" fill="black"></path>
				<path d="M 562 481 Q 580 500 627 570 Q 637 588 658 610 Q 674 620 666 632 Q 657 650 629 672 Q 616 684 598 679 Q 588 675 593 663 Q 600 627 540 504 Q 531 488 529 476 C 522 447 542 459 562 481 Z" fill="black"></path>
				<path d="M 529 440 Q 653 453 836 451 Q 870 450 899 451 Q 921 450 927 460 Q 934 473 915 488 Q 846 542 803 520 Q 709 504 562 481 L 529 476 Q 516 476 501 473 Q 323 451 114 428 Q 92 427 108 407 Q 124 391 143 385 Q 167 379 184 384 Q 307 417 445 431 Q 449 432 458 432 L 529 440 Z" fill="black"></path>
				<path d="M 534 269 Q 619 278 743 278 Q 803 275 811 287 Q 817 299 800 313 Q 740 358 668 336 Q 611 327 536 312 L 475 302 Q 364 289 237 271 Q 215 270 231 251 Q 262 223 314 234 Q 389 255 476 262 L 534 269 Z" fill="black"></path>
				<path d="M 481 -38 Q 487 -63 494 -73 Q 500 -80 507 -78 Q 520 -69 529 -9 Q 529 9 534 269 L 536 312 Q 536 369 545 410 Q 548 438 530 439 L 529 440 C 504 456 450 461 458 432 Q 470 392 475 341 Q 475 323 475 302 L 476 262 Q 476 3 481 -38 Z" fill="red"></path>
</g>
		<text x="40" y="140" font-size="128" fill="#999999">7</text></g>
		<g id="id1:id2:id2" transform="matrix(1.0,0,0,1.0,2048,0.0)">			<g stroke="white" stroke-width="4" transform="scale(4, 4)"> <rect x="1" y="1" width="255" height="255" fill="white" stroke-width="0"/></g>
</g>
		<g id="id1:id3:id3" transform="matrix(1.0,0,0,1.0,3072,0.0)">			<g stroke="white" stroke-width="4" transform="scale(4, 4)"> <rect x="1" y="1" width="255" height="255" fill="white" stroke-width="0"/></g>
</g>
		<g id="id1:id4:id4" transform="matrix(1.0,0,0,1.0,4096,0.0)">			<g stroke="white" stroke-width="4" transform="scale(4, 4)"> <rect x="1" y="1" width="255" height="255" fill="white" stroke-width="0"/></g>
</g>
</g>
</svg>
