<?xml version="1.0" standalone="no"?>
<!DOCTYPE svg PUBLIC "-//W3C//DTD SVG 1.1//EN"
 "http://www.w3.org/Graphics/SVG/1.1/DTD/svg11.dtd">
<!-- generate by Handict dictionary app com.asnsami.handict -->

<svg xmlns="http://www.w3.org/2000/svg" xmlns:sodipodi="http://sodipodi.sourceforge.net/DTD/sodipodi-0.dtd" version="1.1" width="640" height="256" viewBox="0 0 5120 2048">
	<g id="id0:id0" transform="translate(0.0,0)">
		<g id="id0:id0:id0" transform="matrix(1.0,0,0,1.0,0,0.0)">			<g stroke="lightgray" stroke-width="4" transform="scale(4, 4)"> <rect x="0" y="0" width="256" height="256" fill="white" stroke-width="4"/></g>
			<g transform="scale(0.92, -0.92) translate(60, -920)">					<path d="M 573 726 Q 639 732 868 732 Q 890 732 895 741 Q 901 754 883 769 Q 820 817 759 797 Q 573 764 170 720 Q 148 717 164 699 Q 179 684 198 678 Q 220 672 238 677 Q 311 696 391 707 L 436 713 Q 455 717 508 721 L 573 726 Z" fill="red"></path>
				<path d="M 309 538 Q 290 554 266 560 Q 256 561 250 553 Q 246 547 254 536 Q 299 428 266 195 Q 260 164 250 129 Q 241 102 246 82 Q 256 46 268 33 Q 280 18 290 33 Q 299 43 305 62 L 313 104 Q 317 134 323 308 Q 324 462 331 502 C 333 521 333 521 309 538 Z" fill="lightgray"></path>
				<path d="M 650 90 Q 680 53 702 18 Q 712 -1 724 -1 Q 742 0 759 38 Q 778 80 773 131 Q 763 252 752 477 Q 751 513 768 537 Q 778 552 768 563 Q 746 585 687 611 Q 666 621 650 610 Q 613 595 568 582 L 530 572 Q 499 566 464 559 Q 463 559 462 558 L 417 551 Q 347 542 309 538 C 279 535 301 497 331 502 Q 347 503 376 510 Q 395 514 415 517 L 460 525 Q 494 532 529 538 L 565 545 Q 650 563 674 546 Q 713 518 694 133 Q 688 114 673 118 C 650 99 646 95 650 90 Z" fill="lightgray"></path>
				<path d="M 391 707 Q 416 682 417 551 L 415 517 Q 412 433 359 310 Q 355 304 354 299 Q 353 290 362 293 Q 392 305 435 407 Q 435 411 437 414 Q 446 444 460 525 L 462 558 Q 463 595 464 653 Q 464 663 466 675 Q 472 688 464 697 Q 454 707 436 713 C 408 724 374 732 391 707 Z" fill="lightgray"></path>
				<path d="M 568 582 Q 572 637 588 698 Q 592 713 583 721 Q 579 724 573 726 C 548 742 490 745 508 721 Q 509 717 515 712 Q 533 691 530 572 L 529 538 Q 528 505 527 469 Q 521 366 567 331 Q 580 318 642 323 Q 673 324 684 340 Q 693 350 686 357 Q 682 361 615 366 Q 552 373 565 545 L 568 582 Z" fill="lightgray"></path>
				<path d="M 401 228 Q 382 224 405 206 Q 414 199 433 202 Q 527 215 596 224 Q 624 228 613 243 Q 601 259 571 266 Q 543 270 495 257 Q 446 241 401 228 Z" fill="lightgray"></path>
				<path d="M 305 62 Q 315 61 328 63 Q 431 82 650 90 C 680 91 694 97 673 118 Q 664 128 648 139 Q 629 151 592 143 Q 438 115 313 104 C 283 101 275 62 305 62 Z" fill="lightgray"></path>
</g>
		<text x="40" y="140" font-size="128" fill="#999999">1</text></g>
		<g id="id0:id1:id1" transform="matrix(1.0,0,0,1.0,1024,0.0)">			<g stroke="lightgray" stroke-width="4" transform="scale(4, 4)"> <rect x="0" y="0" width="256" height="256" fill="white" stroke-width="4"/></g>
			<g transform="scale(0.92, -0.92) translate(60, -920)">					<path d="M 573 726 Q 639 732 868 732 Q 890 732 895 741 Q 901 754 883 769 Q 820 817 759 797 Q 573 764 170 720 Q 148 717 164 699 Q 179 684 198 678 Q 220 672 238 677 Q 311 696 391 707 L 436 713 Q 455 717 508 721 L 573 726 Z" fill="black"></path>
				<path d="M 309 538 Q 290 554 266 560 Q 256 561 250 553 Q 246 547 254 536 Q 299 428 266 195 Q 260 164 250 129 Q 241 102 246 82 Q 256 46 268 33 Q 280 18 290 33 Q 299 43 305 62 L 313 104 Q 317 134 323 308 Q 324 462 331 502 C 333 521 333 521 309 538 Z" fill="red"></path>
				<path d="M 650 90 Q 680 53 702 18 Q 712 -1 724 -1 Q 742 0 759 38 Q 778 80 773 131 Q 763 252 752 477 Q 751 513 768 537 Q 778 552 768 563 Q 746 585 687 611 Q 666 621 650 610 Q 613 595 568 582 L 530 572 Q 499 566 464 559 Q 463 559 462 558 L 417 551 Q 347 542 309 538 C 279 535 301 497 331 502 Q 347 503 376 510 Q 395 514 415 517 L 460 525 Q 494 532 529 538 L 565 545 Q 650 563 674 546 Q 713 518 694 133 Q 688 114 673 118 C 650 99 646 95 650 90 Z" fill="lightgray"></path>
				<path d="M 391 707 Q 416 682 417 551 L 415 517 Q 412 433 359 310 Q 355 304 354 299 Q 353 290 362 293 Q 392 305 435 407 Q 435 411 437 414 Q 446 444 460 525 L 462 558 Q 463 595 464 653 Q 464 663 466 675 Q 472 688 464 697 Q 454 707 436 713 C 408 724 374 732 391 707 Z" fill="lightgray"></path>
				<path d="M 568 582 Q 572 637 588 698 Q 592 713 583 721 Q 579 724 573 726 C 548 742 490 745 508 721 Q 509 717 515 712 Q 533 691 530 572 L 529 538 Q 528 505 527 469 Q 521 366 567 331 Q 580 318 642 323 Q 673 324 684 340 Q 693 350 686 357 Q 682 361 615 366 Q 552 373 565 545 L 568 582 Z" fill="lightgray"></path>
				<path d="M 401 228 Q 382 224 405 206 Q 414 199 433 202 Q 527 215 596 224 Q 624 228 613 243 Q 601 259 571 266 Q 543 270 495 257 Q 446 241 401 228 Z" fill="lightgray"></path>
				<path d="M 305 62 Q 315 61 328 63 Q 431 82 650 90 C 680 91 694 97 673 118 Q 664 128 648 139 Q 629 151 592 143 Q 438 115 313 104 C 283 101 275 62 305 62 Z" fill="lightgray"></path>
</g>
		<text x="40" y="140" font-size="128" fill="#999999">2</text></g>
		<g id="id0:id2:id2" transform="matrix(1.0,0,0,1.0,2048,0.0)">			<g stroke="lightgray" stroke-width="4" transform="scale(4, 4)"> <rect x="0" y="0" width="256" height="256" fill="white" stroke-width="4"/></g>
			<g transform="scale(0.92, -0.92) translate(60, -920)">					<path d="M 573 726 Q 639 732 868 732 Q 890 732 895 741 Q 901 754 883 769 Q 820 817 759 797 Q 573 764 170 720 Q 148 717 164 699 Q 179 684 198 678 Q 220 672 238 677 Q 311 696 391 707 L 436 713 Q 455 717 508 721 L 573 726 Z" fill="black"></path>
				<path d="M 309 538 Q 290 554 266 560 Q 256 561 250 553 Q 246 547 254 536 Q 299 428 266 195 Q 260 164 250 129 Q 241 102 246 82 Q 256 46 268 33 Q 280 18 290 33 Q 299 43 305 62 L 313 104 Q 317 134 323 308 Q 324 462 331 502 C 333 521 333 521 309 538 Z" fill="black"></path>
				<path d="M 650 90 Q 680 53 702 18 Q 712 -1 724 -1 Q 742 0 759 38 Q 778 80 773 131 Q 763 252 752 477 Q 751 513 768 537 Q 778 552 768 563 Q 746 585 687 611 Q 666 621 650 610 Q 613 595 568 582 L 530 572 Q 499 566 464 559 Q 463 559 462 558 L 417 551 Q 347 542 309 538 C 279 535 301 497 331 502 Q 347 503 376 510 Q 395 514 415 517 L 460 525 Q 494 532 529 538 L 565 545 Q 650 563 674 546 Q 713 518 694 133 Q 688 114 673 118 C 650 99 646 95 650 90 Z" fill="red"></path>
				<path d="M 391 707 Q 416 682 417 551 L 415 517 Q 412 433 359 310 Q 355 304 354 299 Q 353 290 362 293 Q 392 305 435 407 Q 435 411 437 414 Q 446 444 460 525 L 462 558 Q 463 595 464 653 Q 464 663 466 675 Q 472 688 464 697 Q 454 707 436 713 C 408 724 374 732 391 707 Z" fill="lightgray"></path>
				<path d="M 568 582 Q 572 637 588 698 Q 592 713 583 721 Q 579 724 573 726 C 548 742 490 745 508 721 Q 509 717 515 712 Q 533 691 530 572 L 529 538 Q 528 505 527 469 Q 521 366 567 331 Q 580 318 642 323 Q 673 324 684 340 Q 693 350 686 357 Q 682 361 615 366 Q 552 373 565 545 L 568 582 Z" fill="lightgray"></path>
				<path d="M 401 228 Q 382 224 405 206 Q 414 199 433 202 Q 527 215 596 224 Q 624 228 613 243 Q 601 259 571 266 Q 543 270 495 257 Q 446 241 401 228 Z" fill="lightgray"></path>
				<path d="M 305 62 Q 315 61 328 63 Q 431 82 650 90 C 680 91 694 97 673 118 Q 664 128 648 139 Q 629 151 592 143 Q 438 115 313 104 C 283 101 275 62 305 62 Z" fill="lightgray"></path>
</g>
		<text x="40" y="140" font-size="128" fill="#999999">3</text></g>
		<g id="id0:id3:id3" transform="matrix(1.0,0,0,1.0,3072,0.0)">			<g stroke="lightgray" stroke-width="4" transform="scale(4, 4)"> <rect x="0" y="0" width="256" height="256" fill="white" stroke-width="4"/></g>
			<g transform="scale(0.92, -0.92) translate(60, -920)">					<path d="M 573 726 Q 639 732 868 732 Q 890 732 895 741 Q 901 754 883 769 Q 820 817 759 797 Q 573 764 170 720 Q 148 717 164 699 Q 179 684 198 678 Q 220 672 238 677 Q 311 696 391 707 L 436 713 Q 455 717 508 721 L 573 726 Z" fill="black"></path>
				<path d="M 309 538 Q 290 554 266 560 Q 256 561 250 553 Q 246 547 254 536 Q 299 428 266 195 Q 260 164 250 129 Q 241 102 246 82 Q 256 46 268 33 Q 280 18 290 33 Q 299 43 305 62 L 313 104 Q 317 134 323 308 Q 324 462 331 502 C 333 521 333 521 309 538 Z" fill="black"></path>
				<path d="M 650 90 Q 680 53 702 18 Q 712 -1 724 -1 Q 742 0 759 38 Q 778 80 773 131 Q 763 252 752 477 Q 751 513 768 537 Q 778 552 768 563 Q 746 585 687 611 Q 666 621 650 610 Q 613 595 568 582 L 530 572 Q 499 566 464 559 Q 463 559 462 558 L 417 551 Q 347 542 309 538 C 279 535 301 497 331 502 Q 347 503 376 510 Q 395 514 415 517 L 460 525 Q 494 532 529 538 L 565 545 Q 650 563 674 546 Q 713 518 694 133 Q 688 114 673 118 C 650 99 646 95 650 90 Z" fill="black"></path>
				<path d="M 391 707 Q 416 682 417 551 L 415 517 Q 412 433 359 310 Q 355 304 354 299 Q 353 290 362 293 Q 392 305 435 407 Q 435 411 437 414 Q 446 444 460 525 L 462 558 Q 463 595 464 653 Q 464 663 466 675 Q 472 688 464 697 Q 454 707 436 713 C 408 724 374 732 391 707 Z" fill="red"></path>
				<path d="M 568 582 Q 572 637 588 698 Q 592 713 583 721 Q 579 724 573 726 C 548 742 490 745 508 721 Q 509 717 515 712 Q 533 691 530 572 L 529 538 Q 528 505 527 469 Q 521 366 567 331 Q 580 318 642 323 Q 673 324 684 340 Q 693 350 686 357 Q 682 361 615 366 Q 552 373 565 545 L 568 582 Z" fill="lightgray"></path>
				<path d="M 401 228 Q 382 224 405 206 Q 414 199 433 202 Q 527 215 596 224 Q 624 228 613 243 Q 601 259 571 266 Q 543 270 495 257 Q 446 241 401 228 Z" fill="lightgray"></path>
				<path d="M 305 62 Q 315 61 328 63 Q 431 82 650 90 C 680 91 694 97 673 118 Q 664 128 648 139 Q 629 151 592 143 Q 438 115 313 104 C 283 101 275 62 305 62 Z" fill="lightgray"></path>
</g>
		<text x="40" y="140" font-size="128" fill="#999999">4</text></g>
		<g id="id0:id4:id4" transform="matrix(1.0,0,0,1.0,4096,0.0)">			<g stroke="lightgray" stroke-width="4" transform="scale(4, 4)"> <rect x="0" y="0" width="256" height="256" fill="white" stroke-width="4"/></g>
			<g transform="scale(0.92, -0.92) translate(60, -920)">					<path d="M 573 726 Q 639 732 868 732 Q 890 732 895 741 Q 901 754 883 769 Q 820 817 759 797 Q 573 764 170 720 Q 148 717 164 699 Q 179 684 198 678 Q 220 672 238 677 Q 311 696 391 707 L 436 713 Q 455 717 508 721 L 573 726 Z" fill="black"></path>
				<path d="M 309 538 Q 290 554 266 560 Q 256 561 250 553 Q 246 547 254 536 Q 299 428 266 195 Q 260 164 250 129 Q 241 102 246 82 Q 256 46 268 33 Q 280 18 290 33 Q 299 43 305 62 L 313 104 Q 317 134 323 308 Q 324 462 331 502 C 333 521 333 521 309 538 Z" fill="black"></path>
				<path d="M 650 90 Q 680 53 702 18 Q 712 -1 724 -1 Q 742 0 759 38 Q 778 80 773 131 Q 763 252 752 477 Q 751 513 768 537 Q 778 552 768 563 Q 746 585 687 611 Q 666 621 650 610 Q 613 595 568 582 L 530 572 Q 499 566 464 559 Q 463 559 462 558 L 417 551 Q 347 542 309 538 C 279 535 301 497 331 502 Q 347 503 376 510 Q 395 514 415 517 L 460 525 Q 494 532 529 538 L 565 545 Q 650 563 674 546 Q 713 518 694 133 Q 688 114 673 118 C 650 99 646 95 650 90 Z" fill="black"></path>
				<path d="M 391 707 Q 416 682 417 551 L 415 517 Q 412 433 359 310 Q 355 304 354 299 Q 353 290 362 293 Q 392 305 435 407 Q 435 411 437 414 Q 446 444 460 525 L 462 558 Q 463 595 464 653 Q 464 663 466 675 Q 472 688 464 697 Q 454 707 436 713 C 408 724 374 732 391 707 Z" fill="black"></path>
				<path d="M 568 582 Q 572 637 588 698 Q 592 713 583 721 Q 579 724 573 726 C 548 742 490 745 508 721 Q 509 717 515 712 Q 533 691 530 572 L 529 538 Q 528 505 527 469 Q 521 366 567 331 Q 580 318 642 323 Q 673 324 684 340 Q 693 350 686 357 Q 682 361 615 366 Q 552 373 565 545 L 568 582 Z" fill="red"></path>
				<path d="M 401 228 Q 382 224 405 206 Q 414 199 433 202 Q 527 215 596 224 Q 624 228 613 243 Q 601 259 571 266 Q 543 270 495 257 Q 446 241 401 228 Z" fill="lightgray"></path>
				<path d="M 305 62 Q 315 61 328 63 Q 431 82 650 90 C 680 91 694 97 673 118 Q 664 128 648 139 Q 629 151 592 143 Q 438 115 313 104 C 283 101 275 62 305 62 Z" fill="lightgray"></path>
</g>
		<text x="40" y="140" font-size="128" fill="#999999">5</text></g>
</g>
	<g id="id1:id1" transform="translate(0.0,1024)">
		<g id="id1:id0:id0" transform="matrix(1.0,0,0,1.0,0,0.0)">			<g stroke="lightgray" stroke-width="4" transform="scale(4, 4)"> <rect x="0" y="0" width="256" height="256" fill="white" stroke-width="4"/></g>
			<g transform="scale(0.92, -0.92) translate(60, -920)">					<path d="M 573 726 Q 639 732 868 732 Q 890 732 895 741 Q 901 754 883 769 Q 820 817 759 797 Q 573 764 170 720 Q 148 717 164 699 Q 179 684 198 678 Q 220 672 238 677 Q 311 696 391 707 L 436 713 Q 455 717 508 721 L 573 726 Z" fill="black"></path>
				<path d="M 309 538 Q 290 554 266 560 Q 256 561 250 553 Q 246 547 254 536 Q 299 428 266 195 Q 260 164 250 129 Q 241 102 246 82 Q 256 46 268 33 Q 280 18 290 33 Q 299 43 305 62 L 313 104 Q 317 134 323 308 Q 324 462 331 502 C 333 521 333 521 309 538 Z" fill="black"></path>
				<path d="M 650 90 Q 680 53 702 18 Q 712 -1 724 -1 Q 742 0 759 38 Q 778 80 773 131 Q 763 252 752 477 Q 751 513 768 537 Q 778 552 768 563 Q 746 585 687 611 Q 666 621 650 610 Q 613 595 568 582 L 530 572 Q 499 566 464 559 Q 463 559 462 558 L 417 551 Q 347 542 309 538 C 279 535 301 497 331 502 Q 347 503 376 510 Q 395 514 415 517 L 460 525 Q 494 532 529 538 L 565 545 Q 650 563 674 546 Q 713 518 694 133 Q 688 114 673 118 C 650 99 646 95 650 90 Z" fill="black"></path>
				<path d="M 391 707 Q 416 682 417 551 L 415 517 Q 412 433 359 310 Q 355 304 354 299 Q 353 290 362 293 Q 392 305 435 407 Q 435 411 437 414 Q 446 444 460 525 L 462 558 Q 463 595 464 653 Q 464 663 466 675 Q 472 688 464 697 Q 454 707 436 713 C 408 724 374 732 391 707 Z" fill="black"></path>
				<path d="M 568 582 Q 572 637 588 698 Q 592 713 583 721 Q 579 724 573 726 C 548 742 490 745 508 721 Q 509 717 515 712 Q 533 691 530 572 L 529 538 Q 528 505 527 469 Q 521 366 567 331 Q 580 318 642 323 Q 673 324 684 340 Q 693 350 686 357 Q 682 361 615 366 Q 552 373 565 545 L 568 582 Z" fill="black"></path>
				<path d="M 401 228 Q 382 224 405 206 Q 414 199 433 202 Q 527 215 596 224 Q 624 228 613 243 Q 601 259 571 266 Q 543 270 495 257 Q 446 241 401 228 Z" fill="red"></path>
				<path d="M 305 62 Q 315 61 328 63 Q 431 82 650 90 C 680 91 694 97 673 118 Q 664 128 648 139 Q 629 151 592 143 Q 438 115 313 104 C 283 101 275 62 305 62 Z" fill="lightgray"></path>
</g>
		<text x="40" y="140" font-size="128" fill="#999999">6</text></g>
		<g id="id1:id1:id1" transform="matrix(1.0,0,0,1.0,1024,0.0)">			<g stroke="lightgray" stroke-width="4" transform="scale(4, 4)"> <rect x="0" y="0" width="256" height="256" fill="white" stroke-width="4"/></g>
			<g transform="scale(0.92, -0.92) translate(60, -920)">					<path d="M 573 726 Q 639 732 868 732 Q 890 732 895 741 Q 901 754 883 769 Q 820 817 759 797 Q 573 764 170 720 Q 148 717 164 699 Q 179 684 198 678 Q 220 672 238 677 Q 311 696 391 707 L 436 713 Q 455 717 508 721 L 573 726 Z" fill="black"></path>
				<path d="M 309 538 Q 290 554 266 560 Q 256 561 250 553 Q 246 547 254 536 Q 299 428 266 195 Q 260 164 250 129 Q 241 102 246 82 Q 256 46 268 33 Q 280 18 290 33 Q 299 43 305 62 L 313 104 Q 317 134 323 308 Q 324 462 331 502 C 333 521 333 521 309 538 Z" fill="black"></path>
				<path d="M 650 90 Q 680 53 702 18 Q 712 -1 724 -1 Q 742 0 759 38 Q 778 80 773 131 Q 763 252 752 477 Q 751 513 768 537 Q 778 552 768 563 Q 746 585 687 611 Q 666 621 650 610 Q 613 595 568 582 L 530 572 Q 499 566 464 559 Q 463 559 462 558 L 417 551 Q 347 542 309 538 C 279 535 301 497 331 502 Q 347 503 376 510 Q 395 514 415 517 L 460 525 Q 494 532 529 538 L 565 545 Q 650 563 674 546 Q 713 518 694 133 Q 688 114 673 118 C 650 99 646 95 650 90 Z" fill="black"></path>
				<path d="M 391 707 Q 416 682 417 551 L 415 517 Q 412 433 359 310 Q 355 304 354 299 Q 353 290 362 293 Q 392 305 435 407 Q 435 411 437 414 Q 446 444 460 525 L 462 558 Q 463 595 464 653 Q 464 663 466 675 Q 472 688 464 697 Q 454 707 436 713 C 408 724 374 732 391 707 Z" fill="black"></path>
				<path d="M 568 582 Q 572 637 588 698 Q 592 713 583 721 Q 579 724 573 726 C 548 742 490 745 508 721 Q 509 717 515 712 Q 533 691 530 572 L 529 538 Q 528 505 527 469 Q 521 366 567 331 Q 580 318 642 323 Q 673 324 684 340 Q 693 350 686 357 Q 682 361 615 366 Q 552 373 565 545 L 568 582 Z" fill="black"></path>
				<path d="M 401 228 Q 382 224 405 206 Q 414 199 433 202 Q 527 215 596 224 Q 624 228 613 243 Q 601 259 571 266 Q 543 270 495 257 Q 446 241 401 228 Z" fill="black"></path>
				<path d="M 305 62 Q 315 61 328 63 Q 431 82 650 90 C 680 91 694 97 673 118 Q 664 128 648 139 Q 629 151 592 143 Q 438 115 313 104 C 283 101 275 62 305 62 Z" fill="red"></path>
</g>
		<text x="40" y="140" font-size="128" fill="#999999">7</text></g>
		<g id="id1:id2:id2" transform="matrix(1.0,0,0,1.0,2048,0.0)">			<g stroke="white" stroke-width="4" transform="scale(4, 4)"> <rect x="1" y="1" width="255" height="255" fill="white" stroke-width="0"/></g>
</g>
		<g id="id1:id3:id3" transform="matrix(1.0,0,0,1.0,3072,0.0)">			<g stroke="white" stroke-width="4" transform="scale(4, 4)"> <rect x="1" y="1" width="255" height="255" fill="white" stroke-width="0"/></g>
</g>
		<g id="id1:id4:id4" transform="matrix(1.0,0,0,1.0,4096,0.0)">			<g stroke="white" stroke-width="4" transform="scale(4, 4)"> <rect x="1" y="1" width="255" height="255" fill="white" stroke-width="0"/></g>
</g>
</g>
</svg>
