<?xml version="1.0" standalone="no"?>
<!DOCTYPE svg PUBLIC "-//W3C//DTD SVG 1.1//EN"
 "http://www.w3.org/Graphics/SVG/1.1/DTD/svg11.dtd">
<!-- generate by Handict dictionary app com.asnsami.handict -->

<svg xmlns="http://www.w3.org/2000/svg" xmlns:sodipodi="http://sodipodi.sourceforge.net/DTD/sodipodi-0.dtd" version="1.1" width="640" height="384" viewBox="0 0 5120 3072">
	<g id="id0:id0" transform="translate(0.0,0)">
		<g id="id0:id0:id0" transform="matrix(1.0,0,0,1.0,0,0.0)">			<g stroke="lightgray" stroke-width="4" transform="scale(4, 4)"> <rect x="0" y="0" width="256" height="256" fill="white" stroke-width="4"/></g>
			<g transform="scale(0.92, -0.92) translate(60, -920)">					<path d="M 306 766 Q 373 691 398 692 Q 414 691 420 712 Q 421 728 410 750 Q 397 769 371 777 Q 328 795 310 797 Q 300 798 299 785 Q 298 775 306 766 Z" fill="red"></path>
				<path d="M 180 684 Q 207 612 206 543 Q 210 255 162 114 Q 144 57 177 15 L 179 13 Q 192 -2 202 13 Q 239 53 241 224 Q 241 515 257 632 Q 258 642 260 649 Q 263 668 246 679 Q 221 700 193 708 Q 183 711 176 702 Q 172 695 180 684 Z" fill="lightgray"></path>
				<path d="M 508 754 Q 492 755 495 744 Q 502 732 524 720 Q 537 711 561 715 Q 738 763 758 727 Q 789 678 784 271 Q 783 199 779 124 Q 779 82 763 72 Q 753 62 690 70 Q 672 73 674 63 Q 675 56 689 49 Q 746 6 775 -27 Q 797 -46 811 -44 Q 824 -40 835 -11 Q 851 37 849 106 Q 828 500 830 647 Q 831 687 844 711 Q 857 733 846 746 Q 836 762 788 787 Q 770 797 705 782 Q 579 760 508 754 Z" fill="lightgray"></path>
				<path d="M 509 555 Q 557 565 611 573 Q 656 582 662 588 Q 669 595 666 602 Q 660 612 636 619 Q 611 625 584 616 Q 551 606 517 597 L 471 586 Q 413 576 349 571 Q 318 567 339 552 Q 369 536 443 544 Q 455 547 468 548 L 509 555 Z" fill="lightgray"></path>
				<path d="M 496 492 Q 502 525 509 555 L 517 597 Q 517 598 518 600 Q 522 615 525 624 Q 529 631 531 638 Q 535 645 522 658 Q 498 674 481 678 Q 471 682 464 677 Q 458 673 463 660 Q 473 644 471 586 L 468 548 Q 465 518 462 483 C 459 453 491 462 496 492 Z" fill="lightgray"></path>
				<path d="M 411 478 Q 402 485 393 490 Q 383 493 376 489 Q 369 485 371 477 Q 383 450 387 366 Q 387 315 390 223 C 391 193 427 197 427 227 Q 427 245 427 261 L 428 281 Q 428 303 429 325 L 430 344 Q 430 366 431 385 L 431 407 Q 432 429 435 452 C 436 460 435 460 411 478 Z" fill="lightgray"></path>
				<path d="M 607 251 Q 613 431 632 453 Q 642 465 632 479 Q 623 488 584 511 Q 571 520 553 511 Q 529 502 496 492 L 462 483 Q 437 480 411 478 C 381 476 405 449 435 452 Q 444 452 455 455 Q 558 480 564 473 Q 570 466 563 244 C 562 214 606 221 607 251 Z" fill="lightgray"></path>
				<path d="M 431 385 Q 434 385 438 385 Q 493 395 534 401 Q 552 405 545 414 Q 536 424 517 428 Q 483 431 431 407 C 404 395 401 385 431 385 Z" fill="lightgray"></path>
				<path d="M 429 325 L 530 337 Q 548 341 541 350 Q 532 362 513 365 Q 483 368 430 344 C 403 332 399 321 429 325 Z" fill="lightgray"></path>
				<path d="M 427 261 Q 428 260 438 261 Q 496 271 538 277 Q 556 281 549 290 Q 540 300 521 304 Q 494 307 428 281 C 400 270 397 265 427 261 Z" fill="lightgray"></path>
				<path d="M 390 223 Q 335 219 279 211 Q 261 210 274 194 Q 286 182 301 177 Q 319 173 333 176 Q 471 212 685 204 Q 701 204 716 203 Q 734 203 738 210 Q 742 220 729 232 Q 678 272 613 252 Q 610 252 607 251 L 563 244 Q 526 240 485 234 Q 457 231 427 227 L 390 223 Z" fill="lightgray"></path>
				<path d="M 402 148 Q 396 108 296 22 Q 278 10 301 12 Q 364 22 458 116 Q 459 117 461 118 Q 471 128 468 136 Q 467 146 445 154 Q 421 163 411 161 Q 404 160 402 148 Z" fill="lightgray"></path>
				<path d="M 534 136 Q 571 105 616 57 Q 629 42 640 39 Q 647 38 653 46 Q 662 56 651 90 Q 639 127 535 160 Q 528 164 526 154 Q 526 144 534 136 Z" fill="lightgray"></path>
</g>
		<text x="40" y="140" font-size="128" fill="#999999">1</text></g>
		<g id="id0:id1:id1" transform="matrix(1.0,0,0,1.0,1024,0.0)">			<g stroke="lightgray" stroke-width="4" transform="scale(4, 4)"> <rect x="0" y="0" width="256" height="256" fill="white" stroke-width="4"/></g>
			<g transform="scale(0.92, -0.92) translate(60, -920)">					<path d="M 306 766 Q 373 691 398 692 Q 414 691 420 712 Q 421 728 410 750 Q 397 769 371 777 Q 328 795 310 797 Q 300 798 299 785 Q 298 775 306 766 Z" fill="black"></path>
				<path d="M 180 684 Q 207 612 206 543 Q 210 255 162 114 Q 144 57 177 15 L 179 13 Q 192 -2 202 13 Q 239 53 241 224 Q 241 515 257 632 Q 258 642 260 649 Q 263 668 246 679 Q 221 700 193 708 Q 183 711 176 702 Q 172 695 180 684 Z" fill="red"></path>
				<path d="M 508 754 Q 492 755 495 744 Q 502 732 524 720 Q 537 711 561 715 Q 738 763 758 727 Q 789 678 784 271 Q 783 199 779 124 Q 779 82 763 72 Q 753 62 690 70 Q 672 73 674 63 Q 675 56 689 49 Q 746 6 775 -27 Q 797 -46 811 -44 Q 824 -40 835 -11 Q 851 37 849 106 Q 828 500 830 647 Q 831 687 844 711 Q 857 733 846 746 Q 836 762 788 787 Q 770 797 705 782 Q 579 760 508 754 Z" fill="lightgray"></path>
				<path d="M 509 555 Q 557 565 611 573 Q 656 582 662 588 Q 669 595 666 602 Q 660 612 636 619 Q 611 625 584 616 Q 551 606 517 597 L 471 586 Q 413 576 349 571 Q 318 567 339 552 Q 369 536 443 544 Q 455 547 468 548 L 509 555 Z" fill="lightgray"></path>
				<path d="M 496 492 Q 502 525 509 555 L 517 597 Q 517 598 518 600 Q 522 615 525 624 Q 529 631 531 638 Q 535 645 522 658 Q 498 674 481 678 Q 471 682 464 677 Q 458 673 463 660 Q 473 644 471 586 L 468 548 Q 465 518 462 483 C 459 453 491 462 496 492 Z" fill="lightgray"></path>
				<path d="M 411 478 Q 402 485 393 490 Q 383 493 376 489 Q 369 485 371 477 Q 383 450 387 366 Q 387 315 390 223 C 391 193 427 197 427 227 Q 427 245 427 261 L 428 281 Q 428 303 429 325 L 430 344 Q 430 366 431 385 L 431 407 Q 432 429 435 452 C 436 460 435 460 411 478 Z" fill="lightgray"></path>
				<path d="M 607 251 Q 613 431 632 453 Q 642 465 632 479 Q 623 488 584 511 Q 571 520 553 511 Q 529 502 496 492 L 462 483 Q 437 480 411 478 C 381 476 405 449 435 452 Q 444 452 455 455 Q 558 480 564 473 Q 570 466 563 244 C 562 214 606 221 607 251 Z" fill="lightgray"></path>
				<path d="M 431 385 Q 434 385 438 385 Q 493 395 534 401 Q 552 405 545 414 Q 536 424 517 428 Q 483 431 431 407 C 404 395 401 385 431 385 Z" fill="lightgray"></path>
				<path d="M 429 325 L 530 337 Q 548 341 541 350 Q 532 362 513 365 Q 483 368 430 344 C 403 332 399 321 429 325 Z" fill="lightgray"></path>
				<path d="M 427 261 Q 428 260 438 261 Q 496 271 538 277 Q 556 281 549 290 Q 540 300 521 304 Q 494 307 428 281 C 400 270 397 265 427 261 Z" fill="lightgray"></path>
				<path d="M 390 223 Q 335 219 279 211 Q 261 210 274 194 Q 286 182 301 177 Q 319 173 333 176 Q 471 212 685 204 Q 701 204 716 203 Q 734 203 738 210 Q 742 220 729 232 Q 678 272 613 252 Q 610 252 607 251 L 563 244 Q 526 240 485 234 Q 457 231 427 227 L 390 223 Z" fill="lightgray"></path>
				<path d="M 402 148 Q 396 108 296 22 Q 278 10 301 12 Q 364 22 458 116 Q 459 117 461 118 Q 471 128 468 136 Q 467 146 445 154 Q 421 163 411 161 Q 404 160 402 148 Z" fill="lightgray"></path>
				<path d="M 534 136 Q 571 105 616 57 Q 629 42 640 39 Q 647 38 653 46 Q 662 56 651 90 Q 639 127 535 160 Q 528 164 526 154 Q 526 144 534 136 Z" fill="lightgray"></path>
</g>
		<text x="40" y="140" font-size="128" fill="#999999">2</text></g>
		<g id="id0:id2:id2" transform="matrix(1.0,0,0,1.0,2048,0.0)">			<g stroke="lightgray" stroke-width="4" transform="scale(4, 4)"> <rect x="0" y="0" width="256" height="256" fill="white" stroke-width="4"/></g>
			<g transform="scale(0.92, -0.92) translate(60, -920)">					<path d="M 306 766 Q 373 691 398 692 Q 414 691 420 712 Q 421 728 410 750 Q 397 769 371 777 Q 328 795 310 797 Q 300 798 299 785 Q 298 775 306 766 Z" fill="black"></path>
				<path d="M 180 684 Q 207 612 206 543 Q 210 255 162 114 Q 144 57 177 15 L 179 13 Q 192 -2 202 13 Q 239 53 241 224 Q 241 515 257 632 Q 258 642 260 649 Q 263 668 246 679 Q 221 700 193 708 Q 183 711 176 702 Q 172 695 180 684 Z" fill="black"></path>
				<path d="M 508 754 Q 492 755 495 744 Q 502 732 524 720 Q 537 711 561 715 Q 738 763 758 727 Q 789 678 784 271 Q 783 199 779 124 Q 779 82 763 72 Q 753 62 690 70 Q 672 73 674 63 Q 675 56 689 49 Q 746 6 775 -27 Q 797 -46 811 -44 Q 824 -40 835 -11 Q 851 37 849 106 Q 828 500 830 647 Q 831 687 844 711 Q 857 733 846 746 Q 836 762 788 787 Q 770 797 705 782 Q 579 760 508 754 Z" fill="red"></path>
				<path d="M 509 555 Q 557 565 611 573 Q 656 582 662 588 Q 669 595 666 602 Q 660 612 636 619 Q 611 625 584 616 Q 551 606 517 597 L 471 586 Q 413 576 349 571 Q 318 567 339 552 Q 369 536 443 544 Q 455 547 468 548 L 509 555 Z" fill="lightgray"></path>
				<path d="M 496 492 Q 502 525 509 555 L 517 597 Q 517 598 518 600 Q 522 615 525 624 Q 529 631 531 638 Q 535 645 522 658 Q 498 674 481 678 Q 471 682 464 677 Q 458 673 463 660 Q 473 644 471 586 L 468 548 Q 465 518 462 483 C 459 453 491 462 496 492 Z" fill="lightgray"></path>
				<path d="M 411 478 Q 402 485 393 490 Q 383 493 376 489 Q 369 485 371 477 Q 383 450 387 366 Q 387 315 390 223 C 391 193 427 197 427 227 Q 427 245 427 261 L 428 281 Q 428 303 429 325 L 430 344 Q 430 366 431 385 L 431 407 Q 432 429 435 452 C 436 460 435 460 411 478 Z" fill="lightgray"></path>
				<path d="M 607 251 Q 613 431 632 453 Q 642 465 632 479 Q 623 488 584 511 Q 571 520 553 511 Q 529 502 496 492 L 462 483 Q 437 480 411 478 C 381 476 405 449 435 452 Q 444 452 455 455 Q 558 480 564 473 Q 570 466 563 244 C 562 214 606 221 607 251 Z" fill="lightgray"></path>
				<path d="M 431 385 Q 434 385 438 385 Q 493 395 534 401 Q 552 405 545 414 Q 536 424 517 428 Q 483 431 431 407 C 404 395 401 385 431 385 Z" fill="lightgray"></path>
				<path d="M 429 325 L 530 337 Q 548 341 541 350 Q 532 362 513 365 Q 483 368 430 344 C 403 332 399 321 429 325 Z" fill="lightgray"></path>
				<path d="M 427 261 Q 428 260 438 261 Q 496 271 538 277 Q 556 281 549 290 Q 540 300 521 304 Q 494 307 428 281 C 400 270 397 265 427 261 Z" fill="lightgray"></path>
				<path d="M 390 223 Q 335 219 279 211 Q 261 210 274 194 Q 286 182 301 177 Q 319 173 333 176 Q 471 212 685 204 Q 701 204 716 203 Q 734 203 738 210 Q 742 220 729 232 Q 678 272 613 252 Q 610 252 607 251 L 563 244 Q 526 240 485 234 Q 457 231 427 227 L 390 223 Z" fill="lightgray"></path>
				<path d="M 402 148 Q 396 108 296 22 Q 278 10 301 12 Q 364 22 458 116 Q 459 117 461 118 Q 471 128 468 136 Q 467 146 445 154 Q 421 163 411 161 Q 404 160 402 148 Z" fill="lightgray"></path>
				<path d="M 534 136 Q 571 105 616 57 Q 629 42 640 39 Q 647 38 653 46 Q 662 56 651 90 Q 639 127 535 160 Q 528 164 526 154 Q 526 144 534 136 Z" fill="lightgray"></path>
</g>
		<text x="40" y="140" font-size="128" fill="#999999">3</text></g>
		<g id="id0:id3:id3" transform="matrix(1.0,0,0,1.0,3072,0.0)">			<g stroke="lightgray" stroke-width="4" transform="scale(4, 4)"> <rect x="0" y="0" width="256" height="256" fill="white" stroke-width="4"/></g>
			<g transform="scale(0.92, -0.92) translate(60, -920)">					<path d="M 306 766 Q 373 691 398 692 Q 414 691 420 712 Q 421 728 410 750 Q 397 769 371 777 Q 328 795 310 797 Q 300 798 299 785 Q 298 775 306 766 Z" fill="black"></path>
				<path d="M 180 684 Q 207 612 206 543 Q 210 255 162 114 Q 144 57 177 15 L 179 13 Q 192 -2 202 13 Q 239 53 241 224 Q 241 515 257 632 Q 258 642 260 649 Q 263 668 246 679 Q 221 700 193 708 Q 183 711 176 702 Q 172 695 180 684 Z" fill="black"></path>
				<path d="M 508 754 Q 492 755 495 744 Q 502 732 524 720 Q 537 711 561 715 Q 738 763 758 727 Q 789 678 784 271 Q 783 199 779 124 Q 779 82 763 72 Q 753 62 690 70 Q 672 73 674 63 Q 675 56 689 49 Q 746 6 775 -27 Q 797 -46 811 -44 Q 824 -40 835 -11 Q 851 37 849 106 Q 828 500 830 647 Q 831 687 844 711 Q 857 733 846 746 Q 836 762 788 787 Q 770 797 705 782 Q 579 760 508 754 Z" fill="black"></path>
				<path d="M 509 555 Q 557 565 611 573 Q 656 582 662 588 Q 669 595 666 602 Q 660 612 636 619 Q 611 625 584 616 Q 551 606 517 597 L 471 586 Q 413 576 349 571 Q 318 567 339 552 Q 369 536 443 544 Q 455 547 468 548 L 509 555 Z" fill="red"></path>
				<path d="M 496 492 Q 502 525 509 555 L 517 597 Q 517 598 518 600 Q 522 615 525 624 Q 529 631 531 638 Q 535 645 522 658 Q 498 674 481 678 Q 471 682 464 677 Q 458 673 463 660 Q 473 644 471 586 L 468 548 Q 465 518 462 483 C 459 453 491 462 496 492 Z" fill="lightgray"></path>
				<path d="M 411 478 Q 402 485 393 490 Q 383 493 376 489 Q 369 485 371 477 Q 383 450 387 366 Q 387 315 390 223 C 391 193 427 197 427 227 Q 427 245 427 261 L 428 281 Q 428 303 429 325 L 430 344 Q 430 366 431 385 L 431 407 Q 432 429 435 452 C 436 460 435 460 411 478 Z" fill="lightgray"></path>
				<path d="M 607 251 Q 613 431 632 453 Q 642 465 632 479 Q 623 488 584 511 Q 571 520 553 511 Q 529 502 496 492 L 462 483 Q 437 480 411 478 C 381 476 405 449 435 452 Q 444 452 455 455 Q 558 480 564 473 Q 570 466 563 244 C 562 214 606 221 607 251 Z" fill="lightgray"></path>
				<path d="M 431 385 Q 434 385 438 385 Q 493 395 534 401 Q 552 405 545 414 Q 536 424 517 428 Q 483 431 431 407 C 404 395 401 385 431 385 Z" fill="lightgray"></path>
				<path d="M 429 325 L 530 337 Q 548 341 541 350 Q 532 362 513 365 Q 483 368 430 344 C 403 332 399 321 429 325 Z" fill="lightgray"></path>
				<path d="M 427 261 Q 428 260 438 261 Q 496 271 538 277 Q 556 281 549 290 Q 540 300 521 304 Q 494 307 428 281 C 400 270 397 265 427 261 Z" fill="lightgray"></path>
				<path d="M 390 223 Q 335 219 279 211 Q 261 210 274 194 Q 286 182 301 177 Q 319 173 333 176 Q 471 212 685 204 Q 701 204 716 203 Q 734 203 738 210 Q 742 220 729 232 Q 678 272 613 252 Q 610 252 607 251 L 563 244 Q 526 240 485 234 Q 457 231 427 227 L 390 223 Z" fill="lightgray"></path>
				<path d="M 402 148 Q 396 108 296 22 Q 278 10 301 12 Q 364 22 458 116 Q 459 117 461 118 Q 471 128 468 136 Q 467 146 445 154 Q 421 163 411 161 Q 404 160 402 148 Z" fill="lightgray"></path>
				<path d="M 534 136 Q 571 105 616 57 Q 629 42 640 39 Q 647 38 653 46 Q 662 56 651 90 Q 639 127 535 160 Q 528 164 526 154 Q 526 144 534 136 Z" fill="lightgray"></path>
</g>
		<text x="40" y="140" font-size="128" fill="#999999">4</text></g>
		<g id="id0:id4:id4" transform="matrix(1.0,0,0,1.0,4096,0.0)">			<g stroke="lightgray" stroke-width="4" transform="scale(4, 4)"> <rect x="0" y="0" width="256" height="256" fill="white" stroke-width="4"/></g>
			<g transform="scale(0.92, -0.92) translate(60, -920)">					<path d="M 306 766 Q 373 691 398 692 Q 414 691 420 712 Q 421 728 410 750 Q 397 769 371 777 Q 328 795 310 797 Q 300 798 299 785 Q 298 775 306 766 Z" fill="black"></path>
				<path d="M 180 684 Q 207 612 206 543 Q 210 255 162 114 Q 144 57 177 15 L 179 13 Q 192 -2 202 13 Q 239 53 241 224 Q 241 515 257 632 Q 258 642 260 649 Q 263 668 246 679 Q 221 700 193 708 Q 183 711 176 702 Q 172 695 180 684 Z" fill="black"></path>
				<path d="M 508 754 Q 492 755 495 744 Q 502 732 524 720 Q 537 711 561 715 Q 738 763 758 727 Q 789 678 784 271 Q 783 199 779 124 Q 779 82 763 72 Q 753 62 690 70 Q 672 73 674 63 Q 675 56 689 49 Q 746 6 775 -27 Q 797 -46 811 -44 Q 824 -40 835 -11 Q 851 37 849 106 Q 828 500 830 647 Q 831 687 844 711 Q 857 733 846 746 Q 836 762 788 787 Q 770 797 705 782 Q 579 760 508 754 Z" fill="black"></path>
				<path d="M 509 555 Q 557 565 611 573 Q 656 582 662 588 Q 669 595 666 602 Q 660 612 636 619 Q 611 625 584 616 Q 551 606 517 597 L 471 586 Q 413 576 349 571 Q 318 567 339 552 Q 369 536 443 544 Q 455 547 468 548 L 509 555 Z" fill="black"></path>
				<path d="M 496 492 Q 502 525 509 555 L 517 597 Q 517 598 518 600 Q 522 615 525 624 Q 529 631 531 638 Q 535 645 522 658 Q 498 674 481 678 Q 471 682 464 677 Q 458 673 463 660 Q 473 644 471 586 L 468 548 Q 465 518 462 483 C 459 453 491 462 496 492 Z" fill="red"></path>
				<path d="M 411 478 Q 402 485 393 490 Q 383 493 376 489 Q 369 485 371 477 Q 383 450 387 366 Q 387 315 390 223 C 391 193 427 197 427 227 Q 427 245 427 261 L 428 281 Q 428 303 429 325 L 430 344 Q 430 366 431 385 L 431 407 Q 432 429 435 452 C 436 460 435 460 411 478 Z" fill="lightgray"></path>
				<path d="M 607 251 Q 613 431 632 453 Q 642 465 632 479 Q 623 488 584 511 Q 571 520 553 511 Q 529 502 496 492 L 462 483 Q 437 480 411 478 C 381 476 405 449 435 452 Q 444 452 455 455 Q 558 480 564 473 Q 570 466 563 244 C 562 214 606 221 607 251 Z" fill="lightgray"></path>
				<path d="M 431 385 Q 434 385 438 385 Q 493 395 534 401 Q 552 405 545 414 Q 536 424 517 428 Q 483 431 431 407 C 404 395 401 385 431 385 Z" fill="lightgray"></path>
				<path d="M 429 325 L 530 337 Q 548 341 541 350 Q 532 362 513 365 Q 483 368 430 344 C 403 332 399 321 429 325 Z" fill="lightgray"></path>
				<path d="M 427 261 Q 428 260 438 261 Q 496 271 538 277 Q 556 281 549 290 Q 540 300 521 304 Q 494 307 428 281 C 400 270 397 265 427 261 Z" fill="lightgray"></path>
				<path d="M 390 223 Q 335 219 279 211 Q 261 210 274 194 Q 286 182 301 177 Q 319 173 333 176 Q 471 212 685 204 Q 701 204 716 203 Q 734 203 738 210 Q 742 220 729 232 Q 678 272 613 252 Q 610 252 607 251 L 563 244 Q 526 240 485 234 Q 457 231 427 227 L 390 223 Z" fill="lightgray"></path>
				<path d="M 402 148 Q 396 108 296 22 Q 278 10 301 12 Q 364 22 458 116 Q 459 117 461 118 Q 471 128 468 136 Q 467 146 445 154 Q 421 163 411 161 Q 404 160 402 148 Z" fill="lightgray"></path>
				<path d="M 534 136 Q 571 105 616 57 Q 629 42 640 39 Q 647 38 653 46 Q 662 56 651 90 Q 639 127 535 160 Q 528 164 526 154 Q 526 144 534 136 Z" fill="lightgray"></path>
</g>
		<text x="40" y="140" font-size="128" fill="#999999">5</text></g>
</g>
	<g id="id1:id1" transform="translate(0.0,1024)">
		<g id="id1:id0:id0" transform="matrix(1.0,0,0,1.0,0,0.0)">			<g stroke="lightgray" stroke-width="4" transform="scale(4, 4)"> <rect x="0" y="0" width="256" height="256" fill="white" stroke-width="4"/></g>
			<g transform="scale(0.92, -0.92) translate(60, -920)">					<path d="M 306 766 Q 373 691 398 692 Q 414 691 420 712 Q 421 728 410 750 Q 397 769 371 777 Q 328 795 310 797 Q 300 798 299 785 Q 298 775 306 766 Z" fill="black"></path>
				<path d="M 180 684 Q 207 612 206 543 Q 210 255 162 114 Q 144 57 177 15 L 179 13 Q 192 -2 202 13 Q 239 53 241 224 Q 241 515 257 632 Q 258 642 260 649 Q 263 668 246 679 Q 221 700 193 708 Q 183 711 176 702 Q 172 695 180 684 Z" fill="black"></path>
				<path d="M 508 754 Q 492 755 495 744 Q 502 732 524 720 Q 537 711 561 715 Q 738 763 758 727 Q 789 678 784 271 Q 783 199 779 124 Q 779 82 763 72 Q 753 62 690 70 Q 672 73 674 63 Q 675 56 689 49 Q 746 6 775 -27 Q 797 -46 811 -44 Q 824 -40 835 -11 Q 851 37 849 106 Q 828 500 830 647 Q 831 687 844 711 Q 857 733 846 746 Q 836 762 788 787 Q 770 797 705 782 Q 579 760 508 754 Z" fill="black"></path>
				<path d="M 509 555 Q 557 565 611 573 Q 656 582 662 588 Q 669 595 666 602 Q 660 612 636 619 Q 611 625 584 616 Q 551 606 517 597 L 471 586 Q 413 576 349 571 Q 318 567 339 552 Q 369 536 443 544 Q 455 547 468 548 L 509 555 Z" fill="black"></path>
				<path d="M 496 492 Q 502 525 509 555 L 517 597 Q 517 598 518 600 Q 522 615 525 624 Q 529 631 531 638 Q 535 645 522 658 Q 498 674 481 678 Q 471 682 464 677 Q 458 673 463 660 Q 473 644 471 586 L 468 548 Q 465 518 462 483 C 459 453 491 462 496 492 Z" fill="black"></path>
				<path d="M 411 478 Q 402 485 393 490 Q 383 493 376 489 Q 369 485 371 477 Q 383 450 387 366 Q 387 315 390 223 C 391 193 427 197 427 227 Q 427 245 427 261 L 428 281 Q 428 303 429 325 L 430 344 Q 430 366 431 385 L 431 407 Q 432 429 435 452 C 436 460 435 460 411 478 Z" fill="red"></path>
				<path d="M 607 251 Q 613 431 632 453 Q 642 465 632 479 Q 623 488 584 511 Q 571 520 553 511 Q 529 502 496 492 L 462 483 Q 437 480 411 478 C 381 476 405 449 435 452 Q 444 452 455 455 Q 558 480 564 473 Q 570 466 563 244 C 562 214 606 221 607 251 Z" fill="lightgray"></path>
				<path d="M 431 385 Q 434 385 438 385 Q 493 395 534 401 Q 552 405 545 414 Q 536 424 517 428 Q 483 431 431 407 C 404 395 401 385 431 385 Z" fill="lightgray"></path>
				<path d="M 429 325 L 530 337 Q 548 341 541 350 Q 532 362 513 365 Q 483 368 430 344 C 403 332 399 321 429 325 Z" fill="lightgray"></path>
				<path d="M 427 261 Q 428 260 438 261 Q 496 271 538 277 Q 556 281 549 290 Q 540 300 521 304 Q 494 307 428 281 C 400 270 397 265 427 261 Z" fill="lightgray"></path>
				<path d="M 390 223 Q 335 219 279 211 Q 261 210 274 194 Q 286 182 301 177 Q 319 173 333 176 Q 471 212 685 204 Q 701 204 716 203 Q 734 203 738 210 Q 742 220 729 232 Q 678 272 613 252 Q 610 252 607 251 L 563 244 Q 526 240 485 234 Q 457 231 427 227 L 390 223 Z" fill="lightgray"></path>
				<path d="M 402 148 Q 396 108 296 22 Q 278 10 301 12 Q 364 22 458 116 Q 459 117 461 118 Q 471 128 468 136 Q 467 146 445 154 Q 421 163 411 161 Q 404 160 402 148 Z" fill="lightgray"></path>
				<path d="M 534 136 Q 571 105 616 57 Q 629 42 640 39 Q 647 38 653 46 Q 662 56 651 90 Q 639 127 535 160 Q 528 164 526 154 Q 526 144 534 136 Z" fill="lightgray"></path>
</g>
		<text x="40" y="140" font-size="128" fill="#999999">6</text></g>
		<g id="id1:id1:id1" transform="matrix(1.0,0,0,1.0,1024,0.0)">			<g stroke="lightgray" stroke-width="4" transform="scale(4, 4)"> <rect x="0" y="0" width="256" height="256" fill="white" stroke-width="4"/></g>
			<g transform="scale(0.92, -0.92) translate(60, -920)">					<path d="M 306 766 Q 373 691 398 692 Q 414 691 420 712 Q 421 728 410 750 Q 397 769 371 777 Q 328 795 310 797 Q 300 798 299 785 Q 298 775 306 766 Z" fill="black"></path>
				<path d="M 180 684 Q 207 612 206 543 Q 210 255 162 114 Q 144 57 177 15 L 179 13 Q 192 -2 202 13 Q 239 53 241 224 Q 241 515 257 632 Q 258 642 260 649 Q 263 668 246 679 Q 221 700 193 708 Q 183 711 176 702 Q 172 695 180 684 Z" fill="black"></path>
				<path d="M 508 754 Q 492 755 495 744 Q 502 732 524 720 Q 537 711 561 715 Q 738 763 758 727 Q 789 678 784 271 Q 783 199 779 124 Q 779 82 763 72 Q 753 62 690 70 Q 672 73 674 63 Q 675 56 689 49 Q 746 6 775 -27 Q 797 -46 811 -44 Q 824 -40 835 -11 Q 851 37 849 106 Q 828 500 830 647 Q 831 687 844 711 Q 857 733 846 746 Q 836 762 788 787 Q 770 797 705 782 Q 579 760 508 754 Z" fill="black"></path>
				<path d="M 509 555 Q 557 565 611 573 Q 656 582 662 588 Q 669 595 666 602 Q 660 612 636 619 Q 611 625 584 616 Q 551 606 517 597 L 471 586 Q 413 576 349 571 Q 318 567 339 552 Q 369 536 443 544 Q 455 547 468 548 L 509 555 Z" fill="black"></path>
				<path d="M 496 492 Q 502 525 509 555 L 517 597 Q 517 598 518 600 Q 522 615 525 624 Q 529 631 531 638 Q 535 645 522 658 Q 498 674 481 678 Q 471 682 464 677 Q 458 673 463 660 Q 473 644 471 586 L 468 548 Q 465 518 462 483 C 459 453 491 462 496 492 Z" fill="black"></path>
				<path d="M 411 478 Q 402 485 393 490 Q 383 493 376 489 Q 369 485 371 477 Q 383 450 387 366 Q 387 315 390 223 C 391 193 427 197 427 227 Q 427 245 427 261 L 428 281 Q 428 303 429 325 L 430 344 Q 430 366 431 385 L 431 407 Q 432 429 435 452 C 436 460 435 460 411 478 Z" fill="black"></path>
				<path d="M 607 251 Q 613 431 632 453 Q 642 465 632 479 Q 623 488 584 511 Q 571 520 553 511 Q 529 502 496 492 L 462 483 Q 437 480 411 478 C 381 476 405 449 435 452 Q 444 452 455 455 Q 558 480 564 473 Q 570 466 563 244 C 562 214 606 221 607 251 Z" fill="red"></path>
				<path d="M 431 385 Q 434 385 438 385 Q 493 395 534 401 Q 552 405 545 414 Q 536 424 517 428 Q 483 431 431 407 C 404 395 401 385 431 385 Z" fill="lightgray"></path>
				<path d="M 429 325 L 530 337 Q 548 341 541 350 Q 532 362 513 365 Q 483 368 430 344 C 403 332 399 321 429 325 Z" fill="lightgray"></path>
				<path d="M 427 261 Q 428 260 438 261 Q 496 271 538 277 Q 556 281 549 290 Q 540 300 521 304 Q 494 307 428 281 C 400 270 397 265 427 261 Z" fill="lightgray"></path>
				<path d="M 390 223 Q 335 219 279 211 Q 261 210 274 194 Q 286 182 301 177 Q 319 173 333 176 Q 471 212 685 204 Q 701 204 716 203 Q 734 203 738 210 Q 742 220 729 232 Q 678 272 613 252 Q 610 252 607 251 L 563 244 Q 526 240 485 234 Q 457 231 427 227 L 390 223 Z" fill="lightgray"></path>
				<path d="M 402 148 Q 396 108 296 22 Q 278 10 301 12 Q 364 22 458 116 Q 459 117 461 118 Q 471 128 468 136 Q 467 146 445 154 Q 421 163 411 161 Q 404 160 402 148 Z" fill="lightgray"></path>
				<path d="M 534 136 Q 571 105 616 57 Q 629 42 640 39 Q 647 38 653 46 Q 662 56 651 90 Q 639 127 535 160 Q 528 164 526 154 Q 526 144 534 136 Z" fill="lightgray"></path>
</g>
		<text x="40" y="140" font-size="128" fill="#999999">7</text></g>
		<g id="id1:id2:id2" transform="matrix(1.0,0,0,1.0,2048,0.0)">			<g stroke="lightgray" stroke-width="4" transform="scale(4, 4)"> <rect x="0" y="0" width="256" height="256" fill="white" stroke-width="4"/></g>
			<g transform="scale(0.92, -0.92) translate(60, -920)">					<path d="M 306 766 Q 373 691 398 692 Q 414 691 420 712 Q 421 728 410 750 Q 397 769 371 777 Q 328 795 310 797 Q 300 798 299 785 Q 298 775 306 766 Z" fill="black"></path>
				<path d="M 180 684 Q 207 612 206 543 Q 210 255 162 114 Q 144 57 177 15 L 179 13 Q 192 -2 202 13 Q 239 53 241 224 Q 241 515 257 632 Q 258 642 260 649 Q 263 668 246 679 Q 221 700 193 708 Q 183 711 176 702 Q 172 695 180 684 Z" fill="black"></path>
				<path d="M 508 754 Q 492 755 495 744 Q 502 732 524 720 Q 537 711 561 715 Q 738 763 758 727 Q 789 678 784 271 Q 783 199 779 124 Q 779 82 763 72 Q 753 62 690 70 Q 672 73 674 63 Q 675 56 689 49 Q 746 6 775 -27 Q 797 -46 811 -44 Q 824 -40 835 -11 Q 851 37 849 106 Q 828 500 830 647 Q 831 687 844 711 Q 857 733 846 746 Q 836 762 788 787 Q 770 797 705 782 Q 579 760 508 754 Z" fill="black"></path>
				<path d="M 509 555 Q 557 565 611 573 Q 656 582 662 588 Q 669 595 666 602 Q 660 612 636 619 Q 611 625 584 616 Q 551 606 517 597 L 471 586 Q 413 576 349 571 Q 318 567 339 552 Q 369 536 443 544 Q 455 547 468 548 L 509 555 Z" fill="black"></path>
				<path d="M 496 492 Q 502 525 509 555 L 517 597 Q 517 598 518 600 Q 522 615 525 624 Q 529 631 531 638 Q 535 645 522 658 Q 498 674 481 678 Q 471 682 464 677 Q 458 673 463 660 Q 473 644 471 586 L 468 548 Q 465 518 462 483 C 459 453 491 462 496 492 Z" fill="black"></path>
				<path d="M 411 478 Q 402 485 393 490 Q 383 493 376 489 Q 369 485 371 477 Q 383 450 387 366 Q 387 315 390 223 C 391 193 427 197 427 227 Q 427 245 427 261 L 428 281 Q 428 303 429 325 L 430 344 Q 430 366 431 385 L 431 407 Q 432 429 435 452 C 436 460 435 460 411 478 Z" fill="black"></path>
				<path d="M 607 251 Q 613 431 632 453 Q 642 465 632 479 Q 623 488 584 511 Q 571 520 553 511 Q 529 502 496 492 L 462 483 Q 437 480 411 478 C 381 476 405 449 435 452 Q 444 452 455 455 Q 558 480 564 473 Q 570 466 563 244 C 562 214 606 221 607 251 Z" fill="black"></path>
				<path d="M 431 385 Q 434 385 438 385 Q 493 395 534 401 Q 552 405 545 414 Q 536 424 517 428 Q 483 431 431 407 C 404 395 401 385 431 385 Z" fill="red"></path>
				<path d="M 429 325 L 530 337 Q 548 341 541 350 Q 532 362 513 365 Q 483 368 430 344 C 403 332 399 321 429 325 Z" fill="lightgray"></path>
				<path d="M 427 261 Q 428 260 438 261 Q 496 271 538 277 Q 556 281 549 290 Q 540 300 521 304 Q 494 307 428 281 C 400 270 397 265 427 261 Z" fill="lightgray"></path>
				<path d="M 390 223 Q 335 219 279 211 Q 261 210 274 194 Q 286 182 301 177 Q 319 173 333 176 Q 471 212 685 204 Q 701 204 716 203 Q 734 203 738 210 Q 742 220 729 232 Q 678 272 613 252 Q 610 252 607 251 L 563 244 Q 526 240 485 234 Q 457 231 427 227 L 390 223 Z" fill="lightgray"></path>
				<path d="M 402 148 Q 396 108 296 22 Q 278 10 301 12 Q 364 22 458 116 Q 459 117 461 118 Q 471 128 468 136 Q 467 146 445 154 Q 421 163 411 161 Q 404 160 402 148 Z" fill="lightgray"></path>
				<path d="M 534 136 Q 571 105 616 57 Q 629 42 640 39 Q 647 38 653 46 Q 662 56 651 90 Q 639 127 535 160 Q 528 164 526 154 Q 526 144 534 136 Z" fill="lightgray"></path>
</g>
		<text x="40" y="140" font-size="128" fill="#999999">8</text></g>
		<g id="id1:id3:id3" transform="matrix(1.0,0,0,1.0,3072,0.0)">			<g stroke="lightgray" stroke-width="4" transform="scale(4, 4)"> <rect x="0" y="0" width="256" height="256" fill="white" stroke-width="4"/></g>
			<g transform="scale(0.92, -0.92) translate(60, -920)">					<path d="M 306 766 Q 373 691 398 692 Q 414 691 420 712 Q 421 728 410 750 Q 397 769 371 777 Q 328 795 310 797 Q 300 798 299 785 Q 298 775 306 766 Z" fill="black"></path>
				<path d="M 180 684 Q 207 612 206 543 Q 210 255 162 114 Q 144 57 177 15 L 179 13 Q 192 -2 202 13 Q 239 53 241 224 Q 241 515 257 632 Q 258 642 260 649 Q 263 668 246 679 Q 221 700 193 708 Q 183 711 176 702 Q 172 695 180 684 Z" fill="black"></path>
				<path d="M 508 754 Q 492 755 495 744 Q 502 732 524 720 Q 537 711 561 715 Q 738 763 758 727 Q 789 678 784 271 Q 783 199 779 124 Q 779 82 763 72 Q 753 62 690 70 Q 672 73 674 63 Q 675 56 689 49 Q 746 6 775 -27 Q 797 -46 811 -44 Q 824 -40 835 -11 Q 851 37 849 106 Q 828 500 830 647 Q 831 687 844 711 Q 857 733 846 746 Q 836 762 788 787 Q 770 797 705 782 Q 579 760 508 754 Z" fill="black"></path>
				<path d="M 509 555 Q 557 565 611 573 Q 656 582 662 588 Q 669 595 666 602 Q 660 612 636 619 Q 611 625 584 616 Q 551 606 517 597 L 471 586 Q 413 576 349 571 Q 318 567 339 552 Q 369 536 443 544 Q 455 547 468 548 L 509 555 Z" fill="black"></path>
				<path d="M 496 492 Q 502 525 509 555 L 517 597 Q 517 598 518 600 Q 522 615 525 624 Q 529 631 531 638 Q 535 645 522 658 Q 498 674 481 678 Q 471 682 464 677 Q 458 673 463 660 Q 473 644 471 586 L 468 548 Q 465 518 462 483 C 459 453 491 462 496 492 Z" fill="black"></path>
				<path d="M 411 478 Q 402 485 393 490 Q 383 493 376 489 Q 369 485 371 477 Q 383 450 387 366 Q 387 315 390 223 C 391 193 427 197 427 227 Q 427 245 427 261 L 428 281 Q 428 303 429 325 L 430 344 Q 430 366 431 385 L 431 407 Q 432 429 435 452 C 436 460 435 460 411 478 Z" fill="black"></path>
				<path d="M 607 251 Q 613 431 632 453 Q 642 465 632 479 Q 623 488 584 511 Q 571 520 553 511 Q 529 502 496 492 L 462 483 Q 437 480 411 478 C 381 476 405 449 435 452 Q 444 452 455 455 Q 558 480 564 473 Q 570 466 563 244 C 562 214 606 221 607 251 Z" fill="black"></path>
				<path d="M 431 385 Q 434 385 438 385 Q 493 395 534 401 Q 552 405 545 414 Q 536 424 517 428 Q 483 431 431 407 C 404 395 401 385 431 385 Z" fill="black"></path>
				<path d="M 429 325 L 530 337 Q 548 341 541 350 Q 532 362 513 365 Q 483 368 430 344 C 403 332 399 321 429 325 Z" fill="red"></path>
				<path d="M 427 261 Q 428 260 438 261 Q 496 271 538 277 Q 556 281 549 290 Q 540 300 521 304 Q 494 307 428 281 C 400 270 397 265 427 261 Z" fill="lightgray"></path>
				<path d="M 390 223 Q 335 219 279 211 Q 261 210 274 194 Q 286 182 301 177 Q 319 173 333 176 Q 471 212 685 204 Q 701 204 716 203 Q 734 203 738 210 Q 742 220 729 232 Q 678 272 613 252 Q 610 252 607 251 L 563 244 Q 526 240 485 234 Q 457 231 427 227 L 390 223 Z" fill="lightgray"></path>
				<path d="M 402 148 Q 396 108 296 22 Q 278 10 301 12 Q 364 22 458 116 Q 459 117 461 118 Q 471 128 468 136 Q 467 146 445 154 Q 421 163 411 161 Q 404 160 402 148 Z" fill="lightgray"></path>
				<path d="M 534 136 Q 571 105 616 57 Q 629 42 640 39 Q 647 38 653 46 Q 662 56 651 90 Q 639 127 535 160 Q 528 164 526 154 Q 526 144 534 136 Z" fill="lightgray"></path>
</g>
		<text x="40" y="140" font-size="128" fill="#999999">9</text></g>
		<g id="id1:id4:id4" transform="matrix(1.0,0,0,1.0,4096,0.0)">			<g stroke="lightgray" stroke-width="4" transform="scale(4, 4)"> <rect x="0" y="0" width="256" height="256" fill="white" stroke-width="4"/></g>
			<g transform="scale(0.92, -0.92) translate(60, -920)">					<path d="M 306 766 Q 373 691 398 692 Q 414 691 420 712 Q 421 728 410 750 Q 397 769 371 777 Q 328 795 310 797 Q 300 798 299 785 Q 298 775 306 766 Z" fill="black"></path>
				<path d="M 180 684 Q 207 612 206 543 Q 210 255 162 114 Q 144 57 177 15 L 179 13 Q 192 -2 202 13 Q 239 53 241 224 Q 241 515 257 632 Q 258 642 260 649 Q 263 668 246 679 Q 221 700 193 708 Q 183 711 176 702 Q 172 695 180 684 Z" fill="black"></path>
				<path d="M 508 754 Q 492 755 495 744 Q 502 732 524 720 Q 537 711 561 715 Q 738 763 758 727 Q 789 678 784 271 Q 783 199 779 124 Q 779 82 763 72 Q 753 62 690 70 Q 672 73 674 63 Q 675 56 689 49 Q 746 6 775 -27 Q 797 -46 811 -44 Q 824 -40 835 -11 Q 851 37 849 106 Q 828 500 830 647 Q 831 687 844 711 Q 857 733 846 746 Q 836 762 788 787 Q 770 797 705 782 Q 579 760 508 754 Z" fill="black"></path>
				<path d="M 509 555 Q 557 565 611 573 Q 656 582 662 588 Q 669 595 666 602 Q 660 612 636 619 Q 611 625 584 616 Q 551 606 517 597 L 471 586 Q 413 576 349 571 Q 318 567 339 552 Q 369 536 443 544 Q 455 547 468 548 L 509 555 Z" fill="black"></path>
				<path d="M 496 492 Q 502 525 509 555 L 517 597 Q 517 598 518 600 Q 522 615 525 624 Q 529 631 531 638 Q 535 645 522 658 Q 498 674 481 678 Q 471 682 464 677 Q 458 673 463 660 Q 473 644 471 586 L 468 548 Q 465 518 462 483 C 459 453 491 462 496 492 Z" fill="black"></path>
				<path d="M 411 478 Q 402 485 393 490 Q 383 493 376 489 Q 369 485 371 477 Q 383 450 387 366 Q 387 315 390 223 C 391 193 427 197 427 227 Q 427 245 427 261 L 428 281 Q 428 303 429 325 L 430 344 Q 430 366 431 385 L 431 407 Q 432 429 435 452 C 436 460 435 460 411 478 Z" fill="black"></path>
				<path d="M 607 251 Q 613 431 632 453 Q 642 465 632 479 Q 623 488 584 511 Q 571 520 553 511 Q 529 502 496 492 L 462 483 Q 437 480 411 478 C 381 476 405 449 435 452 Q 444 452 455 455 Q 558 480 564 473 Q 570 466 563 244 C 562 214 606 221 607 251 Z" fill="black"></path>
				<path d="M 431 385 Q 434 385 438 385 Q 493 395 534 401 Q 552 405 545 414 Q 536 424 517 428 Q 483 431 431 407 C 404 395 401 385 431 385 Z" fill="black"></path>
				<path d="M 429 325 L 530 337 Q 548 341 541 350 Q 532 362 513 365 Q 483 368 430 344 C 403 332 399 321 429 325 Z" fill="black"></path>
				<path d="M 427 261 Q 428 260 438 261 Q 496 271 538 277 Q 556 281 549 290 Q 540 300 521 304 Q 494 307 428 281 C 400 270 397 265 427 261 Z" fill="red"></path>
				<path d="M 390 223 Q 335 219 279 211 Q 261 210 274 194 Q 286 182 301 177 Q 319 173 333 176 Q 471 212 685 204 Q 701 204 716 203 Q 734 203 738 210 Q 742 220 729 232 Q 678 272 613 252 Q 610 252 607 251 L 563 244 Q 526 240 485 234 Q 457 231 427 227 L 390 223 Z" fill="lightgray"></path>
				<path d="M 402 148 Q 396 108 296 22 Q 278 10 301 12 Q 364 22 458 116 Q 459 117 461 118 Q 471 128 468 136 Q 467 146 445 154 Q 421 163 411 161 Q 404 160 402 148 Z" fill="lightgray"></path>
				<path d="M 534 136 Q 571 105 616 57 Q 629 42 640 39 Q 647 38 653 46 Q 662 56 651 90 Q 639 127 535 160 Q 528 164 526 154 Q 526 144 534 136 Z" fill="lightgray"></path>
</g>
		<text x="40" y="140" font-size="128" fill="#999999">10</text></g>
</g>
	<g id="id2:id2" transform="translate(0.0,2048)">
		<g id="id2:id0:id0" transform="matrix(1.0,0,0,1.0,0,0.0)">			<g stroke="lightgray" stroke-width="4" transform="scale(4, 4)"> <rect x="0" y="0" width="256" height="256" fill="white" stroke-width="4"/></g>
			<g transform="scale(0.92, -0.92) translate(60, -920)">					<path d="M 306 766 Q 373 691 398 692 Q 414 691 420 712 Q 421 728 410 750 Q 397 769 371 777 Q 328 795 310 797 Q 300 798 299 785 Q 298 775 306 766 Z" fill="black"></path>
				<path d="M 180 684 Q 207 612 206 543 Q 210 255 162 114 Q 144 57 177 15 L 179 13 Q 192 -2 202 13 Q 239 53 241 224 Q 241 515 257 632 Q 258 642 260 649 Q 263 668 246 679 Q 221 700 193 708 Q 183 711 176 702 Q 172 695 180 684 Z" fill="black"></path>
				<path d="M 508 754 Q 492 755 495 744 Q 502 732 524 720 Q 537 711 561 715 Q 738 763 758 727 Q 789 678 784 271 Q 783 199 779 124 Q 779 82 763 72 Q 753 62 690 70 Q 672 73 674 63 Q 675 56 689 49 Q 746 6 775 -27 Q 797 -46 811 -44 Q 824 -40 835 -11 Q 851 37 849 106 Q 828 500 830 647 Q 831 687 844 711 Q 857 733 846 746 Q 836 762 788 787 Q 770 797 705 782 Q 579 760 508 754 Z" fill="black"></path>
				<path d="M 509 555 Q 557 565 611 573 Q 656 582 662 588 Q 669 595 666 602 Q 660 612 636 619 Q 611 625 584 616 Q 551 606 517 597 L 471 586 Q 413 576 349 571 Q 318 567 339 552 Q 369 536 443 544 Q 455 547 468 548 L 509 555 Z" fill="black"></path>
				<path d="M 496 492 Q 502 525 509 555 L 517 597 Q 517 598 518 600 Q 522 615 525 624 Q 529 631 531 638 Q 535 645 522 658 Q 498 674 481 678 Q 471 682 464 677 Q 458 673 463 660 Q 473 644 471 586 L 468 548 Q 465 518 462 483 C 459 453 491 462 496 492 Z" fill="black"></path>
				<path d="M 411 478 Q 402 485 393 490 Q 383 493 376 489 Q 369 485 371 477 Q 383 450 387 366 Q 387 315 390 223 C 391 193 427 197 427 227 Q 427 245 427 261 L 428 281 Q 428 303 429 325 L 430 344 Q 430 366 431 385 L 431 407 Q 432 429 435 452 C 436 460 435 460 411 478 Z" fill="black"></path>
				<path d="M 607 251 Q 613 431 632 453 Q 642 465 632 479 Q 623 488 584 511 Q 571 520 553 511 Q 529 502 496 492 L 462 483 Q 437 480 411 478 C 381 476 405 449 435 452 Q 444 452 455 455 Q 558 480 564 473 Q 570 466 563 244 C 562 214 606 221 607 251 Z" fill="black"></path>
				<path d="M 431 385 Q 434 385 438 385 Q 493 395 534 401 Q 552 405 545 414 Q 536 424 517 428 Q 483 431 431 407 C 404 395 401 385 431 385 Z" fill="black"></path>
				<path d="M 429 325 L 530 337 Q 548 341 541 350 Q 532 362 513 365 Q 483 368 430 344 C 403 332 399 321 429 325 Z" fill="black"></path>
				<path d="M 427 261 Q 428 260 438 261 Q 496 271 538 277 Q 556 281 549 290 Q 540 300 521 304 Q 494 307 428 281 C 400 270 397 265 427 261 Z" fill="black"></path>
				<path d="M 390 223 Q 335 219 279 211 Q 261 210 274 194 Q 286 182 301 177 Q 319 173 333 176 Q 471 212 685 204 Q 701 204 716 203 Q 734 203 738 210 Q 742 220 729 232 Q 678 272 613 252 Q 610 252 607 251 L 563 244 Q 526 240 485 234 Q 457 231 427 227 L 390 223 Z" fill="red"></path>
				<path d="M 402 148 Q 396 108 296 22 Q 278 10 301 12 Q 364 22 458 116 Q 459 117 461 118 Q 471 128 468 136 Q 467 146 445 154 Q 421 163 411 161 Q 404 160 402 148 Z" fill="lightgray"></path>
				<path d="M 534 136 Q 571 105 616 57 Q 629 42 640 39 Q 647 38 653 46 Q 662 56 651 90 Q 639 127 535 160 Q 528 164 526 154 Q 526 144 534 136 Z" fill="lightgray"></path>
</g>
		<text x="40" y="140" font-size="128" fill="#999999">11</text></g>
		<g id="id2:id1:id1" transform="matrix(1.0,0,0,1.0,1024,0.0)">			<g stroke="lightgray" stroke-width="4" transform="scale(4, 4)"> <rect x="0" y="0" width="256" height="256" fill="white" stroke-width="4"/></g>
			<g transform="scale(0.92, -0.92) translate(60, -920)">					<path d="M 306 766 Q 373 691 398 692 Q 414 691 420 712 Q 421 728 410 750 Q 397 769 371 777 Q 328 795 310 797 Q 300 798 299 785 Q 298 775 306 766 Z" fill="black"></path>
				<path d="M 180 684 Q 207 612 206 543 Q 210 255 162 114 Q 144 57 177 15 L 179 13 Q 192 -2 202 13 Q 239 53 241 224 Q 241 515 257 632 Q 258 642 260 649 Q 263 668 246 679 Q 221 700 193 708 Q 183 711 176 702 Q 172 695 180 684 Z" fill="black"></path>
				<path d="M 508 754 Q 492 755 495 744 Q 502 732 524 720 Q 537 711 561 715 Q 738 763 758 727 Q 789 678 784 271 Q 783 199 779 124 Q 779 82 763 72 Q 753 62 690 70 Q 672 73 674 63 Q 675 56 689 49 Q 746 6 775 -27 Q 797 -46 811 -44 Q 824 -40 835 -11 Q 851 37 849 106 Q 828 500 830 647 Q 831 687 844 711 Q 857 733 846 746 Q 836 762 788 787 Q 770 797 705 782 Q 579 760 508 754 Z" fill="black"></path>
				<path d="M 509 555 Q 557 565 611 573 Q 656 582 662 588 Q 669 595 666 602 Q 660 612 636 619 Q 611 625 584 616 Q 551 606 517 597 L 471 586 Q 413 576 349 571 Q 318 567 339 552 Q 369 536 443 544 Q 455 547 468 548 L 509 555 Z" fill="black"></path>
				<path d="M 496 492 Q 502 525 509 555 L 517 597 Q 517 598 518 600 Q 522 615 525 624 Q 529 631 531 638 Q 535 645 522 658 Q 498 674 481 678 Q 471 682 464 677 Q 458 673 463 660 Q 473 644 471 586 L 468 548 Q 465 518 462 483 C 459 453 491 462 496 492 Z" fill="black"></path>
				<path d="M 411 478 Q 402 485 393 490 Q 383 493 376 489 Q 369 485 371 477 Q 383 450 387 366 Q 387 315 390 223 C 391 193 427 197 427 227 Q 427 245 427 261 L 428 281 Q 428 303 429 325 L 430 344 Q 430 366 431 385 L 431 407 Q 432 429 435 452 C 436 460 435 460 411 478 Z" fill="black"></path>
				<path d="M 607 251 Q 613 431 632 453 Q 642 465 632 479 Q 623 488 584 511 Q 571 520 553 511 Q 529 502 496 492 L 462 483 Q 437 480 411 478 C 381 476 405 449 435 452 Q 444 452 455 455 Q 558 480 564 473 Q 570 466 563 244 C 562 214 606 221 607 251 Z" fill="black"></path>
				<path d="M 431 385 Q 434 385 438 385 Q 493 395 534 401 Q 552 405 545 414 Q 536 424 517 428 Q 483 431 431 407 C 404 395 401 385 431 385 Z" fill="black"></path>
				<path d="M 429 325 L 530 337 Q 548 341 541 350 Q 532 362 513 365 Q 483 368 430 344 C 403 332 399 321 429 325 Z" fill="black"></path>
				<path d="M 427 261 Q 428 260 438 261 Q 496 271 538 277 Q 556 281 549 290 Q 540 300 521 304 Q 494 307 428 281 C 400 270 397 265 427 261 Z" fill="black"></path>
				<path d="M 390 223 Q 335 219 279 211 Q 261 210 274 194 Q 286 182 301 177 Q 319 173 333 176 Q 471 212 685 204 Q 701 204 716 203 Q 734 203 738 210 Q 742 220 729 232 Q 678 272 613 252 Q 610 252 607 251 L 563 244 Q 526 240 485 234 Q 457 231 427 227 L 390 223 Z" fill="black"></path>
				<path d="M 402 148 Q 396 108 296 22 Q 278 10 301 12 Q 364 22 458 116 Q 459 117 461 118 Q 471 128 468 136 Q 467 146 445 154 Q 421 163 411 161 Q 404 160 402 148 Z" fill="red"></path>
				<path d="M 534 136 Q 571 105 616 57 Q 629 42 640 39 Q 647 38 653 46 Q 662 56 651 90 Q 639 127 535 160 Q 528 164 526 154 Q 526 144 534 136 Z" fill="lightgray"></path>
</g>
		<text x="40" y="140" font-size="128" fill="#999999">12</text></g>
		<g id="id2:id2:id2" transform="matrix(1.0,0,0,1.0,2048,0.0)">			<g stroke="lightgray" stroke-width="4" transform="scale(4, 4)"> <rect x="0" y="0" width="256" height="256" fill="white" stroke-width="4"/></g>
			<g transform="scale(0.92, -0.92) translate(60, -920)">					<path d="M 306 766 Q 373 691 398 692 Q 414 691 420 712 Q 421 728 410 750 Q 397 769 371 777 Q 328 795 310 797 Q 300 798 299 785 Q 298 775 306 766 Z" fill="black"></path>
				<path d="M 180 684 Q 207 612 206 543 Q 210 255 162 114 Q 144 57 177 15 L 179 13 Q 192 -2 202 13 Q 239 53 241 224 Q 241 515 257 632 Q 258 642 260 649 Q 263 668 246 679 Q 221 700 193 708 Q 183 711 176 702 Q 172 695 180 684 Z" fill="black"></path>
				<path d="M 508 754 Q 492 755 495 744 Q 502 732 524 720 Q 537 711 561 715 Q 738 763 758 727 Q 789 678 784 271 Q 783 199 779 124 Q 779 82 763 72 Q 753 62 690 70 Q 672 73 674 63 Q 675 56 689 49 Q 746 6 775 -27 Q 797 -46 811 -44 Q 824 -40 835 -11 Q 851 37 849 106 Q 828 500 830 647 Q 831 687 844 711 Q 857 733 846 746 Q 836 762 788 787 Q 770 797 705 782 Q 579 760 508 754 Z" fill="black"></path>
				<path d="M 509 555 Q 557 565 611 573 Q 656 582 662 588 Q 669 595 666 602 Q 660 612 636 619 Q 611 625 584 616 Q 551 606 517 597 L 471 586 Q 413 576 349 571 Q 318 567 339 552 Q 369 536 443 544 Q 455 547 468 548 L 509 555 Z" fill="black"></path>
				<path d="M 496 492 Q 502 525 509 555 L 517 597 Q 517 598 518 600 Q 522 615 525 624 Q 529 631 531 638 Q 535 645 522 658 Q 498 674 481 678 Q 471 682 464 677 Q 458 673 463 660 Q 473 644 471 586 L 468 548 Q 465 518 462 483 C 459 453 491 462 496 492 Z" fill="black"></path>
				<path d="M 411 478 Q 402 485 393 490 Q 383 493 376 489 Q 369 485 371 477 Q 383 450 387 366 Q 387 315 390 223 C 391 193 427 197 427 227 Q 427 245 427 261 L 428 281 Q 428 303 429 325 L 430 344 Q 430 366 431 385 L 431 407 Q 432 429 435 452 C 436 460 435 460 411 478 Z" fill="black"></path>
				<path d="M 607 251 Q 613 431 632 453 Q 642 465 632 479 Q 623 488 584 511 Q 571 520 553 511 Q 529 502 496 492 L 462 483 Q 437 480 411 478 C 381 476 405 449 435 452 Q 444 452 455 455 Q 558 480 564 473 Q 570 466 563 244 C 562 214 606 221 607 251 Z" fill="black"></path>
				<path d="M 431 385 Q 434 385 438 385 Q 493 395 534 401 Q 552 405 545 414 Q 536 424 517 428 Q 483 431 431 407 C 404 395 401 385 431 385 Z" fill="black"></path>
				<path d="M 429 325 L 530 337 Q 548 341 541 350 Q 532 362 513 365 Q 483 368 430 344 C 403 332 399 321 429 325 Z" fill="black"></path>
				<path d="M 427 261 Q 428 260 438 261 Q 496 271 538 277 Q 556 281 549 290 Q 540 300 521 304 Q 494 307 428 281 C 400 270 397 265 427 261 Z" fill="black"></path>
				<path d="M 390 223 Q 335 219 279 211 Q 261 210 274 194 Q 286 182 301 177 Q 319 173 333 176 Q 471 212 685 204 Q 701 204 716 203 Q 734 203 738 210 Q 742 220 729 232 Q 678 272 613 252 Q 610 252 607 251 L 563 244 Q 526 240 485 234 Q 457 231 427 227 L 390 223 Z" fill="black"></path>
				<path d="M 402 148 Q 396 108 296 22 Q 278 10 301 12 Q 364 22 458 116 Q 459 117 461 118 Q 471 128 468 136 Q 467 146 445 154 Q 421 163 411 161 Q 404 160 402 148 Z" fill="black"></path>
				<path d="M 534 136 Q 571 105 616 57 Q 629 42 640 39 Q 647 38 653 46 Q 662 56 651 90 Q 639 127 535 160 Q 528 164 526 154 Q 526 144 534 136 Z" fill="red"></path>
</g>
		<text x="40" y="140" font-size="128" fill="#999999">13</text></g>
		<g id="id2:id3:id3" transform="matrix(1.0,0,0,1.0,3072,0.0)">			<g stroke="white" stroke-width="4" transform="scale(4, 4)"> <rect x="1" y="1" width="255" height="255" fill="white" stroke-width="0"/></g>
</g>
		<g id="id2:id4:id4" transform="matrix(1.0,0,0,1.0,4096,0.0)">			<g stroke="white" stroke-width="4" transform="scale(4, 4)"> <rect x="1" y="1" width="255" height="255" fill="white" stroke-width="0"/></g>
</g>
</g>
</svg>
