<?xml version="1.0" standalone="no"?>
<!DOCTYPE svg PUBLIC "-//W3C//DTD SVG 1.1//EN"
 "http://www.w3.org/Graphics/SVG/1.1/DTD/svg11.dtd">
<!-- generate by Handict dictionary app com.asnsami.handict -->

<svg xmlns="http://www.w3.org/2000/svg" xmlns:sodipodi="http://sodipodi.sourceforge.net/DTD/sodipodi-0.dtd" version="1.1" width="640" height="128" viewBox="0 0 5120 1024">
	<g id="id0:id0" transform="translate(0.0,0)">
		<g id="id0:id0:id0" transform="matrix(1.0,0,0,1.0,0,0.0)">			<g stroke="lightgray" stroke-width="4" transform="scale(4, 4)"> <rect x="0" y="0" width="256" height="256" fill="white" stroke-width="4"/></g>
			<g transform="scale(0.92, -0.92) translate(60, -920)">					<path d="M 538 598 Q 736 631 745 638 Q 755 645 750 655 Q 743 668 713 678 Q 682 687 648 676 Q 593 661 538 648 L 484 637 Q 393 624 289 619 Q 249 615 276 595 Q 318 568 400 579 Q 439 585 484 591 L 538 598 Z" fill="red"></path>
				<path d="M 536 454 Q 599 466 706 475 Q 718 474 728 487 Q 729 500 705 512 Q 666 534 585 512 Q 560 508 536 501 L 482 490 Q 479 490 293 467 Q 262 464 286 444 Q 322 414 353 422 Q 411 435 481 445 L 536 454 Z" fill="lightgray"></path>
				<path d="M 536 321 Q 752 348 775 330 Q 782 323 781 308 Q 760 214 750 200 Q 741 188 726 195 Q 692 207 654 220 Q 623 227 642 205 Q 708 138 732 91 Q 736 78 749 83 Q 780 99 824 218 Q 833 267 861 288 Q 880 312 873 321 Q 866 337 807 378 Q 786 397 742 383 Q 715 380 535 357 L 478 351 Q 372 339 319 326 Q 246 311 191 306 Q 164 302 159 292 Q 156 283 177 271 Q 214 246 253 260 Q 382 305 477 313 L 536 321 Z" fill="lightgray"></path>
				<path d="M 535 357 Q 535 400 536 454 L 536 501 Q 536 547 538 598 L 538 648 Q 538 703 553 784 Q 556 803 540 814 Q 503 839 486 842 Q 473 846 454 837 Q 444 827 453 816 Q 459 803 467 791 Q 483 760 484 716 Q 484 679 484 637 L 484 591 Q 483 545 482 490 L 481 445 Q 480 400 478 351 L 477 313 Q 465 1 493 -41 Q 499 -48 507 -46 Q 525 -37 531 30 Q 540 135 536 321 L 535 357 Z" fill="lightgray"></path>
</g>
		<text x="40" y="140" font-size="128" fill="#999999">1</text></g>
		<g id="id0:id1:id1" transform="matrix(1.0,0,0,1.0,1024,0.0)">			<g stroke="lightgray" stroke-width="4" transform="scale(4, 4)"> <rect x="0" y="0" width="256" height="256" fill="white" stroke-width="4"/></g>
			<g transform="scale(0.92, -0.92) translate(60, -920)">					<path d="M 538 598 Q 736 631 745 638 Q 755 645 750 655 Q 743 668 713 678 Q 682 687 648 676 Q 593 661 538 648 L 484 637 Q 393 624 289 619 Q 249 615 276 595 Q 318 568 400 579 Q 439 585 484 591 L 538 598 Z" fill="black"></path>
				<path d="M 536 454 Q 599 466 706 475 Q 718 474 728 487 Q 729 500 705 512 Q 666 534 585 512 Q 560 508 536 501 L 482 490 Q 479 490 293 467 Q 262 464 286 444 Q 322 414 353 422 Q 411 435 481 445 L 536 454 Z" fill="red"></path>
				<path d="M 536 321 Q 752 348 775 330 Q 782 323 781 308 Q 760 214 750 200 Q 741 188 726 195 Q 692 207 654 220 Q 623 227 642 205 Q 708 138 732 91 Q 736 78 749 83 Q 780 99 824 218 Q 833 267 861 288 Q 880 312 873 321 Q 866 337 807 378 Q 786 397 742 383 Q 715 380 535 357 L 478 351 Q 372 339 319 326 Q 246 311 191 306 Q 164 302 159 292 Q 156 283 177 271 Q 214 246 253 260 Q 382 305 477 313 L 536 321 Z" fill="lightgray"></path>
				<path d="M 535 357 Q 535 400 536 454 L 536 501 Q 536 547 538 598 L 538 648 Q 538 703 553 784 Q 556 803 540 814 Q 503 839 486 842 Q 473 846 454 837 Q 444 827 453 816 Q 459 803 467 791 Q 483 760 484 716 Q 484 679 484 637 L 484 591 Q 483 545 482 490 L 481 445 Q 480 400 478 351 L 477 313 Q 465 1 493 -41 Q 499 -48 507 -46 Q 525 -37 531 30 Q 540 135 536 321 L 535 357 Z" fill="lightgray"></path>
</g>
		<text x="40" y="140" font-size="128" fill="#999999">2</text></g>
		<g id="id0:id2:id2" transform="matrix(1.0,0,0,1.0,2048,0.0)">			<g stroke="lightgray" stroke-width="4" transform="scale(4, 4)"> <rect x="0" y="0" width="256" height="256" fill="white" stroke-width="4"/></g>
			<g transform="scale(0.92, -0.92) translate(60, -920)">					<path d="M 538 598 Q 736 631 745 638 Q 755 645 750 655 Q 743 668 713 678 Q 682 687 648 676 Q 593 661 538 648 L 484 637 Q 393 624 289 619 Q 249 615 276 595 Q 318 568 400 579 Q 439 585 484 591 L 538 598 Z" fill="black"></path>
				<path d="M 536 454 Q 599 466 706 475 Q 718 474 728 487 Q 729 500 705 512 Q 666 534 585 512 Q 560 508 536 501 L 482 490 Q 479 490 293 467 Q 262 464 286 444 Q 322 414 353 422 Q 411 435 481 445 L 536 454 Z" fill="black"></path>
				<path d="M 536 321 Q 752 348 775 330 Q 782 323 781 308 Q 760 214 750 200 Q 741 188 726 195 Q 692 207 654 220 Q 623 227 642 205 Q 708 138 732 91 Q 736 78 749 83 Q 780 99 824 218 Q 833 267 861 288 Q 880 312 873 321 Q 866 337 807 378 Q 786 397 742 383 Q 715 380 535 357 L 478 351 Q 372 339 319 326 Q 246 311 191 306 Q 164 302 159 292 Q 156 283 177 271 Q 214 246 253 260 Q 382 305 477 313 L 536 321 Z" fill="red"></path>
				<path d="M 535 357 Q 535 400 536 454 L 536 501 Q 536 547 538 598 L 538 648 Q 538 703 553 784 Q 556 803 540 814 Q 503 839 486 842 Q 473 846 454 837 Q 444 827 453 816 Q 459 803 467 791 Q 483 760 484 716 Q 484 679 484 637 L 484 591 Q 483 545 482 490 L 481 445 Q 480 400 478 351 L 477 313 Q 465 1 493 -41 Q 499 -48 507 -46 Q 525 -37 531 30 Q 540 135 536 321 L 535 357 Z" fill="lightgray"></path>
</g>
		<text x="40" y="140" font-size="128" fill="#999999">3</text></g>
		<g id="id0:id3:id3" transform="matrix(1.0,0,0,1.0,3072,0.0)">			<g stroke="lightgray" stroke-width="4" transform="scale(4, 4)"> <rect x="0" y="0" width="256" height="256" fill="white" stroke-width="4"/></g>
			<g transform="scale(0.92, -0.92) translate(60, -920)">					<path d="M 538 598 Q 736 631 745 638 Q 755 645 750 655 Q 743 668 713 678 Q 682 687 648 676 Q 593 661 538 648 L 484 637 Q 393 624 289 619 Q 249 615 276 595 Q 318 568 400 579 Q 439 585 484 591 L 538 598 Z" fill="black"></path>
				<path d="M 536 454 Q 599 466 706 475 Q 718 474 728 487 Q 729 500 705 512 Q 666 534 585 512 Q 560 508 536 501 L 482 490 Q 479 490 293 467 Q 262 464 286 444 Q 322 414 353 422 Q 411 435 481 445 L 536 454 Z" fill="black"></path>
				<path d="M 536 321 Q 752 348 775 330 Q 782 323 781 308 Q 760 214 750 200 Q 741 188 726 195 Q 692 207 654 220 Q 623 227 642 205 Q 708 138 732 91 Q 736 78 749 83 Q 780 99 824 218 Q 833 267 861 288 Q 880 312 873 321 Q 866 337 807 378 Q 786 397 742 383 Q 715 380 535 357 L 478 351 Q 372 339 319 326 Q 246 311 191 306 Q 164 302 159 292 Q 156 283 177 271 Q 214 246 253 260 Q 382 305 477 313 L 536 321 Z" fill="black"></path>
				<path d="M 535 357 Q 535 400 536 454 L 536 501 Q 536 547 538 598 L 538 648 Q 538 703 553 784 Q 556 803 540 814 Q 503 839 486 842 Q 473 846 454 837 Q 444 827 453 816 Q 459 803 467 791 Q 483 760 484 716 Q 484 679 484 637 L 484 591 Q 483 545 482 490 L 481 445 Q 480 400 478 351 L 477 313 Q 465 1 493 -41 Q 499 -48 507 -46 Q 525 -37 531 30 Q 540 135 536 321 L 535 357 Z" fill="red"></path>
</g>
		<text x="40" y="140" font-size="128" fill="#999999">4</text></g>
		<g id="id0:id4:id4" transform="matrix(1.0,0,0,1.0,4096,0.0)">			<g stroke="white" stroke-width="4" transform="scale(4, 4)"> <rect x="1" y="1" width="255" height="255" fill="white" stroke-width="0"/></g>
</g>
</g>
</svg>
